<?xml version="1.0" encoding="UTF-8" standalone="no"?>
<!DOCTYPE svg PUBLIC "-//W3C//DTD SVG 1.1//EN"
 "http://www.w3.org/Graphics/SVG/1.1/DTD/svg11.dtd">
<!-- Generated by graphviz version 2.49.1 (20210923.0004)
 -->
<!-- Title: src/integrators/rungeKutta4.hpp Pages: 1 -->
<svg width="354pt" height="162pt"
 viewBox="0.00 0.00 353.50 162.00" xmlns="http://www.w3.org/2000/svg" xmlns:xlink="http://www.w3.org/1999/xlink">
<g id="graph0" class="graph" transform="scale(1 1) rotate(0) translate(4 158)">
<title>src/integrators/rungeKutta4.hpp</title>
<!-- Node1 -->
<g id="node1" class="node">
<title>Node1</title>
<g id="a_node1"><a xlink:title=" ">
<polygon fill="#bfbfbf" stroke="black" points="76.5,-134.5 76.5,-153.5 233.5,-153.5 233.5,-134.5 76.5,-134.5"/>
<text text-anchor="middle" x="155" y="-141.5" font-family="Helvetica,sans-Serif" font-size="10.00">src/integrators/rungeKutta4.hpp</text>
</a>
</g>
</g>
<!-- Node2 -->
<g id="node2" class="node">
<title>Node2</title>
<g id="a_node2"><a xlink:href="../../da/dc5/rungeKutta4_8cpp.html" target="_top" xlink:title=" ">
<polygon fill="none" stroke="black" points="0,-73 0,-92 156,-92 156,-73 0,-73"/>
<text text-anchor="middle" x="78" y="-80" font-family="Helvetica,sans-Serif" font-size="10.00">src/integrators/rungeKutta4.cpp</text>
</a>
</g>
</g>
<!-- Node1&#45;&gt;Node2 -->
<g id="edge1" class="edge">
<title>Node1&#45;&gt;Node2</title>
<path fill="none" stroke="midnightblue" d="M135.97,-128.29C121.2,-116.88 101.24,-101.46 89.01,-92.01"/>
<polygon fill="midnightblue" stroke="midnightblue" points="133.91,-131.13 143.97,-134.48 138.19,-125.59 133.91,-131.13"/>
</g>
<!-- Node3 -->
<g id="node3" class="node">
<title>Node3</title>
<g id="a_node3"><a xlink:href="../../de/d46/engine_8hpp.html" target="_top" xlink:title=" ">
<polygon fill="none" stroke="black" points="174.5,-67.5 174.5,-97.5 289.5,-97.5 289.5,-67.5 174.5,-67.5"/>
<text text-anchor="start" x="182.5" y="-85.5" font-family="Helvetica,sans-Serif" font-size="10.00">src/simulation_system</text>
<text text-anchor="middle" x="232" y="-74.5" font-family="Helvetica,sans-Serif" font-size="10.00">/engine.hpp</text>
</a>
</g>
</g>
<!-- Node1&#45;&gt;Node3 -->
<g id="edge2" class="edge">
<title>Node1&#45;&gt;Node3</title>
<path fill="none" stroke="midnightblue" d="M174.16,-128.2C186.3,-118.81 201.91,-106.75 213.85,-97.52"/>
<polygon fill="midnightblue" stroke="midnightblue" points="171.81,-125.59 166.03,-134.48 176.09,-131.13 171.81,-125.59"/>
</g>
<!-- Node4 -->
<g id="node4" class="node">
<title>Node4</title>
<g id="a_node4"><a xlink:href="../../df/d0a/main_8cpp.html" target="_top" xlink:title=" ">
<polygon fill="none" stroke="black" points="139.5,-6 139.5,-25 212.5,-25 212.5,-6 139.5,-6"/>
<text text-anchor="middle" x="176" y="-13" font-family="Helvetica,sans-Serif" font-size="10.00">src/main.cpp</text>
</a>
</g>
</g>
<!-- Node3&#45;&gt;Node4 -->
<g id="edge3" class="edge">
<title>Node3&#45;&gt;Node4</title>
<path fill="none" stroke="midnightblue" d="M213.18,-59.66C203.02,-47.86 191.05,-33.97 183.49,-25.19"/>
<polygon fill="midnightblue" stroke="midnightblue" points="210.67,-62.1 219.85,-67.4 215.97,-57.54 210.67,-62.1"/>
</g>
<!-- Node5 -->
<g id="node5" class="node">
<title>Node5</title>
<g id="a_node5"><a xlink:href="../../da/d5c/engine_8cpp.html" target="_top" xlink:title=" ">
<polygon fill="none" stroke="black" points="230.5,-0.5 230.5,-30.5 345.5,-30.5 345.5,-0.5 230.5,-0.5"/>
<text text-anchor="start" x="238.5" y="-18.5" font-family="Helvetica,sans-Serif" font-size="10.00">src/simulation_system</text>
<text text-anchor="middle" x="288" y="-7.5" font-family="Helvetica,sans-Serif" font-size="10.00">/engine.cpp</text>
</a>
</g>
</g>
<!-- Node3&#45;&gt;Node5 -->
<g id="edge4" class="edge">
<title>Node3&#45;&gt;Node5</title>
<path fill="none" stroke="midnightblue" d="M250.75,-59.74C259.04,-50.12 268.54,-39.09 275.87,-30.58"/>
<polygon fill="midnightblue" stroke="midnightblue" points="248.03,-57.54 244.15,-67.4 253.33,-62.1 248.03,-57.54"/>
</g>
</g>
</svg>
