<?xml version="1.0" encoding="UTF-8" standalone="no"?>
<!DOCTYPE svg PUBLIC "-//W3C//DTD SVG 1.1//EN"
 "http://www.w3.org/Graphics/SVG/1.1/DTD/svg11.dtd">
<!-- Generated by graphviz version 2.49.1 (20210923.0004)
 -->
<!-- Title: GSDUtil::readSystemSpecifics Pages: 1 -->
<svg width="747pt" height="218pt"
 viewBox="0.00 0.00 747.00 218.00" xmlns="http://www.w3.org/2000/svg" xmlns:xlink="http://www.w3.org/1999/xlink">
<g id="graph0" class="graph" transform="scale(1 1) rotate(0) translate(4 214)">
<title>GSDUtil::readSystemSpecifics</title>
<!-- Node1 -->
<g id="node1" class="node">
<title>Node1</title>
<g id="a_node1"><a xlink:title=" ">
<polygon fill="#bfbfbf" stroke="black" points="0,-133.5 0,-152.5 152,-152.5 152,-133.5 0,-133.5"/>
<text text-anchor="middle" x="76" y="-140.5" font-family="Helvetica,sans-Serif" font-size="10.00">GSDUtil::readSystemSpecifics</text>
</a>
</g>
</g>
<!-- Node2 -->
<g id="node2" class="node">
<title>Node2</title>
<g id="a_node2"><a xlink:href="../../de/d83/classGSDUtil.html#a00a919382c11e9dd1fa7ae1a8788d4c0" target="_top" xlink:title=" ">
<polygon fill="none" stroke="black" points="331,-171.5 331,-190.5 467,-190.5 467,-171.5 331,-171.5"/>
<text text-anchor="middle" x="399" y="-178.5" font-family="Helvetica,sans-Serif" font-size="10.00">GSDUtil::checkGSDReturn</text>
</a>
</g>
</g>
<!-- Node1&#45;&gt;Node2 -->
<g id="edge1" class="edge">
<title>Node1&#45;&gt;Node2</title>
<path fill="none" stroke="midnightblue" d="M152.26,-151.91C202.99,-157.91 269.72,-165.81 320.84,-171.87"/>
<polygon fill="midnightblue" stroke="midnightblue" points="320.51,-175.35 330.85,-173.05 321.33,-168.4 320.51,-175.35"/>
</g>
<!-- Node3 -->
<g id="node3" class="node">
<title>Node3</title>
<g id="a_node3"><a xlink:href="../../de/d83/classGSDUtil.html#a86d2352b694afc6a0c938a13b3acec9d" target="_top" xlink:title=" ">
<polygon fill="none" stroke="black" points="188,-114.5 188,-133.5 295,-133.5 295,-114.5 188,-114.5"/>
<text text-anchor="middle" x="241.5" y="-121.5" font-family="Helvetica,sans-Serif" font-size="10.00">GSDUtil::readChunk</text>
</a>
</g>
</g>
<!-- Node1&#45;&gt;Node3 -->
<g id="edge2" class="edge">
<title>Node1&#45;&gt;Node3</title>
<path fill="none" stroke="midnightblue" d="M152.05,-134.28C160.64,-133.28 169.34,-132.27 177.75,-131.29"/>
<polygon fill="midnightblue" stroke="midnightblue" points="178.31,-134.75 187.84,-130.12 177.5,-127.8 178.31,-134.75"/>
</g>
<!-- Node3&#45;&gt;Node2 -->
<g id="edge3" class="edge">
<title>Node3&#45;&gt;Node2</title>
<path fill="none" stroke="midnightblue" d="M262.59,-133.51C280.34,-141.7 307.05,-153.5 331,-162 337.51,-164.31 344.45,-166.53 351.3,-168.6"/>
<polygon fill="midnightblue" stroke="midnightblue" points="350.64,-172.05 361.22,-171.49 352.6,-165.33 350.64,-172.05"/>
</g>
<!-- Node4 -->
<g id="node4" class="node">
<title>Node4</title>
<g id="a_node4"><a xlink:href="../../de/d83/classGSDUtil.html#abbd7a5860cd0f2b6cc72f1a90d2df018" target="_top" xlink:title=" ">
<polygon fill="none" stroke="black" points="357,-133.5 357,-152.5 441,-152.5 441,-133.5 357,-133.5"/>
<text text-anchor="middle" x="399" y="-140.5" font-family="Helvetica,sans-Serif" font-size="10.00">GSDUtil::frame</text>
</a>
</g>
</g>
<!-- Node3&#45;&gt;Node4 -->
<g id="edge4" class="edge">
<title>Node3&#45;&gt;Node4</title>
<path fill="none" stroke="midnightblue" d="M295.15,-130.43C311.78,-132.47 330.14,-134.71 346.68,-136.73"/>
<polygon fill="midnightblue" stroke="midnightblue" points="346.36,-140.22 356.71,-137.96 347.21,-133.27 346.36,-140.22"/>
</g>
<!-- Node5 -->
<g id="node5" class="node">
<title>Node5</title>
<g id="a_node5"><a xlink:href="../../dc/dcb/gsd_8c.html#ac00249e8c3030557711beb337c8424dd" target="_top" xlink:title=" ">
<polygon fill="none" stroke="black" points="355.5,-95.5 355.5,-114.5 442.5,-114.5 442.5,-95.5 355.5,-95.5"/>
<text text-anchor="middle" x="399" y="-102.5" font-family="Helvetica,sans-Serif" font-size="10.00">gsd_find_chunk</text>
</a>
</g>
</g>
<!-- Node3&#45;&gt;Node5 -->
<g id="edge5" class="edge">
<title>Node3&#45;&gt;Node5</title>
<path fill="none" stroke="midnightblue" d="M295.15,-117.57C311.26,-115.6 328.99,-113.43 345.13,-111.46"/>
<polygon fill="midnightblue" stroke="midnightblue" points="345.96,-114.88 355.46,-110.2 345.11,-107.94 345.96,-114.88"/>
</g>
<!-- Node11 -->
<g id="node11" class="node">
<title>Node11</title>
<g id="a_node11"><a xlink:href="../../dc/dcb/gsd_8c.html#a2db2e3e8a72948bf413e7f09469ec8a6" target="_top" xlink:title=" ">
<polygon fill="none" stroke="black" points="354,-38.5 354,-57.5 444,-57.5 444,-38.5 354,-38.5"/>
<text text-anchor="middle" x="399" y="-45.5" font-family="Helvetica,sans-Serif" font-size="10.00">gsd_read_chunk</text>
</a>
</g>
</g>
<!-- Node3&#45;&gt;Node11 -->
<g id="edge11" class="edge">
<title>Node3&#45;&gt;Node11</title>
<path fill="none" stroke="midnightblue" d="M262.19,-114.37C289.3,-101.13 338.28,-77.19 369.42,-61.97"/>
<polygon fill="midnightblue" stroke="midnightblue" points="371.02,-65.08 378.47,-57.55 367.94,-58.79 371.02,-65.08"/>
</g>
<!-- Node13 -->
<g id="node13" class="node">
<title>Node13</title>
<g id="a_node13"><a xlink:href="../../dc/dcb/gsd_8c.html#ab1d1a8a5f73b37df0c706f41df3bdd69" target="_top" xlink:title=" ">
<polygon fill="none" stroke="black" points="520,-0.5 520,-19.5 609,-19.5 609,-0.5 520,-0.5"/>
<text text-anchor="middle" x="564.5" y="-7.5" font-family="Helvetica,sans-Serif" font-size="10.00">gsd_sizeof_type</text>
</a>
</g>
</g>
<!-- Node3&#45;&gt;Node13 -->
<g id="edge14" class="edge">
<title>Node3&#45;&gt;Node13</title>
<path fill="none" stroke="midnightblue" d="M248.07,-114.27C260.17,-94.18 291.04,-48.36 331,-29 387.48,-1.63 460.79,-0.44 509.84,-3.76"/>
<polygon fill="midnightblue" stroke="midnightblue" points="509.69,-7.25 519.93,-4.52 510.22,-0.27 509.69,-7.25"/>
</g>
<!-- Node6 -->
<g id="node6" class="node">
<title>Node6</title>
<g id="a_node6"><a xlink:href="../../dc/dcb/gsd_8c.html#a3ffe758eed9a5bae487f514a0a45e97d" target="_top" xlink:title=" ">
<polygon fill="none" stroke="black" points="507.5,-190.5 507.5,-209.5 621.5,-209.5 621.5,-190.5 507.5,-190.5"/>
<text text-anchor="middle" x="564.5" y="-197.5" font-family="Helvetica,sans-Serif" font-size="10.00">gsd_cmp_index_entry</text>
</a>
</g>
</g>
<!-- Node5&#45;&gt;Node6 -->
<g id="edge6" class="edge">
<title>Node5&#45;&gt;Node6</title>
<path fill="none" stroke="midnightblue" d="M442.58,-112.03C451.21,-114.8 459.83,-118.64 467,-124 491,-141.94 479.25,-162.73 503,-181 505.45,-182.89 508.09,-184.59 510.85,-186.12"/>
<polygon fill="midnightblue" stroke="midnightblue" points="509.46,-189.33 519.99,-190.47 512.47,-183.01 509.46,-189.33"/>
</g>
<!-- Node7 -->
<g id="node7" class="node">
<title>Node7</title>
<g id="a_node7"><a xlink:href="../../dc/dcb/gsd_8c.html#a7479046d4d6e15c33cb24034ddd87562" target="_top" xlink:title=" ">
<polygon fill="none" stroke="black" points="517.5,-152.5 517.5,-171.5 611.5,-171.5 611.5,-152.5 517.5,-152.5"/>
<text text-anchor="middle" x="564.5" y="-159.5" font-family="Helvetica,sans-Serif" font-size="10.00">gsd_get_nframes</text>
</a>
</g>
</g>
<!-- Node5&#45;&gt;Node7 -->
<g id="edge7" class="edge">
<title>Node5&#45;&gt;Node7</title>
<path fill="none" stroke="midnightblue" d="M439.08,-114.6C448.36,-117.28 458.13,-120.45 467,-124 483.79,-130.73 486.3,-136.04 503,-143 508.21,-145.17 513.76,-147.23 519.3,-149.15"/>
<polygon fill="midnightblue" stroke="midnightblue" points="518.6,-152.6 529.19,-152.41 520.8,-145.95 518.6,-152.6"/>
</g>
<!-- Node8 -->
<g id="node8" class="node">
<title>Node8</title>
<g id="a_node8"><a xlink:href="../../dc/dcb/gsd_8c.html#a493ef951956c9f98adff89a80ddb3fa6" target="_top" xlink:title=" ">
<polygon fill="none" stroke="black" points="514.5,-114.5 514.5,-133.5 614.5,-133.5 614.5,-114.5 514.5,-114.5"/>
<text text-anchor="middle" x="564.5" y="-121.5" font-family="Helvetica,sans-Serif" font-size="10.00">gsd_make_version</text>
</a>
</g>
</g>
<!-- Node5&#45;&gt;Node8 -->
<g id="edge8" class="edge">
<title>Node5&#45;&gt;Node8</title>
<path fill="none" stroke="midnightblue" d="M442.53,-109.94C461.31,-112.12 483.71,-114.73 504.1,-117.1"/>
<polygon fill="midnightblue" stroke="midnightblue" points="503.89,-120.6 514.23,-118.27 504.7,-113.64 503.89,-120.6"/>
</g>
<!-- Node9 -->
<g id="node9" class="node">
<title>Node9</title>
<g id="a_node9"><a xlink:href="../../dc/dcb/gsd_8c.html#a31b9400272036b121040e9fc0a9e626b" target="_top" xlink:title=" ">
<polygon fill="none" stroke="black" points="503,-76.5 503,-95.5 626,-95.5 626,-76.5 503,-76.5"/>
<text text-anchor="middle" x="564.5" y="-83.5" font-family="Helvetica,sans-Serif" font-size="10.00">gsd_name_id_map_find</text>
</a>
</g>
</g>
<!-- Node5&#45;&gt;Node9 -->
<g id="edge9" class="edge">
<title>Node5&#45;&gt;Node9</title>
<path fill="none" stroke="midnightblue" d="M442.53,-100.06C457.88,-98.27 475.64,-96.21 492.74,-94.22"/>
<polygon fill="midnightblue" stroke="midnightblue" points="493.19,-97.69 502.71,-93.06 492.38,-90.74 493.19,-97.69"/>
</g>
<!-- Node10 -->
<g id="node10" class="node">
<title>Node10</title>
<g id="a_node10"><a xlink:href="../../dc/dcb/gsd_8c.html#a6d8087323ec29c58d907b9462b4a31da" target="_top" xlink:title=" ">
<polygon fill="none" stroke="black" points="662,-76.5 662,-95.5 739,-95.5 739,-76.5 662,-76.5"/>
<text text-anchor="middle" x="700.5" y="-83.5" font-family="Helvetica,sans-Serif" font-size="10.00">gsd_hash_str</text>
</a>
</g>
</g>
<!-- Node9&#45;&gt;Node10 -->
<g id="edge10" class="edge">
<title>Node9&#45;&gt;Node10</title>
<path fill="none" stroke="midnightblue" d="M626.23,-86C634.8,-86 643.5,-86 651.78,-86"/>
<polygon fill="midnightblue" stroke="midnightblue" points="652,-89.5 662,-86 652,-82.5 652,-89.5"/>
</g>
<!-- Node12 -->
<g id="node12" class="node">
<title>Node12</title>
<g id="a_node12"><a xlink:href="../../dc/dcb/gsd_8c.html#ac1f41abbefbfe35337e7053d766c089b" target="_top" xlink:title=" ">
<polygon fill="none" stroke="black" points="513,-38.5 513,-57.5 616,-57.5 616,-38.5 513,-38.5"/>
<text text-anchor="middle" x="564.5" y="-45.5" font-family="Helvetica,sans-Serif" font-size="10.00">gsd_io_pread_retry</text>
</a>
</g>
</g>
<!-- Node11&#45;&gt;Node12 -->
<g id="edge12" class="edge">
<title>Node11&#45;&gt;Node12</title>
<path fill="none" stroke="midnightblue" d="M444.25,-48C462.2,-48 483.24,-48 502.61,-48"/>
<polygon fill="midnightblue" stroke="midnightblue" points="502.86,-51.5 512.86,-48 502.86,-44.5 502.86,-51.5"/>
</g>
<!-- Node11&#45;&gt;Node13 -->
<g id="edge13" class="edge">
<title>Node11&#45;&gt;Node13</title>
<path fill="none" stroke="midnightblue" d="M441.26,-38.41C462.93,-33.37 489.68,-27.16 512.63,-21.82"/>
<polygon fill="midnightblue" stroke="midnightblue" points="513.59,-25.19 522.54,-19.52 512.01,-18.37 513.59,-25.19"/>
</g>
</g>
</svg>
