<?xml version="1.0" encoding="UTF-8" standalone="no"?>
<!DOCTYPE svg PUBLIC "-//W3C//DTD SVG 1.1//EN"
 "http://www.w3.org/Graphics/SVG/1.1/DTD/svg11.dtd">
<!-- Generated by graphviz version 2.49.1 (20210923.0004)
 -->
<!-- Title: GSDUtil::writeHeader Pages: 1 -->
<svg width="773pt" height="297pt"
 viewBox="0.00 0.00 773.00 297.09" xmlns="http://www.w3.org/2000/svg" xmlns:xlink="http://www.w3.org/1999/xlink">
<g id="graph0" class="graph" transform="scale(1 1) rotate(0) translate(4 293.09)">
<title>GSDUtil::writeHeader</title>
<!-- Node1 -->
<g id="node1" class="node">
<title>Node1</title>
<g id="a_node1"><a xlink:title=" ">
<polygon fill="#bfbfbf" stroke="black" points="0,-171.5 0,-190.5 112,-190.5 112,-171.5 0,-171.5"/>
<text text-anchor="middle" x="56" y="-178.5" font-family="Helvetica,sans-Serif" font-size="10.00">GSDUtil::writeHeader</text>
</a>
</g>
</g>
<!-- Node2 -->
<g id="node2" class="node">
<title>Node2</title>
<g id="a_node2"><a xlink:href="../../de/d83/classGSDUtil.html#a00a919382c11e9dd1fa7ae1a8788d4c0" target="_top" xlink:title=" ">
<polygon fill="none" stroke="black" points="148,-209.5 148,-228.5 284,-228.5 284,-209.5 148,-209.5"/>
<text text-anchor="middle" x="216" y="-216.5" font-family="Helvetica,sans-Serif" font-size="10.00">GSDUtil::checkGSDReturn</text>
</a>
</g>
</g>
<!-- Node1&#45;&gt;Node2 -->
<g id="edge1" class="edge">
<title>Node1&#45;&gt;Node2</title>
<path fill="none" stroke="midnightblue" d="M96.87,-190.59C117.72,-195.6 143.43,-201.79 165.54,-207.11"/>
<polygon fill="midnightblue" stroke="midnightblue" points="164.88,-210.54 175.42,-209.48 166.51,-203.74 164.88,-210.54"/>
</g>
<!-- Node3 -->
<g id="node3" class="node">
<title>Node3</title>
<g id="a_node3"><a xlink:href="../../dc/dcb/gsd_8c.html#a7479046d4d6e15c33cb24034ddd87562" target="_top" xlink:title=" ">
<polygon fill="none" stroke="black" points="169,-171.5 169,-190.5 263,-190.5 263,-171.5 169,-171.5"/>
<text text-anchor="middle" x="216" y="-178.5" font-family="Helvetica,sans-Serif" font-size="10.00">gsd_get_nframes</text>
</a>
</g>
</g>
<!-- Node1&#45;&gt;Node3 -->
<g id="edge2" class="edge">
<title>Node1&#45;&gt;Node3</title>
<path fill="none" stroke="midnightblue" d="M112.26,-181C127.3,-181 143.6,-181 158.7,-181"/>
<polygon fill="midnightblue" stroke="midnightblue" points="158.93,-184.5 168.93,-181 158.93,-177.5 158.93,-184.5"/>
</g>
<!-- Node4 -->
<g id="node4" class="node">
<title>Node4</title>
<g id="a_node4"><a xlink:href="../../dc/dcb/gsd_8c.html#ae22447904b925f284bf987fae448488a" target="_top" xlink:title=" ">
<polygon fill="none" stroke="black" points="170,-133.5 170,-152.5 262,-152.5 262,-133.5 170,-133.5"/>
<text text-anchor="middle" x="216" y="-140.5" font-family="Helvetica,sans-Serif" font-size="10.00">gsd_write_chunk</text>
</a>
</g>
</g>
<!-- Node1&#45;&gt;Node4 -->
<g id="edge3" class="edge">
<title>Node1&#45;&gt;Node4</title>
<path fill="none" stroke="midnightblue" d="M96.87,-171.41C117.72,-166.4 143.43,-160.21 165.54,-154.89"/>
<polygon fill="midnightblue" stroke="midnightblue" points="166.51,-158.26 175.42,-152.52 164.88,-151.46 166.51,-158.26"/>
</g>
<!-- Node5 -->
<g id="node5" class="node">
<title>Node5</title>
<g id="a_node5"><a xlink:href="../../dc/dcb/gsd_8c.html#aa1a0a7dcf4015edcadbb47a6451b4a4b" target="_top" xlink:title=" ">
<polygon fill="none" stroke="black" points="330.5,-190.5 330.5,-209.5 432.5,-209.5 432.5,-190.5 330.5,-190.5"/>
<text text-anchor="middle" x="381.5" y="-197.5" font-family="Helvetica,sans-Serif" font-size="10.00">gsd_append_name</text>
</a>
</g>
</g>
<!-- Node4&#45;&gt;Node5 -->
<g id="edge4" class="edge">
<title>Node4&#45;&gt;Node5</title>
<path fill="none" stroke="midnightblue" d="M253.02,-152.51C263.1,-155.36 274.03,-158.63 284,-162 287.23,-163.09 320.39,-176.18 346.95,-186.7"/>
<polygon fill="midnightblue" stroke="midnightblue" points="345.79,-190 356.37,-190.43 348.36,-183.49 345.79,-190"/>
</g>
<!-- Node6 -->
<g id="node6" class="node">
<title>Node6</title>
<g id="a_node6"><a xlink:href="../../dc/dcb/gsd_8c.html#a7a717f9dafe011e68434e181c76253af" target="_top" xlink:title=" ">
<polygon fill="none" stroke="black" points="481.5,-228.5 481.5,-247.5 608.5,-247.5 608.5,-228.5 481.5,-228.5"/>
<text text-anchor="middle" x="545" y="-235.5" font-family="Helvetica,sans-Serif" font-size="10.00">gsd_byte_buffer_append</text>
</a>
</g>
</g>
<!-- Node4&#45;&gt;Node6 -->
<g id="edge10" class="edge">
<title>Node4&#45;&gt;Node6</title>
<path fill="none" stroke="midnightblue" d="M262.02,-150.85C269.83,-153.54 277.51,-157.15 284,-162 308,-179.94 294.39,-203.44 320,-219 365.06,-246.38 424.93,-250.15 471.45,-247.61"/>
<polygon fill="midnightblue" stroke="midnightblue" points="471.71,-251.1 481.46,-246.96 471.25,-244.12 471.71,-251.1"/>
</g>
<!-- Node7 -->
<g id="node7" class="node">
<title>Node7</title>
<g id="a_node7"><a xlink:href="../../dc/dcb/gsd_8c.html#a9b05d58560daee2512f03bedf7b2926d" target="_top" xlink:title=" ">
<polygon fill="none" stroke="black" points="647,-228.5 647,-247.5 765,-247.5 765,-228.5 647,-228.5"/>
<text text-anchor="middle" x="706" y="-235.5" font-family="Helvetica,sans-Serif" font-size="10.00">gsd_util_zero_memory</text>
</a>
</g>
</g>
<!-- Node4&#45;&gt;Node7 -->
<g id="edge20" class="edge">
<title>Node4&#45;&gt;Node7</title>
<path fill="none" stroke="midnightblue" d="M262.01,-149.76C270,-152.55 277.75,-156.48 284,-162 314.76,-189.15 286.53,-223.28 320,-247 427.85,-323.42 598.73,-276.44 670.97,-251.08"/>
<polygon fill="midnightblue" stroke="midnightblue" points="672.27,-254.33 680.5,-247.66 669.9,-247.74 672.27,-254.33"/>
</g>
<!-- Node11 -->
<g id="node11" class="node">
<title>Node11</title>
<g id="a_node11"><a xlink:href="../../dc/dcb/gsd_8c.html#a61daeaa70162e9bac3d241832b460278" target="_top" xlink:title=" ">
<polygon fill="none" stroke="black" points="323,-114.5 323,-133.5 440,-133.5 440,-114.5 323,-114.5"/>
<text text-anchor="middle" x="381.5" y="-121.5" font-family="Helvetica,sans-Serif" font-size="10.00">gsd_flush_write_buffer</text>
</a>
</g>
</g>
<!-- Node4&#45;&gt;Node11 -->
<g id="edge11" class="edge">
<title>Node4&#45;&gt;Node11</title>
<path fill="none" stroke="midnightblue" d="M262.11,-137.76C277.83,-135.93 295.84,-133.84 312.98,-131.85"/>
<polygon fill="midnightblue" stroke="midnightblue" points="313.42,-135.32 322.95,-130.69 312.61,-128.37 313.42,-135.32"/>
</g>
<!-- Node12 -->
<g id="node12" class="node">
<title>Node12</title>
<g id="a_node12"><a xlink:href="../../dc/dcb/gsd_8c.html#a258b64725f90f60d969752d65fba9850" target="_top" xlink:title=" ">
<polygon fill="none" stroke="black" points="487.5,-114.5 487.5,-133.5 602.5,-133.5 602.5,-114.5 487.5,-114.5"/>
<text text-anchor="middle" x="545" y="-121.5" font-family="Helvetica,sans-Serif" font-size="10.00">gsd_index_buffer_add</text>
</a>
</g>
</g>
<!-- Node4&#45;&gt;Node12 -->
<g id="edge15" class="edge">
<title>Node4&#45;&gt;Node12</title>
<path fill="none" stroke="midnightblue" d="M262.14,-145.46C307.84,-147.37 380.49,-148.83 443,-143 459.32,-141.48 476.94,-138.6 492.82,-135.54"/>
<polygon fill="midnightblue" stroke="midnightblue" points="493.85,-138.9 502.97,-133.51 492.48,-132.04 493.85,-138.9"/>
</g>
<!-- Node13 -->
<g id="node13" class="node">
<title>Node13</title>
<g id="a_node13"><a xlink:href="../../dc/dcb/gsd_8c.html#a3fb7746d93a1c856ca7ef64fa3548cbe" target="_top" xlink:title=" ">
<polygon fill="none" stroke="black" points="493,-76.5 493,-95.5 597,-95.5 597,-76.5 493,-76.5"/>
<text text-anchor="middle" x="545" y="-83.5" font-family="Helvetica,sans-Serif" font-size="10.00">gsd_io_pwrite_retry</text>
</a>
</g>
</g>
<!-- Node4&#45;&gt;Node13 -->
<g id="edge16" class="edge">
<title>Node4&#45;&gt;Node13</title>
<path fill="none" stroke="midnightblue" d="M237.8,-133.43C258.26,-124.48 290.6,-111.54 320,-105 374.07,-92.96 437.05,-88.43 482.43,-86.79"/>
<polygon fill="midnightblue" stroke="midnightblue" points="482.82,-90.27 492.7,-86.45 482.59,-83.28 482.82,-90.27"/>
</g>
<!-- Node14 -->
<g id="node14" class="node">
<title>Node14</title>
<g id="a_node14"><a xlink:href="../../dc/dcb/gsd_8c.html#a31b9400272036b121040e9fc0a9e626b" target="_top" xlink:title=" ">
<polygon fill="none" stroke="black" points="320,-38.5 320,-57.5 443,-57.5 443,-38.5 320,-38.5"/>
<text text-anchor="middle" x="381.5" y="-45.5" font-family="Helvetica,sans-Serif" font-size="10.00">gsd_name_id_map_find</text>
</a>
</g>
</g>
<!-- Node4&#45;&gt;Node14 -->
<g id="edge17" class="edge">
<title>Node4&#45;&gt;Node14</title>
<path fill="none" stroke="midnightblue" d="M229.1,-133.3C247.78,-118.65 285.13,-90.62 320,-72 327.3,-68.1 335.37,-64.47 343.18,-61.27"/>
<polygon fill="midnightblue" stroke="midnightblue" points="344.48,-64.52 352.5,-57.59 341.91,-58.01 344.48,-64.52"/>
</g>
<!-- Node15 -->
<g id="node15" class="node">
<title>Node15</title>
<g id="a_node15"><a xlink:href="../../dc/dcb/gsd_8c.html#ab1d1a8a5f73b37df0c706f41df3bdd69" target="_top" xlink:title=" ">
<polygon fill="none" stroke="black" points="337,-0.5 337,-19.5 426,-19.5 426,-0.5 337,-0.5"/>
<text text-anchor="middle" x="381.5" y="-7.5" font-family="Helvetica,sans-Serif" font-size="10.00">gsd_sizeof_type</text>
</a>
</g>
</g>
<!-- Node4&#45;&gt;Node15 -->
<g id="edge19" class="edge">
<title>Node4&#45;&gt;Node15</title>
<path fill="none" stroke="midnightblue" d="M222.97,-133.48C237.11,-111.71 274.87,-57.94 320,-29 323.15,-26.98 326.53,-25.16 330.03,-23.53"/>
<polygon fill="midnightblue" stroke="midnightblue" points="331.57,-26.68 339.46,-19.61 328.88,-20.21 331.57,-26.68"/>
</g>
<!-- Node5&#45;&gt;Node6 -->
<g id="edge5" class="edge">
<title>Node5&#45;&gt;Node6</title>
<path fill="none" stroke="midnightblue" d="M423.25,-209.59C444.66,-214.63 471.09,-220.84 493.75,-226.18"/>
<polygon fill="midnightblue" stroke="midnightblue" points="493,-229.6 503.54,-228.48 494.61,-222.78 493,-229.6"/>
</g>
<!-- Node8 -->
<g id="node8" class="node">
<title>Node8</title>
<g id="a_node8"><a xlink:href="../../dc/dcb/gsd_8c.html#a493ef951956c9f98adff89a80ddb3fa6" target="_top" xlink:title=" ">
<polygon fill="none" stroke="black" points="495,-190.5 495,-209.5 595,-209.5 595,-190.5 495,-190.5"/>
<text text-anchor="middle" x="545" y="-197.5" font-family="Helvetica,sans-Serif" font-size="10.00">gsd_make_version</text>
</a>
</g>
</g>
<!-- Node5&#45;&gt;Node8 -->
<g id="edge7" class="edge">
<title>Node5&#45;&gt;Node8</title>
<path fill="none" stroke="midnightblue" d="M432.71,-200C449.12,-200 467.51,-200 484.53,-200"/>
<polygon fill="midnightblue" stroke="midnightblue" points="484.92,-203.5 494.92,-200 484.92,-196.5 484.92,-203.5"/>
</g>
<!-- Node9 -->
<g id="node9" class="node">
<title>Node9</title>
<g id="a_node9"><a xlink:href="../../dc/dcb/gsd_8c.html#a6c8c2e5a49ac4eb01a95be2e0df06eb9" target="_top" xlink:title=" ">
<polygon fill="none" stroke="black" points="479,-152.5 479,-171.5 611,-171.5 611,-152.5 479,-152.5"/>
<text text-anchor="middle" x="545" y="-159.5" font-family="Helvetica,sans-Serif" font-size="10.00">gsd_name_id_map_insert</text>
</a>
</g>
</g>
<!-- Node5&#45;&gt;Node9 -->
<g id="edge8" class="edge">
<title>Node5&#45;&gt;Node9</title>
<path fill="none" stroke="midnightblue" d="M423.25,-190.41C444.66,-185.37 471.09,-179.16 493.75,-173.82"/>
<polygon fill="midnightblue" stroke="midnightblue" points="494.61,-177.22 503.54,-171.52 493,-170.4 494.61,-177.22"/>
</g>
<!-- Node6&#45;&gt;Node7 -->
<g id="edge6" class="edge">
<title>Node6&#45;&gt;Node7</title>
<path fill="none" stroke="midnightblue" d="M608.84,-238C617.92,-238 627.31,-238 636.49,-238"/>
<polygon fill="midnightblue" stroke="midnightblue" points="636.75,-241.5 646.75,-238 636.75,-234.5 636.75,-241.5"/>
</g>
<!-- Node10 -->
<g id="node10" class="node">
<title>Node10</title>
<g id="a_node10"><a xlink:href="../../dc/dcb/gsd_8c.html#a6d8087323ec29c58d907b9462b4a31da" target="_top" xlink:title=" ">
<polygon fill="none" stroke="black" points="667.5,-95.5 667.5,-114.5 744.5,-114.5 744.5,-95.5 667.5,-95.5"/>
<text text-anchor="middle" x="706" y="-102.5" font-family="Helvetica,sans-Serif" font-size="10.00">gsd_hash_str</text>
</a>
</g>
</g>
<!-- Node9&#45;&gt;Node10 -->
<g id="edge9" class="edge">
<title>Node9&#45;&gt;Node10</title>
<path fill="none" stroke="midnightblue" d="M580.95,-152.48C590.74,-149.63 601.34,-146.36 611,-143 632.19,-135.64 655.57,-126.2 673.71,-118.56"/>
<polygon fill="midnightblue" stroke="midnightblue" points="675.37,-121.66 683.2,-114.53 672.63,-115.22 675.37,-121.66"/>
</g>
<!-- Node11&#45;&gt;Node12 -->
<g id="edge12" class="edge">
<title>Node11&#45;&gt;Node12</title>
<path fill="none" stroke="midnightblue" d="M440.35,-124C452.3,-124 464.98,-124 477.22,-124"/>
<polygon fill="midnightblue" stroke="midnightblue" points="477.37,-127.5 487.37,-124 477.37,-120.5 477.37,-127.5"/>
</g>
<!-- Node11&#45;&gt;Node13 -->
<g id="edge14" class="edge">
<title>Node11&#45;&gt;Node13</title>
<path fill="none" stroke="midnightblue" d="M423.25,-114.41C444.66,-109.37 471.09,-103.16 493.75,-97.82"/>
<polygon fill="midnightblue" stroke="midnightblue" points="494.61,-101.22 503.54,-95.52 493,-94.4 494.61,-101.22"/>
</g>
<!-- Node12&#45;&gt;Node7 -->
<g id="edge13" class="edge">
<title>Node12&#45;&gt;Node7</title>
<path fill="none" stroke="midnightblue" d="M589.94,-133.53C597.24,-136.03 604.54,-139.15 611,-143 645.01,-163.27 675.44,-198.72 691.96,-220.11"/>
<polygon fill="midnightblue" stroke="midnightblue" points="689.34,-222.46 698.15,-228.33 694.93,-218.24 689.34,-222.46"/>
</g>
<!-- Node14&#45;&gt;Node10 -->
<g id="edge18" class="edge">
<title>Node14&#45;&gt;Node10</title>
<path fill="none" stroke="midnightblue" d="M443.42,-48.11C489.91,-49.38 555.23,-53.73 611,-67 633.93,-72.46 658.6,-82.6 676.91,-91.04"/>
<polygon fill="midnightblue" stroke="midnightblue" points="675.58,-94.28 686.12,-95.39 678.57,-87.95 675.58,-94.28"/>
</g>
</g>
</svg>
