<?xml version="1.0" encoding="UTF-8" standalone="no"?>
<!DOCTYPE svg PUBLIC "-//W3C//DTD SVG 1.1//EN"
 "http://www.w3.org/Graphics/SVG/1.1/DTD/svg11.dtd">
<!-- Generated by graphviz version 2.49.1 (20210923.0004)
 -->
<!-- Title: GSDUtil::GSDUtil Pages: 1 -->
<svg width="916pt" height="550pt"
 viewBox="0.00 0.00 916.00 549.86" xmlns="http://www.w3.org/2000/svg" xmlns:xlink="http://www.w3.org/1999/xlink">
<g id="graph0" class="graph" transform="scale(1 1) rotate(0) translate(4 545.86)">
<title>GSDUtil::GSDUtil</title>
<!-- Node1 -->
<g id="node1" class="node">
<title>Node1</title>
<g id="a_node1"><a xlink:title=" ">
<polygon fill="#bfbfbf" stroke="black" points="0,-104.36 0,-123.36 94,-123.36 94,-104.36 0,-104.36"/>
<text text-anchor="middle" x="47" y="-111.36" font-family="Helvetica,sans-Serif" font-size="10.00">GSDUtil::GSDUtil</text>
</a>
</g>
</g>
<!-- Node2 -->
<g id="node2" class="node">
<title>Node2</title>
<g id="a_node2"><a xlink:href="../../de/d83/classGSDUtil.html#a00a919382c11e9dd1fa7ae1a8788d4c0" target="_top" xlink:title=" ">
<polygon fill="none" stroke="black" points="475,-104.36 475,-123.36 611,-123.36 611,-104.36 475,-104.36"/>
<text text-anchor="middle" x="543" y="-111.36" font-family="Helvetica,sans-Serif" font-size="10.00">GSDUtil::checkGSDReturn</text>
</a>
</g>
</g>
<!-- Node1&#45;&gt;Node2 -->
<g id="edge1" class="edge">
<title>Node1&#45;&gt;Node2</title>
<path fill="none" stroke="midnightblue" d="M57.52,-104.24C71.78,-90.58 100.22,-66.19 130,-56.86 267.26,-13.84 440.37,-72.28 510.43,-100.33"/>
<polygon fill="midnightblue" stroke="midnightblue" points="509.42,-103.7 520,-104.24 512.06,-97.22 509.42,-103.7"/>
</g>
<!-- Node3 -->
<g id="node3" class="node">
<title>Node3</title>
<g id="a_node3"><a xlink:href="../../dc/dcb/gsd_8c.html#a7479046d4d6e15c33cb24034ddd87562" target="_top" xlink:title=" ">
<polygon fill="none" stroke="black" points="669.5,-47.36 669.5,-66.36 763.5,-66.36 763.5,-47.36 669.5,-47.36"/>
<text text-anchor="middle" x="716.5" y="-54.36" font-family="Helvetica,sans-Serif" font-size="10.00">gsd_get_nframes</text>
</a>
</g>
</g>
<!-- Node1&#45;&gt;Node3 -->
<g id="edge2" class="edge">
<title>Node1&#45;&gt;Node3</title>
<path fill="none" stroke="midnightblue" d="M54.5,-104.27C66.83,-87.04 95.49,-51.39 130,-37.86 321.12,37.09 574.87,-17.97 673.66,-44.61"/>
<polygon fill="midnightblue" stroke="midnightblue" points="672.98,-48.06 683.55,-47.33 674.83,-41.31 672.98,-48.06"/>
</g>
<!-- Node4 -->
<g id="node4" class="node">
<title>Node4</title>
<g id="a_node4"><a xlink:href="../../dc/dcb/gsd_8c.html#ad8933dcce55fd8101b5688f382c10a8e" target="_top" xlink:title=" ">
<polygon fill="none" stroke="black" points="176,-294.36 176,-313.36 236,-313.36 236,-294.36 176,-294.36"/>
<text text-anchor="middle" x="206" y="-301.36" font-family="Helvetica,sans-Serif" font-size="10.00">gsd_open</text>
</a>
</g>
</g>
<!-- Node1&#45;&gt;Node4 -->
<g id="edge3" class="edge">
<title>Node1&#45;&gt;Node4</title>
<path fill="none" stroke="midnightblue" d="M56,-123.54C80.98,-153.77 157.79,-246.72 190.26,-286.02"/>
<polygon fill="midnightblue" stroke="midnightblue" points="187.76,-288.49 196.83,-293.97 193.15,-284.03 187.76,-288.49"/>
</g>
<!-- Node17 -->
<g id="node17" class="node">
<title>Node17</title>
<g id="a_node17"><a xlink:href="../../de/d83/classGSDUtil.html#a2015dcdcdb33be9106f5c8f45f8564cc" target="_top" xlink:title=" ">
<polygon fill="none" stroke="black" points="150.5,-66.36 150.5,-85.36 261.5,-85.36 261.5,-66.36 150.5,-66.36"/>
<text text-anchor="middle" x="206" y="-73.36" font-family="Helvetica,sans-Serif" font-size="10.00">GSDUtil::readHeader</text>
</a>
</g>
</g>
<!-- Node1&#45;&gt;Node17 -->
<g id="edge18" class="edge">
<title>Node1&#45;&gt;Node17</title>
<path fill="none" stroke="midnightblue" d="M87.62,-104.27C108.34,-99.26 133.89,-93.07 155.86,-87.75"/>
<polygon fill="midnightblue" stroke="midnightblue" points="156.77,-91.13 165.67,-85.38 155.12,-84.33 156.77,-91.13"/>
</g>
<!-- Node24 -->
<g id="node24" class="node">
<title>Node24</title>
<g id="a_node24"><a xlink:href="../../de/d83/classGSDUtil.html#a31f9c7368ebd89c6293d9d9d83598e62" target="_top" xlink:title=" ">
<polygon fill="none" stroke="black" points="141,-180.36 141,-199.36 271,-199.36 271,-180.36 141,-180.36"/>
<text text-anchor="middle" x="206" y="-187.36" font-family="Helvetica,sans-Serif" font-size="10.00">GSDUtil::readParameters</text>
</a>
</g>
</g>
<!-- Node1&#45;&gt;Node24 -->
<g id="edge33" class="edge">
<title>Node1&#45;&gt;Node24</title>
<path fill="none" stroke="midnightblue" d="M58.88,-123.37C73.89,-136.01 102.24,-158.2 130,-170.86 135.32,-173.29 141.01,-175.44 146.78,-177.34"/>
<polygon fill="midnightblue" stroke="midnightblue" points="145.92,-180.74 156.51,-180.3 147.96,-174.04 145.92,-180.74"/>
</g>
<!-- Node25 -->
<g id="node25" class="node">
<title>Node25</title>
<g id="a_node25"><a xlink:href="../../de/d83/classGSDUtil.html#ad404c3879fb81c0b73b2335ea6e4676a" target="_top" xlink:title=" ">
<polygon fill="none" stroke="black" points="147.5,-142.36 147.5,-161.36 264.5,-161.36 264.5,-142.36 147.5,-142.36"/>
<text text-anchor="middle" x="206" y="-149.36" font-family="Helvetica,sans-Serif" font-size="10.00">GSDUtil::readParticles</text>
</a>
</g>
</g>
<!-- Node1&#45;&gt;Node25 -->
<g id="edge36" class="edge">
<title>Node1&#45;&gt;Node25</title>
<path fill="none" stroke="midnightblue" d="M87.62,-123.45C108.34,-128.46 133.89,-134.65 155.86,-139.97"/>
<polygon fill="midnightblue" stroke="midnightblue" points="155.12,-143.39 165.67,-142.34 156.77,-136.59 155.12,-143.39"/>
</g>
<!-- Node26 -->
<g id="node26" class="node">
<title>Node26</title>
<g id="a_node26"><a xlink:href="../../de/d83/classGSDUtil.html#a278d1db9ece12bdc1268780313d83daf" target="_top" xlink:title=" ">
<polygon fill="none" stroke="black" points="130,-104.36 130,-123.36 282,-123.36 282,-104.36 130,-104.36"/>
<text text-anchor="middle" x="206" y="-111.36" font-family="Helvetica,sans-Serif" font-size="10.00">GSDUtil::readSystemSpecifics</text>
</a>
</g>
</g>
<!-- Node1&#45;&gt;Node26 -->
<g id="edge39" class="edge">
<title>Node1&#45;&gt;Node26</title>
<path fill="none" stroke="midnightblue" d="M94.26,-113.86C102.32,-113.86 110.93,-113.86 119.65,-113.86"/>
<polygon fill="midnightblue" stroke="midnightblue" points="119.92,-117.36 129.92,-113.86 119.92,-110.36 119.92,-117.36"/>
</g>
<!-- Node5 -->
<g id="node5" class="node">
<title>Node5</title>
<g id="a_node5"><a xlink:href="../../dc/dcb/gsd_8c.html#ac159dfbfd790607f85073ad2d8464a8b" target="_top" xlink:title=" ">
<polygon fill="none" stroke="black" points="322.5,-389.36 322.5,-408.36 431.5,-408.36 431.5,-389.36 322.5,-389.36"/>
<text text-anchor="middle" x="377" y="-396.36" font-family="Helvetica,sans-Serif" font-size="10.00">gsd_initialize_handle</text>
</a>
</g>
</g>
<!-- Node4&#45;&gt;Node5 -->
<g id="edge4" class="edge">
<title>Node4&#45;&gt;Node5</title>
<path fill="none" stroke="midnightblue" d="M224.13,-313.49C253.82,-330.18 314.98,-364.56 349.95,-384.22"/>
<polygon fill="midnightblue" stroke="midnightblue" points="348.64,-387.49 359.07,-389.34 352.07,-381.39 348.64,-387.49"/>
</g>
<!-- Node16 -->
<g id="node16" class="node">
<title>Node16</title>
<g id="a_node16"><a xlink:href="../../dc/dcb/gsd_8c.html#a9b05d58560daee2512f03bedf7b2926d" target="_top" xlink:title=" ">
<polygon fill="none" stroke="black" points="318,-294.36 318,-313.36 436,-313.36 436,-294.36 318,-294.36"/>
<text text-anchor="middle" x="377" y="-301.36" font-family="Helvetica,sans-Serif" font-size="10.00">gsd_util_zero_memory</text>
</a>
</g>
</g>
<!-- Node4&#45;&gt;Node16 -->
<g id="edge17" class="edge">
<title>Node4&#45;&gt;Node16</title>
<path fill="none" stroke="midnightblue" d="M236.05,-303.86C255.79,-303.86 282.76,-303.86 307.76,-303.86"/>
<polygon fill="midnightblue" stroke="midnightblue" points="307.96,-307.36 317.96,-303.86 307.96,-300.36 307.96,-307.36"/>
</g>
<!-- Node6 -->
<g id="node6" class="node">
<title>Node6</title>
<g id="a_node6"><a xlink:href="../../dc/dcb/gsd_8c.html#aeaf487909ab334303fa478cf4a126d6f" target="_top" xlink:title=" ">
<polygon fill="none" stroke="black" points="479,-522.36 479,-541.36 607,-541.36 607,-522.36 479,-522.36"/>
<text text-anchor="middle" x="543" y="-529.36" font-family="Helvetica,sans-Serif" font-size="10.00">gsd_byte_buffer_allocate</text>
</a>
</g>
</g>
<!-- Node5&#45;&gt;Node6 -->
<g id="edge5" class="edge">
<title>Node5&#45;&gt;Node6</title>
<path fill="none" stroke="midnightblue" d="M383.78,-408.52C396.86,-429.59 430.81,-480 472,-507.86 478.29,-512.12 485.41,-515.69 492.64,-518.66"/>
<polygon fill="midnightblue" stroke="midnightblue" points="491.91,-522.12 502.5,-522.35 494.36,-515.57 491.91,-522.12"/>
</g>
<!-- Node7 -->
<g id="node7" class="node">
<title>Node7</title>
<g id="a_node7"><a xlink:href="../../dc/dcb/gsd_8c.html#ae1948c93f77d642c4e3797fe7e5f2095" target="_top" xlink:title=" ">
<polygon fill="none" stroke="black" points="650,-446.36 650,-465.36 783,-465.36 783,-446.36 650,-446.36"/>
<text text-anchor="middle" x="716.5" y="-453.36" font-family="Helvetica,sans-Serif" font-size="10.00">gsd_index_buffer_allocate</text>
</a>
</g>
</g>
<!-- Node5&#45;&gt;Node7 -->
<g id="edge6" class="edge">
<title>Node5&#45;&gt;Node7</title>
<path fill="none" stroke="midnightblue" d="M396.88,-408.5C415.47,-417.51 444.93,-430.49 472,-436.86 527.2,-449.84 591.18,-454.45 639.7,-455.88"/>
<polygon fill="midnightblue" stroke="midnightblue" points="639.73,-459.38 649.81,-456.14 639.91,-452.39 639.73,-459.38"/>
</g>
<!-- Node8 -->
<g id="node8" class="node">
<title>Node8</title>
<g id="a_node8"><a xlink:href="../../dc/dcb/gsd_8c.html#a6fe75caf6c4df550af2455a0c40bfbdf" target="_top" xlink:title=" ">
<polygon fill="none" stroke="black" points="484,-408.36 484,-427.36 602,-427.36 602,-408.36 484,-408.36"/>
<text text-anchor="middle" x="543" y="-415.36" font-family="Helvetica,sans-Serif" font-size="10.00">gsd_index_buffer_map</text>
</a>
</g>
</g>
<!-- Node5&#45;&gt;Node8 -->
<g id="edge7" class="edge">
<title>Node5&#45;&gt;Node8</title>
<path fill="none" stroke="midnightblue" d="M431.7,-405.08C445.16,-406.64 459.77,-408.33 473.83,-409.96"/>
<polygon fill="midnightblue" stroke="midnightblue" points="473.6,-413.46 483.94,-411.13 474.41,-406.51 473.6,-413.46"/>
</g>
<!-- Node9 -->
<g id="node9" class="node">
<title>Node9</title>
<g id="a_node9"><a xlink:href="../../dc/dcb/gsd_8c.html#ac1f41abbefbfe35337e7053d766c089b" target="_top" xlink:title=" ">
<polygon fill="none" stroke="black" points="665,-370.36 665,-389.36 768,-389.36 768,-370.36 665,-370.36"/>
<text text-anchor="middle" x="716.5" y="-377.36" font-family="Helvetica,sans-Serif" font-size="10.00">gsd_io_pread_retry</text>
</a>
</g>
</g>
<!-- Node5&#45;&gt;Node9 -->
<g id="edge12" class="edge">
<title>Node5&#45;&gt;Node9</title>
<path fill="none" stroke="midnightblue" d="M431.85,-395.83C492.58,-392.41 591.13,-386.86 654.61,-383.29"/>
<polygon fill="midnightblue" stroke="midnightblue" points="655.09,-386.77 664.87,-382.71 654.69,-379.78 655.09,-386.77"/>
</g>
<!-- Node12 -->
<g id="node12" class="node">
<title>Node12</title>
<g id="a_node12"><a xlink:href="../../dc/dcb/gsd_8c.html#a493ef951956c9f98adff89a80ddb3fa6" target="_top" xlink:title=" ">
<polygon fill="none" stroke="black" points="666.5,-256.36 666.5,-275.36 766.5,-275.36 766.5,-256.36 666.5,-256.36"/>
<text text-anchor="middle" x="716.5" y="-263.36" font-family="Helvetica,sans-Serif" font-size="10.00">gsd_make_version</text>
</a>
</g>
</g>
<!-- Node5&#45;&gt;Node12 -->
<g id="edge13" class="edge">
<title>Node5&#45;&gt;Node12</title>
<path fill="none" stroke="midnightblue" d="M385.43,-388.99C405.51,-362.43 460.17,-291.01 472,-284.86 529.31,-255.05 604.64,-253.99 656.25,-258.02"/>
<polygon fill="midnightblue" stroke="midnightblue" points="655.98,-261.51 666.25,-258.89 656.59,-254.54 655.98,-261.51"/>
</g>
<!-- Node13 -->
<g id="node13" class="node">
<title>Node13</title>
<g id="a_node13"><a xlink:href="../../dc/dcb/gsd_8c.html#aebfeb70fcbc089409a7179af7d814554" target="_top" xlink:title=" ">
<polygon fill="none" stroke="black" points="472,-332.36 472,-351.36 614,-351.36 614,-332.36 472,-332.36"/>
<text text-anchor="middle" x="543" y="-339.36" font-family="Helvetica,sans-Serif" font-size="10.00">gsd_name_id_map_allocate</text>
</a>
</g>
</g>
<!-- Node5&#45;&gt;Node13 -->
<g id="edge14" class="edge">
<title>Node5&#45;&gt;Node13</title>
<path fill="none" stroke="midnightblue" d="M405.13,-389.28C423.9,-382.66 449.45,-373.68 472,-365.86 482.49,-362.22 493.87,-358.31 504.34,-354.71"/>
<polygon fill="midnightblue" stroke="midnightblue" points="505.73,-357.94 514.05,-351.39 503.46,-351.32 505.73,-357.94"/>
</g>
<!-- Node14 -->
<g id="node14" class="node">
<title>Node14</title>
<g id="a_node14"><a xlink:href="../../dc/dcb/gsd_8c.html#a6c8c2e5a49ac4eb01a95be2e0df06eb9" target="_top" xlink:title=" ">
<polygon fill="none" stroke="black" points="650.5,-484.36 650.5,-503.36 782.5,-503.36 782.5,-484.36 650.5,-484.36"/>
<text text-anchor="middle" x="716.5" y="-491.36" font-family="Helvetica,sans-Serif" font-size="10.00">gsd_name_id_map_insert</text>
</a>
</g>
</g>
<!-- Node5&#45;&gt;Node14 -->
<g id="edge15" class="edge">
<title>Node5&#45;&gt;Node14</title>
<path fill="none" stroke="midnightblue" d="M389.3,-408.38C406.13,-422 439.33,-446.73 472,-458.86 526.11,-478.94 590.94,-487.58 640.1,-491.25"/>
<polygon fill="midnightblue" stroke="midnightblue" points="640.13,-494.76 650.35,-491.96 640.61,-487.78 640.13,-494.76"/>
</g>
<!-- Node8&#45;&gt;Node7 -->
<g id="edge8" class="edge">
<title>Node8&#45;&gt;Node7</title>
<path fill="none" stroke="midnightblue" d="M587.28,-427.45C610.11,-432.51 638.32,-438.76 662.46,-444.11"/>
<polygon fill="midnightblue" stroke="midnightblue" points="662.01,-447.59 672.53,-446.34 663.53,-440.76 662.01,-447.59"/>
</g>
<!-- Node8&#45;&gt;Node9 -->
<g id="edge9" class="edge">
<title>Node8&#45;&gt;Node9</title>
<path fill="none" stroke="midnightblue" d="M587.28,-408.27C610.11,-403.21 638.32,-396.96 662.46,-391.61"/>
<polygon fill="midnightblue" stroke="midnightblue" points="663.53,-394.96 672.53,-389.38 662.01,-388.13 663.53,-394.96"/>
</g>
<!-- Node10 -->
<g id="node10" class="node">
<title>Node10</title>
<g id="a_node10"><a xlink:href="../../dc/dcb/gsd_8c.html#ab5d19295bedec41b7919caec2cb22759" target="_top" xlink:title=" ">
<polygon fill="none" stroke="black" points="667,-408.36 667,-427.36 766,-427.36 766,-408.36 667,-408.36"/>
<text text-anchor="middle" x="716.5" y="-415.36" font-family="Helvetica,sans-Serif" font-size="10.00">gsd_is_entry_valid</text>
</a>
</g>
</g>
<!-- Node8&#45;&gt;Node10 -->
<g id="edge10" class="edge">
<title>Node8&#45;&gt;Node10</title>
<path fill="none" stroke="midnightblue" d="M602.06,-417.86C619.69,-417.86 639.07,-417.86 656.74,-417.86"/>
<polygon fill="midnightblue" stroke="midnightblue" points="656.92,-421.36 666.92,-417.86 656.92,-414.36 656.92,-421.36"/>
</g>
<!-- Node11 -->
<g id="node11" class="node">
<title>Node11</title>
<g id="a_node11"><a xlink:href="../../dc/dcb/gsd_8c.html#ab1d1a8a5f73b37df0c706f41df3bdd69" target="_top" xlink:title=" ">
<polygon fill="none" stroke="black" points="819,-294.36 819,-313.36 908,-313.36 908,-294.36 819,-294.36"/>
<text text-anchor="middle" x="863.5" y="-301.36" font-family="Helvetica,sans-Serif" font-size="10.00">gsd_sizeof_type</text>
</a>
</g>
</g>
<!-- Node10&#45;&gt;Node11 -->
<g id="edge11" class="edge">
<title>Node10&#45;&gt;Node11</title>
<path fill="none" stroke="midnightblue" d="M763.43,-408.33C770.29,-405.85 777.05,-402.74 783,-398.86 813.46,-378.99 838.37,-343.92 851.77,-322.4"/>
<polygon fill="midnightblue" stroke="midnightblue" points="854.92,-323.94 857.09,-313.57 848.93,-320.32 854.92,-323.94"/>
</g>
<!-- Node15 -->
<g id="node15" class="node">
<title>Node15</title>
<g id="a_node15"><a xlink:href="../../dc/dcb/gsd_8c.html#a6d8087323ec29c58d907b9462b4a31da" target="_top" xlink:title=" ">
<polygon fill="none" stroke="black" points="825,-408.36 825,-427.36 902,-427.36 902,-408.36 825,-408.36"/>
<text text-anchor="middle" x="863.5" y="-415.36" font-family="Helvetica,sans-Serif" font-size="10.00">gsd_hash_str</text>
</a>
</g>
</g>
<!-- Node14&#45;&gt;Node15 -->
<g id="edge16" class="edge">
<title>Node14&#45;&gt;Node15</title>
<path fill="none" stroke="midnightblue" d="M758.49,-484.3C766.8,-481.72 775.33,-478.58 783,-474.86 805.56,-463.9 828.54,-446.62 843.95,-433.96"/>
<polygon fill="midnightblue" stroke="midnightblue" points="846.28,-436.58 851.69,-427.47 841.78,-431.22 846.28,-436.58"/>
</g>
<!-- Node17&#45;&gt;Node2 -->
<g id="edge19" class="edge">
<title>Node17&#45;&gt;Node2</title>
<path fill="none" stroke="midnightblue" d="M261.57,-82.05C316.72,-88.31 402.43,-98.03 464.59,-105.08"/>
<polygon fill="midnightblue" stroke="midnightblue" points="464.41,-108.58 474.74,-106.23 465.2,-101.63 464.41,-108.58"/>
</g>
<!-- Node18 -->
<g id="node18" class="node">
<title>Node18</title>
<g id="a_node18"><a xlink:href="../../de/d83/classGSDUtil.html#a86d2352b694afc6a0c938a13b3acec9d" target="_top" xlink:title=" ">
<polygon fill="none" stroke="black" points="323.5,-218.36 323.5,-237.36 430.5,-237.36 430.5,-218.36 323.5,-218.36"/>
<text text-anchor="middle" x="377" y="-225.36" font-family="Helvetica,sans-Serif" font-size="10.00">GSDUtil::readChunk</text>
</a>
</g>
</g>
<!-- Node17&#45;&gt;Node18 -->
<g id="edge20" class="edge">
<title>Node17&#45;&gt;Node18</title>
<path fill="none" stroke="midnightblue" d="M261.84,-84.87C268.98,-87.41 275.91,-90.68 282,-94.86 324.55,-124.09 354.22,-179.27 367.74,-208.53"/>
<polygon fill="midnightblue" stroke="midnightblue" points="364.71,-210.33 371.98,-218.03 371.1,-207.48 364.71,-210.33"/>
</g>
<!-- Node18&#45;&gt;Node2 -->
<g id="edge21" class="edge">
<title>Node18&#45;&gt;Node2</title>
<path fill="none" stroke="midnightblue" d="M411.84,-218.33C420.4,-214.78 429.11,-210.05 436,-203.86 460.86,-181.53 446.46,-159.41 472,-137.86 476.9,-133.73 482.54,-130.29 488.46,-127.45"/>
<polygon fill="midnightblue" stroke="midnightblue" points="490.08,-130.56 497.91,-123.43 487.34,-124.12 490.08,-130.56"/>
</g>
<!-- Node18&#45;&gt;Node11 -->
<g id="edge32" class="edge">
<title>Node18&#45;&gt;Node11</title>
<path fill="none" stroke="midnightblue" d="M389.19,-218.22C405.88,-204.53 438.91,-180.11 472,-170.86 605.12,-133.65 662.78,-102.66 783,-170.86 826.14,-195.33 848.37,-253.53 857.44,-284.19"/>
<polygon fill="midnightblue" stroke="midnightblue" points="854.15,-285.43 860.2,-294.13 860.9,-283.56 854.15,-285.43"/>
</g>
<!-- Node19 -->
<g id="node19" class="node">
<title>Node19</title>
<g id="a_node19"><a xlink:href="../../de/d83/classGSDUtil.html#abbd7a5860cd0f2b6cc72f1a90d2df018" target="_top" xlink:title=" ">
<polygon fill="none" stroke="black" points="501,-180.36 501,-199.36 585,-199.36 585,-180.36 501,-180.36"/>
<text text-anchor="middle" x="543" y="-187.36" font-family="Helvetica,sans-Serif" font-size="10.00">GSDUtil::frame</text>
</a>
</g>
</g>
<!-- Node18&#45;&gt;Node19 -->
<g id="edge22" class="edge">
<title>Node18&#45;&gt;Node19</title>
<path fill="none" stroke="midnightblue" d="M419.38,-218.27C441.12,-213.23 467.96,-207.02 490.97,-201.68"/>
<polygon fill="midnightblue" stroke="midnightblue" points="491.96,-205.05 500.91,-199.38 490.38,-198.23 491.96,-205.05"/>
</g>
<!-- Node20 -->
<g id="node20" class="node">
<title>Node20</title>
<g id="a_node20"><a xlink:href="../../dc/dcb/gsd_8c.html#ac00249e8c3030557711beb337c8424dd" target="_top" xlink:title=" ">
<polygon fill="none" stroke="black" points="499.5,-218.36 499.5,-237.36 586.5,-237.36 586.5,-218.36 499.5,-218.36"/>
<text text-anchor="middle" x="543" y="-225.36" font-family="Helvetica,sans-Serif" font-size="10.00">gsd_find_chunk</text>
</a>
</g>
</g>
<!-- Node18&#45;&gt;Node20 -->
<g id="edge23" class="edge">
<title>Node18&#45;&gt;Node20</title>
<path fill="none" stroke="midnightblue" d="M430.79,-227.86C449.52,-227.86 470.58,-227.86 489.3,-227.86"/>
<polygon fill="midnightblue" stroke="midnightblue" points="489.42,-231.36 499.42,-227.86 489.42,-224.36 489.42,-231.36"/>
</g>
<!-- Node23 -->
<g id="node23" class="node">
<title>Node23</title>
<g id="a_node23"><a xlink:href="../../dc/dcb/gsd_8c.html#a2db2e3e8a72948bf413e7f09469ec8a6" target="_top" xlink:title=" ">
<polygon fill="none" stroke="black" points="498,-294.36 498,-313.36 588,-313.36 588,-294.36 498,-294.36"/>
<text text-anchor="middle" x="543" y="-301.36" font-family="Helvetica,sans-Serif" font-size="10.00">gsd_read_chunk</text>
</a>
</g>
</g>
<!-- Node18&#45;&gt;Node23 -->
<g id="edge29" class="edge">
<title>Node18&#45;&gt;Node23</title>
<path fill="none" stroke="midnightblue" d="M398.77,-237.49C427.48,-250.79 479.46,-274.88 512.28,-290.09"/>
<polygon fill="midnightblue" stroke="midnightblue" points="510.85,-293.28 521.4,-294.31 513.8,-286.93 510.85,-293.28"/>
</g>
<!-- Node20&#45;&gt;Node3 -->
<g id="edge25" class="edge">
<title>Node20&#45;&gt;Node3</title>
<path fill="none" stroke="midnightblue" d="M586.53,-221.5C596.17,-218.7 605.92,-214.67 614,-208.86 639.08,-190.82 684.72,-112.3 705.14,-75.73"/>
<polygon fill="midnightblue" stroke="midnightblue" points="708.41,-77.06 710.19,-66.61 702.28,-73.66 708.41,-77.06"/>
</g>
<!-- Node20&#45;&gt;Node12 -->
<g id="edge26" class="edge">
<title>Node20&#45;&gt;Node12</title>
<path fill="none" stroke="midnightblue" d="M586.83,-237.35C609.85,-242.45 638.44,-248.78 662.81,-254.18"/>
<polygon fill="midnightblue" stroke="midnightblue" points="662.1,-257.61 672.62,-256.36 663.61,-250.78 662.1,-257.61"/>
</g>
<!-- Node21 -->
<g id="node21" class="node">
<title>Node21</title>
<g id="a_node21"><a xlink:href="../../dc/dcb/gsd_8c.html#a3ffe758eed9a5bae487f514a0a45e97d" target="_top" xlink:title=" ">
<polygon fill="none" stroke="black" points="659.5,-180.36 659.5,-199.36 773.5,-199.36 773.5,-180.36 659.5,-180.36"/>
<text text-anchor="middle" x="716.5" y="-187.36" font-family="Helvetica,sans-Serif" font-size="10.00">gsd_cmp_index_entry</text>
</a>
</g>
</g>
<!-- Node20&#45;&gt;Node21 -->
<g id="edge24" class="edge">
<title>Node20&#45;&gt;Node21</title>
<path fill="none" stroke="midnightblue" d="M586.83,-218.37C609.85,-213.27 638.44,-206.94 662.81,-201.53"/>
<polygon fill="midnightblue" stroke="midnightblue" points="663.61,-204.94 672.62,-199.36 662.1,-198.11 663.61,-204.94"/>
</g>
<!-- Node22 -->
<g id="node22" class="node">
<title>Node22</title>
<g id="a_node22"><a xlink:href="../../dc/dcb/gsd_8c.html#a31b9400272036b121040e9fc0a9e626b" target="_top" xlink:title=" ">
<polygon fill="none" stroke="black" points="655,-218.36 655,-237.36 778,-237.36 778,-218.36 655,-218.36"/>
<text text-anchor="middle" x="716.5" y="-225.36" font-family="Helvetica,sans-Serif" font-size="10.00">gsd_name_id_map_find</text>
</a>
</g>
</g>
<!-- Node20&#45;&gt;Node22 -->
<g id="edge27" class="edge">
<title>Node20&#45;&gt;Node22</title>
<path fill="none" stroke="midnightblue" d="M586.83,-227.86C604.32,-227.86 625.02,-227.86 644.64,-227.86"/>
<polygon fill="midnightblue" stroke="midnightblue" points="644.79,-231.36 654.79,-227.86 644.79,-224.36 644.79,-231.36"/>
</g>
<!-- Node22&#45;&gt;Node15 -->
<g id="edge28" class="edge">
<title>Node22&#45;&gt;Node15</title>
<path fill="none" stroke="midnightblue" d="M767.75,-237.48C773.27,-239.93 778.51,-243.01 783,-246.86 784.57,-248.21 833.52,-354.68 853.81,-398.91"/>
<polygon fill="midnightblue" stroke="midnightblue" points="850.75,-400.64 858.1,-408.27 857.12,-397.72 850.75,-400.64"/>
</g>
<!-- Node23&#45;&gt;Node9 -->
<g id="edge30" class="edge">
<title>Node23&#45;&gt;Node9</title>
<path fill="none" stroke="midnightblue" d="M586.02,-313.46C595.37,-316.09 605.14,-319.24 614,-322.86 642.22,-334.41 672.44,-352.14 692.49,-364.76"/>
<polygon fill="midnightblue" stroke="midnightblue" points="690.64,-367.73 700.95,-370.16 694.4,-361.83 690.64,-367.73"/>
</g>
<!-- Node23&#45;&gt;Node11 -->
<g id="edge31" class="edge">
<title>Node23&#45;&gt;Node11</title>
<path fill="none" stroke="midnightblue" d="M588.29,-303.86C645.89,-303.86 746.46,-303.86 808.48,-303.86"/>
<polygon fill="midnightblue" stroke="midnightblue" points="808.85,-307.36 818.85,-303.86 808.85,-300.36 808.85,-307.36"/>
</g>
<!-- Node24&#45;&gt;Node2 -->
<g id="edge34" class="edge">
<title>Node24&#45;&gt;Node2</title>
<path fill="none" stroke="midnightblue" d="M271.14,-180.37C317.32,-172.98 380.92,-161.68 436,-147.86 459.52,-141.96 485.45,-133.67 505.77,-126.76"/>
<polygon fill="midnightblue" stroke="midnightblue" points="506.95,-130.06 515.26,-123.49 504.67,-123.44 506.95,-130.06"/>
</g>
<!-- Node24&#45;&gt;Node18 -->
<g id="edge35" class="edge">
<title>Node24&#45;&gt;Node18</title>
<path fill="none" stroke="midnightblue" d="M249.65,-199.45C272.15,-204.51 299.95,-210.76 323.74,-216.11"/>
<polygon fill="midnightblue" stroke="midnightblue" points="323.14,-219.56 333.66,-218.34 324.67,-212.73 323.14,-219.56"/>
</g>
<!-- Node25&#45;&gt;Node2 -->
<g id="edge37" class="edge">
<title>Node25&#45;&gt;Node2</title>
<path fill="none" stroke="midnightblue" d="M264.93,-146.22C311.25,-141.61 377.84,-134.75 436,-127.86 445.3,-126.76 455.06,-125.55 464.73,-124.31"/>
<polygon fill="midnightblue" stroke="midnightblue" points="465.27,-127.77 474.74,-123.02 464.38,-120.83 465.27,-127.77"/>
</g>
<!-- Node25&#45;&gt;Node18 -->
<g id="edge38" class="edge">
<title>Node25&#45;&gt;Node18</title>
<path fill="none" stroke="midnightblue" d="M253.71,-161.41C263.24,-163.99 273.08,-167.12 282,-170.86 308.47,-181.95 336.28,-199.68 354.72,-212.42"/>
<polygon fill="midnightblue" stroke="midnightblue" points="352.78,-215.34 362.98,-218.23 356.81,-209.61 352.78,-215.34"/>
</g>
<!-- Node26&#45;&gt;Node2 -->
<g id="edge40" class="edge">
<title>Node26&#45;&gt;Node2</title>
<path fill="none" stroke="midnightblue" d="M282.18,-113.86C336.57,-113.86 409.85,-113.86 464.72,-113.86"/>
<polygon fill="midnightblue" stroke="midnightblue" points="464.74,-117.36 474.74,-113.86 464.74,-110.36 464.74,-117.36"/>
</g>
<!-- Node26&#45;&gt;Node18 -->
<g id="edge41" class="edge">
<title>Node26&#45;&gt;Node18</title>
<path fill="none" stroke="midnightblue" d="M260.06,-123.44C267.69,-125.9 275.24,-128.99 282,-132.86 316.37,-152.51 346.68,-188.17 363.08,-209.77"/>
<polygon fill="midnightblue" stroke="midnightblue" points="360.46,-212.12 369.22,-218.07 366.09,-207.95 360.46,-212.12"/>
</g>
</g>
</svg>
