<?xml version="1.0" encoding="UTF-8" standalone="no"?>
<!DOCTYPE svg PUBLIC "-//W3C//DTD SVG 1.1//EN"
 "http://www.w3.org/Graphics/SVG/1.1/DTD/svg11.dtd">
<!-- Generated by graphviz version 2.49.1 (20210923.0004)
 -->
<!-- Title: GSDUtil::truncateGSD Pages: 1 -->
<svg width="928pt" height="332pt"
 viewBox="0.00 0.00 928.00 332.00" xmlns="http://www.w3.org/2000/svg" xmlns:xlink="http://www.w3.org/1999/xlink">
<g id="graph0" class="graph" transform="scale(1 1) rotate(0) translate(4 328)">
<title>GSDUtil::truncateGSD</title>
<!-- Node1 -->
<g id="node1" class="node">
<title>Node1</title>
<g id="a_node1"><a xlink:title=" ">
<polygon fill="#bfbfbf" stroke="black" points="0,-247.5 0,-266.5 116,-266.5 116,-247.5 0,-247.5"/>
<text text-anchor="middle" x="58" y="-254.5" font-family="Helvetica,sans-Serif" font-size="10.00">GSDUtil::truncateGSD</text>
</a>
</g>
</g>
<!-- Node2 -->
<g id="node2" class="node">
<title>Node2</title>
<g id="a_node2"><a xlink:href="../../de/d83/classGSDUtil.html#a00a919382c11e9dd1fa7ae1a8788d4c0" target="_top" xlink:title=" ">
<polygon fill="none" stroke="black" points="152,-266.5 152,-285.5 288,-285.5 288,-266.5 152,-266.5"/>
<text text-anchor="middle" x="220" y="-273.5" font-family="Helvetica,sans-Serif" font-size="10.00">GSDUtil::checkGSDReturn</text>
</a>
</g>
</g>
<!-- Node1&#45;&gt;Node2 -->
<g id="edge1" class="edge">
<title>Node1&#45;&gt;Node2</title>
<path fill="none" stroke="midnightblue" d="M116.31,-263.81C124.56,-264.79 133.16,-265.81 141.72,-266.82"/>
<polygon fill="midnightblue" stroke="midnightblue" points="141.38,-270.31 151.73,-268.01 142.21,-263.36 141.38,-270.31"/>
</g>
<!-- Node3 -->
<g id="node3" class="node">
<title>Node3</title>
<g id="a_node3"><a xlink:href="../../dc/dcb/gsd_8c.html#a02ac7984034069d508b1c7ccbe702bac" target="_top" xlink:title=" ">
<polygon fill="none" stroke="black" points="183,-228.5 183,-247.5 257,-247.5 257,-228.5 183,-228.5"/>
<text text-anchor="middle" x="220" y="-235.5" font-family="Helvetica,sans-Serif" font-size="10.00">gsd_truncate</text>
</a>
</g>
</g>
<!-- Node1&#45;&gt;Node3 -->
<g id="edge2" class="edge">
<title>Node1&#45;&gt;Node3</title>
<path fill="none" stroke="midnightblue" d="M116.31,-250.19C134.9,-247.99 155.27,-245.57 172.93,-243.47"/>
<polygon fill="midnightblue" stroke="midnightblue" points="173.47,-246.93 182.99,-242.28 172.64,-239.98 173.47,-246.93"/>
</g>
<!-- Node4 -->
<g id="node4" class="node">
<title>Node4</title>
<g id="a_node4"><a xlink:href="../../dc/dcb/gsd_8c.html#ae50726c30c5bf629b6af1ef88020302f" target="_top" xlink:title=" ">
<polygon fill="none" stroke="black" points="330.5,-304.5 330.5,-323.5 441.5,-323.5 441.5,-304.5 330.5,-304.5"/>
<text text-anchor="middle" x="386" y="-311.5" font-family="Helvetica,sans-Serif" font-size="10.00">gsd_byte_buffer_free</text>
</a>
</g>
</g>
<!-- Node3&#45;&gt;Node4 -->
<g id="edge3" class="edge">
<title>Node3&#45;&gt;Node4</title>
<path fill="none" stroke="midnightblue" d="M257.24,-244.5C267.65,-247.34 278.69,-251.36 288,-257 307.9,-269.05 304.25,-282.7 324,-295 327.35,-297.08 330.94,-298.96 334.65,-300.64"/>
<polygon fill="midnightblue" stroke="midnightblue" points="333.44,-303.92 344.02,-304.42 336.06,-297.43 333.44,-303.92"/>
</g>
<!-- Node6 -->
<g id="node6" class="node">
<title>Node6</title>
<g id="a_node6"><a xlink:href="../../dc/dcb/gsd_8c.html#a9e12a38df69cf73fa771b005748cb3e5" target="_top" xlink:title=" ">
<polygon fill="none" stroke="black" points="328,-266.5 328,-285.5 444,-285.5 444,-266.5 328,-266.5"/>
<text text-anchor="middle" x="386" y="-273.5" font-family="Helvetica,sans-Serif" font-size="10.00">gsd_index_buffer_free</text>
</a>
</g>
</g>
<!-- Node3&#45;&gt;Node6 -->
<g id="edge5" class="edge">
<title>Node3&#45;&gt;Node6</title>
<path fill="none" stroke="midnightblue" d="M257.4,-246.43C279.87,-251.64 309.05,-258.4 333.83,-264.14"/>
<polygon fill="midnightblue" stroke="midnightblue" points="333.27,-267.61 343.8,-266.45 334.85,-260.79 333.27,-267.61"/>
</g>
<!-- Node7 -->
<g id="node7" class="node">
<title>Node7</title>
<g id="a_node7"><a xlink:href="../../dc/dcb/gsd_8c.html#acb769baf09c31a5ad6cba95bd348c194" target="_top" xlink:title=" ">
<polygon fill="none" stroke="black" points="340,-228.5 340,-247.5 432,-247.5 432,-228.5 340,-228.5"/>
<text text-anchor="middle" x="386" y="-235.5" font-family="Helvetica,sans-Serif" font-size="10.00">gsd_initialize_file</text>
</a>
</g>
</g>
<!-- Node3&#45;&gt;Node7 -->
<g id="edge7" class="edge">
<title>Node3&#45;&gt;Node7</title>
<path fill="none" stroke="midnightblue" d="M257.4,-238C278.7,-238 306.02,-238 329.92,-238"/>
<polygon fill="midnightblue" stroke="midnightblue" points="329.92,-241.5 339.92,-238 329.92,-234.5 329.92,-241.5"/>
</g>
<!-- Node10 -->
<g id="node10" class="node">
<title>Node10</title>
<g id="a_node10"><a xlink:href="../../dc/dcb/gsd_8c.html#ac159dfbfd790607f85073ad2d8464a8b" target="_top" xlink:title=" ">
<polygon fill="none" stroke="black" points="331.5,-152.5 331.5,-171.5 440.5,-171.5 440.5,-152.5 331.5,-152.5"/>
<text text-anchor="middle" x="386" y="-159.5" font-family="Helvetica,sans-Serif" font-size="10.00">gsd_initialize_handle</text>
</a>
</g>
</g>
<!-- Node3&#45;&gt;Node10 -->
<g id="edge11" class="edge">
<title>Node3&#45;&gt;Node10</title>
<path fill="none" stroke="midnightblue" d="M241.77,-228.37C270.48,-215.07 322.46,-190.98 355.28,-175.77"/>
<polygon fill="midnightblue" stroke="midnightblue" points="356.8,-178.93 364.4,-171.55 353.85,-172.58 356.8,-178.93"/>
</g>
<!-- Node20 -->
<g id="node20" class="node">
<title>Node20</title>
<g id="a_node20"><a xlink:href="../../dc/dcb/gsd_8c.html#a8249dc854c432e55e8ee07a8d3e8546c" target="_top" xlink:title=" ">
<polygon fill="none" stroke="black" points="324,-114.5 324,-133.5 448,-133.5 448,-114.5 324,-114.5"/>
<text text-anchor="middle" x="386" y="-121.5" font-family="Helvetica,sans-Serif" font-size="10.00">gsd_name_id_map_free</text>
</a>
</g>
</g>
<!-- Node3&#45;&gt;Node20 -->
<g id="edge24" class="edge">
<title>Node3&#45;&gt;Node20</title>
<path fill="none" stroke="midnightblue" d="M228.76,-228.43C244.66,-209.42 282.92,-166.71 324,-143 327.67,-140.88 331.61,-138.97 335.65,-137.25"/>
<polygon fill="midnightblue" stroke="midnightblue" points="337.11,-140.44 345.19,-133.59 334.6,-133.9 337.11,-140.44"/>
</g>
<!-- Node5 -->
<g id="node5" class="node">
<title>Node5</title>
<g id="a_node5"><a xlink:href="../../dc/dcb/gsd_8c.html#a9b05d58560daee2512f03bedf7b2926d" target="_top" xlink:title=" ">
<polygon fill="none" stroke="black" points="496,-304.5 496,-323.5 614,-323.5 614,-304.5 496,-304.5"/>
<text text-anchor="middle" x="555" y="-311.5" font-family="Helvetica,sans-Serif" font-size="10.00">gsd_util_zero_memory</text>
</a>
</g>
</g>
<!-- Node4&#45;&gt;Node5 -->
<g id="edge4" class="edge">
<title>Node4&#45;&gt;Node5</title>
<path fill="none" stroke="midnightblue" d="M441.68,-314C455.75,-314 471.06,-314 485.72,-314"/>
<polygon fill="midnightblue" stroke="midnightblue" points="485.75,-317.5 495.75,-314 485.75,-310.5 485.75,-317.5"/>
</g>
<!-- Node6&#45;&gt;Node5 -->
<g id="edge6" class="edge">
<title>Node6&#45;&gt;Node5</title>
<path fill="none" stroke="midnightblue" d="M429.14,-285.59C451.38,-290.65 478.85,-296.9 502.36,-302.25"/>
<polygon fill="midnightblue" stroke="midnightblue" points="501.63,-305.67 512.16,-304.48 503.19,-298.85 501.63,-305.67"/>
</g>
<!-- Node7&#45;&gt;Node5 -->
<g id="edge10" class="edge">
<title>Node7&#45;&gt;Node5</title>
<path fill="none" stroke="midnightblue" d="M427.98,-247.58C434.94,-250.09 441.88,-253.19 448,-257 467.75,-269.3 464.03,-283.06 484,-295 487.65,-297.18 491.55,-299.12 495.58,-300.83"/>
<polygon fill="midnightblue" stroke="midnightblue" points="494.55,-304.19 505.14,-304.46 497.03,-297.64 494.55,-304.19"/>
</g>
<!-- Node8 -->
<g id="node8" class="node">
<title>Node8</title>
<g id="a_node8"><a xlink:href="../../dc/dcb/gsd_8c.html#a3fb7746d93a1c856ca7ef64fa3548cbe" target="_top" xlink:title=" ">
<polygon fill="none" stroke="black" points="503,-266.5 503,-285.5 607,-285.5 607,-266.5 503,-266.5"/>
<text text-anchor="middle" x="555" y="-273.5" font-family="Helvetica,sans-Serif" font-size="10.00">gsd_io_pwrite_retry</text>
</a>
</g>
</g>
<!-- Node7&#45;&gt;Node8 -->
<g id="edge8" class="edge">
<title>Node7&#45;&gt;Node8</title>
<path fill="none" stroke="midnightblue" d="M429.14,-247.59C451.38,-252.65 478.85,-258.9 502.36,-264.25"/>
<polygon fill="midnightblue" stroke="midnightblue" points="501.63,-267.67 512.16,-266.48 503.19,-260.85 501.63,-267.67"/>
</g>
<!-- Node9 -->
<g id="node9" class="node">
<title>Node9</title>
<g id="a_node9"><a xlink:href="../../dc/dcb/gsd_8c.html#a493ef951956c9f98adff89a80ddb3fa6" target="_top" xlink:title=" ">
<polygon fill="none" stroke="black" points="505,-228.5 505,-247.5 605,-247.5 605,-228.5 505,-228.5"/>
<text text-anchor="middle" x="555" y="-235.5" font-family="Helvetica,sans-Serif" font-size="10.00">gsd_make_version</text>
</a>
</g>
</g>
<!-- Node7&#45;&gt;Node9 -->
<g id="edge9" class="edge">
<title>Node7&#45;&gt;Node9</title>
<path fill="none" stroke="midnightblue" d="M432.19,-238C451.45,-238 474.17,-238 494.74,-238"/>
<polygon fill="midnightblue" stroke="midnightblue" points="494.96,-241.5 504.96,-238 494.96,-234.5 494.96,-241.5"/>
</g>
<!-- Node10&#45;&gt;Node9 -->
<g id="edge20" class="edge">
<title>Node10&#45;&gt;Node9</title>
<path fill="none" stroke="midnightblue" d="M400.52,-171.53C418.73,-183.98 452.49,-205.75 484,-219 489.71,-221.4 495.82,-223.58 501.95,-225.54"/>
<polygon fill="midnightblue" stroke="midnightblue" points="500.98,-228.9 511.56,-228.43 502.99,-222.2 500.98,-228.9"/>
</g>
<!-- Node11 -->
<g id="node11" class="node">
<title>Node11</title>
<g id="a_node11"><a xlink:href="../../dc/dcb/gsd_8c.html#aeaf487909ab334303fa478cf4a126d6f" target="_top" xlink:title=" ">
<polygon fill="none" stroke="black" points="491,-190.5 491,-209.5 619,-209.5 619,-190.5 491,-190.5"/>
<text text-anchor="middle" x="555" y="-197.5" font-family="Helvetica,sans-Serif" font-size="10.00">gsd_byte_buffer_allocate</text>
</a>
</g>
</g>
<!-- Node10&#45;&gt;Node11 -->
<g id="edge12" class="edge">
<title>Node10&#45;&gt;Node11</title>
<path fill="none" stroke="midnightblue" d="M429.14,-171.59C451.38,-176.65 478.85,-182.9 502.36,-188.25"/>
<polygon fill="midnightblue" stroke="midnightblue" points="501.63,-191.67 512.16,-190.48 503.19,-184.85 501.63,-191.67"/>
</g>
<!-- Node12 -->
<g id="node12" class="node">
<title>Node12</title>
<g id="a_node12"><a xlink:href="../../dc/dcb/gsd_8c.html#ae1948c93f77d642c4e3797fe7e5f2095" target="_top" xlink:title=" ">
<polygon fill="none" stroke="black" points="662,-152.5 662,-171.5 795,-171.5 795,-152.5 662,-152.5"/>
<text text-anchor="middle" x="728.5" y="-159.5" font-family="Helvetica,sans-Serif" font-size="10.00">gsd_index_buffer_allocate</text>
</a>
</g>
</g>
<!-- Node10&#45;&gt;Node12 -->
<g id="edge13" class="edge">
<title>Node10&#45;&gt;Node12</title>
<path fill="none" stroke="midnightblue" d="M440.58,-162C497.47,-162 587.84,-162 651.95,-162"/>
<polygon fill="midnightblue" stroke="midnightblue" points="652,-165.5 662,-162 652,-158.5 652,-165.5"/>
</g>
<!-- Node13 -->
<g id="node13" class="node">
<title>Node13</title>
<g id="a_node13"><a xlink:href="../../dc/dcb/gsd_8c.html#a6fe75caf6c4df550af2455a0c40bfbdf" target="_top" xlink:title=" ">
<polygon fill="none" stroke="black" points="496,-114.5 496,-133.5 614,-133.5 614,-114.5 496,-114.5"/>
<text text-anchor="middle" x="555" y="-121.5" font-family="Helvetica,sans-Serif" font-size="10.00">gsd_index_buffer_map</text>
</a>
</g>
</g>
<!-- Node10&#45;&gt;Node13 -->
<g id="edge14" class="edge">
<title>Node10&#45;&gt;Node13</title>
<path fill="none" stroke="midnightblue" d="M429.14,-152.41C451.38,-147.35 478.85,-141.1 502.36,-135.75"/>
<polygon fill="midnightblue" stroke="midnightblue" points="503.19,-139.15 512.16,-133.52 501.63,-132.33 503.19,-139.15"/>
</g>
<!-- Node14 -->
<g id="node14" class="node">
<title>Node14</title>
<g id="a_node14"><a xlink:href="../../dc/dcb/gsd_8c.html#ac1f41abbefbfe35337e7053d766c089b" target="_top" xlink:title=" ">
<polygon fill="none" stroke="black" points="677,-76.5 677,-95.5 780,-95.5 780,-76.5 677,-76.5"/>
<text text-anchor="middle" x="728.5" y="-83.5" font-family="Helvetica,sans-Serif" font-size="10.00">gsd_io_pread_retry</text>
</a>
</g>
</g>
<!-- Node10&#45;&gt;Node14 -->
<g id="edge19" class="edge">
<title>Node10&#45;&gt;Node14</title>
<path fill="none" stroke="midnightblue" d="M427.98,-152.42C434.94,-149.91 441.88,-146.81 448,-143 467.75,-130.7 463,-115.02 484,-105 541.47,-77.58 615.29,-75.79 666.51,-79"/>
<polygon fill="midnightblue" stroke="midnightblue" points="666.54,-82.51 676.77,-79.73 667.04,-75.53 666.54,-82.51"/>
</g>
<!-- Node17 -->
<g id="node17" class="node">
<title>Node17</title>
<g id="a_node17"><a xlink:href="../../dc/dcb/gsd_8c.html#aebfeb70fcbc089409a7179af7d814554" target="_top" xlink:title=" ">
<polygon fill="none" stroke="black" points="484,-38.5 484,-57.5 626,-57.5 626,-38.5 484,-38.5"/>
<text text-anchor="middle" x="555" y="-45.5" font-family="Helvetica,sans-Serif" font-size="10.00">gsd_name_id_map_allocate</text>
</a>
</g>
</g>
<!-- Node10&#45;&gt;Node17 -->
<g id="edge21" class="edge">
<title>Node10&#45;&gt;Node17</title>
<path fill="none" stroke="midnightblue" d="M432.46,-152.4C438.07,-149.95 443.43,-146.87 448,-143 475.02,-120.16 457.31,-95.22 484,-72 488.77,-67.85 494.29,-64.41 500.11,-61.56"/>
<polygon fill="midnightblue" stroke="midnightblue" points="501.61,-64.72 509.41,-57.54 498.84,-58.29 501.61,-64.72"/>
</g>
<!-- Node18 -->
<g id="node18" class="node">
<title>Node18</title>
<g id="a_node18"><a xlink:href="../../dc/dcb/gsd_8c.html#a6c8c2e5a49ac4eb01a95be2e0df06eb9" target="_top" xlink:title=" ">
<polygon fill="none" stroke="black" points="489,-0.5 489,-19.5 621,-19.5 621,-0.5 489,-0.5"/>
<text text-anchor="middle" x="555" y="-7.5" font-family="Helvetica,sans-Serif" font-size="10.00">gsd_name_id_map_insert</text>
</a>
</g>
</g>
<!-- Node10&#45;&gt;Node18 -->
<g id="edge22" class="edge">
<title>Node10&#45;&gt;Node18</title>
<path fill="none" stroke="midnightblue" d="M434.3,-152.49C439.35,-150.02 444.07,-146.91 448,-143 485.64,-105.5 445.67,-65.8 484,-29 485.5,-27.56 487.1,-26.23 488.77,-25"/>
<polygon fill="midnightblue" stroke="midnightblue" points="490.95,-27.77 497.72,-19.61 487.34,-21.77 490.95,-27.77"/>
</g>
<!-- Node13&#45;&gt;Node12 -->
<g id="edge15" class="edge">
<title>Node13&#45;&gt;Node12</title>
<path fill="none" stroke="midnightblue" d="M599.28,-133.59C622.11,-138.65 650.32,-144.9 674.46,-150.25"/>
<polygon fill="midnightblue" stroke="midnightblue" points="674.01,-153.73 684.53,-152.48 675.53,-146.9 674.01,-153.73"/>
</g>
<!-- Node13&#45;&gt;Node14 -->
<g id="edge16" class="edge">
<title>Node13&#45;&gt;Node14</title>
<path fill="none" stroke="midnightblue" d="M599.28,-114.41C622.11,-109.35 650.32,-103.1 674.46,-97.75"/>
<polygon fill="midnightblue" stroke="midnightblue" points="675.53,-101.1 684.53,-95.52 674.01,-94.27 675.53,-101.1"/>
</g>
<!-- Node15 -->
<g id="node15" class="node">
<title>Node15</title>
<g id="a_node15"><a xlink:href="../../dc/dcb/gsd_8c.html#ab5d19295bedec41b7919caec2cb22759" target="_top" xlink:title=" ">
<polygon fill="none" stroke="black" points="679,-114.5 679,-133.5 778,-133.5 778,-114.5 679,-114.5"/>
<text text-anchor="middle" x="728.5" y="-121.5" font-family="Helvetica,sans-Serif" font-size="10.00">gsd_is_entry_valid</text>
</a>
</g>
</g>
<!-- Node13&#45;&gt;Node15 -->
<g id="edge17" class="edge">
<title>Node13&#45;&gt;Node15</title>
<path fill="none" stroke="midnightblue" d="M614.06,-124C631.69,-124 651.07,-124 668.74,-124"/>
<polygon fill="midnightblue" stroke="midnightblue" points="668.92,-127.5 678.92,-124 668.92,-120.5 668.92,-127.5"/>
</g>
<!-- Node16 -->
<g id="node16" class="node">
<title>Node16</title>
<g id="a_node16"><a xlink:href="../../dc/dcb/gsd_8c.html#ab1d1a8a5f73b37df0c706f41df3bdd69" target="_top" xlink:title=" ">
<polygon fill="none" stroke="black" points="831,-114.5 831,-133.5 920,-133.5 920,-114.5 831,-114.5"/>
<text text-anchor="middle" x="875.5" y="-121.5" font-family="Helvetica,sans-Serif" font-size="10.00">gsd_sizeof_type</text>
</a>
</g>
</g>
<!-- Node15&#45;&gt;Node16 -->
<g id="edge18" class="edge">
<title>Node15&#45;&gt;Node16</title>
<path fill="none" stroke="midnightblue" d="M778.19,-124C791.69,-124 806.44,-124 820.24,-124"/>
<polygon fill="midnightblue" stroke="midnightblue" points="820.58,-127.5 830.58,-124 820.58,-120.5 820.58,-127.5"/>
</g>
<!-- Node19 -->
<g id="node19" class="node">
<title>Node19</title>
<g id="a_node19"><a xlink:href="../../dc/dcb/gsd_8c.html#a6d8087323ec29c58d907b9462b4a31da" target="_top" xlink:title=" ">
<polygon fill="none" stroke="black" points="690,-0.5 690,-19.5 767,-19.5 767,-0.5 690,-0.5"/>
<text text-anchor="middle" x="728.5" y="-7.5" font-family="Helvetica,sans-Serif" font-size="10.00">gsd_hash_str</text>
</a>
</g>
</g>
<!-- Node18&#45;&gt;Node19 -->
<g id="edge23" class="edge">
<title>Node18&#45;&gt;Node19</title>
<path fill="none" stroke="midnightblue" d="M621.33,-10C640.63,-10 661.41,-10 679.42,-10"/>
<polygon fill="midnightblue" stroke="midnightblue" points="679.67,-13.5 689.67,-10 679.67,-6.5 679.67,-13.5"/>
</g>
</g>
</svg>
