<?xml version="1.0" encoding="UTF-8" standalone="no"?>
<!DOCTYPE svg PUBLIC "-//W3C//DTD SVG 1.1//EN"
 "http://www.w3.org/Graphics/SVG/1.1/DTD/svg11.dtd">
<!-- Generated by graphviz version 2.49.1 (20210923.0004)
 -->
<!-- Title: GSDUtil::checkGSDReturn Pages: 1 -->
<svg width="629pt" height="413pt"
 viewBox="0.00 0.00 629.00 412.85" xmlns="http://www.w3.org/2000/svg" xmlns:xlink="http://www.w3.org/1999/xlink">
<g id="graph0" class="graph" transform="scale(1 1) rotate(0) translate(4 408.85)">
<title>GSDUtil::checkGSDReturn</title>
<!-- Node1 -->
<g id="node1" class="node">
<title>Node1</title>
<g id="a_node1"><a xlink:title=" ">
<polygon fill="#bfbfbf" stroke="black" points="485,-190.5 485,-209.5 621,-209.5 621,-190.5 485,-190.5"/>
<text text-anchor="middle" x="553" y="-197.5" font-family="Helvetica,sans-Serif" font-size="10.00">GSDUtil::checkGSDReturn</text>
</a>
</g>
</g>
<!-- Node2 -->
<g id="node2" class="node">
<title>Node2</title>
<g id="a_node2"><a xlink:href="../../de/d83/classGSDUtil.html#a2567bdb7f5952a76984552e0591fa330" target="_top" xlink:title=" ">
<polygon fill="none" stroke="black" points="0,-304.5 0,-323.5 94,-323.5 94,-304.5 0,-304.5"/>
<text text-anchor="middle" x="47" y="-311.5" font-family="Helvetica,sans-Serif" font-size="10.00">GSDUtil::GSDUtil</text>
</a>
</g>
</g>
<!-- Node1&#45;&gt;Node2 -->
<g id="edge1" class="edge">
<title>Node1&#45;&gt;Node2</title>
<path fill="none" stroke="midnightblue" d="M545.16,-218.96C532.14,-252.05 500.4,-319.79 449,-351 327.57,-424.73 265.55,-413.49 130,-371 100.22,-361.67 71.78,-337.28 57.52,-323.62"/>
<polygon fill="midnightblue" stroke="midnightblue" points="548.47,-220.12 548.74,-209.52 541.92,-217.64 548.47,-220.12"/>
</g>
<!-- Node3 -->
<g id="node3" class="node">
<title>Node3</title>
<g id="a_node3"><a xlink:href="../../de/d83/classGSDUtil.html#a86d2352b694afc6a0c938a13b3acec9d" target="_top" xlink:title=" ">
<polygon fill="none" stroke="black" points="330,-266.5 330,-285.5 437,-285.5 437,-266.5 330,-266.5"/>
<text text-anchor="middle" x="383.5" y="-273.5" font-family="Helvetica,sans-Serif" font-size="10.00">GSDUtil::readChunk</text>
</a>
</g>
</g>
<!-- Node1&#45;&gt;Node3 -->
<g id="edge2" class="edge">
<title>Node1&#45;&gt;Node3</title>
<path fill="none" stroke="midnightblue" d="M525.36,-214.48C504.79,-225.41 475.46,-240.44 449,-252 437.18,-257.17 423.85,-262.24 412.39,-266.39"/>
<polygon fill="midnightblue" stroke="midnightblue" points="527.26,-217.43 534.42,-209.63 523.96,-211.26 527.26,-217.43"/>
</g>
<!-- Node4 -->
<g id="node4" class="node">
<title>Node4</title>
<g id="a_node4"><a xlink:href="../../de/d83/classGSDUtil.html#a2015dcdcdb33be9106f5c8f45f8564cc" target="_top" xlink:title=" ">
<polygon fill="none" stroke="black" points="150.5,-228.5 150.5,-247.5 261.5,-247.5 261.5,-228.5 150.5,-228.5"/>
<text text-anchor="middle" x="206" y="-235.5" font-family="Helvetica,sans-Serif" font-size="10.00">GSDUtil::readHeader</text>
</a>
</g>
</g>
<!-- Node1&#45;&gt;Node4 -->
<g id="edge11" class="edge">
<title>Node1&#45;&gt;Node4</title>
<path fill="none" stroke="midnightblue" d="M474.76,-207.47C429.13,-211.99 370.24,-218.03 318,-224 299.67,-226.1 279.65,-228.56 261.73,-230.84"/>
<polygon fill="midnightblue" stroke="midnightblue" points="475.27,-210.93 484.88,-206.47 474.58,-203.97 475.27,-210.93"/>
</g>
<!-- Node5 -->
<g id="node5" class="node">
<title>Node5</title>
<g id="a_node5"><a xlink:href="../../de/d83/classGSDUtil.html#a31f9c7368ebd89c6293d9d9d83598e62" target="_top" xlink:title=" ">
<polygon fill="none" stroke="black" points="141,-342.5 141,-361.5 271,-361.5 271,-342.5 141,-342.5"/>
<text text-anchor="middle" x="206" y="-349.5" font-family="Helvetica,sans-Serif" font-size="10.00">GSDUtil::readParameters</text>
</a>
</g>
</g>
<!-- Node1&#45;&gt;Node5 -->
<g id="edge12" class="edge">
<title>Node1&#45;&gt;Node5</title>
<path fill="none" stroke="midnightblue" d="M542.14,-218.63C526.47,-246.19 493.07,-297.12 449,-321 394.16,-350.71 322.34,-356.5 271.22,-356.05"/>
<polygon fill="midnightblue" stroke="midnightblue" points="545.34,-220.08 547.1,-209.63 539.21,-216.7 545.34,-220.08"/>
</g>
<!-- Node6 -->
<g id="node6" class="node">
<title>Node6</title>
<g id="a_node6"><a xlink:href="../../de/d83/classGSDUtil.html#ad404c3879fb81c0b73b2335ea6e4676a" target="_top" xlink:title=" ">
<polygon fill="none" stroke="black" points="147.5,-304.5 147.5,-323.5 264.5,-323.5 264.5,-304.5 147.5,-304.5"/>
<text text-anchor="middle" x="206" y="-311.5" font-family="Helvetica,sans-Serif" font-size="10.00">GSDUtil::readParticles</text>
</a>
</g>
</g>
<!-- Node1&#45;&gt;Node6 -->
<g id="edge13" class="edge">
<title>Node1&#45;&gt;Node6</title>
<path fill="none" stroke="midnightblue" d="M538.98,-217.82C521.4,-240.3 487.77,-278.07 449,-295 390.1,-320.72 315.5,-322.54 264.8,-319.81"/>
<polygon fill="midnightblue" stroke="midnightblue" points="541.84,-219.84 545.11,-209.76 536.27,-215.6 541.84,-219.84"/>
</g>
<!-- Node7 -->
<g id="node7" class="node">
<title>Node7</title>
<g id="a_node7"><a xlink:href="../../de/d83/classGSDUtil.html#a278d1db9ece12bdc1268780313d83daf" target="_top" xlink:title=" ">
<polygon fill="none" stroke="black" points="130,-266.5 130,-285.5 282,-285.5 282,-266.5 130,-266.5"/>
<text text-anchor="middle" x="206" y="-273.5" font-family="Helvetica,sans-Serif" font-size="10.00">GSDUtil::readSystemSpecifics</text>
</a>
</g>
</g>
<!-- Node1&#45;&gt;Node7 -->
<g id="edge14" class="edge">
<title>Node1&#45;&gt;Node7</title>
<path fill="none" stroke="midnightblue" d="M501.78,-211.88C485.01,-215.8 466.21,-220.15 449,-224 380.65,-239.31 301.23,-256.2 252.55,-266.46"/>
<polygon fill="midnightblue" stroke="midnightblue" points="502.99,-215.2 511.93,-209.51 501.39,-208.38 502.99,-215.2"/>
</g>
<!-- Node8 -->
<g id="node8" class="node">
<title>Node8</title>
<g id="a_node8"><a xlink:href="../../de/d83/classGSDUtil.html#a78b796cb5093b0aa6f5d2573658fcca1" target="_top" xlink:title=" ">
<polygon fill="none" stroke="black" points="325.5,-152.5 325.5,-171.5 441.5,-171.5 441.5,-152.5 325.5,-152.5"/>
<text text-anchor="middle" x="383.5" y="-159.5" font-family="Helvetica,sans-Serif" font-size="10.00">GSDUtil::truncateGSD</text>
</a>
</g>
</g>
<!-- Node1&#45;&gt;Node8 -->
<g id="edge15" class="edge">
<title>Node1&#45;&gt;Node8</title>
<path fill="none" stroke="midnightblue" d="M499.88,-188.18C476.27,-182.82 448.72,-176.57 426.46,-171.52"/>
<polygon fill="midnightblue" stroke="midnightblue" points="499.21,-191.61 509.73,-190.41 500.75,-184.79 499.21,-191.61"/>
</g>
<!-- Node9 -->
<g id="node9" class="node">
<title>Node9</title>
<g id="a_node9"><a xlink:href="../../de/d83/classGSDUtil.html#ae76e4a23f0fe0bca3cd44137b56b816b" target="_top" xlink:title=" ">
<polygon fill="none" stroke="black" points="152,-57.5 152,-76.5 260,-76.5 260,-57.5 152,-57.5"/>
<text text-anchor="middle" x="206" y="-64.5" font-family="Helvetica,sans-Serif" font-size="10.00">GSDUtil::writeFrame</text>
</a>
</g>
</g>
<!-- Node1&#45;&gt;Node9 -->
<g id="edge16" class="edge">
<title>Node1&#45;&gt;Node9</title>
<path fill="none" stroke="midnightblue" d="M538.5,-182.31C520.62,-160.28 486.9,-123.32 449,-105 388.7,-75.84 310.99,-68.18 260.13,-66.6"/>
<polygon fill="midnightblue" stroke="midnightblue" points="535.8,-184.54 544.75,-190.21 541.29,-180.2 535.8,-184.54"/>
</g>
<!-- Node10 -->
<g id="node10" class="node">
<title>Node10</title>
<g id="a_node10"><a xlink:href="../../de/d83/classGSDUtil.html#a77b5ebe2817ac868ad1b171f3d7b0cae" target="_top" xlink:title=" ">
<polygon fill="none" stroke="black" points="327.5,-38.5 327.5,-57.5 439.5,-57.5 439.5,-38.5 327.5,-38.5"/>
<text text-anchor="middle" x="383.5" y="-45.5" font-family="Helvetica,sans-Serif" font-size="10.00">GSDUtil::writeHeader</text>
</a>
</g>
</g>
<!-- Node1&#45;&gt;Node10 -->
<g id="edge17" class="edge">
<title>Node1&#45;&gt;Node10</title>
<path fill="none" stroke="midnightblue" d="M541.39,-181.16C524.95,-153.56 490.83,-102.16 449,-72 440.57,-65.92 430.42,-61.2 420.69,-57.62"/>
<polygon fill="midnightblue" stroke="midnightblue" points="538.57,-183.28 546.62,-190.17 544.62,-179.76 538.57,-183.28"/>
</g>
<!-- Node11 -->
<g id="node11" class="node">
<title>Node11</title>
<g id="a_node11"><a xlink:href="../../de/d83/classGSDUtil.html#aa0dc50cd5e5534260375ad4962511cf0" target="_top" xlink:title=" ">
<polygon fill="none" stroke="black" points="318,-0.5 318,-19.5 449,-19.5 449,-0.5 318,-0.5"/>
<text text-anchor="middle" x="383.5" y="-7.5" font-family="Helvetica,sans-Serif" font-size="10.00">GSDUtil::writeParameters</text>
</a>
</g>
</g>
<!-- Node1&#45;&gt;Node11 -->
<g id="edge19" class="edge">
<title>Node1&#45;&gt;Node11</title>
<path fill="none" stroke="midnightblue" d="M545.63,-180.47C533.01,-144.91 501.45,-69.5 449,-29 444.01,-25.15 438.26,-22.07 432.28,-19.62"/>
<polygon fill="midnightblue" stroke="midnightblue" points="542.39,-181.82 548.94,-190.15 549.01,-179.55 542.39,-181.82"/>
</g>
<!-- Node12 -->
<g id="node12" class="node">
<title>Node12</title>
<g id="a_node12"><a xlink:href="../../de/d83/classGSDUtil.html#a9464315a26a5d5e2c51bb2b4df5ee373" target="_top" xlink:title=" ">
<polygon fill="none" stroke="black" points="324.5,-114.5 324.5,-133.5 442.5,-133.5 442.5,-114.5 324.5,-114.5"/>
<text text-anchor="middle" x="383.5" y="-121.5" font-family="Helvetica,sans-Serif" font-size="10.00">GSDUtil::writeParticles</text>
</a>
</g>
</g>
<!-- Node1&#45;&gt;Node12 -->
<g id="edge21" class="edge">
<title>Node1&#45;&gt;Node12</title>
<path fill="none" stroke="midnightblue" d="M528.56,-185.08C508.15,-172.57 477.45,-154.89 449,-143 440.49,-139.44 431.09,-136.27 422.16,-133.59"/>
<polygon fill="midnightblue" stroke="midnightblue" points="526.82,-188.12 537.17,-190.42 530.52,-182.18 526.82,-188.12"/>
</g>
<!-- Node3&#45;&gt;Node4 -->
<g id="edge3" class="edge">
<title>Node3&#45;&gt;Node4</title>
<path fill="none" stroke="midnightblue" d="M328.22,-264.25C303.41,-258.87 274.39,-252.59 250.97,-247.52"/>
<polygon fill="midnightblue" stroke="midnightblue" points="327.7,-267.72 338.21,-266.41 329.18,-260.87 327.7,-267.72"/>
</g>
<!-- Node3&#45;&gt;Node5 -->
<g id="edge5" class="edge">
<title>Node3&#45;&gt;Node5</title>
<path fill="none" stroke="midnightblue" d="M359.86,-291.18C340.05,-303.89 310.12,-321.7 282,-333 272.78,-336.71 262.62,-339.86 252.84,-342.46"/>
<polygon fill="midnightblue" stroke="midnightblue" points="362,-293.97 368.47,-285.58 358.18,-288.1 362,-293.97"/>
</g>
<!-- Node3&#45;&gt;Node6 -->
<g id="edge7" class="edge">
<title>Node3&#45;&gt;Node6</title>
<path fill="none" stroke="midnightblue" d="M328.22,-287.75C303.41,-293.13 274.39,-299.41 250.97,-304.48"/>
<polygon fill="midnightblue" stroke="midnightblue" points="329.18,-291.13 338.21,-285.59 327.7,-284.28 329.18,-291.13"/>
</g>
<!-- Node3&#45;&gt;Node7 -->
<g id="edge9" class="edge">
<title>Node3&#45;&gt;Node7</title>
<path fill="none" stroke="midnightblue" d="M319.76,-276C307.53,-276 294.59,-276 282,-276"/>
<polygon fill="midnightblue" stroke="midnightblue" points="319.84,-279.5 329.84,-276 319.84,-272.5 319.84,-279.5"/>
</g>
<!-- Node4&#45;&gt;Node2 -->
<g id="edge4" class="edge">
<title>Node4&#45;&gt;Node2</title>
<path fill="none" stroke="midnightblue" d="M146.78,-250.52C141.01,-252.42 135.32,-254.57 130,-257 102.24,-269.66 73.89,-291.85 58.88,-304.49"/>
<polygon fill="midnightblue" stroke="midnightblue" points="147.96,-253.82 156.51,-247.56 145.92,-247.12 147.96,-253.82"/>
</g>
<!-- Node5&#45;&gt;Node2 -->
<g id="edge6" class="edge">
<title>Node5&#45;&gt;Node2</title>
<path fill="none" stroke="midnightblue" d="M155.55,-340.03C133.55,-334.71 108.01,-328.52 87.33,-323.52"/>
<polygon fill="midnightblue" stroke="midnightblue" points="154.84,-343.46 165.38,-342.41 156.49,-336.66 154.84,-343.46"/>
</g>
<!-- Node6&#45;&gt;Node2 -->
<g id="edge8" class="edge">
<title>Node6&#45;&gt;Node2</title>
<path fill="none" stroke="midnightblue" d="M137.03,-314C122.59,-314 107.67,-314 94.27,-314"/>
<polygon fill="midnightblue" stroke="midnightblue" points="137.43,-317.5 147.43,-314 137.43,-310.5 137.43,-317.5"/>
</g>
<!-- Node7&#45;&gt;Node2 -->
<g id="edge10" class="edge">
<title>Node7&#45;&gt;Node2</title>
<path fill="none" stroke="midnightblue" d="M155.55,-287.97C133.55,-293.29 108.01,-299.48 87.33,-304.48"/>
<polygon fill="midnightblue" stroke="midnightblue" points="156.49,-291.34 165.38,-285.59 154.84,-284.54 156.49,-291.34"/>
</g>
<!-- Node10&#45;&gt;Node9 -->
<g id="edge18" class="edge">
<title>Node10&#45;&gt;Node9</title>
<path fill="none" stroke="midnightblue" d="M317.43,-55.04C298.53,-57.09 278.12,-59.3 260.05,-61.26"/>
<polygon fill="midnightblue" stroke="midnightblue" points="317.89,-58.52 327.45,-53.96 317.13,-51.56 317.89,-58.52"/>
</g>
<!-- Node11&#45;&gt;Node9 -->
<g id="edge20" class="edge">
<title>Node11&#45;&gt;Node9</title>
<path fill="none" stroke="midnightblue" d="M338.87,-22.57C331.87,-24.67 324.73,-26.86 318,-29 289.08,-38.21 256.22,-49.57 233.81,-57.46"/>
<polygon fill="midnightblue" stroke="midnightblue" points="340.35,-25.79 348.94,-19.59 338.36,-19.07 340.35,-25.79"/>
</g>
<!-- Node12&#45;&gt;Node9 -->
<g id="edge22" class="edge">
<title>Node12&#45;&gt;Node9</title>
<path fill="none" stroke="midnightblue" d="M343.53,-111.34C311.18,-100.84 265.86,-86.12 236.47,-76.57"/>
<polygon fill="midnightblue" stroke="midnightblue" points="342.53,-114.7 353.13,-114.46 344.7,-108.04 342.53,-114.7"/>
</g>
</g>
</svg>
