<?xml version="1.0" encoding="UTF-8" standalone="no"?>
<!DOCTYPE svg PUBLIC "-//W3C//DTD SVG 1.1//EN"
 "http://www.w3.org/Graphics/SVG/1.1/DTD/svg11.dtd">
<!-- Generated by graphviz version 2.49.1 (20210923.0004)
 -->
<!-- Title: GSDUtil::writeParticles Pages: 1 -->
<svg width="779pt" height="297pt"
 viewBox="0.00 0.00 779.00 297.09" xmlns="http://www.w3.org/2000/svg" xmlns:xlink="http://www.w3.org/1999/xlink">
<g id="graph0" class="graph" transform="scale(1 1) rotate(0) translate(4 293.09)">
<title>GSDUtil::writeParticles</title>
<!-- Node1 -->
<g id="node1" class="node">
<title>Node1</title>
<g id="a_node1"><a xlink:title=" ">
<polygon fill="#bfbfbf" stroke="black" points="0,-171.5 0,-190.5 118,-190.5 118,-171.5 0,-171.5"/>
<text text-anchor="middle" x="59" y="-178.5" font-family="Helvetica,sans-Serif" font-size="10.00">GSDUtil::writeParticles</text>
</a>
</g>
</g>
<!-- Node2 -->
<g id="node2" class="node">
<title>Node2</title>
<g id="a_node2"><a xlink:href="../../de/d83/classGSDUtil.html#a00a919382c11e9dd1fa7ae1a8788d4c0" target="_top" xlink:title=" ">
<polygon fill="none" stroke="black" points="154,-209.5 154,-228.5 290,-228.5 290,-209.5 154,-209.5"/>
<text text-anchor="middle" x="222" y="-216.5" font-family="Helvetica,sans-Serif" font-size="10.00">GSDUtil::checkGSDReturn</text>
</a>
</g>
</g>
<!-- Node1&#45;&gt;Node2 -->
<g id="edge1" class="edge">
<title>Node1&#45;&gt;Node2</title>
<path fill="none" stroke="midnightblue" d="M100.63,-190.59C121.97,-195.63 148.31,-201.84 170.91,-207.18"/>
<polygon fill="midnightblue" stroke="midnightblue" points="170.13,-210.59 180.67,-209.48 171.74,-203.78 170.13,-210.59"/>
</g>
<!-- Node3 -->
<g id="node3" class="node">
<title>Node3</title>
<g id="a_node3"><a xlink:href="../../dc/dcb/gsd_8c.html#a7479046d4d6e15c33cb24034ddd87562" target="_top" xlink:title=" ">
<polygon fill="none" stroke="black" points="175,-171.5 175,-190.5 269,-190.5 269,-171.5 175,-171.5"/>
<text text-anchor="middle" x="222" y="-178.5" font-family="Helvetica,sans-Serif" font-size="10.00">gsd_get_nframes</text>
</a>
</g>
</g>
<!-- Node1&#45;&gt;Node3 -->
<g id="edge2" class="edge">
<title>Node1&#45;&gt;Node3</title>
<path fill="none" stroke="midnightblue" d="M118.12,-181C133.27,-181 149.57,-181 164.63,-181"/>
<polygon fill="midnightblue" stroke="midnightblue" points="164.82,-184.5 174.82,-181 164.82,-177.5 164.82,-184.5"/>
</g>
<!-- Node4 -->
<g id="node4" class="node">
<title>Node4</title>
<g id="a_node4"><a xlink:href="../../dc/dcb/gsd_8c.html#ae22447904b925f284bf987fae448488a" target="_top" xlink:title=" ">
<polygon fill="none" stroke="black" points="176,-133.5 176,-152.5 268,-152.5 268,-133.5 176,-133.5"/>
<text text-anchor="middle" x="222" y="-140.5" font-family="Helvetica,sans-Serif" font-size="10.00">gsd_write_chunk</text>
</a>
</g>
</g>
<!-- Node1&#45;&gt;Node4 -->
<g id="edge3" class="edge">
<title>Node1&#45;&gt;Node4</title>
<path fill="none" stroke="midnightblue" d="M100.63,-171.41C121.97,-166.37 148.31,-160.16 170.91,-154.82"/>
<polygon fill="midnightblue" stroke="midnightblue" points="171.74,-158.22 180.67,-152.52 170.13,-151.41 171.74,-158.22"/>
</g>
<!-- Node5 -->
<g id="node5" class="node">
<title>Node5</title>
<g id="a_node5"><a xlink:href="../../dc/dcb/gsd_8c.html#aa1a0a7dcf4015edcadbb47a6451b4a4b" target="_top" xlink:title=" ">
<polygon fill="none" stroke="black" points="336.5,-190.5 336.5,-209.5 438.5,-209.5 438.5,-190.5 336.5,-190.5"/>
<text text-anchor="middle" x="387.5" y="-197.5" font-family="Helvetica,sans-Serif" font-size="10.00">gsd_append_name</text>
</a>
</g>
</g>
<!-- Node4&#45;&gt;Node5 -->
<g id="edge4" class="edge">
<title>Node4&#45;&gt;Node5</title>
<path fill="none" stroke="midnightblue" d="M259.02,-152.51C269.1,-155.36 280.03,-158.63 290,-162 293.23,-163.09 326.39,-176.18 352.95,-186.7"/>
<polygon fill="midnightblue" stroke="midnightblue" points="351.79,-190 362.37,-190.43 354.36,-183.49 351.79,-190"/>
</g>
<!-- Node6 -->
<g id="node6" class="node">
<title>Node6</title>
<g id="a_node6"><a xlink:href="../../dc/dcb/gsd_8c.html#a7a717f9dafe011e68434e181c76253af" target="_top" xlink:title=" ">
<polygon fill="none" stroke="black" points="487.5,-228.5 487.5,-247.5 614.5,-247.5 614.5,-228.5 487.5,-228.5"/>
<text text-anchor="middle" x="551" y="-235.5" font-family="Helvetica,sans-Serif" font-size="10.00">gsd_byte_buffer_append</text>
</a>
</g>
</g>
<!-- Node4&#45;&gt;Node6 -->
<g id="edge10" class="edge">
<title>Node4&#45;&gt;Node6</title>
<path fill="none" stroke="midnightblue" d="M268.02,-150.85C275.83,-153.54 283.51,-157.15 290,-162 314,-179.94 300.39,-203.44 326,-219 371.06,-246.38 430.93,-250.15 477.45,-247.61"/>
<polygon fill="midnightblue" stroke="midnightblue" points="477.71,-251.1 487.46,-246.96 477.25,-244.12 477.71,-251.1"/>
</g>
<!-- Node7 -->
<g id="node7" class="node">
<title>Node7</title>
<g id="a_node7"><a xlink:href="../../dc/dcb/gsd_8c.html#a9b05d58560daee2512f03bedf7b2926d" target="_top" xlink:title=" ">
<polygon fill="none" stroke="black" points="653,-228.5 653,-247.5 771,-247.5 771,-228.5 653,-228.5"/>
<text text-anchor="middle" x="712" y="-235.5" font-family="Helvetica,sans-Serif" font-size="10.00">gsd_util_zero_memory</text>
</a>
</g>
</g>
<!-- Node4&#45;&gt;Node7 -->
<g id="edge20" class="edge">
<title>Node4&#45;&gt;Node7</title>
<path fill="none" stroke="midnightblue" d="M268.01,-149.76C276,-152.55 283.75,-156.48 290,-162 320.76,-189.15 292.53,-223.28 326,-247 433.85,-323.42 604.73,-276.44 676.97,-251.08"/>
<polygon fill="midnightblue" stroke="midnightblue" points="678.27,-254.33 686.5,-247.66 675.9,-247.74 678.27,-254.33"/>
</g>
<!-- Node11 -->
<g id="node11" class="node">
<title>Node11</title>
<g id="a_node11"><a xlink:href="../../dc/dcb/gsd_8c.html#a61daeaa70162e9bac3d241832b460278" target="_top" xlink:title=" ">
<polygon fill="none" stroke="black" points="329,-114.5 329,-133.5 446,-133.5 446,-114.5 329,-114.5"/>
<text text-anchor="middle" x="387.5" y="-121.5" font-family="Helvetica,sans-Serif" font-size="10.00">gsd_flush_write_buffer</text>
</a>
</g>
</g>
<!-- Node4&#45;&gt;Node11 -->
<g id="edge11" class="edge">
<title>Node4&#45;&gt;Node11</title>
<path fill="none" stroke="midnightblue" d="M268.11,-137.76C283.83,-135.93 301.84,-133.84 318.98,-131.85"/>
<polygon fill="midnightblue" stroke="midnightblue" points="319.42,-135.32 328.95,-130.69 318.61,-128.37 319.42,-135.32"/>
</g>
<!-- Node12 -->
<g id="node12" class="node">
<title>Node12</title>
<g id="a_node12"><a xlink:href="../../dc/dcb/gsd_8c.html#a258b64725f90f60d969752d65fba9850" target="_top" xlink:title=" ">
<polygon fill="none" stroke="black" points="493.5,-114.5 493.5,-133.5 608.5,-133.5 608.5,-114.5 493.5,-114.5"/>
<text text-anchor="middle" x="551" y="-121.5" font-family="Helvetica,sans-Serif" font-size="10.00">gsd_index_buffer_add</text>
</a>
</g>
</g>
<!-- Node4&#45;&gt;Node12 -->
<g id="edge15" class="edge">
<title>Node4&#45;&gt;Node12</title>
<path fill="none" stroke="midnightblue" d="M268.14,-145.46C313.84,-147.37 386.49,-148.83 449,-143 465.32,-141.48 482.94,-138.6 498.82,-135.54"/>
<polygon fill="midnightblue" stroke="midnightblue" points="499.85,-138.9 508.97,-133.51 498.48,-132.04 499.85,-138.9"/>
</g>
<!-- Node13 -->
<g id="node13" class="node">
<title>Node13</title>
<g id="a_node13"><a xlink:href="../../dc/dcb/gsd_8c.html#a3fb7746d93a1c856ca7ef64fa3548cbe" target="_top" xlink:title=" ">
<polygon fill="none" stroke="black" points="499,-76.5 499,-95.5 603,-95.5 603,-76.5 499,-76.5"/>
<text text-anchor="middle" x="551" y="-83.5" font-family="Helvetica,sans-Serif" font-size="10.00">gsd_io_pwrite_retry</text>
</a>
</g>
</g>
<!-- Node4&#45;&gt;Node13 -->
<g id="edge16" class="edge">
<title>Node4&#45;&gt;Node13</title>
<path fill="none" stroke="midnightblue" d="M243.8,-133.43C264.26,-124.48 296.6,-111.54 326,-105 380.07,-92.96 443.05,-88.43 488.43,-86.79"/>
<polygon fill="midnightblue" stroke="midnightblue" points="488.82,-90.27 498.7,-86.45 488.59,-83.28 488.82,-90.27"/>
</g>
<!-- Node14 -->
<g id="node14" class="node">
<title>Node14</title>
<g id="a_node14"><a xlink:href="../../dc/dcb/gsd_8c.html#a31b9400272036b121040e9fc0a9e626b" target="_top" xlink:title=" ">
<polygon fill="none" stroke="black" points="326,-38.5 326,-57.5 449,-57.5 449,-38.5 326,-38.5"/>
<text text-anchor="middle" x="387.5" y="-45.5" font-family="Helvetica,sans-Serif" font-size="10.00">gsd_name_id_map_find</text>
</a>
</g>
</g>
<!-- Node4&#45;&gt;Node14 -->
<g id="edge17" class="edge">
<title>Node4&#45;&gt;Node14</title>
<path fill="none" stroke="midnightblue" d="M235.1,-133.3C253.78,-118.65 291.13,-90.62 326,-72 333.3,-68.1 341.37,-64.47 349.18,-61.27"/>
<polygon fill="midnightblue" stroke="midnightblue" points="350.48,-64.52 358.5,-57.59 347.91,-58.01 350.48,-64.52"/>
</g>
<!-- Node15 -->
<g id="node15" class="node">
<title>Node15</title>
<g id="a_node15"><a xlink:href="../../dc/dcb/gsd_8c.html#ab1d1a8a5f73b37df0c706f41df3bdd69" target="_top" xlink:title=" ">
<polygon fill="none" stroke="black" points="343,-0.5 343,-19.5 432,-19.5 432,-0.5 343,-0.5"/>
<text text-anchor="middle" x="387.5" y="-7.5" font-family="Helvetica,sans-Serif" font-size="10.00">gsd_sizeof_type</text>
</a>
</g>
</g>
<!-- Node4&#45;&gt;Node15 -->
<g id="edge19" class="edge">
<title>Node4&#45;&gt;Node15</title>
<path fill="none" stroke="midnightblue" d="M228.97,-133.48C243.11,-111.71 280.87,-57.94 326,-29 329.15,-26.98 332.53,-25.16 336.03,-23.53"/>
<polygon fill="midnightblue" stroke="midnightblue" points="337.57,-26.68 345.46,-19.61 334.88,-20.21 337.57,-26.68"/>
</g>
<!-- Node5&#45;&gt;Node6 -->
<g id="edge5" class="edge">
<title>Node5&#45;&gt;Node6</title>
<path fill="none" stroke="midnightblue" d="M429.25,-209.59C450.66,-214.63 477.09,-220.84 499.75,-226.18"/>
<polygon fill="midnightblue" stroke="midnightblue" points="499,-229.6 509.54,-228.48 500.61,-222.78 499,-229.6"/>
</g>
<!-- Node8 -->
<g id="node8" class="node">
<title>Node8</title>
<g id="a_node8"><a xlink:href="../../dc/dcb/gsd_8c.html#a493ef951956c9f98adff89a80ddb3fa6" target="_top" xlink:title=" ">
<polygon fill="none" stroke="black" points="501,-190.5 501,-209.5 601,-209.5 601,-190.5 501,-190.5"/>
<text text-anchor="middle" x="551" y="-197.5" font-family="Helvetica,sans-Serif" font-size="10.00">gsd_make_version</text>
</a>
</g>
</g>
<!-- Node5&#45;&gt;Node8 -->
<g id="edge7" class="edge">
<title>Node5&#45;&gt;Node8</title>
<path fill="none" stroke="midnightblue" d="M438.71,-200C455.12,-200 473.51,-200 490.53,-200"/>
<polygon fill="midnightblue" stroke="midnightblue" points="490.92,-203.5 500.92,-200 490.92,-196.5 490.92,-203.5"/>
</g>
<!-- Node9 -->
<g id="node9" class="node">
<title>Node9</title>
<g id="a_node9"><a xlink:href="../../dc/dcb/gsd_8c.html#a6c8c2e5a49ac4eb01a95be2e0df06eb9" target="_top" xlink:title=" ">
<polygon fill="none" stroke="black" points="485,-152.5 485,-171.5 617,-171.5 617,-152.5 485,-152.5"/>
<text text-anchor="middle" x="551" y="-159.5" font-family="Helvetica,sans-Serif" font-size="10.00">gsd_name_id_map_insert</text>
</a>
</g>
</g>
<!-- Node5&#45;&gt;Node9 -->
<g id="edge8" class="edge">
<title>Node5&#45;&gt;Node9</title>
<path fill="none" stroke="midnightblue" d="M429.25,-190.41C450.66,-185.37 477.09,-179.16 499.75,-173.82"/>
<polygon fill="midnightblue" stroke="midnightblue" points="500.61,-177.22 509.54,-171.52 499,-170.4 500.61,-177.22"/>
</g>
<!-- Node6&#45;&gt;Node7 -->
<g id="edge6" class="edge">
<title>Node6&#45;&gt;Node7</title>
<path fill="none" stroke="midnightblue" d="M614.84,-238C623.92,-238 633.31,-238 642.49,-238"/>
<polygon fill="midnightblue" stroke="midnightblue" points="642.75,-241.5 652.75,-238 642.75,-234.5 642.75,-241.5"/>
</g>
<!-- Node10 -->
<g id="node10" class="node">
<title>Node10</title>
<g id="a_node10"><a xlink:href="../../dc/dcb/gsd_8c.html#a6d8087323ec29c58d907b9462b4a31da" target="_top" xlink:title=" ">
<polygon fill="none" stroke="black" points="673.5,-95.5 673.5,-114.5 750.5,-114.5 750.5,-95.5 673.5,-95.5"/>
<text text-anchor="middle" x="712" y="-102.5" font-family="Helvetica,sans-Serif" font-size="10.00">gsd_hash_str</text>
</a>
</g>
</g>
<!-- Node9&#45;&gt;Node10 -->
<g id="edge9" class="edge">
<title>Node9&#45;&gt;Node10</title>
<path fill="none" stroke="midnightblue" d="M586.95,-152.48C596.74,-149.63 607.34,-146.36 617,-143 638.19,-135.64 661.57,-126.2 679.71,-118.56"/>
<polygon fill="midnightblue" stroke="midnightblue" points="681.37,-121.66 689.2,-114.53 678.63,-115.22 681.37,-121.66"/>
</g>
<!-- Node11&#45;&gt;Node12 -->
<g id="edge12" class="edge">
<title>Node11&#45;&gt;Node12</title>
<path fill="none" stroke="midnightblue" d="M446.35,-124C458.3,-124 470.98,-124 483.22,-124"/>
<polygon fill="midnightblue" stroke="midnightblue" points="483.37,-127.5 493.37,-124 483.37,-120.5 483.37,-127.5"/>
</g>
<!-- Node11&#45;&gt;Node13 -->
<g id="edge14" class="edge">
<title>Node11&#45;&gt;Node13</title>
<path fill="none" stroke="midnightblue" d="M429.25,-114.41C450.66,-109.37 477.09,-103.16 499.75,-97.82"/>
<polygon fill="midnightblue" stroke="midnightblue" points="500.61,-101.22 509.54,-95.52 499,-94.4 500.61,-101.22"/>
</g>
<!-- Node12&#45;&gt;Node7 -->
<g id="edge13" class="edge">
<title>Node12&#45;&gt;Node7</title>
<path fill="none" stroke="midnightblue" d="M595.94,-133.53C603.24,-136.03 610.54,-139.15 617,-143 651.01,-163.27 681.44,-198.72 697.96,-220.11"/>
<polygon fill="midnightblue" stroke="midnightblue" points="695.34,-222.46 704.15,-228.33 700.93,-218.24 695.34,-222.46"/>
</g>
<!-- Node14&#45;&gt;Node10 -->
<g id="edge18" class="edge">
<title>Node14&#45;&gt;Node10</title>
<path fill="none" stroke="midnightblue" d="M449.42,-48.11C495.91,-49.38 561.23,-53.73 617,-67 639.93,-72.46 664.6,-82.6 682.91,-91.04"/>
<polygon fill="midnightblue" stroke="midnightblue" points="681.58,-94.28 692.12,-95.39 684.57,-87.95 681.58,-94.28"/>
</g>
</g>
</svg>
