<?xml version="1.0" encoding="UTF-8" standalone="no"?>
<!DOCTYPE svg PUBLIC "-//W3C//DTD SVG 1.1//EN"
 "http://www.w3.org/Graphics/SVG/1.1/DTD/svg11.dtd">
<!-- Generated by graphviz version 2.49.1 (20210923.0004)
 -->
<!-- Title: csr_mat_norminf Pages: 1 -->
<svg width="277pt" height="46pt"
 viewBox="0.00 0.00 277.00 46.00" xmlns="http://www.w3.org/2000/svg" xmlns:xlink="http://www.w3.org/1999/xlink">
<g id="graph0" class="graph" transform="scale(1 1) rotate(0) translate(4 42)">
<title>csr_mat_norminf</title>
<!-- Node1 -->
<g id="node1" class="node">
<title>Node1</title>
<g id="a_node1"><a xlink:title=" ">
<polygon fill="#bfbfbf" stroke="black" points="0,-0.5 0,-19.5 91,-19.5 91,-0.5 0,-0.5"/>
<text text-anchor="middle" x="45.5" y="-7.5" font-family="Helvetica,sans-Serif" font-size="10.00">csr_mat_norminf</text>
</a>
</g>
</g>
<!-- Node2 -->
<g id="node2" class="node">
<title>Node2</title>
<g id="a_node2"><a xlink:href="../../d2/de2/helper__math_8h.html#aad6a2701675cd2a4bc1b1da7b79948ae" target="_top" xlink:title=" ">
<polygon fill="none" stroke="black" points="127,-0.5 127,-19.5 162,-19.5 162,-0.5 127,-0.5"/>
<text text-anchor="middle" x="144.5" y="-7.5" font-family="Helvetica,sans-Serif" font-size="10.00">fabs</text>
</a>
</g>
</g>
<!-- Node1&#45;&gt;Node2 -->
<g id="edge1" class="edge">
<title>Node1&#45;&gt;Node2</title>
<path fill="none" stroke="midnightblue" d="M91.03,-10C99.79,-10 108.73,-10 116.69,-10"/>
<polygon fill="midnightblue" stroke="midnightblue" points="116.83,-13.5 126.83,-10 116.83,-6.5 116.83,-13.5"/>
</g>
<!-- Node2&#45;&gt;Node2 -->
<g id="edge2" class="edge">
<title>Node2&#45;&gt;Node2</title>
<path fill="none" stroke="midnightblue" d="M130.94,-19.76C124.34,-28.57 128.86,-38 144.5,-38 154.28,-38 159.71,-34.31 160.8,-29.4"/>
<polygon fill="midnightblue" stroke="midnightblue" points="164.16,-28.42 158.06,-19.76 157.42,-30.33 164.16,-28.42"/>
</g>
<!-- Node3 -->
<g id="node3" class="node">
<title>Node3</title>
<g id="a_node3"><a xlink:href="../../d2/de2/helper__math_8h.html#ae157a97cf7d77e6a05db0e0d22b85fb7" target="_top" xlink:title=" ">
<polygon fill="none" stroke="black" points="198,-0.5 198,-19.5 269,-19.5 269,-0.5 198,-0.5"/>
<text text-anchor="middle" x="233.5" y="-7.5" font-family="Helvetica,sans-Serif" font-size="10.00">make_float2</text>
</a>
</g>
</g>
<!-- Node2&#45;&gt;Node3 -->
<g id="edge3" class="edge">
<title>Node2&#45;&gt;Node3</title>
<path fill="none" stroke="midnightblue" d="M162.27,-10C169.59,-10 178.56,-10 187.61,-10"/>
<polygon fill="midnightblue" stroke="midnightblue" points="187.77,-13.5 197.77,-10 187.77,-6.5 187.77,-13.5"/>
</g>
<!-- Node3&#45;&gt;Node3 -->
<g id="edge4" class="edge">
<title>Node3&#45;&gt;Node3</title>
<path fill="none" stroke="midnightblue" d="M219.94,-19.76C213.34,-28.57 217.86,-38 233.5,-38 243.28,-38 248.71,-34.31 249.8,-29.4"/>
<polygon fill="midnightblue" stroke="midnightblue" points="253.16,-28.42 247.06,-19.76 246.42,-30.33 253.16,-28.42"/>
</g>
</g>
</svg>
