<?xml version="1.0" encoding="UTF-8" standalone="no"?>
<!DOCTYPE svg PUBLIC "-//W3C//DTD SVG 1.1//EN"
 "http://www.w3.org/Graphics/SVG/1.1/DTD/svg11.dtd">
<!-- Generated by graphviz version 2.49.1 (20210923.0004)
 -->
<!-- Title: src/forces/potentialHydrodynamics.hpp Pages: 1 -->
<svg width="514pt" height="218pt"
 viewBox="0.00 0.00 513.50 218.00" xmlns="http://www.w3.org/2000/svg" xmlns:xlink="http://www.w3.org/1999/xlink">
<g id="graph0" class="graph" transform="scale(1 1) rotate(0) translate(4 214)">
<title>src/forces/potentialHydrodynamics.hpp</title>
<!-- Node1 -->
<g id="node1" class="node">
<title>Node1</title>
<g id="a_node1"><a xlink:title=" ">
<polygon fill="#bfbfbf" stroke="black" points="190.5,-190.5 190.5,-209.5 379.5,-209.5 379.5,-190.5 190.5,-190.5"/>
<text text-anchor="middle" x="285" y="-197.5" font-family="Helvetica,sans-Serif" font-size="10.00">src/forces/potentialHydrodynamics.hpp</text>
</a>
</g>
</g>
<!-- Node2 -->
<g id="node2" class="node">
<title>Node2</title>
<g id="a_node2"><a xlink:href="../../d1/d95/potentialHydrodynamics_8cpp.html" target="_top" xlink:title=" ">
<polygon fill="none" stroke="black" points="0,-134.5 0,-153.5 188,-153.5 188,-134.5 0,-134.5"/>
<text text-anchor="middle" x="94" y="-141.5" font-family="Helvetica,sans-Serif" font-size="10.00">src/forces/potentialHydrodynamics.cpp</text>
</a>
</g>
</g>
<!-- Node1&#45;&gt;Node2 -->
<g id="edge1" class="edge">
<title>Node1&#45;&gt;Node2</title>
<path fill="none" stroke="midnightblue" d="M245.03,-187.7C208.98,-177.51 156.76,-162.74 124.12,-153.52"/>
<polygon fill="midnightblue" stroke="midnightblue" points="244.16,-191.09 254.74,-190.44 246.06,-184.35 244.16,-191.09"/>
</g>
<!-- Node3 -->
<g id="node3" class="node">
<title>Node3</title>
<g id="a_node3"><a xlink:href="../../d3/d8e/rungeKutta4_8hpp.html" target="_top" xlink:title=" ">
<polygon fill="none" stroke="black" points="206.5,-134.5 206.5,-153.5 363.5,-153.5 363.5,-134.5 206.5,-134.5"/>
<text text-anchor="middle" x="285" y="-141.5" font-family="Helvetica,sans-Serif" font-size="10.00">src/integrators/rungeKutta4.hpp</text>
</a>
</g>
</g>
<!-- Node1&#45;&gt;Node3 -->
<g id="edge2" class="edge">
<title>Node1&#45;&gt;Node3</title>
<path fill="none" stroke="midnightblue" d="M285,-179.8C285,-170.91 285,-160.78 285,-153.75"/>
<polygon fill="midnightblue" stroke="midnightblue" points="281.5,-180.08 285,-190.08 288.5,-180.08 281.5,-180.08"/>
</g>
<!-- Node5 -->
<g id="node5" class="node">
<title>Node5</title>
<g id="a_node5"><a xlink:href="../../de/d46/engine_8hpp.html" target="_top" xlink:title=" ">
<polygon fill="none" stroke="black" points="334.5,-67.5 334.5,-97.5 449.5,-97.5 449.5,-67.5 334.5,-67.5"/>
<text text-anchor="start" x="342.5" y="-85.5" font-family="Helvetica,sans-Serif" font-size="10.00">src/simulation_system</text>
<text text-anchor="middle" x="392" y="-74.5" font-family="Helvetica,sans-Serif" font-size="10.00">/engine.hpp</text>
</a>
</g>
</g>
<!-- Node1&#45;&gt;Node5 -->
<g id="edge7" class="edge">
<title>Node1&#45;&gt;Node5</title>
<path fill="none" stroke="midnightblue" d="M324.43,-186.62C341.24,-179.52 359.77,-168.97 372,-154 385.28,-137.74 389.75,-113.15 391.25,-97.73"/>
<polygon fill="midnightblue" stroke="midnightblue" points="322.81,-183.5 314.78,-190.41 325.37,-190.01 322.81,-183.5"/>
</g>
<!-- Node4 -->
<g id="node4" class="node">
<title>Node4</title>
<g id="a_node4"><a xlink:href="../../da/dc5/rungeKutta4_8cpp.html" target="_top" xlink:title=" ">
<polygon fill="none" stroke="black" points="160,-73 160,-92 316,-92 316,-73 160,-73"/>
<text text-anchor="middle" x="238" y="-80" font-family="Helvetica,sans-Serif" font-size="10.00">src/integrators/rungeKutta4.cpp</text>
</a>
</g>
</g>
<!-- Node3&#45;&gt;Node4 -->
<g id="edge3" class="edge">
<title>Node3&#45;&gt;Node4</title>
<path fill="none" stroke="midnightblue" d="M271.84,-126.34C263.02,-115.17 251.77,-100.93 244.72,-92.01"/>
<polygon fill="midnightblue" stroke="midnightblue" points="269.32,-128.8 278.27,-134.48 274.81,-124.46 269.32,-128.8"/>
</g>
<!-- Node3&#45;&gt;Node5 -->
<g id="edge4" class="edge">
<title>Node3&#45;&gt;Node5</title>
<path fill="none" stroke="midnightblue" d="M309.2,-129.54C326.38,-119.99 349.38,-107.2 366.78,-97.52"/>
<polygon fill="midnightblue" stroke="midnightblue" points="307.37,-126.56 300.33,-134.48 310.77,-132.67 307.37,-126.56"/>
</g>
<!-- Node6 -->
<g id="node6" class="node">
<title>Node6</title>
<g id="a_node6"><a xlink:href="../../df/d0a/main_8cpp.html" target="_top" xlink:title=" ">
<polygon fill="none" stroke="black" points="299.5,-6 299.5,-25 372.5,-25 372.5,-6 299.5,-6"/>
<text text-anchor="middle" x="336" y="-13" font-family="Helvetica,sans-Serif" font-size="10.00">src/main.cpp</text>
</a>
</g>
</g>
<!-- Node5&#45;&gt;Node6 -->
<g id="edge5" class="edge">
<title>Node5&#45;&gt;Node6</title>
<path fill="none" stroke="midnightblue" d="M373.18,-59.66C363.02,-47.86 351.05,-33.97 343.49,-25.19"/>
<polygon fill="midnightblue" stroke="midnightblue" points="370.67,-62.1 379.85,-67.4 375.97,-57.54 370.67,-62.1"/>
</g>
<!-- Node7 -->
<g id="node7" class="node">
<title>Node7</title>
<g id="a_node7"><a xlink:href="../../da/d5c/engine_8cpp.html" target="_top" xlink:title=" ">
<polygon fill="none" stroke="black" points="390.5,-0.5 390.5,-30.5 505.5,-30.5 505.5,-0.5 390.5,-0.5"/>
<text text-anchor="start" x="398.5" y="-18.5" font-family="Helvetica,sans-Serif" font-size="10.00">src/simulation_system</text>
<text text-anchor="middle" x="448" y="-7.5" font-family="Helvetica,sans-Serif" font-size="10.00">/engine.cpp</text>
</a>
</g>
</g>
<!-- Node5&#45;&gt;Node7 -->
<g id="edge6" class="edge">
<title>Node5&#45;&gt;Node7</title>
<path fill="none" stroke="midnightblue" d="M410.75,-59.74C419.04,-50.12 428.54,-39.09 435.87,-30.58"/>
<polygon fill="midnightblue" stroke="midnightblue" points="408.03,-57.54 404.15,-67.4 413.33,-62.1 408.03,-57.54"/>
</g>
</g>
</svg>
