<?xml version="1.0" encoding="UTF-8" standalone="no"?>
<!DOCTYPE svg PUBLIC "-//W3C//DTD SVG 1.1//EN"
 "http://www.w3.org/Graphics/SVG/1.1/DTD/svg11.dtd">
<!-- Generated by graphviz version 2.49.1 (20210923.0004)
 -->
<!-- Title: src/helpers/cuda/helper_cuda.h Pages: 1 -->
<svg width="416pt" height="151pt"
 viewBox="0.00 0.00 415.50 151.00" xmlns="http://www.w3.org/2000/svg" xmlns:xlink="http://www.w3.org/1999/xlink">
<g id="graph0" class="graph" transform="scale(1 1) rotate(0) translate(4 147)">
<title>src/helpers/cuda/helper_cuda.h</title>
<!-- Node1 -->
<g id="node1" class="node">
<title>Node1</title>
<g id="a_node1"><a xlink:title=" ">
<polygon fill="#bfbfbf" stroke="black" points="55.5,-112.5 55.5,-142.5 175.5,-142.5 175.5,-112.5 55.5,-112.5"/>
<text text-anchor="start" x="63.5" y="-130.5" font-family="Helvetica,sans-Serif" font-size="10.00">src/helpers/cuda/helper</text>
<text text-anchor="middle" x="115.5" y="-119.5" font-family="Helvetica,sans-Serif" font-size="10.00">_cuda.h</text>
</a>
</g>
</g>
<!-- Node2 -->
<g id="node2" class="node">
<title>Node2</title>
<g id="a_node2"><a xlink:title=" ">
<polygon fill="none" stroke="#bfbfbf" points="0,-56.5 0,-75.5 49,-75.5 49,-56.5 0,-56.5"/>
<text text-anchor="middle" x="24.5" y="-63.5" font-family="Helvetica,sans-Serif" font-size="10.00">stdint.h</text>
</a>
</g>
</g>
<!-- Node1&#45;&gt;Node2 -->
<g id="edge1" class="edge">
<title>Node1&#45;&gt;Node2</title>
<path fill="none" stroke="midnightblue" d="M93.93,-112.4C79.62,-103.04 60.89,-90.79 46.49,-81.38"/>
<polygon fill="midnightblue" stroke="midnightblue" points="48.03,-78.2 37.74,-75.66 44.2,-84.06 48.03,-78.2"/>
</g>
<!-- Node3 -->
<g id="node3" class="node">
<title>Node3</title>
<g id="a_node3"><a xlink:title=" ">
<polygon fill="none" stroke="#bfbfbf" points="27.5,-0.5 27.5,-19.5 73.5,-19.5 73.5,-0.5 27.5,-0.5"/>
<text text-anchor="middle" x="50.5" y="-7.5" font-family="Helvetica,sans-Serif" font-size="10.00">stdio.h</text>
</a>
</g>
</g>
<!-- Node1&#45;&gt;Node3 -->
<g id="edge2" class="edge">
<title>Node1&#45;&gt;Node3</title>
<path fill="none" stroke="midnightblue" d="M107.53,-112.34C95.66,-91.24 73.35,-51.6 60.43,-28.65"/>
<polygon fill="midnightblue" stroke="midnightblue" points="63.33,-26.67 55.38,-19.67 57.23,-30.1 63.33,-26.67"/>
</g>
<!-- Node4 -->
<g id="node4" class="node">
<title>Node4</title>
<g id="a_node4"><a xlink:title=" ">
<polygon fill="none" stroke="#bfbfbf" points="91.5,-0.5 91.5,-19.5 139.5,-19.5 139.5,-0.5 91.5,-0.5"/>
<text text-anchor="middle" x="115.5" y="-7.5" font-family="Helvetica,sans-Serif" font-size="10.00">stdlib.h</text>
</a>
</g>
</g>
<!-- Node1&#45;&gt;Node4 -->
<g id="edge3" class="edge">
<title>Node1&#45;&gt;Node4</title>
<path fill="none" stroke="midnightblue" d="M115.5,-112.34C115.5,-91.62 115.5,-53.02 115.5,-29.9"/>
<polygon fill="midnightblue" stroke="midnightblue" points="119,-29.67 115.5,-19.67 112,-29.67 119,-29.67"/>
</g>
<!-- Node5 -->
<g id="node5" class="node">
<title>Node5</title>
<g id="a_node5"><a xlink:title=" ">
<polygon fill="none" stroke="#bfbfbf" points="158,-0.5 158,-19.5 207,-19.5 207,-0.5 158,-0.5"/>
<text text-anchor="middle" x="182.5" y="-7.5" font-family="Helvetica,sans-Serif" font-size="10.00">string.h</text>
</a>
</g>
</g>
<!-- Node1&#45;&gt;Node5 -->
<g id="edge4" class="edge">
<title>Node1&#45;&gt;Node5</title>
<path fill="none" stroke="midnightblue" d="M123.72,-112.34C136.01,-91.15 159.15,-51.24 172.44,-28.34"/>
<polygon fill="midnightblue" stroke="midnightblue" points="175.48,-30.08 177.47,-19.67 169.43,-26.56 175.48,-30.08"/>
</g>
<!-- Node6 -->
<g id="node6" class="node">
<title>Node6</title>
<g id="a_node6"><a xlink:href="../../d9/d0c/helper__string_8h.html" target="_top" xlink:title=" ">
<polygon fill="none" stroke="black" points="182,-56.5 182,-75.5 265,-75.5 265,-56.5 182,-56.5"/>
<text text-anchor="middle" x="223.5" y="-63.5" font-family="Helvetica,sans-Serif" font-size="10.00">helper_string.h</text>
</a>
</g>
</g>
<!-- Node1&#45;&gt;Node6 -->
<g id="edge5" class="edge">
<title>Node1&#45;&gt;Node6</title>
<path fill="none" stroke="midnightblue" d="M141.09,-112.4C158.57,-102.77 181.59,-90.09 198.86,-80.58"/>
<polygon fill="midnightblue" stroke="midnightblue" points="200.72,-83.55 207.79,-75.66 197.34,-77.42 200.72,-83.55"/>
</g>
<!-- Node6&#45;&gt;Node3 -->
<g id="edge6" class="edge">
<title>Node6&#45;&gt;Node3</title>
<path fill="none" stroke="midnightblue" d="M196.09,-56.44C165.44,-46.88 115.82,-31.39 83.18,-21.2"/>
<polygon fill="midnightblue" stroke="midnightblue" points="84.22,-17.86 73.63,-18.22 82.13,-24.54 84.22,-17.86"/>
</g>
<!-- Node6&#45;&gt;Node4 -->
<g id="edge7" class="edge">
<title>Node6&#45;&gt;Node4</title>
<path fill="none" stroke="midnightblue" d="M206.15,-56.32C188.83,-47.66 161.98,-34.24 142,-24.25"/>
<polygon fill="midnightblue" stroke="midnightblue" points="143.32,-21 132.81,-19.65 140.19,-27.26 143.32,-21"/>
</g>
<!-- Node6&#45;&gt;Node5 -->
<g id="edge10" class="edge">
<title>Node6&#45;&gt;Node5</title>
<path fill="none" stroke="midnightblue" d="M216.73,-56.08C210.94,-48.46 202.44,-37.26 195.36,-27.94"/>
<polygon fill="midnightblue" stroke="midnightblue" points="197.98,-25.6 189.14,-19.75 192.4,-29.83 197.98,-25.6"/>
</g>
<!-- Node7 -->
<g id="node7" class="node">
<title>Node7</title>
<g id="a_node7"><a xlink:title=" ">
<polygon fill="none" stroke="#bfbfbf" points="225.5,-0.5 225.5,-19.5 275.5,-19.5 275.5,-0.5 225.5,-0.5"/>
<text text-anchor="middle" x="250.5" y="-7.5" font-family="Helvetica,sans-Serif" font-size="10.00">fstream</text>
</a>
</g>
</g>
<!-- Node6&#45;&gt;Node7 -->
<g id="edge8" class="edge">
<title>Node6&#45;&gt;Node7</title>
<path fill="none" stroke="midnightblue" d="M227.96,-56.08C231.65,-48.69 237.02,-37.95 241.59,-28.81"/>
<polygon fill="midnightblue" stroke="midnightblue" points="244.78,-30.26 246.12,-19.75 238.52,-27.13 244.78,-30.26"/>
</g>
<!-- Node8 -->
<g id="node8" class="node">
<title>Node8</title>
<g id="a_node8"><a xlink:title=" ">
<polygon fill="none" stroke="#bfbfbf" points="294,-0.5 294,-19.5 335,-19.5 335,-0.5 294,-0.5"/>
<text text-anchor="middle" x="314.5" y="-7.5" font-family="Helvetica,sans-Serif" font-size="10.00">string</text>
</a>
</g>
</g>
<!-- Node6&#45;&gt;Node8 -->
<g id="edge9" class="edge">
<title>Node6&#45;&gt;Node8</title>
<path fill="none" stroke="midnightblue" d="M238.12,-56.32C252.45,-47.82 274.51,-34.73 291.25,-24.8"/>
<polygon fill="midnightblue" stroke="midnightblue" points="293.1,-27.77 299.92,-19.65 289.53,-21.75 293.1,-27.77"/>
</g>
<!-- Node9 -->
<g id="node9" class="node">
<title>Node9</title>
<g id="a_node9"><a xlink:title=" ">
<polygon fill="none" stroke="#bfbfbf" points="353.5,-0.5 353.5,-19.5 407.5,-19.5 407.5,-0.5 353.5,-0.5"/>
<text text-anchor="middle" x="380.5" y="-7.5" font-family="Helvetica,sans-Serif" font-size="10.00">strings.h</text>
</a>
</g>
</g>
<!-- Node6&#45;&gt;Node9 -->
<g id="edge11" class="edge">
<title>Node6&#45;&gt;Node9</title>
<path fill="none" stroke="midnightblue" d="M248.38,-56.44C274.79,-47.36 316.72,-32.94 346.24,-22.78"/>
<polygon fill="midnightblue" stroke="midnightblue" points="347.42,-26.08 355.74,-19.52 345.14,-19.46 347.42,-26.08"/>
</g>
</g>
</svg>
