<?xml version="1.0" encoding="UTF-8" standalone="no"?>
<!DOCTYPE svg PUBLIC "-//W3C//DTD SVG 1.1//EN"
 "http://www.w3.org/Graphics/SVG/1.1/DTD/svg11.dtd">
<!-- Generated by graphviz version 2.49.1 (20210923.0004)
 -->
<!-- Title: src/simulation_system/systemData.hpp Pages: 1 -->
<svg width="762pt" height="296pt"
 viewBox="0.00 0.00 761.50 296.00" xmlns="http://www.w3.org/2000/svg" xmlns:xlink="http://www.w3.org/1999/xlink">
<g id="graph0" class="graph" transform="scale(1 1) rotate(0) translate(4 292)">
<title>src/simulation_system/systemData.hpp</title>
<!-- Node1 -->
<g id="node1" class="node">
<title>Node1</title>
<g id="a_node1"><a xlink:title=" ">
<polygon fill="#bfbfbf" stroke="black" points="322.5,-257.5 322.5,-287.5 437.5,-287.5 437.5,-257.5 322.5,-257.5"/>
<text text-anchor="start" x="330.5" y="-275.5" font-family="Helvetica,sans-Serif" font-size="10.00">src/simulation_system</text>
<text text-anchor="middle" x="380" y="-264.5" font-family="Helvetica,sans-Serif" font-size="10.00">/systemData.hpp</text>
</a>
</g>
</g>
<!-- Node2 -->
<g id="node2" class="node">
<title>Node2</title>
<g id="a_node2"><a xlink:href="../../d3/d77/GSDUtil_8hpp.html" target="_top" xlink:title=" ">
<polygon fill="none" stroke="black" points="0,-196 0,-215 124,-215 124,-196 0,-196"/>
<text text-anchor="middle" x="62" y="-203" font-family="Helvetica,sans-Serif" font-size="10.00">src/data_io/GSDUtil.hpp</text>
</a>
</g>
</g>
<!-- Node1&#45;&gt;Node2 -->
<g id="edge1" class="edge">
<title>Node1&#45;&gt;Node2</title>
<path fill="none" stroke="midnightblue" d="M312.15,-258.75C247.09,-245.84 151.39,-226.23 99.17,-215.07"/>
<polygon fill="midnightblue" stroke="midnightblue" points="311.83,-262.26 322.32,-260.77 313.19,-255.39 311.83,-262.26"/>
</g>
<!-- Node4 -->
<g id="node4" class="node">
<title>Node4</title>
<g id="a_node4"><a xlink:href="../../dc/dbe/potentialHydrodynamics_8hpp.html" target="_top" xlink:title=" ">
<polygon fill="none" stroke="black" points="285.5,-196 285.5,-215 474.5,-215 474.5,-196 285.5,-196"/>
<text text-anchor="middle" x="380" y="-203" font-family="Helvetica,sans-Serif" font-size="10.00">src/forces/potentialHydrodynamics.hpp</text>
</a>
</g>
</g>
<!-- Node1&#45;&gt;Node4 -->
<g id="edge4" class="edge">
<title>Node1&#45;&gt;Node4</title>
<path fill="none" stroke="midnightblue" d="M380,-247.25C380,-236.02 380,-223.38 380,-215.19"/>
<polygon fill="midnightblue" stroke="midnightblue" points="376.5,-247.4 380,-257.4 383.5,-247.4 376.5,-247.4"/>
</g>
<!-- Node6 -->
<g id="node6" class="node">
<title>Node6</title>
<g id="a_node6"><a xlink:href="../../d3/d8e/rungeKutta4_8hpp.html" target="_top" xlink:title=" ">
<polygon fill="none" stroke="black" points="424.5,-134.5 424.5,-153.5 581.5,-153.5 581.5,-134.5 424.5,-134.5"/>
<text text-anchor="middle" x="503" y="-141.5" font-family="Helvetica,sans-Serif" font-size="10.00">src/integrators/rungeKutta4.hpp</text>
</a>
</g>
</g>
<!-- Node1&#45;&gt;Node6 -->
<g id="edge12" class="edge">
<title>Node1&#45;&gt;Node6</title>
<path fill="none" stroke="midnightblue" d="M439.05,-253.52C455.67,-245.88 472.37,-235.33 484,-221 500.29,-200.94 502.86,-168.79 503.11,-153.55"/>
<polygon fill="midnightblue" stroke="midnightblue" points="437.66,-250.31 429.85,-257.47 440.42,-256.74 437.66,-250.31"/>
</g>
<!-- Node8 -->
<g id="node8" class="node">
<title>Node8</title>
<g id="a_node8"><a xlink:href="../../de/d46/engine_8hpp.html" target="_top" xlink:title=" ">
<polygon fill="none" stroke="black" points="292.5,-67.5 292.5,-97.5 407.5,-97.5 407.5,-67.5 292.5,-67.5"/>
<text text-anchor="start" x="300.5" y="-85.5" font-family="Helvetica,sans-Serif" font-size="10.00">src/simulation_system</text>
<text text-anchor="middle" x="350" y="-74.5" font-family="Helvetica,sans-Serif" font-size="10.00">/engine.hpp</text>
</a>
</g>
</g>
<!-- Node1&#45;&gt;Node8 -->
<g id="edge14" class="edge">
<title>Node1&#45;&gt;Node8</title>
<path fill="none" stroke="midnightblue" d="M312.94,-254.31C263.58,-237.67 200.19,-206.98 171,-154 143.8,-104.63 230.24,-89.72 292.32,-85.28"/>
<polygon fill="midnightblue" stroke="midnightblue" points="312.02,-257.69 322.61,-257.45 314.18,-251.03 312.02,-257.69"/>
</g>
<!-- Node9 -->
<g id="node9" class="node">
<title>Node9</title>
<g id="a_node9"><a xlink:href="../../df/d0a/main_8cpp.html" target="_top" xlink:title=" ">
<polygon fill="none" stroke="black" points="499.5,-6 499.5,-25 572.5,-25 572.5,-6 499.5,-6"/>
<text text-anchor="middle" x="536" y="-13" font-family="Helvetica,sans-Serif" font-size="10.00">src/main.cpp</text>
</a>
</g>
</g>
<!-- Node1&#45;&gt;Node9 -->
<g id="edge13" class="edge">
<title>Node1&#45;&gt;Node9</title>
<path fill="none" stroke="midnightblue" d="M447.44,-255.86C498.36,-239.91 563.94,-209.39 591,-154 607.97,-119.26 606.56,-102.4 591,-67 582.86,-48.49 564.22,-33.78 550.9,-25.12"/>
<polygon fill="midnightblue" stroke="midnightblue" points="446.36,-252.53 437.79,-258.77 448.38,-259.24 446.36,-252.53"/>
</g>
<!-- Node11 -->
<g id="node11" class="node">
<title>Node11</title>
<g id="a_node11"><a xlink:href="../../d1/d4a/systemData_8cpp.html" target="_top" xlink:title=" ">
<polygon fill="none" stroke="black" points="638.5,-190.5 638.5,-220.5 753.5,-220.5 753.5,-190.5 638.5,-190.5"/>
<text text-anchor="start" x="646.5" y="-208.5" font-family="Helvetica,sans-Serif" font-size="10.00">src/simulation_system</text>
<text text-anchor="middle" x="696" y="-197.5" font-family="Helvetica,sans-Serif" font-size="10.00">/systemData.cpp</text>
</a>
</g>
</g>
<!-- Node1&#45;&gt;Node11 -->
<g id="edge15" class="edge">
<title>Node1&#45;&gt;Node11</title>
<path fill="none" stroke="midnightblue" d="M447.55,-257.61C504.28,-245.94 584.49,-229.44 638.27,-218.37"/>
<polygon fill="midnightblue" stroke="midnightblue" points="446.68,-254.21 437.59,-259.65 448.09,-261.07 446.68,-254.21"/>
</g>
<!-- Node2&#45;&gt;Node1 -->
<g id="edge3" class="edge">
<title>Node2&#45;&gt;Node1</title>
<path fill="none" stroke="midnightblue" d="M118.55,-217.01C176.02,-228.34 264.44,-246.39 322.31,-258.58"/>
<polygon fill="midnightblue" stroke="midnightblue" points="119.04,-213.54 108.55,-215.05 117.69,-220.41 119.04,-213.54"/>
</g>
<!-- Node3 -->
<g id="node3" class="node">
<title>Node3</title>
<g id="a_node3"><a xlink:href="../../dc/df3/GSDUtil_8cpp.html" target="_top" xlink:title=" ">
<polygon fill="none" stroke="black" points="0.5,-134.5 0.5,-153.5 123.5,-153.5 123.5,-134.5 0.5,-134.5"/>
<text text-anchor="middle" x="62" y="-141.5" font-family="Helvetica,sans-Serif" font-size="10.00">src/data_io/GSDUtil.cpp</text>
</a>
</g>
</g>
<!-- Node2&#45;&gt;Node3 -->
<g id="edge2" class="edge">
<title>Node2&#45;&gt;Node3</title>
<path fill="none" stroke="midnightblue" d="M62,-185.82C62,-175 62,-161.9 62,-153.51"/>
<polygon fill="midnightblue" stroke="midnightblue" points="58.5,-185.98 62,-195.98 65.5,-185.98 58.5,-185.98"/>
</g>
<!-- Node5 -->
<g id="node5" class="node">
<title>Node5</title>
<g id="a_node5"><a xlink:href="../../d1/d95/potentialHydrodynamics_8cpp.html" target="_top" xlink:title=" ">
<polygon fill="none" stroke="black" points="180,-134.5 180,-153.5 368,-153.5 368,-134.5 180,-134.5"/>
<text text-anchor="middle" x="274" y="-141.5" font-family="Helvetica,sans-Serif" font-size="10.00">src/forces/potentialHydrodynamics.cpp</text>
</a>
</g>
</g>
<!-- Node4&#45;&gt;Node5 -->
<g id="edge5" class="edge">
<title>Node4&#45;&gt;Node5</title>
<path fill="none" stroke="midnightblue" d="M356.05,-191.06C335.54,-179.54 306.62,-163.31 289.16,-153.51"/>
<polygon fill="midnightblue" stroke="midnightblue" points="354.38,-194.13 364.81,-195.98 357.81,-188.03 354.38,-194.13"/>
</g>
<!-- Node4&#45;&gt;Node6 -->
<g id="edge6" class="edge">
<title>Node4&#45;&gt;Node6</title>
<path fill="none" stroke="midnightblue" d="M406.83,-191.52C430.69,-179.98 464.87,-163.44 485.41,-153.51"/>
<polygon fill="midnightblue" stroke="midnightblue" points="405.1,-188.47 397.62,-195.98 408.15,-194.77 405.1,-188.47"/>
</g>
<!-- Node4&#45;&gt;Node8 -->
<g id="edge11" class="edge">
<title>Node4&#45;&gt;Node8</title>
<path fill="none" stroke="midnightblue" d="M381.45,-185.48C382.02,-171.09 381.64,-150.97 377,-134 373.44,-120.96 366.04,-107.52 359.89,-97.79"/>
<polygon fill="midnightblue" stroke="midnightblue" points="377.95,-185.44 380.87,-195.62 384.94,-185.84 377.95,-185.44"/>
</g>
<!-- Node7 -->
<g id="node7" class="node">
<title>Node7</title>
<g id="a_node7"><a xlink:href="../../da/dc5/rungeKutta4_8cpp.html" target="_top" xlink:title=" ">
<polygon fill="none" stroke="black" points="426,-73 426,-92 582,-92 582,-73 426,-73"/>
<text text-anchor="middle" x="504" y="-80" font-family="Helvetica,sans-Serif" font-size="10.00">src/integrators/rungeKutta4.cpp</text>
</a>
</g>
</g>
<!-- Node6&#45;&gt;Node7 -->
<g id="edge7" class="edge">
<title>Node6&#45;&gt;Node7</title>
<path fill="none" stroke="midnightblue" d="M503.31,-124.32C503.5,-113.5 503.72,-100.4 503.86,-92.01"/>
<polygon fill="midnightblue" stroke="midnightblue" points="499.81,-124.42 503.14,-134.48 506.81,-124.54 499.81,-124.42"/>
</g>
<!-- Node6&#45;&gt;Node8 -->
<g id="edge8" class="edge">
<title>Node6&#45;&gt;Node8</title>
<path fill="none" stroke="midnightblue" d="M471.75,-130.85C446.9,-121.18 412.09,-107.65 386.06,-97.52"/>
<polygon fill="midnightblue" stroke="midnightblue" points="470.49,-134.11 481.08,-134.48 473.03,-127.59 470.49,-134.11"/>
</g>
<!-- Node8&#45;&gt;Node9 -->
<g id="edge9" class="edge">
<title>Node8&#45;&gt;Node9</title>
<path fill="none" stroke="midnightblue" d="M400.23,-63.95C436.36,-51.32 483.49,-34.85 511.66,-25.01"/>
<polygon fill="midnightblue" stroke="midnightblue" points="398.64,-60.79 390.36,-67.4 400.95,-67.4 398.64,-60.79"/>
</g>
<!-- Node10 -->
<g id="node10" class="node">
<title>Node10</title>
<g id="a_node10"><a xlink:href="../../da/d5c/engine_8cpp.html" target="_top" xlink:title=" ">
<polygon fill="none" stroke="black" points="292.5,-0.5 292.5,-30.5 407.5,-30.5 407.5,-0.5 292.5,-0.5"/>
<text text-anchor="start" x="300.5" y="-18.5" font-family="Helvetica,sans-Serif" font-size="10.00">src/simulation_system</text>
<text text-anchor="middle" x="350" y="-7.5" font-family="Helvetica,sans-Serif" font-size="10.00">/engine.cpp</text>
</a>
</g>
</g>
<!-- Node8&#45;&gt;Node10 -->
<g id="edge10" class="edge">
<title>Node8&#45;&gt;Node10</title>
<path fill="none" stroke="midnightblue" d="M350,-57.11C350,-48.15 350,-38.32 350,-30.58"/>
<polygon fill="midnightblue" stroke="midnightblue" points="346.5,-57.4 350,-67.4 353.5,-57.4 346.5,-57.4"/>
</g>
</g>
</svg>
