<?xml version="1.0" encoding="UTF-8" standalone="no"?>
<!DOCTYPE svg PUBLIC "-//W3C//DTD SVG 1.1//EN"
 "http://www.w3.org/Graphics/SVG/1.1/DTD/svg11.dtd">
<!-- Generated by graphviz version 2.49.1 (20210923.0004)
 -->
<!-- Title: engine Pages: 1 -->
<svg width="121pt" height="365pt"
 viewBox="0.00 0.00 120.50 365.00" xmlns="http://www.w3.org/2000/svg" xmlns:xlink="http://www.w3.org/1999/xlink">
<g id="graph0" class="graph" transform="scale(1 1) rotate(0) translate(4 361)">
<title>engine</title>
<!-- Node1 -->
<g id="node1" class="node">
<title>Node1</title>
<g id="a_node1"><a xlink:title=" ">
<polygon fill="#bfbfbf" stroke="black" points="0,-0.5 0,-134.5 109,-134.5 109,-0.5 0,-0.5"/>
<text text-anchor="middle" x="54.5" y="-122.5" font-family="Helvetica,sans-Serif" font-size="10.00">engine</text>
<polyline fill="none" stroke="black" points="0,-115.5 109,-115.5 "/>
<text text-anchor="start" x="8" y="-103.5" font-family="Helvetica,sans-Serif" font-size="10.00">&#45; m_system</text>
<text text-anchor="start" x="8" y="-92.5" font-family="Helvetica,sans-Serif" font-size="10.00">&#45; m_potHydro</text>
<text text-anchor="start" x="8" y="-81.5" font-family="Helvetica,sans-Serif" font-size="10.00">&#45; m_rk4Integrator</text>
<text text-anchor="start" x="8" y="-70.5" font-family="Helvetica,sans-Serif" font-size="10.00">&#45; m_progressBar</text>
<text text-anchor="start" x="8" y="-59.5" font-family="Helvetica,sans-Serif" font-size="10.00">&#45; m_outputPercentile</text>
<polyline fill="none" stroke="black" points="0,-52.5 109,-52.5 "/>
<text text-anchor="start" x="8" y="-40.5" font-family="Helvetica,sans-Serif" font-size="10.00">+ engine()</text>
<text text-anchor="start" x="8" y="-29.5" font-family="Helvetica,sans-Serif" font-size="10.00">+ ~engine()</text>
<text text-anchor="start" x="8" y="-18.5" font-family="Helvetica,sans-Serif" font-size="10.00">+ run()</text>
<text text-anchor="start" x="8" y="-7.5" font-family="Helvetica,sans-Serif" font-size="10.00">&#45; integrate()</text>
</a>
</g>
</g>
<!-- Node2 -->
<g id="node2" class="node">
<title>Node2</title>
<g id="a_node2"><a xlink:title=" ">
<polygon fill="none" stroke="#bfbfbf" points="24.5,-193.5 24.5,-250.5 84.5,-250.5 84.5,-193.5 24.5,-193.5"/>
<text text-anchor="middle" x="54.5" y="-238.5" font-family="Helvetica,sans-Serif" font-size="10.00">std::string</text>
<polyline fill="none" stroke="#bfbfbf" points="24.5,-231.5 84.5,-231.5 "/>
<text text-anchor="middle" x="54.5" y="-219.5" font-family="Helvetica,sans-Serif" font-size="10.00"> </text>
<polyline fill="none" stroke="#bfbfbf" points="24.5,-212.5 84.5,-212.5 "/>
<text text-anchor="middle" x="54.5" y="-200.5" font-family="Helvetica,sans-Serif" font-size="10.00"> </text>
</a>
</g>
</g>
<!-- Node2&#45;&gt;Node1 -->
<g id="edge1" class="edge">
<title>Node2&#45;&gt;Node1</title>
<path fill="none" stroke="#404040" d="M54.5,-193.38C54.5,-180.12 54.5,-163.49 54.5,-146.74"/>
<polygon fill="none" stroke="#404040" points="54.5,-146.56 50.5,-140.56 54.5,-134.56 58.5,-140.56 54.5,-146.56"/>
<text text-anchor="middle" x="83.5" y="-167" font-family="Helvetica,sans-Serif" font-size="10.00"> &#45;m_logFile</text>
<text text-anchor="middle" x="83.5" y="-156" font-family="Helvetica,sans-Serif" font-size="10.00">&#45;m_logName</text>
</g>
<!-- Node3 -->
<g id="node3" class="node">
<title>Node3</title>
<g id="a_node3"><a xlink:title=" ">
<polygon fill="none" stroke="#bfbfbf" points="7,-288.5 7,-356.5 102,-356.5 102,-288.5 7,-288.5"/>
<text text-anchor="start" x="15" y="-344.5" font-family="Helvetica,sans-Serif" font-size="10.00">std::basic_string&lt;</text>
<text text-anchor="middle" x="54.5" y="-333.5" font-family="Helvetica,sans-Serif" font-size="10.00"> Char &gt;</text>
<polyline fill="none" stroke="#bfbfbf" points="7,-326.5 102,-326.5 "/>
<text text-anchor="middle" x="54.5" y="-314.5" font-family="Helvetica,sans-Serif" font-size="10.00"> </text>
<polyline fill="none" stroke="#bfbfbf" points="7,-307.5 102,-307.5 "/>
<text text-anchor="middle" x="54.5" y="-295.5" font-family="Helvetica,sans-Serif" font-size="10.00"> </text>
</a>
</g>
</g>
<!-- Node3&#45;&gt;Node2 -->
<g id="edge2" class="edge">
<title>Node3&#45;&gt;Node2</title>
<path fill="none" stroke="midnightblue" d="M54.5,-278.38C54.5,-268.94 54.5,-259.2 54.5,-250.57"/>
<polygon fill="none" stroke="midnightblue" points="51,-278.43 54.5,-288.43 58,-278.43 51,-278.43"/>
</g>
</g>
</svg>
