<?xml version="1.0" encoding="UTF-8" standalone="no"?>
<!DOCTYPE svg PUBLIC "-//W3C//DTD SVG 1.1//EN"
 "http://www.w3.org/Graphics/SVG/1.1/DTD/svg11.dtd">
<!-- Generated by graphviz version 2.49.1 (20210923.0004)
 -->
<!-- Title: min Pages: 1 -->
<svg width="140pt" height="84pt"
 viewBox="0.00 0.00 140.00 84.00" xmlns="http://www.w3.org/2000/svg" xmlns:xlink="http://www.w3.org/1999/xlink">
<g id="graph0" class="graph" transform="scale(1 1) rotate(0) translate(4 80)">
<title>min</title>
<!-- Node1 -->
<g id="node1" class="node">
<title>Node1</title>
<g id="a_node1"><a xlink:title=" ">
<polygon fill="#bfbfbf" stroke="black" points="0,-19.5 0,-38.5 33,-38.5 33,-19.5 0,-19.5"/>
<text text-anchor="middle" x="16.5" y="-26.5" font-family="Helvetica,sans-Serif" font-size="10.00">min</text>
</a>
</g>
</g>
<!-- Node2 -->
<g id="node2" class="node">
<title>Node2</title>
<g id="a_node2"><a xlink:href="../../d2/de2/helper__math_8h.html#aa72ad70768ab882bd2d74319b3afbcbe" target="_top" xlink:title=" ">
<polygon fill="none" stroke="black" points="69,-38.5 69,-57.5 132,-57.5 132,-38.5 69,-38.5"/>
<text text-anchor="middle" x="100.5" y="-45.5" font-family="Helvetica,sans-Serif" font-size="10.00">make_int3</text>
</a>
</g>
</g>
<!-- Node1&#45;&gt;Node2 -->
<g id="edge1" class="edge">
<title>Node1&#45;&gt;Node2</title>
<path fill="none" stroke="midnightblue" d="M33.31,-32.66C40.69,-34.37 49.85,-36.5 58.98,-38.61"/>
<polygon fill="midnightblue" stroke="midnightblue" points="58.26,-42.04 68.79,-40.88 59.84,-35.22 58.26,-42.04"/>
</g>
<!-- Node3 -->
<g id="node3" class="node">
<title>Node3</title>
<g id="a_node3"><a xlink:href="../../d2/de2/helper__math_8h.html#abd8bbcfabb3ddef2ccaafb9928a37b95" target="_top" xlink:title=" ">
<polygon fill="none" stroke="black" points="84,-0.5 84,-19.5 117,-19.5 117,-0.5 84,-0.5"/>
<text text-anchor="middle" x="100.5" y="-7.5" font-family="Helvetica,sans-Serif" font-size="10.00">min</text>
</a>
</g>
</g>
<!-- Node1&#45;&gt;Node3 -->
<g id="edge3" class="edge">
<title>Node1&#45;&gt;Node3</title>
<path fill="none" stroke="midnightblue" d="M33.31,-25.34C44.77,-22.68 60.51,-19.03 73.77,-15.96"/>
<polygon fill="midnightblue" stroke="midnightblue" points="74.79,-19.32 83.74,-13.65 73.21,-12.5 74.79,-19.32"/>
</g>
<!-- Node2&#45;&gt;Node2 -->
<g id="edge2" class="edge">
<title>Node2&#45;&gt;Node2</title>
<path fill="none" stroke="midnightblue" d="M87.55,-57.76C81.25,-66.57 85.57,-76 100.5,-76 109.6,-76 114.75,-72.5 115.97,-67.77"/>
<polygon fill="midnightblue" stroke="midnightblue" points="119.28,-66.6 113.45,-57.76 112.5,-68.31 119.28,-66.6"/>
</g>
</g>
</svg>
