<?xml version="1.0" encoding="UTF-8" standalone="no"?>
<!DOCTYPE svg PUBLIC "-//W3C//DTD SVG 1.1//EN"
 "http://www.w3.org/Graphics/SVG/1.1/DTD/svg11.dtd">
<!-- Generated by graphviz version 2.49.1 (20210923.0004)
 -->
<!-- Title: smoothstep Pages: 1 -->
<svg width="260pt" height="103pt"
 viewBox="0.00 0.00 260.00 103.00" xmlns="http://www.w3.org/2000/svg" xmlns:xlink="http://www.w3.org/1999/xlink">
<g id="graph0" class="graph" transform="scale(1 1) rotate(0) translate(4 99)">
<title>smoothstep</title>
<!-- Node1 -->
<g id="node1" class="node">
<title>Node1</title>
<g id="a_node1"><a xlink:title=" ">
<polygon fill="#bfbfbf" stroke="black" points="0,-28.5 0,-47.5 68,-47.5 68,-28.5 0,-28.5"/>
<text text-anchor="middle" x="34" y="-35.5" font-family="Helvetica,sans-Serif" font-size="10.00">smoothstep</text>
</a>
</g>
</g>
<!-- Node2 -->
<g id="node2" class="node">
<title>Node2</title>
<g id="a_node2"><a xlink:href="../../d2/de2/helper__math_8h.html#a4e52302c6978bafbb9336fc91bc8aee6" target="_top" xlink:title=" ">
<polygon fill="none" stroke="black" points="118,-56.5 118,-75.5 161,-75.5 161,-56.5 118,-56.5"/>
<text text-anchor="middle" x="139.5" y="-63.5" font-family="Helvetica,sans-Serif" font-size="10.00">clamp</text>
</a>
</g>
</g>
<!-- Node1&#45;&gt;Node2 -->
<g id="edge1" class="edge">
<title>Node1&#45;&gt;Node2</title>
<path fill="none" stroke="midnightblue" d="M68.03,-46.94C80.79,-50.39 95.3,-54.31 107.82,-57.7"/>
<polygon fill="midnightblue" stroke="midnightblue" points="107.23,-61.17 117.79,-60.4 109.06,-54.41 107.23,-61.17"/>
</g>
<!-- Node5 -->
<g id="node5" class="node">
<title>Node5</title>
<g id="a_node5"><a xlink:href="../../d2/de2/helper__math_8h.html#ae157a97cf7d77e6a05db0e0d22b85fb7" target="_top" xlink:title=" ">
<polygon fill="none" stroke="black" points="104,-0.5 104,-19.5 175,-19.5 175,-0.5 104,-0.5"/>
<text text-anchor="middle" x="139.5" y="-7.5" font-family="Helvetica,sans-Serif" font-size="10.00">make_float2</text>
</a>
</g>
</g>
<!-- Node1&#45;&gt;Node5 -->
<g id="edge4" class="edge">
<title>Node1&#45;&gt;Node5</title>
<path fill="none" stroke="midnightblue" d="M68.03,-29.06C76.37,-26.81 85.46,-24.35 94.25,-21.97"/>
<polygon fill="midnightblue" stroke="midnightblue" points="95.26,-25.32 104,-19.33 93.43,-18.57 95.26,-25.32"/>
</g>
<!-- Node3 -->
<g id="node3" class="node">
<title>Node3</title>
<g id="a_node3"><a xlink:href="../../d2/de2/helper__math_8h.html#a2e3ea020fe010be1ba2da473f17223b7" target="_top" xlink:title=" ">
<polygon fill="none" stroke="black" points="211,-75.5 211,-94.5 252,-94.5 252,-75.5 211,-75.5"/>
<text text-anchor="middle" x="231.5" y="-82.5" font-family="Helvetica,sans-Serif" font-size="10.00">fmaxf</text>
</a>
</g>
</g>
<!-- Node2&#45;&gt;Node3 -->
<g id="edge2" class="edge">
<title>Node2&#45;&gt;Node3</title>
<path fill="none" stroke="midnightblue" d="M161.37,-70.41C173.17,-72.9 188.12,-76.05 201.09,-78.79"/>
<polygon fill="midnightblue" stroke="midnightblue" points="200.46,-82.24 210.97,-80.88 201.91,-75.39 200.46,-82.24"/>
</g>
<!-- Node4 -->
<g id="node4" class="node">
<title>Node4</title>
<g id="a_node4"><a xlink:href="../../d2/de2/helper__math_8h.html#a550f4f667b306665a335168336fc95b3" target="_top" xlink:title=" ">
<polygon fill="none" stroke="black" points="212.5,-37.5 212.5,-56.5 250.5,-56.5 250.5,-37.5 212.5,-37.5"/>
<text text-anchor="middle" x="231.5" y="-44.5" font-family="Helvetica,sans-Serif" font-size="10.00">fminf</text>
</a>
</g>
</g>
<!-- Node2&#45;&gt;Node4 -->
<g id="edge3" class="edge">
<title>Node2&#45;&gt;Node4</title>
<path fill="none" stroke="midnightblue" d="M161.37,-61.59C173.58,-59.02 189.16,-55.73 202.43,-52.93"/>
<polygon fill="midnightblue" stroke="midnightblue" points="203.42,-56.3 212.48,-50.8 201.97,-49.45 203.42,-56.3"/>
</g>
<!-- Node5&#45;&gt;Node5 -->
<g id="edge5" class="edge">
<title>Node5&#45;&gt;Node5</title>
<path fill="none" stroke="midnightblue" d="M125.32,-19.76C118.42,-28.57 123.15,-38 139.5,-38 149.72,-38 155.4,-34.31 156.54,-29.4"/>
<polygon fill="midnightblue" stroke="midnightblue" points="159.88,-28.35 153.68,-19.76 153.16,-30.34 159.88,-28.35"/>
</g>
</g>
</svg>
