<?xml version="1.0" encoding="UTF-8" standalone="no"?>
<!DOCTYPE svg PUBLIC "-//W3C//DTD SVG 1.1//EN"
 "http://www.w3.org/Graphics/SVG/1.1/DTD/svg11.dtd">
<!-- Generated by graphviz version 2.49.1 (20210923.0004)
 -->
<!-- Title: abs Pages: 1 -->
<svg width="239pt" height="102pt"
 viewBox="0.00 0.00 239.00 102.00" xmlns="http://www.w3.org/2000/svg" xmlns:xlink="http://www.w3.org/1999/xlink">
<g id="graph0" class="graph" transform="scale(1 1) rotate(0) translate(4 98)">
<title>abs</title>
<!-- Node1 -->
<g id="node1" class="node">
<title>Node1</title>
<g id="a_node1"><a xlink:title=" ">
<polygon fill="#bfbfbf" stroke="black" points="0,-28.5 0,-47.5 33,-47.5 33,-28.5 0,-28.5"/>
<text text-anchor="middle" x="16.5" y="-35.5" font-family="Helvetica,sans-Serif" font-size="10.00">abs</text>
</a>
</g>
</g>
<!-- Node2 -->
<g id="node2" class="node">
<title>Node2</title>
<g id="a_node2"><a xlink:href="../../d2/de2/helper__math_8h.html#ae4378072f9d836b0d4770a1514db2be3" target="_top" xlink:title=" ">
<polygon fill="none" stroke="black" points="84,-56.5 84,-75.5 117,-75.5 117,-56.5 84,-56.5"/>
<text text-anchor="middle" x="100.5" y="-63.5" font-family="Helvetica,sans-Serif" font-size="10.00">abs</text>
</a>
</g>
</g>
<!-- Node1&#45;&gt;Node2 -->
<g id="edge1" class="edge">
<title>Node1&#45;&gt;Node2</title>
<path fill="none" stroke="midnightblue" d="M33.31,-43.4C44.88,-47.35 60.82,-52.79 74.16,-57.35"/>
<polygon fill="midnightblue" stroke="midnightblue" points="73.14,-60.7 83.74,-60.62 75.41,-54.07 73.14,-60.7"/>
</g>
<!-- Node4 -->
<g id="node4" class="node">
<title>Node4</title>
<g id="a_node4"><a xlink:href="../../d2/de2/helper__math_8h.html#aa72ad70768ab882bd2d74319b3afbcbe" target="_top" xlink:title=" ">
<polygon fill="none" stroke="black" points="69,-0.5 69,-19.5 132,-19.5 132,-0.5 69,-0.5"/>
<text text-anchor="middle" x="100.5" y="-7.5" font-family="Helvetica,sans-Serif" font-size="10.00">make_int3</text>
</a>
</g>
</g>
<!-- Node1&#45;&gt;Node4 -->
<g id="edge5" class="edge">
<title>Node1&#45;&gt;Node4</title>
<path fill="none" stroke="midnightblue" d="M33.31,-32.6C41.49,-29.81 51.86,-26.27 61.95,-22.82"/>
<polygon fill="midnightblue" stroke="midnightblue" points="63.12,-26.12 71.45,-19.58 60.86,-19.5 63.12,-26.12"/>
</g>
<!-- Node2&#45;&gt;Node2 -->
<g id="edge2" class="edge">
<title>Node2&#45;&gt;Node2</title>
<path fill="none" stroke="midnightblue" d="M87.55,-75.76C81.25,-84.57 85.57,-94 100.5,-94 109.6,-94 114.75,-90.5 115.97,-85.77"/>
<polygon fill="midnightblue" stroke="midnightblue" points="119.28,-84.6 113.45,-75.76 112.5,-86.31 119.28,-84.6"/>
</g>
<!-- Node3 -->
<g id="node3" class="node">
<title>Node3</title>
<g id="a_node3"><a xlink:href="../../d2/de2/helper__math_8h.html#a3be05aff487ded3c05aab21d24dd6439" target="_top" xlink:title=" ">
<polygon fill="none" stroke="black" points="168,-56.5 168,-75.5 231,-75.5 231,-56.5 168,-56.5"/>
<text text-anchor="middle" x="199.5" y="-63.5" font-family="Helvetica,sans-Serif" font-size="10.00">make_int2</text>
</a>
</g>
</g>
<!-- Node2&#45;&gt;Node3 -->
<g id="edge3" class="edge">
<title>Node2&#45;&gt;Node3</title>
<path fill="none" stroke="midnightblue" d="M117.08,-66C128.03,-66 143.21,-66 157.5,-66"/>
<polygon fill="midnightblue" stroke="midnightblue" points="157.68,-69.5 167.68,-66 157.68,-62.5 157.68,-69.5"/>
</g>
<!-- Node3&#45;&gt;Node3 -->
<g id="edge4" class="edge">
<title>Node3&#45;&gt;Node3</title>
<path fill="none" stroke="midnightblue" d="M184.4,-75.76C177.05,-84.57 182.08,-94 199.5,-94 210.39,-94 216.44,-90.31 217.65,-85.4"/>
<polygon fill="midnightblue" stroke="midnightblue" points="220.95,-84.24 214.6,-75.76 214.28,-86.35 220.95,-84.24"/>
</g>
<!-- Node4&#45;&gt;Node4 -->
<g id="edge6" class="edge">
<title>Node4&#45;&gt;Node4</title>
<path fill="none" stroke="midnightblue" d="M87.55,-19.76C81.25,-28.57 85.57,-38 100.5,-38 109.6,-38 114.75,-34.5 115.97,-29.77"/>
<polygon fill="midnightblue" stroke="midnightblue" points="119.28,-28.6 113.45,-19.76 112.5,-30.31 119.28,-28.6"/>
</g>
</g>
</svg>
