<?xml version="1.0" encoding="UTF-8" standalone="no"?>
<!DOCTYPE svg PUBLIC "-//W3C//DTD SVG 1.1//EN"
 "http://www.w3.org/Graphics/SVG/1.1/DTD/svg11.dtd">
<!-- Generated by graphviz version 2.49.1 (20210923.0004)
 -->
<!-- Title: clamp Pages: 1 -->
<svg width="128pt" height="66pt"
 viewBox="0.00 0.00 128.00 66.00" xmlns="http://www.w3.org/2000/svg" xmlns:xlink="http://www.w3.org/1999/xlink">
<g id="graph0" class="graph" transform="scale(1 1) rotate(0) translate(4 62)">
<title>clamp</title>
<!-- Node1 -->
<g id="node1" class="node">
<title>Node1</title>
<g id="a_node1"><a xlink:title=" ">
<polygon fill="#bfbfbf" stroke="black" points="0,-19.5 0,-38.5 43,-38.5 43,-19.5 0,-19.5"/>
<text text-anchor="middle" x="21.5" y="-26.5" font-family="Helvetica,sans-Serif" font-size="10.00">clamp</text>
</a>
</g>
</g>
<!-- Node2 -->
<g id="node2" class="node">
<title>Node2</title>
<g id="a_node2"><a xlink:href="../../d2/de2/helper__math_8h.html#a2e3ea020fe010be1ba2da473f17223b7" target="_top" xlink:title=" ">
<polygon fill="none" stroke="black" points="79,-38.5 79,-57.5 120,-57.5 120,-38.5 79,-38.5"/>
<text text-anchor="middle" x="99.5" y="-45.5" font-family="Helvetica,sans-Serif" font-size="10.00">fmaxf</text>
</a>
</g>
</g>
<!-- Node1&#45;&gt;Node2 -->
<g id="edge1" class="edge">
<title>Node1&#45;&gt;Node2</title>
<path fill="none" stroke="midnightblue" d="M43.27,-34.19C51.23,-36.18 60.47,-38.49 69.09,-40.65"/>
<polygon fill="midnightblue" stroke="midnightblue" points="68.25,-44.05 78.8,-43.08 69.95,-37.26 68.25,-44.05"/>
</g>
<!-- Node3 -->
<g id="node3" class="node">
<title>Node3</title>
<g id="a_node3"><a xlink:href="../../d2/de2/helper__math_8h.html#a550f4f667b306665a335168336fc95b3" target="_top" xlink:title=" ">
<polygon fill="none" stroke="black" points="80.5,-0.5 80.5,-19.5 118.5,-19.5 118.5,-0.5 80.5,-0.5"/>
<text text-anchor="middle" x="99.5" y="-7.5" font-family="Helvetica,sans-Serif" font-size="10.00">fminf</text>
</a>
</g>
</g>
<!-- Node1&#45;&gt;Node3 -->
<g id="edge2" class="edge">
<title>Node1&#45;&gt;Node3</title>
<path fill="none" stroke="midnightblue" d="M43.27,-23.81C51.7,-21.7 61.56,-19.23 70.61,-16.97"/>
<polygon fill="midnightblue" stroke="midnightblue" points="71.49,-20.36 80.34,-14.54 69.79,-13.57 71.49,-20.36"/>
</g>
</g>
</svg>
