<?xml version="1.0" encoding="UTF-8" standalone="no"?>
<!DOCTYPE svg PUBLIC "-//W3C//DTD SVG 1.1//EN"
 "http://www.w3.org/Graphics/SVG/1.1/DTD/svg11.dtd">
<!-- Generated by graphviz version 2.49.1 (20210923.0004)
 -->
<!-- Title: fracf Pages: 1 -->
<svg width="333pt" height="102pt"
 viewBox="0.00 0.00 333.00 102.00" xmlns="http://www.w3.org/2000/svg" xmlns:xlink="http://www.w3.org/1999/xlink">
<g id="graph0" class="graph" transform="scale(1 1) rotate(0) translate(4 98)">
<title>fracf</title>
<!-- Node1 -->
<g id="node1" class="node">
<title>Node1</title>
<g id="a_node1"><a xlink:title=" ">
<polygon fill="#bfbfbf" stroke="black" points="0,-28.5 0,-47.5 36,-47.5 36,-28.5 0,-28.5"/>
<text text-anchor="middle" x="18" y="-35.5" font-family="Helvetica,sans-Serif" font-size="10.00">fracf</text>
</a>
</g>
</g>
<!-- Node2 -->
<g id="node2" class="node">
<title>Node2</title>
<g id="a_node2"><a xlink:href="../../d2/de2/helper__math_8h.html#aa8a9d57950bb3ca3835bece91188dbf4" target="_top" xlink:title=" ">
<polygon fill="none" stroke="black" points="89.5,-56.5 89.5,-75.5 125.5,-75.5 125.5,-56.5 89.5,-56.5"/>
<text text-anchor="middle" x="107.5" y="-63.5" font-family="Helvetica,sans-Serif" font-size="10.00">fracf</text>
</a>
</g>
</g>
<!-- Node1&#45;&gt;Node2 -->
<g id="edge1" class="edge">
<title>Node1&#45;&gt;Node2</title>
<path fill="none" stroke="midnightblue" d="M36.29,-43.53C48.63,-47.48 65.48,-52.87 79.57,-57.38"/>
<polygon fill="midnightblue" stroke="midnightblue" points="78.66,-60.77 89.25,-60.48 80.79,-54.1 78.66,-60.77"/>
</g>
<!-- Node5 -->
<g id="node5" class="node">
<title>Node5</title>
<g id="a_node5"><a xlink:href="../../d2/de2/helper__math_8h.html#a5ac86555d5a546106ec01ed56f8d48b4" target="_top" xlink:title=" ">
<polygon fill="none" stroke="black" points="72,-0.5 72,-19.5 143,-19.5 143,-0.5 72,-0.5"/>
<text text-anchor="middle" x="107.5" y="-7.5" font-family="Helvetica,sans-Serif" font-size="10.00">make_float4</text>
</a>
</g>
</g>
<!-- Node1&#45;&gt;Node5 -->
<g id="edge6" class="edge">
<title>Node1&#45;&gt;Node5</title>
<path fill="none" stroke="midnightblue" d="M36.29,-32.47C45.06,-29.66 56.1,-26.13 66.82,-22.7"/>
<polygon fill="midnightblue" stroke="midnightblue" points="68.03,-25.98 76.49,-19.6 65.9,-19.32 68.03,-25.98"/>
</g>
<!-- Node3 -->
<g id="node3" class="node">
<title>Node3</title>
<g id="a_node3"><a xlink:href="../../d2/de2/helper__math_8h.html#adf6628c6a1c008e290b58ae210f051d6" target="_top" xlink:title=" ">
<polygon fill="none" stroke="black" points="179,-56.5 179,-75.5 218,-75.5 218,-56.5 179,-56.5"/>
<text text-anchor="middle" x="198.5" y="-63.5" font-family="Helvetica,sans-Serif" font-size="10.00">floorf</text>
</a>
</g>
</g>
<!-- Node2&#45;&gt;Node3 -->
<g id="edge2" class="edge">
<title>Node2&#45;&gt;Node3</title>
<path fill="none" stroke="midnightblue" d="M125.66,-66C137.82,-66 154.42,-66 168.6,-66"/>
<polygon fill="midnightblue" stroke="midnightblue" points="168.86,-69.5 178.86,-66 168.86,-62.5 168.86,-69.5"/>
</g>
<!-- Node3&#45;&gt;Node3 -->
<g id="edge3" class="edge">
<title>Node3&#45;&gt;Node3</title>
<path fill="none" stroke="midnightblue" d="M184.63,-75.76C177.88,-84.57 182.5,-94 198.5,-94 208.5,-94 214.05,-90.31 215.17,-85.4"/>
<polygon fill="midnightblue" stroke="midnightblue" points="218.52,-84.39 212.37,-75.76 211.79,-86.34 218.52,-84.39"/>
</g>
<!-- Node4 -->
<g id="node4" class="node">
<title>Node4</title>
<g id="a_node4"><a xlink:href="../../d2/de2/helper__math_8h.html#ae157a97cf7d77e6a05db0e0d22b85fb7" target="_top" xlink:title=" ">
<polygon fill="none" stroke="black" points="254,-56.5 254,-75.5 325,-75.5 325,-56.5 254,-56.5"/>
<text text-anchor="middle" x="289.5" y="-63.5" font-family="Helvetica,sans-Serif" font-size="10.00">make_float2</text>
</a>
</g>
</g>
<!-- Node3&#45;&gt;Node4 -->
<g id="edge4" class="edge">
<title>Node3&#45;&gt;Node4</title>
<path fill="none" stroke="midnightblue" d="M218.37,-66C225.86,-66 234.82,-66 243.79,-66"/>
<polygon fill="midnightblue" stroke="midnightblue" points="243.84,-69.5 253.84,-66 243.84,-62.5 243.84,-69.5"/>
</g>
<!-- Node4&#45;&gt;Node4 -->
<g id="edge5" class="edge">
<title>Node4&#45;&gt;Node4</title>
<path fill="none" stroke="midnightblue" d="M275.63,-75.76C268.88,-84.57 273.5,-94 289.5,-94 299.5,-94 305.05,-90.31 306.17,-85.4"/>
<polygon fill="midnightblue" stroke="midnightblue" points="309.52,-84.39 303.37,-75.76 302.79,-86.34 309.52,-84.39"/>
</g>
<!-- Node5&#45;&gt;Node5 -->
<g id="edge7" class="edge">
<title>Node5&#45;&gt;Node5</title>
<path fill="none" stroke="midnightblue" d="M93.94,-19.76C87.34,-28.57 91.86,-38 107.5,-38 117.28,-38 122.71,-34.31 123.8,-29.4"/>
<polygon fill="midnightblue" stroke="midnightblue" points="127.16,-28.42 121.06,-19.76 120.42,-30.33 127.16,-28.42"/>
</g>
</g>
</svg>
