<?xml version="1.0" encoding="UTF-8" standalone="no"?>
<!DOCTYPE svg PUBLIC "-//W3C//DTD SVG 1.1//EN"
 "http://www.w3.org/Graphics/SVG/1.1/DTD/svg11.dtd">
<!-- Generated by graphviz version 2.49.1 (20210923.0004)
 -->
<!-- Title: clamp Pages: 1 -->
<svg width="235pt" height="103pt"
 viewBox="0.00 0.00 235.00 103.00" xmlns="http://www.w3.org/2000/svg" xmlns:xlink="http://www.w3.org/1999/xlink">
<g id="graph0" class="graph" transform="scale(1 1) rotate(0) translate(4 99)">
<title>clamp</title>
<!-- Node1 -->
<g id="node1" class="node">
<title>Node1</title>
<g id="a_node1"><a xlink:title=" ">
<polygon fill="#bfbfbf" stroke="black" points="0,-28.5 0,-47.5 43,-47.5 43,-28.5 0,-28.5"/>
<text text-anchor="middle" x="21.5" y="-35.5" font-family="Helvetica,sans-Serif" font-size="10.00">clamp</text>
</a>
</g>
</g>
<!-- Node2 -->
<g id="node2" class="node">
<title>Node2</title>
<g id="a_node2"><a xlink:href="../../d2/de2/helper__math_8h.html#a4e52302c6978bafbb9336fc91bc8aee6" target="_top" xlink:title=" ">
<polygon fill="none" stroke="black" points="93,-56.5 93,-75.5 136,-75.5 136,-56.5 93,-56.5"/>
<text text-anchor="middle" x="114.5" y="-63.5" font-family="Helvetica,sans-Serif" font-size="10.00">clamp</text>
</a>
</g>
</g>
<!-- Node1&#45;&gt;Node2 -->
<g id="edge1" class="edge">
<title>Node1&#45;&gt;Node2</title>
<path fill="none" stroke="midnightblue" d="M43.15,-44.35C55.02,-48.01 70.14,-52.66 83.32,-56.71"/>
<polygon fill="midnightblue" stroke="midnightblue" points="82.35,-60.08 92.93,-59.67 84.4,-53.39 82.35,-60.08"/>
</g>
<!-- Node5 -->
<g id="node5" class="node">
<title>Node5</title>
<g id="a_node5"><a xlink:href="../../d2/de2/helper__math_8h.html#ae157a97cf7d77e6a05db0e0d22b85fb7" target="_top" xlink:title=" ">
<polygon fill="none" stroke="black" points="79,-0.5 79,-19.5 150,-19.5 150,-0.5 79,-0.5"/>
<text text-anchor="middle" x="114.5" y="-7.5" font-family="Helvetica,sans-Serif" font-size="10.00">make_float2</text>
</a>
</g>
</g>
<!-- Node1&#45;&gt;Node5 -->
<g id="edge4" class="edge">
<title>Node1&#45;&gt;Node5</title>
<path fill="none" stroke="midnightblue" d="M43.15,-31.65C51.97,-28.93 62.59,-25.66 72.88,-22.5"/>
<polygon fill="midnightblue" stroke="midnightblue" points="74.03,-25.81 82.56,-19.52 71.98,-19.11 74.03,-25.81"/>
</g>
<!-- Node3 -->
<g id="node3" class="node">
<title>Node3</title>
<g id="a_node3"><a xlink:href="../../d2/de2/helper__math_8h.html#a2e3ea020fe010be1ba2da473f17223b7" target="_top" xlink:title=" ">
<polygon fill="none" stroke="black" points="186,-75.5 186,-94.5 227,-94.5 227,-75.5 186,-75.5"/>
<text text-anchor="middle" x="206.5" y="-82.5" font-family="Helvetica,sans-Serif" font-size="10.00">fmaxf</text>
</a>
</g>
</g>
<!-- Node2&#45;&gt;Node3 -->
<g id="edge2" class="edge">
<title>Node2&#45;&gt;Node3</title>
<path fill="none" stroke="midnightblue" d="M136.37,-70.41C148.17,-72.9 163.12,-76.05 176.09,-78.79"/>
<polygon fill="midnightblue" stroke="midnightblue" points="175.46,-82.24 185.97,-80.88 176.91,-75.39 175.46,-82.24"/>
</g>
<!-- Node4 -->
<g id="node4" class="node">
<title>Node4</title>
<g id="a_node4"><a xlink:href="../../d2/de2/helper__math_8h.html#a550f4f667b306665a335168336fc95b3" target="_top" xlink:title=" ">
<polygon fill="none" stroke="black" points="187.5,-37.5 187.5,-56.5 225.5,-56.5 225.5,-37.5 187.5,-37.5"/>
<text text-anchor="middle" x="206.5" y="-44.5" font-family="Helvetica,sans-Serif" font-size="10.00">fminf</text>
</a>
</g>
</g>
<!-- Node2&#45;&gt;Node4 -->
<g id="edge3" class="edge">
<title>Node2&#45;&gt;Node4</title>
<path fill="none" stroke="midnightblue" d="M136.37,-61.59C148.58,-59.02 164.16,-55.73 177.43,-52.93"/>
<polygon fill="midnightblue" stroke="midnightblue" points="178.42,-56.3 187.48,-50.8 176.97,-49.45 178.42,-56.3"/>
</g>
<!-- Node5&#45;&gt;Node5 -->
<g id="edge5" class="edge">
<title>Node5&#45;&gt;Node5</title>
<path fill="none" stroke="midnightblue" d="M100.32,-19.76C93.42,-28.57 98.15,-38 114.5,-38 124.72,-38 130.4,-34.31 131.54,-29.4"/>
<polygon fill="midnightblue" stroke="midnightblue" points="134.88,-28.35 128.68,-19.76 128.16,-30.34 134.88,-28.35"/>
</g>
</g>
</svg>
