<?xml version="1.0" encoding="UTF-8" standalone="no"?>
<!DOCTYPE svg PUBLIC "-//W3C//DTD SVG 1.1//EN"
 "http://www.w3.org/Graphics/SVG/1.1/DTD/svg11.dtd">
<!-- Generated by graphviz version 2.49.1 (20210923.0004)
 -->
<!-- Title: make_float4 Pages: 1 -->
<svg width="183pt" height="446pt"
 viewBox="0.00 0.00 183.00 446.00" xmlns="http://www.w3.org/2000/svg" xmlns:xlink="http://www.w3.org/1999/xlink">
<g id="graph0" class="graph" transform="scale(1 1) rotate(0) translate(4 442)">
<title>make_float4</title>
<!-- Node1 -->
<g id="node1" class="node">
<title>Node1</title>
<g id="a_node1"><a xlink:title=" ">
<polygon fill="#bfbfbf" stroke="black" points="104,-209.5 104,-228.5 175,-228.5 175,-209.5 104,-209.5"/>
<text text-anchor="middle" x="139.5" y="-216.5" font-family="Helvetica,sans-Serif" font-size="10.00">make_float4</text>
</a>
</g>
</g>
<!-- Node1&#45;&gt;Node1 -->
<g id="edge8" class="edge">
<title>Node1&#45;&gt;Node1</title>
<path fill="none" stroke="midnightblue" d="M158.76,-238.4C157.47,-243.31 151.05,-247 139.5,-247 121.02,-247 115.67,-237.57 123.47,-228.76"/>
<polygon fill="midnightblue" stroke="midnightblue" points="162.02,-237.13 155.53,-228.76 155.39,-239.35 162.02,-237.13"/>
</g>
<!-- Node2 -->
<g id="node2" class="node">
<title>Node2</title>
<g id="a_node2"><a xlink:href="../../d2/de2/helper__math_8h.html#a3f5286af2ed3b64cc71c61985098fad8" target="_top" xlink:title=" ">
<polygon fill="none" stroke="black" points="12.5,-418.5 12.5,-437.5 55.5,-437.5 55.5,-418.5 12.5,-418.5"/>
<text text-anchor="middle" x="34" y="-425.5" font-family="Helvetica,sans-Serif" font-size="10.00">clamp</text>
</a>
</g>
</g>
<!-- Node1&#45;&gt;Node2 -->
<g id="edge1" class="edge">
<title>Node1&#45;&gt;Node2</title>
<path fill="none" stroke="midnightblue" d="M135.67,-238.94C129.49,-276.23 111.64,-357.38 68,-409 64.59,-413.04 60.08,-416.41 55.5,-419.13"/>
<polygon fill="midnightblue" stroke="midnightblue" points="139.16,-239.28 137.24,-228.86 132.25,-238.21 139.16,-239.28"/>
</g>
<!-- Node3 -->
<g id="node3" class="node">
<title>Node3</title>
<g id="a_node3"><a xlink:href="../../d2/de2/helper__math_8h.html#aa9ee264473011054a33354d0045161ce" target="_top" xlink:title=" ">
<polygon fill="none" stroke="black" points="16.5,-380.5 16.5,-399.5 51.5,-399.5 51.5,-380.5 16.5,-380.5"/>
<text text-anchor="middle" x="34" y="-387.5" font-family="Helvetica,sans-Serif" font-size="10.00">fabs</text>
</a>
</g>
</g>
<!-- Node1&#45;&gt;Node3 -->
<g id="edge2" class="edge">
<title>Node1&#45;&gt;Node3</title>
<path fill="none" stroke="midnightblue" d="M133.53,-238.76C124.83,-270.03 104.21,-331.45 68,-371 63.45,-375.97 57.28,-380 51.51,-383.04"/>
<polygon fill="midnightblue" stroke="midnightblue" points="137.02,-239.26 136.21,-228.69 130.26,-237.46 137.02,-239.26"/>
</g>
<!-- Node4 -->
<g id="node4" class="node">
<title>Node4</title>
<g id="a_node4"><a xlink:href="../../d2/de2/helper__math_8h.html#a1bd42b705a0de4def6b605ef2699b9ee" target="_top" xlink:title=" ">
<polygon fill="none" stroke="black" points="14.5,-342.5 14.5,-361.5 53.5,-361.5 53.5,-342.5 14.5,-342.5"/>
<text text-anchor="middle" x="34" y="-349.5" font-family="Helvetica,sans-Serif" font-size="10.00">floorf</text>
</a>
</g>
</g>
<!-- Node1&#45;&gt;Node4 -->
<g id="edge3" class="edge">
<title>Node1&#45;&gt;Node4</title>
<path fill="none" stroke="midnightblue" d="M130.41,-237.87C119.23,-262.22 97.1,-304.8 68,-333 63.82,-337.05 58.62,-340.56 53.58,-343.42"/>
<polygon fill="midnightblue" stroke="midnightblue" points="133.65,-239.2 134.52,-228.65 127.25,-236.36 133.65,-239.2"/>
</g>
<!-- Node5 -->
<g id="node5" class="node">
<title>Node5</title>
<g id="a_node5"><a xlink:href="../../d2/de2/helper__math_8h.html#a0c102756578f129d7b0fde92ae6ca987" target="_top" xlink:title=" ">
<polygon fill="none" stroke="black" points="13.5,-304.5 13.5,-323.5 54.5,-323.5 54.5,-304.5 13.5,-304.5"/>
<text text-anchor="middle" x="34" y="-311.5" font-family="Helvetica,sans-Serif" font-size="10.00">fmaxf</text>
</a>
</g>
</g>
<!-- Node1&#45;&gt;Node5 -->
<g id="edge4" class="edge">
<title>Node1&#45;&gt;Node5</title>
<path fill="none" stroke="midnightblue" d="M124.49,-236.96C111.13,-253.35 89.85,-277.59 68,-295 63.66,-298.46 58.61,-301.7 53.79,-304.48"/>
<polygon fill="midnightblue" stroke="midnightblue" points="127.54,-238.75 131.05,-228.76 122.07,-234.38 127.54,-238.75"/>
</g>
<!-- Node6 -->
<g id="node6" class="node">
<title>Node6</title>
<g id="a_node6"><a xlink:href="../../d2/de2/helper__math_8h.html#accc123056028156af4471d825045701c" target="_top" xlink:title=" ">
<polygon fill="none" stroke="black" points="15,-266.5 15,-285.5 53,-285.5 53,-266.5 15,-266.5"/>
<text text-anchor="middle" x="34" y="-273.5" font-family="Helvetica,sans-Serif" font-size="10.00">fminf</text>
</a>
</g>
</g>
<!-- Node1&#45;&gt;Node6 -->
<g id="edge5" class="edge">
<title>Node1&#45;&gt;Node6</title>
<path fill="none" stroke="midnightblue" d="M112,-233.59C93.23,-243.93 68.59,-257.5 52.3,-266.47"/>
<polygon fill="midnightblue" stroke="midnightblue" points="113.87,-236.56 120.94,-228.67 110.49,-230.43 113.87,-236.56"/>
</g>
<!-- Node7 -->
<g id="node7" class="node">
<title>Node7</title>
<g id="a_node7"><a xlink:href="../../d2/de2/helper__math_8h.html#a56aadc267ba639864d79188aa781423f" target="_top" xlink:title=" ">
<polygon fill="none" stroke="black" points="13,-228.5 13,-247.5 55,-247.5 55,-228.5 13,-228.5"/>
<text text-anchor="middle" x="34" y="-235.5" font-family="Helvetica,sans-Serif" font-size="10.00">fmodf</text>
</a>
</g>
</g>
<!-- Node1&#45;&gt;Node7 -->
<g id="edge6" class="edge">
<title>Node1&#45;&gt;Node7</title>
<path fill="none" stroke="midnightblue" d="M93.62,-227.24C80.14,-229.71 66.02,-232.3 55.02,-234.32"/>
<polygon fill="midnightblue" stroke="midnightblue" points="94.54,-230.63 103.75,-225.38 93.28,-223.74 94.54,-230.63"/>
</g>
<!-- Node8 -->
<g id="node8" class="node">
<title>Node8</title>
<g id="a_node8"><a xlink:href="../../d2/de2/helper__math_8h.html#aad5e4d519cb28ab64e0c38bdb786f729" target="_top" xlink:title=" ">
<polygon fill="none" stroke="black" points="16,-190.5 16,-209.5 52,-209.5 52,-190.5 16,-190.5"/>
<text text-anchor="middle" x="34" y="-197.5" font-family="Helvetica,sans-Serif" font-size="10.00">fracf</text>
</a>
</g>
</g>
<!-- Node1&#45;&gt;Node8 -->
<g id="edge7" class="edge">
<title>Node1&#45;&gt;Node8</title>
<path fill="none" stroke="midnightblue" d="M93.73,-210.78C78.99,-208.07 63.48,-205.23 52.1,-203.14"/>
<polygon fill="midnightblue" stroke="midnightblue" points="93.28,-214.26 103.75,-212.62 94.54,-207.37 93.28,-214.26"/>
</g>
<!-- Node9 -->
<g id="node9" class="node">
<title>Node9</title>
<g id="a_node9"><a xlink:href="../../d2/de2/helper__math_8h.html#aa79ec1961ab5b063ffaa382d57039cea" target="_top" xlink:title=" ">
<polygon fill="none" stroke="black" points="5,-152.5 5,-171.5 63,-171.5 63,-152.5 5,-152.5"/>
<text text-anchor="middle" x="34" y="-159.5" font-family="Helvetica,sans-Serif" font-size="10.00">operator*</text>
</a>
</g>
</g>
<!-- Node1&#45;&gt;Node9 -->
<g id="edge9" class="edge">
<title>Node1&#45;&gt;Node9</title>
<path fill="none" stroke="midnightblue" d="M112,-204.41C93.23,-194.07 68.59,-180.5 52.3,-171.53"/>
<polygon fill="midnightblue" stroke="midnightblue" points="110.49,-207.57 120.94,-209.33 113.87,-201.44 110.49,-207.57"/>
</g>
<!-- Node10 -->
<g id="node10" class="node">
<title>Node10</title>
<g id="a_node10"><a xlink:href="../../d2/de2/helper__math_8h.html#a55e9b703f5296a9d8b12e87d64975d43" target="_top" xlink:title=" ">
<polygon fill="none" stroke="black" points="4,-114.5 4,-133.5 64,-133.5 64,-114.5 4,-114.5"/>
<text text-anchor="middle" x="34" y="-121.5" font-family="Helvetica,sans-Serif" font-size="10.00">operator+</text>
</a>
</g>
</g>
<!-- Node1&#45;&gt;Node10 -->
<g id="edge10" class="edge">
<title>Node1&#45;&gt;Node10</title>
<path fill="none" stroke="midnightblue" d="M124.49,-201.04C111.13,-184.65 89.85,-160.41 68,-143 63.66,-139.54 58.61,-136.3 53.79,-133.52"/>
<polygon fill="midnightblue" stroke="midnightblue" points="122.07,-203.62 131.05,-209.24 127.54,-199.25 122.07,-203.62"/>
</g>
<!-- Node11 -->
<g id="node11" class="node">
<title>Node11</title>
<g id="a_node11"><a xlink:href="../../d2/de2/helper__math_8h.html#aae7e93cd36d263560cf8535af5212d4e" target="_top" xlink:title=" ">
<polygon fill="none" stroke="black" points="5.5,-76.5 5.5,-95.5 62.5,-95.5 62.5,-76.5 5.5,-76.5"/>
<text text-anchor="middle" x="34" y="-83.5" font-family="Helvetica,sans-Serif" font-size="10.00">operator&#45;</text>
</a>
</g>
</g>
<!-- Node1&#45;&gt;Node11 -->
<g id="edge11" class="edge">
<title>Node1&#45;&gt;Node11</title>
<path fill="none" stroke="midnightblue" d="M130.41,-200.13C119.23,-175.78 97.1,-133.2 68,-105 64.3,-101.41 59.79,-98.25 55.31,-95.58"/>
<polygon fill="midnightblue" stroke="midnightblue" points="127.25,-201.64 134.52,-209.35 133.65,-198.8 127.25,-201.64"/>
</g>
<!-- Node12 -->
<g id="node12" class="node">
<title>Node12</title>
<g id="a_node12"><a xlink:href="../../d2/de2/helper__math_8h.html#a70bc23a55f3cc4d26b45044fa99d6d61" target="_top" xlink:title=" ">
<polygon fill="none" stroke="black" points="5.5,-38.5 5.5,-57.5 62.5,-57.5 62.5,-38.5 5.5,-38.5"/>
<text text-anchor="middle" x="34" y="-45.5" font-family="Helvetica,sans-Serif" font-size="10.00">operator/</text>
</a>
</g>
</g>
<!-- Node1&#45;&gt;Node12 -->
<g id="edge12" class="edge">
<title>Node1&#45;&gt;Node12</title>
<path fill="none" stroke="midnightblue" d="M133.53,-199.24C124.83,-167.97 104.21,-106.55 68,-67 64.7,-63.39 60.55,-60.28 56.31,-57.68"/>
<polygon fill="midnightblue" stroke="midnightblue" points="130.26,-200.54 136.21,-209.31 137.02,-198.74 130.26,-200.54"/>
</g>
<!-- Node13 -->
<g id="node13" class="node">
<title>Node13</title>
<g id="a_node13"><a xlink:href="../../d2/de2/helper__math_8h.html#a20180981da5c0ca777b200d5a68b5952" target="_top" xlink:title=" ">
<polygon fill="none" stroke="black" points="0,-0.5 0,-19.5 68,-19.5 68,-0.5 0,-0.5"/>
<text text-anchor="middle" x="34" y="-7.5" font-family="Helvetica,sans-Serif" font-size="10.00">smoothstep</text>
</a>
</g>
</g>
<!-- Node1&#45;&gt;Node13 -->
<g id="edge13" class="edge">
<title>Node1&#45;&gt;Node13</title>
<path fill="none" stroke="midnightblue" d="M135.67,-199.06C129.49,-161.77 111.64,-80.62 68,-29 64.93,-25.37 60.97,-22.27 56.87,-19.7"/>
<polygon fill="midnightblue" stroke="midnightblue" points="132.25,-199.79 137.24,-209.14 139.16,-198.72 132.25,-199.79"/>
</g>
</g>
</svg>
