<?xml version="1.0" encoding="UTF-8" standalone="no"?>
<!DOCTYPE svg PUBLIC "-//W3C//DTD SVG 1.1//EN"
 "http://www.w3.org/Graphics/SVG/1.1/DTD/svg11.dtd">
<!-- Generated by graphviz version 2.49.1 (20210923.0004)
 -->
<!-- Title: operator* Pages: 1 -->
<svg width="170pt" height="46pt"
 viewBox="0.00 0.00 170.00 46.00" xmlns="http://www.w3.org/2000/svg" xmlns:xlink="http://www.w3.org/1999/xlink">
<g id="graph0" class="graph" transform="scale(1 1) rotate(0) translate(4 42)">
<title>operator*</title>
<!-- Node1 -->
<g id="node1" class="node">
<title>Node1</title>
<g id="a_node1"><a xlink:title=" ">
<polygon fill="#bfbfbf" stroke="black" points="0,-0.5 0,-19.5 58,-19.5 58,-0.5 0,-0.5"/>
<text text-anchor="middle" x="29" y="-7.5" font-family="Helvetica,sans-Serif" font-size="10.00">operator*</text>
</a>
</g>
</g>
<!-- Node2 -->
<g id="node2" class="node">
<title>Node2</title>
<g id="a_node2"><a xlink:href="../../d2/de2/helper__math_8h.html#adcf40e92c44d3592e8a6b6c9c50a031b" target="_top" xlink:title=" ">
<polygon fill="none" stroke="black" points="94,-0.5 94,-19.5 162,-19.5 162,-0.5 94,-0.5"/>
<text text-anchor="middle" x="128" y="-7.5" font-family="Helvetica,sans-Serif" font-size="10.00">make_uint3</text>
</a>
</g>
</g>
<!-- Node1&#45;&gt;Node2 -->
<g id="edge1" class="edge">
<title>Node1&#45;&gt;Node2</title>
<path fill="none" stroke="midnightblue" d="M58.06,-10C66.1,-10 75.06,-10 83.79,-10"/>
<polygon fill="midnightblue" stroke="midnightblue" points="83.86,-13.5 93.86,-10 83.86,-6.5 83.86,-13.5"/>
</g>
<!-- Node2&#45;&gt;Node2 -->
<g id="edge2" class="edge">
<title>Node2&#45;&gt;Node2</title>
<path fill="none" stroke="midnightblue" d="M112.9,-19.76C105.55,-28.57 110.58,-38 128,-38 138.89,-38 144.94,-34.31 146.15,-29.4"/>
<polygon fill="midnightblue" stroke="midnightblue" points="149.45,-28.24 143.1,-19.76 142.78,-30.35 149.45,-28.24"/>
</g>
</g>
</svg>
