<?xml version="1.0" encoding="UTF-8" standalone="no"?>
<!DOCTYPE svg PUBLIC "-//W3C//DTD SVG 1.1//EN"
 "http://www.w3.org/Graphics/SVG/1.1/DTD/svg11.dtd">
<!-- Generated by graphviz version 2.49.1 (20210923.0004)
 -->
<!-- Title: length Pages: 1 -->
<svg width="228pt" height="180pt"
 viewBox="0.00 0.00 228.00 180.00" xmlns="http://www.w3.org/2000/svg" xmlns:xlink="http://www.w3.org/1999/xlink">
<g id="graph0" class="graph" transform="scale(1 1) rotate(0) translate(4 176)">
<title>length</title>
<!-- Node1 -->
<g id="node1" class="node">
<title>Node1</title>
<g id="a_node1"><a xlink:title=" ">
<polygon fill="#bfbfbf" stroke="black" points="176,-76.5 176,-95.5 220,-95.5 220,-76.5 176,-76.5"/>
<text text-anchor="middle" x="198" y="-83.5" font-family="Helvetica,sans-Serif" font-size="10.00">length</text>
</a>
</g>
</g>
<!-- Node2 -->
<g id="node2" class="node">
<title>Node2</title>
<g id="a_node2"><a xlink:href="../../d9/d0c/helper__string_8h.html#ac4941870cb5a1c286453eccb73e2e2a6" target="_top" xlink:title=" ">
<polygon fill="none" stroke="black" points="19,-152.5 19,-171.5 121,-171.5 121,-152.5 19,-152.5"/>
<text text-anchor="middle" x="70" y="-159.5" font-family="Helvetica,sans-Serif" font-size="10.00">checkCmdLineFlag</text>
</a>
</g>
</g>
<!-- Node1&#45;&gt;Node2 -->
<g id="edge1" class="edge">
<title>Node1&#45;&gt;Node2</title>
<path fill="none" stroke="midnightblue" d="M183.6,-103.63C173.06,-116.33 157.3,-132.93 140,-143 133.34,-146.87 125.86,-149.99 118.35,-152.48"/>
<polygon fill="midnightblue" stroke="midnightblue" points="186.51,-105.59 190.02,-95.59 181.04,-101.22 186.51,-105.59"/>
</g>
<!-- Node3 -->
<g id="node3" class="node">
<title>Node3</title>
<g id="a_node3"><a xlink:href="../../d9/d0c/helper__string_8h.html#a58201641910e5cd66b8ff4efde6c4fca" target="_top" xlink:title=" ">
<polygon fill="none" stroke="black" points="2,-114.5 2,-133.5 138,-133.5 138,-114.5 2,-114.5"/>
<text text-anchor="middle" x="70" y="-121.5" font-family="Helvetica,sans-Serif" font-size="10.00">getCmdLineArgumentFloat</text>
</a>
</g>
</g>
<!-- Node1&#45;&gt;Node3 -->
<g id="edge2" class="edge">
<title>Node1&#45;&gt;Node3</title>
<path fill="none" stroke="midnightblue" d="M166.4,-96.53C157.89,-99.37 148.61,-102.38 140,-105 129.3,-108.25 117.6,-111.57 106.92,-114.5"/>
<polygon fill="midnightblue" stroke="midnightblue" points="167.61,-99.82 175.97,-93.31 165.38,-93.18 167.61,-99.82"/>
</g>
<!-- Node4 -->
<g id="node4" class="node">
<title>Node4</title>
<g id="a_node4"><a xlink:href="../../d9/d0c/helper__string_8h.html#ade9cb99a49aabcdf5ddcc8d276174576" target="_top" xlink:title=" ">
<polygon fill="none" stroke="black" points="7.5,-76.5 7.5,-95.5 132.5,-95.5 132.5,-76.5 7.5,-76.5"/>
<text text-anchor="middle" x="70" y="-83.5" font-family="Helvetica,sans-Serif" font-size="10.00">getCmdLineArgumentInt</text>
</a>
</g>
</g>
<!-- Node1&#45;&gt;Node4 -->
<g id="edge3" class="edge">
<title>Node1&#45;&gt;Node4</title>
<path fill="none" stroke="midnightblue" d="M165.65,-86C155.61,-86 144.11,-86 132.68,-86"/>
<polygon fill="midnightblue" stroke="midnightblue" points="165.91,-89.5 175.91,-86 165.91,-82.5 165.91,-89.5"/>
</g>
<!-- Node5 -->
<g id="node5" class="node">
<title>Node5</title>
<g id="a_node5"><a xlink:href="../../d9/d0c/helper__string_8h.html#a21bc9c16271b623400816c8839c862bb" target="_top" xlink:title=" ">
<polygon fill="none" stroke="black" points="0,-38.5 0,-57.5 140,-57.5 140,-38.5 0,-38.5"/>
<text text-anchor="middle" x="70" y="-45.5" font-family="Helvetica,sans-Serif" font-size="10.00">getCmdLineArgumentString</text>
</a>
</g>
</g>
<!-- Node1&#45;&gt;Node5 -->
<g id="edge4" class="edge">
<title>Node1&#45;&gt;Node5</title>
<path fill="none" stroke="midnightblue" d="M166.4,-75.47C157.89,-72.63 148.61,-69.62 140,-67 129.3,-63.75 117.6,-60.43 106.92,-57.5"/>
<polygon fill="midnightblue" stroke="midnightblue" points="165.38,-78.82 175.97,-78.69 167.61,-72.18 165.38,-78.82"/>
</g>
<!-- Node6 -->
<g id="node6" class="node">
<title>Node6</title>
<g id="a_node6"><a xlink:href="../../d9/d0c/helper__string_8h.html#a885b977ee2b2ce6e95e5e80e96c6535f" target="_top" xlink:title=" ">
<polygon fill="none" stroke="black" points="0.5,-0.5 0.5,-19.5 139.5,-19.5 139.5,-0.5 0.5,-0.5"/>
<text text-anchor="middle" x="70" y="-7.5" font-family="Helvetica,sans-Serif" font-size="10.00">getCmdLineArgumentValue</text>
</a>
</g>
</g>
<!-- Node1&#45;&gt;Node6 -->
<g id="edge5" class="edge">
<title>Node1&#45;&gt;Node6</title>
<path fill="none" stroke="midnightblue" d="M183.6,-68.37C173.06,-55.67 157.3,-39.07 140,-29 133.34,-25.13 125.86,-22.01 118.35,-19.52"/>
<polygon fill="midnightblue" stroke="midnightblue" points="181.04,-70.78 190.02,-76.41 186.51,-66.41 181.04,-70.78"/>
</g>
</g>
</svg>
