<?xml version="1.0" encoding="UTF-8" standalone="no"?>
<!DOCTYPE svg PUBLIC "-//W3C//DTD SVG 1.1//EN"
 "http://www.w3.org/Graphics/SVG/1.1/DTD/svg11.dtd">
<!-- Generated by graphviz version 2.49.1 (20210923.0004)
 -->
<!-- Title: make_int3 Pages: 1 -->
<svg width="167pt" height="256pt"
 viewBox="0.00 0.00 167.00 256.00" xmlns="http://www.w3.org/2000/svg" xmlns:xlink="http://www.w3.org/1999/xlink">
<g id="graph0" class="graph" transform="scale(1 1) rotate(0) translate(4 252)">
<title>make_int3</title>
<!-- Node1 -->
<g id="node1" class="node">
<title>Node1</title>
<g id="a_node1"><a xlink:title=" ">
<polygon fill="#bfbfbf" stroke="black" points="96,-114.5 96,-133.5 159,-133.5 159,-114.5 96,-114.5"/>
<text text-anchor="middle" x="127.5" y="-121.5" font-family="Helvetica,sans-Serif" font-size="10.00">make_int3</text>
</a>
</g>
</g>
<!-- Node1&#45;&gt;Node1 -->
<g id="edge3" class="edge">
<title>Node1&#45;&gt;Node1</title>
<path fill="none" stroke="midnightblue" d="M145.28,-143.4C144.09,-148.31 138.16,-152 127.5,-152 110.44,-152 105.51,-142.57 112.7,-133.76"/>
<polygon fill="midnightblue" stroke="midnightblue" points="148.59,-142.28 142.3,-133.76 141.91,-144.34 148.59,-142.28"/>
</g>
<!-- Node2 -->
<g id="node2" class="node">
<title>Node2</title>
<g id="a_node2"><a xlink:href="../../d2/de2/helper__math_8h.html#afe553b3ddd067e12861af3967b19f1cd" target="_top" xlink:title=" ">
<polygon fill="none" stroke="black" points="13.5,-228.5 13.5,-247.5 46.5,-247.5 46.5,-228.5 13.5,-228.5"/>
<text text-anchor="middle" x="30" y="-235.5" font-family="Helvetica,sans-Serif" font-size="10.00">abs</text>
</a>
</g>
</g>
<!-- Node1&#45;&gt;Node2 -->
<g id="edge1" class="edge">
<title>Node1&#45;&gt;Node2</title>
<path fill="none" stroke="midnightblue" d="M116.49,-142.39C104.8,-162.75 83.97,-195.75 60,-219 56.02,-222.86 51.16,-226.39 46.56,-229.34"/>
<polygon fill="midnightblue" stroke="midnightblue" points="119.63,-143.95 121.47,-133.51 113.52,-140.52 119.63,-143.95"/>
</g>
<!-- Node3 -->
<g id="node3" class="node">
<title>Node3</title>
<g id="a_node3"><a xlink:href="../../d2/de2/helper__math_8h.html#a2ad0c85491bef8c0028ddaa95c992912" target="_top" xlink:title=" ">
<polygon fill="none" stroke="black" points="8.5,-190.5 8.5,-209.5 51.5,-209.5 51.5,-190.5 8.5,-190.5"/>
<text text-anchor="middle" x="30" y="-197.5" font-family="Helvetica,sans-Serif" font-size="10.00">clamp</text>
</a>
</g>
</g>
<!-- Node1&#45;&gt;Node3 -->
<g id="edge2" class="edge">
<title>Node1&#45;&gt;Node3</title>
<path fill="none" stroke="midnightblue" d="M108.24,-140.77C95.17,-152.49 76.95,-168.26 60,-181 55.67,-184.25 50.8,-187.57 46.3,-190.5"/>
<polygon fill="midnightblue" stroke="midnightblue" points="110.96,-143.03 116.03,-133.72 106.26,-137.84 110.96,-143.03"/>
</g>
<!-- Node4 -->
<g id="node4" class="node">
<title>Node4</title>
<g id="a_node4"><a xlink:href="../../d2/de2/helper__math_8h.html#a86bb61d22c0e88f85b47d9834f0ec34b" target="_top" xlink:title=" ">
<polygon fill="none" stroke="black" points="12.5,-152.5 12.5,-171.5 47.5,-171.5 47.5,-152.5 12.5,-152.5"/>
<text text-anchor="middle" x="30" y="-159.5" font-family="Helvetica,sans-Serif" font-size="10.00">max</text>
</a>
</g>
</g>
<!-- Node1&#45;&gt;Node4 -->
<g id="edge4" class="edge">
<title>Node1&#45;&gt;Node4</title>
<path fill="none" stroke="midnightblue" d="M92.72,-137.44C77.4,-143.54 59.99,-150.46 47.57,-155.41"/>
<polygon fill="midnightblue" stroke="midnightblue" points="94.4,-140.54 102.4,-133.59 91.82,-134.03 94.4,-140.54"/>
</g>
<!-- Node5 -->
<g id="node5" class="node">
<title>Node5</title>
<g id="a_node5"><a xlink:href="../../d2/de2/helper__math_8h.html#abe4b67087a13d8e4b8fd2d1333f05212" target="_top" xlink:title=" ">
<polygon fill="none" stroke="black" points="13.5,-114.5 13.5,-133.5 46.5,-133.5 46.5,-114.5 13.5,-114.5"/>
<text text-anchor="middle" x="30" y="-121.5" font-family="Helvetica,sans-Serif" font-size="10.00">min</text>
</a>
</g>
</g>
<!-- Node1&#45;&gt;Node5 -->
<g id="edge5" class="edge">
<title>Node1&#45;&gt;Node5</title>
<path fill="none" stroke="midnightblue" d="M85.49,-124C71.76,-124 57.28,-124 46.7,-124"/>
<polygon fill="midnightblue" stroke="midnightblue" points="85.76,-127.5 95.76,-124 85.76,-120.5 85.76,-127.5"/>
</g>
<!-- Node6 -->
<g id="node6" class="node">
<title>Node6</title>
<g id="a_node6"><a xlink:href="../../d2/de2/helper__math_8h.html#ae2395fa25fedaa9f7d54d253fd41e446" target="_top" xlink:title=" ">
<polygon fill="none" stroke="black" points="1,-76.5 1,-95.5 59,-95.5 59,-76.5 1,-76.5"/>
<text text-anchor="middle" x="30" y="-83.5" font-family="Helvetica,sans-Serif" font-size="10.00">operator*</text>
</a>
</g>
</g>
<!-- Node1&#45;&gt;Node6 -->
<g id="edge6" class="edge">
<title>Node1&#45;&gt;Node6</title>
<path fill="none" stroke="midnightblue" d="M92.79,-110.59C80.35,-105.64 66.51,-100.13 55.09,-95.59"/>
<polygon fill="midnightblue" stroke="midnightblue" points="91.82,-113.97 102.4,-114.41 94.4,-107.46 91.82,-113.97"/>
</g>
<!-- Node7 -->
<g id="node7" class="node">
<title>Node7</title>
<g id="a_node7"><a xlink:href="../../d2/de2/helper__math_8h.html#ade23035ad90bdaeb84fef16038074110" target="_top" xlink:title=" ">
<polygon fill="none" stroke="black" points="0,-38.5 0,-57.5 60,-57.5 60,-38.5 0,-38.5"/>
<text text-anchor="middle" x="30" y="-45.5" font-family="Helvetica,sans-Serif" font-size="10.00">operator+</text>
</a>
</g>
</g>
<!-- Node1&#45;&gt;Node7 -->
<g id="edge7" class="edge">
<title>Node1&#45;&gt;Node7</title>
<path fill="none" stroke="midnightblue" d="M108.24,-107.23C95.17,-95.51 76.95,-79.74 60,-67 55.67,-63.75 50.8,-60.43 46.3,-57.5"/>
<polygon fill="midnightblue" stroke="midnightblue" points="106.26,-110.16 116.03,-114.28 110.96,-104.97 106.26,-110.16"/>
</g>
<!-- Node8 -->
<g id="node8" class="node">
<title>Node8</title>
<g id="a_node8"><a xlink:href="../../d2/de2/helper__math_8h.html#a26c49763a45d00cd11d802e00c52ae30" target="_top" xlink:title=" ">
<polygon fill="none" stroke="black" points="1.5,-0.5 1.5,-19.5 58.5,-19.5 58.5,-0.5 1.5,-0.5"/>
<text text-anchor="middle" x="30" y="-7.5" font-family="Helvetica,sans-Serif" font-size="10.00">operator&#45;</text>
</a>
</g>
</g>
<!-- Node1&#45;&gt;Node8 -->
<g id="edge8" class="edge">
<title>Node1&#45;&gt;Node8</title>
<path fill="none" stroke="midnightblue" d="M116.49,-105.61C104.8,-85.25 83.97,-52.25 60,-29 56.46,-25.56 52.21,-22.38 48.07,-19.64"/>
<polygon fill="midnightblue" stroke="midnightblue" points="113.52,-107.48 121.47,-114.49 119.63,-104.05 113.52,-107.48"/>
</g>
</g>
</svg>
