<?xml version="1.0" encoding="UTF-8" standalone="no"?>
<!DOCTYPE svg PUBLIC "-//W3C//DTD SVG 1.1//EN"
 "http://www.w3.org/Graphics/SVG/1.1/DTD/svg11.dtd">
<!-- Generated by graphviz version 2.49.1 (20210923.0004)
 -->
<!-- Title: min Pages: 1 -->
<svg width="120pt" height="66pt"
 viewBox="0.00 0.00 120.00 66.00" xmlns="http://www.w3.org/2000/svg" xmlns:xlink="http://www.w3.org/1999/xlink">
<g id="graph0" class="graph" transform="scale(1 1) rotate(0) translate(4 62)">
<title>min</title>
<!-- Node1 -->
<g id="node1" class="node">
<title>Node1</title>
<g id="a_node1"><a xlink:title=" ">
<polygon fill="#bfbfbf" stroke="black" points="79,-19.5 79,-38.5 112,-38.5 112,-19.5 79,-19.5"/>
<text text-anchor="middle" x="95.5" y="-26.5" font-family="Helvetica,sans-Serif" font-size="10.00">min</text>
</a>
</g>
</g>
<!-- Node2 -->
<g id="node2" class="node">
<title>Node2</title>
<g id="a_node2"><a xlink:href="../../d2/de2/helper__math_8h.html#a71bcfdcaaea698c7db05f2a7cf13610d" target="_top" xlink:title=" ">
<polygon fill="none" stroke="black" points="0,-38.5 0,-57.5 43,-57.5 43,-38.5 0,-38.5"/>
<text text-anchor="middle" x="21.5" y="-45.5" font-family="Helvetica,sans-Serif" font-size="10.00">clamp</text>
</a>
</g>
</g>
<!-- Node1&#45;&gt;Node2 -->
<g id="edge1" class="edge">
<title>Node1&#45;&gt;Node2</title>
<path fill="none" stroke="midnightblue" d="M69.05,-35.72C60.52,-37.97 51.12,-40.45 43.02,-42.59"/>
<polygon fill="midnightblue" stroke="midnightblue" points="70.1,-39.06 78.88,-33.12 68.31,-32.29 70.1,-39.06"/>
</g>
<!-- Node3 -->
<g id="node3" class="node">
<title>Node3</title>
<g id="a_node3"><a xlink:href="../../d2/de2/helper__math_8h.html#a4d54be3b6388d6a2a0d095b880de4d4a" target="_top" xlink:title=" ">
<polygon fill="none" stroke="black" points="5,-0.5 5,-19.5 38,-19.5 38,-0.5 5,-0.5"/>
<text text-anchor="middle" x="21.5" y="-7.5" font-family="Helvetica,sans-Serif" font-size="10.00">min</text>
</a>
</g>
</g>
<!-- Node1&#45;&gt;Node3 -->
<g id="edge2" class="edge">
<title>Node1&#45;&gt;Node3</title>
<path fill="none" stroke="midnightblue" d="M69.11,-22.3C58.77,-19.57 47.14,-16.5 38.09,-14.11"/>
<polygon fill="midnightblue" stroke="midnightblue" points="68.31,-25.71 78.88,-24.88 70.1,-18.94 68.31,-25.71"/>
</g>
</g>
</svg>
