<?xml version="1.0" encoding="UTF-8" standalone="no"?>
<!DOCTYPE svg PUBLIC "-//W3C//DTD SVG 1.1//EN"
 "http://www.w3.org/Graphics/SVG/1.1/DTD/svg11.dtd">
<!-- Generated by graphviz version 2.49.1 (20210923.0004)
 -->
<!-- Title: max Pages: 1 -->
<svg width="147pt" height="84pt"
 viewBox="0.00 0.00 147.00 84.00" xmlns="http://www.w3.org/2000/svg" xmlns:xlink="http://www.w3.org/1999/xlink">
<g id="graph0" class="graph" transform="scale(1 1) rotate(0) translate(4 80)">
<title>max</title>
<!-- Node1 -->
<g id="node1" class="node">
<title>Node1</title>
<g id="a_node1"><a xlink:title=" ">
<polygon fill="#bfbfbf" stroke="black" points="0,-19.5 0,-38.5 35,-38.5 35,-19.5 0,-19.5"/>
<text text-anchor="middle" x="17.5" y="-26.5" font-family="Helvetica,sans-Serif" font-size="10.00">max</text>
</a>
</g>
</g>
<!-- Node2 -->
<g id="node2" class="node">
<title>Node2</title>
<g id="a_node2"><a xlink:href="../../d2/de2/helper__math_8h.html#a0c63d36196448ce9bb8fb1d30db90a0c" target="_top" xlink:title=" ">
<polygon fill="none" stroke="black" points="71,-38.5 71,-57.5 139,-57.5 139,-38.5 71,-38.5"/>
<text text-anchor="middle" x="105" y="-45.5" font-family="Helvetica,sans-Serif" font-size="10.00">make_uint2</text>
</a>
</g>
</g>
<!-- Node1&#45;&gt;Node2 -->
<g id="edge1" class="edge">
<title>Node1&#45;&gt;Node2</title>
<path fill="none" stroke="midnightblue" d="M35.39,-32.75C42.83,-34.41 51.93,-36.43 61.05,-38.46"/>
<polygon fill="midnightblue" stroke="midnightblue" points="60.35,-41.88 70.87,-40.64 61.86,-35.05 60.35,-41.88"/>
</g>
<!-- Node3 -->
<g id="node3" class="node">
<title>Node3</title>
<g id="a_node3"><a xlink:href="../../d2/de2/helper__math_8h.html#af082905f7eac6d03e92015146bbc1925" target="_top" xlink:title=" ">
<polygon fill="none" stroke="black" points="87.5,-0.5 87.5,-19.5 122.5,-19.5 122.5,-0.5 87.5,-0.5"/>
<text text-anchor="middle" x="105" y="-7.5" font-family="Helvetica,sans-Serif" font-size="10.00">max</text>
</a>
</g>
</g>
<!-- Node1&#45;&gt;Node3 -->
<g id="edge3" class="edge">
<title>Node1&#45;&gt;Node3</title>
<path fill="none" stroke="midnightblue" d="M35.39,-25.25C47.41,-22.57 63.81,-18.93 77.55,-15.88"/>
<polygon fill="midnightblue" stroke="midnightblue" points="78.43,-19.27 87.43,-13.68 76.91,-12.43 78.43,-19.27"/>
</g>
<!-- Node2&#45;&gt;Node2 -->
<g id="edge2" class="edge">
<title>Node2&#45;&gt;Node2</title>
<path fill="none" stroke="midnightblue" d="M91.74,-57.76C85.3,-66.57 89.71,-76 105,-76 114.55,-76 119.86,-72.31 120.93,-67.4"/>
<polygon fill="midnightblue" stroke="midnightblue" points="124.3,-66.46 118.26,-57.76 117.55,-68.33 124.3,-66.46"/>
</g>
</g>
</svg>
