<?xml version="1.0" encoding="UTF-8" standalone="no"?>
<!DOCTYPE svg PUBLIC "-//W3C//DTD SVG 1.1//EN"
 "http://www.w3.org/Graphics/SVG/1.1/DTD/svg11.dtd">
<!-- Generated by graphviz version 2.49.1 (20210923.0004)
 -->
<!-- Title: fracf Pages: 1 -->
<svg width="226pt" height="46pt"
 viewBox="0.00 0.00 226.00 46.00" xmlns="http://www.w3.org/2000/svg" xmlns:xlink="http://www.w3.org/1999/xlink">
<g id="graph0" class="graph" transform="scale(1 1) rotate(0) translate(4 42)">
<title>fracf</title>
<!-- Node1 -->
<g id="node1" class="node">
<title>Node1</title>
<g id="a_node1"><a xlink:title=" ">
<polygon fill="#bfbfbf" stroke="black" points="0,-0.5 0,-19.5 36,-19.5 36,-0.5 0,-0.5"/>
<text text-anchor="middle" x="18" y="-7.5" font-family="Helvetica,sans-Serif" font-size="10.00">fracf</text>
</a>
</g>
</g>
<!-- Node2 -->
<g id="node2" class="node">
<title>Node2</title>
<g id="a_node2"><a xlink:href="../../d2/de2/helper__math_8h.html#adf6628c6a1c008e290b58ae210f051d6" target="_top" xlink:title=" ">
<polygon fill="none" stroke="black" points="72,-0.5 72,-19.5 111,-19.5 111,-0.5 72,-0.5"/>
<text text-anchor="middle" x="91.5" y="-7.5" font-family="Helvetica,sans-Serif" font-size="10.00">floorf</text>
</a>
</g>
</g>
<!-- Node1&#45;&gt;Node2 -->
<g id="edge1" class="edge">
<title>Node1&#45;&gt;Node2</title>
<path fill="none" stroke="midnightblue" d="M36.31,-10C43.95,-10 53.13,-10 61.76,-10"/>
<polygon fill="midnightblue" stroke="midnightblue" points="61.85,-13.5 71.85,-10 61.85,-6.5 61.85,-13.5"/>
</g>
<!-- Node2&#45;&gt;Node2 -->
<g id="edge2" class="edge">
<title>Node2&#45;&gt;Node2</title>
<path fill="none" stroke="midnightblue" d="M80.4,-19.76C75,-28.57 78.7,-38 91.5,-38 99.3,-38 103.72,-34.5 104.76,-29.77"/>
<polygon fill="midnightblue" stroke="midnightblue" points="108.13,-28.79 102.6,-19.76 101.29,-30.27 108.13,-28.79"/>
</g>
<!-- Node3 -->
<g id="node3" class="node">
<title>Node3</title>
<g id="a_node3"><a xlink:href="../../d2/de2/helper__math_8h.html#ae157a97cf7d77e6a05db0e0d22b85fb7" target="_top" xlink:title=" ">
<polygon fill="none" stroke="black" points="147,-0.5 147,-19.5 218,-19.5 218,-0.5 147,-0.5"/>
<text text-anchor="middle" x="182.5" y="-7.5" font-family="Helvetica,sans-Serif" font-size="10.00">make_float2</text>
</a>
</g>
</g>
<!-- Node2&#45;&gt;Node3 -->
<g id="edge3" class="edge">
<title>Node2&#45;&gt;Node3</title>
<path fill="none" stroke="midnightblue" d="M111.37,-10C118.86,-10 127.82,-10 136.79,-10"/>
<polygon fill="midnightblue" stroke="midnightblue" points="136.84,-13.5 146.84,-10 136.84,-6.5 136.84,-13.5"/>
</g>
<!-- Node3&#45;&gt;Node3 -->
<g id="edge4" class="edge">
<title>Node3&#45;&gt;Node3</title>
<path fill="none" stroke="midnightblue" d="M168.63,-19.76C161.88,-28.57 166.5,-38 182.5,-38 192.5,-38 198.05,-34.31 199.17,-29.4"/>
<polygon fill="midnightblue" stroke="midnightblue" points="202.52,-28.39 196.37,-19.76 195.79,-30.34 202.52,-28.39"/>
</g>
</g>
</svg>
