<?xml version="1.0" encoding="UTF-8" standalone="no"?>
<!DOCTYPE svg PUBLIC "-//W3C//DTD SVG 1.1//EN"
 "http://www.w3.org/Graphics/SVG/1.1/DTD/svg11.dtd">
<!-- Generated by graphviz version 2.49.1 (20210923.0004)
 -->
<!-- Title: operator* Pages: 1 -->
<svg width="173pt" height="46pt"
 viewBox="0.00 0.00 173.00 46.00" xmlns="http://www.w3.org/2000/svg" xmlns:xlink="http://www.w3.org/1999/xlink">
<g id="graph0" class="graph" transform="scale(1 1) rotate(0) translate(4 42)">
<title>operator*</title>
<!-- Node1 -->
<g id="node1" class="node">
<title>Node1</title>
<g id="a_node1"><a xlink:title=" ">
<polygon fill="#bfbfbf" stroke="black" points="0,-0.5 0,-19.5 58,-19.5 58,-0.5 0,-0.5"/>
<text text-anchor="middle" x="29" y="-7.5" font-family="Helvetica,sans-Serif" font-size="10.00">operator*</text>
</a>
</g>
</g>
<!-- Node2 -->
<g id="node2" class="node">
<title>Node2</title>
<g id="a_node2"><a xlink:href="../../d2/de2/helper__math_8h.html#a5ac86555d5a546106ec01ed56f8d48b4" target="_top" xlink:title=" ">
<polygon fill="none" stroke="black" points="94,-0.5 94,-19.5 165,-19.5 165,-0.5 94,-0.5"/>
<text text-anchor="middle" x="129.5" y="-7.5" font-family="Helvetica,sans-Serif" font-size="10.00">make_float4</text>
</a>
</g>
</g>
<!-- Node1&#45;&gt;Node2 -->
<g id="edge1" class="edge">
<title>Node1&#45;&gt;Node2</title>
<path fill="none" stroke="midnightblue" d="M58.23,-10C66.23,-10 75.16,-10 83.88,-10"/>
<polygon fill="midnightblue" stroke="midnightblue" points="83.97,-13.5 93.97,-10 83.97,-6.5 83.97,-13.5"/>
</g>
<!-- Node2&#45;&gt;Node2 -->
<g id="edge2" class="edge">
<title>Node2&#45;&gt;Node2</title>
<path fill="none" stroke="midnightblue" d="M114.09,-19.76C106.59,-28.57 111.73,-38 129.5,-38 140.61,-38 146.78,-34.31 148.02,-29.4"/>
<polygon fill="midnightblue" stroke="midnightblue" points="151.31,-28.2 144.91,-19.76 144.65,-30.35 151.31,-28.2"/>
</g>
</g>
</svg>
