<?xml version="1.0" encoding="UTF-8" standalone="no"?>
<!DOCTYPE svg PUBLIC "-//W3C//DTD SVG 1.1//EN"
 "http://www.w3.org/Graphics/SVG/1.1/DTD/svg11.dtd">
<!-- Generated by graphviz version 2.49.1 (20210923.0004)
 -->
<!-- Title: potentialHydrodynamics::potentialHydrodynamics Pages: 1 -->
<svg width="641pt" height="284pt"
 viewBox="0.00 0.00 641.00 284.00" xmlns="http://www.w3.org/2000/svg" xmlns:xlink="http://www.w3.org/1999/xlink">
<g id="graph0" class="graph" transform="scale(1 1) rotate(0) translate(4 280)">
<title>potentialHydrodynamics::potentialHydrodynamics</title>
<!-- Node1 -->
<g id="node1" class="node">
<title>Node1</title>
<g id="a_node1"><a xlink:title="Construct a new potential hydrodynamics object.">
<polygon fill="#bfbfbf" stroke="black" points="0,-122.5 0,-152.5 129,-152.5 129,-122.5 0,-122.5"/>
<text text-anchor="start" x="8" y="-140.5" font-family="Helvetica,sans-Serif" font-size="10.00">potentialHydrodynamics</text>
<text text-anchor="middle" x="64.5" y="-129.5" font-family="Helvetica,sans-Serif" font-size="10.00">::potentialHydrodynamics</text>
</a>
</g>
</g>
<!-- Node2 -->
<g id="node2" class="node">
<title>Node2</title>
<g id="a_node2"><a xlink:href="classpotentialHydrodynamics.html#acce7436c3cc8b62fe54fa61da98554f6" target="_top" xlink:title="Updates all hydrodynamic quantities at current configuration (data from systemData)">
<polygon fill="none" stroke="black" points="165,-122.5 165,-152.5 288,-152.5 288,-122.5 165,-122.5"/>
<text text-anchor="start" x="173" y="-140.5" font-family="Helvetica,sans-Serif" font-size="10.00">potentialHydrodynamics</text>
<text text-anchor="middle" x="226.5" y="-129.5" font-family="Helvetica,sans-Serif" font-size="10.00">::update</text>
</a>
</g>
</g>
<!-- Node1&#45;&gt;Node2 -->
<g id="edge1" class="edge">
<title>Node1&#45;&gt;Node2</title>
<path fill="none" stroke="midnightblue" d="M129.2,-137.5C137.56,-137.5 146.17,-137.5 154.65,-137.5"/>
<polygon fill="midnightblue" stroke="midnightblue" points="154.89,-141 164.89,-137.5 154.89,-134 154.89,-141"/>
</g>
<!-- Node3 -->
<g id="node3" class="node">
<title>Node3</title>
<g id="a_node3"><a xlink:href="classpotentialHydrodynamics.html#aca22661dfeb0029156532957df234042" target="_top" xlink:title="Calculates m_M_added">
<polygon fill="none" stroke="black" points="324,-245.5 324,-275.5 447,-275.5 447,-245.5 324,-245.5"/>
<text text-anchor="start" x="332" y="-263.5" font-family="Helvetica,sans-Serif" font-size="10.00">potentialHydrodynamics</text>
<text text-anchor="middle" x="385.5" y="-252.5" font-family="Helvetica,sans-Serif" font-size="10.00">::calcAddedMass</text>
</a>
</g>
</g>
<!-- Node2&#45;&gt;Node3 -->
<g id="edge2" class="edge">
<title>Node2&#45;&gt;Node3</title>
<path fill="none" stroke="midnightblue" d="M238.74,-152.51C255.31,-173.76 288.25,-212.67 324,-236.5 326.26,-238.01 328.62,-239.44 331.06,-240.8"/>
<polygon fill="midnightblue" stroke="midnightblue" points="329.61,-243.99 340.11,-245.43 332.8,-237.76 329.61,-243.99"/>
</g>
<!-- Node4 -->
<g id="node4" class="node">
<title>Node4</title>
<g id="a_node4"><a xlink:href="classpotentialHydrodynamics.html#a19d927bd0b419517d15b566c9132d632" target="_top" xlink:title="Calculates m_M_added">
<polygon fill="none" stroke="black" points="324,-196.5 324,-226.5 447,-226.5 447,-196.5 324,-196.5"/>
<text text-anchor="start" x="332" y="-214.5" font-family="Helvetica,sans-Serif" font-size="10.00">potentialHydrodynamics</text>
<text text-anchor="middle" x="385.5" y="-203.5" font-family="Helvetica,sans-Serif" font-size="10.00">::calcAddedMassGrad</text>
</a>
</g>
</g>
<!-- Node2&#45;&gt;Node4 -->
<g id="edge3" class="edge">
<title>Node2&#45;&gt;Node4</title>
<path fill="none" stroke="midnightblue" d="M255.01,-152.69C274.12,-163.01 300.31,-176.7 324,-187.5 327.76,-189.21 331.68,-190.93 335.64,-192.61"/>
<polygon fill="midnightblue" stroke="midnightblue" points="334.3,-195.84 344.88,-196.45 336.99,-189.38 334.3,-195.84"/>
</g>
<!-- Node6 -->
<g id="node6" class="node">
<title>Node6</title>
<g id="a_node6"><a xlink:href="classpotentialHydrodynamics.html#a5cb1d8a311e09f07c008329de161eccf" target="_top" xlink:title=" ">
<polygon fill="none" stroke="black" points="324,-147.5 324,-177.5 447,-177.5 447,-147.5 324,-147.5"/>
<text text-anchor="start" x="332" y="-165.5" font-family="Helvetica,sans-Serif" font-size="10.00">potentialHydrodynamics</text>
<text text-anchor="middle" x="385.5" y="-154.5" font-family="Helvetica,sans-Serif" font-size="10.00">::calcBodyTensors</text>
</a>
</g>
</g>
<!-- Node2&#45;&gt;Node6 -->
<g id="edge5" class="edge">
<title>Node2&#45;&gt;Node6</title>
<path fill="none" stroke="midnightblue" d="M288.2,-147.17C296.64,-148.51 305.36,-149.9 313.95,-151.27"/>
<polygon fill="midnightblue" stroke="midnightblue" points="313.54,-154.74 323.96,-152.86 314.64,-147.83 313.54,-154.74"/>
</g>
<!-- Node7 -->
<g id="node7" class="node">
<title>Node7</title>
<g id="a_node7"><a xlink:href="classpotentialHydrodynamics.html#a2b71af05a80cbe982c996d61b084695c" target="_top" xlink:title="Calculates m_F_hydro and m_F_hydroNoInertia">
<polygon fill="none" stroke="black" points="324,-98.5 324,-128.5 447,-128.5 447,-98.5 324,-98.5"/>
<text text-anchor="start" x="332" y="-116.5" font-family="Helvetica,sans-Serif" font-size="10.00">potentialHydrodynamics</text>
<text text-anchor="middle" x="385.5" y="-105.5" font-family="Helvetica,sans-Serif" font-size="10.00">::calcHydroForces</text>
</a>
</g>
</g>
<!-- Node2&#45;&gt;Node7 -->
<g id="edge6" class="edge">
<title>Node2&#45;&gt;Node7</title>
<path fill="none" stroke="midnightblue" d="M288.2,-128.22C296.64,-126.93 305.36,-125.6 313.95,-124.28"/>
<polygon fill="midnightblue" stroke="midnightblue" points="314.6,-127.73 323.96,-122.75 313.55,-120.81 314.6,-127.73"/>
</g>
<!-- Node10 -->
<g id="node10" class="node">
<title>Node10</title>
<g id="a_node10"><a xlink:href="classpotentialHydrodynamics.html#a5d70cd3d03dfe2f7f1a4c970994fffe0" target="_top" xlink:title="Calculates m_r_mag_ab and m_r_ab at current configuration.">
<polygon fill="none" stroke="black" points="324,-49.5 324,-79.5 447,-79.5 447,-49.5 324,-49.5"/>
<text text-anchor="start" x="332" y="-67.5" font-family="Helvetica,sans-Serif" font-size="10.00">potentialHydrodynamics</text>
<text text-anchor="middle" x="385.5" y="-56.5" font-family="Helvetica,sans-Serif" font-size="10.00">::calcParticleDistances</text>
</a>
</g>
</g>
<!-- Node2&#45;&gt;Node10 -->
<g id="edge10" class="edge">
<title>Node2&#45;&gt;Node10</title>
<path fill="none" stroke="midnightblue" d="M256.38,-122.47C275.43,-112.73 301,-99.95 324,-89.5 328.36,-87.52 332.93,-85.51 337.51,-83.54"/>
<polygon fill="midnightblue" stroke="midnightblue" points="339.05,-86.69 346.89,-79.57 336.31,-80.24 339.05,-86.69"/>
</g>
<!-- Node11 -->
<g id="node11" class="node">
<title>Node11</title>
<g id="a_node11"><a xlink:href="classpotentialHydrodynamics.html#a4ebdc0aa027f2a9e4f1f34bf781dffe9" target="_top" xlink:title="Calculates m_M_added">
<polygon fill="none" stroke="black" points="324,-0.5 324,-30.5 447,-30.5 447,-0.5 324,-0.5"/>
<text text-anchor="start" x="332" y="-18.5" font-family="Helvetica,sans-Serif" font-size="10.00">potentialHydrodynamics</text>
<text text-anchor="middle" x="385.5" y="-7.5" font-family="Helvetica,sans-Serif" font-size="10.00">::calcTotalMass</text>
</a>
</g>
</g>
<!-- Node2&#45;&gt;Node11 -->
<g id="edge11" class="edge">
<title>Node2&#45;&gt;Node11</title>
<path fill="none" stroke="midnightblue" d="M239.05,-122.29C255.76,-101.19 288.57,-62.98 324,-39.5 326.26,-38 328.63,-36.57 331.07,-35.21"/>
<polygon fill="midnightblue" stroke="midnightblue" points="332.8,-38.26 340.12,-30.6 329.62,-32.02 332.8,-38.26"/>
</g>
<!-- Node5 -->
<g id="node5" class="node">
<title>Node5</title>
<g id="a_node5"><a xlink:href="helper__eigenTensorConversion_8hpp.html#a556fb613b733267c9404648bc66bd0bd" target="_top" xlink:title="Convert Eigen::Matrix &#45;&#45;&gt; Eigen::Tensor.">
<polygon fill="none" stroke="black" points="483,-172 483,-191 550,-191 550,-172 483,-172"/>
<text text-anchor="middle" x="516.5" y="-179" font-family="Helvetica,sans-Serif" font-size="10.00">TensorCast</text>
</a>
</g>
</g>
<!-- Node4&#45;&gt;Node5 -->
<g id="edge4" class="edge">
<title>Node4&#45;&gt;Node5</title>
<path fill="none" stroke="midnightblue" d="M447.22,-197.38C455.96,-195.35 464.78,-193.29 473.06,-191.37"/>
<polygon fill="midnightblue" stroke="midnightblue" points="473.89,-194.77 482.84,-189.1 472.31,-187.95 473.89,-194.77"/>
</g>
<!-- Node7&#45;&gt;Node5 -->
<g id="edge9" class="edge">
<title>Node7&#45;&gt;Node5</title>
<path fill="none" stroke="midnightblue" d="M425.67,-128.55C432.86,-131.63 440.23,-135.01 447,-138.5 463.02,-146.76 480.2,-157.55 493.35,-166.26"/>
<polygon fill="midnightblue" stroke="midnightblue" points="491.49,-169.22 501.74,-171.89 495.39,-163.41 491.49,-169.22"/>
</g>
<!-- Node8 -->
<g id="node8" class="node">
<title>Node8</title>
<g id="a_node8"><a xlink:href="helper__eigenTensorConversion_8hpp.html#a556d08b55a6ad7cd703b6db06194e5cf" target="_top" xlink:title=" ">
<polygon fill="none" stroke="black" points="484.5,-104 484.5,-123 548.5,-123 548.5,-104 484.5,-104"/>
<text text-anchor="middle" x="516.5" y="-111" font-family="Helvetica,sans-Serif" font-size="10.00">MatrixCast</text>
</a>
</g>
</g>
<!-- Node7&#45;&gt;Node8 -->
<g id="edge7" class="edge">
<title>Node7&#45;&gt;Node8</title>
<path fill="none" stroke="midnightblue" d="M447.22,-113.5C456.33,-113.5 465.54,-113.5 474.11,-113.5"/>
<polygon fill="midnightblue" stroke="midnightblue" points="474.22,-117 484.22,-113.5 474.22,-110 474.22,-117"/>
</g>
<!-- Node9 -->
<g id="node9" class="node">
<title>Node9</title>
<g id="a_node9"><a xlink:href="helper__eigenTensorConversion_8hpp.html#a2a7eca6b17fb874869047bd0b5f11b46" target="_top" xlink:title="Convert between Eigen::Tensor and Eigen::Matrix classes.">
<polygon fill="none" stroke="black" points="586,-104 586,-123 633,-123 633,-104 586,-104"/>
<text text-anchor="middle" x="609.5" y="-111" font-family="Helvetica,sans-Serif" font-size="10.00">asEval</text>
</a>
</g>
</g>
<!-- Node8&#45;&gt;Node9 -->
<g id="edge8" class="edge">
<title>Node8&#45;&gt;Node9</title>
<path fill="none" stroke="midnightblue" d="M548.56,-113.5C557.37,-113.5 566.98,-113.5 575.88,-113.5"/>
<polygon fill="midnightblue" stroke="midnightblue" points="575.9,-117 585.9,-113.5 575.9,-110 575.9,-117"/>
</g>
</g>
</svg>
