<?xml version="1.0" encoding="UTF-8" standalone="no"?>
<!DOCTYPE svg PUBLIC "-//W3C//DTD SVG 1.1//EN"
 "http://www.w3.org/Graphics/SVG/1.1/DTD/svg11.dtd">
<!-- Generated by graphviz version 2.43.0 (0)
 -->
<!-- Title: SystemData::initializeData Pages: 1 -->
<svg width="776pt" height="464pt"
 viewBox="0.00 0.00 776.00 464.00" xmlns="http://www.w3.org/2000/svg" xmlns:xlink="http://www.w3.org/1999/xlink">
<g id="graph0" class="graph" transform="scale(1 1) rotate(0) translate(4 460)">
<title>SystemData::initializeData</title>
<!-- Node1 -->
<g id="node1" class="node">
<title>Node1</title>
<g id="a_node1"><a xlink:title="Function loads data from GSD file using GSDUtil class.">
<polygon fill="#bfbfbf" stroke="black" points="0,-357.5 0,-376.5 134,-376.5 134,-357.5 0,-357.5"/>
<text text-anchor="middle" x="67" y="-364.5" font-family="Helvetica,sans-Serif" font-size="10.00">SystemData::initializeData</text>
</a>
</g>
</g>
<!-- Node2 -->
<g id="node2" class="node">
<title>Node2</title>
<g id="a_node2"><a xlink:href="classSystemData.html#a58d7292b7fd9035265eca81d0f088a27" target="_top" xlink:title="Logs private attributes to logfile.">
<polygon fill="none" stroke="black" points="176,-395.5 176,-414.5 287,-414.5 287,-395.5 176,-395.5"/>
<text text-anchor="middle" x="231.5" y="-402.5" font-family="Helvetica,sans-Serif" font-size="10.00">SystemData::logData</text>
</a>
</g>
</g>
<!-- Node1&#45;&gt;Node2 -->
<g id="edge1" class="edge">
<title>Node1&#45;&gt;Node2</title>
<path fill="none" stroke="midnightblue" d="M109.01,-376.59C130.55,-381.63 157.13,-387.84 179.94,-393.18"/>
<polygon fill="midnightblue" stroke="midnightblue" points="179.25,-396.61 189.79,-395.48 180.85,-389.79 179.25,-396.61"/>
</g>
<!-- Node3 -->
<g id="node3" class="node">
<title>Node3</title>
<g id="a_node3"><a xlink:href="classSystemData.html#aa2eb6d7a8870f81a9f4e6484c1f8751c" target="_top" xlink:title="Passes this (SystemData shared pointer instance) into GSDUtil constructor to load data from input GSD...">
<polygon fill="none" stroke="black" points="170,-357.5 170,-376.5 293,-376.5 293,-357.5 170,-357.5"/>
<text text-anchor="middle" x="231.5" y="-364.5" font-family="Helvetica,sans-Serif" font-size="10.00">SystemData::parseGSD</text>
</a>
</g>
</g>
<!-- Node1&#45;&gt;Node3 -->
<g id="edge2" class="edge">
<title>Node1&#45;&gt;Node3</title>
<path fill="none" stroke="midnightblue" d="M134.09,-367C142.53,-367 151.19,-367 159.69,-367"/>
<polygon fill="midnightblue" stroke="midnightblue" points="159.96,-370.5 169.96,-367 159.96,-363.5 159.96,-370.5"/>
</g>
<!-- Node5 -->
<g id="node5" class="node">
<title>Node5</title>
<g id="a_node5"><a xlink:href="classSystemData.html#aa1dc8988cbb137f2667af95ca52a709c" target="_top" xlink:title="Updates all relevant rigid body motion tensors, respective gradients, and kinematic/Udwadia constrain...">
<polygon fill="none" stroke="black" points="178,-241.5 178,-260.5 285,-260.5 285,-241.5 178,-241.5"/>
<text text-anchor="middle" x="231.5" y="-248.5" font-family="Helvetica,sans-Serif" font-size="10.00">SystemData::update</text>
</a>
</g>
</g>
<!-- Node1&#45;&gt;Node5 -->
<g id="edge4" class="edge">
<title>Node1&#45;&gt;Node5</title>
<path fill="none" stroke="midnightblue" d="M81.58,-357.31C109.72,-337.22 174.66,-290.86 208.73,-266.54"/>
<polygon fill="midnightblue" stroke="midnightblue" points="210.97,-269.24 217.08,-260.58 206.91,-263.54 210.97,-269.24"/>
</g>
<!-- Node4 -->
<g id="node4" class="node">
<title>Node4</title>
<g id="a_node4"><a xlink:href="classSystemData.html#a534384a0e92c8a0ffbcec636afbdf65e" target="_top" xlink:title="Various assertions to check data loaded from GSD is at least physical.">
<polygon fill="none" stroke="black" points="350,-436.5 350,-455.5 475,-455.5 475,-436.5 350,-436.5"/>
<text text-anchor="middle" x="412.5" y="-443.5" font-family="Helvetica,sans-Serif" font-size="10.00">SystemData::checkInput</text>
</a>
</g>
</g>
<!-- Node3&#45;&gt;Node4 -->
<g id="edge3" class="edge">
<title>Node3&#45;&gt;Node4</title>
<path fill="none" stroke="midnightblue" d="M273.58,-376.54C280.36,-379.04 287.1,-382.15 293,-386 313.32,-399.23 308.18,-414.57 329,-427 332.69,-429.2 336.62,-431.15 340.67,-432.87"/>
<polygon fill="midnightblue" stroke="midnightblue" points="339.74,-436.26 350.33,-436.5 342.2,-429.71 339.74,-436.26"/>
</g>
<!-- Node6 -->
<g id="node6" class="node">
<title>Node6</title>
<g id="a_node6"><a xlink:href="classSystemData.html#a188c38c8448ed32d3cf697b6f07b9d6a" target="_top" xlink:title="Computes the articulation (linear) accelerations of the particles relative to their respective locate...">
<polygon fill="none" stroke="black" points="345,-261 345,-291 480,-291 480,-261 345,-261"/>
<text text-anchor="start" x="353" y="-279" font-family="Helvetica,sans-Serif" font-size="10.00">SystemData::accelerations</text>
<text text-anchor="middle" x="412.5" y="-268" font-family="Helvetica,sans-Serif" font-size="10.00">Articulation</text>
</a>
</g>
</g>
<!-- Node5&#45;&gt;Node6 -->
<g id="edge5" class="edge">
<title>Node5&#45;&gt;Node6</title>
<path fill="none" stroke="midnightblue" d="M285.24,-258.37C300.7,-260.52 317.92,-262.93 334.56,-265.25"/>
<polygon fill="midnightblue" stroke="midnightblue" points="334.44,-268.77 344.82,-266.69 335.4,-261.84 334.44,-268.77"/>
</g>
<!-- Node7 -->
<g id="node7" class="node">
<title>Node7</title>
<g id="a_node7"><a xlink:href="classSystemData.html#a000a3e77f12b4c1bc9678e9ede202f83" target="_top" xlink:title="Computes the orientation (unit vector) of a particle with respect to its locater point.">
<polygon fill="none" stroke="black" points="344,-212 344,-242 481,-242 481,-212 344,-212"/>
<text text-anchor="start" x="352" y="-230" font-family="Helvetica,sans-Serif" font-size="10.00">SystemData::convertBody2</text>
<text text-anchor="middle" x="412.5" y="-219" font-family="Helvetica,sans-Serif" font-size="10.00">ParticleOrient</text>
</a>
</g>
</g>
<!-- Node5&#45;&gt;Node7 -->
<g id="edge6" class="edge">
<title>Node5&#45;&gt;Node7</title>
<path fill="none" stroke="midnightblue" d="M285.24,-243.93C300.44,-241.89 317.35,-239.62 333.73,-237.43"/>
<polygon fill="midnightblue" stroke="midnightblue" points="334.4,-240.87 343.84,-236.07 333.47,-233.93 334.4,-240.87"/>
</g>
<!-- Node10 -->
<g id="node10" class="node">
<title>Node10</title>
<g id="a_node10"><a xlink:href="classSystemData.html#a3edab27c866d9031739a8bd3b09bac42" target="_top" xlink:title="Computes the positions of all particles from given locater positions and body orientations.">
<polygon fill="none" stroke="black" points="344,-163 344,-193 481,-193 481,-163 344,-163"/>
<text text-anchor="start" x="352" y="-181" font-family="Helvetica,sans-Serif" font-size="10.00">SystemData::convertBody2</text>
<text text-anchor="middle" x="412.5" y="-170" font-family="Helvetica,sans-Serif" font-size="10.00">ParticlePos</text>
</a>
</g>
</g>
<!-- Node5&#45;&gt;Node10 -->
<g id="edge9" class="edge">
<title>Node5&#45;&gt;Node10</title>
<path fill="none" stroke="midnightblue" d="M249.53,-241.43C268.51,-231.04 300.3,-214.39 329,-203 334.84,-200.68 340.99,-198.45 347.18,-196.34"/>
<polygon fill="midnightblue" stroke="midnightblue" points="348.51,-199.59 356.91,-193.13 346.32,-192.94 348.51,-199.59"/>
</g>
<!-- Node11 -->
<g id="node11" class="node">
<title>Node11</title>
<g id="a_node11"><a xlink:href="classSystemData.html#a7da2011ba5d866e5338b14e8b04ace70" target="_top" xlink:title="Computes the particle D.o.F. from the body D.o.F.">
<polygon fill="none" stroke="black" points="344,-114 344,-144 481,-144 481,-114 344,-114"/>
<text text-anchor="start" x="352" y="-132" font-family="Helvetica,sans-Serif" font-size="10.00">SystemData::convertBody2</text>
<text text-anchor="middle" x="412.5" y="-121" font-family="Helvetica,sans-Serif" font-size="10.00">ParticleVelAcc</text>
</a>
</g>
</g>
<!-- Node5&#45;&gt;Node11 -->
<g id="edge10" class="edge">
<title>Node5&#45;&gt;Node11</title>
<path fill="none" stroke="midnightblue" d="M239.34,-241.46C253.73,-222.1 289.09,-177.98 329,-154 332.61,-151.83 336.42,-149.84 340.34,-148.01"/>
<polygon fill="midnightblue" stroke="midnightblue" points="341.85,-151.17 349.67,-144.02 339.1,-144.73 341.85,-151.17"/>
</g>
<!-- Node15 -->
<g id="node15" class="node">
<title>Node15</title>
<g id="a_node15"><a xlink:href="classSystemData.html#a301fa1815b3b68cffc789f1824e29f5e" target="_top" xlink:title="Computes the gradients rigid body motion connectivity tensors and tensors associated with change of v...">
<polygon fill="none" stroke="black" points="339.5,-65 339.5,-95 485.5,-95 485.5,-65 339.5,-65"/>
<text text-anchor="start" x="347.5" y="-83" font-family="Helvetica,sans-Serif" font-size="10.00">SystemData::gradientChange</text>
<text text-anchor="middle" x="412.5" y="-72" font-family="Helvetica,sans-Serif" font-size="10.00">OfVariableTensors</text>
</a>
</g>
</g>
<!-- Node5&#45;&gt;Node15 -->
<g id="edge14" class="edge">
<title>Node5&#45;&gt;Node15</title>
<path fill="none" stroke="midnightblue" d="M236.21,-241.13C246.6,-214.85 278.57,-142.58 329,-105 331.5,-103.14 334.14,-101.41 336.88,-99.81"/>
<polygon fill="midnightblue" stroke="midnightblue" points="338.65,-102.84 345.92,-95.13 335.43,-96.62 338.65,-102.84"/>
</g>
<!-- Node17 -->
<g id="node17" class="node">
<title>Node17</title>
<g id="a_node17"><a xlink:href="classSystemData.html#a30df4f73d78f6886da32559eda83595d" target="_top" xlink:title="Computes the articulation (linear) positions of the particles relative to their respective locater po...">
<polygon fill="none" stroke="black" points="330,-398.5 330,-417.5 495,-417.5 495,-398.5 330,-398.5"/>
<text text-anchor="middle" x="412.5" y="-405.5" font-family="Helvetica,sans-Serif" font-size="10.00">SystemData::positionsArticulation</text>
</a>
</g>
</g>
<!-- Node5&#45;&gt;Node17 -->
<g id="edge17" class="edge">
<title>Node5&#45;&gt;Node17</title>
<path fill="none" stroke="midnightblue" d="M238.03,-260.69C254.45,-289.19 303.43,-371.75 329,-389 331.95,-390.99 335.09,-392.78 338.34,-394.38"/>
<polygon fill="midnightblue" stroke="midnightblue" points="337.2,-397.7 347.77,-398.41 339.95,-391.26 337.2,-397.7"/>
</g>
<!-- Node18 -->
<g id="node18" class="node">
<title>Node18</title>
<g id="a_node18"><a xlink:href="classSystemData.html#ae08b2263f2981e57d0f12ba7881a083b" target="_top" xlink:title="Computes the rigid body motion connectivity tensors.">
<polygon fill="none" stroke="black" points="339,-16 339,-46 486,-46 486,-16 339,-16"/>
<text text-anchor="start" x="347" y="-34" font-family="Helvetica,sans-Serif" font-size="10.00">SystemData::rigidBodyMotion</text>
<text text-anchor="middle" x="412.5" y="-23" font-family="Helvetica,sans-Serif" font-size="10.00">Tensors</text>
</a>
</g>
</g>
<!-- Node5&#45;&gt;Node18 -->
<g id="edge18" class="edge">
<title>Node5&#45;&gt;Node18</title>
<path fill="none" stroke="midnightblue" d="M234.42,-241.12C241.17,-209.08 266.83,-107.18 329,-55 330.54,-53.71 332.15,-52.48 333.82,-51.32"/>
<polygon fill="midnightblue" stroke="midnightblue" points="335.79,-54.22 342.55,-46.06 332.18,-48.22 335.79,-54.22"/>
</g>
<!-- Node20 -->
<g id="node20" class="node">
<title>Node20</title>
<g id="a_node20"><a xlink:href="classSystemData.html#ad1a6489951a00124901c1947381a9be8" target="_top" xlink:title="Computes the Udwadia constraint matrix and vector to uphold the quaternion unitary norm for each body...">
<polygon fill="none" stroke="black" points="342.5,-349 342.5,-379 482.5,-379 482.5,-349 342.5,-349"/>
<text text-anchor="start" x="350.5" y="-367" font-family="Helvetica,sans-Serif" font-size="10.00">SystemData::udwadiaLinear</text>
<text text-anchor="middle" x="412.5" y="-356" font-family="Helvetica,sans-Serif" font-size="10.00">System</text>
</a>
</g>
</g>
<!-- Node5&#45;&gt;Node20 -->
<g id="edge22" class="edge">
<title>Node5&#45;&gt;Node20</title>
<path fill="none" stroke="midnightblue" d="M240.48,-260.72C255.79,-278.75 291.15,-317.49 329,-339 332.73,-341.12 336.66,-343.08 340.7,-344.89"/>
<polygon fill="midnightblue" stroke="midnightblue" points="339.7,-348.26 350.28,-348.84 342.37,-341.79 339.7,-348.26"/>
</g>
<!-- Node21 -->
<g id="node21" class="node">
<title>Node21</title>
<g id="a_node21"><a xlink:href="classSystemData.html#a92ce50a4c8b53aa6a490153c1b09ab8a" target="_top" xlink:title="Computes the articulation (linear) velocities of the particles relative to their respective locater p...">
<polygon fill="none" stroke="black" points="329,-310.5 329,-329.5 496,-329.5 496,-310.5 329,-310.5"/>
<text text-anchor="middle" x="412.5" y="-317.5" font-family="Helvetica,sans-Serif" font-size="10.00">SystemData::velocitiesArticulation</text>
</a>
</g>
</g>
<!-- Node5&#45;&gt;Node21 -->
<g id="edge23" class="edge">
<title>Node5&#45;&gt;Node21</title>
<path fill="none" stroke="midnightblue" d="M247.99,-260.59C266.6,-271.73 299.07,-290 329,-301 336,-303.57 343.47,-305.87 350.95,-307.91"/>
<polygon fill="midnightblue" stroke="midnightblue" points="350.18,-311.32 360.74,-310.43 351.93,-304.55 350.18,-311.32"/>
</g>
<!-- Node8 -->
<g id="node8" class="node">
<title>Node8</title>
<g id="a_node8"><a xlink:href="helper__math_8h.html#ae4378072f9d836b0d4770a1514db2be3" target="_top" xlink:title=" ">
<polygon fill="none" stroke="black" points="585,-217.5 585,-236.5 617,-236.5 617,-217.5 585,-217.5"/>
<text text-anchor="middle" x="601" y="-224.5" font-family="Helvetica,sans-Serif" font-size="10.00">abs</text>
</a>
</g>
</g>
<!-- Node7&#45;&gt;Node8 -->
<g id="edge7" class="edge">
<title>Node7&#45;&gt;Node8</title>
<path fill="none" stroke="midnightblue" d="M481.09,-227C513.64,-227 550.7,-227 574.68,-227"/>
<polygon fill="midnightblue" stroke="midnightblue" points="574.71,-230.5 584.71,-227 574.71,-223.5 574.71,-230.5"/>
</g>
<!-- Node9 -->
<g id="node9" class="node">
<title>Node9</title>
<g id="a_node9"><a xlink:href="helper__math_8h.html#a3be05aff487ded3c05aab21d24dd6439" target="_top" xlink:title=" ">
<polygon fill="none" stroke="black" points="706,-217.5 706,-236.5 768,-236.5 768,-217.5 706,-217.5"/>
<text text-anchor="middle" x="737" y="-224.5" font-family="Helvetica,sans-Serif" font-size="10.00">make_int2</text>
</a>
</g>
</g>
<!-- Node8&#45;&gt;Node9 -->
<g id="edge8" class="edge">
<title>Node8&#45;&gt;Node9</title>
<path fill="none" stroke="midnightblue" d="M617.11,-227C636.02,-227 669.15,-227 695.64,-227"/>
<polygon fill="midnightblue" stroke="midnightblue" points="695.79,-230.5 705.79,-227 695.79,-223.5 695.79,-230.5"/>
</g>
<!-- Node12 -->
<g id="node12" class="node">
<title>Node12</title>
<g id="a_node12"><a xlink:href="helper__eigenTensorConversion_8hpp.html#a556d08b55a6ad7cd703b6db06194e5cf" target="_top" xlink:title=" ">
<polygon fill="none" stroke="black" points="568.5,-119.5 568.5,-138.5 633.5,-138.5 633.5,-119.5 568.5,-119.5"/>
<text text-anchor="middle" x="601" y="-126.5" font-family="Helvetica,sans-Serif" font-size="10.00">MatrixCast</text>
</a>
</g>
</g>
<!-- Node11&#45;&gt;Node12 -->
<g id="edge11" class="edge">
<title>Node11&#45;&gt;Node12</title>
<path fill="none" stroke="midnightblue" d="M481.09,-129C506.83,-129 535.4,-129 558.08,-129"/>
<polygon fill="midnightblue" stroke="midnightblue" points="558.38,-132.5 568.38,-129 558.38,-125.5 558.38,-132.5"/>
</g>
<!-- Node14 -->
<g id="node14" class="node">
<title>Node14</title>
<g id="a_node14"><a xlink:href="helper__eigenTensorConversion_8hpp.html#a3a32f7de3f099464192073a93b34d580" target="_top" xlink:title="Convert Eigen::Matrix &#45;&#45;&gt; Eigen::Tensor.">
<polygon fill="none" stroke="black" points="567.5,-76.5 567.5,-95.5 634.5,-95.5 634.5,-76.5 567.5,-76.5"/>
<text text-anchor="middle" x="601" y="-83.5" font-family="Helvetica,sans-Serif" font-size="10.00">TensorCast</text>
</a>
</g>
</g>
<!-- Node11&#45;&gt;Node14 -->
<g id="edge13" class="edge">
<title>Node11&#45;&gt;Node14</title>
<path fill="none" stroke="midnightblue" d="M478.73,-113.96C504.81,-107.95 534.11,-101.19 557.37,-95.83"/>
<polygon fill="midnightblue" stroke="midnightblue" points="558.32,-99.2 567.28,-93.54 556.75,-92.38 558.32,-99.2"/>
</g>
<!-- Node13 -->
<g id="node13" class="node">
<title>Node13</title>
<g id="a_node13"><a xlink:href="helper__eigenTensorConversion_8hpp.html#a2a7eca6b17fb874869047bd0b5f11b46" target="_top" xlink:title="Convert between Eigen::Tensor and Eigen::Matrix classes.">
<polygon fill="none" stroke="black" points="713.5,-119.5 713.5,-138.5 760.5,-138.5 760.5,-119.5 713.5,-119.5"/>
<text text-anchor="middle" x="737" y="-126.5" font-family="Helvetica,sans-Serif" font-size="10.00">asEval</text>
</a>
</g>
</g>
<!-- Node12&#45;&gt;Node13 -->
<g id="edge12" class="edge">
<title>Node12&#45;&gt;Node13</title>
<path fill="none" stroke="midnightblue" d="M633.76,-129C654.68,-129 682.01,-129 703.15,-129"/>
<polygon fill="midnightblue" stroke="midnightblue" points="703.27,-132.5 713.27,-129 703.27,-125.5 703.27,-132.5"/>
</g>
<!-- Node15&#45;&gt;Node14 -->
<g id="edge16" class="edge">
<title>Node15&#45;&gt;Node14</title>
<path fill="none" stroke="midnightblue" d="M485.61,-82.32C509.63,-83.09 535.64,-83.93 556.77,-84.61"/>
<polygon fill="midnightblue" stroke="midnightblue" points="556.92,-88.12 567.03,-84.94 557.15,-81.12 556.92,-88.12"/>
</g>
<!-- Node16 -->
<g id="node16" class="node">
<title>Node16</title>
<g id="a_node16"><a xlink:href="classSystemData.html#ae26a9488a5a2aa80082fba98c7b9d004" target="_top" xlink:title="Computes the E matrix of quaternion (4&#45;vector) input.">
<polygon fill="none" stroke="black" points="546,-38.5 546,-57.5 656,-57.5 656,-38.5 546,-38.5"/>
<text text-anchor="middle" x="601" y="-45.5" font-family="Helvetica,sans-Serif" font-size="10.00">SystemData::eMatrix</text>
</a>
</g>
</g>
<!-- Node15&#45;&gt;Node16 -->
<g id="edge15" class="edge">
<title>Node15&#45;&gt;Node16</title>
<path fill="none" stroke="midnightblue" d="M485.61,-67.63C502.16,-64.79 519.65,-61.79 535.84,-59.01"/>
<polygon fill="midnightblue" stroke="midnightblue" points="536.47,-62.45 545.73,-57.31 535.28,-55.55 536.47,-62.45"/>
</g>
<!-- Node18&#45;&gt;Node14 -->
<g id="edge21" class="edge">
<title>Node18&#45;&gt;Node14</title>
<path fill="none" stroke="midnightblue" d="M466.4,-46.06C476.26,-48.96 486.46,-52.02 496,-55 512.1,-60.02 515.87,-62.06 532,-67 540.26,-69.53 549.12,-72.1 557.62,-74.51"/>
<polygon fill="midnightblue" stroke="midnightblue" points="556.82,-77.92 567.39,-77.24 558.7,-71.18 556.82,-77.92"/>
</g>
<!-- Node18&#45;&gt;Node16 -->
<g id="edge20" class="edge">
<title>Node18&#45;&gt;Node16</title>
<path fill="none" stroke="midnightblue" d="M486.14,-37.62C502.42,-39.1 519.57,-40.67 535.49,-42.12"/>
<polygon fill="midnightblue" stroke="midnightblue" points="535.48,-45.63 545.76,-43.06 536.11,-38.66 535.48,-45.63"/>
</g>
<!-- Node19 -->
<g id="node19" class="node">
<title>Node19</title>
<g id="a_node19"><a xlink:href="classSystemData.html#a7cefde66d9e18e2517f11505dd434d0e" target="_top" xlink:title="Function takes in vector in vector cross&#45;product expression: .">
<polygon fill="none" stroke="black" points="532,-0.5 532,-19.5 670,-19.5 670,-0.5 532,-0.5"/>
<text text-anchor="middle" x="601" y="-7.5" font-family="Helvetica,sans-Serif" font-size="10.00">SystemData::crossProdMat</text>
</a>
</g>
</g>
<!-- Node18&#45;&gt;Node19 -->
<g id="edge19" class="edge">
<title>Node18&#45;&gt;Node19</title>
<path fill="none" stroke="midnightblue" d="M486.14,-22.82C497.77,-21.51 509.85,-20.15 521.6,-18.83"/>
<polygon fill="midnightblue" stroke="midnightblue" points="522.28,-22.27 531.83,-17.68 521.5,-15.32 522.28,-22.27"/>
</g>
</g>
</svg>
