<?xml version="1.0" encoding="UTF-8" standalone="no"?>
<!DOCTYPE svg PUBLIC "-//W3C//DTD SVG 1.1//EN"
 "http://www.w3.org/Graphics/SVG/1.1/DTD/svg11.dtd">
<!-- Generated by graphviz version 2.43.0 (0)
 -->
<!-- Title: systemData::crossProdMat Pages: 1 -->
<svg width="747pt" height="39pt"
 viewBox="0.00 0.00 747.00 39.00" xmlns="http://www.w3.org/2000/svg" xmlns:xlink="http://www.w3.org/1999/xlink">
<g id="graph0" class="graph" transform="scale(1 1) rotate(0) translate(4 35)">
<title>systemData::crossProdMat</title>
<!-- Node1 -->
<g id="node1" class="node">
<title>Node1</title>
<g id="a_node1"><a xlink:title="Function takes in vector in vector cross&#45;product expression: .">
<polygon fill="#bfbfbf" stroke="black" points="602,-6 602,-25 739,-25 739,-6 602,-6"/>
<text text-anchor="middle" x="670.5" y="-13" font-family="Helvetica,sans-Serif" font-size="10.00">systemData::crossProdMat</text>
</a>
</g>
</g>
<!-- Node2 -->
<g id="node2" class="node">
<title>Node2</title>
<g id="a_node2"><a xlink:href="classsystemData.html#a05afc9e7e7423d88def51ec43ab91a33" target="_top" xlink:title="Computes the rigid body motion connectivity tensors.">
<polygon fill="none" stroke="black" points="420,-0.5 420,-30.5 566,-30.5 566,-0.5 420,-0.5"/>
<text text-anchor="start" x="428" y="-18.5" font-family="Helvetica,sans-Serif" font-size="10.00">systemData::rigidBodyMotion</text>
<text text-anchor="middle" x="493" y="-7.5" font-family="Helvetica,sans-Serif" font-size="10.00">Tensors</text>
</a>
</g>
</g>
<!-- Node1&#45;&gt;Node2 -->
<g id="edge1" class="edge">
<title>Node1&#45;&gt;Node2</title>
<path fill="none" stroke="midnightblue" d="M591.66,-15.5C583.2,-15.5 574.62,-15.5 566.23,-15.5"/>
<polygon fill="midnightblue" stroke="midnightblue" points="591.9,-19 601.9,-15.5 591.9,-12 591.9,-19"/>
</g>
<!-- Node3 -->
<g id="node3" class="node">
<title>Node3</title>
<g id="a_node3"><a xlink:href="classsystemData.html#abe08e8ef40710f40f585342d24076085" target="_top" xlink:title="Updates all relevant rigid body motion tensors, respective gradients, and kinematic/Udwadia constrain...">
<polygon fill="none" stroke="black" points="279,-6 279,-25 384,-25 384,-6 279,-6"/>
<text text-anchor="middle" x="331.5" y="-13" font-family="Helvetica,sans-Serif" font-size="10.00">systemData::update</text>
</a>
</g>
</g>
<!-- Node2&#45;&gt;Node3 -->
<g id="edge2" class="edge">
<title>Node2&#45;&gt;Node3</title>
<path fill="none" stroke="midnightblue" d="M409.53,-15.5C400.85,-15.5 392.22,-15.5 384.04,-15.5"/>
<polygon fill="midnightblue" stroke="midnightblue" points="409.72,-19 419.72,-15.5 409.72,-12 409.72,-19"/>
</g>
<!-- Node4 -->
<g id="node4" class="node">
<title>Node4</title>
<g id="a_node4"><a xlink:href="classsystemData.html#ad2ba3455704ef6cec1aac76a417e91e9" target="_top" xlink:title="Function loads data from GSD file using GSDUtil class.">
<polygon fill="none" stroke="black" points="111,-6 111,-25 243,-25 243,-6 111,-6"/>
<text text-anchor="middle" x="177" y="-13" font-family="Helvetica,sans-Serif" font-size="10.00">systemData::initializeData</text>
</a>
</g>
</g>
<!-- Node3&#45;&gt;Node4 -->
<g id="edge3" class="edge">
<title>Node3&#45;&gt;Node4</title>
<path fill="none" stroke="midnightblue" d="M268.72,-15.5C260.28,-15.5 251.59,-15.5 243.1,-15.5"/>
<polygon fill="midnightblue" stroke="midnightblue" points="268.87,-19 278.87,-15.5 268.87,-12 268.87,-19"/>
</g>
<!-- Node5 -->
<g id="node5" class="node">
<title>Node5</title>
<g id="a_node5"><a xlink:href="test-simulation_8cpp.html#ad247837e3960442b6e67b555c11a84f8" target="_top" xlink:title=" ">
<polygon fill="none" stroke="black" points="0,-6 0,-25 75,-25 75,-6 0,-6"/>
<text text-anchor="middle" x="37.5" y="-13" font-family="Helvetica,sans-Serif" font-size="10.00">TEST_CASE</text>
</a>
</g>
</g>
<!-- Node4&#45;&gt;Node5 -->
<g id="edge4" class="edge">
<title>Node4&#45;&gt;Node5</title>
<path fill="none" stroke="midnightblue" d="M100.85,-15.5C92,-15.5 83.29,-15.5 75.31,-15.5"/>
<polygon fill="midnightblue" stroke="midnightblue" points="100.87,-19 110.87,-15.5 100.87,-12 100.87,-19"/>
</g>
</g>
</svg>
