<?xml version="1.0" encoding="UTF-8" standalone="no"?>
<!DOCTYPE svg PUBLIC "-//W3C//DTD SVG 1.1//EN"
 "http://www.w3.org/Graphics/SVG/1.1/DTD/svg11.dtd">
<!-- Generated by graphviz version 2.43.0 (0)
 -->
<!-- Title: systemData::rigidBodyMotionTensors Pages: 1 -->
<svg width="327pt" height="142pt"
 viewBox="0.00 0.00 327.00 142.00" xmlns="http://www.w3.org/2000/svg" xmlns:xlink="http://www.w3.org/1999/xlink">
<g id="graph0" class="graph" transform="scale(1 1) rotate(0) translate(4 138)">
<title>systemData::rigidBodyMotionTensors</title>
<!-- Node1 -->
<g id="node1" class="node">
<title>Node1</title>
<g id="a_node1"><a xlink:title="Computes the rigid body motion connectivity tensors.">
<polygon fill="#bfbfbf" stroke="black" points="0,-52 0,-82 146,-82 146,-52 0,-52"/>
<text text-anchor="start" x="8" y="-70" font-family="Helvetica,sans-Serif" font-size="10.00">systemData::rigidBodyMotion</text>
<text text-anchor="middle" x="73" y="-59" font-family="Helvetica,sans-Serif" font-size="10.00">Tensors</text>
</a>
</g>
</g>
<!-- Node2 -->
<g id="node2" class="node">
<title>Node2</title>
<g id="a_node2"><a xlink:href="classsystemData.html#a0a77c933b764fb36c64ec5e66011482c" target="_top" xlink:title="Function takes in vector in vector cross&#45;product expression: .">
<polygon fill="none" stroke="black" points="182,-114.5 182,-133.5 319,-133.5 319,-114.5 182,-114.5"/>
<text text-anchor="middle" x="250.5" y="-121.5" font-family="Helvetica,sans-Serif" font-size="10.00">systemData::crossProdMat</text>
</a>
</g>
</g>
<!-- Node1&#45;&gt;Node2 -->
<g id="edge1" class="edge">
<title>Node1&#45;&gt;Node2</title>
<path fill="none" stroke="midnightblue" d="M114.82,-82.06C134.94,-89.3 159.64,-97.93 182,-105 189.18,-107.27 196.84,-109.56 204.32,-111.71"/>
<polygon fill="midnightblue" stroke="midnightblue" points="203.42,-115.1 213.99,-114.46 205.33,-108.36 203.42,-115.1"/>
</g>
<!-- Node3 -->
<g id="node3" class="node">
<title>Node3</title>
<g id="a_node3"><a xlink:href="classsystemData.html#a19a83a255eb6f1de4bcfe2ea8e31ffa9" target="_top" xlink:title="Computes the E matrix of quaternion (4&#45;vector) input.">
<polygon fill="none" stroke="black" points="196.5,-76.5 196.5,-95.5 304.5,-95.5 304.5,-76.5 196.5,-76.5"/>
<text text-anchor="middle" x="250.5" y="-83.5" font-family="Helvetica,sans-Serif" font-size="10.00">systemData::eMatrix</text>
</a>
</g>
</g>
<!-- Node1&#45;&gt;Node3 -->
<g id="edge2" class="edge">
<title>Node1&#45;&gt;Node3</title>
<path fill="none" stroke="midnightblue" d="M146.14,-74.81C159.42,-76.25 173.19,-77.74 186.19,-79.15"/>
<polygon fill="midnightblue" stroke="midnightblue" points="186.1,-82.66 196.42,-80.25 186.85,-75.7 186.1,-82.66"/>
</g>
<!-- Node4 -->
<g id="node4" class="node">
<title>Node4</title>
<g id="a_node4"><a xlink:href="classsystemData.html#a9a8e856d1285735bfb9cbd41ef764345" target="_top" xlink:title=" ">
<polygon fill="none" stroke="black" points="209,-38.5 209,-57.5 292,-57.5 292,-38.5 209,-38.5"/>
<text text-anchor="middle" x="250.5" y="-45.5" font-family="Helvetica,sans-Serif" font-size="10.00">systemData::i3</text>
</a>
</g>
</g>
<!-- Node1&#45;&gt;Node4 -->
<g id="edge3" class="edge">
<title>Node1&#45;&gt;Node4</title>
<path fill="none" stroke="midnightblue" d="M146.14,-59.19C163.67,-57.29 182.05,-55.3 198.38,-53.53"/>
<polygon fill="midnightblue" stroke="midnightblue" points="199.21,-56.96 208.78,-52.41 198.46,-50.01 199.21,-56.96"/>
</g>
<!-- Node5 -->
<g id="node5" class="node">
<title>Node5</title>
<g id="a_node5"><a xlink:href="helper__eigenTensorConversion_8hpp.html#a3a32f7de3f099464192073a93b34d580" target="_top" xlink:title="Convert Eigen::Matrix &#45;&#45;&gt; Eigen::Tensor.">
<polygon fill="none" stroke="black" points="217,-0.5 217,-19.5 284,-19.5 284,-0.5 217,-0.5"/>
<text text-anchor="middle" x="250.5" y="-7.5" font-family="Helvetica,sans-Serif" font-size="10.00">TensorCast</text>
</a>
</g>
</g>
<!-- Node1&#45;&gt;Node5 -->
<g id="edge4" class="edge">
<title>Node1&#45;&gt;Node5</title>
<path fill="none" stroke="midnightblue" d="M114.82,-51.94C134.94,-44.7 159.64,-36.07 182,-29 190,-26.47 198.59,-23.92 206.87,-21.55"/>
<polygon fill="midnightblue" stroke="midnightblue" points="208.09,-24.85 216.76,-18.76 206.18,-18.11 208.09,-24.85"/>
</g>
</g>
</svg>
