<?xml version="1.0" encoding="UTF-8" standalone="no"?>
<!DOCTYPE svg PUBLIC "-//W3C//DTD SVG 1.1//EN"
 "http://www.w3.org/Graphics/SVG/1.1/DTD/svg11.dtd">
<!-- Generated by graphviz version 2.43.0 (0)
 -->
<!-- Title: GSDUtil::writeParticles Pages: 1 -->
<svg width="770pt" height="296pt"
 viewBox="0.00 0.00 770.00 296.06" xmlns="http://www.w3.org/2000/svg" xmlns:xlink="http://www.w3.org/1999/xlink">
<g id="graph0" class="graph" transform="scale(1 1) rotate(0) translate(4 292.06)">
<title>GSDUtil::writeParticles</title>
<!-- Node1 -->
<g id="node1" class="node">
<title>Node1</title>
<g id="a_node1"><a xlink:title=" ">
<polygon fill="#bfbfbf" stroke="black" points="0,-171.5 0,-190.5 119,-190.5 119,-171.5 0,-171.5"/>
<text text-anchor="middle" x="59.5" y="-178.5" font-family="Helvetica,sans-Serif" font-size="10.00">GSDUtil::writeParticles</text>
</a>
</g>
</g>
<!-- Node2 -->
<g id="node2" class="node">
<title>Node2</title>
<g id="a_node2"><a xlink:href="classGSDUtil.html#a00a919382c11e9dd1fa7ae1a8788d4c0" target="_top" xlink:title=" ">
<polygon fill="none" stroke="black" points="155,-209.5 155,-228.5 292,-228.5 292,-209.5 155,-209.5"/>
<text text-anchor="middle" x="223.5" y="-216.5" font-family="Helvetica,sans-Serif" font-size="10.00">GSDUtil::checkGSDReturn</text>
</a>
</g>
</g>
<!-- Node1&#45;&gt;Node2 -->
<g id="edge1" class="edge">
<title>Node1&#45;&gt;Node2</title>
<path fill="none" stroke="midnightblue" d="M101.38,-190.59C122.85,-195.63 149.36,-201.84 172.1,-207.18"/>
<polygon fill="midnightblue" stroke="midnightblue" points="171.38,-210.6 181.91,-209.48 172.98,-203.79 171.38,-210.6"/>
</g>
<!-- Node3 -->
<g id="node3" class="node">
<title>Node3</title>
<g id="a_node3"><a xlink:href="gsd_8c.html#a7479046d4d6e15c33cb24034ddd87562" target="_top" xlink:title=" ">
<polygon fill="none" stroke="black" points="177.5,-171.5 177.5,-190.5 269.5,-190.5 269.5,-171.5 177.5,-171.5"/>
<text text-anchor="middle" x="223.5" y="-178.5" font-family="Helvetica,sans-Serif" font-size="10.00">gsd_get_nframes</text>
</a>
</g>
</g>
<!-- Node1&#45;&gt;Node3 -->
<g id="edge2" class="edge">
<title>Node1&#45;&gt;Node3</title>
<path fill="none" stroke="midnightblue" d="M119.44,-181C134.95,-181 151.63,-181 166.96,-181"/>
<polygon fill="midnightblue" stroke="midnightblue" points="167.32,-184.5 177.32,-181 167.32,-177.5 167.32,-184.5"/>
</g>
<!-- Node4 -->
<g id="node4" class="node">
<title>Node4</title>
<g id="a_node4"><a xlink:href="gsd_8c.html#ae22447904b925f284bf987fae448488a" target="_top" xlink:title=" ">
<polygon fill="none" stroke="black" points="178.5,-133.5 178.5,-152.5 268.5,-152.5 268.5,-133.5 178.5,-133.5"/>
<text text-anchor="middle" x="223.5" y="-140.5" font-family="Helvetica,sans-Serif" font-size="10.00">gsd_write_chunk</text>
</a>
</g>
</g>
<!-- Node1&#45;&gt;Node4 -->
<g id="edge3" class="edge">
<title>Node1&#45;&gt;Node4</title>
<path fill="none" stroke="midnightblue" d="M101.38,-171.41C122.85,-166.37 149.36,-160.16 172.1,-154.82"/>
<polygon fill="midnightblue" stroke="midnightblue" points="172.98,-158.21 181.91,-152.52 171.38,-151.4 172.98,-158.21"/>
</g>
<!-- Node5 -->
<g id="node5" class="node">
<title>Node5</title>
<g id="a_node5"><a xlink:href="gsd_8c.html#aa1a0a7dcf4015edcadbb47a6451b4a4b" target="_top" xlink:title=" ">
<polygon fill="none" stroke="black" points="338.5,-190.5 338.5,-209.5 436.5,-209.5 436.5,-190.5 338.5,-190.5"/>
<text text-anchor="middle" x="387.5" y="-197.5" font-family="Helvetica,sans-Serif" font-size="10.00">gsd_append_name</text>
</a>
</g>
</g>
<!-- Node4&#45;&gt;Node5 -->
<g id="edge4" class="edge">
<title>Node4&#45;&gt;Node5</title>
<path fill="none" stroke="midnightblue" d="M261.15,-152.54C271.22,-155.37 282.09,-158.62 292,-162 298.21,-164.11 328.94,-176.53 353.7,-186.61"/>
<polygon fill="midnightblue" stroke="midnightblue" points="352.59,-189.93 363.17,-190.47 355.23,-183.45 352.59,-189.93"/>
</g>
<!-- Node6 -->
<g id="node6" class="node">
<title>Node6</title>
<g id="a_node6"><a xlink:href="gsd_8c.html#a7a717f9dafe011e68434e181c76253af" target="_top" xlink:title=" ">
<polygon fill="none" stroke="black" points="486,-228.5 486,-247.5 608,-247.5 608,-228.5 486,-228.5"/>
<text text-anchor="middle" x="547" y="-235.5" font-family="Helvetica,sans-Serif" font-size="10.00">gsd_byte_buffer_append</text>
</a>
</g>
</g>
<!-- Node4&#45;&gt;Node6 -->
<g id="edge10" class="edge">
<title>Node4&#45;&gt;Node6</title>
<path fill="none" stroke="midnightblue" d="M268.8,-150.45C277.03,-153.17 285.17,-156.9 292,-162 316.02,-179.92 302.41,-203.41 328,-219 371.89,-245.74 430.26,-249.52 475.56,-247.15"/>
<polygon fill="midnightblue" stroke="midnightblue" points="475.84,-250.64 485.6,-246.51 475.4,-243.65 475.84,-250.64"/>
</g>
<!-- Node7 -->
<g id="node7" class="node">
<title>Node7</title>
<g id="a_node7"><a xlink:href="gsd_8c.html#a9b05d58560daee2512f03bedf7b2926d" target="_top" xlink:title=" ">
<polygon fill="none" stroke="black" points="647,-228.5 647,-247.5 762,-247.5 762,-228.5 647,-228.5"/>
<text text-anchor="middle" x="704.5" y="-235.5" font-family="Helvetica,sans-Serif" font-size="10.00">gsd_util_zero_memory</text>
</a>
</g>
</g>
<!-- Node4&#45;&gt;Node7 -->
<g id="edge20" class="edge">
<title>Node4&#45;&gt;Node7</title>
<path fill="none" stroke="midnightblue" d="M268.79,-149.36C277.21,-152.17 285.42,-156.21 292,-162 322.78,-189.12 294.55,-223.25 328,-247 432.66,-321.29 598.35,-276.03 669.36,-251.13"/>
<polygon fill="midnightblue" stroke="midnightblue" points="670.9,-254.3 679.13,-247.62 668.53,-247.71 670.9,-254.3"/>
</g>
<!-- Node11 -->
<g id="node11" class="node">
<title>Node11</title>
<g id="a_node11"><a xlink:href="gsd_8c.html#a61daeaa70162e9bac3d241832b460278" target="_top" xlink:title=" ">
<polygon fill="none" stroke="black" points="330.5,-114.5 330.5,-133.5 444.5,-133.5 444.5,-114.5 330.5,-114.5"/>
<text text-anchor="middle" x="387.5" y="-121.5" font-family="Helvetica,sans-Serif" font-size="10.00">gsd_flush_write_buffer</text>
</a>
</g>
</g>
<!-- Node4&#45;&gt;Node11 -->
<g id="edge11" class="edge">
<title>Node4&#45;&gt;Node11</title>
<path fill="none" stroke="midnightblue" d="M268.77,-137.81C284.66,-135.94 302.96,-133.8 320.31,-131.76"/>
<polygon fill="midnightblue" stroke="midnightblue" points="320.87,-135.22 330.39,-130.58 320.05,-128.27 320.87,-135.22"/>
</g>
<!-- Node12 -->
<g id="node12" class="node">
<title>Node12</title>
<g id="a_node12"><a xlink:href="gsd_8c.html#a258b64725f90f60d969752d65fba9850" target="_top" xlink:title=" ">
<polygon fill="none" stroke="black" points="491.5,-114.5 491.5,-133.5 602.5,-133.5 602.5,-114.5 491.5,-114.5"/>
<text text-anchor="middle" x="547" y="-121.5" font-family="Helvetica,sans-Serif" font-size="10.00">gsd_index_buffer_add</text>
</a>
</g>
</g>
<!-- Node4&#45;&gt;Node12 -->
<g id="edge15" class="edge">
<title>Node4&#45;&gt;Node12</title>
<path fill="none" stroke="midnightblue" d="M268.52,-145.45C313.49,-147.38 385.28,-148.87 447,-143 463.01,-141.48 480.28,-138.6 495.84,-135.54"/>
<polygon fill="midnightblue" stroke="midnightblue" points="496.69,-138.94 505.79,-133.51 495.29,-132.08 496.69,-138.94"/>
</g>
<!-- Node13 -->
<g id="node13" class="node">
<title>Node13</title>
<g id="a_node13"><a xlink:href="gsd_8c.html#a3fb7746d93a1c856ca7ef64fa3548cbe" target="_top" xlink:title=" ">
<polygon fill="none" stroke="black" points="496.5,-76.5 496.5,-95.5 597.5,-95.5 597.5,-76.5 496.5,-76.5"/>
<text text-anchor="middle" x="547" y="-83.5" font-family="Helvetica,sans-Serif" font-size="10.00">gsd_io_pwrite_retry</text>
</a>
</g>
</g>
<!-- Node4&#45;&gt;Node13 -->
<g id="edge16" class="edge">
<title>Node4&#45;&gt;Node13</title>
<path fill="none" stroke="midnightblue" d="M245.41,-133.45C265.97,-124.51 298.48,-111.58 328,-105 380.63,-93.26 441.92,-88.7 486.08,-86.96"/>
<polygon fill="midnightblue" stroke="midnightblue" points="486.21,-90.46 496.08,-86.61 485.96,-83.47 486.21,-90.46"/>
</g>
<!-- Node14 -->
<g id="node14" class="node">
<title>Node14</title>
<g id="a_node14"><a xlink:href="gsd_8c.html#a31b9400272036b121040e9fc0a9e626b" target="_top" xlink:title=" ">
<polygon fill="none" stroke="black" points="328,-38.5 328,-57.5 447,-57.5 447,-38.5 328,-38.5"/>
<text text-anchor="middle" x="387.5" y="-45.5" font-family="Helvetica,sans-Serif" font-size="10.00">gsd_name_id_map_find</text>
</a>
</g>
</g>
<!-- Node4&#45;&gt;Node14 -->
<g id="edge17" class="edge">
<title>Node4&#45;&gt;Node14</title>
<path fill="none" stroke="midnightblue" d="M236.7,-133.36C255.52,-118.78 293.11,-90.85 328,-72 335.06,-68.18 342.86,-64.59 350.41,-61.4"/>
<polygon fill="midnightblue" stroke="midnightblue" points="351.8,-64.61 359.74,-57.6 349.16,-58.13 351.8,-64.61"/>
</g>
<!-- Node15 -->
<g id="node15" class="node">
<title>Node15</title>
<g id="a_node15"><a xlink:href="gsd_8c.html#ab1d1a8a5f73b37df0c706f41df3bdd69" target="_top" xlink:title=" ">
<polygon fill="none" stroke="black" points="343.5,-0.5 343.5,-19.5 431.5,-19.5 431.5,-0.5 343.5,-0.5"/>
<text text-anchor="middle" x="387.5" y="-7.5" font-family="Helvetica,sans-Serif" font-size="10.00">gsd_sizeof_type</text>
</a>
</g>
</g>
<!-- Node4&#45;&gt;Node15 -->
<g id="edge19" class="edge">
<title>Node4&#45;&gt;Node15</title>
<path fill="none" stroke="midnightblue" d="M230.75,-133.19C245.18,-111.28 283.1,-58.02 328,-29 331.14,-26.97 334.52,-25.14 338.02,-23.49"/>
<polygon fill="midnightblue" stroke="midnightblue" points="339.57,-26.63 347.44,-19.54 336.87,-20.17 339.57,-26.63"/>
</g>
<!-- Node5&#45;&gt;Node6 -->
<g id="edge5" class="edge">
<title>Node5&#45;&gt;Node6</title>
<path fill="none" stroke="midnightblue" d="M428.24,-209.59C449.03,-214.6 474.66,-220.79 496.7,-226.11"/>
<polygon fill="midnightblue" stroke="midnightblue" points="496,-229.54 506.54,-228.48 497.64,-222.73 496,-229.54"/>
</g>
<!-- Node8 -->
<g id="node8" class="node">
<title>Node8</title>
<g id="a_node8"><a xlink:href="gsd_8c.html#a493ef951956c9f98adff89a80ddb3fa6" target="_top" xlink:title=" ">
<polygon fill="none" stroke="black" points="498,-190.5 498,-209.5 596,-209.5 596,-190.5 498,-190.5"/>
<text text-anchor="middle" x="547" y="-197.5" font-family="Helvetica,sans-Serif" font-size="10.00">gsd_make_version</text>
</a>
</g>
</g>
<!-- Node5&#45;&gt;Node8 -->
<g id="edge7" class="edge">
<title>Node5&#45;&gt;Node8</title>
<path fill="none" stroke="midnightblue" d="M436.61,-200C452.72,-200 470.85,-200 487.65,-200"/>
<polygon fill="midnightblue" stroke="midnightblue" points="487.91,-203.5 497.91,-200 487.91,-196.5 487.91,-203.5"/>
</g>
<!-- Node9 -->
<g id="node9" class="node">
<title>Node9</title>
<g id="a_node9"><a xlink:href="gsd_8c.html#a6c8c2e5a49ac4eb01a95be2e0df06eb9" target="_top" xlink:title=" ">
<polygon fill="none" stroke="black" points="483,-152.5 483,-171.5 611,-171.5 611,-152.5 483,-152.5"/>
<text text-anchor="middle" x="547" y="-159.5" font-family="Helvetica,sans-Serif" font-size="10.00">gsd_name_id_map_insert</text>
</a>
</g>
</g>
<!-- Node5&#45;&gt;Node9 -->
<g id="edge8" class="edge">
<title>Node5&#45;&gt;Node9</title>
<path fill="none" stroke="midnightblue" d="M428.24,-190.41C449.03,-185.4 474.66,-179.21 496.7,-173.89"/>
<polygon fill="midnightblue" stroke="midnightblue" points="497.64,-177.27 506.54,-171.52 496,-170.46 497.64,-177.27"/>
</g>
<!-- Node6&#45;&gt;Node7 -->
<g id="edge6" class="edge">
<title>Node6&#45;&gt;Node7</title>
<path fill="none" stroke="midnightblue" d="M608.12,-238C617.47,-238 627.18,-238 636.67,-238"/>
<polygon fill="midnightblue" stroke="midnightblue" points="636.85,-241.5 646.85,-238 636.85,-234.5 636.85,-241.5"/>
</g>
<!-- Node10 -->
<g id="node10" class="node">
<title>Node10</title>
<g id="a_node10"><a xlink:href="gsd_8c.html#a6d8087323ec29c58d907b9462b4a31da" target="_top" xlink:title=" ">
<polygon fill="none" stroke="black" points="667,-95.5 667,-114.5 742,-114.5 742,-95.5 667,-95.5"/>
<text text-anchor="middle" x="704.5" y="-102.5" font-family="Helvetica,sans-Serif" font-size="10.00">gsd_hash_str</text>
</a>
</g>
</g>
<!-- Node9&#45;&gt;Node10 -->
<g id="edge9" class="edge">
<title>Node9&#45;&gt;Node10</title>
<path fill="none" stroke="midnightblue" d="M581.87,-152.44C591.36,-149.59 601.63,-146.33 611,-143 631.84,-135.6 654.85,-126.15 672.71,-118.53"/>
<polygon fill="midnightblue" stroke="midnightblue" points="674.25,-121.67 682.05,-114.5 671.48,-115.24 674.25,-121.67"/>
</g>
<!-- Node11&#45;&gt;Node12 -->
<g id="edge12" class="edge">
<title>Node11&#45;&gt;Node12</title>
<path fill="none" stroke="midnightblue" d="M444.92,-124C456.71,-124 469.23,-124 481.29,-124"/>
<polygon fill="midnightblue" stroke="midnightblue" points="481.3,-127.5 491.3,-124 481.3,-120.5 481.3,-127.5"/>
</g>
<!-- Node11&#45;&gt;Node13 -->
<g id="edge14" class="edge">
<title>Node11&#45;&gt;Node13</title>
<path fill="none" stroke="midnightblue" d="M428.24,-114.41C449.03,-109.4 474.66,-103.21 496.7,-97.89"/>
<polygon fill="midnightblue" stroke="midnightblue" points="497.64,-101.27 506.54,-95.52 496,-94.46 497.64,-101.27"/>
</g>
<!-- Node12&#45;&gt;Node7 -->
<g id="edge13" class="edge">
<title>Node12&#45;&gt;Node7</title>
<path fill="none" stroke="midnightblue" d="M590.28,-133.51C597.47,-136.02 604.65,-139.15 611,-143 644.57,-163.39 674.48,-198.8 690.7,-220.15"/>
<polygon fill="midnightblue" stroke="midnightblue" points="688.02,-222.41 696.78,-228.36 693.64,-218.24 688.02,-222.41"/>
</g>
<!-- Node14&#45;&gt;Node10 -->
<g id="edge18" class="edge">
<title>Node14&#45;&gt;Node10</title>
<path fill="none" stroke="midnightblue" d="M447.37,-48.17C492.68,-49.47 556.55,-53.82 611,-67 633.5,-72.45 657.65,-82.52 675.63,-90.93"/>
<polygon fill="midnightblue" stroke="midnightblue" points="674.4,-94.23 684.93,-95.39 677.43,-87.92 674.4,-94.23"/>
</g>
</g>
</svg>
