<?xml version="1.0" encoding="UTF-8" standalone="no"?>
<!DOCTYPE svg PUBLIC "-//W3C//DTD SVG 1.1//EN"
 "http://www.w3.org/Graphics/SVG/1.1/DTD/svg11.dtd">
<!-- Generated by graphviz version 2.49.1 (20210923.0004)
 -->
<!-- Title: systemData::eMatrix Pages: 1 -->
<svg width="608pt" height="88pt"
 viewBox="0.00 0.00 608.00 88.00" xmlns="http://www.w3.org/2000/svg" xmlns:xlink="http://www.w3.org/1999/xlink">
<g id="graph0" class="graph" transform="scale(1 1) rotate(0) translate(4 84)">
<title>systemData::eMatrix</title>
<!-- Node1 -->
<g id="node1" class="node">
<title>Node1</title>
<g id="a_node1"><a xlink:title="Computes the E matrix of quaternion (4&#45;vector) input.">
<polygon fill="#bfbfbf" stroke="black" points="492,-30 492,-49 600,-49 600,-30 492,-30"/>
<text text-anchor="middle" x="546" y="-37" font-family="Helvetica,sans-Serif" font-size="10.00">systemData::eMatrix</text>
</a>
</g>
</g>
<!-- Node2 -->
<g id="node2" class="node">
<title>Node2</title>
<g id="a_node2"><a xlink:href="classsystemData.html#a3c41026c4b66d4f6e6e22a6398c6ced8" target="_top" xlink:title=" ">
<polygon fill="none" stroke="black" points="309.5,-49.5 309.5,-79.5 455.5,-79.5 455.5,-49.5 309.5,-49.5"/>
<text text-anchor="start" x="317.5" y="-67.5" font-family="Helvetica,sans-Serif" font-size="10.00">systemData::gradientChange</text>
<text text-anchor="middle" x="382.5" y="-56.5" font-family="Helvetica,sans-Serif" font-size="10.00">OfVariableTensors</text>
</a>
</g>
</g>
<!-- Node1&#45;&gt;Node2 -->
<g id="edge1" class="edge">
<title>Node1&#45;&gt;Node2</title>
<path fill="none" stroke="midnightblue" d="M481.73,-49.29C473.12,-50.63 464.24,-52 455.5,-53.35"/>
<polygon fill="midnightblue" stroke="midnightblue" points="482.32,-52.74 491.67,-47.76 481.25,-45.83 482.32,-52.74"/>
</g>
<!-- Node5 -->
<g id="node5" class="node">
<title>Node5</title>
<g id="a_node5"><a xlink:href="classsystemData.html#a05afc9e7e7423d88def51ec43ab91a33" target="_top" xlink:title=" ">
<polygon fill="none" stroke="black" points="309,-0.5 309,-30.5 456,-30.5 456,-0.5 309,-0.5"/>
<text text-anchor="start" x="317" y="-18.5" font-family="Helvetica,sans-Serif" font-size="10.00">systemData::rigidBodyMotion</text>
<text text-anchor="middle" x="382.5" y="-7.5" font-family="Helvetica,sans-Serif" font-size="10.00">Tensors</text>
</a>
</g>
</g>
<!-- Node1&#45;&gt;Node5 -->
<g id="edge4" class="edge">
<title>Node1&#45;&gt;Node5</title>
<path fill="none" stroke="midnightblue" d="M481.61,-30.08C473.23,-28.84 464.6,-27.55 456.08,-26.29"/>
<polygon fill="midnightblue" stroke="midnightblue" points="481.27,-33.57 491.67,-31.57 482.29,-26.64 481.27,-33.57"/>
</g>
<!-- Node3 -->
<g id="node3" class="node">
<title>Node3</title>
<g id="a_node3"><a xlink:href="classsystemData.html#abe08e8ef40710f40f585342d24076085" target="_top" xlink:title="Updates all relevant rigid body motion tensors, respective gradients, and kinematic/Udwadia constrain...">
<polygon fill="none" stroke="black" points="168,-30 168,-49 273,-49 273,-30 168,-30"/>
<text text-anchor="middle" x="220.5" y="-37" font-family="Helvetica,sans-Serif" font-size="10.00">systemData::update</text>
</a>
</g>
</g>
<!-- Node2&#45;&gt;Node3 -->
<g id="edge2" class="edge">
<title>Node2&#45;&gt;Node3</title>
<path fill="none" stroke="midnightblue" d="M299.35,-51.66C290.4,-50.27 281.48,-48.87 273.04,-47.55"/>
<polygon fill="midnightblue" stroke="midnightblue" points="299.04,-55.16 309.46,-53.24 300.12,-48.24 299.04,-55.16"/>
</g>
<!-- Node4 -->
<g id="node4" class="node">
<title>Node4</title>
<g id="a_node4"><a xlink:href="classsystemData.html#ad2ba3455704ef6cec1aac76a417e91e9" target="_top" xlink:title="Function loads data from GSD file using GSDUtil class.">
<polygon fill="none" stroke="black" points="0,-30 0,-49 132,-49 132,-30 0,-30"/>
<text text-anchor="middle" x="66" y="-37" font-family="Helvetica,sans-Serif" font-size="10.00">systemData::initializeData</text>
</a>
</g>
</g>
<!-- Node3&#45;&gt;Node4 -->
<g id="edge3" class="edge">
<title>Node3&#45;&gt;Node4</title>
<path fill="none" stroke="midnightblue" d="M157.72,-39.5C149.28,-39.5 140.59,-39.5 132.1,-39.5"/>
<polygon fill="midnightblue" stroke="midnightblue" points="157.87,-43 167.87,-39.5 157.87,-36 157.87,-43"/>
</g>
<!-- Node5&#45;&gt;Node3 -->
<g id="edge5" class="edge">
<title>Node5&#45;&gt;Node3</title>
<path fill="none" stroke="midnightblue" d="M299.06,-27.87C290.26,-29.19 281.49,-30.5 273.2,-31.75"/>
<polygon fill="midnightblue" stroke="midnightblue" points="299.62,-31.32 308.99,-26.38 298.58,-24.4 299.62,-31.32"/>
</g>
</g>
</svg>
