<?xml version="1.0" encoding="UTF-8" standalone="no"?>
<!DOCTYPE svg PUBLIC "-//W3C//DTD SVG 1.1//EN"
 "http://www.w3.org/Graphics/SVG/1.1/DTD/svg11.dtd">
<!-- Generated by graphviz version 2.43.0 (0)
 -->
<!-- Title: testSystemData Pages: 1 -->
<svg width="559pt" height="2450pt"
 viewBox="0.00 0.00 559.00 2450.00" xmlns="http://www.w3.org/2000/svg" xmlns:xlink="http://www.w3.org/1999/xlink">
<g id="graph0" class="graph" transform="scale(1 1) rotate(0) translate(4 2446)">
<title>testSystemData</title>
<!-- Node1 -->
<g id="node1" class="node">
<title>Node1</title>
<g id="a_node1"><a xlink:title="Friend class to test systemData class.">
<polygon fill="#bfbfbf" stroke="black" points="314,-1943 314,-2033 425,-2033 425,-1943 314,-1943"/>
<text text-anchor="middle" x="369.5" y="-2021" font-family="Helvetica,sans-Serif" font-size="10.00">testSystemData</text>
<polyline fill="none" stroke="black" points="314,-2014 425,-2014 "/>
<text text-anchor="middle" x="369.5" y="-2002" font-family="Helvetica,sans-Serif" font-size="10.00"> </text>
<polyline fill="none" stroke="black" points="314,-1995 425,-1995 "/>
<text text-anchor="start" x="322" y="-1983" font-family="Helvetica,sans-Serif" font-size="10.00">+ testSystemData()</text>
<text text-anchor="start" x="322" y="-1972" font-family="Helvetica,sans-Serif" font-size="10.00">+ ~testSystemData()</text>
<text text-anchor="start" x="322" y="-1961" font-family="Helvetica,sans-Serif" font-size="10.00">+ testCrossProdMat()</text>
<text text-anchor="start" x="322" y="-1950" font-family="Helvetica,sans-Serif" font-size="10.00">+ testEMatrix()</text>
</a>
</g>
</g>
<!-- Node2 -->
<g id="node2" class="node">
<title>Node2</title>
<g id="a_node2"><a xlink:title=" ">
<polygon fill="none" stroke="#bfbfbf" points="262,-2158 262,-2215 415,-2215 415,-2158 262,-2158"/>
<text text-anchor="middle" x="338.5" y="-2203" font-family="Helvetica,sans-Serif" font-size="10.00">std::shared_ptr&lt; systemData &gt;</text>
<polyline fill="none" stroke="#bfbfbf" points="262,-2196 415,-2196 "/>
<text text-anchor="middle" x="338.5" y="-2184" font-family="Helvetica,sans-Serif" font-size="10.00"> </text>
<polyline fill="none" stroke="#bfbfbf" points="262,-2177 415,-2177 "/>
<text text-anchor="start" x="270" y="-2165" font-family="Helvetica,sans-Serif" font-size="10.00">+ operator&#45;&gt;()</text>
</a>
</g>
</g>
<!-- Node2&#45;&gt;Node1 -->
<g id="edge1" class="edge">
<title>Node2&#45;&gt;Node1</title>
<path fill="none" stroke="#404040" d="M342.88,-2157.76C347.46,-2128.68 354.8,-2082.17 360.61,-2045.34"/>
<polygon fill="none" stroke="#404040" points="360.65,-2045.11 357.63,-2038.56 362.52,-2033.25 365.53,-2039.8 360.65,-2045.11"/>
<text text-anchor="middle" x="377" y="-2120.5" font-family="Helvetica,sans-Serif" font-size="10.00"> +m_system</text>
</g>
<!-- Node6 -->
<g id="node6" class="node">
<title>Node6</title>
<g id="a_node6"><a xlink:href="classGSDUtil.html" target="_top" xlink:title="Wrapper class for gsd.h to load data from input GSD file into systemData class.">
<polygon fill="none" stroke="black" points="173.5,-1882.5 173.5,-2093.5 295.5,-2093.5 295.5,-1882.5 173.5,-1882.5"/>
<text text-anchor="middle" x="234.5" y="-2081.5" font-family="Helvetica,sans-Serif" font-size="10.00">GSDUtil</text>
<polyline fill="none" stroke="black" points="173.5,-2074.5 295.5,-2074.5 "/>
<text text-anchor="start" x="181.5" y="-2062.5" font-family="Helvetica,sans-Serif" font-size="10.00">&#45; m_frame</text>
<polyline fill="none" stroke="black" points="173.5,-2055.5 295.5,-2055.5 "/>
<text text-anchor="start" x="181.5" y="-2043.5" font-family="Helvetica,sans-Serif" font-size="10.00">+ GSDUtil()</text>
<text text-anchor="start" x="181.5" y="-2032.5" font-family="Helvetica,sans-Serif" font-size="10.00">+ GSDUtil()</text>
<text text-anchor="start" x="181.5" y="-2021.5" font-family="Helvetica,sans-Serif" font-size="10.00">+ ~GSDUtil()</text>
<text text-anchor="start" x="181.5" y="-2010.5" font-family="Helvetica,sans-Serif" font-size="10.00">+ truncateGSD()</text>
<text text-anchor="start" x="181.5" y="-1999.5" font-family="Helvetica,sans-Serif" font-size="10.00">+ writeFrame()</text>
<text text-anchor="start" x="181.5" y="-1988.5" font-family="Helvetica,sans-Serif" font-size="10.00">+ frame()</text>
<text text-anchor="start" x="181.5" y="-1977.5" font-family="Helvetica,sans-Serif" font-size="10.00">&#45; checkGSDReturn()</text>
<text text-anchor="start" x="181.5" y="-1966.5" font-family="Helvetica,sans-Serif" font-size="10.00">&#45; readChunk()</text>
<text text-anchor="start" x="181.5" y="-1955.5" font-family="Helvetica,sans-Serif" font-size="10.00">&#45; readHeader()</text>
<text text-anchor="start" x="181.5" y="-1944.5" font-family="Helvetica,sans-Serif" font-size="10.00">&#45; readParameters()</text>
<text text-anchor="start" x="181.5" y="-1933.5" font-family="Helvetica,sans-Serif" font-size="10.00">&#45; readParticles()</text>
<text text-anchor="start" x="181.5" y="-1922.5" font-family="Helvetica,sans-Serif" font-size="10.00">&#45; readSystemSpecifics()</text>
<text text-anchor="start" x="181.5" y="-1911.5" font-family="Helvetica,sans-Serif" font-size="10.00">&#45; writeHeader()</text>
<text text-anchor="start" x="181.5" y="-1900.5" font-family="Helvetica,sans-Serif" font-size="10.00">&#45; writeParameters()</text>
<text text-anchor="start" x="181.5" y="-1889.5" font-family="Helvetica,sans-Serif" font-size="10.00">&#45; writeParticles()</text>
</a>
</g>
</g>
<!-- Node2&#45;&gt;Node6 -->
<g id="edge6" class="edge">
<title>Node2&#45;&gt;Node6</title>
<path fill="none" stroke="#404040" d="M309.91,-2157.87C303.29,-2150.53 296.68,-2142.32 291.5,-2134 285.78,-2124.81 280.45,-2114.95 275.53,-2104.86"/>
<polygon fill="none" stroke="#404040" points="275.46,-2104.69 269.29,-2100.96 270.36,-2093.83 276.53,-2097.56 275.46,-2104.69"/>
<text text-anchor="middle" x="317.5" y="-2120.5" font-family="Helvetica,sans-Serif" font-size="10.00"> &#45;m_system</text>
</g>
<!-- Node3 -->
<g id="node3" class="node">
<title>Node3</title>
<g id="a_node3"><a xlink:href="classsystemData.html" target="_top" xlink:title="Class contains all data structures relevant to the simulation framework. Note that after construction...">
<polygon fill="none" stroke="black" points="191.5,-0.5 191.5,-1685.5 367.5,-1685.5 367.5,-0.5 191.5,-0.5"/>
<text text-anchor="middle" x="279.5" y="-1673.5" font-family="Helvetica,sans-Serif" font-size="10.00">systemData</text>
<polyline fill="none" stroke="black" points="191.5,-1666.5 367.5,-1666.5 "/>
<text text-anchor="start" x="199.5" y="-1654.5" font-family="Helvetica,sans-Serif" font-size="10.00">&#45; m_image_system</text>
<text text-anchor="start" x="199.5" y="-1643.5" font-family="Helvetica,sans-Serif" font-size="10.00">&#45; m_return_val</text>
<text text-anchor="start" x="199.5" y="-1632.5" font-family="Helvetica,sans-Serif" font-size="10.00">&#45; m_return_bool</text>
<text text-anchor="start" x="199.5" y="-1621.5" font-family="Helvetica,sans-Serif" font-size="10.00">&#45; m_GSD_parsed</text>
<text text-anchor="start" x="199.5" y="-1610.5" font-family="Helvetica,sans-Serif" font-size="10.00">&#45; m_sys_spec_U0</text>
<text text-anchor="start" x="199.5" y="-1599.5" font-family="Helvetica,sans-Serif" font-size="10.00">&#45; m_sys_spec_omega</text>
<text text-anchor="start" x="199.5" y="-1588.5" font-family="Helvetica,sans-Serif" font-size="10.00">&#45; m_sys_spec_phase_shift</text>
<text text-anchor="start" x="199.5" y="-1577.5" font-family="Helvetica,sans-Serif" font-size="10.00">&#45; m_sys_spec_R_avg</text>
<text text-anchor="start" x="199.5" y="-1566.5" font-family="Helvetica,sans-Serif" font-size="10.00">&#45; m_particle_type_id</text>
<text text-anchor="start" x="199.5" y="-1555.5" font-family="Helvetica,sans-Serif" font-size="10.00">&#45; m_particle_group_id</text>
<text text-anchor="start" x="199.5" y="-1544.5" font-family="Helvetica,sans-Serif" font-size="10.00">&#45; m_fluid_density</text>
<text text-anchor="start" x="199.5" y="-1533.5" font-family="Helvetica,sans-Serif" font-size="10.00">&#45; m_particle_density</text>
<text text-anchor="start" x="199.5" y="-1522.5" font-family="Helvetica,sans-Serif" font-size="10.00">&#45; m_wca_epsilon</text>
<text text-anchor="start" x="199.5" y="-1511.5" font-family="Helvetica,sans-Serif" font-size="10.00">&#45; m_wca_sigma</text>
<text text-anchor="start" x="199.5" y="-1500.5" font-family="Helvetica,sans-Serif" font-size="10.00">&#45; m_num_spatial_dim</text>
<text text-anchor="start" x="199.5" y="-1489.5" font-family="Helvetica,sans-Serif" font-size="10.00">&#45; m_num_particles</text>
<text text-anchor="start" x="199.5" y="-1478.5" font-family="Helvetica,sans-Serif" font-size="10.00">&#45; m_num_bodies</text>
<text text-anchor="start" x="199.5" y="-1467.5" font-family="Helvetica,sans-Serif" font-size="10.00">&#45; m_num_DoF</text>
<text text-anchor="start" x="199.5" y="-1456.5" font-family="Helvetica,sans-Serif" font-size="10.00">&#45; m_num_constraints</text>
<text text-anchor="start" x="199.5" y="-1445.5" font-family="Helvetica,sans-Serif" font-size="10.00">&#45; m_dt</text>
<text text-anchor="start" x="199.5" y="-1434.5" font-family="Helvetica,sans-Serif" font-size="10.00">&#45; m_tf</text>
<text text-anchor="start" x="199.5" y="-1423.5" font-family="Helvetica,sans-Serif" font-size="10.00">&#45; m_t0</text>
<text text-anchor="start" x="199.5" y="-1412.5" font-family="Helvetica,sans-Serif" font-size="10.00">&#45; m_t</text>
<text text-anchor="start" x="199.5" y="-1401.5" font-family="Helvetica,sans-Serif" font-size="10.00">&#45; m_tau</text>
<text text-anchor="start" x="199.5" y="-1390.5" font-family="Helvetica,sans-Serif" font-size="10.00">&#45; m_timestep</text>
<text text-anchor="start" x="199.5" y="-1379.5" font-family="Helvetica,sans-Serif" font-size="10.00">&#45; m_num_steps_output</text>
<text text-anchor="start" x="199.5" y="-1368.5" font-family="Helvetica,sans-Serif" font-size="10.00">&#45; m_I3</text>
<text text-anchor="start" x="199.5" y="-1357.5" font-family="Helvetica,sans-Serif" font-size="10.00">&#45; m_tens_I3</text>
<text text-anchor="start" x="199.5" y="-1346.5" font-family="Helvetica,sans-Serif" font-size="10.00">&#45; m_levi_cevita</text>
<text text-anchor="start" x="199.5" y="-1335.5" font-family="Helvetica,sans-Serif" font-size="10.00">&#45; m_kappa_tilde</text>
<text text-anchor="start" x="199.5" y="-1324.5" font-family="Helvetica,sans-Serif" font-size="10.00">&#45; m_positions_bodies</text>
<text text-anchor="start" x="199.5" y="-1313.5" font-family="Helvetica,sans-Serif" font-size="10.00">&#45; m_velocities_bodies</text>
<text text-anchor="start" x="199.5" y="-1302.5" font-family="Helvetica,sans-Serif" font-size="10.00">&#45; m_accelerations_bodies</text>
<text text-anchor="start" x="199.5" y="-1291.5" font-family="Helvetica,sans-Serif" font-size="10.00">&#45; m_positions_particles</text>
<text text-anchor="start" x="199.5" y="-1280.5" font-family="Helvetica,sans-Serif" font-size="10.00">&#45; m_velocities_particles</text>
<text text-anchor="start" x="199.5" y="-1269.5" font-family="Helvetica,sans-Serif" font-size="10.00">&#45; m_accelerations_particles</text>
<text text-anchor="start" x="199.5" y="-1258.5" font-family="Helvetica,sans-Serif" font-size="10.00">&#45; m_orientations_particles</text>
<text text-anchor="start" x="199.5" y="-1247.5" font-family="Helvetica,sans-Serif" font-size="10.00">&#45; m_quaternions_particles</text>
<text text-anchor="start" x="199.5" y="-1236.5" font-family="Helvetica,sans-Serif" font-size="10.00">&#45; m_positions_particles</text>
<text text-anchor="start" x="199.5" y="-1225.5" font-family="Helvetica,sans-Serif" font-size="10.00">_articulation_init_norm</text>
<text text-anchor="start" x="199.5" y="-1214.5" font-family="Helvetica,sans-Serif" font-size="10.00">&#45; m_positions_particles</text>
<text text-anchor="start" x="199.5" y="-1203.5" font-family="Helvetica,sans-Serif" font-size="10.00">_articulation</text>
<text text-anchor="start" x="199.5" y="-1192.5" font-family="Helvetica,sans-Serif" font-size="10.00">&#45; m_velocities_particles</text>
<text text-anchor="start" x="199.5" y="-1181.5" font-family="Helvetica,sans-Serif" font-size="10.00">_articulation</text>
<text text-anchor="start" x="199.5" y="-1170.5" font-family="Helvetica,sans-Serif" font-size="10.00">&#45; m_accelerations_particles</text>
<text text-anchor="start" x="199.5" y="-1159.5" font-family="Helvetica,sans-Serif" font-size="10.00">_articulation</text>
<text text-anchor="start" x="199.5" y="-1148.5" font-family="Helvetica,sans-Serif" font-size="10.00">&#45; m_rbm_conn</text>
<text text-anchor="start" x="199.5" y="-1137.5" font-family="Helvetica,sans-Serif" font-size="10.00">&#45; m_psi_conv_quat_ang</text>
<text text-anchor="start" x="199.5" y="-1126.5" font-family="Helvetica,sans-Serif" font-size="10.00">&#45; m_rbm_conn_T_quat</text>
<text text-anchor="start" x="199.5" y="-1115.5" font-family="Helvetica,sans-Serif" font-size="10.00">&#45; m_tens_rbm_conn_T_quat</text>
<text text-anchor="start" x="199.5" y="-1104.5" font-family="Helvetica,sans-Serif" font-size="10.00">&#45; m_rbm_conn_T_quat_grad</text>
<text text-anchor="start" x="199.5" y="-1093.5" font-family="Helvetica,sans-Serif" font-size="10.00">&#45; m_conv_body_2_part_dof</text>
<text text-anchor="start" x="199.5" y="-1082.5" font-family="Helvetica,sans-Serif" font-size="10.00">&#45; m_tens_conv_body_2</text>
<text text-anchor="start" x="199.5" y="-1071.5" font-family="Helvetica,sans-Serif" font-size="10.00">_part_dof</text>
<text text-anchor="start" x="199.5" y="-1060.5" font-family="Helvetica,sans-Serif" font-size="10.00">&#45; m_Udwadia_A</text>
<text text-anchor="start" x="199.5" y="-1049.5" font-family="Helvetica,sans-Serif" font-size="10.00">&#45; m_Udwadia_b</text>
<polyline fill="none" stroke="black" points="191.5,-1042.5 367.5,-1042.5 "/>
<text text-anchor="start" x="199.5" y="-1030.5" font-family="Helvetica,sans-Serif" font-size="10.00">+ systemData()</text>
<text text-anchor="start" x="199.5" y="-1019.5" font-family="Helvetica,sans-Serif" font-size="10.00">+ systemData()</text>
<text text-anchor="start" x="199.5" y="-1008.5" font-family="Helvetica,sans-Serif" font-size="10.00">+ ~systemData()</text>
<text text-anchor="start" x="199.5" y="-997.5" font-family="Helvetica,sans-Serif" font-size="10.00">+ initializeData()</text>
<text text-anchor="start" x="199.5" y="-986.5" font-family="Helvetica,sans-Serif" font-size="10.00">+ update()</text>
<text text-anchor="start" x="199.5" y="-975.5" font-family="Helvetica,sans-Serif" font-size="10.00">+ imageSystem()</text>
<text text-anchor="start" x="199.5" y="-964.5" font-family="Helvetica,sans-Serif" font-size="10.00">+ setImageSystem()</text>
<text text-anchor="start" x="199.5" y="-953.5" font-family="Helvetica,sans-Serif" font-size="10.00">+ inputGSDFile()</text>
<text text-anchor="start" x="199.5" y="-942.5" font-family="Helvetica,sans-Serif" font-size="10.00">+ outputDir()</text>
<text text-anchor="start" x="199.5" y="-931.5" font-family="Helvetica,sans-Serif" font-size="10.00">+ setOutputDir()</text>
<text text-anchor="start" x="199.5" y="-920.5" font-family="Helvetica,sans-Serif" font-size="10.00">+ gsdUtil()</text>
<text text-anchor="start" x="199.5" y="-909.5" font-family="Helvetica,sans-Serif" font-size="10.00">+ handle()</text>
<text text-anchor="start" x="199.5" y="-898.5" font-family="Helvetica,sans-Serif" font-size="10.00">+ setReturnVal()</text>
<text text-anchor="start" x="199.5" y="-887.5" font-family="Helvetica,sans-Serif" font-size="10.00">+ returnVal()</text>
<text text-anchor="start" x="199.5" y="-876.5" font-family="Helvetica,sans-Serif" font-size="10.00">+ setReturnBool()</text>
<text text-anchor="start" x="199.5" y="-865.5" font-family="Helvetica,sans-Serif" font-size="10.00">+ returnBool()</text>
<text text-anchor="start" x="199.5" y="-854.5" font-family="Helvetica,sans-Serif" font-size="10.00">+ gSDParsed()</text>
<text text-anchor="start" x="199.5" y="-843.5" font-family="Helvetica,sans-Serif" font-size="10.00">+ sysSpecU0()</text>
<text text-anchor="start" x="199.5" y="-832.5" font-family="Helvetica,sans-Serif" font-size="10.00">+ setSysSpecU0()</text>
<text text-anchor="start" x="199.5" y="-821.5" font-family="Helvetica,sans-Serif" font-size="10.00">+ sysSpecOmega()</text>
<text text-anchor="start" x="199.5" y="-810.5" font-family="Helvetica,sans-Serif" font-size="10.00">+ setSysSpecOmega()</text>
<text text-anchor="start" x="199.5" y="-799.5" font-family="Helvetica,sans-Serif" font-size="10.00">+ sysSpecPhaseShift()</text>
<text text-anchor="start" x="199.5" y="-788.5" font-family="Helvetica,sans-Serif" font-size="10.00">+ setSysSpecPhaseShift()</text>
<text text-anchor="start" x="199.5" y="-777.5" font-family="Helvetica,sans-Serif" font-size="10.00">+ sysSpecRAvg()</text>
<text text-anchor="start" x="199.5" y="-766.5" font-family="Helvetica,sans-Serif" font-size="10.00">+ setSysSpecRAvg()</text>
<text text-anchor="start" x="199.5" y="-755.5" font-family="Helvetica,sans-Serif" font-size="10.00">+ particleTypeId()</text>
<text text-anchor="start" x="199.5" y="-744.5" font-family="Helvetica,sans-Serif" font-size="10.00">+ setParticleTypeId()</text>
<text text-anchor="start" x="199.5" y="-733.5" font-family="Helvetica,sans-Serif" font-size="10.00">+ fluidDensity()</text>
<text text-anchor="start" x="199.5" y="-722.5" font-family="Helvetica,sans-Serif" font-size="10.00">+ setFluidDensity()</text>
<text text-anchor="start" x="199.5" y="-711.5" font-family="Helvetica,sans-Serif" font-size="10.00">+ particleDensity()</text>
<text text-anchor="start" x="199.5" y="-700.5" font-family="Helvetica,sans-Serif" font-size="10.00">+ setParticleDensity()</text>
<text text-anchor="start" x="199.5" y="-689.5" font-family="Helvetica,sans-Serif" font-size="10.00">+ wcaEpsilon()</text>
<text text-anchor="start" x="199.5" y="-678.5" font-family="Helvetica,sans-Serif" font-size="10.00">+ setWcaEpsilon()</text>
<text text-anchor="start" x="199.5" y="-667.5" font-family="Helvetica,sans-Serif" font-size="10.00">+ wcaSigma()</text>
<text text-anchor="start" x="199.5" y="-656.5" font-family="Helvetica,sans-Serif" font-size="10.00">+ setWcaSigma()</text>
<text text-anchor="start" x="199.5" y="-645.5" font-family="Helvetica,sans-Serif" font-size="10.00">+ numSpatialDim()</text>
<text text-anchor="start" x="199.5" y="-634.5" font-family="Helvetica,sans-Serif" font-size="10.00">+ setNumSpatialDim()</text>
<text text-anchor="start" x="199.5" y="-623.5" font-family="Helvetica,sans-Serif" font-size="10.00">+ numParticles()</text>
<text text-anchor="start" x="199.5" y="-612.5" font-family="Helvetica,sans-Serif" font-size="10.00">+ setNumParticles()</text>
<text text-anchor="start" x="199.5" y="-601.5" font-family="Helvetica,sans-Serif" font-size="10.00">+ numBodies()</text>
<text text-anchor="start" x="199.5" y="-590.5" font-family="Helvetica,sans-Serif" font-size="10.00">+ setNumBodies()</text>
<text text-anchor="start" x="199.5" y="-579.5" font-family="Helvetica,sans-Serif" font-size="10.00">+ numDoF()</text>
<text text-anchor="start" x="199.5" y="-568.5" font-family="Helvetica,sans-Serif" font-size="10.00">+ tensI3()</text>
<text text-anchor="start" x="199.5" y="-557.5" font-family="Helvetica,sans-Serif" font-size="10.00">+ i3()</text>
<text text-anchor="start" x="199.5" y="-546.5" font-family="Helvetica,sans-Serif" font-size="10.00">+ dt()</text>
<text text-anchor="start" x="199.5" y="-535.5" font-family="Helvetica,sans-Serif" font-size="10.00">+ setDt()</text>
<text text-anchor="start" x="199.5" y="-524.5" font-family="Helvetica,sans-Serif" font-size="10.00">+ tf()</text>
<text text-anchor="start" x="199.5" y="-513.5" font-family="Helvetica,sans-Serif" font-size="10.00">+ setTf()</text>
<text text-anchor="start" x="199.5" y="-502.5" font-family="Helvetica,sans-Serif" font-size="10.00">+ t()</text>
<text text-anchor="start" x="199.5" y="-491.5" font-family="Helvetica,sans-Serif" font-size="10.00">+ setT()</text>
<text text-anchor="start" x="199.5" y="-480.5" font-family="Helvetica,sans-Serif" font-size="10.00">+ tau()</text>
<text text-anchor="start" x="199.5" y="-469.5" font-family="Helvetica,sans-Serif" font-size="10.00">+ setTau()</text>
<text text-anchor="start" x="199.5" y="-458.5" font-family="Helvetica,sans-Serif" font-size="10.00">+ timestep()</text>
<text text-anchor="start" x="199.5" y="-447.5" font-family="Helvetica,sans-Serif" font-size="10.00">+ setTimestep()</text>
<text text-anchor="start" x="199.5" y="-436.5" font-family="Helvetica,sans-Serif" font-size="10.00">+ numStepsOutput()</text>
<text text-anchor="start" x="199.5" y="-425.5" font-family="Helvetica,sans-Serif" font-size="10.00">+ setNumStepsOutput()</text>
<text text-anchor="start" x="199.5" y="-414.5" font-family="Helvetica,sans-Serif" font-size="10.00">+ positionsBodies()</text>
<text text-anchor="start" x="199.5" y="-403.5" font-family="Helvetica,sans-Serif" font-size="10.00">+ setPositionsBodies()</text>
<text text-anchor="start" x="199.5" y="-392.5" font-family="Helvetica,sans-Serif" font-size="10.00">+ velocitiesBodies()</text>
<text text-anchor="start" x="199.5" y="-381.5" font-family="Helvetica,sans-Serif" font-size="10.00">+ setVelocitiesBodies()</text>
<text text-anchor="start" x="199.5" y="-370.5" font-family="Helvetica,sans-Serif" font-size="10.00">+ accelerationsBodies()</text>
<text text-anchor="start" x="199.5" y="-359.5" font-family="Helvetica,sans-Serif" font-size="10.00">+ setAccelerationsBodies()</text>
<text text-anchor="start" x="199.5" y="-348.5" font-family="Helvetica,sans-Serif" font-size="10.00">+ quaternionsParticles()</text>
<text text-anchor="start" x="199.5" y="-337.5" font-family="Helvetica,sans-Serif" font-size="10.00">+ setQuaternionsParticles()</text>
<text text-anchor="start" x="199.5" y="-326.5" font-family="Helvetica,sans-Serif" font-size="10.00">+ orientationsParticles()</text>
<text text-anchor="start" x="199.5" y="-315.5" font-family="Helvetica,sans-Serif" font-size="10.00">+ setOrientationsParticles()</text>
<text text-anchor="start" x="199.5" y="-304.5" font-family="Helvetica,sans-Serif" font-size="10.00">+ positionsParticles()</text>
<text text-anchor="start" x="199.5" y="-293.5" font-family="Helvetica,sans-Serif" font-size="10.00">+ setPositionsParticles()</text>
<text text-anchor="start" x="199.5" y="-282.5" font-family="Helvetica,sans-Serif" font-size="10.00">+ velocitiesParticles()</text>
<text text-anchor="start" x="199.5" y="-271.5" font-family="Helvetica,sans-Serif" font-size="10.00">+ setVelocitiesParticles()</text>
<text text-anchor="start" x="199.5" y="-260.5" font-family="Helvetica,sans-Serif" font-size="10.00">+ accelerationsParticles()</text>
<text text-anchor="start" x="199.5" y="-249.5" font-family="Helvetica,sans-Serif" font-size="10.00">+ setAccelerationsParticles()</text>
<text text-anchor="start" x="199.5" y="-238.5" font-family="Helvetica,sans-Serif" font-size="10.00">+ velocitiesParticlesArticulation()</text>
<text text-anchor="start" x="199.5" y="-227.5" font-family="Helvetica,sans-Serif" font-size="10.00">+ accelerationsParticlesArticulation()</text>
<text text-anchor="start" x="199.5" y="-216.5" font-family="Helvetica,sans-Serif" font-size="10.00">+ tensRbmConnTQuat()</text>
<text text-anchor="start" x="199.5" y="-205.5" font-family="Helvetica,sans-Serif" font-size="10.00">+ tensRbmConnTQuatGrad()</text>
<text text-anchor="start" x="199.5" y="-194.5" font-family="Helvetica,sans-Serif" font-size="10.00">+ tensConvBody2PartDof()</text>
<text text-anchor="start" x="199.5" y="-183.5" font-family="Helvetica,sans-Serif" font-size="10.00">+ udwadiaA()</text>
<text text-anchor="start" x="199.5" y="-172.5" font-family="Helvetica,sans-Serif" font-size="10.00">+ udwadiaB()</text>
<text text-anchor="start" x="199.5" y="-161.5" font-family="Helvetica,sans-Serif" font-size="10.00">&#45; parseGSD()</text>
<text text-anchor="start" x="199.5" y="-150.5" font-family="Helvetica,sans-Serif" font-size="10.00">&#45; checkInput()</text>
<text text-anchor="start" x="199.5" y="-139.5" font-family="Helvetica,sans-Serif" font-size="10.00">&#45; logData()</text>
<text text-anchor="start" x="199.5" y="-128.5" font-family="Helvetica,sans-Serif" font-size="10.00">&#45; positionsArticulation()</text>
<text text-anchor="start" x="199.5" y="-117.5" font-family="Helvetica,sans-Serif" font-size="10.00">&#45; velocitiesArticulation()</text>
<text text-anchor="start" x="199.5" y="-106.5" font-family="Helvetica,sans-Serif" font-size="10.00">&#45; accelerationsArticulation()</text>
<text text-anchor="start" x="199.5" y="-95.5" font-family="Helvetica,sans-Serif" font-size="10.00">&#45; udwadiaLinearSystem()</text>
<text text-anchor="start" x="199.5" y="-84.5" font-family="Helvetica,sans-Serif" font-size="10.00">&#45; rigidBodyMotionTensors()</text>
<text text-anchor="start" x="199.5" y="-73.5" font-family="Helvetica,sans-Serif" font-size="10.00">&#45; gradientChangeOfVariable</text>
<text text-anchor="start" x="199.5" y="-62.5" font-family="Helvetica,sans-Serif" font-size="10.00">Tensors()</text>
<text text-anchor="start" x="199.5" y="-51.5" font-family="Helvetica,sans-Serif" font-size="10.00">&#45; convertBody2ParticleOrient()</text>
<text text-anchor="start" x="199.5" y="-40.5" font-family="Helvetica,sans-Serif" font-size="10.00">&#45; convertBody2ParticlePos()</text>
<text text-anchor="start" x="199.5" y="-29.5" font-family="Helvetica,sans-Serif" font-size="10.00">&#45; convertBody2ParticleVelAcc()</text>
<text text-anchor="start" x="199.5" y="-18.5" font-family="Helvetica,sans-Serif" font-size="10.00">&#45; eMatrix()</text>
<text text-anchor="start" x="199.5" y="-7.5" font-family="Helvetica,sans-Serif" font-size="10.00">&#45; crossProdMat()</text>
</a>
</g>
</g>
<!-- Node3&#45;&gt;Node2 -->
<g id="edge2" class="edge">
<title>Node3&#45;&gt;Node2</title>
<path fill="none" stroke="#404040" d="M367.5,-1335.04C394.36,-1507.38 420.27,-1702.7 433.5,-1882 440.43,-1975.97 459.48,-2003.43 433.5,-2094 427.11,-2116.29 410.91,-2135.26 393.67,-2150.05"/>
<polygon fill="none" stroke="#404040" points="393.37,-2150.29 391.21,-2157.17 384.03,-2157.83 386.19,-2150.95 393.37,-2150.29"/>
<text text-anchor="middle" x="443" y="-1839.5" font-family="Helvetica,sans-Serif" font-size="10.00"> +ptr</text>
</g>
<!-- Node4 -->
<g id="node4" class="node">
<title>Node4</title>
<g id="a_node4"><a xlink:title=" ">
<polygon fill="none" stroke="#bfbfbf" points="58.5,-1733.5 58.5,-1801.5 192.5,-1801.5 192.5,-1733.5 58.5,-1733.5"/>
<text text-anchor="start" x="66.5" y="-1789.5" font-family="Helvetica,sans-Serif" font-size="10.00">std::enable_shared</text>
<text text-anchor="middle" x="125.5" y="-1778.5" font-family="Helvetica,sans-Serif" font-size="10.00">_from_this&lt; systemData &gt;</text>
<polyline fill="none" stroke="#bfbfbf" points="58.5,-1771.5 192.5,-1771.5 "/>
<text text-anchor="middle" x="125.5" y="-1759.5" font-family="Helvetica,sans-Serif" font-size="10.00"> </text>
<polyline fill="none" stroke="#bfbfbf" points="58.5,-1752.5 192.5,-1752.5 "/>
<text text-anchor="middle" x="125.5" y="-1740.5" font-family="Helvetica,sans-Serif" font-size="10.00"> </text>
</a>
</g>
</g>
<!-- Node4&#45;&gt;Node3 -->
<g id="edge3" class="edge">
<title>Node4&#45;&gt;Node3</title>
<path fill="none" stroke="midnightblue" d="M132.73,-1723.18C143.99,-1655.74 166.98,-1518.04 191.48,-1371.24"/>
<polygon fill="none" stroke="midnightblue" points="129.22,-1722.96 131.03,-1733.4 136.13,-1724.11 129.22,-1722.96"/>
</g>
<!-- Node5 -->
<g id="node5" class="node">
<title>Node5</title>
<g id="a_node5"><a xlink:title=" ">
<polygon fill="none" stroke="#bfbfbf" points="211,-1739 211,-1796 348,-1796 348,-1739 211,-1739"/>
<text text-anchor="middle" x="279.5" y="-1784" font-family="Helvetica,sans-Serif" font-size="10.00">std::shared_ptr&lt; GSDUtil &gt;</text>
<polyline fill="none" stroke="#bfbfbf" points="211,-1777 348,-1777 "/>
<text text-anchor="middle" x="279.5" y="-1765" font-family="Helvetica,sans-Serif" font-size="10.00"> </text>
<polyline fill="none" stroke="#bfbfbf" points="211,-1758 348,-1758 "/>
<text text-anchor="start" x="219" y="-1746" font-family="Helvetica,sans-Serif" font-size="10.00">+ operator&#45;&gt;()</text>
</a>
</g>
</g>
<!-- Node5&#45;&gt;Node3 -->
<g id="edge4" class="edge">
<title>Node5&#45;&gt;Node3</title>
<path fill="none" stroke="#404040" d="M279.5,-1738.89C279.5,-1728.04 279.5,-1714.24 279.5,-1697.97"/>
<polygon fill="none" stroke="#404040" points="279.5,-1697.7 275.5,-1691.7 279.5,-1685.7 283.5,-1691.7 279.5,-1697.7"/>
<text text-anchor="middle" x="305" y="-1707" font-family="Helvetica,sans-Serif" font-size="10.00"> &#45;m_gsdUtil</text>
</g>
<!-- Node6&#45;&gt;Node5 -->
<g id="edge5" class="edge">
<title>Node6&#45;&gt;Node5</title>
<path fill="none" stroke="#404040" d="M256.08,-1882.23C261.52,-1855.8 267.03,-1829.03 271.34,-1808.1"/>
<polygon fill="none" stroke="#404040" points="271.38,-1807.94 268.67,-1801.26 273.8,-1796.19 276.5,-1802.87 271.38,-1807.94"/>
<text text-anchor="middle" x="280" y="-1839.5" font-family="Helvetica,sans-Serif" font-size="10.00"> +ptr</text>
</g>
<!-- Node7 -->
<g id="node7" class="node">
<title>Node7</title>
<g id="a_node7"><a xlink:title="STL class.">
<polygon fill="none" stroke="#bfbfbf" points="17.5,-2158 17.5,-2215 77.5,-2215 77.5,-2158 17.5,-2158"/>
<text text-anchor="middle" x="47.5" y="-2203" font-family="Helvetica,sans-Serif" font-size="10.00">std::string</text>
<polyline fill="none" stroke="#bfbfbf" points="17.5,-2196 77.5,-2196 "/>
<text text-anchor="middle" x="47.5" y="-2184" font-family="Helvetica,sans-Serif" font-size="10.00"> </text>
<polyline fill="none" stroke="#bfbfbf" points="17.5,-2177 77.5,-2177 "/>
<text text-anchor="middle" x="47.5" y="-2165" font-family="Helvetica,sans-Serif" font-size="10.00"> </text>
</a>
</g>
</g>
<!-- Node7&#45;&gt;Node3 -->
<g id="edge11" class="edge">
<title>Node7&#45;&gt;Node3</title>
<path fill="none" stroke="#404040" d="M45.24,-2157.8C39.98,-2086.8 28.82,-1892.71 49.5,-1733 76.36,-1525.61 136.08,-1297.33 187.94,-1124.03"/>
<polygon fill="none" stroke="#404040" points="187.97,-1123.93 185.86,-1117.03 191.42,-1112.44 193.53,-1119.33 187.97,-1123.93"/>
<text text-anchor="middle" x="79.5" y="-1856" font-family="Helvetica,sans-Serif" font-size="10.00"> &#45;m_outputDir</text>
<text text-anchor="middle" x="79.5" y="-1845" font-family="Helvetica,sans-Serif" font-size="10.00">&#45;m_logName</text>
<text text-anchor="middle" x="79.5" y="-1834" font-family="Helvetica,sans-Serif" font-size="10.00">&#45;m_logFile</text>
<text text-anchor="middle" x="79.5" y="-1823" font-family="Helvetica,sans-Serif" font-size="10.00">&#45;m_inputGSDFile</text>
</g>
<!-- Node7&#45;&gt;Node6 -->
<g id="edge7" class="edge">
<title>Node7&#45;&gt;Node6</title>
<path fill="none" stroke="#404040" d="M49.24,-2157.82C51.25,-2143.2 55.52,-2125.53 64.5,-2112 88.87,-2075.28 128.17,-2045.79 162.85,-2024.91"/>
<polygon fill="none" stroke="#404040" points="163.09,-2024.77 166.25,-2018.28 173.45,-2018.7 170.29,-2025.19 163.09,-2024.77"/>
<text text-anchor="middle" x="94" y="-2126" font-family="Helvetica,sans-Serif" font-size="10.00"> &#45;m_logName</text>
<text text-anchor="middle" x="94" y="-2115" font-family="Helvetica,sans-Serif" font-size="10.00">&#45;m_logFile</text>
</g>
<!-- Node8 -->
<g id="node8" class="node">
<title>Node8</title>
<g id="a_node8"><a xlink:title="STL class.">
<polygon fill="none" stroke="#bfbfbf" points="0,-2268.5 0,-2336.5 95,-2336.5 95,-2268.5 0,-2268.5"/>
<text text-anchor="start" x="8" y="-2324.5" font-family="Helvetica,sans-Serif" font-size="10.00">std::basic_string&lt;</text>
<text text-anchor="middle" x="47.5" y="-2313.5" font-family="Helvetica,sans-Serif" font-size="10.00"> char &gt;</text>
<polyline fill="none" stroke="#bfbfbf" points="0,-2306.5 95,-2306.5 "/>
<text text-anchor="middle" x="47.5" y="-2294.5" font-family="Helvetica,sans-Serif" font-size="10.00"> </text>
<polyline fill="none" stroke="#bfbfbf" points="0,-2287.5 95,-2287.5 "/>
<text text-anchor="middle" x="47.5" y="-2275.5" font-family="Helvetica,sans-Serif" font-size="10.00"> </text>
</a>
</g>
</g>
<!-- Node8&#45;&gt;Node7 -->
<g id="edge8" class="edge">
<title>Node8&#45;&gt;Node7</title>
<path fill="none" stroke="midnightblue" d="M47.5,-2258.03C47.5,-2243.67 47.5,-2228.1 47.5,-2215.24"/>
<polygon fill="none" stroke="midnightblue" points="44,-2258.22 47.5,-2268.22 51,-2258.22 44,-2258.22"/>
</g>
<!-- Node9 -->
<g id="node9" class="node">
<title>Node9</title>
<g id="a_node9"><a xlink:title="STL class.">
<polygon fill="none" stroke="#bfbfbf" points="264,-2274 264,-2331 369,-2331 369,-2274 264,-2274"/>
<text text-anchor="middle" x="316.5" y="-2319" font-family="Helvetica,sans-Serif" font-size="10.00">std::shared_ptr&lt; T &gt;</text>
<polyline fill="none" stroke="#bfbfbf" points="264,-2312 369,-2312 "/>
<text text-anchor="middle" x="316.5" y="-2300" font-family="Helvetica,sans-Serif" font-size="10.00"> </text>
<polyline fill="none" stroke="#bfbfbf" points="264,-2293 369,-2293 "/>
<text text-anchor="start" x="272" y="-2281" font-family="Helvetica,sans-Serif" font-size="10.00">+ operator&#45;&gt;()</text>
</a>
</g>
</g>
<!-- Node9&#45;&gt;Node2 -->
<g id="edge15" class="edge">
<title>Node9&#45;&gt;Node2</title>
<path fill="none" stroke="orange" d="M314.85,-2263.75C315.12,-2255.53 315.88,-2246.92 317.5,-2239 319.12,-2231.05 321.94,-2222.78 325,-2215.24"/>
<polygon fill="orange" stroke="orange" points="311.35,-2263.85 314.76,-2273.88 318.35,-2263.92 311.35,-2263.85"/>
<text text-anchor="middle" x="355" y="-2242" font-family="Helvetica,sans-Serif" font-size="10.00"> &lt; systemData &gt;</text>
</g>
<!-- Node9&#45;&gt;Node5 -->
<g id="edge9" class="edge">
<title>Node9&#45;&gt;Node5</title>
<path fill="none" stroke="orange" d="M279.26,-2266.51C241.67,-2228.32 186.17,-2163.33 164.5,-2094 136.39,-2004.07 128.16,-1968.93 164.5,-1882 179.38,-1846.41 211.45,-1816.31 237.95,-1796.07"/>
<polygon fill="orange" stroke="orange" points="276.98,-2269.18 286.52,-2273.78 281.93,-2264.23 276.98,-2269.18"/>
<text text-anchor="middle" x="210.5" y="-2120.5" font-family="Helvetica,sans-Serif" font-size="10.00"> &lt; GSDUtil &gt;</text>
</g>
<!-- Node11 -->
<g id="node11" class="node">
<title>Node11</title>
<g id="a_node11"><a xlink:title=" ">
<polygon fill="none" stroke="#bfbfbf" points="444,-2152.5 444,-2220.5 551,-2220.5 551,-2152.5 444,-2152.5"/>
<text text-anchor="start" x="452" y="-2208.5" font-family="Helvetica,sans-Serif" font-size="10.00">std::shared_ptr&lt; gsd</text>
<text text-anchor="middle" x="497.5" y="-2197.5" font-family="Helvetica,sans-Serif" font-size="10.00">_handle &gt;</text>
<polyline fill="none" stroke="#bfbfbf" points="444,-2190.5 551,-2190.5 "/>
<text text-anchor="middle" x="497.5" y="-2178.5" font-family="Helvetica,sans-Serif" font-size="10.00"> </text>
<polyline fill="none" stroke="#bfbfbf" points="444,-2171.5 551,-2171.5 "/>
<text text-anchor="middle" x="497.5" y="-2159.5" font-family="Helvetica,sans-Serif" font-size="10.00"> </text>
</a>
</g>
</g>
<!-- Node9&#45;&gt;Node11 -->
<g id="edge14" class="edge">
<title>Node9&#45;&gt;Node11</title>
<path fill="none" stroke="orange" d="M368.92,-2268.48C392.85,-2253.41 421.14,-2235.6 445.07,-2220.52"/>
<polygon fill="orange" stroke="orange" points="366.91,-2265.61 360.32,-2273.9 370.64,-2271.54 366.91,-2265.61"/>
<text text-anchor="middle" x="448" y="-2242" font-family="Helvetica,sans-Serif" font-size="10.00"> &lt; gsd_handle &gt;</text>
</g>
<!-- Node10 -->
<g id="node10" class="node">
<title>Node10</title>
<g id="a_node10"><a xlink:title=" ">
<polygon fill="none" stroke="#bfbfbf" points="302,-2384.5 302,-2441.5 331,-2441.5 331,-2384.5 302,-2384.5"/>
<text text-anchor="middle" x="316.5" y="-2429.5" font-family="Helvetica,sans-Serif" font-size="10.00">T</text>
<polyline fill="none" stroke="#bfbfbf" points="302,-2422.5 331,-2422.5 "/>
<text text-anchor="middle" x="316.5" y="-2410.5" font-family="Helvetica,sans-Serif" font-size="10.00"> </text>
<polyline fill="none" stroke="#bfbfbf" points="302,-2403.5 331,-2403.5 "/>
<text text-anchor="middle" x="316.5" y="-2391.5" font-family="Helvetica,sans-Serif" font-size="10.00"> </text>
</a>
</g>
</g>
<!-- Node10&#45;&gt;Node9 -->
<g id="edge10" class="edge">
<title>Node10&#45;&gt;Node9</title>
<path fill="none" stroke="#404040" d="M316.5,-2384.34C316.5,-2371.84 316.5,-2356.84 316.5,-2343.18"/>
<polygon fill="none" stroke="#404040" points="316.5,-2343.11 312.5,-2337.11 316.5,-2331.11 320.5,-2337.11 316.5,-2343.11"/>
<text text-anchor="middle" x="327" y="-2358" font-family="Helvetica,sans-Serif" font-size="10.00"> +ptr</text>
</g>
<!-- Node11&#45;&gt;Node3 -->
<g id="edge12" class="edge">
<title>Node11&#45;&gt;Node3</title>
<path fill="none" stroke="#404040" d="M494.65,-2152.14C488.98,-2087.74 475.26,-1941.91 457.5,-1820 432.73,-1649.98 400.23,-1464.27 369.79,-1300.91"/>
<polygon fill="none" stroke="#404040" points="369.72,-1300.48 364.68,-1295.32 367.51,-1288.69 372.55,-1293.85 369.72,-1300.48"/>
<text text-anchor="middle" x="488" y="-1839.5" font-family="Helvetica,sans-Serif" font-size="10.00"> &#45;m_handle</text>
</g>
<!-- Node12 -->
<g id="node12" class="node">
<title>Node12</title>
<g id="a_node12"><a xlink:title=" ">
<polygon fill="none" stroke="#bfbfbf" points="475.5,-2274 475.5,-2331 541.5,-2331 541.5,-2274 475.5,-2274"/>
<text text-anchor="middle" x="508.5" y="-2319" font-family="Helvetica,sans-Serif" font-size="10.00">gsd_handle</text>
<polyline fill="none" stroke="#bfbfbf" points="475.5,-2312 541.5,-2312 "/>
<text text-anchor="middle" x="508.5" y="-2300" font-family="Helvetica,sans-Serif" font-size="10.00"> </text>
<polyline fill="none" stroke="#bfbfbf" points="475.5,-2293 541.5,-2293 "/>
<text text-anchor="middle" x="508.5" y="-2281" font-family="Helvetica,sans-Serif" font-size="10.00"> </text>
</a>
</g>
</g>
<!-- Node12&#45;&gt;Node11 -->
<g id="edge13" class="edge">
<title>Node12&#45;&gt;Node11</title>
<path fill="none" stroke="#404040" d="M505.84,-2273.9C504.64,-2261.47 503.19,-2246.46 501.84,-2232.47"/>
<polygon fill="none" stroke="#404040" points="501.84,-2232.47 497.28,-2226.88 500.69,-2220.52 505.24,-2226.11 501.84,-2232.47"/>
<text text-anchor="middle" x="514" y="-2242" font-family="Helvetica,sans-Serif" font-size="10.00"> +ptr</text>
</g>
</g>
</svg>
