<?xml version="1.0" encoding="UTF-8" standalone="no"?>
<!DOCTYPE svg PUBLIC "-//W3C//DTD SVG 1.1//EN"
 "http://www.w3.org/Graphics/SVG/1.1/DTD/svg11.dtd">
<!-- Generated by graphviz version 2.43.0 (0)
 -->
<!-- Title: RungeKutta4 Pages: 1 -->
<svg width="910pt" height="2780pt"
 viewBox="0.00 0.00 910.00 2780.00" xmlns="http://www.w3.org/2000/svg" xmlns:xlink="http://www.w3.org/1999/xlink">
<g id="graph0" class="graph" transform="scale(1 1) rotate(0) translate(4 2776)">
<title>RungeKutta4</title>
<!-- Node1 -->
<g id="node1" class="node">
<title>Node1</title>
<g id="a_node1"><a xlink:title="Standard Runge&#45;Kutta 4th order integration.">
<polygon fill="#bfbfbf" stroke="black" points="683,-754 683,-943 806,-943 806,-754 683,-754"/>
<text text-anchor="middle" x="744.5" y="-931" font-family="Helvetica,sans-Serif" font-size="10.00">RungeKutta4</text>
<polyline fill="none" stroke="black" points="683,-924 806,-924 "/>
<text text-anchor="start" x="691" y="-912" font-family="Helvetica,sans-Serif" font-size="10.00">&#45; m_dt</text>
<text text-anchor="start" x="691" y="-901" font-family="Helvetica,sans-Serif" font-size="10.00">&#45; m_c1_2_dt</text>
<text text-anchor="start" x="691" y="-890" font-family="Helvetica,sans-Serif" font-size="10.00">&#45; m_c1_6_dt</text>
<text text-anchor="start" x="691" y="-879" font-family="Helvetica,sans-Serif" font-size="10.00">&#45; m_7M</text>
<text text-anchor="start" x="691" y="-868" font-family="Helvetica,sans-Serif" font-size="10.00">&#45; m_c1_2</text>
<text text-anchor="start" x="691" y="-857" font-family="Helvetica,sans-Serif" font-size="10.00">&#45; m_c1_6</text>
<polyline fill="none" stroke="black" points="683,-850 806,-850 "/>
<text text-anchor="start" x="691" y="-838" font-family="Helvetica,sans-Serif" font-size="10.00">+ RungeKutta4()</text>
<text text-anchor="start" x="691" y="-827" font-family="Helvetica,sans-Serif" font-size="10.00">+ ~RungeKutta4()</text>
<text text-anchor="start" x="691" y="-816" font-family="Helvetica,sans-Serif" font-size="10.00">+ integrate()</text>
<text text-anchor="start" x="691" y="-805" font-family="Helvetica,sans-Serif" font-size="10.00">&#45; integrateSecondOrder()</text>
<text text-anchor="start" x="691" y="-794" font-family="Helvetica,sans-Serif" font-size="10.00">&#45; accelerationUpdate()</text>
<text text-anchor="start" x="691" y="-783" font-family="Helvetica,sans-Serif" font-size="10.00">&#45; imageBodyPosVel()</text>
<text text-anchor="start" x="691" y="-772" font-family="Helvetica,sans-Serif" font-size="10.00">&#45; imageBodyAcc()</text>
<text text-anchor="start" x="691" y="-761" font-family="Helvetica,sans-Serif" font-size="10.00">&#45; udwadiaKalaba()</text>
</a>
</g>
</g>
<!-- Node2 -->
<g id="node2" class="node">
<title>Node2</title>
<g id="a_node2"><a xlink:title=" ">
<polygon fill="none" stroke="#bfbfbf" points="535,-2488 535,-2545 690,-2545 690,-2488 535,-2488"/>
<text text-anchor="middle" x="612.5" y="-2533" font-family="Helvetica,sans-Serif" font-size="10.00">std::shared_ptr&lt; SystemData &gt;</text>
<polyline fill="none" stroke="#bfbfbf" points="535,-2526 690,-2526 "/>
<text text-anchor="middle" x="612.5" y="-2514" font-family="Helvetica,sans-Serif" font-size="10.00"> </text>
<polyline fill="none" stroke="#bfbfbf" points="535,-2507 690,-2507 "/>
<text text-anchor="start" x="543" y="-2495" font-family="Helvetica,sans-Serif" font-size="10.00">+ operator&#45;&gt;()</text>
</a>
</g>
</g>
<!-- Node2&#45;&gt;Node1 -->
<g id="edge1" class="edge">
<title>Node2&#45;&gt;Node1</title>
<path fill="none" stroke="#404040" d="M663.99,-2487.96C687.28,-2472.52 712.46,-2450.92 725.5,-2424 741.52,-2390.94 744.03,-1302.73 744.43,-955.12"/>
<polygon fill="none" stroke="#404040" points="744.43,-955.06 740.43,-949.06 744.44,-943.06 748.43,-949.07 744.43,-955.06"/>
<text text-anchor="middle" x="766.5" y="-1850.5" font-family="Helvetica,sans-Serif" font-size="10.00"> &#45;m_system</text>
</g>
<!-- Node6 -->
<g id="node6" class="node">
<title>Node6</title>
<g id="a_node6"><a xlink:href="classGSDUtil.html" target="_top" xlink:title="Wrapper class for gsd.h to load data from input GSD file into SystemData class.">
<polygon fill="none" stroke="black" points="288.5,-2053 288.5,-2264 410.5,-2264 410.5,-2053 288.5,-2053"/>
<text text-anchor="middle" x="349.5" y="-2252" font-family="Helvetica,sans-Serif" font-size="10.00">GSDUtil</text>
<polyline fill="none" stroke="black" points="288.5,-2245 410.5,-2245 "/>
<text text-anchor="start" x="296.5" y="-2233" font-family="Helvetica,sans-Serif" font-size="10.00">&#45; m_frame</text>
<polyline fill="none" stroke="black" points="288.5,-2226 410.5,-2226 "/>
<text text-anchor="start" x="296.5" y="-2214" font-family="Helvetica,sans-Serif" font-size="10.00">+ GSDUtil()</text>
<text text-anchor="start" x="296.5" y="-2203" font-family="Helvetica,sans-Serif" font-size="10.00">+ GSDUtil()</text>
<text text-anchor="start" x="296.5" y="-2192" font-family="Helvetica,sans-Serif" font-size="10.00">+ ~GSDUtil()</text>
<text text-anchor="start" x="296.5" y="-2181" font-family="Helvetica,sans-Serif" font-size="10.00">+ truncateGSD()</text>
<text text-anchor="start" x="296.5" y="-2170" font-family="Helvetica,sans-Serif" font-size="10.00">+ writeFrame()</text>
<text text-anchor="start" x="296.5" y="-2159" font-family="Helvetica,sans-Serif" font-size="10.00">+ frame()</text>
<text text-anchor="start" x="296.5" y="-2148" font-family="Helvetica,sans-Serif" font-size="10.00">&#45; checkGSDReturn()</text>
<text text-anchor="start" x="296.5" y="-2137" font-family="Helvetica,sans-Serif" font-size="10.00">&#45; readChunk()</text>
<text text-anchor="start" x="296.5" y="-2126" font-family="Helvetica,sans-Serif" font-size="10.00">&#45; readHeader()</text>
<text text-anchor="start" x="296.5" y="-2115" font-family="Helvetica,sans-Serif" font-size="10.00">&#45; readParameters()</text>
<text text-anchor="start" x="296.5" y="-2104" font-family="Helvetica,sans-Serif" font-size="10.00">&#45; readParticles()</text>
<text text-anchor="start" x="296.5" y="-2093" font-family="Helvetica,sans-Serif" font-size="10.00">&#45; readSystemSpecifics()</text>
<text text-anchor="start" x="296.5" y="-2082" font-family="Helvetica,sans-Serif" font-size="10.00">&#45; writeHeader()</text>
<text text-anchor="start" x="296.5" y="-2071" font-family="Helvetica,sans-Serif" font-size="10.00">&#45; writeParameters()</text>
<text text-anchor="start" x="296.5" y="-2060" font-family="Helvetica,sans-Serif" font-size="10.00">&#45; writeParticles()</text>
</a>
</g>
</g>
<!-- Node2&#45;&gt;Node6 -->
<g id="edge6" class="edge">
<title>Node2&#45;&gt;Node6</title>
<path fill="none" stroke="#404040" d="M534.99,-2510.89C466.36,-2504.99 373.59,-2491.98 350.5,-2464 308.22,-2412.77 307.2,-2338.47 317.13,-2276.09"/>
<polygon fill="none" stroke="#404040" points="317.14,-2276.02 314.22,-2269.43 319.18,-2264.19 322.1,-2270.78 317.14,-2276.02"/>
<text text-anchor="middle" x="376.5" y="-2450.5" font-family="Helvetica,sans-Serif" font-size="10.00"> &#45;m_system</text>
</g>
<!-- Node14 -->
<g id="node14" class="node">
<title>Node14</title>
<g id="a_node14"><a xlink:href="classPotentialHydrodynamics.html" target="_top" xlink:title="Computes hydrodynamic tensors (mass, forces) on a finite number of spheres in potential flow.">
<polygon fill="none" stroke="black" points="572.5,-1893.5 572.5,-2423.5 716.5,-2423.5 716.5,-1893.5 572.5,-1893.5"/>
<text text-anchor="middle" x="644.5" y="-2411.5" font-family="Helvetica,sans-Serif" font-size="10.00">PotentialHydrodynamics</text>
<polyline fill="none" stroke="black" points="572.5,-2404.5 716.5,-2404.5 "/>
<text text-anchor="start" x="580.5" y="-2392.5" font-family="Helvetica,sans-Serif" font-size="10.00">&#45; m_num_pair_inter</text>
<text text-anchor="start" x="580.5" y="-2381.5" font-family="Helvetica,sans-Serif" font-size="10.00">&#45; m_7N</text>
<text text-anchor="start" x="580.5" y="-2370.5" font-family="Helvetica,sans-Serif" font-size="10.00">&#45; m_7M</text>
<text text-anchor="start" x="580.5" y="-2359.5" font-family="Helvetica,sans-Serif" font-size="10.00">&#45; m_alphaVec</text>
<text text-anchor="start" x="580.5" y="-2348.5" font-family="Helvetica,sans-Serif" font-size="10.00">&#45; m_betaVec</text>
<text text-anchor="start" x="580.5" y="-2337.5" font-family="Helvetica,sans-Serif" font-size="10.00">&#45; m_r_mag_ab</text>
<text text-anchor="start" x="580.5" y="-2326.5" font-family="Helvetica,sans-Serif" font-size="10.00">&#45; m_r_ab</text>
<text text-anchor="start" x="580.5" y="-2315.5" font-family="Helvetica,sans-Serif" font-size="10.00">&#45; m_I7N_linear</text>
<text text-anchor="start" x="580.5" y="-2304.5" font-family="Helvetica,sans-Serif" font-size="10.00">&#45; m_I7N_angular</text>
<text text-anchor="start" x="580.5" y="-2293.5" font-family="Helvetica,sans-Serif" font-size="10.00">&#45; m_c1_2_I7N_linear</text>
<text text-anchor="start" x="580.5" y="-2282.5" font-family="Helvetica,sans-Serif" font-size="10.00">&#45; m_M_added</text>
<text text-anchor="start" x="580.5" y="-2271.5" font-family="Helvetica,sans-Serif" font-size="10.00">&#45; m_M_intrinsic</text>
<text text-anchor="start" x="580.5" y="-2260.5" font-family="Helvetica,sans-Serif" font-size="10.00">&#45; m_J_intrinsic</text>
<text text-anchor="start" x="580.5" y="-2249.5" font-family="Helvetica,sans-Serif" font-size="10.00">&#45; m_M_total</text>
<text text-anchor="start" x="580.5" y="-2238.5" font-family="Helvetica,sans-Serif" font-size="10.00">&#45; m_tens_M_total</text>
<text text-anchor="start" x="580.5" y="-2227.5" font-family="Helvetica,sans-Serif" font-size="10.00">&#45; m_grad_M_added</text>
<text text-anchor="start" x="580.5" y="-2216.5" font-family="Helvetica,sans-Serif" font-size="10.00">&#45; m_grad_M_added_body</text>
<text text-anchor="start" x="580.5" y="-2205.5" font-family="Helvetica,sans-Serif" font-size="10.00">_coords</text>
<text text-anchor="start" x="580.5" y="-2194.5" font-family="Helvetica,sans-Serif" font-size="10.00">&#45; m_F_hydro</text>
<text text-anchor="start" x="580.5" y="-2183.5" font-family="Helvetica,sans-Serif" font-size="10.00">&#45; m_F_hydroNoInertia</text>
<text text-anchor="start" x="580.5" y="-2172.5" font-family="Helvetica,sans-Serif" font-size="10.00">&#45; m_N1</text>
<text text-anchor="start" x="580.5" y="-2161.5" font-family="Helvetica,sans-Serif" font-size="10.00">&#45; m_N2</text>
<text text-anchor="start" x="580.5" y="-2150.5" font-family="Helvetica,sans-Serif" font-size="10.00">&#45; m_N3</text>
<text text-anchor="start" x="580.5" y="-2139.5" font-family="Helvetica,sans-Serif" font-size="10.00">&#45; m_M3</text>
<text text-anchor="start" x="580.5" y="-2128.5" font-family="Helvetica,sans-Serif" font-size="10.00">&#45; m_M2</text>
<text text-anchor="start" x="580.5" y="-2117.5" font-family="Helvetica,sans-Serif" font-size="10.00">&#45; m_mat_M3</text>
<text text-anchor="start" x="580.5" y="-2106.5" font-family="Helvetica,sans-Serif" font-size="10.00">&#45; m_unit_sphere_volume</text>
<text text-anchor="start" x="580.5" y="-2095.5" font-family="Helvetica,sans-Serif" font-size="10.00">&#45; m_scalar_moment_inertia</text>
<text text-anchor="start" x="580.5" y="-2084.5" font-family="Helvetica,sans-Serif" font-size="10.00">&#45; m_scalar_w</text>
<text text-anchor="start" x="580.5" y="-2073.5" font-family="Helvetica,sans-Serif" font-size="10.00">&#45; m_c1_2</text>
<text text-anchor="start" x="580.5" y="-2062.5" font-family="Helvetica,sans-Serif" font-size="10.00">&#45; m_c3_2</text>
<text text-anchor="start" x="580.5" y="-2051.5" font-family="Helvetica,sans-Serif" font-size="10.00">&#45; m_c15_2</text>
<polyline fill="none" stroke="black" points="572.5,-2044.5 716.5,-2044.5 "/>
<text text-anchor="start" x="580.5" y="-2032.5" font-family="Helvetica,sans-Serif" font-size="10.00">+ PotentialHydrodynamics()</text>
<text text-anchor="start" x="580.5" y="-2021.5" font-family="Helvetica,sans-Serif" font-size="10.00">+ ~PotentialHydrodynamics()</text>
<text text-anchor="start" x="580.5" y="-2010.5" font-family="Helvetica,sans-Serif" font-size="10.00">+ update()</text>
<text text-anchor="start" x="580.5" y="-1999.5" font-family="Helvetica,sans-Serif" font-size="10.00">+ fHydro()</text>
<text text-anchor="start" x="580.5" y="-1988.5" font-family="Helvetica,sans-Serif" font-size="10.00">+ fHydroNoInertia()</text>
<text text-anchor="start" x="580.5" y="-1977.5" font-family="Helvetica,sans-Serif" font-size="10.00">+ mTotal()</text>
<text text-anchor="start" x="580.5" y="-1966.5" font-family="Helvetica,sans-Serif" font-size="10.00">+ mTotalBodyCoords()</text>
<text text-anchor="start" x="580.5" y="-1955.5" font-family="Helvetica,sans-Serif" font-size="10.00">&#45; calcParticleDistances()</text>
<text text-anchor="start" x="580.5" y="-1944.5" font-family="Helvetica,sans-Serif" font-size="10.00">&#45; calcAddedMass()</text>
<text text-anchor="start" x="580.5" y="-1933.5" font-family="Helvetica,sans-Serif" font-size="10.00">&#45; calcTotalMass()</text>
<text text-anchor="start" x="580.5" y="-1922.5" font-family="Helvetica,sans-Serif" font-size="10.00">&#45; calcAddedMassGrad()</text>
<text text-anchor="start" x="580.5" y="-1911.5" font-family="Helvetica,sans-Serif" font-size="10.00">&#45; calcBodyTensors()</text>
<text text-anchor="start" x="580.5" y="-1900.5" font-family="Helvetica,sans-Serif" font-size="10.00">&#45; calcHydroForces()</text>
</a>
</g>
</g>
<!-- Node2&#45;&gt;Node14 -->
<g id="edge19" class="edge">
<title>Node2&#45;&gt;Node14</title>
<path fill="none" stroke="#404040" d="M614.98,-2487.86C616.21,-2474.21 617.82,-2456.27 619.66,-2435.8"/>
<polygon fill="none" stroke="#404040" points="619.67,-2435.78 616.22,-2429.44 620.74,-2423.83 624.19,-2430.16 619.67,-2435.78"/>
<text text-anchor="middle" x="644.5" y="-2450.5" font-family="Helvetica,sans-Serif" font-size="10.00"> &#45;m_system</text>
</g>
<!-- Node3 -->
<g id="node3" class="node">
<title>Node3</title>
<g id="a_node3"><a xlink:href="classSystemData.html" target="_top" xlink:title="Class contains all data structures relevant to the simulation framework. Note that after construction...">
<polygon fill="none" stroke="black" points="97.5,-0.5 97.5,-1696.5 273.5,-1696.5 273.5,-0.5 97.5,-0.5"/>
<text text-anchor="middle" x="185.5" y="-1684.5" font-family="Helvetica,sans-Serif" font-size="10.00">SystemData</text>
<polyline fill="none" stroke="black" points="97.5,-1677.5 273.5,-1677.5 "/>
<text text-anchor="start" x="105.5" y="-1665.5" font-family="Helvetica,sans-Serif" font-size="10.00">&#45; m_image_system</text>
<text text-anchor="start" x="105.5" y="-1654.5" font-family="Helvetica,sans-Serif" font-size="10.00">&#45; m_return_val</text>
<text text-anchor="start" x="105.5" y="-1643.5" font-family="Helvetica,sans-Serif" font-size="10.00">&#45; m_return_bool</text>
<text text-anchor="start" x="105.5" y="-1632.5" font-family="Helvetica,sans-Serif" font-size="10.00">&#45; m_GSD_parsed</text>
<text text-anchor="start" x="105.5" y="-1621.5" font-family="Helvetica,sans-Serif" font-size="10.00">&#45; m_sys_spec_U0</text>
<text text-anchor="start" x="105.5" y="-1610.5" font-family="Helvetica,sans-Serif" font-size="10.00">&#45; m_sys_spec_omega</text>
<text text-anchor="start" x="105.5" y="-1599.5" font-family="Helvetica,sans-Serif" font-size="10.00">&#45; m_sys_spec_phase_shift</text>
<text text-anchor="start" x="105.5" y="-1588.5" font-family="Helvetica,sans-Serif" font-size="10.00">&#45; m_sys_spec_R_avg</text>
<text text-anchor="start" x="105.5" y="-1577.5" font-family="Helvetica,sans-Serif" font-size="10.00">&#45; m_sys_scalar_w</text>
<text text-anchor="start" x="105.5" y="-1566.5" font-family="Helvetica,sans-Serif" font-size="10.00">&#45; m_particle_type_id</text>
<text text-anchor="start" x="105.5" y="-1555.5" font-family="Helvetica,sans-Serif" font-size="10.00">&#45; m_particle_group_id</text>
<text text-anchor="start" x="105.5" y="-1544.5" font-family="Helvetica,sans-Serif" font-size="10.00">&#45; m_fluid_density</text>
<text text-anchor="start" x="105.5" y="-1533.5" font-family="Helvetica,sans-Serif" font-size="10.00">&#45; m_particle_density</text>
<text text-anchor="start" x="105.5" y="-1522.5" font-family="Helvetica,sans-Serif" font-size="10.00">&#45; m_wca_epsilon</text>
<text text-anchor="start" x="105.5" y="-1511.5" font-family="Helvetica,sans-Serif" font-size="10.00">&#45; m_wca_sigma</text>
<text text-anchor="start" x="105.5" y="-1500.5" font-family="Helvetica,sans-Serif" font-size="10.00">&#45; m_num_spatial_dim</text>
<text text-anchor="start" x="105.5" y="-1489.5" font-family="Helvetica,sans-Serif" font-size="10.00">&#45; m_num_particles</text>
<text text-anchor="start" x="105.5" y="-1478.5" font-family="Helvetica,sans-Serif" font-size="10.00">&#45; m_num_bodies</text>
<text text-anchor="start" x="105.5" y="-1467.5" font-family="Helvetica,sans-Serif" font-size="10.00">&#45; m_num_DoF</text>
<text text-anchor="start" x="105.5" y="-1456.5" font-family="Helvetica,sans-Serif" font-size="10.00">&#45; m_num_constraints</text>
<text text-anchor="start" x="105.5" y="-1445.5" font-family="Helvetica,sans-Serif" font-size="10.00">&#45; m_dt</text>
<text text-anchor="start" x="105.5" y="-1434.5" font-family="Helvetica,sans-Serif" font-size="10.00">&#45; m_tf</text>
<text text-anchor="start" x="105.5" y="-1423.5" font-family="Helvetica,sans-Serif" font-size="10.00">&#45; m_t0</text>
<text text-anchor="start" x="105.5" y="-1412.5" font-family="Helvetica,sans-Serif" font-size="10.00">&#45; m_t</text>
<text text-anchor="start" x="105.5" y="-1401.5" font-family="Helvetica,sans-Serif" font-size="10.00">&#45; m_tau</text>
<text text-anchor="start" x="105.5" y="-1390.5" font-family="Helvetica,sans-Serif" font-size="10.00">&#45; m_timestep</text>
<text text-anchor="start" x="105.5" y="-1379.5" font-family="Helvetica,sans-Serif" font-size="10.00">&#45; m_num_steps_output</text>
<text text-anchor="start" x="105.5" y="-1368.5" font-family="Helvetica,sans-Serif" font-size="10.00">&#45; m_I3</text>
<text text-anchor="start" x="105.5" y="-1357.5" font-family="Helvetica,sans-Serif" font-size="10.00">&#45; m_tens_I3</text>
<text text-anchor="start" x="105.5" y="-1346.5" font-family="Helvetica,sans-Serif" font-size="10.00">&#45; m_levi_cevita</text>
<text text-anchor="start" x="105.5" y="-1335.5" font-family="Helvetica,sans-Serif" font-size="10.00">&#45; m_kappa</text>
<text text-anchor="start" x="105.5" y="-1324.5" font-family="Helvetica,sans-Serif" font-size="10.00">&#45; m_positions_bodies</text>
<text text-anchor="start" x="105.5" y="-1313.5" font-family="Helvetica,sans-Serif" font-size="10.00">&#45; m_velocities_bodies</text>
<text text-anchor="start" x="105.5" y="-1302.5" font-family="Helvetica,sans-Serif" font-size="10.00">&#45; m_accelerations_bodies</text>
<text text-anchor="start" x="105.5" y="-1291.5" font-family="Helvetica,sans-Serif" font-size="10.00">&#45; m_positions_particles</text>
<text text-anchor="start" x="105.5" y="-1280.5" font-family="Helvetica,sans-Serif" font-size="10.00">&#45; m_velocities_particles</text>
<text text-anchor="start" x="105.5" y="-1269.5" font-family="Helvetica,sans-Serif" font-size="10.00">&#45; m_accelerations_particles</text>
<text text-anchor="start" x="105.5" y="-1258.5" font-family="Helvetica,sans-Serif" font-size="10.00">&#45; m_orientations_particles</text>
<text text-anchor="start" x="105.5" y="-1247.5" font-family="Helvetica,sans-Serif" font-size="10.00">&#45; m_quaternions_particles</text>
<text text-anchor="start" x="105.5" y="-1236.5" font-family="Helvetica,sans-Serif" font-size="10.00">&#45; m_positions_particles</text>
<text text-anchor="start" x="105.5" y="-1225.5" font-family="Helvetica,sans-Serif" font-size="10.00">_articulation_init_norm</text>
<text text-anchor="start" x="105.5" y="-1214.5" font-family="Helvetica,sans-Serif" font-size="10.00">&#45; m_positions_particles</text>
<text text-anchor="start" x="105.5" y="-1203.5" font-family="Helvetica,sans-Serif" font-size="10.00">_articulation</text>
<text text-anchor="start" x="105.5" y="-1192.5" font-family="Helvetica,sans-Serif" font-size="10.00">&#45; m_velocities_particles</text>
<text text-anchor="start" x="105.5" y="-1181.5" font-family="Helvetica,sans-Serif" font-size="10.00">_articulation</text>
<text text-anchor="start" x="105.5" y="-1170.5" font-family="Helvetica,sans-Serif" font-size="10.00">&#45; m_accelerations_particles</text>
<text text-anchor="start" x="105.5" y="-1159.5" font-family="Helvetica,sans-Serif" font-size="10.00">_articulation</text>
<text text-anchor="start" x="105.5" y="-1148.5" font-family="Helvetica,sans-Serif" font-size="10.00">&#45; m_rbm_conn</text>
<text text-anchor="start" x="105.5" y="-1137.5" font-family="Helvetica,sans-Serif" font-size="10.00">&#45; m_psi_conv_quat_ang</text>
<text text-anchor="start" x="105.5" y="-1126.5" font-family="Helvetica,sans-Serif" font-size="10.00">&#45; m_zeta</text>
<text text-anchor="start" x="105.5" y="-1115.5" font-family="Helvetica,sans-Serif" font-size="10.00">&#45; m_tens_zeta</text>
<text text-anchor="start" x="105.5" y="-1104.5" font-family="Helvetica,sans-Serif" font-size="10.00">&#45; m_tens_grad_zeta</text>
<text text-anchor="start" x="105.5" y="-1093.5" font-family="Helvetica,sans-Serif" font-size="10.00">&#45; m_chi</text>
<text text-anchor="start" x="105.5" y="-1082.5" font-family="Helvetica,sans-Serif" font-size="10.00">&#45; m_tens_chi</text>
<text text-anchor="start" x="105.5" y="-1071.5" font-family="Helvetica,sans-Serif" font-size="10.00">&#45; m_Udwadia_A</text>
<text text-anchor="start" x="105.5" y="-1060.5" font-family="Helvetica,sans-Serif" font-size="10.00">&#45; m_Udwadia_b</text>
<polyline fill="none" stroke="black" points="97.5,-1053.5 273.5,-1053.5 "/>
<text text-anchor="start" x="105.5" y="-1041.5" font-family="Helvetica,sans-Serif" font-size="10.00">+ SystemData()</text>
<text text-anchor="start" x="105.5" y="-1030.5" font-family="Helvetica,sans-Serif" font-size="10.00">+ SystemData()</text>
<text text-anchor="start" x="105.5" y="-1019.5" font-family="Helvetica,sans-Serif" font-size="10.00">+ ~SystemData()</text>
<text text-anchor="start" x="105.5" y="-1008.5" font-family="Helvetica,sans-Serif" font-size="10.00">+ initializeData()</text>
<text text-anchor="start" x="105.5" y="-997.5" font-family="Helvetica,sans-Serif" font-size="10.00">+ logData()</text>
<text text-anchor="start" x="105.5" y="-986.5" font-family="Helvetica,sans-Serif" font-size="10.00">+ update()</text>
<text text-anchor="start" x="105.5" y="-975.5" font-family="Helvetica,sans-Serif" font-size="10.00">+ imageSystem()</text>
<text text-anchor="start" x="105.5" y="-964.5" font-family="Helvetica,sans-Serif" font-size="10.00">+ setImageSystem()</text>
<text text-anchor="start" x="105.5" y="-953.5" font-family="Helvetica,sans-Serif" font-size="10.00">+ inputGSDFile()</text>
<text text-anchor="start" x="105.5" y="-942.5" font-family="Helvetica,sans-Serif" font-size="10.00">+ outputDir()</text>
<text text-anchor="start" x="105.5" y="-931.5" font-family="Helvetica,sans-Serif" font-size="10.00">+ setOutputDir()</text>
<text text-anchor="start" x="105.5" y="-920.5" font-family="Helvetica,sans-Serif" font-size="10.00">+ gsdUtil()</text>
<text text-anchor="start" x="105.5" y="-909.5" font-family="Helvetica,sans-Serif" font-size="10.00">+ handle()</text>
<text text-anchor="start" x="105.5" y="-898.5" font-family="Helvetica,sans-Serif" font-size="10.00">+ setReturnVal()</text>
<text text-anchor="start" x="105.5" y="-887.5" font-family="Helvetica,sans-Serif" font-size="10.00">+ returnVal()</text>
<text text-anchor="start" x="105.5" y="-876.5" font-family="Helvetica,sans-Serif" font-size="10.00">+ setReturnBool()</text>
<text text-anchor="start" x="105.5" y="-865.5" font-family="Helvetica,sans-Serif" font-size="10.00">+ returnBool()</text>
<text text-anchor="start" x="105.5" y="-854.5" font-family="Helvetica,sans-Serif" font-size="10.00">+ gSDParsed()</text>
<text text-anchor="start" x="105.5" y="-843.5" font-family="Helvetica,sans-Serif" font-size="10.00">+ sysSpecU0()</text>
<text text-anchor="start" x="105.5" y="-832.5" font-family="Helvetica,sans-Serif" font-size="10.00">+ setSysSpecU0()</text>
<text text-anchor="start" x="105.5" y="-821.5" font-family="Helvetica,sans-Serif" font-size="10.00">+ sysSpecOmega()</text>
<text text-anchor="start" x="105.5" y="-810.5" font-family="Helvetica,sans-Serif" font-size="10.00">+ setSysSpecOmega()</text>
<text text-anchor="start" x="105.5" y="-799.5" font-family="Helvetica,sans-Serif" font-size="10.00">+ sysSpecPhaseShift()</text>
<text text-anchor="start" x="105.5" y="-788.5" font-family="Helvetica,sans-Serif" font-size="10.00">+ setSysSpecPhaseShift()</text>
<text text-anchor="start" x="105.5" y="-777.5" font-family="Helvetica,sans-Serif" font-size="10.00">+ sysSpecRAvg()</text>
<text text-anchor="start" x="105.5" y="-766.5" font-family="Helvetica,sans-Serif" font-size="10.00">+ setSysSpecRAvg()</text>
<text text-anchor="start" x="105.5" y="-755.5" font-family="Helvetica,sans-Serif" font-size="10.00">+ particleTypeId()</text>
<text text-anchor="start" x="105.5" y="-744.5" font-family="Helvetica,sans-Serif" font-size="10.00">+ setParticleTypeId()</text>
<text text-anchor="start" x="105.5" y="-733.5" font-family="Helvetica,sans-Serif" font-size="10.00">+ fluidDensity()</text>
<text text-anchor="start" x="105.5" y="-722.5" font-family="Helvetica,sans-Serif" font-size="10.00">+ setFluidDensity()</text>
<text text-anchor="start" x="105.5" y="-711.5" font-family="Helvetica,sans-Serif" font-size="10.00">+ particleDensity()</text>
<text text-anchor="start" x="105.5" y="-700.5" font-family="Helvetica,sans-Serif" font-size="10.00">+ setParticleDensity()</text>
<text text-anchor="start" x="105.5" y="-689.5" font-family="Helvetica,sans-Serif" font-size="10.00">+ wcaEpsilon()</text>
<text text-anchor="start" x="105.5" y="-678.5" font-family="Helvetica,sans-Serif" font-size="10.00">+ setWcaEpsilon()</text>
<text text-anchor="start" x="105.5" y="-667.5" font-family="Helvetica,sans-Serif" font-size="10.00">+ wcaSigma()</text>
<text text-anchor="start" x="105.5" y="-656.5" font-family="Helvetica,sans-Serif" font-size="10.00">+ setWcaSigma()</text>
<text text-anchor="start" x="105.5" y="-645.5" font-family="Helvetica,sans-Serif" font-size="10.00">+ numSpatialDim()</text>
<text text-anchor="start" x="105.5" y="-634.5" font-family="Helvetica,sans-Serif" font-size="10.00">+ setNumSpatialDim()</text>
<text text-anchor="start" x="105.5" y="-623.5" font-family="Helvetica,sans-Serif" font-size="10.00">+ numParticles()</text>
<text text-anchor="start" x="105.5" y="-612.5" font-family="Helvetica,sans-Serif" font-size="10.00">+ setNumParticles()</text>
<text text-anchor="start" x="105.5" y="-601.5" font-family="Helvetica,sans-Serif" font-size="10.00">+ numBodies()</text>
<text text-anchor="start" x="105.5" y="-590.5" font-family="Helvetica,sans-Serif" font-size="10.00">+ setNumBodies()</text>
<text text-anchor="start" x="105.5" y="-579.5" font-family="Helvetica,sans-Serif" font-size="10.00">+ numDoF()</text>
<text text-anchor="start" x="105.5" y="-568.5" font-family="Helvetica,sans-Serif" font-size="10.00">+ tensI3()</text>
<text text-anchor="start" x="105.5" y="-557.5" font-family="Helvetica,sans-Serif" font-size="10.00">+ i3()</text>
<text text-anchor="start" x="105.5" y="-546.5" font-family="Helvetica,sans-Serif" font-size="10.00">+ dt()</text>
<text text-anchor="start" x="105.5" y="-535.5" font-family="Helvetica,sans-Serif" font-size="10.00">+ setDt()</text>
<text text-anchor="start" x="105.5" y="-524.5" font-family="Helvetica,sans-Serif" font-size="10.00">+ tf()</text>
<text text-anchor="start" x="105.5" y="-513.5" font-family="Helvetica,sans-Serif" font-size="10.00">+ setTf()</text>
<text text-anchor="start" x="105.5" y="-502.5" font-family="Helvetica,sans-Serif" font-size="10.00">+ t()</text>
<text text-anchor="start" x="105.5" y="-491.5" font-family="Helvetica,sans-Serif" font-size="10.00">+ setT()</text>
<text text-anchor="start" x="105.5" y="-480.5" font-family="Helvetica,sans-Serif" font-size="10.00">+ tau()</text>
<text text-anchor="start" x="105.5" y="-469.5" font-family="Helvetica,sans-Serif" font-size="10.00">+ setTau()</text>
<text text-anchor="start" x="105.5" y="-458.5" font-family="Helvetica,sans-Serif" font-size="10.00">+ timestep()</text>
<text text-anchor="start" x="105.5" y="-447.5" font-family="Helvetica,sans-Serif" font-size="10.00">+ setTimestep()</text>
<text text-anchor="start" x="105.5" y="-436.5" font-family="Helvetica,sans-Serif" font-size="10.00">+ numStepsOutput()</text>
<text text-anchor="start" x="105.5" y="-425.5" font-family="Helvetica,sans-Serif" font-size="10.00">+ setNumStepsOutput()</text>
<text text-anchor="start" x="105.5" y="-414.5" font-family="Helvetica,sans-Serif" font-size="10.00">+ positionsBodies()</text>
<text text-anchor="start" x="105.5" y="-403.5" font-family="Helvetica,sans-Serif" font-size="10.00">+ setPositionsBodies()</text>
<text text-anchor="start" x="105.5" y="-392.5" font-family="Helvetica,sans-Serif" font-size="10.00">+ velocitiesBodies()</text>
<text text-anchor="start" x="105.5" y="-381.5" font-family="Helvetica,sans-Serif" font-size="10.00">+ setVelocitiesBodies()</text>
<text text-anchor="start" x="105.5" y="-370.5" font-family="Helvetica,sans-Serif" font-size="10.00">+ accelerationsBodies()</text>
<text text-anchor="start" x="105.5" y="-359.5" font-family="Helvetica,sans-Serif" font-size="10.00">+ setAccelerationsBodies()</text>
<text text-anchor="start" x="105.5" y="-348.5" font-family="Helvetica,sans-Serif" font-size="10.00">+ quaternionsParticles()</text>
<text text-anchor="start" x="105.5" y="-337.5" font-family="Helvetica,sans-Serif" font-size="10.00">+ setQuaternionsParticles()</text>
<text text-anchor="start" x="105.5" y="-326.5" font-family="Helvetica,sans-Serif" font-size="10.00">+ orientationsParticles()</text>
<text text-anchor="start" x="105.5" y="-315.5" font-family="Helvetica,sans-Serif" font-size="10.00">+ setOrientationsParticles()</text>
<text text-anchor="start" x="105.5" y="-304.5" font-family="Helvetica,sans-Serif" font-size="10.00">+ positionsParticles()</text>
<text text-anchor="start" x="105.5" y="-293.5" font-family="Helvetica,sans-Serif" font-size="10.00">+ setPositionsParticles()</text>
<text text-anchor="start" x="105.5" y="-282.5" font-family="Helvetica,sans-Serif" font-size="10.00">+ velocitiesParticles()</text>
<text text-anchor="start" x="105.5" y="-271.5" font-family="Helvetica,sans-Serif" font-size="10.00">+ setVelocitiesParticles()</text>
<text text-anchor="start" x="105.5" y="-260.5" font-family="Helvetica,sans-Serif" font-size="10.00">+ accelerationsParticles()</text>
<text text-anchor="start" x="105.5" y="-249.5" font-family="Helvetica,sans-Serif" font-size="10.00">+ setAccelerationsParticles()</text>
<text text-anchor="start" x="105.5" y="-238.5" font-family="Helvetica,sans-Serif" font-size="10.00">+ velocitiesParticlesArticulation()</text>
<text text-anchor="start" x="105.5" y="-227.5" font-family="Helvetica,sans-Serif" font-size="10.00">+ accelerationsParticlesArticulation()</text>
<text text-anchor="start" x="105.5" y="-216.5" font-family="Helvetica,sans-Serif" font-size="10.00">+ tensZeta()</text>
<text text-anchor="start" x="105.5" y="-205.5" font-family="Helvetica,sans-Serif" font-size="10.00">+ tensGradZeta()</text>
<text text-anchor="start" x="105.5" y="-194.5" font-family="Helvetica,sans-Serif" font-size="10.00">+ tensChi()</text>
<text text-anchor="start" x="105.5" y="-183.5" font-family="Helvetica,sans-Serif" font-size="10.00">+ udwadiaA()</text>
<text text-anchor="start" x="105.5" y="-172.5" font-family="Helvetica,sans-Serif" font-size="10.00">+ udwadiaB()</text>
<text text-anchor="start" x="105.5" y="-161.5" font-family="Helvetica,sans-Serif" font-size="10.00">&#45; parseGSD()</text>
<text text-anchor="start" x="105.5" y="-150.5" font-family="Helvetica,sans-Serif" font-size="10.00">&#45; checkInput()</text>
<text text-anchor="start" x="105.5" y="-139.5" font-family="Helvetica,sans-Serif" font-size="10.00">&#45; positionsArticulation()</text>
<text text-anchor="start" x="105.5" y="-128.5" font-family="Helvetica,sans-Serif" font-size="10.00">&#45; velocitiesArticulation()</text>
<text text-anchor="start" x="105.5" y="-117.5" font-family="Helvetica,sans-Serif" font-size="10.00">&#45; accelerationsArticulation()</text>
<text text-anchor="start" x="105.5" y="-106.5" font-family="Helvetica,sans-Serif" font-size="10.00">&#45; udwadiaLinearSystem()</text>
<text text-anchor="start" x="105.5" y="-95.5" font-family="Helvetica,sans-Serif" font-size="10.00">&#45; rigidBodyMotionTensors()</text>
<text text-anchor="start" x="105.5" y="-84.5" font-family="Helvetica,sans-Serif" font-size="10.00">&#45; gradientChangeOfVariable</text>
<text text-anchor="start" x="105.5" y="-73.5" font-family="Helvetica,sans-Serif" font-size="10.00">Tensors()</text>
<text text-anchor="start" x="105.5" y="-62.5" font-family="Helvetica,sans-Serif" font-size="10.00">&#45; convertBody2ParticleOrient()</text>
<text text-anchor="start" x="105.5" y="-51.5" font-family="Helvetica,sans-Serif" font-size="10.00">&#45; convertBody2ParticlePos()</text>
<text text-anchor="start" x="105.5" y="-40.5" font-family="Helvetica,sans-Serif" font-size="10.00">&#45; convertBody2ParticleVelAcc()</text>
<text text-anchor="start" x="105.5" y="-29.5" font-family="Helvetica,sans-Serif" font-size="10.00">&#45; chiMatrixElement()</text>
<text text-anchor="start" x="105.5" y="-18.5" font-family="Helvetica,sans-Serif" font-size="10.00">&#45; crossProdMat()</text>
<text text-anchor="start" x="105.5" y="-7.5" font-family="Helvetica,sans-Serif" font-size="10.00">&#45; eMatrix()</text>
</a>
</g>
</g>
<!-- Node3&#45;&gt;Node2 -->
<g id="edge2" class="edge">
<title>Node3&#45;&gt;Node2</title>
<path fill="none" stroke="#404040" d="M273.55,-1101.8C332.92,-1279.55 409.29,-1524.1 459.5,-1744 527.56,-2042.06 466.83,-2133.95 563.5,-2424 569.61,-2442.33 579.2,-2461.37 588.28,-2477.29"/>
<polygon fill="none" stroke="#404040" points="588.36,-2477.43 594.85,-2480.58 594.44,-2487.78 587.95,-2484.63 588.36,-2477.43"/>
<text text-anchor="middle" x="494" y="-1850.5" font-family="Helvetica,sans-Serif" font-size="10.00"> +ptr</text>
</g>
<!-- Node4 -->
<g id="node4" class="node">
<title>Node4</title>
<g id="a_node4"><a xlink:title=" ">
<polygon fill="none" stroke="#bfbfbf" points="22,-1744.5 22,-1812.5 157,-1812.5 157,-1744.5 22,-1744.5"/>
<text text-anchor="start" x="30" y="-1800.5" font-family="Helvetica,sans-Serif" font-size="10.00">std::enable_shared</text>
<text text-anchor="middle" x="89.5" y="-1789.5" font-family="Helvetica,sans-Serif" font-size="10.00">_from_this&lt; SystemData &gt;</text>
<polyline fill="none" stroke="#bfbfbf" points="22,-1782.5 157,-1782.5 "/>
<text text-anchor="middle" x="89.5" y="-1770.5" font-family="Helvetica,sans-Serif" font-size="10.00"> </text>
<polyline fill="none" stroke="#bfbfbf" points="22,-1763.5 157,-1763.5 "/>
<text text-anchor="middle" x="89.5" y="-1751.5" font-family="Helvetica,sans-Serif" font-size="10.00"> </text>
</a>
</g>
</g>
<!-- Node4&#45;&gt;Node3 -->
<g id="edge3" class="edge">
<title>Node4&#45;&gt;Node3</title>
<path fill="none" stroke="midnightblue" d="M93.97,-1734.29C95.09,-1723.49 96.39,-1710.89 97.86,-1696.73"/>
<polygon fill="none" stroke="midnightblue" points="90.46,-1734.16 92.92,-1744.47 97.43,-1734.89 90.46,-1734.16"/>
</g>
<!-- Node5 -->
<g id="node5" class="node">
<title>Node5</title>
<g id="a_node5"><a xlink:title=" ">
<polygon fill="none" stroke="#bfbfbf" points="313,-1750 313,-1807 450,-1807 450,-1750 313,-1750"/>
<text text-anchor="middle" x="381.5" y="-1795" font-family="Helvetica,sans-Serif" font-size="10.00">std::shared_ptr&lt; GSDUtil &gt;</text>
<polyline fill="none" stroke="#bfbfbf" points="313,-1788 450,-1788 "/>
<text text-anchor="middle" x="381.5" y="-1776" font-family="Helvetica,sans-Serif" font-size="10.00"> </text>
<polyline fill="none" stroke="#bfbfbf" points="313,-1769 450,-1769 "/>
<text text-anchor="start" x="321" y="-1757" font-family="Helvetica,sans-Serif" font-size="10.00">+ operator&#45;&gt;()</text>
</a>
</g>
</g>
<!-- Node5&#45;&gt;Node3 -->
<g id="edge4" class="edge">
<title>Node5&#45;&gt;Node3</title>
<path fill="none" stroke="#404040" d="M375.69,-1749.98C360.39,-1677.54 317.33,-1473.68 276.05,-1278.22"/>
<polygon fill="none" stroke="#404040" points="276,-1277.99 270.85,-1272.95 273.52,-1266.25 278.67,-1271.3 276,-1277.99"/>
<text text-anchor="middle" x="395" y="-1718" font-family="Helvetica,sans-Serif" font-size="10.00"> &#45;m_gsdUtil</text>
</g>
<!-- Node6&#45;&gt;Node5 -->
<g id="edge5" class="edge">
<title>Node6&#45;&gt;Node5</title>
<path fill="none" stroke="#404040" d="M358.35,-2052.96C364.91,-1975.52 373.48,-1874.27 378.13,-1819.27"/>
<polygon fill="none" stroke="#404040" points="378.13,-1819.25 374.66,-1812.93 379.15,-1807.29 382.63,-1813.61 378.13,-1819.25"/>
<text text-anchor="middle" x="387" y="-1850.5" font-family="Helvetica,sans-Serif" font-size="10.00"> +ptr</text>
</g>
<!-- Node7 -->
<g id="node7" class="node">
<title>Node7</title>
<g id="a_node7"><a xlink:title="STL class.">
<polygon fill="none" stroke="#bfbfbf" points="221.5,-2488 221.5,-2545 281.5,-2545 281.5,-2488 221.5,-2488"/>
<text text-anchor="middle" x="251.5" y="-2533" font-family="Helvetica,sans-Serif" font-size="10.00">std::string</text>
<polyline fill="none" stroke="#bfbfbf" points="221.5,-2526 281.5,-2526 "/>
<text text-anchor="middle" x="251.5" y="-2514" font-family="Helvetica,sans-Serif" font-size="10.00"> </text>
<polyline fill="none" stroke="#bfbfbf" points="221.5,-2507 281.5,-2507 "/>
<text text-anchor="middle" x="251.5" y="-2495" font-family="Helvetica,sans-Serif" font-size="10.00"> </text>
</a>
</g>
</g>
<!-- Node7&#45;&gt;Node1 -->
<g id="edge16" class="edge">
<title>Node7&#45;&gt;Node1</title>
<path fill="none" stroke="#404040" d="M251.55,-2487.8C251.97,-2400.27 255.24,-2121.88 279.5,-1893 286.58,-1826.23 283.91,-1807.91 304.5,-1744 401.42,-1443.18 583.96,-1116.36 680.65,-953.71"/>
<polygon fill="none" stroke="#404040" points="680.75,-953.55 680.39,-946.35 686.9,-943.24 687.26,-950.44 680.75,-953.55"/>
<text text-anchor="middle" x="314" y="-1856" font-family="Helvetica,sans-Serif" font-size="10.00"> &#45;m_logName</text>
<text text-anchor="middle" x="314" y="-1845" font-family="Helvetica,sans-Serif" font-size="10.00">&#45;m_logFile</text>
</g>
<!-- Node7&#45;&gt;Node3 -->
<g id="edge11" class="edge">
<title>Node7&#45;&gt;Node3</title>
<path fill="none" stroke="#404040" d="M231.51,-2487.8C227.12,-2480.4 223.03,-2472.18 220.5,-2464 143.07,-2213.48 194.19,-2137.1 186.5,-1875 184.91,-1820.8 183.68,-1764.97 182.76,-1708.68"/>
<polygon fill="none" stroke="#404040" points="182.76,-1708.66 178.66,-1702.73 182.57,-1696.67 186.66,-1702.6 182.76,-1708.66"/>
<text text-anchor="middle" x="224.5" y="-1867" font-family="Helvetica,sans-Serif" font-size="10.00"> &#45;m_outputDir</text>
<text text-anchor="middle" x="224.5" y="-1856" font-family="Helvetica,sans-Serif" font-size="10.00">&#45;m_logName</text>
<text text-anchor="middle" x="224.5" y="-1845" font-family="Helvetica,sans-Serif" font-size="10.00">&#45;m_logFile</text>
<text text-anchor="middle" x="224.5" y="-1834" font-family="Helvetica,sans-Serif" font-size="10.00">&#45;m_inputGSDFile</text>
</g>
<!-- Node7&#45;&gt;Node6 -->
<g id="edge7" class="edge">
<title>Node7&#45;&gt;Node6</title>
<path fill="none" stroke="#404040" d="M257.54,-2487.84C260.65,-2474.03 264.59,-2457.09 268.5,-2442 282.7,-2387.13 299.83,-2326.68 314.68,-2275.82"/>
<polygon fill="none" stroke="#404040" points="314.73,-2275.64 312.58,-2268.76 318.1,-2264.12 320.25,-2271 314.73,-2275.64"/>
<text text-anchor="middle" x="298" y="-2456" font-family="Helvetica,sans-Serif" font-size="10.00"> &#45;m_logName</text>
<text text-anchor="middle" x="298" y="-2445" font-family="Helvetica,sans-Serif" font-size="10.00">&#45;m_logFile</text>
</g>
<!-- Node7&#45;&gt;Node14 -->
<g id="edge20" class="edge">
<title>Node7&#45;&gt;Node14</title>
<path fill="none" stroke="#404040" d="M281.6,-2510.47C313.84,-2503.95 365.37,-2490.17 402.5,-2464 423.18,-2449.42 502.62,-2347.5 564.92,-2265.53"/>
<polygon fill="none" stroke="#404040" points="565.17,-2265.2 565.61,-2258.01 572.42,-2255.64 571.98,-2262.84 565.17,-2265.2"/>
<text text-anchor="middle" x="451" y="-2456" font-family="Helvetica,sans-Serif" font-size="10.00"> &#45;m_logName</text>
<text text-anchor="middle" x="451" y="-2445" font-family="Helvetica,sans-Serif" font-size="10.00">&#45;m_logFile</text>
</g>
<!-- Node8 -->
<g id="node8" class="node">
<title>Node8</title>
<g id="a_node8"><a xlink:title="STL class.">
<polygon fill="none" stroke="#bfbfbf" points="204,-2598.5 204,-2666.5 299,-2666.5 299,-2598.5 204,-2598.5"/>
<text text-anchor="start" x="212" y="-2654.5" font-family="Helvetica,sans-Serif" font-size="10.00">std::basic_string&lt;</text>
<text text-anchor="middle" x="251.5" y="-2643.5" font-family="Helvetica,sans-Serif" font-size="10.00"> char &gt;</text>
<polyline fill="none" stroke="#bfbfbf" points="204,-2636.5 299,-2636.5 "/>
<text text-anchor="middle" x="251.5" y="-2624.5" font-family="Helvetica,sans-Serif" font-size="10.00"> </text>
<polyline fill="none" stroke="#bfbfbf" points="204,-2617.5 299,-2617.5 "/>
<text text-anchor="middle" x="251.5" y="-2605.5" font-family="Helvetica,sans-Serif" font-size="10.00"> </text>
</a>
</g>
</g>
<!-- Node8&#45;&gt;Node7 -->
<g id="edge8" class="edge">
<title>Node8&#45;&gt;Node7</title>
<path fill="none" stroke="midnightblue" d="M251.5,-2588.03C251.5,-2573.67 251.5,-2558.1 251.5,-2545.24"/>
<polygon fill="none" stroke="midnightblue" points="248,-2588.22 251.5,-2598.22 255,-2588.22 248,-2588.22"/>
</g>
<!-- Node9 -->
<g id="node9" class="node">
<title>Node9</title>
<g id="a_node9"><a xlink:title="STL class.">
<polygon fill="none" stroke="#bfbfbf" points="489,-2604 489,-2661 594,-2661 594,-2604 489,-2604"/>
<text text-anchor="middle" x="541.5" y="-2649" font-family="Helvetica,sans-Serif" font-size="10.00">std::shared_ptr&lt; T &gt;</text>
<polyline fill="none" stroke="#bfbfbf" points="489,-2642 594,-2642 "/>
<text text-anchor="middle" x="541.5" y="-2630" font-family="Helvetica,sans-Serif" font-size="10.00"> </text>
<polyline fill="none" stroke="#bfbfbf" points="489,-2623 594,-2623 "/>
<text text-anchor="start" x="497" y="-2611" font-family="Helvetica,sans-Serif" font-size="10.00">+ operator&#45;&gt;()</text>
</a>
</g>
</g>
<!-- Node9&#45;&gt;Node2 -->
<g id="edge15" class="edge">
<title>Node9&#45;&gt;Node2</title>
<path fill="none" stroke="orange" d="M564.1,-2595.22C574.18,-2579.04 585.86,-2560.27 595.23,-2545.24"/>
<polygon fill="orange" stroke="orange" points="561,-2593.57 558.69,-2603.9 566.94,-2597.27 561,-2593.57"/>
<text text-anchor="middle" x="616.5" y="-2572" font-family="Helvetica,sans-Serif" font-size="10.00"> &lt; SystemData &gt;</text>
</g>
<!-- Node9&#45;&gt;Node5 -->
<g id="edge9" class="edge">
<title>Node9&#45;&gt;Node5</title>
<path fill="none" stroke="orange" d="M533.31,-2593.78C526.08,-2559.9 515.48,-2508.74 507.5,-2464 462.39,-2211.22 474.97,-2143.71 419.5,-1893 413.3,-1864.98 410.7,-1858.18 401.5,-1831 398.85,-1823.19 395.73,-1814.81 392.75,-1807.13"/>
<polygon fill="orange" stroke="orange" points="529.92,-2594.67 535.44,-2603.72 536.77,-2593.21 529.92,-2594.67"/>
<text text-anchor="middle" x="536.5" y="-2450.5" font-family="Helvetica,sans-Serif" font-size="10.00"> &lt; GSDUtil &gt;</text>
</g>
<!-- Node11 -->
<g id="node11" class="node">
<title>Node11</title>
<g id="a_node11"><a xlink:title=" ">
<polygon fill="none" stroke="#bfbfbf" points="0,-2482.5 0,-2550.5 107,-2550.5 107,-2482.5 0,-2482.5"/>
<text text-anchor="start" x="8" y="-2538.5" font-family="Helvetica,sans-Serif" font-size="10.00">std::shared_ptr&lt; gsd</text>
<text text-anchor="middle" x="53.5" y="-2527.5" font-family="Helvetica,sans-Serif" font-size="10.00">_handle &gt;</text>
<polyline fill="none" stroke="#bfbfbf" points="0,-2520.5 107,-2520.5 "/>
<text text-anchor="middle" x="53.5" y="-2508.5" font-family="Helvetica,sans-Serif" font-size="10.00"> </text>
<polyline fill="none" stroke="#bfbfbf" points="0,-2501.5 107,-2501.5 "/>
<text text-anchor="middle" x="53.5" y="-2489.5" font-family="Helvetica,sans-Serif" font-size="10.00"> </text>
</a>
</g>
</g>
<!-- Node9&#45;&gt;Node11 -->
<g id="edge14" class="edge">
<title>Node9&#45;&gt;Node11</title>
<path fill="none" stroke="orange" d="M478.88,-2616.87C382.13,-2594.27 198.03,-2551.26 107.08,-2530.02"/>
<polygon fill="orange" stroke="orange" points="478.28,-2620.33 488.81,-2619.19 479.87,-2613.51 478.28,-2620.33"/>
<text text-anchor="middle" x="347" y="-2572" font-family="Helvetica,sans-Serif" font-size="10.00"> &lt; gsd_handle &gt;</text>
</g>
<!-- Node13 -->
<g id="node13" class="node">
<title>Node13</title>
<g id="a_node13"><a xlink:title=" ">
<polygon fill="none" stroke="#bfbfbf" points="773,-1744.5 773,-1812.5 902,-1812.5 902,-1744.5 773,-1744.5"/>
<text text-anchor="start" x="781" y="-1800.5" font-family="Helvetica,sans-Serif" font-size="10.00">std::shared_ptr&lt; Potential</text>
<text text-anchor="middle" x="837.5" y="-1789.5" font-family="Helvetica,sans-Serif" font-size="10.00">Hydrodynamics &gt;</text>
<polyline fill="none" stroke="#bfbfbf" points="773,-1782.5 902,-1782.5 "/>
<text text-anchor="middle" x="837.5" y="-1770.5" font-family="Helvetica,sans-Serif" font-size="10.00"> </text>
<polyline fill="none" stroke="#bfbfbf" points="773,-1763.5 902,-1763.5 "/>
<text text-anchor="start" x="781" y="-1751.5" font-family="Helvetica,sans-Serif" font-size="10.00">+ operator&#45;&gt;()</text>
</a>
</g>
</g>
<!-- Node9&#45;&gt;Node13 -->
<g id="edge21" class="edge">
<title>Node9&#45;&gt;Node13</title>
<path fill="none" stroke="orange" d="M603.67,-2614.26C636.92,-2601.91 675.78,-2581.89 699.5,-2551 736.15,-2503.26 730.91,-2482.13 746.5,-2424 810.62,-2184.9 819.54,-2121.66 840.5,-1875 842.26,-1854.34 841.58,-1831.09 840.43,-1812.7"/>
<polygon fill="orange" stroke="orange" points="602.26,-2611.05 594.01,-2617.69 604.61,-2617.64 602.26,-2611.05"/>
<text text-anchor="middle" x="805.5" y="-2450.5" font-family="Helvetica,sans-Serif" font-size="10.00"> &lt; PotentialHydrodynamics &gt;</text>
</g>
<!-- Node10 -->
<g id="node10" class="node">
<title>Node10</title>
<g id="a_node10"><a xlink:title=" ">
<polygon fill="none" stroke="#bfbfbf" points="527,-2714.5 527,-2771.5 556,-2771.5 556,-2714.5 527,-2714.5"/>
<text text-anchor="middle" x="541.5" y="-2759.5" font-family="Helvetica,sans-Serif" font-size="10.00">T</text>
<polyline fill="none" stroke="#bfbfbf" points="527,-2752.5 556,-2752.5 "/>
<text text-anchor="middle" x="541.5" y="-2740.5" font-family="Helvetica,sans-Serif" font-size="10.00"> </text>
<polyline fill="none" stroke="#bfbfbf" points="527,-2733.5 556,-2733.5 "/>
<text text-anchor="middle" x="541.5" y="-2721.5" font-family="Helvetica,sans-Serif" font-size="10.00"> </text>
</a>
</g>
</g>
<!-- Node10&#45;&gt;Node9 -->
<g id="edge10" class="edge">
<title>Node10&#45;&gt;Node9</title>
<path fill="none" stroke="#404040" d="M541.5,-2714.34C541.5,-2701.84 541.5,-2686.84 541.5,-2673.18"/>
<polygon fill="none" stroke="#404040" points="541.5,-2673.11 537.5,-2667.11 541.5,-2661.11 545.5,-2667.11 541.5,-2673.11"/>
<text text-anchor="middle" x="552" y="-2688" font-family="Helvetica,sans-Serif" font-size="10.00"> +ptr</text>
</g>
<!-- Node11&#45;&gt;Node3 -->
<g id="edge12" class="edge">
<title>Node11&#45;&gt;Node3</title>
<path fill="none" stroke="#404040" d="M50.87,-2482.25C43.05,-2381.56 20.02,-2070.97 12.5,-1813 6.14,-1595.03 49.62,-1353.51 94.57,-1166.81"/>
<polygon fill="none" stroke="#404040" points="94.64,-1166.54 92.16,-1159.76 97.47,-1154.87 99.94,-1161.65 94.64,-1166.54"/>
<text text-anchor="middle" x="39" y="-1850.5" font-family="Helvetica,sans-Serif" font-size="10.00"> &#45;m_handle</text>
</g>
<!-- Node12 -->
<g id="node12" class="node">
<title>Node12</title>
<g id="a_node12"><a xlink:title=" ">
<polygon fill="none" stroke="#bfbfbf" points="20.5,-2604 20.5,-2661 86.5,-2661 86.5,-2604 20.5,-2604"/>
<text text-anchor="middle" x="53.5" y="-2649" font-family="Helvetica,sans-Serif" font-size="10.00">gsd_handle</text>
<polyline fill="none" stroke="#bfbfbf" points="20.5,-2642 86.5,-2642 "/>
<text text-anchor="middle" x="53.5" y="-2630" font-family="Helvetica,sans-Serif" font-size="10.00"> </text>
<polyline fill="none" stroke="#bfbfbf" points="20.5,-2623 86.5,-2623 "/>
<text text-anchor="middle" x="53.5" y="-2611" font-family="Helvetica,sans-Serif" font-size="10.00"> </text>
</a>
</g>
</g>
<!-- Node12&#45;&gt;Node11 -->
<g id="edge13" class="edge">
<title>Node12&#45;&gt;Node11</title>
<path fill="none" stroke="#404040" d="M53.5,-2603.9C53.5,-2591.59 53.5,-2576.76 53.5,-2562.89"/>
<polygon fill="none" stroke="#404040" points="53.5,-2562.52 49.5,-2556.52 53.5,-2550.52 57.5,-2556.52 53.5,-2562.52"/>
<text text-anchor="middle" x="64" y="-2572" font-family="Helvetica,sans-Serif" font-size="10.00"> +ptr</text>
</g>
<!-- Node13&#45;&gt;Node1 -->
<g id="edge17" class="edge">
<title>Node13&#45;&gt;Node1</title>
<path fill="none" stroke="#404040" d="M834.19,-1744.47C821.56,-1618.4 776.03,-1164.09 755.13,-955.52"/>
<polygon fill="none" stroke="#404040" points="755.1,-955.3 750.52,-949.72 753.91,-943.35 758.48,-948.93 755.1,-955.3"/>
<text text-anchor="middle" x="861.5" y="-1718" font-family="Helvetica,sans-Serif" font-size="10.00"> &#45;m_potHydro</text>
</g>
<!-- Node14&#45;&gt;Node13 -->
<g id="edge18" class="edge">
<title>Node14&#45;&gt;Node13</title>
<path fill="none" stroke="#404040" d="M716.54,-2030.92C743.08,-1982.67 772.69,-1926.82 797.5,-1875 805.37,-1858.56 813.28,-1840.16 819.97,-1823.94"/>
<polygon fill="none" stroke="#404040" points="820.07,-1823.68 818.63,-1816.61 824.6,-1812.57 826.04,-1819.63 820.07,-1823.68"/>
<text text-anchor="middle" x="826" y="-1850.5" font-family="Helvetica,sans-Serif" font-size="10.00"> +ptr</text>
</g>
</g>
</svg>
