<?xml version="1.0" encoding="UTF-8" standalone="no"?>
<!DOCTYPE svg PUBLIC "-//W3C//DTD SVG 1.1//EN"
 "http://www.w3.org/Graphics/SVG/1.1/DTD/svg11.dtd">
<!-- Generated by graphviz version 2.43.0 (0)
 -->
<!-- Title: potentialHydrodynamics::calcHydroForces Pages: 1 -->
<svg width="316pt" height="66pt"
 viewBox="0.00 0.00 316.00 66.00" xmlns="http://www.w3.org/2000/svg" xmlns:xlink="http://www.w3.org/1999/xlink">
<g id="graph0" class="graph" transform="scale(1 1) rotate(0) translate(4 62)">
<title>potentialHydrodynamics::calcHydroForces</title>
<!-- Node1 -->
<g id="node1" class="node">
<title>Node1</title>
<g id="a_node1"><a xlink:title="Calculates m_F_hydro and m_F_hydroNoInertia">
<polygon fill="#bfbfbf" stroke="black" points="0,-14 0,-44 122,-44 122,-14 0,-14"/>
<text text-anchor="start" x="8" y="-32" font-family="Helvetica,sans-Serif" font-size="10.00">potentialHydrodynamics</text>
<text text-anchor="middle" x="61" y="-21" font-family="Helvetica,sans-Serif" font-size="10.00">::calcHydroForces</text>
</a>
</g>
</g>
<!-- Node2 -->
<g id="node2" class="node">
<title>Node2</title>
<g id="a_node2"><a xlink:href="helper__eigenTensorConversion_8hpp.html#a556d08b55a6ad7cd703b6db06194e5cf" target="_top" xlink:title=" ">
<polygon fill="none" stroke="black" points="159,-38.5 159,-57.5 224,-57.5 224,-38.5 159,-38.5"/>
<text text-anchor="middle" x="191.5" y="-45.5" font-family="Helvetica,sans-Serif" font-size="10.00">MatrixCast</text>
</a>
</g>
</g>
<!-- Node1&#45;&gt;Node2 -->
<g id="edge1" class="edge">
<title>Node1&#45;&gt;Node2</title>
<path fill="none" stroke="midnightblue" d="M122.11,-37.89C131.12,-39.22 140.24,-40.57 148.75,-41.83"/>
<polygon fill="midnightblue" stroke="midnightblue" points="148.39,-45.31 158.79,-43.31 149.41,-38.39 148.39,-45.31"/>
</g>
<!-- Node4 -->
<g id="node4" class="node">
<title>Node4</title>
<g id="a_node4"><a xlink:href="helper__eigenTensorConversion_8hpp.html#a3a32f7de3f099464192073a93b34d580" target="_top" xlink:title="Convert Eigen::Matrix &#45;&#45;&gt; Eigen::Tensor.">
<polygon fill="none" stroke="black" points="158,-0.5 158,-19.5 225,-19.5 225,-0.5 158,-0.5"/>
<text text-anchor="middle" x="191.5" y="-7.5" font-family="Helvetica,sans-Serif" font-size="10.00">TensorCast</text>
</a>
</g>
</g>
<!-- Node1&#45;&gt;Node4 -->
<g id="edge3" class="edge">
<title>Node1&#45;&gt;Node4</title>
<path fill="none" stroke="midnightblue" d="M122.11,-20.11C130.75,-18.84 139.48,-17.54 147.69,-16.33"/>
<polygon fill="midnightblue" stroke="midnightblue" points="148.37,-19.77 157.75,-14.84 147.35,-12.84 148.37,-19.77"/>
</g>
<!-- Node3 -->
<g id="node3" class="node">
<title>Node3</title>
<g id="a_node3"><a xlink:href="helper__eigenTensorConversion_8hpp.html#a2a7eca6b17fb874869047bd0b5f11b46" target="_top" xlink:title="Convert between Eigen::Tensor and Eigen::Matrix classes.">
<polygon fill="none" stroke="black" points="261,-38.5 261,-57.5 308,-57.5 308,-38.5 261,-38.5"/>
<text text-anchor="middle" x="284.5" y="-45.5" font-family="Helvetica,sans-Serif" font-size="10.00">asEval</text>
</a>
</g>
</g>
<!-- Node2&#45;&gt;Node3 -->
<g id="edge2" class="edge">
<title>Node2&#45;&gt;Node3</title>
<path fill="none" stroke="midnightblue" d="M224.07,-48C232.68,-48 242.03,-48 250.71,-48"/>
<polygon fill="midnightblue" stroke="midnightblue" points="250.87,-51.5 260.87,-48 250.87,-44.5 250.87,-51.5"/>
</g>
</g>
</svg>
