<?xml version="1.0" encoding="UTF-8" standalone="no"?>
<!DOCTYPE svg PUBLIC "-//W3C//DTD SVG 1.1//EN"
 "http://www.w3.org/Graphics/SVG/1.1/DTD/svg11.dtd">
<!-- Generated by graphviz version 2.43.0 (0)
 -->
<!-- Title: RungeKutta4::imageBodyPosVel Pages: 1 -->
<svg width="679pt" height="78pt"
 viewBox="0.00 0.00 679.00 77.50" xmlns="http://www.w3.org/2000/svg" xmlns:xlink="http://www.w3.org/1999/xlink">
<g id="graph0" class="graph" transform="scale(1 1) rotate(0) translate(4 73.5)">
<title>RungeKutta4::imageBodyPosVel</title>
<!-- Node1 -->
<g id="node1" class="node">
<title>Node1</title>
<g id="a_node1"><a xlink:title="Replaces 2nd 1/2 of body position and velocity D.o.F. with image of 1st 1/2 assuming the reflection p...">
<polygon fill="#bfbfbf" stroke="black" points="512,-22.5 512,-41.5 671,-41.5 671,-22.5 512,-22.5"/>
<text text-anchor="middle" x="591.5" y="-29.5" font-family="Helvetica,sans-Serif" font-size="10.00">RungeKutta4::imageBodyPosVel</text>
</a>
</g>
</g>
<!-- Node2 -->
<g id="node2" class="node">
<title>Node2</title>
<g id="a_node2"><a xlink:href="classRungeKutta4.html#acf4bede4af47cdeb464e05fe7f5d1683" target="_top" xlink:title="Helper function for integrateSecondOrder().">
<polygon fill="none" stroke="black" points="341.5,-39 341.5,-69 473.5,-69 473.5,-39 341.5,-39"/>
<text text-anchor="start" x="349.5" y="-57" font-family="Helvetica,sans-Serif" font-size="10.00">RungeKutta4::acceleration</text>
<text text-anchor="middle" x="407.5" y="-46" font-family="Helvetica,sans-Serif" font-size="10.00">Update</text>
</a>
</g>
</g>
<!-- Node1&#45;&gt;Node2 -->
<g id="edge1" class="edge">
<title>Node1&#45;&gt;Node2</title>
<path fill="none" stroke="midnightblue" d="M502.05,-42.69C492.48,-43.85 482.86,-45.01 473.64,-46.13"/>
<polygon fill="midnightblue" stroke="midnightblue" points="502.49,-46.16 512,-41.49 501.65,-39.22 502.49,-46.16"/>
</g>
<!-- Node5 -->
<g id="node5" class="node">
<title>Node5</title>
<g id="a_node5"><a xlink:href="classRungeKutta4.html#a301c6c8b82c9f0808159aff069aef28e" target="_top" xlink:title="Construct a new runge Kutta4 object.">
<polygon fill="none" stroke="black" points="339,-0.5 339,-19.5 476,-19.5 476,-0.5 339,-0.5"/>
<text text-anchor="middle" x="407.5" y="-7.5" font-family="Helvetica,sans-Serif" font-size="10.00">RungeKutta4::RungeKutta4</text>
</a>
</g>
</g>
<!-- Node1&#45;&gt;Node5 -->
<g id="edge4" class="edge">
<title>Node1&#45;&gt;Node5</title>
<path fill="none" stroke="midnightblue" d="M501.88,-21.29C493.23,-20.24 484.56,-19.19 476.17,-18.18"/>
<polygon fill="midnightblue" stroke="midnightblue" points="501.65,-24.78 512,-22.51 502.49,-17.84 501.65,-24.78"/>
</g>
<!-- Node3 -->
<g id="node3" class="node">
<title>Node3</title>
<g id="a_node3"><a xlink:href="classRungeKutta4.html#a3b7310147342b4a454c6e94dc430a835" target="_top" xlink:title="2nd order Runge&#45;Kutta 4th order integration. Integrates known acceleration body components into veloc...">
<polygon fill="none" stroke="black" points="153,-39 153,-69 303,-69 303,-39 153,-39"/>
<text text-anchor="start" x="161" y="-57" font-family="Helvetica,sans-Serif" font-size="10.00">RungeKutta4::integrateSecond</text>
<text text-anchor="middle" x="228" y="-46" font-family="Helvetica,sans-Serif" font-size="10.00">Order</text>
</a>
</g>
</g>
<!-- Node2&#45;&gt;Node3 -->
<g id="edge2" class="edge">
<title>Node2&#45;&gt;Node3</title>
<path fill="none" stroke="midnightblue" d="M331.36,-54C322,-54 312.43,-54 303.08,-54"/>
<polygon fill="midnightblue" stroke="midnightblue" points="331.41,-57.5 341.41,-54 331.41,-50.5 331.41,-57.5"/>
</g>
<!-- Node4 -->
<g id="node4" class="node">
<title>Node4</title>
<g id="a_node4"><a xlink:href="classRungeKutta4.html#a4826f7efe1f1bbff3918b53c18a8106e" target="_top" xlink:title="Public function to call internal numerical Runge Kutta integration functions.">
<polygon fill="none" stroke="black" points="0,-44.5 0,-63.5 117,-63.5 117,-44.5 0,-44.5"/>
<text text-anchor="middle" x="58.5" y="-51.5" font-family="Helvetica,sans-Serif" font-size="10.00">RungeKutta4::integrate</text>
</a>
</g>
</g>
<!-- Node3&#45;&gt;Node4 -->
<g id="edge3" class="edge">
<title>Node3&#45;&gt;Node4</title>
<path fill="none" stroke="midnightblue" d="M142.49,-54C133.9,-54 125.33,-54 117.12,-54"/>
<polygon fill="midnightblue" stroke="midnightblue" points="142.56,-57.5 152.56,-54 142.56,-50.5 142.56,-57.5"/>
</g>
</g>
</svg>
