<?xml version="1.0" encoding="UTF-8" standalone="no"?>
<!DOCTYPE svg PUBLIC "-//W3C//DTD SVG 1.1//EN"
 "http://www.w3.org/Graphics/SVG/1.1/DTD/svg11.dtd">
<!-- Generated by graphviz version 2.43.0 (0)
 -->
<!-- Title: SystemData::crossProdMat Pages: 1 -->
<svg width="959pt" height="88pt"
 viewBox="0.00 0.00 959.00 88.00" xmlns="http://www.w3.org/2000/svg" xmlns:xlink="http://www.w3.org/1999/xlink">
<g id="graph0" class="graph" transform="scale(1 1) rotate(0) translate(4 84)">
<title>SystemData::crossProdMat</title>
<!-- Node1 -->
<g id="node1" class="node">
<title>Node1</title>
<g id="a_node1"><a xlink:title="Function takes in vector in vector cross&#45;product expression: .">
<polygon fill="#bfbfbf" stroke="black" points="813,-30 813,-49 951,-49 951,-30 813,-30"/>
<text text-anchor="middle" x="882" y="-37" font-family="Helvetica,sans-Serif" font-size="10.00">SystemData::crossProdMat</text>
</a>
</g>
</g>
<!-- Node2 -->
<g id="node2" class="node">
<title>Node2</title>
<g id="a_node2"><a xlink:href="classSystemData.html#a95b4afa16b44bb89aac9e8ef9e64845b" target="_top" xlink:title="Computes \nabla_{\xi} \Sigma_{i \alpha} tensor for given particle number and body number.">
<polygon fill="none" stroke="black" points="607,-47.5 607,-77.5 777,-77.5 777,-47.5 607,-47.5"/>
<text text-anchor="start" x="615" y="-65.5" font-family="Helvetica,sans-Serif" font-size="10.00">SystemData::gradRbmConnTensor</text>
<text text-anchor="middle" x="692" y="-54.5" font-family="Helvetica,sans-Serif" font-size="10.00">Element</text>
</a>
</g>
</g>
<!-- Node1&#45;&gt;Node2 -->
<g id="edge1" class="edge">
<title>Node1&#45;&gt;Node2</title>
<path fill="none" stroke="midnightblue" d="M802.71,-49.08C794.31,-50.11 785.73,-51.15 777.26,-52.19"/>
<polygon fill="midnightblue" stroke="midnightblue" points="803.36,-52.52 812.86,-47.84 802.51,-45.58 803.36,-52.52"/>
</g>
<!-- Node7 -->
<g id="node7" class="node">
<title>Node7</title>
<g id="a_node7"><a xlink:href="classSystemData.html#a70d2ff9a6173fcd9f30e8dc6324e8414" target="_top" xlink:title="Computes \Sigma_{i \alpha} matrix for given particle number and body number. Sigma matrix represents ...">
<polygon fill="none" stroke="black" points="613.5,-8 613.5,-27 770.5,-27 770.5,-8 613.5,-8"/>
<text text-anchor="middle" x="692" y="-15" font-family="Helvetica,sans-Serif" font-size="10.00">SystemData::rbmMatrixElement</text>
</a>
</g>
</g>
<!-- Node1&#45;&gt;Node7 -->
<g id="edge6" class="edge">
<title>Node1&#45;&gt;Node7</title>
<path fill="none" stroke="midnightblue" d="M802.82,-30.35C792.23,-29.11 781.37,-27.84 770.79,-26.6"/>
<polygon fill="midnightblue" stroke="midnightblue" points="802.52,-33.84 812.86,-31.53 803.34,-26.89 802.52,-33.84"/>
</g>
<!-- Node3 -->
<g id="node3" class="node">
<title>Node3</title>
<g id="a_node3"><a xlink:href="classSystemData.html#a0aa3296e765575ba6397b5f71bf892a8" target="_top" xlink:title="Computes the gradients rigid body motion connectivity tensors and tensors associated with change of v...">
<polygon fill="none" stroke="black" points="424.5,-49.5 424.5,-79.5 570.5,-79.5 570.5,-49.5 424.5,-49.5"/>
<text text-anchor="start" x="432.5" y="-67.5" font-family="Helvetica,sans-Serif" font-size="10.00">SystemData::gradientChange</text>
<text text-anchor="middle" x="497.5" y="-56.5" font-family="Helvetica,sans-Serif" font-size="10.00">OfVariableTensors</text>
</a>
</g>
</g>
<!-- Node2&#45;&gt;Node3 -->
<g id="edge2" class="edge">
<title>Node2&#45;&gt;Node3</title>
<path fill="none" stroke="midnightblue" d="M596.64,-63.48C587.93,-63.57 579.2,-63.66 570.73,-63.75"/>
<polygon fill="midnightblue" stroke="midnightblue" points="596.88,-66.98 606.85,-63.37 596.81,-59.98 596.88,-66.98"/>
</g>
<!-- Node4 -->
<g id="node4" class="node">
<title>Node4</title>
<g id="a_node4"><a xlink:href="classSystemData.html#a96d6dfb7bdb78d98fbbdac1f421c838c" target="_top" xlink:title="Updates all relevant rigid body motion tensors, respective gradients, and kinematic/Udwadia constrain...">
<polygon fill="none" stroke="black" points="281,-30 281,-49 388,-49 388,-30 281,-30"/>
<text text-anchor="middle" x="334.5" y="-37" font-family="Helvetica,sans-Serif" font-size="10.00">SystemData::update</text>
</a>
</g>
</g>
<!-- Node3&#45;&gt;Node4 -->
<g id="edge3" class="edge">
<title>Node3&#45;&gt;Node4</title>
<path fill="none" stroke="midnightblue" d="M414.41,-51.75C405.49,-50.37 396.59,-48.99 388.16,-47.68"/>
<polygon fill="midnightblue" stroke="midnightblue" points="414.06,-55.24 424.48,-53.32 415.13,-48.32 414.06,-55.24"/>
</g>
<!-- Node5 -->
<g id="node5" class="node">
<title>Node5</title>
<g id="a_node5"><a xlink:href="classSystemData.html#ac3a796dc8bf1fa82ea6dec33e548924f" target="_top" xlink:title="Function loads data from GSD file using GSDUtil class.">
<polygon fill="none" stroke="black" points="111,-30 111,-49 245,-49 245,-30 111,-30"/>
<text text-anchor="middle" x="178" y="-37" font-family="Helvetica,sans-Serif" font-size="10.00">SystemData::initializeData</text>
</a>
</g>
</g>
<!-- Node4&#45;&gt;Node5 -->
<g id="edge4" class="edge">
<title>Node4&#45;&gt;Node5</title>
<path fill="none" stroke="midnightblue" d="M270.66,-39.5C262.26,-39.5 253.62,-39.5 245.16,-39.5"/>
<polygon fill="midnightblue" stroke="midnightblue" points="270.76,-43 280.76,-39.5 270.76,-36 270.76,-43"/>
</g>
<!-- Node6 -->
<g id="node6" class="node">
<title>Node6</title>
<g id="a_node6"><a xlink:href="TestSimulation_8cpp.html#a7537b8ac7073aed4bf8255b43bbbf1f9" target="_top" xlink:title=" ">
<polygon fill="none" stroke="black" points="0,-30 0,-49 75,-49 75,-30 0,-30"/>
<text text-anchor="middle" x="37.5" y="-37" font-family="Helvetica,sans-Serif" font-size="10.00">TEST_CASE</text>
</a>
</g>
</g>
<!-- Node5&#45;&gt;Node6 -->
<g id="edge5" class="edge">
<title>Node5&#45;&gt;Node6</title>
<path fill="none" stroke="midnightblue" d="M100.94,-39.5C92.06,-39.5 83.33,-39.5 75.34,-39.5"/>
<polygon fill="midnightblue" stroke="midnightblue" points="101,-43 111,-39.5 101,-36 101,-43"/>
</g>
<!-- Node8 -->
<g id="node8" class="node">
<title>Node8</title>
<g id="a_node8"><a xlink:href="classSystemData.html#a48585dcdee2612bc4ee815bb599c1679" target="_top" xlink:title="Computes the rigid body motion connectivity tensors.">
<polygon fill="none" stroke="black" points="424,-0.5 424,-30.5 571,-30.5 571,-0.5 424,-0.5"/>
<text text-anchor="start" x="432" y="-18.5" font-family="Helvetica,sans-Serif" font-size="10.00">SystemData::rigidBodyMotion</text>
<text text-anchor="middle" x="497.5" y="-7.5" font-family="Helvetica,sans-Serif" font-size="10.00">Tensors</text>
</a>
</g>
</g>
<!-- Node7&#45;&gt;Node8 -->
<g id="edge7" class="edge">
<title>Node7&#45;&gt;Node8</title>
<path fill="none" stroke="midnightblue" d="M603.1,-16.59C592.44,-16.48 581.64,-16.36 571.24,-16.26"/>
<polygon fill="midnightblue" stroke="midnightblue" points="603.22,-20.09 613.26,-16.69 603.29,-13.09 603.22,-20.09"/>
</g>
<!-- Node8&#45;&gt;Node4 -->
<g id="edge8" class="edge">
<title>Node8&#45;&gt;Node4</title>
<path fill="none" stroke="midnightblue" d="M413.54,-27.87C405.02,-29.14 396.53,-30.4 388.47,-31.6"/>
<polygon fill="midnightblue" stroke="midnightblue" points="414.16,-31.31 423.54,-26.38 413.13,-24.39 414.16,-31.31"/>
</g>
</g>
</svg>
