<?xml version="1.0" encoding="UTF-8" standalone="no"?>
<!DOCTYPE svg PUBLIC "-//W3C//DTD SVG 1.1//EN"
 "http://www.w3.org/Graphics/SVG/1.1/DTD/svg11.dtd">
<!-- Generated by graphviz version 2.43.0 (0)
 -->
<!-- Title: systemData::update Pages: 1 -->
<svg width="586pt" height="411pt"
 viewBox="0.00 0.00 586.00 410.50" xmlns="http://www.w3.org/2000/svg" xmlns:xlink="http://www.w3.org/1999/xlink">
<g id="graph0" class="graph" transform="scale(1 1) rotate(0) translate(4 406.5)">
<title>systemData::update</title>
<!-- Node1 -->
<g id="node1" class="node">
<title>Node1</title>
<g id="a_node1"><a xlink:title="Updates all relevant rigid body motion tensors, respective gradients, and kinematic/Udwadia constrain...">
<polygon fill="#bfbfbf" stroke="black" points="0,-181.5 0,-200.5 105,-200.5 105,-181.5 0,-181.5"/>
<text text-anchor="middle" x="52.5" y="-188.5" font-family="Helvetica,sans-Serif" font-size="10.00">systemData::update</text>
</a>
</g>
</g>
<!-- Node2 -->
<g id="node2" class="node">
<title>Node2</title>
<g id="a_node2"><a xlink:href="classsystemData.html#ac981cce9f038194aea9f48f57252ca7b" target="_top" xlink:title="Computes the articulation (linear) accelerations of the particles relative to their respective locate...">
<polygon fill="none" stroke="black" points="157,-372 157,-402 291,-402 291,-372 157,-372"/>
<text text-anchor="start" x="165" y="-390" font-family="Helvetica,sans-Serif" font-size="10.00">systemData::accelerations</text>
<text text-anchor="middle" x="224" y="-379" font-family="Helvetica,sans-Serif" font-size="10.00">Articulation</text>
</a>
</g>
</g>
<!-- Node1&#45;&gt;Node2 -->
<g id="edge1" class="edge">
<title>Node1&#45;&gt;Node2</title>
<path fill="none" stroke="midnightblue" d="M55.62,-200.89C62.43,-230.29 86.59,-317.87 141,-363 143.25,-364.86 145.63,-366.58 148.13,-368.17"/>
<polygon fill="midnightblue" stroke="midnightblue" points="146.51,-371.27 156.95,-373.06 149.9,-365.15 146.51,-371.27"/>
</g>
<!-- Node3 -->
<g id="node3" class="node">
<title>Node3</title>
<g id="a_node3"><a xlink:href="classsystemData.html#a1d50589c7d3a4ceda2e227cee3a9be90" target="_top" xlink:title="Computes the orientation (unit vector) of a particle with respect to its locater point.">
<polygon fill="none" stroke="black" points="156,-323 156,-353 292,-353 292,-323 156,-323"/>
<text text-anchor="start" x="164" y="-341" font-family="Helvetica,sans-Serif" font-size="10.00">systemData::convertBody2</text>
<text text-anchor="middle" x="224" y="-330" font-family="Helvetica,sans-Serif" font-size="10.00">ParticleOrient</text>
</a>
</g>
</g>
<!-- Node1&#45;&gt;Node3 -->
<g id="edge2" class="edge">
<title>Node1&#45;&gt;Node3</title>
<path fill="none" stroke="midnightblue" d="M57.63,-200.67C68.03,-223.88 97.66,-283.15 141,-314 143.11,-315.51 145.32,-316.92 147.6,-318.24"/>
<polygon fill="midnightblue" stroke="midnightblue" points="146.21,-321.46 156.7,-322.92 149.41,-315.24 146.21,-321.46"/>
</g>
<!-- Node6 -->
<g id="node6" class="node">
<title>Node6</title>
<g id="a_node6"><a xlink:href="classsystemData.html#a57ece1a841839e82b8acf1f93e12f9c0" target="_top" xlink:title="Computes the positions of all particles from given locater positions and body orientations.">
<polygon fill="none" stroke="black" points="156,-274 156,-304 292,-304 292,-274 156,-274"/>
<text text-anchor="start" x="164" y="-292" font-family="Helvetica,sans-Serif" font-size="10.00">systemData::convertBody2</text>
<text text-anchor="middle" x="224" y="-281" font-family="Helvetica,sans-Serif" font-size="10.00">ParticlePos</text>
</a>
</g>
</g>
<!-- Node1&#45;&gt;Node6 -->
<g id="edge5" class="edge">
<title>Node1&#45;&gt;Node6</title>
<path fill="none" stroke="midnightblue" d="M62.24,-200.64C76.99,-216.35 108.41,-247.47 141,-265 144.43,-266.84 148.02,-268.56 151.7,-270.16"/>
<polygon fill="midnightblue" stroke="midnightblue" points="150.4,-273.41 160.99,-273.89 153.01,-266.92 150.4,-273.41"/>
</g>
<!-- Node7 -->
<g id="node7" class="node">
<title>Node7</title>
<g id="a_node7"><a xlink:href="classsystemData.html#adc3f589f2fc622293dce85c53f215823" target="_top" xlink:title="Computes the particle D.o.F. from the body D.o.F.">
<polygon fill="none" stroke="black" points="156,-225 156,-255 292,-255 292,-225 156,-225"/>
<text text-anchor="start" x="164" y="-243" font-family="Helvetica,sans-Serif" font-size="10.00">systemData::convertBody2</text>
<text text-anchor="middle" x="224" y="-232" font-family="Helvetica,sans-Serif" font-size="10.00">ParticleVelAcc</text>
</a>
</g>
</g>
<!-- Node1&#45;&gt;Node7 -->
<g id="edge6" class="edge">
<title>Node1&#45;&gt;Node7</title>
<path fill="none" stroke="midnightblue" d="M86.58,-200.56C107.76,-206.69 135.9,-214.82 161.12,-222.11"/>
<polygon fill="midnightblue" stroke="midnightblue" points="160.41,-225.55 170.98,-224.96 162.35,-218.82 160.41,-225.55"/>
</g>
<!-- Node11 -->
<g id="node11" class="node">
<title>Node11</title>
<g id="a_node11"><a xlink:href="classsystemData.html#a3c41026c4b66d4f6e6e22a6398c6ced8" target="_top" xlink:title="Computes the gradients rigid body motion connectivity tensors and tensors associated with change of v...">
<polygon fill="none" stroke="black" points="152,-176 152,-206 296,-206 296,-176 152,-176"/>
<text text-anchor="start" x="160" y="-194" font-family="Helvetica,sans-Serif" font-size="10.00">systemData::gradientChange</text>
<text text-anchor="middle" x="224" y="-183" font-family="Helvetica,sans-Serif" font-size="10.00">OfVariableTensors</text>
</a>
</g>
</g>
<!-- Node1&#45;&gt;Node11 -->
<g id="edge10" class="edge">
<title>Node1&#45;&gt;Node11</title>
<path fill="none" stroke="midnightblue" d="M105.28,-191C116.76,-191 129.2,-191 141.55,-191"/>
<polygon fill="midnightblue" stroke="midnightblue" points="141.88,-194.5 151.88,-191 141.88,-187.5 141.88,-194.5"/>
</g>
<!-- Node13 -->
<g id="node13" class="node">
<title>Node13</title>
<g id="a_node13"><a xlink:href="classsystemData.html#aaf50d870d01da9ad78c94635c368db9e" target="_top" xlink:title="Computes the articulation (linear) positions of the particles relative to their respective locater po...">
<polygon fill="none" stroke="black" points="142,-88.5 142,-107.5 306,-107.5 306,-88.5 142,-88.5"/>
<text text-anchor="middle" x="224" y="-95.5" font-family="Helvetica,sans-Serif" font-size="10.00">systemData::positionsArticulation</text>
</a>
</g>
</g>
<!-- Node1&#45;&gt;Node13 -->
<g id="edge13" class="edge">
<title>Node1&#45;&gt;Node13</title>
<path fill="none" stroke="midnightblue" d="M61.9,-181.41C76.38,-165.48 107.74,-133.68 141,-117 145.82,-114.58 150.95,-112.47 156.2,-110.62"/>
<polygon fill="midnightblue" stroke="midnightblue" points="157.29,-113.95 165.75,-107.57 155.16,-107.28 157.29,-113.95"/>
</g>
<!-- Node14 -->
<g id="node14" class="node">
<title>Node14</title>
<g id="a_node14"><a xlink:href="classsystemData.html#a05afc9e7e7423d88def51ec43ab91a33" target="_top" xlink:title="Computes the rigid body motion connectivity tensors.">
<polygon fill="none" stroke="black" points="151,-127 151,-157 297,-157 297,-127 151,-127"/>
<text text-anchor="start" x="159" y="-145" font-family="Helvetica,sans-Serif" font-size="10.00">systemData::rigidBodyMotion</text>
<text text-anchor="middle" x="224" y="-134" font-family="Helvetica,sans-Serif" font-size="10.00">Tensors</text>
</a>
</g>
</g>
<!-- Node1&#45;&gt;Node14 -->
<g id="edge14" class="edge">
<title>Node1&#45;&gt;Node14</title>
<path fill="none" stroke="midnightblue" d="M86.58,-181.44C107.76,-175.31 135.9,-167.18 161.12,-159.89"/>
<polygon fill="midnightblue" stroke="midnightblue" points="162.35,-163.18 170.98,-157.04 160.41,-156.45 162.35,-163.18"/>
</g>
<!-- Node16 -->
<g id="node16" class="node">
<title>Node16</title>
<g id="a_node16"><a xlink:href="classsystemData.html#aaf3a4980d7dc49d7339a828ed95ee4d6" target="_top" xlink:title="Computes the Udwadia constraint matrix and vector to uphold the quaternion unitary norm for each body...">
<polygon fill="none" stroke="black" points="155,-39 155,-69 293,-69 293,-39 155,-39"/>
<text text-anchor="start" x="163" y="-57" font-family="Helvetica,sans-Serif" font-size="10.00">systemData::udwadiaLinear</text>
<text text-anchor="middle" x="224" y="-46" font-family="Helvetica,sans-Serif" font-size="10.00">System</text>
</a>
</g>
</g>
<!-- Node1&#45;&gt;Node16 -->
<g id="edge18" class="edge">
<title>Node1&#45;&gt;Node16</title>
<path fill="none" stroke="midnightblue" d="M58.39,-181.28C69.8,-159.58 100.32,-106.94 141,-79 143.91,-77 146.98,-75.16 150.17,-73.46"/>
<polygon fill="midnightblue" stroke="midnightblue" points="151.88,-76.52 159.38,-69.04 148.85,-70.21 151.88,-76.52"/>
</g>
<!-- Node17 -->
<g id="node17" class="node">
<title>Node17</title>
<g id="a_node17"><a xlink:href="classsystemData.html#a6bd16f2dd99236594ce5b12cd2cab57a" target="_top" xlink:title="Computes the articulation (linear) velocities of the particles relative to their respective locater p...">
<polygon fill="none" stroke="black" points="141,-0.5 141,-19.5 307,-19.5 307,-0.5 141,-0.5"/>
<text text-anchor="middle" x="224" y="-7.5" font-family="Helvetica,sans-Serif" font-size="10.00">systemData::velocitiesArticulation</text>
</a>
</g>
</g>
<!-- Node1&#45;&gt;Node17 -->
<g id="edge19" class="edge">
<title>Node1&#45;&gt;Node17</title>
<path fill="none" stroke="midnightblue" d="M55.79,-181.13C62.94,-152.64 87.63,-69.71 141,-29 143.34,-27.21 145.82,-25.59 148.41,-24.12"/>
<polygon fill="midnightblue" stroke="midnightblue" points="150.09,-27.19 157.54,-19.66 147.02,-20.9 150.09,-27.19"/>
</g>
<!-- Node4 -->
<g id="node4" class="node">
<title>Node4</title>
<g id="a_node4"><a xlink:href="helper__math_8h.html#ae4378072f9d836b0d4770a1514db2be3" target="_top" xlink:title=" ">
<polygon fill="none" stroke="black" points="395.5,-328.5 395.5,-347.5 427.5,-347.5 427.5,-328.5 395.5,-328.5"/>
<text text-anchor="middle" x="411.5" y="-335.5" font-family="Helvetica,sans-Serif" font-size="10.00">abs</text>
</a>
</g>
</g>
<!-- Node3&#45;&gt;Node4 -->
<g id="edge3" class="edge">
<title>Node3&#45;&gt;Node4</title>
<path fill="none" stroke="midnightblue" d="M292.23,-338C324.46,-338 361.13,-338 384.99,-338"/>
<polygon fill="midnightblue" stroke="midnightblue" points="385.29,-341.5 395.29,-338 385.29,-334.5 385.29,-341.5"/>
</g>
<!-- Node5 -->
<g id="node5" class="node">
<title>Node5</title>
<g id="a_node5"><a xlink:href="helper__math_8h.html#a3be05aff487ded3c05aab21d24dd6439" target="_top" xlink:title=" ">
<polygon fill="none" stroke="black" points="516,-328.5 516,-347.5 578,-347.5 578,-328.5 516,-328.5"/>
<text text-anchor="middle" x="547" y="-335.5" font-family="Helvetica,sans-Serif" font-size="10.00">make_int2</text>
</a>
</g>
</g>
<!-- Node4&#45;&gt;Node5 -->
<g id="edge4" class="edge">
<title>Node4&#45;&gt;Node5</title>
<path fill="none" stroke="midnightblue" d="M427.55,-338C446.4,-338 479.4,-338 505.79,-338"/>
<polygon fill="midnightblue" stroke="midnightblue" points="505.9,-341.5 515.9,-338 505.9,-334.5 505.9,-341.5"/>
</g>
<!-- Node8 -->
<g id="node8" class="node">
<title>Node8</title>
<g id="a_node8"><a xlink:href="helper__eigenTensorConversion_8hpp.html#a556d08b55a6ad7cd703b6db06194e5cf" target="_top" xlink:title=" ">
<polygon fill="none" stroke="black" points="379,-230.5 379,-249.5 444,-249.5 444,-230.5 379,-230.5"/>
<text text-anchor="middle" x="411.5" y="-237.5" font-family="Helvetica,sans-Serif" font-size="10.00">MatrixCast</text>
</a>
</g>
</g>
<!-- Node7&#45;&gt;Node8 -->
<g id="edge7" class="edge">
<title>Node7&#45;&gt;Node8</title>
<path fill="none" stroke="midnightblue" d="M292.23,-240C317.65,-240 345.85,-240 368.33,-240"/>
<polygon fill="midnightblue" stroke="midnightblue" points="368.55,-243.5 378.55,-240 368.55,-236.5 368.55,-243.5"/>
</g>
<!-- Node10 -->
<g id="node10" class="node">
<title>Node10</title>
<g id="a_node10"><a xlink:href="helper__eigenTensorConversion_8hpp.html#a3a32f7de3f099464192073a93b34d580" target="_top" xlink:title="Convert Eigen::Matrix &#45;&#45;&gt; Eigen::Tensor.">
<polygon fill="none" stroke="black" points="378,-186.5 378,-205.5 445,-205.5 445,-186.5 378,-186.5"/>
<text text-anchor="middle" x="411.5" y="-193.5" font-family="Helvetica,sans-Serif" font-size="10.00">TensorCast</text>
</a>
</g>
</g>
<!-- Node7&#45;&gt;Node10 -->
<g id="edge9" class="edge">
<title>Node7&#45;&gt;Node10</title>
<path fill="none" stroke="midnightblue" d="M288.32,-224.98C314.56,-218.76 344.3,-211.7 367.88,-206.11"/>
<polygon fill="midnightblue" stroke="midnightblue" points="368.98,-209.45 377.9,-203.73 367.37,-202.63 368.98,-209.45"/>
</g>
<!-- Node9 -->
<g id="node9" class="node">
<title>Node9</title>
<g id="a_node9"><a xlink:href="helper__eigenTensorConversion_8hpp.html#a2a7eca6b17fb874869047bd0b5f11b46" target="_top" xlink:title="Convert between Eigen::Tensor and Eigen::Matrix classes.">
<polygon fill="none" stroke="black" points="523.5,-230.5 523.5,-249.5 570.5,-249.5 570.5,-230.5 523.5,-230.5"/>
<text text-anchor="middle" x="547" y="-237.5" font-family="Helvetica,sans-Serif" font-size="10.00">asEval</text>
</a>
</g>
</g>
<!-- Node8&#45;&gt;Node9 -->
<g id="edge8" class="edge">
<title>Node8&#45;&gt;Node9</title>
<path fill="none" stroke="midnightblue" d="M444.14,-240C464.98,-240 492.21,-240 513.27,-240"/>
<polygon fill="midnightblue" stroke="midnightblue" points="513.36,-243.5 523.36,-240 513.36,-236.5 513.36,-243.5"/>
</g>
<!-- Node11&#45;&gt;Node10 -->
<g id="edge12" class="edge">
<title>Node11&#45;&gt;Node10</title>
<path fill="none" stroke="midnightblue" d="M296.19,-192.92C320.14,-193.56 346.12,-194.26 367.25,-194.83"/>
<polygon fill="midnightblue" stroke="midnightblue" points="367.42,-198.34 377.51,-195.11 367.61,-191.34 367.42,-198.34"/>
</g>
<!-- Node12 -->
<g id="node12" class="node">
<title>Node12</title>
<g id="a_node12"><a xlink:href="classsystemData.html#a19a83a255eb6f1de4bcfe2ea8e31ffa9" target="_top" xlink:title="Computes the E matrix of quaternion (4&#45;vector) input.">
<polygon fill="none" stroke="black" points="357.5,-148.5 357.5,-167.5 465.5,-167.5 465.5,-148.5 357.5,-148.5"/>
<text text-anchor="middle" x="411.5" y="-155.5" font-family="Helvetica,sans-Serif" font-size="10.00">systemData::eMatrix</text>
</a>
</g>
</g>
<!-- Node11&#45;&gt;Node12 -->
<g id="edge11" class="edge">
<title>Node11&#45;&gt;Node12</title>
<path fill="none" stroke="midnightblue" d="M296.19,-178.34C313.03,-175.34 330.87,-172.17 347.32,-169.24"/>
<polygon fill="midnightblue" stroke="midnightblue" points="348.13,-172.65 357.37,-167.45 346.91,-165.76 348.13,-172.65"/>
</g>
<!-- Node14&#45;&gt;Node10 -->
<g id="edge17" class="edge">
<title>Node14&#45;&gt;Node10</title>
<path fill="none" stroke="midnightblue" d="M276.64,-157.01C286.72,-159.97 297.19,-163.07 307,-166 323.03,-170.79 326.95,-172.29 343,-177 351.06,-179.36 359.67,-181.83 367.96,-184.18"/>
<polygon fill="midnightblue" stroke="midnightblue" points="367.27,-187.62 377.84,-186.96 369.17,-180.88 367.27,-187.62"/>
</g>
<!-- Node14&#45;&gt;Node12 -->
<g id="edge16" class="edge">
<title>Node14&#45;&gt;Node12</title>
<path fill="none" stroke="midnightblue" d="M297.25,-148.23C313.69,-149.65 331.03,-151.15 347.07,-152.53"/>
<polygon fill="midnightblue" stroke="midnightblue" points="347.14,-156.05 357.4,-153.42 347.74,-149.07 347.14,-156.05"/>
</g>
<!-- Node15 -->
<g id="node15" class="node">
<title>Node15</title>
<g id="a_node15"><a xlink:href="classsystemData.html#a0a77c933b764fb36c64ec5e66011482c" target="_top" xlink:title="Function takes in vector in vector cross&#45;product expression: .">
<polygon fill="none" stroke="black" points="343,-110.5 343,-129.5 480,-129.5 480,-110.5 343,-110.5"/>
<text text-anchor="middle" x="411.5" y="-117.5" font-family="Helvetica,sans-Serif" font-size="10.00">systemData::crossProdMat</text>
</a>
</g>
</g>
<!-- Node14&#45;&gt;Node15 -->
<g id="edge15" class="edge">
<title>Node14&#45;&gt;Node15</title>
<path fill="none" stroke="midnightblue" d="M297.25,-133.43C308.9,-132.05 320.99,-130.62 332.76,-129.22"/>
<polygon fill="midnightblue" stroke="midnightblue" points="333.48,-132.66 343,-128.01 332.65,-125.71 333.48,-132.66"/>
</g>
</g>
</svg>
