<?xml version="1.0" encoding="UTF-8" standalone="no"?>
<!DOCTYPE svg PUBLIC "-//W3C//DTD SVG 1.1//EN"
 "http://www.w3.org/Graphics/SVG/1.1/DTD/svg11.dtd">
<!-- Generated by graphviz version 2.43.0 (0)
 -->
<!-- Title: rungeKutta4::integrate Pages: 1 -->
<svg width="658pt" height="104pt"
 viewBox="0.00 0.00 658.00 104.00" xmlns="http://www.w3.org/2000/svg" xmlns:xlink="http://www.w3.org/1999/xlink">
<g id="graph0" class="graph" transform="scale(1 1) rotate(0) translate(4 100)">
<title>rungeKutta4::integrate</title>
<!-- Node1 -->
<g id="node1" class="node">
<title>Node1</title>
<g id="a_node1"><a xlink:title="Public function to call internal numerical Runge Kutta integration functions.">
<polygon fill="#bfbfbf" stroke="black" points="0,-38.5 0,-57.5 113,-57.5 113,-38.5 0,-38.5"/>
<text text-anchor="middle" x="56.5" y="-45.5" font-family="Helvetica,sans-Serif" font-size="10.00">rungeKutta4::integrate</text>
</a>
</g>
</g>
<!-- Node2 -->
<g id="node2" class="node">
<title>Node2</title>
<g id="a_node2"><a xlink:href="classrungeKutta4.html#a1c2b8361774957efcf5c6fa5a34f86af" target="_top" xlink:title="2nd order Runge&#45;Kutta 4th order integration. Integrates known acceleration body components into veloc...">
<polygon fill="none" stroke="black" points="149,-33 149,-63 295,-63 295,-33 149,-33"/>
<text text-anchor="start" x="157" y="-51" font-family="Helvetica,sans-Serif" font-size="10.00">rungeKutta4::integrateSecond</text>
<text text-anchor="middle" x="222" y="-40" font-family="Helvetica,sans-Serif" font-size="10.00">Order</text>
</a>
</g>
</g>
<!-- Node1&#45;&gt;Node2 -->
<g id="edge1" class="edge">
<title>Node1&#45;&gt;Node2</title>
<path fill="none" stroke="midnightblue" d="M113.31,-48C121.56,-48 130.19,-48 138.84,-48"/>
<polygon fill="midnightblue" stroke="midnightblue" points="138.96,-51.5 148.96,-48 138.96,-44.5 138.96,-51.5"/>
</g>
<!-- Node3 -->
<g id="node3" class="node">
<title>Node3</title>
<g id="a_node3"><a xlink:href="classrungeKutta4.html#a1d0bdd2f2a30a970ae66577e1d0b6a42" target="_top" xlink:title="Helper function for integrateSecondOrder().">
<polygon fill="none" stroke="black" points="331,-33 331,-63 459,-63 459,-33 331,-33"/>
<text text-anchor="start" x="339" y="-51" font-family="Helvetica,sans-Serif" font-size="10.00">rungeKutta4::acceleration</text>
<text text-anchor="middle" x="395" y="-40" font-family="Helvetica,sans-Serif" font-size="10.00">Update</text>
</a>
</g>
</g>
<!-- Node2&#45;&gt;Node3 -->
<g id="edge2" class="edge">
<title>Node2&#45;&gt;Node3</title>
<path fill="none" stroke="midnightblue" d="M295.02,-48C303.46,-48 312.08,-48 320.53,-48"/>
<polygon fill="midnightblue" stroke="midnightblue" points="320.74,-51.5 330.74,-48 320.74,-44.5 320.74,-51.5"/>
</g>
<!-- Node4 -->
<g id="node4" class="node">
<title>Node4</title>
<g id="a_node4"><a xlink:href="classrungeKutta4.html#a8142c4494ec260fd5676735baca12891" target="_top" xlink:title="Replaces 2nd 1/2 of body acceleration D.o.F. with image of 1st 1/2 assuming the reflection plane is .">
<polygon fill="none" stroke="black" points="502,-76.5 502,-95.5 643,-95.5 643,-76.5 502,-76.5"/>
<text text-anchor="middle" x="572.5" y="-83.5" font-family="Helvetica,sans-Serif" font-size="10.00">rungeKutta4::imageBodyAcc</text>
</a>
</g>
</g>
<!-- Node3&#45;&gt;Node4 -->
<g id="edge3" class="edge">
<title>Node3&#45;&gt;Node4</title>
<path fill="none" stroke="midnightblue" d="M459.36,-61.72C478.41,-65.84 499.13,-70.33 517.52,-74.31"/>
<polygon fill="midnightblue" stroke="midnightblue" points="516.95,-77.77 527.47,-76.47 518.44,-70.93 516.95,-77.77"/>
</g>
<!-- Node5 -->
<g id="node5" class="node">
<title>Node5</title>
<g id="a_node5"><a xlink:href="classrungeKutta4.html#a8fb1d493e6e66a276e6b447f5bc04151" target="_top" xlink:title="Replaces 2nd 1/2 of body position and velocity D.o.F. with image of 1st 1/2 assuming the reflection p...">
<polygon fill="none" stroke="black" points="495,-38.5 495,-57.5 650,-57.5 650,-38.5 495,-38.5"/>
<text text-anchor="middle" x="572.5" y="-45.5" font-family="Helvetica,sans-Serif" font-size="10.00">rungeKutta4::imageBodyPosVel</text>
</a>
</g>
</g>
<!-- Node3&#45;&gt;Node5 -->
<g id="edge4" class="edge">
<title>Node3&#45;&gt;Node5</title>
<path fill="none" stroke="midnightblue" d="M459.36,-48C467.62,-48 476.19,-48 484.74,-48"/>
<polygon fill="midnightblue" stroke="midnightblue" points="484.76,-51.5 494.76,-48 484.76,-44.5 484.76,-51.5"/>
</g>
<!-- Node6 -->
<g id="node6" class="node">
<title>Node6</title>
<g id="a_node6"><a xlink:href="classrungeKutta4.html#af8d44cd795c66d601274a8db5bf37b97" target="_top" xlink:title="Calculates the body acceleration components given the constraints established by the Udwadia linear s...">
<polygon fill="none" stroke="black" points="502,-0.5 502,-19.5 643,-19.5 643,-0.5 502,-0.5"/>
<text text-anchor="middle" x="572.5" y="-7.5" font-family="Helvetica,sans-Serif" font-size="10.00">rungeKutta4::udwadiaKalaba</text>
</a>
</g>
</g>
<!-- Node3&#45;&gt;Node6 -->
<g id="edge5" class="edge">
<title>Node3&#45;&gt;Node6</title>
<path fill="none" stroke="midnightblue" d="M459.36,-34.28C478.41,-30.16 499.13,-25.67 517.52,-21.69"/>
<polygon fill="midnightblue" stroke="midnightblue" points="518.44,-25.07 527.47,-19.53 516.95,-18.23 518.44,-25.07"/>
</g>
</g>
</svg>
