<?xml version="1.0" encoding="UTF-8" standalone="no"?>
<!DOCTYPE svg PUBLIC "-//W3C//DTD SVG 1.1//EN"
 "http://www.w3.org/Graphics/SVG/1.1/DTD/svg11.dtd">
<!-- Generated by graphviz version 2.43.0 (0)
 -->
<!-- Title: GSDUtil Pages: 1 -->
<svg width="641pt" height="2484pt"
 viewBox="0.00 0.00 640.88 2484.00" xmlns="http://www.w3.org/2000/svg" xmlns:xlink="http://www.w3.org/1999/xlink">
<g id="graph0" class="graph" transform="scale(1 1) rotate(0) translate(4 2480)">
<title>GSDUtil</title>
<!-- Node1 -->
<g id="node1" class="node">
<title>Node1</title>
<g id="a_node1"><a xlink:title="Wrapper class for gsd.h to load data from input GSD file into SystemData class.">
<polygon fill="#bfbfbf" stroke="black" points="101.88,-2042.5 101.88,-2253.5 223.88,-2253.5 223.88,-2042.5 101.88,-2042.5"/>
<text text-anchor="middle" x="162.88" y="-2241.5" font-family="Helvetica,sans-Serif" font-size="10.00">GSDUtil</text>
<polyline fill="none" stroke="black" points="101.88,-2234.5 223.88,-2234.5 "/>
<text text-anchor="start" x="109.88" y="-2222.5" font-family="Helvetica,sans-Serif" font-size="10.00">&#45; m_frame</text>
<polyline fill="none" stroke="black" points="101.88,-2215.5 223.88,-2215.5 "/>
<text text-anchor="start" x="109.88" y="-2203.5" font-family="Helvetica,sans-Serif" font-size="10.00">+ GSDUtil()</text>
<text text-anchor="start" x="109.88" y="-2192.5" font-family="Helvetica,sans-Serif" font-size="10.00">+ GSDUtil()</text>
<text text-anchor="start" x="109.88" y="-2181.5" font-family="Helvetica,sans-Serif" font-size="10.00">+ ~GSDUtil()</text>
<text text-anchor="start" x="109.88" y="-2170.5" font-family="Helvetica,sans-Serif" font-size="10.00">+ truncateGSD()</text>
<text text-anchor="start" x="109.88" y="-2159.5" font-family="Helvetica,sans-Serif" font-size="10.00">+ writeFrame()</text>
<text text-anchor="start" x="109.88" y="-2148.5" font-family="Helvetica,sans-Serif" font-size="10.00">+ frame()</text>
<text text-anchor="start" x="109.88" y="-2137.5" font-family="Helvetica,sans-Serif" font-size="10.00">&#45; checkGSDReturn()</text>
<text text-anchor="start" x="109.88" y="-2126.5" font-family="Helvetica,sans-Serif" font-size="10.00">&#45; readChunk()</text>
<text text-anchor="start" x="109.88" y="-2115.5" font-family="Helvetica,sans-Serif" font-size="10.00">&#45; readHeader()</text>
<text text-anchor="start" x="109.88" y="-2104.5" font-family="Helvetica,sans-Serif" font-size="10.00">&#45; readParameters()</text>
<text text-anchor="start" x="109.88" y="-2093.5" font-family="Helvetica,sans-Serif" font-size="10.00">&#45; readParticles()</text>
<text text-anchor="start" x="109.88" y="-2082.5" font-family="Helvetica,sans-Serif" font-size="10.00">&#45; readSystemSpecifics()</text>
<text text-anchor="start" x="109.88" y="-2071.5" font-family="Helvetica,sans-Serif" font-size="10.00">&#45; writeHeader()</text>
<text text-anchor="start" x="109.88" y="-2060.5" font-family="Helvetica,sans-Serif" font-size="10.00">&#45; writeParameters()</text>
<text text-anchor="start" x="109.88" y="-2049.5" font-family="Helvetica,sans-Serif" font-size="10.00">&#45; writeParticles()</text>
</a>
</g>
</g>
<!-- Node5 -->
<g id="node5" class="node">
<title>Node5</title>
<g id="a_node5"><a xlink:title=" ">
<polygon fill="none" stroke="#bfbfbf" points="94.38,-1899 94.38,-1956 231.38,-1956 231.38,-1899 94.38,-1899"/>
<text text-anchor="middle" x="162.88" y="-1944" font-family="Helvetica,sans-Serif" font-size="10.00">std::shared_ptr&lt; GSDUtil &gt;</text>
<polyline fill="none" stroke="#bfbfbf" points="94.38,-1937 231.38,-1937 "/>
<text text-anchor="middle" x="162.88" y="-1925" font-family="Helvetica,sans-Serif" font-size="10.00"> </text>
<polyline fill="none" stroke="#bfbfbf" points="94.38,-1918 231.38,-1918 "/>
<text text-anchor="start" x="102.38" y="-1906" font-family="Helvetica,sans-Serif" font-size="10.00">+ operator&#45;&gt;()</text>
</a>
</g>
</g>
<!-- Node1&#45;&gt;Node5 -->
<g id="edge5" class="edge">
<title>Node1&#45;&gt;Node5</title>
<path fill="none" stroke="#404040" d="M162.88,-2042.23C162.88,-2015.93 162.88,-1989.28 162.88,-1968.39"/>
<polygon fill="none" stroke="#404040" points="162.88,-1968.19 158.88,-1962.19 162.88,-1956.19 166.88,-1962.19 162.88,-1968.19"/>
<text text-anchor="middle" x="173.38" y="-1999.5" font-family="Helvetica,sans-Serif" font-size="10.00"> +ptr</text>
</g>
<!-- Node2 -->
<g id="node2" class="node">
<title>Node2</title>
<g id="a_node2"><a xlink:title=" ">
<polygon fill="none" stroke="#bfbfbf" points="211.38,-0.5 211.38,-57.5 366.38,-57.5 366.38,-0.5 211.38,-0.5"/>
<text text-anchor="middle" x="288.88" y="-45.5" font-family="Helvetica,sans-Serif" font-size="10.00">std::shared_ptr&lt; SystemData &gt;</text>
<polyline fill="none" stroke="#bfbfbf" points="211.38,-38.5 366.38,-38.5 "/>
<text text-anchor="middle" x="288.88" y="-26.5" font-family="Helvetica,sans-Serif" font-size="10.00"> </text>
<polyline fill="none" stroke="#bfbfbf" points="211.38,-19.5 366.38,-19.5 "/>
<text text-anchor="start" x="219.38" y="-7.5" font-family="Helvetica,sans-Serif" font-size="10.00">+ operator&#45;&gt;()</text>
</a>
</g>
</g>
<!-- Node2&#45;&gt;Node1 -->
<g id="edge1" class="edge">
<title>Node2&#45;&gt;Node1</title>
<path fill="none" stroke="#404040" d="M237.33,-57.57C219.83,-69.69 202.13,-85.62 191.88,-105 -180.1,-808.84 108.67,-1097.27 84.88,-1893 83.97,-1923.65 78.81,-1931.94 84.88,-1962 89.52,-1984.94 97.09,-2008.58 105.74,-2030.97"/>
<polygon fill="none" stroke="#404040" points="105.77,-2031.05 111.71,-2035.14 110.21,-2042.2 104.27,-2038.1 105.77,-2031.05"/>
<text text-anchor="middle" x="111.88" y="-1867" font-family="Helvetica,sans-Serif" font-size="10.00"> &#45;m_system</text>
</g>
<!-- Node3 -->
<g id="node3" class="node">
<title>Node3</title>
<g id="a_node3"><a xlink:href="classSystemData.html" target="_top" xlink:title="Class contains all data structures relevant to the simulation framework. Note that after construction...">
<polygon fill="none" stroke="black" points="200.88,-105.5 200.88,-1845.5 376.88,-1845.5 376.88,-105.5 200.88,-105.5"/>
<text text-anchor="middle" x="288.88" y="-1833.5" font-family="Helvetica,sans-Serif" font-size="10.00">SystemData</text>
<polyline fill="none" stroke="black" points="200.88,-1826.5 376.88,-1826.5 "/>
<text text-anchor="start" x="208.88" y="-1814.5" font-family="Helvetica,sans-Serif" font-size="10.00">&#45; m_image_system</text>
<text text-anchor="start" x="208.88" y="-1803.5" font-family="Helvetica,sans-Serif" font-size="10.00">&#45; m_return_val</text>
<text text-anchor="start" x="208.88" y="-1792.5" font-family="Helvetica,sans-Serif" font-size="10.00">&#45; m_return_bool</text>
<text text-anchor="start" x="208.88" y="-1781.5" font-family="Helvetica,sans-Serif" font-size="10.00">&#45; m_GSD_parsed</text>
<text text-anchor="start" x="208.88" y="-1770.5" font-family="Helvetica,sans-Serif" font-size="10.00">&#45; m_sys_spec_U0</text>
<text text-anchor="start" x="208.88" y="-1759.5" font-family="Helvetica,sans-Serif" font-size="10.00">&#45; m_sys_spec_omega</text>
<text text-anchor="start" x="208.88" y="-1748.5" font-family="Helvetica,sans-Serif" font-size="10.00">&#45; m_sys_spec_phase_shift</text>
<text text-anchor="start" x="208.88" y="-1737.5" font-family="Helvetica,sans-Serif" font-size="10.00">&#45; m_sys_spec_R_avg</text>
<text text-anchor="start" x="208.88" y="-1726.5" font-family="Helvetica,sans-Serif" font-size="10.00">&#45; m_sys_scalar_w</text>
<text text-anchor="start" x="208.88" y="-1715.5" font-family="Helvetica,sans-Serif" font-size="10.00">&#45; m_particle_type_id</text>
<text text-anchor="start" x="208.88" y="-1704.5" font-family="Helvetica,sans-Serif" font-size="10.00">&#45; m_particle_group_id</text>
<text text-anchor="start" x="208.88" y="-1693.5" font-family="Helvetica,sans-Serif" font-size="10.00">&#45; m_fluid_density</text>
<text text-anchor="start" x="208.88" y="-1682.5" font-family="Helvetica,sans-Serif" font-size="10.00">&#45; m_particle_density</text>
<text text-anchor="start" x="208.88" y="-1671.5" font-family="Helvetica,sans-Serif" font-size="10.00">&#45; m_wca_epsilon</text>
<text text-anchor="start" x="208.88" y="-1660.5" font-family="Helvetica,sans-Serif" font-size="10.00">&#45; m_wca_sigma</text>
<text text-anchor="start" x="208.88" y="-1649.5" font-family="Helvetica,sans-Serif" font-size="10.00">&#45; m_num_spatial_dim</text>
<text text-anchor="start" x="208.88" y="-1638.5" font-family="Helvetica,sans-Serif" font-size="10.00">&#45; m_num_particles</text>
<text text-anchor="start" x="208.88" y="-1627.5" font-family="Helvetica,sans-Serif" font-size="10.00">&#45; m_num_bodies</text>
<text text-anchor="start" x="208.88" y="-1616.5" font-family="Helvetica,sans-Serif" font-size="10.00">&#45; m_num_DoF</text>
<text text-anchor="start" x="208.88" y="-1605.5" font-family="Helvetica,sans-Serif" font-size="10.00">&#45; m_num_constraints</text>
<text text-anchor="start" x="208.88" y="-1594.5" font-family="Helvetica,sans-Serif" font-size="10.00">&#45; m_dt</text>
<text text-anchor="start" x="208.88" y="-1583.5" font-family="Helvetica,sans-Serif" font-size="10.00">&#45; m_tf</text>
<text text-anchor="start" x="208.88" y="-1572.5" font-family="Helvetica,sans-Serif" font-size="10.00">&#45; m_t0</text>
<text text-anchor="start" x="208.88" y="-1561.5" font-family="Helvetica,sans-Serif" font-size="10.00">&#45; m_t</text>
<text text-anchor="start" x="208.88" y="-1550.5" font-family="Helvetica,sans-Serif" font-size="10.00">&#45; m_tau</text>
<text text-anchor="start" x="208.88" y="-1539.5" font-family="Helvetica,sans-Serif" font-size="10.00">&#45; m_timestep</text>
<text text-anchor="start" x="208.88" y="-1528.5" font-family="Helvetica,sans-Serif" font-size="10.00">&#45; m_num_steps_output</text>
<text text-anchor="start" x="208.88" y="-1517.5" font-family="Helvetica,sans-Serif" font-size="10.00">&#45; m_I3</text>
<text text-anchor="start" x="208.88" y="-1506.5" font-family="Helvetica,sans-Serif" font-size="10.00">&#45; m_tens_I3</text>
<text text-anchor="start" x="208.88" y="-1495.5" font-family="Helvetica,sans-Serif" font-size="10.00">&#45; m_levi_cevita</text>
<text text-anchor="start" x="208.88" y="-1484.5" font-family="Helvetica,sans-Serif" font-size="10.00">&#45; m_kappa</text>
<text text-anchor="start" x="208.88" y="-1473.5" font-family="Helvetica,sans-Serif" font-size="10.00">&#45; m_positions_bodies</text>
<text text-anchor="start" x="208.88" y="-1462.5" font-family="Helvetica,sans-Serif" font-size="10.00">&#45; m_velocities_bodies</text>
<text text-anchor="start" x="208.88" y="-1451.5" font-family="Helvetica,sans-Serif" font-size="10.00">&#45; m_accelerations_bodies</text>
<text text-anchor="start" x="208.88" y="-1440.5" font-family="Helvetica,sans-Serif" font-size="10.00">&#45; m_positions_particles</text>
<text text-anchor="start" x="208.88" y="-1429.5" font-family="Helvetica,sans-Serif" font-size="10.00">&#45; m_velocities_particles</text>
<text text-anchor="start" x="208.88" y="-1418.5" font-family="Helvetica,sans-Serif" font-size="10.00">&#45; m_accelerations_particles</text>
<text text-anchor="start" x="208.88" y="-1407.5" font-family="Helvetica,sans-Serif" font-size="10.00">&#45; m_orientations_particles</text>
<text text-anchor="start" x="208.88" y="-1396.5" font-family="Helvetica,sans-Serif" font-size="10.00">&#45; m_quaternions_particles</text>
<text text-anchor="start" x="208.88" y="-1385.5" font-family="Helvetica,sans-Serif" font-size="10.00">&#45; m_positions_particles</text>
<text text-anchor="start" x="208.88" y="-1374.5" font-family="Helvetica,sans-Serif" font-size="10.00">_articulation_init_norm</text>
<text text-anchor="start" x="208.88" y="-1363.5" font-family="Helvetica,sans-Serif" font-size="10.00">&#45; m_positions_particles</text>
<text text-anchor="start" x="208.88" y="-1352.5" font-family="Helvetica,sans-Serif" font-size="10.00">_articulation</text>
<text text-anchor="start" x="208.88" y="-1341.5" font-family="Helvetica,sans-Serif" font-size="10.00">&#45; m_velocities_particles</text>
<text text-anchor="start" x="208.88" y="-1330.5" font-family="Helvetica,sans-Serif" font-size="10.00">_articulation</text>
<text text-anchor="start" x="208.88" y="-1319.5" font-family="Helvetica,sans-Serif" font-size="10.00">&#45; m_accelerations_particles</text>
<text text-anchor="start" x="208.88" y="-1308.5" font-family="Helvetica,sans-Serif" font-size="10.00">_articulation</text>
<text text-anchor="start" x="208.88" y="-1297.5" font-family="Helvetica,sans-Serif" font-size="10.00">&#45; m_rbm_conn</text>
<text text-anchor="start" x="208.88" y="-1286.5" font-family="Helvetica,sans-Serif" font-size="10.00">&#45; m_psi_conv_quat_ang</text>
<text text-anchor="start" x="208.88" y="-1275.5" font-family="Helvetica,sans-Serif" font-size="10.00">&#45; m_zeta</text>
<text text-anchor="start" x="208.88" y="-1264.5" font-family="Helvetica,sans-Serif" font-size="10.00">&#45; m_tens_zeta</text>
<text text-anchor="start" x="208.88" y="-1253.5" font-family="Helvetica,sans-Serif" font-size="10.00">&#45; m_tens_grad_zeta</text>
<text text-anchor="start" x="208.88" y="-1242.5" font-family="Helvetica,sans-Serif" font-size="10.00">&#45; m_chi</text>
<text text-anchor="start" x="208.88" y="-1231.5" font-family="Helvetica,sans-Serif" font-size="10.00">&#45; m_tens_chi</text>
<text text-anchor="start" x="208.88" y="-1220.5" font-family="Helvetica,sans-Serif" font-size="10.00">&#45; m_Udwadia_A</text>
<text text-anchor="start" x="208.88" y="-1209.5" font-family="Helvetica,sans-Serif" font-size="10.00">&#45; m_Udwadia_b</text>
<polyline fill="none" stroke="black" points="200.88,-1202.5 376.88,-1202.5 "/>
<text text-anchor="start" x="208.88" y="-1190.5" font-family="Helvetica,sans-Serif" font-size="10.00">+ SystemData()</text>
<text text-anchor="start" x="208.88" y="-1179.5" font-family="Helvetica,sans-Serif" font-size="10.00">+ SystemData()</text>
<text text-anchor="start" x="208.88" y="-1168.5" font-family="Helvetica,sans-Serif" font-size="10.00">+ ~SystemData()</text>
<text text-anchor="start" x="208.88" y="-1157.5" font-family="Helvetica,sans-Serif" font-size="10.00">+ initializeData()</text>
<text text-anchor="start" x="208.88" y="-1146.5" font-family="Helvetica,sans-Serif" font-size="10.00">+ logData()</text>
<text text-anchor="start" x="208.88" y="-1135.5" font-family="Helvetica,sans-Serif" font-size="10.00">+ update()</text>
<text text-anchor="start" x="208.88" y="-1124.5" font-family="Helvetica,sans-Serif" font-size="10.00">+ imageSystem()</text>
<text text-anchor="start" x="208.88" y="-1113.5" font-family="Helvetica,sans-Serif" font-size="10.00">+ setImageSystem()</text>
<text text-anchor="start" x="208.88" y="-1102.5" font-family="Helvetica,sans-Serif" font-size="10.00">+ inputGSDFile()</text>
<text text-anchor="start" x="208.88" y="-1091.5" font-family="Helvetica,sans-Serif" font-size="10.00">+ outputDir()</text>
<text text-anchor="start" x="208.88" y="-1080.5" font-family="Helvetica,sans-Serif" font-size="10.00">+ setOutputDir()</text>
<text text-anchor="start" x="208.88" y="-1069.5" font-family="Helvetica,sans-Serif" font-size="10.00">+ gsdUtil()</text>
<text text-anchor="start" x="208.88" y="-1058.5" font-family="Helvetica,sans-Serif" font-size="10.00">+ handle()</text>
<text text-anchor="start" x="208.88" y="-1047.5" font-family="Helvetica,sans-Serif" font-size="10.00">+ setReturnVal()</text>
<text text-anchor="start" x="208.88" y="-1036.5" font-family="Helvetica,sans-Serif" font-size="10.00">+ returnVal()</text>
<text text-anchor="start" x="208.88" y="-1025.5" font-family="Helvetica,sans-Serif" font-size="10.00">+ setReturnBool()</text>
<text text-anchor="start" x="208.88" y="-1014.5" font-family="Helvetica,sans-Serif" font-size="10.00">+ returnBool()</text>
<text text-anchor="start" x="208.88" y="-1003.5" font-family="Helvetica,sans-Serif" font-size="10.00">+ gSDParsed()</text>
<text text-anchor="start" x="208.88" y="-992.5" font-family="Helvetica,sans-Serif" font-size="10.00">+ sysSpecU0()</text>
<text text-anchor="start" x="208.88" y="-981.5" font-family="Helvetica,sans-Serif" font-size="10.00">+ setSysSpecU0()</text>
<text text-anchor="start" x="208.88" y="-970.5" font-family="Helvetica,sans-Serif" font-size="10.00">+ sysSpecOmega()</text>
<text text-anchor="start" x="208.88" y="-959.5" font-family="Helvetica,sans-Serif" font-size="10.00">+ setSysSpecOmega()</text>
<text text-anchor="start" x="208.88" y="-948.5" font-family="Helvetica,sans-Serif" font-size="10.00">+ sysSpecPhaseShift()</text>
<text text-anchor="start" x="208.88" y="-937.5" font-family="Helvetica,sans-Serif" font-size="10.00">+ setSysSpecPhaseShift()</text>
<text text-anchor="start" x="208.88" y="-926.5" font-family="Helvetica,sans-Serif" font-size="10.00">+ sysSpecRAvg()</text>
<text text-anchor="start" x="208.88" y="-915.5" font-family="Helvetica,sans-Serif" font-size="10.00">+ setSysSpecRAvg()</text>
<text text-anchor="start" x="208.88" y="-904.5" font-family="Helvetica,sans-Serif" font-size="10.00">+ particleTypeId()</text>
<text text-anchor="start" x="208.88" y="-893.5" font-family="Helvetica,sans-Serif" font-size="10.00">+ setParticleTypeId()</text>
<text text-anchor="start" x="208.88" y="-882.5" font-family="Helvetica,sans-Serif" font-size="10.00">+ fluidDensity()</text>
<text text-anchor="start" x="208.88" y="-871.5" font-family="Helvetica,sans-Serif" font-size="10.00">+ setFluidDensity()</text>
<text text-anchor="start" x="208.88" y="-860.5" font-family="Helvetica,sans-Serif" font-size="10.00">+ particleDensity()</text>
<text text-anchor="start" x="208.88" y="-849.5" font-family="Helvetica,sans-Serif" font-size="10.00">+ setParticleDensity()</text>
<text text-anchor="start" x="208.88" y="-838.5" font-family="Helvetica,sans-Serif" font-size="10.00">+ wcaEpsilon()</text>
<text text-anchor="start" x="208.88" y="-827.5" font-family="Helvetica,sans-Serif" font-size="10.00">+ setWcaEpsilon()</text>
<text text-anchor="start" x="208.88" y="-816.5" font-family="Helvetica,sans-Serif" font-size="10.00">+ wcaSigma()</text>
<text text-anchor="start" x="208.88" y="-805.5" font-family="Helvetica,sans-Serif" font-size="10.00">+ setWcaSigma()</text>
<text text-anchor="start" x="208.88" y="-794.5" font-family="Helvetica,sans-Serif" font-size="10.00">+ numSpatialDim()</text>
<text text-anchor="start" x="208.88" y="-783.5" font-family="Helvetica,sans-Serif" font-size="10.00">+ setNumSpatialDim()</text>
<text text-anchor="start" x="208.88" y="-772.5" font-family="Helvetica,sans-Serif" font-size="10.00">+ numParticles()</text>
<text text-anchor="start" x="208.88" y="-761.5" font-family="Helvetica,sans-Serif" font-size="10.00">+ setNumParticles()</text>
<text text-anchor="start" x="208.88" y="-750.5" font-family="Helvetica,sans-Serif" font-size="10.00">+ numBodies()</text>
<text text-anchor="start" x="208.88" y="-739.5" font-family="Helvetica,sans-Serif" font-size="10.00">+ setNumBodies()</text>
<text text-anchor="start" x="208.88" y="-728.5" font-family="Helvetica,sans-Serif" font-size="10.00">+ numDoF()</text>
<text text-anchor="start" x="208.88" y="-717.5" font-family="Helvetica,sans-Serif" font-size="10.00">+ tensI3()</text>
<text text-anchor="start" x="208.88" y="-706.5" font-family="Helvetica,sans-Serif" font-size="10.00">+ i3()</text>
<text text-anchor="start" x="208.88" y="-695.5" font-family="Helvetica,sans-Serif" font-size="10.00">+ dt()</text>
<text text-anchor="start" x="208.88" y="-684.5" font-family="Helvetica,sans-Serif" font-size="10.00">+ setDt()</text>
<text text-anchor="start" x="208.88" y="-673.5" font-family="Helvetica,sans-Serif" font-size="10.00">+ tf()</text>
<text text-anchor="start" x="208.88" y="-662.5" font-family="Helvetica,sans-Serif" font-size="10.00">+ setTf()</text>
<text text-anchor="start" x="208.88" y="-651.5" font-family="Helvetica,sans-Serif" font-size="10.00">+ t()</text>
<text text-anchor="start" x="208.88" y="-640.5" font-family="Helvetica,sans-Serif" font-size="10.00">+ setT()</text>
<text text-anchor="start" x="208.88" y="-629.5" font-family="Helvetica,sans-Serif" font-size="10.00">+ tau()</text>
<text text-anchor="start" x="208.88" y="-618.5" font-family="Helvetica,sans-Serif" font-size="10.00">+ setTau()</text>
<text text-anchor="start" x="208.88" y="-607.5" font-family="Helvetica,sans-Serif" font-size="10.00">+ timestep()</text>
<text text-anchor="start" x="208.88" y="-596.5" font-family="Helvetica,sans-Serif" font-size="10.00">+ setTimestep()</text>
<text text-anchor="start" x="208.88" y="-585.5" font-family="Helvetica,sans-Serif" font-size="10.00">+ numStepsOutput()</text>
<text text-anchor="start" x="208.88" y="-574.5" font-family="Helvetica,sans-Serif" font-size="10.00">+ setNumStepsOutput()</text>
<text text-anchor="start" x="208.88" y="-563.5" font-family="Helvetica,sans-Serif" font-size="10.00">+ rbmConn()</text>
<text text-anchor="start" x="208.88" y="-552.5" font-family="Helvetica,sans-Serif" font-size="10.00">+ positionsBodies()</text>
<text text-anchor="start" x="208.88" y="-541.5" font-family="Helvetica,sans-Serif" font-size="10.00">+ setPositionsBodies()</text>
<text text-anchor="start" x="208.88" y="-530.5" font-family="Helvetica,sans-Serif" font-size="10.00">+ velocitiesBodies()</text>
<text text-anchor="start" x="208.88" y="-519.5" font-family="Helvetica,sans-Serif" font-size="10.00">+ setVelocitiesBodies()</text>
<text text-anchor="start" x="208.88" y="-508.5" font-family="Helvetica,sans-Serif" font-size="10.00">+ accelerationsBodies()</text>
<text text-anchor="start" x="208.88" y="-497.5" font-family="Helvetica,sans-Serif" font-size="10.00">+ setAccelerationsBodies()</text>
<text text-anchor="start" x="208.88" y="-486.5" font-family="Helvetica,sans-Serif" font-size="10.00">+ quaternionsParticles()</text>
<text text-anchor="start" x="208.88" y="-475.5" font-family="Helvetica,sans-Serif" font-size="10.00">+ setQuaternionsParticles()</text>
<text text-anchor="start" x="208.88" y="-464.5" font-family="Helvetica,sans-Serif" font-size="10.00">+ orientationsParticles()</text>
<text text-anchor="start" x="208.88" y="-453.5" font-family="Helvetica,sans-Serif" font-size="10.00">+ setOrientationsParticles()</text>
<text text-anchor="start" x="208.88" y="-442.5" font-family="Helvetica,sans-Serif" font-size="10.00">+ positionsParticles()</text>
<text text-anchor="start" x="208.88" y="-431.5" font-family="Helvetica,sans-Serif" font-size="10.00">+ setPositionsParticles()</text>
<text text-anchor="start" x="208.88" y="-420.5" font-family="Helvetica,sans-Serif" font-size="10.00">+ velocitiesParticles()</text>
<text text-anchor="start" x="208.88" y="-409.5" font-family="Helvetica,sans-Serif" font-size="10.00">+ setVelocitiesParticles()</text>
<text text-anchor="start" x="208.88" y="-398.5" font-family="Helvetica,sans-Serif" font-size="10.00">+ accelerationsParticles()</text>
<text text-anchor="start" x="208.88" y="-387.5" font-family="Helvetica,sans-Serif" font-size="10.00">+ setAccelerationsParticles()</text>
<text text-anchor="start" x="208.88" y="-376.5" font-family="Helvetica,sans-Serif" font-size="10.00">+ velocitiesParticlesArticulation()</text>
<text text-anchor="start" x="208.88" y="-365.5" font-family="Helvetica,sans-Serif" font-size="10.00">+ accelerationsParticlesArticulation()</text>
<text text-anchor="start" x="208.88" y="-354.5" font-family="Helvetica,sans-Serif" font-size="10.00">+ tensZeta()</text>
<text text-anchor="start" x="208.88" y="-343.5" font-family="Helvetica,sans-Serif" font-size="10.00">+ tensGradZeta()</text>
<text text-anchor="start" x="208.88" y="-332.5" font-family="Helvetica,sans-Serif" font-size="10.00">+ tensChi()</text>
<text text-anchor="start" x="208.88" y="-321.5" font-family="Helvetica,sans-Serif" font-size="10.00">+ udwadiaA()</text>
<text text-anchor="start" x="208.88" y="-310.5" font-family="Helvetica,sans-Serif" font-size="10.00">+ udwadiaB()</text>
<text text-anchor="start" x="208.88" y="-299.5" font-family="Helvetica,sans-Serif" font-size="10.00">&#45; parseGSD()</text>
<text text-anchor="start" x="208.88" y="-288.5" font-family="Helvetica,sans-Serif" font-size="10.00">&#45; checkInput()</text>
<text text-anchor="start" x="208.88" y="-277.5" font-family="Helvetica,sans-Serif" font-size="10.00">&#45; positionsArticulation()</text>
<text text-anchor="start" x="208.88" y="-266.5" font-family="Helvetica,sans-Serif" font-size="10.00">&#45; velocitiesArticulation()</text>
<text text-anchor="start" x="208.88" y="-255.5" font-family="Helvetica,sans-Serif" font-size="10.00">&#45; accelerationsArticulation()</text>
<text text-anchor="start" x="208.88" y="-244.5" font-family="Helvetica,sans-Serif" font-size="10.00">&#45; udwadiaLinearSystem()</text>
<text text-anchor="start" x="208.88" y="-233.5" font-family="Helvetica,sans-Serif" font-size="10.00">&#45; rbmMatrixElement()</text>
<text text-anchor="start" x="208.88" y="-222.5" font-family="Helvetica,sans-Serif" font-size="10.00">&#45; psiMatrixElement()</text>
<text text-anchor="start" x="208.88" y="-211.5" font-family="Helvetica,sans-Serif" font-size="10.00">&#45; chiMatrixElement()</text>
<text text-anchor="start" x="208.88" y="-200.5" font-family="Helvetica,sans-Serif" font-size="10.00">&#45; gradZetaTensorElement()</text>
<text text-anchor="start" x="208.88" y="-189.5" font-family="Helvetica,sans-Serif" font-size="10.00">&#45; rigidBodyMotionTensors()</text>
<text text-anchor="start" x="208.88" y="-178.5" font-family="Helvetica,sans-Serif" font-size="10.00">&#45; gradientChangeOfVariable</text>
<text text-anchor="start" x="208.88" y="-167.5" font-family="Helvetica,sans-Serif" font-size="10.00">Tensors()</text>
<text text-anchor="start" x="208.88" y="-156.5" font-family="Helvetica,sans-Serif" font-size="10.00">&#45; convertBody2ParticleOrient()</text>
<text text-anchor="start" x="208.88" y="-145.5" font-family="Helvetica,sans-Serif" font-size="10.00">&#45; convertBody2ParticlePos()</text>
<text text-anchor="start" x="208.88" y="-134.5" font-family="Helvetica,sans-Serif" font-size="10.00">&#45; convertBody2ParticleVelAcc()</text>
<text text-anchor="start" x="208.88" y="-123.5" font-family="Helvetica,sans-Serif" font-size="10.00">&#45; crossProdMat()</text>
<text text-anchor="start" x="208.88" y="-112.5" font-family="Helvetica,sans-Serif" font-size="10.00">&#45; eMatrix()</text>
</a>
</g>
</g>
<!-- Node3&#45;&gt;Node2 -->
<g id="edge2" class="edge">
<title>Node3&#45;&gt;Node2</title>
<path fill="none" stroke="#404040" d="M288.88,-105.3C288.88,-91.92 288.88,-80.05 288.88,-69.91"/>
<polygon fill="none" stroke="#404040" points="288.88,-69.6 284.88,-63.6 288.88,-57.6 292.88,-63.6 288.88,-69.6"/>
<text text-anchor="middle" x="299.38" y="-79" font-family="Helvetica,sans-Serif" font-size="10.00"> +ptr</text>
</g>
<!-- Node4 -->
<g id="node4" class="node">
<title>Node4</title>
<g id="a_node4"><a xlink:title=" ">
<polygon fill="none" stroke="#bfbfbf" points="413.38,-1893.5 413.38,-1961.5 548.38,-1961.5 548.38,-1893.5 413.38,-1893.5"/>
<text text-anchor="start" x="421.38" y="-1949.5" font-family="Helvetica,sans-Serif" font-size="10.00">std::enable_shared</text>
<text text-anchor="middle" x="480.88" y="-1938.5" font-family="Helvetica,sans-Serif" font-size="10.00">_from_this&lt; SystemData &gt;</text>
<polyline fill="none" stroke="#bfbfbf" points="413.38,-1931.5 548.38,-1931.5 "/>
<text text-anchor="middle" x="480.88" y="-1919.5" font-family="Helvetica,sans-Serif" font-size="10.00"> </text>
<polyline fill="none" stroke="#bfbfbf" points="413.38,-1912.5 548.38,-1912.5 "/>
<text text-anchor="middle" x="480.88" y="-1900.5" font-family="Helvetica,sans-Serif" font-size="10.00"> </text>
</a>
</g>
</g>
<!-- Node4&#45;&gt;Node3 -->
<g id="edge3" class="edge">
<title>Node4&#45;&gt;Node3</title>
<path fill="none" stroke="midnightblue" d="M472.13,-1883.19C454.93,-1798.08 415.06,-1600.84 376.9,-1411.98"/>
<polygon fill="none" stroke="midnightblue" points="468.75,-1884.14 474.16,-1893.25 475.61,-1882.75 468.75,-1884.14"/>
</g>
<!-- Node5&#45;&gt;Node3 -->
<g id="edge4" class="edge">
<title>Node5&#45;&gt;Node3</title>
<path fill="none" stroke="#404040" d="M166.55,-1898.84C172.39,-1854.79 184.65,-1762.36 199.25,-1652.3"/>
<polygon fill="none" stroke="#404040" points="199.28,-1652.09 196.1,-1645.62 200.86,-1640.2 204.03,-1646.67 199.28,-1652.09"/>
<text text-anchor="middle" x="196.38" y="-1867" font-family="Helvetica,sans-Serif" font-size="10.00"> &#45;m_gsdUtil</text>
</g>
<!-- Node6 -->
<g id="node6" class="node">
<title>Node6</title>
<g id="a_node6"><a xlink:title="STL class.">
<polygon fill="none" stroke="#bfbfbf" points="431.38,-2119.5 431.38,-2176.5 536.38,-2176.5 536.38,-2119.5 431.38,-2119.5"/>
<text text-anchor="middle" x="483.88" y="-2164.5" font-family="Helvetica,sans-Serif" font-size="10.00">std::shared_ptr&lt; T &gt;</text>
<polyline fill="none" stroke="#bfbfbf" points="431.38,-2157.5 536.38,-2157.5 "/>
<text text-anchor="middle" x="483.88" y="-2145.5" font-family="Helvetica,sans-Serif" font-size="10.00"> </text>
<polyline fill="none" stroke="#bfbfbf" points="431.38,-2138.5 536.38,-2138.5 "/>
<text text-anchor="start" x="439.38" y="-2126.5" font-family="Helvetica,sans-Serif" font-size="10.00">+ operator&#45;&gt;()</text>
</a>
</g>
</g>
<!-- Node6&#45;&gt;Node2 -->
<g id="edge13" class="edge">
<title>Node6&#45;&gt;Node2</title>
<path fill="none" stroke="orange" d="M513.07,-2111.12C530.09,-2087.83 549.91,-2055.95 558.88,-2024 560.84,-2017.02 560.2,-1936.12 557.88,-1893 515.03,-1095.82 771.6,-803.97 385.88,-105 375.24,-85.71 357.35,-69.76 339.81,-57.6"/>
<polygon fill="orange" stroke="orange" points="510.14,-2109.2 506.96,-2119.3 515.75,-2113.39 510.14,-2109.2"/>
<text text-anchor="middle" x="594.88" y="-1867" font-family="Helvetica,sans-Serif" font-size="10.00"> &lt; SystemData &gt;</text>
</g>
<!-- Node6&#45;&gt;Node5 -->
<g id="edge6" class="edge">
<title>Node6&#45;&gt;Node5</title>
<path fill="none" stroke="orange" d="M458.74,-2111.18C441.8,-2086.8 419.12,-2053.7 399.88,-2024 387.41,-2004.74 391.74,-1993.06 372.88,-1980 338.27,-1956.03 320.83,-1971.8 279.88,-1962 264.16,-1958.24 247.39,-1953.73 231.6,-1949.26"/>
<polygon fill="orange" stroke="orange" points="455.89,-2113.21 464.48,-2119.41 461.63,-2109.21 455.89,-2113.21"/>
<text text-anchor="middle" x="428.88" y="-1999.5" font-family="Helvetica,sans-Serif" font-size="10.00"> &lt; GSDUtil &gt;</text>
</g>
<!-- Node10 -->
<g id="node10" class="node">
<title>Node10</title>
<g id="a_node10"><a xlink:title=" ">
<polygon fill="none" stroke="#bfbfbf" points="288.38,-1893.5 288.38,-1961.5 395.38,-1961.5 395.38,-1893.5 288.38,-1893.5"/>
<text text-anchor="start" x="296.38" y="-1949.5" font-family="Helvetica,sans-Serif" font-size="10.00">std::shared_ptr&lt; gsd</text>
<text text-anchor="middle" x="341.88" y="-1938.5" font-family="Helvetica,sans-Serif" font-size="10.00">_handle &gt;</text>
<polyline fill="none" stroke="#bfbfbf" points="288.38,-1931.5 395.38,-1931.5 "/>
<text text-anchor="middle" x="341.88" y="-1919.5" font-family="Helvetica,sans-Serif" font-size="10.00"> </text>
<polyline fill="none" stroke="#bfbfbf" points="288.38,-1912.5 395.38,-1912.5 "/>
<text text-anchor="middle" x="341.88" y="-1900.5" font-family="Helvetica,sans-Serif" font-size="10.00"> </text>
</a>
</g>
</g>
<!-- Node6&#45;&gt;Node10 -->
<g id="edge12" class="edge">
<title>Node6&#45;&gt;Node10</title>
<path fill="none" stroke="orange" d="M489.65,-2108.78C493.02,-2071.61 491.82,-2015.69 461.88,-1980 444.81,-1959.65 429.38,-1972.28 404.88,-1962 401.8,-1960.71 398.66,-1959.31 395.52,-1957.85"/>
<polygon fill="orange" stroke="orange" points="486.12,-2108.89 488.55,-2119.2 493.08,-2109.62 486.12,-2108.89"/>
<text text-anchor="middle" x="519.38" y="-1999.5" font-family="Helvetica,sans-Serif" font-size="10.00"> &lt; gsd_handle &gt;</text>
</g>
<!-- Node7 -->
<g id="node7" class="node">
<title>Node7</title>
<g id="a_node7"><a xlink:title=" ">
<polygon fill="none" stroke="#bfbfbf" points="469.38,-2312.5 469.38,-2369.5 498.38,-2369.5 498.38,-2312.5 469.38,-2312.5"/>
<text text-anchor="middle" x="483.88" y="-2357.5" font-family="Helvetica,sans-Serif" font-size="10.00">T</text>
<polyline fill="none" stroke="#bfbfbf" points="469.38,-2350.5 498.38,-2350.5 "/>
<text text-anchor="middle" x="483.88" y="-2338.5" font-family="Helvetica,sans-Serif" font-size="10.00"> </text>
<polyline fill="none" stroke="#bfbfbf" points="469.38,-2331.5 498.38,-2331.5 "/>
<text text-anchor="middle" x="483.88" y="-2319.5" font-family="Helvetica,sans-Serif" font-size="10.00"> </text>
</a>
</g>
</g>
<!-- Node7&#45;&gt;Node6 -->
<g id="edge7" class="edge">
<title>Node7&#45;&gt;Node6</title>
<path fill="none" stroke="#404040" d="M483.88,-2312.23C483.88,-2279.83 483.88,-2226.02 483.88,-2189.1"/>
<polygon fill="none" stroke="#404040" points="483.88,-2188.81 479.88,-2182.81 483.88,-2176.81 487.88,-2182.81 483.88,-2188.81"/>
<text text-anchor="middle" x="494.38" y="-2280.5" font-family="Helvetica,sans-Serif" font-size="10.00"> +ptr</text>
</g>
<!-- Node8 -->
<g id="node8" class="node">
<title>Node8</title>
<g id="a_node8"><a xlink:title="STL class.">
<polygon fill="none" stroke="#bfbfbf" points="187.88,-2312.5 187.88,-2369.5 247.88,-2369.5 247.88,-2312.5 187.88,-2312.5"/>
<text text-anchor="middle" x="217.88" y="-2357.5" font-family="Helvetica,sans-Serif" font-size="10.00">std::string</text>
<polyline fill="none" stroke="#bfbfbf" points="187.88,-2350.5 247.88,-2350.5 "/>
<text text-anchor="middle" x="217.88" y="-2338.5" font-family="Helvetica,sans-Serif" font-size="10.00"> </text>
<polyline fill="none" stroke="#bfbfbf" points="187.88,-2331.5 247.88,-2331.5 "/>
<text text-anchor="middle" x="217.88" y="-2319.5" font-family="Helvetica,sans-Serif" font-size="10.00"> </text>
</a>
</g>
</g>
<!-- Node8&#45;&gt;Node1 -->
<g id="edge14" class="edge">
<title>Node8&#45;&gt;Node1</title>
<path fill="none" stroke="#404040" d="M196.51,-2312.36C192.82,-2306.54 189.37,-2300.26 186.88,-2294 183.3,-2284.98 180.25,-2275.44 177.65,-2265.74"/>
<polygon fill="none" stroke="#404040" points="177.59,-2265.49 172.27,-2260.62 174.71,-2253.84 180.03,-2258.7 177.59,-2265.49"/>
<text text-anchor="middle" x="216.38" y="-2286" font-family="Helvetica,sans-Serif" font-size="10.00"> &#45;m_logName</text>
<text text-anchor="middle" x="216.38" y="-2275" font-family="Helvetica,sans-Serif" font-size="10.00">&#45;m_logFile</text>
</g>
<!-- Node8&#45;&gt;Node3 -->
<g id="edge8" class="edge">
<title>Node8&#45;&gt;Node3</title>
<path fill="none" stroke="#404040" d="M237.79,-2312.37C241.07,-2306.55 244.01,-2300.27 245.88,-2294 253.6,-2268.13 261.47,-2082.28 268.33,-1857.92"/>
<polygon fill="none" stroke="#404040" points="268.33,-1857.84 264.51,-1851.72 268.7,-1845.84 272.51,-1851.96 268.33,-1857.84"/>
<text text-anchor="middle" x="302.88" y="-2016" font-family="Helvetica,sans-Serif" font-size="10.00"> &#45;m_outputDir</text>
<text text-anchor="middle" x="302.88" y="-2005" font-family="Helvetica,sans-Serif" font-size="10.00">&#45;m_logName</text>
<text text-anchor="middle" x="302.88" y="-1994" font-family="Helvetica,sans-Serif" font-size="10.00">&#45;m_logFile</text>
<text text-anchor="middle" x="302.88" y="-1983" font-family="Helvetica,sans-Serif" font-size="10.00">&#45;m_inputGSDFile</text>
</g>
<!-- Node9 -->
<g id="node9" class="node">
<title>Node9</title>
<g id="a_node9"><a xlink:title="STL class.">
<polygon fill="none" stroke="#bfbfbf" points="170.38,-2407.5 170.38,-2475.5 265.38,-2475.5 265.38,-2407.5 170.38,-2407.5"/>
<text text-anchor="start" x="178.38" y="-2463.5" font-family="Helvetica,sans-Serif" font-size="10.00">std::basic_string&lt;</text>
<text text-anchor="middle" x="217.88" y="-2452.5" font-family="Helvetica,sans-Serif" font-size="10.00"> char &gt;</text>
<polyline fill="none" stroke="#bfbfbf" points="170.38,-2445.5 265.38,-2445.5 "/>
<text text-anchor="middle" x="217.88" y="-2433.5" font-family="Helvetica,sans-Serif" font-size="10.00"> </text>
<polyline fill="none" stroke="#bfbfbf" points="170.38,-2426.5 265.38,-2426.5 "/>
<text text-anchor="middle" x="217.88" y="-2414.5" font-family="Helvetica,sans-Serif" font-size="10.00"> </text>
</a>
</g>
</g>
<!-- Node9&#45;&gt;Node8 -->
<g id="edge9" class="edge">
<title>Node9&#45;&gt;Node8</title>
<path fill="none" stroke="midnightblue" d="M217.88,-2397.38C217.88,-2387.94 217.88,-2378.2 217.88,-2369.57"/>
<polygon fill="none" stroke="midnightblue" points="214.38,-2397.43 217.88,-2407.43 221.38,-2397.43 214.38,-2397.43"/>
</g>
<!-- Node10&#45;&gt;Node3 -->
<g id="edge10" class="edge">
<title>Node10&#45;&gt;Node3</title>
<path fill="none" stroke="#404040" d="M340.03,-1893.25C339.48,-1883.4 338.82,-1871.57 338.06,-1858.02"/>
<polygon fill="none" stroke="#404040" points="338.04,-1857.65 333.71,-1851.88 337.37,-1845.67 341.7,-1851.44 338.04,-1857.65"/>
<text text-anchor="middle" x="362.38" y="-1867" font-family="Helvetica,sans-Serif" font-size="10.00"> &#45;m_handle</text>
</g>
<!-- Node11 -->
<g id="node11" class="node">
<title>Node11</title>
<g id="a_node11"><a xlink:title=" ">
<polygon fill="none" stroke="#bfbfbf" points="325.88,-2119.5 325.88,-2176.5 391.88,-2176.5 391.88,-2119.5 325.88,-2119.5"/>
<text text-anchor="middle" x="358.88" y="-2164.5" font-family="Helvetica,sans-Serif" font-size="10.00">gsd_handle</text>
<polyline fill="none" stroke="#bfbfbf" points="325.88,-2157.5 391.88,-2157.5 "/>
<text text-anchor="middle" x="358.88" y="-2145.5" font-family="Helvetica,sans-Serif" font-size="10.00"> </text>
<polyline fill="none" stroke="#bfbfbf" points="325.88,-2138.5 391.88,-2138.5 "/>
<text text-anchor="middle" x="358.88" y="-2126.5" font-family="Helvetica,sans-Serif" font-size="10.00"> </text>
</a>
</g>
</g>
<!-- Node11&#45;&gt;Node10 -->
<g id="edge11" class="edge">
<title>Node11&#45;&gt;Node10</title>
<path fill="none" stroke="#404040" d="M356.73,-2119.33C353.88,-2082.67 348.81,-2017.54 345.4,-1973.69"/>
<polygon fill="none" stroke="#404040" points="345.39,-1973.62 340.94,-1967.94 344.46,-1961.65 348.92,-1967.32 345.39,-1973.62"/>
<text text-anchor="middle" x="358.38" y="-1999.5" font-family="Helvetica,sans-Serif" font-size="10.00"> +ptr</text>
</g>
</g>
</svg>
