<?xml version="1.0" encoding="UTF-8" standalone="no"?>
<!DOCTYPE svg PUBLIC "-//W3C//DTD SVG 1.1//EN"
 "http://www.w3.org/Graphics/SVG/1.1/DTD/svg11.dtd">
<!-- Generated by graphviz version 2.43.0 (0)
 -->
<!-- Title: systemData Pages: 1 -->
<svg width="793pt" height="2693pt"
 viewBox="0.00 0.00 793.00 2693.00" xmlns="http://www.w3.org/2000/svg" xmlns:xlink="http://www.w3.org/1999/xlink">
<g id="graph0" class="graph" transform="scale(1 1) rotate(0) translate(4 2689)">
<title>systemData</title>
<!-- Node1 -->
<g id="node1" class="node">
<title>Node1</title>
<g id="a_node1"><a xlink:title="Class contains all data structures relevant to the simulation framework. Note that after construction...">
<polygon fill="#bfbfbf" stroke="black" points="112,-480.5 112,-1989.5 288,-1989.5 288,-480.5 112,-480.5"/>
<text text-anchor="middle" x="200" y="-1977.5" font-family="Helvetica,sans-Serif" font-size="10.00">systemData</text>
<polyline fill="none" stroke="black" points="112,-1970.5 288,-1970.5 "/>
<text text-anchor="start" x="120" y="-1958.5" font-family="Helvetica,sans-Serif" font-size="10.00">&#45; m_return_val</text>
<text text-anchor="start" x="120" y="-1947.5" font-family="Helvetica,sans-Serif" font-size="10.00">&#45; m_return_bool</text>
<text text-anchor="start" x="120" y="-1936.5" font-family="Helvetica,sans-Serif" font-size="10.00">&#45; m_GSD_parsed</text>
<text text-anchor="start" x="120" y="-1925.5" font-family="Helvetica,sans-Serif" font-size="10.00">&#45; m_sys_spec_U0</text>
<text text-anchor="start" x="120" y="-1914.5" font-family="Helvetica,sans-Serif" font-size="10.00">&#45; m_sys_spec_omega</text>
<text text-anchor="start" x="120" y="-1903.5" font-family="Helvetica,sans-Serif" font-size="10.00">&#45; m_sys_spec_phase_shift</text>
<text text-anchor="start" x="120" y="-1892.5" font-family="Helvetica,sans-Serif" font-size="10.00">&#45; m_sys_spec_R_avg</text>
<text text-anchor="start" x="120" y="-1881.5" font-family="Helvetica,sans-Serif" font-size="10.00">&#45; m_particle_type_id</text>
<text text-anchor="start" x="120" y="-1870.5" font-family="Helvetica,sans-Serif" font-size="10.00">&#45; m_num_spatial_dim</text>
<text text-anchor="start" x="120" y="-1859.5" font-family="Helvetica,sans-Serif" font-size="10.00">&#45; m_num_particles</text>
<text text-anchor="start" x="120" y="-1848.5" font-family="Helvetica,sans-Serif" font-size="10.00">&#45; m_num_bodies</text>
<text text-anchor="start" x="120" y="-1837.5" font-family="Helvetica,sans-Serif" font-size="10.00">&#45; m_num_DoF</text>
<text text-anchor="start" x="120" y="-1826.5" font-family="Helvetica,sans-Serif" font-size="10.00">&#45; m_num_constraints</text>
<text text-anchor="start" x="120" y="-1815.5" font-family="Helvetica,sans-Serif" font-size="10.00">&#45; m_dt</text>
<text text-anchor="start" x="120" y="-1804.5" font-family="Helvetica,sans-Serif" font-size="10.00">&#45; m_tf</text>
<text text-anchor="start" x="120" y="-1793.5" font-family="Helvetica,sans-Serif" font-size="10.00">&#45; m_t</text>
<text text-anchor="start" x="120" y="-1782.5" font-family="Helvetica,sans-Serif" font-size="10.00">&#45; m_tau</text>
<text text-anchor="start" x="120" y="-1771.5" font-family="Helvetica,sans-Serif" font-size="10.00">&#45; m_timestep</text>
<text text-anchor="start" x="120" y="-1760.5" font-family="Helvetica,sans-Serif" font-size="10.00">&#45; m_num_steps_output</text>
<text text-anchor="start" x="120" y="-1749.5" font-family="Helvetica,sans-Serif" font-size="10.00">&#45; m_fluid_density</text>
<text text-anchor="start" x="120" y="-1738.5" font-family="Helvetica,sans-Serif" font-size="10.00">&#45; m_particle_density</text>
<text text-anchor="start" x="120" y="-1727.5" font-family="Helvetica,sans-Serif" font-size="10.00">&#45; m_wca_epsilon</text>
<text text-anchor="start" x="120" y="-1716.5" font-family="Helvetica,sans-Serif" font-size="10.00">&#45; m_wca_sigma</text>
<text text-anchor="start" x="120" y="-1705.5" font-family="Helvetica,sans-Serif" font-size="10.00">&#45; m_I3</text>
<text text-anchor="start" x="120" y="-1694.5" font-family="Helvetica,sans-Serif" font-size="10.00">&#45; m_tens_I3</text>
<text text-anchor="start" x="120" y="-1683.5" font-family="Helvetica,sans-Serif" font-size="10.00">&#45; m_levi_cevita</text>
<text text-anchor="start" x="120" y="-1672.5" font-family="Helvetica,sans-Serif" font-size="10.00">&#45; m_kappa_tilde</text>
<text text-anchor="start" x="120" y="-1661.5" font-family="Helvetica,sans-Serif" font-size="10.00">&#45; m_positions_bodies</text>
<text text-anchor="start" x="120" y="-1650.5" font-family="Helvetica,sans-Serif" font-size="10.00">&#45; m_velocities_bodies</text>
<text text-anchor="start" x="120" y="-1639.5" font-family="Helvetica,sans-Serif" font-size="10.00">&#45; m_accelerations_bodies</text>
<text text-anchor="start" x="120" y="-1628.5" font-family="Helvetica,sans-Serif" font-size="10.00">&#45; m_orientations_particles</text>
<text text-anchor="start" x="120" y="-1617.5" font-family="Helvetica,sans-Serif" font-size="10.00">&#45; m_positions_particles</text>
<text text-anchor="start" x="120" y="-1606.5" font-family="Helvetica,sans-Serif" font-size="10.00">&#45; m_velocities_particles</text>
<text text-anchor="start" x="120" y="-1595.5" font-family="Helvetica,sans-Serif" font-size="10.00">&#45; m_accelerations_particles</text>
<text text-anchor="start" x="120" y="-1584.5" font-family="Helvetica,sans-Serif" font-size="10.00">&#45; m_positions_locater</text>
<text text-anchor="start" x="120" y="-1573.5" font-family="Helvetica,sans-Serif" font-size="10.00">_particles</text>
<text text-anchor="start" x="120" y="-1562.5" font-family="Helvetica,sans-Serif" font-size="10.00">&#45; m_velocities_particles</text>
<text text-anchor="start" x="120" y="-1551.5" font-family="Helvetica,sans-Serif" font-size="10.00">_articulation</text>
<text text-anchor="start" x="120" y="-1540.5" font-family="Helvetica,sans-Serif" font-size="10.00">&#45; m_accelerations_particles</text>
<text text-anchor="start" x="120" y="-1529.5" font-family="Helvetica,sans-Serif" font-size="10.00">_articulation</text>
<text text-anchor="start" x="120" y="-1518.5" font-family="Helvetica,sans-Serif" font-size="10.00">&#45; m_rbm_conn</text>
<text text-anchor="start" x="120" y="-1507.5" font-family="Helvetica,sans-Serif" font-size="10.00">&#45; m_psi_conv_quat_ang</text>
<text text-anchor="start" x="120" y="-1496.5" font-family="Helvetica,sans-Serif" font-size="10.00">&#45; m_rbm_conn_T_quat</text>
<text text-anchor="start" x="120" y="-1485.5" font-family="Helvetica,sans-Serif" font-size="10.00">&#45; m_tens_rbm_conn_T_quat</text>
<text text-anchor="start" x="120" y="-1474.5" font-family="Helvetica,sans-Serif" font-size="10.00">&#45; m_rbm_conn_T_quat_grad</text>
<text text-anchor="start" x="120" y="-1463.5" font-family="Helvetica,sans-Serif" font-size="10.00">&#45; m_conv_body_2_part_dof</text>
<text text-anchor="start" x="120" y="-1452.5" font-family="Helvetica,sans-Serif" font-size="10.00">&#45; m_tens_conv_body_2</text>
<text text-anchor="start" x="120" y="-1441.5" font-family="Helvetica,sans-Serif" font-size="10.00">_part_dof</text>
<text text-anchor="start" x="120" y="-1430.5" font-family="Helvetica,sans-Serif" font-size="10.00">&#45; m_Udwadia_A</text>
<text text-anchor="start" x="120" y="-1419.5" font-family="Helvetica,sans-Serif" font-size="10.00">&#45; m_Udwadia_b</text>
<polyline fill="none" stroke="black" points="112,-1412.5 288,-1412.5 "/>
<text text-anchor="start" x="120" y="-1400.5" font-family="Helvetica,sans-Serif" font-size="10.00">+ systemData()</text>
<text text-anchor="start" x="120" y="-1389.5" font-family="Helvetica,sans-Serif" font-size="10.00">+ ~systemData()</text>
<text text-anchor="start" x="120" y="-1378.5" font-family="Helvetica,sans-Serif" font-size="10.00">+ initializeData()</text>
<text text-anchor="start" x="120" y="-1367.5" font-family="Helvetica,sans-Serif" font-size="10.00">+ update()</text>
<text text-anchor="start" x="120" y="-1356.5" font-family="Helvetica,sans-Serif" font-size="10.00">+ outputDir()</text>
<text text-anchor="start" x="120" y="-1345.5" font-family="Helvetica,sans-Serif" font-size="10.00">+ inputGSDFile()</text>
<text text-anchor="start" x="120" y="-1334.5" font-family="Helvetica,sans-Serif" font-size="10.00">+ handle()</text>
<text text-anchor="start" x="120" y="-1323.5" font-family="Helvetica,sans-Serif" font-size="10.00">+ gsdUtil()</text>
<text text-anchor="start" x="120" y="-1312.5" font-family="Helvetica,sans-Serif" font-size="10.00">+ gSDParsed()</text>
<text text-anchor="start" x="120" y="-1301.5" font-family="Helvetica,sans-Serif" font-size="10.00">+ setReturnVal()</text>
<text text-anchor="start" x="120" y="-1290.5" font-family="Helvetica,sans-Serif" font-size="10.00">+ returnVal()</text>
<text text-anchor="start" x="120" y="-1279.5" font-family="Helvetica,sans-Serif" font-size="10.00">+ setReturnBool()</text>
<text text-anchor="start" x="120" y="-1268.5" font-family="Helvetica,sans-Serif" font-size="10.00">+ returnBool()</text>
<text text-anchor="start" x="120" y="-1257.5" font-family="Helvetica,sans-Serif" font-size="10.00">+ orientationsParticles()</text>
<text text-anchor="start" x="120" y="-1246.5" font-family="Helvetica,sans-Serif" font-size="10.00">+ setOrientationsParticles()</text>
<text text-anchor="start" x="120" y="-1235.5" font-family="Helvetica,sans-Serif" font-size="10.00">+ positionsParticles()</text>
<text text-anchor="start" x="120" y="-1224.5" font-family="Helvetica,sans-Serif" font-size="10.00">+ setPositionsParticles()</text>
<text text-anchor="start" x="120" y="-1213.5" font-family="Helvetica,sans-Serif" font-size="10.00">+ velocitiesParticles()</text>
<text text-anchor="start" x="120" y="-1202.5" font-family="Helvetica,sans-Serif" font-size="10.00">+ setVelocitiesParticles()</text>
<text text-anchor="start" x="120" y="-1191.5" font-family="Helvetica,sans-Serif" font-size="10.00">+ accelerationsParticles()</text>
<text text-anchor="start" x="120" y="-1180.5" font-family="Helvetica,sans-Serif" font-size="10.00">+ setAccelerationsParticles()</text>
<text text-anchor="start" x="120" y="-1169.5" font-family="Helvetica,sans-Serif" font-size="10.00">+ positionsBodies()</text>
<text text-anchor="start" x="120" y="-1158.5" font-family="Helvetica,sans-Serif" font-size="10.00">+ setPositionsBodies()</text>
<text text-anchor="start" x="120" y="-1147.5" font-family="Helvetica,sans-Serif" font-size="10.00">+ velocitiesBodies()</text>
<text text-anchor="start" x="120" y="-1136.5" font-family="Helvetica,sans-Serif" font-size="10.00">+ setVelocitiesBodies()</text>
<text text-anchor="start" x="120" y="-1125.5" font-family="Helvetica,sans-Serif" font-size="10.00">+ accelerationsBodies()</text>
<text text-anchor="start" x="120" y="-1114.5" font-family="Helvetica,sans-Serif" font-size="10.00">+ setAccelerationsBodies()</text>
<text text-anchor="start" x="120" y="-1103.5" font-family="Helvetica,sans-Serif" font-size="10.00">+ particleTypeId()</text>
<text text-anchor="start" x="120" y="-1092.5" font-family="Helvetica,sans-Serif" font-size="10.00">+ setParticleTypeId()</text>
<text text-anchor="start" x="120" y="-1081.5" font-family="Helvetica,sans-Serif" font-size="10.00">+ numDoF()</text>
<text text-anchor="start" x="120" y="-1070.5" font-family="Helvetica,sans-Serif" font-size="10.00">+ numSpatialDim()</text>
<text text-anchor="start" x="120" y="-1059.5" font-family="Helvetica,sans-Serif" font-size="10.00">+ setNumSpatialDim()</text>
<text text-anchor="start" x="120" y="-1048.5" font-family="Helvetica,sans-Serif" font-size="10.00">+ numParticles()</text>
<text text-anchor="start" x="120" y="-1037.5" font-family="Helvetica,sans-Serif" font-size="10.00">+ setNumParticles()</text>
<text text-anchor="start" x="120" y="-1026.5" font-family="Helvetica,sans-Serif" font-size="10.00">+ numBodies()</text>
<text text-anchor="start" x="120" y="-1015.5" font-family="Helvetica,sans-Serif" font-size="10.00">+ setNumBodies()</text>
<text text-anchor="start" x="120" y="-1004.5" font-family="Helvetica,sans-Serif" font-size="10.00">+ dt()</text>
<text text-anchor="start" x="120" y="-993.5" font-family="Helvetica,sans-Serif" font-size="10.00">+ setDt()</text>
<text text-anchor="start" x="120" y="-982.5" font-family="Helvetica,sans-Serif" font-size="10.00">+ t()</text>
<text text-anchor="start" x="120" y="-971.5" font-family="Helvetica,sans-Serif" font-size="10.00">+ setT()</text>
<text text-anchor="start" x="120" y="-960.5" font-family="Helvetica,sans-Serif" font-size="10.00">+ tf()</text>
<text text-anchor="start" x="120" y="-949.5" font-family="Helvetica,sans-Serif" font-size="10.00">+ setTf()</text>
<text text-anchor="start" x="120" y="-938.5" font-family="Helvetica,sans-Serif" font-size="10.00">+ tau()</text>
<text text-anchor="start" x="120" y="-927.5" font-family="Helvetica,sans-Serif" font-size="10.00">+ setTau()</text>
<text text-anchor="start" x="120" y="-916.5" font-family="Helvetica,sans-Serif" font-size="10.00">+ timestep()</text>
<text text-anchor="start" x="120" y="-905.5" font-family="Helvetica,sans-Serif" font-size="10.00">+ setTimestep()</text>
<text text-anchor="start" x="120" y="-894.5" font-family="Helvetica,sans-Serif" font-size="10.00">+ numStepsOutput()</text>
<text text-anchor="start" x="120" y="-883.5" font-family="Helvetica,sans-Serif" font-size="10.00">+ setNumStepsOutput()</text>
<text text-anchor="start" x="120" y="-872.5" font-family="Helvetica,sans-Serif" font-size="10.00">+ fluidDensity()</text>
<text text-anchor="start" x="120" y="-861.5" font-family="Helvetica,sans-Serif" font-size="10.00">+ setFluidDensity()</text>
<text text-anchor="start" x="120" y="-850.5" font-family="Helvetica,sans-Serif" font-size="10.00">+ particleDensity()</text>
<text text-anchor="start" x="120" y="-839.5" font-family="Helvetica,sans-Serif" font-size="10.00">+ setParticleDensity()</text>
<text text-anchor="start" x="120" y="-828.5" font-family="Helvetica,sans-Serif" font-size="10.00">+ wcaSigma()</text>
<text text-anchor="start" x="120" y="-817.5" font-family="Helvetica,sans-Serif" font-size="10.00">+ setWcaSigma()</text>
<text text-anchor="start" x="120" y="-806.5" font-family="Helvetica,sans-Serif" font-size="10.00">+ wcaEpsilon()</text>
<text text-anchor="start" x="120" y="-795.5" font-family="Helvetica,sans-Serif" font-size="10.00">+ setWcaEpsilon()</text>
<text text-anchor="start" x="120" y="-784.5" font-family="Helvetica,sans-Serif" font-size="10.00">+ velocitiesParticlesArticulation()</text>
<text text-anchor="start" x="120" y="-773.5" font-family="Helvetica,sans-Serif" font-size="10.00">+ accelerationsParticlesArticulation()</text>
<text text-anchor="start" x="120" y="-762.5" font-family="Helvetica,sans-Serif" font-size="10.00">+ sysSpecRAvg()</text>
<text text-anchor="start" x="120" y="-751.5" font-family="Helvetica,sans-Serif" font-size="10.00">+ setSysSpecRAvg()</text>
<text text-anchor="start" x="120" y="-740.5" font-family="Helvetica,sans-Serif" font-size="10.00">+ sysSpecPhaseShift()</text>
<text text-anchor="start" x="120" y="-729.5" font-family="Helvetica,sans-Serif" font-size="10.00">+ setSysSpecPhaseShift()</text>
<text text-anchor="start" x="120" y="-718.5" font-family="Helvetica,sans-Serif" font-size="10.00">+ sysSpecOmega()</text>
<text text-anchor="start" x="120" y="-707.5" font-family="Helvetica,sans-Serif" font-size="10.00">+ setSysSpecOmega()</text>
<text text-anchor="start" x="120" y="-696.5" font-family="Helvetica,sans-Serif" font-size="10.00">+ sysSpecU0()</text>
<text text-anchor="start" x="120" y="-685.5" font-family="Helvetica,sans-Serif" font-size="10.00">+ setSysSpecU0()</text>
<text text-anchor="start" x="120" y="-674.5" font-family="Helvetica,sans-Serif" font-size="10.00">+ udwadiaA()</text>
<text text-anchor="start" x="120" y="-663.5" font-family="Helvetica,sans-Serif" font-size="10.00">+ udwadiaB()</text>
<text text-anchor="start" x="120" y="-652.5" font-family="Helvetica,sans-Serif" font-size="10.00">+ tensI3()</text>
<text text-anchor="start" x="120" y="-641.5" font-family="Helvetica,sans-Serif" font-size="10.00">+ i3()</text>
<text text-anchor="start" x="120" y="-630.5" font-family="Helvetica,sans-Serif" font-size="10.00">+ tensRbmConnTQuat()</text>
<text text-anchor="start" x="120" y="-619.5" font-family="Helvetica,sans-Serif" font-size="10.00">+ tensConvBody2PartDof()</text>
<text text-anchor="start" x="120" y="-608.5" font-family="Helvetica,sans-Serif" font-size="10.00">+ rbmConnTQuatGrad()</text>
<text text-anchor="start" x="120" y="-597.5" font-family="Helvetica,sans-Serif" font-size="10.00">&#45; parseGSD()</text>
<text text-anchor="start" x="120" y="-586.5" font-family="Helvetica,sans-Serif" font-size="10.00">&#45; checkInput()</text>
<text text-anchor="start" x="120" y="-575.5" font-family="Helvetica,sans-Serif" font-size="10.00">&#45; velocitiesArticulation()</text>
<text text-anchor="start" x="120" y="-564.5" font-family="Helvetica,sans-Serif" font-size="10.00">&#45; accelerationsArticulation()</text>
<text text-anchor="start" x="120" y="-553.5" font-family="Helvetica,sans-Serif" font-size="10.00">&#45; locaterPointLocations()</text>
<text text-anchor="start" x="120" y="-542.5" font-family="Helvetica,sans-Serif" font-size="10.00">&#45; rigidBodyMotionTensors()</text>
<text text-anchor="start" x="120" y="-531.5" font-family="Helvetica,sans-Serif" font-size="10.00">&#45; gradientChangeOfVariable</text>
<text text-anchor="start" x="120" y="-520.5" font-family="Helvetica,sans-Serif" font-size="10.00">Tensors()</text>
<text text-anchor="start" x="120" y="-509.5" font-family="Helvetica,sans-Serif" font-size="10.00">&#45; udwadiaLinearSystem()</text>
<text text-anchor="start" x="120" y="-498.5" font-family="Helvetica,sans-Serif" font-size="10.00">&#45; eMatrix()</text>
<text text-anchor="start" x="120" y="-487.5" font-family="Helvetica,sans-Serif" font-size="10.00">&#45; crossProdMat()</text>
</a>
</g>
</g>
<!-- Node5 -->
<g id="node5" class="node">
<title>Node5</title>
<g id="a_node5"><a xlink:title=" ">
<polygon fill="none" stroke="#bfbfbf" points="233.5,-364.5 233.5,-421.5 386.5,-421.5 386.5,-364.5 233.5,-364.5"/>
<text text-anchor="middle" x="310" y="-409.5" font-family="Helvetica,sans-Serif" font-size="10.00">std::shared_ptr&lt; systemData &gt;</text>
<polyline fill="none" stroke="#bfbfbf" points="233.5,-402.5 386.5,-402.5 "/>
<text text-anchor="middle" x="310" y="-390.5" font-family="Helvetica,sans-Serif" font-size="10.00"> </text>
<polyline fill="none" stroke="#bfbfbf" points="233.5,-383.5 386.5,-383.5 "/>
<text text-anchor="start" x="241.5" y="-371.5" font-family="Helvetica,sans-Serif" font-size="10.00">+ operator&#45;&gt;()</text>
</a>
</g>
</g>
<!-- Node1&#45;&gt;Node5 -->
<g id="edge5" class="edge">
<title>Node1&#45;&gt;Node5</title>
<path fill="none" stroke="#404040" d="M267.97,-480.33C272.09,-466.72 276.43,-453.26 281,-440 281.88,-437.46 282.91,-434.92 284.07,-432.41"/>
<polygon fill="none" stroke="#404040" points="284.13,-432.28 283.39,-425.11 289.73,-421.67 290.47,-428.84 284.13,-432.28"/>
<text text-anchor="middle" x="291.5" y="-448.5" font-family="Helvetica,sans-Serif" font-size="10.00"> +ptr</text>
</g>
<!-- Node2 -->
<g id="node2" class="node">
<title>Node2</title>
<g id="a_node2"><a xlink:title=" ">
<polygon fill="none" stroke="#bfbfbf" points="28,-2070.5 28,-2138.5 162,-2138.5 162,-2070.5 28,-2070.5"/>
<text text-anchor="start" x="36" y="-2126.5" font-family="Helvetica,sans-Serif" font-size="10.00">std::enable_shared</text>
<text text-anchor="middle" x="95" y="-2115.5" font-family="Helvetica,sans-Serif" font-size="10.00">_from_this&lt; systemData &gt;</text>
<polyline fill="none" stroke="#bfbfbf" points="28,-2108.5 162,-2108.5 "/>
<text text-anchor="middle" x="95" y="-2096.5" font-family="Helvetica,sans-Serif" font-size="10.00"> </text>
<polyline fill="none" stroke="#bfbfbf" points="28,-2089.5 162,-2089.5 "/>
<text text-anchor="middle" x="95" y="-2077.5" font-family="Helvetica,sans-Serif" font-size="10.00"> </text>
</a>
</g>
</g>
<!-- Node2&#45;&gt;Node1 -->
<g id="edge1" class="edge">
<title>Node2&#45;&gt;Node1</title>
<path fill="none" stroke="midnightblue" d="M100.25,-2060.13C103.18,-2035.9 107.21,-2002.66 111.96,-1963.36"/>
<polygon fill="none" stroke="midnightblue" points="96.75,-2059.94 99.02,-2070.29 103.7,-2060.78 96.75,-2059.94"/>
</g>
<!-- Node3 -->
<g id="node3" class="node">
<title>Node3</title>
<g id="a_node3"><a xlink:title=" ">
<polygon fill="none" stroke="#bfbfbf" points="131.5,-0.5 131.5,-57.5 268.5,-57.5 268.5,-0.5 131.5,-0.5"/>
<text text-anchor="middle" x="200" y="-45.5" font-family="Helvetica,sans-Serif" font-size="10.00">std::shared_ptr&lt; GSDUtil &gt;</text>
<polyline fill="none" stroke="#bfbfbf" points="131.5,-38.5 268.5,-38.5 "/>
<text text-anchor="middle" x="200" y="-26.5" font-family="Helvetica,sans-Serif" font-size="10.00"> </text>
<polyline fill="none" stroke="#bfbfbf" points="131.5,-19.5 268.5,-19.5 "/>
<text text-anchor="start" x="139.5" y="-7.5" font-family="Helvetica,sans-Serif" font-size="10.00">+ operator&#45;&gt;()</text>
</a>
</g>
</g>
<!-- Node3&#45;&gt;Node1 -->
<g id="edge2" class="edge">
<title>Node3&#45;&gt;Node1</title>
<path fill="none" stroke="#404040" d="M200,-57.52C200,-120.31 200,-283.09 200,-468.24"/>
<polygon fill="none" stroke="#404040" points="200,-468.47 204,-474.47 200,-480.47 196,-474.47 200,-468.47"/>
<text text-anchor="middle" x="225.5" y="-338" font-family="Helvetica,sans-Serif" font-size="10.00"> &#45;m_gsdUtil</text>
</g>
<!-- Node4 -->
<g id="node4" class="node">
<title>Node4</title>
<g id="a_node4"><a xlink:href="classGSDUtil.html" target="_top" xlink:title=" ">
<polygon fill="none" stroke="black" points="249,-105.5 249,-316.5 371,-316.5 371,-105.5 249,-105.5"/>
<text text-anchor="middle" x="310" y="-304.5" font-family="Helvetica,sans-Serif" font-size="10.00">GSDUtil</text>
<polyline fill="none" stroke="black" points="249,-297.5 371,-297.5 "/>
<text text-anchor="start" x="257" y="-285.5" font-family="Helvetica,sans-Serif" font-size="10.00">&#45; m_frame</text>
<polyline fill="none" stroke="black" points="249,-278.5 371,-278.5 "/>
<text text-anchor="start" x="257" y="-266.5" font-family="Helvetica,sans-Serif" font-size="10.00">+ GSDUtil()</text>
<text text-anchor="start" x="257" y="-255.5" font-family="Helvetica,sans-Serif" font-size="10.00">+ GSDUtil()</text>
<text text-anchor="start" x="257" y="-244.5" font-family="Helvetica,sans-Serif" font-size="10.00">+ ~GSDUtil()</text>
<text text-anchor="start" x="257" y="-233.5" font-family="Helvetica,sans-Serif" font-size="10.00">+ truncateGSD()</text>
<text text-anchor="start" x="257" y="-222.5" font-family="Helvetica,sans-Serif" font-size="10.00">+ writeFrame()</text>
<text text-anchor="start" x="257" y="-211.5" font-family="Helvetica,sans-Serif" font-size="10.00">+ frame()</text>
<text text-anchor="start" x="257" y="-200.5" font-family="Helvetica,sans-Serif" font-size="10.00">&#45; checkGSDReturn()</text>
<text text-anchor="start" x="257" y="-189.5" font-family="Helvetica,sans-Serif" font-size="10.00">&#45; readChunk()</text>
<text text-anchor="start" x="257" y="-178.5" font-family="Helvetica,sans-Serif" font-size="10.00">&#45; readHeader()</text>
<text text-anchor="start" x="257" y="-167.5" font-family="Helvetica,sans-Serif" font-size="10.00">&#45; readParameters()</text>
<text text-anchor="start" x="257" y="-156.5" font-family="Helvetica,sans-Serif" font-size="10.00">&#45; readParticles()</text>
<text text-anchor="start" x="257" y="-145.5" font-family="Helvetica,sans-Serif" font-size="10.00">&#45; readSystemSpecifics()</text>
<text text-anchor="start" x="257" y="-134.5" font-family="Helvetica,sans-Serif" font-size="10.00">&#45; writeHeader()</text>
<text text-anchor="start" x="257" y="-123.5" font-family="Helvetica,sans-Serif" font-size="10.00">&#45; writeParameters()</text>
<text text-anchor="start" x="257" y="-112.5" font-family="Helvetica,sans-Serif" font-size="10.00">&#45; writeParticles()</text>
</a>
</g>
</g>
<!-- Node4&#45;&gt;Node3 -->
<g id="edge3" class="edge">
<title>Node4&#45;&gt;Node3</title>
<path fill="none" stroke="#404040" d="M248.89,-110C239.79,-95.1 230.91,-80.58 223.27,-68.08"/>
<polygon fill="none" stroke="#404040" points="223.16,-67.9 216.62,-64.87 216.91,-57.66 223.45,-60.7 223.16,-67.9"/>
<text text-anchor="middle" x="242.5" y="-79" font-family="Helvetica,sans-Serif" font-size="10.00"> +ptr</text>
</g>
<!-- Node5&#45;&gt;Node4 -->
<g id="edge4" class="edge">
<title>Node5&#45;&gt;Node4</title>
<path fill="none" stroke="#404040" d="M310,-364.27C310,-354.15 310,-341.98 310,-328.97"/>
<polygon fill="none" stroke="#404040" points="310,-328.83 306,-322.83 310,-316.83 314,-322.83 310,-328.83"/>
<text text-anchor="middle" x="336" y="-338" font-family="Helvetica,sans-Serif" font-size="10.00"> &#45;m_system</text>
</g>
<!-- Node6 -->
<g id="node6" class="node">
<title>Node6</title>
<g id="a_node6"><a xlink:title="STL class.">
<polygon fill="none" stroke="#bfbfbf" points="162.5,-2203 162.5,-2260 267.5,-2260 267.5,-2203 162.5,-2203"/>
<text text-anchor="middle" x="215" y="-2248" font-family="Helvetica,sans-Serif" font-size="10.00">std::shared_ptr&lt; T &gt;</text>
<polyline fill="none" stroke="#bfbfbf" points="162.5,-2241 267.5,-2241 "/>
<text text-anchor="middle" x="215" y="-2229" font-family="Helvetica,sans-Serif" font-size="10.00"> </text>
<polyline fill="none" stroke="#bfbfbf" points="162.5,-2222 267.5,-2222 "/>
<text text-anchor="start" x="170.5" y="-2210" font-family="Helvetica,sans-Serif" font-size="10.00">+ operator&#45;&gt;()</text>
</a>
</g>
</g>
<!-- Node6&#45;&gt;Node3 -->
<g id="edge10" class="edge">
<title>Node6&#45;&gt;Node3</title>
<path fill="none" stroke="orange" d="M152.45,-2221.28C88.98,-2207.96 0,-2176.61 0,-2105.5 0,-2105.5 0,-2105.5 0,-210 0,-137.13 74.27,-86.23 132.29,-57.58"/>
<polygon fill="orange" stroke="orange" points="151.91,-2224.74 162.41,-2223.26 153.28,-2217.87 151.91,-2224.74"/>
<text text-anchor="middle" x="29" y="-448.5" font-family="Helvetica,sans-Serif" font-size="10.00"> &lt; GSDUtil &gt;</text>
</g>
<!-- Node6&#45;&gt;Node5 -->
<g id="edge6" class="edge">
<title>Node6&#45;&gt;Node5</title>
<path fill="none" stroke="orange" d="M275.77,-2197.07C285.53,-2188.89 294.29,-2179.2 300,-2168 320.7,-2127.37 311.65,-643.09 310.19,-421.54"/>
<polygon fill="orange" stroke="orange" points="273.5,-2194.41 267.76,-2203.31 277.8,-2199.93 273.5,-2194.41"/>
<text text-anchor="middle" x="345.5" y="-2027.5" font-family="Helvetica,sans-Serif" font-size="10.00"> &lt; systemData &gt;</text>
</g>
<!-- Node10 -->
<g id="node10" class="node">
<title>Node10</title>
<g id="a_node10"><a xlink:title=" ">
<polygon fill="none" stroke="#bfbfbf" points="180.5,-2070.5 180.5,-2138.5 287.5,-2138.5 287.5,-2070.5 180.5,-2070.5"/>
<text text-anchor="start" x="188.5" y="-2126.5" font-family="Helvetica,sans-Serif" font-size="10.00">std::shared_ptr&lt; gsd</text>
<text text-anchor="middle" x="234" y="-2115.5" font-family="Helvetica,sans-Serif" font-size="10.00">_handle &gt;</text>
<polyline fill="none" stroke="#bfbfbf" points="180.5,-2108.5 287.5,-2108.5 "/>
<text text-anchor="middle" x="234" y="-2096.5" font-family="Helvetica,sans-Serif" font-size="10.00"> </text>
<polyline fill="none" stroke="#bfbfbf" points="180.5,-2089.5 287.5,-2089.5 "/>
<text text-anchor="start" x="188.5" y="-2077.5" font-family="Helvetica,sans-Serif" font-size="10.00">+ operator&#45;&gt;()</text>
</a>
</g>
</g>
<!-- Node6&#45;&gt;Node10 -->
<g id="edge23" class="edge">
<title>Node6&#45;&gt;Node10</title>
<path fill="none" stroke="orange" d="M220.77,-2192.55C223.37,-2175.46 226.41,-2155.46 228.92,-2138.94"/>
<polygon fill="orange" stroke="orange" points="217.26,-2192.35 219.22,-2202.76 224.18,-2193.4 217.26,-2192.35"/>
<text text-anchor="middle" x="260.5" y="-2160" font-family="Helvetica,sans-Serif" font-size="10.00"> &lt; gsd_handle &gt;</text>
</g>
<!-- Node7 -->
<g id="node7" class="node">
<title>Node7</title>
<g id="a_node7"><a xlink:title=" ">
<polygon fill="none" stroke="#bfbfbf" points="180.5,-2401.5 180.5,-2458.5 209.5,-2458.5 209.5,-2401.5 180.5,-2401.5"/>
<text text-anchor="middle" x="195" y="-2446.5" font-family="Helvetica,sans-Serif" font-size="10.00">T</text>
<polyline fill="none" stroke="#bfbfbf" points="180.5,-2439.5 209.5,-2439.5 "/>
<text text-anchor="middle" x="195" y="-2427.5" font-family="Helvetica,sans-Serif" font-size="10.00"> </text>
<polyline fill="none" stroke="#bfbfbf" points="180.5,-2420.5 209.5,-2420.5 "/>
<text text-anchor="middle" x="195" y="-2408.5" font-family="Helvetica,sans-Serif" font-size="10.00"> </text>
</a>
</g>
</g>
<!-- Node7&#45;&gt;Node6 -->
<g id="edge7" class="edge">
<title>Node7&#45;&gt;Node6</title>
<path fill="none" stroke="#404040" d="M197.82,-2401.26C201.25,-2367.62 207.05,-2310.65 210.95,-2272.32"/>
<polygon fill="none" stroke="#404040" points="210.98,-2272.03 207.6,-2265.66 212.19,-2260.1 215.56,-2266.47 210.98,-2272.03"/>
<text text-anchor="middle" x="218.5" y="-2309" font-family="Helvetica,sans-Serif" font-size="10.00"> +ptr</text>
</g>
<!-- Node8 -->
<g id="node8" class="node">
<title>Node8</title>
<g id="a_node8"><a xlink:title="STL class.">
<polygon fill="none" stroke="#bfbfbf" points="463,-2076 463,-2133 523,-2133 523,-2076 463,-2076"/>
<text text-anchor="middle" x="493" y="-2121" font-family="Helvetica,sans-Serif" font-size="10.00">std::string</text>
<polyline fill="none" stroke="#bfbfbf" points="463,-2114 523,-2114 "/>
<text text-anchor="middle" x="493" y="-2102" font-family="Helvetica,sans-Serif" font-size="10.00"> </text>
<polyline fill="none" stroke="#bfbfbf" points="463,-2095 523,-2095 "/>
<text text-anchor="middle" x="493" y="-2083" font-family="Helvetica,sans-Serif" font-size="10.00"> </text>
</a>
</g>
</g>
<!-- Node8&#45;&gt;Node1 -->
<g id="edge11" class="edge">
<title>Node8&#45;&gt;Node1</title>
<path fill="none" stroke="#404040" d="M462.7,-2090.2C446.31,-2081.55 427.01,-2068.74 415,-2052 388.42,-2014.97 336.87,-1821.08 290.91,-1631.6"/>
<polygon fill="none" stroke="#404040" points="290.86,-1631.37 285.56,-1626.48 288.03,-1619.71 293.33,-1624.6 290.86,-1631.37"/>
<text text-anchor="middle" x="453" y="-2044" font-family="Helvetica,sans-Serif" font-size="10.00"> &#45;m_outputDir</text>
<text text-anchor="middle" x="453" y="-2033" font-family="Helvetica,sans-Serif" font-size="10.00">&#45;m_logName</text>
<text text-anchor="middle" x="453" y="-2022" font-family="Helvetica,sans-Serif" font-size="10.00">&#45;m_logFile</text>
<text text-anchor="middle" x="453" y="-2011" font-family="Helvetica,sans-Serif" font-size="10.00">&#45;m_inputGSDFile</text>
</g>
<!-- Node8&#45;&gt;Node4 -->
<g id="edge8" class="edge">
<title>Node8&#45;&gt;Node4</title>
<path fill="none" stroke="#404040" d="M496.08,-2075.88C513.6,-1910.3 593.21,-1033.89 396,-364 391.2,-347.69 384.38,-331.24 376.65,-315.48"/>
<polygon fill="none" stroke="#404040" points="376.6,-315.4 370.32,-311.86 371.17,-304.7 377.45,-308.24 376.6,-315.4"/>
<text text-anchor="middle" x="448.5" y="-454" font-family="Helvetica,sans-Serif" font-size="10.00"> &#45;m_logName</text>
<text text-anchor="middle" x="448.5" y="-443" font-family="Helvetica,sans-Serif" font-size="10.00">&#45;m_logFile</text>
</g>
<!-- Node9 -->
<g id="node9" class="node">
<title>Node9</title>
<g id="a_node9"><a xlink:title="STL class.">
<polygon fill="none" stroke="#bfbfbf" points="445.5,-2197.5 445.5,-2265.5 540.5,-2265.5 540.5,-2197.5 445.5,-2197.5"/>
<text text-anchor="start" x="453.5" y="-2253.5" font-family="Helvetica,sans-Serif" font-size="10.00">std::basic_string&lt;</text>
<text text-anchor="middle" x="493" y="-2242.5" font-family="Helvetica,sans-Serif" font-size="10.00"> char &gt;</text>
<polyline fill="none" stroke="#bfbfbf" points="445.5,-2235.5 540.5,-2235.5 "/>
<text text-anchor="middle" x="493" y="-2223.5" font-family="Helvetica,sans-Serif" font-size="10.00"> </text>
<polyline fill="none" stroke="#bfbfbf" points="445.5,-2216.5 540.5,-2216.5 "/>
<text text-anchor="middle" x="493" y="-2204.5" font-family="Helvetica,sans-Serif" font-size="10.00"> </text>
</a>
</g>
</g>
<!-- Node9&#45;&gt;Node8 -->
<g id="edge9" class="edge">
<title>Node9&#45;&gt;Node8</title>
<path fill="none" stroke="midnightblue" d="M493,-2187.14C493,-2169.29 493,-2149.14 493,-2133.32"/>
<polygon fill="none" stroke="midnightblue" points="489.5,-2187.33 493,-2197.33 496.5,-2187.33 489.5,-2187.33"/>
</g>
<!-- Node10&#45;&gt;Node1 -->
<g id="edge12" class="edge">
<title>Node10&#45;&gt;Node1</title>
<path fill="none" stroke="#404040" d="M232.7,-2070.29C232.02,-2053.04 231.11,-2029.71 230.01,-2001.82"/>
<polygon fill="none" stroke="#404040" points="230.01,-2001.59 225.77,-1995.75 229.54,-1989.59 233.77,-1995.43 230.01,-2001.59"/>
<text text-anchor="middle" x="255.5" y="-2027.5" font-family="Helvetica,sans-Serif" font-size="10.00"> &#45;m_handle</text>
</g>
<!-- Node11 -->
<g id="node11" class="node">
<title>Node11</title>
<g id="a_node11"><a xlink:href="structgsd__handle.html" target="_top" xlink:title=" ">
<polygon fill="none" stroke="black" points="330.5,-2186.5 330.5,-2276.5 403.5,-2276.5 403.5,-2186.5 330.5,-2186.5"/>
<text text-anchor="middle" x="367" y="-2264.5" font-family="Helvetica,sans-Serif" font-size="10.00">gsd_handle</text>
<polyline fill="none" stroke="black" points="330.5,-2257.5 403.5,-2257.5 "/>
<text text-anchor="start" x="338.5" y="-2245.5" font-family="Helvetica,sans-Serif" font-size="10.00">+ fd</text>
<text text-anchor="start" x="338.5" y="-2234.5" font-family="Helvetica,sans-Serif" font-size="10.00">+ cur_frame</text>
<text text-anchor="start" x="338.5" y="-2223.5" font-family="Helvetica,sans-Serif" font-size="10.00">+ file_size</text>
<text text-anchor="start" x="338.5" y="-2212.5" font-family="Helvetica,sans-Serif" font-size="10.00">+ open_flags</text>
<polyline fill="none" stroke="black" points="330.5,-2205.5 403.5,-2205.5 "/>
<text text-anchor="middle" x="367" y="-2193.5" font-family="Helvetica,sans-Serif" font-size="10.00"> </text>
</a>
</g>
</g>
<!-- Node11&#45;&gt;Node10 -->
<g id="edge13" class="edge">
<title>Node11&#45;&gt;Node10</title>
<path fill="none" stroke="#404040" d="M330.26,-2187.74C320.74,-2177.35 310.26,-2166.5 300,-2157 296.12,-2153.4 292,-2149.79 287.8,-2146.23"/>
<polygon fill="none" stroke="#404040" points="287.78,-2146.21 280.6,-2145.47 278.52,-2138.57 285.7,-2139.3 287.78,-2146.21"/>
<text text-anchor="middle" x="319.5" y="-2160" font-family="Helvetica,sans-Serif" font-size="10.00"> +ptr</text>
</g>
<!-- Node12 -->
<g id="node12" class="node">
<title>Node12</title>
<g id="a_node12"><a xlink:href="structgsd__index__buffer.html" target="_top" xlink:title=" ">
<polygon fill="none" stroke="black" points="549,-2385 549,-2475 639,-2475 639,-2385 549,-2385"/>
<text text-anchor="middle" x="594" y="-2463" font-family="Helvetica,sans-Serif" font-size="10.00">gsd_index_buffer</text>
<polyline fill="none" stroke="black" points="549,-2456 639,-2456 "/>
<text text-anchor="start" x="557" y="-2444" font-family="Helvetica,sans-Serif" font-size="10.00">+ size</text>
<text text-anchor="start" x="557" y="-2433" font-family="Helvetica,sans-Serif" font-size="10.00">+ reserved</text>
<text text-anchor="start" x="557" y="-2422" font-family="Helvetica,sans-Serif" font-size="10.00">+ mapped_data</text>
<text text-anchor="start" x="557" y="-2411" font-family="Helvetica,sans-Serif" font-size="10.00">+ mapped_len</text>
<polyline fill="none" stroke="black" points="549,-2404 639,-2404 "/>
<text text-anchor="middle" x="594" y="-2392" font-family="Helvetica,sans-Serif" font-size="10.00"> </text>
</a>
</g>
</g>
<!-- Node12&#45;&gt;Node11 -->
<g id="edge14" class="edge">
<title>Node12&#45;&gt;Node11</title>
<path fill="none" stroke="#404040" d="M568.31,-2384.81C559.95,-2371.8 550.18,-2357.88 540,-2346 517.87,-2320.2 511.95,-2312.81 483,-2295 464.3,-2283.5 456.58,-2286.94 437,-2277 429.41,-2273.15 421.59,-2268.7 414.05,-2264.14"/>
<polygon fill="none" stroke="#404040" points="413.83,-2264 406.62,-2264.23 403.63,-2257.66 410.84,-2257.43 413.83,-2264"/>
<text text-anchor="middle" x="554" y="-2320" font-family="Helvetica,sans-Serif" font-size="10.00"> +buffer_index</text>
<text text-anchor="middle" x="554" y="-2309" font-family="Helvetica,sans-Serif" font-size="10.00">+frame_index</text>
<text text-anchor="middle" x="554" y="-2298" font-family="Helvetica,sans-Serif" font-size="10.00">+file_index</text>
</g>
<!-- Node13 -->
<g id="node13" class="node">
<title>Node13</title>
<g id="a_node13"><a xlink:href="structgsd__index__entry.html" target="_top" xlink:title=" ">
<polygon fill="none" stroke="black" points="561,-2561.5 561,-2684.5 649,-2684.5 649,-2561.5 561,-2561.5"/>
<text text-anchor="middle" x="605" y="-2672.5" font-family="Helvetica,sans-Serif" font-size="10.00">gsd_index_entry</text>
<polyline fill="none" stroke="black" points="561,-2665.5 649,-2665.5 "/>
<text text-anchor="start" x="569" y="-2653.5" font-family="Helvetica,sans-Serif" font-size="10.00">+ frame</text>
<text text-anchor="start" x="569" y="-2642.5" font-family="Helvetica,sans-Serif" font-size="10.00">+ N</text>
<text text-anchor="start" x="569" y="-2631.5" font-family="Helvetica,sans-Serif" font-size="10.00">+ location</text>
<text text-anchor="start" x="569" y="-2620.5" font-family="Helvetica,sans-Serif" font-size="10.00">+ M</text>
<text text-anchor="start" x="569" y="-2609.5" font-family="Helvetica,sans-Serif" font-size="10.00">+ id</text>
<text text-anchor="start" x="569" y="-2598.5" font-family="Helvetica,sans-Serif" font-size="10.00">+ type</text>
<text text-anchor="start" x="569" y="-2587.5" font-family="Helvetica,sans-Serif" font-size="10.00">+ flags</text>
<polyline fill="none" stroke="black" points="561,-2580.5 649,-2580.5 "/>
<text text-anchor="middle" x="605" y="-2568.5" font-family="Helvetica,sans-Serif" font-size="10.00"> </text>
</a>
</g>
</g>
<!-- Node13&#45;&gt;Node12 -->
<g id="edge15" class="edge">
<title>Node13&#45;&gt;Node12</title>
<path fill="none" stroke="#404040" d="M601.5,-2561.3C600.14,-2537.6 598.58,-2510.58 597.24,-2487.32"/>
<polygon fill="none" stroke="#404040" points="597.23,-2487.16 592.9,-2481.4 596.54,-2475.18 600.88,-2480.94 597.23,-2487.16"/>
<text text-anchor="middle" x="614" y="-2535" font-family="Helvetica,sans-Serif" font-size="10.00"> +data</text>
</g>
<!-- Node14 -->
<g id="node14" class="node">
<title>Node14</title>
<g id="a_node14"><a xlink:href="structgsd__header.html" target="_top" xlink:title=" ">
<polygon fill="none" stroke="black" points="657,-2346.5 657,-2513.5 785,-2513.5 785,-2346.5 657,-2346.5"/>
<text text-anchor="middle" x="721" y="-2501.5" font-family="Helvetica,sans-Serif" font-size="10.00">gsd_header</text>
<polyline fill="none" stroke="black" points="657,-2494.5 785,-2494.5 "/>
<text text-anchor="start" x="665" y="-2482.5" font-family="Helvetica,sans-Serif" font-size="10.00">+ magic</text>
<text text-anchor="start" x="665" y="-2471.5" font-family="Helvetica,sans-Serif" font-size="10.00">+ index_location</text>
<text text-anchor="start" x="665" y="-2460.5" font-family="Helvetica,sans-Serif" font-size="10.00">+ index_allocated_entries</text>
<text text-anchor="start" x="665" y="-2449.5" font-family="Helvetica,sans-Serif" font-size="10.00">+ namelist_location</text>
<text text-anchor="start" x="665" y="-2438.5" font-family="Helvetica,sans-Serif" font-size="10.00">+ namelist_allocated</text>
<text text-anchor="start" x="665" y="-2427.5" font-family="Helvetica,sans-Serif" font-size="10.00">_entries</text>
<text text-anchor="start" x="665" y="-2416.5" font-family="Helvetica,sans-Serif" font-size="10.00">+ schema_version</text>
<text text-anchor="start" x="665" y="-2405.5" font-family="Helvetica,sans-Serif" font-size="10.00">+ gsd_version</text>
<text text-anchor="start" x="665" y="-2394.5" font-family="Helvetica,sans-Serif" font-size="10.00">+ application</text>
<text text-anchor="start" x="665" y="-2383.5" font-family="Helvetica,sans-Serif" font-size="10.00">+ schema</text>
<text text-anchor="start" x="665" y="-2372.5" font-family="Helvetica,sans-Serif" font-size="10.00">+ reserved</text>
<polyline fill="none" stroke="black" points="657,-2365.5 785,-2365.5 "/>
<text text-anchor="middle" x="721" y="-2353.5" font-family="Helvetica,sans-Serif" font-size="10.00"> </text>
</a>
</g>
</g>
<!-- Node14&#45;&gt;Node11 -->
<g id="edge16" class="edge">
<title>Node14&#45;&gt;Node11</title>
<path fill="none" stroke="#404040" d="M658.7,-2346.25C638.84,-2325.83 615.14,-2306.53 589,-2295 526.76,-2267.55 501.09,-2299.82 437,-2277 429.25,-2274.24 421.48,-2270.5 414.07,-2266.35"/>
<polygon fill="none" stroke="#404040" points="413.84,-2266.21 406.63,-2266.56 403.54,-2260.04 410.74,-2259.69 413.84,-2266.21"/>
<text text-anchor="middle" x="655.5" y="-2309" font-family="Helvetica,sans-Serif" font-size="10.00"> +header</text>
</g>
<!-- Node15 -->
<g id="node15" class="node">
<title>Node15</title>
<g id="a_node15"><a xlink:href="structgsd__name__buffer.html" target="_top" xlink:title=" ">
<polygon fill="none" stroke="black" points="227.5,-2401.5 227.5,-2458.5 318.5,-2458.5 318.5,-2401.5 227.5,-2401.5"/>
<text text-anchor="middle" x="273" y="-2446.5" font-family="Helvetica,sans-Serif" font-size="10.00">gsd_name_buffer</text>
<polyline fill="none" stroke="black" points="227.5,-2439.5 318.5,-2439.5 "/>
<text text-anchor="start" x="235.5" y="-2427.5" font-family="Helvetica,sans-Serif" font-size="10.00">+ n_names</text>
<polyline fill="none" stroke="black" points="227.5,-2420.5 318.5,-2420.5 "/>
<text text-anchor="middle" x="273" y="-2408.5" font-family="Helvetica,sans-Serif" font-size="10.00"> </text>
</a>
</g>
</g>
<!-- Node15&#45;&gt;Node11 -->
<g id="edge17" class="edge">
<title>Node15&#45;&gt;Node11</title>
<path fill="none" stroke="#404040" d="M266.38,-2401.49C261.06,-2373.02 257.11,-2328.18 275,-2295 284.79,-2276.84 302.43,-2262.96 319.66,-2252.94"/>
<polygon fill="none" stroke="#404040" points="319.71,-2252.91 323.09,-2246.54 330.27,-2247.2 326.9,-2253.57 319.71,-2252.91"/>
<text text-anchor="middle" x="308" y="-2314.5" font-family="Helvetica,sans-Serif" font-size="10.00"> +file_names</text>
<text text-anchor="middle" x="308" y="-2303.5" font-family="Helvetica,sans-Serif" font-size="10.00">+frame_names</text>
</g>
<!-- Node16 -->
<g id="node16" class="node">
<title>Node16</title>
<g id="a_node16"><a xlink:href="structgsd__byte__buffer.html" target="_top" xlink:title=" ">
<polygon fill="none" stroke="black" points="269,-2583.5 269,-2662.5 355,-2662.5 355,-2583.5 269,-2583.5"/>
<text text-anchor="middle" x="312" y="-2650.5" font-family="Helvetica,sans-Serif" font-size="10.00">gsd_byte_buffer</text>
<polyline fill="none" stroke="black" points="269,-2643.5 355,-2643.5 "/>
<text text-anchor="start" x="277" y="-2631.5" font-family="Helvetica,sans-Serif" font-size="10.00">+ data</text>
<text text-anchor="start" x="277" y="-2620.5" font-family="Helvetica,sans-Serif" font-size="10.00">+ size</text>
<text text-anchor="start" x="277" y="-2609.5" font-family="Helvetica,sans-Serif" font-size="10.00">+ reserved</text>
<polyline fill="none" stroke="black" points="269,-2602.5 355,-2602.5 "/>
<text text-anchor="middle" x="312" y="-2590.5" font-family="Helvetica,sans-Serif" font-size="10.00"> </text>
</a>
</g>
</g>
<!-- Node16&#45;&gt;Node11 -->
<g id="edge19" class="edge">
<title>Node16&#45;&gt;Node11</title>
<path fill="none" stroke="#404040" d="M319.18,-2583.48C321.48,-2570.63 323.96,-2556.21 326,-2543 339.69,-2454.39 352.76,-2351.11 360.32,-2288.82"/>
<polygon fill="none" stroke="#404040" points="360.36,-2288.46 357.11,-2282.03 361.8,-2276.55 365.06,-2282.99 360.36,-2288.46"/>
<text text-anchor="middle" x="382" y="-2427.5" font-family="Helvetica,sans-Serif" font-size="10.00"> +write_buffer</text>
</g>
<!-- Node16&#45;&gt;Node15 -->
<g id="edge18" class="edge">
<title>Node16&#45;&gt;Node15</title>
<path fill="none" stroke="#404040" d="M304.11,-2583.35C297.42,-2550.58 287.86,-2503.78 281.11,-2470.71"/>
<polygon fill="none" stroke="#404040" points="281.07,-2470.53 275.95,-2465.45 278.67,-2458.77 283.79,-2463.85 281.07,-2470.53"/>
<text text-anchor="middle" x="308" y="-2535" font-family="Helvetica,sans-Serif" font-size="10.00"> +data</text>
</g>
<!-- Node17 -->
<g id="node17" class="node">
<title>Node17</title>
<g id="a_node17"><a xlink:href="structgsd__name__id__map.html" target="_top" xlink:title=" ">
<polygon fill="none" stroke="black" points="433,-2401.5 433,-2458.5 531,-2458.5 531,-2401.5 433,-2401.5"/>
<text text-anchor="middle" x="482" y="-2446.5" font-family="Helvetica,sans-Serif" font-size="10.00">gsd_name_id_map</text>
<polyline fill="none" stroke="black" points="433,-2439.5 531,-2439.5 "/>
<text text-anchor="start" x="441" y="-2427.5" font-family="Helvetica,sans-Serif" font-size="10.00">+ size</text>
<polyline fill="none" stroke="black" points="433,-2420.5 531,-2420.5 "/>
<text text-anchor="middle" x="482" y="-2408.5" font-family="Helvetica,sans-Serif" font-size="10.00"> </text>
</a>
</g>
</g>
<!-- Node17&#45;&gt;Node11 -->
<g id="edge20" class="edge">
<title>Node17&#45;&gt;Node11</title>
<path fill="none" stroke="#404040" d="M465.77,-2401.26C448.52,-2371.8 420.82,-2324.45 399.13,-2287.4"/>
<polygon fill="none" stroke="#404040" points="398.96,-2287.11 392.48,-2283.95 392.9,-2276.75 399.38,-2279.91 398.96,-2287.11"/>
<text text-anchor="middle" x="450" y="-2309" font-family="Helvetica,sans-Serif" font-size="10.00"> +name_map</text>
</g>
<!-- Node18 -->
<g id="node18" class="node">
<title>Node18</title>
<g id="a_node18"><a xlink:href="structgsd__name__id__pair.html" target="_top" xlink:title=" ">
<polygon fill="none" stroke="black" points="401.5,-2589 401.5,-2657 496.5,-2657 496.5,-2589 401.5,-2589"/>
<text text-anchor="middle" x="449" y="-2645" font-family="Helvetica,sans-Serif" font-size="10.00">gsd_name_id_pair</text>
<polyline fill="none" stroke="black" points="401.5,-2638 496.5,-2638 "/>
<text text-anchor="start" x="409.5" y="-2626" font-family="Helvetica,sans-Serif" font-size="10.00">+ name</text>
<text text-anchor="start" x="409.5" y="-2615" font-family="Helvetica,sans-Serif" font-size="10.00">+ id</text>
<polyline fill="none" stroke="black" points="401.5,-2608 496.5,-2608 "/>
<text text-anchor="middle" x="449" y="-2596" font-family="Helvetica,sans-Serif" font-size="10.00"> </text>
</a>
</g>
</g>
<!-- Node18&#45;&gt;Node17 -->
<g id="edge21" class="edge">
<title>Node18&#45;&gt;Node17</title>
<path fill="none" stroke="#404040" d="M454.75,-2588.73C460.42,-2555.89 469.1,-2505.66 475.13,-2470.74"/>
<polygon fill="none" stroke="#404040" points="475.18,-2470.45 472.26,-2463.86 477.23,-2458.63 480.15,-2465.22 475.18,-2470.45"/>
<text text-anchor="middle" x="471.5" y="-2535" font-family="Helvetica,sans-Serif" font-size="10.00"> +v</text>
</g>
<!-- Node18&#45;&gt;Node18 -->
<g id="edge22" class="edge">
<title>Node18&#45;&gt;Node18</title>
<path fill="none" stroke="#404040" d="M496.69,-2638.28C507.01,-2636.79 514.5,-2631.7 514.5,-2623 514.5,-2618.11 512.13,-2614.36 508.22,-2611.74"/>
<polygon fill="none" stroke="#404040" points="508.02,-2611.67 501.03,-2613.47 496.69,-2607.72 503.67,-2605.92 508.02,-2611.67"/>
<text text-anchor="middle" x="528.5" y="-2620.5" font-family="Helvetica,sans-Serif" font-size="10.00"> +next</text>
</g>
</g>
</svg>
