<?xml version="1.0" encoding="UTF-8" standalone="no"?>
<!DOCTYPE svg PUBLIC "-//W3C//DTD SVG 1.1//EN"
 "http://www.w3.org/Graphics/SVG/1.1/DTD/svg11.dtd">
<!-- Generated by graphviz version 2.43.0 (0)
 -->
<!-- Title: RungeKutta4::integrate Pages: 1 -->
<svg width="674pt" height="104pt"
 viewBox="0.00 0.00 674.00 104.00" xmlns="http://www.w3.org/2000/svg" xmlns:xlink="http://www.w3.org/1999/xlink">
<g id="graph0" class="graph" transform="scale(1 1) rotate(0) translate(4 100)">
<title>RungeKutta4::integrate</title>
<!-- Node1 -->
<g id="node1" class="node">
<title>Node1</title>
<g id="a_node1"><a xlink:title="Public function to call internal numerical Runge Kutta integration functions.">
<polygon fill="#bfbfbf" stroke="black" points="0,-38.5 0,-57.5 117,-57.5 117,-38.5 0,-38.5"/>
<text text-anchor="middle" x="58.5" y="-45.5" font-family="Helvetica,sans-Serif" font-size="10.00">RungeKutta4::integrate</text>
</a>
</g>
</g>
<!-- Node2 -->
<g id="node2" class="node">
<title>Node2</title>
<g id="a_node2"><a xlink:href="classRungeKutta4.html#a62b7028de266e35a88e1cd4f8e588fd5" target="_top" xlink:title="2nd order Runge&#45;Kutta 4th order integration. Integrates known acceleration body components into veloc...">
<polygon fill="none" stroke="black" points="153,-33 153,-63 303,-63 303,-33 153,-33"/>
<text text-anchor="start" x="161" y="-51" font-family="Helvetica,sans-Serif" font-size="10.00">RungeKutta4::integrateSecond</text>
<text text-anchor="middle" x="228" y="-40" font-family="Helvetica,sans-Serif" font-size="10.00">Order</text>
</a>
</g>
</g>
<!-- Node1&#45;&gt;Node2 -->
<g id="edge1" class="edge">
<title>Node1&#45;&gt;Node2</title>
<path fill="none" stroke="midnightblue" d="M117.14,-48C125.44,-48 134.12,-48 142.8,-48"/>
<polygon fill="midnightblue" stroke="midnightblue" points="142.98,-51.5 152.98,-48 142.98,-44.5 142.98,-51.5"/>
</g>
<!-- Node3 -->
<g id="node3" class="node">
<title>Node3</title>
<g id="a_node3"><a xlink:href="classRungeKutta4.html#aaa9be7a023f272032338d223d900c4c5" target="_top" xlink:title="Helper function for integrateSecondOrder().">
<polygon fill="none" stroke="black" points="339,-33 339,-63 471,-63 471,-33 339,-33"/>
<text text-anchor="start" x="347" y="-51" font-family="Helvetica,sans-Serif" font-size="10.00">RungeKutta4::acceleration</text>
<text text-anchor="middle" x="405" y="-40" font-family="Helvetica,sans-Serif" font-size="10.00">Update</text>
</a>
</g>
</g>
<!-- Node2&#45;&gt;Node3 -->
<g id="edge2" class="edge">
<title>Node2&#45;&gt;Node3</title>
<path fill="none" stroke="midnightblue" d="M303.22,-48C311.63,-48 320.21,-48 328.63,-48"/>
<polygon fill="midnightblue" stroke="midnightblue" points="328.81,-51.5 338.81,-48 328.81,-44.5 328.81,-51.5"/>
</g>
<!-- Node4 -->
<g id="node4" class="node">
<title>Node4</title>
<g id="a_node4"><a xlink:href="classRungeKutta4.html#a946b31500f95a6cf64ac2a758e88db73" target="_top" xlink:title="Replaces 2nd 1/2 of body acceleration D.o.F. with image of 1st 1/2 assuming the reflection plane is .">
<polygon fill="none" stroke="black" points="513.5,-76.5 513.5,-95.5 659.5,-95.5 659.5,-76.5 513.5,-76.5"/>
<text text-anchor="middle" x="586.5" y="-83.5" font-family="Helvetica,sans-Serif" font-size="10.00">RungeKutta4::imageBodyAcc</text>
</a>
</g>
</g>
<!-- Node3&#45;&gt;Node4 -->
<g id="edge3" class="edge">
<title>Node3&#45;&gt;Node4</title>
<path fill="none" stroke="midnightblue" d="M471.06,-61.77C490.62,-65.91 511.88,-70.41 530.7,-74.4"/>
<polygon fill="midnightblue" stroke="midnightblue" points="530.08,-77.85 540.59,-76.49 531.53,-71 530.08,-77.85"/>
</g>
<!-- Node5 -->
<g id="node5" class="node">
<title>Node5</title>
<g id="a_node5"><a xlink:href="classRungeKutta4.html#abc1cc48fea62c46948a51ca2b2000590" target="_top" xlink:title="Replaces 2nd 1/2 of body position and velocity D.o.F. with image of 1st 1/2 assuming the reflection p...">
<polygon fill="none" stroke="black" points="507,-38.5 507,-57.5 666,-57.5 666,-38.5 507,-38.5"/>
<text text-anchor="middle" x="586.5" y="-45.5" font-family="Helvetica,sans-Serif" font-size="10.00">RungeKutta4::imageBodyPosVel</text>
</a>
</g>
</g>
<!-- Node3&#45;&gt;Node5 -->
<g id="edge4" class="edge">
<title>Node3&#45;&gt;Node5</title>
<path fill="none" stroke="midnightblue" d="M471.06,-48C479.42,-48 488.1,-48 496.76,-48"/>
<polygon fill="midnightblue" stroke="midnightblue" points="496.91,-51.5 506.91,-48 496.91,-44.5 496.91,-51.5"/>
</g>
<!-- Node6 -->
<g id="node6" class="node">
<title>Node6</title>
<g id="a_node6"><a xlink:href="classRungeKutta4.html#ac5d72c5cd59bfcb3a42ab2fbdf92ca0e" target="_top" xlink:title="Calculates the body acceleration components given the constraints established by the Udwadia linear s...">
<polygon fill="none" stroke="black" points="513.5,-0.5 513.5,-19.5 659.5,-19.5 659.5,-0.5 513.5,-0.5"/>
<text text-anchor="middle" x="586.5" y="-7.5" font-family="Helvetica,sans-Serif" font-size="10.00">RungeKutta4::udwadiaKalaba</text>
</a>
</g>
</g>
<!-- Node3&#45;&gt;Node6 -->
<g id="edge5" class="edge">
<title>Node3&#45;&gt;Node6</title>
<path fill="none" stroke="midnightblue" d="M471.06,-34.23C490.62,-30.09 511.88,-25.59 530.7,-21.6"/>
<polygon fill="midnightblue" stroke="midnightblue" points="531.53,-25 540.59,-19.51 530.08,-18.15 531.53,-25"/>
</g>
</g>
</svg>
