<?xml version="1.0" encoding="UTF-8" standalone="no"?>
<!DOCTYPE svg PUBLIC "-//W3C//DTD SVG 1.1//EN"
 "http://www.w3.org/Graphics/SVG/1.1/DTD/svg11.dtd">
<!-- Generated by graphviz version 2.43.0 (0)
 -->
<!-- Title: potentialHydrodynamics Pages: 1 -->
<svg width="576pt" height="2637pt"
 viewBox="0.00 0.00 575.50 2637.00" xmlns="http://www.w3.org/2000/svg" xmlns:xlink="http://www.w3.org/1999/xlink">
<g id="graph0" class="graph" transform="scale(1 1) rotate(0) translate(4 2633)">
<title>potentialHydrodynamics</title>
<!-- Node1 -->
<g id="node1" class="node">
<title>Node1</title>
<g id="a_node1"><a xlink:title="Computes hydrodynamic tensors (mass, forces) on a finite number of spheres in potential flow.">
<polygon fill="#bfbfbf" stroke="black" points="53,-1794.5 53,-2280.5 196,-2280.5 196,-1794.5 53,-1794.5"/>
<text text-anchor="middle" x="124.5" y="-2268.5" font-family="Helvetica,sans-Serif" font-size="10.00">potentialHydrodynamics</text>
<polyline fill="none" stroke="black" points="53,-2261.5 196,-2261.5 "/>
<text text-anchor="start" x="61" y="-2249.5" font-family="Helvetica,sans-Serif" font-size="10.00">&#45; m_num_pair_inter</text>
<text text-anchor="start" x="61" y="-2238.5" font-family="Helvetica,sans-Serif" font-size="10.00">&#45; m_3N</text>
<text text-anchor="start" x="61" y="-2227.5" font-family="Helvetica,sans-Serif" font-size="10.00">&#45; m_7M</text>
<text text-anchor="start" x="61" y="-2216.5" font-family="Helvetica,sans-Serif" font-size="10.00">&#45; m_alphaVec</text>
<text text-anchor="start" x="61" y="-2205.5" font-family="Helvetica,sans-Serif" font-size="10.00">&#45; m_betaVec</text>
<text text-anchor="start" x="61" y="-2194.5" font-family="Helvetica,sans-Serif" font-size="10.00">&#45; m_r_mag_ab</text>
<text text-anchor="start" x="61" y="-2183.5" font-family="Helvetica,sans-Serif" font-size="10.00">&#45; m_r_ab</text>
<text text-anchor="start" x="61" y="-2172.5" font-family="Helvetica,sans-Serif" font-size="10.00">&#45; m_I3N</text>
<text text-anchor="start" x="61" y="-2161.5" font-family="Helvetica,sans-Serif" font-size="10.00">&#45; m_c1_2_I3N</text>
<text text-anchor="start" x="61" y="-2150.5" font-family="Helvetica,sans-Serif" font-size="10.00">&#45; m_M_added</text>
<text text-anchor="start" x="61" y="-2139.5" font-family="Helvetica,sans-Serif" font-size="10.00">&#45; m_M_intrinsic</text>
<text text-anchor="start" x="61" y="-2128.5" font-family="Helvetica,sans-Serif" font-size="10.00">&#45; m_M_total</text>
<text text-anchor="start" x="61" y="-2117.5" font-family="Helvetica,sans-Serif" font-size="10.00">&#45; m_tens_M_total</text>
<text text-anchor="start" x="61" y="-2106.5" font-family="Helvetica,sans-Serif" font-size="10.00">&#45; m_grad_M_added</text>
<text text-anchor="start" x="61" y="-2095.5" font-family="Helvetica,sans-Serif" font-size="10.00">&#45; m_grad_M_added_body</text>
<text text-anchor="start" x="61" y="-2084.5" font-family="Helvetica,sans-Serif" font-size="10.00">_coords</text>
<text text-anchor="start" x="61" y="-2073.5" font-family="Helvetica,sans-Serif" font-size="10.00">&#45; m_F_hydro</text>
<text text-anchor="start" x="61" y="-2062.5" font-family="Helvetica,sans-Serif" font-size="10.00">&#45; m_F_hydroNoInertia</text>
<text text-anchor="start" x="61" y="-2051.5" font-family="Helvetica,sans-Serif" font-size="10.00">&#45; m_N1</text>
<text text-anchor="start" x="61" y="-2040.5" font-family="Helvetica,sans-Serif" font-size="10.00">&#45; m_N2</text>
<text text-anchor="start" x="61" y="-2029.5" font-family="Helvetica,sans-Serif" font-size="10.00">&#45; m_N3</text>
<text text-anchor="start" x="61" y="-2018.5" font-family="Helvetica,sans-Serif" font-size="10.00">&#45; m_M_tilde_tilde</text>
<text text-anchor="start" x="61" y="-2007.5" font-family="Helvetica,sans-Serif" font-size="10.00">&#45; m_M_tilde</text>
<text text-anchor="start" x="61" y="-1996.5" font-family="Helvetica,sans-Serif" font-size="10.00">&#45; m_mat_M_tilde</text>
<text text-anchor="start" x="61" y="-1985.5" font-family="Helvetica,sans-Serif" font-size="10.00">&#45; m_unitSphereVol</text>
<text text-anchor="start" x="61" y="-1974.5" font-family="Helvetica,sans-Serif" font-size="10.00">&#45; m_c1_2</text>
<text text-anchor="start" x="61" y="-1963.5" font-family="Helvetica,sans-Serif" font-size="10.00">&#45; m_c3_2</text>
<text text-anchor="start" x="61" y="-1952.5" font-family="Helvetica,sans-Serif" font-size="10.00">&#45; m_c15_2</text>
<polyline fill="none" stroke="black" points="53,-1945.5 196,-1945.5 "/>
<text text-anchor="start" x="61" y="-1933.5" font-family="Helvetica,sans-Serif" font-size="10.00">+ potentialHydrodynamics()</text>
<text text-anchor="start" x="61" y="-1922.5" font-family="Helvetica,sans-Serif" font-size="10.00">+ ~potentialHydrodynamics()</text>
<text text-anchor="start" x="61" y="-1911.5" font-family="Helvetica,sans-Serif" font-size="10.00">+ update()</text>
<text text-anchor="start" x="61" y="-1900.5" font-family="Helvetica,sans-Serif" font-size="10.00">+ fHydro()</text>
<text text-anchor="start" x="61" y="-1889.5" font-family="Helvetica,sans-Serif" font-size="10.00">+ fHydroNoInertia()</text>
<text text-anchor="start" x="61" y="-1878.5" font-family="Helvetica,sans-Serif" font-size="10.00">+ mTotal()</text>
<text text-anchor="start" x="61" y="-1867.5" font-family="Helvetica,sans-Serif" font-size="10.00">+ mTilde()</text>
<text text-anchor="start" x="61" y="-1856.5" font-family="Helvetica,sans-Serif" font-size="10.00">&#45; calcParticleDistances()</text>
<text text-anchor="start" x="61" y="-1845.5" font-family="Helvetica,sans-Serif" font-size="10.00">&#45; calcAddedMass()</text>
<text text-anchor="start" x="61" y="-1834.5" font-family="Helvetica,sans-Serif" font-size="10.00">&#45; calcTotalMass()</text>
<text text-anchor="start" x="61" y="-1823.5" font-family="Helvetica,sans-Serif" font-size="10.00">&#45; calcAddedMassGrad()</text>
<text text-anchor="start" x="61" y="-1812.5" font-family="Helvetica,sans-Serif" font-size="10.00">&#45; calcBodyTensors()</text>
<text text-anchor="start" x="61" y="-1801.5" font-family="Helvetica,sans-Serif" font-size="10.00">&#45; calcHydroForces()</text>
</a>
</g>
</g>
<!-- Node2 -->
<g id="node2" class="node">
<title>Node2</title>
<g id="a_node2"><a xlink:title=" ">
<polygon fill="none" stroke="#bfbfbf" points="212,-2345 212,-2402 365,-2402 365,-2345 212,-2345"/>
<text text-anchor="middle" x="288.5" y="-2390" font-family="Helvetica,sans-Serif" font-size="10.00">std::shared_ptr&lt; systemData &gt;</text>
<polyline fill="none" stroke="#bfbfbf" points="212,-2383 365,-2383 "/>
<text text-anchor="middle" x="288.5" y="-2371" font-family="Helvetica,sans-Serif" font-size="10.00"> </text>
<polyline fill="none" stroke="#bfbfbf" points="212,-2364 365,-2364 "/>
<text text-anchor="start" x="220" y="-2352" font-family="Helvetica,sans-Serif" font-size="10.00">+ operator&#45;&gt;()</text>
</a>
</g>
</g>
<!-- Node2&#45;&gt;Node1 -->
<g id="edge1" class="edge">
<title>Node2&#45;&gt;Node1</title>
<path fill="none" stroke="#404040" d="M211.81,-2366.31C181.53,-2359.7 149.5,-2346.6 130.5,-2321 123.74,-2311.89 118.15,-2302.11 113.57,-2291.88"/>
<polygon fill="none" stroke="#404040" points="113.51,-2291.71 107.55,-2287.66 109,-2280.59 114.96,-2284.65 113.51,-2291.71"/>
<text text-anchor="middle" x="156.5" y="-2307.5" font-family="Helvetica,sans-Serif" font-size="10.00"> &#45;m_system</text>
</g>
<!-- Node6 -->
<g id="node6" class="node">
<title>Node6</title>
<g id="a_node6"><a xlink:href="classGSDUtil.html" target="_top" xlink:title="Wrapper class for gsd.h to load data from input GSD file into systemData class.">
<polygon fill="none" stroke="black" points="257.5,-1932 257.5,-2143 379.5,-2143 379.5,-1932 257.5,-1932"/>
<text text-anchor="middle" x="318.5" y="-2131" font-family="Helvetica,sans-Serif" font-size="10.00">GSDUtil</text>
<polyline fill="none" stroke="black" points="257.5,-2124 379.5,-2124 "/>
<text text-anchor="start" x="265.5" y="-2112" font-family="Helvetica,sans-Serif" font-size="10.00">&#45; m_frame</text>
<polyline fill="none" stroke="black" points="257.5,-2105 379.5,-2105 "/>
<text text-anchor="start" x="265.5" y="-2093" font-family="Helvetica,sans-Serif" font-size="10.00">+ GSDUtil()</text>
<text text-anchor="start" x="265.5" y="-2082" font-family="Helvetica,sans-Serif" font-size="10.00">+ GSDUtil()</text>
<text text-anchor="start" x="265.5" y="-2071" font-family="Helvetica,sans-Serif" font-size="10.00">+ ~GSDUtil()</text>
<text text-anchor="start" x="265.5" y="-2060" font-family="Helvetica,sans-Serif" font-size="10.00">+ truncateGSD()</text>
<text text-anchor="start" x="265.5" y="-2049" font-family="Helvetica,sans-Serif" font-size="10.00">+ writeFrame()</text>
<text text-anchor="start" x="265.5" y="-2038" font-family="Helvetica,sans-Serif" font-size="10.00">+ frame()</text>
<text text-anchor="start" x="265.5" y="-2027" font-family="Helvetica,sans-Serif" font-size="10.00">&#45; checkGSDReturn()</text>
<text text-anchor="start" x="265.5" y="-2016" font-family="Helvetica,sans-Serif" font-size="10.00">&#45; readChunk()</text>
<text text-anchor="start" x="265.5" y="-2005" font-family="Helvetica,sans-Serif" font-size="10.00">&#45; readHeader()</text>
<text text-anchor="start" x="265.5" y="-1994" font-family="Helvetica,sans-Serif" font-size="10.00">&#45; readParameters()</text>
<text text-anchor="start" x="265.5" y="-1983" font-family="Helvetica,sans-Serif" font-size="10.00">&#45; readParticles()</text>
<text text-anchor="start" x="265.5" y="-1972" font-family="Helvetica,sans-Serif" font-size="10.00">&#45; readSystemSpecifics()</text>
<text text-anchor="start" x="265.5" y="-1961" font-family="Helvetica,sans-Serif" font-size="10.00">&#45; writeHeader()</text>
<text text-anchor="start" x="265.5" y="-1950" font-family="Helvetica,sans-Serif" font-size="10.00">&#45; writeParameters()</text>
<text text-anchor="start" x="265.5" y="-1939" font-family="Helvetica,sans-Serif" font-size="10.00">&#45; writeParticles()</text>
</a>
</g>
</g>
<!-- Node2&#45;&gt;Node6 -->
<g id="edge6" class="edge">
<title>Node2&#45;&gt;Node6</title>
<path fill="none" stroke="#404040" d="M290.98,-2344.88C294.69,-2303.6 301.9,-2223.37 308,-2155.36"/>
<polygon fill="none" stroke="#404040" points="308.02,-2155.21 304.57,-2148.87 309.09,-2143.26 312.54,-2149.59 308.02,-2155.21"/>
<text text-anchor="middle" x="321.5" y="-2307.5" font-family="Helvetica,sans-Serif" font-size="10.00"> &#45;m_system</text>
</g>
<!-- Node3 -->
<g id="node3" class="node">
<title>Node3</title>
<g id="a_node3"><a xlink:href="classsystemData.html" target="_top" xlink:title="Class contains all data structures relevant to the simulation framework. Note that after construction...">
<polygon fill="none" stroke="black" points="141.5,-0.5 141.5,-1597.5 317.5,-1597.5 317.5,-0.5 141.5,-0.5"/>
<text text-anchor="middle" x="229.5" y="-1585.5" font-family="Helvetica,sans-Serif" font-size="10.00">systemData</text>
<polyline fill="none" stroke="black" points="141.5,-1578.5 317.5,-1578.5 "/>
<text text-anchor="start" x="149.5" y="-1566.5" font-family="Helvetica,sans-Serif" font-size="10.00">&#45; m_return_val</text>
<text text-anchor="start" x="149.5" y="-1555.5" font-family="Helvetica,sans-Serif" font-size="10.00">&#45; m_return_bool</text>
<text text-anchor="start" x="149.5" y="-1544.5" font-family="Helvetica,sans-Serif" font-size="10.00">&#45; m_GSD_parsed</text>
<text text-anchor="start" x="149.5" y="-1533.5" font-family="Helvetica,sans-Serif" font-size="10.00">&#45; m_sys_spec_U0</text>
<text text-anchor="start" x="149.5" y="-1522.5" font-family="Helvetica,sans-Serif" font-size="10.00">&#45; m_sys_spec_omega</text>
<text text-anchor="start" x="149.5" y="-1511.5" font-family="Helvetica,sans-Serif" font-size="10.00">&#45; m_sys_spec_phase_shift</text>
<text text-anchor="start" x="149.5" y="-1500.5" font-family="Helvetica,sans-Serif" font-size="10.00">&#45; m_sys_spec_R_avg</text>
<text text-anchor="start" x="149.5" y="-1489.5" font-family="Helvetica,sans-Serif" font-size="10.00">&#45; m_particle_type_id</text>
<text text-anchor="start" x="149.5" y="-1478.5" font-family="Helvetica,sans-Serif" font-size="10.00">&#45; m_particle_group_id</text>
<text text-anchor="start" x="149.5" y="-1467.5" font-family="Helvetica,sans-Serif" font-size="10.00">&#45; m_fluid_density</text>
<text text-anchor="start" x="149.5" y="-1456.5" font-family="Helvetica,sans-Serif" font-size="10.00">&#45; m_particle_density</text>
<text text-anchor="start" x="149.5" y="-1445.5" font-family="Helvetica,sans-Serif" font-size="10.00">&#45; m_wca_epsilon</text>
<text text-anchor="start" x="149.5" y="-1434.5" font-family="Helvetica,sans-Serif" font-size="10.00">&#45; m_wca_sigma</text>
<text text-anchor="start" x="149.5" y="-1423.5" font-family="Helvetica,sans-Serif" font-size="10.00">&#45; m_num_spatial_dim</text>
<text text-anchor="start" x="149.5" y="-1412.5" font-family="Helvetica,sans-Serif" font-size="10.00">&#45; m_num_particles</text>
<text text-anchor="start" x="149.5" y="-1401.5" font-family="Helvetica,sans-Serif" font-size="10.00">&#45; m_num_bodies</text>
<text text-anchor="start" x="149.5" y="-1390.5" font-family="Helvetica,sans-Serif" font-size="10.00">&#45; m_num_DoF</text>
<text text-anchor="start" x="149.5" y="-1379.5" font-family="Helvetica,sans-Serif" font-size="10.00">&#45; m_num_constraints</text>
<text text-anchor="start" x="149.5" y="-1368.5" font-family="Helvetica,sans-Serif" font-size="10.00">&#45; m_dt</text>
<text text-anchor="start" x="149.5" y="-1357.5" font-family="Helvetica,sans-Serif" font-size="10.00">&#45; m_tf</text>
<text text-anchor="start" x="149.5" y="-1346.5" font-family="Helvetica,sans-Serif" font-size="10.00">&#45; m_t0</text>
<text text-anchor="start" x="149.5" y="-1335.5" font-family="Helvetica,sans-Serif" font-size="10.00">&#45; m_t</text>
<text text-anchor="start" x="149.5" y="-1324.5" font-family="Helvetica,sans-Serif" font-size="10.00">&#45; m_tau</text>
<text text-anchor="start" x="149.5" y="-1313.5" font-family="Helvetica,sans-Serif" font-size="10.00">&#45; m_timestep</text>
<text text-anchor="start" x="149.5" y="-1302.5" font-family="Helvetica,sans-Serif" font-size="10.00">&#45; m_num_steps_output</text>
<text text-anchor="start" x="149.5" y="-1291.5" font-family="Helvetica,sans-Serif" font-size="10.00">&#45; m_I3</text>
<text text-anchor="start" x="149.5" y="-1280.5" font-family="Helvetica,sans-Serif" font-size="10.00">&#45; m_tens_I3</text>
<text text-anchor="start" x="149.5" y="-1269.5" font-family="Helvetica,sans-Serif" font-size="10.00">&#45; m_levi_cevita</text>
<text text-anchor="start" x="149.5" y="-1258.5" font-family="Helvetica,sans-Serif" font-size="10.00">&#45; m_kappa_tilde</text>
<text text-anchor="start" x="149.5" y="-1247.5" font-family="Helvetica,sans-Serif" font-size="10.00">&#45; m_positions_bodies</text>
<text text-anchor="start" x="149.5" y="-1236.5" font-family="Helvetica,sans-Serif" font-size="10.00">&#45; m_velocities_bodies</text>
<text text-anchor="start" x="149.5" y="-1225.5" font-family="Helvetica,sans-Serif" font-size="10.00">&#45; m_accelerations_bodies</text>
<text text-anchor="start" x="149.5" y="-1214.5" font-family="Helvetica,sans-Serif" font-size="10.00">&#45; m_orientations_particles</text>
<text text-anchor="start" x="149.5" y="-1203.5" font-family="Helvetica,sans-Serif" font-size="10.00">&#45; m_quaternions_particles</text>
<text text-anchor="start" x="149.5" y="-1192.5" font-family="Helvetica,sans-Serif" font-size="10.00">&#45; m_positions_particles</text>
<text text-anchor="start" x="149.5" y="-1181.5" font-family="Helvetica,sans-Serif" font-size="10.00">&#45; m_velocities_particles</text>
<text text-anchor="start" x="149.5" y="-1170.5" font-family="Helvetica,sans-Serif" font-size="10.00">&#45; m_accelerations_particles</text>
<text text-anchor="start" x="149.5" y="-1159.5" font-family="Helvetica,sans-Serif" font-size="10.00">&#45; m_positions_particles</text>
<text text-anchor="start" x="149.5" y="-1148.5" font-family="Helvetica,sans-Serif" font-size="10.00">_articulation_init_norm</text>
<text text-anchor="start" x="149.5" y="-1137.5" font-family="Helvetica,sans-Serif" font-size="10.00">&#45; m_positions_particles</text>
<text text-anchor="start" x="149.5" y="-1126.5" font-family="Helvetica,sans-Serif" font-size="10.00">_articulation</text>
<text text-anchor="start" x="149.5" y="-1115.5" font-family="Helvetica,sans-Serif" font-size="10.00">&#45; m_velocities_particles</text>
<text text-anchor="start" x="149.5" y="-1104.5" font-family="Helvetica,sans-Serif" font-size="10.00">_articulation</text>
<text text-anchor="start" x="149.5" y="-1093.5" font-family="Helvetica,sans-Serif" font-size="10.00">&#45; m_accelerations_particles</text>
<text text-anchor="start" x="149.5" y="-1082.5" font-family="Helvetica,sans-Serif" font-size="10.00">_articulation</text>
<text text-anchor="start" x="149.5" y="-1071.5" font-family="Helvetica,sans-Serif" font-size="10.00">&#45; m_rbm_conn</text>
<text text-anchor="start" x="149.5" y="-1060.5" font-family="Helvetica,sans-Serif" font-size="10.00">&#45; m_psi_conv_quat_ang</text>
<text text-anchor="start" x="149.5" y="-1049.5" font-family="Helvetica,sans-Serif" font-size="10.00">&#45; m_rbm_conn_T_quat</text>
<text text-anchor="start" x="149.5" y="-1038.5" font-family="Helvetica,sans-Serif" font-size="10.00">&#45; m_tens_rbm_conn_T_quat</text>
<text text-anchor="start" x="149.5" y="-1027.5" font-family="Helvetica,sans-Serif" font-size="10.00">&#45; m_rbm_conn_T_quat_grad</text>
<text text-anchor="start" x="149.5" y="-1016.5" font-family="Helvetica,sans-Serif" font-size="10.00">&#45; m_conv_body_2_part_dof</text>
<text text-anchor="start" x="149.5" y="-1005.5" font-family="Helvetica,sans-Serif" font-size="10.00">&#45; m_tens_conv_body_2</text>
<text text-anchor="start" x="149.5" y="-994.5" font-family="Helvetica,sans-Serif" font-size="10.00">_part_dof</text>
<text text-anchor="start" x="149.5" y="-983.5" font-family="Helvetica,sans-Serif" font-size="10.00">&#45; m_Udwadia_A</text>
<text text-anchor="start" x="149.5" y="-972.5" font-family="Helvetica,sans-Serif" font-size="10.00">&#45; m_Udwadia_b</text>
<polyline fill="none" stroke="black" points="141.5,-965.5 317.5,-965.5 "/>
<text text-anchor="start" x="149.5" y="-953.5" font-family="Helvetica,sans-Serif" font-size="10.00">+ systemData()</text>
<text text-anchor="start" x="149.5" y="-942.5" font-family="Helvetica,sans-Serif" font-size="10.00">+ ~systemData()</text>
<text text-anchor="start" x="149.5" y="-931.5" font-family="Helvetica,sans-Serif" font-size="10.00">+ initializeData()</text>
<text text-anchor="start" x="149.5" y="-920.5" font-family="Helvetica,sans-Serif" font-size="10.00">+ update()</text>
<text text-anchor="start" x="149.5" y="-909.5" font-family="Helvetica,sans-Serif" font-size="10.00">+ inputGSDFile()</text>
<text text-anchor="start" x="149.5" y="-898.5" font-family="Helvetica,sans-Serif" font-size="10.00">+ outputDir()</text>
<text text-anchor="start" x="149.5" y="-887.5" font-family="Helvetica,sans-Serif" font-size="10.00">+ gsdUtil()</text>
<text text-anchor="start" x="149.5" y="-876.5" font-family="Helvetica,sans-Serif" font-size="10.00">+ handle()</text>
<text text-anchor="start" x="149.5" y="-865.5" font-family="Helvetica,sans-Serif" font-size="10.00">+ setReturnVal()</text>
<text text-anchor="start" x="149.5" y="-854.5" font-family="Helvetica,sans-Serif" font-size="10.00">+ returnVal()</text>
<text text-anchor="start" x="149.5" y="-843.5" font-family="Helvetica,sans-Serif" font-size="10.00">+ setReturnBool()</text>
<text text-anchor="start" x="149.5" y="-832.5" font-family="Helvetica,sans-Serif" font-size="10.00">+ returnBool()</text>
<text text-anchor="start" x="149.5" y="-821.5" font-family="Helvetica,sans-Serif" font-size="10.00">+ gSDParsed()</text>
<text text-anchor="start" x="149.5" y="-810.5" font-family="Helvetica,sans-Serif" font-size="10.00">+ sysSpecU0()</text>
<text text-anchor="start" x="149.5" y="-799.5" font-family="Helvetica,sans-Serif" font-size="10.00">+ setSysSpecU0()</text>
<text text-anchor="start" x="149.5" y="-788.5" font-family="Helvetica,sans-Serif" font-size="10.00">+ sysSpecOmega()</text>
<text text-anchor="start" x="149.5" y="-777.5" font-family="Helvetica,sans-Serif" font-size="10.00">+ setSysSpecOmega()</text>
<text text-anchor="start" x="149.5" y="-766.5" font-family="Helvetica,sans-Serif" font-size="10.00">+ sysSpecPhaseShift()</text>
<text text-anchor="start" x="149.5" y="-755.5" font-family="Helvetica,sans-Serif" font-size="10.00">+ setSysSpecPhaseShift()</text>
<text text-anchor="start" x="149.5" y="-744.5" font-family="Helvetica,sans-Serif" font-size="10.00">+ sysSpecRAvg()</text>
<text text-anchor="start" x="149.5" y="-733.5" font-family="Helvetica,sans-Serif" font-size="10.00">+ setSysSpecRAvg()</text>
<text text-anchor="start" x="149.5" y="-722.5" font-family="Helvetica,sans-Serif" font-size="10.00">+ particleTypeId()</text>
<text text-anchor="start" x="149.5" y="-711.5" font-family="Helvetica,sans-Serif" font-size="10.00">+ setParticleTypeId()</text>
<text text-anchor="start" x="149.5" y="-700.5" font-family="Helvetica,sans-Serif" font-size="10.00">+ fluidDensity()</text>
<text text-anchor="start" x="149.5" y="-689.5" font-family="Helvetica,sans-Serif" font-size="10.00">+ setFluidDensity()</text>
<text text-anchor="start" x="149.5" y="-678.5" font-family="Helvetica,sans-Serif" font-size="10.00">+ particleDensity()</text>
<text text-anchor="start" x="149.5" y="-667.5" font-family="Helvetica,sans-Serif" font-size="10.00">+ setParticleDensity()</text>
<text text-anchor="start" x="149.5" y="-656.5" font-family="Helvetica,sans-Serif" font-size="10.00">+ wcaEpsilon()</text>
<text text-anchor="start" x="149.5" y="-645.5" font-family="Helvetica,sans-Serif" font-size="10.00">+ setWcaEpsilon()</text>
<text text-anchor="start" x="149.5" y="-634.5" font-family="Helvetica,sans-Serif" font-size="10.00">+ wcaSigma()</text>
<text text-anchor="start" x="149.5" y="-623.5" font-family="Helvetica,sans-Serif" font-size="10.00">+ setWcaSigma()</text>
<text text-anchor="start" x="149.5" y="-612.5" font-family="Helvetica,sans-Serif" font-size="10.00">+ numSpatialDim()</text>
<text text-anchor="start" x="149.5" y="-601.5" font-family="Helvetica,sans-Serif" font-size="10.00">+ setNumSpatialDim()</text>
<text text-anchor="start" x="149.5" y="-590.5" font-family="Helvetica,sans-Serif" font-size="10.00">+ numParticles()</text>
<text text-anchor="start" x="149.5" y="-579.5" font-family="Helvetica,sans-Serif" font-size="10.00">+ setNumParticles()</text>
<text text-anchor="start" x="149.5" y="-568.5" font-family="Helvetica,sans-Serif" font-size="10.00">+ numBodies()</text>
<text text-anchor="start" x="149.5" y="-557.5" font-family="Helvetica,sans-Serif" font-size="10.00">+ setNumBodies()</text>
<text text-anchor="start" x="149.5" y="-546.5" font-family="Helvetica,sans-Serif" font-size="10.00">+ numDoF()</text>
<text text-anchor="start" x="149.5" y="-535.5" font-family="Helvetica,sans-Serif" font-size="10.00">+ tensI3()</text>
<text text-anchor="start" x="149.5" y="-524.5" font-family="Helvetica,sans-Serif" font-size="10.00">+ i3()</text>
<text text-anchor="start" x="149.5" y="-513.5" font-family="Helvetica,sans-Serif" font-size="10.00">+ dt()</text>
<text text-anchor="start" x="149.5" y="-502.5" font-family="Helvetica,sans-Serif" font-size="10.00">+ setDt()</text>
<text text-anchor="start" x="149.5" y="-491.5" font-family="Helvetica,sans-Serif" font-size="10.00">+ tf()</text>
<text text-anchor="start" x="149.5" y="-480.5" font-family="Helvetica,sans-Serif" font-size="10.00">+ setTf()</text>
<text text-anchor="start" x="149.5" y="-469.5" font-family="Helvetica,sans-Serif" font-size="10.00">+ t()</text>
<text text-anchor="start" x="149.5" y="-458.5" font-family="Helvetica,sans-Serif" font-size="10.00">+ setT()</text>
<text text-anchor="start" x="149.5" y="-447.5" font-family="Helvetica,sans-Serif" font-size="10.00">+ tau()</text>
<text text-anchor="start" x="149.5" y="-436.5" font-family="Helvetica,sans-Serif" font-size="10.00">+ setTau()</text>
<text text-anchor="start" x="149.5" y="-425.5" font-family="Helvetica,sans-Serif" font-size="10.00">+ timestep()</text>
<text text-anchor="start" x="149.5" y="-414.5" font-family="Helvetica,sans-Serif" font-size="10.00">+ setTimestep()</text>
<text text-anchor="start" x="149.5" y="-403.5" font-family="Helvetica,sans-Serif" font-size="10.00">+ numStepsOutput()</text>
<text text-anchor="start" x="149.5" y="-392.5" font-family="Helvetica,sans-Serif" font-size="10.00">+ setNumStepsOutput()</text>
<text text-anchor="start" x="149.5" y="-381.5" font-family="Helvetica,sans-Serif" font-size="10.00">+ positionsBodies()</text>
<text text-anchor="start" x="149.5" y="-370.5" font-family="Helvetica,sans-Serif" font-size="10.00">+ setPositionsBodies()</text>
<text text-anchor="start" x="149.5" y="-359.5" font-family="Helvetica,sans-Serif" font-size="10.00">+ velocitiesBodies()</text>
<text text-anchor="start" x="149.5" y="-348.5" font-family="Helvetica,sans-Serif" font-size="10.00">+ setVelocitiesBodies()</text>
<text text-anchor="start" x="149.5" y="-337.5" font-family="Helvetica,sans-Serif" font-size="10.00">+ accelerationsBodies()</text>
<text text-anchor="start" x="149.5" y="-326.5" font-family="Helvetica,sans-Serif" font-size="10.00">+ setAccelerationsBodies()</text>
<text text-anchor="start" x="149.5" y="-315.5" font-family="Helvetica,sans-Serif" font-size="10.00">+ orientationsParticles()</text>
<text text-anchor="start" x="149.5" y="-304.5" font-family="Helvetica,sans-Serif" font-size="10.00">+ setOrientationsParticles()</text>
<text text-anchor="start" x="149.5" y="-293.5" font-family="Helvetica,sans-Serif" font-size="10.00">+ positionsParticles()</text>
<text text-anchor="start" x="149.5" y="-282.5" font-family="Helvetica,sans-Serif" font-size="10.00">+ setPositionsParticles()</text>
<text text-anchor="start" x="149.5" y="-271.5" font-family="Helvetica,sans-Serif" font-size="10.00">+ velocitiesParticles()</text>
<text text-anchor="start" x="149.5" y="-260.5" font-family="Helvetica,sans-Serif" font-size="10.00">+ setVelocitiesParticles()</text>
<text text-anchor="start" x="149.5" y="-249.5" font-family="Helvetica,sans-Serif" font-size="10.00">+ accelerationsParticles()</text>
<text text-anchor="start" x="149.5" y="-238.5" font-family="Helvetica,sans-Serif" font-size="10.00">+ setAccelerationsParticles()</text>
<text text-anchor="start" x="149.5" y="-227.5" font-family="Helvetica,sans-Serif" font-size="10.00">+ velocitiesParticlesArticulation()</text>
<text text-anchor="start" x="149.5" y="-216.5" font-family="Helvetica,sans-Serif" font-size="10.00">+ accelerationsParticlesArticulation()</text>
<text text-anchor="start" x="149.5" y="-205.5" font-family="Helvetica,sans-Serif" font-size="10.00">+ tensRbmConnTQuat()</text>
<text text-anchor="start" x="149.5" y="-194.5" font-family="Helvetica,sans-Serif" font-size="10.00">+ tensRbmConnTQuatGrad()</text>
<text text-anchor="start" x="149.5" y="-183.5" font-family="Helvetica,sans-Serif" font-size="10.00">+ tensConvBody2PartDof()</text>
<text text-anchor="start" x="149.5" y="-172.5" font-family="Helvetica,sans-Serif" font-size="10.00">+ udwadiaA()</text>
<text text-anchor="start" x="149.5" y="-161.5" font-family="Helvetica,sans-Serif" font-size="10.00">+ udwadiaB()</text>
<text text-anchor="start" x="149.5" y="-150.5" font-family="Helvetica,sans-Serif" font-size="10.00">&#45; parseGSD()</text>
<text text-anchor="start" x="149.5" y="-139.5" font-family="Helvetica,sans-Serif" font-size="10.00">&#45; checkInput()</text>
<text text-anchor="start" x="149.5" y="-128.5" font-family="Helvetica,sans-Serif" font-size="10.00">&#45; orientationsArticulation()</text>
<text text-anchor="start" x="149.5" y="-117.5" font-family="Helvetica,sans-Serif" font-size="10.00">&#45; positionsArticulation()</text>
<text text-anchor="start" x="149.5" y="-106.5" font-family="Helvetica,sans-Serif" font-size="10.00">&#45; velocitiesArticulation()</text>
<text text-anchor="start" x="149.5" y="-95.5" font-family="Helvetica,sans-Serif" font-size="10.00">&#45; accelerationsArticulation()</text>
<text text-anchor="start" x="149.5" y="-84.5" font-family="Helvetica,sans-Serif" font-size="10.00">&#45; positionsParticlesfromBodies()</text>
<text text-anchor="start" x="149.5" y="-73.5" font-family="Helvetica,sans-Serif" font-size="10.00">&#45; udwadiaLinearSystem()</text>
<text text-anchor="start" x="149.5" y="-62.5" font-family="Helvetica,sans-Serif" font-size="10.00">&#45; rigidBodyMotionTensors()</text>
<text text-anchor="start" x="149.5" y="-51.5" font-family="Helvetica,sans-Serif" font-size="10.00">&#45; gradientChangeOfVariable</text>
<text text-anchor="start" x="149.5" y="-40.5" font-family="Helvetica,sans-Serif" font-size="10.00">Tensors()</text>
<text text-anchor="start" x="149.5" y="-29.5" font-family="Helvetica,sans-Serif" font-size="10.00">&#45; convertBody2ParticleDoF()</text>
<text text-anchor="start" x="149.5" y="-18.5" font-family="Helvetica,sans-Serif" font-size="10.00">&#45; eMatrix()</text>
<text text-anchor="start" x="149.5" y="-7.5" font-family="Helvetica,sans-Serif" font-size="10.00">&#45; crossProdMat()</text>
</a>
</g>
</g>
<!-- Node3&#45;&gt;Node2 -->
<g id="edge2" class="edge">
<title>Node3&#45;&gt;Node2</title>
<path fill="none" stroke="#404040" d="M216.11,-1597.66C215.34,-1911.01 222,-2212.61 248.5,-2281 252.37,-2290.98 259.17,-2289.72 264.5,-2299 270.55,-2309.54 275.32,-2321.82 278.97,-2333.29"/>
<polygon fill="none" stroke="#404040" points="278.98,-2333.33 284.51,-2337.96 282.36,-2344.84 276.83,-2340.21 278.98,-2333.33"/>
<text text-anchor="middle" x="228" y="-1751.5" font-family="Helvetica,sans-Serif" font-size="10.00"> +ptr</text>
</g>
<!-- Node4 -->
<g id="node4" class="node">
<title>Node4</title>
<g id="a_node4"><a xlink:title=" ">
<polygon fill="none" stroke="#bfbfbf" points="67.5,-1645.5 67.5,-1713.5 201.5,-1713.5 201.5,-1645.5 67.5,-1645.5"/>
<text text-anchor="start" x="75.5" y="-1701.5" font-family="Helvetica,sans-Serif" font-size="10.00">std::enable_shared</text>
<text text-anchor="middle" x="134.5" y="-1690.5" font-family="Helvetica,sans-Serif" font-size="10.00">_from_this&lt; systemData &gt;</text>
<polyline fill="none" stroke="#bfbfbf" points="67.5,-1683.5 201.5,-1683.5 "/>
<text text-anchor="middle" x="134.5" y="-1671.5" font-family="Helvetica,sans-Serif" font-size="10.00"> </text>
<polyline fill="none" stroke="#bfbfbf" points="67.5,-1664.5 201.5,-1664.5 "/>
<text text-anchor="middle" x="134.5" y="-1652.5" font-family="Helvetica,sans-Serif" font-size="10.00"> </text>
</a>
</g>
</g>
<!-- Node4&#45;&gt;Node3 -->
<g id="edge3" class="edge">
<title>Node4&#45;&gt;Node3</title>
<path fill="none" stroke="midnightblue" d="M139.18,-1635.24C140.34,-1624.47 141.7,-1611.91 143.22,-1597.83"/>
<polygon fill="none" stroke="midnightblue" points="135.67,-1635.08 138.08,-1645.4 142.63,-1635.83 135.67,-1635.08"/>
</g>
<!-- Node5 -->
<g id="node5" class="node">
<title>Node5</title>
<g id="a_node5"><a xlink:title=" ">
<polygon fill="none" stroke="#bfbfbf" points="258,-1651 258,-1708 395,-1708 395,-1651 258,-1651"/>
<text text-anchor="middle" x="326.5" y="-1696" font-family="Helvetica,sans-Serif" font-size="10.00">std::shared_ptr&lt; GSDUtil &gt;</text>
<polyline fill="none" stroke="#bfbfbf" points="258,-1689 395,-1689 "/>
<text text-anchor="middle" x="326.5" y="-1677" font-family="Helvetica,sans-Serif" font-size="10.00"> </text>
<polyline fill="none" stroke="#bfbfbf" points="258,-1670 395,-1670 "/>
<text text-anchor="start" x="266" y="-1658" font-family="Helvetica,sans-Serif" font-size="10.00">+ operator&#45;&gt;()</text>
</a>
</g>
</g>
<!-- Node5&#45;&gt;Node3 -->
<g id="edge4" class="edge">
<title>Node5&#45;&gt;Node3</title>
<path fill="none" stroke="#404040" d="M323.44,-1650.76C322.23,-1639.79 320.68,-1625.83 318.87,-1609.4"/>
<polygon fill="none" stroke="#404040" points="318.82,-1608.93 314.18,-1603.4 317.5,-1597 322.14,-1602.52 318.82,-1608.93"/>
<text text-anchor="middle" x="346" y="-1619" font-family="Helvetica,sans-Serif" font-size="10.00"> &#45;m_gsdUtil</text>
</g>
<!-- Node6&#45;&gt;Node5 -->
<g id="edge5" class="edge">
<title>Node6&#45;&gt;Node5</title>
<path fill="none" stroke="#404040" d="M320.86,-1931.61C322.45,-1860.71 324.46,-1771.07 325.61,-1720.32"/>
<polygon fill="none" stroke="#404040" points="325.61,-1720.29 321.74,-1714.2 325.88,-1708.3 329.74,-1714.38 325.61,-1720.29"/>
<text text-anchor="middle" x="336" y="-1751.5" font-family="Helvetica,sans-Serif" font-size="10.00"> +ptr</text>
</g>
<!-- Node7 -->
<g id="node7" class="node">
<title>Node7</title>
<g id="a_node7"><a xlink:title="STL class.">
<polygon fill="none" stroke="#bfbfbf" points="17.5,-2345 17.5,-2402 77.5,-2402 77.5,-2345 17.5,-2345"/>
<text text-anchor="middle" x="47.5" y="-2390" font-family="Helvetica,sans-Serif" font-size="10.00">std::string</text>
<polyline fill="none" stroke="#bfbfbf" points="17.5,-2383 77.5,-2383 "/>
<text text-anchor="middle" x="47.5" y="-2371" font-family="Helvetica,sans-Serif" font-size="10.00"> </text>
<polyline fill="none" stroke="#bfbfbf" points="17.5,-2364 77.5,-2364 "/>
<text text-anchor="middle" x="47.5" y="-2352" font-family="Helvetica,sans-Serif" font-size="10.00"> </text>
</a>
</g>
</g>
<!-- Node7&#45;&gt;Node1 -->
<g id="edge16" class="edge">
<title>Node7&#45;&gt;Node1</title>
<path fill="none" stroke="#404040" d="M46.12,-2344.78C45.88,-2330.96 46.25,-2314.02 48.5,-2299 49.21,-2294.29 49.98,-2289.54 50.8,-2284.77"/>
<polygon fill="none" stroke="#404040" points="50.82,-2284.67 47.96,-2278.05 52.97,-2272.86 55.83,-2279.48 50.82,-2284.67"/>
<text text-anchor="middle" x="78" y="-2313" font-family="Helvetica,sans-Serif" font-size="10.00"> &#45;m_logName</text>
<text text-anchor="middle" x="78" y="-2302" font-family="Helvetica,sans-Serif" font-size="10.00">&#45;m_logFile</text>
</g>
<!-- Node7&#45;&gt;Node3 -->
<g id="edge11" class="edge">
<title>Node7&#45;&gt;Node3</title>
<path fill="none" stroke="#404040" d="M44.97,-2344.99C44.36,-2337.24 43.8,-2328.8 43.5,-2321 34.42,-2086.95 31.75,-2027.93 43.5,-1794 54.25,-1579.96 97.04,-1344.04 138.87,-1155.77"/>
<polygon fill="none" stroke="#404040" points="138.88,-1155.72 136.28,-1148.99 141.49,-1144 144.09,-1150.73 138.88,-1155.72"/>
<text text-anchor="middle" x="85.5" y="-1768" font-family="Helvetica,sans-Serif" font-size="10.00"> &#45;m_outputDir</text>
<text text-anchor="middle" x="85.5" y="-1757" font-family="Helvetica,sans-Serif" font-size="10.00">&#45;m_logName</text>
<text text-anchor="middle" x="85.5" y="-1746" font-family="Helvetica,sans-Serif" font-size="10.00">&#45;m_logFile</text>
<text text-anchor="middle" x="85.5" y="-1735" font-family="Helvetica,sans-Serif" font-size="10.00">&#45;m_inputGSDFile</text>
</g>
<!-- Node7&#45;&gt;Node6 -->
<g id="edge7" class="edge">
<title>Node7&#45;&gt;Node6</title>
<path fill="none" stroke="#404040" d="M77.72,-2367.26C107.34,-2360.8 152.32,-2347.27 182.5,-2321 232.44,-2277.53 265.63,-2211.59 286.71,-2154.35"/>
<polygon fill="none" stroke="#404040" points="286.72,-2154.32 284.98,-2147.32 290.76,-2143.02 292.51,-2150.02 286.72,-2154.32"/>
<text text-anchor="middle" x="231" y="-2313" font-family="Helvetica,sans-Serif" font-size="10.00"> &#45;m_logName</text>
<text text-anchor="middle" x="231" y="-2302" font-family="Helvetica,sans-Serif" font-size="10.00">&#45;m_logFile</text>
</g>
<!-- Node8 -->
<g id="node8" class="node">
<title>Node8</title>
<g id="a_node8"><a xlink:title="STL class.">
<polygon fill="none" stroke="#bfbfbf" points="0,-2455.5 0,-2523.5 95,-2523.5 95,-2455.5 0,-2455.5"/>
<text text-anchor="start" x="8" y="-2511.5" font-family="Helvetica,sans-Serif" font-size="10.00">std::basic_string&lt;</text>
<text text-anchor="middle" x="47.5" y="-2500.5" font-family="Helvetica,sans-Serif" font-size="10.00"> char &gt;</text>
<polyline fill="none" stroke="#bfbfbf" points="0,-2493.5 95,-2493.5 "/>
<text text-anchor="middle" x="47.5" y="-2481.5" font-family="Helvetica,sans-Serif" font-size="10.00"> </text>
<polyline fill="none" stroke="#bfbfbf" points="0,-2474.5 95,-2474.5 "/>
<text text-anchor="middle" x="47.5" y="-2462.5" font-family="Helvetica,sans-Serif" font-size="10.00"> </text>
</a>
</g>
</g>
<!-- Node8&#45;&gt;Node7 -->
<g id="edge8" class="edge">
<title>Node8&#45;&gt;Node7</title>
<path fill="none" stroke="midnightblue" d="M47.5,-2445.03C47.5,-2430.67 47.5,-2415.1 47.5,-2402.24"/>
<polygon fill="none" stroke="midnightblue" points="44,-2445.22 47.5,-2455.22 51,-2445.22 44,-2445.22"/>
</g>
<!-- Node9 -->
<g id="node9" class="node">
<title>Node9</title>
<g id="a_node9"><a xlink:title="STL class.">
<polygon fill="none" stroke="#bfbfbf" points="355,-2461 355,-2518 460,-2518 460,-2461 355,-2461"/>
<text text-anchor="middle" x="407.5" y="-2506" font-family="Helvetica,sans-Serif" font-size="10.00">std::shared_ptr&lt; T &gt;</text>
<polyline fill="none" stroke="#bfbfbf" points="355,-2499 460,-2499 "/>
<text text-anchor="middle" x="407.5" y="-2487" font-family="Helvetica,sans-Serif" font-size="10.00"> </text>
<polyline fill="none" stroke="#bfbfbf" points="355,-2480 460,-2480 "/>
<text text-anchor="start" x="363" y="-2468" font-family="Helvetica,sans-Serif" font-size="10.00">+ operator&#45;&gt;()</text>
</a>
</g>
</g>
<!-- Node9&#45;&gt;Node2 -->
<g id="edge15" class="edge">
<title>Node9&#45;&gt;Node2</title>
<path fill="none" stroke="orange" d="M345.95,-2459.48C335.99,-2453.02 326.38,-2445.51 318.5,-2437 309.34,-2427.11 302.46,-2413.91 297.61,-2402.19"/>
<polygon fill="orange" stroke="orange" points="344.4,-2462.64 354.75,-2464.9 348.07,-2456.68 344.4,-2462.64"/>
<text text-anchor="middle" x="356" y="-2429" font-family="Helvetica,sans-Serif" font-size="10.00"> &lt; systemData &gt;</text>
</g>
<!-- Node9&#45;&gt;Node5 -->
<g id="edge9" class="edge">
<title>Node9&#45;&gt;Node5</title>
<path fill="none" stroke="orange" d="M408.8,-2450.37C412.73,-2323.9 422.29,-1919.17 388.5,-1794 380.02,-1762.57 361.25,-1730.33 346.58,-1708.28"/>
<polygon fill="orange" stroke="orange" points="405.29,-2450.6 408.47,-2460.7 412.28,-2450.82 405.29,-2450.6"/>
<text text-anchor="middle" x="441.5" y="-2307.5" font-family="Helvetica,sans-Serif" font-size="10.00"> &lt; GSDUtil &gt;</text>
</g>
<!-- Node11 -->
<g id="node11" class="node">
<title>Node11</title>
<g id="a_node11"><a xlink:title=" ">
<polygon fill="none" stroke="#bfbfbf" points="436,-2339.5 436,-2407.5 543,-2407.5 543,-2339.5 436,-2339.5"/>
<text text-anchor="start" x="444" y="-2395.5" font-family="Helvetica,sans-Serif" font-size="10.00">std::shared_ptr&lt; gsd</text>
<text text-anchor="middle" x="489.5" y="-2384.5" font-family="Helvetica,sans-Serif" font-size="10.00">_handle &gt;</text>
<polyline fill="none" stroke="#bfbfbf" points="436,-2377.5 543,-2377.5 "/>
<text text-anchor="middle" x="489.5" y="-2365.5" font-family="Helvetica,sans-Serif" font-size="10.00"> </text>
<polyline fill="none" stroke="#bfbfbf" points="436,-2358.5 543,-2358.5 "/>
<text text-anchor="middle" x="489.5" y="-2346.5" font-family="Helvetica,sans-Serif" font-size="10.00"> </text>
</a>
</g>
</g>
<!-- Node9&#45;&gt;Node11 -->
<g id="edge14" class="edge">
<title>Node9&#45;&gt;Node11</title>
<path fill="none" stroke="orange" d="M422.61,-2451.63C426.88,-2442.9 431.91,-2433.85 437.5,-2426 442,-2419.69 447.3,-2413.46 452.78,-2407.63"/>
<polygon fill="orange" stroke="orange" points="419.34,-2450.37 418.29,-2460.91 425.68,-2453.33 419.34,-2450.37"/>
<text text-anchor="middle" x="473" y="-2429" font-family="Helvetica,sans-Serif" font-size="10.00"> &lt; gsd_handle &gt;</text>
</g>
<!-- Node10 -->
<g id="node10" class="node">
<title>Node10</title>
<g id="a_node10"><a xlink:title=" ">
<polygon fill="none" stroke="#bfbfbf" points="393,-2571.5 393,-2628.5 422,-2628.5 422,-2571.5 393,-2571.5"/>
<text text-anchor="middle" x="407.5" y="-2616.5" font-family="Helvetica,sans-Serif" font-size="10.00">T</text>
<polyline fill="none" stroke="#bfbfbf" points="393,-2609.5 422,-2609.5 "/>
<text text-anchor="middle" x="407.5" y="-2597.5" font-family="Helvetica,sans-Serif" font-size="10.00"> </text>
<polyline fill="none" stroke="#bfbfbf" points="393,-2590.5 422,-2590.5 "/>
<text text-anchor="middle" x="407.5" y="-2578.5" font-family="Helvetica,sans-Serif" font-size="10.00"> </text>
</a>
</g>
</g>
<!-- Node10&#45;&gt;Node9 -->
<g id="edge10" class="edge">
<title>Node10&#45;&gt;Node9</title>
<path fill="none" stroke="#404040" d="M407.5,-2571.34C407.5,-2558.84 407.5,-2543.84 407.5,-2530.18"/>
<polygon fill="none" stroke="#404040" points="407.5,-2530.11 403.5,-2524.11 407.5,-2518.11 411.5,-2524.11 407.5,-2530.11"/>
<text text-anchor="middle" x="418" y="-2545" font-family="Helvetica,sans-Serif" font-size="10.00"> +ptr</text>
</g>
<!-- Node11&#45;&gt;Node3 -->
<g id="edge12" class="edge">
<title>Node11&#45;&gt;Node3</title>
<path fill="none" stroke="#404040" d="M486.6,-2339.37C477.35,-2236.17 446.61,-1911.48 403.5,-1645 380.16,-1500.7 349.33,-1343.62 320.11,-1204.47"/>
<polygon fill="none" stroke="#404040" points="320.03,-1204.09 314.88,-1199.04 317.56,-1192.35 322.71,-1197.4 320.03,-1204.09"/>
<text text-anchor="middle" x="448" y="-1751.5" font-family="Helvetica,sans-Serif" font-size="10.00"> &#45;m_handle</text>
</g>
<!-- Node12 -->
<g id="node12" class="node">
<title>Node12</title>
<g id="a_node12"><a xlink:title=" ">
<polygon fill="none" stroke="#bfbfbf" points="501.5,-2461 501.5,-2518 567.5,-2518 567.5,-2461 501.5,-2461"/>
<text text-anchor="middle" x="534.5" y="-2506" font-family="Helvetica,sans-Serif" font-size="10.00">gsd_handle</text>
<polyline fill="none" stroke="#bfbfbf" points="501.5,-2499 567.5,-2499 "/>
<text text-anchor="middle" x="534.5" y="-2487" font-family="Helvetica,sans-Serif" font-size="10.00"> </text>
<polyline fill="none" stroke="#bfbfbf" points="501.5,-2480 567.5,-2480 "/>
<text text-anchor="middle" x="534.5" y="-2468" font-family="Helvetica,sans-Serif" font-size="10.00"> </text>
</a>
</g>
</g>
<!-- Node12&#45;&gt;Node11 -->
<g id="edge13" class="edge">
<title>Node12&#45;&gt;Node11</title>
<path fill="none" stroke="#404040" d="M525.34,-2460.94C521.56,-2449.99 517.01,-2437.33 512.5,-2426 511.57,-2423.65 510.59,-2421.26 509.58,-2418.85"/>
<polygon fill="none" stroke="#404040" points="509.48,-2418.6 503.44,-2414.67 504.75,-2407.57 510.79,-2411.51 509.48,-2418.6"/>
<text text-anchor="middle" x="527" y="-2429" font-family="Helvetica,sans-Serif" font-size="10.00"> +ptr</text>
</g>
</g>
</svg>
