<?xml version="1.0" encoding="UTF-8" standalone="no"?>
<!DOCTYPE svg PUBLIC "-//W3C//DTD SVG 1.1//EN"
 "http://www.w3.org/Graphics/SVG/1.1/DTD/svg11.dtd">
<!-- Generated by graphviz version 2.43.0 (0)
 -->
<!-- Title: GSDUtil Pages: 1 -->
<svg width="650pt" height="2594pt"
 viewBox="0.00 0.00 650.23 2594.00" xmlns="http://www.w3.org/2000/svg" xmlns:xlink="http://www.w3.org/1999/xlink">
<g id="graph0" class="graph" transform="scale(1 1) rotate(0) translate(4 2590)">
<title>GSDUtil</title>
<!-- Node1 -->
<g id="node1" class="node">
<title>Node1</title>
<g id="a_node1"><a xlink:title="Wrapper class for gsd.h to load data from input GSD file into SystemData class.">
<polygon fill="#bfbfbf" stroke="black" points="111.23,-2152.5 111.23,-2363.5 233.23,-2363.5 233.23,-2152.5 111.23,-2152.5"/>
<text text-anchor="middle" x="172.23" y="-2351.5" font-family="Helvetica,sans-Serif" font-size="10.00">GSDUtil</text>
<polyline fill="none" stroke="black" points="111.23,-2344.5 233.23,-2344.5 "/>
<text text-anchor="start" x="119.23" y="-2332.5" font-family="Helvetica,sans-Serif" font-size="10.00">&#45; m_frame</text>
<polyline fill="none" stroke="black" points="111.23,-2325.5 233.23,-2325.5 "/>
<text text-anchor="start" x="119.23" y="-2313.5" font-family="Helvetica,sans-Serif" font-size="10.00">+ GSDUtil()</text>
<text text-anchor="start" x="119.23" y="-2302.5" font-family="Helvetica,sans-Serif" font-size="10.00">+ GSDUtil()</text>
<text text-anchor="start" x="119.23" y="-2291.5" font-family="Helvetica,sans-Serif" font-size="10.00">+ ~GSDUtil()</text>
<text text-anchor="start" x="119.23" y="-2280.5" font-family="Helvetica,sans-Serif" font-size="10.00">+ truncateGSD()</text>
<text text-anchor="start" x="119.23" y="-2269.5" font-family="Helvetica,sans-Serif" font-size="10.00">+ writeFrame()</text>
<text text-anchor="start" x="119.23" y="-2258.5" font-family="Helvetica,sans-Serif" font-size="10.00">+ frame()</text>
<text text-anchor="start" x="119.23" y="-2247.5" font-family="Helvetica,sans-Serif" font-size="10.00">&#45; checkGSDReturn()</text>
<text text-anchor="start" x="119.23" y="-2236.5" font-family="Helvetica,sans-Serif" font-size="10.00">&#45; readChunk()</text>
<text text-anchor="start" x="119.23" y="-2225.5" font-family="Helvetica,sans-Serif" font-size="10.00">&#45; readHeader()</text>
<text text-anchor="start" x="119.23" y="-2214.5" font-family="Helvetica,sans-Serif" font-size="10.00">&#45; readParameters()</text>
<text text-anchor="start" x="119.23" y="-2203.5" font-family="Helvetica,sans-Serif" font-size="10.00">&#45; readParticles()</text>
<text text-anchor="start" x="119.23" y="-2192.5" font-family="Helvetica,sans-Serif" font-size="10.00">&#45; readSystemSpecifics()</text>
<text text-anchor="start" x="119.23" y="-2181.5" font-family="Helvetica,sans-Serif" font-size="10.00">&#45; writeHeader()</text>
<text text-anchor="start" x="119.23" y="-2170.5" font-family="Helvetica,sans-Serif" font-size="10.00">&#45; writeParameters()</text>
<text text-anchor="start" x="119.23" y="-2159.5" font-family="Helvetica,sans-Serif" font-size="10.00">&#45; writeParticles()</text>
</a>
</g>
</g>
<!-- Node5 -->
<g id="node5" class="node">
<title>Node5</title>
<g id="a_node5"><a xlink:title=" ">
<polygon fill="none" stroke="#bfbfbf" points="103.73,-2009 103.73,-2066 240.73,-2066 240.73,-2009 103.73,-2009"/>
<text text-anchor="middle" x="172.23" y="-2054" font-family="Helvetica,sans-Serif" font-size="10.00">std::shared_ptr&lt; GSDUtil &gt;</text>
<polyline fill="none" stroke="#bfbfbf" points="103.73,-2047 240.73,-2047 "/>
<text text-anchor="middle" x="172.23" y="-2035" font-family="Helvetica,sans-Serif" font-size="10.00"> </text>
<polyline fill="none" stroke="#bfbfbf" points="103.73,-2028 240.73,-2028 "/>
<text text-anchor="start" x="111.73" y="-2016" font-family="Helvetica,sans-Serif" font-size="10.00">+ operator&#45;&gt;()</text>
</a>
</g>
</g>
<!-- Node1&#45;&gt;Node5 -->
<g id="edge5" class="edge">
<title>Node1&#45;&gt;Node5</title>
<path fill="none" stroke="#404040" d="M172.23,-2152.23C172.23,-2125.93 172.23,-2099.28 172.23,-2078.39"/>
<polygon fill="none" stroke="#404040" points="172.23,-2078.19 168.23,-2072.19 172.23,-2066.19 176.23,-2072.19 172.23,-2078.19"/>
<text text-anchor="middle" x="182.73" y="-2109.5" font-family="Helvetica,sans-Serif" font-size="10.00"> +ptr</text>
</g>
<!-- Node2 -->
<g id="node2" class="node">
<title>Node2</title>
<g id="a_node2"><a xlink:title=" ">
<polygon fill="none" stroke="#bfbfbf" points="220.73,-0.5 220.73,-57.5 375.73,-57.5 375.73,-0.5 220.73,-0.5"/>
<text text-anchor="middle" x="298.23" y="-45.5" font-family="Helvetica,sans-Serif" font-size="10.00">std::shared_ptr&lt; SystemData &gt;</text>
<polyline fill="none" stroke="#bfbfbf" points="220.73,-38.5 375.73,-38.5 "/>
<text text-anchor="middle" x="298.23" y="-26.5" font-family="Helvetica,sans-Serif" font-size="10.00"> </text>
<polyline fill="none" stroke="#bfbfbf" points="220.73,-19.5 375.73,-19.5 "/>
<text text-anchor="start" x="228.73" y="-7.5" font-family="Helvetica,sans-Serif" font-size="10.00">+ operator&#45;&gt;()</text>
</a>
</g>
</g>
<!-- Node2&#45;&gt;Node1 -->
<g id="edge1" class="edge">
<title>Node2&#45;&gt;Node1</title>
<path fill="none" stroke="#404040" d="M246.65,-57.56C229.14,-69.67 211.44,-85.6 201.23,-105 -192.26,-852.67 118.02,-1158.44 94.23,-2003 93.37,-2033.65 88.15,-2041.94 94.23,-2072 98.87,-2094.94 106.44,-2118.58 115.09,-2140.97"/>
<polygon fill="none" stroke="#404040" points="115.12,-2141.05 121.06,-2145.14 119.56,-2152.2 113.62,-2148.1 115.12,-2141.05"/>
<text text-anchor="middle" x="121.23" y="-1977" font-family="Helvetica,sans-Serif" font-size="10.00"> &#45;m_system</text>
</g>
<!-- Node3 -->
<g id="node3" class="node">
<title>Node3</title>
<g id="a_node3"><a xlink:href="classSystemData.html" target="_top" xlink:title="Class contains all data structures relevant to the simulation framework. Note that after construction...">
<polygon fill="none" stroke="black" points="210.23,-105.5 210.23,-1955.5 386.23,-1955.5 386.23,-105.5 210.23,-105.5"/>
<text text-anchor="middle" x="298.23" y="-1943.5" font-family="Helvetica,sans-Serif" font-size="10.00">SystemData</text>
<polyline fill="none" stroke="black" points="210.23,-1936.5 386.23,-1936.5 "/>
<text text-anchor="start" x="218.23" y="-1924.5" font-family="Helvetica,sans-Serif" font-size="10.00">&#45; m_image_system</text>
<text text-anchor="start" x="218.23" y="-1913.5" font-family="Helvetica,sans-Serif" font-size="10.00">&#45; m_return_val</text>
<text text-anchor="start" x="218.23" y="-1902.5" font-family="Helvetica,sans-Serif" font-size="10.00">&#45; m_return_bool</text>
<text text-anchor="start" x="218.23" y="-1891.5" font-family="Helvetica,sans-Serif" font-size="10.00">&#45; m_GSD_parsed</text>
<text text-anchor="start" x="218.23" y="-1880.5" font-family="Helvetica,sans-Serif" font-size="10.00">&#45; m_sys_spec_U0</text>
<text text-anchor="start" x="218.23" y="-1869.5" font-family="Helvetica,sans-Serif" font-size="10.00">&#45; m_sys_spec_omega</text>
<text text-anchor="start" x="218.23" y="-1858.5" font-family="Helvetica,sans-Serif" font-size="10.00">&#45; m_sys_spec_phase_shift</text>
<text text-anchor="start" x="218.23" y="-1847.5" font-family="Helvetica,sans-Serif" font-size="10.00">&#45; m_sys_spec_R_avg</text>
<text text-anchor="start" x="218.23" y="-1836.5" font-family="Helvetica,sans-Serif" font-size="10.00">&#45; m_particle_type_id</text>
<text text-anchor="start" x="218.23" y="-1825.5" font-family="Helvetica,sans-Serif" font-size="10.00">&#45; m_particle_group_id</text>
<text text-anchor="start" x="218.23" y="-1814.5" font-family="Helvetica,sans-Serif" font-size="10.00">&#45; m_fluid_density</text>
<text text-anchor="start" x="218.23" y="-1803.5" font-family="Helvetica,sans-Serif" font-size="10.00">&#45; m_particle_density</text>
<text text-anchor="start" x="218.23" y="-1792.5" font-family="Helvetica,sans-Serif" font-size="10.00">&#45; m_wca_epsilon</text>
<text text-anchor="start" x="218.23" y="-1781.5" font-family="Helvetica,sans-Serif" font-size="10.00">&#45; m_wca_sigma</text>
<text text-anchor="start" x="218.23" y="-1770.5" font-family="Helvetica,sans-Serif" font-size="10.00">&#45; m_num_spatial_dim</text>
<text text-anchor="start" x="218.23" y="-1759.5" font-family="Helvetica,sans-Serif" font-size="10.00">&#45; m_num_particles</text>
<text text-anchor="start" x="218.23" y="-1748.5" font-family="Helvetica,sans-Serif" font-size="10.00">&#45; m_num_bodies</text>
<text text-anchor="start" x="218.23" y="-1737.5" font-family="Helvetica,sans-Serif" font-size="10.00">&#45; m_num_DoF</text>
<text text-anchor="start" x="218.23" y="-1726.5" font-family="Helvetica,sans-Serif" font-size="10.00">&#45; m_num_constraints</text>
<text text-anchor="start" x="218.23" y="-1715.5" font-family="Helvetica,sans-Serif" font-size="10.00">&#45; m_dt</text>
<text text-anchor="start" x="218.23" y="-1704.5" font-family="Helvetica,sans-Serif" font-size="10.00">&#45; m_tf</text>
<text text-anchor="start" x="218.23" y="-1693.5" font-family="Helvetica,sans-Serif" font-size="10.00">&#45; m_t0</text>
<text text-anchor="start" x="218.23" y="-1682.5" font-family="Helvetica,sans-Serif" font-size="10.00">&#45; m_t</text>
<text text-anchor="start" x="218.23" y="-1671.5" font-family="Helvetica,sans-Serif" font-size="10.00">&#45; m_tau</text>
<text text-anchor="start" x="218.23" y="-1660.5" font-family="Helvetica,sans-Serif" font-size="10.00">&#45; m_timestep</text>
<text text-anchor="start" x="218.23" y="-1649.5" font-family="Helvetica,sans-Serif" font-size="10.00">&#45; m_num_steps_output</text>
<text text-anchor="start" x="218.23" y="-1638.5" font-family="Helvetica,sans-Serif" font-size="10.00">&#45; m_E_hydro_loc</text>
<text text-anchor="start" x="218.23" y="-1627.5" font-family="Helvetica,sans-Serif" font-size="10.00">&#45; m_E_hydro_loc_int</text>
<text text-anchor="start" x="218.23" y="-1616.5" font-family="Helvetica,sans-Serif" font-size="10.00">&#45; m_E_hydro_int</text>
<text text-anchor="start" x="218.23" y="-1605.5" font-family="Helvetica,sans-Serif" font-size="10.00">&#45; m_E_hydro_simple</text>
<text text-anchor="start" x="218.23" y="-1594.5" font-family="Helvetica,sans-Serif" font-size="10.00">&#45; m_I3</text>
<text text-anchor="start" x="218.23" y="-1583.5" font-family="Helvetica,sans-Serif" font-size="10.00">&#45; m_tens_I3</text>
<text text-anchor="start" x="218.23" y="-1572.5" font-family="Helvetica,sans-Serif" font-size="10.00">&#45; m_levi_cevita</text>
<text text-anchor="start" x="218.23" y="-1561.5" font-family="Helvetica,sans-Serif" font-size="10.00">&#45; m_kappa</text>
<text text-anchor="start" x="218.23" y="-1550.5" font-family="Helvetica,sans-Serif" font-size="10.00">&#45; m_positions_bodies</text>
<text text-anchor="start" x="218.23" y="-1539.5" font-family="Helvetica,sans-Serif" font-size="10.00">&#45; m_velocities_bodies</text>
<text text-anchor="start" x="218.23" y="-1528.5" font-family="Helvetica,sans-Serif" font-size="10.00">&#45; m_accelerations_bodies</text>
<text text-anchor="start" x="218.23" y="-1517.5" font-family="Helvetica,sans-Serif" font-size="10.00">&#45; m_positions_particles</text>
<text text-anchor="start" x="218.23" y="-1506.5" font-family="Helvetica,sans-Serif" font-size="10.00">&#45; m_velocities_particles</text>
<text text-anchor="start" x="218.23" y="-1495.5" font-family="Helvetica,sans-Serif" font-size="10.00">&#45; m_accelerations_particles</text>
<text text-anchor="start" x="218.23" y="-1484.5" font-family="Helvetica,sans-Serif" font-size="10.00">&#45; m_orientations_particles</text>
<text text-anchor="start" x="218.23" y="-1473.5" font-family="Helvetica,sans-Serif" font-size="10.00">&#45; m_quaternions_particles</text>
<text text-anchor="start" x="218.23" y="-1462.5" font-family="Helvetica,sans-Serif" font-size="10.00">&#45; m_positions_particles</text>
<text text-anchor="start" x="218.23" y="-1451.5" font-family="Helvetica,sans-Serif" font-size="10.00">_articulation_init_norm</text>
<text text-anchor="start" x="218.23" y="-1440.5" font-family="Helvetica,sans-Serif" font-size="10.00">&#45; m_positions_particles</text>
<text text-anchor="start" x="218.23" y="-1429.5" font-family="Helvetica,sans-Serif" font-size="10.00">_articulation</text>
<text text-anchor="start" x="218.23" y="-1418.5" font-family="Helvetica,sans-Serif" font-size="10.00">&#45; m_velocities_particles</text>
<text text-anchor="start" x="218.23" y="-1407.5" font-family="Helvetica,sans-Serif" font-size="10.00">_articulation</text>
<text text-anchor="start" x="218.23" y="-1396.5" font-family="Helvetica,sans-Serif" font-size="10.00">&#45; m_accelerations_particles</text>
<text text-anchor="start" x="218.23" y="-1385.5" font-family="Helvetica,sans-Serif" font-size="10.00">_articulation</text>
<text text-anchor="start" x="218.23" y="-1374.5" font-family="Helvetica,sans-Serif" font-size="10.00">&#45; m_rbm_conn</text>
<text text-anchor="start" x="218.23" y="-1363.5" font-family="Helvetica,sans-Serif" font-size="10.00">&#45; m_tens_rbm_conn</text>
<text text-anchor="start" x="218.23" y="-1352.5" font-family="Helvetica,sans-Serif" font-size="10.00">&#45; m_tens_grad_rbm_conn</text>
<text text-anchor="start" x="218.23" y="-1341.5" font-family="Helvetica,sans-Serif" font-size="10.00">&#45; m_chi</text>
<text text-anchor="start" x="218.23" y="-1330.5" font-family="Helvetica,sans-Serif" font-size="10.00">&#45; m_tens_chi</text>
<text text-anchor="start" x="218.23" y="-1319.5" font-family="Helvetica,sans-Serif" font-size="10.00">&#45; m_Udwadia_A</text>
<text text-anchor="start" x="218.23" y="-1308.5" font-family="Helvetica,sans-Serif" font-size="10.00">&#45; m_Udwadia_b</text>
<polyline fill="none" stroke="black" points="210.23,-1301.5 386.23,-1301.5 "/>
<text text-anchor="start" x="218.23" y="-1289.5" font-family="Helvetica,sans-Serif" font-size="10.00">+ SystemData()</text>
<text text-anchor="start" x="218.23" y="-1278.5" font-family="Helvetica,sans-Serif" font-size="10.00">+ SystemData()</text>
<text text-anchor="start" x="218.23" y="-1267.5" font-family="Helvetica,sans-Serif" font-size="10.00">+ ~SystemData()</text>
<text text-anchor="start" x="218.23" y="-1256.5" font-family="Helvetica,sans-Serif" font-size="10.00">+ initializeData()</text>
<text text-anchor="start" x="218.23" y="-1245.5" font-family="Helvetica,sans-Serif" font-size="10.00">+ logData()</text>
<text text-anchor="start" x="218.23" y="-1234.5" font-family="Helvetica,sans-Serif" font-size="10.00">+ update()</text>
<text text-anchor="start" x="218.23" y="-1223.5" font-family="Helvetica,sans-Serif" font-size="10.00">+ normalizeQuaternions()</text>
<text text-anchor="start" x="218.23" y="-1212.5" font-family="Helvetica,sans-Serif" font-size="10.00">+ imageSystem()</text>
<text text-anchor="start" x="218.23" y="-1201.5" font-family="Helvetica,sans-Serif" font-size="10.00">+ setImageSystem()</text>
<text text-anchor="start" x="218.23" y="-1190.5" font-family="Helvetica,sans-Serif" font-size="10.00">+ inputGSDFile()</text>
<text text-anchor="start" x="218.23" y="-1179.5" font-family="Helvetica,sans-Serif" font-size="10.00">+ outputDir()</text>
<text text-anchor="start" x="218.23" y="-1168.5" font-family="Helvetica,sans-Serif" font-size="10.00">+ setOutputDir()</text>
<text text-anchor="start" x="218.23" y="-1157.5" font-family="Helvetica,sans-Serif" font-size="10.00">+ gsdUtil()</text>
<text text-anchor="start" x="218.23" y="-1146.5" font-family="Helvetica,sans-Serif" font-size="10.00">+ handle()</text>
<text text-anchor="start" x="218.23" y="-1135.5" font-family="Helvetica,sans-Serif" font-size="10.00">+ setReturnVal()</text>
<text text-anchor="start" x="218.23" y="-1124.5" font-family="Helvetica,sans-Serif" font-size="10.00">+ returnVal()</text>
<text text-anchor="start" x="218.23" y="-1113.5" font-family="Helvetica,sans-Serif" font-size="10.00">+ setReturnBool()</text>
<text text-anchor="start" x="218.23" y="-1102.5" font-family="Helvetica,sans-Serif" font-size="10.00">+ returnBool()</text>
<text text-anchor="start" x="218.23" y="-1091.5" font-family="Helvetica,sans-Serif" font-size="10.00">+ gSDParsed()</text>
<text text-anchor="start" x="218.23" y="-1080.5" font-family="Helvetica,sans-Serif" font-size="10.00">+ sysSpecU0()</text>
<text text-anchor="start" x="218.23" y="-1069.5" font-family="Helvetica,sans-Serif" font-size="10.00">+ setSysSpecU0()</text>
<text text-anchor="start" x="218.23" y="-1058.5" font-family="Helvetica,sans-Serif" font-size="10.00">+ sysSpecOmega()</text>
<text text-anchor="start" x="218.23" y="-1047.5" font-family="Helvetica,sans-Serif" font-size="10.00">+ setSysSpecOmega()</text>
<text text-anchor="start" x="218.23" y="-1036.5" font-family="Helvetica,sans-Serif" font-size="10.00">+ sysSpecPhaseShift()</text>
<text text-anchor="start" x="218.23" y="-1025.5" font-family="Helvetica,sans-Serif" font-size="10.00">+ setSysSpecPhaseShift()</text>
<text text-anchor="start" x="218.23" y="-1014.5" font-family="Helvetica,sans-Serif" font-size="10.00">+ sysSpecRAvg()</text>
<text text-anchor="start" x="218.23" y="-1003.5" font-family="Helvetica,sans-Serif" font-size="10.00">+ setSysSpecRAvg()</text>
<text text-anchor="start" x="218.23" y="-992.5" font-family="Helvetica,sans-Serif" font-size="10.00">+ particleTypeId()</text>
<text text-anchor="start" x="218.23" y="-981.5" font-family="Helvetica,sans-Serif" font-size="10.00">+ setParticleTypeId()</text>
<text text-anchor="start" x="218.23" y="-970.5" font-family="Helvetica,sans-Serif" font-size="10.00">+ fluidDensity()</text>
<text text-anchor="start" x="218.23" y="-959.5" font-family="Helvetica,sans-Serif" font-size="10.00">+ setFluidDensity()</text>
<text text-anchor="start" x="218.23" y="-948.5" font-family="Helvetica,sans-Serif" font-size="10.00">+ particleDensity()</text>
<text text-anchor="start" x="218.23" y="-937.5" font-family="Helvetica,sans-Serif" font-size="10.00">+ setParticleDensity()</text>
<text text-anchor="start" x="218.23" y="-926.5" font-family="Helvetica,sans-Serif" font-size="10.00">+ wcaEpsilon()</text>
<text text-anchor="start" x="218.23" y="-915.5" font-family="Helvetica,sans-Serif" font-size="10.00">+ setWcaEpsilon()</text>
<text text-anchor="start" x="218.23" y="-904.5" font-family="Helvetica,sans-Serif" font-size="10.00">+ wcaSigma()</text>
<text text-anchor="start" x="218.23" y="-893.5" font-family="Helvetica,sans-Serif" font-size="10.00">+ setWcaSigma()</text>
<text text-anchor="start" x="218.23" y="-882.5" font-family="Helvetica,sans-Serif" font-size="10.00">+ numSpatialDim()</text>
<text text-anchor="start" x="218.23" y="-871.5" font-family="Helvetica,sans-Serif" font-size="10.00">+ setNumSpatialDim()</text>
<text text-anchor="start" x="218.23" y="-860.5" font-family="Helvetica,sans-Serif" font-size="10.00">+ numParticles()</text>
<text text-anchor="start" x="218.23" y="-849.5" font-family="Helvetica,sans-Serif" font-size="10.00">+ setNumParticles()</text>
<text text-anchor="start" x="218.23" y="-838.5" font-family="Helvetica,sans-Serif" font-size="10.00">+ numBodies()</text>
<text text-anchor="start" x="218.23" y="-827.5" font-family="Helvetica,sans-Serif" font-size="10.00">+ setNumBodies()</text>
<text text-anchor="start" x="218.23" y="-816.5" font-family="Helvetica,sans-Serif" font-size="10.00">+ numDoF()</text>
<text text-anchor="start" x="218.23" y="-805.5" font-family="Helvetica,sans-Serif" font-size="10.00">+ tensI3()</text>
<text text-anchor="start" x="218.23" y="-794.5" font-family="Helvetica,sans-Serif" font-size="10.00">+ i3()</text>
<text text-anchor="start" x="218.23" y="-783.5" font-family="Helvetica,sans-Serif" font-size="10.00">+ dt()</text>
<text text-anchor="start" x="218.23" y="-772.5" font-family="Helvetica,sans-Serif" font-size="10.00">+ setDt()</text>
<text text-anchor="start" x="218.23" y="-761.5" font-family="Helvetica,sans-Serif" font-size="10.00">+ tf()</text>
<text text-anchor="start" x="218.23" y="-750.5" font-family="Helvetica,sans-Serif" font-size="10.00">+ setTf()</text>
<text text-anchor="start" x="218.23" y="-739.5" font-family="Helvetica,sans-Serif" font-size="10.00">+ t()</text>
<text text-anchor="start" x="218.23" y="-728.5" font-family="Helvetica,sans-Serif" font-size="10.00">+ setT()</text>
<text text-anchor="start" x="218.23" y="-717.5" font-family="Helvetica,sans-Serif" font-size="10.00">+ tau()</text>
<text text-anchor="start" x="218.23" y="-706.5" font-family="Helvetica,sans-Serif" font-size="10.00">+ setTau()</text>
<text text-anchor="start" x="218.23" y="-695.5" font-family="Helvetica,sans-Serif" font-size="10.00">+ timestep()</text>
<text text-anchor="start" x="218.23" y="-684.5" font-family="Helvetica,sans-Serif" font-size="10.00">+ setTimestep()</text>
<text text-anchor="start" x="218.23" y="-673.5" font-family="Helvetica,sans-Serif" font-size="10.00">+ numStepsOutput()</text>
<text text-anchor="start" x="218.23" y="-662.5" font-family="Helvetica,sans-Serif" font-size="10.00">+ setNumStepsOutput()</text>
<text text-anchor="start" x="218.23" y="-651.5" font-family="Helvetica,sans-Serif" font-size="10.00">+ eHydroLoc()</text>
<text text-anchor="start" x="218.23" y="-640.5" font-family="Helvetica,sans-Serif" font-size="10.00">+ setEHydroLoc()</text>
<text text-anchor="start" x="218.23" y="-629.5" font-family="Helvetica,sans-Serif" font-size="10.00">+ eHydroLocInt()</text>
<text text-anchor="start" x="218.23" y="-618.5" font-family="Helvetica,sans-Serif" font-size="10.00">+ setEHydroLocInt()</text>
<text text-anchor="start" x="218.23" y="-607.5" font-family="Helvetica,sans-Serif" font-size="10.00">+ eHydroInt()</text>
<text text-anchor="start" x="218.23" y="-596.5" font-family="Helvetica,sans-Serif" font-size="10.00">+ setEHydroInt()</text>
<text text-anchor="start" x="218.23" y="-585.5" font-family="Helvetica,sans-Serif" font-size="10.00">+ eHydroSimple()</text>
<text text-anchor="start" x="218.23" y="-574.5" font-family="Helvetica,sans-Serif" font-size="10.00">+ setEHydroSimple()</text>
<text text-anchor="start" x="218.23" y="-563.5" font-family="Helvetica,sans-Serif" font-size="10.00">+ rbmConn()</text>
<text text-anchor="start" x="218.23" y="-552.5" font-family="Helvetica,sans-Serif" font-size="10.00">+ positionsBodies()</text>
<text text-anchor="start" x="218.23" y="-541.5" font-family="Helvetica,sans-Serif" font-size="10.00">+ setPositionsBodies()</text>
<text text-anchor="start" x="218.23" y="-530.5" font-family="Helvetica,sans-Serif" font-size="10.00">+ velocitiesBodies()</text>
<text text-anchor="start" x="218.23" y="-519.5" font-family="Helvetica,sans-Serif" font-size="10.00">+ setVelocitiesBodies()</text>
<text text-anchor="start" x="218.23" y="-508.5" font-family="Helvetica,sans-Serif" font-size="10.00">+ accelerationsBodies()</text>
<text text-anchor="start" x="218.23" y="-497.5" font-family="Helvetica,sans-Serif" font-size="10.00">+ setAccelerationsBodies()</text>
<text text-anchor="start" x="218.23" y="-486.5" font-family="Helvetica,sans-Serif" font-size="10.00">+ quaternionsParticles()</text>
<text text-anchor="start" x="218.23" y="-475.5" font-family="Helvetica,sans-Serif" font-size="10.00">+ setQuaternionsParticles()</text>
<text text-anchor="start" x="218.23" y="-464.5" font-family="Helvetica,sans-Serif" font-size="10.00">+ orientationsParticles()</text>
<text text-anchor="start" x="218.23" y="-453.5" font-family="Helvetica,sans-Serif" font-size="10.00">+ setOrientationsParticles()</text>
<text text-anchor="start" x="218.23" y="-442.5" font-family="Helvetica,sans-Serif" font-size="10.00">+ positionsParticles()</text>
<text text-anchor="start" x="218.23" y="-431.5" font-family="Helvetica,sans-Serif" font-size="10.00">+ setPositionsParticles()</text>
<text text-anchor="start" x="218.23" y="-420.5" font-family="Helvetica,sans-Serif" font-size="10.00">+ velocitiesParticles()</text>
<text text-anchor="start" x="218.23" y="-409.5" font-family="Helvetica,sans-Serif" font-size="10.00">+ setVelocitiesParticles()</text>
<text text-anchor="start" x="218.23" y="-398.5" font-family="Helvetica,sans-Serif" font-size="10.00">+ accelerationsParticles()</text>
<text text-anchor="start" x="218.23" y="-387.5" font-family="Helvetica,sans-Serif" font-size="10.00">+ setAccelerationsParticles()</text>
<text text-anchor="start" x="218.23" y="-376.5" font-family="Helvetica,sans-Serif" font-size="10.00">+ velocitiesParticlesArticulation()</text>
<text text-anchor="start" x="218.23" y="-365.5" font-family="Helvetica,sans-Serif" font-size="10.00">+ accelerationsParticlesArticulation()</text>
<text text-anchor="start" x="218.23" y="-354.5" font-family="Helvetica,sans-Serif" font-size="10.00">+ tensRbmConn()</text>
<text text-anchor="start" x="218.23" y="-343.5" font-family="Helvetica,sans-Serif" font-size="10.00">+ tensGradRbmConn()</text>
<text text-anchor="start" x="218.23" y="-332.5" font-family="Helvetica,sans-Serif" font-size="10.00">+ tensChi()</text>
<text text-anchor="start" x="218.23" y="-321.5" font-family="Helvetica,sans-Serif" font-size="10.00">+ udwadiaA()</text>
<text text-anchor="start" x="218.23" y="-310.5" font-family="Helvetica,sans-Serif" font-size="10.00">+ udwadiaB()</text>
<text text-anchor="start" x="218.23" y="-299.5" font-family="Helvetica,sans-Serif" font-size="10.00">&#45; parseGSD()</text>
<text text-anchor="start" x="218.23" y="-288.5" font-family="Helvetica,sans-Serif" font-size="10.00">&#45; checkInput()</text>
<text text-anchor="start" x="218.23" y="-277.5" font-family="Helvetica,sans-Serif" font-size="10.00">&#45; positionsArticulation()</text>
<text text-anchor="start" x="218.23" y="-266.5" font-family="Helvetica,sans-Serif" font-size="10.00">&#45; velocitiesArticulation()</text>
<text text-anchor="start" x="218.23" y="-255.5" font-family="Helvetica,sans-Serif" font-size="10.00">&#45; accelerationsArticulation()</text>
<text text-anchor="start" x="218.23" y="-244.5" font-family="Helvetica,sans-Serif" font-size="10.00">&#45; udwadiaLinearSystem()</text>
<text text-anchor="start" x="218.23" y="-233.5" font-family="Helvetica,sans-Serif" font-size="10.00">&#45; rbmMatrixElement()</text>
<text text-anchor="start" x="218.23" y="-222.5" font-family="Helvetica,sans-Serif" font-size="10.00">&#45; psiMatrixElement()</text>
<text text-anchor="start" x="218.23" y="-211.5" font-family="Helvetica,sans-Serif" font-size="10.00">&#45; chiMatrixElement()</text>
<text text-anchor="start" x="218.23" y="-200.5" font-family="Helvetica,sans-Serif" font-size="10.00">&#45; gradRbmConnTensorElement()</text>
<text text-anchor="start" x="218.23" y="-189.5" font-family="Helvetica,sans-Serif" font-size="10.00">&#45; rigidBodyMotionTensors()</text>
<text text-anchor="start" x="218.23" y="-178.5" font-family="Helvetica,sans-Serif" font-size="10.00">&#45; gradientChangeOfVariable</text>
<text text-anchor="start" x="218.23" y="-167.5" font-family="Helvetica,sans-Serif" font-size="10.00">Tensors()</text>
<text text-anchor="start" x="218.23" y="-156.5" font-family="Helvetica,sans-Serif" font-size="10.00">&#45; convertBody2ParticleOrient()</text>
<text text-anchor="start" x="218.23" y="-145.5" font-family="Helvetica,sans-Serif" font-size="10.00">&#45; convertBody2ParticlePos()</text>
<text text-anchor="start" x="218.23" y="-134.5" font-family="Helvetica,sans-Serif" font-size="10.00">&#45; convertBody2ParticleVelAcc()</text>
<text text-anchor="start" x="218.23" y="-123.5" font-family="Helvetica,sans-Serif" font-size="10.00">&#45; crossProdMat()</text>
<text text-anchor="start" x="218.23" y="-112.5" font-family="Helvetica,sans-Serif" font-size="10.00">&#45; eMatrix()</text>
</a>
</g>
</g>
<!-- Node3&#45;&gt;Node2 -->
<g id="edge2" class="edge">
<title>Node3&#45;&gt;Node2</title>
<path fill="none" stroke="#404040" d="M298.23,-105.12C298.23,-91.87 298.23,-80.11 298.23,-70.06"/>
<polygon fill="none" stroke="#404040" points="298.23,-69.84 294.23,-63.84 298.23,-57.84 302.23,-63.84 298.23,-69.84"/>
<text text-anchor="middle" x="308.73" y="-79" font-family="Helvetica,sans-Serif" font-size="10.00"> +ptr</text>
</g>
<!-- Node4 -->
<g id="node4" class="node">
<title>Node4</title>
<g id="a_node4"><a xlink:title=" ">
<polygon fill="none" stroke="#bfbfbf" points="422.73,-2003.5 422.73,-2071.5 557.73,-2071.5 557.73,-2003.5 422.73,-2003.5"/>
<text text-anchor="start" x="430.73" y="-2059.5" font-family="Helvetica,sans-Serif" font-size="10.00">std::enable_shared</text>
<text text-anchor="middle" x="490.23" y="-2048.5" font-family="Helvetica,sans-Serif" font-size="10.00">_from_this&lt; SystemData &gt;</text>
<polyline fill="none" stroke="#bfbfbf" points="422.73,-2041.5 557.73,-2041.5 "/>
<text text-anchor="middle" x="490.23" y="-2029.5" font-family="Helvetica,sans-Serif" font-size="10.00"> </text>
<polyline fill="none" stroke="#bfbfbf" points="422.73,-2022.5 557.73,-2022.5 "/>
<text text-anchor="middle" x="490.23" y="-2010.5" font-family="Helvetica,sans-Serif" font-size="10.00"> </text>
</a>
</g>
</g>
<!-- Node4&#45;&gt;Node3 -->
<g id="edge3" class="edge">
<title>Node4&#45;&gt;Node3</title>
<path fill="none" stroke="midnightblue" d="M482,-1993.42C465.1,-1904.96 424.82,-1694.12 386.27,-1492.31"/>
<polygon fill="none" stroke="midnightblue" points="478.58,-1994.18 483.9,-2003.35 485.46,-1992.87 478.58,-1994.18"/>
</g>
<!-- Node5&#45;&gt;Node3 -->
<g id="edge4" class="edge">
<title>Node5&#45;&gt;Node3</title>
<path fill="none" stroke="#404040" d="M175.7,-2008.84C181.47,-1962.81 193.89,-1863.79 208.69,-1745.68"/>
<polygon fill="none" stroke="#404040" points="208.73,-1745.35 205.51,-1738.9 210.23,-1733.45 213.45,-1739.9 208.73,-1745.35"/>
<text text-anchor="middle" x="204.73" y="-1977" font-family="Helvetica,sans-Serif" font-size="10.00"> &#45;m_gsdUtil</text>
</g>
<!-- Node6 -->
<g id="node6" class="node">
<title>Node6</title>
<g id="a_node6"><a xlink:title="STL class.">
<polygon fill="none" stroke="#bfbfbf" points="440.73,-2229.5 440.73,-2286.5 545.73,-2286.5 545.73,-2229.5 440.73,-2229.5"/>
<text text-anchor="middle" x="493.23" y="-2274.5" font-family="Helvetica,sans-Serif" font-size="10.00">std::shared_ptr&lt; T &gt;</text>
<polyline fill="none" stroke="#bfbfbf" points="440.73,-2267.5 545.73,-2267.5 "/>
<text text-anchor="middle" x="493.23" y="-2255.5" font-family="Helvetica,sans-Serif" font-size="10.00"> </text>
<polyline fill="none" stroke="#bfbfbf" points="440.73,-2248.5 545.73,-2248.5 "/>
<text text-anchor="start" x="448.73" y="-2236.5" font-family="Helvetica,sans-Serif" font-size="10.00">+ operator&#45;&gt;()</text>
</a>
</g>
</g>
<!-- Node6&#45;&gt;Node2 -->
<g id="edge13" class="edge">
<title>Node6&#45;&gt;Node2</title>
<path fill="none" stroke="orange" d="M522.42,-2221.12C539.44,-2197.83 559.26,-2165.95 568.23,-2134 570.14,-2127.2 569.45,-2046.48 567.23,-2003 524.11,-1157.09 802.42,-847.72 395.23,-105 384.64,-85.68 366.76,-69.72 349.21,-57.57"/>
<polygon fill="orange" stroke="orange" points="519.49,-2219.2 516.31,-2229.3 525.1,-2223.39 519.49,-2219.2"/>
<text text-anchor="middle" x="604.23" y="-1977" font-family="Helvetica,sans-Serif" font-size="10.00"> &lt; SystemData &gt;</text>
</g>
<!-- Node6&#45;&gt;Node5 -->
<g id="edge6" class="edge">
<title>Node6&#45;&gt;Node5</title>
<path fill="none" stroke="orange" d="M468.09,-2221.18C451.15,-2196.8 428.47,-2163.7 409.23,-2134 396.76,-2114.74 401.09,-2103.06 382.23,-2090 347.62,-2066.03 330.18,-2081.8 289.23,-2072 273.51,-2068.24 256.74,-2063.73 240.95,-2059.26"/>
<polygon fill="orange" stroke="orange" points="465.24,-2223.21 473.83,-2229.41 470.98,-2219.21 465.24,-2223.21"/>
<text text-anchor="middle" x="438.23" y="-2109.5" font-family="Helvetica,sans-Serif" font-size="10.00"> &lt; GSDUtil &gt;</text>
</g>
<!-- Node10 -->
<g id="node10" class="node">
<title>Node10</title>
<g id="a_node10"><a xlink:title=" ">
<polygon fill="none" stroke="#bfbfbf" points="297.73,-2003.5 297.73,-2071.5 404.73,-2071.5 404.73,-2003.5 297.73,-2003.5"/>
<text text-anchor="start" x="305.73" y="-2059.5" font-family="Helvetica,sans-Serif" font-size="10.00">std::shared_ptr&lt; gsd</text>
<text text-anchor="middle" x="351.23" y="-2048.5" font-family="Helvetica,sans-Serif" font-size="10.00">_handle &gt;</text>
<polyline fill="none" stroke="#bfbfbf" points="297.73,-2041.5 404.73,-2041.5 "/>
<text text-anchor="middle" x="351.23" y="-2029.5" font-family="Helvetica,sans-Serif" font-size="10.00"> </text>
<polyline fill="none" stroke="#bfbfbf" points="297.73,-2022.5 404.73,-2022.5 "/>
<text text-anchor="middle" x="351.23" y="-2010.5" font-family="Helvetica,sans-Serif" font-size="10.00"> </text>
</a>
</g>
</g>
<!-- Node6&#45;&gt;Node10 -->
<g id="edge12" class="edge">
<title>Node6&#45;&gt;Node10</title>
<path fill="none" stroke="orange" d="M499,-2218.78C502.37,-2181.61 501.17,-2125.69 471.23,-2090 454.16,-2069.65 438.73,-2082.28 414.23,-2072 411.15,-2070.71 408.01,-2069.31 404.87,-2067.85"/>
<polygon fill="orange" stroke="orange" points="495.47,-2218.89 497.9,-2229.2 502.43,-2219.62 495.47,-2218.89"/>
<text text-anchor="middle" x="528.73" y="-2109.5" font-family="Helvetica,sans-Serif" font-size="10.00"> &lt; gsd_handle &gt;</text>
</g>
<!-- Node7 -->
<g id="node7" class="node">
<title>Node7</title>
<g id="a_node7"><a xlink:title=" ">
<polygon fill="none" stroke="#bfbfbf" points="478.73,-2422.5 478.73,-2479.5 507.73,-2479.5 507.73,-2422.5 478.73,-2422.5"/>
<text text-anchor="middle" x="493.23" y="-2467.5" font-family="Helvetica,sans-Serif" font-size="10.00">T</text>
<polyline fill="none" stroke="#bfbfbf" points="478.73,-2460.5 507.73,-2460.5 "/>
<text text-anchor="middle" x="493.23" y="-2448.5" font-family="Helvetica,sans-Serif" font-size="10.00"> </text>
<polyline fill="none" stroke="#bfbfbf" points="478.73,-2441.5 507.73,-2441.5 "/>
<text text-anchor="middle" x="493.23" y="-2429.5" font-family="Helvetica,sans-Serif" font-size="10.00"> </text>
</a>
</g>
</g>
<!-- Node7&#45;&gt;Node6 -->
<g id="edge7" class="edge">
<title>Node7&#45;&gt;Node6</title>
<path fill="none" stroke="#404040" d="M493.23,-2422.23C493.23,-2389.83 493.23,-2336.02 493.23,-2299.1"/>
<polygon fill="none" stroke="#404040" points="493.23,-2298.81 489.23,-2292.81 493.23,-2286.81 497.23,-2292.81 493.23,-2298.81"/>
<text text-anchor="middle" x="503.73" y="-2390.5" font-family="Helvetica,sans-Serif" font-size="10.00"> +ptr</text>
</g>
<!-- Node8 -->
<g id="node8" class="node">
<title>Node8</title>
<g id="a_node8"><a xlink:title="STL class.">
<polygon fill="none" stroke="#bfbfbf" points="197.23,-2422.5 197.23,-2479.5 257.23,-2479.5 257.23,-2422.5 197.23,-2422.5"/>
<text text-anchor="middle" x="227.23" y="-2467.5" font-family="Helvetica,sans-Serif" font-size="10.00">std::string</text>
<polyline fill="none" stroke="#bfbfbf" points="197.23,-2460.5 257.23,-2460.5 "/>
<text text-anchor="middle" x="227.23" y="-2448.5" font-family="Helvetica,sans-Serif" font-size="10.00"> </text>
<polyline fill="none" stroke="#bfbfbf" points="197.23,-2441.5 257.23,-2441.5 "/>
<text text-anchor="middle" x="227.23" y="-2429.5" font-family="Helvetica,sans-Serif" font-size="10.00"> </text>
</a>
</g>
</g>
<!-- Node8&#45;&gt;Node1 -->
<g id="edge14" class="edge">
<title>Node8&#45;&gt;Node1</title>
<path fill="none" stroke="#404040" d="M205.86,-2422.36C202.17,-2416.54 198.72,-2410.26 196.23,-2404 192.65,-2394.98 189.6,-2385.44 187,-2375.74"/>
<polygon fill="none" stroke="#404040" points="186.94,-2375.49 181.62,-2370.62 184.06,-2363.84 189.38,-2368.7 186.94,-2375.49"/>
<text text-anchor="middle" x="225.73" y="-2396" font-family="Helvetica,sans-Serif" font-size="10.00"> &#45;m_logName</text>
<text text-anchor="middle" x="225.73" y="-2385" font-family="Helvetica,sans-Serif" font-size="10.00">&#45;m_logFile</text>
</g>
<!-- Node8&#45;&gt;Node3 -->
<g id="edge8" class="edge">
<title>Node8&#45;&gt;Node3</title>
<path fill="none" stroke="#404040" d="M247.14,-2422.37C250.43,-2416.55 253.37,-2410.27 255.23,-2404 263.04,-2377.75 270.78,-2193.4 277.5,-1967.88"/>
<polygon fill="none" stroke="#404040" points="277.51,-1967.73 273.69,-1961.61 277.86,-1955.73 281.69,-1961.85 277.51,-1967.73"/>
<text text-anchor="middle" x="311.23" y="-2126" font-family="Helvetica,sans-Serif" font-size="10.00"> &#45;m_outputDir</text>
<text text-anchor="middle" x="311.23" y="-2115" font-family="Helvetica,sans-Serif" font-size="10.00">&#45;m_logName</text>
<text text-anchor="middle" x="311.23" y="-2104" font-family="Helvetica,sans-Serif" font-size="10.00">&#45;m_logFile</text>
<text text-anchor="middle" x="311.23" y="-2093" font-family="Helvetica,sans-Serif" font-size="10.00">&#45;m_inputGSDFile</text>
</g>
<!-- Node9 -->
<g id="node9" class="node">
<title>Node9</title>
<g id="a_node9"><a xlink:title="STL class.">
<polygon fill="none" stroke="#bfbfbf" points="179.73,-2517.5 179.73,-2585.5 274.73,-2585.5 274.73,-2517.5 179.73,-2517.5"/>
<text text-anchor="start" x="187.73" y="-2573.5" font-family="Helvetica,sans-Serif" font-size="10.00">std::basic_string&lt;</text>
<text text-anchor="middle" x="227.23" y="-2562.5" font-family="Helvetica,sans-Serif" font-size="10.00"> char &gt;</text>
<polyline fill="none" stroke="#bfbfbf" points="179.73,-2555.5 274.73,-2555.5 "/>
<text text-anchor="middle" x="227.23" y="-2543.5" font-family="Helvetica,sans-Serif" font-size="10.00"> </text>
<polyline fill="none" stroke="#bfbfbf" points="179.73,-2536.5 274.73,-2536.5 "/>
<text text-anchor="middle" x="227.23" y="-2524.5" font-family="Helvetica,sans-Serif" font-size="10.00"> </text>
</a>
</g>
</g>
<!-- Node9&#45;&gt;Node8 -->
<g id="edge9" class="edge">
<title>Node9&#45;&gt;Node8</title>
<path fill="none" stroke="midnightblue" d="M227.23,-2507.38C227.23,-2497.94 227.23,-2488.2 227.23,-2479.57"/>
<polygon fill="none" stroke="midnightblue" points="223.73,-2507.43 227.23,-2517.43 230.73,-2507.43 223.73,-2507.43"/>
</g>
<!-- Node10&#45;&gt;Node3 -->
<g id="edge10" class="edge">
<title>Node10&#45;&gt;Node3</title>
<path fill="none" stroke="#404040" d="M349.48,-2003.35C348.97,-1993.5 348.34,-1981.65 347.62,-1968.06"/>
<polygon fill="none" stroke="#404040" points="347.6,-1967.66 343.29,-1961.88 346.97,-1955.67 351.28,-1961.45 347.6,-1967.66"/>
<text text-anchor="middle" x="372.73" y="-1977" font-family="Helvetica,sans-Serif" font-size="10.00"> &#45;m_handle</text>
</g>
<!-- Node11 -->
<g id="node11" class="node">
<title>Node11</title>
<g id="a_node11"><a xlink:title=" ">
<polygon fill="none" stroke="#bfbfbf" points="335.23,-2229.5 335.23,-2286.5 401.23,-2286.5 401.23,-2229.5 335.23,-2229.5"/>
<text text-anchor="middle" x="368.23" y="-2274.5" font-family="Helvetica,sans-Serif" font-size="10.00">gsd_handle</text>
<polyline fill="none" stroke="#bfbfbf" points="335.23,-2267.5 401.23,-2267.5 "/>
<text text-anchor="middle" x="368.23" y="-2255.5" font-family="Helvetica,sans-Serif" font-size="10.00"> </text>
<polyline fill="none" stroke="#bfbfbf" points="335.23,-2248.5 401.23,-2248.5 "/>
<text text-anchor="middle" x="368.23" y="-2236.5" font-family="Helvetica,sans-Serif" font-size="10.00"> </text>
</a>
</g>
</g>
<!-- Node11&#45;&gt;Node10 -->
<g id="edge11" class="edge">
<title>Node11&#45;&gt;Node10</title>
<path fill="none" stroke="#404040" d="M366.08,-2229.33C363.23,-2192.67 358.16,-2127.54 354.75,-2083.69"/>
<polygon fill="none" stroke="#404040" points="354.74,-2083.62 350.29,-2077.94 353.81,-2071.65 358.27,-2077.32 354.74,-2083.62"/>
<text text-anchor="middle" x="367.73" y="-2109.5" font-family="Helvetica,sans-Serif" font-size="10.00"> +ptr</text>
</g>
</g>
</svg>
