<?xml version="1.0" encoding="UTF-8" standalone="no"?>
<!DOCTYPE svg PUBLIC "-//W3C//DTD SVG 1.1//EN"
 "http://www.w3.org/Graphics/SVG/1.1/DTD/svg11.dtd">
<!-- Generated by graphviz version 2.43.0 (0)
 -->
<!-- Title: systemData::initializeData Pages: 1 -->
<svg width="706pt" height="312pt"
 viewBox="0.00 0.00 706.00 312.00" xmlns="http://www.w3.org/2000/svg" xmlns:xlink="http://www.w3.org/1999/xlink">
<g id="graph0" class="graph" transform="scale(1 1) rotate(0) translate(4 308)">
<title>systemData::initializeData</title>
<!-- Node1 -->
<g id="node1" class="node">
<title>Node1</title>
<g id="a_node1"><a xlink:title="Function loads data from GSD file using GSDUtil class. Must be called after class construction before...">
<polygon fill="#bfbfbf" stroke="black" points="0,-161.5 0,-180.5 132,-180.5 132,-161.5 0,-161.5"/>
<text text-anchor="middle" x="66" y="-168.5" font-family="Helvetica,sans-Serif" font-size="10.00">systemData::initializeData</text>
</a>
</g>
</g>
<!-- Node2 -->
<g id="node2" class="node">
<title>Node2</title>
<g id="a_node2"><a xlink:href="classsystemData.html#a74a503e80869c3ef4a9b6edefd132726" target="_top" xlink:title=" ">
<polygon fill="none" stroke="black" points="184.5,-232.5 184.5,-251.5 306.5,-251.5 306.5,-232.5 184.5,-232.5"/>
<text text-anchor="middle" x="245.5" y="-239.5" font-family="Helvetica,sans-Serif" font-size="10.00">systemData::parseGSD</text>
</a>
</g>
</g>
<!-- Node1&#45;&gt;Node2 -->
<g id="edge1" class="edge">
<title>Node1&#45;&gt;Node2</title>
<path fill="none" stroke="midnightblue" d="M90.94,-180.58C121.99,-193 176.32,-214.73 211.33,-228.73"/>
<polygon fill="midnightblue" stroke="midnightblue" points="210.07,-232 220.66,-232.46 212.67,-225.5 210.07,-232"/>
</g>
<!-- Node4 -->
<g id="node4" class="node">
<title>Node4</title>
<g id="a_node4"><a xlink:href="classsystemData.html#a3c7862901ce425c4d5e6001efa3ef61d" target="_top" xlink:title="Updates the kinematic constraints relative to the chosen locater particles for both velocity and acce...">
<polygon fill="none" stroke="black" points="168,-142.5 168,-161.5 323,-161.5 323,-142.5 168,-142.5"/>
<text text-anchor="middle" x="245.5" y="-149.5" font-family="Helvetica,sans-Serif" font-size="10.00">systemData::updateConstraints</text>
</a>
</g>
</g>
<!-- Node1&#45;&gt;Node4 -->
<g id="edge3" class="edge">
<title>Node1&#45;&gt;Node4</title>
<path fill="none" stroke="midnightblue" d="M132.09,-164.03C140.48,-163.13 149.17,-162.2 157.84,-161.28"/>
<polygon fill="midnightblue" stroke="midnightblue" points="158.42,-164.73 167.99,-160.19 157.67,-157.77 158.42,-164.73"/>
</g>
<!-- Node3 -->
<g id="node3" class="node">
<title>Node3</title>
<g id="a_node3"><a xlink:href="classsystemData.html#a3f978844a3292e9ca096be6741c48dc2" target="_top" xlink:title=" ">
<polygon fill="none" stroke="black" points="380,-284.5 380,-303.5 504,-303.5 504,-284.5 380,-284.5"/>
<text text-anchor="middle" x="442" y="-291.5" font-family="Helvetica,sans-Serif" font-size="10.00">systemData::checkInput</text>
</a>
</g>
</g>
<!-- Node2&#45;&gt;Node3 -->
<g id="edge2" class="edge">
<title>Node2&#45;&gt;Node3</title>
<path fill="none" stroke="midnightblue" d="M277.4,-251.59C299.93,-258.45 331.24,-267.72 359,-275 368.23,-277.42 378.09,-279.84 387.66,-282.11"/>
<polygon fill="midnightblue" stroke="midnightblue" points="386.94,-285.54 397.48,-284.41 388.54,-278.72 386.94,-285.54"/>
</g>
<!-- Node5 -->
<g id="node5" class="node">
<title>Node5</title>
<g id="a_node5"><a xlink:href="classsystemData.html#abdbaf4be474add633c79ce9f4812b438" target="_top" xlink:title=" ">
<polygon fill="none" stroke="black" points="375,-235 375,-265 509,-265 509,-235 375,-235"/>
<text text-anchor="start" x="383" y="-253" font-family="Helvetica,sans-Serif" font-size="10.00">systemData::accelerations</text>
<text text-anchor="middle" x="442" y="-242" font-family="Helvetica,sans-Serif" font-size="10.00">Articulation</text>
</a>
</g>
</g>
<!-- Node4&#45;&gt;Node5 -->
<g id="edge4" class="edge">
<title>Node4&#45;&gt;Node5</title>
<path fill="none" stroke="midnightblue" d="M258.6,-161.73C278.48,-177.28 319.75,-207.84 359,-226 363.13,-227.91 367.44,-229.7 371.83,-231.39"/>
<polygon fill="midnightblue" stroke="midnightblue" points="370.95,-234.79 381.55,-234.89 373.33,-228.2 370.95,-234.79"/>
</g>
<!-- Node6 -->
<g id="node6" class="node">
<title>Node6</title>
<g id="a_node6"><a xlink:href="classsystemData.html#aca5c01655d711e9088b3f1e9d7578612" target="_top" xlink:title=" ">
<polygon fill="none" stroke="black" points="370,-186 370,-216 514,-216 514,-186 370,-186"/>
<text text-anchor="start" x="378" y="-204" font-family="Helvetica,sans-Serif" font-size="10.00">systemData::gradientChange</text>
<text text-anchor="middle" x="442" y="-193" font-family="Helvetica,sans-Serif" font-size="10.00">OfVariableTensors</text>
</a>
</g>
</g>
<!-- Node4&#45;&gt;Node6 -->
<g id="edge5" class="edge">
<title>Node4&#45;&gt;Node6</title>
<path fill="none" stroke="midnightblue" d="M284.46,-161.56C309.2,-167.79 342.2,-176.11 371.53,-183.5"/>
<polygon fill="midnightblue" stroke="midnightblue" points="370.76,-186.91 381.31,-185.96 372.47,-180.13 370.76,-186.91"/>
</g>
<!-- Node9 -->
<g id="node9" class="node">
<title>Node9</title>
<g id="a_node9"><a xlink:href="classsystemData.html#ab3fc7f3cc4c79bbad6e9bb73e127e8c3" target="_top" xlink:title=" ">
<polygon fill="none" stroke="black" points="378,-137 378,-167 506,-167 506,-137 378,-137"/>
<text text-anchor="start" x="386" y="-155" font-family="Helvetica,sans-Serif" font-size="10.00">systemData::locaterPoint</text>
<text text-anchor="middle" x="442" y="-144" font-family="Helvetica,sans-Serif" font-size="10.00">Locations</text>
</a>
</g>
</g>
<!-- Node4&#45;&gt;Node9 -->
<g id="edge8" class="edge">
<title>Node4&#45;&gt;Node9</title>
<path fill="none" stroke="midnightblue" d="M323.09,-152C337.86,-152 353.3,-152 367.95,-152"/>
<polygon fill="midnightblue" stroke="midnightblue" points="367.95,-155.5 377.95,-152 367.95,-148.5 367.95,-155.5"/>
</g>
<!-- Node10 -->
<g id="node10" class="node">
<title>Node10</title>
<g id="a_node10"><a xlink:href="classsystemData.html#a415007558c07b03a6cfeb973ec97fa3f" target="_top" xlink:title=" ">
<polygon fill="none" stroke="black" points="369,-88 369,-118 515,-118 515,-88 369,-88"/>
<text text-anchor="start" x="377" y="-106" font-family="Helvetica,sans-Serif" font-size="10.00">systemData::rigidBodyMotion</text>
<text text-anchor="middle" x="442" y="-95" font-family="Helvetica,sans-Serif" font-size="10.00">Tensors</text>
</a>
</g>
</g>
<!-- Node4&#45;&gt;Node10 -->
<g id="edge9" class="edge">
<title>Node4&#45;&gt;Node10</title>
<path fill="none" stroke="midnightblue" d="M284.46,-142.44C309.2,-136.21 342.2,-127.89 371.53,-120.5"/>
<polygon fill="midnightblue" stroke="midnightblue" points="372.47,-123.87 381.31,-118.04 370.76,-117.09 372.47,-123.87"/>
</g>
<!-- Node12 -->
<g id="node12" class="node">
<title>Node12</title>
<g id="a_node12"><a xlink:href="classsystemData.html#aa797226f69baaa83c559c481dee8381b" target="_top" xlink:title=" ">
<polygon fill="none" stroke="black" points="373,-39 373,-69 511,-69 511,-39 373,-39"/>
<text text-anchor="start" x="381" y="-57" font-family="Helvetica,sans-Serif" font-size="10.00">systemData::udwadiaLinear</text>
<text text-anchor="middle" x="442" y="-46" font-family="Helvetica,sans-Serif" font-size="10.00">System</text>
</a>
</g>
</g>
<!-- Node4&#45;&gt;Node12 -->
<g id="edge12" class="edge">
<title>Node4&#45;&gt;Node12</title>
<path fill="none" stroke="midnightblue" d="M258.6,-142.27C278.48,-126.72 319.75,-96.16 359,-78 363.13,-76.09 367.44,-74.3 371.83,-72.61"/>
<polygon fill="midnightblue" stroke="midnightblue" points="373.33,-75.8 381.55,-69.11 370.95,-69.21 373.33,-75.8"/>
</g>
<!-- Node13 -->
<g id="node13" class="node">
<title>Node13</title>
<g id="a_node13"><a xlink:href="classsystemData.html#a4b449c0f7702a7140fca05ca3722092b" target="_top" xlink:title=" ">
<polygon fill="none" stroke="black" points="359,-0.5 359,-19.5 525,-19.5 525,-0.5 359,-0.5"/>
<text text-anchor="middle" x="442" y="-7.5" font-family="Helvetica,sans-Serif" font-size="10.00">systemData::velocitiesArticulation</text>
</a>
</g>
</g>
<!-- Node4&#45;&gt;Node13 -->
<g id="edge13" class="edge">
<title>Node4&#45;&gt;Node13</title>
<path fill="none" stroke="midnightblue" d="M252.45,-142.18C267.26,-118.61 308.28,-58.64 359,-29 362.87,-26.74 366.98,-24.75 371.23,-23"/>
<polygon fill="midnightblue" stroke="midnightblue" points="372.52,-26.25 380.7,-19.52 370.11,-19.68 372.52,-26.25"/>
</g>
<!-- Node7 -->
<g id="node7" class="node">
<title>Node7</title>
<g id="a_node7"><a xlink:href="classsystemData.html#a19a83a255eb6f1de4bcfe2ea8e31ffa9" target="_top" xlink:title="Computes the E matrix of quaternion (4&#45;vector) input.">
<polygon fill="none" stroke="black" points="575.5,-142.5 575.5,-161.5 683.5,-161.5 683.5,-142.5 575.5,-142.5"/>
<text text-anchor="middle" x="629.5" y="-149.5" font-family="Helvetica,sans-Serif" font-size="10.00">systemData::eMatrix</text>
</a>
</g>
</g>
<!-- Node6&#45;&gt;Node7 -->
<g id="edge6" class="edge">
<title>Node6&#45;&gt;Node7</title>
<path fill="none" stroke="midnightblue" d="M499.92,-185.97C526.41,-178.97 557.51,-170.75 582.48,-164.16"/>
<polygon fill="midnightblue" stroke="midnightblue" points="583.66,-167.47 592.43,-161.53 581.87,-160.7 583.66,-167.47"/>
</g>
<!-- Node8 -->
<g id="node8" class="node">
<title>Node8</title>
<g id="a_node8"><a xlink:href="helper__eigenTensorConversion_8h.html#a3a32f7de3f099464192073a93b34d580" target="_top" xlink:title="Convert Eigen::Matrix &#45;&#45;&gt; Eigen::Tensor.">
<polygon fill="none" stroke="black" points="596,-191.5 596,-210.5 663,-210.5 663,-191.5 596,-191.5"/>
<text text-anchor="middle" x="629.5" y="-198.5" font-family="Helvetica,sans-Serif" font-size="10.00">TensorCast</text>
</a>
</g>
</g>
<!-- Node6&#45;&gt;Node8 -->
<g id="edge7" class="edge">
<title>Node6&#45;&gt;Node8</title>
<path fill="none" stroke="midnightblue" d="M514.19,-201C538.14,-201 564.12,-201 585.25,-201"/>
<polygon fill="midnightblue" stroke="midnightblue" points="585.51,-204.5 595.51,-201 585.51,-197.5 585.51,-204.5"/>
</g>
<!-- Node10&#45;&gt;Node7 -->
<g id="edge11" class="edge">
<title>Node10&#45;&gt;Node7</title>
<path fill="none" stroke="midnightblue" d="M499.92,-118.03C526.41,-125.03 557.51,-133.25 582.48,-139.84"/>
<polygon fill="midnightblue" stroke="midnightblue" points="581.87,-143.3 592.43,-142.47 583.66,-136.53 581.87,-143.3"/>
</g>
<!-- Node11 -->
<g id="node11" class="node">
<title>Node11</title>
<g id="a_node11"><a xlink:href="classsystemData.html#a0a77c933b764fb36c64ec5e66011482c" target="_top" xlink:title="Function takes in vector in vector cross&#45;product expression: $c = a \times b$.">
<polygon fill="none" stroke="black" points="561,-93.5 561,-112.5 698,-112.5 698,-93.5 561,-93.5"/>
<text text-anchor="middle" x="629.5" y="-100.5" font-family="Helvetica,sans-Serif" font-size="10.00">systemData::crossProdMat</text>
</a>
</g>
</g>
<!-- Node10&#45;&gt;Node11 -->
<g id="edge10" class="edge">
<title>Node10&#45;&gt;Node11</title>
<path fill="none" stroke="midnightblue" d="M515.25,-103C526.9,-103 538.99,-103 550.76,-103"/>
<polygon fill="midnightblue" stroke="midnightblue" points="551,-106.5 561,-103 551,-99.5 551,-106.5"/>
</g>
</g>
</svg>
