<?xml version="1.0" encoding="UTF-8" standalone="no"?>
<!DOCTYPE svg PUBLIC "-//W3C//DTD SVG 1.1//EN"
 "http://www.w3.org/Graphics/SVG/1.1/DTD/svg11.dtd">
<!-- Generated by graphviz version 2.43.0 (0)
 -->
<!-- Title: plotStyling.PlotStyling.save_plot Pages: 1 -->
<svg width="357pt" height="88pt"
 viewBox="0.00 0.00 357.00 88.00" xmlns="http://www.w3.org/2000/svg" xmlns:xlink="http://www.w3.org/1999/xlink">
<g id="graph0" class="graph" transform="scale(1 1) rotate(0) translate(4 84)">
<title>plotStyling.PlotStyling.save_plot</title>
<!-- Node1 -->
<g id="node1" class="node">
<title>Node1</title>
<g id="a_node1"><a xlink:title=" ">
<polygon fill="#bfbfbf" stroke="black" points="0,-30 0,-49 158,-49 158,-30 0,-30"/>
<text text-anchor="middle" x="79" y="-37" font-family="Helvetica,sans-Serif" font-size="10.00">plotStyling.PlotStyling.save_plot</text>
</a>
</g>
</g>
<!-- Node2 -->
<g id="node2" class="node">
<title>Node2</title>
<g id="a_node2"><a xlink:href="classplotStyling_1_1PlotStyling.html#a5a1a500ff6a749cb493c1c462f895f2d" target="_top" xlink:title=" ">
<polygon fill="none" stroke="black" points="208.5,-49.5 208.5,-79.5 334.5,-79.5 334.5,-49.5 208.5,-49.5"/>
<text text-anchor="start" x="216.5" y="-67.5" font-family="Helvetica,sans-Serif" font-size="10.00">plotStyling.PlotStyling.fix</text>
<text text-anchor="middle" x="271.5" y="-56.5" font-family="Helvetica,sans-Serif" font-size="10.00">_unicode_chars</text>
</a>
</g>
</g>
<!-- Node1&#45;&gt;Node2 -->
<g id="edge1" class="edge">
<title>Node1&#45;&gt;Node2</title>
<path fill="none" stroke="midnightblue" d="M152.56,-49.02C167.51,-50.98 183.26,-53.05 198.2,-55.01"/>
<polygon fill="midnightblue" stroke="midnightblue" points="198.02,-58.52 208.39,-56.35 198.93,-51.58 198.02,-58.52"/>
</g>
<!-- Node3 -->
<g id="node3" class="node">
<title>Node3</title>
<g id="a_node3"><a xlink:href="classplotStyling_1_1PlotStyling.html#af55eef9a9a971ad605299cd47e19eea9" target="_top" xlink:title=" ">
<polygon fill="none" stroke="black" points="194,-0.5 194,-30.5 349,-30.5 349,-0.5 194,-0.5"/>
<text text-anchor="start" x="202" y="-18.5" font-family="Helvetica,sans-Serif" font-size="10.00">plotStyling.PlotStyling.suppress</text>
<text text-anchor="middle" x="271.5" y="-7.5" font-family="Helvetica,sans-Serif" font-size="10.00">_stdout</text>
</a>
</g>
</g>
<!-- Node1&#45;&gt;Node3 -->
<g id="edge2" class="edge">
<title>Node1&#45;&gt;Node3</title>
<path fill="none" stroke="midnightblue" d="M155.56,-29.98C164.79,-28.82 174.28,-27.62 183.66,-26.44"/>
<polygon fill="midnightblue" stroke="midnightblue" points="184.3,-29.89 193.78,-25.17 183.42,-22.94 184.3,-29.89"/>
</g>
</g>
</svg>
