<?xml version="1.0" encoding="UTF-8" standalone="no"?>
<!DOCTYPE svg PUBLIC "-//W3C//DTD SVG 1.1//EN"
 "http://www.w3.org/Graphics/SVG/1.1/DTD/svg11.dtd">
<!-- Generated by graphviz version 2.49.1 (20210923.0004)
 -->
<!-- Title: StopWatchLinux::getDiffTime Pages: 1 -->
<svg width="319pt" height="66pt"
 viewBox="0.00 0.00 319.00 66.00" xmlns="http://www.w3.org/2000/svg" xmlns:xlink="http://www.w3.org/1999/xlink">
<g id="graph0" class="graph" transform="scale(1 1) rotate(0) translate(4 62)">
<title>StopWatchLinux::getDiffTime</title>
<!-- Node1 -->
<g id="node1" class="node">
<title>Node1</title>
<g id="a_node1"><a xlink:title="Get difference between start time and current time.">
<polygon fill="#bfbfbf" stroke="black" points="166,-19.5 166,-38.5 311,-38.5 311,-19.5 166,-19.5"/>
<text text-anchor="middle" x="238.5" y="-26.5" font-family="Helvetica,sans-Serif" font-size="10.00">StopWatchLinux::getDiffTime</text>
</a>
</g>
</g>
<!-- Node2 -->
<g id="node2" class="node">
<title>Node2</title>
<g id="a_node2"><a xlink:href="classStopWatchLinux.html#a7e211f57179ab20e6814127318e9f0f8" target="_top" xlink:title=" ">
<polygon fill="none" stroke="black" points="0,-38.5 0,-57.5 130,-57.5 130,-38.5 0,-38.5"/>
<text text-anchor="middle" x="65" y="-45.5" font-family="Helvetica,sans-Serif" font-size="10.00">StopWatchLinux::getTime</text>
</a>
</g>
</g>
<!-- Node1&#45;&gt;Node2 -->
<g id="edge1" class="edge">
<title>Node1&#45;&gt;Node2</title>
<path fill="none" stroke="midnightblue" d="M155.71,-38.06C147.1,-39.02 138.44,-39.97 130.08,-40.9"/>
<polygon fill="midnightblue" stroke="midnightblue" points="156.21,-41.53 165.76,-36.95 155.44,-34.57 156.21,-41.53"/>
</g>
<!-- Node3 -->
<g id="node3" class="node">
<title>Node3</title>
<g id="a_node3"><a xlink:href="classStopWatchLinux.html#aea4fb94c36ad6d01cb371afa0aae0926" target="_top" xlink:title="Stop time measurement.">
<polygon fill="none" stroke="black" points="8.5,-0.5 8.5,-19.5 121.5,-19.5 121.5,-0.5 8.5,-0.5"/>
<text text-anchor="middle" x="65" y="-7.5" font-family="Helvetica,sans-Serif" font-size="10.00">StopWatchLinux::stop</text>
</a>
</g>
</g>
<!-- Node1&#45;&gt;Node3 -->
<g id="edge2" class="edge">
<title>Node1&#45;&gt;Node3</title>
<path fill="none" stroke="midnightblue" d="M155.65,-19.93C144.09,-18.65 132.44,-17.36 121.54,-16.15"/>
<polygon fill="midnightblue" stroke="midnightblue" points="155.44,-23.43 165.76,-21.05 156.21,-16.47 155.44,-23.43"/>
</g>
</g>
</svg>
