<?xml version="1.0" encoding="UTF-8" standalone="no"?>
<!DOCTYPE svg PUBLIC "-//W3C//DTD SVG 1.1//EN"
 "http://www.w3.org/Graphics/SVG/1.1/DTD/svg11.dtd">
<!-- Generated by graphviz version 2.43.0 (0)
 -->
<!-- Title: systemData::~systemData Pages: 1 -->
<svg width="547pt" height="104pt"
 viewBox="0.00 0.00 547.00 104.00" xmlns="http://www.w3.org/2000/svg" xmlns:xlink="http://www.w3.org/1999/xlink">
<g id="graph0" class="graph" transform="scale(1 1) rotate(0) translate(4 100)">
<title>systemData::~systemData</title>
<!-- Node1 -->
<g id="node1" class="node">
<title>Node1</title>
<g id="a_node1"><a xlink:title=" ">
<polygon fill="#bfbfbf" stroke="black" points="0,-38.5 0,-57.5 135,-57.5 135,-38.5 0,-38.5"/>
<text text-anchor="middle" x="67.5" y="-45.5" font-family="Helvetica,sans-Serif" font-size="10.00">systemData::~systemData</text>
</a>
</g>
</g>
<!-- Node2 -->
<g id="node2" class="node">
<title>Node2</title>
<g id="a_node2"><a xlink:href="gsd_8c.html#a08b4f76e3e19eda194def8c0c4b2b7a3" target="_top" xlink:title=" ">
<polygon fill="none" stroke="black" points="171,-38.5 171,-57.5 232,-57.5 232,-38.5 171,-38.5"/>
<text text-anchor="middle" x="201.5" y="-45.5" font-family="Helvetica,sans-Serif" font-size="10.00">gsd_close</text>
</a>
</g>
</g>
<!-- Node1&#45;&gt;Node2 -->
<g id="edge1" class="edge">
<title>Node1&#45;&gt;Node2</title>
<path fill="none" stroke="midnightblue" d="M135.27,-48C143.99,-48 152.68,-48 160.76,-48"/>
<polygon fill="midnightblue" stroke="midnightblue" points="160.95,-51.5 170.95,-48 160.95,-44.5 160.95,-51.5"/>
</g>
<!-- Node3 -->
<g id="node3" class="node">
<title>Node3</title>
<g id="a_node3"><a xlink:href="gsd_8c.html#ae50726c30c5bf629b6af1ef88020302f" target="_top" xlink:title=" ">
<polygon fill="none" stroke="black" points="274.5,-76.5 274.5,-95.5 381.5,-95.5 381.5,-76.5 274.5,-76.5"/>
<text text-anchor="middle" x="328" y="-83.5" font-family="Helvetica,sans-Serif" font-size="10.00">gsd_byte_buffer_free</text>
</a>
</g>
</g>
<!-- Node2&#45;&gt;Node3 -->
<g id="edge2" class="edge">
<title>Node2&#45;&gt;Node3</title>
<path fill="none" stroke="midnightblue" d="M232,-57.01C247.99,-61.89 268.01,-68 285.54,-73.35"/>
<polygon fill="midnightblue" stroke="midnightblue" points="284.94,-76.82 295.53,-76.39 286.99,-70.13 284.94,-76.82"/>
</g>
<!-- Node5 -->
<g id="node5" class="node">
<title>Node5</title>
<g id="a_node5"><a xlink:href="gsd_8c.html#a9e12a38df69cf73fa771b005748cb3e5" target="_top" xlink:title=" ">
<polygon fill="none" stroke="black" points="272,-38.5 272,-57.5 384,-57.5 384,-38.5 272,-38.5"/>
<text text-anchor="middle" x="328" y="-45.5" font-family="Helvetica,sans-Serif" font-size="10.00">gsd_index_buffer_free</text>
</a>
</g>
</g>
<!-- Node2&#45;&gt;Node5 -->
<g id="edge4" class="edge">
<title>Node2&#45;&gt;Node5</title>
<path fill="none" stroke="midnightblue" d="M232,-48C241.05,-48 251.39,-48 261.83,-48"/>
<polygon fill="midnightblue" stroke="midnightblue" points="261.84,-51.5 271.84,-48 261.84,-44.5 261.84,-51.5"/>
</g>
<!-- Node6 -->
<g id="node6" class="node">
<title>Node6</title>
<g id="a_node6"><a xlink:href="gsd_8c.html#a8249dc854c432e55e8ee07a8d3e8546c" target="_top" xlink:title=" ">
<polygon fill="none" stroke="black" points="268,-0.5 268,-19.5 388,-19.5 388,-0.5 268,-0.5"/>
<text text-anchor="middle" x="328" y="-7.5" font-family="Helvetica,sans-Serif" font-size="10.00">gsd_name_id_map_free</text>
</a>
</g>
</g>
<!-- Node2&#45;&gt;Node6 -->
<g id="edge6" class="edge">
<title>Node2&#45;&gt;Node6</title>
<path fill="none" stroke="midnightblue" d="M232,-38.99C247.99,-34.11 268.01,-28 285.54,-22.65"/>
<polygon fill="midnightblue" stroke="midnightblue" points="286.99,-25.87 295.53,-19.61 284.94,-19.18 286.99,-25.87"/>
</g>
<!-- Node4 -->
<g id="node4" class="node">
<title>Node4</title>
<g id="a_node4"><a xlink:href="gsd_8c.html#a9b05d58560daee2512f03bedf7b2926d" target="_top" xlink:title=" ">
<polygon fill="none" stroke="black" points="424,-57.5 424,-76.5 539,-76.5 539,-57.5 424,-57.5"/>
<text text-anchor="middle" x="481.5" y="-64.5" font-family="Helvetica,sans-Serif" font-size="10.00">gsd_util_zero_memory</text>
</a>
</g>
</g>
<!-- Node3&#45;&gt;Node4 -->
<g id="edge3" class="edge">
<title>Node3&#45;&gt;Node4</title>
<path fill="none" stroke="midnightblue" d="M381.56,-79.41C391.92,-78.11 402.93,-76.73 413.69,-75.38"/>
<polygon fill="midnightblue" stroke="midnightblue" points="414.41,-78.82 423.9,-74.1 413.54,-71.87 414.41,-78.82"/>
</g>
<!-- Node5&#45;&gt;Node4 -->
<g id="edge5" class="edge">
<title>Node5&#45;&gt;Node4</title>
<path fill="none" stroke="midnightblue" d="M384.12,-54.91C393.73,-56.12 403.82,-57.38 413.7,-58.62"/>
<polygon fill="midnightblue" stroke="midnightblue" points="413.53,-62.13 423.89,-59.9 414.4,-55.18 413.53,-62.13"/>
</g>
</g>
</svg>
