<?xml version="1.0" encoding="UTF-8" standalone="no"?>
<!DOCTYPE svg PUBLIC "-//W3C//DTD SVG 1.1//EN"
 "http://www.w3.org/Graphics/SVG/1.1/DTD/svg11.dtd">
<!-- Generated by graphviz version 2.43.0 (0)
 -->
<!-- Title: GSDUtil::writeFrame Pages: 1 -->
<svg width="1088pt" height="631pt"
 viewBox="0.00 0.00 1088.00 631.32" xmlns="http://www.w3.org/2000/svg" xmlns:xlink="http://www.w3.org/1999/xlink">
<g id="graph0" class="graph" transform="scale(1 1) rotate(0) translate(4 627.32)">
<title>GSDUtil::writeFrame</title>
<!-- Node1 -->
<g id="node1" class="node">
<title>Node1</title>
<g id="a_node1"><a xlink:title="Appends frame to GSD file using data from SystemData class.">
<polygon fill="#bfbfbf" stroke="black" points="0,-465.5 0,-484.5 108,-484.5 108,-465.5 0,-465.5"/>
<text text-anchor="middle" x="54" y="-472.5" font-family="Helvetica,sans-Serif" font-size="10.00">GSDUtil::writeFrame</text>
</a>
</g>
</g>
<!-- Node2 -->
<g id="node2" class="node">
<title>Node2</title>
<g id="a_node2"><a xlink:href="classGSDUtil.html#a00a919382c11e9dd1fa7ae1a8788d4c0" target="_top" xlink:title="Helper function that checks data parsing from GSD is successful.">
<polygon fill="none" stroke="black" points="311,-503.5 311,-522.5 448,-522.5 448,-503.5 311,-503.5"/>
<text text-anchor="middle" x="379.5" y="-510.5" font-family="Helvetica,sans-Serif" font-size="10.00">GSDUtil::checkGSDReturn</text>
</a>
</g>
</g>
<!-- Node1&#45;&gt;Node2 -->
<g id="edge1" class="edge">
<title>Node1&#45;&gt;Node2</title>
<path fill="none" stroke="midnightblue" d="M65.49,-484.63C81.18,-498.31 112.3,-522.72 144,-532 209.55,-551.19 289.53,-537.2 337.11,-525.19"/>
<polygon fill="midnightblue" stroke="midnightblue" points="338.25,-528.51 347.04,-522.59 336.48,-521.74 338.25,-528.51"/>
</g>
<!-- Node3 -->
<g id="node3" class="node">
<title>Node3</title>
<g id="a_node3"><a xlink:href="gsd_8c.html#aa03810337c5eebcbe716d8633eaefc5e" target="_top" xlink:title=" ">
<polygon fill="none" stroke="black" points="338,-294.5 338,-313.5 421,-313.5 421,-294.5 338,-294.5"/>
<text text-anchor="middle" x="379.5" y="-301.5" font-family="Helvetica,sans-Serif" font-size="10.00">gsd_end_frame</text>
</a>
</g>
</g>
<!-- Node1&#45;&gt;Node3 -->
<g id="edge2" class="edge">
<title>Node1&#45;&gt;Node3</title>
<path fill="none" stroke="midnightblue" d="M68.87,-465.4C86.12,-453.62 116.63,-433.35 144,-418 214.99,-378.19 301.94,-338.06 347.41,-317.7"/>
<polygon fill="midnightblue" stroke="midnightblue" points="349.02,-320.82 356.73,-313.55 346.17,-314.43 349.02,-320.82"/>
</g>
<!-- Node24 -->
<g id="node24" class="node">
<title>Node24</title>
<g id="a_node24"><a xlink:href="classGSDUtil.html#a77b5ebe2817ac868ad1b171f3d7b0cae" target="_top" xlink:title="Writes header information to GSD.">
<polygon fill="none" stroke="black" points="153.5,-465.5 153.5,-484.5 265.5,-484.5 265.5,-465.5 153.5,-465.5"/>
<text text-anchor="middle" x="209.5" y="-472.5" font-family="Helvetica,sans-Serif" font-size="10.00">GSDUtil::writeHeader</text>
</a>
</g>
</g>
<!-- Node1&#45;&gt;Node24 -->
<g id="edge33" class="edge">
<title>Node1&#45;&gt;Node24</title>
<path fill="none" stroke="midnightblue" d="M108.26,-475C119.51,-475 131.5,-475 143.14,-475"/>
<polygon fill="midnightblue" stroke="midnightblue" points="143.25,-478.5 153.25,-475 143.25,-471.5 143.25,-478.5"/>
</g>
<!-- Node32 -->
<g id="node32" class="node">
<title>Node32</title>
<g id="a_node32"><a xlink:href="classGSDUtil.html#aa0dc50cd5e5534260375ad4962511cf0" target="_top" xlink:title="Writes parameter information to GSD.">
<polygon fill="none" stroke="black" points="144,-503.5 144,-522.5 275,-522.5 275,-503.5 144,-503.5"/>
<text text-anchor="middle" x="209.5" y="-510.5" font-family="Helvetica,sans-Serif" font-size="10.00">GSDUtil::writeParameters</text>
</a>
</g>
</g>
<!-- Node1&#45;&gt;Node32 -->
<g id="edge50" class="edge">
<title>Node1&#45;&gt;Node32</title>
<path fill="none" stroke="midnightblue" d="M93.73,-484.59C113.9,-489.58 138.75,-495.73 160.16,-501.03"/>
<polygon fill="midnightblue" stroke="midnightblue" points="159.5,-504.47 170.04,-503.48 161.18,-497.68 159.5,-504.47"/>
</g>
<!-- Node33 -->
<g id="node33" class="node">
<title>Node33</title>
<g id="a_node33"><a xlink:href="classGSDUtil.html#a9464315a26a5d5e2c51bb2b4df5ee373" target="_top" xlink:title="Writes particle information to GSD.">
<polygon fill="none" stroke="black" points="150,-427.5 150,-446.5 269,-446.5 269,-427.5 150,-427.5"/>
<text text-anchor="middle" x="209.5" y="-434.5" font-family="Helvetica,sans-Serif" font-size="10.00">GSDUtil::writeParticles</text>
</a>
</g>
</g>
<!-- Node1&#45;&gt;Node33 -->
<g id="edge53" class="edge">
<title>Node1&#45;&gt;Node33</title>
<path fill="none" stroke="midnightblue" d="M93.73,-465.41C113.9,-460.42 138.75,-454.27 160.16,-448.97"/>
<polygon fill="midnightblue" stroke="midnightblue" points="161.18,-452.32 170.04,-446.52 159.5,-445.53 161.18,-452.32"/>
</g>
<!-- Node4 -->
<g id="node4" class="node">
<title>Node4</title>
<g id="a_node4"><a xlink:href="gsd_8c.html#ae6dddb94661e99e54f6c01b1a443e27f" target="_top" xlink:title=" ">
<polygon fill="none" stroke="black" points="485.5,-237.5 485.5,-256.5 601.5,-256.5 601.5,-237.5 485.5,-237.5"/>
<text text-anchor="middle" x="543.5" y="-244.5" font-family="Helvetica,sans-Serif" font-size="10.00">gsd_expand_file_index</text>
</a>
</g>
</g>
<!-- Node3&#45;&gt;Node4 -->
<g id="edge3" class="edge">
<title>Node3&#45;&gt;Node4</title>
<path fill="none" stroke="midnightblue" d="M407.62,-294.46C434.48,-285.01 475.82,-270.46 505.66,-259.96"/>
<polygon fill="midnightblue" stroke="midnightblue" points="507.02,-263.19 515.3,-256.57 504.7,-256.59 507.02,-263.19"/>
</g>
<!-- Node12 -->
<g id="node12" class="node">
<title>Node12</title>
<g id="a_node12"><a xlink:href="gsd_8c.html#a3fb7746d93a1c856ca7ef64fa3548cbe" target="_top" xlink:title=" ">
<polygon fill="none" stroke="black" points="652.5,-313.5 652.5,-332.5 753.5,-332.5 753.5,-313.5 652.5,-313.5"/>
<text text-anchor="middle" x="703" y="-320.5" font-family="Helvetica,sans-Serif" font-size="10.00">gsd_io_pwrite_retry</text>
</a>
</g>
</g>
<!-- Node3&#45;&gt;Node12 -->
<g id="edge32" class="edge">
<title>Node3&#45;&gt;Node12</title>
<path fill="none" stroke="midnightblue" d="M421.21,-301.69C465.91,-299.7 539.74,-297.98 603,-304 619.01,-305.52 636.28,-308.4 651.84,-311.46"/>
<polygon fill="midnightblue" stroke="midnightblue" points="651.29,-314.92 661.79,-313.49 652.69,-308.06 651.29,-314.92"/>
</g>
<!-- Node13 -->
<g id="node13" class="node">
<title>Node13</title>
<g id="a_node13"><a xlink:href="gsd_8c.html#ab147cf4d77c10fd8085e5023e9afe55f" target="_top" xlink:title=" ">
<polygon fill="none" stroke="black" points="485,-389.5 485,-408.5 602,-408.5 602,-389.5 485,-389.5"/>
<text text-anchor="middle" x="543.5" y="-396.5" font-family="Helvetica,sans-Serif" font-size="10.00">gsd_flush_name_buffer</text>
</a>
</g>
</g>
<!-- Node3&#45;&gt;Node13 -->
<g id="edge14" class="edge">
<title>Node3&#45;&gt;Node13</title>
<path fill="none" stroke="midnightblue" d="M396.92,-313.63C425.31,-330.28 483.7,-364.52 517.27,-384.2"/>
<polygon fill="midnightblue" stroke="midnightblue" points="515.63,-387.3 526.03,-389.34 519.18,-381.26 515.63,-387.3"/>
</g>
<!-- Node15 -->
<g id="node15" class="node">
<title>Node15</title>
<g id="a_node15"><a xlink:href="gsd_8c.html#a61daeaa70162e9bac3d241832b460278" target="_top" xlink:title=" ">
<polygon fill="none" stroke="black" points="486.5,-313.5 486.5,-332.5 600.5,-332.5 600.5,-313.5 486.5,-313.5"/>
<text text-anchor="middle" x="543.5" y="-320.5" font-family="Helvetica,sans-Serif" font-size="10.00">gsd_flush_write_buffer</text>
</a>
</g>
</g>
<!-- Node3&#45;&gt;Node15 -->
<g id="edge19" class="edge">
<title>Node3&#45;&gt;Node15</title>
<path fill="none" stroke="midnightblue" d="M421.38,-308.79C437.99,-310.74 457.61,-313.04 476.16,-315.22"/>
<polygon fill="midnightblue" stroke="midnightblue" points="476,-318.72 486.34,-316.41 476.81,-311.77 476,-318.72"/>
</g>
<!-- Node17 -->
<g id="node17" class="node">
<title>Node17</title>
<g id="a_node17"><a xlink:href="gsd_8c.html#a6c20ccb47eed1a3ea9995a47a8eebdbd" target="_top" xlink:title=" ">
<polygon fill="none" stroke="black" points="487.5,-85.5 487.5,-104.5 599.5,-104.5 599.5,-85.5 487.5,-85.5"/>
<text text-anchor="middle" x="543.5" y="-92.5" font-family="Helvetica,sans-Serif" font-size="10.00">gsd_index_buffer_sort</text>
</a>
</g>
</g>
<!-- Node3&#45;&gt;Node17 -->
<g id="edge23" class="edge">
<title>Node3&#45;&gt;Node17</title>
<path fill="none" stroke="midnightblue" d="M387.88,-294.48C413.08,-261.97 495.94,-155.07 528.85,-112.61"/>
<polygon fill="midnightblue" stroke="midnightblue" points="531.71,-114.63 535.07,-104.58 526.18,-110.34 531.71,-114.63"/>
</g>
<!-- Node5 -->
<g id="node5" class="node">
<title>Node5</title>
<g id="a_node5"><a xlink:href="gsd_8c.html#a9e12a38df69cf73fa771b005748cb3e5" target="_top" xlink:title=" ">
<polygon fill="none" stroke="black" points="647,-237.5 647,-256.5 759,-256.5 759,-237.5 647,-237.5"/>
<text text-anchor="middle" x="703" y="-244.5" font-family="Helvetica,sans-Serif" font-size="10.00">gsd_index_buffer_free</text>
</a>
</g>
</g>
<!-- Node4&#45;&gt;Node5 -->
<g id="edge4" class="edge">
<title>Node4&#45;&gt;Node5</title>
<path fill="none" stroke="midnightblue" d="M601.81,-247C613.17,-247 625.17,-247 636.77,-247"/>
<polygon fill="midnightblue" stroke="midnightblue" points="636.84,-250.5 646.84,-247 636.84,-243.5 636.84,-250.5"/>
</g>
<!-- Node6 -->
<g id="node6" class="node">
<title>Node6</title>
<g id="a_node6"><a xlink:href="gsd_8c.html#a9b05d58560daee2512f03bedf7b2926d" target="_top" xlink:title=" ">
<polygon fill="none" stroke="black" points="810,-370.5 810,-389.5 925,-389.5 925,-370.5 810,-370.5"/>
<text text-anchor="middle" x="867.5" y="-377.5" font-family="Helvetica,sans-Serif" font-size="10.00">gsd_util_zero_memory</text>
</a>
</g>
</g>
<!-- Node4&#45;&gt;Node6 -->
<g id="edge13" class="edge">
<title>Node4&#45;&gt;Node6</title>
<path fill="none" stroke="midnightblue" d="M590.68,-256.55C646.31,-268.45 736.14,-289.04 767,-304 798.86,-319.45 830.46,-346.01 849.23,-363.29"/>
<polygon fill="midnightblue" stroke="midnightblue" points="847,-365.99 856.68,-370.28 851.79,-360.88 847,-365.99"/>
</g>
<!-- Node7 -->
<g id="node7" class="node">
<title>Node7</title>
<g id="a_node7"><a xlink:href="gsd_8c.html#a6fe75caf6c4df550af2455a0c40bfbdf" target="_top" xlink:title=" ">
<polygon fill="none" stroke="black" points="646,-161.5 646,-180.5 760,-180.5 760,-161.5 646,-161.5"/>
<text text-anchor="middle" x="703" y="-168.5" font-family="Helvetica,sans-Serif" font-size="10.00">gsd_index_buffer_map</text>
</a>
</g>
</g>
<!-- Node4&#45;&gt;Node7 -->
<g id="edge6" class="edge">
<title>Node4&#45;&gt;Node7</title>
<path fill="none" stroke="midnightblue" d="M560.2,-237.48C578.67,-226.48 610.45,-208.22 639,-195 647.26,-191.18 656.31,-187.46 664.91,-184.14"/>
<polygon fill="midnightblue" stroke="midnightblue" points="666.25,-187.38 674.37,-180.58 663.78,-180.83 666.25,-187.38"/>
</g>
<!-- Node9 -->
<g id="node9" class="node">
<title>Node9</title>
<g id="a_node9"><a xlink:href="gsd_8c.html#ac1f41abbefbfe35337e7053d766c089b" target="_top" xlink:title=" ">
<polygon fill="none" stroke="black" points="818,-218.5 818,-237.5 917,-237.5 917,-218.5 818,-218.5"/>
<text text-anchor="middle" x="867.5" y="-225.5" font-family="Helvetica,sans-Serif" font-size="10.00">gsd_io_pread_retry</text>
</a>
</g>
</g>
<!-- Node4&#45;&gt;Node9 -->
<g id="edge11" class="edge">
<title>Node4&#45;&gt;Node9</title>
<path fill="none" stroke="midnightblue" d="M582.86,-237.49C599.93,-233.73 620.35,-229.86 639,-228 696.18,-222.31 761.85,-223.09 807.89,-224.82"/>
<polygon fill="midnightblue" stroke="midnightblue" points="807.86,-228.32 817.99,-225.23 808.14,-221.33 807.86,-228.32"/>
</g>
<!-- Node4&#45;&gt;Node12 -->
<g id="edge12" class="edge">
<title>Node4&#45;&gt;Node12</title>
<path fill="none" stroke="midnightblue" d="M572.02,-256.51C582.06,-260.44 593.31,-265.39 603,-271 620.54,-281.16 621.33,-289.06 639,-299 646.18,-303.04 654.17,-306.67 661.99,-309.82"/>
<polygon fill="midnightblue" stroke="midnightblue" points="660.78,-313.1 671.37,-313.4 663.28,-306.56 660.78,-313.1"/>
</g>
<!-- Node5&#45;&gt;Node6 -->
<g id="edge5" class="edge">
<title>Node5&#45;&gt;Node6</title>
<path fill="none" stroke="midnightblue" d="M737.8,-256.59C747.69,-260.24 758.19,-265.01 767,-271 804.22,-296.32 837.21,-338.22 854.25,-362.02"/>
<polygon fill="midnightblue" stroke="midnightblue" points="851.56,-364.28 860.17,-370.46 857.29,-360.26 851.56,-364.28"/>
</g>
<!-- Node8 -->
<g id="node8" class="node">
<title>Node8</title>
<g id="a_node8"><a xlink:href="gsd_8c.html#ae1948c93f77d642c4e3797fe7e5f2095" target="_top" xlink:title=" ">
<polygon fill="none" stroke="black" points="803,-142.5 803,-161.5 932,-161.5 932,-142.5 803,-142.5"/>
<text text-anchor="middle" x="867.5" y="-149.5" font-family="Helvetica,sans-Serif" font-size="10.00">gsd_index_buffer_allocate</text>
</a>
</g>
</g>
<!-- Node7&#45;&gt;Node8 -->
<g id="edge7" class="edge">
<title>Node7&#45;&gt;Node8</title>
<path fill="none" stroke="midnightblue" d="M760.38,-164.41C770.91,-163.18 782.05,-161.87 793,-160.59"/>
<polygon fill="midnightblue" stroke="midnightblue" points="793.46,-164.06 802.99,-159.43 792.65,-157.11 793.46,-164.06"/>
</g>
<!-- Node7&#45;&gt;Node9 -->
<g id="edge8" class="edge">
<title>Node7&#45;&gt;Node9</title>
<path fill="none" stroke="midnightblue" d="M729.15,-180.54C740.69,-184.92 754.55,-190.21 767,-195 783.02,-201.17 786.76,-203.42 803,-209 809.43,-211.21 816.28,-213.41 823.01,-215.49"/>
<polygon fill="midnightblue" stroke="midnightblue" points="822.14,-218.89 832.73,-218.44 824.17,-212.19 822.14,-218.89"/>
</g>
<!-- Node10 -->
<g id="node10" class="node">
<title>Node10</title>
<g id="a_node10"><a xlink:href="gsd_8c.html#ab5d19295bedec41b7919caec2cb22759" target="_top" xlink:title=" ">
<polygon fill="none" stroke="black" points="818.5,-180.5 818.5,-199.5 916.5,-199.5 916.5,-180.5 818.5,-180.5"/>
<text text-anchor="middle" x="867.5" y="-187.5" font-family="Helvetica,sans-Serif" font-size="10.00">gsd_is_entry_valid</text>
</a>
</g>
</g>
<!-- Node7&#45;&gt;Node10 -->
<g id="edge9" class="edge">
<title>Node7&#45;&gt;Node10</title>
<path fill="none" stroke="midnightblue" d="M760.38,-177.59C775.87,-179.4 792.69,-181.37 808.29,-183.19"/>
<polygon fill="midnightblue" stroke="midnightblue" points="807.99,-186.68 818.33,-184.37 808.8,-179.73 807.99,-186.68"/>
</g>
<!-- Node11 -->
<g id="node11" class="node">
<title>Node11</title>
<g id="a_node11"><a xlink:href="gsd_8c.html#ab1d1a8a5f73b37df0c706f41df3bdd69" target="_top" xlink:title=" ">
<polygon fill="none" stroke="black" points="980,-398.5 980,-417.5 1068,-417.5 1068,-398.5 980,-398.5"/>
<text text-anchor="middle" x="1024" y="-405.5" font-family="Helvetica,sans-Serif" font-size="10.00">gsd_sizeof_type</text>
</a>
</g>
</g>
<!-- Node10&#45;&gt;Node11 -->
<g id="edge10" class="edge">
<title>Node10&#45;&gt;Node11</title>
<path fill="none" stroke="midnightblue" d="M916.61,-199.48C922.19,-201.95 927.49,-205.07 932,-209 988.19,-257.92 1011.69,-348.66 1019.61,-388.45"/>
<polygon fill="midnightblue" stroke="midnightblue" points="1016.21,-389.26 1021.49,-398.45 1023.09,-387.98 1016.21,-389.26"/>
</g>
<!-- Node13&#45;&gt;Node6 -->
<g id="edge18" class="edge">
<title>Node13&#45;&gt;Node6</title>
<path fill="none" stroke="midnightblue" d="M582.86,-389.49C599.93,-385.73 620.35,-381.86 639,-380 692.89,-374.64 754.33,-375.02 799.76,-376.53"/>
<polygon fill="midnightblue" stroke="midnightblue" points="799.66,-380.03 809.78,-376.89 799.91,-373.03 799.66,-380.03"/>
</g>
<!-- Node13&#45;&gt;Node12 -->
<g id="edge17" class="edge">
<title>Node13&#45;&gt;Node12</title>
<path fill="none" stroke="midnightblue" d="M572.02,-389.49C582.06,-385.56 593.31,-380.61 603,-375 620.54,-364.84 621.33,-356.94 639,-347 646.18,-342.96 654.17,-339.33 661.99,-336.18"/>
<polygon fill="midnightblue" stroke="midnightblue" points="663.28,-339.44 671.37,-332.6 660.78,-332.9 663.28,-339.44"/>
</g>
<!-- Node14 -->
<g id="node14" class="node">
<title>Node14</title>
<g id="a_node14"><a xlink:href="gsd_8c.html#a7a717f9dafe011e68434e181c76253af" target="_top" xlink:title=" ">
<polygon fill="none" stroke="black" points="642,-427.5 642,-446.5 764,-446.5 764,-427.5 642,-427.5"/>
<text text-anchor="middle" x="703" y="-434.5" font-family="Helvetica,sans-Serif" font-size="10.00">gsd_byte_buffer_append</text>
</a>
</g>
</g>
<!-- Node13&#45;&gt;Node14 -->
<g id="edge15" class="edge">
<title>Node13&#45;&gt;Node14</title>
<path fill="none" stroke="midnightblue" d="M584.24,-408.59C605.03,-413.6 630.66,-419.79 652.7,-425.11"/>
<polygon fill="midnightblue" stroke="midnightblue" points="652,-428.54 662.54,-427.48 653.64,-421.73 652,-428.54"/>
</g>
<!-- Node14&#45;&gt;Node6 -->
<g id="edge16" class="edge">
<title>Node14&#45;&gt;Node6</title>
<path fill="none" stroke="midnightblue" d="M737.17,-427.48C746.83,-424.58 757.38,-421.28 767,-418 789.35,-410.37 814.17,-400.9 833.43,-393.31"/>
<polygon fill="midnightblue" stroke="midnightblue" points="834.94,-396.48 842.95,-389.54 832.37,-389.97 834.94,-396.48"/>
</g>
<!-- Node15&#45;&gt;Node12 -->
<g id="edge22" class="edge">
<title>Node15&#45;&gt;Node12</title>
<path fill="none" stroke="midnightblue" d="M600.92,-323C614.28,-323 628.58,-323 642.09,-323"/>
<polygon fill="midnightblue" stroke="midnightblue" points="642.25,-326.5 652.25,-323 642.25,-319.5 642.25,-326.5"/>
</g>
<!-- Node16 -->
<g id="node16" class="node">
<title>Node16</title>
<g id="a_node16"><a xlink:href="gsd_8c.html#a258b64725f90f60d969752d65fba9850" target="_top" xlink:title=" ">
<polygon fill="none" stroke="black" points="647.5,-389.5 647.5,-408.5 758.5,-408.5 758.5,-389.5 647.5,-389.5"/>
<text text-anchor="middle" x="703" y="-396.5" font-family="Helvetica,sans-Serif" font-size="10.00">gsd_index_buffer_add</text>
</a>
</g>
</g>
<!-- Node15&#45;&gt;Node16 -->
<g id="edge20" class="edge">
<title>Node15&#45;&gt;Node16</title>
<path fill="none" stroke="midnightblue" d="M564.45,-332.63C591.9,-345.87 641.51,-369.81 673.05,-385.03"/>
<polygon fill="midnightblue" stroke="midnightblue" points="671.69,-388.26 682.21,-389.45 674.73,-381.95 671.69,-388.26"/>
</g>
<!-- Node16&#45;&gt;Node6 -->
<g id="edge21" class="edge">
<title>Node16&#45;&gt;Node6</title>
<path fill="none" stroke="midnightblue" d="M758.56,-392.62C771.71,-391.08 785.92,-389.42 799.56,-387.83"/>
<polygon fill="midnightblue" stroke="midnightblue" points="800.33,-391.26 809.86,-386.62 799.52,-384.31 800.33,-391.26"/>
</g>
<!-- Node18 -->
<g id="node18" class="node">
<title>Node18</title>
<g id="a_node18"><a xlink:href="gsd_8c.html#accc971ec12e75a165ffef6e1ee854681" target="_top" xlink:title=" ">
<polygon fill="none" stroke="black" points="812,-28.5 812,-47.5 923,-47.5 923,-28.5 812,-28.5"/>
<text text-anchor="middle" x="867.5" y="-35.5" font-family="Helvetica,sans-Serif" font-size="10.00">gsd_heap_shift_down</text>
</a>
</g>
</g>
<!-- Node17&#45;&gt;Node18 -->
<g id="edge24" class="edge">
<title>Node17&#45;&gt;Node18</title>
<path fill="none" stroke="midnightblue" d="M563.49,-85.39C582.19,-76.41 611.81,-63.45 639,-57 692.78,-44.25 755.48,-39.75 801.42,-38.3"/>
<polygon fill="midnightblue" stroke="midnightblue" points="801.64,-41.79 811.54,-38.02 801.45,-34.8 801.64,-41.79"/>
</g>
<!-- Node21 -->
<g id="node21" class="node">
<title>Node21</title>
<g id="a_node21"><a xlink:href="gsd_8c.html#a987a1d460f7ca33476fc57bcc1ff8439" target="_top" xlink:title=" ">
<polygon fill="none" stroke="black" points="980.5,-95.5 980.5,-114.5 1067.5,-114.5 1067.5,-95.5 980.5,-95.5"/>
<text text-anchor="middle" x="1024" y="-102.5" font-family="Helvetica,sans-Serif" font-size="10.00">gsd_heap_swap</text>
</a>
</g>
</g>
<!-- Node17&#45;&gt;Node21 -->
<g id="edge28" class="edge">
<title>Node17&#45;&gt;Node21</title>
<path fill="none" stroke="midnightblue" d="M599.86,-96.16C692.83,-98.1 879.11,-101.99 970.28,-103.9"/>
<polygon fill="midnightblue" stroke="midnightblue" points="970.32,-107.4 980.39,-104.11 970.46,-100.4 970.32,-107.4"/>
</g>
<!-- Node22 -->
<g id="node22" class="node">
<title>Node22</title>
<g id="a_node22"><a xlink:href="gsd_8c.html#a0de3f89cdd57571b57401c91feef2f66" target="_top" xlink:title=" ">
<polygon fill="none" stroke="black" points="668.5,-66.5 668.5,-85.5 737.5,-85.5 737.5,-66.5 668.5,-66.5"/>
<text text-anchor="middle" x="703" y="-73.5" font-family="Helvetica,sans-Serif" font-size="10.00">gsd_heapify</text>
</a>
</g>
</g>
<!-- Node17&#45;&gt;Node22 -->
<g id="edge29" class="edge">
<title>Node17&#45;&gt;Node22</title>
<path fill="none" stroke="midnightblue" d="M599.59,-88.35C618.81,-86.04 640.1,-83.47 658.27,-81.28"/>
<polygon fill="midnightblue" stroke="midnightblue" points="658.78,-84.74 668.29,-80.07 657.94,-77.79 658.78,-84.74"/>
</g>
<!-- Node19 -->
<g id="node19" class="node">
<title>Node19</title>
<g id="a_node19"><a xlink:href="gsd_8c.html#a3ffe758eed9a5bae487f514a0a45e97d" target="_top" xlink:title=" ">
<polygon fill="none" stroke="black" points="968,-38.5 968,-57.5 1080,-57.5 1080,-38.5 968,-38.5"/>
<text text-anchor="middle" x="1024" y="-45.5" font-family="Helvetica,sans-Serif" font-size="10.00">gsd_cmp_index_entry</text>
</a>
</g>
</g>
<!-- Node18&#45;&gt;Node19 -->
<g id="edge25" class="edge">
<title>Node18&#45;&gt;Node19</title>
<path fill="none" stroke="midnightblue" d="M923.41,-41.55C934.43,-42.27 946.12,-43.02 957.46,-43.76"/>
<polygon fill="midnightblue" stroke="midnightblue" points="957.55,-47.27 967.75,-44.42 958,-40.29 957.55,-47.27"/>
</g>
<!-- Node20 -->
<g id="node20" class="node">
<title>Node20</title>
<g id="a_node20"><a xlink:href="gsd_8c.html#aaec0ae1e441692725a568aee8c8ef627" target="_top" xlink:title=" ">
<polygon fill="none" stroke="black" points="972.5,-0.5 972.5,-19.5 1075.5,-19.5 1075.5,-0.5 972.5,-0.5"/>
<text text-anchor="middle" x="1024" y="-7.5" font-family="Helvetica,sans-Serif" font-size="10.00">gsd_heap_left_child</text>
</a>
</g>
</g>
<!-- Node18&#45;&gt;Node20 -->
<g id="edge26" class="edge">
<title>Node18&#45;&gt;Node20</title>
<path fill="none" stroke="midnightblue" d="M921.24,-28.44C934.4,-26.06 948.63,-23.48 962.15,-21.03"/>
<polygon fill="midnightblue" stroke="midnightblue" points="963.11,-24.41 972.33,-19.18 961.86,-17.52 963.11,-24.41"/>
</g>
<!-- Node18&#45;&gt;Node21 -->
<g id="edge27" class="edge">
<title>Node18&#45;&gt;Node21</title>
<path fill="none" stroke="midnightblue" d="M904.86,-47.55C913.85,-50.28 923.37,-53.47 932,-57 955.23,-66.5 980.37,-80.03 998.33,-90.31"/>
<polygon fill="midnightblue" stroke="midnightblue" points="996.61,-93.35 1007.02,-95.34 1000.13,-87.3 996.61,-93.35"/>
</g>
<!-- Node22&#45;&gt;Node18 -->
<g id="edge31" class="edge">
<title>Node22&#45;&gt;Node18</title>
<path fill="none" stroke="midnightblue" d="M737.67,-68.13C760.24,-62.85 790.37,-55.8 815.82,-49.85"/>
<polygon fill="midnightblue" stroke="midnightblue" points="816.74,-53.23 825.68,-47.55 815.14,-46.42 816.74,-53.23"/>
</g>
<!-- Node23 -->
<g id="node23" class="node">
<title>Node23</title>
<g id="a_node23"><a xlink:href="gsd_8c.html#ab7b8e133941184a32c2d90414dfba6a5" target="_top" xlink:title=" ">
<polygon fill="none" stroke="black" points="822,-66.5 822,-85.5 913,-85.5 913,-66.5 822,-66.5"/>
<text text-anchor="middle" x="867.5" y="-73.5" font-family="Helvetica,sans-Serif" font-size="10.00">gsd_heap_parent</text>
</a>
</g>
</g>
<!-- Node22&#45;&gt;Node23 -->
<g id="edge30" class="edge">
<title>Node22&#45;&gt;Node23</title>
<path fill="none" stroke="midnightblue" d="M737.67,-76C758.98,-76 787.04,-76 811.52,-76"/>
<polygon fill="midnightblue" stroke="midnightblue" points="811.77,-79.5 821.77,-76 811.77,-72.5 811.77,-79.5"/>
</g>
<!-- Node24&#45;&gt;Node2 -->
<g id="edge34" class="edge">
<title>Node24&#45;&gt;Node2</title>
<path fill="none" stroke="midnightblue" d="M252.89,-484.59C275.26,-489.65 302.9,-495.9 326.55,-501.25"/>
<polygon fill="midnightblue" stroke="midnightblue" points="325.89,-504.69 336.41,-503.48 327.43,-497.86 325.89,-504.69"/>
</g>
<!-- Node25 -->
<g id="node25" class="node">
<title>Node25</title>
<g id="a_node25"><a xlink:href="gsd_8c.html#a7479046d4d6e15c33cb24034ddd87562" target="_top" xlink:title=" ">
<polygon fill="none" stroke="black" points="333.5,-427.5 333.5,-446.5 425.5,-446.5 425.5,-427.5 333.5,-427.5"/>
<text text-anchor="middle" x="379.5" y="-434.5" font-family="Helvetica,sans-Serif" font-size="10.00">gsd_get_nframes</text>
</a>
</g>
</g>
<!-- Node24&#45;&gt;Node25 -->
<g id="edge35" class="edge">
<title>Node24&#45;&gt;Node25</title>
<path fill="none" stroke="midnightblue" d="M252.89,-465.41C275.26,-460.35 302.9,-454.1 326.55,-448.75"/>
<polygon fill="midnightblue" stroke="midnightblue" points="327.43,-452.14 336.41,-446.52 325.89,-445.31 327.43,-452.14"/>
</g>
<!-- Node26 -->
<g id="node26" class="node">
<title>Node26</title>
<g id="a_node26"><a xlink:href="gsd_8c.html#ae22447904b925f284bf987fae448488a" target="_top" xlink:title=" ">
<polygon fill="none" stroke="black" points="334.5,-465.5 334.5,-484.5 424.5,-484.5 424.5,-465.5 334.5,-465.5"/>
<text text-anchor="middle" x="379.5" y="-472.5" font-family="Helvetica,sans-Serif" font-size="10.00">gsd_write_chunk</text>
</a>
</g>
</g>
<!-- Node24&#45;&gt;Node26 -->
<g id="edge36" class="edge">
<title>Node24&#45;&gt;Node26</title>
<path fill="none" stroke="midnightblue" d="M265.51,-475C284.32,-475 305.35,-475 324.11,-475"/>
<polygon fill="midnightblue" stroke="midnightblue" points="324.27,-478.5 334.27,-475 324.27,-471.5 324.27,-478.5"/>
</g>
<!-- Node26&#45;&gt;Node6 -->
<g id="edge49" class="edge">
<title>Node26&#45;&gt;Node6</title>
<path fill="none" stroke="midnightblue" d="M424.78,-483.77C432.83,-486.37 440.91,-489.72 448,-494 467.91,-506.03 462.63,-522.81 484,-532 541.77,-556.85 711.68,-561.91 767,-532 819.83,-503.44 849.11,-433.29 860.65,-399.2"/>
<polygon fill="midnightblue" stroke="midnightblue" points="864.04,-400.1 863.78,-389.51 857.38,-397.95 864.04,-400.1"/>
</g>
<!-- Node26&#45;&gt;Node11 -->
<g id="edge48" class="edge">
<title>Node26&#45;&gt;Node11</title>
<path fill="none" stroke="midnightblue" d="M424.53,-480.65C433.16,-483.5 441.53,-487.73 448,-494 486.16,-530.97 441.14,-576.59 484,-608 526.66,-639.26 550.2,-611.04 603,-608 749.95,-599.54 809.44,-651.52 932,-570 983.14,-535.98 1008.55,-462.96 1018.21,-427.76"/>
<polygon fill="midnightblue" stroke="midnightblue" points="1021.68,-428.32 1020.81,-417.76 1014.91,-426.56 1021.68,-428.32"/>
</g>
<!-- Node26&#45;&gt;Node12 -->
<g id="edge45" class="edge">
<title>Node26&#45;&gt;Node12</title>
<path fill="none" stroke="midnightblue" d="M424.61,-468.43C433.03,-465.63 441.3,-461.66 448,-456 476.55,-431.88 455.22,-403.85 484,-380 496.71,-369.46 587.49,-348.03 647.83,-334.66"/>
<polygon fill="midnightblue" stroke="midnightblue" points="648.59,-338.07 657.6,-332.5 647.08,-331.24 648.59,-338.07"/>
</g>
<!-- Node26&#45;&gt;Node14 -->
<g id="edge42" class="edge">
<title>Node26&#45;&gt;Node14</title>
<path fill="none" stroke="midnightblue" d="M424.88,-470.65C469.82,-466.14 541.31,-458.69 603,-451 612.33,-449.84 622.15,-448.54 631.83,-447.22"/>
<polygon fill="midnightblue" stroke="midnightblue" points="632.41,-450.67 641.84,-445.83 631.45,-443.73 632.41,-450.67"/>
</g>
<!-- Node26&#45;&gt;Node15 -->
<g id="edge43" class="edge">
<title>Node26&#45;&gt;Node15</title>
<path fill="none" stroke="midnightblue" d="M424.82,-469.17C433.33,-466.33 441.58,-462.14 448,-456 484.87,-420.74 449.22,-384.32 484,-347 487.56,-343.18 491.81,-339.96 496.38,-337.23"/>
<polygon fill="midnightblue" stroke="midnightblue" points="498.14,-340.26 505.45,-332.59 494.95,-334.03 498.14,-340.26"/>
</g>
<!-- Node26&#45;&gt;Node16 -->
<g id="edge44" class="edge">
<title>Node26&#45;&gt;Node16</title>
<path fill="none" stroke="midnightblue" d="M420.89,-465.45C479.56,-451.58 588.29,-425.88 651.96,-410.83"/>
<polygon fill="midnightblue" stroke="midnightblue" points="652.85,-414.22 661.77,-408.51 651.24,-407.4 652.85,-414.22"/>
</g>
<!-- Node27 -->
<g id="node27" class="node">
<title>Node27</title>
<g id="a_node27"><a xlink:href="gsd_8c.html#aa1a0a7dcf4015edcadbb47a6451b4a4b" target="_top" xlink:title=" ">
<polygon fill="none" stroke="black" points="494.5,-503.5 494.5,-522.5 592.5,-522.5 592.5,-503.5 494.5,-503.5"/>
<text text-anchor="middle" x="543.5" y="-510.5" font-family="Helvetica,sans-Serif" font-size="10.00">gsd_append_name</text>
</a>
</g>
</g>
<!-- Node26&#45;&gt;Node27 -->
<g id="edge37" class="edge">
<title>Node26&#45;&gt;Node27</title>
<path fill="none" stroke="midnightblue" d="M421.38,-484.59C442.85,-489.63 469.36,-495.84 492.1,-501.18"/>
<polygon fill="midnightblue" stroke="midnightblue" points="491.38,-504.6 501.91,-503.48 492.98,-497.79 491.38,-504.6"/>
</g>
<!-- Node31 -->
<g id="node31" class="node">
<title>Node31</title>
<g id="a_node31"><a xlink:href="gsd_8c.html#a31b9400272036b121040e9fc0a9e626b" target="_top" xlink:title=" ">
<polygon fill="none" stroke="black" points="484,-579.5 484,-598.5 603,-598.5 603,-579.5 484,-579.5"/>
<text text-anchor="middle" x="543.5" y="-586.5" font-family="Helvetica,sans-Serif" font-size="10.00">gsd_name_id_map_find</text>
</a>
</g>
</g>
<!-- Node26&#45;&gt;Node31 -->
<g id="edge46" class="edge">
<title>Node26&#45;&gt;Node31</title>
<path fill="none" stroke="midnightblue" d="M424.84,-481.83C433.16,-484.61 441.32,-488.51 448,-494 475.33,-516.46 458,-541 484,-565 488.18,-568.86 493.08,-572.15 498.21,-574.92"/>
<polygon fill="midnightblue" stroke="midnightblue" points="497.1,-578.27 507.63,-579.4 500.1,-571.95 497.1,-578.27"/>
</g>
<!-- Node27&#45;&gt;Node14 -->
<g id="edge38" class="edge">
<title>Node27&#45;&gt;Node14</title>
<path fill="none" stroke="midnightblue" d="M573.47,-503.45C583.22,-499.63 593.92,-494.77 603,-489 621.32,-477.37 620.14,-466.74 639,-456 642.85,-453.81 646.97,-451.85 651.2,-450.1"/>
<polygon fill="midnightblue" stroke="midnightblue" points="652.43,-453.37 660.56,-446.59 649.97,-446.82 652.43,-453.37"/>
</g>
<!-- Node28 -->
<g id="node28" class="node">
<title>Node28</title>
<g id="a_node28"><a xlink:href="gsd_8c.html#a493ef951956c9f98adff89a80ddb3fa6" target="_top" xlink:title=" ">
<polygon fill="none" stroke="black" points="654,-465.5 654,-484.5 752,-484.5 752,-465.5 654,-465.5"/>
<text text-anchor="middle" x="703" y="-472.5" font-family="Helvetica,sans-Serif" font-size="10.00">gsd_make_version</text>
</a>
</g>
</g>
<!-- Node27&#45;&gt;Node28 -->
<g id="edge39" class="edge">
<title>Node27&#45;&gt;Node28</title>
<path fill="none" stroke="midnightblue" d="M584.24,-503.41C605.03,-498.4 630.66,-492.21 652.7,-486.89"/>
<polygon fill="midnightblue" stroke="midnightblue" points="653.64,-490.27 662.54,-484.52 652,-483.46 653.64,-490.27"/>
</g>
<!-- Node29 -->
<g id="node29" class="node">
<title>Node29</title>
<g id="a_node29"><a xlink:href="gsd_8c.html#a6c8c2e5a49ac4eb01a95be2e0df06eb9" target="_top" xlink:title=" ">
<polygon fill="none" stroke="black" points="639,-503.5 639,-522.5 767,-522.5 767,-503.5 639,-503.5"/>
<text text-anchor="middle" x="703" y="-510.5" font-family="Helvetica,sans-Serif" font-size="10.00">gsd_name_id_map_insert</text>
</a>
</g>
</g>
<!-- Node27&#45;&gt;Node29 -->
<g id="edge40" class="edge">
<title>Node27&#45;&gt;Node29</title>
<path fill="none" stroke="midnightblue" d="M592.61,-513C603.99,-513 616.38,-513 628.6,-513"/>
<polygon fill="midnightblue" stroke="midnightblue" points="628.79,-516.5 638.79,-513 628.79,-509.5 628.79,-516.5"/>
</g>
<!-- Node30 -->
<g id="node30" class="node">
<title>Node30</title>
<g id="a_node30"><a xlink:href="gsd_8c.html#a6d8087323ec29c58d907b9462b4a31da" target="_top" xlink:title=" ">
<polygon fill="none" stroke="black" points="830,-541.5 830,-560.5 905,-560.5 905,-541.5 830,-541.5"/>
<text text-anchor="middle" x="867.5" y="-548.5" font-family="Helvetica,sans-Serif" font-size="10.00">gsd_hash_str</text>
</a>
</g>
</g>
<!-- Node29&#45;&gt;Node30 -->
<g id="edge41" class="edge">
<title>Node29&#45;&gt;Node30</title>
<path fill="none" stroke="midnightblue" d="M745.01,-522.59C767.88,-527.94 796.44,-534.62 820.12,-540.15"/>
<polygon fill="midnightblue" stroke="midnightblue" points="819.41,-543.58 829.94,-542.45 821,-536.77 819.41,-543.58"/>
</g>
<!-- Node31&#45;&gt;Node30 -->
<g id="edge47" class="edge">
<title>Node31&#45;&gt;Node30</title>
<path fill="none" stroke="midnightblue" d="M603.12,-583.2C648.02,-578.63 711.48,-571.9 767,-565 784.2,-562.86 803.04,-560.27 819.66,-557.91"/>
<polygon fill="midnightblue" stroke="midnightblue" points="820.28,-561.36 829.68,-556.47 819.28,-554.43 820.28,-561.36"/>
</g>
<!-- Node32&#45;&gt;Node2 -->
<g id="edge51" class="edge">
<title>Node32&#45;&gt;Node2</title>
<path fill="none" stroke="midnightblue" d="M275.45,-513C283.72,-513 292.26,-513 300.7,-513"/>
<polygon fill="midnightblue" stroke="midnightblue" points="300.94,-516.5 310.94,-513 300.94,-509.5 300.94,-516.5"/>
</g>
<!-- Node32&#45;&gt;Node26 -->
<g id="edge52" class="edge">
<title>Node32&#45;&gt;Node26</title>
<path fill="none" stroke="midnightblue" d="M252.89,-503.41C275.26,-498.35 302.9,-492.1 326.55,-486.75"/>
<polygon fill="midnightblue" stroke="midnightblue" points="327.43,-490.14 336.41,-484.52 325.89,-483.31 327.43,-490.14"/>
</g>
<!-- Node33&#45;&gt;Node2 -->
<g id="edge54" class="edge">
<title>Node33&#45;&gt;Node2</title>
<path fill="none" stroke="midnightblue" d="M254.51,-446.57C261.64,-449.06 268.73,-452.16 275,-456 294.84,-468.15 291.09,-481.97 311,-494 314.58,-496.16 318.41,-498.08 322.36,-499.79"/>
<polygon fill="midnightblue" stroke="midnightblue" points="321.15,-503.08 331.74,-503.41 323.66,-496.54 321.15,-503.08"/>
</g>
<!-- Node33&#45;&gt;Node25 -->
<g id="edge55" class="edge">
<title>Node33&#45;&gt;Node25</title>
<path fill="none" stroke="midnightblue" d="M269.26,-437C286.65,-437 305.64,-437 322.84,-437"/>
<polygon fill="midnightblue" stroke="midnightblue" points="323.28,-440.5 333.28,-437 323.28,-433.5 323.28,-440.5"/>
</g>
<!-- Node33&#45;&gt;Node26 -->
<g id="edge56" class="edge">
<title>Node33&#45;&gt;Node26</title>
<path fill="none" stroke="midnightblue" d="M252.89,-446.59C275.26,-451.65 302.9,-457.9 326.55,-463.25"/>
<polygon fill="midnightblue" stroke="midnightblue" points="325.89,-466.69 336.41,-465.48 327.43,-459.86 325.89,-466.69"/>
</g>
</g>
</svg>
