<?xml version="1.0" encoding="UTF-8" standalone="no"?>
<!DOCTYPE svg PUBLIC "-//W3C//DTD SVG 1.1//EN"
 "http://www.w3.org/Graphics/SVG/1.1/DTD/svg11.dtd">
<!-- Generated by graphviz version 2.43.0 (0)
 -->
<!-- Title: rungeKutta4 Pages: 1 -->
<svg width="908pt" height="2681pt"
 viewBox="0.00 0.00 907.50 2681.00" xmlns="http://www.w3.org/2000/svg" xmlns:xlink="http://www.w3.org/1999/xlink">
<g id="graph0" class="graph" transform="scale(1 1) rotate(0) translate(4 2677)">
<title>rungeKutta4</title>
<!-- Node1 -->
<g id="node1" class="node">
<title>Node1</title>
<g id="a_node1"><a xlink:title="Standard Runge&#45;Kutta 4th order integration.">
<polygon fill="#bfbfbf" stroke="black" points="682,-726.5 682,-915.5 805,-915.5 805,-726.5 682,-726.5"/>
<text text-anchor="middle" x="743.5" y="-903.5" font-family="Helvetica,sans-Serif" font-size="10.00">rungeKutta4</text>
<polyline fill="none" stroke="black" points="682,-896.5 805,-896.5 "/>
<text text-anchor="start" x="690" y="-884.5" font-family="Helvetica,sans-Serif" font-size="10.00">&#45; m_dt</text>
<text text-anchor="start" x="690" y="-873.5" font-family="Helvetica,sans-Serif" font-size="10.00">&#45; m_c1_2_dt</text>
<text text-anchor="start" x="690" y="-862.5" font-family="Helvetica,sans-Serif" font-size="10.00">&#45; m_c1_6_dt</text>
<text text-anchor="start" x="690" y="-851.5" font-family="Helvetica,sans-Serif" font-size="10.00">&#45; m_3M</text>
<text text-anchor="start" x="690" y="-840.5" font-family="Helvetica,sans-Serif" font-size="10.00">&#45; m_c1_2</text>
<text text-anchor="start" x="690" y="-829.5" font-family="Helvetica,sans-Serif" font-size="10.00">&#45; m_c1_6</text>
<polyline fill="none" stroke="black" points="682,-822.5 805,-822.5 "/>
<text text-anchor="start" x="690" y="-810.5" font-family="Helvetica,sans-Serif" font-size="10.00">+ rungeKutta4()</text>
<text text-anchor="start" x="690" y="-799.5" font-family="Helvetica,sans-Serif" font-size="10.00">+ ~rungeKutta4()</text>
<text text-anchor="start" x="690" y="-788.5" font-family="Helvetica,sans-Serif" font-size="10.00">+ integrate()</text>
<text text-anchor="start" x="690" y="-777.5" font-family="Helvetica,sans-Serif" font-size="10.00">&#45; integrateSecondOrder()</text>
<text text-anchor="start" x="690" y="-766.5" font-family="Helvetica,sans-Serif" font-size="10.00">&#45; accelerationUpdate()</text>
<text text-anchor="start" x="690" y="-755.5" font-family="Helvetica,sans-Serif" font-size="10.00">&#45; imageBodyPosVel()</text>
<text text-anchor="start" x="690" y="-744.5" font-family="Helvetica,sans-Serif" font-size="10.00">&#45; imageBodyAcc()</text>
<text text-anchor="start" x="690" y="-733.5" font-family="Helvetica,sans-Serif" font-size="10.00">&#45; udwadiaKalaba()</text>
</a>
</g>
</g>
<!-- Node2 -->
<g id="node2" class="node">
<title>Node2</title>
<g id="a_node2"><a xlink:title=" ">
<polygon fill="none" stroke="#bfbfbf" points="534,-2389 534,-2446 687,-2446 687,-2389 534,-2389"/>
<text text-anchor="middle" x="610.5" y="-2434" font-family="Helvetica,sans-Serif" font-size="10.00">std::shared_ptr&lt; systemData &gt;</text>
<polyline fill="none" stroke="#bfbfbf" points="534,-2427 687,-2427 "/>
<text text-anchor="middle" x="610.5" y="-2415" font-family="Helvetica,sans-Serif" font-size="10.00"> </text>
<polyline fill="none" stroke="#bfbfbf" points="534,-2408 687,-2408 "/>
<text text-anchor="start" x="542" y="-2396" font-family="Helvetica,sans-Serif" font-size="10.00">+ operator&#45;&gt;()</text>
</a>
</g>
</g>
<!-- Node2&#45;&gt;Node1 -->
<g id="edge1" class="edge">
<title>Node2&#45;&gt;Node1</title>
<path fill="none" stroke="#404040" d="M662.73,-2388.87C686.13,-2373.46 711.38,-2351.92 724.5,-2325 739.79,-2293.64 742.79,-1265.2 743.37,-927.94"/>
<polygon fill="none" stroke="#404040" points="743.37,-927.76 739.38,-921.75 743.39,-915.76 747.38,-921.76 743.37,-927.76"/>
<text text-anchor="middle" x="764.5" y="-1795.5" font-family="Helvetica,sans-Serif" font-size="10.00"> &#45;m_system</text>
</g>
<!-- Node6 -->
<g id="node6" class="node">
<title>Node6</title>
<g id="a_node6"><a xlink:href="classGSDUtil.html" target="_top" xlink:title="Wrapper class for gsd.h to load data from input GSD file into systemData class.">
<polygon fill="none" stroke="black" points="287.5,-1976 287.5,-2187 409.5,-2187 409.5,-1976 287.5,-1976"/>
<text text-anchor="middle" x="348.5" y="-2175" font-family="Helvetica,sans-Serif" font-size="10.00">GSDUtil</text>
<polyline fill="none" stroke="black" points="287.5,-2168 409.5,-2168 "/>
<text text-anchor="start" x="295.5" y="-2156" font-family="Helvetica,sans-Serif" font-size="10.00">&#45; m_frame</text>
<polyline fill="none" stroke="black" points="287.5,-2149 409.5,-2149 "/>
<text text-anchor="start" x="295.5" y="-2137" font-family="Helvetica,sans-Serif" font-size="10.00">+ GSDUtil()</text>
<text text-anchor="start" x="295.5" y="-2126" font-family="Helvetica,sans-Serif" font-size="10.00">+ GSDUtil()</text>
<text text-anchor="start" x="295.5" y="-2115" font-family="Helvetica,sans-Serif" font-size="10.00">+ ~GSDUtil()</text>
<text text-anchor="start" x="295.5" y="-2104" font-family="Helvetica,sans-Serif" font-size="10.00">+ truncateGSD()</text>
<text text-anchor="start" x="295.5" y="-2093" font-family="Helvetica,sans-Serif" font-size="10.00">+ writeFrame()</text>
<text text-anchor="start" x="295.5" y="-2082" font-family="Helvetica,sans-Serif" font-size="10.00">+ frame()</text>
<text text-anchor="start" x="295.5" y="-2071" font-family="Helvetica,sans-Serif" font-size="10.00">&#45; checkGSDReturn()</text>
<text text-anchor="start" x="295.5" y="-2060" font-family="Helvetica,sans-Serif" font-size="10.00">&#45; readChunk()</text>
<text text-anchor="start" x="295.5" y="-2049" font-family="Helvetica,sans-Serif" font-size="10.00">&#45; readHeader()</text>
<text text-anchor="start" x="295.5" y="-2038" font-family="Helvetica,sans-Serif" font-size="10.00">&#45; readParameters()</text>
<text text-anchor="start" x="295.5" y="-2027" font-family="Helvetica,sans-Serif" font-size="10.00">&#45; readParticles()</text>
<text text-anchor="start" x="295.5" y="-2016" font-family="Helvetica,sans-Serif" font-size="10.00">&#45; readSystemSpecifics()</text>
<text text-anchor="start" x="295.5" y="-2005" font-family="Helvetica,sans-Serif" font-size="10.00">&#45; writeHeader()</text>
<text text-anchor="start" x="295.5" y="-1994" font-family="Helvetica,sans-Serif" font-size="10.00">&#45; writeParameters()</text>
<text text-anchor="start" x="295.5" y="-1983" font-family="Helvetica,sans-Serif" font-size="10.00">&#45; writeParticles()</text>
</a>
</g>
</g>
<!-- Node2&#45;&gt;Node6 -->
<g id="edge6" class="edge">
<title>Node2&#45;&gt;Node6</title>
<path fill="none" stroke="#404040" d="M533.94,-2411.9C465.51,-2406 372.57,-2392.97 349.5,-2365 312.21,-2319.8 309.51,-2255.25 317.24,-2199.26"/>
<polygon fill="none" stroke="#404040" points="317.28,-2198.95 314.24,-2192.41 319.1,-2187.09 322.14,-2193.62 317.28,-2198.95"/>
<text text-anchor="middle" x="375.5" y="-2351.5" font-family="Helvetica,sans-Serif" font-size="10.00"> &#45;m_system</text>
</g>
<!-- Node14 -->
<g id="node14" class="node">
<title>Node14</title>
<g id="a_node14"><a xlink:href="classpotentialHydrodynamics.html" target="_top" xlink:title="Computes hydrodynamic tensors (mass, forces) on a finite number of spheres in potential flow.">
<polygon fill="none" stroke="black" points="572,-1838.5 572,-2324.5 715,-2324.5 715,-1838.5 572,-1838.5"/>
<text text-anchor="middle" x="643.5" y="-2312.5" font-family="Helvetica,sans-Serif" font-size="10.00">potentialHydrodynamics</text>
<polyline fill="none" stroke="black" points="572,-2305.5 715,-2305.5 "/>
<text text-anchor="start" x="580" y="-2293.5" font-family="Helvetica,sans-Serif" font-size="10.00">&#45; m_num_pair_inter</text>
<text text-anchor="start" x="580" y="-2282.5" font-family="Helvetica,sans-Serif" font-size="10.00">&#45; m_3N</text>
<text text-anchor="start" x="580" y="-2271.5" font-family="Helvetica,sans-Serif" font-size="10.00">&#45; m_7M</text>
<text text-anchor="start" x="580" y="-2260.5" font-family="Helvetica,sans-Serif" font-size="10.00">&#45; m_alphaVec</text>
<text text-anchor="start" x="580" y="-2249.5" font-family="Helvetica,sans-Serif" font-size="10.00">&#45; m_betaVec</text>
<text text-anchor="start" x="580" y="-2238.5" font-family="Helvetica,sans-Serif" font-size="10.00">&#45; m_r_mag_ab</text>
<text text-anchor="start" x="580" y="-2227.5" font-family="Helvetica,sans-Serif" font-size="10.00">&#45; m_r_ab</text>
<text text-anchor="start" x="580" y="-2216.5" font-family="Helvetica,sans-Serif" font-size="10.00">&#45; m_I3N</text>
<text text-anchor="start" x="580" y="-2205.5" font-family="Helvetica,sans-Serif" font-size="10.00">&#45; m_c1_2_I3N</text>
<text text-anchor="start" x="580" y="-2194.5" font-family="Helvetica,sans-Serif" font-size="10.00">&#45; m_M_added</text>
<text text-anchor="start" x="580" y="-2183.5" font-family="Helvetica,sans-Serif" font-size="10.00">&#45; m_M_intrinsic</text>
<text text-anchor="start" x="580" y="-2172.5" font-family="Helvetica,sans-Serif" font-size="10.00">&#45; m_M_total</text>
<text text-anchor="start" x="580" y="-2161.5" font-family="Helvetica,sans-Serif" font-size="10.00">&#45; m_tens_M_total</text>
<text text-anchor="start" x="580" y="-2150.5" font-family="Helvetica,sans-Serif" font-size="10.00">&#45; m_grad_M_added</text>
<text text-anchor="start" x="580" y="-2139.5" font-family="Helvetica,sans-Serif" font-size="10.00">&#45; m_grad_M_added_body</text>
<text text-anchor="start" x="580" y="-2128.5" font-family="Helvetica,sans-Serif" font-size="10.00">_coords</text>
<text text-anchor="start" x="580" y="-2117.5" font-family="Helvetica,sans-Serif" font-size="10.00">&#45; m_F_hydro</text>
<text text-anchor="start" x="580" y="-2106.5" font-family="Helvetica,sans-Serif" font-size="10.00">&#45; m_F_hydroNoInertia</text>
<text text-anchor="start" x="580" y="-2095.5" font-family="Helvetica,sans-Serif" font-size="10.00">&#45; m_N1</text>
<text text-anchor="start" x="580" y="-2084.5" font-family="Helvetica,sans-Serif" font-size="10.00">&#45; m_N2</text>
<text text-anchor="start" x="580" y="-2073.5" font-family="Helvetica,sans-Serif" font-size="10.00">&#45; m_N3</text>
<text text-anchor="start" x="580" y="-2062.5" font-family="Helvetica,sans-Serif" font-size="10.00">&#45; m_M_tilde_tilde</text>
<text text-anchor="start" x="580" y="-2051.5" font-family="Helvetica,sans-Serif" font-size="10.00">&#45; m_M_tilde</text>
<text text-anchor="start" x="580" y="-2040.5" font-family="Helvetica,sans-Serif" font-size="10.00">&#45; m_mat_M_tilde</text>
<text text-anchor="start" x="580" y="-2029.5" font-family="Helvetica,sans-Serif" font-size="10.00">&#45; m_unitSphereVol</text>
<text text-anchor="start" x="580" y="-2018.5" font-family="Helvetica,sans-Serif" font-size="10.00">&#45; m_c1_2</text>
<text text-anchor="start" x="580" y="-2007.5" font-family="Helvetica,sans-Serif" font-size="10.00">&#45; m_c3_2</text>
<text text-anchor="start" x="580" y="-1996.5" font-family="Helvetica,sans-Serif" font-size="10.00">&#45; m_c15_2</text>
<polyline fill="none" stroke="black" points="572,-1989.5 715,-1989.5 "/>
<text text-anchor="start" x="580" y="-1977.5" font-family="Helvetica,sans-Serif" font-size="10.00">+ potentialHydrodynamics()</text>
<text text-anchor="start" x="580" y="-1966.5" font-family="Helvetica,sans-Serif" font-size="10.00">+ ~potentialHydrodynamics()</text>
<text text-anchor="start" x="580" y="-1955.5" font-family="Helvetica,sans-Serif" font-size="10.00">+ update()</text>
<text text-anchor="start" x="580" y="-1944.5" font-family="Helvetica,sans-Serif" font-size="10.00">+ fHydro()</text>
<text text-anchor="start" x="580" y="-1933.5" font-family="Helvetica,sans-Serif" font-size="10.00">+ fHydroNoInertia()</text>
<text text-anchor="start" x="580" y="-1922.5" font-family="Helvetica,sans-Serif" font-size="10.00">+ mTotal()</text>
<text text-anchor="start" x="580" y="-1911.5" font-family="Helvetica,sans-Serif" font-size="10.00">+ mTilde()</text>
<text text-anchor="start" x="580" y="-1900.5" font-family="Helvetica,sans-Serif" font-size="10.00">&#45; calcParticleDistances()</text>
<text text-anchor="start" x="580" y="-1889.5" font-family="Helvetica,sans-Serif" font-size="10.00">&#45; calcAddedMass()</text>
<text text-anchor="start" x="580" y="-1878.5" font-family="Helvetica,sans-Serif" font-size="10.00">&#45; calcTotalMass()</text>
<text text-anchor="start" x="580" y="-1867.5" font-family="Helvetica,sans-Serif" font-size="10.00">&#45; calcAddedMassGrad()</text>
<text text-anchor="start" x="580" y="-1856.5" font-family="Helvetica,sans-Serif" font-size="10.00">&#45; calcBodyTensors()</text>
<text text-anchor="start" x="580" y="-1845.5" font-family="Helvetica,sans-Serif" font-size="10.00">&#45; calcHydroForces()</text>
</a>
</g>
</g>
<!-- Node2&#45;&gt;Node14 -->
<g id="edge19" class="edge">
<title>Node2&#45;&gt;Node14</title>
<path fill="none" stroke="#404040" d="M613.23,-2388.88C614.58,-2375.17 616.36,-2357.15 618.38,-2336.71"/>
<polygon fill="none" stroke="#404040" points="618.38,-2336.71 614.99,-2330.34 619.56,-2324.77 622.95,-2331.13 618.38,-2336.71"/>
<text text-anchor="middle" x="643.5" y="-2351.5" font-family="Helvetica,sans-Serif" font-size="10.00"> &#45;m_system</text>
</g>
<!-- Node3 -->
<g id="node3" class="node">
<title>Node3</title>
<g id="a_node3"><a xlink:href="classsystemData.html" target="_top" xlink:title="Class contains all data structures relevant to the simulation framework. Note that after construction...">
<polygon fill="none" stroke="black" points="96.5,-0.5 96.5,-1641.5 272.5,-1641.5 272.5,-0.5 96.5,-0.5"/>
<text text-anchor="middle" x="184.5" y="-1629.5" font-family="Helvetica,sans-Serif" font-size="10.00">systemData</text>
<polyline fill="none" stroke="black" points="96.5,-1622.5 272.5,-1622.5 "/>
<text text-anchor="start" x="104.5" y="-1610.5" font-family="Helvetica,sans-Serif" font-size="10.00">&#45; m_image_system</text>
<text text-anchor="start" x="104.5" y="-1599.5" font-family="Helvetica,sans-Serif" font-size="10.00">&#45; m_return_val</text>
<text text-anchor="start" x="104.5" y="-1588.5" font-family="Helvetica,sans-Serif" font-size="10.00">&#45; m_return_bool</text>
<text text-anchor="start" x="104.5" y="-1577.5" font-family="Helvetica,sans-Serif" font-size="10.00">&#45; m_GSD_parsed</text>
<text text-anchor="start" x="104.5" y="-1566.5" font-family="Helvetica,sans-Serif" font-size="10.00">&#45; m_sys_spec_U0</text>
<text text-anchor="start" x="104.5" y="-1555.5" font-family="Helvetica,sans-Serif" font-size="10.00">&#45; m_sys_spec_omega</text>
<text text-anchor="start" x="104.5" y="-1544.5" font-family="Helvetica,sans-Serif" font-size="10.00">&#45; m_sys_spec_phase_shift</text>
<text text-anchor="start" x="104.5" y="-1533.5" font-family="Helvetica,sans-Serif" font-size="10.00">&#45; m_sys_spec_R_avg</text>
<text text-anchor="start" x="104.5" y="-1522.5" font-family="Helvetica,sans-Serif" font-size="10.00">&#45; m_particle_type_id</text>
<text text-anchor="start" x="104.5" y="-1511.5" font-family="Helvetica,sans-Serif" font-size="10.00">&#45; m_particle_group_id</text>
<text text-anchor="start" x="104.5" y="-1500.5" font-family="Helvetica,sans-Serif" font-size="10.00">&#45; m_fluid_density</text>
<text text-anchor="start" x="104.5" y="-1489.5" font-family="Helvetica,sans-Serif" font-size="10.00">&#45; m_particle_density</text>
<text text-anchor="start" x="104.5" y="-1478.5" font-family="Helvetica,sans-Serif" font-size="10.00">&#45; m_wca_epsilon</text>
<text text-anchor="start" x="104.5" y="-1467.5" font-family="Helvetica,sans-Serif" font-size="10.00">&#45; m_wca_sigma</text>
<text text-anchor="start" x="104.5" y="-1456.5" font-family="Helvetica,sans-Serif" font-size="10.00">&#45; m_num_spatial_dim</text>
<text text-anchor="start" x="104.5" y="-1445.5" font-family="Helvetica,sans-Serif" font-size="10.00">&#45; m_num_particles</text>
<text text-anchor="start" x="104.5" y="-1434.5" font-family="Helvetica,sans-Serif" font-size="10.00">&#45; m_num_bodies</text>
<text text-anchor="start" x="104.5" y="-1423.5" font-family="Helvetica,sans-Serif" font-size="10.00">&#45; m_num_DoF</text>
<text text-anchor="start" x="104.5" y="-1412.5" font-family="Helvetica,sans-Serif" font-size="10.00">&#45; m_num_constraints</text>
<text text-anchor="start" x="104.5" y="-1401.5" font-family="Helvetica,sans-Serif" font-size="10.00">&#45; m_dt</text>
<text text-anchor="start" x="104.5" y="-1390.5" font-family="Helvetica,sans-Serif" font-size="10.00">&#45; m_tf</text>
<text text-anchor="start" x="104.5" y="-1379.5" font-family="Helvetica,sans-Serif" font-size="10.00">&#45; m_t0</text>
<text text-anchor="start" x="104.5" y="-1368.5" font-family="Helvetica,sans-Serif" font-size="10.00">&#45; m_t</text>
<text text-anchor="start" x="104.5" y="-1357.5" font-family="Helvetica,sans-Serif" font-size="10.00">&#45; m_tau</text>
<text text-anchor="start" x="104.5" y="-1346.5" font-family="Helvetica,sans-Serif" font-size="10.00">&#45; m_timestep</text>
<text text-anchor="start" x="104.5" y="-1335.5" font-family="Helvetica,sans-Serif" font-size="10.00">&#45; m_num_steps_output</text>
<text text-anchor="start" x="104.5" y="-1324.5" font-family="Helvetica,sans-Serif" font-size="10.00">&#45; m_I3</text>
<text text-anchor="start" x="104.5" y="-1313.5" font-family="Helvetica,sans-Serif" font-size="10.00">&#45; m_tens_I3</text>
<text text-anchor="start" x="104.5" y="-1302.5" font-family="Helvetica,sans-Serif" font-size="10.00">&#45; m_levi_cevita</text>
<text text-anchor="start" x="104.5" y="-1291.5" font-family="Helvetica,sans-Serif" font-size="10.00">&#45; m_kappa_tilde</text>
<text text-anchor="start" x="104.5" y="-1280.5" font-family="Helvetica,sans-Serif" font-size="10.00">&#45; m_positions_bodies</text>
<text text-anchor="start" x="104.5" y="-1269.5" font-family="Helvetica,sans-Serif" font-size="10.00">&#45; m_velocities_bodies</text>
<text text-anchor="start" x="104.5" y="-1258.5" font-family="Helvetica,sans-Serif" font-size="10.00">&#45; m_accelerations_bodies</text>
<text text-anchor="start" x="104.5" y="-1247.5" font-family="Helvetica,sans-Serif" font-size="10.00">&#45; m_positions_particles</text>
<text text-anchor="start" x="104.5" y="-1236.5" font-family="Helvetica,sans-Serif" font-size="10.00">&#45; m_velocities_particles</text>
<text text-anchor="start" x="104.5" y="-1225.5" font-family="Helvetica,sans-Serif" font-size="10.00">&#45; m_accelerations_particles</text>
<text text-anchor="start" x="104.5" y="-1214.5" font-family="Helvetica,sans-Serif" font-size="10.00">&#45; m_orientations_particles</text>
<text text-anchor="start" x="104.5" y="-1203.5" font-family="Helvetica,sans-Serif" font-size="10.00">&#45; m_quaternions_particles</text>
<text text-anchor="start" x="104.5" y="-1192.5" font-family="Helvetica,sans-Serif" font-size="10.00">&#45; m_positions_particles</text>
<text text-anchor="start" x="104.5" y="-1181.5" font-family="Helvetica,sans-Serif" font-size="10.00">_articulation_init_norm</text>
<text text-anchor="start" x="104.5" y="-1170.5" font-family="Helvetica,sans-Serif" font-size="10.00">&#45; m_positions_particles</text>
<text text-anchor="start" x="104.5" y="-1159.5" font-family="Helvetica,sans-Serif" font-size="10.00">_articulation</text>
<text text-anchor="start" x="104.5" y="-1148.5" font-family="Helvetica,sans-Serif" font-size="10.00">&#45; m_velocities_particles</text>
<text text-anchor="start" x="104.5" y="-1137.5" font-family="Helvetica,sans-Serif" font-size="10.00">_articulation</text>
<text text-anchor="start" x="104.5" y="-1126.5" font-family="Helvetica,sans-Serif" font-size="10.00">&#45; m_accelerations_particles</text>
<text text-anchor="start" x="104.5" y="-1115.5" font-family="Helvetica,sans-Serif" font-size="10.00">_articulation</text>
<text text-anchor="start" x="104.5" y="-1104.5" font-family="Helvetica,sans-Serif" font-size="10.00">&#45; m_rbm_conn</text>
<text text-anchor="start" x="104.5" y="-1093.5" font-family="Helvetica,sans-Serif" font-size="10.00">&#45; m_psi_conv_quat_ang</text>
<text text-anchor="start" x="104.5" y="-1082.5" font-family="Helvetica,sans-Serif" font-size="10.00">&#45; m_rbm_conn_T_quat</text>
<text text-anchor="start" x="104.5" y="-1071.5" font-family="Helvetica,sans-Serif" font-size="10.00">&#45; m_tens_rbm_conn_T_quat</text>
<text text-anchor="start" x="104.5" y="-1060.5" font-family="Helvetica,sans-Serif" font-size="10.00">&#45; m_rbm_conn_T_quat_grad</text>
<text text-anchor="start" x="104.5" y="-1049.5" font-family="Helvetica,sans-Serif" font-size="10.00">&#45; m_conv_body_2_part_dof</text>
<text text-anchor="start" x="104.5" y="-1038.5" font-family="Helvetica,sans-Serif" font-size="10.00">&#45; m_tens_conv_body_2</text>
<text text-anchor="start" x="104.5" y="-1027.5" font-family="Helvetica,sans-Serif" font-size="10.00">_part_dof</text>
<text text-anchor="start" x="104.5" y="-1016.5" font-family="Helvetica,sans-Serif" font-size="10.00">&#45; m_Udwadia_A</text>
<text text-anchor="start" x="104.5" y="-1005.5" font-family="Helvetica,sans-Serif" font-size="10.00">&#45; m_Udwadia_b</text>
<polyline fill="none" stroke="black" points="96.5,-998.5 272.5,-998.5 "/>
<text text-anchor="start" x="104.5" y="-986.5" font-family="Helvetica,sans-Serif" font-size="10.00">+ systemData()</text>
<text text-anchor="start" x="104.5" y="-975.5" font-family="Helvetica,sans-Serif" font-size="10.00">+ ~systemData()</text>
<text text-anchor="start" x="104.5" y="-964.5" font-family="Helvetica,sans-Serif" font-size="10.00">+ initializeData()</text>
<text text-anchor="start" x="104.5" y="-953.5" font-family="Helvetica,sans-Serif" font-size="10.00">+ update()</text>
<text text-anchor="start" x="104.5" y="-942.5" font-family="Helvetica,sans-Serif" font-size="10.00">+ imageSystem()</text>
<text text-anchor="start" x="104.5" y="-931.5" font-family="Helvetica,sans-Serif" font-size="10.00">+ setImageSystem()</text>
<text text-anchor="start" x="104.5" y="-920.5" font-family="Helvetica,sans-Serif" font-size="10.00">+ inputGSDFile()</text>
<text text-anchor="start" x="104.5" y="-909.5" font-family="Helvetica,sans-Serif" font-size="10.00">+ outputDir()</text>
<text text-anchor="start" x="104.5" y="-898.5" font-family="Helvetica,sans-Serif" font-size="10.00">+ gsdUtil()</text>
<text text-anchor="start" x="104.5" y="-887.5" font-family="Helvetica,sans-Serif" font-size="10.00">+ handle()</text>
<text text-anchor="start" x="104.5" y="-876.5" font-family="Helvetica,sans-Serif" font-size="10.00">+ setReturnVal()</text>
<text text-anchor="start" x="104.5" y="-865.5" font-family="Helvetica,sans-Serif" font-size="10.00">+ returnVal()</text>
<text text-anchor="start" x="104.5" y="-854.5" font-family="Helvetica,sans-Serif" font-size="10.00">+ setReturnBool()</text>
<text text-anchor="start" x="104.5" y="-843.5" font-family="Helvetica,sans-Serif" font-size="10.00">+ returnBool()</text>
<text text-anchor="start" x="104.5" y="-832.5" font-family="Helvetica,sans-Serif" font-size="10.00">+ gSDParsed()</text>
<text text-anchor="start" x="104.5" y="-821.5" font-family="Helvetica,sans-Serif" font-size="10.00">+ sysSpecU0()</text>
<text text-anchor="start" x="104.5" y="-810.5" font-family="Helvetica,sans-Serif" font-size="10.00">+ setSysSpecU0()</text>
<text text-anchor="start" x="104.5" y="-799.5" font-family="Helvetica,sans-Serif" font-size="10.00">+ sysSpecOmega()</text>
<text text-anchor="start" x="104.5" y="-788.5" font-family="Helvetica,sans-Serif" font-size="10.00">+ setSysSpecOmega()</text>
<text text-anchor="start" x="104.5" y="-777.5" font-family="Helvetica,sans-Serif" font-size="10.00">+ sysSpecPhaseShift()</text>
<text text-anchor="start" x="104.5" y="-766.5" font-family="Helvetica,sans-Serif" font-size="10.00">+ setSysSpecPhaseShift()</text>
<text text-anchor="start" x="104.5" y="-755.5" font-family="Helvetica,sans-Serif" font-size="10.00">+ sysSpecRAvg()</text>
<text text-anchor="start" x="104.5" y="-744.5" font-family="Helvetica,sans-Serif" font-size="10.00">+ setSysSpecRAvg()</text>
<text text-anchor="start" x="104.5" y="-733.5" font-family="Helvetica,sans-Serif" font-size="10.00">+ particleTypeId()</text>
<text text-anchor="start" x="104.5" y="-722.5" font-family="Helvetica,sans-Serif" font-size="10.00">+ setParticleTypeId()</text>
<text text-anchor="start" x="104.5" y="-711.5" font-family="Helvetica,sans-Serif" font-size="10.00">+ fluidDensity()</text>
<text text-anchor="start" x="104.5" y="-700.5" font-family="Helvetica,sans-Serif" font-size="10.00">+ setFluidDensity()</text>
<text text-anchor="start" x="104.5" y="-689.5" font-family="Helvetica,sans-Serif" font-size="10.00">+ particleDensity()</text>
<text text-anchor="start" x="104.5" y="-678.5" font-family="Helvetica,sans-Serif" font-size="10.00">+ setParticleDensity()</text>
<text text-anchor="start" x="104.5" y="-667.5" font-family="Helvetica,sans-Serif" font-size="10.00">+ wcaEpsilon()</text>
<text text-anchor="start" x="104.5" y="-656.5" font-family="Helvetica,sans-Serif" font-size="10.00">+ setWcaEpsilon()</text>
<text text-anchor="start" x="104.5" y="-645.5" font-family="Helvetica,sans-Serif" font-size="10.00">+ wcaSigma()</text>
<text text-anchor="start" x="104.5" y="-634.5" font-family="Helvetica,sans-Serif" font-size="10.00">+ setWcaSigma()</text>
<text text-anchor="start" x="104.5" y="-623.5" font-family="Helvetica,sans-Serif" font-size="10.00">+ numSpatialDim()</text>
<text text-anchor="start" x="104.5" y="-612.5" font-family="Helvetica,sans-Serif" font-size="10.00">+ setNumSpatialDim()</text>
<text text-anchor="start" x="104.5" y="-601.5" font-family="Helvetica,sans-Serif" font-size="10.00">+ numParticles()</text>
<text text-anchor="start" x="104.5" y="-590.5" font-family="Helvetica,sans-Serif" font-size="10.00">+ setNumParticles()</text>
<text text-anchor="start" x="104.5" y="-579.5" font-family="Helvetica,sans-Serif" font-size="10.00">+ numBodies()</text>
<text text-anchor="start" x="104.5" y="-568.5" font-family="Helvetica,sans-Serif" font-size="10.00">+ setNumBodies()</text>
<text text-anchor="start" x="104.5" y="-557.5" font-family="Helvetica,sans-Serif" font-size="10.00">+ numDoF()</text>
<text text-anchor="start" x="104.5" y="-546.5" font-family="Helvetica,sans-Serif" font-size="10.00">+ tensI3()</text>
<text text-anchor="start" x="104.5" y="-535.5" font-family="Helvetica,sans-Serif" font-size="10.00">+ i3()</text>
<text text-anchor="start" x="104.5" y="-524.5" font-family="Helvetica,sans-Serif" font-size="10.00">+ dt()</text>
<text text-anchor="start" x="104.5" y="-513.5" font-family="Helvetica,sans-Serif" font-size="10.00">+ setDt()</text>
<text text-anchor="start" x="104.5" y="-502.5" font-family="Helvetica,sans-Serif" font-size="10.00">+ tf()</text>
<text text-anchor="start" x="104.5" y="-491.5" font-family="Helvetica,sans-Serif" font-size="10.00">+ setTf()</text>
<text text-anchor="start" x="104.5" y="-480.5" font-family="Helvetica,sans-Serif" font-size="10.00">+ t()</text>
<text text-anchor="start" x="104.5" y="-469.5" font-family="Helvetica,sans-Serif" font-size="10.00">+ setT()</text>
<text text-anchor="start" x="104.5" y="-458.5" font-family="Helvetica,sans-Serif" font-size="10.00">+ tau()</text>
<text text-anchor="start" x="104.5" y="-447.5" font-family="Helvetica,sans-Serif" font-size="10.00">+ setTau()</text>
<text text-anchor="start" x="104.5" y="-436.5" font-family="Helvetica,sans-Serif" font-size="10.00">+ timestep()</text>
<text text-anchor="start" x="104.5" y="-425.5" font-family="Helvetica,sans-Serif" font-size="10.00">+ setTimestep()</text>
<text text-anchor="start" x="104.5" y="-414.5" font-family="Helvetica,sans-Serif" font-size="10.00">+ numStepsOutput()</text>
<text text-anchor="start" x="104.5" y="-403.5" font-family="Helvetica,sans-Serif" font-size="10.00">+ setNumStepsOutput()</text>
<text text-anchor="start" x="104.5" y="-392.5" font-family="Helvetica,sans-Serif" font-size="10.00">+ positionsBodies()</text>
<text text-anchor="start" x="104.5" y="-381.5" font-family="Helvetica,sans-Serif" font-size="10.00">+ setPositionsBodies()</text>
<text text-anchor="start" x="104.5" y="-370.5" font-family="Helvetica,sans-Serif" font-size="10.00">+ velocitiesBodies()</text>
<text text-anchor="start" x="104.5" y="-359.5" font-family="Helvetica,sans-Serif" font-size="10.00">+ setVelocitiesBodies()</text>
<text text-anchor="start" x="104.5" y="-348.5" font-family="Helvetica,sans-Serif" font-size="10.00">+ accelerationsBodies()</text>
<text text-anchor="start" x="104.5" y="-337.5" font-family="Helvetica,sans-Serif" font-size="10.00">+ setAccelerationsBodies()</text>
<text text-anchor="start" x="104.5" y="-326.5" font-family="Helvetica,sans-Serif" font-size="10.00">+ orientationsParticles()</text>
<text text-anchor="start" x="104.5" y="-315.5" font-family="Helvetica,sans-Serif" font-size="10.00">+ setOrientationsParticles()</text>
<text text-anchor="start" x="104.5" y="-304.5" font-family="Helvetica,sans-Serif" font-size="10.00">+ positionsParticles()</text>
<text text-anchor="start" x="104.5" y="-293.5" font-family="Helvetica,sans-Serif" font-size="10.00">+ setPositionsParticles()</text>
<text text-anchor="start" x="104.5" y="-282.5" font-family="Helvetica,sans-Serif" font-size="10.00">+ velocitiesParticles()</text>
<text text-anchor="start" x="104.5" y="-271.5" font-family="Helvetica,sans-Serif" font-size="10.00">+ setVelocitiesParticles()</text>
<text text-anchor="start" x="104.5" y="-260.5" font-family="Helvetica,sans-Serif" font-size="10.00">+ accelerationsParticles()</text>
<text text-anchor="start" x="104.5" y="-249.5" font-family="Helvetica,sans-Serif" font-size="10.00">+ setAccelerationsParticles()</text>
<text text-anchor="start" x="104.5" y="-238.5" font-family="Helvetica,sans-Serif" font-size="10.00">+ velocitiesParticlesArticulation()</text>
<text text-anchor="start" x="104.5" y="-227.5" font-family="Helvetica,sans-Serif" font-size="10.00">+ accelerationsParticlesArticulation()</text>
<text text-anchor="start" x="104.5" y="-216.5" font-family="Helvetica,sans-Serif" font-size="10.00">+ tensRbmConnTQuat()</text>
<text text-anchor="start" x="104.5" y="-205.5" font-family="Helvetica,sans-Serif" font-size="10.00">+ tensRbmConnTQuatGrad()</text>
<text text-anchor="start" x="104.5" y="-194.5" font-family="Helvetica,sans-Serif" font-size="10.00">+ tensConvBody2PartDof()</text>
<text text-anchor="start" x="104.5" y="-183.5" font-family="Helvetica,sans-Serif" font-size="10.00">+ udwadiaA()</text>
<text text-anchor="start" x="104.5" y="-172.5" font-family="Helvetica,sans-Serif" font-size="10.00">+ udwadiaB()</text>
<text text-anchor="start" x="104.5" y="-161.5" font-family="Helvetica,sans-Serif" font-size="10.00">&#45; parseGSD()</text>
<text text-anchor="start" x="104.5" y="-150.5" font-family="Helvetica,sans-Serif" font-size="10.00">&#45; checkInput()</text>
<text text-anchor="start" x="104.5" y="-139.5" font-family="Helvetica,sans-Serif" font-size="10.00">&#45; logData()</text>
<text text-anchor="start" x="104.5" y="-128.5" font-family="Helvetica,sans-Serif" font-size="10.00">&#45; orientationsArticulation()</text>
<text text-anchor="start" x="104.5" y="-117.5" font-family="Helvetica,sans-Serif" font-size="10.00">&#45; positionsArticulation()</text>
<text text-anchor="start" x="104.5" y="-106.5" font-family="Helvetica,sans-Serif" font-size="10.00">&#45; velocitiesArticulation()</text>
<text text-anchor="start" x="104.5" y="-95.5" font-family="Helvetica,sans-Serif" font-size="10.00">&#45; accelerationsArticulation()</text>
<text text-anchor="start" x="104.5" y="-84.5" font-family="Helvetica,sans-Serif" font-size="10.00">&#45; positionsParticlesfromBodies()</text>
<text text-anchor="start" x="104.5" y="-73.5" font-family="Helvetica,sans-Serif" font-size="10.00">&#45; udwadiaLinearSystem()</text>
<text text-anchor="start" x="104.5" y="-62.5" font-family="Helvetica,sans-Serif" font-size="10.00">&#45; rigidBodyMotionTensors()</text>
<text text-anchor="start" x="104.5" y="-51.5" font-family="Helvetica,sans-Serif" font-size="10.00">&#45; gradientChangeOfVariable</text>
<text text-anchor="start" x="104.5" y="-40.5" font-family="Helvetica,sans-Serif" font-size="10.00">Tensors()</text>
<text text-anchor="start" x="104.5" y="-29.5" font-family="Helvetica,sans-Serif" font-size="10.00">&#45; convertBody2ParticleDoF()</text>
<text text-anchor="start" x="104.5" y="-18.5" font-family="Helvetica,sans-Serif" font-size="10.00">&#45; eMatrix()</text>
<text text-anchor="start" x="104.5" y="-7.5" font-family="Helvetica,sans-Serif" font-size="10.00">&#45; crossProdMat()</text>
</a>
</g>
</g>
<!-- Node3&#45;&gt;Node2 -->
<g id="edge2" class="edge">
<title>Node3&#45;&gt;Node2</title>
<path fill="none" stroke="#404040" d="M272.53,-1067.9C331.6,-1240.04 407.62,-1476.37 458.5,-1689 525.17,-1967.63 473.63,-2052.97 563.5,-2325 569.51,-2343.19 578.73,-2362.19 587.42,-2378.14"/>
<polygon fill="none" stroke="#404040" points="587.44,-2378.18 593.86,-2381.46 593.31,-2388.65 586.88,-2385.37 587.44,-2378.18"/>
<text text-anchor="middle" x="493" y="-1795.5" font-family="Helvetica,sans-Serif" font-size="10.00"> +ptr</text>
</g>
<!-- Node4 -->
<g id="node4" class="node">
<title>Node4</title>
<g id="a_node4"><a xlink:title=" ">
<polygon fill="none" stroke="#bfbfbf" points="22.5,-1689.5 22.5,-1757.5 156.5,-1757.5 156.5,-1689.5 22.5,-1689.5"/>
<text text-anchor="start" x="30.5" y="-1745.5" font-family="Helvetica,sans-Serif" font-size="10.00">std::enable_shared</text>
<text text-anchor="middle" x="89.5" y="-1734.5" font-family="Helvetica,sans-Serif" font-size="10.00">_from_this&lt; systemData &gt;</text>
<polyline fill="none" stroke="#bfbfbf" points="22.5,-1727.5 156.5,-1727.5 "/>
<text text-anchor="middle" x="89.5" y="-1715.5" font-family="Helvetica,sans-Serif" font-size="10.00"> </text>
<polyline fill="none" stroke="#bfbfbf" points="22.5,-1708.5 156.5,-1708.5 "/>
<text text-anchor="middle" x="89.5" y="-1696.5" font-family="Helvetica,sans-Serif" font-size="10.00"> </text>
</a>
</g>
</g>
<!-- Node4&#45;&gt;Node3 -->
<g id="edge3" class="edge">
<title>Node4&#45;&gt;Node3</title>
<path fill="none" stroke="midnightblue" d="M94.07,-1679.18C95.21,-1668.38 96.54,-1655.77 98.03,-1641.62"/>
<polygon fill="none" stroke="midnightblue" points="90.56,-1679.07 92.99,-1689.38 97.52,-1679.81 90.56,-1679.07"/>
</g>
<!-- Node5 -->
<g id="node5" class="node">
<title>Node5</title>
<g id="a_node5"><a xlink:title=" ">
<polygon fill="none" stroke="#bfbfbf" points="312,-1695 312,-1752 449,-1752 449,-1695 312,-1695"/>
<text text-anchor="middle" x="380.5" y="-1740" font-family="Helvetica,sans-Serif" font-size="10.00">std::shared_ptr&lt; GSDUtil &gt;</text>
<polyline fill="none" stroke="#bfbfbf" points="312,-1733 449,-1733 "/>
<text text-anchor="middle" x="380.5" y="-1721" font-family="Helvetica,sans-Serif" font-size="10.00"> </text>
<polyline fill="none" stroke="#bfbfbf" points="312,-1714 449,-1714 "/>
<text text-anchor="start" x="320" y="-1702" font-family="Helvetica,sans-Serif" font-size="10.00">+ operator&#45;&gt;()</text>
</a>
</g>
</g>
<!-- Node5&#45;&gt;Node3 -->
<g id="edge4" class="edge">
<title>Node5&#45;&gt;Node3</title>
<path fill="none" stroke="#404040" d="M374.42,-1694.56C358.9,-1623.25 316.13,-1426.78 275.11,-1238.29"/>
<polygon fill="none" stroke="#404040" points="275.09,-1238.18 269.9,-1233.17 272.53,-1226.46 277.72,-1231.47 275.09,-1238.18"/>
<text text-anchor="middle" x="392" y="-1663" font-family="Helvetica,sans-Serif" font-size="10.00"> &#45;m_gsdUtil</text>
</g>
<!-- Node6&#45;&gt;Node5 -->
<g id="edge5" class="edge">
<title>Node6&#45;&gt;Node5</title>
<path fill="none" stroke="#404040" d="M357.93,-1975.61C364.3,-1904.71 372.36,-1815.07 376.92,-1764.32"/>
<polygon fill="none" stroke="#404040" points="376.93,-1764.25 373.48,-1757.91 378,-1752.3 381.45,-1758.63 376.93,-1764.25"/>
<text text-anchor="middle" x="386" y="-1795.5" font-family="Helvetica,sans-Serif" font-size="10.00"> +ptr</text>
</g>
<!-- Node7 -->
<g id="node7" class="node">
<title>Node7</title>
<g id="a_node7"><a xlink:title="STL class.">
<polygon fill="none" stroke="#bfbfbf" points="220.5,-2389 220.5,-2446 280.5,-2446 280.5,-2389 220.5,-2389"/>
<text text-anchor="middle" x="250.5" y="-2434" font-family="Helvetica,sans-Serif" font-size="10.00">std::string</text>
<polyline fill="none" stroke="#bfbfbf" points="220.5,-2427 280.5,-2427 "/>
<text text-anchor="middle" x="250.5" y="-2415" font-family="Helvetica,sans-Serif" font-size="10.00"> </text>
<polyline fill="none" stroke="#bfbfbf" points="220.5,-2408 280.5,-2408 "/>
<text text-anchor="middle" x="250.5" y="-2396" font-family="Helvetica,sans-Serif" font-size="10.00"> </text>
</a>
</g>
</g>
<!-- Node7&#45;&gt;Node1 -->
<g id="edge16" class="edge">
<title>Node7&#45;&gt;Node1</title>
<path fill="none" stroke="#404040" d="M250.69,-2388.71C251.49,-2305.16 255.78,-2048.94 278.5,-1838 285.69,-1771.24 282.51,-1752.78 303.5,-1689 399.12,-1398.45 579.83,-1084.82 677.26,-926.36"/>
<polygon fill="none" stroke="#404040" points="677.55,-925.9 677.29,-918.7 683.85,-915.69 684.1,-922.89 677.55,-925.9"/>
<text text-anchor="middle" x="313" y="-1801" font-family="Helvetica,sans-Serif" font-size="10.00"> &#45;m_logName</text>
<text text-anchor="middle" x="313" y="-1790" font-family="Helvetica,sans-Serif" font-size="10.00">&#45;m_logFile</text>
</g>
<!-- Node7&#45;&gt;Node3 -->
<g id="edge11" class="edge">
<title>Node7&#45;&gt;Node3</title>
<path fill="none" stroke="#404040" d="M230.53,-2388.79C226.14,-2381.39 222.05,-2373.17 219.5,-2365 147.3,-2133.3 193.18,-2062.57 185.5,-1820 183.79,-1765.84 182.47,-1710.01 181.49,-1653.74"/>
<polygon fill="none" stroke="#404040" points="181.49,-1653.73 177.39,-1647.8 181.29,-1641.73 185.39,-1647.66 181.49,-1653.73"/>
<text text-anchor="middle" x="223.5" y="-1812" font-family="Helvetica,sans-Serif" font-size="10.00"> &#45;m_outputDir</text>
<text text-anchor="middle" x="223.5" y="-1801" font-family="Helvetica,sans-Serif" font-size="10.00">&#45;m_logName</text>
<text text-anchor="middle" x="223.5" y="-1790" font-family="Helvetica,sans-Serif" font-size="10.00">&#45;m_logFile</text>
<text text-anchor="middle" x="223.5" y="-1779" font-family="Helvetica,sans-Serif" font-size="10.00">&#45;m_inputGSDFile</text>
</g>
<!-- Node7&#45;&gt;Node6 -->
<g id="edge7" class="edge">
<title>Node7&#45;&gt;Node6</title>
<path fill="none" stroke="#404040" d="M256.4,-2388.81C259.47,-2374.98 263.43,-2358.04 267.5,-2343 280.37,-2295.48 296.14,-2243.6 310.34,-2198.73"/>
<polygon fill="none" stroke="#404040" points="310.37,-2198.62 308.38,-2191.69 314,-2187.18 316,-2194.11 310.37,-2198.62"/>
<text text-anchor="middle" x="297" y="-2357" font-family="Helvetica,sans-Serif" font-size="10.00"> &#45;m_logName</text>
<text text-anchor="middle" x="297" y="-2346" font-family="Helvetica,sans-Serif" font-size="10.00">&#45;m_logFile</text>
</g>
<!-- Node7&#45;&gt;Node14 -->
<g id="edge20" class="edge">
<title>Node7&#45;&gt;Node14</title>
<path fill="none" stroke="#404040" d="M280.71,-2411.14C312.82,-2404.37 364.01,-2390.4 401.5,-2365 411.79,-2358.03 497.26,-2257.23 563.75,-2178"/>
<polygon fill="none" stroke="#404040" points="564.04,-2177.65 564.84,-2170.48 571.76,-2168.45 570.97,-2175.62 564.04,-2177.65"/>
<text text-anchor="middle" x="449" y="-2357" font-family="Helvetica,sans-Serif" font-size="10.00"> &#45;m_logName</text>
<text text-anchor="middle" x="449" y="-2346" font-family="Helvetica,sans-Serif" font-size="10.00">&#45;m_logFile</text>
</g>
<!-- Node8 -->
<g id="node8" class="node">
<title>Node8</title>
<g id="a_node8"><a xlink:title="STL class.">
<polygon fill="none" stroke="#bfbfbf" points="203,-2499.5 203,-2567.5 298,-2567.5 298,-2499.5 203,-2499.5"/>
<text text-anchor="start" x="211" y="-2555.5" font-family="Helvetica,sans-Serif" font-size="10.00">std::basic_string&lt;</text>
<text text-anchor="middle" x="250.5" y="-2544.5" font-family="Helvetica,sans-Serif" font-size="10.00"> char &gt;</text>
<polyline fill="none" stroke="#bfbfbf" points="203,-2537.5 298,-2537.5 "/>
<text text-anchor="middle" x="250.5" y="-2525.5" font-family="Helvetica,sans-Serif" font-size="10.00"> </text>
<polyline fill="none" stroke="#bfbfbf" points="203,-2518.5 298,-2518.5 "/>
<text text-anchor="middle" x="250.5" y="-2506.5" font-family="Helvetica,sans-Serif" font-size="10.00"> </text>
</a>
</g>
</g>
<!-- Node8&#45;&gt;Node7 -->
<g id="edge8" class="edge">
<title>Node8&#45;&gt;Node7</title>
<path fill="none" stroke="midnightblue" d="M250.5,-2489.03C250.5,-2474.67 250.5,-2459.1 250.5,-2446.24"/>
<polygon fill="none" stroke="midnightblue" points="247,-2489.22 250.5,-2499.22 254,-2489.22 247,-2489.22"/>
</g>
<!-- Node9 -->
<g id="node9" class="node">
<title>Node9</title>
<g id="a_node9"><a xlink:title="STL class.">
<polygon fill="none" stroke="#bfbfbf" points="487,-2505 487,-2562 592,-2562 592,-2505 487,-2505"/>
<text text-anchor="middle" x="539.5" y="-2550" font-family="Helvetica,sans-Serif" font-size="10.00">std::shared_ptr&lt; T &gt;</text>
<polyline fill="none" stroke="#bfbfbf" points="487,-2543 592,-2543 "/>
<text text-anchor="middle" x="539.5" y="-2531" font-family="Helvetica,sans-Serif" font-size="10.00"> </text>
<polyline fill="none" stroke="#bfbfbf" points="487,-2524 592,-2524 "/>
<text text-anchor="start" x="495" y="-2512" font-family="Helvetica,sans-Serif" font-size="10.00">+ operator&#45;&gt;()</text>
</a>
</g>
</g>
<!-- Node9&#45;&gt;Node2 -->
<g id="edge15" class="edge">
<title>Node9&#45;&gt;Node2</title>
<path fill="none" stroke="orange" d="M562.1,-2496.22C572.18,-2480.04 583.86,-2461.27 593.23,-2446.24"/>
<polygon fill="orange" stroke="orange" points="559,-2494.57 556.69,-2504.9 564.94,-2498.27 559,-2494.57"/>
<text text-anchor="middle" x="614" y="-2473" font-family="Helvetica,sans-Serif" font-size="10.00"> &lt; systemData &gt;</text>
</g>
<!-- Node9&#45;&gt;Node5 -->
<g id="edge9" class="edge">
<title>Node9&#45;&gt;Node5</title>
<path fill="none" stroke="orange" d="M531.8,-2495.05C524.9,-2461.14 514.65,-2409.79 506.5,-2365 463.99,-2131.37 471.25,-2069.53 418.5,-1838 412.13,-1810.02 409.7,-1803.18 400.5,-1776 397.85,-1768.19 394.73,-1759.81 391.75,-1752.13"/>
<polygon fill="orange" stroke="orange" points="528.4,-2495.88 533.82,-2504.98 535.25,-2494.48 528.4,-2495.88"/>
<text text-anchor="middle" x="535.5" y="-2351.5" font-family="Helvetica,sans-Serif" font-size="10.00"> &lt; GSDUtil &gt;</text>
</g>
<!-- Node11 -->
<g id="node11" class="node">
<title>Node11</title>
<g id="a_node11"><a xlink:title=" ">
<polygon fill="none" stroke="#bfbfbf" points="0,-2383.5 0,-2451.5 107,-2451.5 107,-2383.5 0,-2383.5"/>
<text text-anchor="start" x="8" y="-2439.5" font-family="Helvetica,sans-Serif" font-size="10.00">std::shared_ptr&lt; gsd</text>
<text text-anchor="middle" x="53.5" y="-2428.5" font-family="Helvetica,sans-Serif" font-size="10.00">_handle &gt;</text>
<polyline fill="none" stroke="#bfbfbf" points="0,-2421.5 107,-2421.5 "/>
<text text-anchor="middle" x="53.5" y="-2409.5" font-family="Helvetica,sans-Serif" font-size="10.00"> </text>
<polyline fill="none" stroke="#bfbfbf" points="0,-2402.5 107,-2402.5 "/>
<text text-anchor="middle" x="53.5" y="-2390.5" font-family="Helvetica,sans-Serif" font-size="10.00"> </text>
</a>
</g>
</g>
<!-- Node9&#45;&gt;Node11 -->
<g id="edge14" class="edge">
<title>Node9&#45;&gt;Node11</title>
<path fill="none" stroke="orange" d="M476.66,-2517.76C380.28,-2495.15 197.62,-2452.31 107.11,-2431.08"/>
<polygon fill="orange" stroke="orange" points="476.03,-2521.21 486.56,-2520.08 477.63,-2514.39 476.03,-2521.21"/>
<text text-anchor="middle" x="346" y="-2473" font-family="Helvetica,sans-Serif" font-size="10.00"> &lt; gsd_handle &gt;</text>
</g>
<!-- Node13 -->
<g id="node13" class="node">
<title>Node13</title>
<g id="a_node13"><a xlink:title=" ">
<polygon fill="none" stroke="#bfbfbf" points="771.5,-1689.5 771.5,-1757.5 899.5,-1757.5 899.5,-1689.5 771.5,-1689.5"/>
<text text-anchor="start" x="779.5" y="-1745.5" font-family="Helvetica,sans-Serif" font-size="10.00">std::shared_ptr&lt; potential</text>
<text text-anchor="middle" x="835.5" y="-1734.5" font-family="Helvetica,sans-Serif" font-size="10.00">Hydrodynamics &gt;</text>
<polyline fill="none" stroke="#bfbfbf" points="771.5,-1727.5 899.5,-1727.5 "/>
<text text-anchor="middle" x="835.5" y="-1715.5" font-family="Helvetica,sans-Serif" font-size="10.00"> </text>
<polyline fill="none" stroke="#bfbfbf" points="771.5,-1708.5 899.5,-1708.5 "/>
<text text-anchor="start" x="779.5" y="-1696.5" font-family="Helvetica,sans-Serif" font-size="10.00">+ operator&#45;&gt;()</text>
</a>
</g>
</g>
<!-- Node9&#45;&gt;Node13 -->
<g id="edge21" class="edge">
<title>Node9&#45;&gt;Node13</title>
<path fill="none" stroke="orange" d="M601.89,-2514.81C634.73,-2502.38 672.96,-2482.43 696.5,-2452 799.13,-2319.28 820.23,-2035.16 840.5,-1820 842.45,-1799.34 841.3,-1776.09 839.62,-1757.7"/>
<polygon fill="orange" stroke="orange" points="600.55,-2511.57 592.34,-2518.27 602.93,-2518.15 600.55,-2511.57"/>
<text text-anchor="middle" x="817" y="-2351.5" font-family="Helvetica,sans-Serif" font-size="10.00"> &lt; potentialHydrodynamics &gt;</text>
</g>
<!-- Node10 -->
<g id="node10" class="node">
<title>Node10</title>
<g id="a_node10"><a xlink:title=" ">
<polygon fill="none" stroke="#bfbfbf" points="525,-2615.5 525,-2672.5 554,-2672.5 554,-2615.5 525,-2615.5"/>
<text text-anchor="middle" x="539.5" y="-2660.5" font-family="Helvetica,sans-Serif" font-size="10.00">T</text>
<polyline fill="none" stroke="#bfbfbf" points="525,-2653.5 554,-2653.5 "/>
<text text-anchor="middle" x="539.5" y="-2641.5" font-family="Helvetica,sans-Serif" font-size="10.00"> </text>
<polyline fill="none" stroke="#bfbfbf" points="525,-2634.5 554,-2634.5 "/>
<text text-anchor="middle" x="539.5" y="-2622.5" font-family="Helvetica,sans-Serif" font-size="10.00"> </text>
</a>
</g>
</g>
<!-- Node10&#45;&gt;Node9 -->
<g id="edge10" class="edge">
<title>Node10&#45;&gt;Node9</title>
<path fill="none" stroke="#404040" d="M539.5,-2615.34C539.5,-2602.84 539.5,-2587.84 539.5,-2574.18"/>
<polygon fill="none" stroke="#404040" points="539.5,-2574.11 535.5,-2568.11 539.5,-2562.11 543.5,-2568.11 539.5,-2574.11"/>
<text text-anchor="middle" x="550" y="-2589" font-family="Helvetica,sans-Serif" font-size="10.00"> +ptr</text>
</g>
<!-- Node11&#45;&gt;Node3 -->
<g id="edge12" class="edge">
<title>Node11&#45;&gt;Node3</title>
<path fill="none" stroke="#404040" d="M50.77,-2383.3C42.99,-2286.82 20.79,-1998.12 13.5,-1758 7.12,-1547.66 49.43,-1314.88 93.56,-1134.08"/>
<polygon fill="none" stroke="#404040" points="93.6,-1133.9 91.15,-1127.12 96.47,-1122.25 98.92,-1129.03 93.6,-1133.9"/>
<text text-anchor="middle" x="41" y="-1795.5" font-family="Helvetica,sans-Serif" font-size="10.00"> &#45;m_handle</text>
</g>
<!-- Node12 -->
<g id="node12" class="node">
<title>Node12</title>
<g id="a_node12"><a xlink:title=" ">
<polygon fill="none" stroke="#bfbfbf" points="20.5,-2505 20.5,-2562 86.5,-2562 86.5,-2505 20.5,-2505"/>
<text text-anchor="middle" x="53.5" y="-2550" font-family="Helvetica,sans-Serif" font-size="10.00">gsd_handle</text>
<polyline fill="none" stroke="#bfbfbf" points="20.5,-2543 86.5,-2543 "/>
<text text-anchor="middle" x="53.5" y="-2531" font-family="Helvetica,sans-Serif" font-size="10.00"> </text>
<polyline fill="none" stroke="#bfbfbf" points="20.5,-2524 86.5,-2524 "/>
<text text-anchor="middle" x="53.5" y="-2512" font-family="Helvetica,sans-Serif" font-size="10.00"> </text>
</a>
</g>
</g>
<!-- Node12&#45;&gt;Node11 -->
<g id="edge13" class="edge">
<title>Node12&#45;&gt;Node11</title>
<path fill="none" stroke="#404040" d="M53.5,-2504.9C53.5,-2492.59 53.5,-2477.76 53.5,-2463.89"/>
<polygon fill="none" stroke="#404040" points="53.5,-2463.52 49.5,-2457.52 53.5,-2451.52 57.5,-2457.52 53.5,-2463.52"/>
<text text-anchor="middle" x="64" y="-2473" font-family="Helvetica,sans-Serif" font-size="10.00"> +ptr</text>
</g>
<!-- Node13&#45;&gt;Node1 -->
<g id="edge17" class="edge">
<title>Node13&#45;&gt;Node1</title>
<path fill="none" stroke="#404040" d="M832.12,-1689.38C819.53,-1566.17 775.06,-1130.92 754.31,-927.82"/>
<polygon fill="none" stroke="#404040" points="754.29,-927.61 749.7,-922.05 753.07,-915.67 757.66,-921.23 754.29,-927.61"/>
<text text-anchor="middle" x="858.5" y="-1663" font-family="Helvetica,sans-Serif" font-size="10.00"> &#45;m_potHydro</text>
</g>
<!-- Node14&#45;&gt;Node13 -->
<g id="edge18" class="edge">
<title>Node14&#45;&gt;Node13</title>
<path fill="none" stroke="#404040" d="M715.1,-1966.72C742.1,-1921.8 772.14,-1869.24 796.5,-1820 804.55,-1803.72 812.34,-1785.36 818.82,-1769.12"/>
<polygon fill="none" stroke="#404040" points="818.9,-1768.89 817.37,-1761.85 823.28,-1757.72 824.82,-1764.77 818.9,-1768.89"/>
<text text-anchor="middle" x="826" y="-1795.5" font-family="Helvetica,sans-Serif" font-size="10.00"> +ptr</text>
</g>
</g>
</svg>
