<?xml version="1.0" encoding="UTF-8" standalone="no"?>
<!DOCTYPE svg PUBLIC "-//W3C//DTD SVG 1.1//EN"
 "http://www.w3.org/Graphics/SVG/1.1/DTD/svg11.dtd">
<!-- Generated by graphviz version 2.43.0 (0)
 -->
<!-- Title: GSDUtil::writeHeader Pages: 1 -->
<svg width="763pt" height="296pt"
 viewBox="0.00 0.00 763.00 296.06" xmlns="http://www.w3.org/2000/svg" xmlns:xlink="http://www.w3.org/1999/xlink">
<g id="graph0" class="graph" transform="scale(1 1) rotate(0) translate(4 292.06)">
<title>GSDUtil::writeHeader</title>
<!-- Node1 -->
<g id="node1" class="node">
<title>Node1</title>
<g id="a_node1"><a xlink:title=" ">
<polygon fill="#bfbfbf" stroke="black" points="0,-171.5 0,-190.5 112,-190.5 112,-171.5 0,-171.5"/>
<text text-anchor="middle" x="56" y="-178.5" font-family="Helvetica,sans-Serif" font-size="10.00">GSDUtil::writeHeader</text>
</a>
</g>
</g>
<!-- Node2 -->
<g id="node2" class="node">
<title>Node2</title>
<g id="a_node2"><a xlink:href="classGSDUtil.html#a00a919382c11e9dd1fa7ae1a8788d4c0" target="_top" xlink:title=" ">
<polygon fill="none" stroke="black" points="148,-209.5 148,-228.5 285,-228.5 285,-209.5 148,-209.5"/>
<text text-anchor="middle" x="216.5" y="-216.5" font-family="Helvetica,sans-Serif" font-size="10.00">GSDUtil::checkGSDReturn</text>
</a>
</g>
</g>
<!-- Node1&#45;&gt;Node2 -->
<g id="edge1" class="edge">
<title>Node1&#45;&gt;Node2</title>
<path fill="none" stroke="midnightblue" d="M97,-190.59C117.91,-195.6 143.71,-201.79 165.89,-207.11"/>
<polygon fill="midnightblue" stroke="midnightblue" points="165.25,-210.55 175.79,-209.48 166.88,-203.74 165.25,-210.55"/>
</g>
<!-- Node3 -->
<g id="node3" class="node">
<title>Node3</title>
<g id="a_node3"><a xlink:href="gsd_8c.html#a7479046d4d6e15c33cb24034ddd87562" target="_top" xlink:title=" ">
<polygon fill="none" stroke="black" points="170.5,-171.5 170.5,-190.5 262.5,-190.5 262.5,-171.5 170.5,-171.5"/>
<text text-anchor="middle" x="216.5" y="-178.5" font-family="Helvetica,sans-Serif" font-size="10.00">gsd_get_nframes</text>
</a>
</g>
</g>
<!-- Node1&#45;&gt;Node3 -->
<g id="edge2" class="edge">
<title>Node1&#45;&gt;Node3</title>
<path fill="none" stroke="midnightblue" d="M112.44,-181C127.81,-181 144.51,-181 159.89,-181"/>
<polygon fill="midnightblue" stroke="midnightblue" points="160.31,-184.5 170.31,-181 160.31,-177.5 160.31,-184.5"/>
</g>
<!-- Node4 -->
<g id="node4" class="node">
<title>Node4</title>
<g id="a_node4"><a xlink:href="gsd_8c.html#ae22447904b925f284bf987fae448488a" target="_top" xlink:title=" ">
<polygon fill="none" stroke="black" points="171.5,-133.5 171.5,-152.5 261.5,-152.5 261.5,-133.5 171.5,-133.5"/>
<text text-anchor="middle" x="216.5" y="-140.5" font-family="Helvetica,sans-Serif" font-size="10.00">gsd_write_chunk</text>
</a>
</g>
</g>
<!-- Node1&#45;&gt;Node4 -->
<g id="edge3" class="edge">
<title>Node1&#45;&gt;Node4</title>
<path fill="none" stroke="midnightblue" d="M97,-171.41C117.91,-166.4 143.71,-160.21 165.89,-154.89"/>
<polygon fill="midnightblue" stroke="midnightblue" points="166.88,-158.26 175.79,-152.52 165.25,-151.45 166.88,-158.26"/>
</g>
<!-- Node5 -->
<g id="node5" class="node">
<title>Node5</title>
<g id="a_node5"><a xlink:href="gsd_8c.html#aa1a0a7dcf4015edcadbb47a6451b4a4b" target="_top" xlink:title=" ">
<polygon fill="none" stroke="black" points="331.5,-190.5 331.5,-209.5 429.5,-209.5 429.5,-190.5 331.5,-190.5"/>
<text text-anchor="middle" x="380.5" y="-197.5" font-family="Helvetica,sans-Serif" font-size="10.00">gsd_append_name</text>
</a>
</g>
</g>
<!-- Node4&#45;&gt;Node5 -->
<g id="edge4" class="edge">
<title>Node4&#45;&gt;Node5</title>
<path fill="none" stroke="midnightblue" d="M254.15,-152.54C264.22,-155.37 275.09,-158.62 285,-162 291.21,-164.11 321.94,-176.53 346.7,-186.61"/>
<polygon fill="midnightblue" stroke="midnightblue" points="345.59,-189.93 356.17,-190.47 348.23,-183.45 345.59,-189.93"/>
</g>
<!-- Node6 -->
<g id="node6" class="node">
<title>Node6</title>
<g id="a_node6"><a xlink:href="gsd_8c.html#a7a717f9dafe011e68434e181c76253af" target="_top" xlink:title=" ">
<polygon fill="none" stroke="black" points="479,-228.5 479,-247.5 601,-247.5 601,-228.5 479,-228.5"/>
<text text-anchor="middle" x="540" y="-235.5" font-family="Helvetica,sans-Serif" font-size="10.00">gsd_byte_buffer_append</text>
</a>
</g>
</g>
<!-- Node4&#45;&gt;Node6 -->
<g id="edge10" class="edge">
<title>Node4&#45;&gt;Node6</title>
<path fill="none" stroke="midnightblue" d="M261.8,-150.45C270.03,-153.17 278.17,-156.9 285,-162 309.02,-179.92 295.41,-203.41 321,-219 364.89,-245.74 423.26,-249.52 468.56,-247.15"/>
<polygon fill="midnightblue" stroke="midnightblue" points="468.84,-250.64 478.6,-246.51 468.4,-243.65 468.84,-250.64"/>
</g>
<!-- Node7 -->
<g id="node7" class="node">
<title>Node7</title>
<g id="a_node7"><a xlink:href="gsd_8c.html#a9b05d58560daee2512f03bedf7b2926d" target="_top" xlink:title=" ">
<polygon fill="none" stroke="black" points="640,-228.5 640,-247.5 755,-247.5 755,-228.5 640,-228.5"/>
<text text-anchor="middle" x="697.5" y="-235.5" font-family="Helvetica,sans-Serif" font-size="10.00">gsd_util_zero_memory</text>
</a>
</g>
</g>
<!-- Node4&#45;&gt;Node7 -->
<g id="edge20" class="edge">
<title>Node4&#45;&gt;Node7</title>
<path fill="none" stroke="midnightblue" d="M261.79,-149.36C270.21,-152.17 278.42,-156.21 285,-162 315.78,-189.12 287.55,-223.25 321,-247 425.66,-321.29 591.35,-276.03 662.36,-251.13"/>
<polygon fill="midnightblue" stroke="midnightblue" points="663.9,-254.3 672.13,-247.62 661.53,-247.71 663.9,-254.3"/>
</g>
<!-- Node11 -->
<g id="node11" class="node">
<title>Node11</title>
<g id="a_node11"><a xlink:href="gsd_8c.html#a61daeaa70162e9bac3d241832b460278" target="_top" xlink:title=" ">
<polygon fill="none" stroke="black" points="323.5,-114.5 323.5,-133.5 437.5,-133.5 437.5,-114.5 323.5,-114.5"/>
<text text-anchor="middle" x="380.5" y="-121.5" font-family="Helvetica,sans-Serif" font-size="10.00">gsd_flush_write_buffer</text>
</a>
</g>
</g>
<!-- Node4&#45;&gt;Node11 -->
<g id="edge11" class="edge">
<title>Node4&#45;&gt;Node11</title>
<path fill="none" stroke="midnightblue" d="M261.77,-137.81C277.66,-135.94 295.96,-133.8 313.31,-131.76"/>
<polygon fill="midnightblue" stroke="midnightblue" points="313.87,-135.22 323.39,-130.58 313.05,-128.27 313.87,-135.22"/>
</g>
<!-- Node12 -->
<g id="node12" class="node">
<title>Node12</title>
<g id="a_node12"><a xlink:href="gsd_8c.html#a258b64725f90f60d969752d65fba9850" target="_top" xlink:title=" ">
<polygon fill="none" stroke="black" points="484.5,-114.5 484.5,-133.5 595.5,-133.5 595.5,-114.5 484.5,-114.5"/>
<text text-anchor="middle" x="540" y="-121.5" font-family="Helvetica,sans-Serif" font-size="10.00">gsd_index_buffer_add</text>
</a>
</g>
</g>
<!-- Node4&#45;&gt;Node12 -->
<g id="edge15" class="edge">
<title>Node4&#45;&gt;Node12</title>
<path fill="none" stroke="midnightblue" d="M261.52,-145.45C306.49,-147.38 378.28,-148.87 440,-143 456.01,-141.48 473.28,-138.6 488.84,-135.54"/>
<polygon fill="midnightblue" stroke="midnightblue" points="489.69,-138.94 498.79,-133.51 488.29,-132.08 489.69,-138.94"/>
</g>
<!-- Node13 -->
<g id="node13" class="node">
<title>Node13</title>
<g id="a_node13"><a xlink:href="gsd_8c.html#a3fb7746d93a1c856ca7ef64fa3548cbe" target="_top" xlink:title=" ">
<polygon fill="none" stroke="black" points="489.5,-76.5 489.5,-95.5 590.5,-95.5 590.5,-76.5 489.5,-76.5"/>
<text text-anchor="middle" x="540" y="-83.5" font-family="Helvetica,sans-Serif" font-size="10.00">gsd_io_pwrite_retry</text>
</a>
</g>
</g>
<!-- Node4&#45;&gt;Node13 -->
<g id="edge16" class="edge">
<title>Node4&#45;&gt;Node13</title>
<path fill="none" stroke="midnightblue" d="M238.41,-133.45C258.97,-124.51 291.48,-111.58 321,-105 373.63,-93.26 434.92,-88.7 479.08,-86.96"/>
<polygon fill="midnightblue" stroke="midnightblue" points="479.21,-90.46 489.08,-86.61 478.96,-83.47 479.21,-90.46"/>
</g>
<!-- Node14 -->
<g id="node14" class="node">
<title>Node14</title>
<g id="a_node14"><a xlink:href="gsd_8c.html#a31b9400272036b121040e9fc0a9e626b" target="_top" xlink:title=" ">
<polygon fill="none" stroke="black" points="321,-38.5 321,-57.5 440,-57.5 440,-38.5 321,-38.5"/>
<text text-anchor="middle" x="380.5" y="-45.5" font-family="Helvetica,sans-Serif" font-size="10.00">gsd_name_id_map_find</text>
</a>
</g>
</g>
<!-- Node4&#45;&gt;Node14 -->
<g id="edge17" class="edge">
<title>Node4&#45;&gt;Node14</title>
<path fill="none" stroke="midnightblue" d="M229.7,-133.36C248.52,-118.78 286.11,-90.85 321,-72 328.06,-68.18 335.86,-64.59 343.41,-61.4"/>
<polygon fill="midnightblue" stroke="midnightblue" points="344.8,-64.61 352.74,-57.6 342.16,-58.13 344.8,-64.61"/>
</g>
<!-- Node15 -->
<g id="node15" class="node">
<title>Node15</title>
<g id="a_node15"><a xlink:href="gsd_8c.html#ab1d1a8a5f73b37df0c706f41df3bdd69" target="_top" xlink:title=" ">
<polygon fill="none" stroke="black" points="336.5,-0.5 336.5,-19.5 424.5,-19.5 424.5,-0.5 336.5,-0.5"/>
<text text-anchor="middle" x="380.5" y="-7.5" font-family="Helvetica,sans-Serif" font-size="10.00">gsd_sizeof_type</text>
</a>
</g>
</g>
<!-- Node4&#45;&gt;Node15 -->
<g id="edge19" class="edge">
<title>Node4&#45;&gt;Node15</title>
<path fill="none" stroke="midnightblue" d="M223.75,-133.19C238.18,-111.28 276.1,-58.02 321,-29 324.14,-26.97 327.52,-25.14 331.02,-23.49"/>
<polygon fill="midnightblue" stroke="midnightblue" points="332.57,-26.63 340.44,-19.54 329.87,-20.17 332.57,-26.63"/>
</g>
<!-- Node5&#45;&gt;Node6 -->
<g id="edge5" class="edge">
<title>Node5&#45;&gt;Node6</title>
<path fill="none" stroke="midnightblue" d="M421.24,-209.59C442.03,-214.6 467.66,-220.79 489.7,-226.11"/>
<polygon fill="midnightblue" stroke="midnightblue" points="489,-229.54 499.54,-228.48 490.64,-222.73 489,-229.54"/>
</g>
<!-- Node8 -->
<g id="node8" class="node">
<title>Node8</title>
<g id="a_node8"><a xlink:href="gsd_8c.html#a493ef951956c9f98adff89a80ddb3fa6" target="_top" xlink:title=" ">
<polygon fill="none" stroke="black" points="491,-190.5 491,-209.5 589,-209.5 589,-190.5 491,-190.5"/>
<text text-anchor="middle" x="540" y="-197.5" font-family="Helvetica,sans-Serif" font-size="10.00">gsd_make_version</text>
</a>
</g>
</g>
<!-- Node5&#45;&gt;Node8 -->
<g id="edge7" class="edge">
<title>Node5&#45;&gt;Node8</title>
<path fill="none" stroke="midnightblue" d="M429.61,-200C445.72,-200 463.85,-200 480.65,-200"/>
<polygon fill="midnightblue" stroke="midnightblue" points="480.91,-203.5 490.91,-200 480.91,-196.5 480.91,-203.5"/>
</g>
<!-- Node9 -->
<g id="node9" class="node">
<title>Node9</title>
<g id="a_node9"><a xlink:href="gsd_8c.html#a6c8c2e5a49ac4eb01a95be2e0df06eb9" target="_top" xlink:title=" ">
<polygon fill="none" stroke="black" points="476,-152.5 476,-171.5 604,-171.5 604,-152.5 476,-152.5"/>
<text text-anchor="middle" x="540" y="-159.5" font-family="Helvetica,sans-Serif" font-size="10.00">gsd_name_id_map_insert</text>
</a>
</g>
</g>
<!-- Node5&#45;&gt;Node9 -->
<g id="edge8" class="edge">
<title>Node5&#45;&gt;Node9</title>
<path fill="none" stroke="midnightblue" d="M421.24,-190.41C442.03,-185.4 467.66,-179.21 489.7,-173.89"/>
<polygon fill="midnightblue" stroke="midnightblue" points="490.64,-177.27 499.54,-171.52 489,-170.46 490.64,-177.27"/>
</g>
<!-- Node6&#45;&gt;Node7 -->
<g id="edge6" class="edge">
<title>Node6&#45;&gt;Node7</title>
<path fill="none" stroke="midnightblue" d="M601.12,-238C610.47,-238 620.18,-238 629.67,-238"/>
<polygon fill="midnightblue" stroke="midnightblue" points="629.85,-241.5 639.85,-238 629.85,-234.5 629.85,-241.5"/>
</g>
<!-- Node10 -->
<g id="node10" class="node">
<title>Node10</title>
<g id="a_node10"><a xlink:href="gsd_8c.html#a6d8087323ec29c58d907b9462b4a31da" target="_top" xlink:title=" ">
<polygon fill="none" stroke="black" points="660,-95.5 660,-114.5 735,-114.5 735,-95.5 660,-95.5"/>
<text text-anchor="middle" x="697.5" y="-102.5" font-family="Helvetica,sans-Serif" font-size="10.00">gsd_hash_str</text>
</a>
</g>
</g>
<!-- Node9&#45;&gt;Node10 -->
<g id="edge9" class="edge">
<title>Node9&#45;&gt;Node10</title>
<path fill="none" stroke="midnightblue" d="M574.87,-152.44C584.36,-149.59 594.63,-146.33 604,-143 624.84,-135.6 647.85,-126.15 665.71,-118.53"/>
<polygon fill="midnightblue" stroke="midnightblue" points="667.25,-121.67 675.05,-114.5 664.48,-115.24 667.25,-121.67"/>
</g>
<!-- Node11&#45;&gt;Node12 -->
<g id="edge12" class="edge">
<title>Node11&#45;&gt;Node12</title>
<path fill="none" stroke="midnightblue" d="M437.92,-124C449.71,-124 462.23,-124 474.29,-124"/>
<polygon fill="midnightblue" stroke="midnightblue" points="474.3,-127.5 484.3,-124 474.3,-120.5 474.3,-127.5"/>
</g>
<!-- Node11&#45;&gt;Node13 -->
<g id="edge14" class="edge">
<title>Node11&#45;&gt;Node13</title>
<path fill="none" stroke="midnightblue" d="M421.24,-114.41C442.03,-109.4 467.66,-103.21 489.7,-97.89"/>
<polygon fill="midnightblue" stroke="midnightblue" points="490.64,-101.27 499.54,-95.52 489,-94.46 490.64,-101.27"/>
</g>
<!-- Node12&#45;&gt;Node7 -->
<g id="edge13" class="edge">
<title>Node12&#45;&gt;Node7</title>
<path fill="none" stroke="midnightblue" d="M583.28,-133.51C590.47,-136.02 597.65,-139.15 604,-143 637.57,-163.39 667.48,-198.8 683.7,-220.15"/>
<polygon fill="midnightblue" stroke="midnightblue" points="681.02,-222.41 689.78,-228.36 686.64,-218.24 681.02,-222.41"/>
</g>
<!-- Node14&#45;&gt;Node10 -->
<g id="edge18" class="edge">
<title>Node14&#45;&gt;Node10</title>
<path fill="none" stroke="midnightblue" d="M440.37,-48.17C485.68,-49.47 549.55,-53.82 604,-67 626.5,-72.45 650.65,-82.52 668.63,-90.93"/>
<polygon fill="midnightblue" stroke="midnightblue" points="667.4,-94.23 677.93,-95.39 670.43,-87.92 667.4,-94.23"/>
</g>
</g>
</svg>
