<?xml version="1.0" encoding="UTF-8" standalone="no"?>
<!DOCTYPE svg PUBLIC "-//W3C//DTD SVG 1.1//EN"
 "http://www.w3.org/Graphics/SVG/1.1/DTD/svg11.dtd">
<!-- Generated by graphviz version 2.43.0 (0)
 -->
<!-- Title: systemData::eMatrix Pages: 1 -->
<svg width="718pt" height="88pt"
 viewBox="0.00 0.00 718.00 88.00" xmlns="http://www.w3.org/2000/svg" xmlns:xlink="http://www.w3.org/1999/xlink">
<g id="graph0" class="graph" transform="scale(1 1) rotate(0) translate(4 84)">
<title>systemData::eMatrix</title>
<!-- Node1 -->
<g id="node1" class="node">
<title>Node1</title>
<g id="a_node1"><a xlink:title="Computes the E matrix of quaternion (4&#45;vector) input.">
<polygon fill="#bfbfbf" stroke="black" points="602,-30 602,-49 710,-49 710,-30 602,-30"/>
<text text-anchor="middle" x="656" y="-37" font-family="Helvetica,sans-Serif" font-size="10.00">systemData::eMatrix</text>
</a>
</g>
</g>
<!-- Node2 -->
<g id="node2" class="node">
<title>Node2</title>
<g id="a_node2"><a xlink:href="classsystemData.html#a3c41026c4b66d4f6e6e22a6398c6ced8" target="_top" xlink:title="Computes the gradients rigid body motion connectivity tensors and tensors associated with change of v...">
<polygon fill="none" stroke="black" points="421,-49.5 421,-79.5 565,-79.5 565,-49.5 421,-49.5"/>
<text text-anchor="start" x="429" y="-67.5" font-family="Helvetica,sans-Serif" font-size="10.00">systemData::gradientChange</text>
<text text-anchor="middle" x="493" y="-56.5" font-family="Helvetica,sans-Serif" font-size="10.00">OfVariableTensors</text>
</a>
</g>
</g>
<!-- Node1&#45;&gt;Node2 -->
<g id="edge1" class="edge">
<title>Node1&#45;&gt;Node2</title>
<path fill="none" stroke="midnightblue" d="M591.76,-49.32C583.05,-50.67 574.05,-52.07 565.2,-53.44"/>
<polygon fill="midnightblue" stroke="midnightblue" points="592.49,-52.75 601.84,-47.76 591.42,-45.83 592.49,-52.75"/>
</g>
<!-- Node6 -->
<g id="node6" class="node">
<title>Node6</title>
<g id="a_node6"><a xlink:href="classsystemData.html#a05afc9e7e7423d88def51ec43ab91a33" target="_top" xlink:title="Computes the rigid body motion connectivity tensors.">
<polygon fill="none" stroke="black" points="420,-0.5 420,-30.5 566,-30.5 566,-0.5 420,-0.5"/>
<text text-anchor="start" x="428" y="-18.5" font-family="Helvetica,sans-Serif" font-size="10.00">systemData::rigidBodyMotion</text>
<text text-anchor="middle" x="493" y="-7.5" font-family="Helvetica,sans-Serif" font-size="10.00">Tensors</text>
</a>
</g>
</g>
<!-- Node1&#45;&gt;Node6 -->
<g id="edge5" class="edge">
<title>Node1&#45;&gt;Node6</title>
<path fill="none" stroke="midnightblue" d="M591.72,-30.07C583.31,-28.81 574.62,-27.52 566.07,-26.24"/>
<polygon fill="midnightblue" stroke="midnightblue" points="591.43,-33.56 601.84,-31.57 592.46,-26.64 591.43,-33.56"/>
</g>
<!-- Node3 -->
<g id="node3" class="node">
<title>Node3</title>
<g id="a_node3"><a xlink:href="classsystemData.html#abe08e8ef40710f40f585342d24076085" target="_top" xlink:title="Updates all relevant rigid body motion tensors, respective gradients, and kinematic/Udwadia constrain...">
<polygon fill="none" stroke="black" points="279,-30 279,-49 384,-49 384,-30 279,-30"/>
<text text-anchor="middle" x="331.5" y="-37" font-family="Helvetica,sans-Serif" font-size="10.00">systemData::update</text>
</a>
</g>
</g>
<!-- Node2&#45;&gt;Node3 -->
<g id="edge2" class="edge">
<title>Node2&#45;&gt;Node3</title>
<path fill="none" stroke="midnightblue" d="M410.54,-51.73C401.58,-50.33 392.65,-48.93 384.2,-47.6"/>
<polygon fill="midnightblue" stroke="midnightblue" points="410.23,-55.23 420.65,-53.32 411.31,-48.31 410.23,-55.23"/>
</g>
<!-- Node4 -->
<g id="node4" class="node">
<title>Node4</title>
<g id="a_node4"><a xlink:href="classsystemData.html#ad2ba3455704ef6cec1aac76a417e91e9" target="_top" xlink:title="Function loads data from GSD file using GSDUtil class.">
<polygon fill="none" stroke="black" points="111,-30 111,-49 243,-49 243,-30 111,-30"/>
<text text-anchor="middle" x="177" y="-37" font-family="Helvetica,sans-Serif" font-size="10.00">systemData::initializeData</text>
</a>
</g>
</g>
<!-- Node3&#45;&gt;Node4 -->
<g id="edge3" class="edge">
<title>Node3&#45;&gt;Node4</title>
<path fill="none" stroke="midnightblue" d="M268.72,-39.5C260.28,-39.5 251.59,-39.5 243.1,-39.5"/>
<polygon fill="midnightblue" stroke="midnightblue" points="268.87,-43 278.87,-39.5 268.87,-36 268.87,-43"/>
</g>
<!-- Node5 -->
<g id="node5" class="node">
<title>Node5</title>
<g id="a_node5"><a xlink:href="testSimulationBuild_8cpp.html#ac2b102ba50512565940601db33c64cf2" target="_top" xlink:title=" ">
<polygon fill="none" stroke="black" points="0,-30 0,-49 75,-49 75,-30 0,-30"/>
<text text-anchor="middle" x="37.5" y="-37" font-family="Helvetica,sans-Serif" font-size="10.00">TEST_CASE</text>
</a>
</g>
</g>
<!-- Node4&#45;&gt;Node5 -->
<g id="edge4" class="edge">
<title>Node4&#45;&gt;Node5</title>
<path fill="none" stroke="midnightblue" d="M100.85,-39.5C92,-39.5 83.29,-39.5 75.31,-39.5"/>
<polygon fill="midnightblue" stroke="midnightblue" points="100.87,-43 110.87,-39.5 100.87,-36 100.87,-43"/>
</g>
<!-- Node6&#45;&gt;Node3 -->
<g id="edge6" class="edge">
<title>Node6&#45;&gt;Node3</title>
<path fill="none" stroke="midnightblue" d="M409.82,-27.87C401.04,-29.19 392.31,-30.5 384.04,-31.75"/>
<polygon fill="midnightblue" stroke="midnightblue" points="410.35,-31.33 419.72,-26.38 409.31,-24.4 410.35,-31.33"/>
</g>
</g>
</svg>
