<?xml version="1.0" encoding="UTF-8" standalone="no"?>
<!DOCTYPE svg PUBLIC "-//W3C//DTD SVG 1.1//EN"
 "http://www.w3.org/Graphics/SVG/1.1/DTD/svg11.dtd">
<!-- Generated by graphviz version 2.43.0 (0)
 -->
<!-- Title: rungeKutta4::accelerationUpdate Pages: 1 -->
<svg width="327pt" height="104pt"
 viewBox="0.00 0.00 327.00 104.00" xmlns="http://www.w3.org/2000/svg" xmlns:xlink="http://www.w3.org/1999/xlink">
<g id="graph0" class="graph" transform="scale(1 1) rotate(0) translate(4 100)">
<title>rungeKutta4::accelerationUpdate</title>
<!-- Node1 -->
<g id="node1" class="node">
<title>Node1</title>
<g id="a_node1"><a xlink:title="Helper function for integrateSecondOrder().">
<polygon fill="#bfbfbf" stroke="black" points="0,-33 0,-63 128,-63 128,-33 0,-33"/>
<text text-anchor="start" x="8" y="-51" font-family="Helvetica,sans-Serif" font-size="10.00">rungeKutta4::acceleration</text>
<text text-anchor="middle" x="64" y="-40" font-family="Helvetica,sans-Serif" font-size="10.00">Update</text>
</a>
</g>
</g>
<!-- Node2 -->
<g id="node2" class="node">
<title>Node2</title>
<g id="a_node2"><a xlink:href="classrungeKutta4.html#a8142c4494ec260fd5676735baca12891" target="_top" xlink:title="Replaces 2nd 1/2 of body acceleration D.o.F. with image of 1st 1/2 assuming the reflection plane is .">
<polygon fill="none" stroke="black" points="171,-76.5 171,-95.5 312,-95.5 312,-76.5 171,-76.5"/>
<text text-anchor="middle" x="241.5" y="-83.5" font-family="Helvetica,sans-Serif" font-size="10.00">rungeKutta4::imageBodyAcc</text>
</a>
</g>
</g>
<!-- Node1&#45;&gt;Node2 -->
<g id="edge1" class="edge">
<title>Node1&#45;&gt;Node2</title>
<path fill="none" stroke="midnightblue" d="M128.36,-61.72C147.41,-65.84 168.13,-70.33 186.52,-74.31"/>
<polygon fill="midnightblue" stroke="midnightblue" points="185.95,-77.77 196.47,-76.47 187.44,-70.93 185.95,-77.77"/>
</g>
<!-- Node3 -->
<g id="node3" class="node">
<title>Node3</title>
<g id="a_node3"><a xlink:href="classrungeKutta4.html#a8fb1d493e6e66a276e6b447f5bc04151" target="_top" xlink:title="Replaces 2nd 1/2 of body position and velocity D.o.F. with image of 1st 1/2 assuming the reflection p...">
<polygon fill="none" stroke="black" points="164,-38.5 164,-57.5 319,-57.5 319,-38.5 164,-38.5"/>
<text text-anchor="middle" x="241.5" y="-45.5" font-family="Helvetica,sans-Serif" font-size="10.00">rungeKutta4::imageBodyPosVel</text>
</a>
</g>
</g>
<!-- Node1&#45;&gt;Node3 -->
<g id="edge2" class="edge">
<title>Node1&#45;&gt;Node3</title>
<path fill="none" stroke="midnightblue" d="M128.36,-48C136.62,-48 145.19,-48 153.74,-48"/>
<polygon fill="midnightblue" stroke="midnightblue" points="153.76,-51.5 163.76,-48 153.76,-44.5 153.76,-51.5"/>
</g>
<!-- Node4 -->
<g id="node4" class="node">
<title>Node4</title>
<g id="a_node4"><a xlink:href="classrungeKutta4.html#af8d44cd795c66d601274a8db5bf37b97" target="_top" xlink:title="Calculates the body acceleration components given the constraints established by the Udwadia linear s...">
<polygon fill="none" stroke="black" points="171,-0.5 171,-19.5 312,-19.5 312,-0.5 171,-0.5"/>
<text text-anchor="middle" x="241.5" y="-7.5" font-family="Helvetica,sans-Serif" font-size="10.00">rungeKutta4::udwadiaKalaba</text>
</a>
</g>
</g>
<!-- Node1&#45;&gt;Node4 -->
<g id="edge3" class="edge">
<title>Node1&#45;&gt;Node4</title>
<path fill="none" stroke="midnightblue" d="M128.36,-34.28C147.41,-30.16 168.13,-25.67 186.52,-21.69"/>
<polygon fill="midnightblue" stroke="midnightblue" points="187.44,-25.07 196.47,-19.53 185.95,-18.23 187.44,-25.07"/>
</g>
</g>
</svg>
