<?xml version="1.0" encoding="UTF-8" standalone="no"?>
<!DOCTYPE svg PUBLIC "-//W3C//DTD SVG 1.1//EN"
 "http://www.w3.org/Graphics/SVG/1.1/DTD/svg11.dtd">
<!-- Generated by graphviz version 2.43.0 (0)
 -->
<!-- Title: GSDUtil Pages: 1 -->
<svg width="1036pt" height="2428pt"
 viewBox="0.00 0.00 1036.00 2428.00" xmlns="http://www.w3.org/2000/svg" xmlns:xlink="http://www.w3.org/1999/xlink">
<g id="graph0" class="graph" transform="scale(1 1) rotate(0) translate(4 2424)">
<title>GSDUtil</title>
<!-- Node1 -->
<g id="node1" class="node">
<title>Node1</title>
<g id="a_node1"><a xlink:title=" ">
<polygon fill="#bfbfbf" stroke="black" points="902,-1800.5 902,-2011.5 1024,-2011.5 1024,-1800.5 902,-1800.5"/>
<text text-anchor="middle" x="963" y="-1999.5" font-family="Helvetica,sans-Serif" font-size="10.00">GSDUtil</text>
<polyline fill="none" stroke="black" points="902,-1992.5 1024,-1992.5 "/>
<text text-anchor="start" x="910" y="-1980.5" font-family="Helvetica,sans-Serif" font-size="10.00">&#45; m_frame</text>
<polyline fill="none" stroke="black" points="902,-1973.5 1024,-1973.5 "/>
<text text-anchor="start" x="910" y="-1961.5" font-family="Helvetica,sans-Serif" font-size="10.00">+ GSDUtil()</text>
<text text-anchor="start" x="910" y="-1950.5" font-family="Helvetica,sans-Serif" font-size="10.00">+ GSDUtil()</text>
<text text-anchor="start" x="910" y="-1939.5" font-family="Helvetica,sans-Serif" font-size="10.00">+ ~GSDUtil()</text>
<text text-anchor="start" x="910" y="-1928.5" font-family="Helvetica,sans-Serif" font-size="10.00">+ truncateGSD()</text>
<text text-anchor="start" x="910" y="-1917.5" font-family="Helvetica,sans-Serif" font-size="10.00">+ writeFrame()</text>
<text text-anchor="start" x="910" y="-1906.5" font-family="Helvetica,sans-Serif" font-size="10.00">+ frame()</text>
<text text-anchor="start" x="910" y="-1895.5" font-family="Helvetica,sans-Serif" font-size="10.00">&#45; checkGSDReturn()</text>
<text text-anchor="start" x="910" y="-1884.5" font-family="Helvetica,sans-Serif" font-size="10.00">&#45; readChunk()</text>
<text text-anchor="start" x="910" y="-1873.5" font-family="Helvetica,sans-Serif" font-size="10.00">&#45; readHeader()</text>
<text text-anchor="start" x="910" y="-1862.5" font-family="Helvetica,sans-Serif" font-size="10.00">&#45; readParameters()</text>
<text text-anchor="start" x="910" y="-1851.5" font-family="Helvetica,sans-Serif" font-size="10.00">&#45; readParticles()</text>
<text text-anchor="start" x="910" y="-1840.5" font-family="Helvetica,sans-Serif" font-size="10.00">&#45; readSystemSpecifics()</text>
<text text-anchor="start" x="910" y="-1829.5" font-family="Helvetica,sans-Serif" font-size="10.00">&#45; writeHeader()</text>
<text text-anchor="start" x="910" y="-1818.5" font-family="Helvetica,sans-Serif" font-size="10.00">&#45; writeParameters()</text>
<text text-anchor="start" x="910" y="-1807.5" font-family="Helvetica,sans-Serif" font-size="10.00">&#45; writeParticles()</text>
</a>
</g>
</g>
<!-- Node5 -->
<g id="node5" class="node">
<title>Node5</title>
<g id="a_node5"><a xlink:title=" ">
<polygon fill="none" stroke="#bfbfbf" points="546.5,-1657 546.5,-1714 683.5,-1714 683.5,-1657 546.5,-1657"/>
<text text-anchor="middle" x="615" y="-1702" font-family="Helvetica,sans-Serif" font-size="10.00">std::shared_ptr&lt; GSDUtil &gt;</text>
<polyline fill="none" stroke="#bfbfbf" points="546.5,-1695 683.5,-1695 "/>
<text text-anchor="middle" x="615" y="-1683" font-family="Helvetica,sans-Serif" font-size="10.00"> </text>
<polyline fill="none" stroke="#bfbfbf" points="546.5,-1676 683.5,-1676 "/>
<text text-anchor="start" x="554.5" y="-1664" font-family="Helvetica,sans-Serif" font-size="10.00">+ operator&#45;&gt;()</text>
</a>
</g>
</g>
<!-- Node1&#45;&gt;Node5 -->
<g id="edge5" class="edge">
<title>Node1&#45;&gt;Node5</title>
<path fill="none" stroke="#404040" d="M959.73,-1800.34C956.62,-1772.45 951,-1747.43 941,-1738 920.9,-1719.04 719.84,-1726.54 693,-1720 690.38,-1719.36 687.74,-1718.64 685.09,-1717.86"/>
<polygon fill="none" stroke="#404040" points="684.89,-1717.79 677.94,-1719.73 673.49,-1714.06 680.43,-1712.13 684.89,-1717.79"/>
<text text-anchor="middle" x="967.5" y="-1757.5" font-family="Helvetica,sans-Serif" font-size="10.00"> +ptr</text>
</g>
<!-- Node2 -->
<g id="node2" class="node">
<title>Node2</title>
<g id="a_node2"><a xlink:title=" ">
<polygon fill="none" stroke="#bfbfbf" points="591.5,-0.5 591.5,-57.5 744.5,-57.5 744.5,-0.5 591.5,-0.5"/>
<text text-anchor="middle" x="668" y="-45.5" font-family="Helvetica,sans-Serif" font-size="10.00">std::shared_ptr&lt; systemData &gt;</text>
<polyline fill="none" stroke="#bfbfbf" points="591.5,-38.5 744.5,-38.5 "/>
<text text-anchor="middle" x="668" y="-26.5" font-family="Helvetica,sans-Serif" font-size="10.00"> </text>
<polyline fill="none" stroke="#bfbfbf" points="591.5,-19.5 744.5,-19.5 "/>
<text text-anchor="start" x="599.5" y="-7.5" font-family="Helvetica,sans-Serif" font-size="10.00">+ operator&#45;&gt;()</text>
</a>
</g>
</g>
<!-- Node2&#45;&gt;Node1 -->
<g id="edge1" class="edge">
<title>Node2&#45;&gt;Node1</title>
<path fill="none" stroke="#404040" d="M718.3,-57.63C735.87,-69.84 753.95,-85.81 765,-105 1130.29,-739.52 933.67,-1007.44 982,-1738 983.08,-1754.28 982.78,-1771.42 981.65,-1788.27"/>
<polygon fill="none" stroke="#404040" points="981.63,-1788.5 985.15,-1794.79 980.69,-1800.46 977.17,-1794.17 981.63,-1788.5"/>
<text text-anchor="middle" x="1002" y="-1625" font-family="Helvetica,sans-Serif" font-size="10.00"> &#45;m_system</text>
</g>
<!-- Node3 -->
<g id="node3" class="node">
<title>Node3</title>
<g id="a_node3"><a xlink:href="classsystemData.html" target="_top" xlink:title="Class contains all data structures relevant to the simulation framework. Note that after construction...">
<polygon fill="none" stroke="black" points="580,-105.5 580,-1603.5 756,-1603.5 756,-105.5 580,-105.5"/>
<text text-anchor="middle" x="668" y="-1591.5" font-family="Helvetica,sans-Serif" font-size="10.00">systemData</text>
<polyline fill="none" stroke="black" points="580,-1584.5 756,-1584.5 "/>
<text text-anchor="start" x="588" y="-1572.5" font-family="Helvetica,sans-Serif" font-size="10.00">&#45; m_return_val</text>
<text text-anchor="start" x="588" y="-1561.5" font-family="Helvetica,sans-Serif" font-size="10.00">&#45; m_return_bool</text>
<text text-anchor="start" x="588" y="-1550.5" font-family="Helvetica,sans-Serif" font-size="10.00">&#45; m_GSD_parsed</text>
<text text-anchor="start" x="588" y="-1539.5" font-family="Helvetica,sans-Serif" font-size="10.00">&#45; m_sys_spec_U0</text>
<text text-anchor="start" x="588" y="-1528.5" font-family="Helvetica,sans-Serif" font-size="10.00">&#45; m_sys_spec_omega</text>
<text text-anchor="start" x="588" y="-1517.5" font-family="Helvetica,sans-Serif" font-size="10.00">&#45; m_sys_spec_phase_shift</text>
<text text-anchor="start" x="588" y="-1506.5" font-family="Helvetica,sans-Serif" font-size="10.00">&#45; m_sys_spec_R_avg</text>
<text text-anchor="start" x="588" y="-1495.5" font-family="Helvetica,sans-Serif" font-size="10.00">&#45; m_particle_type_id</text>
<text text-anchor="start" x="588" y="-1484.5" font-family="Helvetica,sans-Serif" font-size="10.00">&#45; m_num_spatial_dim</text>
<text text-anchor="start" x="588" y="-1473.5" font-family="Helvetica,sans-Serif" font-size="10.00">&#45; m_num_particles</text>
<text text-anchor="start" x="588" y="-1462.5" font-family="Helvetica,sans-Serif" font-size="10.00">&#45; m_num_bodies</text>
<text text-anchor="start" x="588" y="-1451.5" font-family="Helvetica,sans-Serif" font-size="10.00">&#45; m_num_DoF</text>
<text text-anchor="start" x="588" y="-1440.5" font-family="Helvetica,sans-Serif" font-size="10.00">&#45; m_num_constraints</text>
<text text-anchor="start" x="588" y="-1429.5" font-family="Helvetica,sans-Serif" font-size="10.00">&#45; m_dt</text>
<text text-anchor="start" x="588" y="-1418.5" font-family="Helvetica,sans-Serif" font-size="10.00">&#45; m_tf</text>
<text text-anchor="start" x="588" y="-1407.5" font-family="Helvetica,sans-Serif" font-size="10.00">&#45; m_t</text>
<text text-anchor="start" x="588" y="-1396.5" font-family="Helvetica,sans-Serif" font-size="10.00">&#45; m_tau</text>
<text text-anchor="start" x="588" y="-1385.5" font-family="Helvetica,sans-Serif" font-size="10.00">&#45; m_timestep</text>
<text text-anchor="start" x="588" y="-1374.5" font-family="Helvetica,sans-Serif" font-size="10.00">&#45; m_num_steps_output</text>
<text text-anchor="start" x="588" y="-1363.5" font-family="Helvetica,sans-Serif" font-size="10.00">&#45; m_fluid_density</text>
<text text-anchor="start" x="588" y="-1352.5" font-family="Helvetica,sans-Serif" font-size="10.00">&#45; m_particle_density</text>
<text text-anchor="start" x="588" y="-1341.5" font-family="Helvetica,sans-Serif" font-size="10.00">&#45; m_wca_epsilon</text>
<text text-anchor="start" x="588" y="-1330.5" font-family="Helvetica,sans-Serif" font-size="10.00">&#45; m_wca_sigma</text>
<text text-anchor="start" x="588" y="-1319.5" font-family="Helvetica,sans-Serif" font-size="10.00">&#45; m_I3</text>
<text text-anchor="start" x="588" y="-1308.5" font-family="Helvetica,sans-Serif" font-size="10.00">&#45; m_tens_I3</text>
<text text-anchor="start" x="588" y="-1297.5" font-family="Helvetica,sans-Serif" font-size="10.00">&#45; m_levi_cevita</text>
<text text-anchor="start" x="588" y="-1286.5" font-family="Helvetica,sans-Serif" font-size="10.00">&#45; m_kappa_tilde</text>
<text text-anchor="start" x="588" y="-1275.5" font-family="Helvetica,sans-Serif" font-size="10.00">&#45; m_positions_bodies</text>
<text text-anchor="start" x="588" y="-1264.5" font-family="Helvetica,sans-Serif" font-size="10.00">&#45; m_velocities_bodies</text>
<text text-anchor="start" x="588" y="-1253.5" font-family="Helvetica,sans-Serif" font-size="10.00">&#45; m_accelerations_bodies</text>
<text text-anchor="start" x="588" y="-1242.5" font-family="Helvetica,sans-Serif" font-size="10.00">&#45; m_orientations_particles</text>
<text text-anchor="start" x="588" y="-1231.5" font-family="Helvetica,sans-Serif" font-size="10.00">&#45; m_positions_particles</text>
<text text-anchor="start" x="588" y="-1220.5" font-family="Helvetica,sans-Serif" font-size="10.00">&#45; m_velocities_particles</text>
<text text-anchor="start" x="588" y="-1209.5" font-family="Helvetica,sans-Serif" font-size="10.00">&#45; m_accelerations_particles</text>
<text text-anchor="start" x="588" y="-1198.5" font-family="Helvetica,sans-Serif" font-size="10.00">&#45; m_positions_locater</text>
<text text-anchor="start" x="588" y="-1187.5" font-family="Helvetica,sans-Serif" font-size="10.00">_particles</text>
<text text-anchor="start" x="588" y="-1176.5" font-family="Helvetica,sans-Serif" font-size="10.00">&#45; m_velocities_particles</text>
<text text-anchor="start" x="588" y="-1165.5" font-family="Helvetica,sans-Serif" font-size="10.00">_articulation</text>
<text text-anchor="start" x="588" y="-1154.5" font-family="Helvetica,sans-Serif" font-size="10.00">&#45; m_accelerations_particles</text>
<text text-anchor="start" x="588" y="-1143.5" font-family="Helvetica,sans-Serif" font-size="10.00">_articulation</text>
<text text-anchor="start" x="588" y="-1132.5" font-family="Helvetica,sans-Serif" font-size="10.00">&#45; m_rbm_conn</text>
<text text-anchor="start" x="588" y="-1121.5" font-family="Helvetica,sans-Serif" font-size="10.00">&#45; m_psi_conv_quat_ang</text>
<text text-anchor="start" x="588" y="-1110.5" font-family="Helvetica,sans-Serif" font-size="10.00">&#45; m_rbm_conn_T_quat</text>
<text text-anchor="start" x="588" y="-1099.5" font-family="Helvetica,sans-Serif" font-size="10.00">&#45; m_tens_rbm_conn_T_quat</text>
<text text-anchor="start" x="588" y="-1088.5" font-family="Helvetica,sans-Serif" font-size="10.00">&#45; m_rbm_conn_T_quat_grad</text>
<text text-anchor="start" x="588" y="-1077.5" font-family="Helvetica,sans-Serif" font-size="10.00">&#45; m_conv_body_2_part_dof</text>
<text text-anchor="start" x="588" y="-1066.5" font-family="Helvetica,sans-Serif" font-size="10.00">&#45; m_tens_conv_body_2</text>
<text text-anchor="start" x="588" y="-1055.5" font-family="Helvetica,sans-Serif" font-size="10.00">_part_dof</text>
<text text-anchor="start" x="588" y="-1044.5" font-family="Helvetica,sans-Serif" font-size="10.00">&#45; m_Udwadia_A</text>
<text text-anchor="start" x="588" y="-1033.5" font-family="Helvetica,sans-Serif" font-size="10.00">&#45; m_Udwadia_b</text>
<polyline fill="none" stroke="black" points="580,-1026.5 756,-1026.5 "/>
<text text-anchor="start" x="588" y="-1014.5" font-family="Helvetica,sans-Serif" font-size="10.00">+ systemData()</text>
<text text-anchor="start" x="588" y="-1003.5" font-family="Helvetica,sans-Serif" font-size="10.00">+ ~systemData()</text>
<text text-anchor="start" x="588" y="-992.5" font-family="Helvetica,sans-Serif" font-size="10.00">+ initializeData()</text>
<text text-anchor="start" x="588" y="-981.5" font-family="Helvetica,sans-Serif" font-size="10.00">+ update()</text>
<text text-anchor="start" x="588" y="-970.5" font-family="Helvetica,sans-Serif" font-size="10.00">+ outputDir()</text>
<text text-anchor="start" x="588" y="-959.5" font-family="Helvetica,sans-Serif" font-size="10.00">+ inputGSDFile()</text>
<text text-anchor="start" x="588" y="-948.5" font-family="Helvetica,sans-Serif" font-size="10.00">+ handle()</text>
<text text-anchor="start" x="588" y="-937.5" font-family="Helvetica,sans-Serif" font-size="10.00">+ gsdUtil()</text>
<text text-anchor="start" x="588" y="-926.5" font-family="Helvetica,sans-Serif" font-size="10.00">+ gSDParsed()</text>
<text text-anchor="start" x="588" y="-915.5" font-family="Helvetica,sans-Serif" font-size="10.00">+ setReturnVal()</text>
<text text-anchor="start" x="588" y="-904.5" font-family="Helvetica,sans-Serif" font-size="10.00">+ returnVal()</text>
<text text-anchor="start" x="588" y="-893.5" font-family="Helvetica,sans-Serif" font-size="10.00">+ setReturnBool()</text>
<text text-anchor="start" x="588" y="-882.5" font-family="Helvetica,sans-Serif" font-size="10.00">+ returnBool()</text>
<text text-anchor="start" x="588" y="-871.5" font-family="Helvetica,sans-Serif" font-size="10.00">+ orientationsParticles()</text>
<text text-anchor="start" x="588" y="-860.5" font-family="Helvetica,sans-Serif" font-size="10.00">+ setOrientationsParticles()</text>
<text text-anchor="start" x="588" y="-849.5" font-family="Helvetica,sans-Serif" font-size="10.00">+ positionsParticles()</text>
<text text-anchor="start" x="588" y="-838.5" font-family="Helvetica,sans-Serif" font-size="10.00">+ setPositionsParticles()</text>
<text text-anchor="start" x="588" y="-827.5" font-family="Helvetica,sans-Serif" font-size="10.00">+ velocitiesParticles()</text>
<text text-anchor="start" x="588" y="-816.5" font-family="Helvetica,sans-Serif" font-size="10.00">+ setVelocitiesParticles()</text>
<text text-anchor="start" x="588" y="-805.5" font-family="Helvetica,sans-Serif" font-size="10.00">+ accelerationsParticles()</text>
<text text-anchor="start" x="588" y="-794.5" font-family="Helvetica,sans-Serif" font-size="10.00">+ setAccelerationsParticles()</text>
<text text-anchor="start" x="588" y="-783.5" font-family="Helvetica,sans-Serif" font-size="10.00">+ positionsBodies()</text>
<text text-anchor="start" x="588" y="-772.5" font-family="Helvetica,sans-Serif" font-size="10.00">+ setPositionsBodies()</text>
<text text-anchor="start" x="588" y="-761.5" font-family="Helvetica,sans-Serif" font-size="10.00">+ velocitiesBodies()</text>
<text text-anchor="start" x="588" y="-750.5" font-family="Helvetica,sans-Serif" font-size="10.00">+ setVelocitiesBodies()</text>
<text text-anchor="start" x="588" y="-739.5" font-family="Helvetica,sans-Serif" font-size="10.00">+ accelerationsBodies()</text>
<text text-anchor="start" x="588" y="-728.5" font-family="Helvetica,sans-Serif" font-size="10.00">+ setAccelerationsBodies()</text>
<text text-anchor="start" x="588" y="-717.5" font-family="Helvetica,sans-Serif" font-size="10.00">+ particleTypeId()</text>
<text text-anchor="start" x="588" y="-706.5" font-family="Helvetica,sans-Serif" font-size="10.00">+ setParticleTypeId()</text>
<text text-anchor="start" x="588" y="-695.5" font-family="Helvetica,sans-Serif" font-size="10.00">+ numDoF()</text>
<text text-anchor="start" x="588" y="-684.5" font-family="Helvetica,sans-Serif" font-size="10.00">+ numSpatialDim()</text>
<text text-anchor="start" x="588" y="-673.5" font-family="Helvetica,sans-Serif" font-size="10.00">+ setNumSpatialDim()</text>
<text text-anchor="start" x="588" y="-662.5" font-family="Helvetica,sans-Serif" font-size="10.00">+ numParticles()</text>
<text text-anchor="start" x="588" y="-651.5" font-family="Helvetica,sans-Serif" font-size="10.00">+ setNumParticles()</text>
<text text-anchor="start" x="588" y="-640.5" font-family="Helvetica,sans-Serif" font-size="10.00">+ numBodies()</text>
<text text-anchor="start" x="588" y="-629.5" font-family="Helvetica,sans-Serif" font-size="10.00">+ setNumBodies()</text>
<text text-anchor="start" x="588" y="-618.5" font-family="Helvetica,sans-Serif" font-size="10.00">+ dt()</text>
<text text-anchor="start" x="588" y="-607.5" font-family="Helvetica,sans-Serif" font-size="10.00">+ setDt()</text>
<text text-anchor="start" x="588" y="-596.5" font-family="Helvetica,sans-Serif" font-size="10.00">+ t()</text>
<text text-anchor="start" x="588" y="-585.5" font-family="Helvetica,sans-Serif" font-size="10.00">+ setT()</text>
<text text-anchor="start" x="588" y="-574.5" font-family="Helvetica,sans-Serif" font-size="10.00">+ tf()</text>
<text text-anchor="start" x="588" y="-563.5" font-family="Helvetica,sans-Serif" font-size="10.00">+ setTf()</text>
<text text-anchor="start" x="588" y="-552.5" font-family="Helvetica,sans-Serif" font-size="10.00">+ tau()</text>
<text text-anchor="start" x="588" y="-541.5" font-family="Helvetica,sans-Serif" font-size="10.00">+ setTau()</text>
<text text-anchor="start" x="588" y="-530.5" font-family="Helvetica,sans-Serif" font-size="10.00">+ timestep()</text>
<text text-anchor="start" x="588" y="-519.5" font-family="Helvetica,sans-Serif" font-size="10.00">+ setTimestep()</text>
<text text-anchor="start" x="588" y="-508.5" font-family="Helvetica,sans-Serif" font-size="10.00">+ numStepsOutput()</text>
<text text-anchor="start" x="588" y="-497.5" font-family="Helvetica,sans-Serif" font-size="10.00">+ setNumStepsOutput()</text>
<text text-anchor="start" x="588" y="-486.5" font-family="Helvetica,sans-Serif" font-size="10.00">+ fluidDensity()</text>
<text text-anchor="start" x="588" y="-475.5" font-family="Helvetica,sans-Serif" font-size="10.00">+ setFluidDensity()</text>
<text text-anchor="start" x="588" y="-464.5" font-family="Helvetica,sans-Serif" font-size="10.00">+ particleDensity()</text>
<text text-anchor="start" x="588" y="-453.5" font-family="Helvetica,sans-Serif" font-size="10.00">+ setParticleDensity()</text>
<text text-anchor="start" x="588" y="-442.5" font-family="Helvetica,sans-Serif" font-size="10.00">+ wcaSigma()</text>
<text text-anchor="start" x="588" y="-431.5" font-family="Helvetica,sans-Serif" font-size="10.00">+ setWcaSigma()</text>
<text text-anchor="start" x="588" y="-420.5" font-family="Helvetica,sans-Serif" font-size="10.00">+ wcaEpsilon()</text>
<text text-anchor="start" x="588" y="-409.5" font-family="Helvetica,sans-Serif" font-size="10.00">+ setWcaEpsilon()</text>
<text text-anchor="start" x="588" y="-398.5" font-family="Helvetica,sans-Serif" font-size="10.00">+ velocitiesParticlesArticulation()</text>
<text text-anchor="start" x="588" y="-387.5" font-family="Helvetica,sans-Serif" font-size="10.00">+ accelerationsParticlesArticulation()</text>
<text text-anchor="start" x="588" y="-376.5" font-family="Helvetica,sans-Serif" font-size="10.00">+ sysSpecRAvg()</text>
<text text-anchor="start" x="588" y="-365.5" font-family="Helvetica,sans-Serif" font-size="10.00">+ setSysSpecRAvg()</text>
<text text-anchor="start" x="588" y="-354.5" font-family="Helvetica,sans-Serif" font-size="10.00">+ sysSpecPhaseShift()</text>
<text text-anchor="start" x="588" y="-343.5" font-family="Helvetica,sans-Serif" font-size="10.00">+ setSysSpecPhaseShift()</text>
<text text-anchor="start" x="588" y="-332.5" font-family="Helvetica,sans-Serif" font-size="10.00">+ sysSpecOmega()</text>
<text text-anchor="start" x="588" y="-321.5" font-family="Helvetica,sans-Serif" font-size="10.00">+ setSysSpecOmega()</text>
<text text-anchor="start" x="588" y="-310.5" font-family="Helvetica,sans-Serif" font-size="10.00">+ sysSpecU0()</text>
<text text-anchor="start" x="588" y="-299.5" font-family="Helvetica,sans-Serif" font-size="10.00">+ setSysSpecU0()</text>
<text text-anchor="start" x="588" y="-288.5" font-family="Helvetica,sans-Serif" font-size="10.00">+ udwadiaA()</text>
<text text-anchor="start" x="588" y="-277.5" font-family="Helvetica,sans-Serif" font-size="10.00">+ udwadiaB()</text>
<text text-anchor="start" x="588" y="-266.5" font-family="Helvetica,sans-Serif" font-size="10.00">+ tensI3()</text>
<text text-anchor="start" x="588" y="-255.5" font-family="Helvetica,sans-Serif" font-size="10.00">+ i3()</text>
<text text-anchor="start" x="588" y="-244.5" font-family="Helvetica,sans-Serif" font-size="10.00">+ tensRbmConnTQuat()</text>
<text text-anchor="start" x="588" y="-233.5" font-family="Helvetica,sans-Serif" font-size="10.00">+ tensConvBody2PartDof()</text>
<text text-anchor="start" x="588" y="-222.5" font-family="Helvetica,sans-Serif" font-size="10.00">+ tensRbmConnTQuatGrad()</text>
<text text-anchor="start" x="588" y="-211.5" font-family="Helvetica,sans-Serif" font-size="10.00">&#45; parseGSD()</text>
<text text-anchor="start" x="588" y="-200.5" font-family="Helvetica,sans-Serif" font-size="10.00">&#45; checkInput()</text>
<text text-anchor="start" x="588" y="-189.5" font-family="Helvetica,sans-Serif" font-size="10.00">&#45; velocitiesArticulation()</text>
<text text-anchor="start" x="588" y="-178.5" font-family="Helvetica,sans-Serif" font-size="10.00">&#45; accelerationsArticulation()</text>
<text text-anchor="start" x="588" y="-167.5" font-family="Helvetica,sans-Serif" font-size="10.00">&#45; udwadiaLinearSystem()</text>
<text text-anchor="start" x="588" y="-156.5" font-family="Helvetica,sans-Serif" font-size="10.00">&#45; rigidBodyMotionTensors()</text>
<text text-anchor="start" x="588" y="-145.5" font-family="Helvetica,sans-Serif" font-size="10.00">&#45; gradientChangeOfVariable</text>
<text text-anchor="start" x="588" y="-134.5" font-family="Helvetica,sans-Serif" font-size="10.00">Tensors()</text>
<text text-anchor="start" x="588" y="-123.5" font-family="Helvetica,sans-Serif" font-size="10.00">&#45; eMatrix()</text>
<text text-anchor="start" x="588" y="-112.5" font-family="Helvetica,sans-Serif" font-size="10.00">&#45; crossProdMat()</text>
</a>
</g>
</g>
<!-- Node3&#45;&gt;Node2 -->
<g id="edge2" class="edge">
<title>Node3&#45;&gt;Node2</title>
<path fill="none" stroke="#404040" d="M668,-105.26C668,-91.97 668,-80.14 668,-70.01"/>
<polygon fill="none" stroke="#404040" points="668,-69.71 664,-63.71 668,-57.71 672,-63.71 668,-69.71"/>
<text text-anchor="middle" x="678.5" y="-79" font-family="Helvetica,sans-Serif" font-size="10.00"> +ptr</text>
</g>
<!-- Node4 -->
<g id="node4" class="node">
<title>Node4</title>
<g id="a_node4"><a xlink:title=" ">
<polygon fill="none" stroke="#bfbfbf" points="702,-1651.5 702,-1719.5 836,-1719.5 836,-1651.5 702,-1651.5"/>
<text text-anchor="start" x="710" y="-1707.5" font-family="Helvetica,sans-Serif" font-size="10.00">std::enable_shared</text>
<text text-anchor="middle" x="769" y="-1696.5" font-family="Helvetica,sans-Serif" font-size="10.00">_from_this&lt; systemData &gt;</text>
<polyline fill="none" stroke="#bfbfbf" points="702,-1689.5 836,-1689.5 "/>
<text text-anchor="middle" x="769" y="-1677.5" font-family="Helvetica,sans-Serif" font-size="10.00"> </text>
<polyline fill="none" stroke="#bfbfbf" points="702,-1670.5 836,-1670.5 "/>
<text text-anchor="middle" x="769" y="-1658.5" font-family="Helvetica,sans-Serif" font-size="10.00"> </text>
</a>
</g>
</g>
<!-- Node4&#45;&gt;Node3 -->
<g id="edge3" class="edge">
<title>Node4&#45;&gt;Node3</title>
<path fill="none" stroke="midnightblue" d="M763.76,-1641.46C761.68,-1624.4 759.05,-1602.86 756.01,-1577.9"/>
<polygon fill="none" stroke="midnightblue" points="760.29,-1641.99 764.98,-1651.49 767.24,-1641.14 760.29,-1641.99"/>
</g>
<!-- Node5&#45;&gt;Node3 -->
<g id="edge4" class="edge">
<title>Node5&#45;&gt;Node3</title>
<path fill="none" stroke="#404040" d="M616.76,-1656.92C617.46,-1646.01 618.35,-1632.15 619.39,-1615.84"/>
<polygon fill="none" stroke="#404040" points="619.41,-1615.52 615.8,-1609.28 620.18,-1603.54 623.78,-1609.79 619.41,-1615.52"/>
<text text-anchor="middle" x="644.5" y="-1625" font-family="Helvetica,sans-Serif" font-size="10.00"> &#45;m_gsdUtil</text>
</g>
<!-- Node6 -->
<g id="node6" class="node">
<title>Node6</title>
<g id="a_node6"><a xlink:title="STL class.">
<polygon fill="none" stroke="#bfbfbf" points="498.5,-1877.5 498.5,-1934.5 603.5,-1934.5 603.5,-1877.5 498.5,-1877.5"/>
<text text-anchor="middle" x="551" y="-1922.5" font-family="Helvetica,sans-Serif" font-size="10.00">std::shared_ptr&lt; T &gt;</text>
<polyline fill="none" stroke="#bfbfbf" points="498.5,-1915.5 603.5,-1915.5 "/>
<text text-anchor="middle" x="551" y="-1903.5" font-family="Helvetica,sans-Serif" font-size="10.00"> </text>
<polyline fill="none" stroke="#bfbfbf" points="498.5,-1896.5 603.5,-1896.5 "/>
<text text-anchor="start" x="506.5" y="-1884.5" font-family="Helvetica,sans-Serif" font-size="10.00">+ operator&#45;&gt;()</text>
</a>
</g>
</g>
<!-- Node6&#45;&gt;Node2 -->
<g id="edge22" class="edge">
<title>Node6&#45;&gt;Node2</title>
<path fill="none" stroke="orange" d="M547.28,-1867.04C543.83,-1829.68 538.93,-1770.97 537,-1720 535.84,-1689.36 536.66,-1681.66 537,-1651 544.56,-963.76 261.4,-718.59 571,-105 580.83,-85.52 598.34,-69.62 615.8,-57.55"/>
<polygon fill="orange" stroke="orange" points="543.84,-1867.83 548.26,-1877.46 550.81,-1867.17 543.84,-1867.83"/>
<text text-anchor="middle" x="575.5" y="-1625" font-family="Helvetica,sans-Serif" font-size="10.00"> &lt; systemData &gt;</text>
</g>
<!-- Node6&#45;&gt;Node5 -->
<g id="edge6" class="edge">
<title>Node6&#45;&gt;Node5</title>
<path fill="none" stroke="orange" d="M561.93,-1867.68C574.68,-1824.17 595.45,-1753.24 606.86,-1714.29"/>
<polygon fill="orange" stroke="orange" points="558.56,-1866.75 559.11,-1877.33 565.28,-1868.71 558.56,-1866.75"/>
<text text-anchor="middle" x="629" y="-1757.5" font-family="Helvetica,sans-Serif" font-size="10.00"> &lt; GSDUtil &gt;</text>
</g>
<!-- Node10 -->
<g id="node10" class="node">
<title>Node10</title>
<g id="a_node10"><a xlink:title=" ">
<polygon fill="none" stroke="#bfbfbf" points="378.5,-1651.5 378.5,-1719.5 485.5,-1719.5 485.5,-1651.5 378.5,-1651.5"/>
<text text-anchor="start" x="386.5" y="-1707.5" font-family="Helvetica,sans-Serif" font-size="10.00">std::shared_ptr&lt; gsd</text>
<text text-anchor="middle" x="432" y="-1696.5" font-family="Helvetica,sans-Serif" font-size="10.00">_handle &gt;</text>
<polyline fill="none" stroke="#bfbfbf" points="378.5,-1689.5 485.5,-1689.5 "/>
<text text-anchor="middle" x="432" y="-1677.5" font-family="Helvetica,sans-Serif" font-size="10.00"> </text>
<polyline fill="none" stroke="#bfbfbf" points="378.5,-1670.5 485.5,-1670.5 "/>
<text text-anchor="start" x="386.5" y="-1658.5" font-family="Helvetica,sans-Serif" font-size="10.00">+ operator&#45;&gt;()</text>
</a>
</g>
</g>
<!-- Node6&#45;&gt;Node10 -->
<g id="edge21" class="edge">
<title>Node6&#45;&gt;Node10</title>
<path fill="none" stroke="orange" d="M503.98,-1870.85C477.76,-1848.8 447.54,-1817.63 433,-1782 424.98,-1762.35 424.73,-1738.48 426.48,-1719.51"/>
<polygon fill="orange" stroke="orange" points="502.01,-1873.76 511.96,-1877.39 506.45,-1868.35 502.01,-1873.76"/>
<text text-anchor="middle" x="468.5" y="-1757.5" font-family="Helvetica,sans-Serif" font-size="10.00"> &lt; gsd_handle &gt;</text>
</g>
<!-- Node7 -->
<g id="node7" class="node">
<title>Node7</title>
<g id="a_node7"><a xlink:title=" ">
<polygon fill="none" stroke="#bfbfbf" points="576.5,-2136.5 576.5,-2193.5 605.5,-2193.5 605.5,-2136.5 576.5,-2136.5"/>
<text text-anchor="middle" x="591" y="-2181.5" font-family="Helvetica,sans-Serif" font-size="10.00">T</text>
<polyline fill="none" stroke="#bfbfbf" points="576.5,-2174.5 605.5,-2174.5 "/>
<text text-anchor="middle" x="591" y="-2162.5" font-family="Helvetica,sans-Serif" font-size="10.00"> </text>
<polyline fill="none" stroke="#bfbfbf" points="576.5,-2155.5 605.5,-2155.5 "/>
<text text-anchor="middle" x="591" y="-2143.5" font-family="Helvetica,sans-Serif" font-size="10.00"> </text>
</a>
</g>
</g>
<!-- Node7&#45;&gt;Node6 -->
<g id="edge7" class="edge">
<title>Node7&#45;&gt;Node6</title>
<path fill="none" stroke="#404040" d="M586.72,-2136.5C579.63,-2090.92 565.4,-1999.55 557.21,-1946.88"/>
<polygon fill="none" stroke="#404040" points="557.16,-1946.55 552.28,-1941.24 555.31,-1934.69 560.19,-1940.01 557.16,-1946.55"/>
<text text-anchor="middle" x="585.5" y="-2044" font-family="Helvetica,sans-Serif" font-size="10.00"> +ptr</text>
</g>
<!-- Node8 -->
<g id="node8" class="node">
<title>Node8</title>
<g id="a_node8"><a xlink:title="STL class.">
<polygon fill="none" stroke="#bfbfbf" points="883,-2136.5 883,-2193.5 943,-2193.5 943,-2136.5 883,-2136.5"/>
<text text-anchor="middle" x="913" y="-2181.5" font-family="Helvetica,sans-Serif" font-size="10.00">std::string</text>
<polyline fill="none" stroke="#bfbfbf" points="883,-2174.5 943,-2174.5 "/>
<text text-anchor="middle" x="913" y="-2162.5" font-family="Helvetica,sans-Serif" font-size="10.00"> </text>
<polyline fill="none" stroke="#bfbfbf" points="883,-2155.5 943,-2155.5 "/>
<text text-anchor="middle" x="913" y="-2143.5" font-family="Helvetica,sans-Serif" font-size="10.00"> </text>
</a>
</g>
</g>
<!-- Node8&#45;&gt;Node1 -->
<g id="edge23" class="edge">
<title>Node8&#45;&gt;Node1</title>
<path fill="none" stroke="#404040" d="M918.35,-2136.5C923.65,-2109.27 932.12,-2065.71 940.27,-2023.82"/>
<polygon fill="none" stroke="#404040" points="940.33,-2023.55 937.54,-2016.89 942.62,-2011.77 945.4,-2018.42 940.33,-2023.55"/>
<text text-anchor="middle" x="967.5" y="-2049.5" font-family="Helvetica,sans-Serif" font-size="10.00"> &#45;m_logName</text>
<text text-anchor="middle" x="967.5" y="-2038.5" font-family="Helvetica,sans-Serif" font-size="10.00">&#45;m_logFile</text>
</g>
<!-- Node8&#45;&gt;Node3 -->
<g id="edge8" class="edge">
<title>Node8&#45;&gt;Node3</title>
<path fill="none" stroke="#404040" d="M909.08,-2136.22C900.24,-2073.24 878.14,-1914.76 861,-1782 853.49,-1723.83 854.94,-1708.81 845,-1651 821.15,-1512.26 789.1,-1361.2 758.83,-1228.36"/>
<polygon fill="none" stroke="#404040" points="758.77,-1228.08 753.53,-1223.12 756.1,-1216.38 761.33,-1221.34 758.77,-1228.08"/>
<text text-anchor="middle" x="899" y="-1774" font-family="Helvetica,sans-Serif" font-size="10.00"> &#45;m_outputDir</text>
<text text-anchor="middle" x="899" y="-1763" font-family="Helvetica,sans-Serif" font-size="10.00">&#45;m_logName</text>
<text text-anchor="middle" x="899" y="-1752" font-family="Helvetica,sans-Serif" font-size="10.00">&#45;m_logFile</text>
<text text-anchor="middle" x="899" y="-1741" font-family="Helvetica,sans-Serif" font-size="10.00">&#45;m_inputGSDFile</text>
</g>
<!-- Node9 -->
<g id="node9" class="node">
<title>Node9</title>
<g id="a_node9"><a xlink:title="STL class.">
<polygon fill="none" stroke="#bfbfbf" points="865.5,-2324 865.5,-2392 960.5,-2392 960.5,-2324 865.5,-2324"/>
<text text-anchor="start" x="873.5" y="-2380" font-family="Helvetica,sans-Serif" font-size="10.00">std::basic_string&lt;</text>
<text text-anchor="middle" x="913" y="-2369" font-family="Helvetica,sans-Serif" font-size="10.00"> char &gt;</text>
<polyline fill="none" stroke="#bfbfbf" points="865.5,-2362 960.5,-2362 "/>
<text text-anchor="middle" x="913" y="-2350" font-family="Helvetica,sans-Serif" font-size="10.00"> </text>
<polyline fill="none" stroke="#bfbfbf" points="865.5,-2343 960.5,-2343 "/>
<text text-anchor="middle" x="913" y="-2331" font-family="Helvetica,sans-Serif" font-size="10.00"> </text>
</a>
</g>
</g>
<!-- Node9&#45;&gt;Node8 -->
<g id="edge9" class="edge">
<title>Node9&#45;&gt;Node8</title>
<path fill="none" stroke="midnightblue" d="M913,-2313.29C913,-2276.49 913,-2224.97 913,-2193.63"/>
<polygon fill="none" stroke="midnightblue" points="909.5,-2313.73 913,-2323.73 916.5,-2313.73 909.5,-2313.73"/>
</g>
<!-- Node10&#45;&gt;Node3 -->
<g id="edge10" class="edge">
<title>Node10&#45;&gt;Node3</title>
<path fill="none" stroke="#404040" d="M439.66,-1651.35C441.94,-1641.85 444.49,-1631.49 447,-1622 487.23,-1469.61 535.37,-1301.24 576.43,-1161.21"/>
<polygon fill="none" stroke="#404040" points="576.5,-1160.98 574.35,-1154.1 579.87,-1149.47 582.02,-1156.35 576.5,-1160.98"/>
<text text-anchor="middle" x="471.5" y="-1625" font-family="Helvetica,sans-Serif" font-size="10.00"> &#45;m_handle</text>
</g>
<!-- Node11 -->
<g id="node11" class="node">
<title>Node11</title>
<g id="a_node11"><a xlink:href="structgsd__handle.html" target="_top" xlink:title=" ">
<polygon fill="none" stroke="black" points="303.5,-1861 303.5,-1951 376.5,-1951 376.5,-1861 303.5,-1861"/>
<text text-anchor="middle" x="340" y="-1939" font-family="Helvetica,sans-Serif" font-size="10.00">gsd_handle</text>
<polyline fill="none" stroke="black" points="303.5,-1932 376.5,-1932 "/>
<text text-anchor="start" x="311.5" y="-1920" font-family="Helvetica,sans-Serif" font-size="10.00">+ fd</text>
<text text-anchor="start" x="311.5" y="-1909" font-family="Helvetica,sans-Serif" font-size="10.00">+ cur_frame</text>
<text text-anchor="start" x="311.5" y="-1898" font-family="Helvetica,sans-Serif" font-size="10.00">+ file_size</text>
<text text-anchor="start" x="311.5" y="-1887" font-family="Helvetica,sans-Serif" font-size="10.00">+ open_flags</text>
<polyline fill="none" stroke="black" points="303.5,-1880 376.5,-1880 "/>
<text text-anchor="middle" x="340" y="-1868" font-family="Helvetica,sans-Serif" font-size="10.00"> </text>
</a>
</g>
</g>
<!-- Node11&#45;&gt;Node10 -->
<g id="edge11" class="edge">
<title>Node11&#45;&gt;Node10</title>
<path fill="none" stroke="#404040" d="M347.78,-1860.91C355.11,-1826.09 368.15,-1777.05 389,-1738 390.52,-1735.16 392.21,-1732.33 394.02,-1729.55"/>
<polygon fill="none" stroke="#404040" points="394.05,-1729.5 394.25,-1722.29 400.99,-1719.71 400.78,-1726.92 394.05,-1729.5"/>
<text text-anchor="middle" x="399.5" y="-1757.5" font-family="Helvetica,sans-Serif" font-size="10.00"> +ptr</text>
</g>
<!-- Node12 -->
<g id="node12" class="node">
<title>Node12</title>
<g id="a_node12"><a xlink:href="structgsd__index__buffer.html" target="_top" xlink:title=" ">
<polygon fill="none" stroke="black" points="0,-2120 0,-2210 90,-2210 90,-2120 0,-2120"/>
<text text-anchor="middle" x="45" y="-2198" font-family="Helvetica,sans-Serif" font-size="10.00">gsd_index_buffer</text>
<polyline fill="none" stroke="black" points="0,-2191 90,-2191 "/>
<text text-anchor="start" x="8" y="-2179" font-family="Helvetica,sans-Serif" font-size="10.00">+ size</text>
<text text-anchor="start" x="8" y="-2168" font-family="Helvetica,sans-Serif" font-size="10.00">+ reserved</text>
<text text-anchor="start" x="8" y="-2157" font-family="Helvetica,sans-Serif" font-size="10.00">+ mapped_data</text>
<text text-anchor="start" x="8" y="-2146" font-family="Helvetica,sans-Serif" font-size="10.00">+ mapped_len</text>
<polyline fill="none" stroke="black" points="0,-2139 90,-2139 "/>
<text text-anchor="middle" x="45" y="-2127" font-family="Helvetica,sans-Serif" font-size="10.00"> </text>
</a>
</g>
</g>
<!-- Node12&#45;&gt;Node11 -->
<g id="edge12" class="edge">
<title>Node12&#45;&gt;Node11</title>
<path fill="none" stroke="#404040" d="M69.69,-2119.58C78.08,-2106.42 88.12,-2092.47 99,-2081 157.69,-2019.13 241.02,-1964.63 292.74,-1933.77"/>
<polygon fill="none" stroke="#404040" points="292.94,-1933.65 296.07,-1927.16 303.27,-1927.55 300.14,-1934.05 292.94,-1933.65"/>
<text text-anchor="middle" x="184" y="-2055" font-family="Helvetica,sans-Serif" font-size="10.00"> +buffer_index</text>
<text text-anchor="middle" x="184" y="-2044" font-family="Helvetica,sans-Serif" font-size="10.00">+frame_index</text>
<text text-anchor="middle" x="184" y="-2033" font-family="Helvetica,sans-Serif" font-size="10.00">+file_index</text>
</g>
<!-- Node13 -->
<g id="node13" class="node">
<title>Node13</title>
<g id="a_node13"><a xlink:href="structgsd__index__entry.html" target="_top" xlink:title=" ">
<polygon fill="none" stroke="black" points="1,-2296.5 1,-2419.5 89,-2419.5 89,-2296.5 1,-2296.5"/>
<text text-anchor="middle" x="45" y="-2407.5" font-family="Helvetica,sans-Serif" font-size="10.00">gsd_index_entry</text>
<polyline fill="none" stroke="black" points="1,-2400.5 89,-2400.5 "/>
<text text-anchor="start" x="9" y="-2388.5" font-family="Helvetica,sans-Serif" font-size="10.00">+ frame</text>
<text text-anchor="start" x="9" y="-2377.5" font-family="Helvetica,sans-Serif" font-size="10.00">+ N</text>
<text text-anchor="start" x="9" y="-2366.5" font-family="Helvetica,sans-Serif" font-size="10.00">+ location</text>
<text text-anchor="start" x="9" y="-2355.5" font-family="Helvetica,sans-Serif" font-size="10.00">+ M</text>
<text text-anchor="start" x="9" y="-2344.5" font-family="Helvetica,sans-Serif" font-size="10.00">+ id</text>
<text text-anchor="start" x="9" y="-2333.5" font-family="Helvetica,sans-Serif" font-size="10.00">+ type</text>
<text text-anchor="start" x="9" y="-2322.5" font-family="Helvetica,sans-Serif" font-size="10.00">+ flags</text>
<polyline fill="none" stroke="black" points="1,-2315.5 89,-2315.5 "/>
<text text-anchor="middle" x="45" y="-2303.5" font-family="Helvetica,sans-Serif" font-size="10.00"> </text>
</a>
</g>
</g>
<!-- Node13&#45;&gt;Node12 -->
<g id="edge13" class="edge">
<title>Node13&#45;&gt;Node12</title>
<path fill="none" stroke="#404040" d="M45,-2296.3C45,-2272.6 45,-2245.58 45,-2222.32"/>
<polygon fill="none" stroke="#404040" points="45,-2222.18 41,-2216.18 45,-2210.18 49,-2216.18 45,-2222.18"/>
<text text-anchor="middle" x="59" y="-2270" font-family="Helvetica,sans-Serif" font-size="10.00"> +data</text>
</g>
<!-- Node14 -->
<g id="node14" class="node">
<title>Node14</title>
<g id="a_node14"><a xlink:href="structgsd__header.html" target="_top" xlink:title=" ">
<polygon fill="none" stroke="black" points="108,-2081.5 108,-2248.5 236,-2248.5 236,-2081.5 108,-2081.5"/>
<text text-anchor="middle" x="172" y="-2236.5" font-family="Helvetica,sans-Serif" font-size="10.00">gsd_header</text>
<polyline fill="none" stroke="black" points="108,-2229.5 236,-2229.5 "/>
<text text-anchor="start" x="116" y="-2217.5" font-family="Helvetica,sans-Serif" font-size="10.00">+ magic</text>
<text text-anchor="start" x="116" y="-2206.5" font-family="Helvetica,sans-Serif" font-size="10.00">+ index_location</text>
<text text-anchor="start" x="116" y="-2195.5" font-family="Helvetica,sans-Serif" font-size="10.00">+ index_allocated_entries</text>
<text text-anchor="start" x="116" y="-2184.5" font-family="Helvetica,sans-Serif" font-size="10.00">+ namelist_location</text>
<text text-anchor="start" x="116" y="-2173.5" font-family="Helvetica,sans-Serif" font-size="10.00">+ namelist_allocated</text>
<text text-anchor="start" x="116" y="-2162.5" font-family="Helvetica,sans-Serif" font-size="10.00">_entries</text>
<text text-anchor="start" x="116" y="-2151.5" font-family="Helvetica,sans-Serif" font-size="10.00">+ schema_version</text>
<text text-anchor="start" x="116" y="-2140.5" font-family="Helvetica,sans-Serif" font-size="10.00">+ gsd_version</text>
<text text-anchor="start" x="116" y="-2129.5" font-family="Helvetica,sans-Serif" font-size="10.00">+ application</text>
<text text-anchor="start" x="116" y="-2118.5" font-family="Helvetica,sans-Serif" font-size="10.00">+ schema</text>
<text text-anchor="start" x="116" y="-2107.5" font-family="Helvetica,sans-Serif" font-size="10.00">+ reserved</text>
<polyline fill="none" stroke="black" points="108,-2100.5 236,-2100.5 "/>
<text text-anchor="middle" x="172" y="-2088.5" font-family="Helvetica,sans-Serif" font-size="10.00"> </text>
</a>
</g>
</g>
<!-- Node14&#45;&gt;Node11 -->
<g id="edge14" class="edge">
<title>Node14&#45;&gt;Node11</title>
<path fill="none" stroke="#404040" d="M223.02,-2081.47C233.79,-2064.38 245.17,-2046.54 256,-2030 270.85,-2007.32 287.62,-1982.58 302.26,-1961.28"/>
<polygon fill="none" stroke="#404040" points="302.44,-1961.01 302.55,-1953.8 309.25,-1951.12 309.14,-1958.33 302.44,-1961.01"/>
<text text-anchor="middle" x="275.5" y="-2044" font-family="Helvetica,sans-Serif" font-size="10.00"> +header</text>
</g>
<!-- Node15 -->
<g id="node15" class="node">
<title>Node15</title>
<g id="a_node15"><a xlink:href="structgsd__name__buffer.html" target="_top" xlink:title=" ">
<polygon fill="none" stroke="black" points="254.5,-2136.5 254.5,-2193.5 345.5,-2193.5 345.5,-2136.5 254.5,-2136.5"/>
<text text-anchor="middle" x="300" y="-2181.5" font-family="Helvetica,sans-Serif" font-size="10.00">gsd_name_buffer</text>
<polyline fill="none" stroke="black" points="254.5,-2174.5 345.5,-2174.5 "/>
<text text-anchor="start" x="262.5" y="-2162.5" font-family="Helvetica,sans-Serif" font-size="10.00">+ n_names</text>
<polyline fill="none" stroke="black" points="254.5,-2155.5 345.5,-2155.5 "/>
<text text-anchor="middle" x="300" y="-2143.5" font-family="Helvetica,sans-Serif" font-size="10.00"> </text>
</a>
</g>
</g>
<!-- Node15&#45;&gt;Node11 -->
<g id="edge15" class="edge">
<title>Node15&#45;&gt;Node11</title>
<path fill="none" stroke="#404040" d="M298.14,-2136.34C296.83,-2109.11 296.22,-2066.42 302,-2030 305.56,-2007.57 312.28,-1983.56 319.09,-1962.77"/>
<polygon fill="none" stroke="#404040" points="319.14,-1962.63 317.27,-1955.66 322.98,-1951.26 324.85,-1958.22 319.14,-1962.63"/>
<text text-anchor="middle" x="335" y="-2049.5" font-family="Helvetica,sans-Serif" font-size="10.00"> +file_names</text>
<text text-anchor="middle" x="335" y="-2038.5" font-family="Helvetica,sans-Serif" font-size="10.00">+frame_names</text>
</g>
<!-- Node16 -->
<g id="node16" class="node">
<title>Node16</title>
<g id="a_node16"><a xlink:href="structgsd__byte__buffer.html" target="_top" xlink:title=" ">
<polygon fill="none" stroke="black" points="307,-2318.5 307,-2397.5 393,-2397.5 393,-2318.5 307,-2318.5"/>
<text text-anchor="middle" x="350" y="-2385.5" font-family="Helvetica,sans-Serif" font-size="10.00">gsd_byte_buffer</text>
<polyline fill="none" stroke="black" points="307,-2378.5 393,-2378.5 "/>
<text text-anchor="start" x="315" y="-2366.5" font-family="Helvetica,sans-Serif" font-size="10.00">+ data</text>
<text text-anchor="start" x="315" y="-2355.5" font-family="Helvetica,sans-Serif" font-size="10.00">+ size</text>
<text text-anchor="start" x="315" y="-2344.5" font-family="Helvetica,sans-Serif" font-size="10.00">+ reserved</text>
<polyline fill="none" stroke="black" points="307,-2337.5 393,-2337.5 "/>
<text text-anchor="middle" x="350" y="-2325.5" font-family="Helvetica,sans-Serif" font-size="10.00"> </text>
</a>
</g>
</g>
<!-- Node16&#45;&gt;Node11 -->
<g id="edge17" class="edge">
<title>Node16&#45;&gt;Node11</title>
<path fill="none" stroke="#404040" d="M356.28,-2318.37C365.31,-2257.07 379.67,-2133.82 368,-2030 365.52,-2007.9 360.6,-1983.97 355.56,-1963.15"/>
<polygon fill="none" stroke="#404040" points="355.51,-1962.93 350.18,-1958.07 352.6,-1951.28 357.94,-1956.14 355.51,-1962.93"/>
<text text-anchor="middle" x="403" y="-2162.5" font-family="Helvetica,sans-Serif" font-size="10.00"> +write_buffer</text>
</g>
<!-- Node16&#45;&gt;Node15 -->
<g id="edge16" class="edge">
<title>Node16&#45;&gt;Node15</title>
<path fill="none" stroke="#404040" d="M339.88,-2318.35C331.3,-2285.58 319.05,-2238.78 310.4,-2205.71"/>
<polygon fill="none" stroke="#404040" points="310.31,-2205.38 304.92,-2200.59 307.27,-2193.77 312.66,-2198.56 310.31,-2205.38"/>
<text text-anchor="middle" x="342" y="-2270" font-family="Helvetica,sans-Serif" font-size="10.00"> +data</text>
</g>
<!-- Node17 -->
<g id="node17" class="node">
<title>Node17</title>
<g id="a_node17"><a xlink:href="structgsd__name__id__map.html" target="_top" xlink:title=" ">
<polygon fill="none" stroke="black" points="460,-2136.5 460,-2193.5 558,-2193.5 558,-2136.5 460,-2136.5"/>
<text text-anchor="middle" x="509" y="-2181.5" font-family="Helvetica,sans-Serif" font-size="10.00">gsd_name_id_map</text>
<polyline fill="none" stroke="black" points="460,-2174.5 558,-2174.5 "/>
<text text-anchor="start" x="468" y="-2162.5" font-family="Helvetica,sans-Serif" font-size="10.00">+ size</text>
<polyline fill="none" stroke="black" points="460,-2155.5 558,-2155.5 "/>
<text text-anchor="middle" x="509" y="-2143.5" font-family="Helvetica,sans-Serif" font-size="10.00"> </text>
</a>
</g>
</g>
<!-- Node17&#45;&gt;Node11 -->
<g id="edge18" class="edge">
<title>Node17&#45;&gt;Node11</title>
<path fill="none" stroke="#404040" d="M490.91,-2136.5C463.56,-2094.89 411.11,-2015.13 375.83,-1961.48"/>
<polygon fill="none" stroke="#404040" points="375.83,-1961.48 369.19,-1958.67 369.23,-1951.45 375.87,-1954.27 375.83,-1961.48"/>
<text text-anchor="middle" x="469" y="-2044" font-family="Helvetica,sans-Serif" font-size="10.00"> +name_map</text>
</g>
<!-- Node18 -->
<g id="node18" class="node">
<title>Node18</title>
<g id="a_node18"><a xlink:href="structgsd__name__id__pair.html" target="_top" xlink:title=" ">
<polygon fill="none" stroke="black" points="461.5,-2324 461.5,-2392 556.5,-2392 556.5,-2324 461.5,-2324"/>
<text text-anchor="middle" x="509" y="-2380" font-family="Helvetica,sans-Serif" font-size="10.00">gsd_name_id_pair</text>
<polyline fill="none" stroke="black" points="461.5,-2373 556.5,-2373 "/>
<text text-anchor="start" x="469.5" y="-2361" font-family="Helvetica,sans-Serif" font-size="10.00">+ name</text>
<text text-anchor="start" x="469.5" y="-2350" font-family="Helvetica,sans-Serif" font-size="10.00">+ id</text>
<polyline fill="none" stroke="black" points="461.5,-2343 556.5,-2343 "/>
<text text-anchor="middle" x="509" y="-2331" font-family="Helvetica,sans-Serif" font-size="10.00"> </text>
</a>
</g>
</g>
<!-- Node18&#45;&gt;Node17 -->
<g id="edge19" class="edge">
<title>Node18&#45;&gt;Node17</title>
<path fill="none" stroke="#404040" d="M509,-2323.73C509,-2290.89 509,-2240.66 509,-2205.74"/>
<polygon fill="none" stroke="#404040" points="509,-2205.63 505,-2199.63 509,-2193.63 513,-2199.63 509,-2205.63"/>
<text text-anchor="middle" x="516.5" y="-2270" font-family="Helvetica,sans-Serif" font-size="10.00"> +v</text>
</g>
<!-- Node18&#45;&gt;Node18 -->
<g id="edge20" class="edge">
<title>Node18&#45;&gt;Node18</title>
<path fill="none" stroke="#404040" d="M556.69,-2373.28C567.01,-2371.79 574.5,-2366.7 574.5,-2358 574.5,-2353.11 572.13,-2349.36 568.22,-2346.74"/>
<polygon fill="none" stroke="#404040" points="568.02,-2346.67 561.03,-2348.47 556.69,-2342.72 563.67,-2340.92 568.02,-2346.67"/>
<text text-anchor="middle" x="588.5" y="-2355.5" font-family="Helvetica,sans-Serif" font-size="10.00"> +next</text>
</g>
</g>
</svg>
