<?xml version="1.0" encoding="UTF-8" standalone="no"?>
<!DOCTYPE svg PUBLIC "-//W3C//DTD SVG 1.1//EN"
 "http://www.w3.org/Graphics/SVG/1.1/DTD/svg11.dtd">
<!-- Generated by graphviz version 2.43.0 (0)
 -->
<!-- Title: PotentialHydrodynamics::PotentialHydrodynamics Pages: 1 -->
<svg width="641pt" height="382pt"
 viewBox="0.00 0.00 641.00 382.00" xmlns="http://www.w3.org/2000/svg" xmlns:xlink="http://www.w3.org/1999/xlink">
<g id="graph0" class="graph" transform="scale(1 1) rotate(0) translate(4 378)">
<title>PotentialHydrodynamics::PotentialHydrodynamics</title>
<!-- Node1 -->
<g id="node1" class="node">
<title>Node1</title>
<g id="a_node1"><a xlink:title="Construct a new potential hydrodynamics object.">
<polygon fill="#bfbfbf" stroke="black" points="0,-171.5 0,-201.5 129,-201.5 129,-171.5 0,-171.5"/>
<text text-anchor="start" x="8" y="-189.5" font-family="Helvetica,sans-Serif" font-size="10.00">PotentialHydrodynamics</text>
<text text-anchor="middle" x="64.5" y="-178.5" font-family="Helvetica,sans-Serif" font-size="10.00">::PotentialHydrodynamics</text>
</a>
</g>
</g>
<!-- Node2 -->
<g id="node2" class="node">
<title>Node2</title>
<g id="a_node2"><a xlink:href="classPotentialHydrodynamics.html#af46b6fe2ab386a26a3e0b6c1fee527cb" target="_top" xlink:title="Updates all hydrodynamic quantities at current configuration (data from SystemData)">
<polygon fill="none" stroke="black" points="165,-171.5 165,-201.5 288,-201.5 288,-171.5 165,-171.5"/>
<text text-anchor="start" x="173" y="-189.5" font-family="Helvetica,sans-Serif" font-size="10.00">PotentialHydrodynamics</text>
<text text-anchor="middle" x="226.5" y="-178.5" font-family="Helvetica,sans-Serif" font-size="10.00">::update</text>
</a>
</g>
</g>
<!-- Node1&#45;&gt;Node2 -->
<g id="edge1" class="edge">
<title>Node1&#45;&gt;Node2</title>
<path fill="none" stroke="midnightblue" d="M129.2,-186.5C137.56,-186.5 146.17,-186.5 154.65,-186.5"/>
<polygon fill="midnightblue" stroke="midnightblue" points="154.89,-190 164.89,-186.5 154.89,-183 154.89,-190"/>
</g>
<!-- Node3 -->
<g id="node3" class="node">
<title>Node3</title>
<g id="a_node3"><a xlink:href="classPotentialHydrodynamics.html#a55280970eb37b9f89edba77ccf2ab5e6" target="_top" xlink:title="Calculates m_M_added">
<polygon fill="none" stroke="black" points="324,-343.5 324,-373.5 447,-373.5 447,-343.5 324,-343.5"/>
<text text-anchor="start" x="332" y="-361.5" font-family="Helvetica,sans-Serif" font-size="10.00">PotentialHydrodynamics</text>
<text text-anchor="middle" x="385.5" y="-350.5" font-family="Helvetica,sans-Serif" font-size="10.00">::calcAddedMass</text>
</a>
</g>
</g>
<!-- Node2&#45;&gt;Node3 -->
<g id="edge2" class="edge">
<title>Node2&#45;&gt;Node3</title>
<path fill="none" stroke="midnightblue" d="M233.63,-201.71C246.27,-231.26 277.93,-296.84 324,-334.5 325.54,-335.76 327.16,-336.96 328.83,-338.1"/>
<polygon fill="midnightblue" stroke="midnightblue" points="327.21,-341.21 337.59,-343.35 330.81,-335.21 327.21,-341.21"/>
</g>
<!-- Node4 -->
<g id="node4" class="node">
<title>Node4</title>
<g id="a_node4"><a xlink:href="classPotentialHydrodynamics.html#acbfee950df63d7a69aba702177127c08" target="_top" xlink:title="Calculates m_M_added">
<polygon fill="none" stroke="black" points="324,-294.5 324,-324.5 447,-324.5 447,-294.5 324,-294.5"/>
<text text-anchor="start" x="332" y="-312.5" font-family="Helvetica,sans-Serif" font-size="10.00">PotentialHydrodynamics</text>
<text text-anchor="middle" x="385.5" y="-301.5" font-family="Helvetica,sans-Serif" font-size="10.00">::calcAddedMassGrad</text>
</a>
</g>
</g>
<!-- Node2&#45;&gt;Node4 -->
<g id="edge3" class="edge">
<title>Node2&#45;&gt;Node4</title>
<path fill="none" stroke="midnightblue" d="M238.74,-201.51C255.31,-222.76 288.25,-261.67 324,-285.5 326.26,-287.01 328.62,-288.44 331.06,-289.8"/>
<polygon fill="midnightblue" stroke="midnightblue" points="329.61,-292.99 340.11,-294.43 332.8,-286.76 329.61,-292.99"/>
</g>
<!-- Node5 -->
<g id="node5" class="node">
<title>Node5</title>
<g id="a_node5"><a xlink:href="classPotentialHydrodynamics.html#a3195035f26bdbd013fa2825903e7de2e" target="_top" xlink:title=" ">
<polygon fill="none" stroke="black" points="324,-245.5 324,-275.5 447,-275.5 447,-245.5 324,-245.5"/>
<text text-anchor="start" x="332" y="-263.5" font-family="Helvetica,sans-Serif" font-size="10.00">PotentialHydrodynamics</text>
<text text-anchor="middle" x="385.5" y="-252.5" font-family="Helvetica,sans-Serif" font-size="10.00">::calcBodyMass</text>
</a>
</g>
</g>
<!-- Node2&#45;&gt;Node5 -->
<g id="edge4" class="edge">
<title>Node2&#45;&gt;Node5</title>
<path fill="none" stroke="midnightblue" d="M255.01,-201.69C274.12,-212.01 300.31,-225.7 324,-236.5 327.76,-238.21 331.68,-239.93 335.64,-241.61"/>
<polygon fill="midnightblue" stroke="midnightblue" points="334.3,-244.84 344.88,-245.45 336.99,-238.38 334.3,-244.84"/>
</g>
<!-- Node8 -->
<g id="node8" class="node">
<title>Node8</title>
<g id="a_node8"><a xlink:href="classPotentialHydrodynamics.html#a3b935d72027e8f6a7c365fa01b902977" target="_top" xlink:title=" ">
<polygon fill="none" stroke="black" points="324,-196.5 324,-226.5 447,-226.5 447,-196.5 324,-196.5"/>
<text text-anchor="start" x="332" y="-214.5" font-family="Helvetica,sans-Serif" font-size="10.00">PotentialHydrodynamics</text>
<text text-anchor="middle" x="385.5" y="-203.5" font-family="Helvetica,sans-Serif" font-size="10.00">::calcBodyMassGrad</text>
</a>
</g>
</g>
<!-- Node2&#45;&gt;Node8 -->
<g id="edge7" class="edge">
<title>Node2&#45;&gt;Node8</title>
<path fill="none" stroke="midnightblue" d="M288.2,-196.17C296.64,-197.51 305.36,-198.9 313.95,-200.27"/>
<polygon fill="midnightblue" stroke="midnightblue" points="313.54,-203.74 323.96,-201.86 314.64,-196.83 313.54,-203.74"/>
</g>
<!-- Node9 -->
<g id="node9" class="node">
<title>Node9</title>
<g id="a_node9"><a xlink:href="classPotentialHydrodynamics.html#ad576b223cdd07f33cddc6c33edf87dc8" target="_top" xlink:title="Calculates and sets energetic components in SystemData class.">
<polygon fill="none" stroke="black" points="324,-147.5 324,-177.5 447,-177.5 447,-147.5 324,-147.5"/>
<text text-anchor="start" x="332" y="-165.5" font-family="Helvetica,sans-Serif" font-size="10.00">PotentialHydrodynamics</text>
<text text-anchor="middle" x="385.5" y="-154.5" font-family="Helvetica,sans-Serif" font-size="10.00">::calcHydroEnergy</text>
</a>
</g>
</g>
<!-- Node2&#45;&gt;Node9 -->
<g id="edge8" class="edge">
<title>Node2&#45;&gt;Node9</title>
<path fill="none" stroke="midnightblue" d="M288.2,-177.22C296.64,-175.93 305.36,-174.6 313.95,-173.28"/>
<polygon fill="midnightblue" stroke="midnightblue" points="314.6,-176.73 323.96,-171.75 313.55,-169.81 314.6,-176.73"/>
</g>
<!-- Node10 -->
<g id="node10" class="node">
<title>Node10</title>
<g id="a_node10"><a xlink:href="classPotentialHydrodynamics.html#a1f22d16e1aa9f675611d2394d76cd595" target="_top" xlink:title="Calculates m_F_hydro and m_F_hydroNoInertia">
<polygon fill="none" stroke="black" points="324,-98.5 324,-128.5 447,-128.5 447,-98.5 324,-98.5"/>
<text text-anchor="start" x="332" y="-116.5" font-family="Helvetica,sans-Serif" font-size="10.00">PotentialHydrodynamics</text>
<text text-anchor="middle" x="385.5" y="-105.5" font-family="Helvetica,sans-Serif" font-size="10.00">::calcHydroForces</text>
</a>
</g>
</g>
<!-- Node2&#45;&gt;Node10 -->
<g id="edge9" class="edge">
<title>Node2&#45;&gt;Node10</title>
<path fill="none" stroke="midnightblue" d="M256.38,-171.47C275.43,-161.73 301,-148.95 324,-138.5 328.36,-136.52 332.93,-134.51 337.51,-132.54"/>
<polygon fill="midnightblue" stroke="midnightblue" points="339.05,-135.69 346.89,-128.57 336.31,-129.24 339.05,-135.69"/>
</g>
<!-- Node12 -->
<g id="node12" class="node">
<title>Node12</title>
<g id="a_node12"><a xlink:href="classPotentialHydrodynamics.html#a8f9332fa846a6ede05c1d1e3e5664973" target="_top" xlink:title="Calculates m_r_mag_ab and m_r_ab at current configuration.">
<polygon fill="none" stroke="black" points="324,-49.5 324,-79.5 447,-79.5 447,-49.5 324,-49.5"/>
<text text-anchor="start" x="332" y="-67.5" font-family="Helvetica,sans-Serif" font-size="10.00">PotentialHydrodynamics</text>
<text text-anchor="middle" x="385.5" y="-56.5" font-family="Helvetica,sans-Serif" font-size="10.00">::calcParticleDistances</text>
</a>
</g>
</g>
<!-- Node2&#45;&gt;Node12 -->
<g id="edge12" class="edge">
<title>Node2&#45;&gt;Node12</title>
<path fill="none" stroke="midnightblue" d="M239.42,-171.17C256.3,-150.31 289.06,-112.89 324,-89.5 326.87,-87.58 329.92,-85.76 333.05,-84.04"/>
<polygon fill="midnightblue" stroke="midnightblue" points="334.71,-87.13 342.06,-79.5 331.55,-80.88 334.71,-87.13"/>
</g>
<!-- Node13 -->
<g id="node13" class="node">
<title>Node13</title>
<g id="a_node13"><a xlink:href="classPotentialHydrodynamics.html#a166daae7d4c96b24e80d9920f566e6f5" target="_top" xlink:title="Calculates m_M_added">
<polygon fill="none" stroke="black" points="324,-0.5 324,-30.5 447,-30.5 447,-0.5 324,-0.5"/>
<text text-anchor="start" x="332" y="-18.5" font-family="Helvetica,sans-Serif" font-size="10.00">PotentialHydrodynamics</text>
<text text-anchor="middle" x="385.5" y="-7.5" font-family="Helvetica,sans-Serif" font-size="10.00">::calcTotalMass</text>
</a>
</g>
</g>
<!-- Node2&#45;&gt;Node13 -->
<g id="edge13" class="edge">
<title>Node2&#45;&gt;Node13</title>
<path fill="none" stroke="midnightblue" d="M233.93,-171.1C246.88,-141.84 278.75,-77.8 324,-40.5 326.03,-38.82 328.2,-37.25 330.44,-35.76"/>
<polygon fill="midnightblue" stroke="midnightblue" points="332.6,-38.56 339.47,-30.5 329.07,-32.51 332.6,-38.56"/>
</g>
<!-- Node6 -->
<g id="node6" class="node">
<title>Node6</title>
<g id="a_node6"><a xlink:href="helper__eigenTensorConversion_8hpp.html#a556d08b55a6ad7cd703b6db06194e5cf" target="_top" xlink:title=" ">
<polygon fill="none" stroke="black" points="484,-138 484,-157 549,-157 549,-138 484,-138"/>
<text text-anchor="middle" x="516.5" y="-145" font-family="Helvetica,sans-Serif" font-size="10.00">MatrixCast</text>
</a>
</g>
</g>
<!-- Node5&#45;&gt;Node6 -->
<g id="edge5" class="edge">
<title>Node5&#45;&gt;Node6</title>
<path fill="none" stroke="midnightblue" d="M432.22,-245.5C437.43,-242.89 442.49,-239.9 447,-236.5 472.68,-217.13 493.72,-185.75 505.42,-165.9"/>
<polygon fill="midnightblue" stroke="midnightblue" points="508.48,-167.6 510.4,-157.18 502.4,-164.13 508.48,-167.6"/>
</g>
<!-- Node7 -->
<g id="node7" class="node">
<title>Node7</title>
<g id="a_node7"><a xlink:href="helper__eigenTensorConversion_8hpp.html#a2a7eca6b17fb874869047bd0b5f11b46" target="_top" xlink:title=" ">
<polygon fill="none" stroke="black" points="586,-138 586,-157 633,-157 633,-138 586,-138"/>
<text text-anchor="middle" x="609.5" y="-145" font-family="Helvetica,sans-Serif" font-size="10.00">asEval</text>
</a>
</g>
</g>
<!-- Node6&#45;&gt;Node7 -->
<g id="edge6" class="edge">
<title>Node6&#45;&gt;Node7</title>
<path fill="none" stroke="midnightblue" d="M549.07,-147.5C557.68,-147.5 567.03,-147.5 575.71,-147.5"/>
<polygon fill="midnightblue" stroke="midnightblue" points="575.87,-151 585.87,-147.5 575.87,-144 575.87,-151"/>
</g>
<!-- Node10&#45;&gt;Node6 -->
<g id="edge10" class="edge">
<title>Node10&#45;&gt;Node6</title>
<path fill="none" stroke="midnightblue" d="M443.46,-128.51C453.78,-131.23 464.36,-134.02 474.12,-136.59"/>
<polygon fill="midnightblue" stroke="midnightblue" points="473.4,-140.02 483.96,-139.19 475.18,-133.25 473.4,-140.02"/>
</g>
<!-- Node11 -->
<g id="node11" class="node">
<title>Node11</title>
<g id="a_node11"><a xlink:href="helper__eigenTensorConversion_8hpp.html#a3a32f7de3f099464192073a93b34d580" target="_top" xlink:title="Convert Eigen::Matrix &#45;&#45;&gt; Eigen::Tensor.">
<polygon fill="none" stroke="black" points="483,-70 483,-89 550,-89 550,-70 483,-70"/>
<text text-anchor="middle" x="516.5" y="-77" font-family="Helvetica,sans-Serif" font-size="10.00">TensorCast</text>
</a>
</g>
</g>
<!-- Node10&#45;&gt;Node11 -->
<g id="edge11" class="edge">
<title>Node10&#45;&gt;Node11</title>
<path fill="none" stroke="midnightblue" d="M443.46,-98.49C453.37,-95.88 463.52,-93.2 472.97,-90.71"/>
<polygon fill="midnightblue" stroke="midnightblue" points="474.11,-94.03 482.89,-88.1 472.32,-87.26 474.11,-94.03"/>
</g>
<!-- Node13&#45;&gt;Node11 -->
<g id="edge14" class="edge">
<title>Node13&#45;&gt;Node11</title>
<path fill="none" stroke="midnightblue" d="M424.91,-30.52C432.31,-33.65 439.96,-37.06 447,-40.5 462.04,-47.85 478.34,-57.08 491.27,-64.72"/>
<polygon fill="midnightblue" stroke="midnightblue" points="489.64,-67.82 500.02,-69.94 493.23,-61.81 489.64,-67.82"/>
</g>
</g>
</svg>
