<?xml version="1.0" encoding="UTF-8" standalone="no"?>
<!DOCTYPE svg PUBLIC "-//W3C//DTD SVG 1.1//EN"
 "http://www.w3.org/Graphics/SVG/1.1/DTD/svg11.dtd">
<!-- Generated by graphviz version 2.43.0 (0)
 -->
<!-- Title: potentialHydrodynamics Pages: 1 -->
<svg width="576pt" height="2538pt"
 viewBox="0.00 0.00 575.50 2538.00" xmlns="http://www.w3.org/2000/svg" xmlns:xlink="http://www.w3.org/1999/xlink">
<g id="graph0" class="graph" transform="scale(1 1) rotate(0) translate(4 2534)">
<title>potentialHydrodynamics</title>
<!-- Node1 -->
<g id="node1" class="node">
<title>Node1</title>
<g id="a_node1"><a xlink:title="Computes hydrodynamic tensors (mass, forces) on a finite number of spheres in potential flow.">
<polygon fill="#bfbfbf" stroke="black" points="53,-1695.5 53,-2181.5 196,-2181.5 196,-1695.5 53,-1695.5"/>
<text text-anchor="middle" x="124.5" y="-2169.5" font-family="Helvetica,sans-Serif" font-size="10.00">potentialHydrodynamics</text>
<polyline fill="none" stroke="black" points="53,-2162.5 196,-2162.5 "/>
<text text-anchor="start" x="61" y="-2150.5" font-family="Helvetica,sans-Serif" font-size="10.00">&#45; m_num_pair_inter</text>
<text text-anchor="start" x="61" y="-2139.5" font-family="Helvetica,sans-Serif" font-size="10.00">&#45; m_3N</text>
<text text-anchor="start" x="61" y="-2128.5" font-family="Helvetica,sans-Serif" font-size="10.00">&#45; m_7M</text>
<text text-anchor="start" x="61" y="-2117.5" font-family="Helvetica,sans-Serif" font-size="10.00">&#45; m_alphaVec</text>
<text text-anchor="start" x="61" y="-2106.5" font-family="Helvetica,sans-Serif" font-size="10.00">&#45; m_betaVec</text>
<text text-anchor="start" x="61" y="-2095.5" font-family="Helvetica,sans-Serif" font-size="10.00">&#45; m_r_mag_ab</text>
<text text-anchor="start" x="61" y="-2084.5" font-family="Helvetica,sans-Serif" font-size="10.00">&#45; m_r_ab</text>
<text text-anchor="start" x="61" y="-2073.5" font-family="Helvetica,sans-Serif" font-size="10.00">&#45; m_I3N</text>
<text text-anchor="start" x="61" y="-2062.5" font-family="Helvetica,sans-Serif" font-size="10.00">&#45; m_c1_2_I3N</text>
<text text-anchor="start" x="61" y="-2051.5" font-family="Helvetica,sans-Serif" font-size="10.00">&#45; m_M_added</text>
<text text-anchor="start" x="61" y="-2040.5" font-family="Helvetica,sans-Serif" font-size="10.00">&#45; m_M_intrinsic</text>
<text text-anchor="start" x="61" y="-2029.5" font-family="Helvetica,sans-Serif" font-size="10.00">&#45; m_M_total</text>
<text text-anchor="start" x="61" y="-2018.5" font-family="Helvetica,sans-Serif" font-size="10.00">&#45; m_tens_M_total</text>
<text text-anchor="start" x="61" y="-2007.5" font-family="Helvetica,sans-Serif" font-size="10.00">&#45; m_grad_M_added</text>
<text text-anchor="start" x="61" y="-1996.5" font-family="Helvetica,sans-Serif" font-size="10.00">&#45; m_grad_M_added_body</text>
<text text-anchor="start" x="61" y="-1985.5" font-family="Helvetica,sans-Serif" font-size="10.00">_coords</text>
<text text-anchor="start" x="61" y="-1974.5" font-family="Helvetica,sans-Serif" font-size="10.00">&#45; m_F_hydro</text>
<text text-anchor="start" x="61" y="-1963.5" font-family="Helvetica,sans-Serif" font-size="10.00">&#45; m_F_hydroNoInertia</text>
<text text-anchor="start" x="61" y="-1952.5" font-family="Helvetica,sans-Serif" font-size="10.00">&#45; m_N1</text>
<text text-anchor="start" x="61" y="-1941.5" font-family="Helvetica,sans-Serif" font-size="10.00">&#45; m_N2</text>
<text text-anchor="start" x="61" y="-1930.5" font-family="Helvetica,sans-Serif" font-size="10.00">&#45; m_N3</text>
<text text-anchor="start" x="61" y="-1919.5" font-family="Helvetica,sans-Serif" font-size="10.00">&#45; m_M_tilde_tilde</text>
<text text-anchor="start" x="61" y="-1908.5" font-family="Helvetica,sans-Serif" font-size="10.00">&#45; m_M_tilde</text>
<text text-anchor="start" x="61" y="-1897.5" font-family="Helvetica,sans-Serif" font-size="10.00">&#45; m_mat_M_tilde</text>
<text text-anchor="start" x="61" y="-1886.5" font-family="Helvetica,sans-Serif" font-size="10.00">&#45; m_unitSphereVol</text>
<text text-anchor="start" x="61" y="-1875.5" font-family="Helvetica,sans-Serif" font-size="10.00">&#45; m_c1_2</text>
<text text-anchor="start" x="61" y="-1864.5" font-family="Helvetica,sans-Serif" font-size="10.00">&#45; m_c3_2</text>
<text text-anchor="start" x="61" y="-1853.5" font-family="Helvetica,sans-Serif" font-size="10.00">&#45; m_c15_2</text>
<polyline fill="none" stroke="black" points="53,-1846.5 196,-1846.5 "/>
<text text-anchor="start" x="61" y="-1834.5" font-family="Helvetica,sans-Serif" font-size="10.00">+ potentialHydrodynamics()</text>
<text text-anchor="start" x="61" y="-1823.5" font-family="Helvetica,sans-Serif" font-size="10.00">+ ~potentialHydrodynamics()</text>
<text text-anchor="start" x="61" y="-1812.5" font-family="Helvetica,sans-Serif" font-size="10.00">+ update()</text>
<text text-anchor="start" x="61" y="-1801.5" font-family="Helvetica,sans-Serif" font-size="10.00">+ fHydro()</text>
<text text-anchor="start" x="61" y="-1790.5" font-family="Helvetica,sans-Serif" font-size="10.00">+ fHydroNoInertia()</text>
<text text-anchor="start" x="61" y="-1779.5" font-family="Helvetica,sans-Serif" font-size="10.00">+ mTotal()</text>
<text text-anchor="start" x="61" y="-1768.5" font-family="Helvetica,sans-Serif" font-size="10.00">+ mTilde()</text>
<text text-anchor="start" x="61" y="-1757.5" font-family="Helvetica,sans-Serif" font-size="10.00">&#45; calcParticleDistances()</text>
<text text-anchor="start" x="61" y="-1746.5" font-family="Helvetica,sans-Serif" font-size="10.00">&#45; calcAddedMass()</text>
<text text-anchor="start" x="61" y="-1735.5" font-family="Helvetica,sans-Serif" font-size="10.00">&#45; calcTotalMass()</text>
<text text-anchor="start" x="61" y="-1724.5" font-family="Helvetica,sans-Serif" font-size="10.00">&#45; calcAddedMassGrad()</text>
<text text-anchor="start" x="61" y="-1713.5" font-family="Helvetica,sans-Serif" font-size="10.00">&#45; calcBodyTensors()</text>
<text text-anchor="start" x="61" y="-1702.5" font-family="Helvetica,sans-Serif" font-size="10.00">&#45; calcHydroForces()</text>
</a>
</g>
</g>
<!-- Node2 -->
<g id="node2" class="node">
<title>Node2</title>
<g id="a_node2"><a xlink:title=" ">
<polygon fill="none" stroke="#bfbfbf" points="212,-2246 212,-2303 365,-2303 365,-2246 212,-2246"/>
<text text-anchor="middle" x="288.5" y="-2291" font-family="Helvetica,sans-Serif" font-size="10.00">std::shared_ptr&lt; systemData &gt;</text>
<polyline fill="none" stroke="#bfbfbf" points="212,-2284 365,-2284 "/>
<text text-anchor="middle" x="288.5" y="-2272" font-family="Helvetica,sans-Serif" font-size="10.00"> </text>
<polyline fill="none" stroke="#bfbfbf" points="212,-2265 365,-2265 "/>
<text text-anchor="start" x="220" y="-2253" font-family="Helvetica,sans-Serif" font-size="10.00">+ operator&#45;&gt;()</text>
</a>
</g>
</g>
<!-- Node2&#45;&gt;Node1 -->
<g id="edge1" class="edge">
<title>Node2&#45;&gt;Node1</title>
<path fill="none" stroke="#404040" d="M211.81,-2267.31C181.53,-2260.7 149.5,-2247.6 130.5,-2222 123.74,-2212.89 118.15,-2203.11 113.57,-2192.88"/>
<polygon fill="none" stroke="#404040" points="113.51,-2192.71 107.55,-2188.66 109,-2181.59 114.96,-2185.65 113.51,-2192.71"/>
<text text-anchor="middle" x="156.5" y="-2208.5" font-family="Helvetica,sans-Serif" font-size="10.00"> &#45;m_system</text>
</g>
<!-- Node6 -->
<g id="node6" class="node">
<title>Node6</title>
<g id="a_node6"><a xlink:href="classGSDUtil.html" target="_top" xlink:title="Wrapper class for gsd.h to load data from input GSD file into systemData class.">
<polygon fill="none" stroke="black" points="257.5,-1833 257.5,-2044 379.5,-2044 379.5,-1833 257.5,-1833"/>
<text text-anchor="middle" x="318.5" y="-2032" font-family="Helvetica,sans-Serif" font-size="10.00">GSDUtil</text>
<polyline fill="none" stroke="black" points="257.5,-2025 379.5,-2025 "/>
<text text-anchor="start" x="265.5" y="-2013" font-family="Helvetica,sans-Serif" font-size="10.00">&#45; m_frame</text>
<polyline fill="none" stroke="black" points="257.5,-2006 379.5,-2006 "/>
<text text-anchor="start" x="265.5" y="-1994" font-family="Helvetica,sans-Serif" font-size="10.00">+ GSDUtil()</text>
<text text-anchor="start" x="265.5" y="-1983" font-family="Helvetica,sans-Serif" font-size="10.00">+ GSDUtil()</text>
<text text-anchor="start" x="265.5" y="-1972" font-family="Helvetica,sans-Serif" font-size="10.00">+ ~GSDUtil()</text>
<text text-anchor="start" x="265.5" y="-1961" font-family="Helvetica,sans-Serif" font-size="10.00">+ truncateGSD()</text>
<text text-anchor="start" x="265.5" y="-1950" font-family="Helvetica,sans-Serif" font-size="10.00">+ writeFrame()</text>
<text text-anchor="start" x="265.5" y="-1939" font-family="Helvetica,sans-Serif" font-size="10.00">+ frame()</text>
<text text-anchor="start" x="265.5" y="-1928" font-family="Helvetica,sans-Serif" font-size="10.00">&#45; checkGSDReturn()</text>
<text text-anchor="start" x="265.5" y="-1917" font-family="Helvetica,sans-Serif" font-size="10.00">&#45; readChunk()</text>
<text text-anchor="start" x="265.5" y="-1906" font-family="Helvetica,sans-Serif" font-size="10.00">&#45; readHeader()</text>
<text text-anchor="start" x="265.5" y="-1895" font-family="Helvetica,sans-Serif" font-size="10.00">&#45; readParameters()</text>
<text text-anchor="start" x="265.5" y="-1884" font-family="Helvetica,sans-Serif" font-size="10.00">&#45; readParticles()</text>
<text text-anchor="start" x="265.5" y="-1873" font-family="Helvetica,sans-Serif" font-size="10.00">&#45; readSystemSpecifics()</text>
<text text-anchor="start" x="265.5" y="-1862" font-family="Helvetica,sans-Serif" font-size="10.00">&#45; writeHeader()</text>
<text text-anchor="start" x="265.5" y="-1851" font-family="Helvetica,sans-Serif" font-size="10.00">&#45; writeParameters()</text>
<text text-anchor="start" x="265.5" y="-1840" font-family="Helvetica,sans-Serif" font-size="10.00">&#45; writeParticles()</text>
</a>
</g>
</g>
<!-- Node2&#45;&gt;Node6 -->
<g id="edge6" class="edge">
<title>Node2&#45;&gt;Node6</title>
<path fill="none" stroke="#404040" d="M290.98,-2245.88C294.69,-2204.6 301.9,-2124.37 308,-2056.36"/>
<polygon fill="none" stroke="#404040" points="308.02,-2056.21 304.57,-2049.87 309.09,-2044.26 312.54,-2050.59 308.02,-2056.21"/>
<text text-anchor="middle" x="321.5" y="-2208.5" font-family="Helvetica,sans-Serif" font-size="10.00"> &#45;m_system</text>
</g>
<!-- Node3 -->
<g id="node3" class="node">
<title>Node3</title>
<g id="a_node3"><a xlink:href="classsystemData.html" target="_top" xlink:title="Class contains all data structures relevant to the simulation framework. Note that after construction...">
<polygon fill="none" stroke="black" points="141.5,-0.5 141.5,-1498.5 317.5,-1498.5 317.5,-0.5 141.5,-0.5"/>
<text text-anchor="middle" x="229.5" y="-1486.5" font-family="Helvetica,sans-Serif" font-size="10.00">systemData</text>
<polyline fill="none" stroke="black" points="141.5,-1479.5 317.5,-1479.5 "/>
<text text-anchor="start" x="149.5" y="-1467.5" font-family="Helvetica,sans-Serif" font-size="10.00">&#45; m_return_val</text>
<text text-anchor="start" x="149.5" y="-1456.5" font-family="Helvetica,sans-Serif" font-size="10.00">&#45; m_return_bool</text>
<text text-anchor="start" x="149.5" y="-1445.5" font-family="Helvetica,sans-Serif" font-size="10.00">&#45; m_GSD_parsed</text>
<text text-anchor="start" x="149.5" y="-1434.5" font-family="Helvetica,sans-Serif" font-size="10.00">&#45; m_sys_spec_U0</text>
<text text-anchor="start" x="149.5" y="-1423.5" font-family="Helvetica,sans-Serif" font-size="10.00">&#45; m_sys_spec_omega</text>
<text text-anchor="start" x="149.5" y="-1412.5" font-family="Helvetica,sans-Serif" font-size="10.00">&#45; m_sys_spec_phase_shift</text>
<text text-anchor="start" x="149.5" y="-1401.5" font-family="Helvetica,sans-Serif" font-size="10.00">&#45; m_sys_spec_R_avg</text>
<text text-anchor="start" x="149.5" y="-1390.5" font-family="Helvetica,sans-Serif" font-size="10.00">&#45; m_particle_type_id</text>
<text text-anchor="start" x="149.5" y="-1379.5" font-family="Helvetica,sans-Serif" font-size="10.00">&#45; m_fluid_density</text>
<text text-anchor="start" x="149.5" y="-1368.5" font-family="Helvetica,sans-Serif" font-size="10.00">&#45; m_particle_density</text>
<text text-anchor="start" x="149.5" y="-1357.5" font-family="Helvetica,sans-Serif" font-size="10.00">&#45; m_wca_epsilon</text>
<text text-anchor="start" x="149.5" y="-1346.5" font-family="Helvetica,sans-Serif" font-size="10.00">&#45; m_wca_sigma</text>
<text text-anchor="start" x="149.5" y="-1335.5" font-family="Helvetica,sans-Serif" font-size="10.00">&#45; m_num_spatial_dim</text>
<text text-anchor="start" x="149.5" y="-1324.5" font-family="Helvetica,sans-Serif" font-size="10.00">&#45; m_num_particles</text>
<text text-anchor="start" x="149.5" y="-1313.5" font-family="Helvetica,sans-Serif" font-size="10.00">&#45; m_num_bodies</text>
<text text-anchor="start" x="149.5" y="-1302.5" font-family="Helvetica,sans-Serif" font-size="10.00">&#45; m_num_DoF</text>
<text text-anchor="start" x="149.5" y="-1291.5" font-family="Helvetica,sans-Serif" font-size="10.00">&#45; m_num_constraints</text>
<text text-anchor="start" x="149.5" y="-1280.5" font-family="Helvetica,sans-Serif" font-size="10.00">&#45; m_dt</text>
<text text-anchor="start" x="149.5" y="-1269.5" font-family="Helvetica,sans-Serif" font-size="10.00">&#45; m_tf</text>
<text text-anchor="start" x="149.5" y="-1258.5" font-family="Helvetica,sans-Serif" font-size="10.00">&#45; m_t</text>
<text text-anchor="start" x="149.5" y="-1247.5" font-family="Helvetica,sans-Serif" font-size="10.00">&#45; m_tau</text>
<text text-anchor="start" x="149.5" y="-1236.5" font-family="Helvetica,sans-Serif" font-size="10.00">&#45; m_timestep</text>
<text text-anchor="start" x="149.5" y="-1225.5" font-family="Helvetica,sans-Serif" font-size="10.00">&#45; m_num_steps_output</text>
<text text-anchor="start" x="149.5" y="-1214.5" font-family="Helvetica,sans-Serif" font-size="10.00">&#45; m_I3</text>
<text text-anchor="start" x="149.5" y="-1203.5" font-family="Helvetica,sans-Serif" font-size="10.00">&#45; m_tens_I3</text>
<text text-anchor="start" x="149.5" y="-1192.5" font-family="Helvetica,sans-Serif" font-size="10.00">&#45; m_levi_cevita</text>
<text text-anchor="start" x="149.5" y="-1181.5" font-family="Helvetica,sans-Serif" font-size="10.00">&#45; m_kappa_tilde</text>
<text text-anchor="start" x="149.5" y="-1170.5" font-family="Helvetica,sans-Serif" font-size="10.00">&#45; m_positions_bodies</text>
<text text-anchor="start" x="149.5" y="-1159.5" font-family="Helvetica,sans-Serif" font-size="10.00">&#45; m_velocities_bodies</text>
<text text-anchor="start" x="149.5" y="-1148.5" font-family="Helvetica,sans-Serif" font-size="10.00">&#45; m_accelerations_bodies</text>
<text text-anchor="start" x="149.5" y="-1137.5" font-family="Helvetica,sans-Serif" font-size="10.00">&#45; m_orientations_particles</text>
<text text-anchor="start" x="149.5" y="-1126.5" font-family="Helvetica,sans-Serif" font-size="10.00">&#45; m_positions_particles</text>
<text text-anchor="start" x="149.5" y="-1115.5" font-family="Helvetica,sans-Serif" font-size="10.00">&#45; m_velocities_particles</text>
<text text-anchor="start" x="149.5" y="-1104.5" font-family="Helvetica,sans-Serif" font-size="10.00">&#45; m_accelerations_particles</text>
<text text-anchor="start" x="149.5" y="-1093.5" font-family="Helvetica,sans-Serif" font-size="10.00">&#45; m_positions_locater</text>
<text text-anchor="start" x="149.5" y="-1082.5" font-family="Helvetica,sans-Serif" font-size="10.00">_particles</text>
<text text-anchor="start" x="149.5" y="-1071.5" font-family="Helvetica,sans-Serif" font-size="10.00">&#45; m_velocities_particles</text>
<text text-anchor="start" x="149.5" y="-1060.5" font-family="Helvetica,sans-Serif" font-size="10.00">_articulation</text>
<text text-anchor="start" x="149.5" y="-1049.5" font-family="Helvetica,sans-Serif" font-size="10.00">&#45; m_accelerations_particles</text>
<text text-anchor="start" x="149.5" y="-1038.5" font-family="Helvetica,sans-Serif" font-size="10.00">_articulation</text>
<text text-anchor="start" x="149.5" y="-1027.5" font-family="Helvetica,sans-Serif" font-size="10.00">&#45; m_rbm_conn</text>
<text text-anchor="start" x="149.5" y="-1016.5" font-family="Helvetica,sans-Serif" font-size="10.00">&#45; m_psi_conv_quat_ang</text>
<text text-anchor="start" x="149.5" y="-1005.5" font-family="Helvetica,sans-Serif" font-size="10.00">&#45; m_rbm_conn_T_quat</text>
<text text-anchor="start" x="149.5" y="-994.5" font-family="Helvetica,sans-Serif" font-size="10.00">&#45; m_tens_rbm_conn_T_quat</text>
<text text-anchor="start" x="149.5" y="-983.5" font-family="Helvetica,sans-Serif" font-size="10.00">&#45; m_rbm_conn_T_quat_grad</text>
<text text-anchor="start" x="149.5" y="-972.5" font-family="Helvetica,sans-Serif" font-size="10.00">&#45; m_conv_body_2_part_dof</text>
<text text-anchor="start" x="149.5" y="-961.5" font-family="Helvetica,sans-Serif" font-size="10.00">&#45; m_tens_conv_body_2</text>
<text text-anchor="start" x="149.5" y="-950.5" font-family="Helvetica,sans-Serif" font-size="10.00">_part_dof</text>
<text text-anchor="start" x="149.5" y="-939.5" font-family="Helvetica,sans-Serif" font-size="10.00">&#45; m_Udwadia_A</text>
<text text-anchor="start" x="149.5" y="-928.5" font-family="Helvetica,sans-Serif" font-size="10.00">&#45; m_Udwadia_b</text>
<polyline fill="none" stroke="black" points="141.5,-921.5 317.5,-921.5 "/>
<text text-anchor="start" x="149.5" y="-909.5" font-family="Helvetica,sans-Serif" font-size="10.00">+ systemData()</text>
<text text-anchor="start" x="149.5" y="-898.5" font-family="Helvetica,sans-Serif" font-size="10.00">+ ~systemData()</text>
<text text-anchor="start" x="149.5" y="-887.5" font-family="Helvetica,sans-Serif" font-size="10.00">+ initializeData()</text>
<text text-anchor="start" x="149.5" y="-876.5" font-family="Helvetica,sans-Serif" font-size="10.00">+ update()</text>
<text text-anchor="start" x="149.5" y="-865.5" font-family="Helvetica,sans-Serif" font-size="10.00">+ inputGSDFile()</text>
<text text-anchor="start" x="149.5" y="-854.5" font-family="Helvetica,sans-Serif" font-size="10.00">+ outputDir()</text>
<text text-anchor="start" x="149.5" y="-843.5" font-family="Helvetica,sans-Serif" font-size="10.00">+ gsdUtil()</text>
<text text-anchor="start" x="149.5" y="-832.5" font-family="Helvetica,sans-Serif" font-size="10.00">+ handle()</text>
<text text-anchor="start" x="149.5" y="-821.5" font-family="Helvetica,sans-Serif" font-size="10.00">+ setReturnVal()</text>
<text text-anchor="start" x="149.5" y="-810.5" font-family="Helvetica,sans-Serif" font-size="10.00">+ returnVal()</text>
<text text-anchor="start" x="149.5" y="-799.5" font-family="Helvetica,sans-Serif" font-size="10.00">+ setReturnBool()</text>
<text text-anchor="start" x="149.5" y="-788.5" font-family="Helvetica,sans-Serif" font-size="10.00">+ returnBool()</text>
<text text-anchor="start" x="149.5" y="-777.5" font-family="Helvetica,sans-Serif" font-size="10.00">+ gSDParsed()</text>
<text text-anchor="start" x="149.5" y="-766.5" font-family="Helvetica,sans-Serif" font-size="10.00">+ sysSpecU0()</text>
<text text-anchor="start" x="149.5" y="-755.5" font-family="Helvetica,sans-Serif" font-size="10.00">+ setSysSpecU0()</text>
<text text-anchor="start" x="149.5" y="-744.5" font-family="Helvetica,sans-Serif" font-size="10.00">+ sysSpecOmega()</text>
<text text-anchor="start" x="149.5" y="-733.5" font-family="Helvetica,sans-Serif" font-size="10.00">+ setSysSpecOmega()</text>
<text text-anchor="start" x="149.5" y="-722.5" font-family="Helvetica,sans-Serif" font-size="10.00">+ sysSpecPhaseShift()</text>
<text text-anchor="start" x="149.5" y="-711.5" font-family="Helvetica,sans-Serif" font-size="10.00">+ setSysSpecPhaseShift()</text>
<text text-anchor="start" x="149.5" y="-700.5" font-family="Helvetica,sans-Serif" font-size="10.00">+ sysSpecRAvg()</text>
<text text-anchor="start" x="149.5" y="-689.5" font-family="Helvetica,sans-Serif" font-size="10.00">+ setSysSpecRAvg()</text>
<text text-anchor="start" x="149.5" y="-678.5" font-family="Helvetica,sans-Serif" font-size="10.00">+ particleTypeId()</text>
<text text-anchor="start" x="149.5" y="-667.5" font-family="Helvetica,sans-Serif" font-size="10.00">+ setParticleTypeId()</text>
<text text-anchor="start" x="149.5" y="-656.5" font-family="Helvetica,sans-Serif" font-size="10.00">+ fluidDensity()</text>
<text text-anchor="start" x="149.5" y="-645.5" font-family="Helvetica,sans-Serif" font-size="10.00">+ setFluidDensity()</text>
<text text-anchor="start" x="149.5" y="-634.5" font-family="Helvetica,sans-Serif" font-size="10.00">+ particleDensity()</text>
<text text-anchor="start" x="149.5" y="-623.5" font-family="Helvetica,sans-Serif" font-size="10.00">+ setParticleDensity()</text>
<text text-anchor="start" x="149.5" y="-612.5" font-family="Helvetica,sans-Serif" font-size="10.00">+ wcaEpsilon()</text>
<text text-anchor="start" x="149.5" y="-601.5" font-family="Helvetica,sans-Serif" font-size="10.00">+ setWcaEpsilon()</text>
<text text-anchor="start" x="149.5" y="-590.5" font-family="Helvetica,sans-Serif" font-size="10.00">+ wcaSigma()</text>
<text text-anchor="start" x="149.5" y="-579.5" font-family="Helvetica,sans-Serif" font-size="10.00">+ setWcaSigma()</text>
<text text-anchor="start" x="149.5" y="-568.5" font-family="Helvetica,sans-Serif" font-size="10.00">+ numSpatialDim()</text>
<text text-anchor="start" x="149.5" y="-557.5" font-family="Helvetica,sans-Serif" font-size="10.00">+ setNumSpatialDim()</text>
<text text-anchor="start" x="149.5" y="-546.5" font-family="Helvetica,sans-Serif" font-size="10.00">+ numParticles()</text>
<text text-anchor="start" x="149.5" y="-535.5" font-family="Helvetica,sans-Serif" font-size="10.00">+ setNumParticles()</text>
<text text-anchor="start" x="149.5" y="-524.5" font-family="Helvetica,sans-Serif" font-size="10.00">+ numBodies()</text>
<text text-anchor="start" x="149.5" y="-513.5" font-family="Helvetica,sans-Serif" font-size="10.00">+ setNumBodies()</text>
<text text-anchor="start" x="149.5" y="-502.5" font-family="Helvetica,sans-Serif" font-size="10.00">+ numDoF()</text>
<text text-anchor="start" x="149.5" y="-491.5" font-family="Helvetica,sans-Serif" font-size="10.00">+ tensI3()</text>
<text text-anchor="start" x="149.5" y="-480.5" font-family="Helvetica,sans-Serif" font-size="10.00">+ i3()</text>
<text text-anchor="start" x="149.5" y="-469.5" font-family="Helvetica,sans-Serif" font-size="10.00">+ dt()</text>
<text text-anchor="start" x="149.5" y="-458.5" font-family="Helvetica,sans-Serif" font-size="10.00">+ setDt()</text>
<text text-anchor="start" x="149.5" y="-447.5" font-family="Helvetica,sans-Serif" font-size="10.00">+ tf()</text>
<text text-anchor="start" x="149.5" y="-436.5" font-family="Helvetica,sans-Serif" font-size="10.00">+ setTf()</text>
<text text-anchor="start" x="149.5" y="-425.5" font-family="Helvetica,sans-Serif" font-size="10.00">+ t()</text>
<text text-anchor="start" x="149.5" y="-414.5" font-family="Helvetica,sans-Serif" font-size="10.00">+ setT()</text>
<text text-anchor="start" x="149.5" y="-403.5" font-family="Helvetica,sans-Serif" font-size="10.00">+ tau()</text>
<text text-anchor="start" x="149.5" y="-392.5" font-family="Helvetica,sans-Serif" font-size="10.00">+ setTau()</text>
<text text-anchor="start" x="149.5" y="-381.5" font-family="Helvetica,sans-Serif" font-size="10.00">+ timestep()</text>
<text text-anchor="start" x="149.5" y="-370.5" font-family="Helvetica,sans-Serif" font-size="10.00">+ setTimestep()</text>
<text text-anchor="start" x="149.5" y="-359.5" font-family="Helvetica,sans-Serif" font-size="10.00">+ numStepsOutput()</text>
<text text-anchor="start" x="149.5" y="-348.5" font-family="Helvetica,sans-Serif" font-size="10.00">+ setNumStepsOutput()</text>
<text text-anchor="start" x="149.5" y="-337.5" font-family="Helvetica,sans-Serif" font-size="10.00">+ positionsBodies()</text>
<text text-anchor="start" x="149.5" y="-326.5" font-family="Helvetica,sans-Serif" font-size="10.00">+ setPositionsBodies()</text>
<text text-anchor="start" x="149.5" y="-315.5" font-family="Helvetica,sans-Serif" font-size="10.00">+ velocitiesBodies()</text>
<text text-anchor="start" x="149.5" y="-304.5" font-family="Helvetica,sans-Serif" font-size="10.00">+ setVelocitiesBodies()</text>
<text text-anchor="start" x="149.5" y="-293.5" font-family="Helvetica,sans-Serif" font-size="10.00">+ accelerationsBodies()</text>
<text text-anchor="start" x="149.5" y="-282.5" font-family="Helvetica,sans-Serif" font-size="10.00">+ setAccelerationsBodies()</text>
<text text-anchor="start" x="149.5" y="-271.5" font-family="Helvetica,sans-Serif" font-size="10.00">+ orientationsParticles()</text>
<text text-anchor="start" x="149.5" y="-260.5" font-family="Helvetica,sans-Serif" font-size="10.00">+ setOrientationsParticles()</text>
<text text-anchor="start" x="149.5" y="-249.5" font-family="Helvetica,sans-Serif" font-size="10.00">+ positionsParticles()</text>
<text text-anchor="start" x="149.5" y="-238.5" font-family="Helvetica,sans-Serif" font-size="10.00">+ setPositionsParticles()</text>
<text text-anchor="start" x="149.5" y="-227.5" font-family="Helvetica,sans-Serif" font-size="10.00">+ velocitiesParticles()</text>
<text text-anchor="start" x="149.5" y="-216.5" font-family="Helvetica,sans-Serif" font-size="10.00">+ setVelocitiesParticles()</text>
<text text-anchor="start" x="149.5" y="-205.5" font-family="Helvetica,sans-Serif" font-size="10.00">+ accelerationsParticles()</text>
<text text-anchor="start" x="149.5" y="-194.5" font-family="Helvetica,sans-Serif" font-size="10.00">+ setAccelerationsParticles()</text>
<text text-anchor="start" x="149.5" y="-183.5" font-family="Helvetica,sans-Serif" font-size="10.00">+ velocitiesParticlesArticulation()</text>
<text text-anchor="start" x="149.5" y="-172.5" font-family="Helvetica,sans-Serif" font-size="10.00">+ accelerationsParticlesArticulation()</text>
<text text-anchor="start" x="149.5" y="-161.5" font-family="Helvetica,sans-Serif" font-size="10.00">+ tensRbmConnTQuat()</text>
<text text-anchor="start" x="149.5" y="-150.5" font-family="Helvetica,sans-Serif" font-size="10.00">+ tensRbmConnTQuatGrad()</text>
<text text-anchor="start" x="149.5" y="-139.5" font-family="Helvetica,sans-Serif" font-size="10.00">+ tensConvBody2PartDof()</text>
<text text-anchor="start" x="149.5" y="-128.5" font-family="Helvetica,sans-Serif" font-size="10.00">+ udwadiaA()</text>
<text text-anchor="start" x="149.5" y="-117.5" font-family="Helvetica,sans-Serif" font-size="10.00">+ udwadiaB()</text>
<text text-anchor="start" x="149.5" y="-106.5" font-family="Helvetica,sans-Serif" font-size="10.00">&#45; parseGSD()</text>
<text text-anchor="start" x="149.5" y="-95.5" font-family="Helvetica,sans-Serif" font-size="10.00">&#45; checkInput()</text>
<text text-anchor="start" x="149.5" y="-84.5" font-family="Helvetica,sans-Serif" font-size="10.00">&#45; velocitiesArticulation()</text>
<text text-anchor="start" x="149.5" y="-73.5" font-family="Helvetica,sans-Serif" font-size="10.00">&#45; accelerationsArticulation()</text>
<text text-anchor="start" x="149.5" y="-62.5" font-family="Helvetica,sans-Serif" font-size="10.00">&#45; udwadiaLinearSystem()</text>
<text text-anchor="start" x="149.5" y="-51.5" font-family="Helvetica,sans-Serif" font-size="10.00">&#45; rigidBodyMotionTensors()</text>
<text text-anchor="start" x="149.5" y="-40.5" font-family="Helvetica,sans-Serif" font-size="10.00">&#45; gradientChangeOfVariable</text>
<text text-anchor="start" x="149.5" y="-29.5" font-family="Helvetica,sans-Serif" font-size="10.00">Tensors()</text>
<text text-anchor="start" x="149.5" y="-18.5" font-family="Helvetica,sans-Serif" font-size="10.00">&#45; eMatrix()</text>
<text text-anchor="start" x="149.5" y="-7.5" font-family="Helvetica,sans-Serif" font-size="10.00">&#45; crossProdMat()</text>
</a>
</g>
</g>
<!-- Node3&#45;&gt;Node2 -->
<g id="edge2" class="edge">
<title>Node3&#45;&gt;Node2</title>
<path fill="none" stroke="#404040" d="M216.97,-1498.84C215.99,-1809.71 222.23,-2114.26 248.5,-2182 252.37,-2191.98 259.17,-2190.72 264.5,-2200 270.55,-2210.54 275.32,-2222.82 278.97,-2234.29"/>
<polygon fill="none" stroke="#404040" points="278.98,-2234.33 284.51,-2238.96 282.36,-2245.84 276.83,-2241.21 278.98,-2234.33"/>
<text text-anchor="middle" x="228" y="-1652.5" font-family="Helvetica,sans-Serif" font-size="10.00"> +ptr</text>
</g>
<!-- Node4 -->
<g id="node4" class="node">
<title>Node4</title>
<g id="a_node4"><a xlink:title=" ">
<polygon fill="none" stroke="#bfbfbf" points="67.5,-1546.5 67.5,-1614.5 201.5,-1614.5 201.5,-1546.5 67.5,-1546.5"/>
<text text-anchor="start" x="75.5" y="-1602.5" font-family="Helvetica,sans-Serif" font-size="10.00">std::enable_shared</text>
<text text-anchor="middle" x="134.5" y="-1591.5" font-family="Helvetica,sans-Serif" font-size="10.00">_from_this&lt; systemData &gt;</text>
<polyline fill="none" stroke="#bfbfbf" points="67.5,-1584.5 201.5,-1584.5 "/>
<text text-anchor="middle" x="134.5" y="-1572.5" font-family="Helvetica,sans-Serif" font-size="10.00"> </text>
<polyline fill="none" stroke="#bfbfbf" points="67.5,-1565.5 201.5,-1565.5 "/>
<text text-anchor="middle" x="134.5" y="-1553.5" font-family="Helvetica,sans-Serif" font-size="10.00"> </text>
</a>
</g>
</g>
<!-- Node4&#45;&gt;Node3 -->
<g id="edge3" class="edge">
<title>Node4&#45;&gt;Node3</title>
<path fill="none" stroke="midnightblue" d="M139.45,-1536.27C140.69,-1525.44 142.14,-1512.82 143.76,-1498.66"/>
<polygon fill="none" stroke="midnightblue" points="135.94,-1536.16 138.28,-1546.49 142.9,-1536.95 135.94,-1536.16"/>
</g>
<!-- Node5 -->
<g id="node5" class="node">
<title>Node5</title>
<g id="a_node5"><a xlink:title=" ">
<polygon fill="none" stroke="#bfbfbf" points="258,-1552 258,-1609 395,-1609 395,-1552 258,-1552"/>
<text text-anchor="middle" x="326.5" y="-1597" font-family="Helvetica,sans-Serif" font-size="10.00">std::shared_ptr&lt; GSDUtil &gt;</text>
<polyline fill="none" stroke="#bfbfbf" points="258,-1590 395,-1590 "/>
<text text-anchor="middle" x="326.5" y="-1578" font-family="Helvetica,sans-Serif" font-size="10.00"> </text>
<polyline fill="none" stroke="#bfbfbf" points="258,-1571 395,-1571 "/>
<text text-anchor="start" x="266" y="-1559" font-family="Helvetica,sans-Serif" font-size="10.00">+ operator&#45;&gt;()</text>
</a>
</g>
</g>
<!-- Node5&#45;&gt;Node3 -->
<g id="edge4" class="edge">
<title>Node5&#45;&gt;Node3</title>
<path fill="none" stroke="#404040" d="M323.27,-1551.92C322,-1541.01 320.37,-1527.15 318.47,-1510.84"/>
<polygon fill="none" stroke="#404040" points="318.42,-1510.46 313.75,-1504.97 317.03,-1498.54 321.7,-1504.04 318.42,-1510.46"/>
<text text-anchor="middle" x="346" y="-1520" font-family="Helvetica,sans-Serif" font-size="10.00"> &#45;m_gsdUtil</text>
</g>
<!-- Node6&#45;&gt;Node5 -->
<g id="edge5" class="edge">
<title>Node6&#45;&gt;Node5</title>
<path fill="none" stroke="#404040" d="M320.86,-1832.61C322.45,-1761.71 324.46,-1672.07 325.61,-1621.32"/>
<polygon fill="none" stroke="#404040" points="325.61,-1621.29 321.74,-1615.2 325.88,-1609.3 329.74,-1615.38 325.61,-1621.29"/>
<text text-anchor="middle" x="336" y="-1652.5" font-family="Helvetica,sans-Serif" font-size="10.00"> +ptr</text>
</g>
<!-- Node7 -->
<g id="node7" class="node">
<title>Node7</title>
<g id="a_node7"><a xlink:title="STL class.">
<polygon fill="none" stroke="#bfbfbf" points="17.5,-2246 17.5,-2303 77.5,-2303 77.5,-2246 17.5,-2246"/>
<text text-anchor="middle" x="47.5" y="-2291" font-family="Helvetica,sans-Serif" font-size="10.00">std::string</text>
<polyline fill="none" stroke="#bfbfbf" points="17.5,-2284 77.5,-2284 "/>
<text text-anchor="middle" x="47.5" y="-2272" font-family="Helvetica,sans-Serif" font-size="10.00"> </text>
<polyline fill="none" stroke="#bfbfbf" points="17.5,-2265 77.5,-2265 "/>
<text text-anchor="middle" x="47.5" y="-2253" font-family="Helvetica,sans-Serif" font-size="10.00"> </text>
</a>
</g>
</g>
<!-- Node7&#45;&gt;Node1 -->
<g id="edge16" class="edge">
<title>Node7&#45;&gt;Node1</title>
<path fill="none" stroke="#404040" d="M46.12,-2245.78C45.88,-2231.96 46.25,-2215.02 48.5,-2200 49.21,-2195.29 49.98,-2190.54 50.8,-2185.77"/>
<polygon fill="none" stroke="#404040" points="50.82,-2185.67 47.96,-2179.05 52.97,-2173.86 55.83,-2180.48 50.82,-2185.67"/>
<text text-anchor="middle" x="78" y="-2214" font-family="Helvetica,sans-Serif" font-size="10.00"> &#45;m_logName</text>
<text text-anchor="middle" x="78" y="-2203" font-family="Helvetica,sans-Serif" font-size="10.00">&#45;m_logFile</text>
</g>
<!-- Node7&#45;&gt;Node3 -->
<g id="edge11" class="edge">
<title>Node7&#45;&gt;Node3</title>
<path fill="none" stroke="#404040" d="M44.97,-2245.99C44.36,-2238.24 43.8,-2229.8 43.5,-2222 34.42,-1987.95 31.75,-1928.93 43.5,-1695 53.75,-1490.84 96.67,-1266.16 138.69,-1087.17"/>
<polygon fill="none" stroke="#404040" points="138.7,-1087.12 136.19,-1080.37 141.46,-1075.45 143.98,-1082.2 138.7,-1087.12"/>
<text text-anchor="middle" x="85.5" y="-1669" font-family="Helvetica,sans-Serif" font-size="10.00"> &#45;m_outputDir</text>
<text text-anchor="middle" x="85.5" y="-1658" font-family="Helvetica,sans-Serif" font-size="10.00">&#45;m_logName</text>
<text text-anchor="middle" x="85.5" y="-1647" font-family="Helvetica,sans-Serif" font-size="10.00">&#45;m_logFile</text>
<text text-anchor="middle" x="85.5" y="-1636" font-family="Helvetica,sans-Serif" font-size="10.00">&#45;m_inputGSDFile</text>
</g>
<!-- Node7&#45;&gt;Node6 -->
<g id="edge7" class="edge">
<title>Node7&#45;&gt;Node6</title>
<path fill="none" stroke="#404040" d="M77.72,-2268.26C107.34,-2261.8 152.32,-2248.27 182.5,-2222 232.44,-2178.53 265.63,-2112.59 286.71,-2055.35"/>
<polygon fill="none" stroke="#404040" points="286.72,-2055.32 284.98,-2048.32 290.76,-2044.02 292.51,-2051.02 286.72,-2055.32"/>
<text text-anchor="middle" x="231" y="-2214" font-family="Helvetica,sans-Serif" font-size="10.00"> &#45;m_logName</text>
<text text-anchor="middle" x="231" y="-2203" font-family="Helvetica,sans-Serif" font-size="10.00">&#45;m_logFile</text>
</g>
<!-- Node8 -->
<g id="node8" class="node">
<title>Node8</title>
<g id="a_node8"><a xlink:title="STL class.">
<polygon fill="none" stroke="#bfbfbf" points="0,-2356.5 0,-2424.5 95,-2424.5 95,-2356.5 0,-2356.5"/>
<text text-anchor="start" x="8" y="-2412.5" font-family="Helvetica,sans-Serif" font-size="10.00">std::basic_string&lt;</text>
<text text-anchor="middle" x="47.5" y="-2401.5" font-family="Helvetica,sans-Serif" font-size="10.00"> char &gt;</text>
<polyline fill="none" stroke="#bfbfbf" points="0,-2394.5 95,-2394.5 "/>
<text text-anchor="middle" x="47.5" y="-2382.5" font-family="Helvetica,sans-Serif" font-size="10.00"> </text>
<polyline fill="none" stroke="#bfbfbf" points="0,-2375.5 95,-2375.5 "/>
<text text-anchor="middle" x="47.5" y="-2363.5" font-family="Helvetica,sans-Serif" font-size="10.00"> </text>
</a>
</g>
</g>
<!-- Node8&#45;&gt;Node7 -->
<g id="edge8" class="edge">
<title>Node8&#45;&gt;Node7</title>
<path fill="none" stroke="midnightblue" d="M47.5,-2346.03C47.5,-2331.67 47.5,-2316.1 47.5,-2303.24"/>
<polygon fill="none" stroke="midnightblue" points="44,-2346.22 47.5,-2356.22 51,-2346.22 44,-2346.22"/>
</g>
<!-- Node9 -->
<g id="node9" class="node">
<title>Node9</title>
<g id="a_node9"><a xlink:title="STL class.">
<polygon fill="none" stroke="#bfbfbf" points="355,-2362 355,-2419 460,-2419 460,-2362 355,-2362"/>
<text text-anchor="middle" x="407.5" y="-2407" font-family="Helvetica,sans-Serif" font-size="10.00">std::shared_ptr&lt; T &gt;</text>
<polyline fill="none" stroke="#bfbfbf" points="355,-2400 460,-2400 "/>
<text text-anchor="middle" x="407.5" y="-2388" font-family="Helvetica,sans-Serif" font-size="10.00"> </text>
<polyline fill="none" stroke="#bfbfbf" points="355,-2381 460,-2381 "/>
<text text-anchor="start" x="363" y="-2369" font-family="Helvetica,sans-Serif" font-size="10.00">+ operator&#45;&gt;()</text>
</a>
</g>
</g>
<!-- Node9&#45;&gt;Node2 -->
<g id="edge15" class="edge">
<title>Node9&#45;&gt;Node2</title>
<path fill="none" stroke="orange" d="M345.95,-2360.48C335.99,-2354.02 326.38,-2346.51 318.5,-2338 309.34,-2328.11 302.46,-2314.91 297.61,-2303.19"/>
<polygon fill="orange" stroke="orange" points="344.4,-2363.64 354.75,-2365.9 348.07,-2357.68 344.4,-2363.64"/>
<text text-anchor="middle" x="356" y="-2330" font-family="Helvetica,sans-Serif" font-size="10.00"> &lt; systemData &gt;</text>
</g>
<!-- Node9&#45;&gt;Node5 -->
<g id="edge9" class="edge">
<title>Node9&#45;&gt;Node5</title>
<path fill="none" stroke="orange" d="M408.8,-2351.37C412.73,-2224.9 422.29,-1820.17 388.5,-1695 380.02,-1663.57 361.25,-1631.33 346.58,-1609.28"/>
<polygon fill="orange" stroke="orange" points="405.29,-2351.6 408.47,-2361.7 412.28,-2351.82 405.29,-2351.6"/>
<text text-anchor="middle" x="441.5" y="-2208.5" font-family="Helvetica,sans-Serif" font-size="10.00"> &lt; GSDUtil &gt;</text>
</g>
<!-- Node11 -->
<g id="node11" class="node">
<title>Node11</title>
<g id="a_node11"><a xlink:title=" ">
<polygon fill="none" stroke="#bfbfbf" points="436,-2240.5 436,-2308.5 543,-2308.5 543,-2240.5 436,-2240.5"/>
<text text-anchor="start" x="444" y="-2296.5" font-family="Helvetica,sans-Serif" font-size="10.00">std::shared_ptr&lt; gsd</text>
<text text-anchor="middle" x="489.5" y="-2285.5" font-family="Helvetica,sans-Serif" font-size="10.00">_handle &gt;</text>
<polyline fill="none" stroke="#bfbfbf" points="436,-2278.5 543,-2278.5 "/>
<text text-anchor="middle" x="489.5" y="-2266.5" font-family="Helvetica,sans-Serif" font-size="10.00"> </text>
<polyline fill="none" stroke="#bfbfbf" points="436,-2259.5 543,-2259.5 "/>
<text text-anchor="middle" x="489.5" y="-2247.5" font-family="Helvetica,sans-Serif" font-size="10.00"> </text>
</a>
</g>
</g>
<!-- Node9&#45;&gt;Node11 -->
<g id="edge14" class="edge">
<title>Node9&#45;&gt;Node11</title>
<path fill="none" stroke="orange" d="M422.61,-2352.63C426.88,-2343.9 431.91,-2334.85 437.5,-2327 442,-2320.69 447.3,-2314.46 452.78,-2308.63"/>
<polygon fill="orange" stroke="orange" points="419.34,-2351.37 418.29,-2361.91 425.68,-2354.33 419.34,-2351.37"/>
<text text-anchor="middle" x="473" y="-2330" font-family="Helvetica,sans-Serif" font-size="10.00"> &lt; gsd_handle &gt;</text>
</g>
<!-- Node10 -->
<g id="node10" class="node">
<title>Node10</title>
<g id="a_node10"><a xlink:title=" ">
<polygon fill="none" stroke="#bfbfbf" points="393,-2472.5 393,-2529.5 422,-2529.5 422,-2472.5 393,-2472.5"/>
<text text-anchor="middle" x="407.5" y="-2517.5" font-family="Helvetica,sans-Serif" font-size="10.00">T</text>
<polyline fill="none" stroke="#bfbfbf" points="393,-2510.5 422,-2510.5 "/>
<text text-anchor="middle" x="407.5" y="-2498.5" font-family="Helvetica,sans-Serif" font-size="10.00"> </text>
<polyline fill="none" stroke="#bfbfbf" points="393,-2491.5 422,-2491.5 "/>
<text text-anchor="middle" x="407.5" y="-2479.5" font-family="Helvetica,sans-Serif" font-size="10.00"> </text>
</a>
</g>
</g>
<!-- Node10&#45;&gt;Node9 -->
<g id="edge10" class="edge">
<title>Node10&#45;&gt;Node9</title>
<path fill="none" stroke="#404040" d="M407.5,-2472.34C407.5,-2459.84 407.5,-2444.84 407.5,-2431.18"/>
<polygon fill="none" stroke="#404040" points="407.5,-2431.11 403.5,-2425.11 407.5,-2419.11 411.5,-2425.11 407.5,-2431.11"/>
<text text-anchor="middle" x="418" y="-2446" font-family="Helvetica,sans-Serif" font-size="10.00"> +ptr</text>
</g>
<!-- Node11&#45;&gt;Node3 -->
<g id="edge12" class="edge">
<title>Node11&#45;&gt;Node3</title>
<path fill="none" stroke="#404040" d="M486.74,-2240.34C477.91,-2137.08 448.24,-1812.21 403.5,-1546 380.53,-1409.31 349.63,-1260.65 320.25,-1129.22"/>
<polygon fill="none" stroke="#404040" points="320.22,-1129.08 315,-1124.1 317.59,-1117.37 322.81,-1122.35 320.22,-1129.08"/>
<text text-anchor="middle" x="449" y="-1652.5" font-family="Helvetica,sans-Serif" font-size="10.00"> &#45;m_handle</text>
</g>
<!-- Node12 -->
<g id="node12" class="node">
<title>Node12</title>
<g id="a_node12"><a xlink:title=" ">
<polygon fill="none" stroke="#bfbfbf" points="501.5,-2362 501.5,-2419 567.5,-2419 567.5,-2362 501.5,-2362"/>
<text text-anchor="middle" x="534.5" y="-2407" font-family="Helvetica,sans-Serif" font-size="10.00">gsd_handle</text>
<polyline fill="none" stroke="#bfbfbf" points="501.5,-2400 567.5,-2400 "/>
<text text-anchor="middle" x="534.5" y="-2388" font-family="Helvetica,sans-Serif" font-size="10.00"> </text>
<polyline fill="none" stroke="#bfbfbf" points="501.5,-2381 567.5,-2381 "/>
<text text-anchor="middle" x="534.5" y="-2369" font-family="Helvetica,sans-Serif" font-size="10.00"> </text>
</a>
</g>
</g>
<!-- Node12&#45;&gt;Node11 -->
<g id="edge13" class="edge">
<title>Node12&#45;&gt;Node11</title>
<path fill="none" stroke="#404040" d="M525.34,-2361.94C521.56,-2350.99 517.01,-2338.33 512.5,-2327 511.57,-2324.65 510.59,-2322.26 509.58,-2319.85"/>
<polygon fill="none" stroke="#404040" points="509.48,-2319.6 503.44,-2315.67 504.75,-2308.57 510.79,-2312.51 509.48,-2319.6"/>
<text text-anchor="middle" x="527" y="-2330" font-family="Helvetica,sans-Serif" font-size="10.00"> +ptr</text>
</g>
</g>
</svg>
