<?xml version="1.0" encoding="UTF-8" standalone="no"?>
<!DOCTYPE svg PUBLIC "-//W3C//DTD SVG 1.1//EN"
 "http://www.w3.org/Graphics/SVG/1.1/DTD/svg11.dtd">
<!-- Generated by graphviz version 2.43.0 (0)
 -->
<!-- Title: GSDUtil Pages: 1 -->
<svg width="629pt" height="2385pt"
 viewBox="0.00 0.00 629.47 2385.00" xmlns="http://www.w3.org/2000/svg" xmlns:xlink="http://www.w3.org/1999/xlink">
<g id="graph0" class="graph" transform="scale(1 1) rotate(0) translate(4 2381)">
<title>GSDUtil</title>
<!-- Node1 -->
<g id="node1" class="node">
<title>Node1</title>
<g id="a_node1"><a xlink:title="Wrapper class for gsd.h to load data from input GSD file into systemData class.">
<polygon fill="#bfbfbf" stroke="black" points="93.47,-1943.5 93.47,-2154.5 215.47,-2154.5 215.47,-1943.5 93.47,-1943.5"/>
<text text-anchor="middle" x="154.47" y="-2142.5" font-family="Helvetica,sans-Serif" font-size="10.00">GSDUtil</text>
<polyline fill="none" stroke="black" points="93.47,-2135.5 215.47,-2135.5 "/>
<text text-anchor="start" x="101.47" y="-2123.5" font-family="Helvetica,sans-Serif" font-size="10.00">&#45; m_frame</text>
<polyline fill="none" stroke="black" points="93.47,-2116.5 215.47,-2116.5 "/>
<text text-anchor="start" x="101.47" y="-2104.5" font-family="Helvetica,sans-Serif" font-size="10.00">+ GSDUtil()</text>
<text text-anchor="start" x="101.47" y="-2093.5" font-family="Helvetica,sans-Serif" font-size="10.00">+ GSDUtil()</text>
<text text-anchor="start" x="101.47" y="-2082.5" font-family="Helvetica,sans-Serif" font-size="10.00">+ ~GSDUtil()</text>
<text text-anchor="start" x="101.47" y="-2071.5" font-family="Helvetica,sans-Serif" font-size="10.00">+ truncateGSD()</text>
<text text-anchor="start" x="101.47" y="-2060.5" font-family="Helvetica,sans-Serif" font-size="10.00">+ writeFrame()</text>
<text text-anchor="start" x="101.47" y="-2049.5" font-family="Helvetica,sans-Serif" font-size="10.00">+ frame()</text>
<text text-anchor="start" x="101.47" y="-2038.5" font-family="Helvetica,sans-Serif" font-size="10.00">&#45; checkGSDReturn()</text>
<text text-anchor="start" x="101.47" y="-2027.5" font-family="Helvetica,sans-Serif" font-size="10.00">&#45; readChunk()</text>
<text text-anchor="start" x="101.47" y="-2016.5" font-family="Helvetica,sans-Serif" font-size="10.00">&#45; readHeader()</text>
<text text-anchor="start" x="101.47" y="-2005.5" font-family="Helvetica,sans-Serif" font-size="10.00">&#45; readParameters()</text>
<text text-anchor="start" x="101.47" y="-1994.5" font-family="Helvetica,sans-Serif" font-size="10.00">&#45; readParticles()</text>
<text text-anchor="start" x="101.47" y="-1983.5" font-family="Helvetica,sans-Serif" font-size="10.00">&#45; readSystemSpecifics()</text>
<text text-anchor="start" x="101.47" y="-1972.5" font-family="Helvetica,sans-Serif" font-size="10.00">&#45; writeHeader()</text>
<text text-anchor="start" x="101.47" y="-1961.5" font-family="Helvetica,sans-Serif" font-size="10.00">&#45; writeParameters()</text>
<text text-anchor="start" x="101.47" y="-1950.5" font-family="Helvetica,sans-Serif" font-size="10.00">&#45; writeParticles()</text>
</a>
</g>
</g>
<!-- Node5 -->
<g id="node5" class="node">
<title>Node5</title>
<g id="a_node5"><a xlink:title=" ">
<polygon fill="none" stroke="#bfbfbf" points="85.97,-1800 85.97,-1857 222.97,-1857 222.97,-1800 85.97,-1800"/>
<text text-anchor="middle" x="154.47" y="-1845" font-family="Helvetica,sans-Serif" font-size="10.00">std::shared_ptr&lt; GSDUtil &gt;</text>
<polyline fill="none" stroke="#bfbfbf" points="85.97,-1838 222.97,-1838 "/>
<text text-anchor="middle" x="154.47" y="-1826" font-family="Helvetica,sans-Serif" font-size="10.00"> </text>
<polyline fill="none" stroke="#bfbfbf" points="85.97,-1819 222.97,-1819 "/>
<text text-anchor="start" x="93.97" y="-1807" font-family="Helvetica,sans-Serif" font-size="10.00">+ operator&#45;&gt;()</text>
</a>
</g>
</g>
<!-- Node1&#45;&gt;Node5 -->
<g id="edge5" class="edge">
<title>Node1&#45;&gt;Node5</title>
<path fill="none" stroke="#404040" d="M154.47,-1943.23C154.47,-1916.93 154.47,-1890.28 154.47,-1869.39"/>
<polygon fill="none" stroke="#404040" points="154.47,-1869.19 150.47,-1863.19 154.47,-1857.19 158.47,-1863.19 154.47,-1869.19"/>
<text text-anchor="middle" x="164.97" y="-1900.5" font-family="Helvetica,sans-Serif" font-size="10.00"> +ptr</text>
</g>
<!-- Node2 -->
<g id="node2" class="node">
<title>Node2</title>
<g id="a_node2"><a xlink:title=" ">
<polygon fill="none" stroke="#bfbfbf" points="203.97,-0.5 203.97,-57.5 356.97,-57.5 356.97,-0.5 203.97,-0.5"/>
<text text-anchor="middle" x="280.47" y="-45.5" font-family="Helvetica,sans-Serif" font-size="10.00">std::shared_ptr&lt; systemData &gt;</text>
<polyline fill="none" stroke="#bfbfbf" points="203.97,-38.5 356.97,-38.5 "/>
<text text-anchor="middle" x="280.47" y="-26.5" font-family="Helvetica,sans-Serif" font-size="10.00"> </text>
<polyline fill="none" stroke="#bfbfbf" points="203.97,-19.5 356.97,-19.5 "/>
<text text-anchor="start" x="211.97" y="-7.5" font-family="Helvetica,sans-Serif" font-size="10.00">+ operator&#45;&gt;()</text>
</a>
</g>
</g>
<!-- Node2&#45;&gt;Node1 -->
<g id="edge1" class="edge">
<title>Node2&#45;&gt;Node1</title>
<path fill="none" stroke="#404040" d="M228.96,-57.59C211.46,-69.71 193.75,-85.63 183.47,-105 -169.15,-769.39 100.26,-1042.2 76.47,-1794 75.5,-1824.65 70.39,-1832.94 76.47,-1863 81.11,-1885.94 88.68,-1909.58 97.33,-1931.97"/>
<polygon fill="none" stroke="#404040" points="97.36,-1932.05 103.29,-1936.14 101.8,-1943.2 95.86,-1939.1 97.36,-1932.05"/>
<text text-anchor="middle" x="103.47" y="-1768" font-family="Helvetica,sans-Serif" font-size="10.00"> &#45;m_system</text>
</g>
<!-- Node3 -->
<g id="node3" class="node">
<title>Node3</title>
<g id="a_node3"><a xlink:href="classsystemData.html" target="_top" xlink:title="Class contains all data structures relevant to the simulation framework. Note that after construction...">
<polygon fill="none" stroke="black" points="192.47,-105.5 192.47,-1746.5 368.47,-1746.5 368.47,-105.5 192.47,-105.5"/>
<text text-anchor="middle" x="280.47" y="-1734.5" font-family="Helvetica,sans-Serif" font-size="10.00">systemData</text>
<polyline fill="none" stroke="black" points="192.47,-1727.5 368.47,-1727.5 "/>
<text text-anchor="start" x="200.47" y="-1715.5" font-family="Helvetica,sans-Serif" font-size="10.00">&#45; m_image_system</text>
<text text-anchor="start" x="200.47" y="-1704.5" font-family="Helvetica,sans-Serif" font-size="10.00">&#45; m_return_val</text>
<text text-anchor="start" x="200.47" y="-1693.5" font-family="Helvetica,sans-Serif" font-size="10.00">&#45; m_return_bool</text>
<text text-anchor="start" x="200.47" y="-1682.5" font-family="Helvetica,sans-Serif" font-size="10.00">&#45; m_GSD_parsed</text>
<text text-anchor="start" x="200.47" y="-1671.5" font-family="Helvetica,sans-Serif" font-size="10.00">&#45; m_sys_spec_U0</text>
<text text-anchor="start" x="200.47" y="-1660.5" font-family="Helvetica,sans-Serif" font-size="10.00">&#45; m_sys_spec_omega</text>
<text text-anchor="start" x="200.47" y="-1649.5" font-family="Helvetica,sans-Serif" font-size="10.00">&#45; m_sys_spec_phase_shift</text>
<text text-anchor="start" x="200.47" y="-1638.5" font-family="Helvetica,sans-Serif" font-size="10.00">&#45; m_sys_spec_R_avg</text>
<text text-anchor="start" x="200.47" y="-1627.5" font-family="Helvetica,sans-Serif" font-size="10.00">&#45; m_particle_type_id</text>
<text text-anchor="start" x="200.47" y="-1616.5" font-family="Helvetica,sans-Serif" font-size="10.00">&#45; m_particle_group_id</text>
<text text-anchor="start" x="200.47" y="-1605.5" font-family="Helvetica,sans-Serif" font-size="10.00">&#45; m_fluid_density</text>
<text text-anchor="start" x="200.47" y="-1594.5" font-family="Helvetica,sans-Serif" font-size="10.00">&#45; m_particle_density</text>
<text text-anchor="start" x="200.47" y="-1583.5" font-family="Helvetica,sans-Serif" font-size="10.00">&#45; m_wca_epsilon</text>
<text text-anchor="start" x="200.47" y="-1572.5" font-family="Helvetica,sans-Serif" font-size="10.00">&#45; m_wca_sigma</text>
<text text-anchor="start" x="200.47" y="-1561.5" font-family="Helvetica,sans-Serif" font-size="10.00">&#45; m_num_spatial_dim</text>
<text text-anchor="start" x="200.47" y="-1550.5" font-family="Helvetica,sans-Serif" font-size="10.00">&#45; m_num_particles</text>
<text text-anchor="start" x="200.47" y="-1539.5" font-family="Helvetica,sans-Serif" font-size="10.00">&#45; m_num_bodies</text>
<text text-anchor="start" x="200.47" y="-1528.5" font-family="Helvetica,sans-Serif" font-size="10.00">&#45; m_num_DoF</text>
<text text-anchor="start" x="200.47" y="-1517.5" font-family="Helvetica,sans-Serif" font-size="10.00">&#45; m_num_constraints</text>
<text text-anchor="start" x="200.47" y="-1506.5" font-family="Helvetica,sans-Serif" font-size="10.00">&#45; m_dt</text>
<text text-anchor="start" x="200.47" y="-1495.5" font-family="Helvetica,sans-Serif" font-size="10.00">&#45; m_tf</text>
<text text-anchor="start" x="200.47" y="-1484.5" font-family="Helvetica,sans-Serif" font-size="10.00">&#45; m_t0</text>
<text text-anchor="start" x="200.47" y="-1473.5" font-family="Helvetica,sans-Serif" font-size="10.00">&#45; m_t</text>
<text text-anchor="start" x="200.47" y="-1462.5" font-family="Helvetica,sans-Serif" font-size="10.00">&#45; m_tau</text>
<text text-anchor="start" x="200.47" y="-1451.5" font-family="Helvetica,sans-Serif" font-size="10.00">&#45; m_timestep</text>
<text text-anchor="start" x="200.47" y="-1440.5" font-family="Helvetica,sans-Serif" font-size="10.00">&#45; m_num_steps_output</text>
<text text-anchor="start" x="200.47" y="-1429.5" font-family="Helvetica,sans-Serif" font-size="10.00">&#45; m_I3</text>
<text text-anchor="start" x="200.47" y="-1418.5" font-family="Helvetica,sans-Serif" font-size="10.00">&#45; m_tens_I3</text>
<text text-anchor="start" x="200.47" y="-1407.5" font-family="Helvetica,sans-Serif" font-size="10.00">&#45; m_levi_cevita</text>
<text text-anchor="start" x="200.47" y="-1396.5" font-family="Helvetica,sans-Serif" font-size="10.00">&#45; m_kappa_tilde</text>
<text text-anchor="start" x="200.47" y="-1385.5" font-family="Helvetica,sans-Serif" font-size="10.00">&#45; m_positions_bodies</text>
<text text-anchor="start" x="200.47" y="-1374.5" font-family="Helvetica,sans-Serif" font-size="10.00">&#45; m_velocities_bodies</text>
<text text-anchor="start" x="200.47" y="-1363.5" font-family="Helvetica,sans-Serif" font-size="10.00">&#45; m_accelerations_bodies</text>
<text text-anchor="start" x="200.47" y="-1352.5" font-family="Helvetica,sans-Serif" font-size="10.00">&#45; m_positions_particles</text>
<text text-anchor="start" x="200.47" y="-1341.5" font-family="Helvetica,sans-Serif" font-size="10.00">&#45; m_velocities_particles</text>
<text text-anchor="start" x="200.47" y="-1330.5" font-family="Helvetica,sans-Serif" font-size="10.00">&#45; m_accelerations_particles</text>
<text text-anchor="start" x="200.47" y="-1319.5" font-family="Helvetica,sans-Serif" font-size="10.00">&#45; m_orientations_particles</text>
<text text-anchor="start" x="200.47" y="-1308.5" font-family="Helvetica,sans-Serif" font-size="10.00">&#45; m_quaternions_particles</text>
<text text-anchor="start" x="200.47" y="-1297.5" font-family="Helvetica,sans-Serif" font-size="10.00">&#45; m_positions_particles</text>
<text text-anchor="start" x="200.47" y="-1286.5" font-family="Helvetica,sans-Serif" font-size="10.00">_articulation_init_norm</text>
<text text-anchor="start" x="200.47" y="-1275.5" font-family="Helvetica,sans-Serif" font-size="10.00">&#45; m_positions_particles</text>
<text text-anchor="start" x="200.47" y="-1264.5" font-family="Helvetica,sans-Serif" font-size="10.00">_articulation</text>
<text text-anchor="start" x="200.47" y="-1253.5" font-family="Helvetica,sans-Serif" font-size="10.00">&#45; m_velocities_particles</text>
<text text-anchor="start" x="200.47" y="-1242.5" font-family="Helvetica,sans-Serif" font-size="10.00">_articulation</text>
<text text-anchor="start" x="200.47" y="-1231.5" font-family="Helvetica,sans-Serif" font-size="10.00">&#45; m_accelerations_particles</text>
<text text-anchor="start" x="200.47" y="-1220.5" font-family="Helvetica,sans-Serif" font-size="10.00">_articulation</text>
<text text-anchor="start" x="200.47" y="-1209.5" font-family="Helvetica,sans-Serif" font-size="10.00">&#45; m_rbm_conn</text>
<text text-anchor="start" x="200.47" y="-1198.5" font-family="Helvetica,sans-Serif" font-size="10.00">&#45; m_psi_conv_quat_ang</text>
<text text-anchor="start" x="200.47" y="-1187.5" font-family="Helvetica,sans-Serif" font-size="10.00">&#45; m_rbm_conn_T_quat</text>
<text text-anchor="start" x="200.47" y="-1176.5" font-family="Helvetica,sans-Serif" font-size="10.00">&#45; m_tens_rbm_conn_T_quat</text>
<text text-anchor="start" x="200.47" y="-1165.5" font-family="Helvetica,sans-Serif" font-size="10.00">&#45; m_rbm_conn_T_quat_grad</text>
<text text-anchor="start" x="200.47" y="-1154.5" font-family="Helvetica,sans-Serif" font-size="10.00">&#45; m_conv_body_2_part_dof</text>
<text text-anchor="start" x="200.47" y="-1143.5" font-family="Helvetica,sans-Serif" font-size="10.00">&#45; m_tens_conv_body_2</text>
<text text-anchor="start" x="200.47" y="-1132.5" font-family="Helvetica,sans-Serif" font-size="10.00">_part_dof</text>
<text text-anchor="start" x="200.47" y="-1121.5" font-family="Helvetica,sans-Serif" font-size="10.00">&#45; m_Udwadia_A</text>
<text text-anchor="start" x="200.47" y="-1110.5" font-family="Helvetica,sans-Serif" font-size="10.00">&#45; m_Udwadia_b</text>
<polyline fill="none" stroke="black" points="192.47,-1103.5 368.47,-1103.5 "/>
<text text-anchor="start" x="200.47" y="-1091.5" font-family="Helvetica,sans-Serif" font-size="10.00">+ systemData()</text>
<text text-anchor="start" x="200.47" y="-1080.5" font-family="Helvetica,sans-Serif" font-size="10.00">+ ~systemData()</text>
<text text-anchor="start" x="200.47" y="-1069.5" font-family="Helvetica,sans-Serif" font-size="10.00">+ initializeData()</text>
<text text-anchor="start" x="200.47" y="-1058.5" font-family="Helvetica,sans-Serif" font-size="10.00">+ update()</text>
<text text-anchor="start" x="200.47" y="-1047.5" font-family="Helvetica,sans-Serif" font-size="10.00">+ imageSystem()</text>
<text text-anchor="start" x="200.47" y="-1036.5" font-family="Helvetica,sans-Serif" font-size="10.00">+ setImageSystem()</text>
<text text-anchor="start" x="200.47" y="-1025.5" font-family="Helvetica,sans-Serif" font-size="10.00">+ inputGSDFile()</text>
<text text-anchor="start" x="200.47" y="-1014.5" font-family="Helvetica,sans-Serif" font-size="10.00">+ outputDir()</text>
<text text-anchor="start" x="200.47" y="-1003.5" font-family="Helvetica,sans-Serif" font-size="10.00">+ gsdUtil()</text>
<text text-anchor="start" x="200.47" y="-992.5" font-family="Helvetica,sans-Serif" font-size="10.00">+ handle()</text>
<text text-anchor="start" x="200.47" y="-981.5" font-family="Helvetica,sans-Serif" font-size="10.00">+ setReturnVal()</text>
<text text-anchor="start" x="200.47" y="-970.5" font-family="Helvetica,sans-Serif" font-size="10.00">+ returnVal()</text>
<text text-anchor="start" x="200.47" y="-959.5" font-family="Helvetica,sans-Serif" font-size="10.00">+ setReturnBool()</text>
<text text-anchor="start" x="200.47" y="-948.5" font-family="Helvetica,sans-Serif" font-size="10.00">+ returnBool()</text>
<text text-anchor="start" x="200.47" y="-937.5" font-family="Helvetica,sans-Serif" font-size="10.00">+ gSDParsed()</text>
<text text-anchor="start" x="200.47" y="-926.5" font-family="Helvetica,sans-Serif" font-size="10.00">+ sysSpecU0()</text>
<text text-anchor="start" x="200.47" y="-915.5" font-family="Helvetica,sans-Serif" font-size="10.00">+ setSysSpecU0()</text>
<text text-anchor="start" x="200.47" y="-904.5" font-family="Helvetica,sans-Serif" font-size="10.00">+ sysSpecOmega()</text>
<text text-anchor="start" x="200.47" y="-893.5" font-family="Helvetica,sans-Serif" font-size="10.00">+ setSysSpecOmega()</text>
<text text-anchor="start" x="200.47" y="-882.5" font-family="Helvetica,sans-Serif" font-size="10.00">+ sysSpecPhaseShift()</text>
<text text-anchor="start" x="200.47" y="-871.5" font-family="Helvetica,sans-Serif" font-size="10.00">+ setSysSpecPhaseShift()</text>
<text text-anchor="start" x="200.47" y="-860.5" font-family="Helvetica,sans-Serif" font-size="10.00">+ sysSpecRAvg()</text>
<text text-anchor="start" x="200.47" y="-849.5" font-family="Helvetica,sans-Serif" font-size="10.00">+ setSysSpecRAvg()</text>
<text text-anchor="start" x="200.47" y="-838.5" font-family="Helvetica,sans-Serif" font-size="10.00">+ particleTypeId()</text>
<text text-anchor="start" x="200.47" y="-827.5" font-family="Helvetica,sans-Serif" font-size="10.00">+ setParticleTypeId()</text>
<text text-anchor="start" x="200.47" y="-816.5" font-family="Helvetica,sans-Serif" font-size="10.00">+ fluidDensity()</text>
<text text-anchor="start" x="200.47" y="-805.5" font-family="Helvetica,sans-Serif" font-size="10.00">+ setFluidDensity()</text>
<text text-anchor="start" x="200.47" y="-794.5" font-family="Helvetica,sans-Serif" font-size="10.00">+ particleDensity()</text>
<text text-anchor="start" x="200.47" y="-783.5" font-family="Helvetica,sans-Serif" font-size="10.00">+ setParticleDensity()</text>
<text text-anchor="start" x="200.47" y="-772.5" font-family="Helvetica,sans-Serif" font-size="10.00">+ wcaEpsilon()</text>
<text text-anchor="start" x="200.47" y="-761.5" font-family="Helvetica,sans-Serif" font-size="10.00">+ setWcaEpsilon()</text>
<text text-anchor="start" x="200.47" y="-750.5" font-family="Helvetica,sans-Serif" font-size="10.00">+ wcaSigma()</text>
<text text-anchor="start" x="200.47" y="-739.5" font-family="Helvetica,sans-Serif" font-size="10.00">+ setWcaSigma()</text>
<text text-anchor="start" x="200.47" y="-728.5" font-family="Helvetica,sans-Serif" font-size="10.00">+ numSpatialDim()</text>
<text text-anchor="start" x="200.47" y="-717.5" font-family="Helvetica,sans-Serif" font-size="10.00">+ setNumSpatialDim()</text>
<text text-anchor="start" x="200.47" y="-706.5" font-family="Helvetica,sans-Serif" font-size="10.00">+ numParticles()</text>
<text text-anchor="start" x="200.47" y="-695.5" font-family="Helvetica,sans-Serif" font-size="10.00">+ setNumParticles()</text>
<text text-anchor="start" x="200.47" y="-684.5" font-family="Helvetica,sans-Serif" font-size="10.00">+ numBodies()</text>
<text text-anchor="start" x="200.47" y="-673.5" font-family="Helvetica,sans-Serif" font-size="10.00">+ setNumBodies()</text>
<text text-anchor="start" x="200.47" y="-662.5" font-family="Helvetica,sans-Serif" font-size="10.00">+ numDoF()</text>
<text text-anchor="start" x="200.47" y="-651.5" font-family="Helvetica,sans-Serif" font-size="10.00">+ tensI3()</text>
<text text-anchor="start" x="200.47" y="-640.5" font-family="Helvetica,sans-Serif" font-size="10.00">+ i3()</text>
<text text-anchor="start" x="200.47" y="-629.5" font-family="Helvetica,sans-Serif" font-size="10.00">+ dt()</text>
<text text-anchor="start" x="200.47" y="-618.5" font-family="Helvetica,sans-Serif" font-size="10.00">+ setDt()</text>
<text text-anchor="start" x="200.47" y="-607.5" font-family="Helvetica,sans-Serif" font-size="10.00">+ tf()</text>
<text text-anchor="start" x="200.47" y="-596.5" font-family="Helvetica,sans-Serif" font-size="10.00">+ setTf()</text>
<text text-anchor="start" x="200.47" y="-585.5" font-family="Helvetica,sans-Serif" font-size="10.00">+ t()</text>
<text text-anchor="start" x="200.47" y="-574.5" font-family="Helvetica,sans-Serif" font-size="10.00">+ setT()</text>
<text text-anchor="start" x="200.47" y="-563.5" font-family="Helvetica,sans-Serif" font-size="10.00">+ tau()</text>
<text text-anchor="start" x="200.47" y="-552.5" font-family="Helvetica,sans-Serif" font-size="10.00">+ setTau()</text>
<text text-anchor="start" x="200.47" y="-541.5" font-family="Helvetica,sans-Serif" font-size="10.00">+ timestep()</text>
<text text-anchor="start" x="200.47" y="-530.5" font-family="Helvetica,sans-Serif" font-size="10.00">+ setTimestep()</text>
<text text-anchor="start" x="200.47" y="-519.5" font-family="Helvetica,sans-Serif" font-size="10.00">+ numStepsOutput()</text>
<text text-anchor="start" x="200.47" y="-508.5" font-family="Helvetica,sans-Serif" font-size="10.00">+ setNumStepsOutput()</text>
<text text-anchor="start" x="200.47" y="-497.5" font-family="Helvetica,sans-Serif" font-size="10.00">+ positionsBodies()</text>
<text text-anchor="start" x="200.47" y="-486.5" font-family="Helvetica,sans-Serif" font-size="10.00">+ setPositionsBodies()</text>
<text text-anchor="start" x="200.47" y="-475.5" font-family="Helvetica,sans-Serif" font-size="10.00">+ velocitiesBodies()</text>
<text text-anchor="start" x="200.47" y="-464.5" font-family="Helvetica,sans-Serif" font-size="10.00">+ setVelocitiesBodies()</text>
<text text-anchor="start" x="200.47" y="-453.5" font-family="Helvetica,sans-Serif" font-size="10.00">+ accelerationsBodies()</text>
<text text-anchor="start" x="200.47" y="-442.5" font-family="Helvetica,sans-Serif" font-size="10.00">+ setAccelerationsBodies()</text>
<text text-anchor="start" x="200.47" y="-431.5" font-family="Helvetica,sans-Serif" font-size="10.00">+ orientationsParticles()</text>
<text text-anchor="start" x="200.47" y="-420.5" font-family="Helvetica,sans-Serif" font-size="10.00">+ setOrientationsParticles()</text>
<text text-anchor="start" x="200.47" y="-409.5" font-family="Helvetica,sans-Serif" font-size="10.00">+ positionsParticles()</text>
<text text-anchor="start" x="200.47" y="-398.5" font-family="Helvetica,sans-Serif" font-size="10.00">+ setPositionsParticles()</text>
<text text-anchor="start" x="200.47" y="-387.5" font-family="Helvetica,sans-Serif" font-size="10.00">+ velocitiesParticles()</text>
<text text-anchor="start" x="200.47" y="-376.5" font-family="Helvetica,sans-Serif" font-size="10.00">+ setVelocitiesParticles()</text>
<text text-anchor="start" x="200.47" y="-365.5" font-family="Helvetica,sans-Serif" font-size="10.00">+ accelerationsParticles()</text>
<text text-anchor="start" x="200.47" y="-354.5" font-family="Helvetica,sans-Serif" font-size="10.00">+ setAccelerationsParticles()</text>
<text text-anchor="start" x="200.47" y="-343.5" font-family="Helvetica,sans-Serif" font-size="10.00">+ velocitiesParticlesArticulation()</text>
<text text-anchor="start" x="200.47" y="-332.5" font-family="Helvetica,sans-Serif" font-size="10.00">+ accelerationsParticlesArticulation()</text>
<text text-anchor="start" x="200.47" y="-321.5" font-family="Helvetica,sans-Serif" font-size="10.00">+ tensRbmConnTQuat()</text>
<text text-anchor="start" x="200.47" y="-310.5" font-family="Helvetica,sans-Serif" font-size="10.00">+ tensRbmConnTQuatGrad()</text>
<text text-anchor="start" x="200.47" y="-299.5" font-family="Helvetica,sans-Serif" font-size="10.00">+ tensConvBody2PartDof()</text>
<text text-anchor="start" x="200.47" y="-288.5" font-family="Helvetica,sans-Serif" font-size="10.00">+ udwadiaA()</text>
<text text-anchor="start" x="200.47" y="-277.5" font-family="Helvetica,sans-Serif" font-size="10.00">+ udwadiaB()</text>
<text text-anchor="start" x="200.47" y="-266.5" font-family="Helvetica,sans-Serif" font-size="10.00">&#45; parseGSD()</text>
<text text-anchor="start" x="200.47" y="-255.5" font-family="Helvetica,sans-Serif" font-size="10.00">&#45; checkInput()</text>
<text text-anchor="start" x="200.47" y="-244.5" font-family="Helvetica,sans-Serif" font-size="10.00">&#45; logData()</text>
<text text-anchor="start" x="200.47" y="-233.5" font-family="Helvetica,sans-Serif" font-size="10.00">&#45; orientationsArticulation()</text>
<text text-anchor="start" x="200.47" y="-222.5" font-family="Helvetica,sans-Serif" font-size="10.00">&#45; positionsArticulation()</text>
<text text-anchor="start" x="200.47" y="-211.5" font-family="Helvetica,sans-Serif" font-size="10.00">&#45; velocitiesArticulation()</text>
<text text-anchor="start" x="200.47" y="-200.5" font-family="Helvetica,sans-Serif" font-size="10.00">&#45; accelerationsArticulation()</text>
<text text-anchor="start" x="200.47" y="-189.5" font-family="Helvetica,sans-Serif" font-size="10.00">&#45; positionsParticlesfromBodies()</text>
<text text-anchor="start" x="200.47" y="-178.5" font-family="Helvetica,sans-Serif" font-size="10.00">&#45; udwadiaLinearSystem()</text>
<text text-anchor="start" x="200.47" y="-167.5" font-family="Helvetica,sans-Serif" font-size="10.00">&#45; rigidBodyMotionTensors()</text>
<text text-anchor="start" x="200.47" y="-156.5" font-family="Helvetica,sans-Serif" font-size="10.00">&#45; gradientChangeOfVariable</text>
<text text-anchor="start" x="200.47" y="-145.5" font-family="Helvetica,sans-Serif" font-size="10.00">Tensors()</text>
<text text-anchor="start" x="200.47" y="-134.5" font-family="Helvetica,sans-Serif" font-size="10.00">&#45; convertBody2ParticleDoF()</text>
<text text-anchor="start" x="200.47" y="-123.5" font-family="Helvetica,sans-Serif" font-size="10.00">&#45; eMatrix()</text>
<text text-anchor="start" x="200.47" y="-112.5" font-family="Helvetica,sans-Serif" font-size="10.00">&#45; crossProdMat()</text>
</a>
</g>
</g>
<!-- Node3&#45;&gt;Node2 -->
<g id="edge2" class="edge">
<title>Node3&#45;&gt;Node2</title>
<path fill="none" stroke="#404040" d="M280.47,-105.15C280.47,-91.83 280.47,-79.99 280.47,-69.88"/>
<polygon fill="none" stroke="#404040" points="280.47,-69.59 276.47,-63.59 280.47,-57.59 284.47,-63.59 280.47,-69.59"/>
<text text-anchor="middle" x="290.97" y="-79" font-family="Helvetica,sans-Serif" font-size="10.00"> +ptr</text>
</g>
<!-- Node4 -->
<g id="node4" class="node">
<title>Node4</title>
<g id="a_node4"><a xlink:title=" ">
<polygon fill="none" stroke="#bfbfbf" points="405.47,-1794.5 405.47,-1862.5 539.47,-1862.5 539.47,-1794.5 405.47,-1794.5"/>
<text text-anchor="start" x="413.47" y="-1850.5" font-family="Helvetica,sans-Serif" font-size="10.00">std::enable_shared</text>
<text text-anchor="middle" x="472.47" y="-1839.5" font-family="Helvetica,sans-Serif" font-size="10.00">_from_this&lt; systemData &gt;</text>
<polyline fill="none" stroke="#bfbfbf" points="405.47,-1832.5 539.47,-1832.5 "/>
<text text-anchor="middle" x="472.47" y="-1820.5" font-family="Helvetica,sans-Serif" font-size="10.00"> </text>
<polyline fill="none" stroke="#bfbfbf" points="405.47,-1813.5 539.47,-1813.5 "/>
<text text-anchor="middle" x="472.47" y="-1801.5" font-family="Helvetica,sans-Serif" font-size="10.00"> </text>
</a>
</g>
</g>
<!-- Node4&#45;&gt;Node3 -->
<g id="edge3" class="edge">
<title>Node4&#45;&gt;Node3</title>
<path fill="none" stroke="midnightblue" d="M463.3,-1784.48C445.88,-1702.8 406.38,-1517.52 368.53,-1340.02"/>
<polygon fill="none" stroke="midnightblue" points="459.9,-1785.33 465.41,-1794.38 466.75,-1783.87 459.9,-1785.33"/>
</g>
<!-- Node5&#45;&gt;Node3 -->
<g id="edge4" class="edge">
<title>Node5&#45;&gt;Node3</title>
<path fill="none" stroke="#404040" d="M158.38,-1799.56C164.3,-1757.22 176.4,-1670.76 190.77,-1568.04"/>
<polygon fill="none" stroke="#404040" points="190.78,-1567.98 187.65,-1561.48 192.45,-1556.09 195.58,-1562.59 190.78,-1567.98"/>
<text text-anchor="middle" x="188.97" y="-1768" font-family="Helvetica,sans-Serif" font-size="10.00"> &#45;m_gsdUtil</text>
</g>
<!-- Node6 -->
<g id="node6" class="node">
<title>Node6</title>
<g id="a_node6"><a xlink:title="STL class.">
<polygon fill="none" stroke="#bfbfbf" points="422.97,-2020.5 422.97,-2077.5 527.97,-2077.5 527.97,-2020.5 422.97,-2020.5"/>
<text text-anchor="middle" x="475.47" y="-2065.5" font-family="Helvetica,sans-Serif" font-size="10.00">std::shared_ptr&lt; T &gt;</text>
<polyline fill="none" stroke="#bfbfbf" points="422.97,-2058.5 527.97,-2058.5 "/>
<text text-anchor="middle" x="475.47" y="-2046.5" font-family="Helvetica,sans-Serif" font-size="10.00"> </text>
<polyline fill="none" stroke="#bfbfbf" points="422.97,-2039.5 527.97,-2039.5 "/>
<text text-anchor="start" x="430.97" y="-2027.5" font-family="Helvetica,sans-Serif" font-size="10.00">+ operator&#45;&gt;()</text>
</a>
</g>
</g>
<!-- Node6&#45;&gt;Node2 -->
<g id="edge13" class="edge">
<title>Node6&#45;&gt;Node2</title>
<path fill="none" stroke="orange" d="M504.66,-2012.12C521.67,-1988.83 541.5,-1956.95 550.47,-1925 553.22,-1915.19 550.8,-1831.58 548.47,-1794 501.76,-1040.94 743.66,-764.68 377.47,-105 366.78,-85.74 348.87,-69.79 331.34,-57.63"/>
<polygon fill="orange" stroke="orange" points="501.73,-2010.2 498.54,-2020.3 507.34,-2014.39 501.73,-2010.2"/>
<text text-anchor="middle" x="583.97" y="-1768" font-family="Helvetica,sans-Serif" font-size="10.00"> &lt; systemData &gt;</text>
</g>
<!-- Node6&#45;&gt;Node5 -->
<g id="edge6" class="edge">
<title>Node6&#45;&gt;Node5</title>
<path fill="none" stroke="orange" d="M450.33,-2012.18C433.39,-1987.8 410.71,-1954.7 391.47,-1925 379,-1905.74 383.33,-1894.06 364.47,-1881 329.86,-1857.03 312.41,-1872.8 271.47,-1863 255.75,-1859.24 238.98,-1854.73 223.19,-1850.26"/>
<polygon fill="orange" stroke="orange" points="447.48,-2014.21 456.06,-2020.41 453.22,-2010.21 447.48,-2014.21"/>
<text text-anchor="middle" x="420.47" y="-1900.5" font-family="Helvetica,sans-Serif" font-size="10.00"> &lt; GSDUtil &gt;</text>
</g>
<!-- Node10 -->
<g id="node10" class="node">
<title>Node10</title>
<g id="a_node10"><a xlink:title=" ">
<polygon fill="none" stroke="#bfbfbf" points="279.97,-1794.5 279.97,-1862.5 386.97,-1862.5 386.97,-1794.5 279.97,-1794.5"/>
<text text-anchor="start" x="287.97" y="-1850.5" font-family="Helvetica,sans-Serif" font-size="10.00">std::shared_ptr&lt; gsd</text>
<text text-anchor="middle" x="333.47" y="-1839.5" font-family="Helvetica,sans-Serif" font-size="10.00">_handle &gt;</text>
<polyline fill="none" stroke="#bfbfbf" points="279.97,-1832.5 386.97,-1832.5 "/>
<text text-anchor="middle" x="333.47" y="-1820.5" font-family="Helvetica,sans-Serif" font-size="10.00"> </text>
<polyline fill="none" stroke="#bfbfbf" points="279.97,-1813.5 386.97,-1813.5 "/>
<text text-anchor="middle" x="333.47" y="-1801.5" font-family="Helvetica,sans-Serif" font-size="10.00"> </text>
</a>
</g>
</g>
<!-- Node6&#45;&gt;Node10 -->
<g id="edge12" class="edge">
<title>Node6&#45;&gt;Node10</title>
<path fill="none" stroke="orange" d="M481.24,-2009.78C484.6,-1972.61 483.4,-1916.69 453.47,-1881 436.4,-1860.65 420.97,-1873.28 396.47,-1863 393.39,-1861.71 390.25,-1860.31 387.11,-1858.85"/>
<polygon fill="orange" stroke="orange" points="477.71,-2009.89 480.13,-2020.2 484.67,-2010.62 477.71,-2009.89"/>
<text text-anchor="middle" x="510.97" y="-1900.5" font-family="Helvetica,sans-Serif" font-size="10.00"> &lt; gsd_handle &gt;</text>
</g>
<!-- Node7 -->
<g id="node7" class="node">
<title>Node7</title>
<g id="a_node7"><a xlink:title=" ">
<polygon fill="none" stroke="#bfbfbf" points="460.97,-2213.5 460.97,-2270.5 489.97,-2270.5 489.97,-2213.5 460.97,-2213.5"/>
<text text-anchor="middle" x="475.47" y="-2258.5" font-family="Helvetica,sans-Serif" font-size="10.00">T</text>
<polyline fill="none" stroke="#bfbfbf" points="460.97,-2251.5 489.97,-2251.5 "/>
<text text-anchor="middle" x="475.47" y="-2239.5" font-family="Helvetica,sans-Serif" font-size="10.00"> </text>
<polyline fill="none" stroke="#bfbfbf" points="460.97,-2232.5 489.97,-2232.5 "/>
<text text-anchor="middle" x="475.47" y="-2220.5" font-family="Helvetica,sans-Serif" font-size="10.00"> </text>
</a>
</g>
</g>
<!-- Node7&#45;&gt;Node6 -->
<g id="edge7" class="edge">
<title>Node7&#45;&gt;Node6</title>
<path fill="none" stroke="#404040" d="M475.47,-2213.23C475.47,-2180.83 475.47,-2127.02 475.47,-2090.1"/>
<polygon fill="none" stroke="#404040" points="475.47,-2089.81 471.47,-2083.81 475.47,-2077.81 479.47,-2083.81 475.47,-2089.81"/>
<text text-anchor="middle" x="485.97" y="-2181.5" font-family="Helvetica,sans-Serif" font-size="10.00"> +ptr</text>
</g>
<!-- Node8 -->
<g id="node8" class="node">
<title>Node8</title>
<g id="a_node8"><a xlink:title="STL class.">
<polygon fill="none" stroke="#bfbfbf" points="179.47,-2213.5 179.47,-2270.5 239.47,-2270.5 239.47,-2213.5 179.47,-2213.5"/>
<text text-anchor="middle" x="209.47" y="-2258.5" font-family="Helvetica,sans-Serif" font-size="10.00">std::string</text>
<polyline fill="none" stroke="#bfbfbf" points="179.47,-2251.5 239.47,-2251.5 "/>
<text text-anchor="middle" x="209.47" y="-2239.5" font-family="Helvetica,sans-Serif" font-size="10.00"> </text>
<polyline fill="none" stroke="#bfbfbf" points="179.47,-2232.5 239.47,-2232.5 "/>
<text text-anchor="middle" x="209.47" y="-2220.5" font-family="Helvetica,sans-Serif" font-size="10.00"> </text>
</a>
</g>
</g>
<!-- Node8&#45;&gt;Node1 -->
<g id="edge14" class="edge">
<title>Node8&#45;&gt;Node1</title>
<path fill="none" stroke="#404040" d="M188.1,-2213.36C184.41,-2207.54 180.96,-2201.26 178.47,-2195 174.88,-2185.98 171.83,-2176.44 169.24,-2166.74"/>
<polygon fill="none" stroke="#404040" points="169.18,-2166.49 163.85,-2161.62 166.29,-2154.84 171.62,-2159.7 169.18,-2166.49"/>
<text text-anchor="middle" x="207.97" y="-2187" font-family="Helvetica,sans-Serif" font-size="10.00"> &#45;m_logName</text>
<text text-anchor="middle" x="207.97" y="-2176" font-family="Helvetica,sans-Serif" font-size="10.00">&#45;m_logFile</text>
</g>
<!-- Node8&#45;&gt;Node3 -->
<g id="edge8" class="edge">
<title>Node8&#45;&gt;Node3</title>
<path fill="none" stroke="#404040" d="M229.37,-2213.37C232.65,-2207.55 235.6,-2201.27 237.47,-2195 245.1,-2169.47 253.1,-1982.06 260.11,-1758.81"/>
<polygon fill="none" stroke="#404040" points="260.11,-1758.78 256.3,-1752.66 260.48,-1746.79 264.3,-1752.91 260.11,-1758.78"/>
<text text-anchor="middle" x="294.47" y="-1917" font-family="Helvetica,sans-Serif" font-size="10.00"> &#45;m_outputDir</text>
<text text-anchor="middle" x="294.47" y="-1906" font-family="Helvetica,sans-Serif" font-size="10.00">&#45;m_logName</text>
<text text-anchor="middle" x="294.47" y="-1895" font-family="Helvetica,sans-Serif" font-size="10.00">&#45;m_logFile</text>
<text text-anchor="middle" x="294.47" y="-1884" font-family="Helvetica,sans-Serif" font-size="10.00">&#45;m_inputGSDFile</text>
</g>
<!-- Node9 -->
<g id="node9" class="node">
<title>Node9</title>
<g id="a_node9"><a xlink:title="STL class.">
<polygon fill="none" stroke="#bfbfbf" points="161.97,-2308.5 161.97,-2376.5 256.97,-2376.5 256.97,-2308.5 161.97,-2308.5"/>
<text text-anchor="start" x="169.97" y="-2364.5" font-family="Helvetica,sans-Serif" font-size="10.00">std::basic_string&lt;</text>
<text text-anchor="middle" x="209.47" y="-2353.5" font-family="Helvetica,sans-Serif" font-size="10.00"> char &gt;</text>
<polyline fill="none" stroke="#bfbfbf" points="161.97,-2346.5 256.97,-2346.5 "/>
<text text-anchor="middle" x="209.47" y="-2334.5" font-family="Helvetica,sans-Serif" font-size="10.00"> </text>
<polyline fill="none" stroke="#bfbfbf" points="161.97,-2327.5 256.97,-2327.5 "/>
<text text-anchor="middle" x="209.47" y="-2315.5" font-family="Helvetica,sans-Serif" font-size="10.00"> </text>
</a>
</g>
</g>
<!-- Node9&#45;&gt;Node8 -->
<g id="edge9" class="edge">
<title>Node9&#45;&gt;Node8</title>
<path fill="none" stroke="midnightblue" d="M209.47,-2298.38C209.47,-2288.94 209.47,-2279.2 209.47,-2270.57"/>
<polygon fill="none" stroke="midnightblue" points="205.97,-2298.43 209.47,-2308.43 212.97,-2298.43 205.97,-2298.43"/>
</g>
<!-- Node10&#45;&gt;Node3 -->
<g id="edge10" class="edge">
<title>Node10&#45;&gt;Node3</title>
<path fill="none" stroke="#404040" d="M331.52,-1794.38C330.93,-1784.4 330.23,-1772.38 329.41,-1758.6"/>
<polygon fill="none" stroke="#404040" points="329.41,-1758.6 325.07,-1752.84 328.71,-1746.62 333.05,-1752.37 329.41,-1758.6"/>
<text text-anchor="middle" x="353.97" y="-1768" font-family="Helvetica,sans-Serif" font-size="10.00"> &#45;m_handle</text>
</g>
<!-- Node11 -->
<g id="node11" class="node">
<title>Node11</title>
<g id="a_node11"><a xlink:title=" ">
<polygon fill="none" stroke="#bfbfbf" points="317.47,-2020.5 317.47,-2077.5 383.47,-2077.5 383.47,-2020.5 317.47,-2020.5"/>
<text text-anchor="middle" x="350.47" y="-2065.5" font-family="Helvetica,sans-Serif" font-size="10.00">gsd_handle</text>
<polyline fill="none" stroke="#bfbfbf" points="317.47,-2058.5 383.47,-2058.5 "/>
<text text-anchor="middle" x="350.47" y="-2046.5" font-family="Helvetica,sans-Serif" font-size="10.00"> </text>
<polyline fill="none" stroke="#bfbfbf" points="317.47,-2039.5 383.47,-2039.5 "/>
<text text-anchor="middle" x="350.47" y="-2027.5" font-family="Helvetica,sans-Serif" font-size="10.00"> </text>
</a>
</g>
</g>
<!-- Node11&#45;&gt;Node10 -->
<g id="edge11" class="edge">
<title>Node11&#45;&gt;Node10</title>
<path fill="none" stroke="#404040" d="M348.32,-2020.33C345.46,-1983.67 340.4,-1918.54 336.99,-1874.69"/>
<polygon fill="none" stroke="#404040" points="336.98,-1874.62 332.53,-1868.94 336.05,-1862.65 340.5,-1868.32 336.98,-1874.62"/>
<text text-anchor="middle" x="349.97" y="-1900.5" font-family="Helvetica,sans-Serif" font-size="10.00"> +ptr</text>
</g>
</g>
</svg>
