<?xml version="1.0" encoding="UTF-8" standalone="no"?>
<!DOCTYPE svg PUBLIC "-//W3C//DTD SVG 1.1//EN"
 "http://www.w3.org/Graphics/SVG/1.1/DTD/svg11.dtd">
<!-- Generated by graphviz version 2.43.0 (0)
 -->
<!-- Title: systemData::update Pages: 1 -->
<svg width="571pt" height="323pt"
 viewBox="0.00 0.00 571.00 322.50" xmlns="http://www.w3.org/2000/svg" xmlns:xlink="http://www.w3.org/1999/xlink">
<g id="graph0" class="graph" transform="scale(1 1) rotate(0) translate(4 318.5)">
<title>systemData::update</title>
<!-- Node1 -->
<g id="node1" class="node">
<title>Node1</title>
<g id="a_node1"><a xlink:title="Updates all relevant rigid body motion tensors, respective gradients, and kinematic/Udwadia constrain...">
<polygon fill="#bfbfbf" stroke="black" points="0,-142.5 0,-161.5 105,-161.5 105,-142.5 0,-142.5"/>
<text text-anchor="middle" x="52.5" y="-149.5" font-family="Helvetica,sans-Serif" font-size="10.00">systemData::update</text>
</a>
</g>
</g>
<!-- Node2 -->
<g id="node2" class="node">
<title>Node2</title>
<g id="a_node2"><a xlink:href="classsystemData.html#ac981cce9f038194aea9f48f57252ca7b" target="_top" xlink:title="Computes the articulation (linear) accelerations of the particles relative to their respective locate...">
<polygon fill="none" stroke="black" points="157,-284 157,-314 291,-314 291,-284 157,-284"/>
<text text-anchor="start" x="165" y="-302" font-family="Helvetica,sans-Serif" font-size="10.00">systemData::accelerations</text>
<text text-anchor="middle" x="224" y="-291" font-family="Helvetica,sans-Serif" font-size="10.00">Articulation</text>
</a>
</g>
</g>
<!-- Node1&#45;&gt;Node2 -->
<g id="edge1" class="edge">
<title>Node1&#45;&gt;Node2</title>
<path fill="none" stroke="midnightblue" d="M57.63,-161.67C68.03,-184.88 97.66,-244.15 141,-275 143.11,-276.51 145.32,-277.92 147.6,-279.24"/>
<polygon fill="midnightblue" stroke="midnightblue" points="146.21,-282.46 156.7,-283.92 149.41,-276.24 146.21,-282.46"/>
</g>
<!-- Node3 -->
<g id="node3" class="node">
<title>Node3</title>
<g id="a_node3"><a xlink:href="classsystemData.html#a2a35b86c91b3a2eb19612e6a2124a3ae" target="_top" xlink:title="Computes the particle D.o.F. from the body D.o.F.">
<polygon fill="none" stroke="black" points="156,-235 156,-265 292,-265 292,-235 156,-235"/>
<text text-anchor="start" x="164" y="-253" font-family="Helvetica,sans-Serif" font-size="10.00">systemData::convertBody2</text>
<text text-anchor="middle" x="224" y="-242" font-family="Helvetica,sans-Serif" font-size="10.00">ParticleDoF</text>
</a>
</g>
</g>
<!-- Node1&#45;&gt;Node3 -->
<g id="edge2" class="edge">
<title>Node1&#45;&gt;Node3</title>
<path fill="none" stroke="midnightblue" d="M62.24,-161.64C76.99,-177.35 108.41,-208.47 141,-226 144.43,-227.84 148.02,-229.56 151.7,-231.16"/>
<polygon fill="midnightblue" stroke="midnightblue" points="150.4,-234.41 160.99,-234.89 153.01,-227.92 150.4,-234.41"/>
</g>
<!-- Node7 -->
<g id="node7" class="node">
<title>Node7</title>
<g id="a_node7"><a xlink:href="classsystemData.html#a3c41026c4b66d4f6e6e22a6398c6ced8" target="_top" xlink:title="Computes the gradients rigid body motion connectivity tensors and tensors associated with change of v...">
<polygon fill="none" stroke="black" points="152,-186 152,-216 296,-216 296,-186 152,-186"/>
<text text-anchor="start" x="160" y="-204" font-family="Helvetica,sans-Serif" font-size="10.00">systemData::gradientChange</text>
<text text-anchor="middle" x="224" y="-193" font-family="Helvetica,sans-Serif" font-size="10.00">OfVariableTensors</text>
</a>
</g>
</g>
<!-- Node1&#45;&gt;Node7 -->
<g id="edge6" class="edge">
<title>Node1&#45;&gt;Node7</title>
<path fill="none" stroke="midnightblue" d="M86.58,-161.56C107.76,-167.69 135.9,-175.82 161.12,-183.11"/>
<polygon fill="midnightblue" stroke="midnightblue" points="160.41,-186.55 170.98,-185.96 162.35,-179.82 160.41,-186.55"/>
</g>
<!-- Node9 -->
<g id="node9" class="node">
<title>Node9</title>
<g id="a_node9"><a xlink:href="classsystemData.html#a13eff8db030640c1075a7d03acdeecb6" target="_top" xlink:title="Computes the distance from each particle to its respective body&#39;s locater point.">
<polygon fill="none" stroke="black" points="154,-88 154,-118 294,-118 294,-88 154,-88"/>
<text text-anchor="start" x="162" y="-106" font-family="Helvetica,sans-Serif" font-size="10.00">systemData::particleLocater</text>
<text text-anchor="middle" x="224" y="-95" font-family="Helvetica,sans-Serif" font-size="10.00">Distances</text>
</a>
</g>
</g>
<!-- Node1&#45;&gt;Node9 -->
<g id="edge9" class="edge">
<title>Node1&#45;&gt;Node9</title>
<path fill="none" stroke="midnightblue" d="M86.58,-142.44C107.76,-136.31 135.9,-128.18 161.12,-120.89"/>
<polygon fill="midnightblue" stroke="midnightblue" points="162.35,-124.18 170.98,-118.04 160.41,-117.45 162.35,-124.18"/>
</g>
<!-- Node10 -->
<g id="node10" class="node">
<title>Node10</title>
<g id="a_node10"><a xlink:href="classsystemData.html#a05afc9e7e7423d88def51ec43ab91a33" target="_top" xlink:title="Computes the rigid body motion connectivity tensors.">
<polygon fill="none" stroke="black" points="151,-137 151,-167 297,-167 297,-137 151,-137"/>
<text text-anchor="start" x="159" y="-155" font-family="Helvetica,sans-Serif" font-size="10.00">systemData::rigidBodyMotion</text>
<text text-anchor="middle" x="224" y="-144" font-family="Helvetica,sans-Serif" font-size="10.00">Tensors</text>
</a>
</g>
</g>
<!-- Node1&#45;&gt;Node10 -->
<g id="edge10" class="edge">
<title>Node1&#45;&gt;Node10</title>
<path fill="none" stroke="midnightblue" d="M105.28,-152C116.53,-152 128.71,-152 140.82,-152"/>
<polygon fill="midnightblue" stroke="midnightblue" points="140.95,-155.5 150.95,-152 140.95,-148.5 140.95,-155.5"/>
</g>
<!-- Node12 -->
<g id="node12" class="node">
<title>Node12</title>
<g id="a_node12"><a xlink:href="classsystemData.html#aaf3a4980d7dc49d7339a828ed95ee4d6" target="_top" xlink:title="Computes the Udwadia constraint matrix and vector to uphold the quaternion unitary norm for each body...">
<polygon fill="none" stroke="black" points="155,-39 155,-69 293,-69 293,-39 155,-39"/>
<text text-anchor="start" x="163" y="-57" font-family="Helvetica,sans-Serif" font-size="10.00">systemData::udwadiaLinear</text>
<text text-anchor="middle" x="224" y="-46" font-family="Helvetica,sans-Serif" font-size="10.00">System</text>
</a>
</g>
</g>
<!-- Node1&#45;&gt;Node12 -->
<g id="edge14" class="edge">
<title>Node1&#45;&gt;Node12</title>
<path fill="none" stroke="midnightblue" d="M62.24,-142.36C76.99,-126.65 108.41,-95.53 141,-78 144.43,-76.16 148.02,-74.44 151.7,-72.84"/>
<polygon fill="midnightblue" stroke="midnightblue" points="153.01,-76.08 160.99,-69.11 150.4,-69.59 153.01,-76.08"/>
</g>
<!-- Node13 -->
<g id="node13" class="node">
<title>Node13</title>
<g id="a_node13"><a xlink:href="classsystemData.html#a6bd16f2dd99236594ce5b12cd2cab57a" target="_top" xlink:title="Computes the articulation (linear) velocities of the particles relative to their respective locater p...">
<polygon fill="none" stroke="black" points="141,-0.5 141,-19.5 307,-19.5 307,-0.5 141,-0.5"/>
<text text-anchor="middle" x="224" y="-7.5" font-family="Helvetica,sans-Serif" font-size="10.00">systemData::velocitiesArticulation</text>
</a>
</g>
</g>
<!-- Node1&#45;&gt;Node13 -->
<g id="edge15" class="edge">
<title>Node1&#45;&gt;Node13</title>
<path fill="none" stroke="midnightblue" d="M57.51,-142.17C67.68,-118.6 96.8,-58.6 141,-29 144.1,-26.93 147.39,-25.08 150.81,-23.43"/>
<polygon fill="midnightblue" stroke="midnightblue" points="152.25,-26.62 160.11,-19.52 149.54,-20.17 152.25,-26.62"/>
</g>
<!-- Node4 -->
<g id="node4" class="node">
<title>Node4</title>
<g id="a_node4"><a xlink:href="helper__eigenTensorConversion_8hpp.html#a556d08b55a6ad7cd703b6db06194e5cf" target="_top" xlink:title=" ">
<polygon fill="none" stroke="black" points="379,-240.5 379,-259.5 444,-259.5 444,-240.5 379,-240.5"/>
<text text-anchor="middle" x="411.5" y="-247.5" font-family="Helvetica,sans-Serif" font-size="10.00">MatrixCast</text>
</a>
</g>
</g>
<!-- Node3&#45;&gt;Node4 -->
<g id="edge3" class="edge">
<title>Node3&#45;&gt;Node4</title>
<path fill="none" stroke="midnightblue" d="M292.23,-250C317.65,-250 345.85,-250 368.33,-250"/>
<polygon fill="midnightblue" stroke="midnightblue" points="368.55,-253.5 378.55,-250 368.55,-246.5 368.55,-253.5"/>
</g>
<!-- Node6 -->
<g id="node6" class="node">
<title>Node6</title>
<g id="a_node6"><a xlink:href="helper__eigenTensorConversion_8hpp.html#a3a32f7de3f099464192073a93b34d580" target="_top" xlink:title="Convert Eigen::Matrix &#45;&#45;&gt; Eigen::Tensor.">
<polygon fill="none" stroke="black" points="378,-196.5 378,-215.5 445,-215.5 445,-196.5 378,-196.5"/>
<text text-anchor="middle" x="411.5" y="-203.5" font-family="Helvetica,sans-Serif" font-size="10.00">TensorCast</text>
</a>
</g>
</g>
<!-- Node3&#45;&gt;Node6 -->
<g id="edge5" class="edge">
<title>Node3&#45;&gt;Node6</title>
<path fill="none" stroke="midnightblue" d="M288.32,-234.98C314.56,-228.76 344.3,-221.7 367.88,-216.11"/>
<polygon fill="midnightblue" stroke="midnightblue" points="368.98,-219.45 377.9,-213.73 367.37,-212.63 368.98,-219.45"/>
</g>
<!-- Node5 -->
<g id="node5" class="node">
<title>Node5</title>
<g id="a_node5"><a xlink:href="helper__eigenTensorConversion_8hpp.html#a2a7eca6b17fb874869047bd0b5f11b46" target="_top" xlink:title="Convert between Eigen::Tensor and Eigen::Matrix classes.">
<polygon fill="none" stroke="black" points="516,-240.5 516,-259.5 563,-259.5 563,-240.5 516,-240.5"/>
<text text-anchor="middle" x="539.5" y="-247.5" font-family="Helvetica,sans-Serif" font-size="10.00">asEval</text>
</a>
</g>
</g>
<!-- Node4&#45;&gt;Node5 -->
<g id="edge4" class="edge">
<title>Node4&#45;&gt;Node5</title>
<path fill="none" stroke="midnightblue" d="M444.3,-250C463.03,-250 486.69,-250 505.61,-250"/>
<polygon fill="midnightblue" stroke="midnightblue" points="505.86,-253.5 515.86,-250 505.86,-246.5 505.86,-253.5"/>
</g>
<!-- Node7&#45;&gt;Node6 -->
<g id="edge8" class="edge">
<title>Node7&#45;&gt;Node6</title>
<path fill="none" stroke="midnightblue" d="M296.19,-202.92C320.14,-203.56 346.12,-204.26 367.25,-204.83"/>
<polygon fill="midnightblue" stroke="midnightblue" points="367.42,-208.34 377.51,-205.11 367.61,-201.34 367.42,-208.34"/>
</g>
<!-- Node8 -->
<g id="node8" class="node">
<title>Node8</title>
<g id="a_node8"><a xlink:href="classsystemData.html#a19a83a255eb6f1de4bcfe2ea8e31ffa9" target="_top" xlink:title="Computes the E matrix of quaternion (4&#45;vector) input.">
<polygon fill="none" stroke="black" points="357.5,-158.5 357.5,-177.5 465.5,-177.5 465.5,-158.5 357.5,-158.5"/>
<text text-anchor="middle" x="411.5" y="-165.5" font-family="Helvetica,sans-Serif" font-size="10.00">systemData::eMatrix</text>
</a>
</g>
</g>
<!-- Node7&#45;&gt;Node8 -->
<g id="edge7" class="edge">
<title>Node7&#45;&gt;Node8</title>
<path fill="none" stroke="midnightblue" d="M296.19,-188.34C313.03,-185.34 330.87,-182.17 347.32,-179.24"/>
<polygon fill="midnightblue" stroke="midnightblue" points="348.13,-182.65 357.37,-177.45 346.91,-175.76 348.13,-182.65"/>
</g>
<!-- Node10&#45;&gt;Node6 -->
<g id="edge13" class="edge">
<title>Node10&#45;&gt;Node6</title>
<path fill="none" stroke="midnightblue" d="M276.64,-167.01C286.72,-169.97 297.19,-173.07 307,-176 323.03,-180.79 326.95,-182.29 343,-187 351.06,-189.36 359.67,-191.83 367.96,-194.18"/>
<polygon fill="midnightblue" stroke="midnightblue" points="367.27,-197.62 377.84,-196.96 369.17,-190.88 367.27,-197.62"/>
</g>
<!-- Node10&#45;&gt;Node8 -->
<g id="edge12" class="edge">
<title>Node10&#45;&gt;Node8</title>
<path fill="none" stroke="midnightblue" d="M297.25,-158.23C313.69,-159.65 331.03,-161.15 347.07,-162.53"/>
<polygon fill="midnightblue" stroke="midnightblue" points="347.14,-166.05 357.4,-163.42 347.74,-159.07 347.14,-166.05"/>
</g>
<!-- Node11 -->
<g id="node11" class="node">
<title>Node11</title>
<g id="a_node11"><a xlink:href="classsystemData.html#a0a77c933b764fb36c64ec5e66011482c" target="_top" xlink:title="Function takes in vector in vector cross&#45;product expression: .">
<polygon fill="none" stroke="black" points="343,-120.5 343,-139.5 480,-139.5 480,-120.5 343,-120.5"/>
<text text-anchor="middle" x="411.5" y="-127.5" font-family="Helvetica,sans-Serif" font-size="10.00">systemData::crossProdMat</text>
</a>
</g>
</g>
<!-- Node10&#45;&gt;Node11 -->
<g id="edge11" class="edge">
<title>Node10&#45;&gt;Node11</title>
<path fill="none" stroke="midnightblue" d="M297.25,-143.43C308.9,-142.05 320.99,-140.62 332.76,-139.22"/>
<polygon fill="midnightblue" stroke="midnightblue" points="333.48,-142.66 343,-138.01 332.65,-135.71 333.48,-142.66"/>
</g>
</g>
</svg>
