<?xml version="1.0" encoding="UTF-8" standalone="no"?>
<!DOCTYPE svg PUBLIC "-//W3C//DTD SVG 1.1//EN"
 "http://www.w3.org/Graphics/SVG/1.1/DTD/svg11.dtd">
<!-- Generated by graphviz version 2.49.1 (20210923.0004)
 -->
<!-- Title: systemData::outputDir Pages: 1 -->
<svg width="317pt" height="46pt"
 viewBox="0.00 0.00 317.00 46.00" xmlns="http://www.w3.org/2000/svg" xmlns:xlink="http://www.w3.org/1999/xlink">
<g id="graph0" class="graph" transform="scale(1 1) rotate(0) translate(4 42)">
<title>systemData::outputDir</title>
<!-- Node1 -->
<g id="node1" class="node">
<title>Node1</title>
<g id="a_node1"><a xlink:title=" ">
<polygon fill="#bfbfbf" stroke="black" points="194,-0.5 194,-19.5 309,-19.5 309,-0.5 194,-0.5"/>
<text text-anchor="middle" x="251.5" y="-7.5" font-family="Helvetica,sans-Serif" font-size="10.00">systemData::outputDir</text>
</a>
</g>
</g>
<!-- Node2 -->
<g id="node2" class="node">
<title>Node2</title>
<g id="a_node2"><a xlink:href="classplotStyling_1_1PlotStyling.html#ae9dad8a775b78d990054ce69ab8bff44" target="_top" xlink:title=" ">
<polygon fill="none" stroke="black" points="0,-0.5 0,-19.5 158,-19.5 158,-0.5 0,-0.5"/>
<text text-anchor="middle" x="79" y="-7.5" font-family="Helvetica,sans-Serif" font-size="10.00">plotStyling.PlotStyling.save_plot</text>
</a>
</g>
</g>
<!-- Node1&#45;&gt;Node2 -->
<g id="edge1" class="edge">
<title>Node1&#45;&gt;Node2</title>
<path fill="none" stroke="midnightblue" d="M183.64,-10C175.26,-10 166.62,-10 158.08,-10"/>
<polygon fill="midnightblue" stroke="midnightblue" points="183.73,-13.5 193.73,-10 183.73,-6.5 183.73,-13.5"/>
</g>
<!-- Node2&#45;&gt;Node2 -->
<g id="edge2" class="edge">
<title>Node2&#45;&gt;Node2</title>
<path fill="none" stroke="midnightblue" d="M111.19,-28.27C110.27,-33.74 99.54,-38 79,-38 48.43,-38 39.59,-28.57 52.49,-19.76"/>
<polygon fill="midnightblue" stroke="midnightblue" points="113.97,-26.14 105.51,-19.76 108.14,-30.02 113.97,-26.14"/>
</g>
</g>
</svg>
