<?xml version="1.0" encoding="UTF-8" standalone="no"?>
<!DOCTYPE svg PUBLIC "-//W3C//DTD SVG 1.1//EN"
 "http://www.w3.org/Graphics/SVG/1.1/DTD/svg11.dtd">
<!-- Generated by graphviz version 2.49.1 (20210923.0004)
 -->
<!-- Title: systemData::initializeData Pages: 1 -->
<svg width="533pt" height="214pt"
 viewBox="0.00 0.00 533.00 214.00" xmlns="http://www.w3.org/2000/svg" xmlns:xlink="http://www.w3.org/1999/xlink">
<g id="graph0" class="graph" transform="scale(1 1) rotate(0) translate(4 210)">
<title>systemData::initializeData</title>
<!-- Node1 -->
<g id="node1" class="node">
<title>Node1</title>
<g id="a_node1"><a xlink:title="Function loads data from GSD file using GSDUtil class. Must be called after class construction before...">
<polygon fill="#bfbfbf" stroke="black" points="0,-112.5 0,-131.5 132,-131.5 132,-112.5 0,-112.5"/>
<text text-anchor="middle" x="66" y="-119.5" font-family="Helvetica,sans-Serif" font-size="10.00">systemData::initializeData</text>
</a>
</g>
</g>
<!-- Node2 -->
<g id="node2" class="node">
<title>Node2</title>
<g id="a_node2"><a xlink:href="classsystemData.html#a74a503e80869c3ef4a9b6edefd132726" target="_top" xlink:title=" ">
<polygon fill="none" stroke="black" points="185,-158.5 185,-177.5 307,-177.5 307,-158.5 185,-158.5"/>
<text text-anchor="middle" x="246" y="-165.5" font-family="Helvetica,sans-Serif" font-size="10.00">systemData::parseGSD</text>
</a>
</g>
</g>
<!-- Node1&#45;&gt;Node2 -->
<g id="edge1" class="edge">
<title>Node1&#45;&gt;Node2</title>
<path fill="none" stroke="midnightblue" d="M103.88,-131.53C131.21,-138.59 168.66,-148.27 198.11,-155.88"/>
<polygon fill="midnightblue" stroke="midnightblue" points="197.61,-159.37 208.17,-158.48 199.36,-152.59 197.61,-159.37"/>
</g>
<!-- Node4 -->
<g id="node4" class="node">
<title>Node4</title>
<g id="a_node4"><a xlink:href="classsystemData.html#a3c7862901ce425c4d5e6001efa3ef61d" target="_top" xlink:title="Updates the kinematic constraints relative to the chosen locater particles for both velocity and acce...">
<polygon fill="none" stroke="black" points="168,-93.5 168,-112.5 324,-112.5 324,-93.5 168,-93.5"/>
<text text-anchor="middle" x="246" y="-100.5" font-family="Helvetica,sans-Serif" font-size="10.00">systemData::updateConstraints</text>
</a>
</g>
</g>
<!-- Node1&#45;&gt;Node4 -->
<g id="edge3" class="edge">
<title>Node1&#45;&gt;Node4</title>
<path fill="none" stroke="midnightblue" d="M132.02,-115.06C140.37,-114.17 149.03,-113.24 157.66,-112.32"/>
<polygon fill="midnightblue" stroke="midnightblue" points="158.2,-115.79 167.77,-111.24 157.45,-108.83 158.2,-115.79"/>
</g>
<!-- Node3 -->
<g id="node3" class="node">
<title>Node3</title>
<g id="a_node3"><a xlink:href="classsystemData.html#a3f978844a3292e9ca096be6741c48dc2" target="_top" xlink:title=" ">
<polygon fill="none" stroke="black" points="381,-186.5 381,-205.5 504,-205.5 504,-186.5 381,-186.5"/>
<text text-anchor="middle" x="442.5" y="-193.5" font-family="Helvetica,sans-Serif" font-size="10.00">systemData::checkInput</text>
</a>
</g>
</g>
<!-- Node2&#45;&gt;Node3 -->
<g id="edge2" class="edge">
<title>Node2&#45;&gt;Node3</title>
<path fill="none" stroke="midnightblue" d="M307.21,-176.67C327.34,-179.57 349.97,-182.82 370.83,-185.83"/>
<polygon fill="midnightblue" stroke="midnightblue" points="370.51,-189.32 380.91,-187.28 371.51,-182.39 370.51,-189.32"/>
</g>
<!-- Node5 -->
<g id="node5" class="node">
<title>Node5</title>
<g id="a_node5"><a xlink:href="classsystemData.html#abdbaf4be474add633c79ce9f4812b438" target="_top" xlink:title=" ">
<polygon fill="none" stroke="black" points="375.5,-137 375.5,-167 509.5,-167 509.5,-137 375.5,-137"/>
<text text-anchor="start" x="383.5" y="-155" font-family="Helvetica,sans-Serif" font-size="10.00">systemData::accelerations</text>
<text text-anchor="middle" x="442.5" y="-144" font-family="Helvetica,sans-Serif" font-size="10.00">Articulation</text>
</a>
</g>
</g>
<!-- Node4&#45;&gt;Node5 -->
<g id="edge4" class="edge">
<title>Node4&#45;&gt;Node5</title>
<path fill="none" stroke="midnightblue" d="M284.96,-112.56C309.7,-118.79 342.7,-127.11 372.03,-134.5"/>
<polygon fill="midnightblue" stroke="midnightblue" points="371.26,-137.91 381.81,-136.96 372.97,-131.13 371.26,-137.91"/>
</g>
<!-- Node6 -->
<g id="node6" class="node">
<title>Node6</title>
<g id="a_node6"><a xlink:href="classsystemData.html#ab3fc7f3cc4c79bbad6e9bb73e127e8c3" target="_top" xlink:title=" ">
<polygon fill="none" stroke="black" points="378.5,-88 378.5,-118 506.5,-118 506.5,-88 378.5,-88"/>
<text text-anchor="start" x="386.5" y="-106" font-family="Helvetica,sans-Serif" font-size="10.00">systemData::locaterPoint</text>
<text text-anchor="middle" x="442.5" y="-95" font-family="Helvetica,sans-Serif" font-size="10.00">Locations</text>
</a>
</g>
</g>
<!-- Node4&#45;&gt;Node6 -->
<g id="edge5" class="edge">
<title>Node4&#45;&gt;Node6</title>
<path fill="none" stroke="midnightblue" d="M324.15,-103C338.57,-103 353.61,-103 367.93,-103"/>
<polygon fill="midnightblue" stroke="midnightblue" points="368.2,-106.5 378.2,-103 368.2,-99.5 368.2,-106.5"/>
</g>
<!-- Node7 -->
<g id="node7" class="node">
<title>Node7</title>
<g id="a_node7"><a xlink:href="classsystemData.html#aa797226f69baaa83c559c481dee8381b" target="_top" xlink:title=" ">
<polygon fill="none" stroke="black" points="372.5,-39 372.5,-69 512.5,-69 512.5,-39 372.5,-39"/>
<text text-anchor="start" x="380.5" y="-57" font-family="Helvetica,sans-Serif" font-size="10.00">systemData::udwadiaLinear</text>
<text text-anchor="middle" x="442.5" y="-46" font-family="Helvetica,sans-Serif" font-size="10.00">System</text>
</a>
</g>
</g>
<!-- Node4&#45;&gt;Node7 -->
<g id="edge6" class="edge">
<title>Node4&#45;&gt;Node7</title>
<path fill="none" stroke="midnightblue" d="M284.96,-93.44C309.7,-87.21 342.7,-78.89 372.03,-71.5"/>
<polygon fill="midnightblue" stroke="midnightblue" points="372.97,-74.87 381.81,-69.04 371.26,-68.09 372.97,-74.87"/>
</g>
<!-- Node8 -->
<g id="node8" class="node">
<title>Node8</title>
<g id="a_node8"><a xlink:href="classsystemData.html#a4b449c0f7702a7140fca05ca3722092b" target="_top" xlink:title=" ">
<polygon fill="none" stroke="black" points="360,-0.5 360,-19.5 525,-19.5 525,-0.5 360,-0.5"/>
<text text-anchor="middle" x="442.5" y="-7.5" font-family="Helvetica,sans-Serif" font-size="10.00">systemData::velocitiesArticulation</text>
</a>
</g>
</g>
<!-- Node4&#45;&gt;Node8 -->
<g id="edge7" class="edge">
<title>Node4&#45;&gt;Node8</title>
<path fill="none" stroke="midnightblue" d="M258.73,-93.28C278.42,-77.45 319.9,-46.16 360,-29 365.87,-26.49 372.13,-24.28 378.47,-22.34"/>
<polygon fill="midnightblue" stroke="midnightblue" points="379.79,-25.6 388.46,-19.51 377.88,-18.87 379.79,-25.6"/>
</g>
</g>
</svg>
