<?xml version="1.0" encoding="UTF-8" standalone="no"?>
<!DOCTYPE svg PUBLIC "-//W3C//DTD SVG 1.1//EN"
 "http://www.w3.org/Graphics/SVG/1.1/DTD/svg11.dtd">
<!-- Generated by graphviz version 2.43.0 (0)
 -->
<!-- Title: GSDUtil::readSystemSpecifics Pages: 1 -->
<svg width="742pt" height="218pt"
 viewBox="0.00 0.00 742.00 218.00" xmlns="http://www.w3.org/2000/svg" xmlns:xlink="http://www.w3.org/1999/xlink">
<g id="graph0" class="graph" transform="scale(1 1) rotate(0) translate(4 214)">
<title>GSDUtil::readSystemSpecifics</title>
<!-- Node1 -->
<g id="node1" class="node">
<title>Node1</title>
<g id="a_node1"><a xlink:title=" ">
<polygon fill="#bfbfbf" stroke="black" points="0,-133.5 0,-152.5 152,-152.5 152,-133.5 0,-133.5"/>
<text text-anchor="middle" x="76" y="-140.5" font-family="Helvetica,sans-Serif" font-size="10.00">GSDUtil::readSystemSpecifics</text>
</a>
</g>
</g>
<!-- Node2 -->
<g id="node2" class="node">
<title>Node2</title>
<g id="a_node2"><a xlink:href="classGSDUtil.html#a00a919382c11e9dd1fa7ae1a8788d4c0" target="_top" xlink:title=" ">
<polygon fill="none" stroke="black" points="331,-171.5 331,-190.5 468,-190.5 468,-171.5 331,-171.5"/>
<text text-anchor="middle" x="399.5" y="-178.5" font-family="Helvetica,sans-Serif" font-size="10.00">GSDUtil::checkGSDReturn</text>
</a>
</g>
</g>
<!-- Node1&#45;&gt;Node2 -->
<g id="edge1" class="edge">
<title>Node1&#45;&gt;Node2</title>
<path fill="none" stroke="midnightblue" d="M152.38,-151.91C203.1,-157.9 269.79,-165.79 320.96,-171.83"/>
<polygon fill="midnightblue" stroke="midnightblue" points="320.63,-175.32 330.98,-173.02 321.46,-168.37 320.63,-175.32"/>
</g>
<!-- Node3 -->
<g id="node3" class="node">
<title>Node3</title>
<g id="a_node3"><a xlink:href="classGSDUtil.html#a86d2352b694afc6a0c938a13b3acec9d" target="_top" xlink:title=" ">
<polygon fill="none" stroke="black" points="188,-114.5 188,-133.5 295,-133.5 295,-114.5 188,-114.5"/>
<text text-anchor="middle" x="241.5" y="-121.5" font-family="Helvetica,sans-Serif" font-size="10.00">GSDUtil::readChunk</text>
</a>
</g>
</g>
<!-- Node1&#45;&gt;Node3 -->
<g id="edge2" class="edge">
<title>Node1&#45;&gt;Node3</title>
<path fill="none" stroke="midnightblue" d="M152.05,-134.28C160.64,-133.28 169.34,-132.27 177.75,-131.29"/>
<polygon fill="midnightblue" stroke="midnightblue" points="178.31,-134.75 187.84,-130.12 177.5,-127.8 178.31,-134.75"/>
</g>
<!-- Node3&#45;&gt;Node2 -->
<g id="edge3" class="edge">
<title>Node3&#45;&gt;Node2</title>
<path fill="none" stroke="midnightblue" d="M262.59,-133.52C280.33,-141.72 307.04,-153.52 331,-162 337.48,-164.29 344.38,-166.5 351.2,-168.54"/>
<polygon fill="midnightblue" stroke="midnightblue" points="350.51,-171.98 361.09,-171.41 352.46,-165.26 350.51,-171.98"/>
</g>
<!-- Node4 -->
<g id="node4" class="node">
<title>Node4</title>
<g id="a_node4"><a xlink:href="classGSDUtil.html#abbd7a5860cd0f2b6cc72f1a90d2df018" target="_top" xlink:title=" ">
<polygon fill="none" stroke="black" points="357.5,-133.5 357.5,-152.5 441.5,-152.5 441.5,-133.5 357.5,-133.5"/>
<text text-anchor="middle" x="399.5" y="-140.5" font-family="Helvetica,sans-Serif" font-size="10.00">GSDUtil::frame</text>
</a>
</g>
</g>
<!-- Node3&#45;&gt;Node4 -->
<g id="edge4" class="edge">
<title>Node3&#45;&gt;Node4</title>
<path fill="none" stroke="midnightblue" d="M295.31,-130.43C312,-132.47 330.42,-134.71 347.01,-136.73"/>
<polygon fill="midnightblue" stroke="midnightblue" points="346.73,-140.22 357.08,-137.96 347.58,-133.27 346.73,-140.22"/>
</g>
<!-- Node5 -->
<g id="node5" class="node">
<title>Node5</title>
<g id="a_node5"><a xlink:href="gsd_8c.html#a3c76bbf6c28b953cff198a44852c732f" target="_top" xlink:title=" ">
<polygon fill="none" stroke="black" points="357,-95.5 357,-114.5 442,-114.5 442,-95.5 357,-95.5"/>
<text text-anchor="middle" x="399.5" y="-102.5" font-family="Helvetica,sans-Serif" font-size="10.00">gsd_find_chunk</text>
</a>
</g>
</g>
<!-- Node3&#45;&gt;Node5 -->
<g id="edge5" class="edge">
<title>Node3&#45;&gt;Node5</title>
<path fill="none" stroke="midnightblue" d="M295.31,-117.57C311.86,-115.55 330.09,-113.33 346.58,-111.32"/>
<polygon fill="midnightblue" stroke="midnightblue" points="347.08,-114.79 356.58,-110.11 346.23,-107.84 347.08,-114.79"/>
</g>
<!-- Node11 -->
<g id="node11" class="node">
<title>Node11</title>
<g id="a_node11"><a xlink:href="gsd_8c.html#a2db2e3e8a72948bf413e7f09469ec8a6" target="_top" xlink:title=" ">
<polygon fill="none" stroke="black" points="355.5,-38.5 355.5,-57.5 443.5,-57.5 443.5,-38.5 355.5,-38.5"/>
<text text-anchor="middle" x="399.5" y="-45.5" font-family="Helvetica,sans-Serif" font-size="10.00">gsd_read_chunk</text>
</a>
</g>
</g>
<!-- Node3&#45;&gt;Node11 -->
<g id="edge11" class="edge">
<title>Node3&#45;&gt;Node11</title>
<path fill="none" stroke="midnightblue" d="M262.26,-114.37C289.45,-101.13 338.59,-77.19 369.83,-61.97"/>
<polygon fill="midnightblue" stroke="midnightblue" points="371.45,-65.07 378.9,-57.55 368.38,-58.78 371.45,-65.07"/>
</g>
<!-- Node13 -->
<g id="node13" class="node">
<title>Node13</title>
<g id="a_node13"><a xlink:href="gsd_8c.html#ab1d1a8a5f73b37df0c706f41df3bdd69" target="_top" xlink:title=" ">
<polygon fill="none" stroke="black" points="519.5,-0.5 519.5,-19.5 607.5,-19.5 607.5,-0.5 519.5,-0.5"/>
<text text-anchor="middle" x="563.5" y="-7.5" font-family="Helvetica,sans-Serif" font-size="10.00">gsd_sizeof_type</text>
</a>
</g>
</g>
<!-- Node3&#45;&gt;Node13 -->
<g id="edge14" class="edge">
<title>Node3&#45;&gt;Node13</title>
<path fill="none" stroke="midnightblue" d="M248.07,-114.27C260.17,-94.18 291.04,-48.37 331,-29 387.24,-1.74 460.23,-0.52 509.07,-3.81"/>
<polygon fill="midnightblue" stroke="midnightblue" points="508.88,-7.3 519.12,-4.57 509.41,-0.32 508.88,-7.3"/>
</g>
<!-- Node6 -->
<g id="node6" class="node">
<title>Node6</title>
<g id="a_node6"><a xlink:href="gsd_8c.html#a3ffe758eed9a5bae487f514a0a45e97d" target="_top" xlink:title=" ">
<polygon fill="none" stroke="black" points="507.5,-190.5 507.5,-209.5 619.5,-209.5 619.5,-190.5 507.5,-190.5"/>
<text text-anchor="middle" x="563.5" y="-197.5" font-family="Helvetica,sans-Serif" font-size="10.00">gsd_cmp_index_entry</text>
</a>
</g>
</g>
<!-- Node5&#45;&gt;Node6 -->
<g id="edge6" class="edge">
<title>Node5&#45;&gt;Node6</title>
<path fill="none" stroke="midnightblue" d="M442.33,-111.66C451.39,-114.44 460.49,-118.39 468,-124 492.02,-141.92 480.34,-162.61 504,-181 506.33,-182.81 508.84,-184.46 511.47,-185.94"/>
<polygon fill="midnightblue" stroke="midnightblue" points="510.2,-189.22 520.73,-190.43 513.25,-182.92 510.2,-189.22"/>
</g>
<!-- Node7 -->
<g id="node7" class="node">
<title>Node7</title>
<g id="a_node7"><a xlink:href="gsd_8c.html#a7479046d4d6e15c33cb24034ddd87562" target="_top" xlink:title=" ">
<polygon fill="none" stroke="black" points="517.5,-152.5 517.5,-171.5 609.5,-171.5 609.5,-152.5 517.5,-152.5"/>
<text text-anchor="middle" x="563.5" y="-159.5" font-family="Helvetica,sans-Serif" font-size="10.00">gsd_get_nframes</text>
</a>
</g>
</g>
<!-- Node5&#45;&gt;Node7 -->
<g id="edge7" class="edge">
<title>Node5&#45;&gt;Node7</title>
<path fill="none" stroke="midnightblue" d="M439.87,-114.57C449.22,-117.26 459.07,-120.43 468,-124 484.8,-130.71 487.34,-135.96 504,-143 509.1,-145.16 514.54,-147.22 519.97,-149.14"/>
<polygon fill="midnightblue" stroke="midnightblue" points="519.05,-152.52 529.65,-152.42 521.3,-145.89 519.05,-152.52"/>
</g>
<!-- Node8 -->
<g id="node8" class="node">
<title>Node8</title>
<g id="a_node8"><a xlink:href="gsd_8c.html#a493ef951956c9f98adff89a80ddb3fa6" target="_top" xlink:title=" ">
<polygon fill="none" stroke="black" points="514.5,-114.5 514.5,-133.5 612.5,-133.5 612.5,-114.5 514.5,-114.5"/>
<text text-anchor="middle" x="563.5" y="-121.5" font-family="Helvetica,sans-Serif" font-size="10.00">gsd_make_version</text>
</a>
</g>
</g>
<!-- Node5&#45;&gt;Node8 -->
<g id="edge8" class="edge">
<title>Node5&#45;&gt;Node8</title>
<path fill="none" stroke="midnightblue" d="M442.22,-109.89C461.07,-112.1 483.66,-114.75 504.14,-117.16"/>
<polygon fill="midnightblue" stroke="midnightblue" points="503.98,-120.66 514.32,-118.35 504.8,-113.71 503.98,-120.66"/>
</g>
<!-- Node9 -->
<g id="node9" class="node">
<title>Node9</title>
<g id="a_node9"><a xlink:href="gsd_8c.html#a31b9400272036b121040e9fc0a9e626b" target="_top" xlink:title=" ">
<polygon fill="none" stroke="black" points="504,-76.5 504,-95.5 623,-95.5 623,-76.5 504,-76.5"/>
<text text-anchor="middle" x="563.5" y="-83.5" font-family="Helvetica,sans-Serif" font-size="10.00">gsd_name_id_map_find</text>
</a>
</g>
</g>
<!-- Node5&#45;&gt;Node9 -->
<g id="edge9" class="edge">
<title>Node5&#45;&gt;Node9</title>
<path fill="none" stroke="midnightblue" d="M442.22,-100.11C457.89,-98.27 476.16,-96.13 493.65,-94.08"/>
<polygon fill="midnightblue" stroke="midnightblue" points="494.3,-97.52 503.83,-92.88 493.49,-90.57 494.3,-97.52"/>
</g>
<!-- Node10 -->
<g id="node10" class="node">
<title>Node10</title>
<g id="a_node10"><a xlink:href="gsd_8c.html#a6d8087323ec29c58d907b9462b4a31da" target="_top" xlink:title=" ">
<polygon fill="none" stroke="black" points="659,-76.5 659,-95.5 734,-95.5 734,-76.5 659,-76.5"/>
<text text-anchor="middle" x="696.5" y="-83.5" font-family="Helvetica,sans-Serif" font-size="10.00">gsd_hash_str</text>
</a>
</g>
</g>
<!-- Node9&#45;&gt;Node10 -->
<g id="edge10" class="edge">
<title>Node9&#45;&gt;Node10</title>
<path fill="none" stroke="midnightblue" d="M623.1,-86C631.63,-86 640.31,-86 648.57,-86"/>
<polygon fill="midnightblue" stroke="midnightblue" points="648.75,-89.5 658.75,-86 648.75,-82.5 648.75,-89.5"/>
</g>
<!-- Node12 -->
<g id="node12" class="node">
<title>Node12</title>
<g id="a_node12"><a xlink:href="gsd_8c.html#ac1f41abbefbfe35337e7053d766c089b" target="_top" xlink:title=" ">
<polygon fill="none" stroke="black" points="514,-38.5 514,-57.5 613,-57.5 613,-38.5 514,-38.5"/>
<text text-anchor="middle" x="563.5" y="-45.5" font-family="Helvetica,sans-Serif" font-size="10.00">gsd_io_pread_retry</text>
</a>
</g>
</g>
<!-- Node11&#45;&gt;Node12 -->
<g id="edge12" class="edge">
<title>Node11&#45;&gt;Node12</title>
<path fill="none" stroke="midnightblue" d="M443.91,-48C462.27,-48 483.94,-48 503.69,-48"/>
<polygon fill="midnightblue" stroke="midnightblue" points="503.82,-51.5 513.82,-48 503.82,-44.5 503.82,-51.5"/>
</g>
<!-- Node11&#45;&gt;Node13 -->
<g id="edge13" class="edge">
<title>Node11&#45;&gt;Node13</title>
<path fill="none" stroke="midnightblue" d="M441.38,-38.41C462.85,-33.37 489.36,-27.16 512.1,-21.82"/>
<polygon fill="midnightblue" stroke="midnightblue" points="512.98,-25.21 521.91,-19.52 511.38,-18.4 512.98,-25.21"/>
</g>
</g>
</svg>
