<?xml version="1.0" encoding="UTF-8" standalone="no"?>
<!DOCTYPE svg PUBLIC "-//W3C//DTD SVG 1.1//EN"
 "http://www.w3.org/Graphics/SVG/1.1/DTD/svg11.dtd">
<!-- Generated by graphviz version 2.49.1 (20210923.0004)
 -->
<!-- Title: GSDUtil::writeParameters Pages: 1 -->
<svg width="792pt" height="297pt"
 viewBox="0.00 0.00 792.00 297.09" xmlns="http://www.w3.org/2000/svg" xmlns:xlink="http://www.w3.org/1999/xlink">
<g id="graph0" class="graph" transform="scale(1 1) rotate(0) translate(4 293.09)">
<title>GSDUtil::writeParameters</title>
<!-- Node1 -->
<g id="node1" class="node">
<title>Node1</title>
<g id="a_node1"><a xlink:title=" ">
<polygon fill="#bfbfbf" stroke="black" points="0,-152.5 0,-171.5 131,-171.5 131,-152.5 0,-152.5"/>
<text text-anchor="middle" x="65.5" y="-159.5" font-family="Helvetica,sans-Serif" font-size="10.00">GSDUtil::writeParameters</text>
</a>
</g>
</g>
<!-- Node2 -->
<g id="node2" class="node">
<title>Node2</title>
<g id="a_node2"><a xlink:href="classGSDUtil.html#a00a919382c11e9dd1fa7ae1a8788d4c0" target="_top" xlink:title=" ">
<polygon fill="none" stroke="black" points="167,-171.5 167,-190.5 303,-190.5 303,-171.5 167,-171.5"/>
<text text-anchor="middle" x="235" y="-178.5" font-family="Helvetica,sans-Serif" font-size="10.00">GSDUtil::checkGSDReturn</text>
</a>
</g>
</g>
<!-- Node1&#45;&gt;Node2 -->
<g id="edge1" class="edge">
<title>Node1&#45;&gt;Node2</title>
<path fill="none" stroke="midnightblue" d="M131.26,-169.35C139.66,-170.3 148.34,-171.28 156.91,-172.26"/>
<polygon fill="midnightblue" stroke="midnightblue" points="156.59,-175.74 166.92,-173.39 157.38,-168.79 156.59,-175.74"/>
</g>
<!-- Node3 -->
<g id="node3" class="node">
<title>Node3</title>
<g id="a_node3"><a xlink:href="gsd_8c.html#ae22447904b925f284bf987fae448488a" target="_top" xlink:title=" ">
<polygon fill="none" stroke="black" points="189,-133.5 189,-152.5 281,-152.5 281,-133.5 189,-133.5"/>
<text text-anchor="middle" x="235" y="-140.5" font-family="Helvetica,sans-Serif" font-size="10.00">gsd_write_chunk</text>
</a>
</g>
</g>
<!-- Node1&#45;&gt;Node3 -->
<g id="edge2" class="edge">
<title>Node1&#45;&gt;Node3</title>
<path fill="none" stroke="midnightblue" d="M131.26,-154.65C146.89,-152.88 163.46,-151 178.62,-149.28"/>
<polygon fill="midnightblue" stroke="midnightblue" points="179.32,-152.73 188.86,-148.12 178.53,-145.77 179.32,-152.73"/>
</g>
<!-- Node4 -->
<g id="node4" class="node">
<title>Node4</title>
<g id="a_node4"><a xlink:href="gsd_8c.html#aa1a0a7dcf4015edcadbb47a6451b4a4b" target="_top" xlink:title=" ">
<polygon fill="none" stroke="black" points="349.5,-190.5 349.5,-209.5 451.5,-209.5 451.5,-190.5 349.5,-190.5"/>
<text text-anchor="middle" x="400.5" y="-197.5" font-family="Helvetica,sans-Serif" font-size="10.00">gsd_append_name</text>
</a>
</g>
</g>
<!-- Node3&#45;&gt;Node4 -->
<g id="edge3" class="edge">
<title>Node3&#45;&gt;Node4</title>
<path fill="none" stroke="midnightblue" d="M272.02,-152.51C282.1,-155.36 293.03,-158.63 303,-162 306.23,-163.09 339.39,-176.18 365.95,-186.7"/>
<polygon fill="midnightblue" stroke="midnightblue" points="364.79,-190 375.37,-190.43 367.36,-183.49 364.79,-190"/>
</g>
<!-- Node5 -->
<g id="node5" class="node">
<title>Node5</title>
<g id="a_node5"><a xlink:href="gsd_8c.html#a7a717f9dafe011e68434e181c76253af" target="_top" xlink:title=" ">
<polygon fill="none" stroke="black" points="500.5,-228.5 500.5,-247.5 627.5,-247.5 627.5,-228.5 500.5,-228.5"/>
<text text-anchor="middle" x="564" y="-235.5" font-family="Helvetica,sans-Serif" font-size="10.00">gsd_byte_buffer_append</text>
</a>
</g>
</g>
<!-- Node3&#45;&gt;Node5 -->
<g id="edge9" class="edge">
<title>Node3&#45;&gt;Node5</title>
<path fill="none" stroke="midnightblue" d="M281.02,-150.85C288.83,-153.54 296.51,-157.15 303,-162 327,-179.94 313.39,-203.44 339,-219 384.06,-246.38 443.93,-250.15 490.45,-247.61"/>
<polygon fill="midnightblue" stroke="midnightblue" points="490.71,-251.1 500.46,-246.96 490.25,-244.12 490.71,-251.1"/>
</g>
<!-- Node6 -->
<g id="node6" class="node">
<title>Node6</title>
<g id="a_node6"><a xlink:href="gsd_8c.html#a9b05d58560daee2512f03bedf7b2926d" target="_top" xlink:title=" ">
<polygon fill="none" stroke="black" points="666,-228.5 666,-247.5 784,-247.5 784,-228.5 666,-228.5"/>
<text text-anchor="middle" x="725" y="-235.5" font-family="Helvetica,sans-Serif" font-size="10.00">gsd_util_zero_memory</text>
</a>
</g>
</g>
<!-- Node3&#45;&gt;Node6 -->
<g id="edge19" class="edge">
<title>Node3&#45;&gt;Node6</title>
<path fill="none" stroke="midnightblue" d="M281.01,-149.76C289,-152.55 296.75,-156.48 303,-162 333.76,-189.15 305.53,-223.28 339,-247 446.85,-323.42 617.73,-276.44 689.97,-251.08"/>
<polygon fill="midnightblue" stroke="midnightblue" points="691.27,-254.33 699.5,-247.66 688.9,-247.74 691.27,-254.33"/>
</g>
<!-- Node10 -->
<g id="node10" class="node">
<title>Node10</title>
<g id="a_node10"><a xlink:href="gsd_8c.html#a61daeaa70162e9bac3d241832b460278" target="_top" xlink:title=" ">
<polygon fill="none" stroke="black" points="342,-114.5 342,-133.5 459,-133.5 459,-114.5 342,-114.5"/>
<text text-anchor="middle" x="400.5" y="-121.5" font-family="Helvetica,sans-Serif" font-size="10.00">gsd_flush_write_buffer</text>
</a>
</g>
</g>
<!-- Node3&#45;&gt;Node10 -->
<g id="edge10" class="edge">
<title>Node3&#45;&gt;Node10</title>
<path fill="none" stroke="midnightblue" d="M281.11,-137.76C296.83,-135.93 314.84,-133.84 331.98,-131.85"/>
<polygon fill="midnightblue" stroke="midnightblue" points="332.42,-135.32 341.95,-130.69 331.61,-128.37 332.42,-135.32"/>
</g>
<!-- Node11 -->
<g id="node11" class="node">
<title>Node11</title>
<g id="a_node11"><a xlink:href="gsd_8c.html#a258b64725f90f60d969752d65fba9850" target="_top" xlink:title=" ">
<polygon fill="none" stroke="black" points="506.5,-114.5 506.5,-133.5 621.5,-133.5 621.5,-114.5 506.5,-114.5"/>
<text text-anchor="middle" x="564" y="-121.5" font-family="Helvetica,sans-Serif" font-size="10.00">gsd_index_buffer_add</text>
</a>
</g>
</g>
<!-- Node3&#45;&gt;Node11 -->
<g id="edge14" class="edge">
<title>Node3&#45;&gt;Node11</title>
<path fill="none" stroke="midnightblue" d="M281.14,-145.46C326.84,-147.37 399.49,-148.83 462,-143 478.32,-141.48 495.94,-138.6 511.82,-135.54"/>
<polygon fill="midnightblue" stroke="midnightblue" points="512.85,-138.9 521.97,-133.51 511.48,-132.04 512.85,-138.9"/>
</g>
<!-- Node12 -->
<g id="node12" class="node">
<title>Node12</title>
<g id="a_node12"><a xlink:href="gsd_8c.html#a3fb7746d93a1c856ca7ef64fa3548cbe" target="_top" xlink:title=" ">
<polygon fill="none" stroke="black" points="512,-76.5 512,-95.5 616,-95.5 616,-76.5 512,-76.5"/>
<text text-anchor="middle" x="564" y="-83.5" font-family="Helvetica,sans-Serif" font-size="10.00">gsd_io_pwrite_retry</text>
</a>
</g>
</g>
<!-- Node3&#45;&gt;Node12 -->
<g id="edge15" class="edge">
<title>Node3&#45;&gt;Node12</title>
<path fill="none" stroke="midnightblue" d="M256.8,-133.43C277.26,-124.48 309.6,-111.54 339,-105 393.07,-92.96 456.05,-88.43 501.43,-86.79"/>
<polygon fill="midnightblue" stroke="midnightblue" points="501.82,-90.27 511.7,-86.45 501.59,-83.28 501.82,-90.27"/>
</g>
<!-- Node13 -->
<g id="node13" class="node">
<title>Node13</title>
<g id="a_node13"><a xlink:href="gsd_8c.html#a31b9400272036b121040e9fc0a9e626b" target="_top" xlink:title=" ">
<polygon fill="none" stroke="black" points="339,-38.5 339,-57.5 462,-57.5 462,-38.5 339,-38.5"/>
<text text-anchor="middle" x="400.5" y="-45.5" font-family="Helvetica,sans-Serif" font-size="10.00">gsd_name_id_map_find</text>
</a>
</g>
</g>
<!-- Node3&#45;&gt;Node13 -->
<g id="edge16" class="edge">
<title>Node3&#45;&gt;Node13</title>
<path fill="none" stroke="midnightblue" d="M248.1,-133.3C266.78,-118.65 304.13,-90.62 339,-72 346.3,-68.1 354.37,-64.47 362.18,-61.27"/>
<polygon fill="midnightblue" stroke="midnightblue" points="363.48,-64.52 371.5,-57.59 360.91,-58.01 363.48,-64.52"/>
</g>
<!-- Node14 -->
<g id="node14" class="node">
<title>Node14</title>
<g id="a_node14"><a xlink:href="gsd_8c.html#ab1d1a8a5f73b37df0c706f41df3bdd69" target="_top" xlink:title=" ">
<polygon fill="none" stroke="black" points="356,-0.5 356,-19.5 445,-19.5 445,-0.5 356,-0.5"/>
<text text-anchor="middle" x="400.5" y="-7.5" font-family="Helvetica,sans-Serif" font-size="10.00">gsd_sizeof_type</text>
</a>
</g>
</g>
<!-- Node3&#45;&gt;Node14 -->
<g id="edge18" class="edge">
<title>Node3&#45;&gt;Node14</title>
<path fill="none" stroke="midnightblue" d="M241.97,-133.48C256.11,-111.71 293.87,-57.94 339,-29 342.15,-26.98 345.53,-25.16 349.03,-23.53"/>
<polygon fill="midnightblue" stroke="midnightblue" points="350.57,-26.68 358.46,-19.61 347.88,-20.21 350.57,-26.68"/>
</g>
<!-- Node4&#45;&gt;Node5 -->
<g id="edge4" class="edge">
<title>Node4&#45;&gt;Node5</title>
<path fill="none" stroke="midnightblue" d="M442.25,-209.59C463.66,-214.63 490.09,-220.84 512.75,-226.18"/>
<polygon fill="midnightblue" stroke="midnightblue" points="512,-229.6 522.54,-228.48 513.61,-222.78 512,-229.6"/>
</g>
<!-- Node7 -->
<g id="node7" class="node">
<title>Node7</title>
<g id="a_node7"><a xlink:href="gsd_8c.html#a493ef951956c9f98adff89a80ddb3fa6" target="_top" xlink:title=" ">
<polygon fill="none" stroke="black" points="514,-190.5 514,-209.5 614,-209.5 614,-190.5 514,-190.5"/>
<text text-anchor="middle" x="564" y="-197.5" font-family="Helvetica,sans-Serif" font-size="10.00">gsd_make_version</text>
</a>
</g>
</g>
<!-- Node4&#45;&gt;Node7 -->
<g id="edge6" class="edge">
<title>Node4&#45;&gt;Node7</title>
<path fill="none" stroke="midnightblue" d="M451.71,-200C468.12,-200 486.51,-200 503.53,-200"/>
<polygon fill="midnightblue" stroke="midnightblue" points="503.92,-203.5 513.92,-200 503.92,-196.5 503.92,-203.5"/>
</g>
<!-- Node8 -->
<g id="node8" class="node">
<title>Node8</title>
<g id="a_node8"><a xlink:href="gsd_8c.html#a6c8c2e5a49ac4eb01a95be2e0df06eb9" target="_top" xlink:title=" ">
<polygon fill="none" stroke="black" points="498,-152.5 498,-171.5 630,-171.5 630,-152.5 498,-152.5"/>
<text text-anchor="middle" x="564" y="-159.5" font-family="Helvetica,sans-Serif" font-size="10.00">gsd_name_id_map_insert</text>
</a>
</g>
</g>
<!-- Node4&#45;&gt;Node8 -->
<g id="edge7" class="edge">
<title>Node4&#45;&gt;Node8</title>
<path fill="none" stroke="midnightblue" d="M442.25,-190.41C463.66,-185.37 490.09,-179.16 512.75,-173.82"/>
<polygon fill="midnightblue" stroke="midnightblue" points="513.61,-177.22 522.54,-171.52 512,-170.4 513.61,-177.22"/>
</g>
<!-- Node5&#45;&gt;Node6 -->
<g id="edge5" class="edge">
<title>Node5&#45;&gt;Node6</title>
<path fill="none" stroke="midnightblue" d="M627.84,-238C636.92,-238 646.31,-238 655.49,-238"/>
<polygon fill="midnightblue" stroke="midnightblue" points="655.75,-241.5 665.75,-238 655.75,-234.5 655.75,-241.5"/>
</g>
<!-- Node9 -->
<g id="node9" class="node">
<title>Node9</title>
<g id="a_node9"><a xlink:href="gsd_8c.html#a6d8087323ec29c58d907b9462b4a31da" target="_top" xlink:title=" ">
<polygon fill="none" stroke="black" points="686.5,-95.5 686.5,-114.5 763.5,-114.5 763.5,-95.5 686.5,-95.5"/>
<text text-anchor="middle" x="725" y="-102.5" font-family="Helvetica,sans-Serif" font-size="10.00">gsd_hash_str</text>
</a>
</g>
</g>
<!-- Node8&#45;&gt;Node9 -->
<g id="edge8" class="edge">
<title>Node8&#45;&gt;Node9</title>
<path fill="none" stroke="midnightblue" d="M599.95,-152.48C609.74,-149.63 620.34,-146.36 630,-143 651.19,-135.64 674.57,-126.2 692.71,-118.56"/>
<polygon fill="midnightblue" stroke="midnightblue" points="694.37,-121.66 702.2,-114.53 691.63,-115.22 694.37,-121.66"/>
</g>
<!-- Node10&#45;&gt;Node11 -->
<g id="edge11" class="edge">
<title>Node10&#45;&gt;Node11</title>
<path fill="none" stroke="midnightblue" d="M459.35,-124C471.3,-124 483.98,-124 496.22,-124"/>
<polygon fill="midnightblue" stroke="midnightblue" points="496.37,-127.5 506.37,-124 496.37,-120.5 496.37,-127.5"/>
</g>
<!-- Node10&#45;&gt;Node12 -->
<g id="edge13" class="edge">
<title>Node10&#45;&gt;Node12</title>
<path fill="none" stroke="midnightblue" d="M442.25,-114.41C463.66,-109.37 490.09,-103.16 512.75,-97.82"/>
<polygon fill="midnightblue" stroke="midnightblue" points="513.61,-101.22 522.54,-95.52 512,-94.4 513.61,-101.22"/>
</g>
<!-- Node11&#45;&gt;Node6 -->
<g id="edge12" class="edge">
<title>Node11&#45;&gt;Node6</title>
<path fill="none" stroke="midnightblue" d="M608.94,-133.53C616.24,-136.03 623.54,-139.15 630,-143 664.01,-163.27 694.44,-198.72 710.96,-220.11"/>
<polygon fill="midnightblue" stroke="midnightblue" points="708.34,-222.46 717.15,-228.33 713.93,-218.24 708.34,-222.46"/>
</g>
<!-- Node13&#45;&gt;Node9 -->
<g id="edge17" class="edge">
<title>Node13&#45;&gt;Node9</title>
<path fill="none" stroke="midnightblue" d="M462.42,-48.11C508.91,-49.38 574.23,-53.73 630,-67 652.93,-72.46 677.6,-82.6 695.91,-91.04"/>
<polygon fill="midnightblue" stroke="midnightblue" points="694.58,-94.28 705.12,-95.39 697.57,-87.95 694.58,-94.28"/>
</g>
</g>
</svg>
