<?xml version="1.0" encoding="UTF-8" standalone="no"?>
<!DOCTYPE svg PUBLIC "-//W3C//DTD SVG 1.1//EN"
 "http://www.w3.org/Graphics/SVG/1.1/DTD/svg11.dtd">
<!-- Generated by graphviz version 2.49.1 (20210923.0004)
 -->
<!-- Title: systemData::gradientChangeOfVariableTensors Pages: 1 -->
<svg width="298pt" height="66pt"
 viewBox="0.00 0.00 298.00 66.00" xmlns="http://www.w3.org/2000/svg" xmlns:xlink="http://www.w3.org/1999/xlink">
<g id="graph0" class="graph" transform="scale(1 1) rotate(0) translate(4 62)">
<title>systemData::gradientChangeOfVariableTensors</title>
<!-- Node1 -->
<g id="node1" class="node">
<title>Node1</title>
<g id="a_node1"><a xlink:title=" ">
<polygon fill="#bfbfbf" stroke="black" points="0,-14 0,-44 146,-44 146,-14 0,-14"/>
<text text-anchor="start" x="8" y="-32" font-family="Helvetica,sans-Serif" font-size="10.00">systemData::gradientChange</text>
<text text-anchor="middle" x="73" y="-21" font-family="Helvetica,sans-Serif" font-size="10.00">OfVariableTensors</text>
</a>
</g>
</g>
<!-- Node2 -->
<g id="node2" class="node">
<title>Node2</title>
<g id="a_node2"><a xlink:href="classsystemData.html#a19a83a255eb6f1de4bcfe2ea8e31ffa9" target="_top" xlink:title="Computes the E matrix of quaternion (4&#45;vector) input.">
<polygon fill="none" stroke="black" points="182,-38.5 182,-57.5 290,-57.5 290,-38.5 182,-38.5"/>
<text text-anchor="middle" x="236" y="-45.5" font-family="Helvetica,sans-Serif" font-size="10.00">systemData::eMatrix</text>
</a>
</g>
</g>
<!-- Node1&#45;&gt;Node2 -->
<g id="edge1" class="edge">
<title>Node1&#45;&gt;Node2</title>
<path fill="none" stroke="midnightblue" d="M146.02,-37.5C154.6,-38.51 163.3,-39.54 171.73,-40.53"/>
<polygon fill="midnightblue" stroke="midnightblue" points="171.52,-44.03 181.86,-41.73 172.34,-37.08 171.52,-44.03"/>
</g>
<!-- Node3 -->
<g id="node3" class="node">
<title>Node3</title>
<g id="a_node3"><a xlink:href="helper__eigenTensorConversion_8hpp.html#a556fb613b733267c9404648bc66bd0bd" target="_top" xlink:title="Convert Eigen::Matrix &#45;&#45;&gt; Eigen::Tensor.">
<polygon fill="none" stroke="black" points="202.5,-0.5 202.5,-19.5 269.5,-19.5 269.5,-0.5 202.5,-0.5"/>
<text text-anchor="middle" x="236" y="-7.5" font-family="Helvetica,sans-Serif" font-size="10.00">TensorCast</text>
</a>
</g>
</g>
<!-- Node1&#45;&gt;Node3 -->
<g id="edge2" class="edge">
<title>Node1&#45;&gt;Node3</title>
<path fill="none" stroke="midnightblue" d="M146.02,-20.5C161.79,-18.64 177.99,-16.73 192.18,-15.05"/>
<polygon fill="midnightblue" stroke="midnightblue" points="192.6,-18.53 202.12,-13.88 191.78,-11.58 192.6,-18.53"/>
</g>
</g>
</svg>
