<?xml version="1.0" encoding="UTF-8" standalone="no"?>
<!DOCTYPE svg PUBLIC "-//W3C//DTD SVG 1.1//EN"
 "http://www.w3.org/Graphics/SVG/1.1/DTD/svg11.dtd">
<!-- Generated by graphviz version 2.43.0 (0)
 -->
<!-- Title: SystemData::velocitiesArticulation Pages: 1 -->
<svg width="599pt" height="28pt"
 viewBox="0.00 0.00 599.00 28.00" xmlns="http://www.w3.org/2000/svg" xmlns:xlink="http://www.w3.org/1999/xlink">
<g id="graph0" class="graph" transform="scale(1 1) rotate(0) translate(4 24)">
<title>SystemData::velocitiesArticulation</title>
<!-- Node1 -->
<g id="node1" class="node">
<title>Node1</title>
<g id="a_node1"><a xlink:title="Computes the articulation (linear) velocities of the particles relative to their respective locater p...">
<polygon fill="#bfbfbf" stroke="black" points="424,-0.5 424,-19.5 591,-19.5 591,-0.5 424,-0.5"/>
<text text-anchor="middle" x="507.5" y="-7.5" font-family="Helvetica,sans-Serif" font-size="10.00">SystemData::velocitiesArticulation</text>
</a>
</g>
</g>
<!-- Node2 -->
<g id="node2" class="node">
<title>Node2</title>
<g id="a_node2"><a xlink:href="classSystemData.html#aa1dc8988cbb137f2667af95ca52a709c" target="_top" xlink:title="Updates all relevant rigid body motion tensors, respective gradients, and kinematic/Udwadia constrain...">
<polygon fill="none" stroke="black" points="281,-0.5 281,-19.5 388,-19.5 388,-0.5 281,-0.5"/>
<text text-anchor="middle" x="334.5" y="-7.5" font-family="Helvetica,sans-Serif" font-size="10.00">SystemData::update</text>
</a>
</g>
</g>
<!-- Node1&#45;&gt;Node2 -->
<g id="edge1" class="edge">
<title>Node1&#45;&gt;Node2</title>
<path fill="none" stroke="midnightblue" d="M413.54,-10C404.87,-10 396.3,-10 388.19,-10"/>
<polygon fill="midnightblue" stroke="midnightblue" points="413.75,-13.5 423.75,-10 413.75,-6.5 413.75,-13.5"/>
</g>
<!-- Node3 -->
<g id="node3" class="node">
<title>Node3</title>
<g id="a_node3"><a xlink:href="classSystemData.html#ac3a796dc8bf1fa82ea6dec33e548924f" target="_top" xlink:title="Function loads data from GSD file using GSDUtil class.">
<polygon fill="none" stroke="black" points="111,-0.5 111,-19.5 245,-19.5 245,-0.5 111,-0.5"/>
<text text-anchor="middle" x="178" y="-7.5" font-family="Helvetica,sans-Serif" font-size="10.00">SystemData::initializeData</text>
</a>
</g>
</g>
<!-- Node2&#45;&gt;Node3 -->
<g id="edge2" class="edge">
<title>Node2&#45;&gt;Node3</title>
<path fill="none" stroke="midnightblue" d="M270.66,-10C262.26,-10 253.62,-10 245.16,-10"/>
<polygon fill="midnightblue" stroke="midnightblue" points="270.76,-13.5 280.76,-10 270.76,-6.5 270.76,-13.5"/>
</g>
<!-- Node4 -->
<g id="node4" class="node">
<title>Node4</title>
<g id="a_node4"><a xlink:href="TestSimulation_8cpp.html#a227401f331fbabbd263158efc43b3bf6" target="_top" xlink:title=" ">
<polygon fill="none" stroke="black" points="0,-0.5 0,-19.5 75,-19.5 75,-0.5 0,-0.5"/>
<text text-anchor="middle" x="37.5" y="-7.5" font-family="Helvetica,sans-Serif" font-size="10.00">TEST_CASE</text>
</a>
</g>
</g>
<!-- Node3&#45;&gt;Node4 -->
<g id="edge3" class="edge">
<title>Node3&#45;&gt;Node4</title>
<path fill="none" stroke="midnightblue" d="M100.94,-10C92.06,-10 83.33,-10 75.34,-10"/>
<polygon fill="midnightblue" stroke="midnightblue" points="101,-13.5 111,-10 101,-6.5 101,-13.5"/>
</g>
</g>
</svg>
