<?xml version="1.0" encoding="UTF-8" standalone="no"?>
<!DOCTYPE svg PUBLIC "-//W3C//DTD SVG 1.1//EN"
 "http://www.w3.org/Graphics/SVG/1.1/DTD/svg11.dtd">
<!-- Generated by graphviz version 2.43.0 (0)
 -->
<!-- Title: systemData::gradientChangeOfVariableTensors Pages: 1 -->
<svg width="296pt" height="66pt"
 viewBox="0.00 0.00 296.00 66.00" xmlns="http://www.w3.org/2000/svg" xmlns:xlink="http://www.w3.org/1999/xlink">
<g id="graph0" class="graph" transform="scale(1 1) rotate(0) translate(4 62)">
<title>systemData::gradientChangeOfVariableTensors</title>
<!-- Node1 -->
<g id="node1" class="node">
<title>Node1</title>
<g id="a_node1"><a xlink:title=" ">
<polygon fill="#bfbfbf" stroke="black" points="0,-14 0,-44 144,-44 144,-14 0,-14"/>
<text text-anchor="start" x="8" y="-32" font-family="Helvetica,sans-Serif" font-size="10.00">systemData::gradientChange</text>
<text text-anchor="middle" x="72" y="-21" font-family="Helvetica,sans-Serif" font-size="10.00">OfVariableTensors</text>
</a>
</g>
</g>
<!-- Node2 -->
<g id="node2" class="node">
<title>Node2</title>
<g id="a_node2"><a xlink:href="classsystemData.html#a19a83a255eb6f1de4bcfe2ea8e31ffa9" target="_top" xlink:title="Computes the E matrix of quaternion (4&#45;vector) input.">
<polygon fill="none" stroke="black" points="180,-38.5 180,-57.5 288,-57.5 288,-38.5 180,-38.5"/>
<text text-anchor="middle" x="234" y="-45.5" font-family="Helvetica,sans-Serif" font-size="10.00">systemData::eMatrix</text>
</a>
</g>
</g>
<!-- Node1&#45;&gt;Node2 -->
<g id="edge1" class="edge">
<title>Node1&#45;&gt;Node2</title>
<path fill="none" stroke="midnightblue" d="M144.11,-37.44C152.65,-38.46 161.34,-39.49 169.76,-40.49"/>
<polygon fill="midnightblue" stroke="midnightblue" points="169.53,-43.99 179.88,-41.69 170.36,-37.04 169.53,-43.99"/>
</g>
<!-- Node3 -->
<g id="node3" class="node">
<title>Node3</title>
<g id="a_node3"><a xlink:href="helper__eigenTensorConversion_8h.html#a3a32f7de3f099464192073a93b34d580" target="_top" xlink:title="Convert Eigen::Matrix &#45;&#45;&gt; Eigen::Tensor.">
<polygon fill="none" stroke="black" points="200.5,-0.5 200.5,-19.5 267.5,-19.5 267.5,-0.5 200.5,-0.5"/>
<text text-anchor="middle" x="234" y="-7.5" font-family="Helvetica,sans-Serif" font-size="10.00">TensorCast</text>
</a>
</g>
</g>
<!-- Node1&#45;&gt;Node3 -->
<g id="edge2" class="edge">
<title>Node1&#45;&gt;Node3</title>
<path fill="none" stroke="midnightblue" d="M144.11,-20.56C159.83,-18.69 176,-16.77 190.18,-15.08"/>
<polygon fill="midnightblue" stroke="midnightblue" points="190.6,-18.56 200.11,-13.91 189.77,-11.61 190.6,-18.56"/>
</g>
</g>
</svg>
