<?xml version="1.0" encoding="UTF-8" standalone="no"?>
<!DOCTYPE svg PUBLIC "-//W3C//DTD SVG 1.1//EN"
 "http://www.w3.org/Graphics/SVG/1.1/DTD/svg11.dtd">
<!-- Generated by graphviz version 2.43.0 (0)
 -->
<!-- Title: plotStyling.PlotStyling.fix_unicode_chars Pages: 1 -->
<svg width="328pt" height="154pt"
 viewBox="0.00 0.00 328.00 153.50" xmlns="http://www.w3.org/2000/svg" xmlns:xlink="http://www.w3.org/1999/xlink">
<g id="graph0" class="graph" transform="scale(1 1) rotate(0) translate(4 149.5)">
<title>plotStyling.PlotStyling.fix_unicode_chars</title>
<!-- Node1 -->
<g id="node1" class="node">
<title>Node1</title>
<g id="a_node1"><a xlink:title=" ">
<polygon fill="#bfbfbf" stroke="black" points="194,-63.5 194,-93.5 320,-93.5 320,-63.5 194,-63.5"/>
<text text-anchor="start" x="202" y="-81.5" font-family="Helvetica,sans-Serif" font-size="10.00">plotStyling.PlotStyling.fix</text>
<text text-anchor="middle" x="257" y="-70.5" font-family="Helvetica,sans-Serif" font-size="10.00">_unicode_chars</text>
</a>
</g>
</g>
<!-- Node2 -->
<g id="node2" class="node">
<title>Node2</title>
<g id="a_node2"><a xlink:href="classplotStyling_1_1PlotStyling.html#a04d7b01c0a39c9749118441a35554923" target="_top" xlink:title=" ">
<polygon fill="none" stroke="black" points="9,-126 9,-145 149,-145 149,-126 9,-126"/>
<text text-anchor="middle" x="79" y="-133" font-family="Helvetica,sans-Serif" font-size="10.00">plotStyling.PlotStyling.curve</text>
</a>
</g>
</g>
<!-- Node1&#45;&gt;Node2 -->
<g id="edge1" class="edge">
<title>Node1&#45;&gt;Node2</title>
<path fill="none" stroke="midnightblue" d="M211.14,-97.32C194.6,-103.87 175.61,-110.97 158,-116.5 146.96,-119.97 134.88,-123.18 123.6,-125.95"/>
<polygon fill="midnightblue" stroke="midnightblue" points="212.58,-100.51 220.56,-93.54 209.97,-94.01 212.58,-100.51"/>
</g>
<!-- Node3 -->
<g id="node3" class="node">
<title>Node3</title>
<g id="a_node3"><a xlink:href="classplotStyling_1_1PlotStyling.html#ae9dad8a775b78d990054ce69ab8bff44" target="_top" xlink:title=" ">
<polygon fill="none" stroke="black" points="0,-88 0,-107 158,-107 158,-88 0,-88"/>
<text text-anchor="middle" x="79" y="-95" font-family="Helvetica,sans-Serif" font-size="10.00">plotStyling.PlotStyling.save_plot</text>
</a>
</g>
</g>
<!-- Node1&#45;&gt;Node3 -->
<g id="edge2" class="edge">
<title>Node1&#45;&gt;Node3</title>
<path fill="none" stroke="midnightblue" d="M183.76,-86.3C175.32,-87.21 166.67,-88.14 158.14,-89.06"/>
<polygon fill="midnightblue" stroke="midnightblue" points="184.38,-89.75 193.95,-85.2 183.63,-82.79 184.38,-89.75"/>
</g>
<!-- Node4 -->
<g id="node4" class="node">
<title>Node4</title>
<g id="a_node4"><a xlink:href="classplotStyling_1_1PlotStyling.html#a80a5368cd8edc6ada4f8aff47c02bbac" target="_top" xlink:title=" ">
<polygon fill="none" stroke="black" points="6,-50 6,-69 152,-69 152,-50 6,-50"/>
<text text-anchor="middle" x="79" y="-57" font-family="Helvetica,sans-Serif" font-size="10.00">plotStyling.PlotStyling.scatter</text>
</a>
</g>
</g>
<!-- Node1&#45;&gt;Node4 -->
<g id="edge3" class="edge">
<title>Node1&#45;&gt;Node4</title>
<path fill="none" stroke="midnightblue" d="M183.96,-70.72C173.42,-69.58 162.56,-68.41 152.02,-67.27"/>
<polygon fill="midnightblue" stroke="midnightblue" points="183.63,-74.21 193.95,-71.8 184.38,-67.25 183.63,-74.21"/>
</g>
<!-- Node5 -->
<g id="node5" class="node">
<title>Node5</title>
<g id="a_node5"><a xlink:href="classplotStyling_1_1PlotStyling.html#a9ac60643dc06c24e2287342c431f0f1e" target="_top" xlink:title=" ">
<polygon fill="none" stroke="black" points="6,-0.5 6,-30.5 152,-30.5 152,-0.5 6,-0.5"/>
<text text-anchor="start" x="14" y="-18.5" font-family="Helvetica,sans-Serif" font-size="10.00">plotStyling.PlotStyling.scatter</text>
<text text-anchor="middle" x="79" y="-7.5" font-family="Helvetica,sans-Serif" font-size="10.00">_dashed</text>
</a>
</g>
</g>
<!-- Node1&#45;&gt;Node5 -->
<g id="edge4" class="edge">
<title>Node1&#45;&gt;Node5</title>
<path fill="none" stroke="midnightblue" d="M208.8,-59.54C192.76,-53.27 174.67,-46.4 158,-40.5 148.48,-37.13 138.24,-33.71 128.42,-30.52"/>
<polygon fill="midnightblue" stroke="midnightblue" points="207.91,-62.95 218.5,-63.35 210.47,-56.44 207.91,-62.95"/>
</g>
</g>
</svg>
