<?xml version="1.0" encoding="UTF-8" standalone="no"?>
<!DOCTYPE svg PUBLIC "-//W3C//DTD SVG 1.1//EN"
 "http://www.w3.org/Graphics/SVG/1.1/DTD/svg11.dtd">
<!-- Generated by graphviz version 2.43.0 (0)
 -->
<!-- Title: GSDUtil Pages: 1 -->
<svg width="1036pt" height="2439pt"
 viewBox="0.00 0.00 1036.00 2439.00" xmlns="http://www.w3.org/2000/svg" xmlns:xlink="http://www.w3.org/1999/xlink">
<g id="graph0" class="graph" transform="scale(1 1) rotate(0) translate(4 2435)">
<title>GSDUtil</title>
<!-- Node1 -->
<g id="node1" class="node">
<title>Node1</title>
<g id="a_node1"><a xlink:title=" ">
<polygon fill="#bfbfbf" stroke="black" points="902,-1811.5 902,-2022.5 1024,-2022.5 1024,-1811.5 902,-1811.5"/>
<text text-anchor="middle" x="963" y="-2010.5" font-family="Helvetica,sans-Serif" font-size="10.00">GSDUtil</text>
<polyline fill="none" stroke="black" points="902,-2003.5 1024,-2003.5 "/>
<text text-anchor="start" x="910" y="-1991.5" font-family="Helvetica,sans-Serif" font-size="10.00">&#45; m_frame</text>
<polyline fill="none" stroke="black" points="902,-1984.5 1024,-1984.5 "/>
<text text-anchor="start" x="910" y="-1972.5" font-family="Helvetica,sans-Serif" font-size="10.00">+ GSDUtil()</text>
<text text-anchor="start" x="910" y="-1961.5" font-family="Helvetica,sans-Serif" font-size="10.00">+ GSDUtil()</text>
<text text-anchor="start" x="910" y="-1950.5" font-family="Helvetica,sans-Serif" font-size="10.00">+ ~GSDUtil()</text>
<text text-anchor="start" x="910" y="-1939.5" font-family="Helvetica,sans-Serif" font-size="10.00">+ truncateGSD()</text>
<text text-anchor="start" x="910" y="-1928.5" font-family="Helvetica,sans-Serif" font-size="10.00">+ writeFrame()</text>
<text text-anchor="start" x="910" y="-1917.5" font-family="Helvetica,sans-Serif" font-size="10.00">+ frame()</text>
<text text-anchor="start" x="910" y="-1906.5" font-family="Helvetica,sans-Serif" font-size="10.00">&#45; checkGSDReturn()</text>
<text text-anchor="start" x="910" y="-1895.5" font-family="Helvetica,sans-Serif" font-size="10.00">&#45; readChunk()</text>
<text text-anchor="start" x="910" y="-1884.5" font-family="Helvetica,sans-Serif" font-size="10.00">&#45; readHeader()</text>
<text text-anchor="start" x="910" y="-1873.5" font-family="Helvetica,sans-Serif" font-size="10.00">&#45; readParameters()</text>
<text text-anchor="start" x="910" y="-1862.5" font-family="Helvetica,sans-Serif" font-size="10.00">&#45; readParticles()</text>
<text text-anchor="start" x="910" y="-1851.5" font-family="Helvetica,sans-Serif" font-size="10.00">&#45; readSystemSpecifics()</text>
<text text-anchor="start" x="910" y="-1840.5" font-family="Helvetica,sans-Serif" font-size="10.00">&#45; writeHeader()</text>
<text text-anchor="start" x="910" y="-1829.5" font-family="Helvetica,sans-Serif" font-size="10.00">&#45; writeParameters()</text>
<text text-anchor="start" x="910" y="-1818.5" font-family="Helvetica,sans-Serif" font-size="10.00">&#45; writeParticles()</text>
</a>
</g>
</g>
<!-- Node5 -->
<g id="node5" class="node">
<title>Node5</title>
<g id="a_node5"><a xlink:title=" ">
<polygon fill="none" stroke="#bfbfbf" points="546.5,-1668 546.5,-1725 683.5,-1725 683.5,-1668 546.5,-1668"/>
<text text-anchor="middle" x="615" y="-1713" font-family="Helvetica,sans-Serif" font-size="10.00">std::shared_ptr&lt; GSDUtil &gt;</text>
<polyline fill="none" stroke="#bfbfbf" points="546.5,-1706 683.5,-1706 "/>
<text text-anchor="middle" x="615" y="-1694" font-family="Helvetica,sans-Serif" font-size="10.00"> </text>
<polyline fill="none" stroke="#bfbfbf" points="546.5,-1687 683.5,-1687 "/>
<text text-anchor="start" x="554.5" y="-1675" font-family="Helvetica,sans-Serif" font-size="10.00">+ operator&#45;&gt;()</text>
</a>
</g>
</g>
<!-- Node1&#45;&gt;Node5 -->
<g id="edge5" class="edge">
<title>Node1&#45;&gt;Node5</title>
<path fill="none" stroke="#404040" d="M959.73,-1811.34C956.62,-1783.45 951,-1758.43 941,-1749 920.9,-1730.04 719.84,-1737.54 693,-1731 690.38,-1730.36 687.74,-1729.64 685.09,-1728.86"/>
<polygon fill="none" stroke="#404040" points="684.89,-1728.79 677.94,-1730.73 673.49,-1725.06 680.43,-1723.13 684.89,-1728.79"/>
<text text-anchor="middle" x="967.5" y="-1768.5" font-family="Helvetica,sans-Serif" font-size="10.00"> +ptr</text>
</g>
<!-- Node2 -->
<g id="node2" class="node">
<title>Node2</title>
<g id="a_node2"><a xlink:title=" ">
<polygon fill="none" stroke="#bfbfbf" points="591.5,-0.5 591.5,-57.5 744.5,-57.5 744.5,-0.5 591.5,-0.5"/>
<text text-anchor="middle" x="668" y="-45.5" font-family="Helvetica,sans-Serif" font-size="10.00">std::shared_ptr&lt; systemData &gt;</text>
<polyline fill="none" stroke="#bfbfbf" points="591.5,-38.5 744.5,-38.5 "/>
<text text-anchor="middle" x="668" y="-26.5" font-family="Helvetica,sans-Serif" font-size="10.00"> </text>
<polyline fill="none" stroke="#bfbfbf" points="591.5,-19.5 744.5,-19.5 "/>
<text text-anchor="start" x="599.5" y="-7.5" font-family="Helvetica,sans-Serif" font-size="10.00">+ operator&#45;&gt;()</text>
</a>
</g>
</g>
<!-- Node2&#45;&gt;Node1 -->
<g id="edge1" class="edge">
<title>Node2&#45;&gt;Node1</title>
<path fill="none" stroke="#404040" d="M718.31,-57.63C735.88,-69.83 753.96,-85.81 765,-105 1132.43,-743.88 933.67,-1013.58 982,-1749 983.07,-1765.28 982.77,-1782.42 981.64,-1799.27"/>
<polygon fill="none" stroke="#404040" points="981.62,-1799.5 985.14,-1805.8 980.68,-1811.46 977.16,-1805.17 981.62,-1799.5"/>
<text text-anchor="middle" x="1002" y="-1636" font-family="Helvetica,sans-Serif" font-size="10.00"> &#45;m_system</text>
</g>
<!-- Node3 -->
<g id="node3" class="node">
<title>Node3</title>
<g id="a_node3"><a xlink:href="classsystemData.html" target="_top" xlink:title="Class contains all data structures relevant to the simulation framework. Note that after construction...">
<polygon fill="none" stroke="black" points="580,-105.5 580,-1614.5 756,-1614.5 756,-105.5 580,-105.5"/>
<text text-anchor="middle" x="668" y="-1602.5" font-family="Helvetica,sans-Serif" font-size="10.00">systemData</text>
<polyline fill="none" stroke="black" points="580,-1595.5 756,-1595.5 "/>
<text text-anchor="start" x="588" y="-1583.5" font-family="Helvetica,sans-Serif" font-size="10.00">&#45; m_return_val</text>
<text text-anchor="start" x="588" y="-1572.5" font-family="Helvetica,sans-Serif" font-size="10.00">&#45; m_return_bool</text>
<text text-anchor="start" x="588" y="-1561.5" font-family="Helvetica,sans-Serif" font-size="10.00">&#45; m_GSD_parsed</text>
<text text-anchor="start" x="588" y="-1550.5" font-family="Helvetica,sans-Serif" font-size="10.00">&#45; m_sys_spec_U0</text>
<text text-anchor="start" x="588" y="-1539.5" font-family="Helvetica,sans-Serif" font-size="10.00">&#45; m_sys_spec_omega</text>
<text text-anchor="start" x="588" y="-1528.5" font-family="Helvetica,sans-Serif" font-size="10.00">&#45; m_sys_spec_phase_shift</text>
<text text-anchor="start" x="588" y="-1517.5" font-family="Helvetica,sans-Serif" font-size="10.00">&#45; m_sys_spec_R_avg</text>
<text text-anchor="start" x="588" y="-1506.5" font-family="Helvetica,sans-Serif" font-size="10.00">&#45; m_particle_type_id</text>
<text text-anchor="start" x="588" y="-1495.5" font-family="Helvetica,sans-Serif" font-size="10.00">&#45; m_num_spatial_dim</text>
<text text-anchor="start" x="588" y="-1484.5" font-family="Helvetica,sans-Serif" font-size="10.00">&#45; m_num_particles</text>
<text text-anchor="start" x="588" y="-1473.5" font-family="Helvetica,sans-Serif" font-size="10.00">&#45; m_num_bodies</text>
<text text-anchor="start" x="588" y="-1462.5" font-family="Helvetica,sans-Serif" font-size="10.00">&#45; m_num_DoF</text>
<text text-anchor="start" x="588" y="-1451.5" font-family="Helvetica,sans-Serif" font-size="10.00">&#45; m_num_constraints</text>
<text text-anchor="start" x="588" y="-1440.5" font-family="Helvetica,sans-Serif" font-size="10.00">&#45; m_dt</text>
<text text-anchor="start" x="588" y="-1429.5" font-family="Helvetica,sans-Serif" font-size="10.00">&#45; m_tf</text>
<text text-anchor="start" x="588" y="-1418.5" font-family="Helvetica,sans-Serif" font-size="10.00">&#45; m_t</text>
<text text-anchor="start" x="588" y="-1407.5" font-family="Helvetica,sans-Serif" font-size="10.00">&#45; m_tau</text>
<text text-anchor="start" x="588" y="-1396.5" font-family="Helvetica,sans-Serif" font-size="10.00">&#45; m_timestep</text>
<text text-anchor="start" x="588" y="-1385.5" font-family="Helvetica,sans-Serif" font-size="10.00">&#45; m_num_steps_output</text>
<text text-anchor="start" x="588" y="-1374.5" font-family="Helvetica,sans-Serif" font-size="10.00">&#45; m_fluid_density</text>
<text text-anchor="start" x="588" y="-1363.5" font-family="Helvetica,sans-Serif" font-size="10.00">&#45; m_particle_density</text>
<text text-anchor="start" x="588" y="-1352.5" font-family="Helvetica,sans-Serif" font-size="10.00">&#45; m_wca_epsilon</text>
<text text-anchor="start" x="588" y="-1341.5" font-family="Helvetica,sans-Serif" font-size="10.00">&#45; m_wca_sigma</text>
<text text-anchor="start" x="588" y="-1330.5" font-family="Helvetica,sans-Serif" font-size="10.00">&#45; m_I3</text>
<text text-anchor="start" x="588" y="-1319.5" font-family="Helvetica,sans-Serif" font-size="10.00">&#45; m_tens_I3</text>
<text text-anchor="start" x="588" y="-1308.5" font-family="Helvetica,sans-Serif" font-size="10.00">&#45; m_levi_cevita</text>
<text text-anchor="start" x="588" y="-1297.5" font-family="Helvetica,sans-Serif" font-size="10.00">&#45; m_kappa_tilde</text>
<text text-anchor="start" x="588" y="-1286.5" font-family="Helvetica,sans-Serif" font-size="10.00">&#45; m_positions_bodies</text>
<text text-anchor="start" x="588" y="-1275.5" font-family="Helvetica,sans-Serif" font-size="10.00">&#45; m_velocities_bodies</text>
<text text-anchor="start" x="588" y="-1264.5" font-family="Helvetica,sans-Serif" font-size="10.00">&#45; m_accelerations_bodies</text>
<text text-anchor="start" x="588" y="-1253.5" font-family="Helvetica,sans-Serif" font-size="10.00">&#45; m_orientations_particles</text>
<text text-anchor="start" x="588" y="-1242.5" font-family="Helvetica,sans-Serif" font-size="10.00">&#45; m_positions_particles</text>
<text text-anchor="start" x="588" y="-1231.5" font-family="Helvetica,sans-Serif" font-size="10.00">&#45; m_velocities_particles</text>
<text text-anchor="start" x="588" y="-1220.5" font-family="Helvetica,sans-Serif" font-size="10.00">&#45; m_accelerations_particles</text>
<text text-anchor="start" x="588" y="-1209.5" font-family="Helvetica,sans-Serif" font-size="10.00">&#45; m_positions_locater</text>
<text text-anchor="start" x="588" y="-1198.5" font-family="Helvetica,sans-Serif" font-size="10.00">_particles</text>
<text text-anchor="start" x="588" y="-1187.5" font-family="Helvetica,sans-Serif" font-size="10.00">&#45; m_velocities_particles</text>
<text text-anchor="start" x="588" y="-1176.5" font-family="Helvetica,sans-Serif" font-size="10.00">_articulation</text>
<text text-anchor="start" x="588" y="-1165.5" font-family="Helvetica,sans-Serif" font-size="10.00">&#45; m_accelerations_particles</text>
<text text-anchor="start" x="588" y="-1154.5" font-family="Helvetica,sans-Serif" font-size="10.00">_articulation</text>
<text text-anchor="start" x="588" y="-1143.5" font-family="Helvetica,sans-Serif" font-size="10.00">&#45; m_rbm_conn</text>
<text text-anchor="start" x="588" y="-1132.5" font-family="Helvetica,sans-Serif" font-size="10.00">&#45; m_psi_conv_quat_ang</text>
<text text-anchor="start" x="588" y="-1121.5" font-family="Helvetica,sans-Serif" font-size="10.00">&#45; m_rbm_conn_T_quat</text>
<text text-anchor="start" x="588" y="-1110.5" font-family="Helvetica,sans-Serif" font-size="10.00">&#45; m_tens_rbm_conn_T_quat</text>
<text text-anchor="start" x="588" y="-1099.5" font-family="Helvetica,sans-Serif" font-size="10.00">&#45; m_rbm_conn_T_quat_grad</text>
<text text-anchor="start" x="588" y="-1088.5" font-family="Helvetica,sans-Serif" font-size="10.00">&#45; m_conv_body_2_part_dof</text>
<text text-anchor="start" x="588" y="-1077.5" font-family="Helvetica,sans-Serif" font-size="10.00">&#45; m_tens_conv_body_2</text>
<text text-anchor="start" x="588" y="-1066.5" font-family="Helvetica,sans-Serif" font-size="10.00">_part_dof</text>
<text text-anchor="start" x="588" y="-1055.5" font-family="Helvetica,sans-Serif" font-size="10.00">&#45; m_Udwadia_A</text>
<text text-anchor="start" x="588" y="-1044.5" font-family="Helvetica,sans-Serif" font-size="10.00">&#45; m_Udwadia_b</text>
<polyline fill="none" stroke="black" points="580,-1037.5 756,-1037.5 "/>
<text text-anchor="start" x="588" y="-1025.5" font-family="Helvetica,sans-Serif" font-size="10.00">+ systemData()</text>
<text text-anchor="start" x="588" y="-1014.5" font-family="Helvetica,sans-Serif" font-size="10.00">+ ~systemData()</text>
<text text-anchor="start" x="588" y="-1003.5" font-family="Helvetica,sans-Serif" font-size="10.00">+ initializeData()</text>
<text text-anchor="start" x="588" y="-992.5" font-family="Helvetica,sans-Serif" font-size="10.00">+ update()</text>
<text text-anchor="start" x="588" y="-981.5" font-family="Helvetica,sans-Serif" font-size="10.00">+ outputDir()</text>
<text text-anchor="start" x="588" y="-970.5" font-family="Helvetica,sans-Serif" font-size="10.00">+ inputGSDFile()</text>
<text text-anchor="start" x="588" y="-959.5" font-family="Helvetica,sans-Serif" font-size="10.00">+ handle()</text>
<text text-anchor="start" x="588" y="-948.5" font-family="Helvetica,sans-Serif" font-size="10.00">+ gsdUtil()</text>
<text text-anchor="start" x="588" y="-937.5" font-family="Helvetica,sans-Serif" font-size="10.00">+ gSDParsed()</text>
<text text-anchor="start" x="588" y="-926.5" font-family="Helvetica,sans-Serif" font-size="10.00">+ setReturnVal()</text>
<text text-anchor="start" x="588" y="-915.5" font-family="Helvetica,sans-Serif" font-size="10.00">+ returnVal()</text>
<text text-anchor="start" x="588" y="-904.5" font-family="Helvetica,sans-Serif" font-size="10.00">+ setReturnBool()</text>
<text text-anchor="start" x="588" y="-893.5" font-family="Helvetica,sans-Serif" font-size="10.00">+ returnBool()</text>
<text text-anchor="start" x="588" y="-882.5" font-family="Helvetica,sans-Serif" font-size="10.00">+ orientationsParticles()</text>
<text text-anchor="start" x="588" y="-871.5" font-family="Helvetica,sans-Serif" font-size="10.00">+ setOrientationsParticles()</text>
<text text-anchor="start" x="588" y="-860.5" font-family="Helvetica,sans-Serif" font-size="10.00">+ positionsParticles()</text>
<text text-anchor="start" x="588" y="-849.5" font-family="Helvetica,sans-Serif" font-size="10.00">+ setPositionsParticles()</text>
<text text-anchor="start" x="588" y="-838.5" font-family="Helvetica,sans-Serif" font-size="10.00">+ velocitiesParticles()</text>
<text text-anchor="start" x="588" y="-827.5" font-family="Helvetica,sans-Serif" font-size="10.00">+ setVelocitiesParticles()</text>
<text text-anchor="start" x="588" y="-816.5" font-family="Helvetica,sans-Serif" font-size="10.00">+ accelerationsParticles()</text>
<text text-anchor="start" x="588" y="-805.5" font-family="Helvetica,sans-Serif" font-size="10.00">+ setAccelerationsParticles()</text>
<text text-anchor="start" x="588" y="-794.5" font-family="Helvetica,sans-Serif" font-size="10.00">+ positionsBodies()</text>
<text text-anchor="start" x="588" y="-783.5" font-family="Helvetica,sans-Serif" font-size="10.00">+ setPositionsBodies()</text>
<text text-anchor="start" x="588" y="-772.5" font-family="Helvetica,sans-Serif" font-size="10.00">+ velocitiesBodies()</text>
<text text-anchor="start" x="588" y="-761.5" font-family="Helvetica,sans-Serif" font-size="10.00">+ setVelocitiesBodies()</text>
<text text-anchor="start" x="588" y="-750.5" font-family="Helvetica,sans-Serif" font-size="10.00">+ accelerationsBodies()</text>
<text text-anchor="start" x="588" y="-739.5" font-family="Helvetica,sans-Serif" font-size="10.00">+ setAccelerationsBodies()</text>
<text text-anchor="start" x="588" y="-728.5" font-family="Helvetica,sans-Serif" font-size="10.00">+ particleTypeId()</text>
<text text-anchor="start" x="588" y="-717.5" font-family="Helvetica,sans-Serif" font-size="10.00">+ setParticleTypeId()</text>
<text text-anchor="start" x="588" y="-706.5" font-family="Helvetica,sans-Serif" font-size="10.00">+ numDoF()</text>
<text text-anchor="start" x="588" y="-695.5" font-family="Helvetica,sans-Serif" font-size="10.00">+ numSpatialDim()</text>
<text text-anchor="start" x="588" y="-684.5" font-family="Helvetica,sans-Serif" font-size="10.00">+ setNumSpatialDim()</text>
<text text-anchor="start" x="588" y="-673.5" font-family="Helvetica,sans-Serif" font-size="10.00">+ numParticles()</text>
<text text-anchor="start" x="588" y="-662.5" font-family="Helvetica,sans-Serif" font-size="10.00">+ setNumParticles()</text>
<text text-anchor="start" x="588" y="-651.5" font-family="Helvetica,sans-Serif" font-size="10.00">+ numBodies()</text>
<text text-anchor="start" x="588" y="-640.5" font-family="Helvetica,sans-Serif" font-size="10.00">+ setNumBodies()</text>
<text text-anchor="start" x="588" y="-629.5" font-family="Helvetica,sans-Serif" font-size="10.00">+ dt()</text>
<text text-anchor="start" x="588" y="-618.5" font-family="Helvetica,sans-Serif" font-size="10.00">+ setDt()</text>
<text text-anchor="start" x="588" y="-607.5" font-family="Helvetica,sans-Serif" font-size="10.00">+ t()</text>
<text text-anchor="start" x="588" y="-596.5" font-family="Helvetica,sans-Serif" font-size="10.00">+ setT()</text>
<text text-anchor="start" x="588" y="-585.5" font-family="Helvetica,sans-Serif" font-size="10.00">+ tf()</text>
<text text-anchor="start" x="588" y="-574.5" font-family="Helvetica,sans-Serif" font-size="10.00">+ setTf()</text>
<text text-anchor="start" x="588" y="-563.5" font-family="Helvetica,sans-Serif" font-size="10.00">+ tau()</text>
<text text-anchor="start" x="588" y="-552.5" font-family="Helvetica,sans-Serif" font-size="10.00">+ setTau()</text>
<text text-anchor="start" x="588" y="-541.5" font-family="Helvetica,sans-Serif" font-size="10.00">+ timestep()</text>
<text text-anchor="start" x="588" y="-530.5" font-family="Helvetica,sans-Serif" font-size="10.00">+ setTimestep()</text>
<text text-anchor="start" x="588" y="-519.5" font-family="Helvetica,sans-Serif" font-size="10.00">+ numStepsOutput()</text>
<text text-anchor="start" x="588" y="-508.5" font-family="Helvetica,sans-Serif" font-size="10.00">+ setNumStepsOutput()</text>
<text text-anchor="start" x="588" y="-497.5" font-family="Helvetica,sans-Serif" font-size="10.00">+ fluidDensity()</text>
<text text-anchor="start" x="588" y="-486.5" font-family="Helvetica,sans-Serif" font-size="10.00">+ setFluidDensity()</text>
<text text-anchor="start" x="588" y="-475.5" font-family="Helvetica,sans-Serif" font-size="10.00">+ particleDensity()</text>
<text text-anchor="start" x="588" y="-464.5" font-family="Helvetica,sans-Serif" font-size="10.00">+ setParticleDensity()</text>
<text text-anchor="start" x="588" y="-453.5" font-family="Helvetica,sans-Serif" font-size="10.00">+ wcaSigma()</text>
<text text-anchor="start" x="588" y="-442.5" font-family="Helvetica,sans-Serif" font-size="10.00">+ setWcaSigma()</text>
<text text-anchor="start" x="588" y="-431.5" font-family="Helvetica,sans-Serif" font-size="10.00">+ wcaEpsilon()</text>
<text text-anchor="start" x="588" y="-420.5" font-family="Helvetica,sans-Serif" font-size="10.00">+ setWcaEpsilon()</text>
<text text-anchor="start" x="588" y="-409.5" font-family="Helvetica,sans-Serif" font-size="10.00">+ velocitiesParticlesArticulation()</text>
<text text-anchor="start" x="588" y="-398.5" font-family="Helvetica,sans-Serif" font-size="10.00">+ accelerationsParticlesArticulation()</text>
<text text-anchor="start" x="588" y="-387.5" font-family="Helvetica,sans-Serif" font-size="10.00">+ sysSpecRAvg()</text>
<text text-anchor="start" x="588" y="-376.5" font-family="Helvetica,sans-Serif" font-size="10.00">+ setSysSpecRAvg()</text>
<text text-anchor="start" x="588" y="-365.5" font-family="Helvetica,sans-Serif" font-size="10.00">+ sysSpecPhaseShift()</text>
<text text-anchor="start" x="588" y="-354.5" font-family="Helvetica,sans-Serif" font-size="10.00">+ setSysSpecPhaseShift()</text>
<text text-anchor="start" x="588" y="-343.5" font-family="Helvetica,sans-Serif" font-size="10.00">+ sysSpecOmega()</text>
<text text-anchor="start" x="588" y="-332.5" font-family="Helvetica,sans-Serif" font-size="10.00">+ setSysSpecOmega()</text>
<text text-anchor="start" x="588" y="-321.5" font-family="Helvetica,sans-Serif" font-size="10.00">+ sysSpecU0()</text>
<text text-anchor="start" x="588" y="-310.5" font-family="Helvetica,sans-Serif" font-size="10.00">+ setSysSpecU0()</text>
<text text-anchor="start" x="588" y="-299.5" font-family="Helvetica,sans-Serif" font-size="10.00">+ udwadiaA()</text>
<text text-anchor="start" x="588" y="-288.5" font-family="Helvetica,sans-Serif" font-size="10.00">+ udwadiaB()</text>
<text text-anchor="start" x="588" y="-277.5" font-family="Helvetica,sans-Serif" font-size="10.00">+ tensI3()</text>
<text text-anchor="start" x="588" y="-266.5" font-family="Helvetica,sans-Serif" font-size="10.00">+ i3()</text>
<text text-anchor="start" x="588" y="-255.5" font-family="Helvetica,sans-Serif" font-size="10.00">+ tensRbmConnTQuat()</text>
<text text-anchor="start" x="588" y="-244.5" font-family="Helvetica,sans-Serif" font-size="10.00">+ tensConvBody2PartDof()</text>
<text text-anchor="start" x="588" y="-233.5" font-family="Helvetica,sans-Serif" font-size="10.00">+ rbmConnTQuatGrad()</text>
<text text-anchor="start" x="588" y="-222.5" font-family="Helvetica,sans-Serif" font-size="10.00">&#45; parseGSD()</text>
<text text-anchor="start" x="588" y="-211.5" font-family="Helvetica,sans-Serif" font-size="10.00">&#45; checkInput()</text>
<text text-anchor="start" x="588" y="-200.5" font-family="Helvetica,sans-Serif" font-size="10.00">&#45; velocitiesArticulation()</text>
<text text-anchor="start" x="588" y="-189.5" font-family="Helvetica,sans-Serif" font-size="10.00">&#45; accelerationsArticulation()</text>
<text text-anchor="start" x="588" y="-178.5" font-family="Helvetica,sans-Serif" font-size="10.00">&#45; locaterPointLocations()</text>
<text text-anchor="start" x="588" y="-167.5" font-family="Helvetica,sans-Serif" font-size="10.00">&#45; rigidBodyMotionTensors()</text>
<text text-anchor="start" x="588" y="-156.5" font-family="Helvetica,sans-Serif" font-size="10.00">&#45; gradientChangeOfVariable</text>
<text text-anchor="start" x="588" y="-145.5" font-family="Helvetica,sans-Serif" font-size="10.00">Tensors()</text>
<text text-anchor="start" x="588" y="-134.5" font-family="Helvetica,sans-Serif" font-size="10.00">&#45; udwadiaLinearSystem()</text>
<text text-anchor="start" x="588" y="-123.5" font-family="Helvetica,sans-Serif" font-size="10.00">&#45; eMatrix()</text>
<text text-anchor="start" x="588" y="-112.5" font-family="Helvetica,sans-Serif" font-size="10.00">&#45; crossProdMat()</text>
</a>
</g>
</g>
<!-- Node3&#45;&gt;Node2 -->
<g id="edge2" class="edge">
<title>Node3&#45;&gt;Node2</title>
<path fill="none" stroke="#404040" d="M668,-105.4C668,-92.08 668,-80.22 668,-70.08"/>
<polygon fill="none" stroke="#404040" points="668,-69.76 664,-63.76 668,-57.76 672,-63.76 668,-69.76"/>
<text text-anchor="middle" x="678.5" y="-79" font-family="Helvetica,sans-Serif" font-size="10.00"> +ptr</text>
</g>
<!-- Node4 -->
<g id="node4" class="node">
<title>Node4</title>
<g id="a_node4"><a xlink:title=" ">
<polygon fill="none" stroke="#bfbfbf" points="702,-1662.5 702,-1730.5 836,-1730.5 836,-1662.5 702,-1662.5"/>
<text text-anchor="start" x="710" y="-1718.5" font-family="Helvetica,sans-Serif" font-size="10.00">std::enable_shared</text>
<text text-anchor="middle" x="769" y="-1707.5" font-family="Helvetica,sans-Serif" font-size="10.00">_from_this&lt; systemData &gt;</text>
<polyline fill="none" stroke="#bfbfbf" points="702,-1700.5 836,-1700.5 "/>
<text text-anchor="middle" x="769" y="-1688.5" font-family="Helvetica,sans-Serif" font-size="10.00"> </text>
<polyline fill="none" stroke="#bfbfbf" points="702,-1681.5 836,-1681.5 "/>
<text text-anchor="middle" x="769" y="-1669.5" font-family="Helvetica,sans-Serif" font-size="10.00"> </text>
</a>
</g>
</g>
<!-- Node4&#45;&gt;Node3 -->
<g id="edge3" class="edge">
<title>Node4&#45;&gt;Node3</title>
<path fill="none" stroke="midnightblue" d="M763.76,-1652.17C761.68,-1635 759.05,-1613.32 756.01,-1588.19"/>
<polygon fill="none" stroke="midnightblue" points="760.3,-1652.76 764.98,-1662.27 767.25,-1651.92 760.3,-1652.76"/>
</g>
<!-- Node5&#45;&gt;Node3 -->
<g id="edge4" class="edge">
<title>Node5&#45;&gt;Node3</title>
<path fill="none" stroke="#404040" d="M616.76,-1667.73C617.45,-1656.87 618.33,-1643.09 619.36,-1626.9"/>
<polygon fill="none" stroke="#404040" points="619.37,-1626.66 615.76,-1620.42 620.13,-1614.68 623.74,-1620.93 619.37,-1626.66"/>
<text text-anchor="middle" x="644.5" y="-1636" font-family="Helvetica,sans-Serif" font-size="10.00"> &#45;m_gsdUtil</text>
</g>
<!-- Node6 -->
<g id="node6" class="node">
<title>Node6</title>
<g id="a_node6"><a xlink:title="STL class.">
<polygon fill="none" stroke="#bfbfbf" points="498.5,-1888.5 498.5,-1945.5 603.5,-1945.5 603.5,-1888.5 498.5,-1888.5"/>
<text text-anchor="middle" x="551" y="-1933.5" font-family="Helvetica,sans-Serif" font-size="10.00">std::shared_ptr&lt; T &gt;</text>
<polyline fill="none" stroke="#bfbfbf" points="498.5,-1926.5 603.5,-1926.5 "/>
<text text-anchor="middle" x="551" y="-1914.5" font-family="Helvetica,sans-Serif" font-size="10.00"> </text>
<polyline fill="none" stroke="#bfbfbf" points="498.5,-1907.5 603.5,-1907.5 "/>
<text text-anchor="start" x="506.5" y="-1895.5" font-family="Helvetica,sans-Serif" font-size="10.00">+ operator&#45;&gt;()</text>
</a>
</g>
</g>
<!-- Node6&#45;&gt;Node2 -->
<g id="edge22" class="edge">
<title>Node6&#45;&gt;Node2</title>
<path fill="none" stroke="orange" d="M547.28,-1878.04C543.83,-1840.68 538.93,-1781.97 537,-1731 535.84,-1700.36 536.67,-1692.66 537,-1662 544.56,-969.88 259.24,-722.98 571,-105 580.83,-85.52 598.34,-69.61 615.8,-57.55"/>
<polygon fill="orange" stroke="orange" points="543.84,-1878.83 548.26,-1888.46 550.81,-1878.17 543.84,-1878.83"/>
<text text-anchor="middle" x="575.5" y="-1636" font-family="Helvetica,sans-Serif" font-size="10.00"> &lt; systemData &gt;</text>
</g>
<!-- Node6&#45;&gt;Node5 -->
<g id="edge6" class="edge">
<title>Node6&#45;&gt;Node5</title>
<path fill="none" stroke="orange" d="M561.93,-1878.68C574.68,-1835.17 595.45,-1764.24 606.86,-1725.29"/>
<polygon fill="orange" stroke="orange" points="558.56,-1877.75 559.11,-1888.33 565.28,-1879.71 558.56,-1877.75"/>
<text text-anchor="middle" x="629" y="-1768.5" font-family="Helvetica,sans-Serif" font-size="10.00"> &lt; GSDUtil &gt;</text>
</g>
<!-- Node10 -->
<g id="node10" class="node">
<title>Node10</title>
<g id="a_node10"><a xlink:title=" ">
<polygon fill="none" stroke="#bfbfbf" points="378.5,-1662.5 378.5,-1730.5 485.5,-1730.5 485.5,-1662.5 378.5,-1662.5"/>
<text text-anchor="start" x="386.5" y="-1718.5" font-family="Helvetica,sans-Serif" font-size="10.00">std::shared_ptr&lt; gsd</text>
<text text-anchor="middle" x="432" y="-1707.5" font-family="Helvetica,sans-Serif" font-size="10.00">_handle &gt;</text>
<polyline fill="none" stroke="#bfbfbf" points="378.5,-1700.5 485.5,-1700.5 "/>
<text text-anchor="middle" x="432" y="-1688.5" font-family="Helvetica,sans-Serif" font-size="10.00"> </text>
<polyline fill="none" stroke="#bfbfbf" points="378.5,-1681.5 485.5,-1681.5 "/>
<text text-anchor="start" x="386.5" y="-1669.5" font-family="Helvetica,sans-Serif" font-size="10.00">+ operator&#45;&gt;()</text>
</a>
</g>
</g>
<!-- Node6&#45;&gt;Node10 -->
<g id="edge21" class="edge">
<title>Node6&#45;&gt;Node10</title>
<path fill="none" stroke="orange" d="M503.98,-1881.85C477.76,-1859.8 447.54,-1828.63 433,-1793 424.98,-1773.35 424.73,-1749.48 426.48,-1730.51"/>
<polygon fill="orange" stroke="orange" points="502.01,-1884.76 511.96,-1888.39 506.45,-1879.35 502.01,-1884.76"/>
<text text-anchor="middle" x="468.5" y="-1768.5" font-family="Helvetica,sans-Serif" font-size="10.00"> &lt; gsd_handle &gt;</text>
</g>
<!-- Node7 -->
<g id="node7" class="node">
<title>Node7</title>
<g id="a_node7"><a xlink:title=" ">
<polygon fill="none" stroke="#bfbfbf" points="576.5,-2147.5 576.5,-2204.5 605.5,-2204.5 605.5,-2147.5 576.5,-2147.5"/>
<text text-anchor="middle" x="591" y="-2192.5" font-family="Helvetica,sans-Serif" font-size="10.00">T</text>
<polyline fill="none" stroke="#bfbfbf" points="576.5,-2185.5 605.5,-2185.5 "/>
<text text-anchor="middle" x="591" y="-2173.5" font-family="Helvetica,sans-Serif" font-size="10.00"> </text>
<polyline fill="none" stroke="#bfbfbf" points="576.5,-2166.5 605.5,-2166.5 "/>
<text text-anchor="middle" x="591" y="-2154.5" font-family="Helvetica,sans-Serif" font-size="10.00"> </text>
</a>
</g>
</g>
<!-- Node7&#45;&gt;Node6 -->
<g id="edge7" class="edge">
<title>Node7&#45;&gt;Node6</title>
<path fill="none" stroke="#404040" d="M586.72,-2147.5C579.63,-2101.92 565.4,-2010.55 557.21,-1957.88"/>
<polygon fill="none" stroke="#404040" points="557.16,-1957.55 552.28,-1952.24 555.31,-1945.69 560.19,-1951.01 557.16,-1957.55"/>
<text text-anchor="middle" x="585.5" y="-2055" font-family="Helvetica,sans-Serif" font-size="10.00"> +ptr</text>
</g>
<!-- Node8 -->
<g id="node8" class="node">
<title>Node8</title>
<g id="a_node8"><a xlink:title="STL class.">
<polygon fill="none" stroke="#bfbfbf" points="883,-2147.5 883,-2204.5 943,-2204.5 943,-2147.5 883,-2147.5"/>
<text text-anchor="middle" x="913" y="-2192.5" font-family="Helvetica,sans-Serif" font-size="10.00">std::string</text>
<polyline fill="none" stroke="#bfbfbf" points="883,-2185.5 943,-2185.5 "/>
<text text-anchor="middle" x="913" y="-2173.5" font-family="Helvetica,sans-Serif" font-size="10.00"> </text>
<polyline fill="none" stroke="#bfbfbf" points="883,-2166.5 943,-2166.5 "/>
<text text-anchor="middle" x="913" y="-2154.5" font-family="Helvetica,sans-Serif" font-size="10.00"> </text>
</a>
</g>
</g>
<!-- Node8&#45;&gt;Node1 -->
<g id="edge23" class="edge">
<title>Node8&#45;&gt;Node1</title>
<path fill="none" stroke="#404040" d="M918.35,-2147.5C923.65,-2120.27 932.12,-2076.71 940.27,-2034.82"/>
<polygon fill="none" stroke="#404040" points="940.33,-2034.55 937.54,-2027.89 942.62,-2022.77 945.4,-2029.42 940.33,-2034.55"/>
<text text-anchor="middle" x="967.5" y="-2060.5" font-family="Helvetica,sans-Serif" font-size="10.00"> &#45;m_logName</text>
<text text-anchor="middle" x="967.5" y="-2049.5" font-family="Helvetica,sans-Serif" font-size="10.00">&#45;m_logFile</text>
</g>
<!-- Node8&#45;&gt;Node3 -->
<g id="edge8" class="edge">
<title>Node8&#45;&gt;Node3</title>
<path fill="none" stroke="#404040" d="M909.08,-2147.22C900.24,-2084.24 878.14,-1925.76 861,-1793 853.49,-1734.83 854.89,-1719.81 845,-1662 821.1,-1522.33 789.04,-1370.23 758.77,-1236.46"/>
<polygon fill="none" stroke="#404040" points="758.69,-1236.11 753.46,-1231.14 756.04,-1224.4 761.26,-1229.37 758.69,-1236.11"/>
<text text-anchor="middle" x="899" y="-1785" font-family="Helvetica,sans-Serif" font-size="10.00"> &#45;m_outputDir</text>
<text text-anchor="middle" x="899" y="-1774" font-family="Helvetica,sans-Serif" font-size="10.00">&#45;m_logName</text>
<text text-anchor="middle" x="899" y="-1763" font-family="Helvetica,sans-Serif" font-size="10.00">&#45;m_logFile</text>
<text text-anchor="middle" x="899" y="-1752" font-family="Helvetica,sans-Serif" font-size="10.00">&#45;m_inputGSDFile</text>
</g>
<!-- Node9 -->
<g id="node9" class="node">
<title>Node9</title>
<g id="a_node9"><a xlink:title="STL class.">
<polygon fill="none" stroke="#bfbfbf" points="865.5,-2335 865.5,-2403 960.5,-2403 960.5,-2335 865.5,-2335"/>
<text text-anchor="start" x="873.5" y="-2391" font-family="Helvetica,sans-Serif" font-size="10.00">std::basic_string&lt;</text>
<text text-anchor="middle" x="913" y="-2380" font-family="Helvetica,sans-Serif" font-size="10.00"> char &gt;</text>
<polyline fill="none" stroke="#bfbfbf" points="865.5,-2373 960.5,-2373 "/>
<text text-anchor="middle" x="913" y="-2361" font-family="Helvetica,sans-Serif" font-size="10.00"> </text>
<polyline fill="none" stroke="#bfbfbf" points="865.5,-2354 960.5,-2354 "/>
<text text-anchor="middle" x="913" y="-2342" font-family="Helvetica,sans-Serif" font-size="10.00"> </text>
</a>
</g>
</g>
<!-- Node9&#45;&gt;Node8 -->
<g id="edge9" class="edge">
<title>Node9&#45;&gt;Node8</title>
<path fill="none" stroke="midnightblue" d="M913,-2324.29C913,-2287.49 913,-2235.97 913,-2204.63"/>
<polygon fill="none" stroke="midnightblue" points="909.5,-2324.73 913,-2334.73 916.5,-2324.73 909.5,-2324.73"/>
</g>
<!-- Node10&#45;&gt;Node3 -->
<g id="edge10" class="edge">
<title>Node10&#45;&gt;Node3</title>
<path fill="none" stroke="#404040" d="M439.67,-1662.35C441.95,-1652.85 444.5,-1642.5 447,-1633 487.35,-1479.57 535.5,-1309.99 576.54,-1168.94"/>
<polygon fill="none" stroke="#404040" points="576.63,-1168.64 574.47,-1161.76 579.98,-1157.12 582.15,-1164 576.63,-1168.64"/>
<text text-anchor="middle" x="471.5" y="-1636" font-family="Helvetica,sans-Serif" font-size="10.00"> &#45;m_handle</text>
</g>
<!-- Node11 -->
<g id="node11" class="node">
<title>Node11</title>
<g id="a_node11"><a xlink:href="structgsd__handle.html" target="_top" xlink:title=" ">
<polygon fill="none" stroke="black" points="303.5,-1872 303.5,-1962 376.5,-1962 376.5,-1872 303.5,-1872"/>
<text text-anchor="middle" x="340" y="-1950" font-family="Helvetica,sans-Serif" font-size="10.00">gsd_handle</text>
<polyline fill="none" stroke="black" points="303.5,-1943 376.5,-1943 "/>
<text text-anchor="start" x="311.5" y="-1931" font-family="Helvetica,sans-Serif" font-size="10.00">+ fd</text>
<text text-anchor="start" x="311.5" y="-1920" font-family="Helvetica,sans-Serif" font-size="10.00">+ cur_frame</text>
<text text-anchor="start" x="311.5" y="-1909" font-family="Helvetica,sans-Serif" font-size="10.00">+ file_size</text>
<text text-anchor="start" x="311.5" y="-1898" font-family="Helvetica,sans-Serif" font-size="10.00">+ open_flags</text>
<polyline fill="none" stroke="black" points="303.5,-1891 376.5,-1891 "/>
<text text-anchor="middle" x="340" y="-1879" font-family="Helvetica,sans-Serif" font-size="10.00"> </text>
</a>
</g>
</g>
<!-- Node11&#45;&gt;Node10 -->
<g id="edge11" class="edge">
<title>Node11&#45;&gt;Node10</title>
<path fill="none" stroke="#404040" d="M347.78,-1871.91C355.11,-1837.09 368.15,-1788.05 389,-1749 390.52,-1746.16 392.21,-1743.33 394.02,-1740.55"/>
<polygon fill="none" stroke="#404040" points="394.05,-1740.5 394.25,-1733.29 400.99,-1730.71 400.78,-1737.92 394.05,-1740.5"/>
<text text-anchor="middle" x="399.5" y="-1768.5" font-family="Helvetica,sans-Serif" font-size="10.00"> +ptr</text>
</g>
<!-- Node12 -->
<g id="node12" class="node">
<title>Node12</title>
<g id="a_node12"><a xlink:href="structgsd__index__buffer.html" target="_top" xlink:title=" ">
<polygon fill="none" stroke="black" points="0,-2131 0,-2221 90,-2221 90,-2131 0,-2131"/>
<text text-anchor="middle" x="45" y="-2209" font-family="Helvetica,sans-Serif" font-size="10.00">gsd_index_buffer</text>
<polyline fill="none" stroke="black" points="0,-2202 90,-2202 "/>
<text text-anchor="start" x="8" y="-2190" font-family="Helvetica,sans-Serif" font-size="10.00">+ size</text>
<text text-anchor="start" x="8" y="-2179" font-family="Helvetica,sans-Serif" font-size="10.00">+ reserved</text>
<text text-anchor="start" x="8" y="-2168" font-family="Helvetica,sans-Serif" font-size="10.00">+ mapped_data</text>
<text text-anchor="start" x="8" y="-2157" font-family="Helvetica,sans-Serif" font-size="10.00">+ mapped_len</text>
<polyline fill="none" stroke="black" points="0,-2150 90,-2150 "/>
<text text-anchor="middle" x="45" y="-2138" font-family="Helvetica,sans-Serif" font-size="10.00"> </text>
</a>
</g>
</g>
<!-- Node12&#45;&gt;Node11 -->
<g id="edge12" class="edge">
<title>Node12&#45;&gt;Node11</title>
<path fill="none" stroke="#404040" d="M69.69,-2130.58C78.08,-2117.42 88.12,-2103.47 99,-2092 157.69,-2030.13 241.02,-1975.63 292.74,-1944.77"/>
<polygon fill="none" stroke="#404040" points="292.94,-1944.65 296.07,-1938.16 303.27,-1938.55 300.14,-1945.05 292.94,-1944.65"/>
<text text-anchor="middle" x="184" y="-2066" font-family="Helvetica,sans-Serif" font-size="10.00"> +buffer_index</text>
<text text-anchor="middle" x="184" y="-2055" font-family="Helvetica,sans-Serif" font-size="10.00">+frame_index</text>
<text text-anchor="middle" x="184" y="-2044" font-family="Helvetica,sans-Serif" font-size="10.00">+file_index</text>
</g>
<!-- Node13 -->
<g id="node13" class="node">
<title>Node13</title>
<g id="a_node13"><a xlink:href="structgsd__index__entry.html" target="_top" xlink:title=" ">
<polygon fill="none" stroke="black" points="1,-2307.5 1,-2430.5 89,-2430.5 89,-2307.5 1,-2307.5"/>
<text text-anchor="middle" x="45" y="-2418.5" font-family="Helvetica,sans-Serif" font-size="10.00">gsd_index_entry</text>
<polyline fill="none" stroke="black" points="1,-2411.5 89,-2411.5 "/>
<text text-anchor="start" x="9" y="-2399.5" font-family="Helvetica,sans-Serif" font-size="10.00">+ frame</text>
<text text-anchor="start" x="9" y="-2388.5" font-family="Helvetica,sans-Serif" font-size="10.00">+ N</text>
<text text-anchor="start" x="9" y="-2377.5" font-family="Helvetica,sans-Serif" font-size="10.00">+ location</text>
<text text-anchor="start" x="9" y="-2366.5" font-family="Helvetica,sans-Serif" font-size="10.00">+ M</text>
<text text-anchor="start" x="9" y="-2355.5" font-family="Helvetica,sans-Serif" font-size="10.00">+ id</text>
<text text-anchor="start" x="9" y="-2344.5" font-family="Helvetica,sans-Serif" font-size="10.00">+ type</text>
<text text-anchor="start" x="9" y="-2333.5" font-family="Helvetica,sans-Serif" font-size="10.00">+ flags</text>
<polyline fill="none" stroke="black" points="1,-2326.5 89,-2326.5 "/>
<text text-anchor="middle" x="45" y="-2314.5" font-family="Helvetica,sans-Serif" font-size="10.00"> </text>
</a>
</g>
</g>
<!-- Node13&#45;&gt;Node12 -->
<g id="edge13" class="edge">
<title>Node13&#45;&gt;Node12</title>
<path fill="none" stroke="#404040" d="M45,-2307.3C45,-2283.6 45,-2256.58 45,-2233.32"/>
<polygon fill="none" stroke="#404040" points="45,-2233.18 41,-2227.18 45,-2221.18 49,-2227.18 45,-2233.18"/>
<text text-anchor="middle" x="59" y="-2281" font-family="Helvetica,sans-Serif" font-size="10.00"> +data</text>
</g>
<!-- Node14 -->
<g id="node14" class="node">
<title>Node14</title>
<g id="a_node14"><a xlink:href="structgsd__header.html" target="_top" xlink:title=" ">
<polygon fill="none" stroke="black" points="108,-2092.5 108,-2259.5 236,-2259.5 236,-2092.5 108,-2092.5"/>
<text text-anchor="middle" x="172" y="-2247.5" font-family="Helvetica,sans-Serif" font-size="10.00">gsd_header</text>
<polyline fill="none" stroke="black" points="108,-2240.5 236,-2240.5 "/>
<text text-anchor="start" x="116" y="-2228.5" font-family="Helvetica,sans-Serif" font-size="10.00">+ magic</text>
<text text-anchor="start" x="116" y="-2217.5" font-family="Helvetica,sans-Serif" font-size="10.00">+ index_location</text>
<text text-anchor="start" x="116" y="-2206.5" font-family="Helvetica,sans-Serif" font-size="10.00">+ index_allocated_entries</text>
<text text-anchor="start" x="116" y="-2195.5" font-family="Helvetica,sans-Serif" font-size="10.00">+ namelist_location</text>
<text text-anchor="start" x="116" y="-2184.5" font-family="Helvetica,sans-Serif" font-size="10.00">+ namelist_allocated</text>
<text text-anchor="start" x="116" y="-2173.5" font-family="Helvetica,sans-Serif" font-size="10.00">_entries</text>
<text text-anchor="start" x="116" y="-2162.5" font-family="Helvetica,sans-Serif" font-size="10.00">+ schema_version</text>
<text text-anchor="start" x="116" y="-2151.5" font-family="Helvetica,sans-Serif" font-size="10.00">+ gsd_version</text>
<text text-anchor="start" x="116" y="-2140.5" font-family="Helvetica,sans-Serif" font-size="10.00">+ application</text>
<text text-anchor="start" x="116" y="-2129.5" font-family="Helvetica,sans-Serif" font-size="10.00">+ schema</text>
<text text-anchor="start" x="116" y="-2118.5" font-family="Helvetica,sans-Serif" font-size="10.00">+ reserved</text>
<polyline fill="none" stroke="black" points="108,-2111.5 236,-2111.5 "/>
<text text-anchor="middle" x="172" y="-2099.5" font-family="Helvetica,sans-Serif" font-size="10.00"> </text>
</a>
</g>
</g>
<!-- Node14&#45;&gt;Node11 -->
<g id="edge14" class="edge">
<title>Node14&#45;&gt;Node11</title>
<path fill="none" stroke="#404040" d="M223.02,-2092.47C233.79,-2075.38 245.17,-2057.54 256,-2041 270.85,-2018.32 287.62,-1993.58 302.26,-1972.28"/>
<polygon fill="none" stroke="#404040" points="302.44,-1972.01 302.55,-1964.8 309.25,-1962.12 309.14,-1969.33 302.44,-1972.01"/>
<text text-anchor="middle" x="275.5" y="-2055" font-family="Helvetica,sans-Serif" font-size="10.00"> +header</text>
</g>
<!-- Node15 -->
<g id="node15" class="node">
<title>Node15</title>
<g id="a_node15"><a xlink:href="structgsd__name__buffer.html" target="_top" xlink:title=" ">
<polygon fill="none" stroke="black" points="254.5,-2147.5 254.5,-2204.5 345.5,-2204.5 345.5,-2147.5 254.5,-2147.5"/>
<text text-anchor="middle" x="300" y="-2192.5" font-family="Helvetica,sans-Serif" font-size="10.00">gsd_name_buffer</text>
<polyline fill="none" stroke="black" points="254.5,-2185.5 345.5,-2185.5 "/>
<text text-anchor="start" x="262.5" y="-2173.5" font-family="Helvetica,sans-Serif" font-size="10.00">+ n_names</text>
<polyline fill="none" stroke="black" points="254.5,-2166.5 345.5,-2166.5 "/>
<text text-anchor="middle" x="300" y="-2154.5" font-family="Helvetica,sans-Serif" font-size="10.00"> </text>
</a>
</g>
</g>
<!-- Node15&#45;&gt;Node11 -->
<g id="edge15" class="edge">
<title>Node15&#45;&gt;Node11</title>
<path fill="none" stroke="#404040" d="M298.14,-2147.34C296.83,-2120.11 296.22,-2077.42 302,-2041 305.56,-2018.57 312.28,-1994.56 319.09,-1973.77"/>
<polygon fill="none" stroke="#404040" points="319.14,-1973.63 317.27,-1966.66 322.98,-1962.26 324.85,-1969.22 319.14,-1973.63"/>
<text text-anchor="middle" x="335" y="-2060.5" font-family="Helvetica,sans-Serif" font-size="10.00"> +file_names</text>
<text text-anchor="middle" x="335" y="-2049.5" font-family="Helvetica,sans-Serif" font-size="10.00">+frame_names</text>
</g>
<!-- Node16 -->
<g id="node16" class="node">
<title>Node16</title>
<g id="a_node16"><a xlink:href="structgsd__byte__buffer.html" target="_top" xlink:title=" ">
<polygon fill="none" stroke="black" points="307,-2329.5 307,-2408.5 393,-2408.5 393,-2329.5 307,-2329.5"/>
<text text-anchor="middle" x="350" y="-2396.5" font-family="Helvetica,sans-Serif" font-size="10.00">gsd_byte_buffer</text>
<polyline fill="none" stroke="black" points="307,-2389.5 393,-2389.5 "/>
<text text-anchor="start" x="315" y="-2377.5" font-family="Helvetica,sans-Serif" font-size="10.00">+ data</text>
<text text-anchor="start" x="315" y="-2366.5" font-family="Helvetica,sans-Serif" font-size="10.00">+ size</text>
<text text-anchor="start" x="315" y="-2355.5" font-family="Helvetica,sans-Serif" font-size="10.00">+ reserved</text>
<polyline fill="none" stroke="black" points="307,-2348.5 393,-2348.5 "/>
<text text-anchor="middle" x="350" y="-2336.5" font-family="Helvetica,sans-Serif" font-size="10.00"> </text>
</a>
</g>
</g>
<!-- Node16&#45;&gt;Node11 -->
<g id="edge17" class="edge">
<title>Node16&#45;&gt;Node11</title>
<path fill="none" stroke="#404040" d="M356.28,-2329.37C365.31,-2268.07 379.67,-2144.82 368,-2041 365.52,-2018.9 360.6,-1994.97 355.56,-1974.15"/>
<polygon fill="none" stroke="#404040" points="355.51,-1973.93 350.18,-1969.07 352.6,-1962.28 357.94,-1967.14 355.51,-1973.93"/>
<text text-anchor="middle" x="403" y="-2173.5" font-family="Helvetica,sans-Serif" font-size="10.00"> +write_buffer</text>
</g>
<!-- Node16&#45;&gt;Node15 -->
<g id="edge16" class="edge">
<title>Node16&#45;&gt;Node15</title>
<path fill="none" stroke="#404040" d="M339.88,-2329.35C331.3,-2296.58 319.05,-2249.78 310.4,-2216.71"/>
<polygon fill="none" stroke="#404040" points="310.31,-2216.38 304.92,-2211.59 307.27,-2204.77 312.66,-2209.56 310.31,-2216.38"/>
<text text-anchor="middle" x="342" y="-2281" font-family="Helvetica,sans-Serif" font-size="10.00"> +data</text>
</g>
<!-- Node17 -->
<g id="node17" class="node">
<title>Node17</title>
<g id="a_node17"><a xlink:href="structgsd__name__id__map.html" target="_top" xlink:title=" ">
<polygon fill="none" stroke="black" points="460,-2147.5 460,-2204.5 558,-2204.5 558,-2147.5 460,-2147.5"/>
<text text-anchor="middle" x="509" y="-2192.5" font-family="Helvetica,sans-Serif" font-size="10.00">gsd_name_id_map</text>
<polyline fill="none" stroke="black" points="460,-2185.5 558,-2185.5 "/>
<text text-anchor="start" x="468" y="-2173.5" font-family="Helvetica,sans-Serif" font-size="10.00">+ size</text>
<polyline fill="none" stroke="black" points="460,-2166.5 558,-2166.5 "/>
<text text-anchor="middle" x="509" y="-2154.5" font-family="Helvetica,sans-Serif" font-size="10.00"> </text>
</a>
</g>
</g>
<!-- Node17&#45;&gt;Node11 -->
<g id="edge18" class="edge">
<title>Node17&#45;&gt;Node11</title>
<path fill="none" stroke="#404040" d="M490.91,-2147.5C463.56,-2105.89 411.11,-2026.13 375.83,-1972.48"/>
<polygon fill="none" stroke="#404040" points="375.83,-1972.48 369.19,-1969.67 369.23,-1962.45 375.87,-1965.27 375.83,-1972.48"/>
<text text-anchor="middle" x="469" y="-2055" font-family="Helvetica,sans-Serif" font-size="10.00"> +name_map</text>
</g>
<!-- Node18 -->
<g id="node18" class="node">
<title>Node18</title>
<g id="a_node18"><a xlink:href="structgsd__name__id__pair.html" target="_top" xlink:title=" ">
<polygon fill="none" stroke="black" points="461.5,-2335 461.5,-2403 556.5,-2403 556.5,-2335 461.5,-2335"/>
<text text-anchor="middle" x="509" y="-2391" font-family="Helvetica,sans-Serif" font-size="10.00">gsd_name_id_pair</text>
<polyline fill="none" stroke="black" points="461.5,-2384 556.5,-2384 "/>
<text text-anchor="start" x="469.5" y="-2372" font-family="Helvetica,sans-Serif" font-size="10.00">+ name</text>
<text text-anchor="start" x="469.5" y="-2361" font-family="Helvetica,sans-Serif" font-size="10.00">+ id</text>
<polyline fill="none" stroke="black" points="461.5,-2354 556.5,-2354 "/>
<text text-anchor="middle" x="509" y="-2342" font-family="Helvetica,sans-Serif" font-size="10.00"> </text>
</a>
</g>
</g>
<!-- Node18&#45;&gt;Node17 -->
<g id="edge19" class="edge">
<title>Node18&#45;&gt;Node17</title>
<path fill="none" stroke="#404040" d="M509,-2334.73C509,-2301.89 509,-2251.66 509,-2216.74"/>
<polygon fill="none" stroke="#404040" points="509,-2216.63 505,-2210.63 509,-2204.63 513,-2210.63 509,-2216.63"/>
<text text-anchor="middle" x="516.5" y="-2281" font-family="Helvetica,sans-Serif" font-size="10.00"> +v</text>
</g>
<!-- Node18&#45;&gt;Node18 -->
<g id="edge20" class="edge">
<title>Node18&#45;&gt;Node18</title>
<path fill="none" stroke="#404040" d="M556.69,-2384.28C567.01,-2382.79 574.5,-2377.7 574.5,-2369 574.5,-2364.11 572.13,-2360.36 568.22,-2357.74"/>
<polygon fill="none" stroke="#404040" points="568.02,-2357.67 561.03,-2359.47 556.69,-2353.72 563.67,-2351.92 568.02,-2357.67"/>
<text text-anchor="middle" x="588.5" y="-2366.5" font-family="Helvetica,sans-Serif" font-size="10.00"> +next</text>
</g>
</g>
</svg>
