<?xml version="1.0" encoding="UTF-8" standalone="no"?>
<!DOCTYPE svg PUBLIC "-//W3C//DTD SVG 1.1//EN"
 "http://www.w3.org/Graphics/SVG/1.1/DTD/svg11.dtd">
<!-- Generated by graphviz version 2.43.0 (0)
 -->
<!-- Title: SystemData::eMatrix Pages: 1 -->
<svg width="725pt" height="88pt"
 viewBox="0.00 0.00 725.00 88.00" xmlns="http://www.w3.org/2000/svg" xmlns:xlink="http://www.w3.org/1999/xlink">
<g id="graph0" class="graph" transform="scale(1 1) rotate(0) translate(4 84)">
<title>SystemData::eMatrix</title>
<!-- Node1 -->
<g id="node1" class="node">
<title>Node1</title>
<g id="a_node1"><a xlink:title="Computes the E matrix of quaternion (4&#45;vector) input.">
<polygon fill="#bfbfbf" stroke="black" points="607,-30 607,-49 717,-49 717,-30 607,-30"/>
<text text-anchor="middle" x="662" y="-37" font-family="Helvetica,sans-Serif" font-size="10.00">SystemData::eMatrix</text>
</a>
</g>
</g>
<!-- Node2 -->
<g id="node2" class="node">
<title>Node2</title>
<g id="a_node2"><a xlink:href="classSystemData.html#a301fa1815b3b68cffc789f1824e29f5e" target="_top" xlink:title="Computes the gradients rigid body motion connectivity tensors and tensors associated with change of v...">
<polygon fill="none" stroke="black" points="424.5,-49.5 424.5,-79.5 570.5,-79.5 570.5,-49.5 424.5,-49.5"/>
<text text-anchor="start" x="432.5" y="-67.5" font-family="Helvetica,sans-Serif" font-size="10.00">SystemData::gradientChange</text>
<text text-anchor="middle" x="497.5" y="-56.5" font-family="Helvetica,sans-Serif" font-size="10.00">OfVariableTensors</text>
</a>
</g>
</g>
<!-- Node1&#45;&gt;Node2 -->
<g id="edge1" class="edge">
<title>Node1&#45;&gt;Node2</title>
<path fill="none" stroke="midnightblue" d="M596.9,-49.36C588.26,-50.69 579.36,-52.06 570.59,-53.41"/>
<polygon fill="midnightblue" stroke="midnightblue" points="597.54,-52.8 606.89,-47.82 596.47,-45.89 597.54,-52.8"/>
</g>
<!-- Node6 -->
<g id="node6" class="node">
<title>Node6</title>
<g id="a_node6"><a xlink:href="classSystemData.html#ae08b2263f2981e57d0f12ba7881a083b" target="_top" xlink:title="Computes the rigid body motion connectivity tensors.">
<polygon fill="none" stroke="black" points="424,-0.5 424,-30.5 571,-30.5 571,-0.5 424,-0.5"/>
<text text-anchor="start" x="432" y="-18.5" font-family="Helvetica,sans-Serif" font-size="10.00">SystemData::rigidBodyMotion</text>
<text text-anchor="middle" x="497.5" y="-7.5" font-family="Helvetica,sans-Serif" font-size="10.00">Tensors</text>
</a>
</g>
</g>
<!-- Node1&#45;&gt;Node6 -->
<g id="edge5" class="edge">
<title>Node1&#45;&gt;Node6</title>
<path fill="none" stroke="midnightblue" d="M596.78,-30.02C588.37,-28.77 579.71,-27.49 571.17,-26.23"/>
<polygon fill="midnightblue" stroke="midnightblue" points="596.49,-33.51 606.89,-31.51 597.51,-26.58 596.49,-33.51"/>
</g>
<!-- Node3 -->
<g id="node3" class="node">
<title>Node3</title>
<g id="a_node3"><a xlink:href="classSystemData.html#aa1dc8988cbb137f2667af95ca52a709c" target="_top" xlink:title="Updates all relevant rigid body motion tensors, respective gradients, and kinematic/Udwadia constrain...">
<polygon fill="none" stroke="black" points="281,-30 281,-49 388,-49 388,-30 281,-30"/>
<text text-anchor="middle" x="334.5" y="-37" font-family="Helvetica,sans-Serif" font-size="10.00">SystemData::update</text>
</a>
</g>
</g>
<!-- Node2&#45;&gt;Node3 -->
<g id="edge2" class="edge">
<title>Node2&#45;&gt;Node3</title>
<path fill="none" stroke="midnightblue" d="M414.41,-51.75C405.49,-50.37 396.59,-48.99 388.16,-47.68"/>
<polygon fill="midnightblue" stroke="midnightblue" points="414.06,-55.24 424.48,-53.32 415.13,-48.32 414.06,-55.24"/>
</g>
<!-- Node4 -->
<g id="node4" class="node">
<title>Node4</title>
<g id="a_node4"><a xlink:href="classSystemData.html#ac3a796dc8bf1fa82ea6dec33e548924f" target="_top" xlink:title="Function loads data from GSD file using GSDUtil class.">
<polygon fill="none" stroke="black" points="111,-30 111,-49 245,-49 245,-30 111,-30"/>
<text text-anchor="middle" x="178" y="-37" font-family="Helvetica,sans-Serif" font-size="10.00">SystemData::initializeData</text>
</a>
</g>
</g>
<!-- Node3&#45;&gt;Node4 -->
<g id="edge3" class="edge">
<title>Node3&#45;&gt;Node4</title>
<path fill="none" stroke="midnightblue" d="M270.66,-39.5C262.26,-39.5 253.62,-39.5 245.16,-39.5"/>
<polygon fill="midnightblue" stroke="midnightblue" points="270.76,-43 280.76,-39.5 270.76,-36 270.76,-43"/>
</g>
<!-- Node5 -->
<g id="node5" class="node">
<title>Node5</title>
<g id="a_node5"><a xlink:href="TestSimulation_8cpp.html#a227401f331fbabbd263158efc43b3bf6" target="_top" xlink:title=" ">
<polygon fill="none" stroke="black" points="0,-30 0,-49 75,-49 75,-30 0,-30"/>
<text text-anchor="middle" x="37.5" y="-37" font-family="Helvetica,sans-Serif" font-size="10.00">TEST_CASE</text>
</a>
</g>
</g>
<!-- Node4&#45;&gt;Node5 -->
<g id="edge4" class="edge">
<title>Node4&#45;&gt;Node5</title>
<path fill="none" stroke="midnightblue" d="M100.94,-39.5C92.06,-39.5 83.33,-39.5 75.34,-39.5"/>
<polygon fill="midnightblue" stroke="midnightblue" points="101,-43 111,-39.5 101,-36 101,-43"/>
</g>
<!-- Node6&#45;&gt;Node3 -->
<g id="edge6" class="edge">
<title>Node6&#45;&gt;Node3</title>
<path fill="none" stroke="midnightblue" d="M413.54,-27.87C405.02,-29.14 396.53,-30.4 388.47,-31.6"/>
<polygon fill="midnightblue" stroke="midnightblue" points="414.16,-31.31 423.54,-26.38 413.13,-24.39 414.16,-31.31"/>
</g>
</g>
</svg>
