<?xml version="1.0" encoding="UTF-8" standalone="no"?>
<!DOCTYPE svg PUBLIC "-//W3C//DTD SVG 1.1//EN"
 "http://www.w3.org/Graphics/SVG/1.1/DTD/svg11.dtd">
<!-- Generated by graphviz version 2.49.1 (20210923.0004)
 -->
<!-- Title: plotStyling.PlotStyling.fix_unicode_chars Pages: 1 -->
<svg width="327pt" height="226pt"
 viewBox="0.00 0.00 327.00 225.50" xmlns="http://www.w3.org/2000/svg" xmlns:xlink="http://www.w3.org/1999/xlink">
<g id="graph0" class="graph" transform="scale(1 1) rotate(0) translate(4 221.5)">
<title>plotStyling.PlotStyling.fix_unicode_chars</title>
<!-- Node1 -->
<g id="node1" class="node">
<title>Node1</title>
<g id="a_node1"><a xlink:title=" ">
<polygon fill="#bfbfbf" stroke="black" points="194,-90.5 194,-120.5 319,-120.5 319,-90.5 194,-90.5"/>
<text text-anchor="start" x="202" y="-108.5" font-family="Helvetica,sans-Serif" font-size="10.00">plotStyling.PlotStyling.fix</text>
<text text-anchor="middle" x="256.5" y="-97.5" font-family="Helvetica,sans-Serif" font-size="10.00">_unicode_chars</text>
</a>
</g>
</g>
<!-- Node1&#45;&gt;Node1 -->
<g id="edge3" class="edge">
<title>Node1&#45;&gt;Node1</title>
<path fill="none" stroke="midnightblue" d="M287.77,-130.96C283.89,-135.68 273.47,-139 256.5,-139 228.66,-139 218.43,-130.06 225.83,-120.66"/>
<polygon fill="midnightblue" stroke="midnightblue" points="291.25,-130.44 287.17,-120.66 284.26,-130.85 291.25,-130.44"/>
</g>
<!-- Node2 -->
<g id="node2" class="node">
<title>Node2</title>
<g id="a_node2"><a xlink:href="classplotStyling_1_1PlotStyling.html#a04d7b01c0a39c9749118441a35554923" target="_top" xlink:title=" ">
<polygon fill="none" stroke="black" points="9,-180 9,-199 149,-199 149,-180 9,-180"/>
<text text-anchor="middle" x="79" y="-187" font-family="Helvetica,sans-Serif" font-size="10.00">plotStyling.PlotStyling.curve</text>
</a>
</g>
</g>
<!-- Node1&#45;&gt;Node2 -->
<g id="edge1" class="edge">
<title>Node1&#45;&gt;Node2</title>
<path fill="none" stroke="midnightblue" d="M229.14,-126.78C210.32,-141.02 183.85,-159.16 158,-170.5 149.32,-174.31 139.75,-177.43 130.37,-179.97"/>
<polygon fill="midnightblue" stroke="midnightblue" points="231.44,-129.43 237.23,-120.55 227.17,-123.88 231.44,-129.43"/>
</g>
<!-- Node3 -->
<g id="node3" class="node">
<title>Node3</title>
<g id="a_node3"><a xlink:href="classplotStyling_1_1PlotStyling.html#ae9dad8a775b78d990054ce69ab8bff44" target="_top" xlink:title=" ">
<polygon fill="none" stroke="black" points="0,-124 0,-143 158,-143 158,-124 0,-124"/>
<text text-anchor="middle" x="79" y="-131" font-family="Helvetica,sans-Serif" font-size="10.00">plotStyling.PlotStyling.save_plot</text>
</a>
</g>
</g>
<!-- Node1&#45;&gt;Node3 -->
<g id="edge4" class="edge">
<title>Node1&#45;&gt;Node3</title>
<path fill="none" stroke="midnightblue" d="M183.6,-116.97C168.96,-119.31 153.71,-121.74 139.55,-124"/>
<polygon fill="midnightblue" stroke="midnightblue" points="184.3,-120.4 193.63,-115.37 183.2,-113.49 184.3,-120.4"/>
</g>
<!-- Node4 -->
<g id="node4" class="node">
<title>Node4</title>
<g id="a_node4"><a xlink:href="classplotStyling_1_1PlotStyling.html#a80a5368cd8edc6ada4f8aff47c02bbac" target="_top" xlink:title=" ">
<polygon fill="none" stroke="black" points="6.5,-68 6.5,-87 151.5,-87 151.5,-68 6.5,-68"/>
<text text-anchor="middle" x="79" y="-75" font-family="Helvetica,sans-Serif" font-size="10.00">plotStyling.PlotStyling.scatter</text>
</a>
</g>
</g>
<!-- Node1&#45;&gt;Node4 -->
<g id="edge6" class="edge">
<title>Node1&#45;&gt;Node4</title>
<path fill="none" stroke="midnightblue" d="M183.6,-94.03C168.96,-91.69 153.71,-89.26 139.55,-87"/>
<polygon fill="midnightblue" stroke="midnightblue" points="183.2,-97.51 193.63,-95.63 184.3,-90.6 183.2,-97.51"/>
</g>
<!-- Node5 -->
<g id="node5" class="node">
<title>Node5</title>
<g id="a_node5"><a xlink:href="classplotStyling_1_1PlotStyling.html#a9ac60643dc06c24e2287342c431f0f1e" target="_top" xlink:title=" ">
<polygon fill="none" stroke="black" points="6.5,-0.5 6.5,-30.5 151.5,-30.5 151.5,-0.5 6.5,-0.5"/>
<text text-anchor="start" x="14.5" y="-18.5" font-family="Helvetica,sans-Serif" font-size="10.00">plotStyling.PlotStyling.scatter</text>
<text text-anchor="middle" x="79" y="-7.5" font-family="Helvetica,sans-Serif" font-size="10.00">_dashed</text>
</a>
</g>
</g>
<!-- Node1&#45;&gt;Node5 -->
<g id="edge8" class="edge">
<title>Node1&#45;&gt;Node5</title>
<path fill="none" stroke="midnightblue" d="M216.95,-85.73C184.57,-69.13 138.99,-45.75 109.47,-30.61"/>
<polygon fill="midnightblue" stroke="midnightblue" points="215.63,-88.99 226.13,-90.44 218.82,-82.76 215.63,-88.99"/>
</g>
<!-- Node2&#45;&gt;Node2 -->
<g id="edge2" class="edge">
<title>Node2&#45;&gt;Node2</title>
<path fill="none" stroke="midnightblue" d="M111.98,-207.39C111.5,-213.04 100.51,-217.5 79,-217.5 47.72,-217.5 38.68,-208.07 51.87,-199.26"/>
<polygon fill="midnightblue" stroke="midnightblue" points="114.81,-205.33 106.13,-199.26 109.13,-209.42 114.81,-205.33"/>
</g>
<!-- Node3&#45;&gt;Node3 -->
<g id="edge5" class="edge">
<title>Node3&#45;&gt;Node3</title>
<path fill="none" stroke="midnightblue" d="M111.98,-151.39C111.5,-157.04 100.51,-161.5 79,-161.5 47.72,-161.5 38.68,-152.07 51.87,-143.26"/>
<polygon fill="midnightblue" stroke="midnightblue" points="114.81,-149.33 106.13,-143.26 109.13,-153.42 114.81,-149.33"/>
</g>
<!-- Node4&#45;&gt;Node4 -->
<g id="edge7" class="edge">
<title>Node4&#45;&gt;Node4</title>
<path fill="none" stroke="midnightblue" d="M111.98,-95.39C111.5,-101.04 100.51,-105.5 79,-105.5 47.72,-105.5 38.68,-96.07 51.87,-87.26"/>
<polygon fill="midnightblue" stroke="midnightblue" points="114.81,-93.33 106.13,-87.26 109.13,-97.42 114.81,-93.33"/>
</g>
<!-- Node5&#45;&gt;Node5 -->
<g id="edge9" class="edge">
<title>Node5&#45;&gt;Node5</title>
<path fill="none" stroke="midnightblue" d="M110.27,-40.96C106.39,-45.68 95.97,-49 79,-49 51.16,-49 40.93,-40.06 48.33,-30.66"/>
<polygon fill="midnightblue" stroke="midnightblue" points="113.75,-40.44 109.67,-30.66 106.76,-40.85 113.75,-40.44"/>
</g>
</g>
</svg>
