<?xml version="1.0" encoding="UTF-8" standalone="no"?>
<!DOCTYPE svg PUBLIC "-//W3C//DTD SVG 1.1//EN"
 "http://www.w3.org/Graphics/SVG/1.1/DTD/svg11.dtd">
<!-- Generated by graphviz version 2.43.0 (0)
 -->
<!-- Title: SystemData::crossProdMat Pages: 1 -->
<svg width="946pt" height="88pt"
 viewBox="0.00 0.00 946.00 88.00" xmlns="http://www.w3.org/2000/svg" xmlns:xlink="http://www.w3.org/1999/xlink">
<g id="graph0" class="graph" transform="scale(1 1) rotate(0) translate(4 84)">
<title>SystemData::crossProdMat</title>
<!-- Node1 -->
<g id="node1" class="node">
<title>Node1</title>
<g id="a_node1"><a xlink:title="Function takes in vector in vector cross&#45;product expression: .">
<polygon fill="#bfbfbf" stroke="black" points="800,-30 800,-49 938,-49 938,-30 800,-30"/>
<text text-anchor="middle" x="869" y="-37" font-family="Helvetica,sans-Serif" font-size="10.00">SystemData::crossProdMat</text>
</a>
</g>
</g>
<!-- Node2 -->
<g id="node2" class="node">
<title>Node2</title>
<g id="a_node2"><a xlink:href="classSystemData.html#a230548cc624444a66137b8d5ecaf5716" target="_top" xlink:title="Computes \chi_{i \alpha} matrix for given particle number and body number. chi matrix represents the ...">
<polygon fill="none" stroke="black" points="609,-52 609,-71 762,-71 762,-52 609,-52"/>
<text text-anchor="middle" x="685.5" y="-59" font-family="Helvetica,sans-Serif" font-size="10.00">SystemData::chiMatrixElement</text>
</a>
</g>
</g>
<!-- Node1&#45;&gt;Node2 -->
<g id="edge1" class="edge">
<title>Node1&#45;&gt;Node2</title>
<path fill="none" stroke="midnightblue" d="M789.72,-48.99C780.62,-50.09 771.35,-51.21 762.29,-52.31"/>
<polygon fill="midnightblue" stroke="midnightblue" points="790.39,-52.43 799.9,-47.75 789.55,-45.48 790.39,-52.43"/>
</g>
<!-- Node7 -->
<g id="node7" class="node">
<title>Node7</title>
<g id="a_node7"><a xlink:href="classSystemData.html#a70d2ff9a6173fcd9f30e8dc6324e8414" target="_top" xlink:title="Computes \Sigma_{i \alpha} matrix for given particle number and body number. Sigma matrix represents ...">
<polygon fill="none" stroke="black" points="607,-11 607,-30 764,-30 764,-11 607,-11"/>
<text text-anchor="middle" x="685.5" y="-18" font-family="Helvetica,sans-Serif" font-size="10.00">SystemData::rbmMatrixElement</text>
</a>
</g>
</g>
<!-- Node1&#45;&gt;Node7 -->
<g id="edge6" class="edge">
<title>Node1&#45;&gt;Node7</title>
<path fill="none" stroke="midnightblue" d="M789.95,-31.33C781.39,-30.43 772.68,-29.52 764.13,-28.63"/>
<polygon fill="midnightblue" stroke="midnightblue" points="789.59,-34.81 799.9,-32.37 790.32,-27.85 789.59,-34.81"/>
</g>
<!-- Node3 -->
<g id="node3" class="node">
<title>Node3</title>
<g id="a_node3"><a xlink:href="classSystemData.html#a301fa1815b3b68cffc789f1824e29f5e" target="_top" xlink:title="Computes the gradients rigid body motion connectivity tensors and tensors associated with change of v...">
<polygon fill="none" stroke="black" points="424.5,-49.5 424.5,-79.5 570.5,-79.5 570.5,-49.5 424.5,-49.5"/>
<text text-anchor="start" x="432.5" y="-67.5" font-family="Helvetica,sans-Serif" font-size="10.00">SystemData::gradientChange</text>
<text text-anchor="middle" x="497.5" y="-56.5" font-family="Helvetica,sans-Serif" font-size="10.00">OfVariableTensors</text>
</a>
</g>
</g>
<!-- Node2&#45;&gt;Node3 -->
<g id="edge2" class="edge">
<title>Node2&#45;&gt;Node3</title>
<path fill="none" stroke="midnightblue" d="M598.75,-62.88C589.4,-63.03 579.95,-63.19 570.78,-63.33"/>
<polygon fill="midnightblue" stroke="midnightblue" points="598.9,-66.38 608.85,-62.72 598.79,-59.38 598.9,-66.38"/>
</g>
<!-- Node4 -->
<g id="node4" class="node">
<title>Node4</title>
<g id="a_node4"><a xlink:href="classSystemData.html#aa1dc8988cbb137f2667af95ca52a709c" target="_top" xlink:title="Updates all relevant rigid body motion tensors, respective gradients, and kinematic/Udwadia constrain...">
<polygon fill="none" stroke="black" points="281,-30 281,-49 388,-49 388,-30 281,-30"/>
<text text-anchor="middle" x="334.5" y="-37" font-family="Helvetica,sans-Serif" font-size="10.00">SystemData::update</text>
</a>
</g>
</g>
<!-- Node3&#45;&gt;Node4 -->
<g id="edge3" class="edge">
<title>Node3&#45;&gt;Node4</title>
<path fill="none" stroke="midnightblue" d="M414.41,-51.75C405.49,-50.37 396.59,-48.99 388.16,-47.68"/>
<polygon fill="midnightblue" stroke="midnightblue" points="414.06,-55.24 424.48,-53.32 415.13,-48.32 414.06,-55.24"/>
</g>
<!-- Node5 -->
<g id="node5" class="node">
<title>Node5</title>
<g id="a_node5"><a xlink:href="classSystemData.html#ac3a796dc8bf1fa82ea6dec33e548924f" target="_top" xlink:title="Function loads data from GSD file using GSDUtil class.">
<polygon fill="none" stroke="black" points="111,-30 111,-49 245,-49 245,-30 111,-30"/>
<text text-anchor="middle" x="178" y="-37" font-family="Helvetica,sans-Serif" font-size="10.00">SystemData::initializeData</text>
</a>
</g>
</g>
<!-- Node4&#45;&gt;Node5 -->
<g id="edge4" class="edge">
<title>Node4&#45;&gt;Node5</title>
<path fill="none" stroke="midnightblue" d="M270.66,-39.5C262.26,-39.5 253.62,-39.5 245.16,-39.5"/>
<polygon fill="midnightblue" stroke="midnightblue" points="270.76,-43 280.76,-39.5 270.76,-36 270.76,-43"/>
</g>
<!-- Node6 -->
<g id="node6" class="node">
<title>Node6</title>
<g id="a_node6"><a xlink:href="TestSimulation_8cpp.html#a227401f331fbabbd263158efc43b3bf6" target="_top" xlink:title=" ">
<polygon fill="none" stroke="black" points="0,-30 0,-49 75,-49 75,-30 0,-30"/>
<text text-anchor="middle" x="37.5" y="-37" font-family="Helvetica,sans-Serif" font-size="10.00">TEST_CASE</text>
</a>
</g>
</g>
<!-- Node5&#45;&gt;Node6 -->
<g id="edge5" class="edge">
<title>Node5&#45;&gt;Node6</title>
<path fill="none" stroke="midnightblue" d="M100.94,-39.5C92.06,-39.5 83.33,-39.5 75.34,-39.5"/>
<polygon fill="midnightblue" stroke="midnightblue" points="101,-43 111,-39.5 101,-36 101,-43"/>
</g>
<!-- Node8 -->
<g id="node8" class="node">
<title>Node8</title>
<g id="a_node8"><a xlink:href="classSystemData.html#ae08b2263f2981e57d0f12ba7881a083b" target="_top" xlink:title="Computes the rigid body motion connectivity tensors.">
<polygon fill="none" stroke="black" points="424,-0.5 424,-30.5 571,-30.5 571,-0.5 424,-0.5"/>
<text text-anchor="start" x="432" y="-18.5" font-family="Helvetica,sans-Serif" font-size="10.00">SystemData::rigidBodyMotion</text>
<text text-anchor="middle" x="497.5" y="-7.5" font-family="Helvetica,sans-Serif" font-size="10.00">Tensors</text>
</a>
</g>
</g>
<!-- Node7&#45;&gt;Node8 -->
<g id="edge7" class="edge">
<title>Node7&#45;&gt;Node8</title>
<path fill="none" stroke="midnightblue" d="M596.89,-18.14C588.27,-17.91 579.59,-17.68 571.15,-17.45"/>
<polygon fill="midnightblue" stroke="midnightblue" points="596.88,-21.65 606.97,-18.42 597.06,-14.65 596.88,-21.65"/>
</g>
<!-- Node8&#45;&gt;Node4 -->
<g id="edge8" class="edge">
<title>Node8&#45;&gt;Node4</title>
<path fill="none" stroke="midnightblue" d="M413.54,-27.87C405.02,-29.14 396.53,-30.4 388.47,-31.6"/>
<polygon fill="midnightblue" stroke="midnightblue" points="414.16,-31.31 423.54,-26.38 413.13,-24.39 414.16,-31.31"/>
</g>
</g>
</svg>
