<?xml version="1.0" encoding="UTF-8" standalone="no"?>
<!DOCTYPE svg PUBLIC "-//W3C//DTD SVG 1.1//EN"
 "http://www.w3.org/Graphics/SVG/1.1/DTD/svg11.dtd">
<!-- Generated by graphviz version 2.49.1 (20210923.0004)
 -->
<!-- Title: potentialHydrodynamics::mTildeTilde Pages: 1 -->
<svg width="314pt" height="39pt"
 viewBox="0.00 0.00 314.00 39.00" xmlns="http://www.w3.org/2000/svg" xmlns:xlink="http://www.w3.org/1999/xlink">
<g id="graph0" class="graph" transform="scale(1 1) rotate(0) translate(4 35)">
<title>potentialHydrodynamics::mTildeTilde</title>
<!-- Node1 -->
<g id="node1" class="node">
<title>Node1</title>
<g id="a_node1"><a xlink:title=" ">
<polygon fill="#bfbfbf" stroke="black" points="0,-0.5 0,-30.5 123,-30.5 123,-0.5 0,-0.5"/>
<text text-anchor="start" x="8" y="-18.5" font-family="Helvetica,sans-Serif" font-size="10.00">potentialHydrodynamics</text>
<text text-anchor="middle" x="61.5" y="-7.5" font-family="Helvetica,sans-Serif" font-size="10.00">::mTildeTilde</text>
</a>
</g>
</g>
<!-- Node2 -->
<g id="node2" class="node">
<title>Node2</title>
<g id="a_node2"><a xlink:href="helper__eigenTensorConversion_8hpp.html#a556d08b55a6ad7cd703b6db06194e5cf" target="_top" xlink:title=" ">
<polygon fill="none" stroke="black" points="159,-6 159,-25 223,-25 223,-6 159,-6"/>
<text text-anchor="middle" x="191" y="-13" font-family="Helvetica,sans-Serif" font-size="10.00">MatrixCast</text>
</a>
</g>
</g>
<!-- Node1&#45;&gt;Node2 -->
<g id="edge1" class="edge">
<title>Node1&#45;&gt;Node2</title>
<path fill="none" stroke="midnightblue" d="M123.26,-15.5C131.83,-15.5 140.46,-15.5 148.55,-15.5"/>
<polygon fill="midnightblue" stroke="midnightblue" points="148.81,-19 158.81,-15.5 148.81,-12 148.81,-19"/>
</g>
<!-- Node3 -->
<g id="node3" class="node">
<title>Node3</title>
<g id="a_node3"><a xlink:href="helper__eigenTensorConversion_8hpp.html#a2a7eca6b17fb874869047bd0b5f11b46" target="_top" xlink:title="Convert between Eigen::Tensor and Eigen::Matrix classes.">
<polygon fill="none" stroke="black" points="259,-6 259,-25 306,-25 306,-6 259,-6"/>
<text text-anchor="middle" x="282.5" y="-13" font-family="Helvetica,sans-Serif" font-size="10.00">asEval</text>
</a>
</g>
</g>
<!-- Node2&#45;&gt;Node3 -->
<g id="edge2" class="edge">
<title>Node2&#45;&gt;Node3</title>
<path fill="none" stroke="midnightblue" d="M223.05,-15.5C231.36,-15.5 240.36,-15.5 248.76,-15.5"/>
<polygon fill="midnightblue" stroke="midnightblue" points="248.97,-19 258.97,-15.5 248.97,-12 248.97,-19"/>
</g>
</g>
</svg>
