<?xml version="1.0" encoding="UTF-8" standalone="no"?>
<!DOCTYPE svg PUBLIC "-//W3C//DTD SVG 1.1//EN"
 "http://www.w3.org/Graphics/SVG/1.1/DTD/svg11.dtd">
<!-- Generated by graphviz version 2.43.0 (0)
 -->
<!-- Title: PotentialHydrodynamics::update Pages: 1 -->
<svg width="476pt" height="382pt"
 viewBox="0.00 0.00 476.00 382.00" xmlns="http://www.w3.org/2000/svg" xmlns:xlink="http://www.w3.org/1999/xlink">
<g id="graph0" class="graph" transform="scale(1 1) rotate(0) translate(4 378)">
<title>PotentialHydrodynamics::update</title>
<!-- Node1 -->
<g id="node1" class="node">
<title>Node1</title>
<g id="a_node1"><a xlink:title="Updates all hydrodynamic quantities at current configuration (data from SystemData)">
<polygon fill="#bfbfbf" stroke="black" points="0,-171.5 0,-201.5 123,-201.5 123,-171.5 0,-171.5"/>
<text text-anchor="start" x="8" y="-189.5" font-family="Helvetica,sans-Serif" font-size="10.00">PotentialHydrodynamics</text>
<text text-anchor="middle" x="61.5" y="-178.5" font-family="Helvetica,sans-Serif" font-size="10.00">::update</text>
</a>
</g>
</g>
<!-- Node2 -->
<g id="node2" class="node">
<title>Node2</title>
<g id="a_node2"><a xlink:href="classPotentialHydrodynamics.html#a55280970eb37b9f89edba77ccf2ab5e6" target="_top" xlink:title="Calculates m_M_added">
<polygon fill="none" stroke="black" points="159,-343.5 159,-373.5 282,-373.5 282,-343.5 159,-343.5"/>
<text text-anchor="start" x="167" y="-361.5" font-family="Helvetica,sans-Serif" font-size="10.00">PotentialHydrodynamics</text>
<text text-anchor="middle" x="220.5" y="-350.5" font-family="Helvetica,sans-Serif" font-size="10.00">::calcAddedMass</text>
</a>
</g>
</g>
<!-- Node1&#45;&gt;Node2 -->
<g id="edge1" class="edge">
<title>Node1&#45;&gt;Node2</title>
<path fill="none" stroke="midnightblue" d="M68.63,-201.71C81.27,-231.26 112.93,-296.84 159,-334.5 160.54,-335.76 162.16,-336.96 163.83,-338.1"/>
<polygon fill="midnightblue" stroke="midnightblue" points="162.21,-341.21 172.59,-343.35 165.81,-335.21 162.21,-341.21"/>
</g>
<!-- Node3 -->
<g id="node3" class="node">
<title>Node3</title>
<g id="a_node3"><a xlink:href="classPotentialHydrodynamics.html#acbfee950df63d7a69aba702177127c08" target="_top" xlink:title="Calculates m_M_added">
<polygon fill="none" stroke="black" points="159,-294.5 159,-324.5 282,-324.5 282,-294.5 159,-294.5"/>
<text text-anchor="start" x="167" y="-312.5" font-family="Helvetica,sans-Serif" font-size="10.00">PotentialHydrodynamics</text>
<text text-anchor="middle" x="220.5" y="-301.5" font-family="Helvetica,sans-Serif" font-size="10.00">::calcAddedMassGrad</text>
</a>
</g>
</g>
<!-- Node1&#45;&gt;Node3 -->
<g id="edge2" class="edge">
<title>Node1&#45;&gt;Node3</title>
<path fill="none" stroke="midnightblue" d="M73.74,-201.51C90.31,-222.76 123.25,-261.67 159,-285.5 161.26,-287.01 163.62,-288.44 166.06,-289.8"/>
<polygon fill="midnightblue" stroke="midnightblue" points="164.61,-292.99 175.11,-294.43 167.8,-286.76 164.61,-292.99"/>
</g>
<!-- Node4 -->
<g id="node4" class="node">
<title>Node4</title>
<g id="a_node4"><a xlink:href="classPotentialHydrodynamics.html#a3195035f26bdbd013fa2825903e7de2e" target="_top" xlink:title=" ">
<polygon fill="none" stroke="black" points="159,-245.5 159,-275.5 282,-275.5 282,-245.5 159,-245.5"/>
<text text-anchor="start" x="167" y="-263.5" font-family="Helvetica,sans-Serif" font-size="10.00">PotentialHydrodynamics</text>
<text text-anchor="middle" x="220.5" y="-252.5" font-family="Helvetica,sans-Serif" font-size="10.00">::calcBodyMass</text>
</a>
</g>
</g>
<!-- Node1&#45;&gt;Node4 -->
<g id="edge3" class="edge">
<title>Node1&#45;&gt;Node4</title>
<path fill="none" stroke="midnightblue" d="M90.01,-201.69C109.12,-212.01 135.31,-225.7 159,-236.5 162.76,-238.21 166.68,-239.93 170.64,-241.61"/>
<polygon fill="midnightblue" stroke="midnightblue" points="169.3,-244.84 179.88,-245.45 171.99,-238.38 169.3,-244.84"/>
</g>
<!-- Node7 -->
<g id="node7" class="node">
<title>Node7</title>
<g id="a_node7"><a xlink:href="classPotentialHydrodynamics.html#a3b935d72027e8f6a7c365fa01b902977" target="_top" xlink:title=" ">
<polygon fill="none" stroke="black" points="159,-196.5 159,-226.5 282,-226.5 282,-196.5 159,-196.5"/>
<text text-anchor="start" x="167" y="-214.5" font-family="Helvetica,sans-Serif" font-size="10.00">PotentialHydrodynamics</text>
<text text-anchor="middle" x="220.5" y="-203.5" font-family="Helvetica,sans-Serif" font-size="10.00">::calcBodyMassGrad</text>
</a>
</g>
</g>
<!-- Node1&#45;&gt;Node7 -->
<g id="edge6" class="edge">
<title>Node1&#45;&gt;Node7</title>
<path fill="none" stroke="midnightblue" d="M123.2,-196.17C131.64,-197.51 140.36,-198.9 148.95,-200.27"/>
<polygon fill="midnightblue" stroke="midnightblue" points="148.54,-203.74 158.96,-201.86 149.64,-196.83 148.54,-203.74"/>
</g>
<!-- Node8 -->
<g id="node8" class="node">
<title>Node8</title>
<g id="a_node8"><a xlink:href="classPotentialHydrodynamics.html#ad576b223cdd07f33cddc6c33edf87dc8" target="_top" xlink:title="Calculates and sets energetic components in SystemData class.">
<polygon fill="none" stroke="black" points="159,-147.5 159,-177.5 282,-177.5 282,-147.5 159,-147.5"/>
<text text-anchor="start" x="167" y="-165.5" font-family="Helvetica,sans-Serif" font-size="10.00">PotentialHydrodynamics</text>
<text text-anchor="middle" x="220.5" y="-154.5" font-family="Helvetica,sans-Serif" font-size="10.00">::calcHydroEnergy</text>
</a>
</g>
</g>
<!-- Node1&#45;&gt;Node8 -->
<g id="edge7" class="edge">
<title>Node1&#45;&gt;Node8</title>
<path fill="none" stroke="midnightblue" d="M123.2,-177.22C131.64,-175.93 140.36,-174.6 148.95,-173.28"/>
<polygon fill="midnightblue" stroke="midnightblue" points="149.6,-176.73 158.96,-171.75 148.55,-169.81 149.6,-176.73"/>
</g>
<!-- Node9 -->
<g id="node9" class="node">
<title>Node9</title>
<g id="a_node9"><a xlink:href="classPotentialHydrodynamics.html#a1f22d16e1aa9f675611d2394d76cd595" target="_top" xlink:title="Calculates m_F_hydro and m_F_hydroNoInertia">
<polygon fill="none" stroke="black" points="159,-98.5 159,-128.5 282,-128.5 282,-98.5 159,-98.5"/>
<text text-anchor="start" x="167" y="-116.5" font-family="Helvetica,sans-Serif" font-size="10.00">PotentialHydrodynamics</text>
<text text-anchor="middle" x="220.5" y="-105.5" font-family="Helvetica,sans-Serif" font-size="10.00">::calcHydroForces</text>
</a>
</g>
</g>
<!-- Node1&#45;&gt;Node9 -->
<g id="edge8" class="edge">
<title>Node1&#45;&gt;Node9</title>
<path fill="none" stroke="midnightblue" d="M91.38,-171.47C110.43,-161.73 136,-148.95 159,-138.5 163.36,-136.52 167.93,-134.51 172.51,-132.54"/>
<polygon fill="midnightblue" stroke="midnightblue" points="174.05,-135.69 181.89,-128.57 171.31,-129.24 174.05,-135.69"/>
</g>
<!-- Node11 -->
<g id="node11" class="node">
<title>Node11</title>
<g id="a_node11"><a xlink:href="classPotentialHydrodynamics.html#a8f9332fa846a6ede05c1d1e3e5664973" target="_top" xlink:title="Calculates m_r_mag_ab and m_r_ab at current configuration.">
<polygon fill="none" stroke="black" points="159,-49.5 159,-79.5 282,-79.5 282,-49.5 159,-49.5"/>
<text text-anchor="start" x="167" y="-67.5" font-family="Helvetica,sans-Serif" font-size="10.00">PotentialHydrodynamics</text>
<text text-anchor="middle" x="220.5" y="-56.5" font-family="Helvetica,sans-Serif" font-size="10.00">::calcParticleDistances</text>
</a>
</g>
</g>
<!-- Node1&#45;&gt;Node11 -->
<g id="edge11" class="edge">
<title>Node1&#45;&gt;Node11</title>
<path fill="none" stroke="midnightblue" d="M74.42,-171.17C91.3,-150.31 124.06,-112.89 159,-89.5 161.87,-87.58 164.92,-85.76 168.05,-84.04"/>
<polygon fill="midnightblue" stroke="midnightblue" points="169.71,-87.13 177.06,-79.5 166.55,-80.88 169.71,-87.13"/>
</g>
<!-- Node12 -->
<g id="node12" class="node">
<title>Node12</title>
<g id="a_node12"><a xlink:href="classPotentialHydrodynamics.html#a166daae7d4c96b24e80d9920f566e6f5" target="_top" xlink:title="Calculates m_M_added">
<polygon fill="none" stroke="black" points="159,-0.5 159,-30.5 282,-30.5 282,-0.5 159,-0.5"/>
<text text-anchor="start" x="167" y="-18.5" font-family="Helvetica,sans-Serif" font-size="10.00">PotentialHydrodynamics</text>
<text text-anchor="middle" x="220.5" y="-7.5" font-family="Helvetica,sans-Serif" font-size="10.00">::calcTotalMass</text>
</a>
</g>
</g>
<!-- Node1&#45;&gt;Node12 -->
<g id="edge12" class="edge">
<title>Node1&#45;&gt;Node12</title>
<path fill="none" stroke="midnightblue" d="M68.93,-171.1C81.88,-141.84 113.75,-77.8 159,-40.5 161.03,-38.82 163.2,-37.25 165.44,-35.76"/>
<polygon fill="midnightblue" stroke="midnightblue" points="167.6,-38.56 174.47,-30.5 164.07,-32.51 167.6,-38.56"/>
</g>
<!-- Node5 -->
<g id="node5" class="node">
<title>Node5</title>
<g id="a_node5"><a xlink:href="helper__eigenTensorConversion_8hpp.html#a556d08b55a6ad7cd703b6db06194e5cf" target="_top" xlink:title=" ">
<polygon fill="none" stroke="black" points="319,-138 319,-157 384,-157 384,-138 319,-138"/>
<text text-anchor="middle" x="351.5" y="-145" font-family="Helvetica,sans-Serif" font-size="10.00">MatrixCast</text>
</a>
</g>
</g>
<!-- Node4&#45;&gt;Node5 -->
<g id="edge4" class="edge">
<title>Node4&#45;&gt;Node5</title>
<path fill="none" stroke="midnightblue" d="M267.22,-245.5C272.43,-242.89 277.49,-239.9 282,-236.5 307.68,-217.13 328.72,-185.75 340.42,-165.9"/>
<polygon fill="midnightblue" stroke="midnightblue" points="343.48,-167.6 345.4,-157.18 337.4,-164.13 343.48,-167.6"/>
</g>
<!-- Node6 -->
<g id="node6" class="node">
<title>Node6</title>
<g id="a_node6"><a xlink:href="helper__eigenTensorConversion_8hpp.html#a2a7eca6b17fb874869047bd0b5f11b46" target="_top" xlink:title=" ">
<polygon fill="none" stroke="black" points="421,-138 421,-157 468,-157 468,-138 421,-138"/>
<text text-anchor="middle" x="444.5" y="-145" font-family="Helvetica,sans-Serif" font-size="10.00">asEval</text>
</a>
</g>
</g>
<!-- Node5&#45;&gt;Node6 -->
<g id="edge5" class="edge">
<title>Node5&#45;&gt;Node6</title>
<path fill="none" stroke="midnightblue" d="M384.07,-147.5C392.68,-147.5 402.03,-147.5 410.71,-147.5"/>
<polygon fill="midnightblue" stroke="midnightblue" points="410.87,-151 420.87,-147.5 410.87,-144 410.87,-151"/>
</g>
<!-- Node9&#45;&gt;Node5 -->
<g id="edge9" class="edge">
<title>Node9&#45;&gt;Node5</title>
<path fill="none" stroke="midnightblue" d="M278.46,-128.51C288.78,-131.23 299.36,-134.02 309.12,-136.59"/>
<polygon fill="midnightblue" stroke="midnightblue" points="308.4,-140.02 318.96,-139.19 310.18,-133.25 308.4,-140.02"/>
</g>
<!-- Node10 -->
<g id="node10" class="node">
<title>Node10</title>
<g id="a_node10"><a xlink:href="helper__eigenTensorConversion_8hpp.html#a3a32f7de3f099464192073a93b34d580" target="_top" xlink:title="Convert Eigen::Matrix &#45;&#45;&gt; Eigen::Tensor.">
<polygon fill="none" stroke="black" points="318,-70 318,-89 385,-89 385,-70 318,-70"/>
<text text-anchor="middle" x="351.5" y="-77" font-family="Helvetica,sans-Serif" font-size="10.00">TensorCast</text>
</a>
</g>
</g>
<!-- Node9&#45;&gt;Node10 -->
<g id="edge10" class="edge">
<title>Node9&#45;&gt;Node10</title>
<path fill="none" stroke="midnightblue" d="M278.46,-98.49C288.37,-95.88 298.52,-93.2 307.97,-90.71"/>
<polygon fill="midnightblue" stroke="midnightblue" points="309.11,-94.03 317.89,-88.1 307.32,-87.26 309.11,-94.03"/>
</g>
<!-- Node12&#45;&gt;Node10 -->
<g id="edge13" class="edge">
<title>Node12&#45;&gt;Node10</title>
<path fill="none" stroke="midnightblue" d="M259.91,-30.52C267.31,-33.65 274.96,-37.06 282,-40.5 297.04,-47.85 313.34,-57.08 326.27,-64.72"/>
<polygon fill="midnightblue" stroke="midnightblue" points="324.64,-67.82 335.02,-69.94 328.23,-61.81 324.64,-67.82"/>
</g>
</g>
</svg>
