<?xml version="1.0" encoding="UTF-8" standalone="no"?>
<!DOCTYPE svg PUBLIC "-//W3C//DTD SVG 1.1//EN"
 "http://www.w3.org/Graphics/SVG/1.1/DTD/svg11.dtd">
<!-- Generated by graphviz version 2.49.1 (20210923.0004)
 -->
<!-- Title: systemData::initializeData Pages: 1 -->
<svg width="706pt" height="312pt"
 viewBox="0.00 0.00 706.00 312.00" xmlns="http://www.w3.org/2000/svg" xmlns:xlink="http://www.w3.org/1999/xlink">
<g id="graph0" class="graph" transform="scale(1 1) rotate(0) translate(4 308)">
<title>systemData::initializeData</title>
<!-- Node1 -->
<g id="node1" class="node">
<title>Node1</title>
<g id="a_node1"><a xlink:title="Function loads data from GSD file using GSDUtil class.">
<polygon fill="#bfbfbf" stroke="black" points="0,-161.5 0,-180.5 132,-180.5 132,-161.5 0,-161.5"/>
<text text-anchor="middle" x="66" y="-168.5" font-family="Helvetica,sans-Serif" font-size="10.00">systemData::initializeData</text>
</a>
</g>
</g>
<!-- Node2 -->
<g id="node2" class="node">
<title>Node2</title>
<g id="a_node2"><a xlink:href="classsystemData.html#a74a503e80869c3ef4a9b6edefd132726" target="_top" xlink:title=" ">
<polygon fill="none" stroke="black" points="185,-232.5 185,-251.5 307,-251.5 307,-232.5 185,-232.5"/>
<text text-anchor="middle" x="246" y="-239.5" font-family="Helvetica,sans-Serif" font-size="10.00">systemData::parseGSD</text>
</a>
</g>
</g>
<!-- Node1&#45;&gt;Node2 -->
<g id="edge1" class="edge">
<title>Node1&#45;&gt;Node2</title>
<path fill="none" stroke="midnightblue" d="M91.01,-180.58C122.15,-193 176.63,-214.73 211.74,-228.73"/>
<polygon fill="midnightblue" stroke="midnightblue" points="210.51,-232.01 221.09,-232.46 213.1,-225.51 210.51,-232.01"/>
</g>
<!-- Node4 -->
<g id="node4" class="node">
<title>Node4</title>
<g id="a_node4"><a xlink:href="classsystemData.html#a3c7862901ce425c4d5e6001efa3ef61d" target="_top" xlink:title="Updates all relevant rigid body motion tensors, respective gradients, and kinematic/Udwadia constrain...">
<polygon fill="none" stroke="black" points="168,-142.5 168,-161.5 324,-161.5 324,-142.5 168,-142.5"/>
<text text-anchor="middle" x="246" y="-149.5" font-family="Helvetica,sans-Serif" font-size="10.00">systemData::updateConstraints</text>
</a>
</g>
</g>
<!-- Node1&#45;&gt;Node4 -->
<g id="edge3" class="edge">
<title>Node1&#45;&gt;Node4</title>
<path fill="none" stroke="midnightblue" d="M132.02,-164.06C140.37,-163.17 149.03,-162.24 157.66,-161.32"/>
<polygon fill="midnightblue" stroke="midnightblue" points="158.2,-164.79 167.77,-160.24 157.45,-157.83 158.2,-164.79"/>
</g>
<!-- Node3 -->
<g id="node3" class="node">
<title>Node3</title>
<g id="a_node3"><a xlink:href="classsystemData.html#a3f978844a3292e9ca096be6741c48dc2" target="_top" xlink:title=" ">
<polygon fill="none" stroke="black" points="381,-284.5 381,-303.5 504,-303.5 504,-284.5 381,-284.5"/>
<text text-anchor="middle" x="442.5" y="-291.5" font-family="Helvetica,sans-Serif" font-size="10.00">systemData::checkInput</text>
</a>
</g>
</g>
<!-- Node2&#45;&gt;Node3 -->
<g id="edge2" class="edge">
<title>Node2&#45;&gt;Node3</title>
<path fill="none" stroke="midnightblue" d="M278.05,-251.57C300.68,-258.42 332.13,-267.69 360,-275 369.28,-277.44 379.2,-279.88 388.81,-282.16"/>
<polygon fill="midnightblue" stroke="midnightblue" points="388.13,-285.6 398.67,-284.48 389.74,-278.79 388.13,-285.6"/>
</g>
<!-- Node5 -->
<g id="node5" class="node">
<title>Node5</title>
<g id="a_node5"><a xlink:href="classsystemData.html#abdbaf4be474add633c79ce9f4812b438" target="_top" xlink:title=" ">
<polygon fill="none" stroke="black" points="375.5,-235 375.5,-265 509.5,-265 509.5,-235 375.5,-235"/>
<text text-anchor="start" x="383.5" y="-253" font-family="Helvetica,sans-Serif" font-size="10.00">systemData::accelerations</text>
<text text-anchor="middle" x="442.5" y="-242" font-family="Helvetica,sans-Serif" font-size="10.00">Articulation</text>
</a>
</g>
</g>
<!-- Node4&#45;&gt;Node5 -->
<g id="edge4" class="edge">
<title>Node4&#45;&gt;Node5</title>
<path fill="none" stroke="midnightblue" d="M259.17,-161.72C279.15,-177.26 320.62,-207.79 360,-226 364.29,-227.98 368.79,-229.85 373.37,-231.59"/>
<polygon fill="midnightblue" stroke="midnightblue" points="372.26,-234.91 382.85,-235 374.62,-228.32 372.26,-234.91"/>
</g>
<!-- Node6 -->
<g id="node6" class="node">
<title>Node6</title>
<g id="a_node6"><a xlink:href="classsystemData.html#aca5c01655d711e9088b3f1e9d7578612" target="_top" xlink:title=" ">
<polygon fill="none" stroke="black" points="369.5,-186 369.5,-216 515.5,-216 515.5,-186 369.5,-186"/>
<text text-anchor="start" x="377.5" y="-204" font-family="Helvetica,sans-Serif" font-size="10.00">systemData::gradientChange</text>
<text text-anchor="middle" x="442.5" y="-193" font-family="Helvetica,sans-Serif" font-size="10.00">OfVariableTensors</text>
</a>
</g>
</g>
<!-- Node4&#45;&gt;Node6 -->
<g id="edge5" class="edge">
<title>Node4&#45;&gt;Node6</title>
<path fill="none" stroke="midnightblue" d="M284.96,-161.56C309.7,-167.79 342.7,-176.11 372.03,-183.5"/>
<polygon fill="midnightblue" stroke="midnightblue" points="371.26,-186.91 381.81,-185.96 372.97,-180.13 371.26,-186.91"/>
</g>
<!-- Node9 -->
<g id="node9" class="node">
<title>Node9</title>
<g id="a_node9"><a xlink:href="classsystemData.html#ab3fc7f3cc4c79bbad6e9bb73e127e8c3" target="_top" xlink:title=" ">
<polygon fill="none" stroke="black" points="378.5,-137 378.5,-167 506.5,-167 506.5,-137 378.5,-137"/>
<text text-anchor="start" x="386.5" y="-155" font-family="Helvetica,sans-Serif" font-size="10.00">systemData::locaterPoint</text>
<text text-anchor="middle" x="442.5" y="-144" font-family="Helvetica,sans-Serif" font-size="10.00">Locations</text>
</a>
</g>
</g>
<!-- Node4&#45;&gt;Node9 -->
<g id="edge8" class="edge">
<title>Node4&#45;&gt;Node9</title>
<path fill="none" stroke="midnightblue" d="M324.15,-152C338.57,-152 353.61,-152 367.93,-152"/>
<polygon fill="midnightblue" stroke="midnightblue" points="368.2,-155.5 378.2,-152 368.2,-148.5 368.2,-155.5"/>
</g>
<!-- Node10 -->
<g id="node10" class="node">
<title>Node10</title>
<g id="a_node10"><a xlink:href="classsystemData.html#a415007558c07b03a6cfeb973ec97fa3f" target="_top" xlink:title=" ">
<polygon fill="none" stroke="black" points="369,-88 369,-118 516,-118 516,-88 369,-88"/>
<text text-anchor="start" x="377" y="-106" font-family="Helvetica,sans-Serif" font-size="10.00">systemData::rigidBodyMotion</text>
<text text-anchor="middle" x="442.5" y="-95" font-family="Helvetica,sans-Serif" font-size="10.00">Tensors</text>
</a>
</g>
</g>
<!-- Node4&#45;&gt;Node10 -->
<g id="edge9" class="edge">
<title>Node4&#45;&gt;Node10</title>
<path fill="none" stroke="midnightblue" d="M284.96,-142.44C309.7,-136.21 342.7,-127.89 372.03,-120.5"/>
<polygon fill="midnightblue" stroke="midnightblue" points="372.97,-123.87 381.81,-118.04 371.26,-117.09 372.97,-123.87"/>
</g>
<!-- Node12 -->
<g id="node12" class="node">
<title>Node12</title>
<g id="a_node12"><a xlink:href="classsystemData.html#aa797226f69baaa83c559c481dee8381b" target="_top" xlink:title=" ">
<polygon fill="none" stroke="black" points="372.5,-39 372.5,-69 512.5,-69 512.5,-39 372.5,-39"/>
<text text-anchor="start" x="380.5" y="-57" font-family="Helvetica,sans-Serif" font-size="10.00">systemData::udwadiaLinear</text>
<text text-anchor="middle" x="442.5" y="-46" font-family="Helvetica,sans-Serif" font-size="10.00">System</text>
</a>
</g>
</g>
<!-- Node4&#45;&gt;Node12 -->
<g id="edge12" class="edge">
<title>Node4&#45;&gt;Node12</title>
<path fill="none" stroke="midnightblue" d="M259.17,-142.28C279.15,-126.74 320.62,-96.21 360,-78 364.29,-76.02 368.79,-74.15 373.37,-72.41"/>
<polygon fill="midnightblue" stroke="midnightblue" points="374.62,-75.68 382.85,-69 372.26,-69.09 374.62,-75.68"/>
</g>
<!-- Node13 -->
<g id="node13" class="node">
<title>Node13</title>
<g id="a_node13"><a xlink:href="classsystemData.html#a4b449c0f7702a7140fca05ca3722092b" target="_top" xlink:title=" ">
<polygon fill="none" stroke="black" points="360,-0.5 360,-19.5 525,-19.5 525,-0.5 360,-0.5"/>
<text text-anchor="middle" x="442.5" y="-7.5" font-family="Helvetica,sans-Serif" font-size="10.00">systemData::velocitiesArticulation</text>
</a>
</g>
</g>
<!-- Node4&#45;&gt;Node13 -->
<g id="edge13" class="edge">
<title>Node4&#45;&gt;Node13</title>
<path fill="none" stroke="midnightblue" d="M252.99,-142.18C267.9,-118.63 309.16,-58.68 360,-29 363.84,-26.76 367.94,-24.78 372.16,-23.03"/>
<polygon fill="midnightblue" stroke="midnightblue" points="373.4,-26.31 381.58,-19.57 370.98,-19.73 373.4,-26.31"/>
</g>
<!-- Node7 -->
<g id="node7" class="node">
<title>Node7</title>
<g id="a_node7"><a xlink:href="classsystemData.html#a19a83a255eb6f1de4bcfe2ea8e31ffa9" target="_top" xlink:title="Computes the E matrix of quaternion (4&#45;vector) input.">
<polygon fill="none" stroke="black" points="575.5,-142.5 575.5,-161.5 683.5,-161.5 683.5,-142.5 575.5,-142.5"/>
<text text-anchor="middle" x="629.5" y="-149.5" font-family="Helvetica,sans-Serif" font-size="10.00">systemData::eMatrix</text>
</a>
</g>
</g>
<!-- Node6&#45;&gt;Node7 -->
<g id="edge6" class="edge">
<title>Node6&#45;&gt;Node7</title>
<path fill="none" stroke="midnightblue" d="M500.26,-185.97C526.68,-178.97 557.7,-170.75 582.61,-164.16"/>
<polygon fill="midnightblue" stroke="midnightblue" points="583.76,-167.47 592.53,-161.53 581.96,-160.71 583.76,-167.47"/>
</g>
<!-- Node8 -->
<g id="node8" class="node">
<title>Node8</title>
<g id="a_node8"><a xlink:href="helper__eigenTensorConversion_8hpp.html#a556fb613b733267c9404648bc66bd0bd" target="_top" xlink:title="Convert Eigen::Matrix &#45;&#45;&gt; Eigen::Tensor.">
<polygon fill="none" stroke="black" points="596,-191.5 596,-210.5 663,-210.5 663,-191.5 596,-191.5"/>
<text text-anchor="middle" x="629.5" y="-198.5" font-family="Helvetica,sans-Serif" font-size="10.00">TensorCast</text>
</a>
</g>
</g>
<!-- Node6&#45;&gt;Node8 -->
<g id="edge7" class="edge">
<title>Node6&#45;&gt;Node8</title>
<path fill="none" stroke="midnightblue" d="M515.56,-201C539.34,-201 565.02,-201 585.87,-201"/>
<polygon fill="midnightblue" stroke="midnightblue" points="585.99,-204.5 595.99,-201 585.99,-197.5 585.99,-204.5"/>
</g>
<!-- Node10&#45;&gt;Node7 -->
<g id="edge11" class="edge">
<title>Node10&#45;&gt;Node7</title>
<path fill="none" stroke="midnightblue" d="M500.26,-118.03C526.68,-125.03 557.7,-133.25 582.61,-139.84"/>
<polygon fill="midnightblue" stroke="midnightblue" points="581.96,-143.29 592.53,-142.47 583.76,-136.53 581.96,-143.29"/>
</g>
<!-- Node11 -->
<g id="node11" class="node">
<title>Node11</title>
<g id="a_node11"><a xlink:href="classsystemData.html#a0a77c933b764fb36c64ec5e66011482c" target="_top" xlink:title="Function takes in vector in vector cross&#45;product expression: .">
<polygon fill="none" stroke="black" points="561,-93.5 561,-112.5 698,-112.5 698,-93.5 561,-93.5"/>
<text text-anchor="middle" x="629.5" y="-100.5" font-family="Helvetica,sans-Serif" font-size="10.00">systemData::crossProdMat</text>
</a>
</g>
</g>
<!-- Node10&#45;&gt;Node11 -->
<g id="edge10" class="edge">
<title>Node10&#45;&gt;Node11</title>
<path fill="none" stroke="midnightblue" d="M516.09,-103C527.52,-103 539.37,-103 550.91,-103"/>
<polygon fill="midnightblue" stroke="midnightblue" points="550.95,-106.5 560.95,-103 550.95,-99.5 550.95,-106.5"/>
</g>
</g>
</svg>
