<?xml version="1.0" encoding="UTF-8" standalone="no"?>
<!DOCTYPE svg PUBLIC "-//W3C//DTD SVG 1.1//EN"
 "http://www.w3.org/Graphics/SVG/1.1/DTD/svg11.dtd">
<!-- Generated by graphviz version 2.49.1 (20210923.0004)
 -->
<!-- Title: potentialHydrodynamics::calcAddedMass Pages: 1 -->
<svg width="455pt" height="39pt"
 viewBox="0.00 0.00 455.00 39.00" xmlns="http://www.w3.org/2000/svg" xmlns:xlink="http://www.w3.org/1999/xlink">
<g id="graph0" class="graph" transform="scale(1 1) rotate(0) translate(4 35)">
<title>potentialHydrodynamics::calcAddedMass</title>
<!-- Node1 -->
<g id="node1" class="node">
<title>Node1</title>
<g id="a_node1"><a xlink:title="Calculates m_M_added">
<polygon fill="#bfbfbf" stroke="black" points="324,-0.5 324,-30.5 447,-30.5 447,-0.5 324,-0.5"/>
<text text-anchor="start" x="332" y="-18.5" font-family="Helvetica,sans-Serif" font-size="10.00">potentialHydrodynamics</text>
<text text-anchor="middle" x="385.5" y="-7.5" font-family="Helvetica,sans-Serif" font-size="10.00">::calcAddedMass</text>
</a>
</g>
</g>
<!-- Node2 -->
<g id="node2" class="node">
<title>Node2</title>
<g id="a_node2"><a xlink:href="classpotentialHydrodynamics.html#acce7436c3cc8b62fe54fa61da98554f6" target="_top" xlink:title="Updates all hydrodynamic quantities at current configuration (data from systemData)">
<polygon fill="none" stroke="black" points="165,-0.5 165,-30.5 288,-30.5 288,-0.5 165,-0.5"/>
<text text-anchor="start" x="173" y="-18.5" font-family="Helvetica,sans-Serif" font-size="10.00">potentialHydrodynamics</text>
<text text-anchor="middle" x="226.5" y="-7.5" font-family="Helvetica,sans-Serif" font-size="10.00">::update</text>
</a>
</g>
</g>
<!-- Node1&#45;&gt;Node2 -->
<g id="edge1" class="edge">
<title>Node1&#45;&gt;Node2</title>
<path fill="none" stroke="midnightblue" d="M313.79,-15.5C305.19,-15.5 296.47,-15.5 288.04,-15.5"/>
<polygon fill="midnightblue" stroke="midnightblue" points="313.8,-19 323.8,-15.5 313.8,-12 313.8,-19"/>
</g>
<!-- Node3 -->
<g id="node3" class="node">
<title>Node3</title>
<g id="a_node3"><a xlink:href="classpotentialHydrodynamics.html#ae93f12dc4a892a191d52bf4754d4d99c" target="_top" xlink:title="Construct a new potential hydrodynamics object.">
<polygon fill="none" stroke="black" points="0,-0.5 0,-30.5 129,-30.5 129,-0.5 0,-0.5"/>
<text text-anchor="start" x="8" y="-18.5" font-family="Helvetica,sans-Serif" font-size="10.00">potentialHydrodynamics</text>
<text text-anchor="middle" x="64.5" y="-7.5" font-family="Helvetica,sans-Serif" font-size="10.00">::potentialHydrodynamics</text>
</a>
</g>
</g>
<!-- Node2&#45;&gt;Node3 -->
<g id="edge2" class="edge">
<title>Node2&#45;&gt;Node3</title>
<path fill="none" stroke="midnightblue" d="M154.41,-15.5C146.01,-15.5 137.48,-15.5 129.2,-15.5"/>
<polygon fill="midnightblue" stroke="midnightblue" points="154.55,-19 164.55,-15.5 154.55,-12 154.55,-19"/>
</g>
</g>
</svg>
