<?xml version="1.0" encoding="UTF-8" standalone="no"?>
<!DOCTYPE svg PUBLIC "-//W3C//DTD SVG 1.1//EN"
 "http://www.w3.org/Graphics/SVG/1.1/DTD/svg11.dtd">
<!-- Generated by graphviz version 2.43.0 (0)
 -->
<!-- Title: rungeKutta4 Pages: 1 -->
<svg width="908pt" height="2637pt"
 viewBox="0.00 0.00 907.50 2637.00" xmlns="http://www.w3.org/2000/svg" xmlns:xlink="http://www.w3.org/1999/xlink">
<g id="graph0" class="graph" transform="scale(1 1) rotate(0) translate(4 2633)">
<title>rungeKutta4</title>
<!-- Node1 -->
<g id="node1" class="node">
<title>Node1</title>
<g id="a_node1"><a xlink:title="Standard Runge&#45;Kutta 4th order integration.">
<polygon fill="#bfbfbf" stroke="black" points="682,-715.5 682,-882.5 805,-882.5 805,-715.5 682,-715.5"/>
<text text-anchor="middle" x="743.5" y="-870.5" font-family="Helvetica,sans-Serif" font-size="10.00">rungeKutta4</text>
<polyline fill="none" stroke="black" points="682,-863.5 805,-863.5 "/>
<text text-anchor="start" x="690" y="-851.5" font-family="Helvetica,sans-Serif" font-size="10.00">&#45; m_dt</text>
<text text-anchor="start" x="690" y="-840.5" font-family="Helvetica,sans-Serif" font-size="10.00">&#45; m_c1_2_dt</text>
<text text-anchor="start" x="690" y="-829.5" font-family="Helvetica,sans-Serif" font-size="10.00">&#45; m_c1_6_dt</text>
<text text-anchor="start" x="690" y="-818.5" font-family="Helvetica,sans-Serif" font-size="10.00">&#45; m_3M</text>
<text text-anchor="start" x="690" y="-807.5" font-family="Helvetica,sans-Serif" font-size="10.00">&#45; m_c1_2</text>
<text text-anchor="start" x="690" y="-796.5" font-family="Helvetica,sans-Serif" font-size="10.00">&#45; m_c1_6</text>
<polyline fill="none" stroke="black" points="682,-789.5 805,-789.5 "/>
<text text-anchor="start" x="690" y="-777.5" font-family="Helvetica,sans-Serif" font-size="10.00">+ rungeKutta4()</text>
<text text-anchor="start" x="690" y="-766.5" font-family="Helvetica,sans-Serif" font-size="10.00">+ ~rungeKutta4()</text>
<text text-anchor="start" x="690" y="-755.5" font-family="Helvetica,sans-Serif" font-size="10.00">+ integrate()</text>
<text text-anchor="start" x="690" y="-744.5" font-family="Helvetica,sans-Serif" font-size="10.00">&#45; integrateSecondOrder()</text>
<text text-anchor="start" x="690" y="-733.5" font-family="Helvetica,sans-Serif" font-size="10.00">&#45; accelerationUpdate()</text>
<text text-anchor="start" x="690" y="-722.5" font-family="Helvetica,sans-Serif" font-size="10.00">&#45; udwadiaKalaba()</text>
</a>
</g>
</g>
<!-- Node2 -->
<g id="node2" class="node">
<title>Node2</title>
<g id="a_node2"><a xlink:title=" ">
<polygon fill="none" stroke="#bfbfbf" points="534,-2345 534,-2402 687,-2402 687,-2345 534,-2345"/>
<text text-anchor="middle" x="610.5" y="-2390" font-family="Helvetica,sans-Serif" font-size="10.00">std::shared_ptr&lt; systemData &gt;</text>
<polyline fill="none" stroke="#bfbfbf" points="534,-2383 687,-2383 "/>
<text text-anchor="middle" x="610.5" y="-2371" font-family="Helvetica,sans-Serif" font-size="10.00"> </text>
<polyline fill="none" stroke="#bfbfbf" points="534,-2364 687,-2364 "/>
<text text-anchor="start" x="542" y="-2352" font-family="Helvetica,sans-Serif" font-size="10.00">+ operator&#45;&gt;()</text>
</a>
</g>
</g>
<!-- Node2&#45;&gt;Node1 -->
<g id="edge1" class="edge">
<title>Node2&#45;&gt;Node1</title>
<path fill="none" stroke="#404040" d="M662.73,-2344.87C686.13,-2329.46 711.38,-2307.92 724.5,-2281 739.72,-2249.79 742.78,-1216.57 743.37,-894.73"/>
<polygon fill="none" stroke="#404040" points="743.37,-894.67 739.38,-888.67 743.39,-882.67 747.38,-888.68 743.37,-894.67"/>
<text text-anchor="middle" x="764.5" y="-1751.5" font-family="Helvetica,sans-Serif" font-size="10.00"> &#45;m_system</text>
</g>
<!-- Node6 -->
<g id="node6" class="node">
<title>Node6</title>
<g id="a_node6"><a xlink:href="classGSDUtil.html" target="_top" xlink:title="Wrapper class for gsd.h to load data from input GSD file into systemData class.">
<polygon fill="none" stroke="black" points="287.5,-1932 287.5,-2143 409.5,-2143 409.5,-1932 287.5,-1932"/>
<text text-anchor="middle" x="348.5" y="-2131" font-family="Helvetica,sans-Serif" font-size="10.00">GSDUtil</text>
<polyline fill="none" stroke="black" points="287.5,-2124 409.5,-2124 "/>
<text text-anchor="start" x="295.5" y="-2112" font-family="Helvetica,sans-Serif" font-size="10.00">&#45; m_frame</text>
<polyline fill="none" stroke="black" points="287.5,-2105 409.5,-2105 "/>
<text text-anchor="start" x="295.5" y="-2093" font-family="Helvetica,sans-Serif" font-size="10.00">+ GSDUtil()</text>
<text text-anchor="start" x="295.5" y="-2082" font-family="Helvetica,sans-Serif" font-size="10.00">+ GSDUtil()</text>
<text text-anchor="start" x="295.5" y="-2071" font-family="Helvetica,sans-Serif" font-size="10.00">+ ~GSDUtil()</text>
<text text-anchor="start" x="295.5" y="-2060" font-family="Helvetica,sans-Serif" font-size="10.00">+ truncateGSD()</text>
<text text-anchor="start" x="295.5" y="-2049" font-family="Helvetica,sans-Serif" font-size="10.00">+ writeFrame()</text>
<text text-anchor="start" x="295.5" y="-2038" font-family="Helvetica,sans-Serif" font-size="10.00">+ frame()</text>
<text text-anchor="start" x="295.5" y="-2027" font-family="Helvetica,sans-Serif" font-size="10.00">&#45; checkGSDReturn()</text>
<text text-anchor="start" x="295.5" y="-2016" font-family="Helvetica,sans-Serif" font-size="10.00">&#45; readChunk()</text>
<text text-anchor="start" x="295.5" y="-2005" font-family="Helvetica,sans-Serif" font-size="10.00">&#45; readHeader()</text>
<text text-anchor="start" x="295.5" y="-1994" font-family="Helvetica,sans-Serif" font-size="10.00">&#45; readParameters()</text>
<text text-anchor="start" x="295.5" y="-1983" font-family="Helvetica,sans-Serif" font-size="10.00">&#45; readParticles()</text>
<text text-anchor="start" x="295.5" y="-1972" font-family="Helvetica,sans-Serif" font-size="10.00">&#45; readSystemSpecifics()</text>
<text text-anchor="start" x="295.5" y="-1961" font-family="Helvetica,sans-Serif" font-size="10.00">&#45; writeHeader()</text>
<text text-anchor="start" x="295.5" y="-1950" font-family="Helvetica,sans-Serif" font-size="10.00">&#45; writeParameters()</text>
<text text-anchor="start" x="295.5" y="-1939" font-family="Helvetica,sans-Serif" font-size="10.00">&#45; writeParticles()</text>
</a>
</g>
</g>
<!-- Node2&#45;&gt;Node6 -->
<g id="edge6" class="edge">
<title>Node2&#45;&gt;Node6</title>
<path fill="none" stroke="#404040" d="M533.94,-2367.9C465.51,-2362 372.57,-2348.97 349.5,-2321 312.21,-2275.8 309.51,-2211.25 317.24,-2155.26"/>
<polygon fill="none" stroke="#404040" points="317.28,-2154.95 314.24,-2148.41 319.1,-2143.09 322.14,-2149.62 317.28,-2154.95"/>
<text text-anchor="middle" x="375.5" y="-2307.5" font-family="Helvetica,sans-Serif" font-size="10.00"> &#45;m_system</text>
</g>
<!-- Node14 -->
<g id="node14" class="node">
<title>Node14</title>
<g id="a_node14"><a xlink:href="classpotentialHydrodynamics.html" target="_top" xlink:title="Computes hydrodynamic tensors (mass, forces) on a finite number of spheres in potential flow.">
<polygon fill="none" stroke="black" points="572,-1794.5 572,-2280.5 715,-2280.5 715,-1794.5 572,-1794.5"/>
<text text-anchor="middle" x="643.5" y="-2268.5" font-family="Helvetica,sans-Serif" font-size="10.00">potentialHydrodynamics</text>
<polyline fill="none" stroke="black" points="572,-2261.5 715,-2261.5 "/>
<text text-anchor="start" x="580" y="-2249.5" font-family="Helvetica,sans-Serif" font-size="10.00">&#45; m_num_pair_inter</text>
<text text-anchor="start" x="580" y="-2238.5" font-family="Helvetica,sans-Serif" font-size="10.00">&#45; m_3N</text>
<text text-anchor="start" x="580" y="-2227.5" font-family="Helvetica,sans-Serif" font-size="10.00">&#45; m_7M</text>
<text text-anchor="start" x="580" y="-2216.5" font-family="Helvetica,sans-Serif" font-size="10.00">&#45; m_alphaVec</text>
<text text-anchor="start" x="580" y="-2205.5" font-family="Helvetica,sans-Serif" font-size="10.00">&#45; m_betaVec</text>
<text text-anchor="start" x="580" y="-2194.5" font-family="Helvetica,sans-Serif" font-size="10.00">&#45; m_r_mag_ab</text>
<text text-anchor="start" x="580" y="-2183.5" font-family="Helvetica,sans-Serif" font-size="10.00">&#45; m_r_ab</text>
<text text-anchor="start" x="580" y="-2172.5" font-family="Helvetica,sans-Serif" font-size="10.00">&#45; m_I3N</text>
<text text-anchor="start" x="580" y="-2161.5" font-family="Helvetica,sans-Serif" font-size="10.00">&#45; m_c1_2_I3N</text>
<text text-anchor="start" x="580" y="-2150.5" font-family="Helvetica,sans-Serif" font-size="10.00">&#45; m_M_added</text>
<text text-anchor="start" x="580" y="-2139.5" font-family="Helvetica,sans-Serif" font-size="10.00">&#45; m_M_intrinsic</text>
<text text-anchor="start" x="580" y="-2128.5" font-family="Helvetica,sans-Serif" font-size="10.00">&#45; m_M_total</text>
<text text-anchor="start" x="580" y="-2117.5" font-family="Helvetica,sans-Serif" font-size="10.00">&#45; m_tens_M_total</text>
<text text-anchor="start" x="580" y="-2106.5" font-family="Helvetica,sans-Serif" font-size="10.00">&#45; m_grad_M_added</text>
<text text-anchor="start" x="580" y="-2095.5" font-family="Helvetica,sans-Serif" font-size="10.00">&#45; m_grad_M_added_body</text>
<text text-anchor="start" x="580" y="-2084.5" font-family="Helvetica,sans-Serif" font-size="10.00">_coords</text>
<text text-anchor="start" x="580" y="-2073.5" font-family="Helvetica,sans-Serif" font-size="10.00">&#45; m_F_hydro</text>
<text text-anchor="start" x="580" y="-2062.5" font-family="Helvetica,sans-Serif" font-size="10.00">&#45; m_F_hydroNoInertia</text>
<text text-anchor="start" x="580" y="-2051.5" font-family="Helvetica,sans-Serif" font-size="10.00">&#45; m_N1</text>
<text text-anchor="start" x="580" y="-2040.5" font-family="Helvetica,sans-Serif" font-size="10.00">&#45; m_N2</text>
<text text-anchor="start" x="580" y="-2029.5" font-family="Helvetica,sans-Serif" font-size="10.00">&#45; m_N3</text>
<text text-anchor="start" x="580" y="-2018.5" font-family="Helvetica,sans-Serif" font-size="10.00">&#45; m_M_tilde_tilde</text>
<text text-anchor="start" x="580" y="-2007.5" font-family="Helvetica,sans-Serif" font-size="10.00">&#45; m_M_tilde</text>
<text text-anchor="start" x="580" y="-1996.5" font-family="Helvetica,sans-Serif" font-size="10.00">&#45; m_mat_M_tilde</text>
<text text-anchor="start" x="580" y="-1985.5" font-family="Helvetica,sans-Serif" font-size="10.00">&#45; m_unitSphereVol</text>
<text text-anchor="start" x="580" y="-1974.5" font-family="Helvetica,sans-Serif" font-size="10.00">&#45; m_c1_2</text>
<text text-anchor="start" x="580" y="-1963.5" font-family="Helvetica,sans-Serif" font-size="10.00">&#45; m_c3_2</text>
<text text-anchor="start" x="580" y="-1952.5" font-family="Helvetica,sans-Serif" font-size="10.00">&#45; m_c15_2</text>
<polyline fill="none" stroke="black" points="572,-1945.5 715,-1945.5 "/>
<text text-anchor="start" x="580" y="-1933.5" font-family="Helvetica,sans-Serif" font-size="10.00">+ potentialHydrodynamics()</text>
<text text-anchor="start" x="580" y="-1922.5" font-family="Helvetica,sans-Serif" font-size="10.00">+ ~potentialHydrodynamics()</text>
<text text-anchor="start" x="580" y="-1911.5" font-family="Helvetica,sans-Serif" font-size="10.00">+ update()</text>
<text text-anchor="start" x="580" y="-1900.5" font-family="Helvetica,sans-Serif" font-size="10.00">+ fHydro()</text>
<text text-anchor="start" x="580" y="-1889.5" font-family="Helvetica,sans-Serif" font-size="10.00">+ fHydroNoInertia()</text>
<text text-anchor="start" x="580" y="-1878.5" font-family="Helvetica,sans-Serif" font-size="10.00">+ mTotal()</text>
<text text-anchor="start" x="580" y="-1867.5" font-family="Helvetica,sans-Serif" font-size="10.00">+ mTilde()</text>
<text text-anchor="start" x="580" y="-1856.5" font-family="Helvetica,sans-Serif" font-size="10.00">&#45; calcParticleDistances()</text>
<text text-anchor="start" x="580" y="-1845.5" font-family="Helvetica,sans-Serif" font-size="10.00">&#45; calcAddedMass()</text>
<text text-anchor="start" x="580" y="-1834.5" font-family="Helvetica,sans-Serif" font-size="10.00">&#45; calcTotalMass()</text>
<text text-anchor="start" x="580" y="-1823.5" font-family="Helvetica,sans-Serif" font-size="10.00">&#45; calcAddedMassGrad()</text>
<text text-anchor="start" x="580" y="-1812.5" font-family="Helvetica,sans-Serif" font-size="10.00">&#45; calcBodyTensors()</text>
<text text-anchor="start" x="580" y="-1801.5" font-family="Helvetica,sans-Serif" font-size="10.00">&#45; calcHydroForces()</text>
</a>
</g>
</g>
<!-- Node2&#45;&gt;Node14 -->
<g id="edge19" class="edge">
<title>Node2&#45;&gt;Node14</title>
<path fill="none" stroke="#404040" d="M613.23,-2344.88C614.58,-2331.17 616.36,-2313.15 618.38,-2292.71"/>
<polygon fill="none" stroke="#404040" points="618.38,-2292.71 614.99,-2286.34 619.56,-2280.77 622.95,-2287.13 618.38,-2292.71"/>
<text text-anchor="middle" x="643.5" y="-2307.5" font-family="Helvetica,sans-Serif" font-size="10.00"> &#45;m_system</text>
</g>
<!-- Node3 -->
<g id="node3" class="node">
<title>Node3</title>
<g id="a_node3"><a xlink:href="classsystemData.html" target="_top" xlink:title="Class contains all data structures relevant to the simulation framework. Note that after construction...">
<polygon fill="none" stroke="black" points="96.5,-0.5 96.5,-1597.5 272.5,-1597.5 272.5,-0.5 96.5,-0.5"/>
<text text-anchor="middle" x="184.5" y="-1585.5" font-family="Helvetica,sans-Serif" font-size="10.00">systemData</text>
<polyline fill="none" stroke="black" points="96.5,-1578.5 272.5,-1578.5 "/>
<text text-anchor="start" x="104.5" y="-1566.5" font-family="Helvetica,sans-Serif" font-size="10.00">&#45; m_return_val</text>
<text text-anchor="start" x="104.5" y="-1555.5" font-family="Helvetica,sans-Serif" font-size="10.00">&#45; m_return_bool</text>
<text text-anchor="start" x="104.5" y="-1544.5" font-family="Helvetica,sans-Serif" font-size="10.00">&#45; m_GSD_parsed</text>
<text text-anchor="start" x="104.5" y="-1533.5" font-family="Helvetica,sans-Serif" font-size="10.00">&#45; m_sys_spec_U0</text>
<text text-anchor="start" x="104.5" y="-1522.5" font-family="Helvetica,sans-Serif" font-size="10.00">&#45; m_sys_spec_omega</text>
<text text-anchor="start" x="104.5" y="-1511.5" font-family="Helvetica,sans-Serif" font-size="10.00">&#45; m_sys_spec_phase_shift</text>
<text text-anchor="start" x="104.5" y="-1500.5" font-family="Helvetica,sans-Serif" font-size="10.00">&#45; m_sys_spec_R_avg</text>
<text text-anchor="start" x="104.5" y="-1489.5" font-family="Helvetica,sans-Serif" font-size="10.00">&#45; m_particle_type_id</text>
<text text-anchor="start" x="104.5" y="-1478.5" font-family="Helvetica,sans-Serif" font-size="10.00">&#45; m_particle_group_id</text>
<text text-anchor="start" x="104.5" y="-1467.5" font-family="Helvetica,sans-Serif" font-size="10.00">&#45; m_fluid_density</text>
<text text-anchor="start" x="104.5" y="-1456.5" font-family="Helvetica,sans-Serif" font-size="10.00">&#45; m_particle_density</text>
<text text-anchor="start" x="104.5" y="-1445.5" font-family="Helvetica,sans-Serif" font-size="10.00">&#45; m_wca_epsilon</text>
<text text-anchor="start" x="104.5" y="-1434.5" font-family="Helvetica,sans-Serif" font-size="10.00">&#45; m_wca_sigma</text>
<text text-anchor="start" x="104.5" y="-1423.5" font-family="Helvetica,sans-Serif" font-size="10.00">&#45; m_num_spatial_dim</text>
<text text-anchor="start" x="104.5" y="-1412.5" font-family="Helvetica,sans-Serif" font-size="10.00">&#45; m_num_particles</text>
<text text-anchor="start" x="104.5" y="-1401.5" font-family="Helvetica,sans-Serif" font-size="10.00">&#45; m_num_bodies</text>
<text text-anchor="start" x="104.5" y="-1390.5" font-family="Helvetica,sans-Serif" font-size="10.00">&#45; m_num_DoF</text>
<text text-anchor="start" x="104.5" y="-1379.5" font-family="Helvetica,sans-Serif" font-size="10.00">&#45; m_num_constraints</text>
<text text-anchor="start" x="104.5" y="-1368.5" font-family="Helvetica,sans-Serif" font-size="10.00">&#45; m_dt</text>
<text text-anchor="start" x="104.5" y="-1357.5" font-family="Helvetica,sans-Serif" font-size="10.00">&#45; m_tf</text>
<text text-anchor="start" x="104.5" y="-1346.5" font-family="Helvetica,sans-Serif" font-size="10.00">&#45; m_t0</text>
<text text-anchor="start" x="104.5" y="-1335.5" font-family="Helvetica,sans-Serif" font-size="10.00">&#45; m_t</text>
<text text-anchor="start" x="104.5" y="-1324.5" font-family="Helvetica,sans-Serif" font-size="10.00">&#45; m_tau</text>
<text text-anchor="start" x="104.5" y="-1313.5" font-family="Helvetica,sans-Serif" font-size="10.00">&#45; m_timestep</text>
<text text-anchor="start" x="104.5" y="-1302.5" font-family="Helvetica,sans-Serif" font-size="10.00">&#45; m_num_steps_output</text>
<text text-anchor="start" x="104.5" y="-1291.5" font-family="Helvetica,sans-Serif" font-size="10.00">&#45; m_I3</text>
<text text-anchor="start" x="104.5" y="-1280.5" font-family="Helvetica,sans-Serif" font-size="10.00">&#45; m_tens_I3</text>
<text text-anchor="start" x="104.5" y="-1269.5" font-family="Helvetica,sans-Serif" font-size="10.00">&#45; m_levi_cevita</text>
<text text-anchor="start" x="104.5" y="-1258.5" font-family="Helvetica,sans-Serif" font-size="10.00">&#45; m_kappa_tilde</text>
<text text-anchor="start" x="104.5" y="-1247.5" font-family="Helvetica,sans-Serif" font-size="10.00">&#45; m_positions_bodies</text>
<text text-anchor="start" x="104.5" y="-1236.5" font-family="Helvetica,sans-Serif" font-size="10.00">&#45; m_velocities_bodies</text>
<text text-anchor="start" x="104.5" y="-1225.5" font-family="Helvetica,sans-Serif" font-size="10.00">&#45; m_accelerations_bodies</text>
<text text-anchor="start" x="104.5" y="-1214.5" font-family="Helvetica,sans-Serif" font-size="10.00">&#45; m_orientations_particles</text>
<text text-anchor="start" x="104.5" y="-1203.5" font-family="Helvetica,sans-Serif" font-size="10.00">&#45; m_quaternions_particles</text>
<text text-anchor="start" x="104.5" y="-1192.5" font-family="Helvetica,sans-Serif" font-size="10.00">&#45; m_positions_particles</text>
<text text-anchor="start" x="104.5" y="-1181.5" font-family="Helvetica,sans-Serif" font-size="10.00">&#45; m_velocities_particles</text>
<text text-anchor="start" x="104.5" y="-1170.5" font-family="Helvetica,sans-Serif" font-size="10.00">&#45; m_accelerations_particles</text>
<text text-anchor="start" x="104.5" y="-1159.5" font-family="Helvetica,sans-Serif" font-size="10.00">&#45; m_positions_particles</text>
<text text-anchor="start" x="104.5" y="-1148.5" font-family="Helvetica,sans-Serif" font-size="10.00">_articulation_init_norm</text>
<text text-anchor="start" x="104.5" y="-1137.5" font-family="Helvetica,sans-Serif" font-size="10.00">&#45; m_positions_particles</text>
<text text-anchor="start" x="104.5" y="-1126.5" font-family="Helvetica,sans-Serif" font-size="10.00">_articulation</text>
<text text-anchor="start" x="104.5" y="-1115.5" font-family="Helvetica,sans-Serif" font-size="10.00">&#45; m_velocities_particles</text>
<text text-anchor="start" x="104.5" y="-1104.5" font-family="Helvetica,sans-Serif" font-size="10.00">_articulation</text>
<text text-anchor="start" x="104.5" y="-1093.5" font-family="Helvetica,sans-Serif" font-size="10.00">&#45; m_accelerations_particles</text>
<text text-anchor="start" x="104.5" y="-1082.5" font-family="Helvetica,sans-Serif" font-size="10.00">_articulation</text>
<text text-anchor="start" x="104.5" y="-1071.5" font-family="Helvetica,sans-Serif" font-size="10.00">&#45; m_rbm_conn</text>
<text text-anchor="start" x="104.5" y="-1060.5" font-family="Helvetica,sans-Serif" font-size="10.00">&#45; m_psi_conv_quat_ang</text>
<text text-anchor="start" x="104.5" y="-1049.5" font-family="Helvetica,sans-Serif" font-size="10.00">&#45; m_rbm_conn_T_quat</text>
<text text-anchor="start" x="104.5" y="-1038.5" font-family="Helvetica,sans-Serif" font-size="10.00">&#45; m_tens_rbm_conn_T_quat</text>
<text text-anchor="start" x="104.5" y="-1027.5" font-family="Helvetica,sans-Serif" font-size="10.00">&#45; m_rbm_conn_T_quat_grad</text>
<text text-anchor="start" x="104.5" y="-1016.5" font-family="Helvetica,sans-Serif" font-size="10.00">&#45; m_conv_body_2_part_dof</text>
<text text-anchor="start" x="104.5" y="-1005.5" font-family="Helvetica,sans-Serif" font-size="10.00">&#45; m_tens_conv_body_2</text>
<text text-anchor="start" x="104.5" y="-994.5" font-family="Helvetica,sans-Serif" font-size="10.00">_part_dof</text>
<text text-anchor="start" x="104.5" y="-983.5" font-family="Helvetica,sans-Serif" font-size="10.00">&#45; m_Udwadia_A</text>
<text text-anchor="start" x="104.5" y="-972.5" font-family="Helvetica,sans-Serif" font-size="10.00">&#45; m_Udwadia_b</text>
<polyline fill="none" stroke="black" points="96.5,-965.5 272.5,-965.5 "/>
<text text-anchor="start" x="104.5" y="-953.5" font-family="Helvetica,sans-Serif" font-size="10.00">+ systemData()</text>
<text text-anchor="start" x="104.5" y="-942.5" font-family="Helvetica,sans-Serif" font-size="10.00">+ ~systemData()</text>
<text text-anchor="start" x="104.5" y="-931.5" font-family="Helvetica,sans-Serif" font-size="10.00">+ initializeData()</text>
<text text-anchor="start" x="104.5" y="-920.5" font-family="Helvetica,sans-Serif" font-size="10.00">+ update()</text>
<text text-anchor="start" x="104.5" y="-909.5" font-family="Helvetica,sans-Serif" font-size="10.00">+ inputGSDFile()</text>
<text text-anchor="start" x="104.5" y="-898.5" font-family="Helvetica,sans-Serif" font-size="10.00">+ outputDir()</text>
<text text-anchor="start" x="104.5" y="-887.5" font-family="Helvetica,sans-Serif" font-size="10.00">+ gsdUtil()</text>
<text text-anchor="start" x="104.5" y="-876.5" font-family="Helvetica,sans-Serif" font-size="10.00">+ handle()</text>
<text text-anchor="start" x="104.5" y="-865.5" font-family="Helvetica,sans-Serif" font-size="10.00">+ setReturnVal()</text>
<text text-anchor="start" x="104.5" y="-854.5" font-family="Helvetica,sans-Serif" font-size="10.00">+ returnVal()</text>
<text text-anchor="start" x="104.5" y="-843.5" font-family="Helvetica,sans-Serif" font-size="10.00">+ setReturnBool()</text>
<text text-anchor="start" x="104.5" y="-832.5" font-family="Helvetica,sans-Serif" font-size="10.00">+ returnBool()</text>
<text text-anchor="start" x="104.5" y="-821.5" font-family="Helvetica,sans-Serif" font-size="10.00">+ gSDParsed()</text>
<text text-anchor="start" x="104.5" y="-810.5" font-family="Helvetica,sans-Serif" font-size="10.00">+ sysSpecU0()</text>
<text text-anchor="start" x="104.5" y="-799.5" font-family="Helvetica,sans-Serif" font-size="10.00">+ setSysSpecU0()</text>
<text text-anchor="start" x="104.5" y="-788.5" font-family="Helvetica,sans-Serif" font-size="10.00">+ sysSpecOmega()</text>
<text text-anchor="start" x="104.5" y="-777.5" font-family="Helvetica,sans-Serif" font-size="10.00">+ setSysSpecOmega()</text>
<text text-anchor="start" x="104.5" y="-766.5" font-family="Helvetica,sans-Serif" font-size="10.00">+ sysSpecPhaseShift()</text>
<text text-anchor="start" x="104.5" y="-755.5" font-family="Helvetica,sans-Serif" font-size="10.00">+ setSysSpecPhaseShift()</text>
<text text-anchor="start" x="104.5" y="-744.5" font-family="Helvetica,sans-Serif" font-size="10.00">+ sysSpecRAvg()</text>
<text text-anchor="start" x="104.5" y="-733.5" font-family="Helvetica,sans-Serif" font-size="10.00">+ setSysSpecRAvg()</text>
<text text-anchor="start" x="104.5" y="-722.5" font-family="Helvetica,sans-Serif" font-size="10.00">+ particleTypeId()</text>
<text text-anchor="start" x="104.5" y="-711.5" font-family="Helvetica,sans-Serif" font-size="10.00">+ setParticleTypeId()</text>
<text text-anchor="start" x="104.5" y="-700.5" font-family="Helvetica,sans-Serif" font-size="10.00">+ fluidDensity()</text>
<text text-anchor="start" x="104.5" y="-689.5" font-family="Helvetica,sans-Serif" font-size="10.00">+ setFluidDensity()</text>
<text text-anchor="start" x="104.5" y="-678.5" font-family="Helvetica,sans-Serif" font-size="10.00">+ particleDensity()</text>
<text text-anchor="start" x="104.5" y="-667.5" font-family="Helvetica,sans-Serif" font-size="10.00">+ setParticleDensity()</text>
<text text-anchor="start" x="104.5" y="-656.5" font-family="Helvetica,sans-Serif" font-size="10.00">+ wcaEpsilon()</text>
<text text-anchor="start" x="104.5" y="-645.5" font-family="Helvetica,sans-Serif" font-size="10.00">+ setWcaEpsilon()</text>
<text text-anchor="start" x="104.5" y="-634.5" font-family="Helvetica,sans-Serif" font-size="10.00">+ wcaSigma()</text>
<text text-anchor="start" x="104.5" y="-623.5" font-family="Helvetica,sans-Serif" font-size="10.00">+ setWcaSigma()</text>
<text text-anchor="start" x="104.5" y="-612.5" font-family="Helvetica,sans-Serif" font-size="10.00">+ numSpatialDim()</text>
<text text-anchor="start" x="104.5" y="-601.5" font-family="Helvetica,sans-Serif" font-size="10.00">+ setNumSpatialDim()</text>
<text text-anchor="start" x="104.5" y="-590.5" font-family="Helvetica,sans-Serif" font-size="10.00">+ numParticles()</text>
<text text-anchor="start" x="104.5" y="-579.5" font-family="Helvetica,sans-Serif" font-size="10.00">+ setNumParticles()</text>
<text text-anchor="start" x="104.5" y="-568.5" font-family="Helvetica,sans-Serif" font-size="10.00">+ numBodies()</text>
<text text-anchor="start" x="104.5" y="-557.5" font-family="Helvetica,sans-Serif" font-size="10.00">+ setNumBodies()</text>
<text text-anchor="start" x="104.5" y="-546.5" font-family="Helvetica,sans-Serif" font-size="10.00">+ numDoF()</text>
<text text-anchor="start" x="104.5" y="-535.5" font-family="Helvetica,sans-Serif" font-size="10.00">+ tensI3()</text>
<text text-anchor="start" x="104.5" y="-524.5" font-family="Helvetica,sans-Serif" font-size="10.00">+ i3()</text>
<text text-anchor="start" x="104.5" y="-513.5" font-family="Helvetica,sans-Serif" font-size="10.00">+ dt()</text>
<text text-anchor="start" x="104.5" y="-502.5" font-family="Helvetica,sans-Serif" font-size="10.00">+ setDt()</text>
<text text-anchor="start" x="104.5" y="-491.5" font-family="Helvetica,sans-Serif" font-size="10.00">+ tf()</text>
<text text-anchor="start" x="104.5" y="-480.5" font-family="Helvetica,sans-Serif" font-size="10.00">+ setTf()</text>
<text text-anchor="start" x="104.5" y="-469.5" font-family="Helvetica,sans-Serif" font-size="10.00">+ t()</text>
<text text-anchor="start" x="104.5" y="-458.5" font-family="Helvetica,sans-Serif" font-size="10.00">+ setT()</text>
<text text-anchor="start" x="104.5" y="-447.5" font-family="Helvetica,sans-Serif" font-size="10.00">+ tau()</text>
<text text-anchor="start" x="104.5" y="-436.5" font-family="Helvetica,sans-Serif" font-size="10.00">+ setTau()</text>
<text text-anchor="start" x="104.5" y="-425.5" font-family="Helvetica,sans-Serif" font-size="10.00">+ timestep()</text>
<text text-anchor="start" x="104.5" y="-414.5" font-family="Helvetica,sans-Serif" font-size="10.00">+ setTimestep()</text>
<text text-anchor="start" x="104.5" y="-403.5" font-family="Helvetica,sans-Serif" font-size="10.00">+ numStepsOutput()</text>
<text text-anchor="start" x="104.5" y="-392.5" font-family="Helvetica,sans-Serif" font-size="10.00">+ setNumStepsOutput()</text>
<text text-anchor="start" x="104.5" y="-381.5" font-family="Helvetica,sans-Serif" font-size="10.00">+ positionsBodies()</text>
<text text-anchor="start" x="104.5" y="-370.5" font-family="Helvetica,sans-Serif" font-size="10.00">+ setPositionsBodies()</text>
<text text-anchor="start" x="104.5" y="-359.5" font-family="Helvetica,sans-Serif" font-size="10.00">+ velocitiesBodies()</text>
<text text-anchor="start" x="104.5" y="-348.5" font-family="Helvetica,sans-Serif" font-size="10.00">+ setVelocitiesBodies()</text>
<text text-anchor="start" x="104.5" y="-337.5" font-family="Helvetica,sans-Serif" font-size="10.00">+ accelerationsBodies()</text>
<text text-anchor="start" x="104.5" y="-326.5" font-family="Helvetica,sans-Serif" font-size="10.00">+ setAccelerationsBodies()</text>
<text text-anchor="start" x="104.5" y="-315.5" font-family="Helvetica,sans-Serif" font-size="10.00">+ orientationsParticles()</text>
<text text-anchor="start" x="104.5" y="-304.5" font-family="Helvetica,sans-Serif" font-size="10.00">+ setOrientationsParticles()</text>
<text text-anchor="start" x="104.5" y="-293.5" font-family="Helvetica,sans-Serif" font-size="10.00">+ positionsParticles()</text>
<text text-anchor="start" x="104.5" y="-282.5" font-family="Helvetica,sans-Serif" font-size="10.00">+ setPositionsParticles()</text>
<text text-anchor="start" x="104.5" y="-271.5" font-family="Helvetica,sans-Serif" font-size="10.00">+ velocitiesParticles()</text>
<text text-anchor="start" x="104.5" y="-260.5" font-family="Helvetica,sans-Serif" font-size="10.00">+ setVelocitiesParticles()</text>
<text text-anchor="start" x="104.5" y="-249.5" font-family="Helvetica,sans-Serif" font-size="10.00">+ accelerationsParticles()</text>
<text text-anchor="start" x="104.5" y="-238.5" font-family="Helvetica,sans-Serif" font-size="10.00">+ setAccelerationsParticles()</text>
<text text-anchor="start" x="104.5" y="-227.5" font-family="Helvetica,sans-Serif" font-size="10.00">+ velocitiesParticlesArticulation()</text>
<text text-anchor="start" x="104.5" y="-216.5" font-family="Helvetica,sans-Serif" font-size="10.00">+ accelerationsParticlesArticulation()</text>
<text text-anchor="start" x="104.5" y="-205.5" font-family="Helvetica,sans-Serif" font-size="10.00">+ tensRbmConnTQuat()</text>
<text text-anchor="start" x="104.5" y="-194.5" font-family="Helvetica,sans-Serif" font-size="10.00">+ tensRbmConnTQuatGrad()</text>
<text text-anchor="start" x="104.5" y="-183.5" font-family="Helvetica,sans-Serif" font-size="10.00">+ tensConvBody2PartDof()</text>
<text text-anchor="start" x="104.5" y="-172.5" font-family="Helvetica,sans-Serif" font-size="10.00">+ udwadiaA()</text>
<text text-anchor="start" x="104.5" y="-161.5" font-family="Helvetica,sans-Serif" font-size="10.00">+ udwadiaB()</text>
<text text-anchor="start" x="104.5" y="-150.5" font-family="Helvetica,sans-Serif" font-size="10.00">&#45; parseGSD()</text>
<text text-anchor="start" x="104.5" y="-139.5" font-family="Helvetica,sans-Serif" font-size="10.00">&#45; checkInput()</text>
<text text-anchor="start" x="104.5" y="-128.5" font-family="Helvetica,sans-Serif" font-size="10.00">&#45; orientationsArticulation()</text>
<text text-anchor="start" x="104.5" y="-117.5" font-family="Helvetica,sans-Serif" font-size="10.00">&#45; positionsArticulation()</text>
<text text-anchor="start" x="104.5" y="-106.5" font-family="Helvetica,sans-Serif" font-size="10.00">&#45; velocitiesArticulation()</text>
<text text-anchor="start" x="104.5" y="-95.5" font-family="Helvetica,sans-Serif" font-size="10.00">&#45; accelerationsArticulation()</text>
<text text-anchor="start" x="104.5" y="-84.5" font-family="Helvetica,sans-Serif" font-size="10.00">&#45; positionsParticlesfromBodies()</text>
<text text-anchor="start" x="104.5" y="-73.5" font-family="Helvetica,sans-Serif" font-size="10.00">&#45; udwadiaLinearSystem()</text>
<text text-anchor="start" x="104.5" y="-62.5" font-family="Helvetica,sans-Serif" font-size="10.00">&#45; rigidBodyMotionTensors()</text>
<text text-anchor="start" x="104.5" y="-51.5" font-family="Helvetica,sans-Serif" font-size="10.00">&#45; gradientChangeOfVariable</text>
<text text-anchor="start" x="104.5" y="-40.5" font-family="Helvetica,sans-Serif" font-size="10.00">Tensors()</text>
<text text-anchor="start" x="104.5" y="-29.5" font-family="Helvetica,sans-Serif" font-size="10.00">&#45; convertBody2ParticleDoF()</text>
<text text-anchor="start" x="104.5" y="-18.5" font-family="Helvetica,sans-Serif" font-size="10.00">&#45; eMatrix()</text>
<text text-anchor="start" x="104.5" y="-7.5" font-family="Helvetica,sans-Serif" font-size="10.00">&#45; crossProdMat()</text>
</a>
</g>
</g>
<!-- Node3&#45;&gt;Node2 -->
<g id="edge2" class="edge">
<title>Node3&#45;&gt;Node2</title>
<path fill="none" stroke="#404040" d="M272.62,-1039.01C331.82,-1206.73 407.97,-1437.27 458.5,-1645 526.21,-1923.38 473.63,-2008.97 563.5,-2281 569.51,-2299.19 578.73,-2318.19 587.42,-2334.14"/>
<polygon fill="none" stroke="#404040" points="587.44,-2334.18 593.86,-2337.46 593.31,-2344.65 586.88,-2341.37 587.44,-2334.18"/>
<text text-anchor="middle" x="494" y="-1751.5" font-family="Helvetica,sans-Serif" font-size="10.00"> +ptr</text>
</g>
<!-- Node4 -->
<g id="node4" class="node">
<title>Node4</title>
<g id="a_node4"><a xlink:title=" ">
<polygon fill="none" stroke="#bfbfbf" points="22.5,-1645.5 22.5,-1713.5 156.5,-1713.5 156.5,-1645.5 22.5,-1645.5"/>
<text text-anchor="start" x="30.5" y="-1701.5" font-family="Helvetica,sans-Serif" font-size="10.00">std::enable_shared</text>
<text text-anchor="middle" x="89.5" y="-1690.5" font-family="Helvetica,sans-Serif" font-size="10.00">_from_this&lt; systemData &gt;</text>
<polyline fill="none" stroke="#bfbfbf" points="22.5,-1683.5 156.5,-1683.5 "/>
<text text-anchor="middle" x="89.5" y="-1671.5" font-family="Helvetica,sans-Serif" font-size="10.00"> </text>
<polyline fill="none" stroke="#bfbfbf" points="22.5,-1664.5 156.5,-1664.5 "/>
<text text-anchor="middle" x="89.5" y="-1652.5" font-family="Helvetica,sans-Serif" font-size="10.00"> </text>
</a>
</g>
</g>
<!-- Node4&#45;&gt;Node3 -->
<g id="edge3" class="edge">
<title>Node4&#45;&gt;Node3</title>
<path fill="none" stroke="midnightblue" d="M94.18,-1635.24C95.34,-1624.47 96.7,-1611.91 98.22,-1597.83"/>
<polygon fill="none" stroke="midnightblue" points="90.67,-1635.08 93.08,-1645.4 97.63,-1635.83 90.67,-1635.08"/>
</g>
<!-- Node5 -->
<g id="node5" class="node">
<title>Node5</title>
<g id="a_node5"><a xlink:title=" ">
<polygon fill="none" stroke="#bfbfbf" points="312,-1651 312,-1708 449,-1708 449,-1651 312,-1651"/>
<text text-anchor="middle" x="380.5" y="-1696" font-family="Helvetica,sans-Serif" font-size="10.00">std::shared_ptr&lt; GSDUtil &gt;</text>
<polyline fill="none" stroke="#bfbfbf" points="312,-1689 449,-1689 "/>
<text text-anchor="middle" x="380.5" y="-1677" font-family="Helvetica,sans-Serif" font-size="10.00"> </text>
<polyline fill="none" stroke="#bfbfbf" points="312,-1670 449,-1670 "/>
<text text-anchor="start" x="320" y="-1658" font-family="Helvetica,sans-Serif" font-size="10.00">+ operator&#45;&gt;()</text>
</a>
</g>
</g>
<!-- Node5&#45;&gt;Node3 -->
<g id="edge4" class="edge">
<title>Node5&#45;&gt;Node3</title>
<path fill="none" stroke="#404040" d="M374.31,-1650.76C358.7,-1580.8 316.06,-1389.68 275.14,-1206.27"/>
<polygon fill="none" stroke="#404040" points="275.13,-1206.19 269.91,-1201.21 272.51,-1194.48 277.72,-1199.47 275.13,-1206.19"/>
<text text-anchor="middle" x="392" y="-1619" font-family="Helvetica,sans-Serif" font-size="10.00"> &#45;m_gsdUtil</text>
</g>
<!-- Node6&#45;&gt;Node5 -->
<g id="edge5" class="edge">
<title>Node6&#45;&gt;Node5</title>
<path fill="none" stroke="#404040" d="M357.93,-1931.61C364.3,-1860.71 372.36,-1771.07 376.92,-1720.32"/>
<polygon fill="none" stroke="#404040" points="376.93,-1720.25 373.48,-1713.91 378,-1708.3 381.45,-1714.63 376.93,-1720.25"/>
<text text-anchor="middle" x="386" y="-1751.5" font-family="Helvetica,sans-Serif" font-size="10.00"> +ptr</text>
</g>
<!-- Node7 -->
<g id="node7" class="node">
<title>Node7</title>
<g id="a_node7"><a xlink:title="STL class.">
<polygon fill="none" stroke="#bfbfbf" points="220.5,-2345 220.5,-2402 280.5,-2402 280.5,-2345 220.5,-2345"/>
<text text-anchor="middle" x="250.5" y="-2390" font-family="Helvetica,sans-Serif" font-size="10.00">std::string</text>
<polyline fill="none" stroke="#bfbfbf" points="220.5,-2383 280.5,-2383 "/>
<text text-anchor="middle" x="250.5" y="-2371" font-family="Helvetica,sans-Serif" font-size="10.00"> </text>
<polyline fill="none" stroke="#bfbfbf" points="220.5,-2364 280.5,-2364 "/>
<text text-anchor="middle" x="250.5" y="-2352" font-family="Helvetica,sans-Serif" font-size="10.00"> </text>
</a>
</g>
</g>
<!-- Node7&#45;&gt;Node1 -->
<g id="edge16" class="edge">
<title>Node7&#45;&gt;Node1</title>
<path fill="none" stroke="#404040" d="M250.69,-2344.71C251.49,-2261.16 255.78,-2004.94 278.5,-1794 285.69,-1727.24 282.18,-1708.67 303.5,-1645 400.48,-1355.43 586.44,-1044.01 682.59,-892.88"/>
<polygon fill="none" stroke="#404040" points="682.62,-892.84 682.47,-885.63 689.07,-882.72 689.22,-889.93 682.62,-892.84"/>
<text text-anchor="middle" x="313" y="-1757" font-family="Helvetica,sans-Serif" font-size="10.00"> &#45;m_logName</text>
<text text-anchor="middle" x="313" y="-1746" font-family="Helvetica,sans-Serif" font-size="10.00">&#45;m_logFile</text>
</g>
<!-- Node7&#45;&gt;Node3 -->
<g id="edge11" class="edge">
<title>Node7&#45;&gt;Node3</title>
<path fill="none" stroke="#404040" d="M230.53,-2344.79C226.14,-2337.39 222.05,-2329.17 219.5,-2321 147.3,-2089.3 193.18,-2018.57 185.5,-1776 183.78,-1721.85 182.48,-1665.99 181.52,-1609.71"/>
<polygon fill="none" stroke="#404040" points="181.52,-1609.69 177.42,-1603.76 181.32,-1597.7 185.42,-1603.63 181.52,-1609.69"/>
<text text-anchor="middle" x="223.5" y="-1768" font-family="Helvetica,sans-Serif" font-size="10.00"> &#45;m_outputDir</text>
<text text-anchor="middle" x="223.5" y="-1757" font-family="Helvetica,sans-Serif" font-size="10.00">&#45;m_logName</text>
<text text-anchor="middle" x="223.5" y="-1746" font-family="Helvetica,sans-Serif" font-size="10.00">&#45;m_logFile</text>
<text text-anchor="middle" x="223.5" y="-1735" font-family="Helvetica,sans-Serif" font-size="10.00">&#45;m_inputGSDFile</text>
</g>
<!-- Node7&#45;&gt;Node6 -->
<g id="edge7" class="edge">
<title>Node7&#45;&gt;Node6</title>
<path fill="none" stroke="#404040" d="M256.4,-2344.81C259.47,-2330.98 263.43,-2314.04 267.5,-2299 280.37,-2251.48 296.14,-2199.6 310.34,-2154.73"/>
<polygon fill="none" stroke="#404040" points="310.37,-2154.62 308.38,-2147.69 314,-2143.18 316,-2150.11 310.37,-2154.62"/>
<text text-anchor="middle" x="297" y="-2313" font-family="Helvetica,sans-Serif" font-size="10.00"> &#45;m_logName</text>
<text text-anchor="middle" x="297" y="-2302" font-family="Helvetica,sans-Serif" font-size="10.00">&#45;m_logFile</text>
</g>
<!-- Node7&#45;&gt;Node14 -->
<g id="edge20" class="edge">
<title>Node7&#45;&gt;Node14</title>
<path fill="none" stroke="#404040" d="M280.71,-2367.14C312.82,-2360.37 364.01,-2346.4 401.5,-2321 411.79,-2314.03 497.26,-2213.23 563.75,-2134"/>
<polygon fill="none" stroke="#404040" points="564.04,-2133.65 564.84,-2126.48 571.76,-2124.45 570.97,-2131.62 564.04,-2133.65"/>
<text text-anchor="middle" x="449" y="-2313" font-family="Helvetica,sans-Serif" font-size="10.00"> &#45;m_logName</text>
<text text-anchor="middle" x="449" y="-2302" font-family="Helvetica,sans-Serif" font-size="10.00">&#45;m_logFile</text>
</g>
<!-- Node8 -->
<g id="node8" class="node">
<title>Node8</title>
<g id="a_node8"><a xlink:title="STL class.">
<polygon fill="none" stroke="#bfbfbf" points="203,-2455.5 203,-2523.5 298,-2523.5 298,-2455.5 203,-2455.5"/>
<text text-anchor="start" x="211" y="-2511.5" font-family="Helvetica,sans-Serif" font-size="10.00">std::basic_string&lt;</text>
<text text-anchor="middle" x="250.5" y="-2500.5" font-family="Helvetica,sans-Serif" font-size="10.00"> char &gt;</text>
<polyline fill="none" stroke="#bfbfbf" points="203,-2493.5 298,-2493.5 "/>
<text text-anchor="middle" x="250.5" y="-2481.5" font-family="Helvetica,sans-Serif" font-size="10.00"> </text>
<polyline fill="none" stroke="#bfbfbf" points="203,-2474.5 298,-2474.5 "/>
<text text-anchor="middle" x="250.5" y="-2462.5" font-family="Helvetica,sans-Serif" font-size="10.00"> </text>
</a>
</g>
</g>
<!-- Node8&#45;&gt;Node7 -->
<g id="edge8" class="edge">
<title>Node8&#45;&gt;Node7</title>
<path fill="none" stroke="midnightblue" d="M250.5,-2445.03C250.5,-2430.67 250.5,-2415.1 250.5,-2402.24"/>
<polygon fill="none" stroke="midnightblue" points="247,-2445.22 250.5,-2455.22 254,-2445.22 247,-2445.22"/>
</g>
<!-- Node9 -->
<g id="node9" class="node">
<title>Node9</title>
<g id="a_node9"><a xlink:title="STL class.">
<polygon fill="none" stroke="#bfbfbf" points="487,-2461 487,-2518 592,-2518 592,-2461 487,-2461"/>
<text text-anchor="middle" x="539.5" y="-2506" font-family="Helvetica,sans-Serif" font-size="10.00">std::shared_ptr&lt; T &gt;</text>
<polyline fill="none" stroke="#bfbfbf" points="487,-2499 592,-2499 "/>
<text text-anchor="middle" x="539.5" y="-2487" font-family="Helvetica,sans-Serif" font-size="10.00"> </text>
<polyline fill="none" stroke="#bfbfbf" points="487,-2480 592,-2480 "/>
<text text-anchor="start" x="495" y="-2468" font-family="Helvetica,sans-Serif" font-size="10.00">+ operator&#45;&gt;()</text>
</a>
</g>
</g>
<!-- Node9&#45;&gt;Node2 -->
<g id="edge15" class="edge">
<title>Node9&#45;&gt;Node2</title>
<path fill="none" stroke="orange" d="M562.1,-2452.22C572.18,-2436.04 583.86,-2417.27 593.23,-2402.24"/>
<polygon fill="orange" stroke="orange" points="559,-2450.57 556.69,-2460.9 564.94,-2454.27 559,-2450.57"/>
<text text-anchor="middle" x="614" y="-2429" font-family="Helvetica,sans-Serif" font-size="10.00"> &lt; systemData &gt;</text>
</g>
<!-- Node9&#45;&gt;Node5 -->
<g id="edge9" class="edge">
<title>Node9&#45;&gt;Node5</title>
<path fill="none" stroke="orange" d="M531.8,-2451.05C524.9,-2417.14 514.65,-2365.79 506.5,-2321 463.99,-2087.37 471.25,-2025.53 418.5,-1794 412.13,-1766.02 409.7,-1759.18 400.5,-1732 397.85,-1724.19 394.73,-1715.81 391.75,-1708.13"/>
<polygon fill="orange" stroke="orange" points="528.4,-2451.88 533.82,-2460.98 535.25,-2450.48 528.4,-2451.88"/>
<text text-anchor="middle" x="535.5" y="-2307.5" font-family="Helvetica,sans-Serif" font-size="10.00"> &lt; GSDUtil &gt;</text>
</g>
<!-- Node11 -->
<g id="node11" class="node">
<title>Node11</title>
<g id="a_node11"><a xlink:title=" ">
<polygon fill="none" stroke="#bfbfbf" points="0,-2339.5 0,-2407.5 107,-2407.5 107,-2339.5 0,-2339.5"/>
<text text-anchor="start" x="8" y="-2395.5" font-family="Helvetica,sans-Serif" font-size="10.00">std::shared_ptr&lt; gsd</text>
<text text-anchor="middle" x="53.5" y="-2384.5" font-family="Helvetica,sans-Serif" font-size="10.00">_handle &gt;</text>
<polyline fill="none" stroke="#bfbfbf" points="0,-2377.5 107,-2377.5 "/>
<text text-anchor="middle" x="53.5" y="-2365.5" font-family="Helvetica,sans-Serif" font-size="10.00"> </text>
<polyline fill="none" stroke="#bfbfbf" points="0,-2358.5 107,-2358.5 "/>
<text text-anchor="middle" x="53.5" y="-2346.5" font-family="Helvetica,sans-Serif" font-size="10.00"> </text>
</a>
</g>
</g>
<!-- Node9&#45;&gt;Node11 -->
<g id="edge14" class="edge">
<title>Node9&#45;&gt;Node11</title>
<path fill="none" stroke="orange" d="M476.66,-2473.76C380.28,-2451.15 197.62,-2408.31 107.11,-2387.08"/>
<polygon fill="orange" stroke="orange" points="476.03,-2477.21 486.56,-2476.08 477.63,-2470.39 476.03,-2477.21"/>
<text text-anchor="middle" x="346" y="-2429" font-family="Helvetica,sans-Serif" font-size="10.00"> &lt; gsd_handle &gt;</text>
</g>
<!-- Node13 -->
<g id="node13" class="node">
<title>Node13</title>
<g id="a_node13"><a xlink:title=" ">
<polygon fill="none" stroke="#bfbfbf" points="771.5,-1645.5 771.5,-1713.5 899.5,-1713.5 899.5,-1645.5 771.5,-1645.5"/>
<text text-anchor="start" x="779.5" y="-1701.5" font-family="Helvetica,sans-Serif" font-size="10.00">std::shared_ptr&lt; potential</text>
<text text-anchor="middle" x="835.5" y="-1690.5" font-family="Helvetica,sans-Serif" font-size="10.00">Hydrodynamics &gt;</text>
<polyline fill="none" stroke="#bfbfbf" points="771.5,-1683.5 899.5,-1683.5 "/>
<text text-anchor="middle" x="835.5" y="-1671.5" font-family="Helvetica,sans-Serif" font-size="10.00"> </text>
<polyline fill="none" stroke="#bfbfbf" points="771.5,-1664.5 899.5,-1664.5 "/>
<text text-anchor="start" x="779.5" y="-1652.5" font-family="Helvetica,sans-Serif" font-size="10.00">+ operator&#45;&gt;()</text>
</a>
</g>
</g>
<!-- Node9&#45;&gt;Node13 -->
<g id="edge21" class="edge">
<title>Node9&#45;&gt;Node13</title>
<path fill="none" stroke="orange" d="M601.89,-2470.81C634.73,-2458.38 672.96,-2438.43 696.5,-2408 799.13,-2275.28 820.23,-1991.16 840.5,-1776 842.45,-1755.34 841.3,-1732.09 839.62,-1713.7"/>
<polygon fill="orange" stroke="orange" points="600.55,-2467.57 592.34,-2474.27 602.93,-2474.15 600.55,-2467.57"/>
<text text-anchor="middle" x="817" y="-2307.5" font-family="Helvetica,sans-Serif" font-size="10.00"> &lt; potentialHydrodynamics &gt;</text>
</g>
<!-- Node10 -->
<g id="node10" class="node">
<title>Node10</title>
<g id="a_node10"><a xlink:title=" ">
<polygon fill="none" stroke="#bfbfbf" points="525,-2571.5 525,-2628.5 554,-2628.5 554,-2571.5 525,-2571.5"/>
<text text-anchor="middle" x="539.5" y="-2616.5" font-family="Helvetica,sans-Serif" font-size="10.00">T</text>
<polyline fill="none" stroke="#bfbfbf" points="525,-2609.5 554,-2609.5 "/>
<text text-anchor="middle" x="539.5" y="-2597.5" font-family="Helvetica,sans-Serif" font-size="10.00"> </text>
<polyline fill="none" stroke="#bfbfbf" points="525,-2590.5 554,-2590.5 "/>
<text text-anchor="middle" x="539.5" y="-2578.5" font-family="Helvetica,sans-Serif" font-size="10.00"> </text>
</a>
</g>
</g>
<!-- Node10&#45;&gt;Node9 -->
<g id="edge10" class="edge">
<title>Node10&#45;&gt;Node9</title>
<path fill="none" stroke="#404040" d="M539.5,-2571.34C539.5,-2558.84 539.5,-2543.84 539.5,-2530.18"/>
<polygon fill="none" stroke="#404040" points="539.5,-2530.11 535.5,-2524.11 539.5,-2518.11 543.5,-2524.11 539.5,-2530.11"/>
<text text-anchor="middle" x="550" y="-2545" font-family="Helvetica,sans-Serif" font-size="10.00"> +ptr</text>
</g>
<!-- Node11&#45;&gt;Node3 -->
<g id="edge12" class="edge">
<title>Node11&#45;&gt;Node3</title>
<path fill="none" stroke="#404040" d="M50.77,-2339.3C42.99,-2242.82 20.79,-1954.12 13.5,-1714 7.27,-1508.74 49.45,-1281.8 93.47,-1105.4"/>
<polygon fill="none" stroke="#404040" points="93.52,-1105.22 91.1,-1098.43 96.44,-1093.59 98.86,-1100.38 93.52,-1105.22"/>
<text text-anchor="middle" x="41" y="-1751.5" font-family="Helvetica,sans-Serif" font-size="10.00"> &#45;m_handle</text>
</g>
<!-- Node12 -->
<g id="node12" class="node">
<title>Node12</title>
<g id="a_node12"><a xlink:title=" ">
<polygon fill="none" stroke="#bfbfbf" points="20.5,-2461 20.5,-2518 86.5,-2518 86.5,-2461 20.5,-2461"/>
<text text-anchor="middle" x="53.5" y="-2506" font-family="Helvetica,sans-Serif" font-size="10.00">gsd_handle</text>
<polyline fill="none" stroke="#bfbfbf" points="20.5,-2499 86.5,-2499 "/>
<text text-anchor="middle" x="53.5" y="-2487" font-family="Helvetica,sans-Serif" font-size="10.00"> </text>
<polyline fill="none" stroke="#bfbfbf" points="20.5,-2480 86.5,-2480 "/>
<text text-anchor="middle" x="53.5" y="-2468" font-family="Helvetica,sans-Serif" font-size="10.00"> </text>
</a>
</g>
</g>
<!-- Node12&#45;&gt;Node11 -->
<g id="edge13" class="edge">
<title>Node12&#45;&gt;Node11</title>
<path fill="none" stroke="#404040" d="M53.5,-2460.9C53.5,-2448.59 53.5,-2433.76 53.5,-2419.89"/>
<polygon fill="none" stroke="#404040" points="53.5,-2419.52 49.5,-2413.52 53.5,-2407.52 57.5,-2413.52 53.5,-2419.52"/>
<text text-anchor="middle" x="64" y="-2429" font-family="Helvetica,sans-Serif" font-size="10.00"> +ptr</text>
</g>
<!-- Node13&#45;&gt;Node1 -->
<g id="edge17" class="edge">
<title>Node13&#45;&gt;Node1</title>
<path fill="none" stroke="#404040" d="M832.03,-1645.4C819.15,-1522.35 773.71,-1088.46 753.42,-894.69"/>
<polygon fill="none" stroke="#404040" points="753.4,-894.49 748.79,-888.94 752.15,-882.56 756.75,-888.11 753.4,-894.49"/>
<text text-anchor="middle" x="858.5" y="-1619" font-family="Helvetica,sans-Serif" font-size="10.00"> &#45;m_potHydro</text>
</g>
<!-- Node14&#45;&gt;Node13 -->
<g id="edge18" class="edge">
<title>Node14&#45;&gt;Node13</title>
<path fill="none" stroke="#404040" d="M715.1,-1922.72C742.1,-1877.8 772.14,-1825.24 796.5,-1776 804.55,-1759.72 812.34,-1741.36 818.82,-1725.12"/>
<polygon fill="none" stroke="#404040" points="818.9,-1724.89 817.37,-1717.85 823.28,-1713.72 824.82,-1720.77 818.9,-1724.89"/>
<text text-anchor="middle" x="826" y="-1751.5" font-family="Helvetica,sans-Serif" font-size="10.00"> +ptr</text>
</g>
</g>
</svg>
