<?xml version="1.0" encoding="UTF-8" standalone="no"?>
<!DOCTYPE svg PUBLIC "-//W3C//DTD SVG 1.1//EN"
 "http://www.w3.org/Graphics/SVG/1.1/DTD/svg11.dtd">
<!-- Generated by graphviz version 2.43.0 (0)
 -->
<!-- Title: GSDUtil::checkGSDReturn Pages: 1 -->
<svg width="632pt" height="413pt"
 viewBox="0.00 0.00 632.00 412.65" xmlns="http://www.w3.org/2000/svg" xmlns:xlink="http://www.w3.org/1999/xlink">
<g id="graph0" class="graph" transform="scale(1 1) rotate(0) translate(4 408.65)">
<title>GSDUtil::checkGSDReturn</title>
<!-- Node1 -->
<g id="node1" class="node">
<title>Node1</title>
<g id="a_node1"><a xlink:title="Helper function that checks data parsing from GSD is successful.">
<polygon fill="#bfbfbf" stroke="black" points="487,-190.5 487,-209.5 624,-209.5 624,-190.5 487,-190.5"/>
<text text-anchor="middle" x="555.5" y="-197.5" font-family="Helvetica,sans-Serif" font-size="10.00">GSDUtil::checkGSDReturn</text>
</a>
</g>
</g>
<!-- Node2 -->
<g id="node2" class="node">
<title>Node2</title>
<g id="a_node2"><a xlink:href="classGSDUtil.html#a2567bdb7f5952a76984552e0591fa330" target="_top" xlink:title="Construct a new GSDUtil object.">
<polygon fill="none" stroke="black" points="0,-304.5 0,-323.5 96,-323.5 96,-304.5 0,-304.5"/>
<text text-anchor="middle" x="48" y="-311.5" font-family="Helvetica,sans-Serif" font-size="10.00">GSDUtil::GSDUtil</text>
</a>
</g>
</g>
<!-- Node1&#45;&gt;Node2 -->
<g id="edge1" class="edge">
<title>Node1&#45;&gt;Node2</title>
<path fill="none" stroke="midnightblue" d="M547.6,-218.96C534.47,-252.06 502.51,-319.8 451,-351 329.49,-424.59 267.67,-413.1 132,-371 101.95,-361.67 73.12,-337.28 58.66,-323.62"/>
<polygon fill="midnightblue" stroke="midnightblue" points="550.91,-220.12 551.21,-209.53 544.37,-217.62 550.91,-220.12"/>
</g>
<!-- Node3 -->
<g id="node3" class="node">
<title>Node3</title>
<g id="a_node3"><a xlink:href="classGSDUtil.html#a86d2352b694afc6a0c938a13b3acec9d" target="_top" xlink:title="Finds and then loads data from GSD.">
<polygon fill="none" stroke="black" points="332,-266.5 332,-285.5 439,-285.5 439,-266.5 332,-266.5"/>
<text text-anchor="middle" x="385.5" y="-273.5" font-family="Helvetica,sans-Serif" font-size="10.00">GSDUtil::readChunk</text>
</a>
</g>
</g>
<!-- Node1&#45;&gt;Node3 -->
<g id="edge2" class="edge">
<title>Node1&#45;&gt;Node3</title>
<path fill="none" stroke="midnightblue" d="M528,-214.32C507.31,-225.26 477.7,-240.37 451,-252 439.06,-257.2 425.6,-262.33 414.07,-266.49"/>
<polygon fill="midnightblue" stroke="midnightblue" points="529.65,-217.41 536.83,-209.62 526.36,-211.23 529.65,-217.41"/>
</g>
<!-- Node4 -->
<g id="node4" class="node">
<title>Node4</title>
<g id="a_node4"><a xlink:href="classGSDUtil.html#a2015dcdcdb33be9106f5c8f45f8564cc" target="_top" xlink:title="Read header information from GSD frame m_frame">
<polygon fill="none" stroke="black" points="153,-228.5 153,-247.5 263,-247.5 263,-228.5 153,-228.5"/>
<text text-anchor="middle" x="208" y="-235.5" font-family="Helvetica,sans-Serif" font-size="10.00">GSDUtil::readHeader</text>
</a>
</g>
</g>
<!-- Node1&#45;&gt;Node4 -->
<g id="edge11" class="edge">
<title>Node1&#45;&gt;Node4</title>
<path fill="none" stroke="midnightblue" d="M476.85,-207.49C431.15,-212.01 372.26,-218.03 320,-224 301.47,-226.12 281.23,-228.61 263.17,-230.91"/>
<polygon fill="midnightblue" stroke="midnightblue" points="477.37,-210.95 486.98,-206.49 476.69,-203.98 477.37,-210.95"/>
</g>
<!-- Node5 -->
<g id="node5" class="node">
<title>Node5</title>
<g id="a_node5"><a xlink:href="classGSDUtil.html#a31f9c7368ebd89c6293d9d9d83598e62" target="_top" xlink:title="Read parameter information from GSD frame m_frame">
<polygon fill="none" stroke="black" points="144,-342.5 144,-361.5 272,-361.5 272,-342.5 144,-342.5"/>
<text text-anchor="middle" x="208" y="-349.5" font-family="Helvetica,sans-Serif" font-size="10.00">GSDUtil::readParameters</text>
</a>
</g>
</g>
<!-- Node1&#45;&gt;Node5 -->
<g id="edge12" class="edge">
<title>Node1&#45;&gt;Node5</title>
<path fill="none" stroke="midnightblue" d="M544.57,-218.63C528.79,-246.19 495.19,-297.13 451,-321 395.75,-350.85 323.34,-356.52 272.16,-356.01"/>
<polygon fill="midnightblue" stroke="midnightblue" points="547.77,-220.07 549.57,-209.63 541.65,-216.68 547.77,-220.07"/>
</g>
<!-- Node6 -->
<g id="node6" class="node">
<title>Node6</title>
<g id="a_node6"><a xlink:href="classGSDUtil.html#ad404c3879fb81c0b73b2335ea6e4676a" target="_top" xlink:title="Read particle information from GSD frame m_frame">
<polygon fill="none" stroke="black" points="150,-304.5 150,-323.5 266,-323.5 266,-304.5 150,-304.5"/>
<text text-anchor="middle" x="208" y="-311.5" font-family="Helvetica,sans-Serif" font-size="10.00">GSDUtil::readParticles</text>
</a>
</g>
</g>
<!-- Node1&#45;&gt;Node6 -->
<g id="edge13" class="edge">
<title>Node1&#45;&gt;Node6</title>
<path fill="none" stroke="midnightblue" d="M541.4,-217.82C523.71,-240.3 489.89,-278.07 451,-295 391.88,-320.73 316.98,-322.49 266.29,-319.74"/>
<polygon fill="midnightblue" stroke="midnightblue" points="544.27,-219.83 547.56,-209.76 538.71,-215.57 544.27,-219.83"/>
</g>
<!-- Node7 -->
<g id="node7" class="node">
<title>Node7</title>
<g id="a_node7"><a xlink:href="classGSDUtil.html#a278d1db9ece12bdc1268780313d83daf" target="_top" xlink:title="Reads system specific variables from GSD frame m_frame">
<polygon fill="none" stroke="black" points="132,-266.5 132,-285.5 284,-285.5 284,-266.5 132,-266.5"/>
<text text-anchor="middle" x="208" y="-273.5" font-family="Helvetica,sans-Serif" font-size="10.00">GSDUtil::readSystemSpecifics</text>
</a>
</g>
</g>
<!-- Node1&#45;&gt;Node7 -->
<g id="edge14" class="edge">
<title>Node1&#45;&gt;Node7</title>
<path fill="none" stroke="midnightblue" d="M503.6,-211.98C486.86,-215.87 468.14,-220.17 451,-224 382.64,-239.27 303.22,-256.18 254.54,-266.44"/>
<polygon fill="midnightblue" stroke="midnightblue" points="504.79,-215.29 513.73,-209.61 503.2,-208.48 504.79,-215.29"/>
</g>
<!-- Node8 -->
<g id="node8" class="node">
<title>Node8</title>
<g id="a_node8"><a xlink:href="classGSDUtil.html#a78b796cb5093b0aa6f5d2573658fcca1" target="_top" xlink:title="Removes all frames and data from GSD file. This returns GSD to a &quot;new file&quot; state.">
<polygon fill="none" stroke="black" points="327.5,-152.5 327.5,-171.5 443.5,-171.5 443.5,-152.5 327.5,-152.5"/>
<text text-anchor="middle" x="385.5" y="-159.5" font-family="Helvetica,sans-Serif" font-size="10.00">GSDUtil::truncateGSD</text>
</a>
</g>
</g>
<!-- Node1&#45;&gt;Node8 -->
<g id="edge15" class="edge">
<title>Node1&#45;&gt;Node8</title>
<path fill="none" stroke="midnightblue" d="M502.22,-188.18C478.54,-182.82 450.91,-176.57 428.59,-171.52"/>
<polygon fill="midnightblue" stroke="midnightblue" points="501.58,-191.62 512.11,-190.41 503.13,-184.79 501.58,-191.62"/>
</g>
<!-- Node9 -->
<g id="node9" class="node">
<title>Node9</title>
<g id="a_node9"><a xlink:href="classGSDUtil.html#ae76e4a23f0fe0bca3cd44137b56b816b" target="_top" xlink:title="Appends frame to GSD file using data from systemData class.">
<polygon fill="none" stroke="black" points="154,-57.5 154,-76.5 262,-76.5 262,-57.5 154,-57.5"/>
<text text-anchor="middle" x="208" y="-64.5" font-family="Helvetica,sans-Serif" font-size="10.00">GSDUtil::writeFrame</text>
</a>
</g>
</g>
<!-- Node1&#45;&gt;Node9 -->
<g id="edge16" class="edge">
<title>Node1&#45;&gt;Node9</title>
<path fill="none" stroke="midnightblue" d="M540.91,-182.31C522.93,-160.28 489.02,-123.33 451,-105 390.66,-75.91 312.97,-68.23 262.11,-66.63"/>
<polygon fill="midnightblue" stroke="midnightblue" points="538.24,-184.57 547.21,-190.21 543.71,-180.21 538.24,-184.57"/>
</g>
<!-- Node10 -->
<g id="node10" class="node">
<title>Node10</title>
<g id="a_node10"><a xlink:href="classGSDUtil.html#a77b5ebe2817ac868ad1b171f3d7b0cae" target="_top" xlink:title="Writes header information to GSD.">
<polygon fill="none" stroke="black" points="329.5,-38.5 329.5,-57.5 441.5,-57.5 441.5,-38.5 329.5,-38.5"/>
<text text-anchor="middle" x="385.5" y="-45.5" font-family="Helvetica,sans-Serif" font-size="10.00">GSDUtil::writeHeader</text>
</a>
</g>
</g>
<!-- Node1&#45;&gt;Node10 -->
<g id="edge17" class="edge">
<title>Node1&#45;&gt;Node10</title>
<path fill="none" stroke="midnightblue" d="M544.03,-181.52C527.57,-154.02 493.13,-102.3 451,-72 442.46,-65.86 432.18,-61.11 422.35,-57.51"/>
<polygon fill="midnightblue" stroke="midnightblue" points="541.01,-183.3 549.08,-190.17 547.06,-179.77 541.01,-183.3"/>
</g>
<!-- Node11 -->
<g id="node11" class="node">
<title>Node11</title>
<g id="a_node11"><a xlink:href="classGSDUtil.html#aa0dc50cd5e5534260375ad4962511cf0" target="_top" xlink:title="Writes parameter information to GSD.">
<polygon fill="none" stroke="black" points="320,-0.5 320,-19.5 451,-19.5 451,-0.5 320,-0.5"/>
<text text-anchor="middle" x="385.5" y="-7.5" font-family="Helvetica,sans-Serif" font-size="10.00">GSDUtil::writeParameters</text>
</a>
</g>
</g>
<!-- Node1&#45;&gt;Node11 -->
<g id="edge19" class="edge">
<title>Node1&#45;&gt;Node11</title>
<path fill="none" stroke="midnightblue" d="M548.07,-180.47C535.35,-144.9 503.56,-69.5 451,-29 446.01,-25.15 440.25,-22.08 434.27,-19.63"/>
<polygon fill="midnightblue" stroke="midnightblue" points="544.84,-181.84 551.41,-190.15 551.45,-179.55 544.84,-181.84"/>
</g>
<!-- Node12 -->
<g id="node12" class="node">
<title>Node12</title>
<g id="a_node12"><a xlink:href="classGSDUtil.html#a9464315a26a5d5e2c51bb2b4df5ee373" target="_top" xlink:title="Writes particle information to GSD.">
<polygon fill="none" stroke="black" points="326,-114.5 326,-133.5 445,-133.5 445,-114.5 326,-114.5"/>
<text text-anchor="middle" x="385.5" y="-121.5" font-family="Helvetica,sans-Serif" font-size="10.00">GSDUtil::writeParticles</text>
</a>
</g>
</g>
<!-- Node1&#45;&gt;Node12 -->
<g id="edge21" class="edge">
<title>Node1&#45;&gt;Node12</title>
<path fill="none" stroke="midnightblue" d="M530.93,-185.09C510.42,-172.58 479.57,-154.91 451,-143 442.49,-139.45 433.09,-136.28 424.16,-133.6"/>
<polygon fill="midnightblue" stroke="midnightblue" points="529.24,-188.15 539.59,-190.43 532.92,-182.2 529.24,-188.15"/>
</g>
<!-- Node3&#45;&gt;Node4 -->
<g id="edge3" class="edge">
<title>Node3&#45;&gt;Node4</title>
<path fill="none" stroke="midnightblue" d="M330.22,-264.25C305.41,-258.87 276.39,-252.59 252.97,-247.52"/>
<polygon fill="midnightblue" stroke="midnightblue" points="329.7,-267.72 340.21,-266.41 331.18,-260.87 329.7,-267.72"/>
</g>
<!-- Node3&#45;&gt;Node5 -->
<g id="edge5" class="edge">
<title>Node3&#45;&gt;Node5</title>
<path fill="none" stroke="midnightblue" d="M361.86,-291.18C342.05,-303.89 312.12,-321.7 284,-333 274.78,-336.71 264.62,-339.86 254.84,-342.46"/>
<polygon fill="midnightblue" stroke="midnightblue" points="364,-293.97 370.47,-285.58 360.18,-288.1 364,-293.97"/>
</g>
<!-- Node3&#45;&gt;Node6 -->
<g id="edge7" class="edge">
<title>Node3&#45;&gt;Node6</title>
<path fill="none" stroke="midnightblue" d="M330.22,-287.75C305.41,-293.13 276.39,-299.41 252.97,-304.48"/>
<polygon fill="midnightblue" stroke="midnightblue" points="331.18,-291.13 340.21,-285.59 329.7,-284.28 331.18,-291.13"/>
</g>
<!-- Node3&#45;&gt;Node7 -->
<g id="edge9" class="edge">
<title>Node3&#45;&gt;Node7</title>
<path fill="none" stroke="midnightblue" d="M321.76,-276C309.53,-276 296.59,-276 284,-276"/>
<polygon fill="midnightblue" stroke="midnightblue" points="321.84,-279.5 331.84,-276 321.84,-272.5 321.84,-279.5"/>
</g>
<!-- Node4&#45;&gt;Node2 -->
<g id="edge4" class="edge">
<title>Node4&#45;&gt;Node2</title>
<path fill="none" stroke="midnightblue" d="M148.79,-250.55C143.02,-252.45 137.33,-254.59 132,-257 103.97,-269.68 75.25,-291.87 60.04,-304.5"/>
<polygon fill="midnightblue" stroke="midnightblue" points="149.97,-253.85 158.53,-247.6 147.94,-247.15 149.97,-253.85"/>
</g>
<!-- Node5&#45;&gt;Node2 -->
<g id="edge6" class="edge">
<title>Node5&#45;&gt;Node2</title>
<path fill="none" stroke="midnightblue" d="M157.24,-340.03C135.1,-334.71 109.39,-328.52 88.58,-323.52"/>
<polygon fill="midnightblue" stroke="midnightblue" points="156.59,-343.48 167.13,-342.41 158.23,-336.67 156.59,-343.48"/>
</g>
<!-- Node6&#45;&gt;Node2 -->
<g id="edge8" class="edge">
<title>Node6&#45;&gt;Node2</title>
<path fill="none" stroke="midnightblue" d="M139.87,-314C125.14,-314 109.83,-314 96.08,-314"/>
<polygon fill="midnightblue" stroke="midnightblue" points="139.96,-317.5 149.96,-314 139.96,-310.5 139.96,-317.5"/>
</g>
<!-- Node7&#45;&gt;Node2 -->
<g id="edge10" class="edge">
<title>Node7&#45;&gt;Node2</title>
<path fill="none" stroke="midnightblue" d="M157.24,-287.97C135.1,-293.29 109.39,-299.48 88.58,-304.48"/>
<polygon fill="midnightblue" stroke="midnightblue" points="158.23,-291.33 167.13,-285.59 156.59,-284.52 158.23,-291.33"/>
</g>
<!-- Node10&#45;&gt;Node9 -->
<g id="edge18" class="edge">
<title>Node10&#45;&gt;Node9</title>
<path fill="none" stroke="midnightblue" d="M319.43,-55.04C300.53,-57.09 280.12,-59.3 262.05,-61.26"/>
<polygon fill="midnightblue" stroke="midnightblue" points="319.89,-58.52 329.45,-53.96 319.13,-51.56 319.89,-58.52"/>
</g>
<!-- Node11&#45;&gt;Node9 -->
<g id="edge20" class="edge">
<title>Node11&#45;&gt;Node9</title>
<path fill="none" stroke="midnightblue" d="M340.87,-22.57C333.87,-24.67 326.73,-26.86 320,-29 291.08,-38.21 258.22,-49.57 235.81,-57.46"/>
<polygon fill="midnightblue" stroke="midnightblue" points="342.35,-25.79 350.94,-19.59 340.36,-19.07 342.35,-25.79"/>
</g>
<!-- Node12&#45;&gt;Node9 -->
<g id="edge22" class="edge">
<title>Node12&#45;&gt;Node9</title>
<path fill="none" stroke="midnightblue" d="M345.53,-111.34C313.18,-100.84 267.86,-86.12 238.47,-76.57"/>
<polygon fill="midnightblue" stroke="midnightblue" points="344.53,-114.7 355.13,-114.46 346.7,-108.04 344.53,-114.7"/>
</g>
</g>
</svg>
