<?xml version="1.0" encoding="UTF-8" standalone="no"?>
<!DOCTYPE svg PUBLIC "-//W3C//DTD SVG 1.1//EN"
 "http://www.w3.org/Graphics/SVG/1.1/DTD/svg11.dtd">
<!-- Generated by graphviz version 2.43.0 (0)
 -->
<!-- Title: rungeKutta4::imageBodyAcc Pages: 1 -->
<svg width="644pt" height="39pt"
 viewBox="0.00 0.00 644.00 39.00" xmlns="http://www.w3.org/2000/svg" xmlns:xlink="http://www.w3.org/1999/xlink">
<g id="graph0" class="graph" transform="scale(1 1) rotate(0) translate(4 35)">
<title>rungeKutta4::imageBodyAcc</title>
<!-- Node1 -->
<g id="node1" class="node">
<title>Node1</title>
<g id="a_node1"><a xlink:title="Replaces 2nd 1/2 of body acceleration D.o.F. with image of 1st 1/2 assuming the reflection plane is .">
<polygon fill="#bfbfbf" stroke="black" points="495,-6 495,-25 636,-25 636,-6 495,-6"/>
<text text-anchor="middle" x="565.5" y="-13" font-family="Helvetica,sans-Serif" font-size="10.00">rungeKutta4::imageBodyAcc</text>
</a>
</g>
</g>
<!-- Node2 -->
<g id="node2" class="node">
<title>Node2</title>
<g id="a_node2"><a xlink:href="classrungeKutta4.html#a1d0bdd2f2a30a970ae66577e1d0b6a42" target="_top" xlink:title="Helper function for integrateSecondOrder().">
<polygon fill="none" stroke="black" points="331,-0.5 331,-30.5 459,-30.5 459,-0.5 331,-0.5"/>
<text text-anchor="start" x="339" y="-18.5" font-family="Helvetica,sans-Serif" font-size="10.00">rungeKutta4::acceleration</text>
<text text-anchor="middle" x="395" y="-7.5" font-family="Helvetica,sans-Serif" font-size="10.00">Update</text>
</a>
</g>
</g>
<!-- Node1&#45;&gt;Node2 -->
<g id="edge1" class="edge">
<title>Node1&#45;&gt;Node2</title>
<path fill="none" stroke="midnightblue" d="M484.9,-15.5C476.25,-15.5 467.55,-15.5 459.14,-15.5"/>
<polygon fill="midnightblue" stroke="midnightblue" points="484.99,-19 494.99,-15.5 484.99,-12 484.99,-19"/>
</g>
<!-- Node3 -->
<g id="node3" class="node">
<title>Node3</title>
<g id="a_node3"><a xlink:href="classrungeKutta4.html#a1c2b8361774957efcf5c6fa5a34f86af" target="_top" xlink:title="2nd order Runge&#45;Kutta 4th order integration. Integrates known acceleration body components into veloc...">
<polygon fill="none" stroke="black" points="149,-0.5 149,-30.5 295,-30.5 295,-0.5 149,-0.5"/>
<text text-anchor="start" x="157" y="-18.5" font-family="Helvetica,sans-Serif" font-size="10.00">rungeKutta4::integrateSecond</text>
<text text-anchor="middle" x="222" y="-7.5" font-family="Helvetica,sans-Serif" font-size="10.00">Order</text>
</a>
</g>
</g>
<!-- Node2&#45;&gt;Node3 -->
<g id="edge2" class="edge">
<title>Node2&#45;&gt;Node3</title>
<path fill="none" stroke="midnightblue" d="M320.62,-15.5C312.18,-15.5 303.58,-15.5 295.16,-15.5"/>
<polygon fill="midnightblue" stroke="midnightblue" points="320.81,-19 330.81,-15.5 320.81,-12 320.81,-19"/>
</g>
<!-- Node4 -->
<g id="node4" class="node">
<title>Node4</title>
<g id="a_node4"><a xlink:href="classrungeKutta4.html#a1a82b9babd1713ed331e4750bb0de5bf" target="_top" xlink:title="Public function to call internal numerical Runge Kutta integration functions.">
<polygon fill="none" stroke="black" points="0,-6 0,-25 113,-25 113,-6 0,-6"/>
<text text-anchor="middle" x="56.5" y="-13" font-family="Helvetica,sans-Serif" font-size="10.00">rungeKutta4::integrate</text>
</a>
</g>
</g>
<!-- Node3&#45;&gt;Node4 -->
<g id="edge3" class="edge">
<title>Node3&#45;&gt;Node4</title>
<path fill="none" stroke="midnightblue" d="M138.66,-15.5C130,-15.5 121.35,-15.5 113.1,-15.5"/>
<polygon fill="midnightblue" stroke="midnightblue" points="138.81,-19 148.81,-15.5 138.81,-12 138.81,-19"/>
</g>
</g>
</svg>
