<?xml version="1.0" encoding="UTF-8" standalone="no"?>
<!DOCTYPE svg PUBLIC "-//W3C//DTD SVG 1.1//EN"
 "http://www.w3.org/Graphics/SVG/1.1/DTD/svg11.dtd">
<!-- Generated by graphviz version 2.43.0 (0)
 -->
<!-- Title: systemData::checkInput Pages: 1 -->
<svg width="458pt" height="28pt"
 viewBox="0.00 0.00 458.00 28.00" xmlns="http://www.w3.org/2000/svg" xmlns:xlink="http://www.w3.org/1999/xlink">
<g id="graph0" class="graph" transform="scale(1 1) rotate(0) translate(4 24)">
<title>systemData::checkInput</title>
<!-- Node1 -->
<g id="node1" class="node">
<title>Node1</title>
<g id="a_node1"><a xlink:title="Various assertions to check data loaded from GSD is at least physical.">
<polygon fill="#bfbfbf" stroke="black" points="326,-0.5 326,-19.5 450,-19.5 450,-0.5 326,-0.5"/>
<text text-anchor="middle" x="388" y="-7.5" font-family="Helvetica,sans-Serif" font-size="10.00">systemData::checkInput</text>
</a>
</g>
</g>
<!-- Node2 -->
<g id="node2" class="node">
<title>Node2</title>
<g id="a_node2"><a xlink:href="classsystemData.html#a74a503e80869c3ef4a9b6edefd132726" target="_top" xlink:title="Passes this (systemData shared pointer instance) into GSDUtil constructor to load data from input GSD...">
<polygon fill="none" stroke="black" points="168,-0.5 168,-19.5 290,-19.5 290,-0.5 168,-0.5"/>
<text text-anchor="middle" x="229" y="-7.5" font-family="Helvetica,sans-Serif" font-size="10.00">systemData::parseGSD</text>
</a>
</g>
</g>
<!-- Node1&#45;&gt;Node2 -->
<g id="edge1" class="edge">
<title>Node1&#45;&gt;Node2</title>
<path fill="none" stroke="midnightblue" d="M315.59,-10C307.11,-10 298.51,-10 290.21,-10"/>
<polygon fill="midnightblue" stroke="midnightblue" points="315.85,-13.5 325.85,-10 315.85,-6.5 315.85,-13.5"/>
</g>
<!-- Node3 -->
<g id="node3" class="node">
<title>Node3</title>
<g id="a_node3"><a xlink:href="classsystemData.html#ad2ba3455704ef6cec1aac76a417e91e9" target="_top" xlink:title="Function loads data from GSD file using GSDUtil class.">
<polygon fill="none" stroke="black" points="0,-0.5 0,-19.5 132,-19.5 132,-0.5 0,-0.5"/>
<text text-anchor="middle" x="66" y="-7.5" font-family="Helvetica,sans-Serif" font-size="10.00">systemData::initializeData</text>
</a>
</g>
</g>
<!-- Node2&#45;&gt;Node3 -->
<g id="edge2" class="edge">
<title>Node2&#45;&gt;Node3</title>
<path fill="none" stroke="midnightblue" d="M157.41,-10C148.98,-10 140.4,-10 132.06,-10"/>
<polygon fill="midnightblue" stroke="midnightblue" points="157.59,-13.5 167.59,-10 157.59,-6.5 157.59,-13.5"/>
</g>
</g>
</svg>
