<?xml version="1.0" encoding="UTF-8" standalone="no"?>
<!DOCTYPE svg PUBLIC "-//W3C//DTD SVG 1.1//EN"
 "http://www.w3.org/Graphics/SVG/1.1/DTD/svg11.dtd">
<!-- Generated by graphviz version 2.43.0 (0)
 -->
<!-- Title: SystemData Pages: 1 -->
<svg width="536pt" height="2599pt"
 viewBox="0.00 0.00 535.98 2599.00" xmlns="http://www.w3.org/2000/svg" xmlns:xlink="http://www.w3.org/1999/xlink">
<g id="graph0" class="graph" transform="scale(1 1) rotate(0) translate(4 2595)">
<title>SystemData</title>
<!-- Node1 -->
<g id="node1" class="node">
<title>Node1</title>
<g id="a_node1"><a xlink:title="Class contains all data structures relevant to the simulation framework. Note that after construction...">
<polygon fill="#bfbfbf" stroke="black" points="113,-480.5 113,-2220.5 289,-2220.5 289,-480.5 113,-480.5"/>
<text text-anchor="middle" x="201" y="-2208.5" font-family="Helvetica,sans-Serif" font-size="10.00">SystemData</text>
<polyline fill="none" stroke="black" points="113,-2201.5 289,-2201.5 "/>
<text text-anchor="start" x="121" y="-2189.5" font-family="Helvetica,sans-Serif" font-size="10.00">&#45; m_image_system</text>
<text text-anchor="start" x="121" y="-2178.5" font-family="Helvetica,sans-Serif" font-size="10.00">&#45; m_return_val</text>
<text text-anchor="start" x="121" y="-2167.5" font-family="Helvetica,sans-Serif" font-size="10.00">&#45; m_return_bool</text>
<text text-anchor="start" x="121" y="-2156.5" font-family="Helvetica,sans-Serif" font-size="10.00">&#45; m_GSD_parsed</text>
<text text-anchor="start" x="121" y="-2145.5" font-family="Helvetica,sans-Serif" font-size="10.00">&#45; m_sys_spec_U0</text>
<text text-anchor="start" x="121" y="-2134.5" font-family="Helvetica,sans-Serif" font-size="10.00">&#45; m_sys_spec_omega</text>
<text text-anchor="start" x="121" y="-2123.5" font-family="Helvetica,sans-Serif" font-size="10.00">&#45; m_sys_spec_phase_shift</text>
<text text-anchor="start" x="121" y="-2112.5" font-family="Helvetica,sans-Serif" font-size="10.00">&#45; m_sys_spec_R_avg</text>
<text text-anchor="start" x="121" y="-2101.5" font-family="Helvetica,sans-Serif" font-size="10.00">&#45; m_sys_scalar_w</text>
<text text-anchor="start" x="121" y="-2090.5" font-family="Helvetica,sans-Serif" font-size="10.00">&#45; m_particle_type_id</text>
<text text-anchor="start" x="121" y="-2079.5" font-family="Helvetica,sans-Serif" font-size="10.00">&#45; m_particle_group_id</text>
<text text-anchor="start" x="121" y="-2068.5" font-family="Helvetica,sans-Serif" font-size="10.00">&#45; m_fluid_density</text>
<text text-anchor="start" x="121" y="-2057.5" font-family="Helvetica,sans-Serif" font-size="10.00">&#45; m_particle_density</text>
<text text-anchor="start" x="121" y="-2046.5" font-family="Helvetica,sans-Serif" font-size="10.00">&#45; m_wca_epsilon</text>
<text text-anchor="start" x="121" y="-2035.5" font-family="Helvetica,sans-Serif" font-size="10.00">&#45; m_wca_sigma</text>
<text text-anchor="start" x="121" y="-2024.5" font-family="Helvetica,sans-Serif" font-size="10.00">&#45; m_num_spatial_dim</text>
<text text-anchor="start" x="121" y="-2013.5" font-family="Helvetica,sans-Serif" font-size="10.00">&#45; m_num_particles</text>
<text text-anchor="start" x="121" y="-2002.5" font-family="Helvetica,sans-Serif" font-size="10.00">&#45; m_num_bodies</text>
<text text-anchor="start" x="121" y="-1991.5" font-family="Helvetica,sans-Serif" font-size="10.00">&#45; m_num_DoF</text>
<text text-anchor="start" x="121" y="-1980.5" font-family="Helvetica,sans-Serif" font-size="10.00">&#45; m_num_constraints</text>
<text text-anchor="start" x="121" y="-1969.5" font-family="Helvetica,sans-Serif" font-size="10.00">&#45; m_dt</text>
<text text-anchor="start" x="121" y="-1958.5" font-family="Helvetica,sans-Serif" font-size="10.00">&#45; m_tf</text>
<text text-anchor="start" x="121" y="-1947.5" font-family="Helvetica,sans-Serif" font-size="10.00">&#45; m_t0</text>
<text text-anchor="start" x="121" y="-1936.5" font-family="Helvetica,sans-Serif" font-size="10.00">&#45; m_t</text>
<text text-anchor="start" x="121" y="-1925.5" font-family="Helvetica,sans-Serif" font-size="10.00">&#45; m_tau</text>
<text text-anchor="start" x="121" y="-1914.5" font-family="Helvetica,sans-Serif" font-size="10.00">&#45; m_timestep</text>
<text text-anchor="start" x="121" y="-1903.5" font-family="Helvetica,sans-Serif" font-size="10.00">&#45; m_num_steps_output</text>
<text text-anchor="start" x="121" y="-1892.5" font-family="Helvetica,sans-Serif" font-size="10.00">&#45; m_I3</text>
<text text-anchor="start" x="121" y="-1881.5" font-family="Helvetica,sans-Serif" font-size="10.00">&#45; m_tens_I3</text>
<text text-anchor="start" x="121" y="-1870.5" font-family="Helvetica,sans-Serif" font-size="10.00">&#45; m_levi_cevita</text>
<text text-anchor="start" x="121" y="-1859.5" font-family="Helvetica,sans-Serif" font-size="10.00">&#45; m_kappa</text>
<text text-anchor="start" x="121" y="-1848.5" font-family="Helvetica,sans-Serif" font-size="10.00">&#45; m_positions_bodies</text>
<text text-anchor="start" x="121" y="-1837.5" font-family="Helvetica,sans-Serif" font-size="10.00">&#45; m_velocities_bodies</text>
<text text-anchor="start" x="121" y="-1826.5" font-family="Helvetica,sans-Serif" font-size="10.00">&#45; m_accelerations_bodies</text>
<text text-anchor="start" x="121" y="-1815.5" font-family="Helvetica,sans-Serif" font-size="10.00">&#45; m_positions_particles</text>
<text text-anchor="start" x="121" y="-1804.5" font-family="Helvetica,sans-Serif" font-size="10.00">&#45; m_velocities_particles</text>
<text text-anchor="start" x="121" y="-1793.5" font-family="Helvetica,sans-Serif" font-size="10.00">&#45; m_accelerations_particles</text>
<text text-anchor="start" x="121" y="-1782.5" font-family="Helvetica,sans-Serif" font-size="10.00">&#45; m_orientations_particles</text>
<text text-anchor="start" x="121" y="-1771.5" font-family="Helvetica,sans-Serif" font-size="10.00">&#45; m_quaternions_particles</text>
<text text-anchor="start" x="121" y="-1760.5" font-family="Helvetica,sans-Serif" font-size="10.00">&#45; m_positions_particles</text>
<text text-anchor="start" x="121" y="-1749.5" font-family="Helvetica,sans-Serif" font-size="10.00">_articulation_init_norm</text>
<text text-anchor="start" x="121" y="-1738.5" font-family="Helvetica,sans-Serif" font-size="10.00">&#45; m_positions_particles</text>
<text text-anchor="start" x="121" y="-1727.5" font-family="Helvetica,sans-Serif" font-size="10.00">_articulation</text>
<text text-anchor="start" x="121" y="-1716.5" font-family="Helvetica,sans-Serif" font-size="10.00">&#45; m_velocities_particles</text>
<text text-anchor="start" x="121" y="-1705.5" font-family="Helvetica,sans-Serif" font-size="10.00">_articulation</text>
<text text-anchor="start" x="121" y="-1694.5" font-family="Helvetica,sans-Serif" font-size="10.00">&#45; m_accelerations_particles</text>
<text text-anchor="start" x="121" y="-1683.5" font-family="Helvetica,sans-Serif" font-size="10.00">_articulation</text>
<text text-anchor="start" x="121" y="-1672.5" font-family="Helvetica,sans-Serif" font-size="10.00">&#45; m_rbm_conn</text>
<text text-anchor="start" x="121" y="-1661.5" font-family="Helvetica,sans-Serif" font-size="10.00">&#45; m_psi_conv_quat_ang</text>
<text text-anchor="start" x="121" y="-1650.5" font-family="Helvetica,sans-Serif" font-size="10.00">&#45; m_zeta</text>
<text text-anchor="start" x="121" y="-1639.5" font-family="Helvetica,sans-Serif" font-size="10.00">&#45; m_tens_zeta</text>
<text text-anchor="start" x="121" y="-1628.5" font-family="Helvetica,sans-Serif" font-size="10.00">&#45; m_tens_grad_zeta</text>
<text text-anchor="start" x="121" y="-1617.5" font-family="Helvetica,sans-Serif" font-size="10.00">&#45; m_chi</text>
<text text-anchor="start" x="121" y="-1606.5" font-family="Helvetica,sans-Serif" font-size="10.00">&#45; m_tens_chi</text>
<text text-anchor="start" x="121" y="-1595.5" font-family="Helvetica,sans-Serif" font-size="10.00">&#45; m_Udwadia_A</text>
<text text-anchor="start" x="121" y="-1584.5" font-family="Helvetica,sans-Serif" font-size="10.00">&#45; m_Udwadia_b</text>
<polyline fill="none" stroke="black" points="113,-1577.5 289,-1577.5 "/>
<text text-anchor="start" x="121" y="-1565.5" font-family="Helvetica,sans-Serif" font-size="10.00">+ SystemData()</text>
<text text-anchor="start" x="121" y="-1554.5" font-family="Helvetica,sans-Serif" font-size="10.00">+ SystemData()</text>
<text text-anchor="start" x="121" y="-1543.5" font-family="Helvetica,sans-Serif" font-size="10.00">+ ~SystemData()</text>
<text text-anchor="start" x="121" y="-1532.5" font-family="Helvetica,sans-Serif" font-size="10.00">+ initializeData()</text>
<text text-anchor="start" x="121" y="-1521.5" font-family="Helvetica,sans-Serif" font-size="10.00">+ logData()</text>
<text text-anchor="start" x="121" y="-1510.5" font-family="Helvetica,sans-Serif" font-size="10.00">+ update()</text>
<text text-anchor="start" x="121" y="-1499.5" font-family="Helvetica,sans-Serif" font-size="10.00">+ imageSystem()</text>
<text text-anchor="start" x="121" y="-1488.5" font-family="Helvetica,sans-Serif" font-size="10.00">+ setImageSystem()</text>
<text text-anchor="start" x="121" y="-1477.5" font-family="Helvetica,sans-Serif" font-size="10.00">+ inputGSDFile()</text>
<text text-anchor="start" x="121" y="-1466.5" font-family="Helvetica,sans-Serif" font-size="10.00">+ outputDir()</text>
<text text-anchor="start" x="121" y="-1455.5" font-family="Helvetica,sans-Serif" font-size="10.00">+ setOutputDir()</text>
<text text-anchor="start" x="121" y="-1444.5" font-family="Helvetica,sans-Serif" font-size="10.00">+ gsdUtil()</text>
<text text-anchor="start" x="121" y="-1433.5" font-family="Helvetica,sans-Serif" font-size="10.00">+ handle()</text>
<text text-anchor="start" x="121" y="-1422.5" font-family="Helvetica,sans-Serif" font-size="10.00">+ setReturnVal()</text>
<text text-anchor="start" x="121" y="-1411.5" font-family="Helvetica,sans-Serif" font-size="10.00">+ returnVal()</text>
<text text-anchor="start" x="121" y="-1400.5" font-family="Helvetica,sans-Serif" font-size="10.00">+ setReturnBool()</text>
<text text-anchor="start" x="121" y="-1389.5" font-family="Helvetica,sans-Serif" font-size="10.00">+ returnBool()</text>
<text text-anchor="start" x="121" y="-1378.5" font-family="Helvetica,sans-Serif" font-size="10.00">+ gSDParsed()</text>
<text text-anchor="start" x="121" y="-1367.5" font-family="Helvetica,sans-Serif" font-size="10.00">+ sysSpecU0()</text>
<text text-anchor="start" x="121" y="-1356.5" font-family="Helvetica,sans-Serif" font-size="10.00">+ setSysSpecU0()</text>
<text text-anchor="start" x="121" y="-1345.5" font-family="Helvetica,sans-Serif" font-size="10.00">+ sysSpecOmega()</text>
<text text-anchor="start" x="121" y="-1334.5" font-family="Helvetica,sans-Serif" font-size="10.00">+ setSysSpecOmega()</text>
<text text-anchor="start" x="121" y="-1323.5" font-family="Helvetica,sans-Serif" font-size="10.00">+ sysSpecPhaseShift()</text>
<text text-anchor="start" x="121" y="-1312.5" font-family="Helvetica,sans-Serif" font-size="10.00">+ setSysSpecPhaseShift()</text>
<text text-anchor="start" x="121" y="-1301.5" font-family="Helvetica,sans-Serif" font-size="10.00">+ sysSpecRAvg()</text>
<text text-anchor="start" x="121" y="-1290.5" font-family="Helvetica,sans-Serif" font-size="10.00">+ setSysSpecRAvg()</text>
<text text-anchor="start" x="121" y="-1279.5" font-family="Helvetica,sans-Serif" font-size="10.00">+ particleTypeId()</text>
<text text-anchor="start" x="121" y="-1268.5" font-family="Helvetica,sans-Serif" font-size="10.00">+ setParticleTypeId()</text>
<text text-anchor="start" x="121" y="-1257.5" font-family="Helvetica,sans-Serif" font-size="10.00">+ fluidDensity()</text>
<text text-anchor="start" x="121" y="-1246.5" font-family="Helvetica,sans-Serif" font-size="10.00">+ setFluidDensity()</text>
<text text-anchor="start" x="121" y="-1235.5" font-family="Helvetica,sans-Serif" font-size="10.00">+ particleDensity()</text>
<text text-anchor="start" x="121" y="-1224.5" font-family="Helvetica,sans-Serif" font-size="10.00">+ setParticleDensity()</text>
<text text-anchor="start" x="121" y="-1213.5" font-family="Helvetica,sans-Serif" font-size="10.00">+ wcaEpsilon()</text>
<text text-anchor="start" x="121" y="-1202.5" font-family="Helvetica,sans-Serif" font-size="10.00">+ setWcaEpsilon()</text>
<text text-anchor="start" x="121" y="-1191.5" font-family="Helvetica,sans-Serif" font-size="10.00">+ wcaSigma()</text>
<text text-anchor="start" x="121" y="-1180.5" font-family="Helvetica,sans-Serif" font-size="10.00">+ setWcaSigma()</text>
<text text-anchor="start" x="121" y="-1169.5" font-family="Helvetica,sans-Serif" font-size="10.00">+ numSpatialDim()</text>
<text text-anchor="start" x="121" y="-1158.5" font-family="Helvetica,sans-Serif" font-size="10.00">+ setNumSpatialDim()</text>
<text text-anchor="start" x="121" y="-1147.5" font-family="Helvetica,sans-Serif" font-size="10.00">+ numParticles()</text>
<text text-anchor="start" x="121" y="-1136.5" font-family="Helvetica,sans-Serif" font-size="10.00">+ setNumParticles()</text>
<text text-anchor="start" x="121" y="-1125.5" font-family="Helvetica,sans-Serif" font-size="10.00">+ numBodies()</text>
<text text-anchor="start" x="121" y="-1114.5" font-family="Helvetica,sans-Serif" font-size="10.00">+ setNumBodies()</text>
<text text-anchor="start" x="121" y="-1103.5" font-family="Helvetica,sans-Serif" font-size="10.00">+ numDoF()</text>
<text text-anchor="start" x="121" y="-1092.5" font-family="Helvetica,sans-Serif" font-size="10.00">+ tensI3()</text>
<text text-anchor="start" x="121" y="-1081.5" font-family="Helvetica,sans-Serif" font-size="10.00">+ i3()</text>
<text text-anchor="start" x="121" y="-1070.5" font-family="Helvetica,sans-Serif" font-size="10.00">+ dt()</text>
<text text-anchor="start" x="121" y="-1059.5" font-family="Helvetica,sans-Serif" font-size="10.00">+ setDt()</text>
<text text-anchor="start" x="121" y="-1048.5" font-family="Helvetica,sans-Serif" font-size="10.00">+ tf()</text>
<text text-anchor="start" x="121" y="-1037.5" font-family="Helvetica,sans-Serif" font-size="10.00">+ setTf()</text>
<text text-anchor="start" x="121" y="-1026.5" font-family="Helvetica,sans-Serif" font-size="10.00">+ t()</text>
<text text-anchor="start" x="121" y="-1015.5" font-family="Helvetica,sans-Serif" font-size="10.00">+ setT()</text>
<text text-anchor="start" x="121" y="-1004.5" font-family="Helvetica,sans-Serif" font-size="10.00">+ tau()</text>
<text text-anchor="start" x="121" y="-993.5" font-family="Helvetica,sans-Serif" font-size="10.00">+ setTau()</text>
<text text-anchor="start" x="121" y="-982.5" font-family="Helvetica,sans-Serif" font-size="10.00">+ timestep()</text>
<text text-anchor="start" x="121" y="-971.5" font-family="Helvetica,sans-Serif" font-size="10.00">+ setTimestep()</text>
<text text-anchor="start" x="121" y="-960.5" font-family="Helvetica,sans-Serif" font-size="10.00">+ numStepsOutput()</text>
<text text-anchor="start" x="121" y="-949.5" font-family="Helvetica,sans-Serif" font-size="10.00">+ setNumStepsOutput()</text>
<text text-anchor="start" x="121" y="-938.5" font-family="Helvetica,sans-Serif" font-size="10.00">+ rbmConn()</text>
<text text-anchor="start" x="121" y="-927.5" font-family="Helvetica,sans-Serif" font-size="10.00">+ positionsBodies()</text>
<text text-anchor="start" x="121" y="-916.5" font-family="Helvetica,sans-Serif" font-size="10.00">+ setPositionsBodies()</text>
<text text-anchor="start" x="121" y="-905.5" font-family="Helvetica,sans-Serif" font-size="10.00">+ velocitiesBodies()</text>
<text text-anchor="start" x="121" y="-894.5" font-family="Helvetica,sans-Serif" font-size="10.00">+ setVelocitiesBodies()</text>
<text text-anchor="start" x="121" y="-883.5" font-family="Helvetica,sans-Serif" font-size="10.00">+ accelerationsBodies()</text>
<text text-anchor="start" x="121" y="-872.5" font-family="Helvetica,sans-Serif" font-size="10.00">+ setAccelerationsBodies()</text>
<text text-anchor="start" x="121" y="-861.5" font-family="Helvetica,sans-Serif" font-size="10.00">+ quaternionsParticles()</text>
<text text-anchor="start" x="121" y="-850.5" font-family="Helvetica,sans-Serif" font-size="10.00">+ setQuaternionsParticles()</text>
<text text-anchor="start" x="121" y="-839.5" font-family="Helvetica,sans-Serif" font-size="10.00">+ orientationsParticles()</text>
<text text-anchor="start" x="121" y="-828.5" font-family="Helvetica,sans-Serif" font-size="10.00">+ setOrientationsParticles()</text>
<text text-anchor="start" x="121" y="-817.5" font-family="Helvetica,sans-Serif" font-size="10.00">+ positionsParticles()</text>
<text text-anchor="start" x="121" y="-806.5" font-family="Helvetica,sans-Serif" font-size="10.00">+ setPositionsParticles()</text>
<text text-anchor="start" x="121" y="-795.5" font-family="Helvetica,sans-Serif" font-size="10.00">+ velocitiesParticles()</text>
<text text-anchor="start" x="121" y="-784.5" font-family="Helvetica,sans-Serif" font-size="10.00">+ setVelocitiesParticles()</text>
<text text-anchor="start" x="121" y="-773.5" font-family="Helvetica,sans-Serif" font-size="10.00">+ accelerationsParticles()</text>
<text text-anchor="start" x="121" y="-762.5" font-family="Helvetica,sans-Serif" font-size="10.00">+ setAccelerationsParticles()</text>
<text text-anchor="start" x="121" y="-751.5" font-family="Helvetica,sans-Serif" font-size="10.00">+ velocitiesParticlesArticulation()</text>
<text text-anchor="start" x="121" y="-740.5" font-family="Helvetica,sans-Serif" font-size="10.00">+ accelerationsParticlesArticulation()</text>
<text text-anchor="start" x="121" y="-729.5" font-family="Helvetica,sans-Serif" font-size="10.00">+ tensZeta()</text>
<text text-anchor="start" x="121" y="-718.5" font-family="Helvetica,sans-Serif" font-size="10.00">+ tensGradZeta()</text>
<text text-anchor="start" x="121" y="-707.5" font-family="Helvetica,sans-Serif" font-size="10.00">+ tensChi()</text>
<text text-anchor="start" x="121" y="-696.5" font-family="Helvetica,sans-Serif" font-size="10.00">+ udwadiaA()</text>
<text text-anchor="start" x="121" y="-685.5" font-family="Helvetica,sans-Serif" font-size="10.00">+ udwadiaB()</text>
<text text-anchor="start" x="121" y="-674.5" font-family="Helvetica,sans-Serif" font-size="10.00">&#45; parseGSD()</text>
<text text-anchor="start" x="121" y="-663.5" font-family="Helvetica,sans-Serif" font-size="10.00">&#45; checkInput()</text>
<text text-anchor="start" x="121" y="-652.5" font-family="Helvetica,sans-Serif" font-size="10.00">&#45; positionsArticulation()</text>
<text text-anchor="start" x="121" y="-641.5" font-family="Helvetica,sans-Serif" font-size="10.00">&#45; velocitiesArticulation()</text>
<text text-anchor="start" x="121" y="-630.5" font-family="Helvetica,sans-Serif" font-size="10.00">&#45; accelerationsArticulation()</text>
<text text-anchor="start" x="121" y="-619.5" font-family="Helvetica,sans-Serif" font-size="10.00">&#45; udwadiaLinearSystem()</text>
<text text-anchor="start" x="121" y="-608.5" font-family="Helvetica,sans-Serif" font-size="10.00">&#45; rbmMatrixElement()</text>
<text text-anchor="start" x="121" y="-597.5" font-family="Helvetica,sans-Serif" font-size="10.00">&#45; psiMatrixElement()</text>
<text text-anchor="start" x="121" y="-586.5" font-family="Helvetica,sans-Serif" font-size="10.00">&#45; chiMatrixElement()</text>
<text text-anchor="start" x="121" y="-575.5" font-family="Helvetica,sans-Serif" font-size="10.00">&#45; gradZetaTensorElement()</text>
<text text-anchor="start" x="121" y="-564.5" font-family="Helvetica,sans-Serif" font-size="10.00">&#45; rigidBodyMotionTensors()</text>
<text text-anchor="start" x="121" y="-553.5" font-family="Helvetica,sans-Serif" font-size="10.00">&#45; gradientChangeOfVariable</text>
<text text-anchor="start" x="121" y="-542.5" font-family="Helvetica,sans-Serif" font-size="10.00">Tensors()</text>
<text text-anchor="start" x="121" y="-531.5" font-family="Helvetica,sans-Serif" font-size="10.00">&#45; convertBody2ParticleOrient()</text>
<text text-anchor="start" x="121" y="-520.5" font-family="Helvetica,sans-Serif" font-size="10.00">&#45; convertBody2ParticlePos()</text>
<text text-anchor="start" x="121" y="-509.5" font-family="Helvetica,sans-Serif" font-size="10.00">&#45; convertBody2ParticleVelAcc()</text>
<text text-anchor="start" x="121" y="-498.5" font-family="Helvetica,sans-Serif" font-size="10.00">&#45; crossProdMat()</text>
<text text-anchor="start" x="121" y="-487.5" font-family="Helvetica,sans-Serif" font-size="10.00">&#45; eMatrix()</text>
</a>
</g>
</g>
<!-- Node5 -->
<g id="node5" class="node">
<title>Node5</title>
<g id="a_node5"><a xlink:title=" ">
<polygon fill="none" stroke="#bfbfbf" points="234.5,-364.5 234.5,-421.5 389.5,-421.5 389.5,-364.5 234.5,-364.5"/>
<text text-anchor="middle" x="312" y="-409.5" font-family="Helvetica,sans-Serif" font-size="10.00">std::shared_ptr&lt; SystemData &gt;</text>
<polyline fill="none" stroke="#bfbfbf" points="234.5,-402.5 389.5,-402.5 "/>
<text text-anchor="middle" x="312" y="-390.5" font-family="Helvetica,sans-Serif" font-size="10.00"> </text>
<polyline fill="none" stroke="#bfbfbf" points="234.5,-383.5 389.5,-383.5 "/>
<text text-anchor="start" x="242.5" y="-371.5" font-family="Helvetica,sans-Serif" font-size="10.00">+ operator&#45;&gt;()</text>
</a>
</g>
</g>
<!-- Node1&#45;&gt;Node5 -->
<g id="edge5" class="edge">
<title>Node1&#45;&gt;Node5</title>
<path fill="none" stroke="#404040" d="M268.84,-480.37C273.01,-466.76 277.4,-453.29 282,-440 282.89,-437.44 283.95,-434.88 285.13,-432.35"/>
<polygon fill="none" stroke="#404040" points="285.25,-432.13 284.59,-424.95 290.96,-421.58 291.62,-428.76 285.25,-432.13"/>
<text text-anchor="middle" x="292.5" y="-448.5" font-family="Helvetica,sans-Serif" font-size="10.00"> +ptr</text>
</g>
<!-- Node2 -->
<g id="node2" class="node">
<title>Node2</title>
<g id="a_node2"><a xlink:title=" ">
<polygon fill="none" stroke="#bfbfbf" points="28.5,-2301.5 28.5,-2369.5 163.5,-2369.5 163.5,-2301.5 28.5,-2301.5"/>
<text text-anchor="start" x="36.5" y="-2357.5" font-family="Helvetica,sans-Serif" font-size="10.00">std::enable_shared</text>
<text text-anchor="middle" x="96" y="-2346.5" font-family="Helvetica,sans-Serif" font-size="10.00">_from_this&lt; SystemData &gt;</text>
<polyline fill="none" stroke="#bfbfbf" points="28.5,-2339.5 163.5,-2339.5 "/>
<text text-anchor="middle" x="96" y="-2327.5" font-family="Helvetica,sans-Serif" font-size="10.00"> </text>
<polyline fill="none" stroke="#bfbfbf" points="28.5,-2320.5 163.5,-2320.5 "/>
<text text-anchor="middle" x="96" y="-2308.5" font-family="Helvetica,sans-Serif" font-size="10.00"> </text>
</a>
</g>
</g>
<!-- Node2&#45;&gt;Node1 -->
<g id="edge1" class="edge">
<title>Node2&#45;&gt;Node1</title>
<path fill="none" stroke="midnightblue" d="M100.63,-2291.17C103.6,-2263.35 107.85,-2223.53 112.95,-2175.82"/>
<polygon fill="none" stroke="midnightblue" points="97.14,-2290.92 99.55,-2301.23 104.1,-2291.66 97.14,-2290.92"/>
</g>
<!-- Node3 -->
<g id="node3" class="node">
<title>Node3</title>
<g id="a_node3"><a xlink:title=" ">
<polygon fill="none" stroke="#bfbfbf" points="132.5,-0.5 132.5,-57.5 269.5,-57.5 269.5,-0.5 132.5,-0.5"/>
<text text-anchor="middle" x="201" y="-45.5" font-family="Helvetica,sans-Serif" font-size="10.00">std::shared_ptr&lt; GSDUtil &gt;</text>
<polyline fill="none" stroke="#bfbfbf" points="132.5,-38.5 269.5,-38.5 "/>
<text text-anchor="middle" x="201" y="-26.5" font-family="Helvetica,sans-Serif" font-size="10.00"> </text>
<polyline fill="none" stroke="#bfbfbf" points="132.5,-19.5 269.5,-19.5 "/>
<text text-anchor="start" x="140.5" y="-7.5" font-family="Helvetica,sans-Serif" font-size="10.00">+ operator&#45;&gt;()</text>
</a>
</g>
</g>
<!-- Node3&#45;&gt;Node1 -->
<g id="edge2" class="edge">
<title>Node3&#45;&gt;Node1</title>
<path fill="none" stroke="#404040" d="M201,-57.52C201,-119.73 201,-280.46 201,-468.29"/>
<polygon fill="none" stroke="#404040" points="201,-468.41 205,-474.41 201,-480.41 197,-474.41 201,-468.41"/>
<text text-anchor="middle" x="226.5" y="-338" font-family="Helvetica,sans-Serif" font-size="10.00"> &#45;m_gsdUtil</text>
</g>
<!-- Node4 -->
<g id="node4" class="node">
<title>Node4</title>
<g id="a_node4"><a xlink:href="classGSDUtil.html" target="_top" xlink:title="Wrapper class for gsd.h to load data from input GSD file into SystemData class.">
<polygon fill="none" stroke="black" points="251,-105.5 251,-316.5 373,-316.5 373,-105.5 251,-105.5"/>
<text text-anchor="middle" x="312" y="-304.5" font-family="Helvetica,sans-Serif" font-size="10.00">GSDUtil</text>
<polyline fill="none" stroke="black" points="251,-297.5 373,-297.5 "/>
<text text-anchor="start" x="259" y="-285.5" font-family="Helvetica,sans-Serif" font-size="10.00">&#45; m_frame</text>
<polyline fill="none" stroke="black" points="251,-278.5 373,-278.5 "/>
<text text-anchor="start" x="259" y="-266.5" font-family="Helvetica,sans-Serif" font-size="10.00">+ GSDUtil()</text>
<text text-anchor="start" x="259" y="-255.5" font-family="Helvetica,sans-Serif" font-size="10.00">+ GSDUtil()</text>
<text text-anchor="start" x="259" y="-244.5" font-family="Helvetica,sans-Serif" font-size="10.00">+ ~GSDUtil()</text>
<text text-anchor="start" x="259" y="-233.5" font-family="Helvetica,sans-Serif" font-size="10.00">+ truncateGSD()</text>
<text text-anchor="start" x="259" y="-222.5" font-family="Helvetica,sans-Serif" font-size="10.00">+ writeFrame()</text>
<text text-anchor="start" x="259" y="-211.5" font-family="Helvetica,sans-Serif" font-size="10.00">+ frame()</text>
<text text-anchor="start" x="259" y="-200.5" font-family="Helvetica,sans-Serif" font-size="10.00">&#45; checkGSDReturn()</text>
<text text-anchor="start" x="259" y="-189.5" font-family="Helvetica,sans-Serif" font-size="10.00">&#45; readChunk()</text>
<text text-anchor="start" x="259" y="-178.5" font-family="Helvetica,sans-Serif" font-size="10.00">&#45; readHeader()</text>
<text text-anchor="start" x="259" y="-167.5" font-family="Helvetica,sans-Serif" font-size="10.00">&#45; readParameters()</text>
<text text-anchor="start" x="259" y="-156.5" font-family="Helvetica,sans-Serif" font-size="10.00">&#45; readParticles()</text>
<text text-anchor="start" x="259" y="-145.5" font-family="Helvetica,sans-Serif" font-size="10.00">&#45; readSystemSpecifics()</text>
<text text-anchor="start" x="259" y="-134.5" font-family="Helvetica,sans-Serif" font-size="10.00">&#45; writeHeader()</text>
<text text-anchor="start" x="259" y="-123.5" font-family="Helvetica,sans-Serif" font-size="10.00">&#45; writeParameters()</text>
<text text-anchor="start" x="259" y="-112.5" font-family="Helvetica,sans-Serif" font-size="10.00">&#45; writeParticles()</text>
</a>
</g>
</g>
<!-- Node4&#45;&gt;Node3 -->
<g id="edge3" class="edge">
<title>Node4&#45;&gt;Node3</title>
<path fill="none" stroke="#404040" d="M250.98,-111.05C241.53,-95.73 232.3,-80.76 224.4,-67.94"/>
<polygon fill="none" stroke="#404040" points="224.39,-67.93 217.84,-64.92 218.09,-57.72 224.65,-60.73 224.39,-67.93"/>
<text text-anchor="middle" x="243.5" y="-79" font-family="Helvetica,sans-Serif" font-size="10.00"> +ptr</text>
</g>
<!-- Node5&#45;&gt;Node4 -->
<g id="edge4" class="edge">
<title>Node5&#45;&gt;Node4</title>
<path fill="none" stroke="#404040" d="M312,-364.27C312,-354.15 312,-341.98 312,-328.97"/>
<polygon fill="none" stroke="#404040" points="312,-328.83 308,-322.83 312,-316.83 316,-322.83 312,-328.83"/>
<text text-anchor="middle" x="338" y="-338" font-family="Helvetica,sans-Serif" font-size="10.00"> &#45;m_system</text>
</g>
<!-- Node6 -->
<g id="node6" class="node">
<title>Node6</title>
<g id="a_node6"><a xlink:title="STL class.">
<polygon fill="none" stroke="#bfbfbf" points="178.5,-2423 178.5,-2480 283.5,-2480 283.5,-2423 178.5,-2423"/>
<text text-anchor="middle" x="231" y="-2468" font-family="Helvetica,sans-Serif" font-size="10.00">std::shared_ptr&lt; T &gt;</text>
<polyline fill="none" stroke="#bfbfbf" points="178.5,-2461 283.5,-2461 "/>
<text text-anchor="middle" x="231" y="-2449" font-family="Helvetica,sans-Serif" font-size="10.00"> </text>
<polyline fill="none" stroke="#bfbfbf" points="178.5,-2442 283.5,-2442 "/>
<text text-anchor="start" x="186.5" y="-2430" font-family="Helvetica,sans-Serif" font-size="10.00">+ operator&#45;&gt;()</text>
</a>
</g>
</g>
<!-- Node6&#45;&gt;Node3 -->
<g id="edge10" class="edge">
<title>Node6&#45;&gt;Node3</title>
<path fill="none" stroke="orange" d="M168.02,-2446C99.63,-2437.29 0,-2411.69 0,-2336.5 0,-2336.5 0,-2336.5 0,-210 0,-137.04 74.4,-86.23 132.67,-57.63"/>
<polygon fill="orange" stroke="orange" points="167.95,-2449.52 178.29,-2447.21 168.77,-2442.57 167.95,-2449.52"/>
<text text-anchor="middle" x="29" y="-448.5" font-family="Helvetica,sans-Serif" font-size="10.00"> &lt; GSDUtil &gt;</text>
</g>
<!-- Node6&#45;&gt;Node5 -->
<g id="edge6" class="edge">
<title>Node6&#45;&gt;Node5</title>
<path fill="none" stroke="orange" d="M290.41,-2415.96C295.41,-2410.89 299.78,-2405.24 303,-2399 326.78,-2353.01 314.12,-659.57 312.23,-421.66"/>
<polygon fill="orange" stroke="orange" points="287.73,-2413.67 282.69,-2422.99 292.44,-2418.85 287.73,-2413.67"/>
<text text-anchor="middle" x="350" y="-2258.5" font-family="Helvetica,sans-Serif" font-size="10.00"> &lt; SystemData &gt;</text>
</g>
<!-- Node10 -->
<g id="node10" class="node">
<title>Node10</title>
<g id="a_node10"><a xlink:title=" ">
<polygon fill="none" stroke="#bfbfbf" points="181.5,-2301.5 181.5,-2369.5 288.5,-2369.5 288.5,-2301.5 181.5,-2301.5"/>
<text text-anchor="start" x="189.5" y="-2357.5" font-family="Helvetica,sans-Serif" font-size="10.00">std::shared_ptr&lt; gsd</text>
<text text-anchor="middle" x="235" y="-2346.5" font-family="Helvetica,sans-Serif" font-size="10.00">_handle &gt;</text>
<polyline fill="none" stroke="#bfbfbf" points="181.5,-2339.5 288.5,-2339.5 "/>
<text text-anchor="middle" x="235" y="-2327.5" font-family="Helvetica,sans-Serif" font-size="10.00"> </text>
<polyline fill="none" stroke="#bfbfbf" points="181.5,-2320.5 288.5,-2320.5 "/>
<text text-anchor="middle" x="235" y="-2308.5" font-family="Helvetica,sans-Serif" font-size="10.00"> </text>
</a>
</g>
</g>
<!-- Node6&#45;&gt;Node10 -->
<g id="edge14" class="edge">
<title>Node6&#45;&gt;Node10</title>
<path fill="none" stroke="orange" d="M231.35,-2412.76C231.49,-2404.59 231.7,-2396.01 232,-2388 232.22,-2382.09 232.52,-2375.81 232.86,-2369.73"/>
<polygon fill="orange" stroke="orange" points="227.85,-2412.75 231.19,-2422.8 234.85,-2412.86 227.85,-2412.75"/>
<text text-anchor="middle" x="267.5" y="-2391" font-family="Helvetica,sans-Serif" font-size="10.00"> &lt; gsd_handle &gt;</text>
</g>
<!-- Node7 -->
<g id="node7" class="node">
<title>Node7</title>
<g id="a_node7"><a xlink:title=" ">
<polygon fill="none" stroke="#bfbfbf" points="216.5,-2533.5 216.5,-2590.5 245.5,-2590.5 245.5,-2533.5 216.5,-2533.5"/>
<text text-anchor="middle" x="231" y="-2578.5" font-family="Helvetica,sans-Serif" font-size="10.00">T</text>
<polyline fill="none" stroke="#bfbfbf" points="216.5,-2571.5 245.5,-2571.5 "/>
<text text-anchor="middle" x="231" y="-2559.5" font-family="Helvetica,sans-Serif" font-size="10.00"> </text>
<polyline fill="none" stroke="#bfbfbf" points="216.5,-2552.5 245.5,-2552.5 "/>
<text text-anchor="middle" x="231" y="-2540.5" font-family="Helvetica,sans-Serif" font-size="10.00"> </text>
</a>
</g>
</g>
<!-- Node7&#45;&gt;Node6 -->
<g id="edge7" class="edge">
<title>Node7&#45;&gt;Node6</title>
<path fill="none" stroke="#404040" d="M231,-2533.34C231,-2520.84 231,-2505.84 231,-2492.18"/>
<polygon fill="none" stroke="#404040" points="231,-2492.11 227,-2486.11 231,-2480.11 235,-2486.11 231,-2492.11"/>
<text text-anchor="middle" x="241.5" y="-2507" font-family="Helvetica,sans-Serif" font-size="10.00"> +ptr</text>
</g>
<!-- Node8 -->
<g id="node8" class="node">
<title>Node8</title>
<g id="a_node8"><a xlink:title="STL class.">
<polygon fill="none" stroke="#bfbfbf" points="448,-2307 448,-2364 508,-2364 508,-2307 448,-2307"/>
<text text-anchor="middle" x="478" y="-2352" font-family="Helvetica,sans-Serif" font-size="10.00">std::string</text>
<polyline fill="none" stroke="#bfbfbf" points="448,-2345 508,-2345 "/>
<text text-anchor="middle" x="478" y="-2333" font-family="Helvetica,sans-Serif" font-size="10.00"> </text>
<polyline fill="none" stroke="#bfbfbf" points="448,-2326 508,-2326 "/>
<text text-anchor="middle" x="478" y="-2314" font-family="Helvetica,sans-Serif" font-size="10.00"> </text>
</a>
</g>
</g>
<!-- Node8&#45;&gt;Node1 -->
<g id="edge11" class="edge">
<title>Node8&#45;&gt;Node1</title>
<path fill="none" stroke="#404040" d="M447.92,-2315.33C436.66,-2306.73 424.74,-2295.65 417,-2283 372.03,-2209.45 328,-2042.25 291.54,-1869.49"/>
<polygon fill="none" stroke="#404040" points="291.5,-1869.32 286.36,-1864.27 289.04,-1857.58 294.19,-1862.63 291.5,-1869.32"/>
<text text-anchor="middle" x="455" y="-2275" font-family="Helvetica,sans-Serif" font-size="10.00"> &#45;m_outputDir</text>
<text text-anchor="middle" x="455" y="-2264" font-family="Helvetica,sans-Serif" font-size="10.00">&#45;m_logName</text>
<text text-anchor="middle" x="455" y="-2253" font-family="Helvetica,sans-Serif" font-size="10.00">&#45;m_logFile</text>
<text text-anchor="middle" x="455" y="-2242" font-family="Helvetica,sans-Serif" font-size="10.00">&#45;m_inputGSDFile</text>
</g>
<!-- Node8&#45;&gt;Node4 -->
<g id="edge8" class="edge">
<title>Node8&#45;&gt;Node4</title>
<path fill="none" stroke="#404040" d="M487.64,-2306.75C489.85,-2299.15 491.88,-2290.84 493,-2283 495.76,-2263.64 493.49,-2258.55 493,-2239 472.1,-1404.88 633.57,-1164.73 399,-364 394.07,-347.17 386.94,-330.2 378.86,-314.02"/>
<polygon fill="none" stroke="#404040" points="378.65,-313.61 372.34,-310.12 373.13,-302.95 379.44,-306.44 378.65,-313.61"/>
<text text-anchor="middle" x="453.5" y="-454" font-family="Helvetica,sans-Serif" font-size="10.00"> &#45;m_logName</text>
<text text-anchor="middle" x="453.5" y="-443" font-family="Helvetica,sans-Serif" font-size="10.00">&#45;m_logFile</text>
</g>
<!-- Node9 -->
<g id="node9" class="node">
<title>Node9</title>
<g id="a_node9"><a xlink:title="STL class.">
<polygon fill="none" stroke="#bfbfbf" points="430.5,-2417.5 430.5,-2485.5 525.5,-2485.5 525.5,-2417.5 430.5,-2417.5"/>
<text text-anchor="start" x="438.5" y="-2473.5" font-family="Helvetica,sans-Serif" font-size="10.00">std::basic_string&lt;</text>
<text text-anchor="middle" x="478" y="-2462.5" font-family="Helvetica,sans-Serif" font-size="10.00"> char &gt;</text>
<polyline fill="none" stroke="#bfbfbf" points="430.5,-2455.5 525.5,-2455.5 "/>
<text text-anchor="middle" x="478" y="-2443.5" font-family="Helvetica,sans-Serif" font-size="10.00"> </text>
<polyline fill="none" stroke="#bfbfbf" points="430.5,-2436.5 525.5,-2436.5 "/>
<text text-anchor="middle" x="478" y="-2424.5" font-family="Helvetica,sans-Serif" font-size="10.00"> </text>
</a>
</g>
</g>
<!-- Node9&#45;&gt;Node8 -->
<g id="edge9" class="edge">
<title>Node9&#45;&gt;Node8</title>
<path fill="none" stroke="midnightblue" d="M478,-2407.03C478,-2392.67 478,-2377.1 478,-2364.24"/>
<polygon fill="none" stroke="midnightblue" points="474.5,-2407.22 478,-2417.22 481.5,-2407.22 474.5,-2407.22"/>
</g>
<!-- Node10&#45;&gt;Node1 -->
<g id="edge12" class="edge">
<title>Node10&#45;&gt;Node1</title>
<path fill="none" stroke="#404040" d="M233.85,-2301.23C233.26,-2284.06 232.45,-2260.84 231.49,-2232.93"/>
<polygon fill="none" stroke="#404040" points="231.48,-2232.68 227.27,-2226.83 231.06,-2220.69 235.27,-2226.55 231.48,-2232.68"/>
<text text-anchor="middle" x="257.5" y="-2258.5" font-family="Helvetica,sans-Serif" font-size="10.00"> &#45;m_handle</text>
</g>
<!-- Node11 -->
<g id="node11" class="node">
<title>Node11</title>
<g id="a_node11"><a xlink:title=" ">
<polygon fill="none" stroke="#bfbfbf" points="317,-2423 317,-2480 383,-2480 383,-2423 317,-2423"/>
<text text-anchor="middle" x="350" y="-2468" font-family="Helvetica,sans-Serif" font-size="10.00">gsd_handle</text>
<polyline fill="none" stroke="#bfbfbf" points="317,-2461 383,-2461 "/>
<text text-anchor="middle" x="350" y="-2449" font-family="Helvetica,sans-Serif" font-size="10.00"> </text>
<polyline fill="none" stroke="#bfbfbf" points="317,-2442 383,-2442 "/>
<text text-anchor="middle" x="350" y="-2430" font-family="Helvetica,sans-Serif" font-size="10.00"> </text>
</a>
</g>
</g>
<!-- Node11&#45;&gt;Node10 -->
<g id="edge13" class="edge">
<title>Node11&#45;&gt;Node10</title>
<path fill="none" stroke="#404040" d="M333.9,-2422.79C326.52,-2411.33 317.15,-2398.34 307,-2388 303.43,-2384.36 299.57,-2380.8 295.56,-2377.36"/>
<polygon fill="none" stroke="#404040" points="295.3,-2377.15 288.13,-2376.45 286,-2369.56 293.18,-2370.25 295.3,-2377.15"/>
<text text-anchor="middle" x="326.5" y="-2391" font-family="Helvetica,sans-Serif" font-size="10.00"> +ptr</text>
</g>
</g>
</svg>
