<?xml version="1.0" encoding="UTF-8" standalone="no"?>
<!DOCTYPE svg PUBLIC "-//W3C//DTD SVG 1.1//EN"
 "http://www.w3.org/Graphics/SVG/1.1/DTD/svg11.dtd">
<!-- Generated by graphviz version 2.43.0 (0)
 -->
<!-- Title: rungeKutta4 Pages: 1 -->
<svg width="908pt" height="2538pt"
 viewBox="0.00 0.00 907.50 2538.00" xmlns="http://www.w3.org/2000/svg" xmlns:xlink="http://www.w3.org/1999/xlink">
<g id="graph0" class="graph" transform="scale(1 1) rotate(0) translate(4 2534)">
<title>rungeKutta4</title>
<!-- Node1 -->
<g id="node1" class="node">
<title>Node1</title>
<g id="a_node1"><a xlink:title="Standard Runge&#45;Kutta 4th order integration.">
<polygon fill="#bfbfbf" stroke="black" points="682,-671.5 682,-827.5 805,-827.5 805,-671.5 682,-671.5"/>
<text text-anchor="middle" x="743.5" y="-815.5" font-family="Helvetica,sans-Serif" font-size="10.00">rungeKutta4</text>
<polyline fill="none" stroke="black" points="682,-808.5 805,-808.5 "/>
<text text-anchor="start" x="690" y="-796.5" font-family="Helvetica,sans-Serif" font-size="10.00">&#45; m_dt</text>
<text text-anchor="start" x="690" y="-785.5" font-family="Helvetica,sans-Serif" font-size="10.00">&#45; m_c1_2_dt</text>
<text text-anchor="start" x="690" y="-774.5" font-family="Helvetica,sans-Serif" font-size="10.00">&#45; m_c1_6_dt</text>
<text text-anchor="start" x="690" y="-763.5" font-family="Helvetica,sans-Serif" font-size="10.00">&#45; m_c1_2</text>
<text text-anchor="start" x="690" y="-752.5" font-family="Helvetica,sans-Serif" font-size="10.00">&#45; m_c1_6</text>
<polyline fill="none" stroke="black" points="682,-745.5 805,-745.5 "/>
<text text-anchor="start" x="690" y="-733.5" font-family="Helvetica,sans-Serif" font-size="10.00">+ rungeKutta4()</text>
<text text-anchor="start" x="690" y="-722.5" font-family="Helvetica,sans-Serif" font-size="10.00">+ ~rungeKutta4()</text>
<text text-anchor="start" x="690" y="-711.5" font-family="Helvetica,sans-Serif" font-size="10.00">+ integrate()</text>
<text text-anchor="start" x="690" y="-700.5" font-family="Helvetica,sans-Serif" font-size="10.00">&#45; integrateSecondOrder()</text>
<text text-anchor="start" x="690" y="-689.5" font-family="Helvetica,sans-Serif" font-size="10.00">&#45; accelerationUpdate()</text>
<text text-anchor="start" x="690" y="-678.5" font-family="Helvetica,sans-Serif" font-size="10.00">&#45; udwadiaKalaba()</text>
</a>
</g>
</g>
<!-- Node2 -->
<g id="node2" class="node">
<title>Node2</title>
<g id="a_node2"><a xlink:title=" ">
<polygon fill="none" stroke="#bfbfbf" points="534,-2246 534,-2303 687,-2303 687,-2246 534,-2246"/>
<text text-anchor="middle" x="610.5" y="-2291" font-family="Helvetica,sans-Serif" font-size="10.00">std::shared_ptr&lt; systemData &gt;</text>
<polyline fill="none" stroke="#bfbfbf" points="534,-2284 687,-2284 "/>
<text text-anchor="middle" x="610.5" y="-2272" font-family="Helvetica,sans-Serif" font-size="10.00"> </text>
<polyline fill="none" stroke="#bfbfbf" points="534,-2265 687,-2265 "/>
<text text-anchor="start" x="542" y="-2253" font-family="Helvetica,sans-Serif" font-size="10.00">+ operator&#45;&gt;()</text>
</a>
</g>
</g>
<!-- Node2&#45;&gt;Node1 -->
<g id="edge1" class="edge">
<title>Node2&#45;&gt;Node1</title>
<path fill="none" stroke="#404040" d="M662.72,-2245.86C686.12,-2230.46 711.37,-2208.91 724.5,-2182 739.25,-2151.77 742.64,-1148.85 743.34,-840.07"/>
<polygon fill="none" stroke="#404040" points="743.34,-839.63 739.35,-833.62 743.36,-827.63 747.35,-833.64 743.34,-839.63"/>
<text text-anchor="middle" x="764.5" y="-1652.5" font-family="Helvetica,sans-Serif" font-size="10.00"> &#45;m_system</text>
</g>
<!-- Node6 -->
<g id="node6" class="node">
<title>Node6</title>
<g id="a_node6"><a xlink:href="classGSDUtil.html" target="_top" xlink:title="Wrapper class for gsd.h to load data from input GSD file into systemData class.">
<polygon fill="none" stroke="black" points="287.5,-1833 287.5,-2044 409.5,-2044 409.5,-1833 287.5,-1833"/>
<text text-anchor="middle" x="348.5" y="-2032" font-family="Helvetica,sans-Serif" font-size="10.00">GSDUtil</text>
<polyline fill="none" stroke="black" points="287.5,-2025 409.5,-2025 "/>
<text text-anchor="start" x="295.5" y="-2013" font-family="Helvetica,sans-Serif" font-size="10.00">&#45; m_frame</text>
<polyline fill="none" stroke="black" points="287.5,-2006 409.5,-2006 "/>
<text text-anchor="start" x="295.5" y="-1994" font-family="Helvetica,sans-Serif" font-size="10.00">+ GSDUtil()</text>
<text text-anchor="start" x="295.5" y="-1983" font-family="Helvetica,sans-Serif" font-size="10.00">+ GSDUtil()</text>
<text text-anchor="start" x="295.5" y="-1972" font-family="Helvetica,sans-Serif" font-size="10.00">+ ~GSDUtil()</text>
<text text-anchor="start" x="295.5" y="-1961" font-family="Helvetica,sans-Serif" font-size="10.00">+ truncateGSD()</text>
<text text-anchor="start" x="295.5" y="-1950" font-family="Helvetica,sans-Serif" font-size="10.00">+ writeFrame()</text>
<text text-anchor="start" x="295.5" y="-1939" font-family="Helvetica,sans-Serif" font-size="10.00">+ frame()</text>
<text text-anchor="start" x="295.5" y="-1928" font-family="Helvetica,sans-Serif" font-size="10.00">&#45; checkGSDReturn()</text>
<text text-anchor="start" x="295.5" y="-1917" font-family="Helvetica,sans-Serif" font-size="10.00">&#45; readChunk()</text>
<text text-anchor="start" x="295.5" y="-1906" font-family="Helvetica,sans-Serif" font-size="10.00">&#45; readHeader()</text>
<text text-anchor="start" x="295.5" y="-1895" font-family="Helvetica,sans-Serif" font-size="10.00">&#45; readParameters()</text>
<text text-anchor="start" x="295.5" y="-1884" font-family="Helvetica,sans-Serif" font-size="10.00">&#45; readParticles()</text>
<text text-anchor="start" x="295.5" y="-1873" font-family="Helvetica,sans-Serif" font-size="10.00">&#45; readSystemSpecifics()</text>
<text text-anchor="start" x="295.5" y="-1862" font-family="Helvetica,sans-Serif" font-size="10.00">&#45; writeHeader()</text>
<text text-anchor="start" x="295.5" y="-1851" font-family="Helvetica,sans-Serif" font-size="10.00">&#45; writeParameters()</text>
<text text-anchor="start" x="295.5" y="-1840" font-family="Helvetica,sans-Serif" font-size="10.00">&#45; writeParticles()</text>
</a>
</g>
</g>
<!-- Node2&#45;&gt;Node6 -->
<g id="edge6" class="edge">
<title>Node2&#45;&gt;Node6</title>
<path fill="none" stroke="#404040" d="M533.94,-2268.9C465.51,-2263 372.57,-2249.97 349.5,-2222 312.21,-2176.8 309.51,-2112.25 317.24,-2056.26"/>
<polygon fill="none" stroke="#404040" points="317.28,-2055.95 314.24,-2049.41 319.1,-2044.09 322.14,-2050.62 317.28,-2055.95"/>
<text text-anchor="middle" x="375.5" y="-2208.5" font-family="Helvetica,sans-Serif" font-size="10.00"> &#45;m_system</text>
</g>
<!-- Node14 -->
<g id="node14" class="node">
<title>Node14</title>
<g id="a_node14"><a xlink:href="classpotentialHydrodynamics.html" target="_top" xlink:title="Computes hydrodynamic tensors (mass, forces) on a finite number of spheres in potential flow.">
<polygon fill="none" stroke="black" points="572,-1695.5 572,-2181.5 715,-2181.5 715,-1695.5 572,-1695.5"/>
<text text-anchor="middle" x="643.5" y="-2169.5" font-family="Helvetica,sans-Serif" font-size="10.00">potentialHydrodynamics</text>
<polyline fill="none" stroke="black" points="572,-2162.5 715,-2162.5 "/>
<text text-anchor="start" x="580" y="-2150.5" font-family="Helvetica,sans-Serif" font-size="10.00">&#45; m_num_pair_inter</text>
<text text-anchor="start" x="580" y="-2139.5" font-family="Helvetica,sans-Serif" font-size="10.00">&#45; m_3N</text>
<text text-anchor="start" x="580" y="-2128.5" font-family="Helvetica,sans-Serif" font-size="10.00">&#45; m_7M</text>
<text text-anchor="start" x="580" y="-2117.5" font-family="Helvetica,sans-Serif" font-size="10.00">&#45; m_alphaVec</text>
<text text-anchor="start" x="580" y="-2106.5" font-family="Helvetica,sans-Serif" font-size="10.00">&#45; m_betaVec</text>
<text text-anchor="start" x="580" y="-2095.5" font-family="Helvetica,sans-Serif" font-size="10.00">&#45; m_r_mag_ab</text>
<text text-anchor="start" x="580" y="-2084.5" font-family="Helvetica,sans-Serif" font-size="10.00">&#45; m_r_ab</text>
<text text-anchor="start" x="580" y="-2073.5" font-family="Helvetica,sans-Serif" font-size="10.00">&#45; m_I3N</text>
<text text-anchor="start" x="580" y="-2062.5" font-family="Helvetica,sans-Serif" font-size="10.00">&#45; m_c1_2_I3N</text>
<text text-anchor="start" x="580" y="-2051.5" font-family="Helvetica,sans-Serif" font-size="10.00">&#45; m_M_added</text>
<text text-anchor="start" x="580" y="-2040.5" font-family="Helvetica,sans-Serif" font-size="10.00">&#45; m_M_intrinsic</text>
<text text-anchor="start" x="580" y="-2029.5" font-family="Helvetica,sans-Serif" font-size="10.00">&#45; m_M_total</text>
<text text-anchor="start" x="580" y="-2018.5" font-family="Helvetica,sans-Serif" font-size="10.00">&#45; m_tens_M_total</text>
<text text-anchor="start" x="580" y="-2007.5" font-family="Helvetica,sans-Serif" font-size="10.00">&#45; m_grad_M_added</text>
<text text-anchor="start" x="580" y="-1996.5" font-family="Helvetica,sans-Serif" font-size="10.00">&#45; m_grad_M_added_body</text>
<text text-anchor="start" x="580" y="-1985.5" font-family="Helvetica,sans-Serif" font-size="10.00">_coords</text>
<text text-anchor="start" x="580" y="-1974.5" font-family="Helvetica,sans-Serif" font-size="10.00">&#45; m_F_hydro</text>
<text text-anchor="start" x="580" y="-1963.5" font-family="Helvetica,sans-Serif" font-size="10.00">&#45; m_F_hydroNoInertia</text>
<text text-anchor="start" x="580" y="-1952.5" font-family="Helvetica,sans-Serif" font-size="10.00">&#45; m_N1</text>
<text text-anchor="start" x="580" y="-1941.5" font-family="Helvetica,sans-Serif" font-size="10.00">&#45; m_N2</text>
<text text-anchor="start" x="580" y="-1930.5" font-family="Helvetica,sans-Serif" font-size="10.00">&#45; m_N3</text>
<text text-anchor="start" x="580" y="-1919.5" font-family="Helvetica,sans-Serif" font-size="10.00">&#45; m_M_tilde_tilde</text>
<text text-anchor="start" x="580" y="-1908.5" font-family="Helvetica,sans-Serif" font-size="10.00">&#45; m_M_tilde</text>
<text text-anchor="start" x="580" y="-1897.5" font-family="Helvetica,sans-Serif" font-size="10.00">&#45; m_mat_M_tilde</text>
<text text-anchor="start" x="580" y="-1886.5" font-family="Helvetica,sans-Serif" font-size="10.00">&#45; m_unitSphereVol</text>
<text text-anchor="start" x="580" y="-1875.5" font-family="Helvetica,sans-Serif" font-size="10.00">&#45; m_c1_2</text>
<text text-anchor="start" x="580" y="-1864.5" font-family="Helvetica,sans-Serif" font-size="10.00">&#45; m_c3_2</text>
<text text-anchor="start" x="580" y="-1853.5" font-family="Helvetica,sans-Serif" font-size="10.00">&#45; m_c15_2</text>
<polyline fill="none" stroke="black" points="572,-1846.5 715,-1846.5 "/>
<text text-anchor="start" x="580" y="-1834.5" font-family="Helvetica,sans-Serif" font-size="10.00">+ potentialHydrodynamics()</text>
<text text-anchor="start" x="580" y="-1823.5" font-family="Helvetica,sans-Serif" font-size="10.00">+ ~potentialHydrodynamics()</text>
<text text-anchor="start" x="580" y="-1812.5" font-family="Helvetica,sans-Serif" font-size="10.00">+ update()</text>
<text text-anchor="start" x="580" y="-1801.5" font-family="Helvetica,sans-Serif" font-size="10.00">+ fHydro()</text>
<text text-anchor="start" x="580" y="-1790.5" font-family="Helvetica,sans-Serif" font-size="10.00">+ fHydroNoInertia()</text>
<text text-anchor="start" x="580" y="-1779.5" font-family="Helvetica,sans-Serif" font-size="10.00">+ mTotal()</text>
<text text-anchor="start" x="580" y="-1768.5" font-family="Helvetica,sans-Serif" font-size="10.00">+ mTilde()</text>
<text text-anchor="start" x="580" y="-1757.5" font-family="Helvetica,sans-Serif" font-size="10.00">&#45; calcParticleDistances()</text>
<text text-anchor="start" x="580" y="-1746.5" font-family="Helvetica,sans-Serif" font-size="10.00">&#45; calcAddedMass()</text>
<text text-anchor="start" x="580" y="-1735.5" font-family="Helvetica,sans-Serif" font-size="10.00">&#45; calcTotalMass()</text>
<text text-anchor="start" x="580" y="-1724.5" font-family="Helvetica,sans-Serif" font-size="10.00">&#45; calcAddedMassGrad()</text>
<text text-anchor="start" x="580" y="-1713.5" font-family="Helvetica,sans-Serif" font-size="10.00">&#45; calcBodyTensors()</text>
<text text-anchor="start" x="580" y="-1702.5" font-family="Helvetica,sans-Serif" font-size="10.00">&#45; calcHydroForces()</text>
</a>
</g>
</g>
<!-- Node2&#45;&gt;Node14 -->
<g id="edge19" class="edge">
<title>Node2&#45;&gt;Node14</title>
<path fill="none" stroke="#404040" d="M613.23,-2245.88C614.58,-2232.17 616.36,-2214.15 618.38,-2193.71"/>
<polygon fill="none" stroke="#404040" points="618.38,-2193.71 614.99,-2187.34 619.56,-2181.77 622.95,-2188.13 618.38,-2193.71"/>
<text text-anchor="middle" x="643.5" y="-2208.5" font-family="Helvetica,sans-Serif" font-size="10.00"> &#45;m_system</text>
</g>
<!-- Node3 -->
<g id="node3" class="node">
<title>Node3</title>
<g id="a_node3"><a xlink:href="classsystemData.html" target="_top" xlink:title="Class contains all data structures relevant to the simulation framework. Note that after construction...">
<polygon fill="none" stroke="black" points="96.5,-0.5 96.5,-1498.5 272.5,-1498.5 272.5,-0.5 96.5,-0.5"/>
<text text-anchor="middle" x="184.5" y="-1486.5" font-family="Helvetica,sans-Serif" font-size="10.00">systemData</text>
<polyline fill="none" stroke="black" points="96.5,-1479.5 272.5,-1479.5 "/>
<text text-anchor="start" x="104.5" y="-1467.5" font-family="Helvetica,sans-Serif" font-size="10.00">&#45; m_return_val</text>
<text text-anchor="start" x="104.5" y="-1456.5" font-family="Helvetica,sans-Serif" font-size="10.00">&#45; m_return_bool</text>
<text text-anchor="start" x="104.5" y="-1445.5" font-family="Helvetica,sans-Serif" font-size="10.00">&#45; m_GSD_parsed</text>
<text text-anchor="start" x="104.5" y="-1434.5" font-family="Helvetica,sans-Serif" font-size="10.00">&#45; m_sys_spec_U0</text>
<text text-anchor="start" x="104.5" y="-1423.5" font-family="Helvetica,sans-Serif" font-size="10.00">&#45; m_sys_spec_omega</text>
<text text-anchor="start" x="104.5" y="-1412.5" font-family="Helvetica,sans-Serif" font-size="10.00">&#45; m_sys_spec_phase_shift</text>
<text text-anchor="start" x="104.5" y="-1401.5" font-family="Helvetica,sans-Serif" font-size="10.00">&#45; m_sys_spec_R_avg</text>
<text text-anchor="start" x="104.5" y="-1390.5" font-family="Helvetica,sans-Serif" font-size="10.00">&#45; m_particle_type_id</text>
<text text-anchor="start" x="104.5" y="-1379.5" font-family="Helvetica,sans-Serif" font-size="10.00">&#45; m_fluid_density</text>
<text text-anchor="start" x="104.5" y="-1368.5" font-family="Helvetica,sans-Serif" font-size="10.00">&#45; m_particle_density</text>
<text text-anchor="start" x="104.5" y="-1357.5" font-family="Helvetica,sans-Serif" font-size="10.00">&#45; m_wca_epsilon</text>
<text text-anchor="start" x="104.5" y="-1346.5" font-family="Helvetica,sans-Serif" font-size="10.00">&#45; m_wca_sigma</text>
<text text-anchor="start" x="104.5" y="-1335.5" font-family="Helvetica,sans-Serif" font-size="10.00">&#45; m_num_spatial_dim</text>
<text text-anchor="start" x="104.5" y="-1324.5" font-family="Helvetica,sans-Serif" font-size="10.00">&#45; m_num_particles</text>
<text text-anchor="start" x="104.5" y="-1313.5" font-family="Helvetica,sans-Serif" font-size="10.00">&#45; m_num_bodies</text>
<text text-anchor="start" x="104.5" y="-1302.5" font-family="Helvetica,sans-Serif" font-size="10.00">&#45; m_num_DoF</text>
<text text-anchor="start" x="104.5" y="-1291.5" font-family="Helvetica,sans-Serif" font-size="10.00">&#45; m_num_constraints</text>
<text text-anchor="start" x="104.5" y="-1280.5" font-family="Helvetica,sans-Serif" font-size="10.00">&#45; m_dt</text>
<text text-anchor="start" x="104.5" y="-1269.5" font-family="Helvetica,sans-Serif" font-size="10.00">&#45; m_tf</text>
<text text-anchor="start" x="104.5" y="-1258.5" font-family="Helvetica,sans-Serif" font-size="10.00">&#45; m_t</text>
<text text-anchor="start" x="104.5" y="-1247.5" font-family="Helvetica,sans-Serif" font-size="10.00">&#45; m_tau</text>
<text text-anchor="start" x="104.5" y="-1236.5" font-family="Helvetica,sans-Serif" font-size="10.00">&#45; m_timestep</text>
<text text-anchor="start" x="104.5" y="-1225.5" font-family="Helvetica,sans-Serif" font-size="10.00">&#45; m_num_steps_output</text>
<text text-anchor="start" x="104.5" y="-1214.5" font-family="Helvetica,sans-Serif" font-size="10.00">&#45; m_I3</text>
<text text-anchor="start" x="104.5" y="-1203.5" font-family="Helvetica,sans-Serif" font-size="10.00">&#45; m_tens_I3</text>
<text text-anchor="start" x="104.5" y="-1192.5" font-family="Helvetica,sans-Serif" font-size="10.00">&#45; m_levi_cevita</text>
<text text-anchor="start" x="104.5" y="-1181.5" font-family="Helvetica,sans-Serif" font-size="10.00">&#45; m_kappa_tilde</text>
<text text-anchor="start" x="104.5" y="-1170.5" font-family="Helvetica,sans-Serif" font-size="10.00">&#45; m_positions_bodies</text>
<text text-anchor="start" x="104.5" y="-1159.5" font-family="Helvetica,sans-Serif" font-size="10.00">&#45; m_velocities_bodies</text>
<text text-anchor="start" x="104.5" y="-1148.5" font-family="Helvetica,sans-Serif" font-size="10.00">&#45; m_accelerations_bodies</text>
<text text-anchor="start" x="104.5" y="-1137.5" font-family="Helvetica,sans-Serif" font-size="10.00">&#45; m_orientations_particles</text>
<text text-anchor="start" x="104.5" y="-1126.5" font-family="Helvetica,sans-Serif" font-size="10.00">&#45; m_positions_particles</text>
<text text-anchor="start" x="104.5" y="-1115.5" font-family="Helvetica,sans-Serif" font-size="10.00">&#45; m_velocities_particles</text>
<text text-anchor="start" x="104.5" y="-1104.5" font-family="Helvetica,sans-Serif" font-size="10.00">&#45; m_accelerations_particles</text>
<text text-anchor="start" x="104.5" y="-1093.5" font-family="Helvetica,sans-Serif" font-size="10.00">&#45; m_positions_locater</text>
<text text-anchor="start" x="104.5" y="-1082.5" font-family="Helvetica,sans-Serif" font-size="10.00">_particles</text>
<text text-anchor="start" x="104.5" y="-1071.5" font-family="Helvetica,sans-Serif" font-size="10.00">&#45; m_velocities_particles</text>
<text text-anchor="start" x="104.5" y="-1060.5" font-family="Helvetica,sans-Serif" font-size="10.00">_articulation</text>
<text text-anchor="start" x="104.5" y="-1049.5" font-family="Helvetica,sans-Serif" font-size="10.00">&#45; m_accelerations_particles</text>
<text text-anchor="start" x="104.5" y="-1038.5" font-family="Helvetica,sans-Serif" font-size="10.00">_articulation</text>
<text text-anchor="start" x="104.5" y="-1027.5" font-family="Helvetica,sans-Serif" font-size="10.00">&#45; m_rbm_conn</text>
<text text-anchor="start" x="104.5" y="-1016.5" font-family="Helvetica,sans-Serif" font-size="10.00">&#45; m_psi_conv_quat_ang</text>
<text text-anchor="start" x="104.5" y="-1005.5" font-family="Helvetica,sans-Serif" font-size="10.00">&#45; m_rbm_conn_T_quat</text>
<text text-anchor="start" x="104.5" y="-994.5" font-family="Helvetica,sans-Serif" font-size="10.00">&#45; m_tens_rbm_conn_T_quat</text>
<text text-anchor="start" x="104.5" y="-983.5" font-family="Helvetica,sans-Serif" font-size="10.00">&#45; m_rbm_conn_T_quat_grad</text>
<text text-anchor="start" x="104.5" y="-972.5" font-family="Helvetica,sans-Serif" font-size="10.00">&#45; m_conv_body_2_part_dof</text>
<text text-anchor="start" x="104.5" y="-961.5" font-family="Helvetica,sans-Serif" font-size="10.00">&#45; m_tens_conv_body_2</text>
<text text-anchor="start" x="104.5" y="-950.5" font-family="Helvetica,sans-Serif" font-size="10.00">_part_dof</text>
<text text-anchor="start" x="104.5" y="-939.5" font-family="Helvetica,sans-Serif" font-size="10.00">&#45; m_Udwadia_A</text>
<text text-anchor="start" x="104.5" y="-928.5" font-family="Helvetica,sans-Serif" font-size="10.00">&#45; m_Udwadia_b</text>
<polyline fill="none" stroke="black" points="96.5,-921.5 272.5,-921.5 "/>
<text text-anchor="start" x="104.5" y="-909.5" font-family="Helvetica,sans-Serif" font-size="10.00">+ systemData()</text>
<text text-anchor="start" x="104.5" y="-898.5" font-family="Helvetica,sans-Serif" font-size="10.00">+ ~systemData()</text>
<text text-anchor="start" x="104.5" y="-887.5" font-family="Helvetica,sans-Serif" font-size="10.00">+ initializeData()</text>
<text text-anchor="start" x="104.5" y="-876.5" font-family="Helvetica,sans-Serif" font-size="10.00">+ update()</text>
<text text-anchor="start" x="104.5" y="-865.5" font-family="Helvetica,sans-Serif" font-size="10.00">+ inputGSDFile()</text>
<text text-anchor="start" x="104.5" y="-854.5" font-family="Helvetica,sans-Serif" font-size="10.00">+ outputDir()</text>
<text text-anchor="start" x="104.5" y="-843.5" font-family="Helvetica,sans-Serif" font-size="10.00">+ gsdUtil()</text>
<text text-anchor="start" x="104.5" y="-832.5" font-family="Helvetica,sans-Serif" font-size="10.00">+ handle()</text>
<text text-anchor="start" x="104.5" y="-821.5" font-family="Helvetica,sans-Serif" font-size="10.00">+ setReturnVal()</text>
<text text-anchor="start" x="104.5" y="-810.5" font-family="Helvetica,sans-Serif" font-size="10.00">+ returnVal()</text>
<text text-anchor="start" x="104.5" y="-799.5" font-family="Helvetica,sans-Serif" font-size="10.00">+ setReturnBool()</text>
<text text-anchor="start" x="104.5" y="-788.5" font-family="Helvetica,sans-Serif" font-size="10.00">+ returnBool()</text>
<text text-anchor="start" x="104.5" y="-777.5" font-family="Helvetica,sans-Serif" font-size="10.00">+ gSDParsed()</text>
<text text-anchor="start" x="104.5" y="-766.5" font-family="Helvetica,sans-Serif" font-size="10.00">+ sysSpecU0()</text>
<text text-anchor="start" x="104.5" y="-755.5" font-family="Helvetica,sans-Serif" font-size="10.00">+ setSysSpecU0()</text>
<text text-anchor="start" x="104.5" y="-744.5" font-family="Helvetica,sans-Serif" font-size="10.00">+ sysSpecOmega()</text>
<text text-anchor="start" x="104.5" y="-733.5" font-family="Helvetica,sans-Serif" font-size="10.00">+ setSysSpecOmega()</text>
<text text-anchor="start" x="104.5" y="-722.5" font-family="Helvetica,sans-Serif" font-size="10.00">+ sysSpecPhaseShift()</text>
<text text-anchor="start" x="104.5" y="-711.5" font-family="Helvetica,sans-Serif" font-size="10.00">+ setSysSpecPhaseShift()</text>
<text text-anchor="start" x="104.5" y="-700.5" font-family="Helvetica,sans-Serif" font-size="10.00">+ sysSpecRAvg()</text>
<text text-anchor="start" x="104.5" y="-689.5" font-family="Helvetica,sans-Serif" font-size="10.00">+ setSysSpecRAvg()</text>
<text text-anchor="start" x="104.5" y="-678.5" font-family="Helvetica,sans-Serif" font-size="10.00">+ particleTypeId()</text>
<text text-anchor="start" x="104.5" y="-667.5" font-family="Helvetica,sans-Serif" font-size="10.00">+ setParticleTypeId()</text>
<text text-anchor="start" x="104.5" y="-656.5" font-family="Helvetica,sans-Serif" font-size="10.00">+ fluidDensity()</text>
<text text-anchor="start" x="104.5" y="-645.5" font-family="Helvetica,sans-Serif" font-size="10.00">+ setFluidDensity()</text>
<text text-anchor="start" x="104.5" y="-634.5" font-family="Helvetica,sans-Serif" font-size="10.00">+ particleDensity()</text>
<text text-anchor="start" x="104.5" y="-623.5" font-family="Helvetica,sans-Serif" font-size="10.00">+ setParticleDensity()</text>
<text text-anchor="start" x="104.5" y="-612.5" font-family="Helvetica,sans-Serif" font-size="10.00">+ wcaEpsilon()</text>
<text text-anchor="start" x="104.5" y="-601.5" font-family="Helvetica,sans-Serif" font-size="10.00">+ setWcaEpsilon()</text>
<text text-anchor="start" x="104.5" y="-590.5" font-family="Helvetica,sans-Serif" font-size="10.00">+ wcaSigma()</text>
<text text-anchor="start" x="104.5" y="-579.5" font-family="Helvetica,sans-Serif" font-size="10.00">+ setWcaSigma()</text>
<text text-anchor="start" x="104.5" y="-568.5" font-family="Helvetica,sans-Serif" font-size="10.00">+ numSpatialDim()</text>
<text text-anchor="start" x="104.5" y="-557.5" font-family="Helvetica,sans-Serif" font-size="10.00">+ setNumSpatialDim()</text>
<text text-anchor="start" x="104.5" y="-546.5" font-family="Helvetica,sans-Serif" font-size="10.00">+ numParticles()</text>
<text text-anchor="start" x="104.5" y="-535.5" font-family="Helvetica,sans-Serif" font-size="10.00">+ setNumParticles()</text>
<text text-anchor="start" x="104.5" y="-524.5" font-family="Helvetica,sans-Serif" font-size="10.00">+ numBodies()</text>
<text text-anchor="start" x="104.5" y="-513.5" font-family="Helvetica,sans-Serif" font-size="10.00">+ setNumBodies()</text>
<text text-anchor="start" x="104.5" y="-502.5" font-family="Helvetica,sans-Serif" font-size="10.00">+ numDoF()</text>
<text text-anchor="start" x="104.5" y="-491.5" font-family="Helvetica,sans-Serif" font-size="10.00">+ tensI3()</text>
<text text-anchor="start" x="104.5" y="-480.5" font-family="Helvetica,sans-Serif" font-size="10.00">+ i3()</text>
<text text-anchor="start" x="104.5" y="-469.5" font-family="Helvetica,sans-Serif" font-size="10.00">+ dt()</text>
<text text-anchor="start" x="104.5" y="-458.5" font-family="Helvetica,sans-Serif" font-size="10.00">+ setDt()</text>
<text text-anchor="start" x="104.5" y="-447.5" font-family="Helvetica,sans-Serif" font-size="10.00">+ tf()</text>
<text text-anchor="start" x="104.5" y="-436.5" font-family="Helvetica,sans-Serif" font-size="10.00">+ setTf()</text>
<text text-anchor="start" x="104.5" y="-425.5" font-family="Helvetica,sans-Serif" font-size="10.00">+ t()</text>
<text text-anchor="start" x="104.5" y="-414.5" font-family="Helvetica,sans-Serif" font-size="10.00">+ setT()</text>
<text text-anchor="start" x="104.5" y="-403.5" font-family="Helvetica,sans-Serif" font-size="10.00">+ tau()</text>
<text text-anchor="start" x="104.5" y="-392.5" font-family="Helvetica,sans-Serif" font-size="10.00">+ setTau()</text>
<text text-anchor="start" x="104.5" y="-381.5" font-family="Helvetica,sans-Serif" font-size="10.00">+ timestep()</text>
<text text-anchor="start" x="104.5" y="-370.5" font-family="Helvetica,sans-Serif" font-size="10.00">+ setTimestep()</text>
<text text-anchor="start" x="104.5" y="-359.5" font-family="Helvetica,sans-Serif" font-size="10.00">+ numStepsOutput()</text>
<text text-anchor="start" x="104.5" y="-348.5" font-family="Helvetica,sans-Serif" font-size="10.00">+ setNumStepsOutput()</text>
<text text-anchor="start" x="104.5" y="-337.5" font-family="Helvetica,sans-Serif" font-size="10.00">+ positionsBodies()</text>
<text text-anchor="start" x="104.5" y="-326.5" font-family="Helvetica,sans-Serif" font-size="10.00">+ setPositionsBodies()</text>
<text text-anchor="start" x="104.5" y="-315.5" font-family="Helvetica,sans-Serif" font-size="10.00">+ velocitiesBodies()</text>
<text text-anchor="start" x="104.5" y="-304.5" font-family="Helvetica,sans-Serif" font-size="10.00">+ setVelocitiesBodies()</text>
<text text-anchor="start" x="104.5" y="-293.5" font-family="Helvetica,sans-Serif" font-size="10.00">+ accelerationsBodies()</text>
<text text-anchor="start" x="104.5" y="-282.5" font-family="Helvetica,sans-Serif" font-size="10.00">+ setAccelerationsBodies()</text>
<text text-anchor="start" x="104.5" y="-271.5" font-family="Helvetica,sans-Serif" font-size="10.00">+ orientationsParticles()</text>
<text text-anchor="start" x="104.5" y="-260.5" font-family="Helvetica,sans-Serif" font-size="10.00">+ setOrientationsParticles()</text>
<text text-anchor="start" x="104.5" y="-249.5" font-family="Helvetica,sans-Serif" font-size="10.00">+ positionsParticles()</text>
<text text-anchor="start" x="104.5" y="-238.5" font-family="Helvetica,sans-Serif" font-size="10.00">+ setPositionsParticles()</text>
<text text-anchor="start" x="104.5" y="-227.5" font-family="Helvetica,sans-Serif" font-size="10.00">+ velocitiesParticles()</text>
<text text-anchor="start" x="104.5" y="-216.5" font-family="Helvetica,sans-Serif" font-size="10.00">+ setVelocitiesParticles()</text>
<text text-anchor="start" x="104.5" y="-205.5" font-family="Helvetica,sans-Serif" font-size="10.00">+ accelerationsParticles()</text>
<text text-anchor="start" x="104.5" y="-194.5" font-family="Helvetica,sans-Serif" font-size="10.00">+ setAccelerationsParticles()</text>
<text text-anchor="start" x="104.5" y="-183.5" font-family="Helvetica,sans-Serif" font-size="10.00">+ velocitiesParticlesArticulation()</text>
<text text-anchor="start" x="104.5" y="-172.5" font-family="Helvetica,sans-Serif" font-size="10.00">+ accelerationsParticlesArticulation()</text>
<text text-anchor="start" x="104.5" y="-161.5" font-family="Helvetica,sans-Serif" font-size="10.00">+ tensRbmConnTQuat()</text>
<text text-anchor="start" x="104.5" y="-150.5" font-family="Helvetica,sans-Serif" font-size="10.00">+ tensRbmConnTQuatGrad()</text>
<text text-anchor="start" x="104.5" y="-139.5" font-family="Helvetica,sans-Serif" font-size="10.00">+ tensConvBody2PartDof()</text>
<text text-anchor="start" x="104.5" y="-128.5" font-family="Helvetica,sans-Serif" font-size="10.00">+ udwadiaA()</text>
<text text-anchor="start" x="104.5" y="-117.5" font-family="Helvetica,sans-Serif" font-size="10.00">+ udwadiaB()</text>
<text text-anchor="start" x="104.5" y="-106.5" font-family="Helvetica,sans-Serif" font-size="10.00">&#45; parseGSD()</text>
<text text-anchor="start" x="104.5" y="-95.5" font-family="Helvetica,sans-Serif" font-size="10.00">&#45; checkInput()</text>
<text text-anchor="start" x="104.5" y="-84.5" font-family="Helvetica,sans-Serif" font-size="10.00">&#45; velocitiesArticulation()</text>
<text text-anchor="start" x="104.5" y="-73.5" font-family="Helvetica,sans-Serif" font-size="10.00">&#45; accelerationsArticulation()</text>
<text text-anchor="start" x="104.5" y="-62.5" font-family="Helvetica,sans-Serif" font-size="10.00">&#45; udwadiaLinearSystem()</text>
<text text-anchor="start" x="104.5" y="-51.5" font-family="Helvetica,sans-Serif" font-size="10.00">&#45; rigidBodyMotionTensors()</text>
<text text-anchor="start" x="104.5" y="-40.5" font-family="Helvetica,sans-Serif" font-size="10.00">&#45; gradientChangeOfVariable</text>
<text text-anchor="start" x="104.5" y="-29.5" font-family="Helvetica,sans-Serif" font-size="10.00">Tensors()</text>
<text text-anchor="start" x="104.5" y="-18.5" font-family="Helvetica,sans-Serif" font-size="10.00">&#45; eMatrix()</text>
<text text-anchor="start" x="104.5" y="-7.5" font-family="Helvetica,sans-Serif" font-size="10.00">&#45; crossProdMat()</text>
</a>
</g>
</g>
<!-- Node3&#45;&gt;Node2 -->
<g id="edge2" class="edge">
<title>Node3&#45;&gt;Node2</title>
<path fill="none" stroke="#404040" d="M272.53,-973.33C332.09,-1131.16 408.68,-1348.98 458.5,-1546 528.73,-1823.75 473.63,-1909.97 563.5,-2182 569.51,-2200.19 578.73,-2219.19 587.42,-2235.14"/>
<polygon fill="none" stroke="#404040" points="587.44,-2235.18 593.86,-2238.46 593.31,-2245.65 586.88,-2242.37 587.44,-2235.18"/>
<text text-anchor="middle" x="495" y="-1652.5" font-family="Helvetica,sans-Serif" font-size="10.00"> +ptr</text>
</g>
<!-- Node4 -->
<g id="node4" class="node">
<title>Node4</title>
<g id="a_node4"><a xlink:title=" ">
<polygon fill="none" stroke="#bfbfbf" points="22.5,-1546.5 22.5,-1614.5 156.5,-1614.5 156.5,-1546.5 22.5,-1546.5"/>
<text text-anchor="start" x="30.5" y="-1602.5" font-family="Helvetica,sans-Serif" font-size="10.00">std::enable_shared</text>
<text text-anchor="middle" x="89.5" y="-1591.5" font-family="Helvetica,sans-Serif" font-size="10.00">_from_this&lt; systemData &gt;</text>
<polyline fill="none" stroke="#bfbfbf" points="22.5,-1584.5 156.5,-1584.5 "/>
<text text-anchor="middle" x="89.5" y="-1572.5" font-family="Helvetica,sans-Serif" font-size="10.00"> </text>
<polyline fill="none" stroke="#bfbfbf" points="22.5,-1565.5 156.5,-1565.5 "/>
<text text-anchor="middle" x="89.5" y="-1553.5" font-family="Helvetica,sans-Serif" font-size="10.00"> </text>
</a>
</g>
</g>
<!-- Node4&#45;&gt;Node3 -->
<g id="edge3" class="edge">
<title>Node4&#45;&gt;Node3</title>
<path fill="none" stroke="midnightblue" d="M94.45,-1536.27C95.69,-1525.44 97.14,-1512.82 98.76,-1498.66"/>
<polygon fill="none" stroke="midnightblue" points="90.94,-1536.16 93.28,-1546.49 97.9,-1536.95 90.94,-1536.16"/>
</g>
<!-- Node5 -->
<g id="node5" class="node">
<title>Node5</title>
<g id="a_node5"><a xlink:title=" ">
<polygon fill="none" stroke="#bfbfbf" points="312,-1552 312,-1609 449,-1609 449,-1552 312,-1552"/>
<text text-anchor="middle" x="380.5" y="-1597" font-family="Helvetica,sans-Serif" font-size="10.00">std::shared_ptr&lt; GSDUtil &gt;</text>
<polyline fill="none" stroke="#bfbfbf" points="312,-1590 449,-1590 "/>
<text text-anchor="middle" x="380.5" y="-1578" font-family="Helvetica,sans-Serif" font-size="10.00"> </text>
<polyline fill="none" stroke="#bfbfbf" points="312,-1571 449,-1571 "/>
<text text-anchor="start" x="320" y="-1559" font-family="Helvetica,sans-Serif" font-size="10.00">+ operator&#45;&gt;()</text>
</a>
</g>
</g>
<!-- Node5&#45;&gt;Node3 -->
<g id="edge4" class="edge">
<title>Node5&#45;&gt;Node3</title>
<path fill="none" stroke="#404040" d="M373.98,-1551.92C358.13,-1484.87 315.89,-1306.22 275.3,-1134.57"/>
<polygon fill="none" stroke="#404040" points="275.27,-1134.43 270,-1129.51 272.51,-1122.75 277.78,-1127.67 275.27,-1134.43"/>
<text text-anchor="middle" x="392" y="-1520" font-family="Helvetica,sans-Serif" font-size="10.00"> &#45;m_gsdUtil</text>
</g>
<!-- Node6&#45;&gt;Node5 -->
<g id="edge5" class="edge">
<title>Node6&#45;&gt;Node5</title>
<path fill="none" stroke="#404040" d="M357.93,-1832.61C364.3,-1761.71 372.36,-1672.07 376.92,-1621.32"/>
<polygon fill="none" stroke="#404040" points="376.93,-1621.25 373.48,-1614.91 378,-1609.3 381.45,-1615.63 376.93,-1621.25"/>
<text text-anchor="middle" x="386" y="-1652.5" font-family="Helvetica,sans-Serif" font-size="10.00"> +ptr</text>
</g>
<!-- Node7 -->
<g id="node7" class="node">
<title>Node7</title>
<g id="a_node7"><a xlink:title="STL class.">
<polygon fill="none" stroke="#bfbfbf" points="220.5,-2246 220.5,-2303 280.5,-2303 280.5,-2246 220.5,-2246"/>
<text text-anchor="middle" x="250.5" y="-2291" font-family="Helvetica,sans-Serif" font-size="10.00">std::string</text>
<polyline fill="none" stroke="#bfbfbf" points="220.5,-2284 280.5,-2284 "/>
<text text-anchor="middle" x="250.5" y="-2272" font-family="Helvetica,sans-Serif" font-size="10.00"> </text>
<polyline fill="none" stroke="#bfbfbf" points="220.5,-2265 280.5,-2265 "/>
<text text-anchor="middle" x="250.5" y="-2253" font-family="Helvetica,sans-Serif" font-size="10.00"> </text>
</a>
</g>
</g>
<!-- Node7&#45;&gt;Node1 -->
<g id="edge16" class="edge">
<title>Node7&#45;&gt;Node1</title>
<path fill="none" stroke="#404040" d="M250.69,-2245.71C251.49,-2162.16 255.78,-1905.94 278.5,-1695 285.69,-1628.24 281.38,-1609.4 303.5,-1546 399.47,-1270.96 585.77,-979.01 682.26,-837.5"/>
<polygon fill="none" stroke="#404040" points="682.28,-837.48 682.37,-830.27 689.05,-827.57 688.97,-834.78 682.28,-837.48"/>
<text text-anchor="middle" x="313" y="-1658" font-family="Helvetica,sans-Serif" font-size="10.00"> &#45;m_logName</text>
<text text-anchor="middle" x="313" y="-1647" font-family="Helvetica,sans-Serif" font-size="10.00">&#45;m_logFile</text>
</g>
<!-- Node7&#45;&gt;Node3 -->
<g id="edge11" class="edge">
<title>Node7&#45;&gt;Node3</title>
<path fill="none" stroke="#404040" d="M230.53,-2245.79C226.14,-2238.39 222.05,-2230.17 219.5,-2222 147.3,-1990.3 193.19,-1919.57 185.5,-1677 183.78,-1622.87 182.5,-1566.96 181.57,-1510.66"/>
<polygon fill="none" stroke="#404040" points="181.57,-1510.64 177.47,-1504.71 181.38,-1498.64 185.47,-1504.58 181.57,-1510.64"/>
<text text-anchor="middle" x="223.5" y="-1669" font-family="Helvetica,sans-Serif" font-size="10.00"> &#45;m_outputDir</text>
<text text-anchor="middle" x="223.5" y="-1658" font-family="Helvetica,sans-Serif" font-size="10.00">&#45;m_logName</text>
<text text-anchor="middle" x="223.5" y="-1647" font-family="Helvetica,sans-Serif" font-size="10.00">&#45;m_logFile</text>
<text text-anchor="middle" x="223.5" y="-1636" font-family="Helvetica,sans-Serif" font-size="10.00">&#45;m_inputGSDFile</text>
</g>
<!-- Node7&#45;&gt;Node6 -->
<g id="edge7" class="edge">
<title>Node7&#45;&gt;Node6</title>
<path fill="none" stroke="#404040" d="M256.4,-2245.81C259.47,-2231.98 263.43,-2215.04 267.5,-2200 280.37,-2152.48 296.14,-2100.6 310.34,-2055.73"/>
<polygon fill="none" stroke="#404040" points="310.37,-2055.62 308.38,-2048.69 314,-2044.18 316,-2051.11 310.37,-2055.62"/>
<text text-anchor="middle" x="297" y="-2214" font-family="Helvetica,sans-Serif" font-size="10.00"> &#45;m_logName</text>
<text text-anchor="middle" x="297" y="-2203" font-family="Helvetica,sans-Serif" font-size="10.00">&#45;m_logFile</text>
</g>
<!-- Node7&#45;&gt;Node14 -->
<g id="edge20" class="edge">
<title>Node7&#45;&gt;Node14</title>
<path fill="none" stroke="#404040" d="M280.71,-2268.14C312.82,-2261.37 364.01,-2247.4 401.5,-2222 411.79,-2215.03 497.26,-2114.23 563.75,-2035"/>
<polygon fill="none" stroke="#404040" points="564.04,-2034.65 564.84,-2027.48 571.76,-2025.45 570.97,-2032.62 564.04,-2034.65"/>
<text text-anchor="middle" x="449" y="-2214" font-family="Helvetica,sans-Serif" font-size="10.00"> &#45;m_logName</text>
<text text-anchor="middle" x="449" y="-2203" font-family="Helvetica,sans-Serif" font-size="10.00">&#45;m_logFile</text>
</g>
<!-- Node8 -->
<g id="node8" class="node">
<title>Node8</title>
<g id="a_node8"><a xlink:title="STL class.">
<polygon fill="none" stroke="#bfbfbf" points="203,-2356.5 203,-2424.5 298,-2424.5 298,-2356.5 203,-2356.5"/>
<text text-anchor="start" x="211" y="-2412.5" font-family="Helvetica,sans-Serif" font-size="10.00">std::basic_string&lt;</text>
<text text-anchor="middle" x="250.5" y="-2401.5" font-family="Helvetica,sans-Serif" font-size="10.00"> char &gt;</text>
<polyline fill="none" stroke="#bfbfbf" points="203,-2394.5 298,-2394.5 "/>
<text text-anchor="middle" x="250.5" y="-2382.5" font-family="Helvetica,sans-Serif" font-size="10.00"> </text>
<polyline fill="none" stroke="#bfbfbf" points="203,-2375.5 298,-2375.5 "/>
<text text-anchor="middle" x="250.5" y="-2363.5" font-family="Helvetica,sans-Serif" font-size="10.00"> </text>
</a>
</g>
</g>
<!-- Node8&#45;&gt;Node7 -->
<g id="edge8" class="edge">
<title>Node8&#45;&gt;Node7</title>
<path fill="none" stroke="midnightblue" d="M250.5,-2346.03C250.5,-2331.67 250.5,-2316.1 250.5,-2303.24"/>
<polygon fill="none" stroke="midnightblue" points="247,-2346.22 250.5,-2356.22 254,-2346.22 247,-2346.22"/>
</g>
<!-- Node9 -->
<g id="node9" class="node">
<title>Node9</title>
<g id="a_node9"><a xlink:title="STL class.">
<polygon fill="none" stroke="#bfbfbf" points="487,-2362 487,-2419 592,-2419 592,-2362 487,-2362"/>
<text text-anchor="middle" x="539.5" y="-2407" font-family="Helvetica,sans-Serif" font-size="10.00">std::shared_ptr&lt; T &gt;</text>
<polyline fill="none" stroke="#bfbfbf" points="487,-2400 592,-2400 "/>
<text text-anchor="middle" x="539.5" y="-2388" font-family="Helvetica,sans-Serif" font-size="10.00"> </text>
<polyline fill="none" stroke="#bfbfbf" points="487,-2381 592,-2381 "/>
<text text-anchor="start" x="495" y="-2369" font-family="Helvetica,sans-Serif" font-size="10.00">+ operator&#45;&gt;()</text>
</a>
</g>
</g>
<!-- Node9&#45;&gt;Node2 -->
<g id="edge15" class="edge">
<title>Node9&#45;&gt;Node2</title>
<path fill="none" stroke="orange" d="M562.1,-2353.22C572.18,-2337.04 583.86,-2318.27 593.23,-2303.24"/>
<polygon fill="orange" stroke="orange" points="559,-2351.57 556.69,-2361.9 564.94,-2355.27 559,-2351.57"/>
<text text-anchor="middle" x="614" y="-2330" font-family="Helvetica,sans-Serif" font-size="10.00"> &lt; systemData &gt;</text>
</g>
<!-- Node9&#45;&gt;Node5 -->
<g id="edge9" class="edge">
<title>Node9&#45;&gt;Node5</title>
<path fill="none" stroke="orange" d="M531.8,-2352.05C524.9,-2318.14 514.65,-2266.79 506.5,-2222 463.99,-1988.37 471.25,-1926.53 418.5,-1695 412.13,-1667.02 409.7,-1660.18 400.5,-1633 397.85,-1625.19 394.73,-1616.81 391.75,-1609.13"/>
<polygon fill="orange" stroke="orange" points="528.4,-2352.88 533.82,-2361.98 535.25,-2351.48 528.4,-2352.88"/>
<text text-anchor="middle" x="535.5" y="-2208.5" font-family="Helvetica,sans-Serif" font-size="10.00"> &lt; GSDUtil &gt;</text>
</g>
<!-- Node11 -->
<g id="node11" class="node">
<title>Node11</title>
<g id="a_node11"><a xlink:title=" ">
<polygon fill="none" stroke="#bfbfbf" points="0,-2240.5 0,-2308.5 107,-2308.5 107,-2240.5 0,-2240.5"/>
<text text-anchor="start" x="8" y="-2296.5" font-family="Helvetica,sans-Serif" font-size="10.00">std::shared_ptr&lt; gsd</text>
<text text-anchor="middle" x="53.5" y="-2285.5" font-family="Helvetica,sans-Serif" font-size="10.00">_handle &gt;</text>
<polyline fill="none" stroke="#bfbfbf" points="0,-2278.5 107,-2278.5 "/>
<text text-anchor="middle" x="53.5" y="-2266.5" font-family="Helvetica,sans-Serif" font-size="10.00"> </text>
<polyline fill="none" stroke="#bfbfbf" points="0,-2259.5 107,-2259.5 "/>
<text text-anchor="middle" x="53.5" y="-2247.5" font-family="Helvetica,sans-Serif" font-size="10.00"> </text>
</a>
</g>
</g>
<!-- Node9&#45;&gt;Node11 -->
<g id="edge14" class="edge">
<title>Node9&#45;&gt;Node11</title>
<path fill="none" stroke="orange" d="M476.66,-2374.76C380.28,-2352.15 197.62,-2309.31 107.11,-2288.08"/>
<polygon fill="orange" stroke="orange" points="476.03,-2378.21 486.56,-2377.08 477.63,-2371.39 476.03,-2378.21"/>
<text text-anchor="middle" x="346" y="-2330" font-family="Helvetica,sans-Serif" font-size="10.00"> &lt; gsd_handle &gt;</text>
</g>
<!-- Node13 -->
<g id="node13" class="node">
<title>Node13</title>
<g id="a_node13"><a xlink:title=" ">
<polygon fill="none" stroke="#bfbfbf" points="771.5,-1546.5 771.5,-1614.5 899.5,-1614.5 899.5,-1546.5 771.5,-1546.5"/>
<text text-anchor="start" x="779.5" y="-1602.5" font-family="Helvetica,sans-Serif" font-size="10.00">std::shared_ptr&lt; potential</text>
<text text-anchor="middle" x="835.5" y="-1591.5" font-family="Helvetica,sans-Serif" font-size="10.00">Hydrodynamics &gt;</text>
<polyline fill="none" stroke="#bfbfbf" points="771.5,-1584.5 899.5,-1584.5 "/>
<text text-anchor="middle" x="835.5" y="-1572.5" font-family="Helvetica,sans-Serif" font-size="10.00"> </text>
<polyline fill="none" stroke="#bfbfbf" points="771.5,-1565.5 899.5,-1565.5 "/>
<text text-anchor="start" x="779.5" y="-1553.5" font-family="Helvetica,sans-Serif" font-size="10.00">+ operator&#45;&gt;()</text>
</a>
</g>
</g>
<!-- Node9&#45;&gt;Node13 -->
<g id="edge21" class="edge">
<title>Node9&#45;&gt;Node13</title>
<path fill="none" stroke="orange" d="M601.89,-2371.81C634.73,-2359.38 672.96,-2339.43 696.5,-2309 799.13,-2176.28 820.23,-1892.16 840.5,-1677 842.45,-1656.34 841.3,-1633.09 839.62,-1614.7"/>
<polygon fill="orange" stroke="orange" points="600.55,-2368.57 592.34,-2375.27 602.93,-2375.15 600.55,-2368.57"/>
<text text-anchor="middle" x="817" y="-2208.5" font-family="Helvetica,sans-Serif" font-size="10.00"> &lt; potentialHydrodynamics &gt;</text>
</g>
<!-- Node10 -->
<g id="node10" class="node">
<title>Node10</title>
<g id="a_node10"><a xlink:title=" ">
<polygon fill="none" stroke="#bfbfbf" points="525,-2472.5 525,-2529.5 554,-2529.5 554,-2472.5 525,-2472.5"/>
<text text-anchor="middle" x="539.5" y="-2517.5" font-family="Helvetica,sans-Serif" font-size="10.00">T</text>
<polyline fill="none" stroke="#bfbfbf" points="525,-2510.5 554,-2510.5 "/>
<text text-anchor="middle" x="539.5" y="-2498.5" font-family="Helvetica,sans-Serif" font-size="10.00"> </text>
<polyline fill="none" stroke="#bfbfbf" points="525,-2491.5 554,-2491.5 "/>
<text text-anchor="middle" x="539.5" y="-2479.5" font-family="Helvetica,sans-Serif" font-size="10.00"> </text>
</a>
</g>
</g>
<!-- Node10&#45;&gt;Node9 -->
<g id="edge10" class="edge">
<title>Node10&#45;&gt;Node9</title>
<path fill="none" stroke="#404040" d="M539.5,-2472.34C539.5,-2459.84 539.5,-2444.84 539.5,-2431.18"/>
<polygon fill="none" stroke="#404040" points="539.5,-2431.11 535.5,-2425.11 539.5,-2419.11 543.5,-2425.11 539.5,-2431.11"/>
<text text-anchor="middle" x="550" y="-2446" font-family="Helvetica,sans-Serif" font-size="10.00"> +ptr</text>
</g>
<!-- Node11&#45;&gt;Node3 -->
<g id="edge12" class="edge">
<title>Node11&#45;&gt;Node3</title>
<path fill="none" stroke="#404040" d="M50.77,-2240.3C42.99,-2143.82 20.79,-1855.12 13.5,-1615 7.61,-1421.04 49.53,-1207.08 93.33,-1040.54"/>
<polygon fill="none" stroke="#404040" points="93.42,-1040.23 91.09,-1033.4 96.49,-1028.63 98.82,-1035.45 93.42,-1040.23"/>
<text text-anchor="middle" x="41" y="-1652.5" font-family="Helvetica,sans-Serif" font-size="10.00"> &#45;m_handle</text>
</g>
<!-- Node12 -->
<g id="node12" class="node">
<title>Node12</title>
<g id="a_node12"><a xlink:title=" ">
<polygon fill="none" stroke="#bfbfbf" points="20.5,-2362 20.5,-2419 86.5,-2419 86.5,-2362 20.5,-2362"/>
<text text-anchor="middle" x="53.5" y="-2407" font-family="Helvetica,sans-Serif" font-size="10.00">gsd_handle</text>
<polyline fill="none" stroke="#bfbfbf" points="20.5,-2400 86.5,-2400 "/>
<text text-anchor="middle" x="53.5" y="-2388" font-family="Helvetica,sans-Serif" font-size="10.00"> </text>
<polyline fill="none" stroke="#bfbfbf" points="20.5,-2381 86.5,-2381 "/>
<text text-anchor="middle" x="53.5" y="-2369" font-family="Helvetica,sans-Serif" font-size="10.00"> </text>
</a>
</g>
</g>
<!-- Node12&#45;&gt;Node11 -->
<g id="edge13" class="edge">
<title>Node12&#45;&gt;Node11</title>
<path fill="none" stroke="#404040" d="M53.5,-2361.9C53.5,-2349.59 53.5,-2334.76 53.5,-2320.89"/>
<polygon fill="none" stroke="#404040" points="53.5,-2320.52 49.5,-2314.52 53.5,-2308.52 57.5,-2314.52 53.5,-2320.52"/>
<text text-anchor="middle" x="64" y="-2330" font-family="Helvetica,sans-Serif" font-size="10.00"> +ptr</text>
</g>
<!-- Node13&#45;&gt;Node1 -->
<g id="edge17" class="edge">
<title>Node13&#45;&gt;Node1</title>
<path fill="none" stroke="#404040" d="M831.84,-1546.49C818.69,-1428 773.58,-1021.55 753.4,-839.69"/>
<polygon fill="none" stroke="#404040" points="753.37,-839.45 748.73,-833.92 752.05,-827.52 756.68,-833.04 753.37,-839.45"/>
<text text-anchor="middle" x="858.5" y="-1520" font-family="Helvetica,sans-Serif" font-size="10.00"> &#45;m_potHydro</text>
</g>
<!-- Node14&#45;&gt;Node13 -->
<g id="edge18" class="edge">
<title>Node14&#45;&gt;Node13</title>
<path fill="none" stroke="#404040" d="M715.1,-1823.72C742.1,-1778.8 772.14,-1726.24 796.5,-1677 804.55,-1660.72 812.34,-1642.36 818.82,-1626.12"/>
<polygon fill="none" stroke="#404040" points="818.9,-1625.89 817.37,-1618.85 823.28,-1614.72 824.82,-1621.77 818.9,-1625.89"/>
<text text-anchor="middle" x="826" y="-1652.5" font-family="Helvetica,sans-Serif" font-size="10.00"> +ptr</text>
</g>
</g>
</svg>
