<?xml version="1.0" encoding="UTF-8" standalone="no"?>
<!DOCTYPE svg PUBLIC "-//W3C//DTD SVG 1.1//EN"
 "http://www.w3.org/Graphics/SVG/1.1/DTD/svg11.dtd">
<!-- Generated by graphviz version 2.49.1 (20210923.0004)
 -->
<!-- Title: plotStyling.Multiple.formatter Pages: 1 -->
<svg width="287pt" height="57pt"
 viewBox="0.00 0.00 287.00 57.00" xmlns="http://www.w3.org/2000/svg" xmlns:xlink="http://www.w3.org/1999/xlink">
<g id="graph0" class="graph" transform="scale(1 1) rotate(0) translate(4 53)">
<title>plotStyling.Multiple.formatter</title>
<!-- Node1 -->
<g id="node1" class="node">
<title>Node1</title>
<g id="a_node1"><a xlink:title=" ">
<polygon fill="#bfbfbf" stroke="black" points="0,-6 0,-25 143,-25 143,-6 0,-6"/>
<text text-anchor="middle" x="71.5" y="-13" font-family="Helvetica,sans-Serif" font-size="10.00">plotStyling.Multiple.formatter</text>
</a>
</g>
</g>
<!-- Node1&#45;&gt;Node1 -->
<g id="edge1" class="edge">
<title>Node1&#45;&gt;Node1</title>
<path fill="none" stroke="midnightblue" d="M47.46,-25.26C35.76,-34.07 43.77,-43.5 71.5,-43.5 89.7,-43.5 99.4,-39.44 100.62,-34.15"/>
<polygon fill="midnightblue" stroke="midnightblue" points="103.54,-32.21 95.54,-25.26 97.46,-35.68 103.54,-32.21"/>
</g>
<!-- Node2 -->
<g id="node2" class="node">
<title>Node2</title>
<g id="a_node2"><a xlink:href="namespaceplotStyling.html#a3b2ba8616eda02341c67ce92b602edfa" target="_top" xlink:title=" ">
<polygon fill="none" stroke="black" points="179,-0.5 179,-30.5 279,-30.5 279,-0.5 179,-0.5"/>
<text text-anchor="start" x="187" y="-18.5" font-family="Helvetica,sans-Serif" font-size="10.00">plotStyling.multiple</text>
<text text-anchor="middle" x="229" y="-7.5" font-family="Helvetica,sans-Serif" font-size="10.00">_formatter</text>
</a>
</g>
</g>
<!-- Node1&#45;&gt;Node2 -->
<g id="edge2" class="edge">
<title>Node1&#45;&gt;Node2</title>
<path fill="none" stroke="midnightblue" d="M143.42,-15.5C151.97,-15.5 160.62,-15.5 168.97,-15.5"/>
<polygon fill="midnightblue" stroke="midnightblue" points="168.97,-19 178.97,-15.5 168.97,-12 168.97,-19"/>
</g>
<!-- Node2&#45;&gt;Node2 -->
<g id="edge3" class="edge">
<title>Node2&#45;&gt;Node2</title>
<path fill="none" stroke="midnightblue" d="M201.81,-30.66C195.26,-40.06 204.32,-49 229,-49 244.04,-49 253.28,-45.68 256.72,-40.96"/>
<polygon fill="midnightblue" stroke="midnightblue" points="260.2,-40.46 256.19,-30.66 253.21,-40.83 260.2,-40.46"/>
</g>
</g>
</svg>
