<?xml version="1.0" encoding="UTF-8" standalone="no"?>
<!DOCTYPE svg PUBLIC "-//W3C//DTD SVG 1.1//EN"
 "http://www.w3.org/Graphics/SVG/1.1/DTD/svg11.dtd">
<!-- Generated by graphviz version 2.43.0 (0)
 -->
<!-- Title: RungeKutta4::integrateSecondOrder Pages: 1 -->
<svg width="521pt" height="104pt"
 viewBox="0.00 0.00 521.00 104.00" xmlns="http://www.w3.org/2000/svg" xmlns:xlink="http://www.w3.org/1999/xlink">
<g id="graph0" class="graph" transform="scale(1 1) rotate(0) translate(4 100)">
<title>RungeKutta4::integrateSecondOrder</title>
<!-- Node1 -->
<g id="node1" class="node">
<title>Node1</title>
<g id="a_node1"><a xlink:title="2nd order Runge&#45;Kutta 4th order integration. Integrates known acceleration body components into veloc...">
<polygon fill="#bfbfbf" stroke="black" points="0,-33 0,-63 150,-63 150,-33 0,-33"/>
<text text-anchor="start" x="8" y="-51" font-family="Helvetica,sans-Serif" font-size="10.00">RungeKutta4::integrateSecond</text>
<text text-anchor="middle" x="75" y="-40" font-family="Helvetica,sans-Serif" font-size="10.00">Order</text>
</a>
</g>
</g>
<!-- Node2 -->
<g id="node2" class="node">
<title>Node2</title>
<g id="a_node2"><a xlink:href="classRungeKutta4.html#acf4bede4af47cdeb464e05fe7f5d1683" target="_top" xlink:title="Helper function for integrateSecondOrder().">
<polygon fill="none" stroke="black" points="186,-33 186,-63 318,-63 318,-33 186,-33"/>
<text text-anchor="start" x="194" y="-51" font-family="Helvetica,sans-Serif" font-size="10.00">RungeKutta4::acceleration</text>
<text text-anchor="middle" x="252" y="-40" font-family="Helvetica,sans-Serif" font-size="10.00">Update</text>
</a>
</g>
</g>
<!-- Node1&#45;&gt;Node2 -->
<g id="edge1" class="edge">
<title>Node1&#45;&gt;Node2</title>
<path fill="none" stroke="midnightblue" d="M150.22,-48C158.63,-48 167.21,-48 175.63,-48"/>
<polygon fill="midnightblue" stroke="midnightblue" points="175.81,-51.5 185.81,-48 175.81,-44.5 175.81,-51.5"/>
</g>
<!-- Node3 -->
<g id="node3" class="node">
<title>Node3</title>
<g id="a_node3"><a xlink:href="classRungeKutta4.html#a946b31500f95a6cf64ac2a758e88db73" target="_top" xlink:title="Replaces 2nd 1/2 of body acceleration D.o.F. with image of 1st 1/2 assuming the reflection plane is .">
<polygon fill="none" stroke="black" points="360.5,-76.5 360.5,-95.5 506.5,-95.5 506.5,-76.5 360.5,-76.5"/>
<text text-anchor="middle" x="433.5" y="-83.5" font-family="Helvetica,sans-Serif" font-size="10.00">RungeKutta4::imageBodyAcc</text>
</a>
</g>
</g>
<!-- Node2&#45;&gt;Node3 -->
<g id="edge2" class="edge">
<title>Node2&#45;&gt;Node3</title>
<path fill="none" stroke="midnightblue" d="M318.06,-61.77C337.62,-65.91 358.88,-70.41 377.7,-74.4"/>
<polygon fill="midnightblue" stroke="midnightblue" points="377.08,-77.85 387.59,-76.49 378.53,-71 377.08,-77.85"/>
</g>
<!-- Node4 -->
<g id="node4" class="node">
<title>Node4</title>
<g id="a_node4"><a xlink:href="classRungeKutta4.html#abc1cc48fea62c46948a51ca2b2000590" target="_top" xlink:title="Replaces 2nd 1/2 of body position and velocity D.o.F. with image of 1st 1/2 assuming the reflection p...">
<polygon fill="none" stroke="black" points="354,-38.5 354,-57.5 513,-57.5 513,-38.5 354,-38.5"/>
<text text-anchor="middle" x="433.5" y="-45.5" font-family="Helvetica,sans-Serif" font-size="10.00">RungeKutta4::imageBodyPosVel</text>
</a>
</g>
</g>
<!-- Node2&#45;&gt;Node4 -->
<g id="edge3" class="edge">
<title>Node2&#45;&gt;Node4</title>
<path fill="none" stroke="midnightblue" d="M318.06,-48C326.42,-48 335.1,-48 343.76,-48"/>
<polygon fill="midnightblue" stroke="midnightblue" points="343.91,-51.5 353.91,-48 343.91,-44.5 343.91,-51.5"/>
</g>
<!-- Node5 -->
<g id="node5" class="node">
<title>Node5</title>
<g id="a_node5"><a xlink:href="classRungeKutta4.html#ac5d72c5cd59bfcb3a42ab2fbdf92ca0e" target="_top" xlink:title="Calculates the body acceleration components given the constraints established by the Udwadia linear s...">
<polygon fill="none" stroke="black" points="360.5,-0.5 360.5,-19.5 506.5,-19.5 506.5,-0.5 360.5,-0.5"/>
<text text-anchor="middle" x="433.5" y="-7.5" font-family="Helvetica,sans-Serif" font-size="10.00">RungeKutta4::udwadiaKalaba</text>
</a>
</g>
</g>
<!-- Node2&#45;&gt;Node5 -->
<g id="edge4" class="edge">
<title>Node2&#45;&gt;Node5</title>
<path fill="none" stroke="midnightblue" d="M318.06,-34.23C337.62,-30.09 358.88,-25.59 377.7,-21.6"/>
<polygon fill="midnightblue" stroke="midnightblue" points="378.53,-25 387.59,-19.51 377.08,-18.15 378.53,-25"/>
</g>
</g>
</svg>
