<?xml version="1.0" encoding="UTF-8" standalone="no"?>
<!DOCTYPE svg PUBLIC "-//W3C//DTD SVG 1.1//EN"
 "http://www.w3.org/Graphics/SVG/1.1/DTD/svg11.dtd">
<!-- Generated by graphviz version 2.43.0 (0)
 -->
<!-- Title: GSDUtil::truncateGSD Pages: 1 -->
<svg width="915pt" height="332pt"
 viewBox="0.00 0.00 915.00 332.00" xmlns="http://www.w3.org/2000/svg" xmlns:xlink="http://www.w3.org/1999/xlink">
<g id="graph0" class="graph" transform="scale(1 1) rotate(0) translate(4 328)">
<title>GSDUtil::truncateGSD</title>
<!-- Node1 -->
<g id="node1" class="node">
<title>Node1</title>
<g id="a_node1"><a xlink:title=" ">
<polygon fill="#bfbfbf" stroke="black" points="0,-247.5 0,-266.5 116,-266.5 116,-247.5 0,-247.5"/>
<text text-anchor="middle" x="58" y="-254.5" font-family="Helvetica,sans-Serif" font-size="10.00">GSDUtil::truncateGSD</text>
</a>
</g>
</g>
<!-- Node2 -->
<g id="node2" class="node">
<title>Node2</title>
<g id="a_node2"><a xlink:href="classGSDUtil.html#a00a919382c11e9dd1fa7ae1a8788d4c0" target="_top" xlink:title=" ">
<polygon fill="none" stroke="black" points="152,-266.5 152,-285.5 289,-285.5 289,-266.5 152,-266.5"/>
<text text-anchor="middle" x="220.5" y="-273.5" font-family="Helvetica,sans-Serif" font-size="10.00">GSDUtil::checkGSDReturn</text>
</a>
</g>
</g>
<!-- Node1&#45;&gt;Node2 -->
<g id="edge1" class="edge">
<title>Node1&#45;&gt;Node2</title>
<path fill="none" stroke="midnightblue" d="M116.04,-263.75C124.39,-264.74 133.11,-265.77 141.8,-266.8"/>
<polygon fill="midnightblue" stroke="midnightblue" points="141.6,-270.3 151.94,-268 142.42,-263.35 141.6,-270.3"/>
</g>
<!-- Node3 -->
<g id="node3" class="node">
<title>Node3</title>
<g id="a_node3"><a xlink:href="gsd_8c.html#a02ac7984034069d508b1c7ccbe702bac" target="_top" xlink:title=" ">
<polygon fill="none" stroke="black" points="184,-228.5 184,-247.5 257,-247.5 257,-228.5 184,-228.5"/>
<text text-anchor="middle" x="220.5" y="-235.5" font-family="Helvetica,sans-Serif" font-size="10.00">gsd_truncate</text>
</a>
</g>
</g>
<!-- Node1&#45;&gt;Node3 -->
<g id="edge2" class="edge">
<title>Node1&#45;&gt;Node3</title>
<path fill="none" stroke="midnightblue" d="M116.04,-250.25C134.96,-248.01 155.76,-245.55 173.72,-243.42"/>
<polygon fill="midnightblue" stroke="midnightblue" points="174.13,-246.9 183.65,-242.24 173.3,-239.94 174.13,-246.9"/>
</g>
<!-- Node4 -->
<g id="node4" class="node">
<title>Node4</title>
<g id="a_node4"><a xlink:href="gsd_8c.html#ae50726c30c5bf629b6af1ef88020302f" target="_top" xlink:title=" ">
<polygon fill="none" stroke="black" points="331.5,-304.5 331.5,-323.5 438.5,-323.5 438.5,-304.5 331.5,-304.5"/>
<text text-anchor="middle" x="385" y="-311.5" font-family="Helvetica,sans-Serif" font-size="10.00">gsd_byte_buffer_free</text>
</a>
</g>
</g>
<!-- Node3&#45;&gt;Node4 -->
<g id="edge3" class="edge">
<title>Node3&#45;&gt;Node4</title>
<path fill="none" stroke="midnightblue" d="M257.31,-244.27C268,-247.13 279.41,-251.21 289,-257 308.91,-269.03 305.31,-282.6 325,-295 328.19,-297.01 331.62,-298.83 335.15,-300.46"/>
<polygon fill="midnightblue" stroke="midnightblue" points="334.1,-303.81 344.67,-304.39 336.76,-297.34 334.1,-303.81"/>
</g>
<!-- Node6 -->
<g id="node6" class="node">
<title>Node6</title>
<g id="a_node6"><a xlink:href="gsd_8c.html#a9e12a38df69cf73fa771b005748cb3e5" target="_top" xlink:title=" ">
<polygon fill="none" stroke="black" points="329,-266.5 329,-285.5 441,-285.5 441,-266.5 329,-266.5"/>
<text text-anchor="middle" x="385" y="-273.5" font-family="Helvetica,sans-Serif" font-size="10.00">gsd_index_buffer_free</text>
</a>
</g>
</g>
<!-- Node3&#45;&gt;Node6 -->
<g id="edge5" class="edge">
<title>Node3&#45;&gt;Node6</title>
<path fill="none" stroke="midnightblue" d="M257.16,-246.34C279.5,-251.56 308.63,-258.37 333.34,-264.15"/>
<polygon fill="midnightblue" stroke="midnightblue" points="332.74,-267.61 343.27,-266.48 334.33,-260.79 332.74,-267.61"/>
</g>
<!-- Node7 -->
<g id="node7" class="node">
<title>Node7</title>
<g id="a_node7"><a xlink:href="gsd_8c.html#acb769baf09c31a5ad6cba95bd348c194" target="_top" xlink:title=" ">
<polygon fill="none" stroke="black" points="339.5,-228.5 339.5,-247.5 430.5,-247.5 430.5,-228.5 339.5,-228.5"/>
<text text-anchor="middle" x="385" y="-235.5" font-family="Helvetica,sans-Serif" font-size="10.00">gsd_initialize_file</text>
</a>
</g>
</g>
<!-- Node3&#45;&gt;Node7 -->
<g id="edge7" class="edge">
<title>Node3&#45;&gt;Node7</title>
<path fill="none" stroke="midnightblue" d="M257.16,-238C278.24,-238 305.37,-238 329.13,-238"/>
<polygon fill="midnightblue" stroke="midnightblue" points="329.42,-241.5 339.42,-238 329.42,-234.5 329.42,-241.5"/>
</g>
<!-- Node10 -->
<g id="node10" class="node">
<title>Node10</title>
<g id="a_node10"><a xlink:href="gsd_8c.html#ac159dfbfd790607f85073ad2d8464a8b" target="_top" xlink:title=" ">
<polygon fill="none" stroke="black" points="331.5,-152.5 331.5,-171.5 438.5,-171.5 438.5,-152.5 331.5,-152.5"/>
<text text-anchor="middle" x="385" y="-159.5" font-family="Helvetica,sans-Serif" font-size="10.00">gsd_initialize_handle</text>
</a>
</g>
</g>
<!-- Node3&#45;&gt;Node10 -->
<g id="edge11" class="edge">
<title>Node3&#45;&gt;Node10</title>
<path fill="none" stroke="midnightblue" d="M242.08,-228.37C270.41,-215.13 321.59,-191.19 354.13,-175.97"/>
<polygon fill="midnightblue" stroke="midnightblue" points="356.01,-178.95 363.59,-171.55 353.05,-172.61 356.01,-178.95"/>
</g>
<!-- Node20 -->
<g id="node20" class="node">
<title>Node20</title>
<g id="a_node20"><a xlink:href="gsd_8c.html#a8249dc854c432e55e8ee07a8d3e8546c" target="_top" xlink:title=" ">
<polygon fill="none" stroke="black" points="325,-114.5 325,-133.5 445,-133.5 445,-114.5 325,-114.5"/>
<text text-anchor="middle" x="385" y="-121.5" font-family="Helvetica,sans-Serif" font-size="10.00">gsd_name_id_map_free</text>
</a>
</g>
</g>
<!-- Node3&#45;&gt;Node20 -->
<g id="edge24" class="edge">
<title>Node3&#45;&gt;Node20</title>
<path fill="none" stroke="midnightblue" d="M229.33,-228.46C245.36,-209.52 283.89,-166.92 325,-143 328.66,-140.87 332.59,-138.94 336.62,-137.21"/>
<polygon fill="midnightblue" stroke="midnightblue" points="338.08,-140.4 346.13,-133.51 335.54,-133.88 338.08,-140.4"/>
</g>
<!-- Node5 -->
<g id="node5" class="node">
<title>Node5</title>
<g id="a_node5"><a xlink:href="gsd_8c.html#a9b05d58560daee2512f03bedf7b2926d" target="_top" xlink:title=" ">
<polygon fill="none" stroke="black" points="492,-304.5 492,-323.5 607,-323.5 607,-304.5 492,-304.5"/>
<text text-anchor="middle" x="549.5" y="-311.5" font-family="Helvetica,sans-Serif" font-size="10.00">gsd_util_zero_memory</text>
</a>
</g>
</g>
<!-- Node4&#45;&gt;Node5 -->
<g id="edge4" class="edge">
<title>Node4&#45;&gt;Node5</title>
<path fill="none" stroke="midnightblue" d="M438.76,-314C452.41,-314 467.28,-314 481.55,-314"/>
<polygon fill="midnightblue" stroke="midnightblue" points="481.8,-317.5 491.8,-314 481.8,-310.5 481.8,-317.5"/>
</g>
<!-- Node6&#45;&gt;Node5 -->
<g id="edge6" class="edge">
<title>Node6&#45;&gt;Node5</title>
<path fill="none" stroke="midnightblue" d="M427.01,-285.59C448.55,-290.63 475.13,-296.84 497.94,-302.18"/>
<polygon fill="midnightblue" stroke="midnightblue" points="497.25,-305.61 507.79,-304.48 498.85,-298.79 497.25,-305.61"/>
</g>
<!-- Node7&#45;&gt;Node5 -->
<g id="edge10" class="edge">
<title>Node7&#45;&gt;Node5</title>
<path fill="none" stroke="midnightblue" d="M425.33,-247.61C432.16,-250.12 438.99,-253.22 445,-257 464.69,-269.4 461.09,-282.97 481,-295 484.58,-297.16 488.41,-299.08 492.36,-300.79"/>
<polygon fill="midnightblue" stroke="midnightblue" points="491.15,-304.08 501.74,-304.41 493.66,-297.54 491.15,-304.08"/>
</g>
<!-- Node8 -->
<g id="node8" class="node">
<title>Node8</title>
<g id="a_node8"><a xlink:href="gsd_8c.html#a3fb7746d93a1c856ca7ef64fa3548cbe" target="_top" xlink:title=" ">
<polygon fill="none" stroke="black" points="499,-266.5 499,-285.5 600,-285.5 600,-266.5 499,-266.5"/>
<text text-anchor="middle" x="549.5" y="-273.5" font-family="Helvetica,sans-Serif" font-size="10.00">gsd_io_pwrite_retry</text>
</a>
</g>
</g>
<!-- Node7&#45;&gt;Node8 -->
<g id="edge8" class="edge">
<title>Node7&#45;&gt;Node8</title>
<path fill="none" stroke="midnightblue" d="M427.01,-247.59C448.55,-252.63 475.13,-258.84 497.94,-264.18"/>
<polygon fill="midnightblue" stroke="midnightblue" points="497.25,-267.61 507.79,-266.48 498.85,-260.79 497.25,-267.61"/>
</g>
<!-- Node9 -->
<g id="node9" class="node">
<title>Node9</title>
<g id="a_node9"><a xlink:href="gsd_8c.html#a493ef951956c9f98adff89a80ddb3fa6" target="_top" xlink:title=" ">
<polygon fill="none" stroke="black" points="500.5,-228.5 500.5,-247.5 598.5,-247.5 598.5,-228.5 500.5,-228.5"/>
<text text-anchor="middle" x="549.5" y="-235.5" font-family="Helvetica,sans-Serif" font-size="10.00">gsd_make_version</text>
</a>
</g>
</g>
<!-- Node7&#45;&gt;Node9 -->
<g id="edge9" class="edge">
<title>Node7&#45;&gt;Node9</title>
<path fill="none" stroke="midnightblue" d="M430.83,-238C449.23,-238 470.77,-238 490.36,-238"/>
<polygon fill="midnightblue" stroke="midnightblue" points="490.4,-241.5 500.4,-238 490.4,-234.5 490.4,-241.5"/>
</g>
<!-- Node10&#45;&gt;Node9 -->
<g id="edge20" class="edge">
<title>Node10&#45;&gt;Node9</title>
<path fill="none" stroke="midnightblue" d="M399.23,-171.5C417.05,-183.92 450.1,-205.66 481,-219 486.44,-221.35 492.26,-223.49 498.1,-225.42"/>
<polygon fill="midnightblue" stroke="midnightblue" points="497.33,-228.84 507.91,-228.47 499.4,-222.16 497.33,-228.84"/>
</g>
<!-- Node11 -->
<g id="node11" class="node">
<title>Node11</title>
<g id="a_node11"><a xlink:href="gsd_8c.html#aeaf487909ab334303fa478cf4a126d6f" target="_top" xlink:title=" ">
<polygon fill="none" stroke="black" points="487,-190.5 487,-209.5 612,-209.5 612,-190.5 487,-190.5"/>
<text text-anchor="middle" x="549.5" y="-197.5" font-family="Helvetica,sans-Serif" font-size="10.00">gsd_byte_buffer_allocate</text>
</a>
</g>
</g>
<!-- Node10&#45;&gt;Node11 -->
<g id="edge12" class="edge">
<title>Node10&#45;&gt;Node11</title>
<path fill="none" stroke="midnightblue" d="M427.01,-171.59C448.55,-176.63 475.13,-182.84 497.94,-188.18"/>
<polygon fill="midnightblue" stroke="midnightblue" points="497.25,-191.61 507.79,-190.48 498.85,-184.79 497.25,-191.61"/>
</g>
<!-- Node12 -->
<g id="node12" class="node">
<title>Node12</title>
<g id="a_node12"><a xlink:href="gsd_8c.html#ae1948c93f77d642c4e3797fe7e5f2095" target="_top" xlink:title=" ">
<polygon fill="none" stroke="black" points="654,-152.5 654,-171.5 783,-171.5 783,-152.5 654,-152.5"/>
<text text-anchor="middle" x="718.5" y="-159.5" font-family="Helvetica,sans-Serif" font-size="10.00">gsd_index_buffer_allocate</text>
</a>
</g>
</g>
<!-- Node10&#45;&gt;Node12 -->
<g id="edge13" class="edge">
<title>Node10&#45;&gt;Node12</title>
<path fill="none" stroke="midnightblue" d="M438.53,-162C493.87,-162 581.46,-162 643.72,-162"/>
<polygon fill="midnightblue" stroke="midnightblue" points="643.88,-165.5 653.88,-162 643.88,-158.5 643.88,-165.5"/>
</g>
<!-- Node13 -->
<g id="node13" class="node">
<title>Node13</title>
<g id="a_node13"><a xlink:href="gsd_8c.html#a6fe75caf6c4df550af2455a0c40bfbdf" target="_top" xlink:title=" ">
<polygon fill="none" stroke="black" points="492.5,-114.5 492.5,-133.5 606.5,-133.5 606.5,-114.5 492.5,-114.5"/>
<text text-anchor="middle" x="549.5" y="-121.5" font-family="Helvetica,sans-Serif" font-size="10.00">gsd_index_buffer_map</text>
</a>
</g>
</g>
<!-- Node10&#45;&gt;Node13 -->
<g id="edge14" class="edge">
<title>Node10&#45;&gt;Node13</title>
<path fill="none" stroke="midnightblue" d="M427.01,-152.41C448.55,-147.37 475.13,-141.16 497.94,-135.82"/>
<polygon fill="midnightblue" stroke="midnightblue" points="498.85,-139.21 507.79,-133.52 497.25,-132.39 498.85,-139.21"/>
</g>
<!-- Node14 -->
<g id="node14" class="node">
<title>Node14</title>
<g id="a_node14"><a xlink:href="gsd_8c.html#ac1f41abbefbfe35337e7053d766c089b" target="_top" xlink:title=" ">
<polygon fill="none" stroke="black" points="669,-76.5 669,-95.5 768,-95.5 768,-76.5 669,-76.5"/>
<text text-anchor="middle" x="718.5" y="-83.5" font-family="Helvetica,sans-Serif" font-size="10.00">gsd_io_pread_retry</text>
</a>
</g>
</g>
<!-- Node10&#45;&gt;Node14 -->
<g id="edge19" class="edge">
<title>Node10&#45;&gt;Node14</title>
<path fill="none" stroke="midnightblue" d="M425.33,-152.39C432.16,-149.88 438.99,-146.78 445,-143 464.69,-130.6 460.01,-115.04 481,-105 536.85,-78.28 608.65,-76.38 658.41,-79.38"/>
<polygon fill="midnightblue" stroke="midnightblue" points="658.46,-82.89 668.68,-80.08 658.94,-75.9 658.46,-82.89"/>
</g>
<!-- Node17 -->
<g id="node17" class="node">
<title>Node17</title>
<g id="a_node17"><a xlink:href="gsd_8c.html#aebfeb70fcbc089409a7179af7d814554" target="_top" xlink:title=" ">
<polygon fill="none" stroke="black" points="481,-38.5 481,-57.5 618,-57.5 618,-38.5 481,-38.5"/>
<text text-anchor="middle" x="549.5" y="-45.5" font-family="Helvetica,sans-Serif" font-size="10.00">gsd_name_id_map_allocate</text>
</a>
</g>
</g>
<!-- Node10&#45;&gt;Node17 -->
<g id="edge21" class="edge">
<title>Node10&#45;&gt;Node17</title>
<path fill="none" stroke="midnightblue" d="M429.37,-152.49C435.01,-150.02 440.42,-146.91 445,-143 471.91,-120.03 454.44,-95.37 481,-72 485.72,-67.85 491.2,-64.4 496.97,-61.54"/>
<polygon fill="midnightblue" stroke="midnightblue" points="498.43,-64.72 506.19,-57.51 495.63,-58.31 498.43,-64.72"/>
</g>
<!-- Node18 -->
<g id="node18" class="node">
<title>Node18</title>
<g id="a_node18"><a xlink:href="gsd_8c.html#a6c8c2e5a49ac4eb01a95be2e0df06eb9" target="_top" xlink:title=" ">
<polygon fill="none" stroke="black" points="485.5,-0.5 485.5,-19.5 613.5,-19.5 613.5,-0.5 485.5,-0.5"/>
<text text-anchor="middle" x="549.5" y="-7.5" font-family="Helvetica,sans-Serif" font-size="10.00">gsd_name_id_map_insert</text>
</a>
</g>
</g>
<!-- Node10&#45;&gt;Node18 -->
<g id="edge22" class="edge">
<title>Node10&#45;&gt;Node18</title>
<path fill="none" stroke="midnightblue" d="M431.46,-152.45C436.46,-149.99 441.13,-146.89 445,-143 482.46,-105.32 442.84,-65.97 481,-29 482.63,-27.42 484.39,-25.96 486.24,-24.63"/>
<polygon fill="midnightblue" stroke="midnightblue" points="488.05,-27.62 494.87,-19.51 484.49,-21.6 488.05,-27.62"/>
</g>
<!-- Node13&#45;&gt;Node12 -->
<g id="edge15" class="edge">
<title>Node13&#45;&gt;Node12</title>
<path fill="none" stroke="midnightblue" d="M592.64,-133.59C614.88,-138.65 642.35,-144.9 665.86,-150.25"/>
<polygon fill="midnightblue" stroke="midnightblue" points="665.13,-153.67 675.66,-152.48 666.69,-146.85 665.13,-153.67"/>
</g>
<!-- Node13&#45;&gt;Node14 -->
<g id="edge16" class="edge">
<title>Node13&#45;&gt;Node14</title>
<path fill="none" stroke="midnightblue" d="M592.64,-114.41C614.88,-109.35 642.35,-103.1 665.86,-97.75"/>
<polygon fill="midnightblue" stroke="midnightblue" points="666.69,-101.15 675.66,-95.52 665.13,-94.33 666.69,-101.15"/>
</g>
<!-- Node15 -->
<g id="node15" class="node">
<title>Node15</title>
<g id="a_node15"><a xlink:href="gsd_8c.html#ab5d19295bedec41b7919caec2cb22759" target="_top" xlink:title=" ">
<polygon fill="none" stroke="black" points="669.5,-114.5 669.5,-133.5 767.5,-133.5 767.5,-114.5 669.5,-114.5"/>
<text text-anchor="middle" x="718.5" y="-121.5" font-family="Helvetica,sans-Serif" font-size="10.00">gsd_is_entry_valid</text>
</a>
</g>
</g>
<!-- Node13&#45;&gt;Node15 -->
<g id="edge17" class="edge">
<title>Node13&#45;&gt;Node15</title>
<path fill="none" stroke="midnightblue" d="M606.57,-124C623.44,-124 642,-124 659.02,-124"/>
<polygon fill="midnightblue" stroke="midnightblue" points="659.39,-127.5 669.39,-124 659.39,-120.5 659.39,-127.5"/>
</g>
<!-- Node16 -->
<g id="node16" class="node">
<title>Node16</title>
<g id="a_node16"><a xlink:href="gsd_8c.html#ab1d1a8a5f73b37df0c706f41df3bdd69" target="_top" xlink:title=" ">
<polygon fill="none" stroke="black" points="819,-114.5 819,-133.5 907,-133.5 907,-114.5 819,-114.5"/>
<text text-anchor="middle" x="863" y="-121.5" font-family="Helvetica,sans-Serif" font-size="10.00">gsd_sizeof_type</text>
</a>
</g>
</g>
<!-- Node15&#45;&gt;Node16 -->
<g id="edge18" class="edge">
<title>Node15&#45;&gt;Node16</title>
<path fill="none" stroke="midnightblue" d="M767.74,-124C780.87,-124 795.16,-124 808.56,-124"/>
<polygon fill="midnightblue" stroke="midnightblue" points="808.59,-127.5 818.59,-124 808.59,-120.5 808.59,-127.5"/>
</g>
<!-- Node19 -->
<g id="node19" class="node">
<title>Node19</title>
<g id="a_node19"><a xlink:href="gsd_8c.html#a6d8087323ec29c58d907b9462b4a31da" target="_top" xlink:title=" ">
<polygon fill="none" stroke="black" points="681,-0.5 681,-19.5 756,-19.5 756,-0.5 681,-0.5"/>
<text text-anchor="middle" x="718.5" y="-7.5" font-family="Helvetica,sans-Serif" font-size="10.00">gsd_hash_str</text>
</a>
</g>
</g>
<!-- Node18&#45;&gt;Node19 -->
<g id="edge23" class="edge">
<title>Node18&#45;&gt;Node19</title>
<path fill="none" stroke="midnightblue" d="M613.64,-10C632.63,-10 653.12,-10 670.84,-10"/>
<polygon fill="midnightblue" stroke="midnightblue" points="670.93,-13.5 680.93,-10 670.93,-6.5 670.93,-13.5"/>
</g>
</g>
</svg>
