<?xml version="1.0" encoding="UTF-8" standalone="no"?>
<!DOCTYPE svg PUBLIC "-//W3C//DTD SVG 1.1//EN"
 "http://www.w3.org/Graphics/SVG/1.1/DTD/svg11.dtd">
<!-- Generated by graphviz version 2.49.1 (20210923.0004)
 -->
<!-- Title: GSDUtil::writeFrame Pages: 1 -->
<svg width="1101pt" height="631pt"
 viewBox="0.00 0.00 1101.00 631.20" xmlns="http://www.w3.org/2000/svg" xmlns:xlink="http://www.w3.org/1999/xlink">
<g id="graph0" class="graph" transform="scale(1 1) rotate(0) translate(4 627.2)">
<title>GSDUtil::writeFrame</title>
<!-- Node1 -->
<g id="node1" class="node">
<title>Node1</title>
<g id="a_node1"><a xlink:title=" ">
<polygon fill="#bfbfbf" stroke="black" points="0,-465.5 0,-484.5 108,-484.5 108,-465.5 0,-465.5"/>
<text text-anchor="middle" x="54" y="-472.5" font-family="Helvetica,sans-Serif" font-size="10.00">GSDUtil::writeFrame</text>
</a>
</g>
</g>
<!-- Node2 -->
<g id="node2" class="node">
<title>Node2</title>
<g id="a_node2"><a xlink:href="classGSDUtil.html#a00a919382c11e9dd1fa7ae1a8788d4c0" target="_top" xlink:title=" ">
<polygon fill="none" stroke="black" points="311,-503.5 311,-522.5 447,-522.5 447,-503.5 311,-503.5"/>
<text text-anchor="middle" x="379" y="-510.5" font-family="Helvetica,sans-Serif" font-size="10.00">GSDUtil::checkGSDReturn</text>
</a>
</g>
</g>
<!-- Node1&#45;&gt;Node2 -->
<g id="edge1" class="edge">
<title>Node1&#45;&gt;Node2</title>
<path fill="none" stroke="midnightblue" d="M65.49,-484.63C81.18,-498.31 112.3,-522.72 144,-532 209.41,-551.15 289.22,-537.17 336.7,-525.18"/>
<polygon fill="midnightblue" stroke="midnightblue" points="337.82,-528.5 346.61,-522.58 336.05,-521.73 337.82,-528.5"/>
</g>
<!-- Node3 -->
<g id="node3" class="node">
<title>Node3</title>
<g id="a_node3"><a xlink:href="gsd_8c.html#aa03810337c5eebcbe716d8633eaefc5e" target="_top" xlink:title=" ">
<polygon fill="none" stroke="black" points="336,-294.5 336,-313.5 422,-313.5 422,-294.5 336,-294.5"/>
<text text-anchor="middle" x="379" y="-301.5" font-family="Helvetica,sans-Serif" font-size="10.00">gsd_end_frame</text>
</a>
</g>
</g>
<!-- Node1&#45;&gt;Node3 -->
<g id="edge2" class="edge">
<title>Node1&#45;&gt;Node3</title>
<path fill="none" stroke="midnightblue" d="M68.87,-465.4C86.12,-453.63 116.64,-433.36 144,-418 214.85,-378.23 301.61,-338.09 346.98,-317.72"/>
<polygon fill="midnightblue" stroke="midnightblue" points="348.58,-320.84 356.28,-313.56 345.72,-314.45 348.58,-320.84"/>
</g>
<!-- Node24 -->
<g id="node24" class="node">
<title>Node24</title>
<g id="a_node24"><a xlink:href="classGSDUtil.html#a77b5ebe2817ac868ad1b171f3d7b0cae" target="_top" xlink:title=" ">
<polygon fill="none" stroke="black" points="153.5,-465.5 153.5,-484.5 265.5,-484.5 265.5,-465.5 153.5,-465.5"/>
<text text-anchor="middle" x="209.5" y="-472.5" font-family="Helvetica,sans-Serif" font-size="10.00">GSDUtil::writeHeader</text>
</a>
</g>
</g>
<!-- Node1&#45;&gt;Node24 -->
<g id="edge33" class="edge">
<title>Node1&#45;&gt;Node24</title>
<path fill="none" stroke="midnightblue" d="M108.26,-475C119.51,-475 131.5,-475 143.14,-475"/>
<polygon fill="midnightblue" stroke="midnightblue" points="143.25,-478.5 153.25,-475 143.25,-471.5 143.25,-478.5"/>
</g>
<!-- Node32 -->
<g id="node32" class="node">
<title>Node32</title>
<g id="a_node32"><a xlink:href="classGSDUtil.html#aa0dc50cd5e5534260375ad4962511cf0" target="_top" xlink:title=" ">
<polygon fill="none" stroke="black" points="144,-503.5 144,-522.5 275,-522.5 275,-503.5 144,-503.5"/>
<text text-anchor="middle" x="209.5" y="-510.5" font-family="Helvetica,sans-Serif" font-size="10.00">GSDUtil::writeParameters</text>
</a>
</g>
</g>
<!-- Node1&#45;&gt;Node32 -->
<g id="edge50" class="edge">
<title>Node1&#45;&gt;Node32</title>
<path fill="none" stroke="midnightblue" d="M93.73,-484.59C113.9,-489.58 138.75,-495.73 160.16,-501.03"/>
<polygon fill="midnightblue" stroke="midnightblue" points="159.5,-504.47 170.04,-503.48 161.18,-497.68 159.5,-504.47"/>
</g>
<!-- Node33 -->
<g id="node33" class="node">
<title>Node33</title>
<g id="a_node33"><a xlink:href="classGSDUtil.html#a9464315a26a5d5e2c51bb2b4df5ee373" target="_top" xlink:title=" ">
<polygon fill="none" stroke="black" points="150.5,-427.5 150.5,-446.5 268.5,-446.5 268.5,-427.5 150.5,-427.5"/>
<text text-anchor="middle" x="209.5" y="-434.5" font-family="Helvetica,sans-Serif" font-size="10.00">GSDUtil::writeParticles</text>
</a>
</g>
</g>
<!-- Node1&#45;&gt;Node33 -->
<g id="edge53" class="edge">
<title>Node1&#45;&gt;Node33</title>
<path fill="none" stroke="midnightblue" d="M93.73,-465.41C113.9,-460.42 138.75,-454.27 160.16,-448.97"/>
<polygon fill="midnightblue" stroke="midnightblue" points="161.18,-452.32 170.04,-446.52 159.5,-445.53 161.18,-452.32"/>
</g>
<!-- Node4 -->
<g id="node4" class="node">
<title>Node4</title>
<g id="a_node4"><a xlink:href="gsd_8c.html#ae6dddb94661e99e54f6c01b1a443e27f" target="_top" xlink:title=" ">
<polygon fill="none" stroke="black" points="485,-237.5 485,-256.5 604,-256.5 604,-237.5 485,-237.5"/>
<text text-anchor="middle" x="544.5" y="-244.5" font-family="Helvetica,sans-Serif" font-size="10.00">gsd_expand_file_index</text>
</a>
</g>
</g>
<!-- Node3&#45;&gt;Node4 -->
<g id="edge3" class="edge">
<title>Node3&#45;&gt;Node4</title>
<path fill="none" stroke="midnightblue" d="M407.37,-294.46C434.48,-285.01 476.21,-270.46 506.32,-259.96"/>
<polygon fill="midnightblue" stroke="midnightblue" points="507.75,-263.17 516.04,-256.57 505.45,-256.56 507.75,-263.17"/>
</g>
<!-- Node12 -->
<g id="node12" class="node">
<title>Node12</title>
<g id="a_node12"><a xlink:href="gsd_8c.html#a3fb7746d93a1c856ca7ef64fa3548cbe" target="_top" xlink:title=" ">
<polygon fill="none" stroke="black" points="656,-313.5 656,-332.5 760,-332.5 760,-313.5 656,-313.5"/>
<text text-anchor="middle" x="708" y="-320.5" font-family="Helvetica,sans-Serif" font-size="10.00">gsd_io_pwrite_retry</text>
</a>
</g>
</g>
<!-- Node3&#45;&gt;Node12 -->
<g id="edge32" class="edge">
<title>Node3&#45;&gt;Node12</title>
<path fill="none" stroke="midnightblue" d="M422.18,-301.67C467.66,-299.7 542.13,-298.04 606,-304 622.32,-305.52 639.94,-308.4 655.82,-311.46"/>
<polygon fill="midnightblue" stroke="midnightblue" points="655.48,-314.96 665.97,-313.49 656.85,-308.1 655.48,-314.96"/>
</g>
<!-- Node13 -->
<g id="node13" class="node">
<title>Node13</title>
<g id="a_node13"><a xlink:href="gsd_8c.html#ab147cf4d77c10fd8085e5023e9afe55f" target="_top" xlink:title=" ">
<polygon fill="none" stroke="black" points="484,-389.5 484,-408.5 605,-408.5 605,-389.5 484,-389.5"/>
<text text-anchor="middle" x="544.5" y="-396.5" font-family="Helvetica,sans-Serif" font-size="10.00">gsd_flush_name_buffer</text>
</a>
</g>
</g>
<!-- Node3&#45;&gt;Node13 -->
<g id="edge14" class="edge">
<title>Node3&#45;&gt;Node13</title>
<path fill="none" stroke="midnightblue" d="M396.58,-313.63C425.22,-330.28 484.16,-364.52 518.03,-384.2"/>
<polygon fill="midnightblue" stroke="midnightblue" points="516.47,-387.34 526.88,-389.34 519.99,-381.29 516.47,-387.34"/>
</g>
<!-- Node15 -->
<g id="node15" class="node">
<title>Node15</title>
<g id="a_node15"><a xlink:href="gsd_8c.html#a61daeaa70162e9bac3d241832b460278" target="_top" xlink:title=" ">
<polygon fill="none" stroke="black" points="486,-313.5 486,-332.5 603,-332.5 603,-313.5 486,-313.5"/>
<text text-anchor="middle" x="544.5" y="-320.5" font-family="Helvetica,sans-Serif" font-size="10.00">gsd_flush_write_buffer</text>
</a>
</g>
</g>
<!-- Node3&#45;&gt;Node15 -->
<g id="edge19" class="edge">
<title>Node3&#45;&gt;Node15</title>
<path fill="none" stroke="midnightblue" d="M422.11,-308.89C438.47,-310.79 457.63,-313.02 475.84,-315.14"/>
<polygon fill="midnightblue" stroke="midnightblue" points="475.49,-318.62 485.83,-316.3 476.3,-311.67 475.49,-318.62"/>
</g>
<!-- Node17 -->
<g id="node17" class="node">
<title>Node17</title>
<g id="a_node17"><a xlink:href="gsd_8c.html#a6c20ccb47eed1a3ea9995a47a8eebdbd" target="_top" xlink:title=" ">
<polygon fill="none" stroke="black" points="487,-85.5 487,-104.5 602,-104.5 602,-85.5 487,-85.5"/>
<text text-anchor="middle" x="544.5" y="-92.5" font-family="Helvetica,sans-Serif" font-size="10.00">gsd_index_buffer_sort</text>
</a>
</g>
</g>
<!-- Node3&#45;&gt;Node17 -->
<g id="edge23" class="edge">
<title>Node3&#45;&gt;Node17</title>
<path fill="none" stroke="midnightblue" d="M387.45,-294.48C412.88,-261.97 496.51,-155.07 529.72,-112.61"/>
<polygon fill="midnightblue" stroke="midnightblue" points="532.6,-114.61 536.01,-104.58 527.09,-110.3 532.6,-114.61"/>
</g>
<!-- Node5 -->
<g id="node5" class="node">
<title>Node5</title>
<g id="a_node5"><a xlink:href="gsd_8c.html#a9e12a38df69cf73fa771b005748cb3e5" target="_top" xlink:title=" ">
<polygon fill="none" stroke="black" points="650,-237.5 650,-256.5 766,-256.5 766,-237.5 650,-237.5"/>
<text text-anchor="middle" x="708" y="-244.5" font-family="Helvetica,sans-Serif" font-size="10.00">gsd_index_buffer_free</text>
</a>
</g>
</g>
<!-- Node4&#45;&gt;Node5 -->
<g id="edge4" class="edge">
<title>Node4&#45;&gt;Node5</title>
<path fill="none" stroke="midnightblue" d="M604.26,-247C615.77,-247 627.93,-247 639.69,-247"/>
<polygon fill="midnightblue" stroke="midnightblue" points="639.9,-250.5 649.9,-247 639.9,-243.5 639.9,-250.5"/>
</g>
<!-- Node6 -->
<g id="node6" class="node">
<title>Node6</title>
<g id="a_node6"><a xlink:href="gsd_8c.html#a9b05d58560daee2512f03bedf7b2926d" target="_top" xlink:title=" ">
<polygon fill="none" stroke="black" points="817.5,-370.5 817.5,-389.5 935.5,-389.5 935.5,-370.5 817.5,-370.5"/>
<text text-anchor="middle" x="876.5" y="-377.5" font-family="Helvetica,sans-Serif" font-size="10.00">gsd_util_zero_memory</text>
</a>
</g>
</g>
<!-- Node4&#45;&gt;Node6 -->
<g id="edge13" class="edge">
<title>Node4&#45;&gt;Node6</title>
<path fill="none" stroke="midnightblue" d="M592.9,-256.51C650.01,-268.37 742.24,-288.91 774,-304 806.39,-319.39 838.66,-345.97 857.84,-363.26"/>
<polygon fill="midnightblue" stroke="midnightblue" points="855.73,-366.07 865.46,-370.26 860.46,-360.92 855.73,-366.07"/>
</g>
<!-- Node7 -->
<g id="node7" class="node">
<title>Node7</title>
<g id="a_node7"><a xlink:href="gsd_8c.html#a6fe75caf6c4df550af2455a0c40bfbdf" target="_top" xlink:title=" ">
<polygon fill="none" stroke="black" points="649,-161.5 649,-180.5 767,-180.5 767,-161.5 649,-161.5"/>
<text text-anchor="middle" x="708" y="-168.5" font-family="Helvetica,sans-Serif" font-size="10.00">gsd_index_buffer_map</text>
</a>
</g>
</g>
<!-- Node4&#45;&gt;Node7 -->
<g id="edge6" class="edge">
<title>Node4&#45;&gt;Node7</title>
<path fill="none" stroke="midnightblue" d="M561.54,-237.45C580.41,-226.44 612.86,-208.15 642,-195 650.62,-191.11 660.07,-187.35 669.03,-184"/>
<polygon fill="midnightblue" stroke="midnightblue" points="670.3,-187.26 678.5,-180.55 667.9,-180.69 670.3,-187.26"/>
</g>
<!-- Node9 -->
<g id="node9" class="node">
<title>Node9</title>
<g id="a_node9"><a xlink:href="gsd_8c.html#ac1f41abbefbfe35337e7053d766c089b" target="_top" xlink:title=" ">
<polygon fill="none" stroke="black" points="825,-218.5 825,-237.5 928,-237.5 928,-218.5 825,-218.5"/>
<text text-anchor="middle" x="876.5" y="-225.5" font-family="Helvetica,sans-Serif" font-size="10.00">gsd_io_pread_retry</text>
</a>
</g>
</g>
<!-- Node4&#45;&gt;Node9 -->
<g id="edge11" class="edge">
<title>Node4&#45;&gt;Node9</title>
<path fill="none" stroke="midnightblue" d="M584.68,-237.49C602.12,-233.72 622.97,-229.86 642,-228 700.45,-222.3 767.52,-223.05 814.74,-224.78"/>
<polygon fill="midnightblue" stroke="midnightblue" points="814.67,-228.28 824.8,-225.17 814.95,-221.28 814.67,-228.28"/>
</g>
<!-- Node4&#45;&gt;Node12 -->
<g id="edge12" class="edge">
<title>Node4&#45;&gt;Node12</title>
<path fill="none" stroke="midnightblue" d="M574.28,-256.51C584.59,-260.41 596.09,-265.34 606,-271 623.6,-281.06 624.28,-289.15 642,-299 649.33,-303.07 657.48,-306.71 665.46,-309.84"/>
<polygon fill="midnightblue" stroke="midnightblue" points="664.47,-313.2 675.06,-313.4 666.9,-306.64 664.47,-313.2"/>
</g>
<!-- Node5&#45;&gt;Node6 -->
<g id="edge5" class="edge">
<title>Node5&#45;&gt;Node6</title>
<path fill="none" stroke="midnightblue" d="M744.18,-256.62C754.28,-260.25 764.99,-265 774,-271 811.98,-296.29 845.83,-338.5 863.19,-362.29"/>
<polygon fill="midnightblue" stroke="midnightblue" points="860.35,-364.34 869.02,-370.44 866.05,-360.27 860.35,-364.34"/>
</g>
<!-- Node8 -->
<g id="node8" class="node">
<title>Node8</title>
<g id="a_node8"><a xlink:href="gsd_8c.html#ae1948c93f77d642c4e3797fe7e5f2095" target="_top" xlink:title=" ">
<polygon fill="none" stroke="black" points="810,-142.5 810,-161.5 943,-161.5 943,-142.5 810,-142.5"/>
<text text-anchor="middle" x="876.5" y="-149.5" font-family="Helvetica,sans-Serif" font-size="10.00">gsd_index_buffer_allocate</text>
</a>
</g>
</g>
<!-- Node7&#45;&gt;Node8 -->
<g id="edge7" class="edge">
<title>Node7&#45;&gt;Node8</title>
<path fill="none" stroke="midnightblue" d="M767.23,-164.35C777.79,-163.15 788.93,-161.88 799.9,-160.63"/>
<polygon fill="midnightblue" stroke="midnightblue" points="800.36,-164.1 809.9,-159.49 799.57,-157.14 800.36,-164.1"/>
</g>
<!-- Node7&#45;&gt;Node9 -->
<g id="edge8" class="edge">
<title>Node7&#45;&gt;Node9</title>
<path fill="none" stroke="midnightblue" d="M735.29,-180.59C747.14,-184.94 761.29,-190.18 774,-195 790.05,-201.08 793.74,-203.49 810,-209 816.56,-211.22 823.53,-213.42 830.4,-215.49"/>
<polygon fill="midnightblue" stroke="midnightblue" points="829.73,-218.94 840.31,-218.41 831.71,-212.22 829.73,-218.94"/>
</g>
<!-- Node10 -->
<g id="node10" class="node">
<title>Node10</title>
<g id="a_node10"><a xlink:href="gsd_8c.html#ab5d19295bedec41b7919caec2cb22759" target="_top" xlink:title=" ">
<polygon fill="none" stroke="black" points="827,-180.5 827,-199.5 926,-199.5 926,-180.5 827,-180.5"/>
<text text-anchor="middle" x="876.5" y="-187.5" font-family="Helvetica,sans-Serif" font-size="10.00">gsd_is_entry_valid</text>
</a>
</g>
</g>
<!-- Node7&#45;&gt;Node10 -->
<g id="edge9" class="edge">
<title>Node7&#45;&gt;Node10</title>
<path fill="none" stroke="midnightblue" d="M767.23,-177.65C783.23,-179.47 800.59,-181.45 816.63,-183.28"/>
<polygon fill="midnightblue" stroke="midnightblue" points="816.62,-186.8 826.95,-184.46 817.41,-179.85 816.62,-186.8"/>
</g>
<!-- Node11 -->
<g id="node11" class="node">
<title>Node11</title>
<g id="a_node11"><a xlink:href="gsd_8c.html#ab1d1a8a5f73b37df0c706f41df3bdd69" target="_top" xlink:title=" ">
<polygon fill="none" stroke="black" points="991.5,-398.5 991.5,-417.5 1080.5,-417.5 1080.5,-398.5 991.5,-398.5"/>
<text text-anchor="middle" x="1036" y="-405.5" font-family="Helvetica,sans-Serif" font-size="10.00">gsd_sizeof_type</text>
</a>
</g>
</g>
<!-- Node10&#45;&gt;Node11 -->
<g id="edge10" class="edge">
<title>Node10&#45;&gt;Node11</title>
<path fill="none" stroke="midnightblue" d="M926.1,-198.9C932.22,-201.46 938.06,-204.75 943,-209 999.6,-257.66 1023.47,-348.54 1031.54,-388.41"/>
<polygon fill="midnightblue" stroke="midnightblue" points="1028.14,-389.26 1033.45,-398.43 1035.02,-387.95 1028.14,-389.26"/>
</g>
<!-- Node13&#45;&gt;Node6 -->
<g id="edge18" class="edge">
<title>Node13&#45;&gt;Node6</title>
<path fill="none" stroke="midnightblue" d="M584.68,-389.49C602.12,-385.72 622.97,-381.86 642,-380 697.33,-374.61 760.38,-374.99 807.01,-376.51"/>
<polygon fill="midnightblue" stroke="midnightblue" points="807.18,-380.02 817.29,-376.87 807.42,-373.02 807.18,-380.02"/>
</g>
<!-- Node13&#45;&gt;Node12 -->
<g id="edge17" class="edge">
<title>Node13&#45;&gt;Node12</title>
<path fill="none" stroke="midnightblue" d="M574.28,-389.49C584.59,-385.59 596.09,-380.66 606,-375 623.6,-364.94 624.28,-356.85 642,-347 649.33,-342.93 657.48,-339.29 665.46,-336.16"/>
<polygon fill="midnightblue" stroke="midnightblue" points="666.9,-339.36 675.06,-332.6 664.47,-332.8 666.9,-339.36"/>
</g>
<!-- Node14 -->
<g id="node14" class="node">
<title>Node14</title>
<g id="a_node14"><a xlink:href="gsd_8c.html#a7a717f9dafe011e68434e181c76253af" target="_top" xlink:title=" ">
<polygon fill="none" stroke="black" points="644.5,-427.5 644.5,-446.5 771.5,-446.5 771.5,-427.5 644.5,-427.5"/>
<text text-anchor="middle" x="708" y="-434.5" font-family="Helvetica,sans-Serif" font-size="10.00">gsd_byte_buffer_append</text>
</a>
</g>
</g>
<!-- Node13&#45;&gt;Node14 -->
<g id="edge15" class="edge">
<title>Node13&#45;&gt;Node14</title>
<path fill="none" stroke="midnightblue" d="M586.25,-408.59C607.66,-413.63 634.09,-419.84 656.75,-425.18"/>
<polygon fill="midnightblue" stroke="midnightblue" points="656,-428.6 666.54,-427.48 657.61,-421.78 656,-428.6"/>
</g>
<!-- Node14&#45;&gt;Node6 -->
<g id="edge16" class="edge">
<title>Node14&#45;&gt;Node6</title>
<path fill="none" stroke="midnightblue" d="M743.56,-427.41C753.44,-424.53 764.18,-421.27 774,-418 796.91,-410.37 822.35,-400.85 842.04,-393.24"/>
<polygon fill="midnightblue" stroke="midnightblue" points="843.43,-396.45 851.48,-389.57 840.89,-389.93 843.43,-396.45"/>
</g>
<!-- Node15&#45;&gt;Node12 -->
<g id="edge22" class="edge">
<title>Node15&#45;&gt;Node12</title>
<path fill="none" stroke="midnightblue" d="M603.35,-323C617.19,-323 632,-323 645.98,-323"/>
<polygon fill="midnightblue" stroke="midnightblue" points="645.98,-326.5 655.98,-323 645.98,-319.5 645.98,-326.5"/>
</g>
<!-- Node16 -->
<g id="node16" class="node">
<title>Node16</title>
<g id="a_node16"><a xlink:href="gsd_8c.html#a258b64725f90f60d969752d65fba9850" target="_top" xlink:title=" ">
<polygon fill="none" stroke="black" points="650.5,-389.5 650.5,-408.5 765.5,-408.5 765.5,-389.5 650.5,-389.5"/>
<text text-anchor="middle" x="708" y="-396.5" font-family="Helvetica,sans-Serif" font-size="10.00">gsd_index_buffer_add</text>
</a>
</g>
</g>
<!-- Node15&#45;&gt;Node16 -->
<g id="edge20" class="edge">
<title>Node15&#45;&gt;Node16</title>
<path fill="none" stroke="midnightblue" d="M565.95,-332.63C594.11,-345.87 644.98,-369.81 677.32,-385.03"/>
<polygon fill="midnightblue" stroke="midnightblue" points="676.17,-388.36 686.71,-389.45 679.15,-382.03 676.17,-388.36"/>
</g>
<!-- Node16&#45;&gt;Node6 -->
<g id="edge21" class="edge">
<title>Node16&#45;&gt;Node6</title>
<path fill="none" stroke="midnightblue" d="M765.83,-392.51C779.05,-391.01 793.25,-389.39 806.91,-387.83"/>
<polygon fill="midnightblue" stroke="midnightblue" points="807.68,-391.26 817.22,-386.65 806.89,-384.31 807.68,-391.26"/>
</g>
<!-- Node18 -->
<g id="node18" class="node">
<title>Node18</title>
<g id="a_node18"><a xlink:href="gsd_8c.html#accc971ec12e75a165ffef6e1ee854681" target="_top" xlink:title=" ">
<polygon fill="none" stroke="black" points="819.5,-28.5 819.5,-47.5 933.5,-47.5 933.5,-28.5 819.5,-28.5"/>
<text text-anchor="middle" x="876.5" y="-35.5" font-family="Helvetica,sans-Serif" font-size="10.00">gsd_heap_shift_down</text>
</a>
</g>
</g>
<!-- Node17&#45;&gt;Node18 -->
<g id="edge24" class="edge">
<title>Node17&#45;&gt;Node18</title>
<path fill="none" stroke="midnightblue" d="M564.91,-85.39C584.02,-76.4 614.29,-63.43 642,-57 697.36,-44.14 761.86,-39.66 809.03,-38.24"/>
<polygon fill="midnightblue" stroke="midnightblue" points="809.21,-41.74 819.12,-37.98 809.03,-34.74 809.21,-41.74"/>
</g>
<!-- Node21 -->
<g id="node21" class="node">
<title>Node21</title>
<g id="a_node21"><a xlink:href="gsd_8c.html#a987a1d460f7ca33476fc57bcc1ff8439" target="_top" xlink:title=" ">
<polygon fill="none" stroke="black" points="991.5,-95.5 991.5,-114.5 1080.5,-114.5 1080.5,-95.5 991.5,-95.5"/>
<text text-anchor="middle" x="1036" y="-102.5" font-family="Helvetica,sans-Serif" font-size="10.00">gsd_heap_swap</text>
</a>
</g>
</g>
<!-- Node17&#45;&gt;Node21 -->
<g id="edge28" class="edge">
<title>Node17&#45;&gt;Node21</title>
<path fill="none" stroke="midnightblue" d="M602.13,-96.16C697.34,-98.1 888.18,-102 981.35,-103.9"/>
<polygon fill="midnightblue" stroke="midnightblue" points="981.34,-107.4 991.41,-104.11 981.48,-100.41 981.34,-107.4"/>
</g>
<!-- Node22 -->
<g id="node22" class="node">
<title>Node22</title>
<g id="a_node22"><a xlink:href="gsd_8c.html#a0de3f89cdd57571b57401c91feef2f66" target="_top" xlink:title=" ">
<polygon fill="none" stroke="black" points="673,-66.5 673,-85.5 743,-85.5 743,-66.5 673,-66.5"/>
<text text-anchor="middle" x="708" y="-73.5" font-family="Helvetica,sans-Serif" font-size="10.00">gsd_heapify</text>
</a>
</g>
</g>
<!-- Node17&#45;&gt;Node22 -->
<g id="edge29" class="edge">
<title>Node17&#45;&gt;Node22</title>
<path fill="none" stroke="midnightblue" d="M602.44,-88.3C622.21,-85.98 644.07,-83.4 662.67,-81.22"/>
<polygon fill="midnightblue" stroke="midnightblue" points="663.11,-84.69 672.63,-80.04 662.29,-77.74 663.11,-84.69"/>
</g>
<!-- Node19 -->
<g id="node19" class="node">
<title>Node19</title>
<g id="a_node19"><a xlink:href="gsd_8c.html#a3ffe758eed9a5bae487f514a0a45e97d" target="_top" xlink:title=" ">
<polygon fill="none" stroke="black" points="979,-38.5 979,-57.5 1093,-57.5 1093,-38.5 979,-38.5"/>
<text text-anchor="middle" x="1036" y="-45.5" font-family="Helvetica,sans-Serif" font-size="10.00">gsd_cmp_index_entry</text>
</a>
</g>
</g>
<!-- Node18&#45;&gt;Node19 -->
<g id="edge25" class="edge">
<title>Node18&#45;&gt;Node19</title>
<path fill="none" stroke="midnightblue" d="M933.92,-41.58C945.25,-42.3 957.25,-43.06 968.88,-43.8"/>
<polygon fill="midnightblue" stroke="midnightblue" points="968.78,-47.3 978.98,-44.44 969.22,-40.32 968.78,-47.3"/>
</g>
<!-- Node20 -->
<g id="node20" class="node">
<title>Node20</title>
<g id="a_node20"><a xlink:href="gsd_8c.html#aaec0ae1e441692725a568aee8c8ef627" target="_top" xlink:title=" ">
<polygon fill="none" stroke="black" points="983.5,-0.5 983.5,-19.5 1088.5,-19.5 1088.5,-0.5 983.5,-0.5"/>
<text text-anchor="middle" x="1036" y="-7.5" font-family="Helvetica,sans-Serif" font-size="10.00">gsd_heap_left_child</text>
</a>
</g>
</g>
<!-- Node18&#45;&gt;Node20 -->
<g id="edge26" class="edge">
<title>Node18&#45;&gt;Node20</title>
<path fill="none" stroke="midnightblue" d="M931.26,-28.44C944.82,-26.03 959.47,-23.43 973.38,-20.96"/>
<polygon fill="midnightblue" stroke="midnightblue" points="974.11,-24.38 983.34,-19.18 972.88,-17.49 974.11,-24.38"/>
</g>
<!-- Node18&#45;&gt;Node21 -->
<g id="edge27" class="edge">
<title>Node18&#45;&gt;Node21</title>
<path fill="none" stroke="midnightblue" d="M915.34,-47.59C924.52,-50.29 934.21,-53.47 943,-57 966.49,-66.43 991.91,-79.97 1010.07,-90.26"/>
<polygon fill="midnightblue" stroke="midnightblue" points="1008.43,-93.36 1018.85,-95.31 1011.92,-87.29 1008.43,-93.36"/>
</g>
<!-- Node22&#45;&gt;Node18 -->
<g id="edge31" class="edge">
<title>Node22&#45;&gt;Node18</title>
<path fill="none" stroke="midnightblue" d="M743.1,-68.22C766.38,-62.9 797.66,-55.77 823.96,-49.76"/>
<polygon fill="midnightblue" stroke="midnightblue" points="824.81,-53.16 833.78,-47.52 823.25,-46.34 824.81,-53.16"/>
</g>
<!-- Node23 -->
<g id="node23" class="node">
<title>Node23</title>
<g id="a_node23"><a xlink:href="gsd_8c.html#ab7b8e133941184a32c2d90414dfba6a5" target="_top" xlink:title=" ">
<polygon fill="none" stroke="black" points="829.5,-66.5 829.5,-85.5 923.5,-85.5 923.5,-66.5 829.5,-66.5"/>
<text text-anchor="middle" x="876.5" y="-73.5" font-family="Helvetica,sans-Serif" font-size="10.00">gsd_heap_parent</text>
</a>
</g>
</g>
<!-- Node22&#45;&gt;Node23 -->
<g id="edge30" class="edge">
<title>Node22&#45;&gt;Node23</title>
<path fill="none" stroke="midnightblue" d="M743.1,-76C765,-76 793.99,-76 819.25,-76"/>
<polygon fill="midnightblue" stroke="midnightblue" points="819.45,-79.5 829.45,-76 819.45,-72.5 819.45,-79.5"/>
</g>
<!-- Node24&#45;&gt;Node2 -->
<g id="edge34" class="edge">
<title>Node24&#45;&gt;Node2</title>
<path fill="none" stroke="midnightblue" d="M252.77,-484.59C275.07,-489.65 302.62,-495.9 326.2,-501.25"/>
<polygon fill="midnightblue" stroke="midnightblue" points="325.51,-504.68 336.04,-503.48 327.06,-497.85 325.51,-504.68"/>
</g>
<!-- Node25 -->
<g id="node25" class="node">
<title>Node25</title>
<g id="a_node25"><a xlink:href="gsd_8c.html#a7479046d4d6e15c33cb24034ddd87562" target="_top" xlink:title=" ">
<polygon fill="none" stroke="black" points="332,-427.5 332,-446.5 426,-446.5 426,-427.5 332,-427.5"/>
<text text-anchor="middle" x="379" y="-434.5" font-family="Helvetica,sans-Serif" font-size="10.00">gsd_get_nframes</text>
</a>
</g>
</g>
<!-- Node24&#45;&gt;Node25 -->
<g id="edge35" class="edge">
<title>Node24&#45;&gt;Node25</title>
<path fill="none" stroke="midnightblue" d="M252.77,-465.41C275.07,-460.35 302.62,-454.1 326.2,-448.75"/>
<polygon fill="midnightblue" stroke="midnightblue" points="327.06,-452.15 336.04,-446.52 325.51,-445.32 327.06,-452.15"/>
</g>
<!-- Node26 -->
<g id="node26" class="node">
<title>Node26</title>
<g id="a_node26"><a xlink:href="gsd_8c.html#ae22447904b925f284bf987fae448488a" target="_top" xlink:title=" ">
<polygon fill="none" stroke="black" points="333,-465.5 333,-484.5 425,-484.5 425,-465.5 333,-465.5"/>
<text text-anchor="middle" x="379" y="-472.5" font-family="Helvetica,sans-Serif" font-size="10.00">gsd_write_chunk</text>
</a>
</g>
</g>
<!-- Node24&#45;&gt;Node26 -->
<g id="edge36" class="edge">
<title>Node24&#45;&gt;Node26</title>
<path fill="none" stroke="midnightblue" d="M265.81,-475C284.06,-475 304.35,-475 322.6,-475"/>
<polygon fill="midnightblue" stroke="midnightblue" points="322.79,-478.5 332.79,-475 322.79,-471.5 322.79,-478.5"/>
</g>
<!-- Node26&#45;&gt;Node6 -->
<g id="edge49" class="edge">
<title>Node26&#45;&gt;Node6</title>
<path fill="none" stroke="midnightblue" d="M425.01,-484.15C432.65,-486.7 440.28,-489.93 447,-494 466.9,-506.05 461.63,-522.81 483,-532 542.4,-557.55 716.97,-562.49 774,-532 827.28,-503.51 857.45,-433.32 869.42,-399.22"/>
<polygon fill="midnightblue" stroke="midnightblue" points="872.81,-400.11 872.67,-389.51 866.17,-397.88 872.81,-400.11"/>
</g>
<!-- Node26&#45;&gt;Node11 -->
<g id="edge48" class="edge">
<title>Node26&#45;&gt;Node11</title>
<path fill="none" stroke="midnightblue" d="M425.09,-481.18C433.17,-484.01 440.93,-488.1 447,-494 485.12,-531.01 440.14,-576.59 483,-608 527.09,-640.32 551.42,-611.07 606,-608 756.49,-599.54 817.2,-653.02 943,-570 994.4,-536.08 1020.23,-463.01 1030.1,-427.78"/>
<polygon fill="midnightblue" stroke="midnightblue" points="1033.57,-428.34 1032.75,-417.77 1026.81,-426.54 1033.57,-428.34"/>
</g>
<!-- Node26&#45;&gt;Node12 -->
<g id="edge45" class="edge">
<title>Node26&#45;&gt;Node12</title>
<path fill="none" stroke="midnightblue" d="M425.18,-467.9C433.06,-465.14 440.72,-461.31 447,-456 475.53,-431.85 454.15,-403.76 483,-380 496.04,-369.26 588.83,-347.99 650.82,-334.69"/>
<polygon fill="midnightblue" stroke="midnightblue" points="651.82,-338.05 660.87,-332.54 650.36,-331.21 651.82,-338.05"/>
</g>
<!-- Node26&#45;&gt;Node14 -->
<g id="edge42" class="edge">
<title>Node26&#45;&gt;Node14</title>
<path fill="none" stroke="midnightblue" d="M425.07,-470.64C470.72,-466.13 543.34,-458.67 606,-451 615.1,-449.89 624.65,-448.65 634.09,-447.39"/>
<polygon fill="midnightblue" stroke="midnightblue" points="634.83,-450.82 644.27,-446.01 633.89,-443.88 634.83,-450.82"/>
</g>
<!-- Node26&#45;&gt;Node15 -->
<g id="edge43" class="edge">
<title>Node26&#45;&gt;Node15</title>
<path fill="none" stroke="midnightblue" d="M425.03,-468.76C433.11,-465.93 440.89,-461.86 447,-456 483.84,-420.7 448,-384.12 483,-347 486.64,-343.14 490.97,-339.89 495.63,-337.16"/>
<polygon fill="midnightblue" stroke="midnightblue" points="497.52,-340.13 504.88,-332.51 494.38,-333.87 497.52,-340.13"/>
</g>
<!-- Node26&#45;&gt;Node16 -->
<g id="edge44" class="edge">
<title>Node26&#45;&gt;Node16</title>
<path fill="none" stroke="midnightblue" d="M421.1,-465.42C439.96,-461.02 462.61,-455.74 483,-451 542.29,-437.21 610.41,-421.4 655.81,-410.87"/>
<polygon fill="midnightblue" stroke="midnightblue" points="656.76,-414.24 665.71,-408.57 655.18,-407.42 656.76,-414.24"/>
</g>
<!-- Node27 -->
<g id="node27" class="node">
<title>Node27</title>
<g id="a_node27"><a xlink:href="gsd_8c.html#aa1a0a7dcf4015edcadbb47a6451b4a4b" target="_top" xlink:title=" ">
<polygon fill="none" stroke="black" points="493.5,-503.5 493.5,-522.5 595.5,-522.5 595.5,-503.5 493.5,-503.5"/>
<text text-anchor="middle" x="544.5" y="-510.5" font-family="Helvetica,sans-Serif" font-size="10.00">gsd_append_name</text>
</a>
</g>
</g>
<!-- Node26&#45;&gt;Node27 -->
<g id="edge37" class="edge">
<title>Node26&#45;&gt;Node27</title>
<path fill="none" stroke="midnightblue" d="M421.26,-484.59C442.93,-489.63 469.68,-495.84 492.63,-501.18"/>
<polygon fill="midnightblue" stroke="midnightblue" points="492.01,-504.63 502.54,-503.48 493.59,-497.81 492.01,-504.63"/>
</g>
<!-- Node31 -->
<g id="node31" class="node">
<title>Node31</title>
<g id="a_node31"><a xlink:href="gsd_8c.html#a31b9400272036b121040e9fc0a9e626b" target="_top" xlink:title=" ">
<polygon fill="none" stroke="black" points="483,-579.5 483,-598.5 606,-598.5 606,-579.5 483,-579.5"/>
<text text-anchor="middle" x="544.5" y="-586.5" font-family="Helvetica,sans-Serif" font-size="10.00">gsd_name_id_map_find</text>
</a>
</g>
</g>
<!-- Node26&#45;&gt;Node31 -->
<g id="edge46" class="edge">
<title>Node26&#45;&gt;Node31</title>
<path fill="none" stroke="midnightblue" d="M425.06,-482.23C432.95,-484.98 440.65,-488.77 447,-494 474.31,-516.49 456.86,-541.15 483,-565 487.39,-569 492.52,-572.37 497.91,-575.2"/>
<polygon fill="midnightblue" stroke="midnightblue" points="496.59,-578.44 507.13,-579.46 499.52,-572.09 496.59,-578.44"/>
</g>
<!-- Node27&#45;&gt;Node14 -->
<g id="edge38" class="edge">
<title>Node27&#45;&gt;Node14</title>
<path fill="none" stroke="midnightblue" d="M575.78,-503.46C585.78,-499.68 596.71,-494.82 606,-489 624.39,-477.47 623.09,-466.66 642,-456 645.91,-453.8 650.1,-451.83 654.39,-450.08"/>
<polygon fill="midnightblue" stroke="midnightblue" points="655.73,-453.31 663.9,-446.57 653.31,-446.74 655.73,-453.31"/>
</g>
<!-- Node28 -->
<g id="node28" class="node">
<title>Node28</title>
<g id="a_node28"><a xlink:href="gsd_8c.html#a493ef951956c9f98adff89a80ddb3fa6" target="_top" xlink:title=" ">
<polygon fill="none" stroke="black" points="658,-465.5 658,-484.5 758,-484.5 758,-465.5 658,-465.5"/>
<text text-anchor="middle" x="708" y="-472.5" font-family="Helvetica,sans-Serif" font-size="10.00">gsd_make_version</text>
</a>
</g>
</g>
<!-- Node27&#45;&gt;Node28 -->
<g id="edge39" class="edge">
<title>Node27&#45;&gt;Node28</title>
<path fill="none" stroke="midnightblue" d="M586.25,-503.41C607.66,-498.37 634.09,-492.16 656.75,-486.82"/>
<polygon fill="midnightblue" stroke="midnightblue" points="657.61,-490.22 666.54,-484.52 656,-483.4 657.61,-490.22"/>
</g>
<!-- Node29 -->
<g id="node29" class="node">
<title>Node29</title>
<g id="a_node29"><a xlink:href="gsd_8c.html#a6c8c2e5a49ac4eb01a95be2e0df06eb9" target="_top" xlink:title=" ">
<polygon fill="none" stroke="black" points="642,-503.5 642,-522.5 774,-522.5 774,-503.5 642,-503.5"/>
<text text-anchor="middle" x="708" y="-510.5" font-family="Helvetica,sans-Serif" font-size="10.00">gsd_name_id_map_insert</text>
</a>
</g>
</g>
<!-- Node27&#45;&gt;Node29 -->
<g id="edge40" class="edge">
<title>Node27&#45;&gt;Node29</title>
<path fill="none" stroke="midnightblue" d="M595.71,-513C607.14,-513 619.53,-513 631.75,-513"/>
<polygon fill="midnightblue" stroke="midnightblue" points="631.95,-516.5 641.95,-513 631.95,-509.5 631.95,-516.5"/>
</g>
<!-- Node30 -->
<g id="node30" class="node">
<title>Node30</title>
<g id="a_node30"><a xlink:href="gsd_8c.html#a6d8087323ec29c58d907b9462b4a31da" target="_top" xlink:title=" ">
<polygon fill="none" stroke="black" points="838,-541.5 838,-560.5 915,-560.5 915,-541.5 838,-541.5"/>
<text text-anchor="middle" x="876.5" y="-548.5" font-family="Helvetica,sans-Serif" font-size="10.00">gsd_hash_str</text>
</a>
</g>
</g>
<!-- Node29&#45;&gt;Node30 -->
<g id="edge41" class="edge">
<title>Node29&#45;&gt;Node30</title>
<path fill="none" stroke="midnightblue" d="M751.01,-522.59C774.36,-527.92 803.5,-534.57 827.72,-540.1"/>
<polygon fill="midnightblue" stroke="midnightblue" points="827.24,-543.57 837.76,-542.39 828.79,-536.75 827.24,-543.57"/>
</g>
<!-- Node31&#45;&gt;Node30 -->
<g id="edge47" class="edge">
<title>Node31&#45;&gt;Node30</title>
<path fill="none" stroke="midnightblue" d="M606.18,-583.17C652.26,-578.61 717.18,-571.9 774,-565 791.55,-562.87 810.77,-560.28 827.72,-557.92"/>
<polygon fill="midnightblue" stroke="midnightblue" points="828.53,-561.34 837.94,-556.48 827.55,-554.4 828.53,-561.34"/>
</g>
<!-- Node32&#45;&gt;Node2 -->
<g id="edge51" class="edge">
<title>Node32&#45;&gt;Node2</title>
<path fill="none" stroke="midnightblue" d="M275.26,-513C283.66,-513 292.34,-513 300.91,-513"/>
<polygon fill="midnightblue" stroke="midnightblue" points="300.92,-516.5 310.92,-513 300.92,-509.5 300.92,-516.5"/>
</g>
<!-- Node32&#45;&gt;Node26 -->
<g id="edge52" class="edge">
<title>Node32&#45;&gt;Node26</title>
<path fill="none" stroke="midnightblue" d="M252.77,-503.41C275.07,-498.35 302.62,-492.1 326.2,-486.75"/>
<polygon fill="midnightblue" stroke="midnightblue" points="327.06,-490.15 336.04,-484.52 325.51,-483.32 327.06,-490.15"/>
</g>
<!-- Node33&#45;&gt;Node2 -->
<g id="edge54" class="edge">
<title>Node33&#45;&gt;Node2</title>
<path fill="none" stroke="midnightblue" d="M254.51,-446.57C261.64,-449.06 268.73,-452.16 275,-456 294.84,-468.15 291.1,-481.95 311,-494 314.61,-496.18 318.47,-498.13 322.47,-499.85"/>
<polygon fill="midnightblue" stroke="midnightblue" points="321.34,-503.17 331.93,-503.49 323.86,-496.63 321.34,-503.17"/>
</g>
<!-- Node33&#45;&gt;Node25 -->
<g id="edge55" class="edge">
<title>Node33&#45;&gt;Node25</title>
<path fill="none" stroke="midnightblue" d="M268.61,-437C285.75,-437 304.47,-437 321.5,-437"/>
<polygon fill="midnightblue" stroke="midnightblue" points="321.86,-440.5 331.86,-437 321.86,-433.5 321.86,-440.5"/>
</g>
<!-- Node33&#45;&gt;Node26 -->
<g id="edge56" class="edge">
<title>Node33&#45;&gt;Node26</title>
<path fill="none" stroke="midnightblue" d="M252.77,-446.59C275.07,-451.65 302.62,-457.9 326.2,-463.25"/>
<polygon fill="midnightblue" stroke="midnightblue" points="325.51,-466.68 336.04,-465.48 327.06,-459.85 325.51,-466.68"/>
</g>
</g>
</svg>
