<?xml version="1.0" encoding="UTF-8" standalone="no"?>
<!DOCTYPE svg PUBLIC "-//W3C//DTD SVG 1.1//EN"
 "http://www.w3.org/Graphics/SVG/1.1/DTD/svg11.dtd">
<!-- Generated by graphviz version 2.43.0 (0)
 -->
<!-- Title: SystemData::update Pages: 1 -->
<svg width="590pt" height="411pt"
 viewBox="0.00 0.00 590.00 410.50" xmlns="http://www.w3.org/2000/svg" xmlns:xlink="http://www.w3.org/1999/xlink">
<g id="graph0" class="graph" transform="scale(1 1) rotate(0) translate(4 406.5)">
<title>SystemData::update</title>
<!-- Node1 -->
<g id="node1" class="node">
<title>Node1</title>
<g id="a_node1"><a xlink:title="Updates all relevant rigid body motion tensors, respective gradients, and kinematic/Udwadia constrain...">
<polygon fill="#bfbfbf" stroke="black" points="0,-181.5 0,-200.5 107,-200.5 107,-181.5 0,-181.5"/>
<text text-anchor="middle" x="53.5" y="-188.5" font-family="Helvetica,sans-Serif" font-size="10.00">SystemData::update</text>
</a>
</g>
</g>
<!-- Node2 -->
<g id="node2" class="node">
<title>Node2</title>
<g id="a_node2"><a xlink:href="classSystemData.html#a188c38c8448ed32d3cf697b6f07b9d6a" target="_top" xlink:title="Computes the articulation (linear) accelerations of the particles relative to their respective locate...">
<polygon fill="none" stroke="black" points="159,-372 159,-402 294,-402 294,-372 159,-372"/>
<text text-anchor="start" x="167" y="-390" font-family="Helvetica,sans-Serif" font-size="10.00">SystemData::accelerations</text>
<text text-anchor="middle" x="226.5" y="-379" font-family="Helvetica,sans-Serif" font-size="10.00">Articulation</text>
</a>
</g>
</g>
<!-- Node1&#45;&gt;Node2 -->
<g id="edge1" class="edge">
<title>Node1&#45;&gt;Node2</title>
<path fill="none" stroke="midnightblue" d="M56.67,-200.9C63.66,-230.31 88.32,-317.93 143,-363 145.06,-364.7 147.25,-366.28 149.51,-367.75"/>
<polygon fill="midnightblue" stroke="midnightblue" points="148.22,-371.04 158.66,-372.88 151.65,-364.94 148.22,-371.04"/>
</g>
<!-- Node3 -->
<g id="node3" class="node">
<title>Node3</title>
<g id="a_node3"><a xlink:href="classSystemData.html#a000a3e77f12b4c1bc9678e9ede202f83" target="_top" xlink:title="Computes the orientation (unit vector) of a particle with respect to its locater point.">
<polygon fill="none" stroke="black" points="158,-323 158,-353 295,-353 295,-323 158,-323"/>
<text text-anchor="start" x="166" y="-341" font-family="Helvetica,sans-Serif" font-size="10.00">SystemData::convertBody2</text>
<text text-anchor="middle" x="226.5" y="-330" font-family="Helvetica,sans-Serif" font-size="10.00">ParticleOrient</text>
</a>
</g>
</g>
<!-- Node1&#45;&gt;Node3 -->
<g id="edge2" class="edge">
<title>Node1&#45;&gt;Node3</title>
<path fill="none" stroke="midnightblue" d="M58.7,-200.67C69.29,-223.9 99.38,-283.18 143,-314 145.13,-315.51 147.36,-316.92 149.66,-318.24"/>
<polygon fill="midnightblue" stroke="midnightblue" points="148.32,-321.49 158.82,-322.93 151.51,-315.26 148.32,-321.49"/>
</g>
<!-- Node6 -->
<g id="node6" class="node">
<title>Node6</title>
<g id="a_node6"><a xlink:href="classSystemData.html#a3edab27c866d9031739a8bd3b09bac42" target="_top" xlink:title="Computes the positions of all particles from given locater positions and body orientations.">
<polygon fill="none" stroke="black" points="158,-274 158,-304 295,-304 295,-274 158,-274"/>
<text text-anchor="start" x="166" y="-292" font-family="Helvetica,sans-Serif" font-size="10.00">SystemData::convertBody2</text>
<text text-anchor="middle" x="226.5" y="-281" font-family="Helvetica,sans-Serif" font-size="10.00">ParticlePos</text>
</a>
</g>
</g>
<!-- Node1&#45;&gt;Node6 -->
<g id="edge5" class="edge">
<title>Node1&#45;&gt;Node6</title>
<path fill="none" stroke="midnightblue" d="M63.36,-200.64C78.3,-216.35 110.13,-247.48 143,-265 146.46,-266.84 150.07,-268.56 153.77,-270.16"/>
<polygon fill="midnightblue" stroke="midnightblue" points="152.54,-273.43 163.13,-273.89 155.13,-266.93 152.54,-273.43"/>
</g>
<!-- Node7 -->
<g id="node7" class="node">
<title>Node7</title>
<g id="a_node7"><a xlink:href="classSystemData.html#a7da2011ba5d866e5338b14e8b04ace70" target="_top" xlink:title="Computes the particle D.o.F. from the body D.o.F.">
<polygon fill="none" stroke="black" points="158,-225 158,-255 295,-255 295,-225 158,-225"/>
<text text-anchor="start" x="166" y="-243" font-family="Helvetica,sans-Serif" font-size="10.00">SystemData::convertBody2</text>
<text text-anchor="middle" x="226.5" y="-232" font-family="Helvetica,sans-Serif" font-size="10.00">ParticleVelAcc</text>
</a>
</g>
</g>
<!-- Node1&#45;&gt;Node7 -->
<g id="edge6" class="edge">
<title>Node1&#45;&gt;Node7</title>
<path fill="none" stroke="midnightblue" d="M87.88,-200.56C109.34,-206.71 137.88,-214.89 163.41,-222.21"/>
<polygon fill="midnightblue" stroke="midnightblue" points="162.45,-225.57 173.02,-224.96 164.38,-218.84 162.45,-225.57"/>
</g>
<!-- Node11 -->
<g id="node11" class="node">
<title>Node11</title>
<g id="a_node11"><a xlink:href="classSystemData.html#a301fa1815b3b68cffc789f1824e29f5e" target="_top" xlink:title="Computes the gradients rigid body motion connectivity tensors and tensors associated with change of v...">
<polygon fill="none" stroke="black" points="153.5,-176 153.5,-206 299.5,-206 299.5,-176 153.5,-176"/>
<text text-anchor="start" x="161.5" y="-194" font-family="Helvetica,sans-Serif" font-size="10.00">SystemData::gradientChange</text>
<text text-anchor="middle" x="226.5" y="-183" font-family="Helvetica,sans-Serif" font-size="10.00">OfVariableTensors</text>
</a>
</g>
</g>
<!-- Node1&#45;&gt;Node11 -->
<g id="edge10" class="edge">
<title>Node1&#45;&gt;Node11</title>
<path fill="none" stroke="midnightblue" d="M107.2,-191C118.62,-191 130.97,-191 143.22,-191"/>
<polygon fill="midnightblue" stroke="midnightblue" points="143.48,-194.5 153.48,-191 143.48,-187.5 143.48,-194.5"/>
</g>
<!-- Node13 -->
<g id="node13" class="node">
<title>Node13</title>
<g id="a_node13"><a xlink:href="classSystemData.html#a30df4f73d78f6886da32559eda83595d" target="_top" xlink:title="Computes the articulation (linear) positions of the particles relative to their respective locater po...">
<polygon fill="none" stroke="black" points="144,-88.5 144,-107.5 309,-107.5 309,-88.5 144,-88.5"/>
<text text-anchor="middle" x="226.5" y="-95.5" font-family="Helvetica,sans-Serif" font-size="10.00">SystemData::positionsArticulation</text>
</a>
</g>
</g>
<!-- Node1&#45;&gt;Node13 -->
<g id="edge13" class="edge">
<title>Node1&#45;&gt;Node13</title>
<path fill="none" stroke="midnightblue" d="M63.01,-181.4C77.7,-165.47 109.46,-133.67 143,-117 147.85,-114.59 153.02,-112.48 158.31,-110.63"/>
<polygon fill="midnightblue" stroke="midnightblue" points="159.45,-113.94 167.92,-107.58 157.33,-107.27 159.45,-113.94"/>
</g>
<!-- Node14 -->
<g id="node14" class="node">
<title>Node14</title>
<g id="a_node14"><a xlink:href="classSystemData.html#ae08b2263f2981e57d0f12ba7881a083b" target="_top" xlink:title="Computes the rigid body motion connectivity tensors.">
<polygon fill="none" stroke="black" points="153,-127 153,-157 300,-157 300,-127 153,-127"/>
<text text-anchor="start" x="161" y="-145" font-family="Helvetica,sans-Serif" font-size="10.00">SystemData::rigidBodyMotion</text>
<text text-anchor="middle" x="226.5" y="-134" font-family="Helvetica,sans-Serif" font-size="10.00">Tensors</text>
</a>
</g>
</g>
<!-- Node1&#45;&gt;Node14 -->
<g id="edge14" class="edge">
<title>Node1&#45;&gt;Node14</title>
<path fill="none" stroke="midnightblue" d="M87.88,-181.44C109.34,-175.29 137.88,-167.11 163.41,-159.79"/>
<polygon fill="midnightblue" stroke="midnightblue" points="164.38,-163.16 173.02,-157.04 162.45,-156.43 164.38,-163.16"/>
</g>
<!-- Node16 -->
<g id="node16" class="node">
<title>Node16</title>
<g id="a_node16"><a xlink:href="classSystemData.html#ad1a6489951a00124901c1947381a9be8" target="_top" xlink:title="Computes the Udwadia constraint matrix and vector to uphold the quaternion unitary norm for each body...">
<polygon fill="none" stroke="black" points="156.5,-39 156.5,-69 296.5,-69 296.5,-39 156.5,-39"/>
<text text-anchor="start" x="164.5" y="-57" font-family="Helvetica,sans-Serif" font-size="10.00">SystemData::udwadiaLinear</text>
<text text-anchor="middle" x="226.5" y="-46" font-family="Helvetica,sans-Serif" font-size="10.00">System</text>
</a>
</g>
</g>
<!-- Node1&#45;&gt;Node16 -->
<g id="edge18" class="edge">
<title>Node1&#45;&gt;Node16</title>
<path fill="none" stroke="midnightblue" d="M59.47,-181.27C71.06,-159.57 102.04,-106.91 143,-79 145.93,-77 149.03,-75.16 152.24,-73.46"/>
<polygon fill="midnightblue" stroke="midnightblue" points="153.99,-76.5 161.52,-69.04 150.99,-70.18 153.99,-76.5"/>
</g>
<!-- Node17 -->
<g id="node17" class="node">
<title>Node17</title>
<g id="a_node17"><a xlink:href="classSystemData.html#a92ce50a4c8b53aa6a490153c1b09ab8a" target="_top" xlink:title="Computes the articulation (linear) velocities of the particles relative to their respective locater p...">
<polygon fill="none" stroke="black" points="143,-0.5 143,-19.5 310,-19.5 310,-0.5 143,-0.5"/>
<text text-anchor="middle" x="226.5" y="-7.5" font-family="Helvetica,sans-Serif" font-size="10.00">SystemData::velocitiesArticulation</text>
</a>
</g>
</g>
<!-- Node1&#45;&gt;Node17 -->
<g id="edge19" class="edge">
<title>Node1&#45;&gt;Node17</title>
<path fill="none" stroke="midnightblue" d="M56.85,-181.13C64.17,-152.62 89.36,-69.65 143,-29 145.36,-27.21 147.86,-25.58 150.47,-24.11"/>
<polygon fill="midnightblue" stroke="midnightblue" points="152.19,-27.16 159.66,-19.64 149.14,-20.86 152.19,-27.16"/>
</g>
<!-- Node4 -->
<g id="node4" class="node">
<title>Node4</title>
<g id="a_node4"><a xlink:href="helper__math_8h.html#ae4378072f9d836b0d4770a1514db2be3" target="_top" xlink:title=" ">
<polygon fill="none" stroke="black" points="399,-328.5 399,-347.5 431,-347.5 431,-328.5 399,-328.5"/>
<text text-anchor="middle" x="415" y="-335.5" font-family="Helvetica,sans-Serif" font-size="10.00">abs</text>
</a>
</g>
</g>
<!-- Node3&#45;&gt;Node4 -->
<g id="edge3" class="edge">
<title>Node3&#45;&gt;Node4</title>
<path fill="none" stroke="midnightblue" d="M295.09,-338C327.64,-338 364.7,-338 388.68,-338"/>
<polygon fill="midnightblue" stroke="midnightblue" points="388.71,-341.5 398.71,-338 388.71,-334.5 388.71,-341.5"/>
</g>
<!-- Node5 -->
<g id="node5" class="node">
<title>Node5</title>
<g id="a_node5"><a xlink:href="helper__math_8h.html#a3be05aff487ded3c05aab21d24dd6439" target="_top" xlink:title=" ">
<polygon fill="none" stroke="black" points="520,-328.5 520,-347.5 582,-347.5 582,-328.5 520,-328.5"/>
<text text-anchor="middle" x="551" y="-335.5" font-family="Helvetica,sans-Serif" font-size="10.00">make_int2</text>
</a>
</g>
</g>
<!-- Node4&#45;&gt;Node5 -->
<g id="edge4" class="edge">
<title>Node4&#45;&gt;Node5</title>
<path fill="none" stroke="midnightblue" d="M431.11,-338C450.02,-338 483.15,-338 509.64,-338"/>
<polygon fill="midnightblue" stroke="midnightblue" points="509.79,-341.5 519.79,-338 509.79,-334.5 509.79,-341.5"/>
</g>
<!-- Node8 -->
<g id="node8" class="node">
<title>Node8</title>
<g id="a_node8"><a xlink:href="helper__eigenTensorConversion_8hpp.html#a556d08b55a6ad7cd703b6db06194e5cf" target="_top" xlink:title=" ">
<polygon fill="none" stroke="black" points="382.5,-230.5 382.5,-249.5 447.5,-249.5 447.5,-230.5 382.5,-230.5"/>
<text text-anchor="middle" x="415" y="-237.5" font-family="Helvetica,sans-Serif" font-size="10.00">MatrixCast</text>
</a>
</g>
</g>
<!-- Node7&#45;&gt;Node8 -->
<g id="edge7" class="edge">
<title>Node7&#45;&gt;Node8</title>
<path fill="none" stroke="midnightblue" d="M295.09,-240C320.83,-240 349.4,-240 372.08,-240"/>
<polygon fill="midnightblue" stroke="midnightblue" points="372.38,-243.5 382.38,-240 372.38,-236.5 372.38,-243.5"/>
</g>
<!-- Node10 -->
<g id="node10" class="node">
<title>Node10</title>
<g id="a_node10"><a xlink:href="helper__eigenTensorConversion_8hpp.html#a3a32f7de3f099464192073a93b34d580" target="_top" xlink:title="Convert Eigen::Matrix &#45;&#45;&gt; Eigen::Tensor.">
<polygon fill="none" stroke="black" points="381.5,-186.5 381.5,-205.5 448.5,-205.5 448.5,-186.5 381.5,-186.5"/>
<text text-anchor="middle" x="415" y="-193.5" font-family="Helvetica,sans-Serif" font-size="10.00">TensorCast</text>
</a>
</g>
</g>
<!-- Node7&#45;&gt;Node10 -->
<g id="edge9" class="edge">
<title>Node7&#45;&gt;Node10</title>
<path fill="none" stroke="midnightblue" d="M291.16,-224.98C317.75,-218.71 347.93,-211.59 371.71,-205.98"/>
<polygon fill="midnightblue" stroke="midnightblue" points="372.56,-209.37 381.49,-203.67 370.95,-202.56 372.56,-209.37"/>
</g>
<!-- Node9 -->
<g id="node9" class="node">
<title>Node9</title>
<g id="a_node9"><a xlink:href="helper__eigenTensorConversion_8hpp.html#a2a7eca6b17fb874869047bd0b5f11b46" target="_top" xlink:title="Convert between Eigen::Tensor and Eigen::Matrix classes.">
<polygon fill="none" stroke="black" points="527.5,-230.5 527.5,-249.5 574.5,-249.5 574.5,-230.5 527.5,-230.5"/>
<text text-anchor="middle" x="551" y="-237.5" font-family="Helvetica,sans-Serif" font-size="10.00">asEval</text>
</a>
</g>
</g>
<!-- Node8&#45;&gt;Node9 -->
<g id="edge8" class="edge">
<title>Node8&#45;&gt;Node9</title>
<path fill="none" stroke="midnightblue" d="M447.76,-240C468.68,-240 496.01,-240 517.15,-240"/>
<polygon fill="midnightblue" stroke="midnightblue" points="517.27,-243.5 527.27,-240 517.27,-236.5 517.27,-243.5"/>
</g>
<!-- Node11&#45;&gt;Node10 -->
<g id="edge12" class="edge">
<title>Node11&#45;&gt;Node10</title>
<path fill="none" stroke="midnightblue" d="M299.61,-192.93C323.63,-193.58 349.64,-194.27 370.77,-194.84"/>
<polygon fill="midnightblue" stroke="midnightblue" points="370.94,-198.35 381.03,-195.12 371.13,-191.35 370.94,-198.35"/>
</g>
<!-- Node12 -->
<g id="node12" class="node">
<title>Node12</title>
<g id="a_node12"><a xlink:href="classSystemData.html#ae26a9488a5a2aa80082fba98c7b9d004" target="_top" xlink:title="Computes the E matrix of quaternion (4&#45;vector) input.">
<polygon fill="none" stroke="black" points="360,-148.5 360,-167.5 470,-167.5 470,-148.5 360,-148.5"/>
<text text-anchor="middle" x="415" y="-155.5" font-family="Helvetica,sans-Serif" font-size="10.00">SystemData::eMatrix</text>
</a>
</g>
</g>
<!-- Node11&#45;&gt;Node12 -->
<g id="edge11" class="edge">
<title>Node11&#45;&gt;Node12</title>
<path fill="none" stroke="midnightblue" d="M299.61,-178.24C316.33,-175.28 334.01,-172.15 350.34,-169.26"/>
<polygon fill="midnightblue" stroke="midnightblue" points="351.07,-172.69 360.31,-167.5 349.85,-165.8 351.07,-172.69"/>
</g>
<!-- Node14&#45;&gt;Node10 -->
<g id="edge17" class="edge">
<title>Node14&#45;&gt;Node10</title>
<path fill="none" stroke="midnightblue" d="M279.46,-157C289.6,-159.96 300.14,-163.06 310,-166 326.03,-170.78 329.94,-172.3 346,-177 354.29,-179.42 363.16,-181.95 371.67,-184.34"/>
<polygon fill="midnightblue" stroke="midnightblue" points="370.87,-187.75 381.44,-187.07 372.75,-181.01 370.87,-187.75"/>
</g>
<!-- Node14&#45;&gt;Node12 -->
<g id="edge16" class="edge">
<title>Node14&#45;&gt;Node12</title>
<path fill="none" stroke="midnightblue" d="M300.14,-148.23C316.42,-149.63 333.57,-151.1 349.49,-152.47"/>
<polygon fill="midnightblue" stroke="midnightblue" points="349.49,-155.98 359.76,-153.35 350.09,-149 349.49,-155.98"/>
</g>
<!-- Node15 -->
<g id="node15" class="node">
<title>Node15</title>
<g id="a_node15"><a xlink:href="classSystemData.html#a7cefde66d9e18e2517f11505dd434d0e" target="_top" xlink:title="Function takes in vector in vector cross&#45;product expression: .">
<polygon fill="none" stroke="black" points="346,-110.5 346,-129.5 484,-129.5 484,-110.5 346,-110.5"/>
<text text-anchor="middle" x="415" y="-117.5" font-family="Helvetica,sans-Serif" font-size="10.00">SystemData::crossProdMat</text>
</a>
</g>
</g>
<!-- Node14&#45;&gt;Node15 -->
<g id="edge15" class="edge">
<title>Node14&#45;&gt;Node15</title>
<path fill="none" stroke="midnightblue" d="M300.14,-133.43C311.77,-132.06 323.85,-130.63 335.6,-129.25"/>
<polygon fill="midnightblue" stroke="midnightblue" points="336.31,-132.69 345.83,-128.04 335.49,-125.74 336.31,-132.69"/>
</g>
</g>
</svg>
