<?xml version="1.0" encoding="UTF-8" standalone="no"?>
<!DOCTYPE svg PUBLIC "-//W3C//DTD SVG 1.1//EN"
 "http://www.w3.org/Graphics/SVG/1.1/DTD/svg11.dtd">
<!-- Generated by graphviz version 2.43.0 (0)
 -->
<!-- Title: rungeKutta4::integrate Pages: 1 -->
<svg width="644pt" height="39pt"
 viewBox="0.00 0.00 644.00 39.00" xmlns="http://www.w3.org/2000/svg" xmlns:xlink="http://www.w3.org/1999/xlink">
<g id="graph0" class="graph" transform="scale(1 1) rotate(0) translate(4 35)">
<title>rungeKutta4::integrate</title>
<!-- Node1 -->
<g id="node1" class="node">
<title>Node1</title>
<g id="a_node1"><a xlink:title=" ">
<polygon fill="#bfbfbf" stroke="black" points="0,-6 0,-25 113,-25 113,-6 0,-6"/>
<text text-anchor="middle" x="56.5" y="-13" font-family="Helvetica,sans-Serif" font-size="10.00">rungeKutta4::integrate</text>
</a>
</g>
</g>
<!-- Node2 -->
<g id="node2" class="node">
<title>Node2</title>
<g id="a_node2"><a xlink:href="classrungeKutta4.html#a2be20a0f0da6d2f251af5b1367ea08a4" target="_top" xlink:title=" ">
<polygon fill="none" stroke="black" points="149,-0.5 149,-30.5 295,-30.5 295,-0.5 149,-0.5"/>
<text text-anchor="start" x="157" y="-18.5" font-family="Helvetica,sans-Serif" font-size="10.00">rungeKutta4::integrateSecond</text>
<text text-anchor="middle" x="222" y="-7.5" font-family="Helvetica,sans-Serif" font-size="10.00">Order</text>
</a>
</g>
</g>
<!-- Node1&#45;&gt;Node2 -->
<g id="edge1" class="edge">
<title>Node1&#45;&gt;Node2</title>
<path fill="none" stroke="midnightblue" d="M113.31,-15.5C121.56,-15.5 130.19,-15.5 138.84,-15.5"/>
<polygon fill="midnightblue" stroke="midnightblue" points="138.96,-19 148.96,-15.5 138.96,-12 138.96,-19"/>
</g>
<!-- Node3 -->
<g id="node3" class="node">
<title>Node3</title>
<g id="a_node3"><a xlink:href="classrungeKutta4.html#ada94dc0b697b09e102b5a02682a34796" target="_top" xlink:title=" ">
<polygon fill="none" stroke="black" points="331,-0.5 331,-30.5 459,-30.5 459,-0.5 331,-0.5"/>
<text text-anchor="start" x="339" y="-18.5" font-family="Helvetica,sans-Serif" font-size="10.00">rungeKutta4::acceleration</text>
<text text-anchor="middle" x="395" y="-7.5" font-family="Helvetica,sans-Serif" font-size="10.00">Update</text>
</a>
</g>
</g>
<!-- Node2&#45;&gt;Node3 -->
<g id="edge2" class="edge">
<title>Node2&#45;&gt;Node3</title>
<path fill="none" stroke="midnightblue" d="M295.02,-15.5C303.46,-15.5 312.08,-15.5 320.53,-15.5"/>
<polygon fill="midnightblue" stroke="midnightblue" points="320.74,-19 330.74,-15.5 320.74,-12 320.74,-19"/>
</g>
<!-- Node4 -->
<g id="node4" class="node">
<title>Node4</title>
<g id="a_node4"><a xlink:href="classrungeKutta4.html#af8d44cd795c66d601274a8db5bf37b97" target="_top" xlink:title=" ">
<polygon fill="none" stroke="black" points="495,-6 495,-25 636,-25 636,-6 495,-6"/>
<text text-anchor="middle" x="565.5" y="-13" font-family="Helvetica,sans-Serif" font-size="10.00">rungeKutta4::udwadiaKalaba</text>
</a>
</g>
</g>
<!-- Node3&#45;&gt;Node4 -->
<g id="edge3" class="edge">
<title>Node3&#45;&gt;Node4</title>
<path fill="none" stroke="midnightblue" d="M459.22,-15.5C467.61,-15.5 476.3,-15.5 484.92,-15.5"/>
<polygon fill="midnightblue" stroke="midnightblue" points="484.99,-19 494.99,-15.5 484.99,-12 484.99,-19"/>
</g>
</g>
</svg>
