<?xml version="1.0" encoding="UTF-8" standalone="no"?>
<!DOCTYPE svg PUBLIC "-//W3C//DTD SVG 1.1//EN"
 "http://www.w3.org/Graphics/SVG/1.1/DTD/svg11.dtd">
<!-- Generated by graphviz version 2.43.0 (0)
 -->
<!-- Title: GSDUtil::readHeader Pages: 1 -->
<svg width="700pt" height="218pt"
 viewBox="0.00 0.00 700.00 218.00" xmlns="http://www.w3.org/2000/svg" xmlns:xlink="http://www.w3.org/1999/xlink">
<g id="graph0" class="graph" transform="scale(1 1) rotate(0) translate(4 214)">
<title>GSDUtil::readHeader</title>
<!-- Node1 -->
<g id="node1" class="node">
<title>Node1</title>
<g id="a_node1"><a xlink:title="Read header information from GSD frame m_frame">
<polygon fill="#bfbfbf" stroke="black" points="0,-133.5 0,-152.5 110,-152.5 110,-133.5 0,-133.5"/>
<text text-anchor="middle" x="55" y="-140.5" font-family="Helvetica,sans-Serif" font-size="10.00">GSDUtil::readHeader</text>
</a>
</g>
</g>
<!-- Node2 -->
<g id="node2" class="node">
<title>Node2</title>
<g id="a_node2"><a xlink:href="classGSDUtil.html#a00a919382c11e9dd1fa7ae1a8788d4c0" target="_top" xlink:title="Helper function that checks data parsing from GSD is successful.">
<polygon fill="none" stroke="black" points="289,-171.5 289,-190.5 426,-190.5 426,-171.5 289,-171.5"/>
<text text-anchor="middle" x="357.5" y="-178.5" font-family="Helvetica,sans-Serif" font-size="10.00">GSDUtil::checkGSDReturn</text>
</a>
</g>
</g>
<!-- Node1&#45;&gt;Node2 -->
<g id="edge1" class="edge">
<title>Node1&#45;&gt;Node2</title>
<path fill="none" stroke="midnightblue" d="M110.07,-149.84C157.14,-155.79 225.93,-164.49 278.88,-171.18"/>
<polygon fill="midnightblue" stroke="midnightblue" points="278.55,-174.67 288.91,-172.45 279.43,-167.73 278.55,-174.67"/>
</g>
<!-- Node3 -->
<g id="node3" class="node">
<title>Node3</title>
<g id="a_node3"><a xlink:href="classGSDUtil.html#a86d2352b694afc6a0c938a13b3acec9d" target="_top" xlink:title="Finds and then loads data from GSD.">
<polygon fill="none" stroke="black" points="146,-114.5 146,-133.5 253,-133.5 253,-114.5 146,-114.5"/>
<text text-anchor="middle" x="199.5" y="-121.5" font-family="Helvetica,sans-Serif" font-size="10.00">GSDUtil::readChunk</text>
</a>
</g>
</g>
<!-- Node1&#45;&gt;Node3 -->
<g id="edge2" class="edge">
<title>Node1&#45;&gt;Node3</title>
<path fill="none" stroke="midnightblue" d="M110.28,-135.76C118.56,-134.66 127.16,-133.51 135.6,-132.39"/>
<polygon fill="midnightblue" stroke="midnightblue" points="136.33,-135.82 145.78,-131.03 135.41,-128.88 136.33,-135.82"/>
</g>
<!-- Node3&#45;&gt;Node2 -->
<g id="edge3" class="edge">
<title>Node3&#45;&gt;Node2</title>
<path fill="none" stroke="midnightblue" d="M220.59,-133.52C238.33,-141.72 265.04,-153.52 289,-162 295.48,-164.29 302.38,-166.5 309.2,-168.54"/>
<polygon fill="midnightblue" stroke="midnightblue" points="308.51,-171.98 319.09,-171.41 310.46,-165.26 308.51,-171.98"/>
</g>
<!-- Node4 -->
<g id="node4" class="node">
<title>Node4</title>
<g id="a_node4"><a xlink:href="classGSDUtil.html#abbd7a5860cd0f2b6cc72f1a90d2df018" target="_top" xlink:title=" ">
<polygon fill="none" stroke="black" points="315.5,-133.5 315.5,-152.5 399.5,-152.5 399.5,-133.5 315.5,-133.5"/>
<text text-anchor="middle" x="357.5" y="-140.5" font-family="Helvetica,sans-Serif" font-size="10.00">GSDUtil::frame</text>
</a>
</g>
</g>
<!-- Node3&#45;&gt;Node4 -->
<g id="edge4" class="edge">
<title>Node3&#45;&gt;Node4</title>
<path fill="none" stroke="midnightblue" d="M253.31,-130.43C270,-132.47 288.42,-134.71 305.01,-136.73"/>
<polygon fill="midnightblue" stroke="midnightblue" points="304.73,-140.22 315.08,-137.96 305.58,-133.27 304.73,-140.22"/>
</g>
<!-- Node5 -->
<g id="node5" class="node">
<title>Node5</title>
<g id="a_node5"><a xlink:href="gsd_8c.html#a3c76bbf6c28b953cff198a44852c732f" target="_top" xlink:title=" ">
<polygon fill="none" stroke="black" points="315,-95.5 315,-114.5 400,-114.5 400,-95.5 315,-95.5"/>
<text text-anchor="middle" x="357.5" y="-102.5" font-family="Helvetica,sans-Serif" font-size="10.00">gsd_find_chunk</text>
</a>
</g>
</g>
<!-- Node3&#45;&gt;Node5 -->
<g id="edge5" class="edge">
<title>Node3&#45;&gt;Node5</title>
<path fill="none" stroke="midnightblue" d="M253.31,-117.57C269.86,-115.55 288.09,-113.33 304.58,-111.32"/>
<polygon fill="midnightblue" stroke="midnightblue" points="305.08,-114.79 314.58,-110.11 304.23,-107.84 305.08,-114.79"/>
</g>
<!-- Node11 -->
<g id="node11" class="node">
<title>Node11</title>
<g id="a_node11"><a xlink:href="gsd_8c.html#a2db2e3e8a72948bf413e7f09469ec8a6" target="_top" xlink:title=" ">
<polygon fill="none" stroke="black" points="313.5,-38.5 313.5,-57.5 401.5,-57.5 401.5,-38.5 313.5,-38.5"/>
<text text-anchor="middle" x="357.5" y="-45.5" font-family="Helvetica,sans-Serif" font-size="10.00">gsd_read_chunk</text>
</a>
</g>
</g>
<!-- Node3&#45;&gt;Node11 -->
<g id="edge11" class="edge">
<title>Node3&#45;&gt;Node11</title>
<path fill="none" stroke="midnightblue" d="M220.26,-114.37C247.45,-101.13 296.59,-77.19 327.83,-61.97"/>
<polygon fill="midnightblue" stroke="midnightblue" points="329.45,-65.07 336.9,-57.55 326.38,-58.78 329.45,-65.07"/>
</g>
<!-- Node13 -->
<g id="node13" class="node">
<title>Node13</title>
<g id="a_node13"><a xlink:href="gsd_8c.html#ab1d1a8a5f73b37df0c706f41df3bdd69" target="_top" xlink:title=" ">
<polygon fill="none" stroke="black" points="477.5,-0.5 477.5,-19.5 565.5,-19.5 565.5,-0.5 477.5,-0.5"/>
<text text-anchor="middle" x="521.5" y="-7.5" font-family="Helvetica,sans-Serif" font-size="10.00">gsd_sizeof_type</text>
</a>
</g>
</g>
<!-- Node3&#45;&gt;Node13 -->
<g id="edge14" class="edge">
<title>Node3&#45;&gt;Node13</title>
<path fill="none" stroke="midnightblue" d="M206.07,-114.27C218.17,-94.18 249.04,-48.37 289,-29 345.24,-1.74 418.23,-0.52 467.07,-3.81"/>
<polygon fill="midnightblue" stroke="midnightblue" points="466.88,-7.3 477.12,-4.57 467.41,-0.32 466.88,-7.3"/>
</g>
<!-- Node6 -->
<g id="node6" class="node">
<title>Node6</title>
<g id="a_node6"><a xlink:href="gsd_8c.html#a3ffe758eed9a5bae487f514a0a45e97d" target="_top" xlink:title=" ">
<polygon fill="none" stroke="black" points="465.5,-190.5 465.5,-209.5 577.5,-209.5 577.5,-190.5 465.5,-190.5"/>
<text text-anchor="middle" x="521.5" y="-197.5" font-family="Helvetica,sans-Serif" font-size="10.00">gsd_cmp_index_entry</text>
</a>
</g>
</g>
<!-- Node5&#45;&gt;Node6 -->
<g id="edge6" class="edge">
<title>Node5&#45;&gt;Node6</title>
<path fill="none" stroke="midnightblue" d="M400.33,-111.66C409.39,-114.44 418.49,-118.39 426,-124 450.02,-141.92 438.34,-162.61 462,-181 464.33,-182.81 466.84,-184.46 469.47,-185.94"/>
<polygon fill="midnightblue" stroke="midnightblue" points="468.2,-189.22 478.73,-190.43 471.25,-182.92 468.2,-189.22"/>
</g>
<!-- Node7 -->
<g id="node7" class="node">
<title>Node7</title>
<g id="a_node7"><a xlink:href="gsd_8c.html#a7479046d4d6e15c33cb24034ddd87562" target="_top" xlink:title=" ">
<polygon fill="none" stroke="black" points="475.5,-152.5 475.5,-171.5 567.5,-171.5 567.5,-152.5 475.5,-152.5"/>
<text text-anchor="middle" x="521.5" y="-159.5" font-family="Helvetica,sans-Serif" font-size="10.00">gsd_get_nframes</text>
</a>
</g>
</g>
<!-- Node5&#45;&gt;Node7 -->
<g id="edge7" class="edge">
<title>Node5&#45;&gt;Node7</title>
<path fill="none" stroke="midnightblue" d="M397.87,-114.57C407.22,-117.26 417.07,-120.43 426,-124 442.8,-130.71 445.34,-135.96 462,-143 467.1,-145.16 472.54,-147.22 477.97,-149.14"/>
<polygon fill="midnightblue" stroke="midnightblue" points="477.05,-152.52 487.65,-152.42 479.3,-145.89 477.05,-152.52"/>
</g>
<!-- Node8 -->
<g id="node8" class="node">
<title>Node8</title>
<g id="a_node8"><a xlink:href="gsd_8c.html#a493ef951956c9f98adff89a80ddb3fa6" target="_top" xlink:title=" ">
<polygon fill="none" stroke="black" points="472.5,-114.5 472.5,-133.5 570.5,-133.5 570.5,-114.5 472.5,-114.5"/>
<text text-anchor="middle" x="521.5" y="-121.5" font-family="Helvetica,sans-Serif" font-size="10.00">gsd_make_version</text>
</a>
</g>
</g>
<!-- Node5&#45;&gt;Node8 -->
<g id="edge8" class="edge">
<title>Node5&#45;&gt;Node8</title>
<path fill="none" stroke="midnightblue" d="M400.22,-109.89C419.07,-112.1 441.66,-114.75 462.14,-117.16"/>
<polygon fill="midnightblue" stroke="midnightblue" points="461.98,-120.66 472.32,-118.35 462.8,-113.71 461.98,-120.66"/>
</g>
<!-- Node9 -->
<g id="node9" class="node">
<title>Node9</title>
<g id="a_node9"><a xlink:href="gsd_8c.html#a31b9400272036b121040e9fc0a9e626b" target="_top" xlink:title=" ">
<polygon fill="none" stroke="black" points="462,-76.5 462,-95.5 581,-95.5 581,-76.5 462,-76.5"/>
<text text-anchor="middle" x="521.5" y="-83.5" font-family="Helvetica,sans-Serif" font-size="10.00">gsd_name_id_map_find</text>
</a>
</g>
</g>
<!-- Node5&#45;&gt;Node9 -->
<g id="edge9" class="edge">
<title>Node5&#45;&gt;Node9</title>
<path fill="none" stroke="midnightblue" d="M400.22,-100.11C415.89,-98.27 434.16,-96.13 451.65,-94.08"/>
<polygon fill="midnightblue" stroke="midnightblue" points="452.3,-97.52 461.83,-92.88 451.49,-90.57 452.3,-97.52"/>
</g>
<!-- Node10 -->
<g id="node10" class="node">
<title>Node10</title>
<g id="a_node10"><a xlink:href="gsd_8c.html#a6d8087323ec29c58d907b9462b4a31da" target="_top" xlink:title=" ">
<polygon fill="none" stroke="black" points="617,-76.5 617,-95.5 692,-95.5 692,-76.5 617,-76.5"/>
<text text-anchor="middle" x="654.5" y="-83.5" font-family="Helvetica,sans-Serif" font-size="10.00">gsd_hash_str</text>
</a>
</g>
</g>
<!-- Node9&#45;&gt;Node10 -->
<g id="edge10" class="edge">
<title>Node9&#45;&gt;Node10</title>
<path fill="none" stroke="midnightblue" d="M581.1,-86C589.63,-86 598.31,-86 606.57,-86"/>
<polygon fill="midnightblue" stroke="midnightblue" points="606.75,-89.5 616.75,-86 606.75,-82.5 606.75,-89.5"/>
</g>
<!-- Node12 -->
<g id="node12" class="node">
<title>Node12</title>
<g id="a_node12"><a xlink:href="gsd_8c.html#ac1f41abbefbfe35337e7053d766c089b" target="_top" xlink:title=" ">
<polygon fill="none" stroke="black" points="472,-38.5 472,-57.5 571,-57.5 571,-38.5 472,-38.5"/>
<text text-anchor="middle" x="521.5" y="-45.5" font-family="Helvetica,sans-Serif" font-size="10.00">gsd_io_pread_retry</text>
</a>
</g>
</g>
<!-- Node11&#45;&gt;Node12 -->
<g id="edge12" class="edge">
<title>Node11&#45;&gt;Node12</title>
<path fill="none" stroke="midnightblue" d="M401.91,-48C420.27,-48 441.94,-48 461.69,-48"/>
<polygon fill="midnightblue" stroke="midnightblue" points="461.82,-51.5 471.82,-48 461.82,-44.5 461.82,-51.5"/>
</g>
<!-- Node11&#45;&gt;Node13 -->
<g id="edge13" class="edge">
<title>Node11&#45;&gt;Node13</title>
<path fill="none" stroke="midnightblue" d="M399.38,-38.41C420.85,-33.37 447.36,-27.16 470.1,-21.82"/>
<polygon fill="midnightblue" stroke="midnightblue" points="470.98,-25.21 479.91,-19.52 469.38,-18.4 470.98,-25.21"/>
</g>
</g>
</svg>
