<?xml version="1.0" encoding="UTF-8" standalone="no"?>
<!DOCTYPE svg PUBLIC "-//W3C//DTD SVG 1.1//EN"
 "http://www.w3.org/Graphics/SVG/1.1/DTD/svg11.dtd">
<!-- Generated by graphviz version 2.43.0 (0)
 -->
<!-- Title: PotentialHydrodynamics Pages: 1 -->
<svg width="576pt" height="2780pt"
 viewBox="0.00 0.00 575.50 2780.00" xmlns="http://www.w3.org/2000/svg" xmlns:xlink="http://www.w3.org/1999/xlink">
<g id="graph0" class="graph" transform="scale(1 1) rotate(0) translate(4 2776)">
<title>PotentialHydrodynamics</title>
<!-- Node1 -->
<g id="node1" class="node">
<title>Node1</title>
<g id="a_node1"><a xlink:title="Computes hydrodynamic tensors (mass, forces) on a finite number of spheres in potential flow.">
<polygon fill="#bfbfbf" stroke="black" points="52.5,-1893.5 52.5,-2423.5 196.5,-2423.5 196.5,-1893.5 52.5,-1893.5"/>
<text text-anchor="middle" x="124.5" y="-2411.5" font-family="Helvetica,sans-Serif" font-size="10.00">PotentialHydrodynamics</text>
<polyline fill="none" stroke="black" points="52.5,-2404.5 196.5,-2404.5 "/>
<text text-anchor="start" x="60.5" y="-2392.5" font-family="Helvetica,sans-Serif" font-size="10.00">&#45; m_num_pair_inter</text>
<text text-anchor="start" x="60.5" y="-2381.5" font-family="Helvetica,sans-Serif" font-size="10.00">&#45; m_7N</text>
<text text-anchor="start" x="60.5" y="-2370.5" font-family="Helvetica,sans-Serif" font-size="10.00">&#45; m_7M</text>
<text text-anchor="start" x="60.5" y="-2359.5" font-family="Helvetica,sans-Serif" font-size="10.00">&#45; m_alphaVec</text>
<text text-anchor="start" x="60.5" y="-2348.5" font-family="Helvetica,sans-Serif" font-size="10.00">&#45; m_betaVec</text>
<text text-anchor="start" x="60.5" y="-2337.5" font-family="Helvetica,sans-Serif" font-size="10.00">&#45; m_r_mag_ab</text>
<text text-anchor="start" x="60.5" y="-2326.5" font-family="Helvetica,sans-Serif" font-size="10.00">&#45; m_r_ab</text>
<text text-anchor="start" x="60.5" y="-2315.5" font-family="Helvetica,sans-Serif" font-size="10.00">&#45; m_I7N_linear</text>
<text text-anchor="start" x="60.5" y="-2304.5" font-family="Helvetica,sans-Serif" font-size="10.00">&#45; m_I7N_angular</text>
<text text-anchor="start" x="60.5" y="-2293.5" font-family="Helvetica,sans-Serif" font-size="10.00">&#45; m_c1_2_I7N_linear</text>
<text text-anchor="start" x="60.5" y="-2282.5" font-family="Helvetica,sans-Serif" font-size="10.00">&#45; m_M_added</text>
<text text-anchor="start" x="60.5" y="-2271.5" font-family="Helvetica,sans-Serif" font-size="10.00">&#45; m_M_intrinsic</text>
<text text-anchor="start" x="60.5" y="-2260.5" font-family="Helvetica,sans-Serif" font-size="10.00">&#45; m_J_intrinsic</text>
<text text-anchor="start" x="60.5" y="-2249.5" font-family="Helvetica,sans-Serif" font-size="10.00">&#45; m_M_total</text>
<text text-anchor="start" x="60.5" y="-2238.5" font-family="Helvetica,sans-Serif" font-size="10.00">&#45; m_tens_M_total</text>
<text text-anchor="start" x="60.5" y="-2227.5" font-family="Helvetica,sans-Serif" font-size="10.00">&#45; m_grad_M_added</text>
<text text-anchor="start" x="60.5" y="-2216.5" font-family="Helvetica,sans-Serif" font-size="10.00">&#45; m_grad_M_added_body</text>
<text text-anchor="start" x="60.5" y="-2205.5" font-family="Helvetica,sans-Serif" font-size="10.00">_coords</text>
<text text-anchor="start" x="60.5" y="-2194.5" font-family="Helvetica,sans-Serif" font-size="10.00">&#45; m_F_hydro</text>
<text text-anchor="start" x="60.5" y="-2183.5" font-family="Helvetica,sans-Serif" font-size="10.00">&#45; m_F_hydroNoInertia</text>
<text text-anchor="start" x="60.5" y="-2172.5" font-family="Helvetica,sans-Serif" font-size="10.00">&#45; m_N1</text>
<text text-anchor="start" x="60.5" y="-2161.5" font-family="Helvetica,sans-Serif" font-size="10.00">&#45; m_N2</text>
<text text-anchor="start" x="60.5" y="-2150.5" font-family="Helvetica,sans-Serif" font-size="10.00">&#45; m_N3</text>
<text text-anchor="start" x="60.5" y="-2139.5" font-family="Helvetica,sans-Serif" font-size="10.00">&#45; m_M3</text>
<text text-anchor="start" x="60.5" y="-2128.5" font-family="Helvetica,sans-Serif" font-size="10.00">&#45; m_M2</text>
<text text-anchor="start" x="60.5" y="-2117.5" font-family="Helvetica,sans-Serif" font-size="10.00">&#45; m_mat_M3</text>
<text text-anchor="start" x="60.5" y="-2106.5" font-family="Helvetica,sans-Serif" font-size="10.00">&#45; m_unit_sphere_volume</text>
<text text-anchor="start" x="60.5" y="-2095.5" font-family="Helvetica,sans-Serif" font-size="10.00">&#45; m_scalar_moment_inertia</text>
<text text-anchor="start" x="60.5" y="-2084.5" font-family="Helvetica,sans-Serif" font-size="10.00">&#45; m_scalar_w</text>
<text text-anchor="start" x="60.5" y="-2073.5" font-family="Helvetica,sans-Serif" font-size="10.00">&#45; m_c1_2</text>
<text text-anchor="start" x="60.5" y="-2062.5" font-family="Helvetica,sans-Serif" font-size="10.00">&#45; m_c3_2</text>
<text text-anchor="start" x="60.5" y="-2051.5" font-family="Helvetica,sans-Serif" font-size="10.00">&#45; m_c15_2</text>
<polyline fill="none" stroke="black" points="52.5,-2044.5 196.5,-2044.5 "/>
<text text-anchor="start" x="60.5" y="-2032.5" font-family="Helvetica,sans-Serif" font-size="10.00">+ PotentialHydrodynamics()</text>
<text text-anchor="start" x="60.5" y="-2021.5" font-family="Helvetica,sans-Serif" font-size="10.00">+ ~PotentialHydrodynamics()</text>
<text text-anchor="start" x="60.5" y="-2010.5" font-family="Helvetica,sans-Serif" font-size="10.00">+ update()</text>
<text text-anchor="start" x="60.5" y="-1999.5" font-family="Helvetica,sans-Serif" font-size="10.00">+ fHydro()</text>
<text text-anchor="start" x="60.5" y="-1988.5" font-family="Helvetica,sans-Serif" font-size="10.00">+ fHydroNoInertia()</text>
<text text-anchor="start" x="60.5" y="-1977.5" font-family="Helvetica,sans-Serif" font-size="10.00">+ mTotal()</text>
<text text-anchor="start" x="60.5" y="-1966.5" font-family="Helvetica,sans-Serif" font-size="10.00">+ mTotalBodyCoords()</text>
<text text-anchor="start" x="60.5" y="-1955.5" font-family="Helvetica,sans-Serif" font-size="10.00">&#45; calcParticleDistances()</text>
<text text-anchor="start" x="60.5" y="-1944.5" font-family="Helvetica,sans-Serif" font-size="10.00">&#45; calcAddedMass()</text>
<text text-anchor="start" x="60.5" y="-1933.5" font-family="Helvetica,sans-Serif" font-size="10.00">&#45; calcTotalMass()</text>
<text text-anchor="start" x="60.5" y="-1922.5" font-family="Helvetica,sans-Serif" font-size="10.00">&#45; calcAddedMassGrad()</text>
<text text-anchor="start" x="60.5" y="-1911.5" font-family="Helvetica,sans-Serif" font-size="10.00">&#45; calcBodyTensors()</text>
<text text-anchor="start" x="60.5" y="-1900.5" font-family="Helvetica,sans-Serif" font-size="10.00">&#45; calcHydroForces()</text>
</a>
</g>
</g>
<!-- Node2 -->
<g id="node2" class="node">
<title>Node2</title>
<g id="a_node2"><a xlink:title=" ">
<polygon fill="none" stroke="#bfbfbf" points="210,-2488 210,-2545 365,-2545 365,-2488 210,-2488"/>
<text text-anchor="middle" x="287.5" y="-2533" font-family="Helvetica,sans-Serif" font-size="10.00">std::shared_ptr&lt; SystemData &gt;</text>
<polyline fill="none" stroke="#bfbfbf" points="210,-2526 365,-2526 "/>
<text text-anchor="middle" x="287.5" y="-2514" font-family="Helvetica,sans-Serif" font-size="10.00"> </text>
<polyline fill="none" stroke="#bfbfbf" points="210,-2507 365,-2507 "/>
<text text-anchor="start" x="218" y="-2495" font-family="Helvetica,sans-Serif" font-size="10.00">+ operator&#45;&gt;()</text>
</a>
</g>
</g>
<!-- Node2&#45;&gt;Node1 -->
<g id="edge1" class="edge">
<title>Node2&#45;&gt;Node1</title>
<path fill="none" stroke="#404040" d="M209.63,-2508.83C180.03,-2502.09 149.01,-2489.02 130.5,-2464 123.75,-2454.87 118.08,-2445.12 113.38,-2434.94"/>
<polygon fill="none" stroke="#404040" points="113.31,-2434.77 107.29,-2430.8 108.64,-2423.72 114.66,-2427.69 113.31,-2434.77"/>
<text text-anchor="middle" x="156.5" y="-2450.5" font-family="Helvetica,sans-Serif" font-size="10.00"> &#45;m_system</text>
</g>
<!-- Node6 -->
<g id="node6" class="node">
<title>Node6</title>
<g id="a_node6"><a xlink:href="classGSDUtil.html" target="_top" xlink:title="Wrapper class for gsd.h to load data from input GSD file into SystemData class.">
<polygon fill="none" stroke="black" points="257.5,-2053 257.5,-2264 379.5,-2264 379.5,-2053 257.5,-2053"/>
<text text-anchor="middle" x="318.5" y="-2252" font-family="Helvetica,sans-Serif" font-size="10.00">GSDUtil</text>
<polyline fill="none" stroke="black" points="257.5,-2245 379.5,-2245 "/>
<text text-anchor="start" x="265.5" y="-2233" font-family="Helvetica,sans-Serif" font-size="10.00">&#45; m_frame</text>
<polyline fill="none" stroke="black" points="257.5,-2226 379.5,-2226 "/>
<text text-anchor="start" x="265.5" y="-2214" font-family="Helvetica,sans-Serif" font-size="10.00">+ GSDUtil()</text>
<text text-anchor="start" x="265.5" y="-2203" font-family="Helvetica,sans-Serif" font-size="10.00">+ GSDUtil()</text>
<text text-anchor="start" x="265.5" y="-2192" font-family="Helvetica,sans-Serif" font-size="10.00">+ ~GSDUtil()</text>
<text text-anchor="start" x="265.5" y="-2181" font-family="Helvetica,sans-Serif" font-size="10.00">+ truncateGSD()</text>
<text text-anchor="start" x="265.5" y="-2170" font-family="Helvetica,sans-Serif" font-size="10.00">+ writeFrame()</text>
<text text-anchor="start" x="265.5" y="-2159" font-family="Helvetica,sans-Serif" font-size="10.00">+ frame()</text>
<text text-anchor="start" x="265.5" y="-2148" font-family="Helvetica,sans-Serif" font-size="10.00">&#45; checkGSDReturn()</text>
<text text-anchor="start" x="265.5" y="-2137" font-family="Helvetica,sans-Serif" font-size="10.00">&#45; readChunk()</text>
<text text-anchor="start" x="265.5" y="-2126" font-family="Helvetica,sans-Serif" font-size="10.00">&#45; readHeader()</text>
<text text-anchor="start" x="265.5" y="-2115" font-family="Helvetica,sans-Serif" font-size="10.00">&#45; readParameters()</text>
<text text-anchor="start" x="265.5" y="-2104" font-family="Helvetica,sans-Serif" font-size="10.00">&#45; readParticles()</text>
<text text-anchor="start" x="265.5" y="-2093" font-family="Helvetica,sans-Serif" font-size="10.00">&#45; readSystemSpecifics()</text>
<text text-anchor="start" x="265.5" y="-2082" font-family="Helvetica,sans-Serif" font-size="10.00">&#45; writeHeader()</text>
<text text-anchor="start" x="265.5" y="-2071" font-family="Helvetica,sans-Serif" font-size="10.00">&#45; writeParameters()</text>
<text text-anchor="start" x="265.5" y="-2060" font-family="Helvetica,sans-Serif" font-size="10.00">&#45; writeParticles()</text>
</a>
</g>
</g>
<!-- Node2&#45;&gt;Node6 -->
<g id="edge6" class="edge">
<title>Node2&#45;&gt;Node6</title>
<path fill="none" stroke="#404040" d="M290.23,-2487.98C290.99,-2480.22 291.79,-2471.78 292.5,-2464 298.15,-2402.1 304.07,-2333.08 308.84,-2276.43"/>
<polygon fill="none" stroke="#404040" points="308.86,-2276.12 305.38,-2269.81 309.86,-2264.16 313.35,-2270.48 308.86,-2276.12"/>
<text text-anchor="middle" x="320.5" y="-2450.5" font-family="Helvetica,sans-Serif" font-size="10.00"> &#45;m_system</text>
</g>
<!-- Node3 -->
<g id="node3" class="node">
<title>Node3</title>
<g id="a_node3"><a xlink:href="classSystemData.html" target="_top" xlink:title="Class contains all data structures relevant to the simulation framework. Note that after construction...">
<polygon fill="none" stroke="black" points="141.5,-0.5 141.5,-1696.5 317.5,-1696.5 317.5,-0.5 141.5,-0.5"/>
<text text-anchor="middle" x="229.5" y="-1684.5" font-family="Helvetica,sans-Serif" font-size="10.00">SystemData</text>
<polyline fill="none" stroke="black" points="141.5,-1677.5 317.5,-1677.5 "/>
<text text-anchor="start" x="149.5" y="-1665.5" font-family="Helvetica,sans-Serif" font-size="10.00">&#45; m_image_system</text>
<text text-anchor="start" x="149.5" y="-1654.5" font-family="Helvetica,sans-Serif" font-size="10.00">&#45; m_return_val</text>
<text text-anchor="start" x="149.5" y="-1643.5" font-family="Helvetica,sans-Serif" font-size="10.00">&#45; m_return_bool</text>
<text text-anchor="start" x="149.5" y="-1632.5" font-family="Helvetica,sans-Serif" font-size="10.00">&#45; m_GSD_parsed</text>
<text text-anchor="start" x="149.5" y="-1621.5" font-family="Helvetica,sans-Serif" font-size="10.00">&#45; m_sys_spec_U0</text>
<text text-anchor="start" x="149.5" y="-1610.5" font-family="Helvetica,sans-Serif" font-size="10.00">&#45; m_sys_spec_omega</text>
<text text-anchor="start" x="149.5" y="-1599.5" font-family="Helvetica,sans-Serif" font-size="10.00">&#45; m_sys_spec_phase_shift</text>
<text text-anchor="start" x="149.5" y="-1588.5" font-family="Helvetica,sans-Serif" font-size="10.00">&#45; m_sys_spec_R_avg</text>
<text text-anchor="start" x="149.5" y="-1577.5" font-family="Helvetica,sans-Serif" font-size="10.00">&#45; m_sys_scalar_w</text>
<text text-anchor="start" x="149.5" y="-1566.5" font-family="Helvetica,sans-Serif" font-size="10.00">&#45; m_particle_type_id</text>
<text text-anchor="start" x="149.5" y="-1555.5" font-family="Helvetica,sans-Serif" font-size="10.00">&#45; m_particle_group_id</text>
<text text-anchor="start" x="149.5" y="-1544.5" font-family="Helvetica,sans-Serif" font-size="10.00">&#45; m_fluid_density</text>
<text text-anchor="start" x="149.5" y="-1533.5" font-family="Helvetica,sans-Serif" font-size="10.00">&#45; m_particle_density</text>
<text text-anchor="start" x="149.5" y="-1522.5" font-family="Helvetica,sans-Serif" font-size="10.00">&#45; m_wca_epsilon</text>
<text text-anchor="start" x="149.5" y="-1511.5" font-family="Helvetica,sans-Serif" font-size="10.00">&#45; m_wca_sigma</text>
<text text-anchor="start" x="149.5" y="-1500.5" font-family="Helvetica,sans-Serif" font-size="10.00">&#45; m_num_spatial_dim</text>
<text text-anchor="start" x="149.5" y="-1489.5" font-family="Helvetica,sans-Serif" font-size="10.00">&#45; m_num_particles</text>
<text text-anchor="start" x="149.5" y="-1478.5" font-family="Helvetica,sans-Serif" font-size="10.00">&#45; m_num_bodies</text>
<text text-anchor="start" x="149.5" y="-1467.5" font-family="Helvetica,sans-Serif" font-size="10.00">&#45; m_num_DoF</text>
<text text-anchor="start" x="149.5" y="-1456.5" font-family="Helvetica,sans-Serif" font-size="10.00">&#45; m_num_constraints</text>
<text text-anchor="start" x="149.5" y="-1445.5" font-family="Helvetica,sans-Serif" font-size="10.00">&#45; m_dt</text>
<text text-anchor="start" x="149.5" y="-1434.5" font-family="Helvetica,sans-Serif" font-size="10.00">&#45; m_tf</text>
<text text-anchor="start" x="149.5" y="-1423.5" font-family="Helvetica,sans-Serif" font-size="10.00">&#45; m_t0</text>
<text text-anchor="start" x="149.5" y="-1412.5" font-family="Helvetica,sans-Serif" font-size="10.00">&#45; m_t</text>
<text text-anchor="start" x="149.5" y="-1401.5" font-family="Helvetica,sans-Serif" font-size="10.00">&#45; m_tau</text>
<text text-anchor="start" x="149.5" y="-1390.5" font-family="Helvetica,sans-Serif" font-size="10.00">&#45; m_timestep</text>
<text text-anchor="start" x="149.5" y="-1379.5" font-family="Helvetica,sans-Serif" font-size="10.00">&#45; m_num_steps_output</text>
<text text-anchor="start" x="149.5" y="-1368.5" font-family="Helvetica,sans-Serif" font-size="10.00">&#45; m_I3</text>
<text text-anchor="start" x="149.5" y="-1357.5" font-family="Helvetica,sans-Serif" font-size="10.00">&#45; m_tens_I3</text>
<text text-anchor="start" x="149.5" y="-1346.5" font-family="Helvetica,sans-Serif" font-size="10.00">&#45; m_levi_cevita</text>
<text text-anchor="start" x="149.5" y="-1335.5" font-family="Helvetica,sans-Serif" font-size="10.00">&#45; m_kappa</text>
<text text-anchor="start" x="149.5" y="-1324.5" font-family="Helvetica,sans-Serif" font-size="10.00">&#45; m_positions_bodies</text>
<text text-anchor="start" x="149.5" y="-1313.5" font-family="Helvetica,sans-Serif" font-size="10.00">&#45; m_velocities_bodies</text>
<text text-anchor="start" x="149.5" y="-1302.5" font-family="Helvetica,sans-Serif" font-size="10.00">&#45; m_accelerations_bodies</text>
<text text-anchor="start" x="149.5" y="-1291.5" font-family="Helvetica,sans-Serif" font-size="10.00">&#45; m_positions_particles</text>
<text text-anchor="start" x="149.5" y="-1280.5" font-family="Helvetica,sans-Serif" font-size="10.00">&#45; m_velocities_particles</text>
<text text-anchor="start" x="149.5" y="-1269.5" font-family="Helvetica,sans-Serif" font-size="10.00">&#45; m_accelerations_particles</text>
<text text-anchor="start" x="149.5" y="-1258.5" font-family="Helvetica,sans-Serif" font-size="10.00">&#45; m_orientations_particles</text>
<text text-anchor="start" x="149.5" y="-1247.5" font-family="Helvetica,sans-Serif" font-size="10.00">&#45; m_quaternions_particles</text>
<text text-anchor="start" x="149.5" y="-1236.5" font-family="Helvetica,sans-Serif" font-size="10.00">&#45; m_positions_particles</text>
<text text-anchor="start" x="149.5" y="-1225.5" font-family="Helvetica,sans-Serif" font-size="10.00">_articulation_init_norm</text>
<text text-anchor="start" x="149.5" y="-1214.5" font-family="Helvetica,sans-Serif" font-size="10.00">&#45; m_positions_particles</text>
<text text-anchor="start" x="149.5" y="-1203.5" font-family="Helvetica,sans-Serif" font-size="10.00">_articulation</text>
<text text-anchor="start" x="149.5" y="-1192.5" font-family="Helvetica,sans-Serif" font-size="10.00">&#45; m_velocities_particles</text>
<text text-anchor="start" x="149.5" y="-1181.5" font-family="Helvetica,sans-Serif" font-size="10.00">_articulation</text>
<text text-anchor="start" x="149.5" y="-1170.5" font-family="Helvetica,sans-Serif" font-size="10.00">&#45; m_accelerations_particles</text>
<text text-anchor="start" x="149.5" y="-1159.5" font-family="Helvetica,sans-Serif" font-size="10.00">_articulation</text>
<text text-anchor="start" x="149.5" y="-1148.5" font-family="Helvetica,sans-Serif" font-size="10.00">&#45; m_rbm_conn</text>
<text text-anchor="start" x="149.5" y="-1137.5" font-family="Helvetica,sans-Serif" font-size="10.00">&#45; m_psi_conv_quat_ang</text>
<text text-anchor="start" x="149.5" y="-1126.5" font-family="Helvetica,sans-Serif" font-size="10.00">&#45; m_zeta</text>
<text text-anchor="start" x="149.5" y="-1115.5" font-family="Helvetica,sans-Serif" font-size="10.00">&#45; m_tens_zeta</text>
<text text-anchor="start" x="149.5" y="-1104.5" font-family="Helvetica,sans-Serif" font-size="10.00">&#45; m_tens_grad_zeta</text>
<text text-anchor="start" x="149.5" y="-1093.5" font-family="Helvetica,sans-Serif" font-size="10.00">&#45; m_chi</text>
<text text-anchor="start" x="149.5" y="-1082.5" font-family="Helvetica,sans-Serif" font-size="10.00">&#45; m_tens_chi</text>
<text text-anchor="start" x="149.5" y="-1071.5" font-family="Helvetica,sans-Serif" font-size="10.00">&#45; m_Udwadia_A</text>
<text text-anchor="start" x="149.5" y="-1060.5" font-family="Helvetica,sans-Serif" font-size="10.00">&#45; m_Udwadia_b</text>
<polyline fill="none" stroke="black" points="141.5,-1053.5 317.5,-1053.5 "/>
<text text-anchor="start" x="149.5" y="-1041.5" font-family="Helvetica,sans-Serif" font-size="10.00">+ SystemData()</text>
<text text-anchor="start" x="149.5" y="-1030.5" font-family="Helvetica,sans-Serif" font-size="10.00">+ SystemData()</text>
<text text-anchor="start" x="149.5" y="-1019.5" font-family="Helvetica,sans-Serif" font-size="10.00">+ ~SystemData()</text>
<text text-anchor="start" x="149.5" y="-1008.5" font-family="Helvetica,sans-Serif" font-size="10.00">+ initializeData()</text>
<text text-anchor="start" x="149.5" y="-997.5" font-family="Helvetica,sans-Serif" font-size="10.00">+ logData()</text>
<text text-anchor="start" x="149.5" y="-986.5" font-family="Helvetica,sans-Serif" font-size="10.00">+ update()</text>
<text text-anchor="start" x="149.5" y="-975.5" font-family="Helvetica,sans-Serif" font-size="10.00">+ imageSystem()</text>
<text text-anchor="start" x="149.5" y="-964.5" font-family="Helvetica,sans-Serif" font-size="10.00">+ setImageSystem()</text>
<text text-anchor="start" x="149.5" y="-953.5" font-family="Helvetica,sans-Serif" font-size="10.00">+ inputGSDFile()</text>
<text text-anchor="start" x="149.5" y="-942.5" font-family="Helvetica,sans-Serif" font-size="10.00">+ outputDir()</text>
<text text-anchor="start" x="149.5" y="-931.5" font-family="Helvetica,sans-Serif" font-size="10.00">+ setOutputDir()</text>
<text text-anchor="start" x="149.5" y="-920.5" font-family="Helvetica,sans-Serif" font-size="10.00">+ gsdUtil()</text>
<text text-anchor="start" x="149.5" y="-909.5" font-family="Helvetica,sans-Serif" font-size="10.00">+ handle()</text>
<text text-anchor="start" x="149.5" y="-898.5" font-family="Helvetica,sans-Serif" font-size="10.00">+ setReturnVal()</text>
<text text-anchor="start" x="149.5" y="-887.5" font-family="Helvetica,sans-Serif" font-size="10.00">+ returnVal()</text>
<text text-anchor="start" x="149.5" y="-876.5" font-family="Helvetica,sans-Serif" font-size="10.00">+ setReturnBool()</text>
<text text-anchor="start" x="149.5" y="-865.5" font-family="Helvetica,sans-Serif" font-size="10.00">+ returnBool()</text>
<text text-anchor="start" x="149.5" y="-854.5" font-family="Helvetica,sans-Serif" font-size="10.00">+ gSDParsed()</text>
<text text-anchor="start" x="149.5" y="-843.5" font-family="Helvetica,sans-Serif" font-size="10.00">+ sysSpecU0()</text>
<text text-anchor="start" x="149.5" y="-832.5" font-family="Helvetica,sans-Serif" font-size="10.00">+ setSysSpecU0()</text>
<text text-anchor="start" x="149.5" y="-821.5" font-family="Helvetica,sans-Serif" font-size="10.00">+ sysSpecOmega()</text>
<text text-anchor="start" x="149.5" y="-810.5" font-family="Helvetica,sans-Serif" font-size="10.00">+ setSysSpecOmega()</text>
<text text-anchor="start" x="149.5" y="-799.5" font-family="Helvetica,sans-Serif" font-size="10.00">+ sysSpecPhaseShift()</text>
<text text-anchor="start" x="149.5" y="-788.5" font-family="Helvetica,sans-Serif" font-size="10.00">+ setSysSpecPhaseShift()</text>
<text text-anchor="start" x="149.5" y="-777.5" font-family="Helvetica,sans-Serif" font-size="10.00">+ sysSpecRAvg()</text>
<text text-anchor="start" x="149.5" y="-766.5" font-family="Helvetica,sans-Serif" font-size="10.00">+ setSysSpecRAvg()</text>
<text text-anchor="start" x="149.5" y="-755.5" font-family="Helvetica,sans-Serif" font-size="10.00">+ particleTypeId()</text>
<text text-anchor="start" x="149.5" y="-744.5" font-family="Helvetica,sans-Serif" font-size="10.00">+ setParticleTypeId()</text>
<text text-anchor="start" x="149.5" y="-733.5" font-family="Helvetica,sans-Serif" font-size="10.00">+ fluidDensity()</text>
<text text-anchor="start" x="149.5" y="-722.5" font-family="Helvetica,sans-Serif" font-size="10.00">+ setFluidDensity()</text>
<text text-anchor="start" x="149.5" y="-711.5" font-family="Helvetica,sans-Serif" font-size="10.00">+ particleDensity()</text>
<text text-anchor="start" x="149.5" y="-700.5" font-family="Helvetica,sans-Serif" font-size="10.00">+ setParticleDensity()</text>
<text text-anchor="start" x="149.5" y="-689.5" font-family="Helvetica,sans-Serif" font-size="10.00">+ wcaEpsilon()</text>
<text text-anchor="start" x="149.5" y="-678.5" font-family="Helvetica,sans-Serif" font-size="10.00">+ setWcaEpsilon()</text>
<text text-anchor="start" x="149.5" y="-667.5" font-family="Helvetica,sans-Serif" font-size="10.00">+ wcaSigma()</text>
<text text-anchor="start" x="149.5" y="-656.5" font-family="Helvetica,sans-Serif" font-size="10.00">+ setWcaSigma()</text>
<text text-anchor="start" x="149.5" y="-645.5" font-family="Helvetica,sans-Serif" font-size="10.00">+ numSpatialDim()</text>
<text text-anchor="start" x="149.5" y="-634.5" font-family="Helvetica,sans-Serif" font-size="10.00">+ setNumSpatialDim()</text>
<text text-anchor="start" x="149.5" y="-623.5" font-family="Helvetica,sans-Serif" font-size="10.00">+ numParticles()</text>
<text text-anchor="start" x="149.5" y="-612.5" font-family="Helvetica,sans-Serif" font-size="10.00">+ setNumParticles()</text>
<text text-anchor="start" x="149.5" y="-601.5" font-family="Helvetica,sans-Serif" font-size="10.00">+ numBodies()</text>
<text text-anchor="start" x="149.5" y="-590.5" font-family="Helvetica,sans-Serif" font-size="10.00">+ setNumBodies()</text>
<text text-anchor="start" x="149.5" y="-579.5" font-family="Helvetica,sans-Serif" font-size="10.00">+ numDoF()</text>
<text text-anchor="start" x="149.5" y="-568.5" font-family="Helvetica,sans-Serif" font-size="10.00">+ tensI3()</text>
<text text-anchor="start" x="149.5" y="-557.5" font-family="Helvetica,sans-Serif" font-size="10.00">+ i3()</text>
<text text-anchor="start" x="149.5" y="-546.5" font-family="Helvetica,sans-Serif" font-size="10.00">+ dt()</text>
<text text-anchor="start" x="149.5" y="-535.5" font-family="Helvetica,sans-Serif" font-size="10.00">+ setDt()</text>
<text text-anchor="start" x="149.5" y="-524.5" font-family="Helvetica,sans-Serif" font-size="10.00">+ tf()</text>
<text text-anchor="start" x="149.5" y="-513.5" font-family="Helvetica,sans-Serif" font-size="10.00">+ setTf()</text>
<text text-anchor="start" x="149.5" y="-502.5" font-family="Helvetica,sans-Serif" font-size="10.00">+ t()</text>
<text text-anchor="start" x="149.5" y="-491.5" font-family="Helvetica,sans-Serif" font-size="10.00">+ setT()</text>
<text text-anchor="start" x="149.5" y="-480.5" font-family="Helvetica,sans-Serif" font-size="10.00">+ tau()</text>
<text text-anchor="start" x="149.5" y="-469.5" font-family="Helvetica,sans-Serif" font-size="10.00">+ setTau()</text>
<text text-anchor="start" x="149.5" y="-458.5" font-family="Helvetica,sans-Serif" font-size="10.00">+ timestep()</text>
<text text-anchor="start" x="149.5" y="-447.5" font-family="Helvetica,sans-Serif" font-size="10.00">+ setTimestep()</text>
<text text-anchor="start" x="149.5" y="-436.5" font-family="Helvetica,sans-Serif" font-size="10.00">+ numStepsOutput()</text>
<text text-anchor="start" x="149.5" y="-425.5" font-family="Helvetica,sans-Serif" font-size="10.00">+ setNumStepsOutput()</text>
<text text-anchor="start" x="149.5" y="-414.5" font-family="Helvetica,sans-Serif" font-size="10.00">+ positionsBodies()</text>
<text text-anchor="start" x="149.5" y="-403.5" font-family="Helvetica,sans-Serif" font-size="10.00">+ setPositionsBodies()</text>
<text text-anchor="start" x="149.5" y="-392.5" font-family="Helvetica,sans-Serif" font-size="10.00">+ velocitiesBodies()</text>
<text text-anchor="start" x="149.5" y="-381.5" font-family="Helvetica,sans-Serif" font-size="10.00">+ setVelocitiesBodies()</text>
<text text-anchor="start" x="149.5" y="-370.5" font-family="Helvetica,sans-Serif" font-size="10.00">+ accelerationsBodies()</text>
<text text-anchor="start" x="149.5" y="-359.5" font-family="Helvetica,sans-Serif" font-size="10.00">+ setAccelerationsBodies()</text>
<text text-anchor="start" x="149.5" y="-348.5" font-family="Helvetica,sans-Serif" font-size="10.00">+ quaternionsParticles()</text>
<text text-anchor="start" x="149.5" y="-337.5" font-family="Helvetica,sans-Serif" font-size="10.00">+ setQuaternionsParticles()</text>
<text text-anchor="start" x="149.5" y="-326.5" font-family="Helvetica,sans-Serif" font-size="10.00">+ orientationsParticles()</text>
<text text-anchor="start" x="149.5" y="-315.5" font-family="Helvetica,sans-Serif" font-size="10.00">+ setOrientationsParticles()</text>
<text text-anchor="start" x="149.5" y="-304.5" font-family="Helvetica,sans-Serif" font-size="10.00">+ positionsParticles()</text>
<text text-anchor="start" x="149.5" y="-293.5" font-family="Helvetica,sans-Serif" font-size="10.00">+ setPositionsParticles()</text>
<text text-anchor="start" x="149.5" y="-282.5" font-family="Helvetica,sans-Serif" font-size="10.00">+ velocitiesParticles()</text>
<text text-anchor="start" x="149.5" y="-271.5" font-family="Helvetica,sans-Serif" font-size="10.00">+ setVelocitiesParticles()</text>
<text text-anchor="start" x="149.5" y="-260.5" font-family="Helvetica,sans-Serif" font-size="10.00">+ accelerationsParticles()</text>
<text text-anchor="start" x="149.5" y="-249.5" font-family="Helvetica,sans-Serif" font-size="10.00">+ setAccelerationsParticles()</text>
<text text-anchor="start" x="149.5" y="-238.5" font-family="Helvetica,sans-Serif" font-size="10.00">+ velocitiesParticlesArticulation()</text>
<text text-anchor="start" x="149.5" y="-227.5" font-family="Helvetica,sans-Serif" font-size="10.00">+ accelerationsParticlesArticulation()</text>
<text text-anchor="start" x="149.5" y="-216.5" font-family="Helvetica,sans-Serif" font-size="10.00">+ tensZeta()</text>
<text text-anchor="start" x="149.5" y="-205.5" font-family="Helvetica,sans-Serif" font-size="10.00">+ tensGradZeta()</text>
<text text-anchor="start" x="149.5" y="-194.5" font-family="Helvetica,sans-Serif" font-size="10.00">+ tensChi()</text>
<text text-anchor="start" x="149.5" y="-183.5" font-family="Helvetica,sans-Serif" font-size="10.00">+ udwadiaA()</text>
<text text-anchor="start" x="149.5" y="-172.5" font-family="Helvetica,sans-Serif" font-size="10.00">+ udwadiaB()</text>
<text text-anchor="start" x="149.5" y="-161.5" font-family="Helvetica,sans-Serif" font-size="10.00">&#45; parseGSD()</text>
<text text-anchor="start" x="149.5" y="-150.5" font-family="Helvetica,sans-Serif" font-size="10.00">&#45; checkInput()</text>
<text text-anchor="start" x="149.5" y="-139.5" font-family="Helvetica,sans-Serif" font-size="10.00">&#45; positionsArticulation()</text>
<text text-anchor="start" x="149.5" y="-128.5" font-family="Helvetica,sans-Serif" font-size="10.00">&#45; velocitiesArticulation()</text>
<text text-anchor="start" x="149.5" y="-117.5" font-family="Helvetica,sans-Serif" font-size="10.00">&#45; accelerationsArticulation()</text>
<text text-anchor="start" x="149.5" y="-106.5" font-family="Helvetica,sans-Serif" font-size="10.00">&#45; udwadiaLinearSystem()</text>
<text text-anchor="start" x="149.5" y="-95.5" font-family="Helvetica,sans-Serif" font-size="10.00">&#45; rigidBodyMotionTensors()</text>
<text text-anchor="start" x="149.5" y="-84.5" font-family="Helvetica,sans-Serif" font-size="10.00">&#45; gradientChangeOfVariable</text>
<text text-anchor="start" x="149.5" y="-73.5" font-family="Helvetica,sans-Serif" font-size="10.00">Tensors()</text>
<text text-anchor="start" x="149.5" y="-62.5" font-family="Helvetica,sans-Serif" font-size="10.00">&#45; convertBody2ParticleOrient()</text>
<text text-anchor="start" x="149.5" y="-51.5" font-family="Helvetica,sans-Serif" font-size="10.00">&#45; convertBody2ParticlePos()</text>
<text text-anchor="start" x="149.5" y="-40.5" font-family="Helvetica,sans-Serif" font-size="10.00">&#45; convertBody2ParticleVelAcc()</text>
<text text-anchor="start" x="149.5" y="-29.5" font-family="Helvetica,sans-Serif" font-size="10.00">&#45; chiMatrixElement()</text>
<text text-anchor="start" x="149.5" y="-18.5" font-family="Helvetica,sans-Serif" font-size="10.00">&#45; crossProdMat()</text>
<text text-anchor="start" x="149.5" y="-7.5" font-family="Helvetica,sans-Serif" font-size="10.00">&#45; eMatrix()</text>
</a>
</g>
</g>
<!-- Node3&#45;&gt;Node2 -->
<g id="edge2" class="edge">
<title>Node3&#45;&gt;Node2</title>
<path fill="none" stroke="#404040" d="M214.6,-1696.69C213.51,-2030.11 220.33,-2351.22 248.5,-2424 252.36,-2433.98 259.23,-2432.68 264.5,-2442 270.4,-2452.43 274.99,-2464.56 278.46,-2475.92"/>
<polygon fill="none" stroke="#404040" points="278.56,-2476.28 284.03,-2480.98 281.8,-2487.84 276.33,-2483.14 278.56,-2476.28"/>
<text text-anchor="middle" x="226" y="-1850.5" font-family="Helvetica,sans-Serif" font-size="10.00"> +ptr</text>
</g>
<!-- Node4 -->
<g id="node4" class="node">
<title>Node4</title>
<g id="a_node4"><a xlink:title=" ">
<polygon fill="none" stroke="#bfbfbf" points="66,-1744.5 66,-1812.5 201,-1812.5 201,-1744.5 66,-1744.5"/>
<text text-anchor="start" x="74" y="-1800.5" font-family="Helvetica,sans-Serif" font-size="10.00">std::enable_shared</text>
<text text-anchor="middle" x="133.5" y="-1789.5" font-family="Helvetica,sans-Serif" font-size="10.00">_from_this&lt; SystemData &gt;</text>
<polyline fill="none" stroke="#bfbfbf" points="66,-1782.5 201,-1782.5 "/>
<text text-anchor="middle" x="133.5" y="-1770.5" font-family="Helvetica,sans-Serif" font-size="10.00"> </text>
<polyline fill="none" stroke="#bfbfbf" points="66,-1763.5 201,-1763.5 "/>
<text text-anchor="middle" x="133.5" y="-1751.5" font-family="Helvetica,sans-Serif" font-size="10.00"> </text>
</a>
</g>
</g>
<!-- Node4&#45;&gt;Node3 -->
<g id="edge3" class="edge">
<title>Node4&#45;&gt;Node3</title>
<path fill="none" stroke="midnightblue" d="M137.97,-1734.29C139.09,-1723.49 140.39,-1710.89 141.86,-1696.73"/>
<polygon fill="none" stroke="midnightblue" points="134.46,-1734.16 136.92,-1744.47 141.43,-1734.89 134.46,-1734.16"/>
</g>
<!-- Node5 -->
<g id="node5" class="node">
<title>Node5</title>
<g id="a_node5"><a xlink:title=" ">
<polygon fill="none" stroke="#bfbfbf" points="258,-1750 258,-1807 395,-1807 395,-1750 258,-1750"/>
<text text-anchor="middle" x="326.5" y="-1795" font-family="Helvetica,sans-Serif" font-size="10.00">std::shared_ptr&lt; GSDUtil &gt;</text>
<polyline fill="none" stroke="#bfbfbf" points="258,-1788 395,-1788 "/>
<text text-anchor="middle" x="326.5" y="-1776" font-family="Helvetica,sans-Serif" font-size="10.00"> </text>
<polyline fill="none" stroke="#bfbfbf" points="258,-1769 395,-1769 "/>
<text text-anchor="start" x="266" y="-1757" font-family="Helvetica,sans-Serif" font-size="10.00">+ operator&#45;&gt;()</text>
</a>
</g>
</g>
<!-- Node5&#45;&gt;Node3 -->
<g id="edge4" class="edge">
<title>Node5&#45;&gt;Node3</title>
<path fill="none" stroke="#404040" d="M323.62,-1749.98C322.36,-1737.91 320.72,-1722.19 318.76,-1703.48"/>
<polygon fill="none" stroke="#404040" points="318.75,-1703.37 314.15,-1697.82 317.5,-1691.44 322.11,-1696.99 318.75,-1703.37"/>
<text text-anchor="middle" x="347" y="-1718" font-family="Helvetica,sans-Serif" font-size="10.00"> &#45;m_gsdUtil</text>
</g>
<!-- Node6&#45;&gt;Node5 -->
<g id="edge5" class="edge">
<title>Node6&#45;&gt;Node5</title>
<path fill="none" stroke="#404040" d="M320.71,-2052.96C322.35,-1975.68 324.49,-1874.69 325.65,-1819.62"/>
<polygon fill="none" stroke="#404040" points="325.66,-1819.29 321.79,-1813.21 325.91,-1807.29 329.78,-1813.38 325.66,-1819.29"/>
<text text-anchor="middle" x="336" y="-1850.5" font-family="Helvetica,sans-Serif" font-size="10.00"> +ptr</text>
</g>
<!-- Node7 -->
<g id="node7" class="node">
<title>Node7</title>
<g id="a_node7"><a xlink:title="STL class.">
<polygon fill="none" stroke="#bfbfbf" points="17.5,-2488 17.5,-2545 77.5,-2545 77.5,-2488 17.5,-2488"/>
<text text-anchor="middle" x="47.5" y="-2533" font-family="Helvetica,sans-Serif" font-size="10.00">std::string</text>
<polyline fill="none" stroke="#bfbfbf" points="17.5,-2526 77.5,-2526 "/>
<text text-anchor="middle" x="47.5" y="-2514" font-family="Helvetica,sans-Serif" font-size="10.00"> </text>
<polyline fill="none" stroke="#bfbfbf" points="17.5,-2507 77.5,-2507 "/>
<text text-anchor="middle" x="47.5" y="-2495" font-family="Helvetica,sans-Serif" font-size="10.00"> </text>
</a>
</g>
</g>
<!-- Node7&#45;&gt;Node1 -->
<g id="edge16" class="edge">
<title>Node7&#45;&gt;Node1</title>
<path fill="none" stroke="#404040" d="M46.26,-2487.8C46.04,-2473.98 46.41,-2457.04 48.5,-2442 49.11,-2437.59 49.77,-2433.15 50.48,-2428.69"/>
<polygon fill="none" stroke="#404040" points="50.48,-2428.68 47.51,-2422.1 52.44,-2416.84 55.41,-2423.41 50.48,-2428.68"/>
<text text-anchor="middle" x="78" y="-2456" font-family="Helvetica,sans-Serif" font-size="10.00"> &#45;m_logName</text>
<text text-anchor="middle" x="78" y="-2445" font-family="Helvetica,sans-Serif" font-size="10.00">&#45;m_logFile</text>
</g>
<!-- Node7&#45;&gt;Node3 -->
<g id="edge11" class="edge">
<title>Node7&#45;&gt;Node3</title>
<path fill="none" stroke="#404040" d="M44.97,-2487.99C44.36,-2480.24 43.8,-2471.8 43.5,-2464 33.67,-2210.41 32.46,-2146.54 43.5,-1893 53.34,-1667.01 96.62,-1417.45 138.95,-1219.06"/>
<polygon fill="none" stroke="#404040" points="138.96,-1219 136.31,-1212.29 141.48,-1207.26 144.13,-1213.97 138.96,-1219"/>
<text text-anchor="middle" x="84.5" y="-1867" font-family="Helvetica,sans-Serif" font-size="10.00"> &#45;m_outputDir</text>
<text text-anchor="middle" x="84.5" y="-1856" font-family="Helvetica,sans-Serif" font-size="10.00">&#45;m_logName</text>
<text text-anchor="middle" x="84.5" y="-1845" font-family="Helvetica,sans-Serif" font-size="10.00">&#45;m_logFile</text>
<text text-anchor="middle" x="84.5" y="-1834" font-family="Helvetica,sans-Serif" font-size="10.00">&#45;m_inputGSDFile</text>
</g>
<!-- Node7&#45;&gt;Node6 -->
<g id="edge7" class="edge">
<title>Node7&#45;&gt;Node6</title>
<path fill="none" stroke="#404040" d="M77.61,-2510.14C107.15,-2503.58 152.07,-2489.98 182.5,-2464 238.77,-2415.96 272.75,-2340 292.68,-2275.97"/>
<polygon fill="none" stroke="#404040" points="292.77,-2275.65 290.67,-2268.75 296.23,-2264.16 298.33,-2271.06 292.77,-2275.65"/>
<text text-anchor="middle" x="232" y="-2456" font-family="Helvetica,sans-Serif" font-size="10.00"> &#45;m_logName</text>
<text text-anchor="middle" x="232" y="-2445" font-family="Helvetica,sans-Serif" font-size="10.00">&#45;m_logFile</text>
</g>
<!-- Node8 -->
<g id="node8" class="node">
<title>Node8</title>
<g id="a_node8"><a xlink:title="STL class.">
<polygon fill="none" stroke="#bfbfbf" points="0,-2598.5 0,-2666.5 95,-2666.5 95,-2598.5 0,-2598.5"/>
<text text-anchor="start" x="8" y="-2654.5" font-family="Helvetica,sans-Serif" font-size="10.00">std::basic_string&lt;</text>
<text text-anchor="middle" x="47.5" y="-2643.5" font-family="Helvetica,sans-Serif" font-size="10.00"> char &gt;</text>
<polyline fill="none" stroke="#bfbfbf" points="0,-2636.5 95,-2636.5 "/>
<text text-anchor="middle" x="47.5" y="-2624.5" font-family="Helvetica,sans-Serif" font-size="10.00"> </text>
<polyline fill="none" stroke="#bfbfbf" points="0,-2617.5 95,-2617.5 "/>
<text text-anchor="middle" x="47.5" y="-2605.5" font-family="Helvetica,sans-Serif" font-size="10.00"> </text>
</a>
</g>
</g>
<!-- Node8&#45;&gt;Node7 -->
<g id="edge8" class="edge">
<title>Node8&#45;&gt;Node7</title>
<path fill="none" stroke="midnightblue" d="M47.5,-2588.03C47.5,-2573.67 47.5,-2558.1 47.5,-2545.24"/>
<polygon fill="none" stroke="midnightblue" points="44,-2588.22 47.5,-2598.22 51,-2588.22 44,-2588.22"/>
</g>
<!-- Node9 -->
<g id="node9" class="node">
<title>Node9</title>
<g id="a_node9"><a xlink:title="STL class.">
<polygon fill="none" stroke="#bfbfbf" points="355,-2604 355,-2661 460,-2661 460,-2604 355,-2604"/>
<text text-anchor="middle" x="407.5" y="-2649" font-family="Helvetica,sans-Serif" font-size="10.00">std::shared_ptr&lt; T &gt;</text>
<polyline fill="none" stroke="#bfbfbf" points="355,-2642 460,-2642 "/>
<text text-anchor="middle" x="407.5" y="-2630" font-family="Helvetica,sans-Serif" font-size="10.00"> </text>
<polyline fill="none" stroke="#bfbfbf" points="355,-2623 460,-2623 "/>
<text text-anchor="start" x="363" y="-2611" font-family="Helvetica,sans-Serif" font-size="10.00">+ operator&#45;&gt;()</text>
</a>
</g>
</g>
<!-- Node9&#45;&gt;Node2 -->
<g id="edge15" class="edge">
<title>Node9&#45;&gt;Node2</title>
<path fill="none" stroke="orange" d="M345.92,-2603C335.62,-2596.43 325.64,-2588.75 317.5,-2580 308.32,-2570.13 301.43,-2556.93 296.58,-2545.21"/>
<polygon fill="orange" stroke="orange" points="344.26,-2606.08 354.63,-2608.26 347.88,-2600.09 344.26,-2606.08"/>
<text text-anchor="middle" x="355.5" y="-2572" font-family="Helvetica,sans-Serif" font-size="10.00"> &lt; SystemData &gt;</text>
</g>
<!-- Node9&#45;&gt;Node5 -->
<g id="edge9" class="edge">
<title>Node9&#45;&gt;Node5</title>
<path fill="none" stroke="orange" d="M408.86,-2593.6C413.23,-2462.22 424.56,-2027.01 388.5,-1893 380.04,-1861.56 361.27,-1829.32 346.59,-1807.28"/>
<polygon fill="orange" stroke="orange" points="405.35,-2593.84 408.51,-2603.95 412.35,-2594.07 405.35,-2593.84"/>
<text text-anchor="middle" x="442.5" y="-2450.5" font-family="Helvetica,sans-Serif" font-size="10.00"> &lt; GSDUtil &gt;</text>
</g>
<!-- Node11 -->
<g id="node11" class="node">
<title>Node11</title>
<g id="a_node11"><a xlink:title=" ">
<polygon fill="none" stroke="#bfbfbf" points="436,-2482.5 436,-2550.5 543,-2550.5 543,-2482.5 436,-2482.5"/>
<text text-anchor="start" x="444" y="-2538.5" font-family="Helvetica,sans-Serif" font-size="10.00">std::shared_ptr&lt; gsd</text>
<text text-anchor="middle" x="489.5" y="-2527.5" font-family="Helvetica,sans-Serif" font-size="10.00">_handle &gt;</text>
<polyline fill="none" stroke="#bfbfbf" points="436,-2520.5 543,-2520.5 "/>
<text text-anchor="middle" x="489.5" y="-2508.5" font-family="Helvetica,sans-Serif" font-size="10.00"> </text>
<polyline fill="none" stroke="#bfbfbf" points="436,-2501.5 543,-2501.5 "/>
<text text-anchor="middle" x="489.5" y="-2489.5" font-family="Helvetica,sans-Serif" font-size="10.00"> </text>
</a>
</g>
</g>
<!-- Node9&#45;&gt;Node11 -->
<g id="edge14" class="edge">
<title>Node9&#45;&gt;Node11</title>
<path fill="none" stroke="orange" d="M422.61,-2594.63C426.88,-2585.9 431.91,-2576.85 437.5,-2569 442,-2562.69 447.3,-2556.46 452.78,-2550.63"/>
<polygon fill="orange" stroke="orange" points="419.34,-2593.37 418.29,-2603.91 425.68,-2596.33 419.34,-2593.37"/>
<text text-anchor="middle" x="473" y="-2572" font-family="Helvetica,sans-Serif" font-size="10.00"> &lt; gsd_handle &gt;</text>
</g>
<!-- Node10 -->
<g id="node10" class="node">
<title>Node10</title>
<g id="a_node10"><a xlink:title=" ">
<polygon fill="none" stroke="#bfbfbf" points="393,-2714.5 393,-2771.5 422,-2771.5 422,-2714.5 393,-2714.5"/>
<text text-anchor="middle" x="407.5" y="-2759.5" font-family="Helvetica,sans-Serif" font-size="10.00">T</text>
<polyline fill="none" stroke="#bfbfbf" points="393,-2752.5 422,-2752.5 "/>
<text text-anchor="middle" x="407.5" y="-2740.5" font-family="Helvetica,sans-Serif" font-size="10.00"> </text>
<polyline fill="none" stroke="#bfbfbf" points="393,-2733.5 422,-2733.5 "/>
<text text-anchor="middle" x="407.5" y="-2721.5" font-family="Helvetica,sans-Serif" font-size="10.00"> </text>
</a>
</g>
</g>
<!-- Node10&#45;&gt;Node9 -->
<g id="edge10" class="edge">
<title>Node10&#45;&gt;Node9</title>
<path fill="none" stroke="#404040" d="M407.5,-2714.34C407.5,-2701.84 407.5,-2686.84 407.5,-2673.18"/>
<polygon fill="none" stroke="#404040" points="407.5,-2673.11 403.5,-2667.11 407.5,-2661.11 411.5,-2667.11 407.5,-2673.11"/>
<text text-anchor="middle" x="418" y="-2688" font-family="Helvetica,sans-Serif" font-size="10.00"> +ptr</text>
</g>
<!-- Node11&#45;&gt;Node3 -->
<g id="edge12" class="edge">
<title>Node11&#45;&gt;Node3</title>
<path fill="none" stroke="#404040" d="M486.77,-2482.29C477.74,-2375.04 446.94,-2028.44 403.5,-1744 380.13,-1590.97 349.2,-1424.24 319.91,-1276.64"/>
<polygon fill="none" stroke="#404040" points="319.87,-1276.46 314.78,-1271.36 317.53,-1264.69 322.63,-1269.8 319.87,-1276.46"/>
<text text-anchor="middle" x="447" y="-1850.5" font-family="Helvetica,sans-Serif" font-size="10.00"> &#45;m_handle</text>
</g>
<!-- Node12 -->
<g id="node12" class="node">
<title>Node12</title>
<g id="a_node12"><a xlink:title=" ">
<polygon fill="none" stroke="#bfbfbf" points="501.5,-2604 501.5,-2661 567.5,-2661 567.5,-2604 501.5,-2604"/>
<text text-anchor="middle" x="534.5" y="-2649" font-family="Helvetica,sans-Serif" font-size="10.00">gsd_handle</text>
<polyline fill="none" stroke="#bfbfbf" points="501.5,-2642 567.5,-2642 "/>
<text text-anchor="middle" x="534.5" y="-2630" font-family="Helvetica,sans-Serif" font-size="10.00"> </text>
<polyline fill="none" stroke="#bfbfbf" points="501.5,-2623 567.5,-2623 "/>
<text text-anchor="middle" x="534.5" y="-2611" font-family="Helvetica,sans-Serif" font-size="10.00"> </text>
</a>
</g>
</g>
<!-- Node12&#45;&gt;Node11 -->
<g id="edge13" class="edge">
<title>Node12&#45;&gt;Node11</title>
<path fill="none" stroke="#404040" d="M525.34,-2603.94C521.56,-2592.99 517.01,-2580.33 512.5,-2569 511.57,-2566.65 510.59,-2564.26 509.58,-2561.85"/>
<polygon fill="none" stroke="#404040" points="509.48,-2561.6 503.44,-2557.67 504.75,-2550.57 510.79,-2554.51 509.48,-2561.6"/>
<text text-anchor="middle" x="527" y="-2572" font-family="Helvetica,sans-Serif" font-size="10.00"> +ptr</text>
</g>
</g>
</svg>
