<?xml version="1.0" encoding="UTF-8" standalone="no"?>
<!DOCTYPE svg PUBLIC "-//W3C//DTD SVG 1.1//EN"
 "http://www.w3.org/Graphics/SVG/1.1/DTD/svg11.dtd">
<!-- Generated by graphviz version 2.43.0 (0)
 -->
<!-- Title: SystemData::update Pages: 1 -->
<svg width="685pt" height="411pt"
 viewBox="0.00 0.00 685.00 410.50" xmlns="http://www.w3.org/2000/svg" xmlns:xlink="http://www.w3.org/1999/xlink">
<g id="graph0" class="graph" transform="scale(1 1) rotate(0) translate(4 406.5)">
<title>SystemData::update</title>
<!-- Node1 -->
<g id="node1" class="node">
<title>Node1</title>
<g id="a_node1"><a xlink:title="Updates all relevant rigid body motion tensors, respective gradients, and kinematic/Udwadia constrain...">
<polygon fill="#bfbfbf" stroke="black" points="0,-181.5 0,-200.5 107,-200.5 107,-181.5 0,-181.5"/>
<text text-anchor="middle" x="53.5" y="-188.5" font-family="Helvetica,sans-Serif" font-size="10.00">SystemData::update</text>
</a>
</g>
</g>
<!-- Node2 -->
<g id="node2" class="node">
<title>Node2</title>
<g id="a_node2"><a xlink:href="classSystemData.html#a188c38c8448ed32d3cf697b6f07b9d6a" target="_top" xlink:title="Computes the articulation (linear) accelerations of the particles relative to their respective locate...">
<polygon fill="none" stroke="black" points="159,-372 159,-402 294,-402 294,-372 159,-372"/>
<text text-anchor="start" x="167" y="-390" font-family="Helvetica,sans-Serif" font-size="10.00">SystemData::accelerations</text>
<text text-anchor="middle" x="226.5" y="-379" font-family="Helvetica,sans-Serif" font-size="10.00">Articulation</text>
</a>
</g>
</g>
<!-- Node1&#45;&gt;Node2 -->
<g id="edge1" class="edge">
<title>Node1&#45;&gt;Node2</title>
<path fill="none" stroke="midnightblue" d="M56.67,-200.9C63.66,-230.31 88.32,-317.93 143,-363 145.06,-364.7 147.25,-366.28 149.51,-367.75"/>
<polygon fill="midnightblue" stroke="midnightblue" points="148.22,-371.04 158.66,-372.88 151.65,-364.94 148.22,-371.04"/>
</g>
<!-- Node3 -->
<g id="node3" class="node">
<title>Node3</title>
<g id="a_node3"><a xlink:href="classSystemData.html#a000a3e77f12b4c1bc9678e9ede202f83" target="_top" xlink:title="Computes the orientation (unit vector) of a particle with respect to its locater point.">
<polygon fill="none" stroke="black" points="158,-323 158,-353 295,-353 295,-323 158,-323"/>
<text text-anchor="start" x="166" y="-341" font-family="Helvetica,sans-Serif" font-size="10.00">SystemData::convertBody2</text>
<text text-anchor="middle" x="226.5" y="-330" font-family="Helvetica,sans-Serif" font-size="10.00">ParticleOrient</text>
</a>
</g>
</g>
<!-- Node1&#45;&gt;Node3 -->
<g id="edge2" class="edge">
<title>Node1&#45;&gt;Node3</title>
<path fill="none" stroke="midnightblue" d="M58.7,-200.67C69.29,-223.9 99.38,-283.18 143,-314 145.13,-315.51 147.36,-316.92 149.66,-318.24"/>
<polygon fill="midnightblue" stroke="midnightblue" points="148.32,-321.49 158.82,-322.93 151.51,-315.26 148.32,-321.49"/>
</g>
<!-- Node6 -->
<g id="node6" class="node">
<title>Node6</title>
<g id="a_node6"><a xlink:href="classSystemData.html#a3edab27c866d9031739a8bd3b09bac42" target="_top" xlink:title="Computes the positions of all particles from given locater positions and body orientations.">
<polygon fill="none" stroke="black" points="158,-274 158,-304 295,-304 295,-274 158,-274"/>
<text text-anchor="start" x="166" y="-292" font-family="Helvetica,sans-Serif" font-size="10.00">SystemData::convertBody2</text>
<text text-anchor="middle" x="226.5" y="-281" font-family="Helvetica,sans-Serif" font-size="10.00">ParticlePos</text>
</a>
</g>
</g>
<!-- Node1&#45;&gt;Node6 -->
<g id="edge5" class="edge">
<title>Node1&#45;&gt;Node6</title>
<path fill="none" stroke="midnightblue" d="M63.36,-200.64C78.3,-216.35 110.13,-247.48 143,-265 146.46,-266.84 150.07,-268.56 153.77,-270.16"/>
<polygon fill="midnightblue" stroke="midnightblue" points="152.54,-273.43 163.13,-273.89 155.13,-266.93 152.54,-273.43"/>
</g>
<!-- Node7 -->
<g id="node7" class="node">
<title>Node7</title>
<g id="a_node7"><a xlink:href="classSystemData.html#a7da2011ba5d866e5338b14e8b04ace70" target="_top" xlink:title="Computes the particle D.o.F. from the body D.o.F.">
<polygon fill="none" stroke="black" points="158,-225 158,-255 295,-255 295,-225 158,-225"/>
<text text-anchor="start" x="166" y="-243" font-family="Helvetica,sans-Serif" font-size="10.00">SystemData::convertBody2</text>
<text text-anchor="middle" x="226.5" y="-232" font-family="Helvetica,sans-Serif" font-size="10.00">ParticleVelAcc</text>
</a>
</g>
</g>
<!-- Node1&#45;&gt;Node7 -->
<g id="edge6" class="edge">
<title>Node1&#45;&gt;Node7</title>
<path fill="none" stroke="midnightblue" d="M87.88,-200.56C109.34,-206.71 137.88,-214.89 163.41,-222.21"/>
<polygon fill="midnightblue" stroke="midnightblue" points="162.45,-225.57 173.02,-224.96 164.38,-218.84 162.45,-225.57"/>
</g>
<!-- Node11 -->
<g id="node11" class="node">
<title>Node11</title>
<g id="a_node11"><a xlink:href="classSystemData.html#a301fa1815b3b68cffc789f1824e29f5e" target="_top" xlink:title="Computes the gradients rigid body motion connectivity tensors and tensors associated with change of v...">
<polygon fill="none" stroke="black" points="153.5,-176 153.5,-206 299.5,-206 299.5,-176 153.5,-176"/>
<text text-anchor="start" x="161.5" y="-194" font-family="Helvetica,sans-Serif" font-size="10.00">SystemData::gradientChange</text>
<text text-anchor="middle" x="226.5" y="-183" font-family="Helvetica,sans-Serif" font-size="10.00">OfVariableTensors</text>
</a>
</g>
</g>
<!-- Node1&#45;&gt;Node11 -->
<g id="edge10" class="edge">
<title>Node1&#45;&gt;Node11</title>
<path fill="none" stroke="midnightblue" d="M107.2,-191C118.62,-191 130.97,-191 143.22,-191"/>
<polygon fill="midnightblue" stroke="midnightblue" points="143.48,-194.5 153.48,-191 143.48,-187.5 143.48,-194.5"/>
</g>
<!-- Node15 -->
<g id="node15" class="node">
<title>Node15</title>
<g id="a_node15"><a xlink:href="classSystemData.html#a30df4f73d78f6886da32559eda83595d" target="_top" xlink:title="Computes the articulation (linear) positions of the particles relative to their respective locater po...">
<polygon fill="none" stroke="black" points="144,-88.5 144,-107.5 309,-107.5 309,-88.5 144,-88.5"/>
<text text-anchor="middle" x="226.5" y="-95.5" font-family="Helvetica,sans-Serif" font-size="10.00">SystemData::positionsArticulation</text>
</a>
</g>
</g>
<!-- Node1&#45;&gt;Node15 -->
<g id="edge16" class="edge">
<title>Node1&#45;&gt;Node15</title>
<path fill="none" stroke="midnightblue" d="M63.3,-181.33C78.16,-165.6 109.87,-134.57 143,-118 148.71,-115.14 154.85,-112.68 161.11,-110.56"/>
<polygon fill="midnightblue" stroke="midnightblue" points="162.48,-113.8 171,-107.51 160.41,-107.12 162.48,-113.8"/>
</g>
<!-- Node16 -->
<g id="node16" class="node">
<title>Node16</title>
<g id="a_node16"><a xlink:href="classSystemData.html#ae08b2263f2981e57d0f12ba7881a083b" target="_top" xlink:title="Computes the rigid body motion connectivity tensors.">
<polygon fill="none" stroke="black" points="153,-127 153,-157 300,-157 300,-127 153,-127"/>
<text text-anchor="start" x="161" y="-145" font-family="Helvetica,sans-Serif" font-size="10.00">SystemData::rigidBodyMotion</text>
<text text-anchor="middle" x="226.5" y="-134" font-family="Helvetica,sans-Serif" font-size="10.00">Tensors</text>
</a>
</g>
</g>
<!-- Node1&#45;&gt;Node16 -->
<g id="edge17" class="edge">
<title>Node1&#45;&gt;Node16</title>
<path fill="none" stroke="midnightblue" d="M87.88,-181.44C109.34,-175.29 137.88,-167.11 163.41,-159.79"/>
<polygon fill="midnightblue" stroke="midnightblue" points="164.38,-163.16 173.02,-157.04 162.45,-156.43 164.38,-163.16"/>
</g>
<!-- Node20 -->
<g id="node20" class="node">
<title>Node20</title>
<g id="a_node20"><a xlink:href="classSystemData.html#ad1a6489951a00124901c1947381a9be8" target="_top" xlink:title="Computes the Udwadia constraint matrix and vector to uphold the quaternion unitary norm for each body...">
<polygon fill="none" stroke="black" points="156.5,-39 156.5,-69 296.5,-69 296.5,-39 156.5,-39"/>
<text text-anchor="start" x="164.5" y="-57" font-family="Helvetica,sans-Serif" font-size="10.00">SystemData::udwadiaLinear</text>
<text text-anchor="middle" x="226.5" y="-46" font-family="Helvetica,sans-Serif" font-size="10.00">System</text>
</a>
</g>
</g>
<!-- Node1&#45;&gt;Node20 -->
<g id="edge23" class="edge">
<title>Node1&#45;&gt;Node20</title>
<path fill="none" stroke="midnightblue" d="M59.47,-181.27C71.06,-159.57 102.04,-106.91 143,-79 145.93,-77 149.03,-75.16 152.24,-73.46"/>
<polygon fill="midnightblue" stroke="midnightblue" points="153.99,-76.5 161.52,-69.04 150.99,-70.18 153.99,-76.5"/>
</g>
<!-- Node21 -->
<g id="node21" class="node">
<title>Node21</title>
<g id="a_node21"><a xlink:href="classSystemData.html#a92ce50a4c8b53aa6a490153c1b09ab8a" target="_top" xlink:title="Computes the articulation (linear) velocities of the particles relative to their respective locater p...">
<polygon fill="none" stroke="black" points="143,-0.5 143,-19.5 310,-19.5 310,-0.5 143,-0.5"/>
<text text-anchor="middle" x="226.5" y="-7.5" font-family="Helvetica,sans-Serif" font-size="10.00">SystemData::velocitiesArticulation</text>
</a>
</g>
</g>
<!-- Node1&#45;&gt;Node21 -->
<g id="edge24" class="edge">
<title>Node1&#45;&gt;Node21</title>
<path fill="none" stroke="midnightblue" d="M56.85,-181.13C64.17,-152.62 89.36,-69.65 143,-29 145.36,-27.21 147.86,-25.58 150.47,-24.11"/>
<polygon fill="midnightblue" stroke="midnightblue" points="152.19,-27.16 159.66,-19.64 149.14,-20.86 152.19,-27.16"/>
</g>
<!-- Node4 -->
<g id="node4" class="node">
<title>Node4</title>
<g id="a_node4"><a xlink:href="helper__math_8h.html#ae4378072f9d836b0d4770a1514db2be3" target="_top" xlink:title=" ">
<polygon fill="none" stroke="black" points="408.5,-334.5 408.5,-353.5 440.5,-353.5 440.5,-334.5 408.5,-334.5"/>
<text text-anchor="middle" x="424.5" y="-341.5" font-family="Helvetica,sans-Serif" font-size="10.00">abs</text>
</a>
</g>
</g>
<!-- Node3&#45;&gt;Node4 -->
<g id="edge3" class="edge">
<title>Node3&#45;&gt;Node4</title>
<path fill="none" stroke="midnightblue" d="M295.23,-340.07C330.86,-341.16 372.41,-342.44 398.34,-343.23"/>
<polygon fill="midnightblue" stroke="midnightblue" points="398.33,-346.73 408.43,-343.54 398.54,-339.73 398.33,-346.73"/>
</g>
<!-- Node5 -->
<g id="node5" class="node">
<title>Node5</title>
<g id="a_node5"><a xlink:href="helper__math_8h.html#a3be05aff487ded3c05aab21d24dd6439" target="_top" xlink:title=" ">
<polygon fill="none" stroke="black" points="577,-334.5 577,-353.5 639,-353.5 639,-334.5 577,-334.5"/>
<text text-anchor="middle" x="608" y="-341.5" font-family="Helvetica,sans-Serif" font-size="10.00">make_int2</text>
</a>
</g>
</g>
<!-- Node4&#45;&gt;Node5 -->
<g id="edge4" class="edge">
<title>Node4&#45;&gt;Node5</title>
<path fill="none" stroke="midnightblue" d="M440.66,-344C468.11,-344 526.89,-344 566.69,-344"/>
<polygon fill="midnightblue" stroke="midnightblue" points="566.87,-347.5 576.87,-344 566.87,-340.5 566.87,-347.5"/>
</g>
<!-- Node8 -->
<g id="node8" class="node">
<title>Node8</title>
<g id="a_node8"><a xlink:href="helper__eigenTensorConversion_8hpp.html#a556d08b55a6ad7cd703b6db06194e5cf" target="_top" xlink:title=" ">
<polygon fill="none" stroke="black" points="392,-296.5 392,-315.5 457,-315.5 457,-296.5 392,-296.5"/>
<text text-anchor="middle" x="424.5" y="-303.5" font-family="Helvetica,sans-Serif" font-size="10.00">MatrixCast</text>
</a>
</g>
</g>
<!-- Node7&#45;&gt;Node8 -->
<g id="edge7" class="edge">
<title>Node7&#45;&gt;Node8</title>
<path fill="none" stroke="midnightblue" d="M281.14,-255C290.83,-258.07 300.78,-261.45 310,-265 326.51,-271.36 329.51,-275.59 346,-282 357.59,-286.51 370.4,-290.76 382.22,-294.4"/>
<polygon fill="midnightblue" stroke="midnightblue" points="381.27,-297.77 391.86,-297.3 383.29,-291.06 381.27,-297.77"/>
</g>
<!-- Node10 -->
<g id="node10" class="node">
<title>Node10</title>
<g id="a_node10"><a xlink:href="helper__eigenTensorConversion_8hpp.html#a3a32f7de3f099464192073a93b34d580" target="_top" xlink:title="Convert Eigen::Matrix &#45;&#45;&gt; Eigen::Tensor.">
<polygon fill="none" stroke="black" points="574.5,-198.5 574.5,-217.5 641.5,-217.5 641.5,-198.5 574.5,-198.5"/>
<text text-anchor="middle" x="608" y="-205.5" font-family="Helvetica,sans-Serif" font-size="10.00">TensorCast</text>
</a>
</g>
</g>
<!-- Node7&#45;&gt;Node10 -->
<g id="edge9" class="edge">
<title>Node7&#45;&gt;Node10</title>
<path fill="none" stroke="midnightblue" d="M295.05,-238.84C350.94,-237.33 432.32,-233.88 503,-226 523.28,-223.74 545.6,-220.04 564.35,-216.58"/>
<polygon fill="midnightblue" stroke="midnightblue" points="565.18,-219.98 574.36,-214.69 563.88,-213.1 565.18,-219.98"/>
</g>
<!-- Node9 -->
<g id="node9" class="node">
<title>Node9</title>
<g id="a_node9"><a xlink:href="helper__eigenTensorConversion_8hpp.html#a2a7eca6b17fb874869047bd0b5f11b46" target="_top" xlink:title="Convert between Eigen::Tensor and Eigen::Matrix classes.">
<polygon fill="none" stroke="black" points="584.5,-296.5 584.5,-315.5 631.5,-315.5 631.5,-296.5 584.5,-296.5"/>
<text text-anchor="middle" x="608" y="-303.5" font-family="Helvetica,sans-Serif" font-size="10.00">asEval</text>
</a>
</g>
</g>
<!-- Node8&#45;&gt;Node9 -->
<g id="edge8" class="edge">
<title>Node8&#45;&gt;Node9</title>
<path fill="none" stroke="midnightblue" d="M457.11,-306C489.92,-306 541,-306 574.23,-306"/>
<polygon fill="midnightblue" stroke="midnightblue" points="574.35,-309.5 584.35,-306 574.35,-302.5 574.35,-309.5"/>
</g>
<!-- Node11&#45;&gt;Node10 -->
<g id="edge15" class="edge">
<title>Node11&#45;&gt;Node10</title>
<path fill="none" stroke="midnightblue" d="M299.64,-205.15C314.89,-207.59 330.93,-209.74 346,-211 415.53,-216.83 433.23,-212.01 503,-211 523.12,-210.71 545.41,-210.1 564.19,-209.51"/>
<polygon fill="midnightblue" stroke="midnightblue" points="564.34,-213.01 574.22,-209.19 564.11,-206.01 564.34,-213.01"/>
</g>
<!-- Node12 -->
<g id="node12" class="node">
<title>Node12</title>
<g id="a_node12"><a xlink:href="classSystemData.html#a230548cc624444a66137b8d5ecaf5716" target="_top" xlink:title="Computes \chi_{i \alpha} matrix for given particle number and body number. chi matrix represents the ...">
<polygon fill="none" stroke="black" points="348,-94.5 348,-113.5 501,-113.5 501,-94.5 348,-94.5"/>
<text text-anchor="middle" x="424.5" y="-101.5" font-family="Helvetica,sans-Serif" font-size="10.00">SystemData::chiMatrixElement</text>
</a>
</g>
</g>
<!-- Node11&#45;&gt;Node12 -->
<g id="edge11" class="edge">
<title>Node11&#45;&gt;Node12</title>
<path fill="none" stroke="midnightblue" d="M285.32,-175.97C293.71,-173.28 302.15,-170.27 310,-167 342.54,-153.44 377.7,-132.92 400.12,-119.02"/>
<polygon fill="midnightblue" stroke="midnightblue" points="402.01,-121.96 408.62,-113.68 398.29,-116.03 402.01,-121.96"/>
</g>
<!-- Node14 -->
<g id="node14" class="node">
<title>Node14</title>
<g id="a_node14"><a xlink:href="classSystemData.html#aeaaa2fb7779cd160ab4d90f6f1659aae" target="_top" xlink:title="Computes \nabla_{\xi} \zeta_{i \alpha} tensor for given particle number and body number.">
<polygon fill="none" stroke="black" points="352,-171 352,-201 497,-201 497,-171 352,-171"/>
<text text-anchor="start" x="360" y="-189" font-family="Helvetica,sans-Serif" font-size="10.00">SystemData::gradZetaTensor</text>
<text text-anchor="middle" x="424.5" y="-178" font-family="Helvetica,sans-Serif" font-size="10.00">Element</text>
</a>
</g>
</g>
<!-- Node11&#45;&gt;Node14 -->
<g id="edge13" class="edge">
<title>Node11&#45;&gt;Node14</title>
<path fill="none" stroke="midnightblue" d="M299.65,-189.16C313.35,-188.81 327.78,-188.44 341.75,-188.09"/>
<polygon fill="midnightblue" stroke="midnightblue" points="341.92,-191.58 351.83,-187.83 341.75,-184.58 341.92,-191.58"/>
</g>
<!-- Node13 -->
<g id="node13" class="node">
<title>Node13</title>
<g id="a_node13"><a xlink:href="classSystemData.html#a7cefde66d9e18e2517f11505dd434d0e" target="_top" xlink:title="Function takes in vector in vector cross&#45;product expression: .">
<polygon fill="none" stroke="black" points="539,-75.5 539,-94.5 677,-94.5 677,-75.5 539,-75.5"/>
<text text-anchor="middle" x="608" y="-82.5" font-family="Helvetica,sans-Serif" font-size="10.00">SystemData::crossProdMat</text>
</a>
</g>
</g>
<!-- Node12&#45;&gt;Node13 -->
<g id="edge12" class="edge">
<title>Node12&#45;&gt;Node13</title>
<path fill="none" stroke="midnightblue" d="M501.16,-96.08C510.27,-95.13 519.6,-94.15 528.75,-93.19"/>
<polygon fill="midnightblue" stroke="midnightblue" points="529.41,-96.64 538.99,-92.12 528.68,-89.68 529.41,-96.64"/>
</g>
<!-- Node14&#45;&gt;Node10 -->
<g id="edge14" class="edge">
<title>Node14&#45;&gt;Node10</title>
<path fill="none" stroke="midnightblue" d="M497.23,-194.69C519.85,-197.44 544.11,-200.38 564.06,-202.8"/>
<polygon fill="midnightblue" stroke="midnightblue" points="563.72,-206.28 574.07,-204.01 564.56,-199.33 563.72,-206.28"/>
</g>
<!-- Node16&#45;&gt;Node10 -->
<g id="edge22" class="edge">
<title>Node16&#45;&gt;Node10</title>
<path fill="none" stroke="midnightblue" d="M300.21,-140.53C356.38,-141 435.65,-145.2 503,-162 530.95,-168.97 560.82,-182.94 581.34,-193.66"/>
<polygon fill="midnightblue" stroke="midnightblue" points="579.88,-196.85 590.35,-198.47 583.18,-190.67 579.88,-196.85"/>
</g>
<!-- Node17 -->
<g id="node17" class="node">
<title>Node17</title>
<g id="a_node17"><a xlink:href="classSystemData.html#aaf73d6b07c3852c18831d8ab983b384f" target="_top" xlink:title="Computes \Psi matrix for given body number. \Psi matrix represents the transformation of coordinates ...">
<polygon fill="none" stroke="black" points="348,-18.5 348,-37.5 501,-37.5 501,-18.5 348,-18.5"/>
<text text-anchor="middle" x="424.5" y="-25.5" font-family="Helvetica,sans-Serif" font-size="10.00">SystemData::psiMatrixElement</text>
</a>
</g>
</g>
<!-- Node16&#45;&gt;Node17 -->
<g id="edge18" class="edge">
<title>Node16&#45;&gt;Node17</title>
<path fill="none" stroke="midnightblue" d="M294.77,-126.83C300.23,-124.08 305.4,-120.83 310,-117 336.87,-94.6 318.54,-68.67 346,-47 348.29,-45.19 350.74,-43.55 353.29,-42.06"/>
<polygon fill="midnightblue" stroke="midnightblue" points="354.92,-45.16 362.32,-37.57 351.8,-38.89 354.92,-45.16"/>
</g>
<!-- Node19 -->
<g id="node19" class="node">
<title>Node19</title>
<g id="a_node19"><a xlink:href="classSystemData.html#a70d2ff9a6173fcd9f30e8dc6324e8414" target="_top" xlink:title="Computes \Sigma_{i \alpha} matrix for given particle number and body number. Sigma matrix represents ...">
<polygon fill="none" stroke="black" points="346,-56.5 346,-75.5 503,-75.5 503,-56.5 346,-56.5"/>
<text text-anchor="middle" x="424.5" y="-63.5" font-family="Helvetica,sans-Serif" font-size="10.00">SystemData::rbmMatrixElement</text>
</a>
</g>
</g>
<!-- Node16&#45;&gt;Node19 -->
<g id="edge20" class="edge">
<title>Node16&#45;&gt;Node19</title>
<path fill="none" stroke="midnightblue" d="M288.24,-126.92C295.77,-124.09 303.21,-120.8 310,-117 328.68,-106.54 327.05,-94.95 346,-85 350.48,-82.65 355.27,-80.58 360.18,-78.76"/>
<polygon fill="midnightblue" stroke="midnightblue" points="361.35,-82.06 369.72,-75.56 359.12,-75.42 361.35,-82.06"/>
</g>
<!-- Node18 -->
<g id="node18" class="node">
<title>Node18</title>
<g id="a_node18"><a xlink:href="classSystemData.html#ad58491f39fe352229da5494878b88911" target="_top" xlink:title="Computes the E matrix of quaternion (4&#45;vector) input.">
<polygon fill="none" stroke="black" points="553,-18.5 553,-37.5 663,-37.5 663,-18.5 553,-18.5"/>
<text text-anchor="middle" x="608" y="-25.5" font-family="Helvetica,sans-Serif" font-size="10.00">SystemData::eMatrix</text>
</a>
</g>
</g>
<!-- Node17&#45;&gt;Node18 -->
<g id="edge19" class="edge">
<title>Node17&#45;&gt;Node18</title>
<path fill="none" stroke="midnightblue" d="M501.16,-28C514.96,-28 529.23,-28 542.66,-28"/>
<polygon fill="midnightblue" stroke="midnightblue" points="542.74,-31.5 552.74,-28 542.74,-24.5 542.74,-31.5"/>
</g>
<!-- Node19&#45;&gt;Node13 -->
<g id="edge21" class="edge">
<title>Node19&#45;&gt;Node13</title>
<path fill="none" stroke="midnightblue" d="M503.26,-74.14C511.68,-75.02 520.24,-75.92 528.66,-76.8"/>
<polygon fill="midnightblue" stroke="midnightblue" points="528.53,-80.3 538.84,-77.86 529.26,-73.34 528.53,-80.3"/>
</g>
</g>
</svg>
