<?xml version="1.0" encoding="UTF-8" standalone="no"?>
<!DOCTYPE svg PUBLIC "-//W3C//DTD SVG 1.1//EN"
 "http://www.w3.org/Graphics/SVG/1.1/DTD/svg11.dtd">
<!-- Generated by graphviz version 2.43.0 (0)
 -->
<!-- Title: SystemData::gradientChangeOfVariableTensors Pages: 1 -->
<svg width="534pt" height="113pt"
 viewBox="0.00 0.00 534.00 113.00" xmlns="http://www.w3.org/2000/svg" xmlns:xlink="http://www.w3.org/1999/xlink">
<g id="graph0" class="graph" transform="scale(1 1) rotate(0) translate(4 109)">
<title>SystemData::gradientChangeOfVariableTensors</title>
<!-- Node1 -->
<g id="node1" class="node">
<title>Node1</title>
<g id="a_node1"><a xlink:title="Computes the gradients rigid body motion connectivity tensors and tensors associated with change of v...">
<polygon fill="#bfbfbf" stroke="black" points="0,-36 0,-66 146,-66 146,-36 0,-36"/>
<text text-anchor="start" x="8" y="-54" font-family="Helvetica,sans-Serif" font-size="10.00">SystemData::gradientChange</text>
<text text-anchor="middle" x="73" y="-43" font-family="Helvetica,sans-Serif" font-size="10.00">OfVariableTensors</text>
</a>
</g>
</g>
<!-- Node2 -->
<g id="node2" class="node">
<title>Node2</title>
<g id="a_node2"><a xlink:href="classSystemData.html#a230548cc624444a66137b8d5ecaf5716" target="_top" xlink:title="Computes \chi_{i \alpha} matrix for given particle number and body number. chi matrix represents the ...">
<polygon fill="none" stroke="black" points="190.5,-85.5 190.5,-104.5 343.5,-104.5 343.5,-85.5 190.5,-85.5"/>
<text text-anchor="middle" x="267" y="-92.5" font-family="Helvetica,sans-Serif" font-size="10.00">SystemData::chiMatrixElement</text>
</a>
</g>
</g>
<!-- Node1&#45;&gt;Node2 -->
<g id="edge1" class="edge">
<title>Node1&#45;&gt;Node2</title>
<path fill="none" stroke="midnightblue" d="M138.81,-66.06C153.03,-69.35 168.02,-72.8 182,-76 192.27,-78.35 203.25,-80.85 213.78,-83.23"/>
<polygon fill="midnightblue" stroke="midnightblue" points="213.16,-86.68 223.69,-85.47 214.71,-79.85 213.16,-86.68"/>
</g>
<!-- Node3 -->
<g id="node3" class="node">
<title>Node3</title>
<g id="a_node3"><a xlink:href="classSystemData.html#a95b4afa16b44bb89aac9e8ef9e64845b" target="_top" xlink:title="Computes \nabla_{\xi} \Sigma_{i \alpha} tensor for given particle number and body number.">
<polygon fill="none" stroke="black" points="182,-36 182,-66 352,-66 352,-36 182,-36"/>
<text text-anchor="start" x="190" y="-54" font-family="Helvetica,sans-Serif" font-size="10.00">SystemData::gradRbmConnTensor</text>
<text text-anchor="middle" x="267" y="-43" font-family="Helvetica,sans-Serif" font-size="10.00">Element</text>
</a>
</g>
</g>
<!-- Node1&#45;&gt;Node3 -->
<g id="edge2" class="edge">
<title>Node1&#45;&gt;Node3</title>
<path fill="none" stroke="midnightblue" d="M146.04,-51C154.45,-51 163.13,-51 171.78,-51"/>
<polygon fill="midnightblue" stroke="midnightblue" points="171.92,-54.5 181.92,-51 171.92,-47.5 171.92,-54.5"/>
</g>
<!-- Node5 -->
<g id="node5" class="node">
<title>Node5</title>
<g id="a_node5"><a xlink:href="helper__eigenTensorConversion_8hpp.html#a3a32f7de3f099464192073a93b34d580" target="_top" xlink:title="Convert Eigen::Matrix &#45;&#45;&gt; Eigen::Tensor.">
<polygon fill="none" stroke="black" points="423.5,-0.5 423.5,-19.5 490.5,-19.5 490.5,-0.5 423.5,-0.5"/>
<text text-anchor="middle" x="457" y="-7.5" font-family="Helvetica,sans-Serif" font-size="10.00">TensorCast</text>
</a>
</g>
</g>
<!-- Node1&#45;&gt;Node5 -->
<g id="edge5" class="edge">
<title>Node1&#45;&gt;Node5</title>
<path fill="none" stroke="midnightblue" d="M130.83,-35.95C147.24,-32.12 165.24,-28.41 182,-26 263.14,-14.33 358.96,-11.12 413.09,-10.27"/>
<polygon fill="midnightblue" stroke="midnightblue" points="413.39,-13.76 423.34,-10.13 413.3,-6.76 413.39,-13.76"/>
</g>
<!-- Node4 -->
<g id="node4" class="node">
<title>Node4</title>
<g id="a_node4"><a xlink:href="classSystemData.html#a7cefde66d9e18e2517f11505dd434d0e" target="_top" xlink:title="Function takes in vector in vector cross&#45;product expression: .">
<polygon fill="none" stroke="black" points="388,-41.5 388,-60.5 526,-60.5 526,-41.5 388,-41.5"/>
<text text-anchor="middle" x="457" y="-48.5" font-family="Helvetica,sans-Serif" font-size="10.00">SystemData::crossProdMat</text>
</a>
</g>
</g>
<!-- Node3&#45;&gt;Node4 -->
<g id="edge3" class="edge">
<title>Node3&#45;&gt;Node4</title>
<path fill="none" stroke="midnightblue" d="M352.1,-51C360.58,-51 369.17,-51 377.59,-51"/>
<polygon fill="midnightblue" stroke="midnightblue" points="377.75,-54.5 387.75,-51 377.75,-47.5 377.75,-54.5"/>
</g>
<!-- Node3&#45;&gt;Node5 -->
<g id="edge4" class="edge">
<title>Node3&#45;&gt;Node5</title>
<path fill="none" stroke="midnightblue" d="M336.94,-35.97C362.56,-30.38 390.87,-24.2 413.45,-19.28"/>
<polygon fill="midnightblue" stroke="midnightblue" points="414.37,-22.66 423.4,-17.11 412.88,-15.82 414.37,-22.66"/>
</g>
</g>
</svg>
