<?xml version="1.0" encoding="UTF-8" standalone="no"?>
<!DOCTYPE svg PUBLIC "-//W3C//DTD SVG 1.1//EN"
 "http://www.w3.org/Graphics/SVG/1.1/DTD/svg11.dtd">
<!-- Generated by graphviz version 2.49.1 (20210923.0004)
 -->
<!-- Title: systemData::initializeData Pages: 1 -->
<svg width="672pt" height="358pt"
 viewBox="0.00 0.00 672.00 358.00" xmlns="http://www.w3.org/2000/svg" xmlns:xlink="http://www.w3.org/1999/xlink">
<g id="graph0" class="graph" transform="scale(1 1) rotate(0) translate(4 354)">
<title>systemData::initializeData</title>
<!-- Node1 -->
<g id="node1" class="node">
<title>Node1</title>
<g id="a_node1"><a xlink:title="Function loads data from GSD file using GSDUtil class.">
<polygon fill="#bfbfbf" stroke="black" points="0,-212.5 0,-231.5 132,-231.5 132,-212.5 0,-212.5"/>
<text text-anchor="middle" x="66" y="-219.5" font-family="Helvetica,sans-Serif" font-size="10.00">systemData::initializeData</text>
</a>
</g>
</g>
<!-- Node2 -->
<g id="node2" class="node">
<title>Node2</title>
<g id="a_node2"><a xlink:href="classsystemData.html#a74a503e80869c3ef4a9b6edefd132726" target="_top" xlink:title=" ">
<polygon fill="none" stroke="black" points="168,-280.5 168,-299.5 290,-299.5 290,-280.5 168,-280.5"/>
<text text-anchor="middle" x="229" y="-287.5" font-family="Helvetica,sans-Serif" font-size="10.00">systemData::parseGSD</text>
</a>
</g>
</g>
<!-- Node1&#45;&gt;Node2 -->
<g id="edge1" class="edge">
<title>Node1&#45;&gt;Node2</title>
<path fill="none" stroke="midnightblue" d="M89.73,-231.6C117.41,-243.29 164.37,-263.13 195.78,-276.39"/>
<polygon fill="midnightblue" stroke="midnightblue" points="194.82,-279.78 205.39,-280.45 197.54,-273.34 194.82,-279.78"/>
</g>
<!-- Node4 -->
<g id="node4" class="node">
<title>Node4</title>
<g id="a_node4"><a xlink:href="classsystemData.html#abe08e8ef40710f40f585342d24076085" target="_top" xlink:title="Updates all relevant rigid body motion tensors, respective gradients, and kinematic/Udwadia constrain...">
<polygon fill="none" stroke="black" points="176.5,-193.5 176.5,-212.5 281.5,-212.5 281.5,-193.5 176.5,-193.5"/>
<text text-anchor="middle" x="229" y="-200.5" font-family="Helvetica,sans-Serif" font-size="10.00">systemData::update</text>
</a>
</g>
</g>
<!-- Node1&#45;&gt;Node4 -->
<g id="edge3" class="edge">
<title>Node1&#45;&gt;Node4</title>
<path fill="none" stroke="midnightblue" d="M132.02,-214.33C143.25,-213 154.89,-211.63 166.03,-210.31"/>
<polygon fill="midnightblue" stroke="midnightblue" points="166.58,-213.77 176.1,-209.13 165.75,-206.82 166.58,-213.77"/>
</g>
<!-- Node3 -->
<g id="node3" class="node">
<title>Node3</title>
<g id="a_node3"><a xlink:href="classsystemData.html#a3f978844a3292e9ca096be6741c48dc2" target="_top" xlink:title=" ">
<polygon fill="none" stroke="black" points="347,-330.5 347,-349.5 470,-349.5 470,-330.5 347,-330.5"/>
<text text-anchor="middle" x="408.5" y="-337.5" font-family="Helvetica,sans-Serif" font-size="10.00">systemData::checkInput</text>
</a>
</g>
</g>
<!-- Node2&#45;&gt;Node3 -->
<g id="edge2" class="edge">
<title>Node2&#45;&gt;Node3</title>
<path fill="none" stroke="midnightblue" d="M257.54,-299.57C276.63,-306.03 302.71,-314.54 326,-321 334.84,-323.45 344.28,-325.85 353.49,-328.08"/>
<polygon fill="midnightblue" stroke="midnightblue" points="352.8,-331.51 363.34,-330.41 354.42,-324.7 352.8,-331.51"/>
</g>
<!-- Node5 -->
<g id="node5" class="node">
<title>Node5</title>
<g id="a_node5"><a xlink:href="classsystemData.html#ac981cce9f038194aea9f48f57252ca7b" target="_top" xlink:title=" ">
<polygon fill="none" stroke="black" points="341.5,-144 341.5,-174 475.5,-174 475.5,-144 341.5,-144"/>
<text text-anchor="start" x="349.5" y="-162" font-family="Helvetica,sans-Serif" font-size="10.00">systemData::accelerations</text>
<text text-anchor="middle" x="408.5" y="-151" font-family="Helvetica,sans-Serif" font-size="10.00">Articulation</text>
</a>
</g>
</g>
<!-- Node4&#45;&gt;Node5 -->
<g id="edge4" class="edge">
<title>Node4&#45;&gt;Node5</title>
<path fill="none" stroke="midnightblue" d="M268.51,-193.45C288.5,-188.5 313.55,-182.29 336.86,-176.51"/>
<polygon fill="midnightblue" stroke="midnightblue" points="337.86,-179.87 346.72,-174.07 336.18,-173.07 337.86,-179.87"/>
</g>
<!-- Node6 -->
<g id="node6" class="node">
<title>Node6</title>
<g id="a_node6"><a xlink:href="classsystemData.html#a3c41026c4b66d4f6e6e22a6398c6ced8" target="_top" xlink:title=" ">
<polygon fill="none" stroke="black" points="335.5,-95 335.5,-125 481.5,-125 481.5,-95 335.5,-95"/>
<text text-anchor="start" x="343.5" y="-113" font-family="Helvetica,sans-Serif" font-size="10.00">systemData::gradientChange</text>
<text text-anchor="middle" x="408.5" y="-102" font-family="Helvetica,sans-Serif" font-size="10.00">OfVariableTensors</text>
</a>
</g>
</g>
<!-- Node4&#45;&gt;Node6 -->
<g id="edge5" class="edge">
<title>Node4&#45;&gt;Node6</title>
<path fill="none" stroke="midnightblue" d="M241.07,-193.35C258.19,-178.85 292.64,-151.4 326,-135 330.61,-132.73 335.47,-130.62 340.43,-128.66"/>
<polygon fill="midnightblue" stroke="midnightblue" points="341.89,-131.85 350.05,-125.09 339.45,-125.29 341.89,-131.85"/>
</g>
<!-- Node9 -->
<g id="node9" class="node">
<title>Node9</title>
<g id="a_node9"><a xlink:href="classsystemData.html#ab3fc7f3cc4c79bbad6e9bb73e127e8c3" target="_top" xlink:title=" ">
<polygon fill="none" stroke="black" points="344.5,-281 344.5,-311 472.5,-311 472.5,-281 344.5,-281"/>
<text text-anchor="start" x="352.5" y="-299" font-family="Helvetica,sans-Serif" font-size="10.00">systemData::locaterPoint</text>
<text text-anchor="middle" x="408.5" y="-288" font-family="Helvetica,sans-Serif" font-size="10.00">Locations</text>
</a>
</g>
</g>
<!-- Node4&#45;&gt;Node9 -->
<g id="edge8" class="edge">
<title>Node4&#45;&gt;Node9</title>
<path fill="none" stroke="midnightblue" d="M240.74,-212.61C257.7,-227.33 292.26,-255.5 326,-272 329.98,-273.95 334.16,-275.77 338.42,-277.47"/>
<polygon fill="midnightblue" stroke="midnightblue" points="337.26,-280.77 347.85,-280.99 339.7,-274.21 337.26,-280.77"/>
</g>
<!-- Node10 -->
<g id="node10" class="node">
<title>Node10</title>
<g id="a_node10"><a xlink:href="classsystemData.html#a05afc9e7e7423d88def51ec43ab91a33" target="_top" xlink:title=" ">
<polygon fill="none" stroke="black" points="335,-46 335,-76 482,-76 482,-46 335,-46"/>
<text text-anchor="start" x="343" y="-64" font-family="Helvetica,sans-Serif" font-size="10.00">systemData::rigidBodyMotion</text>
<text text-anchor="middle" x="408.5" y="-53" font-family="Helvetica,sans-Serif" font-size="10.00">Tensors</text>
</a>
</g>
</g>
<!-- Node4&#45;&gt;Node10 -->
<g id="edge9" class="edge">
<title>Node4&#45;&gt;Node10</title>
<path fill="none" stroke="midnightblue" d="M235.32,-193.19C247.97,-170.76 282.13,-115.41 326,-86 329.07,-83.94 332.32,-82.05 335.67,-80.3"/>
<polygon fill="midnightblue" stroke="midnightblue" points="337.21,-83.45 344.79,-76.04 334.24,-77.11 337.21,-83.45"/>
</g>
<!-- Node13 -->
<g id="node13" class="node">
<title>Node13</title>
<g id="a_node13"><a xlink:href="classsystemData.html#aaf3a4980d7dc49d7339a828ed95ee4d6" target="_top" xlink:title=" ">
<polygon fill="none" stroke="black" points="338.5,-232 338.5,-262 478.5,-262 478.5,-232 338.5,-232"/>
<text text-anchor="start" x="346.5" y="-250" font-family="Helvetica,sans-Serif" font-size="10.00">systemData::udwadiaLinear</text>
<text text-anchor="middle" x="408.5" y="-239" font-family="Helvetica,sans-Serif" font-size="10.00">System</text>
</a>
</g>
</g>
<!-- Node4&#45;&gt;Node13 -->
<g id="edge14" class="edge">
<title>Node4&#45;&gt;Node13</title>
<path fill="none" stroke="midnightblue" d="M268.51,-212.55C288.5,-217.5 313.55,-223.71 336.86,-229.49"/>
<polygon fill="midnightblue" stroke="midnightblue" points="336.18,-232.93 346.72,-231.93 337.86,-226.13 336.18,-232.93"/>
</g>
<!-- Node14 -->
<g id="node14" class="node">
<title>Node14</title>
<g id="a_node14"><a xlink:href="classsystemData.html#a6bd16f2dd99236594ce5b12cd2cab57a" target="_top" xlink:title=" ">
<polygon fill="none" stroke="black" points="326,-193.5 326,-212.5 491,-212.5 491,-193.5 326,-193.5"/>
<text text-anchor="middle" x="408.5" y="-200.5" font-family="Helvetica,sans-Serif" font-size="10.00">systemData::velocitiesArticulation</text>
</a>
</g>
</g>
<!-- Node4&#45;&gt;Node14 -->
<g id="edge15" class="edge">
<title>Node4&#45;&gt;Node14</title>
<path fill="none" stroke="midnightblue" d="M281.82,-203C292.5,-203 304.06,-203 315.68,-203"/>
<polygon fill="midnightblue" stroke="midnightblue" points="315.89,-206.5 325.89,-203 315.89,-199.5 315.89,-206.5"/>
</g>
<!-- Node7 -->
<g id="node7" class="node">
<title>Node7</title>
<g id="a_node7"><a xlink:href="classsystemData.html#a19a83a255eb6f1de4bcfe2ea8e31ffa9" target="_top" xlink:title="Computes the E matrix of quaternion (4&#45;vector) input.">
<polygon fill="none" stroke="black" points="541.5,-114.5 541.5,-133.5 649.5,-133.5 649.5,-114.5 541.5,-114.5"/>
<text text-anchor="middle" x="595.5" y="-121.5" font-family="Helvetica,sans-Serif" font-size="10.00">systemData::eMatrix</text>
</a>
</g>
</g>
<!-- Node6&#45;&gt;Node7 -->
<g id="edge6" class="edge">
<title>Node6&#45;&gt;Node7</title>
<path fill="none" stroke="midnightblue" d="M481.56,-115.45C497.87,-116.69 515.07,-117.99 531,-119.19"/>
<polygon fill="midnightblue" stroke="midnightblue" points="531.03,-122.71 541.26,-119.97 531.55,-115.73 531.03,-122.71"/>
</g>
<!-- Node8 -->
<g id="node8" class="node">
<title>Node8</title>
<g id="a_node8"><a xlink:href="helper__eigenTensorConversion_8hpp.html#a556fb613b733267c9404648bc66bd0bd" target="_top" xlink:title="Convert Eigen::Matrix &#45;&#45;&gt; Eigen::Tensor.">
<polygon fill="none" stroke="black" points="562,-76.5 562,-95.5 629,-95.5 629,-76.5 562,-76.5"/>
<text text-anchor="middle" x="595.5" y="-83.5" font-family="Helvetica,sans-Serif" font-size="10.00">TensorCast</text>
</a>
</g>
</g>
<!-- Node6&#45;&gt;Node8 -->
<g id="edge7" class="edge">
<title>Node6&#45;&gt;Node8</title>
<path fill="none" stroke="midnightblue" d="M481.56,-100.65C505.34,-97.57 531.02,-94.24 551.87,-91.53"/>
<polygon fill="midnightblue" stroke="midnightblue" points="552.53,-94.97 561.99,-90.22 551.63,-88.03 552.53,-94.97"/>
</g>
<!-- Node10&#45;&gt;Node7 -->
<g id="edge11" class="edge">
<title>Node10&#45;&gt;Node7</title>
<path fill="none" stroke="midnightblue" d="M463.93,-76.13C473.07,-79.12 482.38,-82.44 491,-86 507.72,-92.91 510.2,-98.29 527,-105 532.86,-107.34 539.12,-109.51 545.37,-111.49"/>
<polygon fill="midnightblue" stroke="midnightblue" points="544.54,-114.9 555.13,-114.43 546.56,-108.19 544.54,-114.9"/>
</g>
<!-- Node10&#45;&gt;Node8 -->
<g id="edge13" class="edge">
<title>Node10&#45;&gt;Node8</title>
<path fill="none" stroke="midnightblue" d="M482.09,-70.81C505.64,-73.99 531,-77.42 551.67,-80.21"/>
<polygon fill="midnightblue" stroke="midnightblue" points="551.33,-83.7 561.71,-81.57 552.26,-76.76 551.33,-83.7"/>
</g>
<!-- Node11 -->
<g id="node11" class="node">
<title>Node11</title>
<g id="a_node11"><a xlink:href="classsystemData.html#a0a77c933b764fb36c64ec5e66011482c" target="_top" xlink:title="Function takes in vector in vector cross&#45;product expression: .">
<polygon fill="none" stroke="black" points="527,-38.5 527,-57.5 664,-57.5 664,-38.5 527,-38.5"/>
<text text-anchor="middle" x="595.5" y="-45.5" font-family="Helvetica,sans-Serif" font-size="10.00">systemData::crossProdMat</text>
</a>
</g>
</g>
<!-- Node10&#45;&gt;Node11 -->
<g id="edge10" class="edge">
<title>Node10&#45;&gt;Node11</title>
<path fill="none" stroke="midnightblue" d="M482.09,-55.9C493.52,-55.1 505.37,-54.26 516.91,-53.45"/>
<polygon fill="midnightblue" stroke="midnightblue" points="517.22,-56.94 526.95,-52.75 516.73,-49.96 517.22,-56.94"/>
</g>
<!-- Node12 -->
<g id="node12" class="node">
<title>Node12</title>
<g id="a_node12"><a xlink:href="classsystemData.html#af8b45529ed83e00cf9c2848b0a03b5e0" target="_top" xlink:title=" ">
<polygon fill="none" stroke="black" points="554,-0.5 554,-19.5 637,-19.5 637,-0.5 554,-0.5"/>
<text text-anchor="middle" x="595.5" y="-7.5" font-family="Helvetica,sans-Serif" font-size="10.00">systemData::i3</text>
</a>
</g>
</g>
<!-- Node10&#45;&gt;Node12 -->
<g id="edge12" class="edge">
<title>Node10&#45;&gt;Node12</title>
<path fill="none" stroke="midnightblue" d="M464.01,-45.97C491.39,-38.43 524.14,-29.4 549.99,-22.27"/>
<polygon fill="midnightblue" stroke="midnightblue" points="551.18,-25.57 559.89,-19.54 549.32,-18.83 551.18,-25.57"/>
</g>
</g>
</svg>
