<?xml version="1.0" encoding="UTF-8" standalone="no"?>
<!DOCTYPE svg PUBLIC "-//W3C//DTD SVG 1.1//EN"
 "http://www.w3.org/Graphics/SVG/1.1/DTD/svg11.dtd">
<!-- Generated by graphviz version 2.43.0 (0)
 -->
<!-- Title: systemData::initializeData Pages: 1 -->
<svg width="673pt" height="358pt"
 viewBox="0.00 0.00 673.00 358.00" xmlns="http://www.w3.org/2000/svg" xmlns:xlink="http://www.w3.org/1999/xlink">
<g id="graph0" class="graph" transform="scale(1 1) rotate(0) translate(4 354)">
<title>systemData::initializeData</title>
<!-- Node1 -->
<g id="node1" class="node">
<title>Node1</title>
<g id="a_node1"><a xlink:title="Function loads data from GSD file using GSDUtil class.">
<polygon fill="#bfbfbf" stroke="black" points="0,-212.5 0,-231.5 132,-231.5 132,-212.5 0,-212.5"/>
<text text-anchor="middle" x="66" y="-219.5" font-family="Helvetica,sans-Serif" font-size="10.00">systemData::initializeData</text>
</a>
</g>
</g>
<!-- Node2 -->
<g id="node2" class="node">
<title>Node2</title>
<g id="a_node2"><a xlink:href="classsystemData.html#a74a503e80869c3ef4a9b6edefd132726" target="_top" xlink:title=" ">
<polygon fill="none" stroke="black" points="168,-280.5 168,-299.5 290,-299.5 290,-280.5 168,-280.5"/>
<text text-anchor="middle" x="229" y="-287.5" font-family="Helvetica,sans-Serif" font-size="10.00">systemData::parseGSD</text>
</a>
</g>
</g>
<!-- Node1&#45;&gt;Node2 -->
<g id="edge1" class="edge">
<title>Node1&#45;&gt;Node2</title>
<path fill="none" stroke="midnightblue" d="M89.73,-231.6C117.41,-243.29 164.37,-263.13 195.78,-276.39"/>
<polygon fill="midnightblue" stroke="midnightblue" points="194.82,-279.78 205.39,-280.45 197.54,-273.34 194.82,-279.78"/>
</g>
<!-- Node4 -->
<g id="node4" class="node">
<title>Node4</title>
<g id="a_node4"><a xlink:href="classsystemData.html#abe08e8ef40710f40f585342d24076085" target="_top" xlink:title="Updates all relevant rigid body motion tensors, respective gradients, and kinematic/Udwadia constrain...">
<polygon fill="none" stroke="black" points="176.5,-193.5 176.5,-212.5 281.5,-212.5 281.5,-193.5 176.5,-193.5"/>
<text text-anchor="middle" x="229" y="-200.5" font-family="Helvetica,sans-Serif" font-size="10.00">systemData::update</text>
</a>
</g>
</g>
<!-- Node1&#45;&gt;Node4 -->
<g id="edge3" class="edge">
<title>Node1&#45;&gt;Node4</title>
<path fill="none" stroke="midnightblue" d="M132.02,-214.33C143.25,-213 154.89,-211.63 166.03,-210.31"/>
<polygon fill="midnightblue" stroke="midnightblue" points="166.58,-213.77 176.1,-209.13 165.75,-206.82 166.58,-213.77"/>
</g>
<!-- Node3 -->
<g id="node3" class="node">
<title>Node3</title>
<g id="a_node3"><a xlink:href="classsystemData.html#a3f978844a3292e9ca096be6741c48dc2" target="_top" xlink:title=" ">
<polygon fill="none" stroke="black" points="347,-330.5 347,-349.5 471,-349.5 471,-330.5 347,-330.5"/>
<text text-anchor="middle" x="409" y="-337.5" font-family="Helvetica,sans-Serif" font-size="10.00">systemData::checkInput</text>
</a>
</g>
</g>
<!-- Node2&#45;&gt;Node3 -->
<g id="edge2" class="edge">
<title>Node2&#45;&gt;Node3</title>
<path fill="none" stroke="midnightblue" d="M257.54,-299.58C276.63,-306.05 302.71,-314.55 326,-321 334.89,-323.46 344.39,-325.87 353.65,-328.09"/>
<polygon fill="midnightblue" stroke="midnightblue" points="353.03,-331.54 363.57,-330.43 354.64,-324.73 353.03,-331.54"/>
</g>
<!-- Node5 -->
<g id="node5" class="node">
<title>Node5</title>
<g id="a_node5"><a xlink:href="classsystemData.html#ac981cce9f038194aea9f48f57252ca7b" target="_top" xlink:title=" ">
<polygon fill="none" stroke="black" points="342,-144 342,-174 476,-174 476,-144 342,-144"/>
<text text-anchor="start" x="350" y="-162" font-family="Helvetica,sans-Serif" font-size="10.00">systemData::accelerations</text>
<text text-anchor="middle" x="409" y="-151" font-family="Helvetica,sans-Serif" font-size="10.00">Articulation</text>
</a>
</g>
</g>
<!-- Node4&#45;&gt;Node5 -->
<g id="edge4" class="edge">
<title>Node4&#45;&gt;Node5</title>
<path fill="none" stroke="midnightblue" d="M268.62,-193.45C288.66,-188.5 313.79,-182.29 337.16,-176.51"/>
<polygon fill="midnightblue" stroke="midnightblue" points="338.19,-179.86 347.05,-174.07 336.51,-173.07 338.19,-179.86"/>
</g>
<!-- Node6 -->
<g id="node6" class="node">
<title>Node6</title>
<g id="a_node6"><a xlink:href="classsystemData.html#a3c41026c4b66d4f6e6e22a6398c6ced8" target="_top" xlink:title=" ">
<polygon fill="none" stroke="black" points="337,-95 337,-125 481,-125 481,-95 337,-95"/>
<text text-anchor="start" x="345" y="-113" font-family="Helvetica,sans-Serif" font-size="10.00">systemData::gradientChange</text>
<text text-anchor="middle" x="409" y="-102" font-family="Helvetica,sans-Serif" font-size="10.00">OfVariableTensors</text>
</a>
</g>
</g>
<!-- Node4&#45;&gt;Node6 -->
<g id="edge5" class="edge">
<title>Node4&#45;&gt;Node6</title>
<path fill="none" stroke="midnightblue" d="M241.06,-193.34C258.19,-178.83 292.63,-151.37 326,-135 330.64,-132.72 335.53,-130.6 340.52,-128.64"/>
<polygon fill="midnightblue" stroke="midnightblue" points="342.03,-131.81 350.19,-125.06 339.6,-125.25 342.03,-131.81"/>
</g>
<!-- Node9 -->
<g id="node9" class="node">
<title>Node9</title>
<g id="a_node9"><a xlink:href="classsystemData.html#ab3fc7f3cc4c79bbad6e9bb73e127e8c3" target="_top" xlink:title=" ">
<polygon fill="none" stroke="black" points="345,-281 345,-311 473,-311 473,-281 345,-281"/>
<text text-anchor="start" x="353" y="-299" font-family="Helvetica,sans-Serif" font-size="10.00">systemData::locaterPoint</text>
<text text-anchor="middle" x="409" y="-288" font-family="Helvetica,sans-Serif" font-size="10.00">Locations</text>
</a>
</g>
</g>
<!-- Node4&#45;&gt;Node9 -->
<g id="edge8" class="edge">
<title>Node4&#45;&gt;Node9</title>
<path fill="none" stroke="midnightblue" d="M240.73,-212.61C257.69,-227.35 292.24,-255.53 326,-272 329.82,-273.87 333.82,-275.62 337.9,-277.25"/>
<polygon fill="midnightblue" stroke="midnightblue" points="336.95,-280.63 347.55,-280.86 339.41,-274.08 336.95,-280.63"/>
</g>
<!-- Node10 -->
<g id="node10" class="node">
<title>Node10</title>
<g id="a_node10"><a xlink:href="classsystemData.html#a05afc9e7e7423d88def51ec43ab91a33" target="_top" xlink:title=" ">
<polygon fill="none" stroke="black" points="336,-46 336,-76 482,-76 482,-46 336,-46"/>
<text text-anchor="start" x="344" y="-64" font-family="Helvetica,sans-Serif" font-size="10.00">systemData::rigidBodyMotion</text>
<text text-anchor="middle" x="409" y="-53" font-family="Helvetica,sans-Serif" font-size="10.00">Tensors</text>
</a>
</g>
</g>
<!-- Node4&#45;&gt;Node10 -->
<g id="edge9" class="edge">
<title>Node4&#45;&gt;Node10</title>
<path fill="none" stroke="midnightblue" d="M235.31,-193.19C247.96,-170.75 282.11,-115.37 326,-86 329.09,-83.93 332.35,-82.03 335.73,-80.28"/>
<polygon fill="midnightblue" stroke="midnightblue" points="337.32,-83.4 344.9,-76 334.36,-77.06 337.32,-83.4"/>
</g>
<!-- Node13 -->
<g id="node13" class="node">
<title>Node13</title>
<g id="a_node13"><a xlink:href="classsystemData.html#aaf3a4980d7dc49d7339a828ed95ee4d6" target="_top" xlink:title=" ">
<polygon fill="none" stroke="black" points="340,-232 340,-262 478,-262 478,-232 340,-232"/>
<text text-anchor="start" x="348" y="-250" font-family="Helvetica,sans-Serif" font-size="10.00">systemData::udwadiaLinear</text>
<text text-anchor="middle" x="409" y="-239" font-family="Helvetica,sans-Serif" font-size="10.00">System</text>
</a>
</g>
</g>
<!-- Node4&#45;&gt;Node13 -->
<g id="edge14" class="edge">
<title>Node4&#45;&gt;Node13</title>
<path fill="none" stroke="midnightblue" d="M268.62,-212.55C288.66,-217.5 313.79,-223.71 337.16,-229.49"/>
<polygon fill="midnightblue" stroke="midnightblue" points="336.51,-232.93 347.05,-231.93 338.19,-226.14 336.51,-232.93"/>
</g>
<!-- Node14 -->
<g id="node14" class="node">
<title>Node14</title>
<g id="a_node14"><a xlink:href="classsystemData.html#a6bd16f2dd99236594ce5b12cd2cab57a" target="_top" xlink:title=" ">
<polygon fill="none" stroke="black" points="326,-193.5 326,-212.5 492,-212.5 492,-193.5 326,-193.5"/>
<text text-anchor="middle" x="409" y="-200.5" font-family="Helvetica,sans-Serif" font-size="10.00">systemData::velocitiesArticulation</text>
</a>
</g>
</g>
<!-- Node4&#45;&gt;Node14 -->
<g id="edge15" class="edge">
<title>Node4&#45;&gt;Node14</title>
<path fill="none" stroke="midnightblue" d="M281.96,-203C292.6,-203 304.09,-203 315.66,-203"/>
<polygon fill="midnightblue" stroke="midnightblue" points="315.83,-206.5 325.83,-203 315.83,-199.5 315.83,-206.5"/>
</g>
<!-- Node7 -->
<g id="node7" class="node">
<title>Node7</title>
<g id="a_node7"><a xlink:href="classsystemData.html#a19a83a255eb6f1de4bcfe2ea8e31ffa9" target="_top" xlink:title="Computes the E matrix of quaternion (4&#45;vector) input.">
<polygon fill="none" stroke="black" points="542.5,-114.5 542.5,-133.5 650.5,-133.5 650.5,-114.5 542.5,-114.5"/>
<text text-anchor="middle" x="596.5" y="-121.5" font-family="Helvetica,sans-Serif" font-size="10.00">systemData::eMatrix</text>
</a>
</g>
</g>
<!-- Node6&#45;&gt;Node7 -->
<g id="edge6" class="edge">
<title>Node6&#45;&gt;Node7</title>
<path fill="none" stroke="midnightblue" d="M481.19,-115.37C498.03,-116.64 515.87,-117.99 532.32,-119.23"/>
<polygon fill="midnightblue" stroke="midnightblue" points="532.13,-122.73 542.37,-119.99 532.66,-115.75 532.13,-122.73"/>
</g>
<!-- Node8 -->
<g id="node8" class="node">
<title>Node8</title>
<g id="a_node8"><a xlink:href="helper__eigenTensorConversion_8hpp.html#a3a32f7de3f099464192073a93b34d580" target="_top" xlink:title="Convert Eigen::Matrix &#45;&#45;&gt; Eigen::Tensor.">
<polygon fill="none" stroke="black" points="563,-76.5 563,-95.5 630,-95.5 630,-76.5 563,-76.5"/>
<text text-anchor="middle" x="596.5" y="-83.5" font-family="Helvetica,sans-Serif" font-size="10.00">TensorCast</text>
</a>
</g>
</g>
<!-- Node6&#45;&gt;Node8 -->
<g id="edge7" class="edge">
<title>Node6&#45;&gt;Node8</title>
<path fill="none" stroke="midnightblue" d="M481.19,-100.79C505.25,-97.68 531.35,-94.3 552.54,-91.56"/>
<polygon fill="midnightblue" stroke="midnightblue" points="553.04,-95.02 562.51,-90.27 552.14,-88.08 553.04,-95.02"/>
</g>
<!-- Node10&#45;&gt;Node7 -->
<g id="edge11" class="edge">
<title>Node10&#45;&gt;Node7</title>
<path fill="none" stroke="midnightblue" d="M464.76,-76.11C473.96,-79.1 483.33,-82.43 492,-86 508.73,-92.89 511.2,-98.29 528,-105 533.86,-107.34 540.12,-109.51 546.37,-111.49"/>
<polygon fill="midnightblue" stroke="midnightblue" points="545.54,-114.9 556.13,-114.43 547.56,-108.19 545.54,-114.9"/>
</g>
<!-- Node10&#45;&gt;Node8 -->
<g id="edge13" class="edge">
<title>Node10&#45;&gt;Node8</title>
<path fill="none" stroke="midnightblue" d="M482.25,-70.74C506.1,-73.95 531.84,-77.42 552.75,-80.24"/>
<polygon fill="midnightblue" stroke="midnightblue" points="552.53,-83.74 562.91,-81.61 553.46,-76.8 552.53,-83.74"/>
</g>
<!-- Node11 -->
<g id="node11" class="node">
<title>Node11</title>
<g id="a_node11"><a xlink:href="classsystemData.html#a0a77c933b764fb36c64ec5e66011482c" target="_top" xlink:title="Function takes in vector in vector cross&#45;product expression: .">
<polygon fill="none" stroke="black" points="528,-38.5 528,-57.5 665,-57.5 665,-38.5 528,-38.5"/>
<text text-anchor="middle" x="596.5" y="-45.5" font-family="Helvetica,sans-Serif" font-size="10.00">systemData::crossProdMat</text>
</a>
</g>
</g>
<!-- Node10&#45;&gt;Node11 -->
<g id="edge10" class="edge">
<title>Node10&#45;&gt;Node11</title>
<path fill="none" stroke="midnightblue" d="M482.25,-55.94C493.9,-55.12 505.99,-54.27 517.76,-53.45"/>
<polygon fill="midnightblue" stroke="midnightblue" points="518.27,-56.92 528,-52.73 517.78,-49.94 518.27,-56.92"/>
</g>
<!-- Node12 -->
<g id="node12" class="node">
<title>Node12</title>
<g id="a_node12"><a xlink:href="classsystemData.html#a9a8e856d1285735bfb9cbd41ef764345" target="_top" xlink:title=" ">
<polygon fill="none" stroke="black" points="555,-0.5 555,-19.5 638,-19.5 638,-0.5 555,-0.5"/>
<text text-anchor="middle" x="596.5" y="-7.5" font-family="Helvetica,sans-Serif" font-size="10.00">systemData::i3</text>
</a>
</g>
</g>
<!-- Node10&#45;&gt;Node12 -->
<g id="edge12" class="edge">
<title>Node10&#45;&gt;Node12</title>
<path fill="none" stroke="midnightblue" d="M464.65,-45.97C492.11,-38.43 524.95,-29.4 550.87,-22.27"/>
<polygon fill="midnightblue" stroke="midnightblue" points="552.08,-25.57 560.79,-19.54 550.22,-18.82 552.08,-25.57"/>
</g>
</g>
</svg>
