<?xml version="1.0" encoding="UTF-8" standalone="no"?>
<!DOCTYPE svg PUBLIC "-//W3C//DTD SVG 1.1//EN"
 "http://www.w3.org/Graphics/SVG/1.1/DTD/svg11.dtd">
<!-- Generated by graphviz version 2.43.0 (0)
 -->
<!-- Title: SystemData::rigidBodyMotionTensors Pages: 1 -->
<svg width="522pt" height="85pt"
 viewBox="0.00 0.00 522.00 85.00" xmlns="http://www.w3.org/2000/svg" xmlns:xlink="http://www.w3.org/1999/xlink">
<g id="graph0" class="graph" transform="scale(1 1) rotate(0) translate(4 81)">
<title>SystemData::rigidBodyMotionTensors</title>
<!-- Node1 -->
<g id="node1" class="node">
<title>Node1</title>
<g id="a_node1"><a xlink:title="Computes the rigid body motion connectivity tensors.">
<polygon fill="#bfbfbf" stroke="black" points="0,-14 0,-44 147,-44 147,-14 0,-14"/>
<text text-anchor="start" x="8" y="-32" font-family="Helvetica,sans-Serif" font-size="10.00">SystemData::rigidBodyMotion</text>
<text text-anchor="middle" x="73.5" y="-21" font-family="Helvetica,sans-Serif" font-size="10.00">Tensors</text>
</a>
</g>
</g>
<!-- Node2 -->
<g id="node2" class="node">
<title>Node2</title>
<g id="a_node2"><a xlink:href="classSystemData.html#a70d2ff9a6173fcd9f30e8dc6324e8414" target="_top" xlink:title="Computes \Sigma_{i \alpha} matrix for given particle number and body number. Sigma matrix represents ...">
<polygon fill="none" stroke="black" points="183,-38.5 183,-57.5 340,-57.5 340,-38.5 183,-38.5"/>
<text text-anchor="middle" x="261.5" y="-45.5" font-family="Helvetica,sans-Serif" font-size="10.00">SystemData::rbmMatrixElement</text>
</a>
</g>
</g>
<!-- Node1&#45;&gt;Node2 -->
<g id="edge1" class="edge">
<title>Node1&#45;&gt;Node2</title>
<path fill="none" stroke="midnightblue" d="M147.21,-36.43C155.63,-37.29 164.29,-38.17 172.88,-39.05"/>
<polygon fill="midnightblue" stroke="midnightblue" points="172.62,-42.54 182.92,-40.08 173.33,-35.58 172.62,-42.54"/>
</g>
<!-- Node5 -->
<g id="node5" class="node">
<title>Node5</title>
<g id="a_node5"><a xlink:href="helper__eigenTensorConversion_8hpp.html#a3a32f7de3f099464192073a93b34d580" target="_top" xlink:title="Convert Eigen::Matrix &#45;&#45;&gt; Eigen::Tensor.">
<polygon fill="none" stroke="black" points="228,-0.5 228,-19.5 295,-19.5 295,-0.5 228,-0.5"/>
<text text-anchor="middle" x="261.5" y="-7.5" font-family="Helvetica,sans-Serif" font-size="10.00">TensorCast</text>
</a>
</g>
</g>
<!-- Node1&#45;&gt;Node5 -->
<g id="edge4" class="edge">
<title>Node1&#45;&gt;Node5</title>
<path fill="none" stroke="midnightblue" d="M147.21,-21.57C171.09,-19.13 196.85,-16.5 217.77,-14.37"/>
<polygon fill="midnightblue" stroke="midnightblue" points="218.33,-17.83 227.92,-13.33 217.61,-10.86 218.33,-17.83"/>
</g>
<!-- Node3 -->
<g id="node3" class="node">
<title>Node3</title>
<g id="a_node3"><a xlink:href="classSystemData.html#a7cefde66d9e18e2517f11505dd434d0e" target="_top" xlink:title="Function takes in vector in vector cross&#45;product expression: .">
<polygon fill="none" stroke="black" points="376,-57.5 376,-76.5 514,-76.5 514,-57.5 376,-57.5"/>
<text text-anchor="middle" x="445" y="-64.5" font-family="Helvetica,sans-Serif" font-size="10.00">SystemData::crossProdMat</text>
</a>
</g>
</g>
<!-- Node2&#45;&gt;Node3 -->
<g id="edge2" class="edge">
<title>Node2&#45;&gt;Node3</title>
<path fill="none" stroke="midnightblue" d="M340.26,-56.14C348.68,-57.02 357.24,-57.92 365.66,-58.8"/>
<polygon fill="midnightblue" stroke="midnightblue" points="365.53,-62.3 375.84,-59.86 366.26,-55.34 365.53,-62.3"/>
</g>
<!-- Node4 -->
<g id="node4" class="node">
<title>Node4</title>
<g id="a_node4"><a xlink:href="classSystemData.html#ad58491f39fe352229da5494878b88911" target="_top" xlink:title="Computes the E matrix of quaternion (4&#45;vector) input.">
<polygon fill="none" stroke="black" points="390,-19.5 390,-38.5 500,-38.5 500,-19.5 390,-19.5"/>
<text text-anchor="middle" x="445" y="-26.5" font-family="Helvetica,sans-Serif" font-size="10.00">SystemData::eMatrix</text>
</a>
</g>
</g>
<!-- Node2&#45;&gt;Node4 -->
<g id="edge3" class="edge">
<title>Node2&#45;&gt;Node4</title>
<path fill="none" stroke="midnightblue" d="M340.26,-39.86C353.47,-38.48 367.06,-37.05 379.87,-35.71"/>
<polygon fill="midnightblue" stroke="midnightblue" points="380.37,-39.18 389.95,-34.66 379.64,-32.22 380.37,-39.18"/>
</g>
</g>
</svg>
