<?xml version="1.0" encoding="UTF-8" standalone="no"?>
<!DOCTYPE svg PUBLIC "-//W3C//DTD SVG 1.1//EN"
 "http://www.w3.org/Graphics/SVG/1.1/DTD/svg11.dtd">
<!-- Generated by graphviz version 2.43.0 (0)
 -->
<!-- Title: SystemData::initializeData Pages: 1 -->
<svg width="871pt" height="449pt"
 viewBox="0.00 0.00 871.00 449.00" xmlns="http://www.w3.org/2000/svg" xmlns:xlink="http://www.w3.org/1999/xlink">
<g id="graph0" class="graph" transform="scale(1 1) rotate(0) translate(4 445)">
<title>SystemData::initializeData</title>
<!-- Node1 -->
<g id="node1" class="node">
<title>Node1</title>
<g id="a_node1"><a xlink:title="Function loads data from GSD file using GSDUtil class.">
<polygon fill="#bfbfbf" stroke="black" points="0,-332.5 0,-351.5 134,-351.5 134,-332.5 0,-332.5"/>
<text text-anchor="middle" x="67" y="-339.5" font-family="Helvetica,sans-Serif" font-size="10.00">SystemData::initializeData</text>
</a>
</g>
</g>
<!-- Node2 -->
<g id="node2" class="node">
<title>Node2</title>
<g id="a_node2"><a xlink:href="classSystemData.html#a58d7292b7fd9035265eca81d0f088a27" target="_top" xlink:title="Logs private attributes to logfile.">
<polygon fill="none" stroke="black" points="176,-370.5 176,-389.5 287,-389.5 287,-370.5 176,-370.5"/>
<text text-anchor="middle" x="231.5" y="-377.5" font-family="Helvetica,sans-Serif" font-size="10.00">SystemData::logData</text>
</a>
</g>
</g>
<!-- Node1&#45;&gt;Node2 -->
<g id="edge1" class="edge">
<title>Node1&#45;&gt;Node2</title>
<path fill="none" stroke="midnightblue" d="M109.01,-351.59C130.55,-356.63 157.13,-362.84 179.94,-368.18"/>
<polygon fill="midnightblue" stroke="midnightblue" points="179.25,-371.61 189.79,-370.48 180.85,-364.79 179.25,-371.61"/>
</g>
<!-- Node3 -->
<g id="node3" class="node">
<title>Node3</title>
<g id="a_node3"><a xlink:href="classSystemData.html#aa2eb6d7a8870f81a9f4e6484c1f8751c" target="_top" xlink:title="Passes this (SystemData shared pointer instance) into GSDUtil constructor to load data from input GSD...">
<polygon fill="none" stroke="black" points="170,-332.5 170,-351.5 293,-351.5 293,-332.5 170,-332.5"/>
<text text-anchor="middle" x="231.5" y="-339.5" font-family="Helvetica,sans-Serif" font-size="10.00">SystemData::parseGSD</text>
</a>
</g>
</g>
<!-- Node1&#45;&gt;Node3 -->
<g id="edge2" class="edge">
<title>Node1&#45;&gt;Node3</title>
<path fill="none" stroke="midnightblue" d="M134.09,-342C142.53,-342 151.19,-342 159.69,-342"/>
<polygon fill="midnightblue" stroke="midnightblue" points="159.96,-345.5 169.96,-342 159.96,-338.5 159.96,-345.5"/>
</g>
<!-- Node5 -->
<g id="node5" class="node">
<title>Node5</title>
<g id="a_node5"><a xlink:href="classSystemData.html#aa1dc8988cbb137f2667af95ca52a709c" target="_top" xlink:title="Updates all relevant rigid body motion tensors, respective gradients, and kinematic/Udwadia constrain...">
<polygon fill="none" stroke="black" points="178,-205.5 178,-224.5 285,-224.5 285,-205.5 178,-205.5"/>
<text text-anchor="middle" x="231.5" y="-212.5" font-family="Helvetica,sans-Serif" font-size="10.00">SystemData::update</text>
</a>
</g>
</g>
<!-- Node1&#45;&gt;Node5 -->
<g id="edge4" class="edge">
<title>Node1&#45;&gt;Node5</title>
<path fill="none" stroke="midnightblue" d="M80.21,-332.45C107.98,-310.76 176.05,-257.55 210.23,-230.84"/>
<polygon fill="midnightblue" stroke="midnightblue" points="212.42,-233.57 218.14,-224.66 208.11,-228.06 212.42,-233.57"/>
</g>
<!-- Node4 -->
<g id="node4" class="node">
<title>Node4</title>
<g id="a_node4"><a xlink:href="classSystemData.html#a534384a0e92c8a0ffbcec636afbdf65e" target="_top" xlink:title="Various assertions to check data loaded from GSD is at least physical.">
<polygon fill="none" stroke="black" points="350,-421.5 350,-440.5 475,-440.5 475,-421.5 350,-421.5"/>
<text text-anchor="middle" x="412.5" y="-428.5" font-family="Helvetica,sans-Serif" font-size="10.00">SystemData::checkInput</text>
</a>
</g>
</g>
<!-- Node3&#45;&gt;Node4 -->
<g id="edge3" class="edge">
<title>Node3&#45;&gt;Node4</title>
<path fill="none" stroke="midnightblue" d="M275.2,-351.51C281.5,-354 287.66,-357.11 293,-361 315.42,-377.35 305.96,-396.54 329,-412 332.57,-414.4 336.4,-416.49 340.39,-418.33"/>
<polygon fill="midnightblue" stroke="midnightblue" points="339.33,-421.68 349.92,-422.15 341.94,-415.18 339.33,-421.68"/>
</g>
<!-- Node6 -->
<g id="node6" class="node">
<title>Node6</title>
<g id="a_node6"><a xlink:href="classSystemData.html#a188c38c8448ed32d3cf697b6f07b9d6a" target="_top" xlink:title="Computes the articulation (linear) accelerations of the particles relative to their respective locate...">
<polygon fill="none" stroke="black" points="345,-372 345,-402 480,-402 480,-372 345,-372"/>
<text text-anchor="start" x="353" y="-390" font-family="Helvetica,sans-Serif" font-size="10.00">SystemData::accelerations</text>
<text text-anchor="middle" x="412.5" y="-379" font-family="Helvetica,sans-Serif" font-size="10.00">Articulation</text>
</a>
</g>
</g>
<!-- Node5&#45;&gt;Node6 -->
<g id="edge5" class="edge">
<title>Node5&#45;&gt;Node6</title>
<path fill="none" stroke="midnightblue" d="M237.76,-224.9C253.84,-254.85 302.88,-343.63 329,-363 331.1,-364.55 333.29,-366.01 335.56,-367.37"/>
<polygon fill="midnightblue" stroke="midnightblue" points="334.17,-370.59 344.65,-372.16 337.44,-364.4 334.17,-370.59"/>
</g>
<!-- Node7 -->
<g id="node7" class="node">
<title>Node7</title>
<g id="a_node7"><a xlink:href="classSystemData.html#a000a3e77f12b4c1bc9678e9ede202f83" target="_top" xlink:title="Computes the orientation (unit vector) of a particle with respect to its locater point.">
<polygon fill="none" stroke="black" points="344,-323 344,-353 481,-353 481,-323 344,-323"/>
<text text-anchor="start" x="352" y="-341" font-family="Helvetica,sans-Serif" font-size="10.00">SystemData::convertBody2</text>
<text text-anchor="middle" x="412.5" y="-330" font-family="Helvetica,sans-Serif" font-size="10.00">ParticleOrient</text>
</a>
</g>
</g>
<!-- Node5&#45;&gt;Node7 -->
<g id="edge6" class="edge">
<title>Node5&#45;&gt;Node7</title>
<path fill="none" stroke="midnightblue" d="M239.27,-224.78C253.53,-244.62 288.67,-289.79 329,-314 331.81,-315.69 334.75,-317.26 337.78,-318.73"/>
<polygon fill="midnightblue" stroke="midnightblue" points="336.49,-321.99 347.05,-322.83 339.32,-315.59 336.49,-321.99"/>
</g>
<!-- Node10 -->
<g id="node10" class="node">
<title>Node10</title>
<g id="a_node10"><a xlink:href="classSystemData.html#a3edab27c866d9031739a8bd3b09bac42" target="_top" xlink:title="Computes the positions of all particles from given locater positions and body orientations.">
<polygon fill="none" stroke="black" points="344,-274 344,-304 481,-304 481,-274 344,-274"/>
<text text-anchor="start" x="352" y="-292" font-family="Helvetica,sans-Serif" font-size="10.00">SystemData::convertBody2</text>
<text text-anchor="middle" x="412.5" y="-281" font-family="Helvetica,sans-Serif" font-size="10.00">ParticlePos</text>
</a>
</g>
</g>
<!-- Node5&#45;&gt;Node10 -->
<g id="edge9" class="edge">
<title>Node5&#45;&gt;Node10</title>
<path fill="none" stroke="midnightblue" d="M248.77,-224.68C267.59,-235.58 299.74,-253.3 329,-265 334.02,-267.01 339.27,-268.93 344.59,-270.75"/>
<polygon fill="midnightblue" stroke="midnightblue" points="343.61,-274.11 354.2,-273.9 345.79,-267.46 343.61,-274.11"/>
</g>
<!-- Node11 -->
<g id="node11" class="node">
<title>Node11</title>
<g id="a_node11"><a xlink:href="classSystemData.html#a7da2011ba5d866e5338b14e8b04ace70" target="_top" xlink:title="Computes the particle D.o.F. from the body D.o.F.">
<polygon fill="none" stroke="black" points="344,-225 344,-255 481,-255 481,-225 344,-225"/>
<text text-anchor="start" x="352" y="-243" font-family="Helvetica,sans-Serif" font-size="10.00">SystemData::convertBody2</text>
<text text-anchor="middle" x="412.5" y="-232" font-family="Helvetica,sans-Serif" font-size="10.00">ParticleVelAcc</text>
</a>
</g>
</g>
<!-- Node5&#45;&gt;Node11 -->
<g id="edge10" class="edge">
<title>Node5&#45;&gt;Node11</title>
<path fill="none" stroke="midnightblue" d="M285.24,-222.37C300.44,-224.49 317.35,-226.85 333.73,-229.14"/>
<polygon fill="midnightblue" stroke="midnightblue" points="333.46,-232.63 343.84,-230.55 334.42,-225.7 333.46,-232.63"/>
</g>
<!-- Node15 -->
<g id="node15" class="node">
<title>Node15</title>
<g id="a_node15"><a xlink:href="classSystemData.html#a301fa1815b3b68cffc789f1824e29f5e" target="_top" xlink:title="Computes the gradients rigid body motion connectivity tensors and tensors associated with change of v...">
<polygon fill="none" stroke="black" points="339.5,-176 339.5,-206 485.5,-206 485.5,-176 339.5,-176"/>
<text text-anchor="start" x="347.5" y="-194" font-family="Helvetica,sans-Serif" font-size="10.00">SystemData::gradientChange</text>
<text text-anchor="middle" x="412.5" y="-183" font-family="Helvetica,sans-Serif" font-size="10.00">OfVariableTensors</text>
</a>
</g>
</g>
<!-- Node5&#45;&gt;Node15 -->
<g id="edge14" class="edge">
<title>Node5&#45;&gt;Node15</title>
<path fill="none" stroke="midnightblue" d="M285.24,-207.93C298.98,-206.09 314.12,-204.06 329,-202.06"/>
<polygon fill="midnightblue" stroke="midnightblue" points="329.8,-205.49 339.24,-200.69 328.87,-198.55 329.8,-205.49"/>
</g>
<!-- Node18 -->
<g id="node18" class="node">
<title>Node18</title>
<g id="a_node18"><a xlink:href="classSystemData.html#a30df4f73d78f6886da32559eda83595d" target="_top" xlink:title="Computes the articulation (linear) positions of the particles relative to their respective locater po...">
<polygon fill="none" stroke="black" points="330,-137.5 330,-156.5 495,-156.5 495,-137.5 330,-137.5"/>
<text text-anchor="middle" x="412.5" y="-144.5" font-family="Helvetica,sans-Serif" font-size="10.00">SystemData::positionsArticulation</text>
</a>
</g>
</g>
<!-- Node5&#45;&gt;Node18 -->
<g id="edge19" class="edge">
<title>Node5&#45;&gt;Node18</title>
<path fill="none" stroke="midnightblue" d="M249.07,-205.32C267.91,-194.67 299.82,-177.64 329,-167 337.15,-164.03 345.91,-161.37 354.57,-159.03"/>
<polygon fill="midnightblue" stroke="midnightblue" points="355.46,-162.41 364.27,-156.53 353.72,-155.63 355.46,-162.41"/>
</g>
<!-- Node19 -->
<g id="node19" class="node">
<title>Node19</title>
<g id="a_node19"><a xlink:href="classSystemData.html#ae08b2263f2981e57d0f12ba7881a083b" target="_top" xlink:title="Computes the rigid body motion connectivity tensors.">
<polygon fill="none" stroke="black" points="339,-88 339,-118 486,-118 486,-88 339,-88"/>
<text text-anchor="start" x="347" y="-106" font-family="Helvetica,sans-Serif" font-size="10.00">SystemData::rigidBodyMotion</text>
<text text-anchor="middle" x="412.5" y="-95" font-family="Helvetica,sans-Serif" font-size="10.00">Tensors</text>
</a>
</g>
</g>
<!-- Node5&#45;&gt;Node19 -->
<g id="edge20" class="edge">
<title>Node5&#45;&gt;Node19</title>
<path fill="none" stroke="midnightblue" d="M240.51,-205.4C255.86,-187.58 291.29,-149.29 329,-128 332.92,-125.79 337.05,-123.75 341.3,-121.88"/>
<polygon fill="midnightblue" stroke="midnightblue" points="342.8,-125.05 350.74,-118.04 340.16,-118.56 342.8,-125.05"/>
</g>
<!-- Node24 -->
<g id="node24" class="node">
<title>Node24</title>
<g id="a_node24"><a xlink:href="classSystemData.html#ad1a6489951a00124901c1947381a9be8" target="_top" xlink:title="Computes the Udwadia constraint matrix and vector to uphold the quaternion unitary norm for each body...">
<polygon fill="none" stroke="black" points="342.5,-39 342.5,-69 482.5,-69 482.5,-39 342.5,-39"/>
<text text-anchor="start" x="350.5" y="-57" font-family="Helvetica,sans-Serif" font-size="10.00">SystemData::udwadiaLinear</text>
<text text-anchor="middle" x="412.5" y="-46" font-family="Helvetica,sans-Serif" font-size="10.00">System</text>
</a>
</g>
</g>
<!-- Node5&#45;&gt;Node24 -->
<g id="edge26" class="edge">
<title>Node5&#45;&gt;Node24</title>
<path fill="none" stroke="midnightblue" d="M236.57,-205.45C247.61,-180.67 280.6,-113.84 329,-79 331.67,-77.08 334.49,-75.3 337.42,-73.66"/>
<polygon fill="midnightblue" stroke="midnightblue" points="339.1,-76.73 346.47,-69.12 335.96,-70.47 339.1,-76.73"/>
</g>
<!-- Node25 -->
<g id="node25" class="node">
<title>Node25</title>
<g id="a_node25"><a xlink:href="classSystemData.html#a92ce50a4c8b53aa6a490153c1b09ab8a" target="_top" xlink:title="Computes the articulation (linear) velocities of the particles relative to their respective locater p...">
<polygon fill="none" stroke="black" points="329,-0.5 329,-19.5 496,-19.5 496,-0.5 329,-0.5"/>
<text text-anchor="middle" x="412.5" y="-7.5" font-family="Helvetica,sans-Serif" font-size="10.00">SystemData::velocitiesArticulation</text>
</a>
</g>
</g>
<!-- Node5&#45;&gt;Node25 -->
<g id="edge27" class="edge">
<title>Node5&#45;&gt;Node25</title>
<path fill="none" stroke="midnightblue" d="M234.47,-205.47C241.38,-174.62 267.46,-76.69 329,-29 331.34,-27.19 333.83,-25.54 336.42,-24.04"/>
<polygon fill="midnightblue" stroke="midnightblue" points="338.15,-27.09 345.58,-19.53 335.06,-20.81 338.15,-27.09"/>
</g>
<!-- Node8 -->
<g id="node8" class="node">
<title>Node8</title>
<g id="a_node8"><a xlink:href="helper__math_8h.html#ae4378072f9d836b0d4770a1514db2be3" target="_top" xlink:title=" ">
<polygon fill="none" stroke="black" points="594.5,-333.5 594.5,-352.5 626.5,-352.5 626.5,-333.5 594.5,-333.5"/>
<text text-anchor="middle" x="610.5" y="-340.5" font-family="Helvetica,sans-Serif" font-size="10.00">abs</text>
</a>
</g>
</g>
<!-- Node7&#45;&gt;Node8 -->
<g id="edge7" class="edge">
<title>Node7&#45;&gt;Node8</title>
<path fill="none" stroke="midnightblue" d="M481.23,-339.73C516.86,-340.64 558.41,-341.7 584.34,-342.36"/>
<polygon fill="midnightblue" stroke="midnightblue" points="584.34,-345.86 594.43,-342.62 584.52,-338.86 584.34,-345.86"/>
</g>
<!-- Node9 -->
<g id="node9" class="node">
<title>Node9</title>
<g id="a_node9"><a xlink:href="helper__math_8h.html#a3be05aff487ded3c05aab21d24dd6439" target="_top" xlink:title=" ">
<polygon fill="none" stroke="black" points="763,-333.5 763,-352.5 825,-352.5 825,-333.5 763,-333.5"/>
<text text-anchor="middle" x="794" y="-340.5" font-family="Helvetica,sans-Serif" font-size="10.00">make_int2</text>
</a>
</g>
</g>
<!-- Node8&#45;&gt;Node9 -->
<g id="edge8" class="edge">
<title>Node8&#45;&gt;Node9</title>
<path fill="none" stroke="midnightblue" d="M626.66,-343C654.11,-343 712.89,-343 752.69,-343"/>
<polygon fill="midnightblue" stroke="midnightblue" points="752.87,-346.5 762.87,-343 752.87,-339.5 752.87,-346.5"/>
</g>
<!-- Node12 -->
<g id="node12" class="node">
<title>Node12</title>
<g id="a_node12"><a xlink:href="helper__eigenTensorConversion_8hpp.html#a556d08b55a6ad7cd703b6db06194e5cf" target="_top" xlink:title=" ">
<polygon fill="none" stroke="black" points="578,-295.5 578,-314.5 643,-314.5 643,-295.5 578,-295.5"/>
<text text-anchor="middle" x="610.5" y="-302.5" font-family="Helvetica,sans-Serif" font-size="10.00">MatrixCast</text>
</a>
</g>
</g>
<!-- Node11&#45;&gt;Node12 -->
<g id="edge11" class="edge">
<title>Node11&#45;&gt;Node12</title>
<path fill="none" stroke="midnightblue" d="M466.64,-255.04C476.47,-258.12 486.6,-261.5 496,-265 512.41,-271.11 515.61,-274.84 532,-281 543.64,-285.37 556.47,-289.58 568.28,-293.22"/>
<polygon fill="midnightblue" stroke="midnightblue" points="567.33,-296.59 577.92,-296.14 569.36,-289.89 567.33,-296.59"/>
</g>
<!-- Node14 -->
<g id="node14" class="node">
<title>Node14</title>
<g id="a_node14"><a xlink:href="helper__eigenTensorConversion_8hpp.html#a3a32f7de3f099464192073a93b34d580" target="_top" xlink:title="Convert Eigen::Matrix &#45;&#45;&gt; Eigen::Tensor.">
<polygon fill="none" stroke="black" points="760.5,-178.5 760.5,-197.5 827.5,-197.5 827.5,-178.5 760.5,-178.5"/>
<text text-anchor="middle" x="794" y="-185.5" font-family="Helvetica,sans-Serif" font-size="10.00">TensorCast</text>
</a>
</g>
</g>
<!-- Node11&#45;&gt;Node14 -->
<g id="edge13" class="edge">
<title>Node11&#45;&gt;Node14</title>
<path fill="none" stroke="midnightblue" d="M481.01,-242.16C537.22,-242.63 619.07,-240.21 689,-226 714.74,-220.77 742.63,-210.29 763.04,-201.67"/>
<polygon fill="midnightblue" stroke="midnightblue" points="764.63,-204.79 772.42,-197.61 761.85,-198.37 764.63,-204.79"/>
</g>
<!-- Node13 -->
<g id="node13" class="node">
<title>Node13</title>
<g id="a_node13"><a xlink:href="helper__eigenTensorConversion_8hpp.html#a2a7eca6b17fb874869047bd0b5f11b46" target="_top" xlink:title="Convert between Eigen::Tensor and Eigen::Matrix classes.">
<polygon fill="none" stroke="black" points="770.5,-295.5 770.5,-314.5 817.5,-314.5 817.5,-295.5 770.5,-295.5"/>
<text text-anchor="middle" x="794" y="-302.5" font-family="Helvetica,sans-Serif" font-size="10.00">asEval</text>
</a>
</g>
</g>
<!-- Node12&#45;&gt;Node13 -->
<g id="edge12" class="edge">
<title>Node12&#45;&gt;Node13</title>
<path fill="none" stroke="midnightblue" d="M643.11,-305C675.92,-305 727,-305 760.23,-305"/>
<polygon fill="midnightblue" stroke="midnightblue" points="760.35,-308.5 770.35,-305 760.35,-301.5 760.35,-308.5"/>
</g>
<!-- Node15&#45;&gt;Node14 -->
<g id="edge18" class="edge">
<title>Node15&#45;&gt;Node14</title>
<path fill="none" stroke="midnightblue" d="M485.66,-204.44C500.91,-206.76 516.94,-208.8 532,-210 601.56,-215.54 619.6,-217.26 689,-210 709.54,-207.85 731.99,-203.38 750.76,-199.02"/>
<polygon fill="midnightblue" stroke="midnightblue" points="751.58,-202.43 760.49,-196.7 749.95,-195.62 751.58,-202.43"/>
</g>
<!-- Node16 -->
<g id="node16" class="node">
<title>Node16</title>
<g id="a_node16"><a xlink:href="classSystemData.html#a230548cc624444a66137b8d5ecaf5716" target="_top" xlink:title="Computes \chi_{i \alpha} matrix for given particle number and body number. chi matrix represents the ...">
<polygon fill="none" stroke="black" points="534,-181.5 534,-200.5 687,-200.5 687,-181.5 534,-181.5"/>
<text text-anchor="middle" x="610.5" y="-188.5" font-family="Helvetica,sans-Serif" font-size="10.00">SystemData::chiMatrixElement</text>
</a>
</g>
</g>
<!-- Node15&#45;&gt;Node16 -->
<g id="edge15" class="edge">
<title>Node15&#45;&gt;Node16</title>
<path fill="none" stroke="midnightblue" d="M485.65,-191C498.05,-191 511.05,-191 523.77,-191"/>
<polygon fill="midnightblue" stroke="midnightblue" points="523.89,-194.5 533.89,-191 523.89,-187.5 523.89,-194.5"/>
</g>
<!-- Node17 -->
<g id="node17" class="node">
<title>Node17</title>
<g id="a_node17"><a xlink:href="classSystemData.html#aeaaa2fb7779cd160ab4d90f6f1659aae" target="_top" xlink:title="Computes \nabla_{\xi} \zeta_{i \alpha} tensor for given particle number and body number.">
<polygon fill="none" stroke="black" points="538,-132 538,-162 683,-162 683,-132 538,-132"/>
<text text-anchor="start" x="546" y="-150" font-family="Helvetica,sans-Serif" font-size="10.00">SystemData::gradZetaTensor</text>
<text text-anchor="middle" x="610.5" y="-139" font-family="Helvetica,sans-Serif" font-size="10.00">Element</text>
</a>
</g>
</g>
<!-- Node15&#45;&gt;Node17 -->
<g id="edge16" class="edge">
<title>Node15&#45;&gt;Node17</title>
<path fill="none" stroke="midnightblue" d="M480.4,-175.98C497.18,-172.21 515.32,-168.14 532.55,-164.28"/>
<polygon fill="midnightblue" stroke="midnightblue" points="533.57,-167.63 542.57,-162.03 532.04,-160.8 533.57,-167.63"/>
</g>
<!-- Node17&#45;&gt;Node14 -->
<g id="edge17" class="edge">
<title>Node17&#45;&gt;Node14</title>
<path fill="none" stroke="midnightblue" d="M678.05,-162.03C702.16,-167.48 728.72,-173.48 750.24,-178.34"/>
<polygon fill="midnightblue" stroke="midnightblue" points="749.52,-181.77 760.05,-180.56 751.06,-174.94 749.52,-181.77"/>
</g>
<!-- Node19&#45;&gt;Node14 -->
<g id="edge25" class="edge">
<title>Node19&#45;&gt;Node14</title>
<path fill="none" stroke="midnightblue" d="M486.1,-98.86C542.74,-97.85 622.67,-101.35 689,-123 721.44,-133.59 754.03,-156.4 773.86,-171.98"/>
<polygon fill="midnightblue" stroke="midnightblue" points="771.8,-174.81 781.79,-178.35 776.19,-169.36 771.8,-174.81"/>
</g>
<!-- Node20 -->
<g id="node20" class="node">
<title>Node20</title>
<g id="a_node20"><a xlink:href="classSystemData.html#aaf73d6b07c3852c18831d8ab983b384f" target="_top" xlink:title="Computes \Psi matrix for given body number. \Psi matrix represents the transformation of coordinates ...">
<polygon fill="none" stroke="black" points="534,-55.5 534,-74.5 687,-74.5 687,-55.5 534,-55.5"/>
<text text-anchor="middle" x="610.5" y="-62.5" font-family="Helvetica,sans-Serif" font-size="10.00">SystemData::psiMatrixElement</text>
</a>
</g>
</g>
<!-- Node19&#45;&gt;Node20 -->
<g id="edge21" class="edge">
<title>Node19&#45;&gt;Node20</title>
<path fill="none" stroke="midnightblue" d="M486.2,-88.9C507.36,-84.8 530.21,-80.37 550.41,-76.46"/>
<polygon fill="midnightblue" stroke="midnightblue" points="551.26,-79.86 560.41,-74.52 549.93,-72.98 551.26,-79.86"/>
</g>
<!-- Node22 -->
<g id="node22" class="node">
<title>Node22</title>
<g id="a_node22"><a xlink:href="classSystemData.html#a70d2ff9a6173fcd9f30e8dc6324e8414" target="_top" xlink:title="Computes \Sigma_{i \alpha} matrix for given particle number and body number. Sigma matrix represents ...">
<polygon fill="none" stroke="black" points="532,-17.5 532,-36.5 689,-36.5 689,-17.5 532,-17.5"/>
<text text-anchor="middle" x="610.5" y="-24.5" font-family="Helvetica,sans-Serif" font-size="10.00">SystemData::rbmMatrixElement</text>
</a>
</g>
</g>
<!-- Node19&#45;&gt;Node22 -->
<g id="edge23" class="edge">
<title>Node19&#45;&gt;Node22</title>
<path fill="none" stroke="midnightblue" d="M474.24,-87.92C481.77,-85.09 489.21,-81.8 496,-78 514.68,-67.54 513.05,-55.95 532,-46 536.48,-43.65 541.27,-41.58 546.18,-39.76"/>
<polygon fill="midnightblue" stroke="midnightblue" points="547.35,-43.06 555.72,-36.56 545.12,-36.42 547.35,-43.06"/>
</g>
<!-- Node21 -->
<g id="node21" class="node">
<title>Node21</title>
<g id="a_node21"><a xlink:href="classSystemData.html#ad58491f39fe352229da5494878b88911" target="_top" xlink:title="Computes the E matrix of quaternion (4&#45;vector) input.">
<polygon fill="none" stroke="black" points="739,-55.5 739,-74.5 849,-74.5 849,-55.5 739,-55.5"/>
<text text-anchor="middle" x="794" y="-62.5" font-family="Helvetica,sans-Serif" font-size="10.00">SystemData::eMatrix</text>
</a>
</g>
</g>
<!-- Node20&#45;&gt;Node21 -->
<g id="edge22" class="edge">
<title>Node20&#45;&gt;Node21</title>
<path fill="none" stroke="midnightblue" d="M687.16,-65C700.96,-65 715.23,-65 728.66,-65"/>
<polygon fill="midnightblue" stroke="midnightblue" points="728.74,-68.5 738.74,-65 728.74,-61.5 728.74,-68.5"/>
</g>
<!-- Node23 -->
<g id="node23" class="node">
<title>Node23</title>
<g id="a_node23"><a xlink:href="classSystemData.html#a7cefde66d9e18e2517f11505dd434d0e" target="_top" xlink:title="Function takes in vector in vector cross&#45;product expression: .">
<polygon fill="none" stroke="black" points="725,-17.5 725,-36.5 863,-36.5 863,-17.5 725,-17.5"/>
<text text-anchor="middle" x="794" y="-24.5" font-family="Helvetica,sans-Serif" font-size="10.00">SystemData::crossProdMat</text>
</a>
</g>
</g>
<!-- Node22&#45;&gt;Node23 -->
<g id="edge24" class="edge">
<title>Node22&#45;&gt;Node23</title>
<path fill="none" stroke="midnightblue" d="M689.26,-27C697.68,-27 706.24,-27 714.66,-27"/>
<polygon fill="midnightblue" stroke="midnightblue" points="714.84,-30.5 724.84,-27 714.84,-23.5 714.84,-30.5"/>
</g>
</g>
</svg>
