<?xml version="1.0" encoding="UTF-8" standalone="no"?>
<!DOCTYPE svg PUBLIC "-//W3C//DTD SVG 1.1//EN"
 "http://www.w3.org/Graphics/SVG/1.1/DTD/svg11.dtd">
<!-- Generated by graphviz version 2.43.0 (0)
 -->
<!-- Title: SystemData::update Pages: 1 -->
<svg width="685pt" height="411pt"
 viewBox="0.00 0.00 685.00 410.50" xmlns="http://www.w3.org/2000/svg" xmlns:xlink="http://www.w3.org/1999/xlink">
<g id="graph0" class="graph" transform="scale(1 1) rotate(0) translate(4 406.5)">
<title>SystemData::update</title>
<!-- Node1 -->
<g id="node1" class="node">
<title>Node1</title>
<g id="a_node1"><a xlink:title="Updates all relevant rigid body motion tensors, respective gradients, and kinematic/Udwadia constrain...">
<polygon fill="#bfbfbf" stroke="black" points="0,-181.5 0,-200.5 107,-200.5 107,-181.5 0,-181.5"/>
<text text-anchor="middle" x="53.5" y="-188.5" font-family="Helvetica,sans-Serif" font-size="10.00">SystemData::update</text>
</a>
</g>
</g>
<!-- Node2 -->
<g id="node2" class="node">
<title>Node2</title>
<g id="a_node2"><a xlink:href="classSystemData.html#a188c38c8448ed32d3cf697b6f07b9d6a" target="_top" xlink:title="Computes the articulation (linear) accelerations of the particles relative to their respective locate...">
<polygon fill="none" stroke="black" points="159,-372 159,-402 294,-402 294,-372 159,-372"/>
<text text-anchor="start" x="167" y="-390" font-family="Helvetica,sans-Serif" font-size="10.00">SystemData::accelerations</text>
<text text-anchor="middle" x="226.5" y="-379" font-family="Helvetica,sans-Serif" font-size="10.00">Articulation</text>
</a>
</g>
</g>
<!-- Node1&#45;&gt;Node2 -->
<g id="edge1" class="edge">
<title>Node1&#45;&gt;Node2</title>
<path fill="none" stroke="midnightblue" d="M56.67,-200.9C63.66,-230.31 88.32,-317.93 143,-363 145.06,-364.7 147.25,-366.28 149.51,-367.75"/>
<polygon fill="midnightblue" stroke="midnightblue" points="148.22,-371.04 158.66,-372.88 151.65,-364.94 148.22,-371.04"/>
</g>
<!-- Node3 -->
<g id="node3" class="node">
<title>Node3</title>
<g id="a_node3"><a xlink:href="classSystemData.html#a000a3e77f12b4c1bc9678e9ede202f83" target="_top" xlink:title="Computes the orientation (unit vector) of a particle with respect to its locater point.">
<polygon fill="none" stroke="black" points="158,-323 158,-353 295,-353 295,-323 158,-323"/>
<text text-anchor="start" x="166" y="-341" font-family="Helvetica,sans-Serif" font-size="10.00">SystemData::convertBody2</text>
<text text-anchor="middle" x="226.5" y="-330" font-family="Helvetica,sans-Serif" font-size="10.00">ParticleOrient</text>
</a>
</g>
</g>
<!-- Node1&#45;&gt;Node3 -->
<g id="edge2" class="edge">
<title>Node1&#45;&gt;Node3</title>
<path fill="none" stroke="midnightblue" d="M58.7,-200.67C69.29,-223.9 99.38,-283.18 143,-314 145.13,-315.51 147.36,-316.92 149.66,-318.24"/>
<polygon fill="midnightblue" stroke="midnightblue" points="148.32,-321.49 158.82,-322.93 151.51,-315.26 148.32,-321.49"/>
</g>
<!-- Node6 -->
<g id="node6" class="node">
<title>Node6</title>
<g id="a_node6"><a xlink:href="classSystemData.html#a3edab27c866d9031739a8bd3b09bac42" target="_top" xlink:title="Computes the positions of all particles from given locater positions and body orientations.">
<polygon fill="none" stroke="black" points="158,-274 158,-304 295,-304 295,-274 158,-274"/>
<text text-anchor="start" x="166" y="-292" font-family="Helvetica,sans-Serif" font-size="10.00">SystemData::convertBody2</text>
<text text-anchor="middle" x="226.5" y="-281" font-family="Helvetica,sans-Serif" font-size="10.00">ParticlePos</text>
</a>
</g>
</g>
<!-- Node1&#45;&gt;Node6 -->
<g id="edge5" class="edge">
<title>Node1&#45;&gt;Node6</title>
<path fill="none" stroke="midnightblue" d="M63.36,-200.64C78.3,-216.35 110.13,-247.48 143,-265 146.46,-266.84 150.07,-268.56 153.77,-270.16"/>
<polygon fill="midnightblue" stroke="midnightblue" points="152.54,-273.43 163.13,-273.89 155.13,-266.93 152.54,-273.43"/>
</g>
<!-- Node7 -->
<g id="node7" class="node">
<title>Node7</title>
<g id="a_node7"><a xlink:href="classSystemData.html#a7da2011ba5d866e5338b14e8b04ace70" target="_top" xlink:title="Computes the particle D.o.F. from the body D.o.F.">
<polygon fill="none" stroke="black" points="158,-225 158,-255 295,-255 295,-225 158,-225"/>
<text text-anchor="start" x="166" y="-243" font-family="Helvetica,sans-Serif" font-size="10.00">SystemData::convertBody2</text>
<text text-anchor="middle" x="226.5" y="-232" font-family="Helvetica,sans-Serif" font-size="10.00">ParticleVelAcc</text>
</a>
</g>
</g>
<!-- Node1&#45;&gt;Node7 -->
<g id="edge6" class="edge">
<title>Node1&#45;&gt;Node7</title>
<path fill="none" stroke="midnightblue" d="M87.88,-200.56C109.34,-206.71 137.88,-214.89 163.41,-222.21"/>
<polygon fill="midnightblue" stroke="midnightblue" points="162.45,-225.57 173.02,-224.96 164.38,-218.84 162.45,-225.57"/>
</g>
<!-- Node11 -->
<g id="node11" class="node">
<title>Node11</title>
<g id="a_node11"><a xlink:href="classSystemData.html#a301fa1815b3b68cffc789f1824e29f5e" target="_top" xlink:title="Computes the gradients rigid body motion connectivity tensors and tensors associated with change of v...">
<polygon fill="none" stroke="black" points="153.5,-176 153.5,-206 299.5,-206 299.5,-176 153.5,-176"/>
<text text-anchor="start" x="161.5" y="-194" font-family="Helvetica,sans-Serif" font-size="10.00">SystemData::gradientChange</text>
<text text-anchor="middle" x="226.5" y="-183" font-family="Helvetica,sans-Serif" font-size="10.00">OfVariableTensors</text>
</a>
</g>
</g>
<!-- Node1&#45;&gt;Node11 -->
<g id="edge10" class="edge">
<title>Node1&#45;&gt;Node11</title>
<path fill="none" stroke="midnightblue" d="M107.2,-191C118.62,-191 130.97,-191 143.22,-191"/>
<polygon fill="midnightblue" stroke="midnightblue" points="143.48,-194.5 153.48,-191 143.48,-187.5 143.48,-194.5"/>
</g>
<!-- Node14 -->
<g id="node14" class="node">
<title>Node14</title>
<g id="a_node14"><a xlink:href="classSystemData.html#a30df4f73d78f6886da32559eda83595d" target="_top" xlink:title="Computes the articulation (linear) positions of the particles relative to their respective locater po...">
<polygon fill="none" stroke="black" points="144,-137.5 144,-156.5 309,-156.5 309,-137.5 144,-137.5"/>
<text text-anchor="middle" x="226.5" y="-144.5" font-family="Helvetica,sans-Serif" font-size="10.00">SystemData::positionsArticulation</text>
</a>
</g>
</g>
<!-- Node1&#45;&gt;Node14 -->
<g id="edge15" class="edge">
<title>Node1&#45;&gt;Node14</title>
<path fill="none" stroke="midnightblue" d="M88.91,-181.44C105.27,-176.95 125.11,-171.59 143,-167 153.38,-164.33 164.53,-161.57 175.16,-158.97"/>
<polygon fill="midnightblue" stroke="midnightblue" points="176.27,-162.31 185.16,-156.55 174.62,-155.5 176.27,-162.31"/>
</g>
<!-- Node15 -->
<g id="node15" class="node">
<title>Node15</title>
<g id="a_node15"><a xlink:href="classSystemData.html#ae08b2263f2981e57d0f12ba7881a083b" target="_top" xlink:title="Computes the rigid body motion connectivity tensors.">
<polygon fill="none" stroke="black" points="153,-88 153,-118 300,-118 300,-88 153,-88"/>
<text text-anchor="start" x="161" y="-106" font-family="Helvetica,sans-Serif" font-size="10.00">SystemData::rigidBodyMotion</text>
<text text-anchor="middle" x="226.5" y="-95" font-family="Helvetica,sans-Serif" font-size="10.00">Tensors</text>
</a>
</g>
</g>
<!-- Node1&#45;&gt;Node15 -->
<g id="edge16" class="edge">
<title>Node1&#45;&gt;Node15</title>
<path fill="none" stroke="midnightblue" d="M65.48,-181.37C81.5,-167.75 112.7,-142.88 143,-128 147.67,-125.71 152.58,-123.58 157.6,-121.61"/>
<polygon fill="midnightblue" stroke="midnightblue" points="159.16,-124.76 167.33,-118.02 156.74,-118.2 159.16,-124.76"/>
</g>
<!-- Node20 -->
<g id="node20" class="node">
<title>Node20</title>
<g id="a_node20"><a xlink:href="classSystemData.html#ad1a6489951a00124901c1947381a9be8" target="_top" xlink:title="Computes the Udwadia constraint matrix and vector to uphold the quaternion unitary norm for each body...">
<polygon fill="none" stroke="black" points="156.5,-39 156.5,-69 296.5,-69 296.5,-39 156.5,-39"/>
<text text-anchor="start" x="164.5" y="-57" font-family="Helvetica,sans-Serif" font-size="10.00">SystemData::udwadiaLinear</text>
<text text-anchor="middle" x="226.5" y="-46" font-family="Helvetica,sans-Serif" font-size="10.00">System</text>
</a>
</g>
</g>
<!-- Node1&#45;&gt;Node20 -->
<g id="edge22" class="edge">
<title>Node1&#45;&gt;Node20</title>
<path fill="none" stroke="midnightblue" d="M59.47,-181.27C71.06,-159.57 102.04,-106.91 143,-79 145.93,-77 149.03,-75.16 152.24,-73.46"/>
<polygon fill="midnightblue" stroke="midnightblue" points="153.99,-76.5 161.52,-69.04 150.99,-70.18 153.99,-76.5"/>
</g>
<!-- Node21 -->
<g id="node21" class="node">
<title>Node21</title>
<g id="a_node21"><a xlink:href="classSystemData.html#a92ce50a4c8b53aa6a490153c1b09ab8a" target="_top" xlink:title="Computes the articulation (linear) velocities of the particles relative to their respective locater p...">
<polygon fill="none" stroke="black" points="143,-0.5 143,-19.5 310,-19.5 310,-0.5 143,-0.5"/>
<text text-anchor="middle" x="226.5" y="-7.5" font-family="Helvetica,sans-Serif" font-size="10.00">SystemData::velocitiesArticulation</text>
</a>
</g>
</g>
<!-- Node1&#45;&gt;Node21 -->
<g id="edge23" class="edge">
<title>Node1&#45;&gt;Node21</title>
<path fill="none" stroke="midnightblue" d="M56.85,-181.13C64.17,-152.62 89.36,-69.65 143,-29 145.36,-27.21 147.86,-25.58 150.47,-24.11"/>
<polygon fill="midnightblue" stroke="midnightblue" points="152.19,-27.16 159.66,-19.64 149.14,-20.86 152.19,-27.16"/>
</g>
<!-- Node4 -->
<g id="node4" class="node">
<title>Node4</title>
<g id="a_node4"><a xlink:href="helper__math_8h.html#ae4378072f9d836b0d4770a1514db2be3" target="_top" xlink:title=" ">
<polygon fill="none" stroke="black" points="408.5,-333.5 408.5,-352.5 440.5,-352.5 440.5,-333.5 408.5,-333.5"/>
<text text-anchor="middle" x="424.5" y="-340.5" font-family="Helvetica,sans-Serif" font-size="10.00">abs</text>
</a>
</g>
</g>
<!-- Node3&#45;&gt;Node4 -->
<g id="edge3" class="edge">
<title>Node3&#45;&gt;Node4</title>
<path fill="none" stroke="midnightblue" d="M295.23,-339.73C330.86,-340.64 372.41,-341.7 398.34,-342.36"/>
<polygon fill="midnightblue" stroke="midnightblue" points="398.34,-345.86 408.43,-342.62 398.52,-338.86 398.34,-345.86"/>
</g>
<!-- Node5 -->
<g id="node5" class="node">
<title>Node5</title>
<g id="a_node5"><a xlink:href="helper__math_8h.html#a3be05aff487ded3c05aab21d24dd6439" target="_top" xlink:title=" ">
<polygon fill="none" stroke="black" points="577,-333.5 577,-352.5 639,-352.5 639,-333.5 577,-333.5"/>
<text text-anchor="middle" x="608" y="-340.5" font-family="Helvetica,sans-Serif" font-size="10.00">make_int2</text>
</a>
</g>
</g>
<!-- Node4&#45;&gt;Node5 -->
<g id="edge4" class="edge">
<title>Node4&#45;&gt;Node5</title>
<path fill="none" stroke="midnightblue" d="M440.66,-343C468.11,-343 526.89,-343 566.69,-343"/>
<polygon fill="midnightblue" stroke="midnightblue" points="566.87,-346.5 576.87,-343 566.87,-339.5 566.87,-346.5"/>
</g>
<!-- Node8 -->
<g id="node8" class="node">
<title>Node8</title>
<g id="a_node8"><a xlink:href="helper__eigenTensorConversion_8hpp.html#a556d08b55a6ad7cd703b6db06194e5cf" target="_top" xlink:title=" ">
<polygon fill="none" stroke="black" points="392,-295.5 392,-314.5 457,-314.5 457,-295.5 392,-295.5"/>
<text text-anchor="middle" x="424.5" y="-302.5" font-family="Helvetica,sans-Serif" font-size="10.00">MatrixCast</text>
</a>
</g>
</g>
<!-- Node7&#45;&gt;Node8 -->
<g id="edge7" class="edge">
<title>Node7&#45;&gt;Node8</title>
<path fill="none" stroke="midnightblue" d="M280.64,-255.04C290.47,-258.12 300.6,-261.5 310,-265 326.41,-271.11 329.61,-274.84 346,-281 357.64,-285.37 370.47,-289.58 382.28,-293.22"/>
<polygon fill="midnightblue" stroke="midnightblue" points="381.33,-296.59 391.92,-296.14 383.36,-289.89 381.33,-296.59"/>
</g>
<!-- Node10 -->
<g id="node10" class="node">
<title>Node10</title>
<g id="a_node10"><a xlink:href="helper__eigenTensorConversion_8hpp.html#a3a32f7de3f099464192073a93b34d580" target="_top" xlink:title="Convert Eigen::Matrix &#45;&#45;&gt; Eigen::Tensor.">
<polygon fill="none" stroke="black" points="574.5,-178.5 574.5,-197.5 641.5,-197.5 641.5,-178.5 574.5,-178.5"/>
<text text-anchor="middle" x="608" y="-185.5" font-family="Helvetica,sans-Serif" font-size="10.00">TensorCast</text>
</a>
</g>
</g>
<!-- Node7&#45;&gt;Node10 -->
<g id="edge9" class="edge">
<title>Node7&#45;&gt;Node10</title>
<path fill="none" stroke="midnightblue" d="M295.01,-242.16C351.22,-242.63 433.07,-240.21 503,-226 528.74,-220.77 556.63,-210.29 577.04,-201.67"/>
<polygon fill="midnightblue" stroke="midnightblue" points="578.63,-204.79 586.42,-197.61 575.85,-198.37 578.63,-204.79"/>
</g>
<!-- Node9 -->
<g id="node9" class="node">
<title>Node9</title>
<g id="a_node9"><a xlink:href="helper__eigenTensorConversion_8hpp.html#a2a7eca6b17fb874869047bd0b5f11b46" target="_top" xlink:title="Convert between Eigen::Tensor and Eigen::Matrix classes.">
<polygon fill="none" stroke="black" points="584.5,-295.5 584.5,-314.5 631.5,-314.5 631.5,-295.5 584.5,-295.5"/>
<text text-anchor="middle" x="608" y="-302.5" font-family="Helvetica,sans-Serif" font-size="10.00">asEval</text>
</a>
</g>
</g>
<!-- Node8&#45;&gt;Node9 -->
<g id="edge8" class="edge">
<title>Node8&#45;&gt;Node9</title>
<path fill="none" stroke="midnightblue" d="M457.11,-305C489.92,-305 541,-305 574.23,-305"/>
<polygon fill="midnightblue" stroke="midnightblue" points="574.35,-308.5 584.35,-305 574.35,-301.5 574.35,-308.5"/>
</g>
<!-- Node11&#45;&gt;Node10 -->
<g id="edge14" class="edge">
<title>Node11&#45;&gt;Node10</title>
<path fill="none" stroke="midnightblue" d="M299.66,-204.44C314.91,-206.76 330.94,-208.8 346,-210 415.56,-215.54 433.6,-217.26 503,-210 523.54,-207.85 545.99,-203.38 564.76,-199.02"/>
<polygon fill="midnightblue" stroke="midnightblue" points="565.58,-202.43 574.49,-196.7 563.95,-195.62 565.58,-202.43"/>
</g>
<!-- Node12 -->
<g id="node12" class="node">
<title>Node12</title>
<g id="a_node12"><a xlink:href="classSystemData.html#a230548cc624444a66137b8d5ecaf5716" target="_top" xlink:title="Computes \chi_{i \alpha} matrix for given particle number and body number. chi matrix represents the ...">
<polygon fill="none" stroke="black" points="348,-181.5 348,-200.5 501,-200.5 501,-181.5 348,-181.5"/>
<text text-anchor="middle" x="424.5" y="-188.5" font-family="Helvetica,sans-Serif" font-size="10.00">SystemData::chiMatrixElement</text>
</a>
</g>
</g>
<!-- Node11&#45;&gt;Node12 -->
<g id="edge11" class="edge">
<title>Node11&#45;&gt;Node12</title>
<path fill="none" stroke="midnightblue" d="M299.65,-191C312.05,-191 325.05,-191 337.77,-191"/>
<polygon fill="midnightblue" stroke="midnightblue" points="337.89,-194.5 347.89,-191 337.89,-187.5 337.89,-194.5"/>
</g>
<!-- Node13 -->
<g id="node13" class="node">
<title>Node13</title>
<g id="a_node13"><a xlink:href="classSystemData.html#aeaaa2fb7779cd160ab4d90f6f1659aae" target="_top" xlink:title="Computes \nabla_{\xi} \zeta_{i \alpha} tensor for given particle number and body number.">
<polygon fill="none" stroke="black" points="352,-132 352,-162 497,-162 497,-132 352,-132"/>
<text text-anchor="start" x="360" y="-150" font-family="Helvetica,sans-Serif" font-size="10.00">SystemData::gradZetaTensor</text>
<text text-anchor="middle" x="424.5" y="-139" font-family="Helvetica,sans-Serif" font-size="10.00">Element</text>
</a>
</g>
</g>
<!-- Node11&#45;&gt;Node13 -->
<g id="edge12" class="edge">
<title>Node11&#45;&gt;Node13</title>
<path fill="none" stroke="midnightblue" d="M294.4,-175.98C311.18,-172.21 329.32,-168.14 346.55,-164.28"/>
<polygon fill="midnightblue" stroke="midnightblue" points="347.57,-167.63 356.57,-162.03 346.04,-160.8 347.57,-167.63"/>
</g>
<!-- Node13&#45;&gt;Node10 -->
<g id="edge13" class="edge">
<title>Node13&#45;&gt;Node10</title>
<path fill="none" stroke="midnightblue" d="M492.05,-162.03C516.16,-167.48 542.72,-173.48 564.24,-178.34"/>
<polygon fill="midnightblue" stroke="midnightblue" points="563.52,-181.77 574.05,-180.56 565.06,-174.94 563.52,-181.77"/>
</g>
<!-- Node15&#45;&gt;Node10 -->
<g id="edge21" class="edge">
<title>Node15&#45;&gt;Node10</title>
<path fill="none" stroke="midnightblue" d="M300.1,-98.86C356.74,-97.85 436.67,-101.35 503,-123 535.44,-133.59 568.03,-156.4 587.86,-171.98"/>
<polygon fill="midnightblue" stroke="midnightblue" points="585.8,-174.81 595.79,-178.35 590.19,-169.36 585.8,-174.81"/>
</g>
<!-- Node16 -->
<g id="node16" class="node">
<title>Node16</title>
<g id="a_node16"><a xlink:href="classSystemData.html#aaf73d6b07c3852c18831d8ab983b384f" target="_top" xlink:title="Computes \Psi matrix for given body number. \Psi matrix represents the transformation of coordinates ...">
<polygon fill="none" stroke="black" points="348,-55.5 348,-74.5 501,-74.5 501,-55.5 348,-55.5"/>
<text text-anchor="middle" x="424.5" y="-62.5" font-family="Helvetica,sans-Serif" font-size="10.00">SystemData::psiMatrixElement</text>
</a>
</g>
</g>
<!-- Node15&#45;&gt;Node16 -->
<g id="edge17" class="edge">
<title>Node15&#45;&gt;Node16</title>
<path fill="none" stroke="midnightblue" d="M300.2,-88.9C321.36,-84.8 344.21,-80.37 364.41,-76.46"/>
<polygon fill="midnightblue" stroke="midnightblue" points="365.26,-79.86 374.41,-74.52 363.93,-72.98 365.26,-79.86"/>
</g>
<!-- Node18 -->
<g id="node18" class="node">
<title>Node18</title>
<g id="a_node18"><a xlink:href="classSystemData.html#a70d2ff9a6173fcd9f30e8dc6324e8414" target="_top" xlink:title="Computes \Sigma_{i \alpha} matrix for given particle number and body number. Sigma matrix represents ...">
<polygon fill="none" stroke="black" points="346,-17.5 346,-36.5 503,-36.5 503,-17.5 346,-17.5"/>
<text text-anchor="middle" x="424.5" y="-24.5" font-family="Helvetica,sans-Serif" font-size="10.00">SystemData::rbmMatrixElement</text>
</a>
</g>
</g>
<!-- Node15&#45;&gt;Node18 -->
<g id="edge19" class="edge">
<title>Node15&#45;&gt;Node18</title>
<path fill="none" stroke="midnightblue" d="M288.24,-87.92C295.77,-85.09 303.21,-81.8 310,-78 328.68,-67.54 327.05,-55.95 346,-46 350.48,-43.65 355.27,-41.58 360.18,-39.76"/>
<polygon fill="midnightblue" stroke="midnightblue" points="361.35,-43.06 369.72,-36.56 359.12,-36.42 361.35,-43.06"/>
</g>
<!-- Node17 -->
<g id="node17" class="node">
<title>Node17</title>
<g id="a_node17"><a xlink:href="classSystemData.html#ad58491f39fe352229da5494878b88911" target="_top" xlink:title="Computes the E matrix of quaternion (4&#45;vector) input.">
<polygon fill="none" stroke="black" points="553,-55.5 553,-74.5 663,-74.5 663,-55.5 553,-55.5"/>
<text text-anchor="middle" x="608" y="-62.5" font-family="Helvetica,sans-Serif" font-size="10.00">SystemData::eMatrix</text>
</a>
</g>
</g>
<!-- Node16&#45;&gt;Node17 -->
<g id="edge18" class="edge">
<title>Node16&#45;&gt;Node17</title>
<path fill="none" stroke="midnightblue" d="M501.16,-65C514.96,-65 529.23,-65 542.66,-65"/>
<polygon fill="midnightblue" stroke="midnightblue" points="542.74,-68.5 552.74,-65 542.74,-61.5 542.74,-68.5"/>
</g>
<!-- Node19 -->
<g id="node19" class="node">
<title>Node19</title>
<g id="a_node19"><a xlink:href="classSystemData.html#a7cefde66d9e18e2517f11505dd434d0e" target="_top" xlink:title="Function takes in vector in vector cross&#45;product expression: .">
<polygon fill="none" stroke="black" points="539,-17.5 539,-36.5 677,-36.5 677,-17.5 539,-17.5"/>
<text text-anchor="middle" x="608" y="-24.5" font-family="Helvetica,sans-Serif" font-size="10.00">SystemData::crossProdMat</text>
</a>
</g>
</g>
<!-- Node18&#45;&gt;Node19 -->
<g id="edge20" class="edge">
<title>Node18&#45;&gt;Node19</title>
<path fill="none" stroke="midnightblue" d="M503.26,-27C511.68,-27 520.24,-27 528.66,-27"/>
<polygon fill="midnightblue" stroke="midnightblue" points="528.84,-30.5 538.84,-27 528.84,-23.5 528.84,-30.5"/>
</g>
</g>
</svg>
