<?xml version="1.0" encoding="UTF-8" standalone="no"?>
<!DOCTYPE svg PUBLIC "-//W3C//DTD SVG 1.1//EN"
 "http://www.w3.org/Graphics/SVG/1.1/DTD/svg11.dtd">
<!-- Generated by graphviz version 2.49.1 (20210923.0004)
 -->
<!-- Title: plotStyling.PlotStyling.suppress_stdout Pages: 1 -->
<svg width="358pt" height="57pt"
 viewBox="0.00 0.00 358.00 57.00" xmlns="http://www.w3.org/2000/svg" xmlns:xlink="http://www.w3.org/1999/xlink">
<g id="graph0" class="graph" transform="scale(1 1) rotate(0) translate(4 53)">
<title>plotStyling.PlotStyling.suppress_stdout</title>
<!-- Node1 -->
<g id="node1" class="node">
<title>Node1</title>
<g id="a_node1"><a xlink:title=" ">
<polygon fill="#bfbfbf" stroke="black" points="194,-0.5 194,-30.5 350,-30.5 350,-0.5 194,-0.5"/>
<text text-anchor="start" x="202" y="-18.5" font-family="Helvetica,sans-Serif" font-size="10.00">plotStyling.PlotStyling.suppress</text>
<text text-anchor="middle" x="272" y="-7.5" font-family="Helvetica,sans-Serif" font-size="10.00">_stdout</text>
</a>
</g>
</g>
<!-- Node1&#45;&gt;Node1 -->
<g id="edge3" class="edge">
<title>Node1&#45;&gt;Node1</title>
<path fill="none" stroke="midnightblue" d="M306.12,-40.96C301.88,-45.68 290.51,-49 272,-49 241.62,-49 230.47,-40.06 238.54,-30.66"/>
<polygon fill="midnightblue" stroke="midnightblue" points="309.59,-40.42 305.46,-30.66 302.6,-40.86 309.59,-40.42"/>
</g>
<!-- Node2 -->
<g id="node2" class="node">
<title>Node2</title>
<g id="a_node2"><a xlink:href="classplotStyling_1_1PlotStyling.html#ae9dad8a775b78d990054ce69ab8bff44" target="_top" xlink:title=" ">
<polygon fill="none" stroke="black" points="0,-6 0,-25 158,-25 158,-6 0,-6"/>
<text text-anchor="middle" x="79" y="-13" font-family="Helvetica,sans-Serif" font-size="10.00">plotStyling.PlotStyling.save_plot</text>
</a>
</g>
</g>
<!-- Node1&#45;&gt;Node2 -->
<g id="edge1" class="edge">
<title>Node1&#45;&gt;Node2</title>
<path fill="none" stroke="midnightblue" d="M183.83,-15.5C175.23,-15.5 166.54,-15.5 158.05,-15.5"/>
<polygon fill="midnightblue" stroke="midnightblue" points="183.86,-19 193.86,-15.5 183.86,-12 183.86,-19"/>
</g>
<!-- Node2&#45;&gt;Node2 -->
<g id="edge2" class="edge">
<title>Node2&#45;&gt;Node2</title>
<path fill="none" stroke="midnightblue" d="M115,-33C114.99,-38.84 102.99,-43.5 79,-43.5 44.88,-43.5 35.01,-34.07 49.41,-25.26"/>
<polygon fill="midnightblue" stroke="midnightblue" points="117.66,-30.73 108.59,-25.26 112.27,-35.19 117.66,-30.73"/>
</g>
</g>
</svg>
