<?xml version="1.0" encoding="UTF-8" standalone="no"?>
<!DOCTYPE svg PUBLIC "-//W3C//DTD SVG 1.1//EN"
 "http://www.w3.org/Graphics/SVG/1.1/DTD/svg11.dtd">
<!-- Generated by graphviz version 2.49.1 (20210923.0004)
 -->
<!-- Title: GSDUtil::readParticles Pages: 1 -->
<svg width="712pt" height="218pt"
 viewBox="0.00 0.00 712.00 218.00" xmlns="http://www.w3.org/2000/svg" xmlns:xlink="http://www.w3.org/1999/xlink">
<g id="graph0" class="graph" transform="scale(1 1) rotate(0) translate(4 214)">
<title>GSDUtil::readParticles</title>
<!-- Node1 -->
<g id="node1" class="node">
<title>Node1</title>
<g id="a_node1"><a xlink:title=" ">
<polygon fill="#bfbfbf" stroke="black" points="0,-133.5 0,-152.5 117,-152.5 117,-133.5 0,-133.5"/>
<text text-anchor="middle" x="58.5" y="-140.5" font-family="Helvetica,sans-Serif" font-size="10.00">GSDUtil::readParticles</text>
</a>
</g>
</g>
<!-- Node2 -->
<g id="node2" class="node">
<title>Node2</title>
<g id="a_node2"><a xlink:href="classGSDUtil.html#a00a919382c11e9dd1fa7ae1a8788d4c0" target="_top" xlink:title=" ">
<polygon fill="none" stroke="black" points="296,-171.5 296,-190.5 432,-190.5 432,-171.5 296,-171.5"/>
<text text-anchor="middle" x="364" y="-178.5" font-family="Helvetica,sans-Serif" font-size="10.00">GSDUtil::checkGSDReturn</text>
</a>
</g>
</g>
<!-- Node1&#45;&gt;Node2 -->
<g id="edge1" class="edge">
<title>Node1&#45;&gt;Node2</title>
<path fill="none" stroke="midnightblue" d="M117.3,-150.24C165.13,-156.23 233.48,-164.78 285.95,-171.35"/>
<polygon fill="midnightblue" stroke="midnightblue" points="285.53,-174.83 295.89,-172.6 286.4,-167.88 285.53,-174.83"/>
</g>
<!-- Node3 -->
<g id="node3" class="node">
<title>Node3</title>
<g id="a_node3"><a xlink:href="classGSDUtil.html#a86d2352b694afc6a0c938a13b3acec9d" target="_top" xlink:title=" ">
<polygon fill="none" stroke="black" points="153,-114.5 153,-133.5 260,-133.5 260,-114.5 153,-114.5"/>
<text text-anchor="middle" x="206.5" y="-121.5" font-family="Helvetica,sans-Serif" font-size="10.00">GSDUtil::readChunk</text>
</a>
</g>
</g>
<!-- Node1&#45;&gt;Node3 -->
<g id="edge2" class="edge">
<title>Node1&#45;&gt;Node3</title>
<path fill="none" stroke="midnightblue" d="M117.2,-135.49C125.68,-134.39 134.45,-133.25 143.02,-132.13"/>
<polygon fill="midnightblue" stroke="midnightblue" points="143.49,-135.6 152.96,-130.84 142.59,-128.66 143.49,-135.6"/>
</g>
<!-- Node3&#45;&gt;Node2 -->
<g id="edge3" class="edge">
<title>Node3&#45;&gt;Node2</title>
<path fill="none" stroke="midnightblue" d="M227.59,-133.51C245.34,-141.7 272.05,-153.5 296,-162 302.51,-164.31 309.45,-166.53 316.3,-168.6"/>
<polygon fill="midnightblue" stroke="midnightblue" points="315.64,-172.05 326.22,-171.49 317.6,-165.33 315.64,-172.05"/>
</g>
<!-- Node4 -->
<g id="node4" class="node">
<title>Node4</title>
<g id="a_node4"><a xlink:href="classGSDUtil.html#abbd7a5860cd0f2b6cc72f1a90d2df018" target="_top" xlink:title=" ">
<polygon fill="none" stroke="black" points="322,-133.5 322,-152.5 406,-152.5 406,-133.5 322,-133.5"/>
<text text-anchor="middle" x="364" y="-140.5" font-family="Helvetica,sans-Serif" font-size="10.00">GSDUtil::frame</text>
</a>
</g>
</g>
<!-- Node3&#45;&gt;Node4 -->
<g id="edge4" class="edge">
<title>Node3&#45;&gt;Node4</title>
<path fill="none" stroke="midnightblue" d="M260.15,-130.43C276.78,-132.47 295.14,-134.71 311.68,-136.73"/>
<polygon fill="midnightblue" stroke="midnightblue" points="311.36,-140.22 321.71,-137.96 312.21,-133.27 311.36,-140.22"/>
</g>
<!-- Node5 -->
<g id="node5" class="node">
<title>Node5</title>
<g id="a_node5"><a xlink:href="gsd_8c.html#ac00249e8c3030557711beb337c8424dd" target="_top" xlink:title=" ">
<polygon fill="none" stroke="black" points="320.5,-95.5 320.5,-114.5 407.5,-114.5 407.5,-95.5 320.5,-95.5"/>
<text text-anchor="middle" x="364" y="-102.5" font-family="Helvetica,sans-Serif" font-size="10.00">gsd_find_chunk</text>
</a>
</g>
</g>
<!-- Node3&#45;&gt;Node5 -->
<g id="edge5" class="edge">
<title>Node3&#45;&gt;Node5</title>
<path fill="none" stroke="midnightblue" d="M260.15,-117.57C276.26,-115.6 293.99,-113.43 310.13,-111.46"/>
<polygon fill="midnightblue" stroke="midnightblue" points="310.96,-114.88 320.46,-110.2 310.11,-107.94 310.96,-114.88"/>
</g>
<!-- Node11 -->
<g id="node11" class="node">
<title>Node11</title>
<g id="a_node11"><a xlink:href="gsd_8c.html#a2db2e3e8a72948bf413e7f09469ec8a6" target="_top" xlink:title=" ">
<polygon fill="none" stroke="black" points="319,-38.5 319,-57.5 409,-57.5 409,-38.5 319,-38.5"/>
<text text-anchor="middle" x="364" y="-45.5" font-family="Helvetica,sans-Serif" font-size="10.00">gsd_read_chunk</text>
</a>
</g>
</g>
<!-- Node3&#45;&gt;Node11 -->
<g id="edge11" class="edge">
<title>Node3&#45;&gt;Node11</title>
<path fill="none" stroke="midnightblue" d="M227.19,-114.37C254.3,-101.13 303.28,-77.19 334.42,-61.97"/>
<polygon fill="midnightblue" stroke="midnightblue" points="336.02,-65.08 343.47,-57.55 332.94,-58.79 336.02,-65.08"/>
</g>
<!-- Node13 -->
<g id="node13" class="node">
<title>Node13</title>
<g id="a_node13"><a xlink:href="gsd_8c.html#ab1d1a8a5f73b37df0c706f41df3bdd69" target="_top" xlink:title=" ">
<polygon fill="none" stroke="black" points="485,-0.5 485,-19.5 574,-19.5 574,-0.5 485,-0.5"/>
<text text-anchor="middle" x="529.5" y="-7.5" font-family="Helvetica,sans-Serif" font-size="10.00">gsd_sizeof_type</text>
</a>
</g>
</g>
<!-- Node3&#45;&gt;Node13 -->
<g id="edge14" class="edge">
<title>Node3&#45;&gt;Node13</title>
<path fill="none" stroke="midnightblue" d="M213.07,-114.27C225.17,-94.18 256.04,-48.36 296,-29 352.48,-1.63 425.79,-0.44 474.84,-3.76"/>
<polygon fill="midnightblue" stroke="midnightblue" points="474.69,-7.25 484.93,-4.52 475.22,-0.27 474.69,-7.25"/>
</g>
<!-- Node6 -->
<g id="node6" class="node">
<title>Node6</title>
<g id="a_node6"><a xlink:href="gsd_8c.html#a3ffe758eed9a5bae487f514a0a45e97d" target="_top" xlink:title=" ">
<polygon fill="none" stroke="black" points="472.5,-190.5 472.5,-209.5 586.5,-209.5 586.5,-190.5 472.5,-190.5"/>
<text text-anchor="middle" x="529.5" y="-197.5" font-family="Helvetica,sans-Serif" font-size="10.00">gsd_cmp_index_entry</text>
</a>
</g>
</g>
<!-- Node5&#45;&gt;Node6 -->
<g id="edge6" class="edge">
<title>Node5&#45;&gt;Node6</title>
<path fill="none" stroke="midnightblue" d="M407.58,-112.03C416.21,-114.8 424.83,-118.64 432,-124 456,-141.94 444.25,-162.73 468,-181 470.45,-182.89 473.09,-184.59 475.85,-186.12"/>
<polygon fill="midnightblue" stroke="midnightblue" points="474.46,-189.33 484.99,-190.47 477.47,-183.01 474.46,-189.33"/>
</g>
<!-- Node7 -->
<g id="node7" class="node">
<title>Node7</title>
<g id="a_node7"><a xlink:href="gsd_8c.html#a7479046d4d6e15c33cb24034ddd87562" target="_top" xlink:title=" ">
<polygon fill="none" stroke="black" points="482.5,-152.5 482.5,-171.5 576.5,-171.5 576.5,-152.5 482.5,-152.5"/>
<text text-anchor="middle" x="529.5" y="-159.5" font-family="Helvetica,sans-Serif" font-size="10.00">gsd_get_nframes</text>
</a>
</g>
</g>
<!-- Node5&#45;&gt;Node7 -->
<g id="edge7" class="edge">
<title>Node5&#45;&gt;Node7</title>
<path fill="none" stroke="midnightblue" d="M404.08,-114.6C413.36,-117.28 423.13,-120.45 432,-124 448.79,-130.73 451.3,-136.04 468,-143 473.21,-145.17 478.76,-147.23 484.3,-149.15"/>
<polygon fill="midnightblue" stroke="midnightblue" points="483.6,-152.6 494.19,-152.41 485.8,-145.95 483.6,-152.6"/>
</g>
<!-- Node8 -->
<g id="node8" class="node">
<title>Node8</title>
<g id="a_node8"><a xlink:href="gsd_8c.html#a493ef951956c9f98adff89a80ddb3fa6" target="_top" xlink:title=" ">
<polygon fill="none" stroke="black" points="479.5,-114.5 479.5,-133.5 579.5,-133.5 579.5,-114.5 479.5,-114.5"/>
<text text-anchor="middle" x="529.5" y="-121.5" font-family="Helvetica,sans-Serif" font-size="10.00">gsd_make_version</text>
</a>
</g>
</g>
<!-- Node5&#45;&gt;Node8 -->
<g id="edge8" class="edge">
<title>Node5&#45;&gt;Node8</title>
<path fill="none" stroke="midnightblue" d="M407.53,-109.94C426.31,-112.12 448.71,-114.73 469.1,-117.1"/>
<polygon fill="midnightblue" stroke="midnightblue" points="468.89,-120.6 479.23,-118.27 469.7,-113.64 468.89,-120.6"/>
</g>
<!-- Node9 -->
<g id="node9" class="node">
<title>Node9</title>
<g id="a_node9"><a xlink:href="gsd_8c.html#a31b9400272036b121040e9fc0a9e626b" target="_top" xlink:title=" ">
<polygon fill="none" stroke="black" points="468,-76.5 468,-95.5 591,-95.5 591,-76.5 468,-76.5"/>
<text text-anchor="middle" x="529.5" y="-83.5" font-family="Helvetica,sans-Serif" font-size="10.00">gsd_name_id_map_find</text>
</a>
</g>
</g>
<!-- Node5&#45;&gt;Node9 -->
<g id="edge9" class="edge">
<title>Node5&#45;&gt;Node9</title>
<path fill="none" stroke="midnightblue" d="M407.53,-100.06C422.88,-98.27 440.64,-96.21 457.74,-94.22"/>
<polygon fill="midnightblue" stroke="midnightblue" points="458.19,-97.69 467.71,-93.06 457.38,-90.74 458.19,-97.69"/>
</g>
<!-- Node10 -->
<g id="node10" class="node">
<title>Node10</title>
<g id="a_node10"><a xlink:href="gsd_8c.html#a6d8087323ec29c58d907b9462b4a31da" target="_top" xlink:title=" ">
<polygon fill="none" stroke="black" points="627,-76.5 627,-95.5 704,-95.5 704,-76.5 627,-76.5"/>
<text text-anchor="middle" x="665.5" y="-83.5" font-family="Helvetica,sans-Serif" font-size="10.00">gsd_hash_str</text>
</a>
</g>
</g>
<!-- Node9&#45;&gt;Node10 -->
<g id="edge10" class="edge">
<title>Node9&#45;&gt;Node10</title>
<path fill="none" stroke="midnightblue" d="M591.23,-86C599.8,-86 608.5,-86 616.78,-86"/>
<polygon fill="midnightblue" stroke="midnightblue" points="617,-89.5 627,-86 617,-82.5 617,-89.5"/>
</g>
<!-- Node12 -->
<g id="node12" class="node">
<title>Node12</title>
<g id="a_node12"><a xlink:href="gsd_8c.html#ac1f41abbefbfe35337e7053d766c089b" target="_top" xlink:title=" ">
<polygon fill="none" stroke="black" points="478,-38.5 478,-57.5 581,-57.5 581,-38.5 478,-38.5"/>
<text text-anchor="middle" x="529.5" y="-45.5" font-family="Helvetica,sans-Serif" font-size="10.00">gsd_io_pread_retry</text>
</a>
</g>
</g>
<!-- Node11&#45;&gt;Node12 -->
<g id="edge12" class="edge">
<title>Node11&#45;&gt;Node12</title>
<path fill="none" stroke="midnightblue" d="M409.25,-48C427.2,-48 448.24,-48 467.61,-48"/>
<polygon fill="midnightblue" stroke="midnightblue" points="467.86,-51.5 477.86,-48 467.86,-44.5 467.86,-51.5"/>
</g>
<!-- Node11&#45;&gt;Node13 -->
<g id="edge13" class="edge">
<title>Node11&#45;&gt;Node13</title>
<path fill="none" stroke="midnightblue" d="M406.26,-38.41C427.93,-33.37 454.68,-27.16 477.63,-21.82"/>
<polygon fill="midnightblue" stroke="midnightblue" points="478.59,-25.19 487.54,-19.52 477.01,-18.37 478.59,-25.19"/>
</g>
</g>
</svg>
