<?xml version="1.0" encoding="UTF-8" standalone="no"?>
<!DOCTYPE svg PUBLIC "-//W3C//DTD SVG 1.1//EN"
 "http://www.w3.org/Graphics/SVG/1.1/DTD/svg11.dtd">
<!-- Generated by graphviz version 2.43.0 (0)
 -->
<!-- Title: RungeKutta4::RungeKutta4 Pages: 1 -->
<svg width="526pt" height="161pt"
 viewBox="0.00 0.00 526.00 161.00" xmlns="http://www.w3.org/2000/svg" xmlns:xlink="http://www.w3.org/1999/xlink">
<g id="graph0" class="graph" transform="scale(1 1) rotate(0) translate(4 157)">
<title>RungeKutta4::RungeKutta4</title>
<!-- Node1 -->
<g id="node1" class="node">
<title>Node1</title>
<g id="a_node1"><a xlink:title="Construct a new runge Kutta4 object.">
<polygon fill="#bfbfbf" stroke="black" points="0,-76.5 0,-95.5 137,-95.5 137,-76.5 0,-76.5"/>
<text text-anchor="middle" x="68.5" y="-83.5" font-family="Helvetica,sans-Serif" font-size="10.00">RungeKutta4::RungeKutta4</text>
</a>
</g>
</g>
<!-- Node2 -->
<g id="node2" class="node">
<title>Node2</title>
<g id="a_node2"><a xlink:href="helper__math_8h.html#ae4378072f9d836b0d4770a1514db2be3" target="_top" xlink:title=" ">
<polygon fill="none" stroke="black" points="236.5,-133.5 236.5,-152.5 268.5,-152.5 268.5,-133.5 236.5,-133.5"/>
<text text-anchor="middle" x="252.5" y="-140.5" font-family="Helvetica,sans-Serif" font-size="10.00">abs</text>
</a>
</g>
</g>
<!-- Node1&#45;&gt;Node2 -->
<g id="edge1" class="edge">
<title>Node1&#45;&gt;Node2</title>
<path fill="none" stroke="midnightblue" d="M93.08,-95.54C113.89,-103.74 145.16,-115.55 173,-124 190.66,-129.36 210.91,-134.23 226.42,-137.7"/>
<polygon fill="midnightblue" stroke="midnightblue" points="225.8,-141.14 236.31,-139.86 227.29,-134.31 225.8,-141.14"/>
</g>
<!-- Node4 -->
<g id="node4" class="node">
<title>Node4</title>
<g id="a_node4"><a xlink:href="classRungeKutta4.html#a946b31500f95a6cf64ac2a758e88db73" target="_top" xlink:title="Replaces 2nd 1/2 of body acceleration D.o.F. with image of 1st 1/2 assuming the reflection plane is .">
<polygon fill="none" stroke="black" points="179.5,-95.5 179.5,-114.5 325.5,-114.5 325.5,-95.5 179.5,-95.5"/>
<text text-anchor="middle" x="252.5" y="-102.5" font-family="Helvetica,sans-Serif" font-size="10.00">RungeKutta4::imageBodyAcc</text>
</a>
</g>
</g>
<!-- Node1&#45;&gt;Node4 -->
<g id="edge3" class="edge">
<title>Node1&#45;&gt;Node4</title>
<path fill="none" stroke="midnightblue" d="M137.01,-93.05C147.44,-94.14 158.31,-95.27 169.01,-96.39"/>
<polygon fill="midnightblue" stroke="midnightblue" points="168.9,-99.9 179.21,-97.45 169.63,-92.93 168.9,-99.9"/>
</g>
<!-- Node5 -->
<g id="node5" class="node">
<title>Node5</title>
<g id="a_node5"><a xlink:href="classRungeKutta4.html#abc1cc48fea62c46948a51ca2b2000590" target="_top" xlink:title="Replaces 2nd 1/2 of body position and velocity D.o.F. with image of 1st 1/2 assuming the reflection p...">
<polygon fill="none" stroke="black" points="173,-57.5 173,-76.5 332,-76.5 332,-57.5 173,-57.5"/>
<text text-anchor="middle" x="252.5" y="-64.5" font-family="Helvetica,sans-Serif" font-size="10.00">RungeKutta4::imageBodyPosVel</text>
</a>
</g>
</g>
<!-- Node1&#45;&gt;Node5 -->
<g id="edge4" class="edge">
<title>Node1&#45;&gt;Node5</title>
<path fill="none" stroke="midnightblue" d="M137.01,-78.95C145.37,-78.08 154.02,-77.18 162.64,-76.28"/>
<polygon fill="midnightblue" stroke="midnightblue" points="163.15,-79.74 172.73,-75.22 162.42,-72.78 163.15,-79.74"/>
</g>
<!-- Node6 -->
<g id="node6" class="node">
<title>Node6</title>
<g id="a_node6"><a xlink:href="classRungeKutta4.html#acca3997f41542bb0536436fbb64e4b40" target="_top" xlink:title="(linear/angular) momentum and (linear/angular) force free algorithm">
<polygon fill="none" stroke="black" points="179.5,-19.5 179.5,-38.5 325.5,-38.5 325.5,-19.5 179.5,-19.5"/>
<text text-anchor="middle" x="252.5" y="-26.5" font-family="Helvetica,sans-Serif" font-size="10.00">RungeKutta4::momForceFree</text>
</a>
</g>
</g>
<!-- Node1&#45;&gt;Node6 -->
<g id="edge5" class="edge">
<title>Node1&#45;&gt;Node6</title>
<path fill="none" stroke="midnightblue" d="M93.08,-76.46C113.89,-68.26 145.16,-56.45 173,-48 181.1,-45.54 189.75,-43.19 198.23,-41.02"/>
<polygon fill="midnightblue" stroke="midnightblue" points="199.21,-44.38 208.07,-38.57 197.52,-37.59 199.21,-44.38"/>
</g>
<!-- Node3 -->
<g id="node3" class="node">
<title>Node3</title>
<g id="a_node3"><a xlink:href="helper__math_8h.html#a3be05aff487ded3c05aab21d24dd6439" target="_top" xlink:title=" ">
<polygon fill="none" stroke="black" points="370.5,-133.5 370.5,-152.5 432.5,-152.5 432.5,-133.5 370.5,-133.5"/>
<text text-anchor="middle" x="401.5" y="-140.5" font-family="Helvetica,sans-Serif" font-size="10.00">make_int2</text>
</a>
</g>
</g>
<!-- Node2&#45;&gt;Node3 -->
<g id="edge2" class="edge">
<title>Node2&#45;&gt;Node3</title>
<path fill="none" stroke="midnightblue" d="M268.68,-143C290.07,-143 329.86,-143 360.15,-143"/>
<polygon fill="midnightblue" stroke="midnightblue" points="360.42,-146.5 370.42,-143 360.42,-139.5 360.42,-146.5"/>
</g>
<!-- Node7 -->
<g id="node7" class="node">
<title>Node7</title>
<g id="a_node7"><a xlink:href="helper__eigenTensorConversion_8hpp.html#a556d08b55a6ad7cd703b6db06194e5cf" target="_top" xlink:title=" ">
<polygon fill="none" stroke="black" points="369,-38.5 369,-57.5 434,-57.5 434,-38.5 369,-38.5"/>
<text text-anchor="middle" x="401.5" y="-45.5" font-family="Helvetica,sans-Serif" font-size="10.00">MatrixCast</text>
</a>
</g>
</g>
<!-- Node6&#45;&gt;Node7 -->
<g id="edge6" class="edge">
<title>Node6&#45;&gt;Node7</title>
<path fill="none" stroke="midnightblue" d="M325.71,-38.33C337.03,-39.8 348.4,-41.27 358.74,-42.6"/>
<polygon fill="midnightblue" stroke="midnightblue" points="358.32,-46.08 368.68,-43.89 359.21,-39.13 358.32,-46.08"/>
</g>
<!-- Node9 -->
<g id="node9" class="node">
<title>Node9</title>
<g id="a_node9"><a xlink:href="helper__eigenTensorConversion_8hpp.html#a3a32f7de3f099464192073a93b34d580" target="_top" xlink:title="Convert Eigen::Matrix &#45;&#45;&gt; Eigen::Tensor.">
<polygon fill="none" stroke="black" points="368,-0.5 368,-19.5 435,-19.5 435,-0.5 368,-0.5"/>
<text text-anchor="middle" x="401.5" y="-7.5" font-family="Helvetica,sans-Serif" font-size="10.00">TensorCast</text>
</a>
</g>
</g>
<!-- Node6&#45;&gt;Node9 -->
<g id="edge8" class="edge">
<title>Node6&#45;&gt;Node9</title>
<path fill="none" stroke="midnightblue" d="M325.71,-19.67C336.7,-18.25 347.73,-16.82 357.82,-15.52"/>
<polygon fill="midnightblue" stroke="midnightblue" points="358.48,-18.96 367.95,-14.21 357.58,-12.02 358.48,-18.96"/>
</g>
<!-- Node8 -->
<g id="node8" class="node">
<title>Node8</title>
<g id="a_node8"><a xlink:href="helper__eigenTensorConversion_8hpp.html#a2a7eca6b17fb874869047bd0b5f11b46" target="_top" xlink:title=" ">
<polygon fill="none" stroke="black" points="471,-38.5 471,-57.5 518,-57.5 518,-38.5 471,-38.5"/>
<text text-anchor="middle" x="494.5" y="-45.5" font-family="Helvetica,sans-Serif" font-size="10.00">asEval</text>
</a>
</g>
</g>
<!-- Node7&#45;&gt;Node8 -->
<g id="edge7" class="edge">
<title>Node7&#45;&gt;Node8</title>
<path fill="none" stroke="midnightblue" d="M434.07,-48C442.68,-48 452.03,-48 460.71,-48"/>
<polygon fill="midnightblue" stroke="midnightblue" points="460.87,-51.5 470.87,-48 460.87,-44.5 460.87,-51.5"/>
</g>
</g>
</svg>
