<?xml version="1.0" encoding="UTF-8" standalone="no"?>
<!DOCTYPE svg PUBLIC "-//W3C//DTD SVG 1.1//EN"
 "http://www.w3.org/Graphics/SVG/1.1/DTD/svg11.dtd">
<!-- Generated by graphviz version 2.43.0 (0)
 -->
<!-- Title: systemData::update Pages: 1 -->
<svg width="488pt" height="225pt"
 viewBox="0.00 0.00 488.00 224.50" xmlns="http://www.w3.org/2000/svg" xmlns:xlink="http://www.w3.org/1999/xlink">
<g id="graph0" class="graph" transform="scale(1 1) rotate(0) translate(4 220.5)">
<title>systemData::update</title>
<!-- Node1 -->
<g id="node1" class="node">
<title>Node1</title>
<g id="a_node1"><a xlink:title="Updates all relevant rigid body motion tensors, respective gradients, and kinematic/Udwadia constrain...">
<polygon fill="#bfbfbf" stroke="black" points="0,-93.5 0,-112.5 105,-112.5 105,-93.5 0,-93.5"/>
<text text-anchor="middle" x="52.5" y="-100.5" font-family="Helvetica,sans-Serif" font-size="10.00">systemData::update</text>
</a>
</g>
</g>
<!-- Node2 -->
<g id="node2" class="node">
<title>Node2</title>
<g id="a_node2"><a xlink:href="classsystemData.html#ac981cce9f038194aea9f48f57252ca7b" target="_top" xlink:title="Computes the articulation (linear) accelerations of the particles relative to their respective locate...">
<polygon fill="none" stroke="black" points="157,-186 157,-216 291,-216 291,-186 157,-186"/>
<text text-anchor="start" x="165" y="-204" font-family="Helvetica,sans-Serif" font-size="10.00">systemData::accelerations</text>
<text text-anchor="middle" x="224" y="-193" font-family="Helvetica,sans-Serif" font-size="10.00">Articulation</text>
</a>
</g>
</g>
<!-- Node1&#45;&gt;Node2 -->
<g id="edge1" class="edge">
<title>Node1&#45;&gt;Node2</title>
<path fill="none" stroke="midnightblue" d="M62.24,-112.64C76.99,-128.35 108.41,-159.47 141,-177 144.43,-178.84 148.02,-180.56 151.7,-182.16"/>
<polygon fill="midnightblue" stroke="midnightblue" points="150.4,-185.41 160.99,-185.89 153.01,-178.92 150.4,-185.41"/>
</g>
<!-- Node3 -->
<g id="node3" class="node">
<title>Node3</title>
<g id="a_node3"><a xlink:href="classsystemData.html#a3c41026c4b66d4f6e6e22a6398c6ced8" target="_top" xlink:title="Computes the gradients rigid body motion connectivity tensors and tensors associated with change of v...">
<polygon fill="none" stroke="black" points="152,-137 152,-167 296,-167 296,-137 152,-137"/>
<text text-anchor="start" x="160" y="-155" font-family="Helvetica,sans-Serif" font-size="10.00">systemData::gradientChange</text>
<text text-anchor="middle" x="224" y="-144" font-family="Helvetica,sans-Serif" font-size="10.00">OfVariableTensors</text>
</a>
</g>
</g>
<!-- Node1&#45;&gt;Node3 -->
<g id="edge2" class="edge">
<title>Node1&#45;&gt;Node3</title>
<path fill="none" stroke="midnightblue" d="M86.58,-112.56C107.76,-118.69 135.9,-126.82 161.12,-134.11"/>
<polygon fill="midnightblue" stroke="midnightblue" points="160.41,-137.55 170.98,-136.96 162.35,-130.82 160.41,-137.55"/>
</g>
<!-- Node6 -->
<g id="node6" class="node">
<title>Node6</title>
<g id="a_node6"><a xlink:href="classsystemData.html#a05afc9e7e7423d88def51ec43ab91a33" target="_top" xlink:title="Computes the rigid body motion connectivity tensors.">
<polygon fill="none" stroke="black" points="151,-88 151,-118 297,-118 297,-88 151,-88"/>
<text text-anchor="start" x="159" y="-106" font-family="Helvetica,sans-Serif" font-size="10.00">systemData::rigidBodyMotion</text>
<text text-anchor="middle" x="224" y="-95" font-family="Helvetica,sans-Serif" font-size="10.00">Tensors</text>
</a>
</g>
</g>
<!-- Node1&#45;&gt;Node6 -->
<g id="edge5" class="edge">
<title>Node1&#45;&gt;Node6</title>
<path fill="none" stroke="midnightblue" d="M105.28,-103C116.53,-103 128.71,-103 140.82,-103"/>
<polygon fill="midnightblue" stroke="midnightblue" points="140.95,-106.5 150.95,-103 140.95,-99.5 140.95,-106.5"/>
</g>
<!-- Node9 -->
<g id="node9" class="node">
<title>Node9</title>
<g id="a_node9"><a xlink:href="classsystemData.html#aaf3a4980d7dc49d7339a828ed95ee4d6" target="_top" xlink:title="Computes the Udwadia constraint matrix and vector to uphold the quaternion unitary norm for each body...">
<polygon fill="none" stroke="black" points="155,-39 155,-69 293,-69 293,-39 155,-39"/>
<text text-anchor="start" x="163" y="-57" font-family="Helvetica,sans-Serif" font-size="10.00">systemData::udwadiaLinear</text>
<text text-anchor="middle" x="224" y="-46" font-family="Helvetica,sans-Serif" font-size="10.00">System</text>
</a>
</g>
</g>
<!-- Node1&#45;&gt;Node9 -->
<g id="edge10" class="edge">
<title>Node1&#45;&gt;Node9</title>
<path fill="none" stroke="midnightblue" d="M86.58,-93.44C107.76,-87.31 135.9,-79.18 161.12,-71.89"/>
<polygon fill="midnightblue" stroke="midnightblue" points="162.35,-75.18 170.98,-69.04 160.41,-68.45 162.35,-75.18"/>
</g>
<!-- Node10 -->
<g id="node10" class="node">
<title>Node10</title>
<g id="a_node10"><a xlink:href="classsystemData.html#a6bd16f2dd99236594ce5b12cd2cab57a" target="_top" xlink:title="Computes the articulation (linear) velocities of the particles relative to their respective locater p...">
<polygon fill="none" stroke="black" points="141,-0.5 141,-19.5 307,-19.5 307,-0.5 141,-0.5"/>
<text text-anchor="middle" x="224" y="-7.5" font-family="Helvetica,sans-Serif" font-size="10.00">systemData::velocitiesArticulation</text>
</a>
</g>
</g>
<!-- Node1&#45;&gt;Node10 -->
<g id="edge11" class="edge">
<title>Node1&#45;&gt;Node10</title>
<path fill="none" stroke="midnightblue" d="M61.9,-93.41C76.38,-77.48 107.74,-45.68 141,-29 145.82,-26.58 150.95,-24.47 156.2,-22.62"/>
<polygon fill="midnightblue" stroke="midnightblue" points="157.29,-25.95 165.75,-19.57 155.16,-19.28 157.29,-25.95"/>
</g>
<!-- Node4 -->
<g id="node4" class="node">
<title>Node4</title>
<g id="a_node4"><a xlink:href="classsystemData.html#a19a83a255eb6f1de4bcfe2ea8e31ffa9" target="_top" xlink:title="Computes the E matrix of quaternion (4&#45;vector) input.">
<polygon fill="none" stroke="black" points="357.5,-156.5 357.5,-175.5 465.5,-175.5 465.5,-156.5 357.5,-156.5"/>
<text text-anchor="middle" x="411.5" y="-163.5" font-family="Helvetica,sans-Serif" font-size="10.00">systemData::eMatrix</text>
</a>
</g>
</g>
<!-- Node3&#45;&gt;Node4 -->
<g id="edge3" class="edge">
<title>Node3&#45;&gt;Node4</title>
<path fill="none" stroke="midnightblue" d="M296.19,-157.37C313.03,-158.64 330.87,-159.99 347.32,-161.23"/>
<polygon fill="midnightblue" stroke="midnightblue" points="347.13,-164.73 357.37,-161.99 347.66,-157.75 347.13,-164.73"/>
</g>
<!-- Node5 -->
<g id="node5" class="node">
<title>Node5</title>
<g id="a_node5"><a xlink:href="helper__eigenTensorConversion_8hpp.html#a3a32f7de3f099464192073a93b34d580" target="_top" xlink:title="Convert Eigen::Matrix &#45;&#45;&gt; Eigen::Tensor.">
<polygon fill="none" stroke="black" points="378,-118.5 378,-137.5 445,-137.5 445,-118.5 378,-118.5"/>
<text text-anchor="middle" x="411.5" y="-125.5" font-family="Helvetica,sans-Serif" font-size="10.00">TensorCast</text>
</a>
</g>
</g>
<!-- Node3&#45;&gt;Node5 -->
<g id="edge4" class="edge">
<title>Node3&#45;&gt;Node5</title>
<path fill="none" stroke="midnightblue" d="M296.19,-142.79C320.25,-139.68 346.35,-136.3 367.54,-133.56"/>
<polygon fill="midnightblue" stroke="midnightblue" points="368.04,-137.02 377.51,-132.27 367.14,-130.08 368.04,-137.02"/>
</g>
<!-- Node6&#45;&gt;Node4 -->
<g id="edge7" class="edge">
<title>Node6&#45;&gt;Node4</title>
<path fill="none" stroke="midnightblue" d="M279.76,-118.11C288.96,-121.1 298.33,-124.43 307,-128 323.73,-134.89 326.2,-140.29 343,-147 348.86,-149.34 355.12,-151.51 361.37,-153.49"/>
<polygon fill="midnightblue" stroke="midnightblue" points="360.54,-156.9 371.13,-156.43 362.56,-150.19 360.54,-156.9"/>
</g>
<!-- Node6&#45;&gt;Node5 -->
<g id="edge9" class="edge">
<title>Node6&#45;&gt;Node5</title>
<path fill="none" stroke="midnightblue" d="M297.25,-112.74C321.1,-115.95 346.84,-119.42 367.75,-122.24"/>
<polygon fill="midnightblue" stroke="midnightblue" points="367.53,-125.74 377.91,-123.61 368.46,-118.8 367.53,-125.74"/>
</g>
<!-- Node7 -->
<g id="node7" class="node">
<title>Node7</title>
<g id="a_node7"><a xlink:href="classsystemData.html#a0a77c933b764fb36c64ec5e66011482c" target="_top" xlink:title="Function takes in vector in vector cross&#45;product expression: .">
<polygon fill="none" stroke="black" points="343,-80.5 343,-99.5 480,-99.5 480,-80.5 343,-80.5"/>
<text text-anchor="middle" x="411.5" y="-87.5" font-family="Helvetica,sans-Serif" font-size="10.00">systemData::crossProdMat</text>
</a>
</g>
</g>
<!-- Node6&#45;&gt;Node7 -->
<g id="edge6" class="edge">
<title>Node6&#45;&gt;Node7</title>
<path fill="none" stroke="midnightblue" d="M297.25,-97.94C308.9,-97.12 320.99,-96.27 332.76,-95.45"/>
<polygon fill="midnightblue" stroke="midnightblue" points="333.27,-98.92 343,-94.73 332.78,-91.94 333.27,-98.92"/>
</g>
<!-- Node8 -->
<g id="node8" class="node">
<title>Node8</title>
<g id="a_node8"><a xlink:href="classsystemData.html#a9a8e856d1285735bfb9cbd41ef764345" target="_top" xlink:title=" ">
<polygon fill="none" stroke="black" points="370,-42.5 370,-61.5 453,-61.5 453,-42.5 370,-42.5"/>
<text text-anchor="middle" x="411.5" y="-49.5" font-family="Helvetica,sans-Serif" font-size="10.00">systemData::i3</text>
</a>
</g>
</g>
<!-- Node6&#45;&gt;Node8 -->
<g id="edge8" class="edge">
<title>Node6&#45;&gt;Node8</title>
<path fill="none" stroke="midnightblue" d="M279.65,-87.97C307.11,-80.43 339.95,-71.4 365.87,-64.27"/>
<polygon fill="midnightblue" stroke="midnightblue" points="367.08,-67.57 375.79,-61.54 365.22,-60.82 367.08,-67.57"/>
</g>
</g>
</svg>
