<?xml version="1.0" encoding="UTF-8" standalone="no"?>
<!DOCTYPE svg PUBLIC "-//W3C//DTD SVG 1.1//EN"
 "http://www.w3.org/Graphics/SVG/1.1/DTD/svg11.dtd">
<!-- Generated by graphviz version 2.49.1 (20210923.0004)
 -->
<!-- Title: engine Pages: 1 -->
<svg width="136pt" height="376pt"
 viewBox="0.00 0.00 136.00 376.00" xmlns="http://www.w3.org/2000/svg" xmlns:xlink="http://www.w3.org/1999/xlink">
<g id="graph0" class="graph" transform="scale(1 1) rotate(0) translate(4 372)">
<title>engine</title>
<!-- Node1 -->
<g id="node1" class="node">
<title>Node1</title>
<g id="a_node1"><a xlink:title="Manages the time integration of the simulation system as well as when to output data to GSD.">
<polygon fill="#bfbfbf" stroke="black" points="0,-0.5 0,-145.5 128,-145.5 128,-0.5 0,-0.5"/>
<text text-anchor="middle" x="64" y="-133.5" font-family="Helvetica,sans-Serif" font-size="10.00">engine</text>
<polyline fill="none" stroke="black" points="0,-126.5 128,-126.5 "/>
<text text-anchor="start" x="8" y="-114.5" font-family="Helvetica,sans-Serif" font-size="10.00">&#45; m_system</text>
<text text-anchor="start" x="8" y="-103.5" font-family="Helvetica,sans-Serif" font-size="10.00">&#45; m_potHydro</text>
<text text-anchor="start" x="8" y="-92.5" font-family="Helvetica,sans-Serif" font-size="10.00">&#45; m_rk4Integrator</text>
<text text-anchor="start" x="8" y="-81.5" font-family="Helvetica,sans-Serif" font-size="10.00">&#45; m_progressBar</text>
<text text-anchor="start" x="8" y="-70.5" font-family="Helvetica,sans-Serif" font-size="10.00">&#45; m_num_physical_cores</text>
<text text-anchor="start" x="8" y="-59.5" font-family="Helvetica,sans-Serif" font-size="10.00">&#45; m_outputPercentile</text>
<polyline fill="none" stroke="black" points="0,-52.5 128,-52.5 "/>
<text text-anchor="start" x="8" y="-40.5" font-family="Helvetica,sans-Serif" font-size="10.00">+ engine()</text>
<text text-anchor="start" x="8" y="-29.5" font-family="Helvetica,sans-Serif" font-size="10.00">+ ~engine()</text>
<text text-anchor="start" x="8" y="-18.5" font-family="Helvetica,sans-Serif" font-size="10.00">+ run()</text>
<text text-anchor="start" x="8" y="-7.5" font-family="Helvetica,sans-Serif" font-size="10.00">&#45; integrate()</text>
</a>
</g>
</g>
<!-- Node2 -->
<g id="node2" class="node">
<title>Node2</title>
<g id="a_node2"><a xlink:title=" ">
<polygon fill="none" stroke="#bfbfbf" points="34,-204.5 34,-261.5 94,-261.5 94,-204.5 34,-204.5"/>
<text text-anchor="middle" x="64" y="-249.5" font-family="Helvetica,sans-Serif" font-size="10.00">std::string</text>
<polyline fill="none" stroke="#bfbfbf" points="34,-242.5 94,-242.5 "/>
<text text-anchor="middle" x="64" y="-230.5" font-family="Helvetica,sans-Serif" font-size="10.00"> </text>
<polyline fill="none" stroke="#bfbfbf" points="34,-223.5 94,-223.5 "/>
<text text-anchor="middle" x="64" y="-211.5" font-family="Helvetica,sans-Serif" font-size="10.00"> </text>
</a>
</g>
</g>
<!-- Node2&#45;&gt;Node1 -->
<g id="edge1" class="edge">
<title>Node2&#45;&gt;Node1</title>
<path fill="none" stroke="#404040" d="M64,-204.48C64,-191.32 64,-174.78 64,-157.94"/>
<polygon fill="none" stroke="#404040" points="64,-157.67 60,-151.67 64,-145.67 68,-151.67 64,-157.67"/>
<text text-anchor="middle" x="93" y="-178" font-family="Helvetica,sans-Serif" font-size="10.00"> &#45;m_logFile</text>
<text text-anchor="middle" x="93" y="-167" font-family="Helvetica,sans-Serif" font-size="10.00">&#45;m_logName</text>
</g>
<!-- Node3 -->
<g id="node3" class="node">
<title>Node3</title>
<g id="a_node3"><a xlink:title=" ">
<polygon fill="none" stroke="#bfbfbf" points="16.5,-299.5 16.5,-367.5 111.5,-367.5 111.5,-299.5 16.5,-299.5"/>
<text text-anchor="start" x="24.5" y="-355.5" font-family="Helvetica,sans-Serif" font-size="10.00">std::basic_string&lt;</text>
<text text-anchor="middle" x="64" y="-344.5" font-family="Helvetica,sans-Serif" font-size="10.00"> Char &gt;</text>
<polyline fill="none" stroke="#bfbfbf" points="16.5,-337.5 111.5,-337.5 "/>
<text text-anchor="middle" x="64" y="-325.5" font-family="Helvetica,sans-Serif" font-size="10.00"> </text>
<polyline fill="none" stroke="#bfbfbf" points="16.5,-318.5 111.5,-318.5 "/>
<text text-anchor="middle" x="64" y="-306.5" font-family="Helvetica,sans-Serif" font-size="10.00"> </text>
</a>
</g>
</g>
<!-- Node3&#45;&gt;Node2 -->
<g id="edge2" class="edge">
<title>Node3&#45;&gt;Node2</title>
<path fill="none" stroke="midnightblue" d="M64,-289.38C64,-279.94 64,-270.2 64,-261.57"/>
<polygon fill="none" stroke="midnightblue" points="60.5,-289.43 64,-299.43 67.5,-289.43 60.5,-289.43"/>
</g>
</g>
</svg>
