<?xml version="1.0" encoding="UTF-8" standalone="no"?>
<!DOCTYPE svg PUBLIC "-//W3C//DTD SVG 1.1//EN"
 "http://www.w3.org/Graphics/SVG/1.1/DTD/svg11.dtd">
<!-- Generated by graphviz version 2.43.0 (0)
 -->
<!-- Title: GSDUtil::readChunk Pages: 1 -->
<svg width="554pt" height="218pt"
 viewBox="0.00 0.00 554.00 218.00" xmlns="http://www.w3.org/2000/svg" xmlns:xlink="http://www.w3.org/1999/xlink">
<g id="graph0" class="graph" transform="scale(1 1) rotate(0) translate(4 214)">
<title>GSDUtil::readChunk</title>
<!-- Node1 -->
<g id="node1" class="node">
<title>Node1</title>
<g id="a_node1"><a xlink:title="Finds and then loads data from GSD.">
<polygon fill="#bfbfbf" stroke="black" points="0,-95.5 0,-114.5 107,-114.5 107,-95.5 0,-95.5"/>
<text text-anchor="middle" x="53.5" y="-102.5" font-family="Helvetica,sans-Serif" font-size="10.00">GSDUtil::readChunk</text>
</a>
</g>
</g>
<!-- Node2 -->
<g id="node2" class="node">
<title>Node2</title>
<g id="a_node2"><a xlink:href="classGSDUtil.html#a00a919382c11e9dd1fa7ae1a8788d4c0" target="_top" xlink:title="Helper function that checks data parsing from GSD is successful.">
<polygon fill="none" stroke="black" points="143,-171.5 143,-190.5 280,-190.5 280,-171.5 143,-171.5"/>
<text text-anchor="middle" x="211.5" y="-178.5" font-family="Helvetica,sans-Serif" font-size="10.00">GSDUtil::checkGSDReturn</text>
</a>
</g>
</g>
<!-- Node1&#45;&gt;Node2 -->
<g id="edge1" class="edge">
<title>Node1&#45;&gt;Node2</title>
<path fill="none" stroke="midnightblue" d="M66.72,-114.56C83.19,-127.05 113.84,-148.86 143,-162 148.26,-164.37 153.89,-166.51 159.57,-168.44"/>
<polygon fill="midnightblue" stroke="midnightblue" points="158.52,-171.78 169.11,-171.46 160.64,-165.1 158.52,-171.78"/>
</g>
<!-- Node3 -->
<g id="node3" class="node">
<title>Node3</title>
<g id="a_node3"><a xlink:href="classGSDUtil.html#abbd7a5860cd0f2b6cc72f1a90d2df018" target="_top" xlink:title=" ">
<polygon fill="none" stroke="black" points="169.5,-133.5 169.5,-152.5 253.5,-152.5 253.5,-133.5 169.5,-133.5"/>
<text text-anchor="middle" x="211.5" y="-140.5" font-family="Helvetica,sans-Serif" font-size="10.00">GSDUtil::frame</text>
</a>
</g>
</g>
<!-- Node1&#45;&gt;Node3 -->
<g id="edge2" class="edge">
<title>Node1&#45;&gt;Node3</title>
<path fill="none" stroke="midnightblue" d="M93.87,-114.59C114.45,-119.6 139.84,-125.79 161.67,-131.11"/>
<polygon fill="midnightblue" stroke="midnightblue" points="160.87,-134.51 171.42,-133.48 162.53,-127.71 160.87,-134.51"/>
</g>
<!-- Node4 -->
<g id="node4" class="node">
<title>Node4</title>
<g id="a_node4"><a xlink:href="gsd_8c.html#a3c76bbf6c28b953cff198a44852c732f" target="_top" xlink:title=" ">
<polygon fill="none" stroke="black" points="169,-95.5 169,-114.5 254,-114.5 254,-95.5 169,-95.5"/>
<text text-anchor="middle" x="211.5" y="-102.5" font-family="Helvetica,sans-Serif" font-size="10.00">gsd_find_chunk</text>
</a>
</g>
</g>
<!-- Node1&#45;&gt;Node4 -->
<g id="edge3" class="edge">
<title>Node1&#45;&gt;Node4</title>
<path fill="none" stroke="midnightblue" d="M107.31,-105C123.86,-105 142.09,-105 158.58,-105"/>
<polygon fill="midnightblue" stroke="midnightblue" points="158.58,-108.5 168.58,-105 158.58,-101.5 158.58,-108.5"/>
</g>
<!-- Node10 -->
<g id="node10" class="node">
<title>Node10</title>
<g id="a_node10"><a xlink:href="gsd_8c.html#a2db2e3e8a72948bf413e7f09469ec8a6" target="_top" xlink:title=" ">
<polygon fill="none" stroke="black" points="167.5,-38.5 167.5,-57.5 255.5,-57.5 255.5,-38.5 167.5,-38.5"/>
<text text-anchor="middle" x="211.5" y="-45.5" font-family="Helvetica,sans-Serif" font-size="10.00">gsd_read_chunk</text>
</a>
</g>
</g>
<!-- Node1&#45;&gt;Node10 -->
<g id="edge9" class="edge">
<title>Node1&#45;&gt;Node10</title>
<path fill="none" stroke="midnightblue" d="M80.61,-95.46C106.37,-86.05 145.95,-71.59 174.65,-61.1"/>
<polygon fill="midnightblue" stroke="midnightblue" points="176.11,-64.29 184.3,-57.57 173.71,-57.72 176.11,-64.29"/>
</g>
<!-- Node12 -->
<g id="node12" class="node">
<title>Node12</title>
<g id="a_node12"><a xlink:href="gsd_8c.html#ab1d1a8a5f73b37df0c706f41df3bdd69" target="_top" xlink:title=" ">
<polygon fill="none" stroke="black" points="331.5,-0.5 331.5,-19.5 419.5,-19.5 419.5,-0.5 331.5,-0.5"/>
<text text-anchor="middle" x="375.5" y="-7.5" font-family="Helvetica,sans-Serif" font-size="10.00">gsd_sizeof_type</text>
</a>
</g>
</g>
<!-- Node1&#45;&gt;Node12 -->
<g id="edge12" class="edge">
<title>Node1&#45;&gt;Node12</title>
<path fill="none" stroke="midnightblue" d="M62.03,-95.41C75.94,-78.51 107.49,-43.83 143,-29 200.37,-5.03 272.61,-3.04 321,-5.25"/>
<polygon fill="midnightblue" stroke="midnightblue" points="321.08,-8.76 331.25,-5.8 321.45,-1.77 321.08,-8.76"/>
</g>
<!-- Node5 -->
<g id="node5" class="node">
<title>Node5</title>
<g id="a_node5"><a xlink:href="gsd_8c.html#a3ffe758eed9a5bae487f514a0a45e97d" target="_top" xlink:title=" ">
<polygon fill="none" stroke="black" points="319.5,-190.5 319.5,-209.5 431.5,-209.5 431.5,-190.5 319.5,-190.5"/>
<text text-anchor="middle" x="375.5" y="-197.5" font-family="Helvetica,sans-Serif" font-size="10.00">gsd_cmp_index_entry</text>
</a>
</g>
</g>
<!-- Node4&#45;&gt;Node5 -->
<g id="edge4" class="edge">
<title>Node4&#45;&gt;Node5</title>
<path fill="none" stroke="midnightblue" d="M254.33,-111.66C263.39,-114.44 272.49,-118.39 280,-124 304.02,-141.92 292.34,-162.61 316,-181 318.33,-182.81 320.84,-184.46 323.47,-185.94"/>
<polygon fill="midnightblue" stroke="midnightblue" points="322.2,-189.22 332.73,-190.43 325.25,-182.92 322.2,-189.22"/>
</g>
<!-- Node6 -->
<g id="node6" class="node">
<title>Node6</title>
<g id="a_node6"><a xlink:href="gsd_8c.html#a7479046d4d6e15c33cb24034ddd87562" target="_top" xlink:title=" ">
<polygon fill="none" stroke="black" points="329.5,-152.5 329.5,-171.5 421.5,-171.5 421.5,-152.5 329.5,-152.5"/>
<text text-anchor="middle" x="375.5" y="-159.5" font-family="Helvetica,sans-Serif" font-size="10.00">gsd_get_nframes</text>
</a>
</g>
</g>
<!-- Node4&#45;&gt;Node6 -->
<g id="edge5" class="edge">
<title>Node4&#45;&gt;Node6</title>
<path fill="none" stroke="midnightblue" d="M251.87,-114.57C261.22,-117.26 271.07,-120.43 280,-124 296.8,-130.71 299.34,-135.96 316,-143 321.1,-145.16 326.54,-147.22 331.97,-149.14"/>
<polygon fill="midnightblue" stroke="midnightblue" points="331.05,-152.52 341.65,-152.42 333.3,-145.89 331.05,-152.52"/>
</g>
<!-- Node7 -->
<g id="node7" class="node">
<title>Node7</title>
<g id="a_node7"><a xlink:href="gsd_8c.html#a493ef951956c9f98adff89a80ddb3fa6" target="_top" xlink:title=" ">
<polygon fill="none" stroke="black" points="326.5,-114.5 326.5,-133.5 424.5,-133.5 424.5,-114.5 326.5,-114.5"/>
<text text-anchor="middle" x="375.5" y="-121.5" font-family="Helvetica,sans-Serif" font-size="10.00">gsd_make_version</text>
</a>
</g>
</g>
<!-- Node4&#45;&gt;Node7 -->
<g id="edge6" class="edge">
<title>Node4&#45;&gt;Node7</title>
<path fill="none" stroke="midnightblue" d="M254.22,-109.89C273.07,-112.1 295.66,-114.75 316.14,-117.16"/>
<polygon fill="midnightblue" stroke="midnightblue" points="315.98,-120.66 326.32,-118.35 316.8,-113.71 315.98,-120.66"/>
</g>
<!-- Node8 -->
<g id="node8" class="node">
<title>Node8</title>
<g id="a_node8"><a xlink:href="gsd_8c.html#a31b9400272036b121040e9fc0a9e626b" target="_top" xlink:title=" ">
<polygon fill="none" stroke="black" points="316,-76.5 316,-95.5 435,-95.5 435,-76.5 316,-76.5"/>
<text text-anchor="middle" x="375.5" y="-83.5" font-family="Helvetica,sans-Serif" font-size="10.00">gsd_name_id_map_find</text>
</a>
</g>
</g>
<!-- Node4&#45;&gt;Node8 -->
<g id="edge7" class="edge">
<title>Node4&#45;&gt;Node8</title>
<path fill="none" stroke="midnightblue" d="M254.22,-100.11C269.89,-98.27 288.16,-96.13 305.65,-94.08"/>
<polygon fill="midnightblue" stroke="midnightblue" points="306.3,-97.52 315.83,-92.88 305.49,-90.57 306.3,-97.52"/>
</g>
<!-- Node9 -->
<g id="node9" class="node">
<title>Node9</title>
<g id="a_node9"><a xlink:href="gsd_8c.html#a6d8087323ec29c58d907b9462b4a31da" target="_top" xlink:title=" ">
<polygon fill="none" stroke="black" points="471,-76.5 471,-95.5 546,-95.5 546,-76.5 471,-76.5"/>
<text text-anchor="middle" x="508.5" y="-83.5" font-family="Helvetica,sans-Serif" font-size="10.00">gsd_hash_str</text>
</a>
</g>
</g>
<!-- Node8&#45;&gt;Node9 -->
<g id="edge8" class="edge">
<title>Node8&#45;&gt;Node9</title>
<path fill="none" stroke="midnightblue" d="M435.1,-86C443.63,-86 452.31,-86 460.57,-86"/>
<polygon fill="midnightblue" stroke="midnightblue" points="460.75,-89.5 470.75,-86 460.75,-82.5 460.75,-89.5"/>
</g>
<!-- Node11 -->
<g id="node11" class="node">
<title>Node11</title>
<g id="a_node11"><a xlink:href="gsd_8c.html#ac1f41abbefbfe35337e7053d766c089b" target="_top" xlink:title=" ">
<polygon fill="none" stroke="black" points="326,-38.5 326,-57.5 425,-57.5 425,-38.5 326,-38.5"/>
<text text-anchor="middle" x="375.5" y="-45.5" font-family="Helvetica,sans-Serif" font-size="10.00">gsd_io_pread_retry</text>
</a>
</g>
</g>
<!-- Node10&#45;&gt;Node11 -->
<g id="edge10" class="edge">
<title>Node10&#45;&gt;Node11</title>
<path fill="none" stroke="midnightblue" d="M255.91,-48C274.27,-48 295.94,-48 315.69,-48"/>
<polygon fill="midnightblue" stroke="midnightblue" points="315.82,-51.5 325.82,-48 315.82,-44.5 315.82,-51.5"/>
</g>
<!-- Node10&#45;&gt;Node12 -->
<g id="edge11" class="edge">
<title>Node10&#45;&gt;Node12</title>
<path fill="none" stroke="midnightblue" d="M253.38,-38.41C274.85,-33.37 301.36,-27.16 324.1,-21.82"/>
<polygon fill="midnightblue" stroke="midnightblue" points="324.98,-25.21 333.91,-19.52 323.38,-18.4 324.98,-25.21"/>
</g>
</g>
</svg>
