<?xml version="1.0" encoding="UTF-8" standalone="no"?>
<!DOCTYPE svg PUBLIC "-//W3C//DTD SVG 1.1//EN"
 "http://www.w3.org/Graphics/SVG/1.1/DTD/svg11.dtd">
<!-- Generated by graphviz version 2.49.1 (20210923.0004)
 -->
<!-- Title: potentialHydrodynamics::update Pages: 1 -->
<svg width="476pt" height="235pt"
 viewBox="0.00 0.00 476.00 235.00" xmlns="http://www.w3.org/2000/svg" xmlns:xlink="http://www.w3.org/1999/xlink">
<g id="graph0" class="graph" transform="scale(1 1) rotate(0) translate(4 231)">
<title>potentialHydrodynamics::update</title>
<!-- Node1 -->
<g id="node1" class="node">
<title>Node1</title>
<g id="a_node1"><a xlink:title="Updates all hydrody.">
<polygon fill="#bfbfbf" stroke="black" points="0,-98.5 0,-128.5 123,-128.5 123,-98.5 0,-98.5"/>
<text text-anchor="start" x="8" y="-116.5" font-family="Helvetica,sans-Serif" font-size="10.00">potentialHydrodynamics</text>
<text text-anchor="middle" x="61.5" y="-105.5" font-family="Helvetica,sans-Serif" font-size="10.00">::update</text>
</a>
</g>
</g>
<!-- Node2 -->
<g id="node2" class="node">
<title>Node2</title>
<g id="a_node2"><a xlink:href="classpotentialHydrodynamics.html#aca22661dfeb0029156532957df234042" target="_top" xlink:title=" ">
<polygon fill="none" stroke="black" points="159,-196.5 159,-226.5 282,-226.5 282,-196.5 159,-196.5"/>
<text text-anchor="start" x="167" y="-214.5" font-family="Helvetica,sans-Serif" font-size="10.00">potentialHydrodynamics</text>
<text text-anchor="middle" x="220.5" y="-203.5" font-family="Helvetica,sans-Serif" font-size="10.00">::calcAddedMass</text>
</a>
</g>
</g>
<!-- Node1&#45;&gt;Node2 -->
<g id="edge1" class="edge">
<title>Node1&#45;&gt;Node2</title>
<path fill="none" stroke="midnightblue" d="M79.26,-128.68C97.75,-144.85 128.88,-170.42 159,-187.5 161.85,-189.12 164.83,-190.67 167.88,-192.17"/>
<polygon fill="midnightblue" stroke="midnightblue" points="166.59,-195.43 177.14,-196.44 169.53,-189.07 166.59,-195.43"/>
</g>
<!-- Node3 -->
<g id="node3" class="node">
<title>Node3</title>
<g id="a_node3"><a xlink:href="classpotentialHydrodynamics.html#a19d927bd0b419517d15b566c9132d632" target="_top" xlink:title=" ">
<polygon fill="none" stroke="black" points="159,-147.5 159,-177.5 282,-177.5 282,-147.5 159,-147.5"/>
<text text-anchor="start" x="167" y="-165.5" font-family="Helvetica,sans-Serif" font-size="10.00">potentialHydrodynamics</text>
<text text-anchor="middle" x="220.5" y="-154.5" font-family="Helvetica,sans-Serif" font-size="10.00">::calcAddedMassGrad</text>
</a>
</g>
</g>
<!-- Node1&#45;&gt;Node3 -->
<g id="edge2" class="edge">
<title>Node1&#45;&gt;Node3</title>
<path fill="none" stroke="midnightblue" d="M110.89,-128.6C126.93,-133.61 144.95,-139.23 161.63,-144.44"/>
<polygon fill="midnightblue" stroke="midnightblue" points="160.68,-147.81 171.27,-147.45 162.77,-141.13 160.68,-147.81"/>
</g>
<!-- Node5 -->
<g id="node5" class="node">
<title>Node5</title>
<g id="a_node5"><a xlink:href="classpotentialHydrodynamics.html#a2b71af05a80cbe982c996d61b084695c" target="_top" xlink:title=" ">
<polygon fill="none" stroke="black" points="159,-98.5 159,-128.5 282,-128.5 282,-98.5 159,-98.5"/>
<text text-anchor="start" x="167" y="-116.5" font-family="Helvetica,sans-Serif" font-size="10.00">potentialHydrodynamics</text>
<text text-anchor="middle" x="220.5" y="-105.5" font-family="Helvetica,sans-Serif" font-size="10.00">::calcHydroForces</text>
</a>
</g>
</g>
<!-- Node1&#45;&gt;Node5 -->
<g id="edge4" class="edge">
<title>Node1&#45;&gt;Node5</title>
<path fill="none" stroke="midnightblue" d="M123.2,-113.5C131.64,-113.5 140.36,-113.5 148.95,-113.5"/>
<polygon fill="midnightblue" stroke="midnightblue" points="148.96,-117 158.96,-113.5 148.96,-110 148.96,-117"/>
</g>
<!-- Node8 -->
<g id="node8" class="node">
<title>Node8</title>
<g id="a_node8"><a xlink:href="classpotentialHydrodynamics.html#ad434ee61cf9b3ae7b2159a4163e5a6cd" target="_top" xlink:title=" ">
<polygon fill="none" stroke="black" points="159,-49.5 159,-79.5 282,-79.5 282,-49.5 159,-49.5"/>
<text text-anchor="start" x="167" y="-67.5" font-family="Helvetica,sans-Serif" font-size="10.00">potentialHydrodynamics</text>
<text text-anchor="middle" x="220.5" y="-56.5" font-family="Helvetica,sans-Serif" font-size="10.00">::calcHydroTensors</text>
</a>
</g>
</g>
<!-- Node1&#45;&gt;Node8 -->
<g id="edge8" class="edge">
<title>Node1&#45;&gt;Node8</title>
<path fill="none" stroke="midnightblue" d="M110.89,-98.4C126.93,-93.39 144.95,-87.77 161.63,-82.56"/>
<polygon fill="midnightblue" stroke="midnightblue" points="162.77,-85.87 171.27,-79.55 160.68,-79.19 162.77,-85.87"/>
</g>
<!-- Node9 -->
<g id="node9" class="node">
<title>Node9</title>
<g id="a_node9"><a xlink:href="classpotentialHydrodynamics.html#a5d70cd3d03dfe2f7f1a4c970994fffe0" target="_top" xlink:title=" ">
<polygon fill="none" stroke="black" points="159,-0.5 159,-30.5 282,-30.5 282,-0.5 159,-0.5"/>
<text text-anchor="start" x="167" y="-18.5" font-family="Helvetica,sans-Serif" font-size="10.00">potentialHydrodynamics</text>
<text text-anchor="middle" x="220.5" y="-7.5" font-family="Helvetica,sans-Serif" font-size="10.00">::calcParticleDistances</text>
</a>
</g>
</g>
<!-- Node1&#45;&gt;Node9 -->
<g id="edge9" class="edge">
<title>Node1&#45;&gt;Node9</title>
<path fill="none" stroke="midnightblue" d="M79.26,-98.32C97.75,-82.15 128.88,-56.58 159,-39.5 161.85,-37.88 164.83,-36.33 167.88,-34.83"/>
<polygon fill="midnightblue" stroke="midnightblue" points="169.53,-37.93 177.14,-30.56 166.59,-31.57 169.53,-37.93"/>
</g>
<!-- Node4 -->
<g id="node4" class="node">
<title>Node4</title>
<g id="a_node4"><a xlink:href="helper__eigenTensorConversion_8hpp.html#a556fb613b733267c9404648bc66bd0bd" target="_top" xlink:title="Convert Eigen::Matrix &#45;&#45;&gt; Eigen::Tensor.">
<polygon fill="none" stroke="black" points="318,-147 318,-166 385,-166 385,-147 318,-147"/>
<text text-anchor="middle" x="351.5" y="-154" font-family="Helvetica,sans-Serif" font-size="10.00">TensorCast</text>
</a>
</g>
</g>
<!-- Node3&#45;&gt;Node4 -->
<g id="edge3" class="edge">
<title>Node3&#45;&gt;Node4</title>
<path fill="none" stroke="midnightblue" d="M282.22,-159.68C290.86,-159.27 299.59,-158.87 307.79,-158.49"/>
<polygon fill="midnightblue" stroke="midnightblue" points="308.01,-161.98 317.84,-158.02 307.69,-154.99 308.01,-161.98"/>
</g>
<!-- Node5&#45;&gt;Node4 -->
<g id="edge7" class="edge">
<title>Node5&#45;&gt;Node4</title>
<path fill="none" stroke="midnightblue" d="M266.62,-128.54C281.49,-133.5 297.89,-138.96 312.2,-143.73"/>
<polygon fill="midnightblue" stroke="midnightblue" points="311.15,-147.07 321.74,-146.91 313.36,-140.43 311.15,-147.07"/>
</g>
<!-- Node6 -->
<g id="node6" class="node">
<title>Node6</title>
<g id="a_node6"><a xlink:href="helper__eigenTensorConversion_8hpp.html#a556d08b55a6ad7cd703b6db06194e5cf" target="_top" xlink:title=" ">
<polygon fill="none" stroke="black" points="319.5,-104 319.5,-123 383.5,-123 383.5,-104 319.5,-104"/>
<text text-anchor="middle" x="351.5" y="-111" font-family="Helvetica,sans-Serif" font-size="10.00">MatrixCast</text>
</a>
</g>
</g>
<!-- Node5&#45;&gt;Node6 -->
<g id="edge5" class="edge">
<title>Node5&#45;&gt;Node6</title>
<path fill="none" stroke="midnightblue" d="M282.22,-113.5C291.33,-113.5 300.54,-113.5 309.11,-113.5"/>
<polygon fill="midnightblue" stroke="midnightblue" points="309.22,-117 319.22,-113.5 309.22,-110 309.22,-117"/>
</g>
<!-- Node7 -->
<g id="node7" class="node">
<title>Node7</title>
<g id="a_node7"><a xlink:href="helper__eigenTensorConversion_8hpp.html#a2a7eca6b17fb874869047bd0b5f11b46" target="_top" xlink:title="Convert between Eigen::Tensor and Eigen::Matrix classes.">
<polygon fill="none" stroke="black" points="421,-104 421,-123 468,-123 468,-104 421,-104"/>
<text text-anchor="middle" x="444.5" y="-111" font-family="Helvetica,sans-Serif" font-size="10.00">asEval</text>
</a>
</g>
</g>
<!-- Node6&#45;&gt;Node7 -->
<g id="edge6" class="edge">
<title>Node6&#45;&gt;Node7</title>
<path fill="none" stroke="midnightblue" d="M383.56,-113.5C392.37,-113.5 401.98,-113.5 410.88,-113.5"/>
<polygon fill="midnightblue" stroke="midnightblue" points="410.9,-117 420.9,-113.5 410.9,-110 410.9,-117"/>
</g>
</g>
</svg>
