<?xml version="1.0" encoding="UTF-8" standalone="no"?>
<!DOCTYPE svg PUBLIC "-//W3C//DTD SVG 1.1//EN"
 "http://www.w3.org/Graphics/SVG/1.1/DTD/svg11.dtd">
<!-- Generated by graphviz version 2.43.0 (0)
 -->
<!-- Title: RungeKutta4::udwadiaKalaba Pages: 1 -->
<svg width="661pt" height="39pt"
 viewBox="0.00 0.00 661.00 39.00" xmlns="http://www.w3.org/2000/svg" xmlns:xlink="http://www.w3.org/1999/xlink">
<g id="graph0" class="graph" transform="scale(1 1) rotate(0) translate(4 35)">
<title>RungeKutta4::udwadiaKalaba</title>
<!-- Node1 -->
<g id="node1" class="node">
<title>Node1</title>
<g id="a_node1"><a xlink:title="Calculates the body acceleration components given the constraints established by the Udwadia linear s...">
<polygon fill="#bfbfbf" stroke="black" points="507,-6 507,-25 653,-25 653,-6 507,-6"/>
<text text-anchor="middle" x="580" y="-13" font-family="Helvetica,sans-Serif" font-size="10.00">RungeKutta4::udwadiaKalaba</text>
</a>
</g>
</g>
<!-- Node2 -->
<g id="node2" class="node">
<title>Node2</title>
<g id="a_node2"><a xlink:href="classRungeKutta4.html#acf4bede4af47cdeb464e05fe7f5d1683" target="_top" xlink:title="Helper function for integrateSecondOrder().">
<polygon fill="none" stroke="black" points="339,-0.5 339,-30.5 471,-30.5 471,-0.5 339,-0.5"/>
<text text-anchor="start" x="347" y="-18.5" font-family="Helvetica,sans-Serif" font-size="10.00">RungeKutta4::acceleration</text>
<text text-anchor="middle" x="405" y="-7.5" font-family="Helvetica,sans-Serif" font-size="10.00">Update</text>
</a>
</g>
</g>
<!-- Node1&#45;&gt;Node2 -->
<g id="edge1" class="edge">
<title>Node1&#45;&gt;Node2</title>
<path fill="none" stroke="midnightblue" d="M496.8,-15.5C488.18,-15.5 479.49,-15.5 471.1,-15.5"/>
<polygon fill="midnightblue" stroke="midnightblue" points="496.89,-19 506.89,-15.5 496.89,-12 496.89,-19"/>
</g>
<!-- Node3 -->
<g id="node3" class="node">
<title>Node3</title>
<g id="a_node3"><a xlink:href="classRungeKutta4.html#a3b7310147342b4a454c6e94dc430a835" target="_top" xlink:title="2nd order Runge&#45;Kutta 4th order integration. Integrates known acceleration body components into veloc...">
<polygon fill="none" stroke="black" points="153,-0.5 153,-30.5 303,-30.5 303,-0.5 153,-0.5"/>
<text text-anchor="start" x="161" y="-18.5" font-family="Helvetica,sans-Serif" font-size="10.00">RungeKutta4::integrateSecond</text>
<text text-anchor="middle" x="228" y="-7.5" font-family="Helvetica,sans-Serif" font-size="10.00">Order</text>
</a>
</g>
</g>
<!-- Node2&#45;&gt;Node3 -->
<g id="edge2" class="edge">
<title>Node2&#45;&gt;Node3</title>
<path fill="none" stroke="midnightblue" d="M328.6,-15.5C320.13,-15.5 311.51,-15.5 303.06,-15.5"/>
<polygon fill="midnightblue" stroke="midnightblue" points="328.84,-19 338.84,-15.5 328.84,-12 328.84,-19"/>
</g>
<!-- Node4 -->
<g id="node4" class="node">
<title>Node4</title>
<g id="a_node4"><a xlink:href="classRungeKutta4.html#a4826f7efe1f1bbff3918b53c18a8106e" target="_top" xlink:title="Public function to call internal numerical Runge Kutta integration functions.">
<polygon fill="none" stroke="black" points="0,-6 0,-25 117,-25 117,-6 0,-6"/>
<text text-anchor="middle" x="58.5" y="-13" font-family="Helvetica,sans-Serif" font-size="10.00">RungeKutta4::integrate</text>
</a>
</g>
</g>
<!-- Node3&#45;&gt;Node4 -->
<g id="edge3" class="edge">
<title>Node3&#45;&gt;Node4</title>
<path fill="none" stroke="midnightblue" d="M142.49,-15.5C133.9,-15.5 125.33,-15.5 117.12,-15.5"/>
<polygon fill="midnightblue" stroke="midnightblue" points="142.56,-19 152.56,-15.5 142.56,-12 142.56,-19"/>
</g>
</g>
</svg>
