<?xml version="1.0" encoding="UTF-8" standalone="no"?>
<!DOCTYPE svg PUBLIC "-//W3C//DTD SVG 1.1//EN"
 "http://www.w3.org/Graphics/SVG/1.1/DTD/svg11.dtd">
<!-- Generated by graphviz version 2.49.1 (20210923.0004)
 -->
<!-- Title: rungeKutta4::udwadiaKalaba Pages: 1 -->
<svg width="655pt" height="88pt"
 viewBox="0.00 0.00 655.00 88.00" xmlns="http://www.w3.org/2000/svg" xmlns:xlink="http://www.w3.org/1999/xlink">
<g id="graph0" class="graph" transform="scale(1 1) rotate(0) translate(4 84)">
<title>rungeKutta4::udwadiaKalaba</title>
<!-- Node1 -->
<g id="node1" class="node">
<title>Node1</title>
<g id="a_node1"><a xlink:title=" ">
<polygon fill="#bfbfbf" stroke="black" points="502,-30 502,-49 647,-49 647,-30 502,-30"/>
<text text-anchor="middle" x="574.5" y="-37" font-family="Helvetica,sans-Serif" font-size="10.00">rungeKutta4::udwadiaKalaba</text>
</a>
</g>
</g>
<!-- Node2 -->
<g id="node2" class="node">
<title>Node2</title>
<g id="a_node2"><a xlink:href="classrungeKutta4.html#ada94dc0b697b09e102b5a02682a34796" target="_top" xlink:title=" ">
<polygon fill="none" stroke="black" points="336,-24.5 336,-54.5 466,-54.5 466,-24.5 336,-24.5"/>
<text text-anchor="start" x="344" y="-42.5" font-family="Helvetica,sans-Serif" font-size="10.00">rungeKutta4::acceleration</text>
<text text-anchor="middle" x="401" y="-31.5" font-family="Helvetica,sans-Serif" font-size="10.00">Update</text>
</a>
</g>
</g>
<!-- Node1&#45;&gt;Node2 -->
<g id="edge1" class="edge">
<title>Node1&#45;&gt;Node2</title>
<path fill="none" stroke="midnightblue" d="M491.71,-39.5C483.1,-39.5 474.44,-39.5 466.08,-39.5"/>
<polygon fill="midnightblue" stroke="midnightblue" points="491.76,-43 501.76,-39.5 491.76,-36 491.76,-43"/>
</g>
<!-- Node3 -->
<g id="node3" class="node">
<title>Node3</title>
<g id="a_node3"><a xlink:href="classrungeKutta4.html#a15666604f054a635663a6123004daec4" target="_top" xlink:title=" ">
<polygon fill="none" stroke="black" points="158,-49.5 158,-79.5 293,-79.5 293,-49.5 158,-49.5"/>
<text text-anchor="start" x="166" y="-67.5" font-family="Helvetica,sans-Serif" font-size="10.00">rungeKutta4::integrateFirst</text>
<text text-anchor="middle" x="225.5" y="-56.5" font-family="Helvetica,sans-Serif" font-size="10.00">Order</text>
</a>
</g>
</g>
<!-- Node2&#45;&gt;Node3 -->
<g id="edge2" class="edge">
<title>Node2&#45;&gt;Node3</title>
<path fill="none" stroke="midnightblue" d="M325.66,-50.21C314.89,-51.76 303.86,-53.35 293.25,-54.88"/>
<polygon fill="midnightblue" stroke="midnightblue" points="326.49,-53.63 335.89,-48.74 325.49,-46.7 326.49,-53.63"/>
</g>
<!-- Node4 -->
<g id="node4" class="node">
<title>Node4</title>
<g id="a_node4"><a xlink:href="classrungeKutta4.html#a2be20a0f0da6d2f251af5b1367ea08a4" target="_top" xlink:title=" ">
<polygon fill="none" stroke="black" points="151,-0.5 151,-30.5 300,-30.5 300,-0.5 151,-0.5"/>
<text text-anchor="start" x="159" y="-18.5" font-family="Helvetica,sans-Serif" font-size="10.00">rungeKutta4::integrateSecond</text>
<text text-anchor="middle" x="225.5" y="-7.5" font-family="Helvetica,sans-Serif" font-size="10.00">Order</text>
</a>
</g>
</g>
<!-- Node2&#45;&gt;Node4 -->
<g id="edge3" class="edge">
<title>Node2&#45;&gt;Node4</title>
<path fill="none" stroke="midnightblue" d="M325.91,-29.25C317.33,-28.06 308.58,-26.85 300.01,-25.67"/>
<polygon fill="midnightblue" stroke="midnightblue" points="325.5,-32.73 335.89,-30.63 326.46,-25.79 325.5,-32.73"/>
</g>
<!-- Node5 -->
<g id="node5" class="node">
<title>Node5</title>
<g id="a_node5"><a xlink:href="classrungeKutta4.html#afd0645de032002a967f1109eb67f35e5" target="_top" xlink:title=" ">
<polygon fill="none" stroke="black" points="0,-6 0,-25 115,-25 115,-6 0,-6"/>
<text text-anchor="middle" x="57.5" y="-13" font-family="Helvetica,sans-Serif" font-size="10.00">rungeKutta4::integrate</text>
</a>
</g>
</g>
<!-- Node4&#45;&gt;Node5 -->
<g id="edge4" class="edge">
<title>Node4&#45;&gt;Node5</title>
<path fill="none" stroke="midnightblue" d="M140.6,-15.5C131.97,-15.5 123.34,-15.5 115.11,-15.5"/>
<polygon fill="midnightblue" stroke="midnightblue" points="140.72,-19 150.72,-15.5 140.72,-12 140.72,-19"/>
</g>
</g>
</svg>
