<?xml version="1.0" encoding="UTF-8" standalone="no"?>
<!DOCTYPE svg PUBLIC "-//W3C//DTD SVG 1.1//EN"
 "http://www.w3.org/Graphics/SVG/1.1/DTD/svg11.dtd">
<!-- Generated by graphviz version 2.43.0 (0)
 -->
<!-- Title: GSDUtil Pages: 1 -->
<svg width="640pt" height="2473pt"
 viewBox="0.00 0.00 639.95 2473.00" xmlns="http://www.w3.org/2000/svg" xmlns:xlink="http://www.w3.org/1999/xlink">
<g id="graph0" class="graph" transform="scale(1 1) rotate(0) translate(4 2469)">
<title>GSDUtil</title>
<!-- Node1 -->
<g id="node1" class="node">
<title>Node1</title>
<g id="a_node1"><a xlink:title="Wrapper class for gsd.h to load data from input GSD file into SystemData class.">
<polygon fill="#bfbfbf" stroke="black" points="100.95,-2031.5 100.95,-2242.5 222.95,-2242.5 222.95,-2031.5 100.95,-2031.5"/>
<text text-anchor="middle" x="161.95" y="-2230.5" font-family="Helvetica,sans-Serif" font-size="10.00">GSDUtil</text>
<polyline fill="none" stroke="black" points="100.95,-2223.5 222.95,-2223.5 "/>
<text text-anchor="start" x="108.95" y="-2211.5" font-family="Helvetica,sans-Serif" font-size="10.00">&#45; m_frame</text>
<polyline fill="none" stroke="black" points="100.95,-2204.5 222.95,-2204.5 "/>
<text text-anchor="start" x="108.95" y="-2192.5" font-family="Helvetica,sans-Serif" font-size="10.00">+ GSDUtil()</text>
<text text-anchor="start" x="108.95" y="-2181.5" font-family="Helvetica,sans-Serif" font-size="10.00">+ GSDUtil()</text>
<text text-anchor="start" x="108.95" y="-2170.5" font-family="Helvetica,sans-Serif" font-size="10.00">+ ~GSDUtil()</text>
<text text-anchor="start" x="108.95" y="-2159.5" font-family="Helvetica,sans-Serif" font-size="10.00">+ truncateGSD()</text>
<text text-anchor="start" x="108.95" y="-2148.5" font-family="Helvetica,sans-Serif" font-size="10.00">+ writeFrame()</text>
<text text-anchor="start" x="108.95" y="-2137.5" font-family="Helvetica,sans-Serif" font-size="10.00">+ frame()</text>
<text text-anchor="start" x="108.95" y="-2126.5" font-family="Helvetica,sans-Serif" font-size="10.00">&#45; checkGSDReturn()</text>
<text text-anchor="start" x="108.95" y="-2115.5" font-family="Helvetica,sans-Serif" font-size="10.00">&#45; readChunk()</text>
<text text-anchor="start" x="108.95" y="-2104.5" font-family="Helvetica,sans-Serif" font-size="10.00">&#45; readHeader()</text>
<text text-anchor="start" x="108.95" y="-2093.5" font-family="Helvetica,sans-Serif" font-size="10.00">&#45; readParameters()</text>
<text text-anchor="start" x="108.95" y="-2082.5" font-family="Helvetica,sans-Serif" font-size="10.00">&#45; readParticles()</text>
<text text-anchor="start" x="108.95" y="-2071.5" font-family="Helvetica,sans-Serif" font-size="10.00">&#45; readSystemSpecifics()</text>
<text text-anchor="start" x="108.95" y="-2060.5" font-family="Helvetica,sans-Serif" font-size="10.00">&#45; writeHeader()</text>
<text text-anchor="start" x="108.95" y="-2049.5" font-family="Helvetica,sans-Serif" font-size="10.00">&#45; writeParameters()</text>
<text text-anchor="start" x="108.95" y="-2038.5" font-family="Helvetica,sans-Serif" font-size="10.00">&#45; writeParticles()</text>
</a>
</g>
</g>
<!-- Node5 -->
<g id="node5" class="node">
<title>Node5</title>
<g id="a_node5"><a xlink:title=" ">
<polygon fill="none" stroke="#bfbfbf" points="93.45,-1888 93.45,-1945 230.45,-1945 230.45,-1888 93.45,-1888"/>
<text text-anchor="middle" x="161.95" y="-1933" font-family="Helvetica,sans-Serif" font-size="10.00">std::shared_ptr&lt; GSDUtil &gt;</text>
<polyline fill="none" stroke="#bfbfbf" points="93.45,-1926 230.45,-1926 "/>
<text text-anchor="middle" x="161.95" y="-1914" font-family="Helvetica,sans-Serif" font-size="10.00"> </text>
<polyline fill="none" stroke="#bfbfbf" points="93.45,-1907 230.45,-1907 "/>
<text text-anchor="start" x="101.45" y="-1895" font-family="Helvetica,sans-Serif" font-size="10.00">+ operator&#45;&gt;()</text>
</a>
</g>
</g>
<!-- Node1&#45;&gt;Node5 -->
<g id="edge5" class="edge">
<title>Node1&#45;&gt;Node5</title>
<path fill="none" stroke="#404040" d="M161.95,-2031.23C161.95,-2004.93 161.95,-1978.28 161.95,-1957.39"/>
<polygon fill="none" stroke="#404040" points="161.95,-1957.19 157.95,-1951.19 161.95,-1945.19 165.95,-1951.19 161.95,-1957.19"/>
<text text-anchor="middle" x="172.45" y="-1988.5" font-family="Helvetica,sans-Serif" font-size="10.00"> +ptr</text>
</g>
<!-- Node2 -->
<g id="node2" class="node">
<title>Node2</title>
<g id="a_node2"><a xlink:title=" ">
<polygon fill="none" stroke="#bfbfbf" points="210.45,-0.5 210.45,-57.5 365.45,-57.5 365.45,-0.5 210.45,-0.5"/>
<text text-anchor="middle" x="287.95" y="-45.5" font-family="Helvetica,sans-Serif" font-size="10.00">std::shared_ptr&lt; SystemData &gt;</text>
<polyline fill="none" stroke="#bfbfbf" points="210.45,-38.5 365.45,-38.5 "/>
<text text-anchor="middle" x="287.95" y="-26.5" font-family="Helvetica,sans-Serif" font-size="10.00"> </text>
<polyline fill="none" stroke="#bfbfbf" points="210.45,-19.5 365.45,-19.5 "/>
<text text-anchor="start" x="218.45" y="-7.5" font-family="Helvetica,sans-Serif" font-size="10.00">+ operator&#45;&gt;()</text>
</a>
</g>
</g>
<!-- Node2&#45;&gt;Node1 -->
<g id="edge1" class="edge">
<title>Node2&#45;&gt;Node1</title>
<path fill="none" stroke="#404040" d="M236.4,-57.58C218.9,-69.69 201.2,-85.62 190.95,-105 -178.88,-804.45 107.74,-1091.15 83.95,-1882 83.03,-1912.65 77.87,-1920.94 83.95,-1951 88.59,-1973.94 96.16,-1997.58 104.81,-2019.97"/>
<polygon fill="none" stroke="#404040" points="104.84,-2020.05 110.77,-2024.14 109.27,-2031.2 103.34,-2027.1 104.84,-2020.05"/>
<text text-anchor="middle" x="110.95" y="-1856" font-family="Helvetica,sans-Serif" font-size="10.00"> &#45;m_system</text>
</g>
<!-- Node3 -->
<g id="node3" class="node">
<title>Node3</title>
<g id="a_node3"><a xlink:href="classSystemData.html" target="_top" xlink:title="Class contains all data structures relevant to the simulation framework. Note that after construction...">
<polygon fill="none" stroke="black" points="199.95,-105.5 199.95,-1834.5 375.95,-1834.5 375.95,-105.5 199.95,-105.5"/>
<text text-anchor="middle" x="287.95" y="-1822.5" font-family="Helvetica,sans-Serif" font-size="10.00">SystemData</text>
<polyline fill="none" stroke="black" points="199.95,-1815.5 375.95,-1815.5 "/>
<text text-anchor="start" x="207.95" y="-1803.5" font-family="Helvetica,sans-Serif" font-size="10.00">&#45; m_image_system</text>
<text text-anchor="start" x="207.95" y="-1792.5" font-family="Helvetica,sans-Serif" font-size="10.00">&#45; m_return_val</text>
<text text-anchor="start" x="207.95" y="-1781.5" font-family="Helvetica,sans-Serif" font-size="10.00">&#45; m_return_bool</text>
<text text-anchor="start" x="207.95" y="-1770.5" font-family="Helvetica,sans-Serif" font-size="10.00">&#45; m_GSD_parsed</text>
<text text-anchor="start" x="207.95" y="-1759.5" font-family="Helvetica,sans-Serif" font-size="10.00">&#45; m_sys_spec_U0</text>
<text text-anchor="start" x="207.95" y="-1748.5" font-family="Helvetica,sans-Serif" font-size="10.00">&#45; m_sys_spec_omega</text>
<text text-anchor="start" x="207.95" y="-1737.5" font-family="Helvetica,sans-Serif" font-size="10.00">&#45; m_sys_spec_phase_shift</text>
<text text-anchor="start" x="207.95" y="-1726.5" font-family="Helvetica,sans-Serif" font-size="10.00">&#45; m_sys_spec_R_avg</text>
<text text-anchor="start" x="207.95" y="-1715.5" font-family="Helvetica,sans-Serif" font-size="10.00">&#45; m_sys_scalar_w</text>
<text text-anchor="start" x="207.95" y="-1704.5" font-family="Helvetica,sans-Serif" font-size="10.00">&#45; m_particle_type_id</text>
<text text-anchor="start" x="207.95" y="-1693.5" font-family="Helvetica,sans-Serif" font-size="10.00">&#45; m_particle_group_id</text>
<text text-anchor="start" x="207.95" y="-1682.5" font-family="Helvetica,sans-Serif" font-size="10.00">&#45; m_fluid_density</text>
<text text-anchor="start" x="207.95" y="-1671.5" font-family="Helvetica,sans-Serif" font-size="10.00">&#45; m_particle_density</text>
<text text-anchor="start" x="207.95" y="-1660.5" font-family="Helvetica,sans-Serif" font-size="10.00">&#45; m_wca_epsilon</text>
<text text-anchor="start" x="207.95" y="-1649.5" font-family="Helvetica,sans-Serif" font-size="10.00">&#45; m_wca_sigma</text>
<text text-anchor="start" x="207.95" y="-1638.5" font-family="Helvetica,sans-Serif" font-size="10.00">&#45; m_num_spatial_dim</text>
<text text-anchor="start" x="207.95" y="-1627.5" font-family="Helvetica,sans-Serif" font-size="10.00">&#45; m_num_particles</text>
<text text-anchor="start" x="207.95" y="-1616.5" font-family="Helvetica,sans-Serif" font-size="10.00">&#45; m_num_bodies</text>
<text text-anchor="start" x="207.95" y="-1605.5" font-family="Helvetica,sans-Serif" font-size="10.00">&#45; m_num_DoF</text>
<text text-anchor="start" x="207.95" y="-1594.5" font-family="Helvetica,sans-Serif" font-size="10.00">&#45; m_num_constraints</text>
<text text-anchor="start" x="207.95" y="-1583.5" font-family="Helvetica,sans-Serif" font-size="10.00">&#45; m_dt</text>
<text text-anchor="start" x="207.95" y="-1572.5" font-family="Helvetica,sans-Serif" font-size="10.00">&#45; m_tf</text>
<text text-anchor="start" x="207.95" y="-1561.5" font-family="Helvetica,sans-Serif" font-size="10.00">&#45; m_t0</text>
<text text-anchor="start" x="207.95" y="-1550.5" font-family="Helvetica,sans-Serif" font-size="10.00">&#45; m_t</text>
<text text-anchor="start" x="207.95" y="-1539.5" font-family="Helvetica,sans-Serif" font-size="10.00">&#45; m_tau</text>
<text text-anchor="start" x="207.95" y="-1528.5" font-family="Helvetica,sans-Serif" font-size="10.00">&#45; m_timestep</text>
<text text-anchor="start" x="207.95" y="-1517.5" font-family="Helvetica,sans-Serif" font-size="10.00">&#45; m_num_steps_output</text>
<text text-anchor="start" x="207.95" y="-1506.5" font-family="Helvetica,sans-Serif" font-size="10.00">&#45; m_I3</text>
<text text-anchor="start" x="207.95" y="-1495.5" font-family="Helvetica,sans-Serif" font-size="10.00">&#45; m_tens_I3</text>
<text text-anchor="start" x="207.95" y="-1484.5" font-family="Helvetica,sans-Serif" font-size="10.00">&#45; m_levi_cevita</text>
<text text-anchor="start" x="207.95" y="-1473.5" font-family="Helvetica,sans-Serif" font-size="10.00">&#45; m_kappa</text>
<text text-anchor="start" x="207.95" y="-1462.5" font-family="Helvetica,sans-Serif" font-size="10.00">&#45; m_positions_bodies</text>
<text text-anchor="start" x="207.95" y="-1451.5" font-family="Helvetica,sans-Serif" font-size="10.00">&#45; m_velocities_bodies</text>
<text text-anchor="start" x="207.95" y="-1440.5" font-family="Helvetica,sans-Serif" font-size="10.00">&#45; m_accelerations_bodies</text>
<text text-anchor="start" x="207.95" y="-1429.5" font-family="Helvetica,sans-Serif" font-size="10.00">&#45; m_positions_particles</text>
<text text-anchor="start" x="207.95" y="-1418.5" font-family="Helvetica,sans-Serif" font-size="10.00">&#45; m_velocities_particles</text>
<text text-anchor="start" x="207.95" y="-1407.5" font-family="Helvetica,sans-Serif" font-size="10.00">&#45; m_accelerations_particles</text>
<text text-anchor="start" x="207.95" y="-1396.5" font-family="Helvetica,sans-Serif" font-size="10.00">&#45; m_orientations_particles</text>
<text text-anchor="start" x="207.95" y="-1385.5" font-family="Helvetica,sans-Serif" font-size="10.00">&#45; m_quaternions_particles</text>
<text text-anchor="start" x="207.95" y="-1374.5" font-family="Helvetica,sans-Serif" font-size="10.00">&#45; m_positions_particles</text>
<text text-anchor="start" x="207.95" y="-1363.5" font-family="Helvetica,sans-Serif" font-size="10.00">_articulation_init_norm</text>
<text text-anchor="start" x="207.95" y="-1352.5" font-family="Helvetica,sans-Serif" font-size="10.00">&#45; m_positions_particles</text>
<text text-anchor="start" x="207.95" y="-1341.5" font-family="Helvetica,sans-Serif" font-size="10.00">_articulation</text>
<text text-anchor="start" x="207.95" y="-1330.5" font-family="Helvetica,sans-Serif" font-size="10.00">&#45; m_velocities_particles</text>
<text text-anchor="start" x="207.95" y="-1319.5" font-family="Helvetica,sans-Serif" font-size="10.00">_articulation</text>
<text text-anchor="start" x="207.95" y="-1308.5" font-family="Helvetica,sans-Serif" font-size="10.00">&#45; m_accelerations_particles</text>
<text text-anchor="start" x="207.95" y="-1297.5" font-family="Helvetica,sans-Serif" font-size="10.00">_articulation</text>
<text text-anchor="start" x="207.95" y="-1286.5" font-family="Helvetica,sans-Serif" font-size="10.00">&#45; m_rbm_conn</text>
<text text-anchor="start" x="207.95" y="-1275.5" font-family="Helvetica,sans-Serif" font-size="10.00">&#45; m_psi_conv_quat_ang</text>
<text text-anchor="start" x="207.95" y="-1264.5" font-family="Helvetica,sans-Serif" font-size="10.00">&#45; m_zeta</text>
<text text-anchor="start" x="207.95" y="-1253.5" font-family="Helvetica,sans-Serif" font-size="10.00">&#45; m_tens_zeta</text>
<text text-anchor="start" x="207.95" y="-1242.5" font-family="Helvetica,sans-Serif" font-size="10.00">&#45; m_tens_grad_zeta</text>
<text text-anchor="start" x="207.95" y="-1231.5" font-family="Helvetica,sans-Serif" font-size="10.00">&#45; m_chi</text>
<text text-anchor="start" x="207.95" y="-1220.5" font-family="Helvetica,sans-Serif" font-size="10.00">&#45; m_tens_chi</text>
<text text-anchor="start" x="207.95" y="-1209.5" font-family="Helvetica,sans-Serif" font-size="10.00">&#45; m_Udwadia_A</text>
<text text-anchor="start" x="207.95" y="-1198.5" font-family="Helvetica,sans-Serif" font-size="10.00">&#45; m_Udwadia_b</text>
<polyline fill="none" stroke="black" points="199.95,-1191.5 375.95,-1191.5 "/>
<text text-anchor="start" x="207.95" y="-1179.5" font-family="Helvetica,sans-Serif" font-size="10.00">+ SystemData()</text>
<text text-anchor="start" x="207.95" y="-1168.5" font-family="Helvetica,sans-Serif" font-size="10.00">+ SystemData()</text>
<text text-anchor="start" x="207.95" y="-1157.5" font-family="Helvetica,sans-Serif" font-size="10.00">+ ~SystemData()</text>
<text text-anchor="start" x="207.95" y="-1146.5" font-family="Helvetica,sans-Serif" font-size="10.00">+ initializeData()</text>
<text text-anchor="start" x="207.95" y="-1135.5" font-family="Helvetica,sans-Serif" font-size="10.00">+ logData()</text>
<text text-anchor="start" x="207.95" y="-1124.5" font-family="Helvetica,sans-Serif" font-size="10.00">+ update()</text>
<text text-anchor="start" x="207.95" y="-1113.5" font-family="Helvetica,sans-Serif" font-size="10.00">+ imageSystem()</text>
<text text-anchor="start" x="207.95" y="-1102.5" font-family="Helvetica,sans-Serif" font-size="10.00">+ setImageSystem()</text>
<text text-anchor="start" x="207.95" y="-1091.5" font-family="Helvetica,sans-Serif" font-size="10.00">+ inputGSDFile()</text>
<text text-anchor="start" x="207.95" y="-1080.5" font-family="Helvetica,sans-Serif" font-size="10.00">+ outputDir()</text>
<text text-anchor="start" x="207.95" y="-1069.5" font-family="Helvetica,sans-Serif" font-size="10.00">+ setOutputDir()</text>
<text text-anchor="start" x="207.95" y="-1058.5" font-family="Helvetica,sans-Serif" font-size="10.00">+ gsdUtil()</text>
<text text-anchor="start" x="207.95" y="-1047.5" font-family="Helvetica,sans-Serif" font-size="10.00">+ handle()</text>
<text text-anchor="start" x="207.95" y="-1036.5" font-family="Helvetica,sans-Serif" font-size="10.00">+ setReturnVal()</text>
<text text-anchor="start" x="207.95" y="-1025.5" font-family="Helvetica,sans-Serif" font-size="10.00">+ returnVal()</text>
<text text-anchor="start" x="207.95" y="-1014.5" font-family="Helvetica,sans-Serif" font-size="10.00">+ setReturnBool()</text>
<text text-anchor="start" x="207.95" y="-1003.5" font-family="Helvetica,sans-Serif" font-size="10.00">+ returnBool()</text>
<text text-anchor="start" x="207.95" y="-992.5" font-family="Helvetica,sans-Serif" font-size="10.00">+ gSDParsed()</text>
<text text-anchor="start" x="207.95" y="-981.5" font-family="Helvetica,sans-Serif" font-size="10.00">+ sysSpecU0()</text>
<text text-anchor="start" x="207.95" y="-970.5" font-family="Helvetica,sans-Serif" font-size="10.00">+ setSysSpecU0()</text>
<text text-anchor="start" x="207.95" y="-959.5" font-family="Helvetica,sans-Serif" font-size="10.00">+ sysSpecOmega()</text>
<text text-anchor="start" x="207.95" y="-948.5" font-family="Helvetica,sans-Serif" font-size="10.00">+ setSysSpecOmega()</text>
<text text-anchor="start" x="207.95" y="-937.5" font-family="Helvetica,sans-Serif" font-size="10.00">+ sysSpecPhaseShift()</text>
<text text-anchor="start" x="207.95" y="-926.5" font-family="Helvetica,sans-Serif" font-size="10.00">+ setSysSpecPhaseShift()</text>
<text text-anchor="start" x="207.95" y="-915.5" font-family="Helvetica,sans-Serif" font-size="10.00">+ sysSpecRAvg()</text>
<text text-anchor="start" x="207.95" y="-904.5" font-family="Helvetica,sans-Serif" font-size="10.00">+ setSysSpecRAvg()</text>
<text text-anchor="start" x="207.95" y="-893.5" font-family="Helvetica,sans-Serif" font-size="10.00">+ particleTypeId()</text>
<text text-anchor="start" x="207.95" y="-882.5" font-family="Helvetica,sans-Serif" font-size="10.00">+ setParticleTypeId()</text>
<text text-anchor="start" x="207.95" y="-871.5" font-family="Helvetica,sans-Serif" font-size="10.00">+ fluidDensity()</text>
<text text-anchor="start" x="207.95" y="-860.5" font-family="Helvetica,sans-Serif" font-size="10.00">+ setFluidDensity()</text>
<text text-anchor="start" x="207.95" y="-849.5" font-family="Helvetica,sans-Serif" font-size="10.00">+ particleDensity()</text>
<text text-anchor="start" x="207.95" y="-838.5" font-family="Helvetica,sans-Serif" font-size="10.00">+ setParticleDensity()</text>
<text text-anchor="start" x="207.95" y="-827.5" font-family="Helvetica,sans-Serif" font-size="10.00">+ wcaEpsilon()</text>
<text text-anchor="start" x="207.95" y="-816.5" font-family="Helvetica,sans-Serif" font-size="10.00">+ setWcaEpsilon()</text>
<text text-anchor="start" x="207.95" y="-805.5" font-family="Helvetica,sans-Serif" font-size="10.00">+ wcaSigma()</text>
<text text-anchor="start" x="207.95" y="-794.5" font-family="Helvetica,sans-Serif" font-size="10.00">+ setWcaSigma()</text>
<text text-anchor="start" x="207.95" y="-783.5" font-family="Helvetica,sans-Serif" font-size="10.00">+ numSpatialDim()</text>
<text text-anchor="start" x="207.95" y="-772.5" font-family="Helvetica,sans-Serif" font-size="10.00">+ setNumSpatialDim()</text>
<text text-anchor="start" x="207.95" y="-761.5" font-family="Helvetica,sans-Serif" font-size="10.00">+ numParticles()</text>
<text text-anchor="start" x="207.95" y="-750.5" font-family="Helvetica,sans-Serif" font-size="10.00">+ setNumParticles()</text>
<text text-anchor="start" x="207.95" y="-739.5" font-family="Helvetica,sans-Serif" font-size="10.00">+ numBodies()</text>
<text text-anchor="start" x="207.95" y="-728.5" font-family="Helvetica,sans-Serif" font-size="10.00">+ setNumBodies()</text>
<text text-anchor="start" x="207.95" y="-717.5" font-family="Helvetica,sans-Serif" font-size="10.00">+ numDoF()</text>
<text text-anchor="start" x="207.95" y="-706.5" font-family="Helvetica,sans-Serif" font-size="10.00">+ tensI3()</text>
<text text-anchor="start" x="207.95" y="-695.5" font-family="Helvetica,sans-Serif" font-size="10.00">+ i3()</text>
<text text-anchor="start" x="207.95" y="-684.5" font-family="Helvetica,sans-Serif" font-size="10.00">+ dt()</text>
<text text-anchor="start" x="207.95" y="-673.5" font-family="Helvetica,sans-Serif" font-size="10.00">+ setDt()</text>
<text text-anchor="start" x="207.95" y="-662.5" font-family="Helvetica,sans-Serif" font-size="10.00">+ tf()</text>
<text text-anchor="start" x="207.95" y="-651.5" font-family="Helvetica,sans-Serif" font-size="10.00">+ setTf()</text>
<text text-anchor="start" x="207.95" y="-640.5" font-family="Helvetica,sans-Serif" font-size="10.00">+ t()</text>
<text text-anchor="start" x="207.95" y="-629.5" font-family="Helvetica,sans-Serif" font-size="10.00">+ setT()</text>
<text text-anchor="start" x="207.95" y="-618.5" font-family="Helvetica,sans-Serif" font-size="10.00">+ tau()</text>
<text text-anchor="start" x="207.95" y="-607.5" font-family="Helvetica,sans-Serif" font-size="10.00">+ setTau()</text>
<text text-anchor="start" x="207.95" y="-596.5" font-family="Helvetica,sans-Serif" font-size="10.00">+ timestep()</text>
<text text-anchor="start" x="207.95" y="-585.5" font-family="Helvetica,sans-Serif" font-size="10.00">+ setTimestep()</text>
<text text-anchor="start" x="207.95" y="-574.5" font-family="Helvetica,sans-Serif" font-size="10.00">+ numStepsOutput()</text>
<text text-anchor="start" x="207.95" y="-563.5" font-family="Helvetica,sans-Serif" font-size="10.00">+ setNumStepsOutput()</text>
<text text-anchor="start" x="207.95" y="-552.5" font-family="Helvetica,sans-Serif" font-size="10.00">+ positionsBodies()</text>
<text text-anchor="start" x="207.95" y="-541.5" font-family="Helvetica,sans-Serif" font-size="10.00">+ setPositionsBodies()</text>
<text text-anchor="start" x="207.95" y="-530.5" font-family="Helvetica,sans-Serif" font-size="10.00">+ velocitiesBodies()</text>
<text text-anchor="start" x="207.95" y="-519.5" font-family="Helvetica,sans-Serif" font-size="10.00">+ setVelocitiesBodies()</text>
<text text-anchor="start" x="207.95" y="-508.5" font-family="Helvetica,sans-Serif" font-size="10.00">+ accelerationsBodies()</text>
<text text-anchor="start" x="207.95" y="-497.5" font-family="Helvetica,sans-Serif" font-size="10.00">+ setAccelerationsBodies()</text>
<text text-anchor="start" x="207.95" y="-486.5" font-family="Helvetica,sans-Serif" font-size="10.00">+ quaternionsParticles()</text>
<text text-anchor="start" x="207.95" y="-475.5" font-family="Helvetica,sans-Serif" font-size="10.00">+ setQuaternionsParticles()</text>
<text text-anchor="start" x="207.95" y="-464.5" font-family="Helvetica,sans-Serif" font-size="10.00">+ orientationsParticles()</text>
<text text-anchor="start" x="207.95" y="-453.5" font-family="Helvetica,sans-Serif" font-size="10.00">+ setOrientationsParticles()</text>
<text text-anchor="start" x="207.95" y="-442.5" font-family="Helvetica,sans-Serif" font-size="10.00">+ positionsParticles()</text>
<text text-anchor="start" x="207.95" y="-431.5" font-family="Helvetica,sans-Serif" font-size="10.00">+ setPositionsParticles()</text>
<text text-anchor="start" x="207.95" y="-420.5" font-family="Helvetica,sans-Serif" font-size="10.00">+ velocitiesParticles()</text>
<text text-anchor="start" x="207.95" y="-409.5" font-family="Helvetica,sans-Serif" font-size="10.00">+ setVelocitiesParticles()</text>
<text text-anchor="start" x="207.95" y="-398.5" font-family="Helvetica,sans-Serif" font-size="10.00">+ accelerationsParticles()</text>
<text text-anchor="start" x="207.95" y="-387.5" font-family="Helvetica,sans-Serif" font-size="10.00">+ setAccelerationsParticles()</text>
<text text-anchor="start" x="207.95" y="-376.5" font-family="Helvetica,sans-Serif" font-size="10.00">+ velocitiesParticlesArticulation()</text>
<text text-anchor="start" x="207.95" y="-365.5" font-family="Helvetica,sans-Serif" font-size="10.00">+ accelerationsParticlesArticulation()</text>
<text text-anchor="start" x="207.95" y="-354.5" font-family="Helvetica,sans-Serif" font-size="10.00">+ tensZeta()</text>
<text text-anchor="start" x="207.95" y="-343.5" font-family="Helvetica,sans-Serif" font-size="10.00">+ tensGradZeta()</text>
<text text-anchor="start" x="207.95" y="-332.5" font-family="Helvetica,sans-Serif" font-size="10.00">+ tensChi()</text>
<text text-anchor="start" x="207.95" y="-321.5" font-family="Helvetica,sans-Serif" font-size="10.00">+ udwadiaA()</text>
<text text-anchor="start" x="207.95" y="-310.5" font-family="Helvetica,sans-Serif" font-size="10.00">+ udwadiaB()</text>
<text text-anchor="start" x="207.95" y="-299.5" font-family="Helvetica,sans-Serif" font-size="10.00">&#45; parseGSD()</text>
<text text-anchor="start" x="207.95" y="-288.5" font-family="Helvetica,sans-Serif" font-size="10.00">&#45; checkInput()</text>
<text text-anchor="start" x="207.95" y="-277.5" font-family="Helvetica,sans-Serif" font-size="10.00">&#45; positionsArticulation()</text>
<text text-anchor="start" x="207.95" y="-266.5" font-family="Helvetica,sans-Serif" font-size="10.00">&#45; velocitiesArticulation()</text>
<text text-anchor="start" x="207.95" y="-255.5" font-family="Helvetica,sans-Serif" font-size="10.00">&#45; accelerationsArticulation()</text>
<text text-anchor="start" x="207.95" y="-244.5" font-family="Helvetica,sans-Serif" font-size="10.00">&#45; udwadiaLinearSystem()</text>
<text text-anchor="start" x="207.95" y="-233.5" font-family="Helvetica,sans-Serif" font-size="10.00">&#45; rbmMatrixElement()</text>
<text text-anchor="start" x="207.95" y="-222.5" font-family="Helvetica,sans-Serif" font-size="10.00">&#45; psiMatrixElement()</text>
<text text-anchor="start" x="207.95" y="-211.5" font-family="Helvetica,sans-Serif" font-size="10.00">&#45; chiMatrixElement()</text>
<text text-anchor="start" x="207.95" y="-200.5" font-family="Helvetica,sans-Serif" font-size="10.00">&#45; gradZetaTensorElement()</text>
<text text-anchor="start" x="207.95" y="-189.5" font-family="Helvetica,sans-Serif" font-size="10.00">&#45; rigidBodyMotionTensors()</text>
<text text-anchor="start" x="207.95" y="-178.5" font-family="Helvetica,sans-Serif" font-size="10.00">&#45; gradientChangeOfVariable</text>
<text text-anchor="start" x="207.95" y="-167.5" font-family="Helvetica,sans-Serif" font-size="10.00">Tensors()</text>
<text text-anchor="start" x="207.95" y="-156.5" font-family="Helvetica,sans-Serif" font-size="10.00">&#45; convertBody2ParticleOrient()</text>
<text text-anchor="start" x="207.95" y="-145.5" font-family="Helvetica,sans-Serif" font-size="10.00">&#45; convertBody2ParticlePos()</text>
<text text-anchor="start" x="207.95" y="-134.5" font-family="Helvetica,sans-Serif" font-size="10.00">&#45; convertBody2ParticleVelAcc()</text>
<text text-anchor="start" x="207.95" y="-123.5" font-family="Helvetica,sans-Serif" font-size="10.00">&#45; crossProdMat()</text>
<text text-anchor="start" x="207.95" y="-112.5" font-family="Helvetica,sans-Serif" font-size="10.00">&#45; eMatrix()</text>
</a>
</g>
</g>
<!-- Node3&#45;&gt;Node2 -->
<g id="edge2" class="edge">
<title>Node3&#45;&gt;Node2</title>
<path fill="none" stroke="#404040" d="M287.95,-105.26C287.95,-91.88 287.95,-80.02 287.95,-69.89"/>
<polygon fill="none" stroke="#404040" points="287.95,-69.59 283.95,-63.59 287.95,-57.59 291.95,-63.59 287.95,-69.59"/>
<text text-anchor="middle" x="298.45" y="-79" font-family="Helvetica,sans-Serif" font-size="10.00"> +ptr</text>
</g>
<!-- Node4 -->
<g id="node4" class="node">
<title>Node4</title>
<g id="a_node4"><a xlink:title=" ">
<polygon fill="none" stroke="#bfbfbf" points="412.45,-1882.5 412.45,-1950.5 547.45,-1950.5 547.45,-1882.5 412.45,-1882.5"/>
<text text-anchor="start" x="420.45" y="-1938.5" font-family="Helvetica,sans-Serif" font-size="10.00">std::enable_shared</text>
<text text-anchor="middle" x="479.95" y="-1927.5" font-family="Helvetica,sans-Serif" font-size="10.00">_from_this&lt; SystemData &gt;</text>
<polyline fill="none" stroke="#bfbfbf" points="412.45,-1920.5 547.45,-1920.5 "/>
<text text-anchor="middle" x="479.95" y="-1908.5" font-family="Helvetica,sans-Serif" font-size="10.00"> </text>
<polyline fill="none" stroke="#bfbfbf" points="412.45,-1901.5 547.45,-1901.5 "/>
<text text-anchor="middle" x="479.95" y="-1889.5" font-family="Helvetica,sans-Serif" font-size="10.00"> </text>
</a>
</g>
</g>
<!-- Node4&#45;&gt;Node3 -->
<g id="edge3" class="edge">
<title>Node4&#45;&gt;Node3</title>
<path fill="none" stroke="midnightblue" d="M471.19,-1872.44C453.99,-1787.83 414.13,-1591.72 375.96,-1403.96"/>
<polygon fill="none" stroke="midnightblue" points="467.81,-1873.34 473.23,-1882.44 474.66,-1871.94 467.81,-1873.34"/>
</g>
<!-- Node5&#45;&gt;Node3 -->
<g id="edge4" class="edge">
<title>Node5&#45;&gt;Node3</title>
<path fill="none" stroke="#404040" d="M165.62,-1888C171.46,-1844.21 183.72,-1752.31 198.32,-1642.88"/>
<polygon fill="none" stroke="#404040" points="198.33,-1642.75 195.16,-1636.27 199.92,-1630.85 203.09,-1637.33 198.33,-1642.75"/>
<text text-anchor="middle" x="195.45" y="-1856" font-family="Helvetica,sans-Serif" font-size="10.00"> &#45;m_gsdUtil</text>
</g>
<!-- Node6 -->
<g id="node6" class="node">
<title>Node6</title>
<g id="a_node6"><a xlink:title="STL class.">
<polygon fill="none" stroke="#bfbfbf" points="430.45,-2108.5 430.45,-2165.5 535.45,-2165.5 535.45,-2108.5 430.45,-2108.5"/>
<text text-anchor="middle" x="482.95" y="-2153.5" font-family="Helvetica,sans-Serif" font-size="10.00">std::shared_ptr&lt; T &gt;</text>
<polyline fill="none" stroke="#bfbfbf" points="430.45,-2146.5 535.45,-2146.5 "/>
<text text-anchor="middle" x="482.95" y="-2134.5" font-family="Helvetica,sans-Serif" font-size="10.00"> </text>
<polyline fill="none" stroke="#bfbfbf" points="430.45,-2127.5 535.45,-2127.5 "/>
<text text-anchor="start" x="438.45" y="-2115.5" font-family="Helvetica,sans-Serif" font-size="10.00">+ operator&#45;&gt;()</text>
</a>
</g>
</g>
<!-- Node6&#45;&gt;Node2 -->
<g id="edge13" class="edge">
<title>Node6&#45;&gt;Node2</title>
<path fill="none" stroke="orange" d="M512.14,-2100.12C529.15,-2076.83 548.97,-2044.95 557.95,-2013 559.91,-2006 559.28,-1925.08 556.95,-1882 514.13,-1089.69 768.52,-799.6 384.95,-105 374.3,-85.71 356.4,-69.76 338.86,-57.6"/>
<polygon fill="orange" stroke="orange" points="509.21,-2098.2 506.02,-2108.3 514.81,-2102.39 509.21,-2098.2"/>
<text text-anchor="middle" x="593.95" y="-1856" font-family="Helvetica,sans-Serif" font-size="10.00"> &lt; SystemData &gt;</text>
</g>
<!-- Node6&#45;&gt;Node5 -->
<g id="edge6" class="edge">
<title>Node6&#45;&gt;Node5</title>
<path fill="none" stroke="orange" d="M457.8,-2100.18C440.87,-2075.8 418.19,-2042.7 398.95,-2013 386.47,-1993.74 390.81,-1982.06 371.95,-1969 337.34,-1945.03 319.89,-1960.8 278.95,-1951 263.23,-1947.24 246.46,-1942.73 230.66,-1938.26"/>
<polygon fill="orange" stroke="orange" points="454.95,-2102.21 463.54,-2108.41 460.7,-2098.21 454.95,-2102.21"/>
<text text-anchor="middle" x="427.95" y="-1988.5" font-family="Helvetica,sans-Serif" font-size="10.00"> &lt; GSDUtil &gt;</text>
</g>
<!-- Node10 -->
<g id="node10" class="node">
<title>Node10</title>
<g id="a_node10"><a xlink:title=" ">
<polygon fill="none" stroke="#bfbfbf" points="287.45,-1882.5 287.45,-1950.5 394.45,-1950.5 394.45,-1882.5 287.45,-1882.5"/>
<text text-anchor="start" x="295.45" y="-1938.5" font-family="Helvetica,sans-Serif" font-size="10.00">std::shared_ptr&lt; gsd</text>
<text text-anchor="middle" x="340.95" y="-1927.5" font-family="Helvetica,sans-Serif" font-size="10.00">_handle &gt;</text>
<polyline fill="none" stroke="#bfbfbf" points="287.45,-1920.5 394.45,-1920.5 "/>
<text text-anchor="middle" x="340.95" y="-1908.5" font-family="Helvetica,sans-Serif" font-size="10.00"> </text>
<polyline fill="none" stroke="#bfbfbf" points="287.45,-1901.5 394.45,-1901.5 "/>
<text text-anchor="middle" x="340.95" y="-1889.5" font-family="Helvetica,sans-Serif" font-size="10.00"> </text>
</a>
</g>
</g>
<!-- Node6&#45;&gt;Node10 -->
<g id="edge12" class="edge">
<title>Node6&#45;&gt;Node10</title>
<path fill="none" stroke="orange" d="M488.72,-2097.78C492.08,-2060.61 490.88,-2004.69 460.95,-1969 443.88,-1948.65 428.45,-1961.28 403.95,-1951 400.86,-1949.71 397.73,-1948.31 394.59,-1946.85"/>
<polygon fill="orange" stroke="orange" points="485.19,-2097.89 487.61,-2108.2 492.15,-2098.62 485.19,-2097.89"/>
<text text-anchor="middle" x="518.45" y="-1988.5" font-family="Helvetica,sans-Serif" font-size="10.00"> &lt; gsd_handle &gt;</text>
</g>
<!-- Node7 -->
<g id="node7" class="node">
<title>Node7</title>
<g id="a_node7"><a xlink:title=" ">
<polygon fill="none" stroke="#bfbfbf" points="468.45,-2301.5 468.45,-2358.5 497.45,-2358.5 497.45,-2301.5 468.45,-2301.5"/>
<text text-anchor="middle" x="482.95" y="-2346.5" font-family="Helvetica,sans-Serif" font-size="10.00">T</text>
<polyline fill="none" stroke="#bfbfbf" points="468.45,-2339.5 497.45,-2339.5 "/>
<text text-anchor="middle" x="482.95" y="-2327.5" font-family="Helvetica,sans-Serif" font-size="10.00"> </text>
<polyline fill="none" stroke="#bfbfbf" points="468.45,-2320.5 497.45,-2320.5 "/>
<text text-anchor="middle" x="482.95" y="-2308.5" font-family="Helvetica,sans-Serif" font-size="10.00"> </text>
</a>
</g>
</g>
<!-- Node7&#45;&gt;Node6 -->
<g id="edge7" class="edge">
<title>Node7&#45;&gt;Node6</title>
<path fill="none" stroke="#404040" d="M482.95,-2301.23C482.95,-2268.83 482.95,-2215.02 482.95,-2178.1"/>
<polygon fill="none" stroke="#404040" points="482.95,-2177.81 478.95,-2171.81 482.95,-2165.81 486.95,-2171.81 482.95,-2177.81"/>
<text text-anchor="middle" x="493.45" y="-2269.5" font-family="Helvetica,sans-Serif" font-size="10.00"> +ptr</text>
</g>
<!-- Node8 -->
<g id="node8" class="node">
<title>Node8</title>
<g id="a_node8"><a xlink:title="STL class.">
<polygon fill="none" stroke="#bfbfbf" points="186.95,-2301.5 186.95,-2358.5 246.95,-2358.5 246.95,-2301.5 186.95,-2301.5"/>
<text text-anchor="middle" x="216.95" y="-2346.5" font-family="Helvetica,sans-Serif" font-size="10.00">std::string</text>
<polyline fill="none" stroke="#bfbfbf" points="186.95,-2339.5 246.95,-2339.5 "/>
<text text-anchor="middle" x="216.95" y="-2327.5" font-family="Helvetica,sans-Serif" font-size="10.00"> </text>
<polyline fill="none" stroke="#bfbfbf" points="186.95,-2320.5 246.95,-2320.5 "/>
<text text-anchor="middle" x="216.95" y="-2308.5" font-family="Helvetica,sans-Serif" font-size="10.00"> </text>
</a>
</g>
</g>
<!-- Node8&#45;&gt;Node1 -->
<g id="edge14" class="edge">
<title>Node8&#45;&gt;Node1</title>
<path fill="none" stroke="#404040" d="M195.58,-2301.36C191.89,-2295.54 188.44,-2289.26 185.95,-2283 182.36,-2273.98 179.31,-2264.44 176.72,-2254.74"/>
<polygon fill="none" stroke="#404040" points="176.65,-2254.49 171.33,-2249.62 173.77,-2242.84 179.1,-2247.7 176.65,-2254.49"/>
<text text-anchor="middle" x="215.45" y="-2275" font-family="Helvetica,sans-Serif" font-size="10.00"> &#45;m_logName</text>
<text text-anchor="middle" x="215.45" y="-2264" font-family="Helvetica,sans-Serif" font-size="10.00">&#45;m_logFile</text>
</g>
<!-- Node8&#45;&gt;Node3 -->
<g id="edge8" class="edge">
<title>Node8&#45;&gt;Node3</title>
<path fill="none" stroke="#404040" d="M236.85,-2301.37C240.14,-2295.55 243.08,-2289.27 244.95,-2283 252.65,-2257.17 260.53,-2071.2 267.41,-1847"/>
<polygon fill="none" stroke="#404040" points="267.41,-1846.92 263.6,-1840.8 267.78,-1834.93 271.59,-1841.05 267.41,-1846.92"/>
<text text-anchor="middle" x="301.95" y="-2005" font-family="Helvetica,sans-Serif" font-size="10.00"> &#45;m_outputDir</text>
<text text-anchor="middle" x="301.95" y="-1994" font-family="Helvetica,sans-Serif" font-size="10.00">&#45;m_logName</text>
<text text-anchor="middle" x="301.95" y="-1983" font-family="Helvetica,sans-Serif" font-size="10.00">&#45;m_logFile</text>
<text text-anchor="middle" x="301.95" y="-1972" font-family="Helvetica,sans-Serif" font-size="10.00">&#45;m_inputGSDFile</text>
</g>
<!-- Node9 -->
<g id="node9" class="node">
<title>Node9</title>
<g id="a_node9"><a xlink:title="STL class.">
<polygon fill="none" stroke="#bfbfbf" points="169.45,-2396.5 169.45,-2464.5 264.45,-2464.5 264.45,-2396.5 169.45,-2396.5"/>
<text text-anchor="start" x="177.45" y="-2452.5" font-family="Helvetica,sans-Serif" font-size="10.00">std::basic_string&lt;</text>
<text text-anchor="middle" x="216.95" y="-2441.5" font-family="Helvetica,sans-Serif" font-size="10.00"> char &gt;</text>
<polyline fill="none" stroke="#bfbfbf" points="169.45,-2434.5 264.45,-2434.5 "/>
<text text-anchor="middle" x="216.95" y="-2422.5" font-family="Helvetica,sans-Serif" font-size="10.00"> </text>
<polyline fill="none" stroke="#bfbfbf" points="169.45,-2415.5 264.45,-2415.5 "/>
<text text-anchor="middle" x="216.95" y="-2403.5" font-family="Helvetica,sans-Serif" font-size="10.00"> </text>
</a>
</g>
</g>
<!-- Node9&#45;&gt;Node8 -->
<g id="edge9" class="edge">
<title>Node9&#45;&gt;Node8</title>
<path fill="none" stroke="midnightblue" d="M216.95,-2386.38C216.95,-2376.94 216.95,-2367.2 216.95,-2358.57"/>
<polygon fill="none" stroke="midnightblue" points="213.45,-2386.43 216.95,-2396.43 220.45,-2386.43 213.45,-2386.43"/>
</g>
<!-- Node10&#45;&gt;Node3 -->
<g id="edge10" class="edge">
<title>Node10&#45;&gt;Node3</title>
<path fill="none" stroke="#404040" d="M339.09,-1882.44C338.54,-1872.59 337.88,-1860.74 337.11,-1847.15"/>
<polygon fill="none" stroke="#404040" points="337.09,-1846.76 332.76,-1840.99 336.42,-1834.78 340.75,-1840.54 337.09,-1846.76"/>
<text text-anchor="middle" x="361.45" y="-1856" font-family="Helvetica,sans-Serif" font-size="10.00"> &#45;m_handle</text>
</g>
<!-- Node11 -->
<g id="node11" class="node">
<title>Node11</title>
<g id="a_node11"><a xlink:title=" ">
<polygon fill="none" stroke="#bfbfbf" points="324.95,-2108.5 324.95,-2165.5 390.95,-2165.5 390.95,-2108.5 324.95,-2108.5"/>
<text text-anchor="middle" x="357.95" y="-2153.5" font-family="Helvetica,sans-Serif" font-size="10.00">gsd_handle</text>
<polyline fill="none" stroke="#bfbfbf" points="324.95,-2146.5 390.95,-2146.5 "/>
<text text-anchor="middle" x="357.95" y="-2134.5" font-family="Helvetica,sans-Serif" font-size="10.00"> </text>
<polyline fill="none" stroke="#bfbfbf" points="324.95,-2127.5 390.95,-2127.5 "/>
<text text-anchor="middle" x="357.95" y="-2115.5" font-family="Helvetica,sans-Serif" font-size="10.00"> </text>
</a>
</g>
</g>
<!-- Node11&#45;&gt;Node10 -->
<g id="edge11" class="edge">
<title>Node11&#45;&gt;Node10</title>
<path fill="none" stroke="#404040" d="M355.79,-2108.33C352.94,-2071.67 347.88,-2006.54 344.46,-1962.69"/>
<polygon fill="none" stroke="#404040" points="344.46,-1962.62 340,-1956.94 343.53,-1950.65 347.98,-1956.32 344.46,-1962.62"/>
<text text-anchor="middle" x="357.45" y="-1988.5" font-family="Helvetica,sans-Serif" font-size="10.00"> +ptr</text>
</g>
</g>
</svg>
