<?xml version="1.0" encoding="UTF-8" standalone="no"?>
<!DOCTYPE svg PUBLIC "-//W3C//DTD SVG 1.1//EN"
 "http://www.w3.org/Graphics/SVG/1.1/DTD/svg11.dtd">
<!-- Generated by graphviz version 2.49.1 (20210923.0004)
 -->
<!-- Title: systemData::updateConstraints Pages: 1 -->
<svg width="538pt" height="274pt"
 viewBox="0.00 0.00 538.00 273.50" xmlns="http://www.w3.org/2000/svg" xmlns:xlink="http://www.w3.org/1999/xlink">
<g id="graph0" class="graph" transform="scale(1 1) rotate(0) translate(4 269.5)">
<title>systemData::updateConstraints</title>
<!-- Node1 -->
<g id="node1" class="node">
<title>Node1</title>
<g id="a_node1"><a xlink:title="Updates all relevant rigid body motion tensors, respective gradients, and kinematic/Udwadia constrain...">
<polygon fill="#bfbfbf" stroke="black" points="0,-117.5 0,-136.5 156,-136.5 156,-117.5 0,-117.5"/>
<text text-anchor="middle" x="78" y="-124.5" font-family="Helvetica,sans-Serif" font-size="10.00">systemData::updateConstraints</text>
</a>
</g>
</g>
<!-- Node2 -->
<g id="node2" class="node">
<title>Node2</title>
<g id="a_node2"><a xlink:href="classsystemData.html#abdbaf4be474add633c79ce9f4812b438" target="_top" xlink:title=" ">
<polygon fill="none" stroke="black" points="207.5,-235 207.5,-265 341.5,-265 341.5,-235 207.5,-235"/>
<text text-anchor="start" x="215.5" y="-253" font-family="Helvetica,sans-Serif" font-size="10.00">systemData::accelerations</text>
<text text-anchor="middle" x="274.5" y="-242" font-family="Helvetica,sans-Serif" font-size="10.00">Articulation</text>
</a>
</g>
</g>
<!-- Node1&#45;&gt;Node2 -->
<g id="edge1" class="edge">
<title>Node1&#45;&gt;Node2</title>
<path fill="none" stroke="midnightblue" d="M87.33,-136.71C104.77,-156.42 147.21,-201.36 192,-226 195.3,-227.81 198.74,-229.5 202.28,-231.08"/>
<polygon fill="midnightblue" stroke="midnightblue" points="201.23,-234.43 211.81,-234.97 203.88,-227.95 201.23,-234.43"/>
</g>
<!-- Node3 -->
<g id="node3" class="node">
<title>Node3</title>
<g id="a_node3"><a xlink:href="classsystemData.html#aca5c01655d711e9088b3f1e9d7578612" target="_top" xlink:title=" ">
<polygon fill="none" stroke="black" points="201.5,-186 201.5,-216 347.5,-216 347.5,-186 201.5,-186"/>
<text text-anchor="start" x="209.5" y="-204" font-family="Helvetica,sans-Serif" font-size="10.00">systemData::gradientChange</text>
<text text-anchor="middle" x="274.5" y="-193" font-family="Helvetica,sans-Serif" font-size="10.00">OfVariableTensors</text>
</a>
</g>
</g>
<!-- Node1&#45;&gt;Node3 -->
<g id="edge2" class="edge">
<title>Node1&#45;&gt;Node3</title>
<path fill="none" stroke="midnightblue" d="M98.68,-136.65C120.98,-147.36 158.57,-164.74 192,-177 197.5,-179.02 203.26,-180.99 209.05,-182.87"/>
<polygon fill="midnightblue" stroke="midnightblue" points="208.23,-186.28 218.82,-185.97 210.34,-179.61 208.23,-186.28"/>
</g>
<!-- Node6 -->
<g id="node6" class="node">
<title>Node6</title>
<g id="a_node6"><a xlink:href="classsystemData.html#ab3fc7f3cc4c79bbad6e9bb73e127e8c3" target="_top" xlink:title=" ">
<polygon fill="none" stroke="black" points="210.5,-137 210.5,-167 338.5,-167 338.5,-137 210.5,-137"/>
<text text-anchor="start" x="218.5" y="-155" font-family="Helvetica,sans-Serif" font-size="10.00">systemData::locaterPoint</text>
<text text-anchor="middle" x="274.5" y="-144" font-family="Helvetica,sans-Serif" font-size="10.00">Locations</text>
</a>
</g>
</g>
<!-- Node1&#45;&gt;Node6 -->
<g id="edge5" class="edge">
<title>Node1&#45;&gt;Node6</title>
<path fill="none" stroke="midnightblue" d="M153.09,-136.52C168.59,-138.51 184.92,-140.61 200.38,-142.6"/>
<polygon fill="midnightblue" stroke="midnightblue" points="200.04,-146.09 210.4,-143.89 200.93,-139.14 200.04,-146.09"/>
</g>
<!-- Node7 -->
<g id="node7" class="node">
<title>Node7</title>
<g id="a_node7"><a xlink:href="classsystemData.html#a415007558c07b03a6cfeb973ec97fa3f" target="_top" xlink:title=" ">
<polygon fill="none" stroke="black" points="201,-88 201,-118 348,-118 348,-88 201,-88"/>
<text text-anchor="start" x="209" y="-106" font-family="Helvetica,sans-Serif" font-size="10.00">systemData::rigidBodyMotion</text>
<text text-anchor="middle" x="274.5" y="-95" font-family="Helvetica,sans-Serif" font-size="10.00">Tensors</text>
</a>
</g>
</g>
<!-- Node1&#45;&gt;Node7 -->
<g id="edge6" class="edge">
<title>Node1&#45;&gt;Node7</title>
<path fill="none" stroke="midnightblue" d="M156.15,-117.48C167.55,-116.07 179.34,-114.62 190.85,-113.2"/>
<polygon fill="midnightblue" stroke="midnightblue" points="191.38,-116.66 200.87,-111.96 190.52,-109.71 191.38,-116.66"/>
</g>
<!-- Node9 -->
<g id="node9" class="node">
<title>Node9</title>
<g id="a_node9"><a xlink:href="classsystemData.html#aa797226f69baaa83c559c481dee8381b" target="_top" xlink:title=" ">
<polygon fill="none" stroke="black" points="204.5,-39 204.5,-69 344.5,-69 344.5,-39 204.5,-39"/>
<text text-anchor="start" x="212.5" y="-57" font-family="Helvetica,sans-Serif" font-size="10.00">systemData::udwadiaLinear</text>
<text text-anchor="middle" x="274.5" y="-46" font-family="Helvetica,sans-Serif" font-size="10.00">System</text>
</a>
</g>
</g>
<!-- Node1&#45;&gt;Node9 -->
<g id="edge9" class="edge">
<title>Node1&#45;&gt;Node9</title>
<path fill="none" stroke="midnightblue" d="M99.11,-117.39C121.48,-106.9 158.83,-90.02 192,-78 197.51,-76 203.27,-74.05 209.07,-72.17"/>
<polygon fill="midnightblue" stroke="midnightblue" points="210.35,-75.44 218.84,-69.09 208.25,-68.76 210.35,-75.44"/>
</g>
<!-- Node10 -->
<g id="node10" class="node">
<title>Node10</title>
<g id="a_node10"><a xlink:href="classsystemData.html#a4b449c0f7702a7140fca05ca3722092b" target="_top" xlink:title=" ">
<polygon fill="none" stroke="black" points="192,-0.5 192,-19.5 357,-19.5 357,-0.5 192,-0.5"/>
<text text-anchor="middle" x="274.5" y="-7.5" font-family="Helvetica,sans-Serif" font-size="10.00">systemData::velocitiesArticulation</text>
</a>
</g>
</g>
<!-- Node1&#45;&gt;Node10 -->
<g id="edge10" class="edge">
<title>Node1&#45;&gt;Node10</title>
<path fill="none" stroke="midnightblue" d="M86.98,-117.49C104.08,-97.75 146.43,-52.25 192,-29 196.65,-26.63 201.61,-24.54 206.68,-22.72"/>
<polygon fill="midnightblue" stroke="midnightblue" points="208.12,-25.93 216.56,-19.52 205.96,-19.27 208.12,-25.93"/>
</g>
<!-- Node4 -->
<g id="node4" class="node">
<title>Node4</title>
<g id="a_node4"><a xlink:href="classsystemData.html#a19a83a255eb6f1de4bcfe2ea8e31ffa9" target="_top" xlink:title="Computes the E matrix of quaternion (4&#45;vector) input.">
<polygon fill="none" stroke="black" points="407.5,-142.5 407.5,-161.5 515.5,-161.5 515.5,-142.5 407.5,-142.5"/>
<text text-anchor="middle" x="461.5" y="-149.5" font-family="Helvetica,sans-Serif" font-size="10.00">systemData::eMatrix</text>
</a>
</g>
</g>
<!-- Node3&#45;&gt;Node4 -->
<g id="edge3" class="edge">
<title>Node3&#45;&gt;Node4</title>
<path fill="none" stroke="midnightblue" d="M332.26,-185.97C358.68,-178.97 389.7,-170.75 414.61,-164.16"/>
<polygon fill="midnightblue" stroke="midnightblue" points="415.76,-167.47 424.53,-161.53 413.96,-160.71 415.76,-167.47"/>
</g>
<!-- Node5 -->
<g id="node5" class="node">
<title>Node5</title>
<g id="a_node5"><a xlink:href="helper__eigenTensorConversion_8h.html#a556fb613b733267c9404648bc66bd0bd" target="_top" xlink:title="Convert Eigen::Matrix &#45;&#45;&gt; Eigen::Tensor.">
<polygon fill="none" stroke="black" points="428,-191.5 428,-210.5 495,-210.5 495,-191.5 428,-191.5"/>
<text text-anchor="middle" x="461.5" y="-198.5" font-family="Helvetica,sans-Serif" font-size="10.00">TensorCast</text>
</a>
</g>
</g>
<!-- Node3&#45;&gt;Node5 -->
<g id="edge4" class="edge">
<title>Node3&#45;&gt;Node5</title>
<path fill="none" stroke="midnightblue" d="M347.56,-201C371.34,-201 397.02,-201 417.87,-201"/>
<polygon fill="midnightblue" stroke="midnightblue" points="417.99,-204.5 427.99,-201 417.99,-197.5 417.99,-204.5"/>
</g>
<!-- Node7&#45;&gt;Node4 -->
<g id="edge8" class="edge">
<title>Node7&#45;&gt;Node4</title>
<path fill="none" stroke="midnightblue" d="M332.26,-118.03C358.68,-125.03 389.7,-133.25 414.61,-139.84"/>
<polygon fill="midnightblue" stroke="midnightblue" points="413.96,-143.29 424.53,-142.47 415.76,-136.53 413.96,-143.29"/>
</g>
<!-- Node8 -->
<g id="node8" class="node">
<title>Node8</title>
<g id="a_node8"><a xlink:href="classsystemData.html#a0a77c933b764fb36c64ec5e66011482c" target="_top" xlink:title="Function takes in vector in vector cross&#45;product expression: $c = a \times b$.">
<polygon fill="none" stroke="black" points="393,-93.5 393,-112.5 530,-112.5 530,-93.5 393,-93.5"/>
<text text-anchor="middle" x="461.5" y="-100.5" font-family="Helvetica,sans-Serif" font-size="10.00">systemData::crossProdMat</text>
</a>
</g>
</g>
<!-- Node7&#45;&gt;Node8 -->
<g id="edge7" class="edge">
<title>Node7&#45;&gt;Node8</title>
<path fill="none" stroke="midnightblue" d="M348.09,-103C359.52,-103 371.37,-103 382.91,-103"/>
<polygon fill="midnightblue" stroke="midnightblue" points="382.95,-106.5 392.95,-103 382.95,-99.5 382.95,-106.5"/>
</g>
</g>
</svg>
