<?xml version="1.0" encoding="UTF-8" standalone="no"?>
<!DOCTYPE svg PUBLIC "-//W3C//DTD SVG 1.1//EN"
 "http://www.w3.org/Graphics/SVG/1.1/DTD/svg11.dtd">
<!-- Generated by graphviz version 2.43.0 (0)
 -->
<!-- Title: systemData::initializeData Pages: 1 -->
<svg width="756pt" height="377pt"
 viewBox="0.00 0.00 756.00 377.00" xmlns="http://www.w3.org/2000/svg" xmlns:xlink="http://www.w3.org/1999/xlink">
<g id="graph0" class="graph" transform="scale(1 1) rotate(0) translate(4 373)">
<title>systemData::initializeData</title>
<!-- Node1 -->
<g id="node1" class="node">
<title>Node1</title>
<g id="a_node1"><a xlink:title="Function loads data from GSD file using GSDUtil class.">
<polygon fill="#bfbfbf" stroke="black" points="0,-209.5 0,-228.5 132,-228.5 132,-209.5 0,-209.5"/>
<text text-anchor="middle" x="66" y="-216.5" font-family="Helvetica,sans-Serif" font-size="10.00">systemData::initializeData</text>
</a>
</g>
</g>
<!-- Node2 -->
<g id="node2" class="node">
<title>Node2</title>
<g id="a_node2"><a xlink:href="classsystemData.html#a74a503e80869c3ef4a9b6edefd132726" target="_top" xlink:title="Passes this (systemData shared pointer instance) into GSDUtil constructor to load data from input GSD...">
<polygon fill="none" stroke="black" points="168,-288.5 168,-307.5 290,-307.5 290,-288.5 168,-288.5"/>
<text text-anchor="middle" x="229" y="-295.5" font-family="Helvetica,sans-Serif" font-size="10.00">systemData::parseGSD</text>
</a>
</g>
</g>
<!-- Node1&#45;&gt;Node2 -->
<g id="edge1" class="edge">
<title>Node1&#45;&gt;Node2</title>
<path fill="none" stroke="midnightblue" d="M86.42,-228.53C114.59,-242.35 166.95,-268.04 199.49,-284.01"/>
<polygon fill="midnightblue" stroke="midnightblue" points="197.99,-287.17 208.51,-288.44 201.08,-280.89 197.99,-287.17"/>
</g>
<!-- Node4 -->
<g id="node4" class="node">
<title>Node4</title>
<g id="a_node4"><a xlink:href="classsystemData.html#abe08e8ef40710f40f585342d24076085" target="_top" xlink:title="Updates all relevant rigid body motion tensors, respective gradients, and kinematic/Udwadia constrain...">
<polygon fill="none" stroke="black" points="176.5,-190.5 176.5,-209.5 281.5,-209.5 281.5,-190.5 176.5,-190.5"/>
<text text-anchor="middle" x="229" y="-197.5" font-family="Helvetica,sans-Serif" font-size="10.00">systemData::update</text>
</a>
</g>
</g>
<!-- Node1&#45;&gt;Node4 -->
<g id="edge3" class="edge">
<title>Node1&#45;&gt;Node4</title>
<path fill="none" stroke="midnightblue" d="M132.02,-211.33C143.25,-210 154.89,-208.63 166.03,-207.31"/>
<polygon fill="midnightblue" stroke="midnightblue" points="166.58,-210.77 176.1,-206.13 165.75,-203.82 166.58,-210.77"/>
</g>
<!-- Node3 -->
<g id="node3" class="node">
<title>Node3</title>
<g id="a_node3"><a xlink:href="classsystemData.html#a3f978844a3292e9ca096be6741c48dc2" target="_top" xlink:title="Various assertions to check data loaded from GSD is at least physical.">
<polygon fill="none" stroke="black" points="347,-349.5 347,-368.5 471,-368.5 471,-349.5 347,-349.5"/>
<text text-anchor="middle" x="409" y="-356.5" font-family="Helvetica,sans-Serif" font-size="10.00">systemData::checkInput</text>
</a>
</g>
</g>
<!-- Node2&#45;&gt;Node3 -->
<g id="edge2" class="edge">
<title>Node2&#45;&gt;Node3</title>
<path fill="none" stroke="midnightblue" d="M249.08,-307.6C268.16,-316.9 298.54,-330.9 326,-340 333.69,-342.55 341.9,-344.89 350.04,-346.98"/>
<polygon fill="midnightblue" stroke="midnightblue" points="349.34,-350.42 359.89,-349.42 351.02,-343.62 349.34,-350.42"/>
</g>
<!-- Node5 -->
<g id="node5" class="node">
<title>Node5</title>
<g id="a_node5"><a xlink:href="classsystemData.html#ac981cce9f038194aea9f48f57252ca7b" target="_top" xlink:title="Computes the articulation (linear) accelerations of the particles relative to their respective locate...">
<polygon fill="none" stroke="black" points="342,-163 342,-193 476,-193 476,-163 342,-163"/>
<text text-anchor="start" x="350" y="-181" font-family="Helvetica,sans-Serif" font-size="10.00">systemData::accelerations</text>
<text text-anchor="middle" x="409" y="-170" font-family="Helvetica,sans-Serif" font-size="10.00">Articulation</text>
</a>
</g>
</g>
<!-- Node4&#45;&gt;Node5 -->
<g id="edge4" class="edge">
<title>Node4&#45;&gt;Node5</title>
<path fill="none" stroke="midnightblue" d="M281.96,-193.58C297.43,-191.67 314.71,-189.53 331.4,-187.47"/>
<polygon fill="midnightblue" stroke="midnightblue" points="332.2,-190.9 341.69,-186.2 331.34,-183.95 332.2,-190.9"/>
</g>
<!-- Node6 -->
<g id="node6" class="node">
<title>Node6</title>
<g id="a_node6"><a xlink:href="classsystemData.html#a2a35b86c91b3a2eb19612e6a2124a3ae" target="_top" xlink:title="Computes the particle D.o.F. from the body D.o.F.">
<polygon fill="none" stroke="black" points="341,-114 341,-144 477,-144 477,-114 341,-114"/>
<text text-anchor="start" x="349" y="-132" font-family="Helvetica,sans-Serif" font-size="10.00">systemData::convertBody2</text>
<text text-anchor="middle" x="409" y="-121" font-family="Helvetica,sans-Serif" font-size="10.00">ParticleDoF</text>
</a>
</g>
</g>
<!-- Node4&#45;&gt;Node6 -->
<g id="edge5" class="edge">
<title>Node4&#45;&gt;Node6</title>
<path fill="none" stroke="midnightblue" d="M248.04,-190.34C267.07,-180.4 298.1,-164.87 326,-154 331.92,-151.7 338.14,-149.47 344.4,-147.35"/>
<polygon fill="midnightblue" stroke="midnightblue" points="345.82,-150.57 354.23,-144.12 343.64,-143.91 345.82,-150.57"/>
</g>
<!-- Node10 -->
<g id="node10" class="node">
<title>Node10</title>
<g id="a_node10"><a xlink:href="classsystemData.html#a3c41026c4b66d4f6e6e22a6398c6ced8" target="_top" xlink:title="Computes the gradients rigid body motion connectivity tensors and tensors associated with change of v...">
<polygon fill="none" stroke="black" points="337,-65 337,-95 481,-95 481,-65 337,-65"/>
<text text-anchor="start" x="345" y="-83" font-family="Helvetica,sans-Serif" font-size="10.00">systemData::gradientChange</text>
<text text-anchor="middle" x="409" y="-72" font-family="Helvetica,sans-Serif" font-size="10.00">OfVariableTensors</text>
</a>
</g>
</g>
<!-- Node4&#45;&gt;Node10 -->
<g id="edge9" class="edge">
<title>Node4&#45;&gt;Node10</title>
<path fill="none" stroke="midnightblue" d="M237.07,-190.38C251.59,-171.29 286.74,-128.43 326,-105 329.59,-102.85 333.39,-100.88 337.3,-99.06"/>
<polygon fill="midnightblue" stroke="midnightblue" points="338.75,-102.25 346.58,-95.1 336,-95.81 338.75,-102.25"/>
</g>
<!-- Node12 -->
<g id="node12" class="node">
<title>Node12</title>
<g id="a_node12"><a xlink:href="classsystemData.html#a13eff8db030640c1075a7d03acdeecb6" target="_top" xlink:title="Computes the distance from each particle to its respective body&#39;s locater point.">
<polygon fill="none" stroke="black" points="339,-300 339,-330 479,-330 479,-300 339,-300"/>
<text text-anchor="start" x="347" y="-318" font-family="Helvetica,sans-Serif" font-size="10.00">systemData::particleLocater</text>
<text text-anchor="middle" x="409" y="-307" font-family="Helvetica,sans-Serif" font-size="10.00">Distances</text>
</a>
</g>
</g>
<!-- Node4&#45;&gt;Node12 -->
<g id="edge12" class="edge">
<title>Node4&#45;&gt;Node12</title>
<path fill="none" stroke="midnightblue" d="M237.37,-209.52C252.16,-227.99 287.38,-268.8 326,-291 329.05,-292.75 332.24,-294.39 335.51,-295.91"/>
<polygon fill="midnightblue" stroke="midnightblue" points="334.36,-299.22 344.93,-299.91 337.1,-292.78 334.36,-299.22"/>
</g>
<!-- Node13 -->
<g id="node13" class="node">
<title>Node13</title>
<g id="a_node13"><a xlink:href="classsystemData.html#a05afc9e7e7423d88def51ec43ab91a33" target="_top" xlink:title="Computes the rigid body motion connectivity tensors.">
<polygon fill="none" stroke="black" points="336,-16 336,-46 482,-46 482,-16 336,-16"/>
<text text-anchor="start" x="344" y="-34" font-family="Helvetica,sans-Serif" font-size="10.00">systemData::rigidBodyMotion</text>
<text text-anchor="middle" x="409" y="-23" font-family="Helvetica,sans-Serif" font-size="10.00">Tensors</text>
</a>
</g>
</g>
<!-- Node4&#45;&gt;Node13 -->
<g id="edge13" class="edge">
<title>Node4&#45;&gt;Node13</title>
<path fill="none" stroke="midnightblue" d="M233.68,-190.17C243.98,-164 275.7,-92.09 326,-55 327.89,-53.61 329.86,-52.29 331.9,-51.05"/>
<polygon fill="midnightblue" stroke="midnightblue" points="334,-53.9 341.17,-46.1 330.7,-47.73 334,-53.9"/>
</g>
<!-- Node15 -->
<g id="node15" class="node">
<title>Node15</title>
<g id="a_node15"><a xlink:href="classsystemData.html#aaf3a4980d7dc49d7339a828ed95ee4d6" target="_top" xlink:title="Computes the Udwadia constraint matrix and vector to uphold the quaternion unitary norm for each body...">
<polygon fill="none" stroke="black" points="340,-251 340,-281 478,-281 478,-251 340,-251"/>
<text text-anchor="start" x="348" y="-269" font-family="Helvetica,sans-Serif" font-size="10.00">systemData::udwadiaLinear</text>
<text text-anchor="middle" x="409" y="-258" font-family="Helvetica,sans-Serif" font-size="10.00">System</text>
</a>
</g>
</g>
<!-- Node4&#45;&gt;Node15 -->
<g id="edge17" class="edge">
<title>Node4&#45;&gt;Node15</title>
<path fill="none" stroke="midnightblue" d="M250.71,-209.61C269.98,-218.37 299.61,-231.37 326,-241 332.39,-243.33 339.11,-245.62 345.84,-247.82"/>
<polygon fill="midnightblue" stroke="midnightblue" points="345.07,-251.25 355.67,-250.97 347.21,-244.59 345.07,-251.25"/>
</g>
<!-- Node16 -->
<g id="node16" class="node">
<title>Node16</title>
<g id="a_node16"><a xlink:href="classsystemData.html#a6bd16f2dd99236594ce5b12cd2cab57a" target="_top" xlink:title="Computes the articulation (linear) velocities of the particles relative to their respective locater p...">
<polygon fill="none" stroke="black" points="326,-212.5 326,-231.5 492,-231.5 492,-212.5 326,-212.5"/>
<text text-anchor="middle" x="409" y="-219.5" font-family="Helvetica,sans-Serif" font-size="10.00">systemData::velocitiesArticulation</text>
</a>
</g>
</g>
<!-- Node4&#45;&gt;Node16 -->
<g id="edge18" class="edge">
<title>Node4&#45;&gt;Node16</title>
<path fill="none" stroke="midnightblue" d="M281.96,-206.42C294.15,-207.93 307.46,-209.57 320.72,-211.21"/>
<polygon fill="midnightblue" stroke="midnightblue" points="320.48,-214.71 330.83,-212.46 321.33,-207.76 320.48,-214.71"/>
</g>
<!-- Node7 -->
<g id="node7" class="node">
<title>Node7</title>
<g id="a_node7"><a xlink:href="helper__eigenTensorConversion_8hpp.html#a556d08b55a6ad7cd703b6db06194e5cf" target="_top" xlink:title=" ">
<polygon fill="none" stroke="black" points="564,-119.5 564,-138.5 629,-138.5 629,-119.5 564,-119.5"/>
<text text-anchor="middle" x="596.5" y="-126.5" font-family="Helvetica,sans-Serif" font-size="10.00">MatrixCast</text>
</a>
</g>
</g>
<!-- Node6&#45;&gt;Node7 -->
<g id="edge6" class="edge">
<title>Node6&#45;&gt;Node7</title>
<path fill="none" stroke="midnightblue" d="M477.23,-129C502.65,-129 530.85,-129 553.33,-129"/>
<polygon fill="midnightblue" stroke="midnightblue" points="553.55,-132.5 563.55,-129 553.55,-125.5 553.55,-132.5"/>
</g>
<!-- Node9 -->
<g id="node9" class="node">
<title>Node9</title>
<g id="a_node9"><a xlink:href="helper__eigenTensorConversion_8hpp.html#a3a32f7de3f099464192073a93b34d580" target="_top" xlink:title="Convert Eigen::Matrix &#45;&#45;&gt; Eigen::Tensor.">
<polygon fill="none" stroke="black" points="563,-76.5 563,-95.5 630,-95.5 630,-76.5 563,-76.5"/>
<text text-anchor="middle" x="596.5" y="-83.5" font-family="Helvetica,sans-Serif" font-size="10.00">TensorCast</text>
</a>
</g>
</g>
<!-- Node6&#45;&gt;Node9 -->
<g id="edge8" class="edge">
<title>Node6&#45;&gt;Node9</title>
<path fill="none" stroke="midnightblue" d="M474.88,-113.96C500.82,-107.95 529.96,-101.19 553.1,-95.83"/>
<polygon fill="midnightblue" stroke="midnightblue" points="554,-99.21 562.95,-93.54 552.42,-92.39 554,-99.21"/>
</g>
<!-- Node8 -->
<g id="node8" class="node">
<title>Node8</title>
<g id="a_node8"><a xlink:href="helper__eigenTensorConversion_8hpp.html#a2a7eca6b17fb874869047bd0b5f11b46" target="_top" xlink:title="Convert between Eigen::Tensor and Eigen::Matrix classes.">
<polygon fill="none" stroke="black" points="701,-119.5 701,-138.5 748,-138.5 748,-119.5 701,-119.5"/>
<text text-anchor="middle" x="724.5" y="-126.5" font-family="Helvetica,sans-Serif" font-size="10.00">asEval</text>
</a>
</g>
</g>
<!-- Node7&#45;&gt;Node8 -->
<g id="edge7" class="edge">
<title>Node7&#45;&gt;Node8</title>
<path fill="none" stroke="midnightblue" d="M629.3,-129C648.03,-129 671.69,-129 690.61,-129"/>
<polygon fill="midnightblue" stroke="midnightblue" points="690.86,-132.5 700.86,-129 690.86,-125.5 690.86,-132.5"/>
</g>
<!-- Node10&#45;&gt;Node9 -->
<g id="edge11" class="edge">
<title>Node10&#45;&gt;Node9</title>
<path fill="none" stroke="midnightblue" d="M481.19,-82.3C505.14,-83.08 531.12,-83.92 552.25,-84.6"/>
<polygon fill="midnightblue" stroke="midnightblue" points="552.4,-88.11 562.51,-84.93 552.63,-81.11 552.4,-88.11"/>
</g>
<!-- Node11 -->
<g id="node11" class="node">
<title>Node11</title>
<g id="a_node11"><a xlink:href="classsystemData.html#a19a83a255eb6f1de4bcfe2ea8e31ffa9" target="_top" xlink:title="Computes the E matrix of quaternion (4&#45;vector) input.">
<polygon fill="none" stroke="black" points="542.5,-38.5 542.5,-57.5 650.5,-57.5 650.5,-38.5 542.5,-38.5"/>
<text text-anchor="middle" x="596.5" y="-45.5" font-family="Helvetica,sans-Serif" font-size="10.00">systemData::eMatrix</text>
</a>
</g>
</g>
<!-- Node10&#45;&gt;Node11 -->
<g id="edge10" class="edge">
<title>Node10&#45;&gt;Node11</title>
<path fill="none" stroke="midnightblue" d="M481.19,-67.72C498.03,-64.81 515.87,-61.74 532.32,-58.9"/>
<polygon fill="midnightblue" stroke="midnightblue" points="533.11,-62.31 542.37,-57.17 531.92,-55.42 533.11,-62.31"/>
</g>
<!-- Node13&#45;&gt;Node9 -->
<g id="edge16" class="edge">
<title>Node13&#45;&gt;Node9</title>
<path fill="none" stroke="midnightblue" d="M462.58,-46.08C472.38,-48.97 482.52,-52.03 492,-55 508.1,-60.04 511.88,-62.05 528,-67 536.03,-69.47 544.62,-71.98 552.91,-74.34"/>
<polygon fill="midnightblue" stroke="midnightblue" points="552.22,-77.78 562.79,-77.13 554.12,-71.05 552.22,-77.78"/>
</g>
<!-- Node13&#45;&gt;Node11 -->
<g id="edge15" class="edge">
<title>Node13&#45;&gt;Node11</title>
<path fill="none" stroke="midnightblue" d="M482.25,-37.62C498.69,-39.13 516.03,-40.72 532.07,-42.19"/>
<polygon fill="midnightblue" stroke="midnightblue" points="532.13,-45.71 542.4,-43.13 532.76,-38.74 532.13,-45.71"/>
</g>
<!-- Node14 -->
<g id="node14" class="node">
<title>Node14</title>
<g id="a_node14"><a xlink:href="classsystemData.html#a0a77c933b764fb36c64ec5e66011482c" target="_top" xlink:title="Function takes in vector in vector cross&#45;product expression: .">
<polygon fill="none" stroke="black" points="528,-0.5 528,-19.5 665,-19.5 665,-0.5 528,-0.5"/>
<text text-anchor="middle" x="596.5" y="-7.5" font-family="Helvetica,sans-Serif" font-size="10.00">systemData::crossProdMat</text>
</a>
</g>
</g>
<!-- Node13&#45;&gt;Node14 -->
<g id="edge14" class="edge">
<title>Node13&#45;&gt;Node14</title>
<path fill="none" stroke="midnightblue" d="M482.25,-22.82C493.9,-21.5 505.99,-20.13 517.76,-18.8"/>
<polygon fill="midnightblue" stroke="midnightblue" points="518.45,-22.24 528,-17.64 517.67,-15.29 518.45,-22.24"/>
</g>
</g>
</svg>
