<?xml version="1.0" encoding="UTF-8" standalone="no"?>
<!DOCTYPE svg PUBLIC "-//W3C//DTD SVG 1.1//EN"
 "http://www.w3.org/Graphics/SVG/1.1/DTD/svg11.dtd">
<!-- Generated by graphviz version 2.49.1 (20210923.0004)
 -->
<!-- Title: potentialHydrodynamics::potentialHydrodynamics Pages: 1 -->
<svg width="455pt" height="235pt"
 viewBox="0.00 0.00 455.00 235.00" xmlns="http://www.w3.org/2000/svg" xmlns:xlink="http://www.w3.org/1999/xlink">
<g id="graph0" class="graph" transform="scale(1 1) rotate(0) translate(4 231)">
<title>potentialHydrodynamics::potentialHydrodynamics</title>
<!-- Node1 -->
<g id="node1" class="node">
<title>Node1</title>
<g id="a_node1"><a xlink:title=" ">
<polygon fill="#bfbfbf" stroke="black" points="0,-98.5 0,-128.5 129,-128.5 129,-98.5 0,-98.5"/>
<text text-anchor="start" x="8" y="-116.5" font-family="Helvetica,sans-Serif" font-size="10.00">potentialHydrodynamics</text>
<text text-anchor="middle" x="64.5" y="-105.5" font-family="Helvetica,sans-Serif" font-size="10.00">::potentialHydrodynamics</text>
</a>
</g>
</g>
<!-- Node2 -->
<g id="node2" class="node">
<title>Node2</title>
<g id="a_node2"><a xlink:href="classpotentialHydrodynamics.html#acce7436c3cc8b62fe54fa61da98554f6" target="_top" xlink:title=" ">
<polygon fill="none" stroke="black" points="165,-98.5 165,-128.5 288,-128.5 288,-98.5 165,-98.5"/>
<text text-anchor="start" x="173" y="-116.5" font-family="Helvetica,sans-Serif" font-size="10.00">potentialHydrodynamics</text>
<text text-anchor="middle" x="226.5" y="-105.5" font-family="Helvetica,sans-Serif" font-size="10.00">::update</text>
</a>
</g>
</g>
<!-- Node1&#45;&gt;Node2 -->
<g id="edge1" class="edge">
<title>Node1&#45;&gt;Node2</title>
<path fill="none" stroke="midnightblue" d="M129.2,-113.5C137.56,-113.5 146.17,-113.5 154.65,-113.5"/>
<polygon fill="midnightblue" stroke="midnightblue" points="154.89,-117 164.89,-113.5 154.89,-110 154.89,-117"/>
</g>
<!-- Node3 -->
<g id="node3" class="node">
<title>Node3</title>
<g id="a_node3"><a xlink:href="classpotentialHydrodynamics.html#aca22661dfeb0029156532957df234042" target="_top" xlink:title=" ">
<polygon fill="none" stroke="black" points="324,-196.5 324,-226.5 447,-226.5 447,-196.5 324,-196.5"/>
<text text-anchor="start" x="332" y="-214.5" font-family="Helvetica,sans-Serif" font-size="10.00">potentialHydrodynamics</text>
<text text-anchor="middle" x="385.5" y="-203.5" font-family="Helvetica,sans-Serif" font-size="10.00">::calcAddedMass</text>
</a>
</g>
</g>
<!-- Node2&#45;&gt;Node3 -->
<g id="edge2" class="edge">
<title>Node2&#45;&gt;Node3</title>
<path fill="none" stroke="midnightblue" d="M244.26,-128.68C262.75,-144.85 293.88,-170.42 324,-187.5 326.85,-189.12 329.83,-190.67 332.88,-192.17"/>
<polygon fill="midnightblue" stroke="midnightblue" points="331.59,-195.43 342.14,-196.44 334.53,-189.07 331.59,-195.43"/>
</g>
<!-- Node4 -->
<g id="node4" class="node">
<title>Node4</title>
<g id="a_node4"><a xlink:href="classpotentialHydrodynamics.html#a19d927bd0b419517d15b566c9132d632" target="_top" xlink:title=" ">
<polygon fill="none" stroke="black" points="324,-147.5 324,-177.5 447,-177.5 447,-147.5 324,-147.5"/>
<text text-anchor="start" x="332" y="-165.5" font-family="Helvetica,sans-Serif" font-size="10.00">potentialHydrodynamics</text>
<text text-anchor="middle" x="385.5" y="-154.5" font-family="Helvetica,sans-Serif" font-size="10.00">::calcAddedMassGrad</text>
</a>
</g>
</g>
<!-- Node2&#45;&gt;Node4 -->
<g id="edge3" class="edge">
<title>Node2&#45;&gt;Node4</title>
<path fill="none" stroke="midnightblue" d="M275.89,-128.6C291.93,-133.61 309.95,-139.23 326.63,-144.44"/>
<polygon fill="midnightblue" stroke="midnightblue" points="325.68,-147.81 336.27,-147.45 327.77,-141.13 325.68,-147.81"/>
</g>
<!-- Node5 -->
<g id="node5" class="node">
<title>Node5</title>
<g id="a_node5"><a xlink:href="classpotentialHydrodynamics.html#a2b71af05a80cbe982c996d61b084695c" target="_top" xlink:title=" ">
<polygon fill="none" stroke="black" points="324,-98.5 324,-128.5 447,-128.5 447,-98.5 324,-98.5"/>
<text text-anchor="start" x="332" y="-116.5" font-family="Helvetica,sans-Serif" font-size="10.00">potentialHydrodynamics</text>
<text text-anchor="middle" x="385.5" y="-105.5" font-family="Helvetica,sans-Serif" font-size="10.00">::calcHydroForces</text>
</a>
</g>
</g>
<!-- Node2&#45;&gt;Node5 -->
<g id="edge4" class="edge">
<title>Node2&#45;&gt;Node5</title>
<path fill="none" stroke="midnightblue" d="M288.2,-113.5C296.64,-113.5 305.36,-113.5 313.95,-113.5"/>
<polygon fill="midnightblue" stroke="midnightblue" points="313.96,-117 323.96,-113.5 313.96,-110 313.96,-117"/>
</g>
<!-- Node6 -->
<g id="node6" class="node">
<title>Node6</title>
<g id="a_node6"><a xlink:href="classpotentialHydrodynamics.html#ad434ee61cf9b3ae7b2159a4163e5a6cd" target="_top" xlink:title=" ">
<polygon fill="none" stroke="black" points="324,-49.5 324,-79.5 447,-79.5 447,-49.5 324,-49.5"/>
<text text-anchor="start" x="332" y="-67.5" font-family="Helvetica,sans-Serif" font-size="10.00">potentialHydrodynamics</text>
<text text-anchor="middle" x="385.5" y="-56.5" font-family="Helvetica,sans-Serif" font-size="10.00">::calcHydroTensors</text>
</a>
</g>
</g>
<!-- Node2&#45;&gt;Node6 -->
<g id="edge5" class="edge">
<title>Node2&#45;&gt;Node6</title>
<path fill="none" stroke="midnightblue" d="M275.89,-98.4C291.93,-93.39 309.95,-87.77 326.63,-82.56"/>
<polygon fill="midnightblue" stroke="midnightblue" points="327.77,-85.87 336.27,-79.55 325.68,-79.19 327.77,-85.87"/>
</g>
<!-- Node7 -->
<g id="node7" class="node">
<title>Node7</title>
<g id="a_node7"><a xlink:href="classpotentialHydrodynamics.html#a5d70cd3d03dfe2f7f1a4c970994fffe0" target="_top" xlink:title=" ">
<polygon fill="none" stroke="black" points="324,-0.5 324,-30.5 447,-30.5 447,-0.5 324,-0.5"/>
<text text-anchor="start" x="332" y="-18.5" font-family="Helvetica,sans-Serif" font-size="10.00">potentialHydrodynamics</text>
<text text-anchor="middle" x="385.5" y="-7.5" font-family="Helvetica,sans-Serif" font-size="10.00">::calcParticleDistances</text>
</a>
</g>
</g>
<!-- Node2&#45;&gt;Node7 -->
<g id="edge6" class="edge">
<title>Node2&#45;&gt;Node7</title>
<path fill="none" stroke="midnightblue" d="M244.69,-98.33C263.28,-82.45 294.28,-57.51 324,-40.5 327.4,-38.56 330.98,-36.68 334.63,-34.89"/>
<polygon fill="midnightblue" stroke="midnightblue" points="336.19,-38.03 343.78,-30.64 333.24,-31.68 336.19,-38.03"/>
</g>
</g>
</svg>
