<?xml version="1.0" encoding="UTF-8" standalone="no"?>
<!DOCTYPE svg PUBLIC "-//W3C//DTD SVG 1.1//EN"
 "http://www.w3.org/Graphics/SVG/1.1/DTD/svg11.dtd">
<!-- Generated by graphviz version 2.49.1 (20210923.0004)
 -->
<!-- Title: src/forces Pages: 1 -->
<svg width="140pt" height="239pt"
 viewBox="0.00 0.00 140.00 239.00" xmlns="http://www.w3.org/2000/svg" xmlns:xlink="http://www.w3.org/1999/xlink">
<g id="graph0" class="graph" transform="scale(1 1) rotate(0) translate(4 235)">
<title>src/forces</title>
<g id="clust1" class="cluster">
<title>clusterdir_68267d1309a1af8e8297ef4c3efbcdba</title>
<g id="a_clust1"><a xlink:href="dir_68267d1309a1af8e8297ef4c3efbcdba.html" target="_top" xlink:title="src">
<polygon fill="#ddddee" stroke="black" points="8,-8 8,-223 124,-223 124,-8 8,-8"/>
<text text-anchor="middle" x="66" y="-211" font-family="Helvetica,sans-Serif" font-size="10.00">src</text>
</a>
</g>
</g>
<!-- dir_0c26bd22f254302c4dfbaa95bf527e9d -->
<g id="node1" class="node">
<title>dir_0c26bd22f254302c4dfbaa95bf527e9d</title>
<g id="a_node1"><a xlink:href="dir_0c26bd22f254302c4dfbaa95bf527e9d.html" target="_top" xlink:title="helpers">
<polygon fill="none" stroke="red" points="81,-52 27,-52 27,-16 81,-16 81,-52"/>
<text text-anchor="middle" x="54" y="-31.5" font-family="Helvetica,sans-Serif" font-size="10.00">helpers</text>
</a>
</g>
</g>
<!-- dir_7e83d6132a938028a53b88470887e12b -->
<g id="node2" class="node">
<title>dir_7e83d6132a938028a53b88470887e12b</title>
<g id="a_node2"><a xlink:href="dir_7e83d6132a938028a53b88470887e12b.html" target="_top" xlink:title="simulation_system">
<polygon fill="none" stroke="black" points="115.5,-196 16.5,-196 16.5,-160 115.5,-160 115.5,-196"/>
<text text-anchor="middle" x="66" y="-175.5" font-family="Helvetica,sans-Serif" font-size="10.00">simulation_system</text>
</a>
</g>
</g>
<!-- dir_7e83d6132a938028a53b88470887e12b&#45;&gt;dir_0c26bd22f254302c4dfbaa95bf527e9d -->
<g id="edge1" class="edge">
<title>dir_7e83d6132a938028a53b88470887e12b&#45;&gt;dir_0c26bd22f254302c4dfbaa95bf527e9d</title>
<path fill="none" stroke="black" d="M50.39,-159.77C42.63,-150.03 34.05,-137.18 30,-124 23.57,-103.09 30.85,-79.14 39.03,-61.35"/>
<polygon fill="black" stroke="black" points="42.28,-62.68 43.59,-52.16 36.01,-59.57 42.28,-62.68"/>
<g id="a_edge1&#45;headlabel"><a xlink:href="dir_000007_000001.html" target="_top" xlink:title="2">
<text text-anchor="middle" x="43.23" y="-64.66" font-family="Helvetica,sans-Serif" font-size="10.00">2</text>
</a>
</g>
</g>
<!-- dir_a9f42a52e962b7d77d211d302f5ac5ab -->
<g id="node3" class="node">
<title>dir_a9f42a52e962b7d77d211d302f5ac5ab</title>
<g id="a_node3"><a xlink:href="dir_a9f42a52e962b7d77d211d302f5ac5ab.html" target="_top" xlink:title="forces">
<polygon fill="#eeeeff" stroke="black" points="93,-124 39,-124 39,-88 93,-88 93,-124"/>
<text text-anchor="middle" x="66" y="-103.5" font-family="Helvetica,sans-Serif" font-size="10.00">forces</text>
</a>
</g>
</g>
<!-- dir_7e83d6132a938028a53b88470887e12b&#45;&gt;dir_a9f42a52e962b7d77d211d302f5ac5ab -->
<g id="edge2" class="edge">
<title>dir_7e83d6132a938028a53b88470887e12b&#45;&gt;dir_a9f42a52e962b7d77d211d302f5ac5ab</title>
<path fill="none" stroke="black" d="M60.08,-159.7C59.29,-151.98 59.06,-142.71 59.4,-134.11"/>
<polygon fill="black" stroke="black" points="62.9,-134.32 60.1,-124.1 55.92,-133.84 62.9,-134.32"/>
<g id="a_edge2&#45;headlabel"><a xlink:href="dir_000007_000004.html" target="_top" xlink:title="1">
<text text-anchor="middle" x="65.48" y="-135.61" font-family="Helvetica,sans-Serif" font-size="10.00">1</text>
</a>
</g>
</g>
<!-- dir_a9f42a52e962b7d77d211d302f5ac5ab&#45;&gt;dir_0c26bd22f254302c4dfbaa95bf527e9d -->
<g id="edge3" class="edge">
<title>dir_a9f42a52e962b7d77d211d302f5ac5ab&#45;&gt;dir_0c26bd22f254302c4dfbaa95bf527e9d</title>
<path fill="none" stroke="black" d="M63.03,-87.7C61.71,-79.98 60.12,-70.71 58.65,-62.11"/>
<polygon fill="black" stroke="black" points="62.07,-61.37 56.93,-52.1 55.17,-62.55 62.07,-61.37"/>
<g id="a_edge3&#45;headlabel"><a xlink:href="dir_000004_000001.html" target="_top" xlink:title="1">
<text text-anchor="middle" x="65.48" y="-61.93" font-family="Helvetica,sans-Serif" font-size="10.00">1</text>
</a>
</g>
</g>
<!-- dir_a9f42a52e962b7d77d211d302f5ac5ab&#45;&gt;dir_7e83d6132a938028a53b88470887e12b -->
<g id="edge4" class="edge">
<title>dir_a9f42a52e962b7d77d211d302f5ac5ab&#45;&gt;dir_7e83d6132a938028a53b88470887e12b</title>
<path fill="none" stroke="black" d="M71.9,-124.1C72.7,-131.79 72.94,-141.05 72.6,-149.67"/>
<polygon fill="black" stroke="black" points="69.11,-149.48 71.92,-159.7 76.09,-149.96 69.11,-149.48"/>
<g id="a_edge4&#45;headlabel"><a xlink:href="dir_000004_000007.html" target="_top" xlink:title="1">
<text text-anchor="middle" x="66.52" y="-143.2" font-family="Helvetica,sans-Serif" font-size="10.00">1</text>
</a>
</g>
</g>
</g>
</svg>
