<?xml version="1.0" encoding="UTF-8" standalone="no"?>
<!DOCTYPE svg PUBLIC "-//W3C//DTD SVG 1.1//EN"
 "http://www.w3.org/Graphics/SVG/1.1/DTD/svg11.dtd">
<!-- Generated by graphviz version 2.43.0 (0)
 -->
<!-- Title: src/simulation_system Pages: 1 -->
<svg width="202pt" height="151pt"
 viewBox="0.00 0.00 202.00 151.00" xmlns="http://www.w3.org/2000/svg" xmlns:xlink="http://www.w3.org/1999/xlink">
<g id="graph0" class="graph" transform="scale(1 1) rotate(0) translate(4 147)">
<title>src/simulation_system</title>
<g id="clust1" class="cluster">
<title>clusterdir_68267d1309a1af8e8297ef4c3efbcdba</title>
<g id="a_clust1"><a xlink:href="dir_68267d1309a1af8e8297ef4c3efbcdba.html" target="_top" xlink:title="src">
<polygon fill="#ddddee" stroke="black" points="8,-64 8,-135 122,-135 122,-64 8,-64"/>
<text text-anchor="middle" x="65" y="-123" font-family="Helvetica,sans-Serif" font-size="10.00">src</text>
</a>
</g>
</g>
<!-- dir_7e83d6132a938028a53b88470887e12b -->
<g id="node1" class="node">
<title>dir_7e83d6132a938028a53b88470887e12b</title>
<g id="a_node1"><a xlink:href="dir_7e83d6132a938028a53b88470887e12b.html" target="_top" xlink:title="simulation_system">
<polygon fill="#eeeeff" stroke="black" points="114,-108 16,-108 16,-72 114,-72 114,-108"/>
<text text-anchor="middle" x="65" y="-87.5" font-family="Helvetica,sans-Serif" font-size="10.00">simulation_system</text>
</a>
</g>
</g>
<!-- dir_05f662742734ae5b4756600b03cf1828 -->
<g id="node2" class="node">
<title>dir_05f662742734ae5b4756600b03cf1828</title>
<g id="a_node2"><a xlink:href="dir_05f662742734ae5b4756600b03cf1828.html" target="_top" xlink:title="integrators">
<polygon fill="none" stroke="black" points="194,-108 132,-108 132,-72 194,-72 194,-108"/>
<text text-anchor="middle" x="163" y="-87.5" font-family="Helvetica,sans-Serif" font-size="10.00">integrators</text>
</a>
</g>
</g>
<!-- dir_7e83d6132a938028a53b88470887e12b&#45;&gt;dir_05f662742734ae5b4756600b03cf1828 -->
<g id="edge1" class="edge">
<title>dir_7e83d6132a938028a53b88470887e12b&#45;&gt;dir_05f662742734ae5b4756600b03cf1828</title>
<path fill="none" stroke="black" d="M114,-90C116.62,-90 119.25,-90 121.87,-90"/>
<polygon fill="black" stroke="black" points="121.99,-93.5 131.99,-90 121.99,-86.5 121.99,-93.5"/>
<g id="a_edge1&#45;headlabel"><a xlink:href="dir_000010_000009.html" target="_top" xlink:title="1">
<text text-anchor="middle" x="118.4" y="-93.84" font-family="Helvetica,sans-Serif" font-size="10.00">1</text>
</a>
</g>
</g>
<!-- dir_5619d3ff040d238c5bcfe0ac1235817d -->
<g id="node3" class="node">
<title>dir_5619d3ff040d238c5bcfe0ac1235817d</title>
<g id="a_node3"><a xlink:href="dir_5619d3ff040d238c5bcfe0ac1235817d.html" target="_top" xlink:title="data_io">
<polygon fill="none" stroke="black" points="92,-36 38,-36 38,0 92,0 92,-36"/>
<text text-anchor="middle" x="65" y="-15.5" font-family="Helvetica,sans-Serif" font-size="10.00">data_io</text>
</a>
</g>
</g>
<!-- dir_7e83d6132a938028a53b88470887e12b&#45;&gt;dir_5619d3ff040d238c5bcfe0ac1235817d -->
<g id="edge2" class="edge">
<title>dir_7e83d6132a938028a53b88470887e12b&#45;&gt;dir_5619d3ff040d238c5bcfe0ac1235817d</title>
<path fill="none" stroke="black" d="M59.08,-71.7C58.29,-63.98 58.06,-54.71 58.4,-46.11"/>
<polygon fill="black" stroke="black" points="61.9,-46.32 59.1,-36.1 54.92,-45.84 61.9,-46.32"/>
<g id="a_edge2&#45;headlabel"><a xlink:href="dir_000010_000007.html" target="_top" xlink:title="2">
<text text-anchor="middle" x="64.48" y="-47.61" font-family="Helvetica,sans-Serif" font-size="10.00">2</text>
</a>
</g>
</g>
<!-- dir_a9f42a52e962b7d77d211d302f5ac5ab -->
<g id="node4" class="node">
<title>dir_a9f42a52e962b7d77d211d302f5ac5ab</title>
<g id="a_node4"><a xlink:href="dir_a9f42a52e962b7d77d211d302f5ac5ab.html" target="_top" xlink:title="forces">
<polygon fill="none" stroke="black" points="177,-36 123,-36 123,0 177,0 177,-36"/>
<text text-anchor="middle" x="150" y="-15.5" font-family="Helvetica,sans-Serif" font-size="10.00">forces</text>
</a>
</g>
</g>
<!-- dir_7e83d6132a938028a53b88470887e12b&#45;&gt;dir_a9f42a52e962b7d77d211d302f5ac5ab -->
<g id="edge3" class="edge">
<title>dir_7e83d6132a938028a53b88470887e12b&#45;&gt;dir_a9f42a52e962b7d77d211d302f5ac5ab</title>
<path fill="none" stroke="black" d="M80.1,-71.7C89.89,-62.88 102.9,-52.03 115.08,-42.47"/>
<polygon fill="black" stroke="black" points="117.56,-44.98 123.34,-36.1 113.28,-39.44 117.56,-44.98"/>
<g id="a_edge3&#45;headlabel"><a xlink:href="dir_000010_000008.html" target="_top" xlink:title="1">
<text text-anchor="middle" x="116.45" y="-46.93" font-family="Helvetica,sans-Serif" font-size="10.00">1</text>
</a>
</g>
</g>
<!-- dir_05f662742734ae5b4756600b03cf1828&#45;&gt;dir_7e83d6132a938028a53b88470887e12b -->
<g id="edge4" class="edge">
<title>dir_05f662742734ae5b4756600b03cf1828&#45;&gt;dir_7e83d6132a938028a53b88470887e12b</title>
<path fill="none" stroke="black" d="M131.99,-90C129.37,-90 126.74,-90 124.12,-90"/>
<polygon fill="black" stroke="black" points="124,-86.5 114,-90 124,-93.5 124,-86.5"/>
<g id="a_edge4&#45;headlabel"><a xlink:href="dir_000009_000010.html" target="_top" xlink:title="1">
<text text-anchor="middle" x="127.59" y="-81.16" font-family="Helvetica,sans-Serif" font-size="10.00">1</text>
</a>
</g>
</g>
<!-- dir_05f662742734ae5b4756600b03cf1828&#45;&gt;dir_a9f42a52e962b7d77d211d302f5ac5ab -->
<g id="edge5" class="edge">
<title>dir_05f662742734ae5b4756600b03cf1828&#45;&gt;dir_a9f42a52e962b7d77d211d302f5ac5ab</title>
<path fill="none" stroke="black" d="M159.79,-71.7C158.35,-63.98 156.63,-54.71 155.04,-46.11"/>
<polygon fill="black" stroke="black" points="158.44,-45.3 153.18,-36.1 151.56,-46.58 158.44,-45.3"/>
<g id="a_edge5&#45;headlabel"><a xlink:href="dir_000009_000008.html" target="_top" xlink:title="1">
<text text-anchor="middle" x="161.89" y="-45.81" font-family="Helvetica,sans-Serif" font-size="10.00">1</text>
</a>
</g>
</g>
<!-- dir_5619d3ff040d238c5bcfe0ac1235817d&#45;&gt;dir_7e83d6132a938028a53b88470887e12b -->
<g id="edge6" class="edge">
<title>dir_5619d3ff040d238c5bcfe0ac1235817d&#45;&gt;dir_7e83d6132a938028a53b88470887e12b</title>
<path fill="none" stroke="black" d="M70.9,-36.1C71.7,-43.79 71.94,-53.05 71.6,-61.67"/>
<polygon fill="black" stroke="black" points="68.11,-61.48 70.92,-71.7 75.09,-61.96 68.11,-61.48"/>
<g id="a_edge6&#45;headlabel"><a xlink:href="dir_000007_000010.html" target="_top" xlink:title="1">
<text text-anchor="middle" x="65.52" y="-55.2" font-family="Helvetica,sans-Serif" font-size="10.00">1</text>
</a>
</g>
</g>
<!-- dir_a9f42a52e962b7d77d211d302f5ac5ab&#45;&gt;dir_7e83d6132a938028a53b88470887e12b -->
<g id="edge7" class="edge">
<title>dir_a9f42a52e962b7d77d211d302f5ac5ab&#45;&gt;dir_7e83d6132a938028a53b88470887e12b</title>
<path fill="none" stroke="black" d="M135.13,-36.1C125.38,-44.89 112.39,-55.73 100.19,-65.31"/>
<polygon fill="black" stroke="black" points="97.7,-62.81 91.93,-71.7 101.98,-68.35 97.7,-62.81"/>
<g id="a_edge7&#45;headlabel"><a xlink:href="dir_000008_000010.html" target="_top" xlink:title="1">
<text text-anchor="middle" x="98.81" y="-55.87" font-family="Helvetica,sans-Serif" font-size="10.00">1</text>
</a>
</g>
</g>
</g>
</svg>
