<?xml version="1.0" encoding="UTF-8" standalone="no"?>
<!DOCTYPE svg PUBLIC "-//W3C//DTD SVG 1.1//EN"
 "http://www.w3.org/Graphics/SVG/1.1/DTD/svg11.dtd">
<!-- Generated by graphviz version 2.43.0 (0)
 -->
<!-- Title: src Pages: 1 -->
<svg width="258pt" height="292pt"
 viewBox="0.00 0.00 258.00 292.00" xmlns="http://www.w3.org/2000/svg" xmlns:xlink="http://www.w3.org/1999/xlink">
<g id="graph0" class="graph" transform="scale(1 1) rotate(0) translate(4 288)">
<title>src</title>
<g id="clust1" class="cluster">
<title>clusterdir_68267d1309a1af8e8297ef4c3efbcdba</title>
<g id="a_clust1"><a xlink:href="dir_68267d1309a1af8e8297ef4c3efbcdba.html" target="_top">
<polygon fill="#eeeeff" stroke="black" points="8,-8 8,-276 242,-276 242,-8 8,-8"/>
</a>
</g>
</g>
<!-- dir_68267d1309a1af8e8297ef4c3efbcdba -->
<g id="node1" class="node">
<title>dir_68267d1309a1af8e8297ef4c3efbcdba</title>
<text text-anchor="middle" x="207" y="-247.5" font-family="Helvetica,sans-Serif" font-size="10.00">src</text>
</g>
<!-- dir_9bb0c4eb9b49a5b46707d6fcb5a73b88 -->
<g id="node2" class="node">
<title>dir_9bb0c4eb9b49a5b46707d6fcb5a73b88</title>
<g id="a_node2"><a xlink:href="dir_9bb0c4eb9b49a5b46707d6fcb5a73b88.html" target="_top" xlink:title="cuda_helpers">
<polygon fill="white" stroke="black" points="162,-268 88,-268 88,-232 162,-232 162,-268"/>
<text text-anchor="middle" x="125" y="-247.5" font-family="Helvetica,sans-Serif" font-size="10.00">cuda_helpers</text>
</a>
</g>
</g>
<!-- dir_5619d3ff040d238c5bcfe0ac1235817d -->
<g id="node3" class="node">
<title>dir_5619d3ff040d238c5bcfe0ac1235817d</title>
<g id="a_node3"><a xlink:href="dir_5619d3ff040d238c5bcfe0ac1235817d.html" target="_top" xlink:title="data_io">
<polygon fill="white" stroke="black" points="70,-268 16,-268 16,-232 70,-232 70,-268"/>
<text text-anchor="middle" x="43" y="-247.5" font-family="Helvetica,sans-Serif" font-size="10.00">data_io</text>
</a>
</g>
</g>
<!-- dir_7e83d6132a938028a53b88470887e12b -->
<g id="node6" class="node">
<title>dir_7e83d6132a938028a53b88470887e12b</title>
<g id="a_node6"><a xlink:href="dir_7e83d6132a938028a53b88470887e12b.html" target="_top" xlink:title="simulation_system">
<polygon fill="white" stroke="black" points="114,-196 16,-196 16,-160 114,-160 114,-196"/>
<text text-anchor="middle" x="65" y="-175.5" font-family="Helvetica,sans-Serif" font-size="10.00">simulation_system</text>
</a>
</g>
</g>
<!-- dir_5619d3ff040d238c5bcfe0ac1235817d&#45;&gt;dir_7e83d6132a938028a53b88470887e12b -->
<g id="edge6" class="edge">
<title>dir_5619d3ff040d238c5bcfe0ac1235817d&#45;&gt;dir_7e83d6132a938028a53b88470887e12b</title>
<path fill="none" stroke="black" d="M42.52,-231.7C44.19,-223.81 46.96,-214.3 50.08,-205.55"/>
<polygon fill="black" stroke="black" points="53.39,-206.69 53.73,-196.1 46.86,-204.17 53.39,-206.69"/>
<g id="a_edge6&#45;headlabel"><a xlink:href="dir_000007_000010.html" target="_top" xlink:title="1">
<text text-anchor="middle" x="54.75" y="-208.57" font-family="Helvetica,sans-Serif" font-size="10.00">1</text>
</a>
</g>
</g>
<!-- dir_a9f42a52e962b7d77d211d302f5ac5ab -->
<g id="node4" class="node">
<title>dir_a9f42a52e962b7d77d211d302f5ac5ab</title>
<g id="a_node4"><a xlink:href="dir_a9f42a52e962b7d77d211d302f5ac5ab.html" target="_top" xlink:title="forces">
<polygon fill="white" stroke="black" points="81,-52 27,-52 27,-16 81,-16 81,-52"/>
<text text-anchor="middle" x="54" y="-31.5" font-family="Helvetica,sans-Serif" font-size="10.00">forces</text>
</a>
</g>
</g>
<!-- dir_a9f42a52e962b7d77d211d302f5ac5ab&#45;&gt;dir_7e83d6132a938028a53b88470887e12b -->
<g id="edge7" class="edge">
<title>dir_a9f42a52e962b7d77d211d302f5ac5ab&#45;&gt;dir_7e83d6132a938028a53b88470887e12b</title>
<path fill="none" stroke="black" d="M59.92,-52.19C64.35,-76.42 68.09,-120.89 68.34,-149.68"/>
<polygon fill="black" stroke="black" points="64.84,-149.84 68.26,-159.87 71.84,-149.9 64.84,-149.84"/>
<g id="a_edge7&#45;headlabel"><a xlink:href="dir_000008_000010.html" target="_top" xlink:title="1">
<text text-anchor="middle" x="62.03" y="-143.73" font-family="Helvetica,sans-Serif" font-size="10.00">1</text>
</a>
</g>
</g>
<!-- dir_05f662742734ae5b4756600b03cf1828 -->
<g id="node5" class="node">
<title>dir_05f662742734ae5b4756600b03cf1828</title>
<g id="a_node5"><a xlink:href="dir_05f662742734ae5b4756600b03cf1828.html" target="_top" xlink:title="integrators">
<polygon fill="white" stroke="black" points="135,-124 73,-124 73,-88 135,-88 135,-124"/>
<text text-anchor="middle" x="104" y="-103.5" font-family="Helvetica,sans-Serif" font-size="10.00">integrators</text>
</a>
</g>
</g>
<!-- dir_05f662742734ae5b4756600b03cf1828&#45;&gt;dir_a9f42a52e962b7d77d211d302f5ac5ab -->
<g id="edge5" class="edge">
<title>dir_05f662742734ae5b4756600b03cf1828&#45;&gt;dir_a9f42a52e962b7d77d211d302f5ac5ab</title>
<path fill="none" stroke="black" d="M91.64,-87.7C85.77,-79.47 78.63,-69.48 72.16,-60.42"/>
<polygon fill="black" stroke="black" points="74.88,-58.21 66.22,-52.1 69.18,-62.28 74.88,-58.21"/>
<g id="a_edge5&#45;headlabel"><a xlink:href="dir_000009_000008.html" target="_top" xlink:title="1">
<text text-anchor="middle" x="79.28" y="-56.98" font-family="Helvetica,sans-Serif" font-size="10.00">1</text>
</a>
</g>
</g>
<!-- dir_05f662742734ae5b4756600b03cf1828&#45;&gt;dir_7e83d6132a938028a53b88470887e12b -->
<g id="edge4" class="edge">
<title>dir_05f662742734ae5b4756600b03cf1828&#45;&gt;dir_7e83d6132a938028a53b88470887e12b</title>
<path fill="none" stroke="black" d="M100.37,-124.1C96.7,-132.21 91.42,-142.08 85.99,-151.08"/>
<polygon fill="black" stroke="black" points="82.93,-149.37 80.56,-159.7 88.85,-153.1 82.93,-149.37"/>
<g id="a_edge4&#45;headlabel"><a xlink:href="dir_000009_000010.html" target="_top" xlink:title="1">
<text text-anchor="middle" x="82.44" y="-142.32" font-family="Helvetica,sans-Serif" font-size="10.00">1</text>
</a>
</g>
</g>
<!-- dir_7e83d6132a938028a53b88470887e12b&#45;&gt;dir_5619d3ff040d238c5bcfe0ac1235817d -->
<g id="edge2" class="edge">
<title>dir_7e83d6132a938028a53b88470887e12b&#45;&gt;dir_5619d3ff040d238c5bcfe0ac1235817d</title>
<path fill="none" stroke="black" d="M65.52,-196.1C63.87,-203.96 61.12,-213.46 57.99,-222.23"/>
<polygon fill="black" stroke="black" points="54.68,-221.11 54.35,-231.7 61.21,-223.62 54.68,-221.11"/>
<g id="a_edge2&#45;headlabel"><a xlink:href="dir_000010_000007.html" target="_top" xlink:title="2">
<text text-anchor="middle" x="53.32" y="-214.23" font-family="Helvetica,sans-Serif" font-size="10.00">2</text>
</a>
</g>
</g>
<!-- dir_7e83d6132a938028a53b88470887e12b&#45;&gt;dir_a9f42a52e962b7d77d211d302f5ac5ab -->
<g id="edge3" class="edge">
<title>dir_7e83d6132a938028a53b88470887e12b&#45;&gt;dir_a9f42a52e962b7d77d211d302f5ac5ab</title>
<path fill="none" stroke="black" d="M59.09,-159.87C54.66,-135.67 50.92,-91.21 50.66,-62.39"/>
<polygon fill="black" stroke="black" points="54.16,-62.22 50.74,-52.19 47.16,-62.16 54.16,-62.22"/>
<g id="a_edge3&#45;headlabel"><a xlink:href="dir_000010_000008.html" target="_top" xlink:title="1">
<text text-anchor="middle" x="56.98" y="-63.33" font-family="Helvetica,sans-Serif" font-size="10.00">1</text>
</a>
</g>
</g>
<!-- dir_7e83d6132a938028a53b88470887e12b&#45;&gt;dir_05f662742734ae5b4756600b03cf1828 -->
<g id="edge1" class="edge">
<title>dir_7e83d6132a938028a53b88470887e12b&#45;&gt;dir_05f662742734ae5b4756600b03cf1828</title>
<path fill="none" stroke="black" d="M68.72,-159.7C72.42,-151.56 77.71,-141.69 83.15,-132.7"/>
<polygon fill="black" stroke="black" points="86.2,-134.43 88.58,-124.1 80.28,-130.69 86.2,-134.43"/>
<g id="a_edge1&#45;headlabel"><a xlink:href="dir_000010_000009.html" target="_top" xlink:title="1">
<text text-anchor="middle" x="86.68" y="-136.48" font-family="Helvetica,sans-Serif" font-size="10.00">1</text>
</a>
</g>
</g>
</g>
</svg>
