<?xml version="1.0" encoding="UTF-8" standalone="no"?>
<!DOCTYPE svg PUBLIC "-//W3C//DTD SVG 1.1//EN"
 "http://www.w3.org/Graphics/SVG/1.1/DTD/svg11.dtd">
<!-- Generated by graphviz version 2.49.1 (20210923.0004)
 -->
<!-- Title: src Pages: 1 -->
<svg width="262pt" height="292pt"
 viewBox="0.00 0.00 262.00 292.00" xmlns="http://www.w3.org/2000/svg" xmlns:xlink="http://www.w3.org/1999/xlink">
<g id="graph0" class="graph" transform="scale(1 1) rotate(0) translate(4 288)">
<title>src</title>
<g id="clust1" class="cluster">
<title>clusterdir_68267d1309a1af8e8297ef4c3efbcdba</title>
<g id="a_clust1"><a xlink:href="dir_68267d1309a1af8e8297ef4c3efbcdba.html" target="_top">
<polygon fill="#eeeeff" stroke="black" points="8,-8 8,-276 246,-276 246,-8 8,-8"/>
</a>
</g>
</g>
<!-- dir_68267d1309a1af8e8297ef4c3efbcdba -->
<g id="node1" class="node">
<title>dir_68267d1309a1af8e8297ef4c3efbcdba</title>
<text text-anchor="middle" x="211" y="-247.5" font-family="Helvetica,sans-Serif" font-size="10.00">src</text>
</g>
<!-- dir_9bb0c4eb9b49a5b46707d6fcb5a73b88 -->
<g id="node2" class="node">
<title>dir_9bb0c4eb9b49a5b46707d6fcb5a73b88</title>
<g id="a_node2"><a xlink:href="dir_9bb0c4eb9b49a5b46707d6fcb5a73b88.html" target="_top" xlink:title="cuda_helpers">
<polygon fill="white" stroke="black" points="165.5,-268 88.5,-268 88.5,-232 165.5,-232 165.5,-268"/>
<text text-anchor="middle" x="127" y="-247.5" font-family="Helvetica,sans-Serif" font-size="10.00">cuda_helpers</text>
</a>
</g>
</g>
<!-- dir_5619d3ff040d238c5bcfe0ac1235817d -->
<g id="node3" class="node">
<title>dir_5619d3ff040d238c5bcfe0ac1235817d</title>
<g id="a_node3"><a xlink:href="dir_5619d3ff040d238c5bcfe0ac1235817d.html" target="_top" xlink:title="data_io">
<polygon fill="white" stroke="black" points="70,-268 16,-268 16,-232 70,-232 70,-268"/>
<text text-anchor="middle" x="43" y="-247.5" font-family="Helvetica,sans-Serif" font-size="10.00">data_io</text>
</a>
</g>
</g>
<!-- dir_7e83d6132a938028a53b88470887e12b -->
<g id="node6" class="node">
<title>dir_7e83d6132a938028a53b88470887e12b</title>
<g id="a_node6"><a xlink:href="dir_7e83d6132a938028a53b88470887e12b.html" target="_top" xlink:title="simulation_system">
<polygon fill="white" stroke="black" points="115.5,-196 16.5,-196 16.5,-160 115.5,-160 115.5,-196"/>
<text text-anchor="middle" x="66" y="-175.5" font-family="Helvetica,sans-Serif" font-size="10.00">simulation_system</text>
</a>
</g>
</g>
<!-- dir_5619d3ff040d238c5bcfe0ac1235817d&#45;&gt;dir_7e83d6132a938028a53b88470887e12b -->
<g id="edge3" class="edge">
<title>dir_5619d3ff040d238c5bcfe0ac1235817d&#45;&gt;dir_7e83d6132a938028a53b88470887e12b</title>
<path fill="none" stroke="black" d="M42.77,-231.7C44.55,-223.81 47.45,-214.3 50.71,-205.55"/>
<polygon fill="black" stroke="black" points="54.02,-206.69 54.48,-196.1 47.52,-204.09 54.02,-206.69"/>
<g id="a_edge3&#45;headlabel"><a xlink:href="dir_000007_000010.html" target="_top" xlink:title="1">
<text text-anchor="middle" x="55.32" y="-208.58" font-family="Helvetica,sans-Serif" font-size="10.00">1</text>
</a>
</g>
</g>
<!-- dir_a9f42a52e962b7d77d211d302f5ac5ab -->
<g id="node4" class="node">
<title>dir_a9f42a52e962b7d77d211d302f5ac5ab</title>
<g id="a_node4"><a xlink:href="dir_a9f42a52e962b7d77d211d302f5ac5ab.html" target="_top" xlink:title="forces">
<polygon fill="white" stroke="black" points="81,-52 27,-52 27,-16 81,-16 81,-52"/>
<text text-anchor="middle" x="54" y="-31.5" font-family="Helvetica,sans-Serif" font-size="10.00">forces</text>
</a>
</g>
</g>
<!-- dir_a9f42a52e962b7d77d211d302f5ac5ab&#45;&gt;dir_7e83d6132a938028a53b88470887e12b -->
<g id="edge7" class="edge">
<title>dir_a9f42a52e962b7d77d211d302f5ac5ab&#45;&gt;dir_7e83d6132a938028a53b88470887e12b</title>
<path fill="none" stroke="black" d="M60.04,-52.19C64.65,-76.42 68.69,-120.89 69.15,-149.68"/>
<polygon fill="black" stroke="black" points="65.65,-149.87 69.14,-159.87 72.65,-149.87 65.65,-149.87"/>
<g id="a_edge7&#45;headlabel"><a xlink:href="dir_000008_000010.html" target="_top" xlink:title="1">
<text text-anchor="middle" x="62.81" y="-143.77" font-family="Helvetica,sans-Serif" font-size="10.00">1</text>
</a>
</g>
</g>
<!-- dir_05f662742734ae5b4756600b03cf1828 -->
<g id="node5" class="node">
<title>dir_05f662742734ae5b4756600b03cf1828</title>
<g id="a_node5"><a xlink:href="dir_05f662742734ae5b4756600b03cf1828.html" target="_top" xlink:title="integrators">
<polygon fill="white" stroke="black" points="137,-124 73,-124 73,-88 137,-88 137,-124"/>
<text text-anchor="middle" x="105" y="-103.5" font-family="Helvetica,sans-Serif" font-size="10.00">integrators</text>
</a>
</g>
</g>
<!-- dir_05f662742734ae5b4756600b03cf1828&#45;&gt;dir_a9f42a52e962b7d77d211d302f5ac5ab -->
<g id="edge2" class="edge">
<title>dir_05f662742734ae5b4756600b03cf1828&#45;&gt;dir_a9f42a52e962b7d77d211d302f5ac5ab</title>
<path fill="none" stroke="black" d="M92.39,-87.7C86.4,-79.47 79.12,-69.48 72.52,-60.42"/>
<polygon fill="black" stroke="black" points="75.18,-58.13 66.46,-52.1 69.52,-62.25 75.18,-58.13"/>
<g id="a_edge2&#45;headlabel"><a xlink:href="dir_000009_000008.html" target="_top" xlink:title="1">
<text text-anchor="middle" x="79.59" y="-56.86" font-family="Helvetica,sans-Serif" font-size="10.00">1</text>
</a>
</g>
</g>
<!-- dir_05f662742734ae5b4756600b03cf1828&#45;&gt;dir_7e83d6132a938028a53b88470887e12b -->
<g id="edge1" class="edge">
<title>dir_05f662742734ae5b4756600b03cf1828&#45;&gt;dir_7e83d6132a938028a53b88470887e12b</title>
<path fill="none" stroke="black" d="M101.37,-124.1C97.7,-132.21 92.42,-142.08 86.99,-151.08"/>
<polygon fill="black" stroke="black" points="83.93,-149.37 81.56,-159.7 89.85,-153.1 83.93,-149.37"/>
<g id="a_edge1&#45;headlabel"><a xlink:href="dir_000009_000010.html" target="_top" xlink:title="1">
<text text-anchor="middle" x="83.44" y="-142.32" font-family="Helvetica,sans-Serif" font-size="10.00">1</text>
</a>
</g>
</g>
<!-- dir_7e83d6132a938028a53b88470887e12b&#45;&gt;dir_5619d3ff040d238c5bcfe0ac1235817d -->
<g id="edge5" class="edge">
<title>dir_7e83d6132a938028a53b88470887e12b&#45;&gt;dir_5619d3ff040d238c5bcfe0ac1235817d</title>
<path fill="none" stroke="black" d="M66.28,-196.1C64.52,-203.96 61.62,-213.46 58.38,-222.23"/>
<polygon fill="black" stroke="black" points="55.06,-221.11 54.6,-231.7 61.56,-223.71 55.06,-221.11"/>
<g id="a_edge5&#45;headlabel"><a xlink:href="dir_000010_000007.html" target="_top" xlink:title="2">
<text text-anchor="middle" x="53.75" y="-214.22" font-family="Helvetica,sans-Serif" font-size="10.00">2</text>
</a>
</g>
</g>
<!-- dir_7e83d6132a938028a53b88470887e12b&#45;&gt;dir_a9f42a52e962b7d77d211d302f5ac5ab -->
<g id="edge6" class="edge">
<title>dir_7e83d6132a938028a53b88470887e12b&#45;&gt;dir_a9f42a52e962b7d77d211d302f5ac5ab</title>
<path fill="none" stroke="black" d="M59.97,-159.87C55.36,-135.67 51.32,-91.21 50.86,-62.39"/>
<polygon fill="black" stroke="black" points="54.36,-62.19 50.86,-52.19 47.36,-62.19 54.36,-62.19"/>
<g id="a_edge6&#45;headlabel"><a xlink:href="dir_000010_000008.html" target="_top" xlink:title="1">
<text text-anchor="middle" x="57.19" y="-63.29" font-family="Helvetica,sans-Serif" font-size="10.00">1</text>
</a>
</g>
</g>
<!-- dir_7e83d6132a938028a53b88470887e12b&#45;&gt;dir_05f662742734ae5b4756600b03cf1828 -->
<g id="edge4" class="edge">
<title>dir_7e83d6132a938028a53b88470887e12b&#45;&gt;dir_05f662742734ae5b4756600b03cf1828</title>
<path fill="none" stroke="black" d="M69.72,-159.7C73.42,-151.56 78.71,-141.69 84.15,-132.7"/>
<polygon fill="black" stroke="black" points="87.2,-134.43 89.58,-124.1 81.28,-130.69 87.2,-134.43"/>
<g id="a_edge4&#45;headlabel"><a xlink:href="dir_000010_000009.html" target="_top" xlink:title="1">
<text text-anchor="middle" x="87.68" y="-136.48" font-family="Helvetica,sans-Serif" font-size="10.00">1</text>
</a>
</g>
</g>
</g>
</svg>
