<?xml version="1.0" encoding="UTF-8" standalone="no"?>
<!DOCTYPE svg PUBLIC "-//W3C//DTD SVG 1.1//EN"
 "http://www.w3.org/Graphics/SVG/1.1/DTD/svg11.dtd">
<!-- Generated by graphviz version 2.49.1 (20210923.0004)
 -->
<!-- Title: src/data_io Pages: 1 -->
<svg width="140pt" height="167pt"
 viewBox="0.00 0.00 140.00 167.00" xmlns="http://www.w3.org/2000/svg" xmlns:xlink="http://www.w3.org/1999/xlink">
<g id="graph0" class="graph" transform="scale(1 1) rotate(0) translate(4 163)">
<title>src/data_io</title>
<g id="clust1" class="cluster">
<title>clusterdir_68267d1309a1af8e8297ef4c3efbcdba</title>
<g id="a_clust1"><a xlink:href="dir_68267d1309a1af8e8297ef4c3efbcdba.html" target="_top" xlink:title="src">
<polygon fill="#ddddee" stroke="black" points="8,-8 8,-151 124,-151 124,-8 8,-8"/>
<text text-anchor="middle" x="66" y="-139" font-family="Helvetica,sans-Serif" font-size="10.00">src</text>
</a>
</g>
</g>
<!-- dir_7e83d6132a938028a53b88470887e12b -->
<g id="node1" class="node">
<title>dir_7e83d6132a938028a53b88470887e12b</title>
<g id="a_node1"><a xlink:href="dir_7e83d6132a938028a53b88470887e12b.html" target="_top" xlink:title="simulation_system">
<polygon fill="none" stroke="black" points="115.5,-124 16.5,-124 16.5,-88 115.5,-88 115.5,-124"/>
<text text-anchor="middle" x="66" y="-103.5" font-family="Helvetica,sans-Serif" font-size="10.00">simulation_system</text>
</a>
</g>
</g>
<!-- dir_5619d3ff040d238c5bcfe0ac1235817d -->
<g id="node2" class="node">
<title>dir_5619d3ff040d238c5bcfe0ac1235817d</title>
<g id="a_node2"><a xlink:href="dir_5619d3ff040d238c5bcfe0ac1235817d.html" target="_top" xlink:title="data_io">
<polygon fill="#eeeeff" stroke="black" points="93,-52 39,-52 39,-16 93,-16 93,-52"/>
<text text-anchor="middle" x="66" y="-31.5" font-family="Helvetica,sans-Serif" font-size="10.00">data_io</text>
</a>
</g>
</g>
<!-- dir_7e83d6132a938028a53b88470887e12b&#45;&gt;dir_5619d3ff040d238c5bcfe0ac1235817d -->
<g id="edge2" class="edge">
<title>dir_7e83d6132a938028a53b88470887e12b&#45;&gt;dir_5619d3ff040d238c5bcfe0ac1235817d</title>
<path fill="none" stroke="black" d="M60.08,-87.7C59.29,-79.98 59.06,-70.71 59.4,-62.11"/>
<polygon fill="black" stroke="black" points="62.9,-62.32 60.1,-52.1 55.92,-61.84 62.9,-62.32"/>
<g id="a_edge2&#45;headlabel"><a xlink:href="dir_000007_000003.html" target="_top" xlink:title="2">
<text text-anchor="middle" x="65.48" y="-63.61" font-family="Helvetica,sans-Serif" font-size="10.00">2</text>
</a>
</g>
</g>
<!-- dir_5619d3ff040d238c5bcfe0ac1235817d&#45;&gt;dir_7e83d6132a938028a53b88470887e12b -->
<g id="edge1" class="edge">
<title>dir_5619d3ff040d238c5bcfe0ac1235817d&#45;&gt;dir_7e83d6132a938028a53b88470887e12b</title>
<path fill="none" stroke="black" d="M71.9,-52.1C72.7,-59.79 72.94,-69.05 72.6,-77.67"/>
<polygon fill="black" stroke="black" points="69.11,-77.48 71.92,-87.7 76.09,-77.96 69.11,-77.48"/>
<g id="a_edge1&#45;headlabel"><a xlink:href="dir_000003_000007.html" target="_top" xlink:title="1">
<text text-anchor="middle" x="66.52" y="-71.2" font-family="Helvetica,sans-Serif" font-size="10.00">1</text>
</a>
</g>
</g>
</g>
</svg>
