<?xml version="1.0" encoding="UTF-8" standalone="no"?>
<!DOCTYPE svg PUBLIC "-//W3C//DTD SVG 1.1//EN"
 "http://www.w3.org/Graphics/SVG/1.1/DTD/svg11.dtd">
<!-- Generated by graphviz version 2.43.0 (0)
 -->
<!-- Title: src/forces Pages: 1 -->
<svg width="194pt" height="151pt"
 viewBox="0.00 0.00 194.00 151.00" xmlns="http://www.w3.org/2000/svg" xmlns:xlink="http://www.w3.org/1999/xlink">
<g id="graph0" class="graph" transform="scale(1 1) rotate(0) translate(4 147)">
<title>src/forces</title>
<g id="clust1" class="cluster">
<title>clusterdir_68267d1309a1af8e8297ef4c3efbcdba</title>
<g id="a_clust1"><a xlink:href="dir_68267d1309a1af8e8297ef4c3efbcdba.html" target="_top" xlink:title="src">
<polygon fill="#ddddee" stroke="black" points="8,-64 8,-135 78,-135 78,-64 8,-64"/>
<text text-anchor="middle" x="43" y="-123" font-family="Helvetica,sans-Serif" font-size="10.00">src</text>
</a>
</g>
</g>
<!-- dir_a9f42a52e962b7d77d211d302f5ac5ab -->
<g id="node1" class="node">
<title>dir_a9f42a52e962b7d77d211d302f5ac5ab</title>
<g id="a_node1"><a xlink:href="dir_a9f42a52e962b7d77d211d302f5ac5ab.html" target="_top" xlink:title="forces">
<polygon fill="#eeeeff" stroke="black" points="70,-108 16,-108 16,-72 70,-72 70,-108"/>
<text text-anchor="middle" x="43" y="-87.5" font-family="Helvetica,sans-Serif" font-size="10.00">forces</text>
</a>
</g>
</g>
<!-- dir_7e83d6132a938028a53b88470887e12b -->
<g id="node2" class="node">
<title>dir_7e83d6132a938028a53b88470887e12b</title>
<g id="a_node2"><a xlink:href="dir_7e83d6132a938028a53b88470887e12b.html" target="_top" xlink:title="simulation_system">
<polygon fill="none" stroke="black" points="186,-108 88,-108 88,-72 186,-72 186,-108"/>
<text text-anchor="middle" x="137" y="-87.5" font-family="Helvetica,sans-Serif" font-size="10.00">simulation_system</text>
</a>
</g>
</g>
<!-- dir_a9f42a52e962b7d77d211d302f5ac5ab&#45;&gt;dir_7e83d6132a938028a53b88470887e12b -->
<g id="edge3" class="edge">
<title>dir_a9f42a52e962b7d77d211d302f5ac5ab&#45;&gt;dir_7e83d6132a938028a53b88470887e12b</title>
<path fill="none" stroke="black" d="M70.17,-90C72.67,-90 75.16,-90 77.66,-90"/>
<polygon fill="black" stroke="black" points="77.92,-93.5 87.92,-90 77.92,-86.5 77.92,-93.5"/>
<g id="a_edge3&#45;headlabel"><a xlink:href="dir_000009_000012.html" target="_top" xlink:title="1">
<text text-anchor="middle" x="74.33" y="-93.84" font-family="Helvetica,sans-Serif" font-size="10.00">1</text>
</a>
</g>
</g>
<!-- dir_0c26bd22f254302c4dfbaa95bf527e9d -->
<g id="node3" class="node">
<title>dir_0c26bd22f254302c4dfbaa95bf527e9d</title>
<g id="a_node3"><a xlink:href="dir_0c26bd22f254302c4dfbaa95bf527e9d.html" target="_top" xlink:title="helpers">
<polygon fill="none" stroke="red" points="117,-36 63,-36 63,0 117,0 117,-36"/>
<text text-anchor="middle" x="90" y="-15.5" font-family="Helvetica,sans-Serif" font-size="10.00">helpers</text>
</a>
</g>
</g>
<!-- dir_a9f42a52e962b7d77d211d302f5ac5ab&#45;&gt;dir_0c26bd22f254302c4dfbaa95bf527e9d -->
<g id="edge4" class="edge">
<title>dir_a9f42a52e962b7d77d211d302f5ac5ab&#45;&gt;dir_0c26bd22f254302c4dfbaa95bf527e9d</title>
<path fill="none" stroke="black" d="M54.62,-71.7C60.14,-63.47 66.85,-53.48 72.93,-44.42"/>
<polygon fill="black" stroke="black" points="75.85,-46.36 78.52,-36.1 70.04,-42.46 75.85,-46.36"/>
<g id="a_edge4&#45;headlabel"><a xlink:href="dir_000009_000004.html" target="_top" xlink:title="1">
<text text-anchor="middle" x="76.2" y="-48.42" font-family="Helvetica,sans-Serif" font-size="10.00">1</text>
</a>
</g>
</g>
<!-- dir_7e83d6132a938028a53b88470887e12b&#45;&gt;dir_a9f42a52e962b7d77d211d302f5ac5ab -->
<g id="edge2" class="edge">
<title>dir_7e83d6132a938028a53b88470887e12b&#45;&gt;dir_a9f42a52e962b7d77d211d302f5ac5ab</title>
<path fill="none" stroke="black" d="M87.92,-90C85.43,-90 82.93,-90 80.43,-90"/>
<polygon fill="black" stroke="black" points="80.17,-86.5 70.17,-90 80.17,-93.5 80.17,-86.5"/>
<g id="a_edge2&#45;headlabel"><a xlink:href="dir_000012_000009.html" target="_top" xlink:title="1">
<text text-anchor="middle" x="83.77" y="-81.16" font-family="Helvetica,sans-Serif" font-size="10.00">1</text>
</a>
</g>
</g>
<!-- dir_7e83d6132a938028a53b88470887e12b&#45;&gt;dir_0c26bd22f254302c4dfbaa95bf527e9d -->
<g id="edge1" class="edge">
<title>dir_7e83d6132a938028a53b88470887e12b&#45;&gt;dir_0c26bd22f254302c4dfbaa95bf527e9d</title>
<path fill="none" stroke="black" d="M125.38,-71.7C119.86,-63.47 113.15,-53.48 107.07,-44.42"/>
<polygon fill="black" stroke="black" points="109.96,-42.46 101.48,-36.1 104.15,-46.36 109.96,-42.46"/>
<g id="a_edge1&#45;headlabel"><a xlink:href="dir_000012_000004.html" target="_top" xlink:title="2">
<text text-anchor="middle" x="114.33" y="-41.36" font-family="Helvetica,sans-Serif" font-size="10.00">2</text>
</a>
</g>
</g>
</g>
</svg>
