<?xml version="1.0" encoding="UTF-8" standalone="no"?>
<!DOCTYPE svg PUBLIC "-//W3C//DTD SVG 1.1//EN"
 "http://www.w3.org/Graphics/SVG/1.1/DTD/svg11.dtd">
<!-- Generated by graphviz version 2.49.1 (20210923.0004)
 -->
<!-- Title: src/simulation_system Pages: 1 -->
<svg width="180pt" height="311pt"
 viewBox="0.00 0.00 180.00 311.00" xmlns="http://www.w3.org/2000/svg" xmlns:xlink="http://www.w3.org/1999/xlink">
<g id="graph0" class="graph" transform="scale(1 1) rotate(0) translate(4 307)">
<title>src/simulation_system</title>
<g id="clust1" class="cluster">
<title>clusterdir_68267d1309a1af8e8297ef4c3efbcdba</title>
<g id="a_clust1"><a xlink:href="dir_68267d1309a1af8e8297ef4c3efbcdba.html" target="_top" xlink:title="src">
<polygon fill="#ddddee" stroke="black" points="8,-8 8,-295 164,-295 164,-8 8,-8"/>
<text text-anchor="middle" x="86" y="-283" font-family="Helvetica,sans-Serif" font-size="10.00">src</text>
</a>
</g>
</g>
<!-- dir_05f662742734ae5b4756600b03cf1828 -->
<g id="node1" class="node">
<title>dir_05f662742734ae5b4756600b03cf1828</title>
<g id="a_node1"><a xlink:href="dir_05f662742734ae5b4756600b03cf1828.html" target="_top" xlink:title="integrators">
<polygon fill="none" stroke="black" points="118,-268 54,-268 54,-232 118,-232 118,-268"/>
<text text-anchor="middle" x="86" y="-247.5" font-family="Helvetica,sans-Serif" font-size="10.00">integrators</text>
</a>
</g>
</g>
<!-- dir_0c26bd22f254302c4dfbaa95bf527e9d -->
<g id="node2" class="node">
<title>dir_0c26bd22f254302c4dfbaa95bf527e9d</title>
<g id="a_node2"><a xlink:href="dir_0c26bd22f254302c4dfbaa95bf527e9d.html" target="_top" xlink:title="helpers">
<polygon fill="none" stroke="red" points="70,-52 16,-52 16,-16 70,-16 70,-52"/>
<text text-anchor="middle" x="43" y="-31.5" font-family="Helvetica,sans-Serif" font-size="10.00">helpers</text>
</a>
</g>
</g>
<!-- dir_05f662742734ae5b4756600b03cf1828&#45;&gt;dir_0c26bd22f254302c4dfbaa95bf527e9d -->
<g id="edge1" class="edge">
<title>dir_05f662742734ae5b4756600b03cf1828&#45;&gt;dir_0c26bd22f254302c4dfbaa95bf527e9d</title>
<path fill="none" stroke="black" d="M58.2,-231.87C46.23,-222.84 33.5,-210.59 27,-196 7.41,-152.06 21.19,-94.85 32.47,-61.79"/>
<polygon fill="black" stroke="black" points="35.77,-62.94 35.84,-52.35 29.18,-60.58 35.77,-62.94"/>
<g id="a_edge1&#45;headlabel"><a xlink:href="dir_000011_000005.html" target="_top" xlink:title="1">
<text text-anchor="middle" x="37.23" y="-64.78" font-family="Helvetica,sans-Serif" font-size="10.00">1</text>
</a>
</g>
</g>
<!-- dir_a9f42a52e962b7d77d211d302f5ac5ab -->
<g id="node4" class="node">
<title>dir_a9f42a52e962b7d77d211d302f5ac5ab</title>
<g id="a_node4"><a xlink:href="dir_a9f42a52e962b7d77d211d302f5ac5ab.html" target="_top" xlink:title="forces">
<polygon fill="none" stroke="black" points="90,-196 36,-196 36,-160 90,-160 90,-196"/>
<text text-anchor="middle" x="63" y="-175.5" font-family="Helvetica,sans-Serif" font-size="10.00">forces</text>
</a>
</g>
</g>
<!-- dir_05f662742734ae5b4756600b03cf1828&#45;&gt;dir_a9f42a52e962b7d77d211d302f5ac5ab -->
<g id="edge3" class="edge">
<title>dir_05f662742734ae5b4756600b03cf1828&#45;&gt;dir_a9f42a52e962b7d77d211d302f5ac5ab</title>
<path fill="none" stroke="black" d="M80.31,-231.7C77.75,-223.9 74.67,-214.51 71.82,-205.83"/>
<polygon fill="black" stroke="black" points="75.07,-204.51 68.62,-196.1 68.42,-206.7 75.07,-204.51"/>
<g id="a_edge3&#45;headlabel"><a xlink:href="dir_000011_000009.html" target="_top" xlink:title="1">
<text text-anchor="middle" x="78.89" y="-204.54" font-family="Helvetica,sans-Serif" font-size="10.00">1</text>
</a>
</g>
</g>
<!-- dir_7e83d6132a938028a53b88470887e12b -->
<g id="node5" class="node">
<title>dir_7e83d6132a938028a53b88470887e12b</title>
<g id="a_node5"><a xlink:href="dir_7e83d6132a938028a53b88470887e12b.html" target="_top" xlink:title="simulation_system">
<polygon fill="#eeeeff" stroke="black" points="155.5,-124 56.5,-124 56.5,-88 155.5,-88 155.5,-124"/>
<text text-anchor="middle" x="106" y="-103.5" font-family="Helvetica,sans-Serif" font-size="10.00">simulation_system</text>
</a>
</g>
</g>
<!-- dir_05f662742734ae5b4756600b03cf1828&#45;&gt;dir_7e83d6132a938028a53b88470887e12b -->
<g id="edge2" class="edge">
<title>dir_05f662742734ae5b4756600b03cf1828&#45;&gt;dir_7e83d6132a938028a53b88470887e12b</title>
<path fill="none" stroke="black" d="M83.1,-231.96C84.72,-221.64 88.04,-208.16 90,-196 93.3,-175.47 95.07,-152.02 97.29,-134.34"/>
<polygon fill="black" stroke="black" points="100.8,-134.56 98.76,-124.16 93.87,-133.56 100.8,-134.56"/>
<g id="a_edge2&#45;headlabel"><a xlink:href="dir_000011_000012.html" target="_top" xlink:title="1">
<text text-anchor="middle" x="103.1" y="-136.02" font-family="Helvetica,sans-Serif" font-size="10.00">1</text>
</a>
</g>
</g>
<!-- dir_5619d3ff040d238c5bcfe0ac1235817d -->
<g id="node3" class="node">
<title>dir_5619d3ff040d238c5bcfe0ac1235817d</title>
<g id="a_node3"><a xlink:href="dir_5619d3ff040d238c5bcfe0ac1235817d.html" target="_top" xlink:title="data_io">
<polygon fill="none" stroke="black" points="142,-52 88,-52 88,-16 142,-16 142,-52"/>
<text text-anchor="middle" x="115" y="-31.5" font-family="Helvetica,sans-Serif" font-size="10.00">data_io</text>
</a>
</g>
</g>
<!-- dir_5619d3ff040d238c5bcfe0ac1235817d&#45;&gt;dir_7e83d6132a938028a53b88470887e12b -->
<g id="edge4" class="edge">
<title>dir_5619d3ff040d238c5bcfe0ac1235817d&#45;&gt;dir_7e83d6132a938028a53b88470887e12b</title>
<path fill="none" stroke="black" d="M118.7,-52.1C118.51,-59.79 117.56,-69.05 116.12,-77.67"/>
<polygon fill="black" stroke="black" points="112.64,-77.21 114.14,-87.7 119.51,-78.56 112.64,-77.21"/>
<g id="a_edge4&#45;headlabel"><a xlink:href="dir_000008_000012.html" target="_top" xlink:title="1">
<text text-anchor="middle" x="110.55" y="-70.63" font-family="Helvetica,sans-Serif" font-size="10.00">1</text>
</a>
</g>
</g>
<!-- dir_a9f42a52e962b7d77d211d302f5ac5ab&#45;&gt;dir_0c26bd22f254302c4dfbaa95bf527e9d -->
<g id="edge9" class="edge">
<title>dir_a9f42a52e962b7d77d211d302f5ac5ab&#45;&gt;dir_0c26bd22f254302c4dfbaa95bf527e9d</title>
<path fill="none" stroke="black" d="M57.02,-159.55C53.77,-149.32 50.02,-136.07 48,-124 44.57,-103.52 43.36,-80.07 42.99,-62.38"/>
<polygon fill="black" stroke="black" points="46.49,-62.14 42.85,-52.19 39.49,-62.23 46.49,-62.14"/>
<g id="a_edge9&#45;headlabel"><a xlink:href="dir_000009_000005.html" target="_top" xlink:title="1">
<text text-anchor="middle" x="49.37" y="-63.19" font-family="Helvetica,sans-Serif" font-size="10.00">1</text>
</a>
</g>
</g>
<!-- dir_a9f42a52e962b7d77d211d302f5ac5ab&#45;&gt;dir_7e83d6132a938028a53b88470887e12b -->
<g id="edge10" class="edge">
<title>dir_a9f42a52e962b7d77d211d302f5ac5ab&#45;&gt;dir_7e83d6132a938028a53b88470887e12b</title>
<path fill="none" stroke="black" d="M67.71,-159.7C71.92,-151.47 77.85,-141.48 83.86,-132.42"/>
<polygon fill="black" stroke="black" points="86.8,-134.32 89.6,-124.1 81.04,-130.35 86.8,-134.32"/>
<g id="a_edge10&#45;headlabel"><a xlink:href="dir_000009_000012.html" target="_top" xlink:title="1">
<text text-anchor="middle" x="87.1" y="-136.39" font-family="Helvetica,sans-Serif" font-size="10.00">1</text>
</a>
</g>
</g>
<!-- dir_7e83d6132a938028a53b88470887e12b&#45;&gt;dir_05f662742734ae5b4756600b03cf1828 -->
<g id="edge5" class="edge">
<title>dir_7e83d6132a938028a53b88470887e12b&#45;&gt;dir_05f662742734ae5b4756600b03cf1828</title>
<path fill="none" stroke="black" d="M112.19,-124.16C113.73,-142.15 111.99,-171.21 108,-196 106.61,-204.65 104.53,-213.96 102.01,-222.32"/>
<polygon fill="black" stroke="black" points="98.64,-221.36 98.75,-231.96 105.27,-223.61 98.64,-221.36"/>
<g id="a_edge5&#45;headlabel"><a xlink:href="dir_000012_000011.html" target="_top" xlink:title="1">
<text text-anchor="middle" x="97.11" y="-214.55" font-family="Helvetica,sans-Serif" font-size="10.00">1</text>
</a>
</g>
</g>
<!-- dir_7e83d6132a938028a53b88470887e12b&#45;&gt;dir_0c26bd22f254302c4dfbaa95bf527e9d -->
<g id="edge6" class="edge">
<title>dir_7e83d6132a938028a53b88470887e12b&#45;&gt;dir_0c26bd22f254302c4dfbaa95bf527e9d</title>
<path fill="none" stroke="black" d="M90.43,-87.7C82.8,-79.22 73.48,-68.86 65.12,-59.58"/>
<polygon fill="black" stroke="black" points="67.69,-57.2 58.39,-52.1 62.48,-61.88 67.69,-57.2"/>
<g id="a_edge6&#45;headlabel"><a xlink:href="dir_000012_000005.html" target="_top" xlink:title="2">
<text text-anchor="middle" x="72.2" y="-55.47" font-family="Helvetica,sans-Serif" font-size="10.00">2</text>
</a>
</g>
</g>
<!-- dir_7e83d6132a938028a53b88470887e12b&#45;&gt;dir_5619d3ff040d238c5bcfe0ac1235817d -->
<g id="edge7" class="edge">
<title>dir_7e83d6132a938028a53b88470887e12b&#45;&gt;dir_5619d3ff040d238c5bcfe0ac1235817d</title>
<path fill="none" stroke="black" d="M102.31,-87.7C102.51,-79.98 103.47,-70.71 104.92,-62.11"/>
<polygon fill="black" stroke="black" points="108.39,-62.59 106.91,-52.1 101.53,-61.23 108.39,-62.59"/>
<g id="a_edge7&#45;headlabel"><a xlink:href="dir_000012_000008.html" target="_top" xlink:title="2">
<text text-anchor="middle" x="110.48" y="-64.17" font-family="Helvetica,sans-Serif" font-size="10.00">2</text>
</a>
</g>
</g>
<!-- dir_7e83d6132a938028a53b88470887e12b&#45;&gt;dir_a9f42a52e962b7d77d211d302f5ac5ab -->
<g id="edge8" class="edge">
<title>dir_7e83d6132a938028a53b88470887e12b&#45;&gt;dir_a9f42a52e962b7d77d211d302f5ac5ab</title>
<path fill="none" stroke="black" d="M101.39,-124.1C97.21,-132.3 91.29,-142.28 85.28,-151.36"/>
<polygon fill="black" stroke="black" points="82.33,-149.47 79.54,-159.7 88.1,-153.44 82.33,-149.47"/>
<g id="a_edge8&#45;headlabel"><a xlink:href="dir_000012_000009.html" target="_top" xlink:title="1">
<text text-anchor="middle" x="82.03" y="-142.4" font-family="Helvetica,sans-Serif" font-size="10.00">1</text>
</a>
</g>
</g>
</g>
</svg>
