<?xml version="1.0" encoding="UTF-8" standalone="no"?>
<!DOCTYPE svg PUBLIC "-//W3C//DTD SVG 1.1//EN"
 "http://www.w3.org/Graphics/SVG/1.1/DTD/svg11.dtd">
<!-- Generated by graphviz version 2.43.0 (0)
 -->
<!-- Title: src/integrators Pages: 1 -->
<svg width="202pt" height="151pt"
 viewBox="0.00 0.00 202.00 151.00" xmlns="http://www.w3.org/2000/svg" xmlns:xlink="http://www.w3.org/1999/xlink">
<g id="graph0" class="graph" transform="scale(1 1) rotate(0) translate(4 147)">
<title>src/integrators</title>
<g id="clust1" class="cluster">
<title>clusterdir_68267d1309a1af8e8297ef4c3efbcdba</title>
<g id="a_clust1"><a xlink:href="dir_68267d1309a1af8e8297ef4c3efbcdba.html" target="_top" xlink:title="src">
<polygon fill="#ddddee" stroke="black" points="8,-64 8,-135 86,-135 86,-64 8,-64"/>
<text text-anchor="middle" x="47" y="-123" font-family="Helvetica,sans-Serif" font-size="10.00">src</text>
</a>
</g>
</g>
<!-- dir_05f662742734ae5b4756600b03cf1828 -->
<g id="node1" class="node">
<title>dir_05f662742734ae5b4756600b03cf1828</title>
<g id="a_node1"><a xlink:href="dir_05f662742734ae5b4756600b03cf1828.html" target="_top" xlink:title="integrators">
<polygon fill="#eeeeff" stroke="black" points="78,-108 16,-108 16,-72 78,-72 78,-108"/>
<text text-anchor="middle" x="47" y="-87.5" font-family="Helvetica,sans-Serif" font-size="10.00">integrators</text>
</a>
</g>
</g>
<!-- dir_7e83d6132a938028a53b88470887e12b -->
<g id="node2" class="node">
<title>dir_7e83d6132a938028a53b88470887e12b</title>
<g id="a_node2"><a xlink:href="dir_7e83d6132a938028a53b88470887e12b.html" target="_top" xlink:title="simulation_system">
<polygon fill="none" stroke="black" points="194,-108 96,-108 96,-72 194,-72 194,-108"/>
<text text-anchor="middle" x="145" y="-87.5" font-family="Helvetica,sans-Serif" font-size="10.00">simulation_system</text>
</a>
</g>
</g>
<!-- dir_05f662742734ae5b4756600b03cf1828&#45;&gt;dir_7e83d6132a938028a53b88470887e12b -->
<g id="edge3" class="edge">
<title>dir_05f662742734ae5b4756600b03cf1828&#45;&gt;dir_7e83d6132a938028a53b88470887e12b</title>
<path fill="none" stroke="black" d="M78.01,-90C80.6,-90 83.2,-90 85.79,-90"/>
<polygon fill="black" stroke="black" points="85.8,-93.5 95.8,-90 85.8,-86.5 85.8,-93.5"/>
<g id="a_edge3&#45;headlabel"><a xlink:href="dir_000009_000010.html" target="_top" xlink:title="1">
<text text-anchor="middle" x="82.21" y="-93.84" font-family="Helvetica,sans-Serif" font-size="10.00">1</text>
</a>
</g>
</g>
<!-- dir_a9f42a52e962b7d77d211d302f5ac5ab -->
<g id="node3" class="node">
<title>dir_a9f42a52e962b7d77d211d302f5ac5ab</title>
<g id="a_node3"><a xlink:href="dir_a9f42a52e962b7d77d211d302f5ac5ab.html" target="_top" xlink:title="forces">
<polygon fill="none" stroke="black" points="172,-36 118,-36 118,0 172,0 172,-36"/>
<text text-anchor="middle" x="145" y="-15.5" font-family="Helvetica,sans-Serif" font-size="10.00">forces</text>
</a>
</g>
</g>
<!-- dir_05f662742734ae5b4756600b03cf1828&#45;&gt;dir_a9f42a52e962b7d77d211d302f5ac5ab -->
<g id="edge4" class="edge">
<title>dir_05f662742734ae5b4756600b03cf1828&#45;&gt;dir_a9f42a52e962b7d77d211d302f5ac5ab</title>
<path fill="none" stroke="black" d="M70.97,-71.88C83.55,-62.89 99.13,-51.76 112.75,-42.03"/>
<polygon fill="black" stroke="black" points="114.83,-44.85 120.93,-36.19 110.76,-39.15 114.83,-44.85"/>
<g id="a_edge4&#45;headlabel"><a xlink:href="dir_000009_000008.html" target="_top" xlink:title="1">
<text text-anchor="middle" x="113.56" y="-46.75" font-family="Helvetica,sans-Serif" font-size="10.00">1</text>
</a>
</g>
</g>
<!-- dir_7e83d6132a938028a53b88470887e12b&#45;&gt;dir_05f662742734ae5b4756600b03cf1828 -->
<g id="edge1" class="edge">
<title>dir_7e83d6132a938028a53b88470887e12b&#45;&gt;dir_05f662742734ae5b4756600b03cf1828</title>
<path fill="none" stroke="black" d="M95.8,-90C93.21,-90 90.61,-90 88.02,-90"/>
<polygon fill="black" stroke="black" points="88.01,-86.5 78.01,-90 88.01,-93.5 88.01,-86.5"/>
<g id="a_edge1&#45;headlabel"><a xlink:href="dir_000010_000009.html" target="_top" xlink:title="1">
<text text-anchor="middle" x="91.6" y="-81.16" font-family="Helvetica,sans-Serif" font-size="10.00">1</text>
</a>
</g>
</g>
<!-- dir_7e83d6132a938028a53b88470887e12b&#45;&gt;dir_a9f42a52e962b7d77d211d302f5ac5ab -->
<g id="edge2" class="edge">
<title>dir_7e83d6132a938028a53b88470887e12b&#45;&gt;dir_a9f42a52e962b7d77d211d302f5ac5ab</title>
<path fill="none" stroke="black" d="M139.08,-71.7C138.29,-63.98 138.06,-54.71 138.4,-46.11"/>
<polygon fill="black" stroke="black" points="141.9,-46.32 139.1,-36.1 134.92,-45.84 141.9,-46.32"/>
<g id="a_edge2&#45;headlabel"><a xlink:href="dir_000010_000008.html" target="_top" xlink:title="1">
<text text-anchor="middle" x="144.48" y="-47.61" font-family="Helvetica,sans-Serif" font-size="10.00">1</text>
</a>
</g>
</g>
<!-- dir_a9f42a52e962b7d77d211d302f5ac5ab&#45;&gt;dir_7e83d6132a938028a53b88470887e12b -->
<g id="edge5" class="edge">
<title>dir_a9f42a52e962b7d77d211d302f5ac5ab&#45;&gt;dir_7e83d6132a938028a53b88470887e12b</title>
<path fill="none" stroke="black" d="M150.9,-36.1C151.7,-43.79 151.94,-53.05 151.6,-61.67"/>
<polygon fill="black" stroke="black" points="148.11,-61.48 150.92,-71.7 155.09,-61.96 148.11,-61.48"/>
<g id="a_edge5&#45;headlabel"><a xlink:href="dir_000008_000010.html" target="_top" xlink:title="1">
<text text-anchor="middle" x="145.52" y="-55.2" font-family="Helvetica,sans-Serif" font-size="10.00">1</text>
</a>
</g>
</g>
</g>
</svg>
