<?xml version="1.0" encoding="UTF-8" standalone="no"?>
<!DOCTYPE svg PUBLIC "-//W3C//DTD SVG 1.1//EN"
 "http://www.w3.org/Graphics/SVG/1.1/DTD/svg11.dtd">
<!-- Generated by graphviz version 2.43.0 (0)
 -->
<!-- Title: test Pages: 1 -->
<svg width="138pt" height="204pt"
 viewBox="0.00 0.00 138.00 204.00" xmlns="http://www.w3.org/2000/svg" xmlns:xlink="http://www.w3.org/1999/xlink">
<g id="graph0" class="graph" transform="scale(1 1) rotate(0) translate(4 200)">
<title>test</title>
<g id="clust1" class="cluster">
<title>clusterdir_13e138d54eb8818da29c3992edef070a</title>
<g id="a_clust1"><a xlink:href="dir_13e138d54eb8818da29c3992edef070a.html" target="_top">
<polygon fill="#eeeeff" stroke="black" points="8,-64 8,-188 122,-188 122,-64 8,-64"/>
</a>
</g>
</g>
<!-- dir_13e138d54eb8818da29c3992edef070a -->
<g id="node1" class="node">
<title>dir_13e138d54eb8818da29c3992edef070a</title>
<text text-anchor="middle" x="65" y="-159.5" font-family="Helvetica,sans-Serif" font-size="10.00">test</text>
</g>
<!-- dir_821341eaf1fc82f98fade8038d8e4f73 -->
<g id="node2" class="node">
<title>dir_821341eaf1fc82f98fade8038d8e4f73</title>
<g id="a_node2"><a xlink:href="dir_821341eaf1fc82f98fade8038d8e4f73.html" target="_top" xlink:title="simulation_system">
<polygon fill="white" stroke="black" points="114,-108 16,-108 16,-72 114,-72 114,-108"/>
<text text-anchor="middle" x="65" y="-87.5" font-family="Helvetica,sans-Serif" font-size="10.00">simulation_system</text>
</a>
</g>
</g>
<!-- dir_13e138d54eb8818da29c3992edef070a&#45;&gt;dir_821341eaf1fc82f98fade8038d8e4f73 -->
<g id="edge1" class="edge">
<title>dir_13e138d54eb8818da29c3992edef070a&#45;&gt;dir_821341eaf1fc82f98fade8038d8e4f73</title>
<path fill="none" stroke="black" d="M65,-143.7C65,-135.98 65,-126.71 65,-118.11"/>
<polygon fill="black" stroke="black" points="68.5,-118.1 65,-108.1 61.5,-118.1 68.5,-118.1"/>
<g id="a_edge1&#45;headlabel"><a xlink:href="dir_000005_000014.html" target="_top" xlink:title="1">
<text text-anchor="middle" x="71.34" y="-119.2" font-family="Helvetica,sans-Serif" font-size="10.00">1</text>
</a>
</g>
</g>
<!-- dir_68267d1309a1af8e8297ef4c3efbcdba -->
<g id="node3" class="node">
<title>dir_68267d1309a1af8e8297ef4c3efbcdba</title>
<g id="a_node3"><a xlink:href="dir_68267d1309a1af8e8297ef4c3efbcdba.html" target="_top" xlink:title="src">
<polygon fill="none" stroke="red" points="92,-36 38,-36 38,0 92,0 92,-36"/>
<text text-anchor="middle" x="65" y="-15.5" font-family="Helvetica,sans-Serif" font-size="10.00">src</text>
</a>
</g>
</g>
<!-- dir_821341eaf1fc82f98fade8038d8e4f73&#45;&gt;dir_68267d1309a1af8e8297ef4c3efbcdba -->
<g id="edge2" class="edge">
<title>dir_821341eaf1fc82f98fade8038d8e4f73&#45;&gt;dir_68267d1309a1af8e8297ef4c3efbcdba</title>
<path fill="none" stroke="black" d="M65,-71.7C65,-63.98 65,-54.71 65,-46.11"/>
<polygon fill="black" stroke="black" points="68.5,-46.1 65,-36.1 61.5,-46.1 68.5,-46.1"/>
<g id="a_edge2&#45;headlabel"><a xlink:href="dir_000014_000004.html" target="_top" xlink:title="1">
<text text-anchor="middle" x="71.34" y="-47.2" font-family="Helvetica,sans-Serif" font-size="10.00">1</text>
</a>
</g>
</g>
</g>
</svg>
