<?xml version="1.0" encoding="UTF-8" standalone="no"?>
<!DOCTYPE svg PUBLIC "-//W3C//DTD SVG 1.1//EN"
 "http://www.w3.org/Graphics/SVG/1.1/DTD/svg11.dtd">
<!-- Generated by graphviz version 2.49.1 (20210923.0004)
 -->
<!-- Title: src/simulation_system/engine.cpp Pages: 1 -->
<svg width="1730pt" height="453pt"
 viewBox="0.00 0.00 1729.50 453.00" xmlns="http://www.w3.org/2000/svg" xmlns:xlink="http://www.w3.org/1999/xlink">
<g id="graph0" class="graph" transform="scale(1 1) rotate(0) translate(4 449)">
<title>src/simulation_system/engine.cpp</title>
<!-- Node1 -->
<g id="node1" class="node">
<title>Node1</title>
<g id="a_node1"><a xlink:title=" ">
<polygon fill="#bfbfbf" stroke="black" points="856.5,-414.5 856.5,-444.5 971.5,-444.5 971.5,-414.5 856.5,-414.5"/>
<text text-anchor="start" x="864.5" y="-432.5" font-family="Helvetica,sans-Serif" font-size="10.00">src/simulation_system</text>
<text text-anchor="middle" x="914" y="-421.5" font-family="Helvetica,sans-Serif" font-size="10.00">/engine.cpp</text>
</a>
</g>
</g>
<!-- Node2 -->
<g id="node2" class="node">
<title>Node2</title>
<g id="a_node2"><a xlink:href="engine_8hpp.html" target="_top" xlink:title=" ">
<polygon fill="none" stroke="black" points="881,-358.5 881,-377.5 947,-377.5 947,-358.5 881,-358.5"/>
<text text-anchor="middle" x="914" y="-365.5" font-family="Helvetica,sans-Serif" font-size="10.00">engine.hpp</text>
</a>
</g>
</g>
<!-- Node1&#45;&gt;Node2 -->
<g id="edge1" class="edge">
<title>Node1&#45;&gt;Node2</title>
<path fill="none" stroke="midnightblue" d="M914,-414.4C914,-406.47 914,-396.46 914,-387.86"/>
<polygon fill="midnightblue" stroke="midnightblue" points="917.5,-387.66 914,-377.66 910.5,-387.66 917.5,-387.66"/>
</g>
<!-- Node3 -->
<g id="node3" class="node">
<title>Node3</title>
<g id="a_node3"><a xlink:href="potentialHydrodynamics_8hpp.html" target="_top" xlink:title=" ">
<polygon fill="none" stroke="black" points="842.5,-246.5 842.5,-265.5 985.5,-265.5 985.5,-246.5 842.5,-246.5"/>
<text text-anchor="middle" x="914" y="-253.5" font-family="Helvetica,sans-Serif" font-size="10.00">potentialHydrodynamics.hpp</text>
</a>
</g>
</g>
<!-- Node2&#45;&gt;Node3 -->
<g id="edge2" class="edge">
<title>Node2&#45;&gt;Node3</title>
<path fill="none" stroke="midnightblue" d="M914,-358.37C914,-340.62 914,-299.67 914,-275.6"/>
<polygon fill="midnightblue" stroke="midnightblue" points="917.5,-275.59 914,-265.59 910.5,-275.59 917.5,-275.59"/>
</g>
<!-- Node4 -->
<g id="node4" class="node">
<title>Node4</title>
<g id="a_node4"><a xlink:href="systemData_8hpp.html" target="_top" xlink:title=" ">
<polygon fill="none" stroke="black" points="492.5,-190.5 492.5,-209.5 581.5,-209.5 581.5,-190.5 492.5,-190.5"/>
<text text-anchor="middle" x="537" y="-197.5" font-family="Helvetica,sans-Serif" font-size="10.00">systemData.hpp</text>
</a>
</g>
</g>
<!-- Node2&#45;&gt;Node4 -->
<g id="edge53" class="edge">
<title>Node2&#45;&gt;Node4</title>
<path fill="none" stroke="midnightblue" d="M880.94,-366.17C808.98,-363.77 640.98,-354.72 596,-322 561.78,-297.11 546.45,-246.9 540.41,-219.64"/>
<polygon fill="midnightblue" stroke="midnightblue" points="543.83,-218.91 538.42,-209.8 536.97,-220.3 543.83,-218.91"/>
</g>
<!-- Node10 -->
<g id="node10" class="node">
<title>Node10</title>
<g id="a_node10"><a xlink:title=" ">
<polygon fill="none" stroke="#bfbfbf" points="551,-56.5 551,-86.5 649,-86.5 649,-56.5 551,-56.5"/>
<text text-anchor="start" x="559" y="-74.5" font-family="Helvetica,sans-Serif" font-size="10.00">spdlog/sinks/basic</text>
<text text-anchor="middle" x="600" y="-63.5" font-family="Helvetica,sans-Serif" font-size="10.00">_file_sink.h</text>
</a>
</g>
</g>
<!-- Node2&#45;&gt;Node10 -->
<g id="edge59" class="edge">
<title>Node2&#45;&gt;Node10</title>
<path fill="none" stroke="midnightblue" d="M880.85,-365.81C805.44,-362.6 623.52,-351.9 571,-322 481.25,-270.89 390.82,-206.94 451,-123 456.65,-115.12 501.86,-100.45 541.01,-88.94"/>
<polygon fill="midnightblue" stroke="midnightblue" points="542.18,-92.25 550.81,-86.09 540.23,-85.53 542.18,-92.25"/>
</g>
<!-- Node11 -->
<g id="node11" class="node">
<title>Node11</title>
<g id="a_node11"><a xlink:title=" ">
<polygon fill="none" stroke="#bfbfbf" points="70.5,-62 70.5,-81 157.5,-81 157.5,-62 70.5,-62"/>
<text text-anchor="middle" x="114" y="-69" font-family="Helvetica,sans-Serif" font-size="10.00">spdlog/spdlog.h</text>
</a>
</g>
</g>
<!-- Node2&#45;&gt;Node11 -->
<g id="edge60" class="edge">
<title>Node2&#45;&gt;Node11</title>
<path fill="none" stroke="midnightblue" d="M880.82,-367.25C748.26,-367.9 256.74,-367.18 109,-322 55.06,-305.51 0,-313.4 0,-257 0,-257 0,-257 0,-199 0,-146.57 54.7,-106.08 88.32,-86.14"/>
<polygon fill="midnightblue" stroke="midnightblue" points="90.24,-89.08 97.18,-81.07 86.76,-83 90.24,-89.08"/>
</g>
<!-- Node12 -->
<g id="node12" class="node">
<title>Node12</title>
<g id="a_node12"><a xlink:title=" ">
<polygon fill="none" stroke="#bfbfbf" points="479.5,-62 479.5,-81 532.5,-81 532.5,-62 479.5,-62"/>
<text text-anchor="middle" x="506" y="-69" font-family="Helvetica,sans-Serif" font-size="10.00">memory</text>
</a>
</g>
</g>
<!-- Node2&#45;&gt;Node12 -->
<g id="edge62" class="edge">
<title>Node2&#45;&gt;Node12</title>
<path fill="none" stroke="midnightblue" d="M880.89,-362.22C802.1,-349.93 610,-314.11 610,-257 610,-257 610,-257 610,-199 610,-148.54 560.01,-107.25 529.35,-86.66"/>
<polygon fill="midnightblue" stroke="midnightblue" points="531.2,-83.69 520.9,-81.18 527.39,-89.56 531.2,-83.69"/>
</g>
<!-- Node13 -->
<g id="node13" class="node">
<title>Node13</title>
<g id="a_node13"><a xlink:title=" ">
<polygon fill="none" stroke="#bfbfbf" points="186.5,-62 186.5,-81 245.5,-81 245.5,-62 186.5,-62"/>
<text text-anchor="middle" x="216" y="-69" font-family="Helvetica,sans-Serif" font-size="10.00">stdexcept</text>
</a>
</g>
</g>
<!-- Node2&#45;&gt;Node13 -->
<g id="edge63" class="edge">
<title>Node2&#45;&gt;Node13</title>
<path fill="none" stroke="midnightblue" d="M880.99,-366.4C721.47,-363.05 38,-343.65 38,-257 38,-257 38,-257 38,-199 38,-162.66 137.83,-109.8 187.97,-85.55"/>
<polygon fill="midnightblue" stroke="midnightblue" points="189.78,-88.56 197.29,-81.09 186.76,-82.25 189.78,-88.56"/>
</g>
<!-- Node14 -->
<g id="node14" class="node">
<title>Node14</title>
<g id="a_node14"><a xlink:title=" ">
<polygon fill="none" stroke="#bfbfbf" points="263.5,-62 263.5,-81 304.5,-81 304.5,-62 263.5,-62"/>
<text text-anchor="middle" x="284" y="-69" font-family="Helvetica,sans-Serif" font-size="10.00">string</text>
</a>
</g>
</g>
<!-- Node2&#45;&gt;Node14 -->
<g id="edge64" class="edge">
<title>Node2&#45;&gt;Node14</title>
<path fill="none" stroke="midnightblue" d="M880.77,-365.76C734.1,-359.87 152,-331.77 152,-257 152,-257 152,-257 152,-199 152,-168.71 225.35,-113.29 262.69,-87.03"/>
<polygon fill="midnightblue" stroke="midnightblue" points="265.13,-89.6 271.34,-81.02 261.13,-83.85 265.13,-89.6"/>
</g>
<!-- Node15 -->
<g id="node15" class="node">
<title>Node15</title>
<g id="a_node15"><a xlink:title=" ">
<polygon fill="none" stroke="#bfbfbf" points="826.5,-62 826.5,-81 925.5,-81 925.5,-62 826.5,-62"/>
<text text-anchor="middle" x="876" y="-69" font-family="Helvetica,sans-Serif" font-size="10.00">eigen3/Eigen/Core</text>
</a>
</g>
</g>
<!-- Node2&#45;&gt;Node15 -->
<g id="edge54" class="edge">
<title>Node2&#45;&gt;Node15</title>
<path fill="none" stroke="midnightblue" d="M903.58,-358.33C885.27,-342.33 847.97,-306.14 834,-266 812.09,-203.06 847.45,-124.48 865.91,-90.04"/>
<polygon fill="midnightblue" stroke="midnightblue" points="869.02,-91.63 870.81,-81.19 862.9,-88.24 869.02,-91.63"/>
</g>
<!-- Node16 -->
<g id="node16" class="node">
<title>Node16</title>
<g id="a_node16"><a xlink:title=" ">
<polygon fill="none" stroke="#bfbfbf" points="1162.5,-62 1162.5,-81 1265.5,-81 1265.5,-62 1162.5,-62"/>
<text text-anchor="middle" x="1214" y="-69" font-family="Helvetica,sans-Serif" font-size="10.00">eigen3/Eigen/Eigen</text>
</a>
</g>
</g>
<!-- Node2&#45;&gt;Node16 -->
<g id="edge55" class="edge">
<title>Node2&#45;&gt;Node16</title>
<path fill="none" stroke="midnightblue" d="M947.31,-366.75C1058.52,-365.02 1410,-352.04 1410,-257 1410,-257 1410,-257 1410,-199 1410,-150.28 1371.57,-149.97 1331,-123 1305.9,-106.31 1274.38,-93.09 1250.38,-84.36"/>
<polygon fill="midnightblue" stroke="midnightblue" points="1251.52,-81.05 1240.93,-81.01 1249.19,-87.65 1251.52,-81.05"/>
</g>
<!-- Node17 -->
<g id="node17" class="node">
<title>Node17</title>
<g id="a_node17"><a xlink:title=" ">
<polygon fill="none" stroke="#bfbfbf" points="1283.5,-56.5 1283.5,-86.5 1394.5,-86.5 1394.5,-56.5 1283.5,-56.5"/>
<text text-anchor="start" x="1291.5" y="-74.5" font-family="Helvetica,sans-Serif" font-size="10.00">eigen3/unsupported</text>
<text text-anchor="middle" x="1339" y="-63.5" font-family="Helvetica,sans-Serif" font-size="10.00">/Eigen/CXX11/Tensor</text>
</a>
</g>
</g>
<!-- Node2&#45;&gt;Node17 -->
<g id="edge56" class="edge">
<title>Node2&#45;&gt;Node17</title>
<path fill="none" stroke="midnightblue" d="M947.08,-366.62C1059.42,-365.01 1425.41,-357.12 1537,-322 1590.8,-305.07 1646,-313.4 1646,-257 1646,-257 1646,-257 1646,-199 1646,-147.19 1494.63,-105.77 1404.47,-85.69"/>
<polygon fill="midnightblue" stroke="midnightblue" points="1405.11,-82.25 1394.6,-83.52 1403.61,-89.09 1405.11,-82.25"/>
</g>
<!-- Node18 -->
<g id="node18" class="node">
<title>Node18</title>
<g id="a_node18"><a xlink:title=" ">
<polygon fill="none" stroke="#bfbfbf" points="942.5,-123.5 942.5,-153.5 1075.5,-153.5 1075.5,-123.5 942.5,-123.5"/>
<text text-anchor="start" x="950.5" y="-141.5" font-family="Helvetica,sans-Serif" font-size="10.00">eigen3/unsupported</text>
<text text-anchor="middle" x="1009" y="-130.5" font-family="Helvetica,sans-Serif" font-size="10.00">/Eigen/CXX11/ThreadPool</text>
</a>
</g>
</g>
<!-- Node2&#45;&gt;Node18 -->
<g id="edge57" class="edge">
<title>Node2&#45;&gt;Node18</title>
<path fill="none" stroke="midnightblue" d="M923.83,-358.44C941.56,-342.36 978.56,-305.66 995,-266 1008.85,-232.6 1010.71,-190.22 1010.26,-163.98"/>
<polygon fill="midnightblue" stroke="midnightblue" points="1013.75,-163.69 1009.95,-153.8 1006.75,-163.9 1013.75,-163.69"/>
</g>
<!-- Node19 -->
<g id="node19" class="node">
<title>Node19</title>
<g id="a_node19"><a xlink:href="helper__eigenTensorConversion_8hpp.html" target="_top" xlink:title=" ">
<polygon fill="none" stroke="black" points="1132,-129 1132,-148 1306,-148 1306,-129 1132,-129"/>
<text text-anchor="middle" x="1219" y="-136" font-family="Helvetica,sans-Serif" font-size="10.00">helper_eigenTensorConversion.hpp</text>
</a>
</g>
</g>
<!-- Node2&#45;&gt;Node19 -->
<g id="edge58" class="edge">
<title>Node2&#45;&gt;Node19</title>
<path fill="none" stroke="midnightblue" d="M947.3,-364.68C1041.04,-357.38 1303.58,-331.34 1353,-266 1388.92,-218.52 1301.81,-173.22 1251.55,-152.02"/>
<polygon fill="midnightblue" stroke="midnightblue" points="1252.62,-148.68 1242.04,-148.11 1249.96,-155.15 1252.62,-148.68"/>
</g>
<!-- Node21 -->
<g id="node21" class="node">
<title>Node21</title>
<g id="a_node21"><a xlink:href="progressBar_8hpp.html" target="_top" xlink:title=" ">
<polygon fill="none" stroke="black" points="1438,-302.5 1438,-321.5 1528,-321.5 1528,-302.5 1438,-302.5"/>
<text text-anchor="middle" x="1483" y="-309.5" font-family="Helvetica,sans-Serif" font-size="10.00">progressBar.hpp</text>
</a>
</g>
</g>
<!-- Node2&#45;&gt;Node21 -->
<g id="edge37" class="edge">
<title>Node2&#45;&gt;Node21</title>
<path fill="none" stroke="midnightblue" d="M947.19,-364.8C1028.6,-359.26 1244.63,-343.57 1424,-322 1425.27,-321.85 1426.56,-321.69 1427.86,-321.52"/>
<polygon fill="midnightblue" stroke="midnightblue" points="1428.49,-324.97 1437.94,-320.17 1427.57,-318.03 1428.49,-324.97"/>
</g>
<!-- Node26 -->
<g id="node26" class="node">
<title>Node26</title>
<g id="a_node26"><a xlink:href="rungeKutta4_8hpp.html" target="_top" xlink:title=" ">
<polygon fill="none" stroke="black" points="1056,-302.5 1056,-321.5 1146,-321.5 1146,-302.5 1056,-302.5"/>
<text text-anchor="middle" x="1101" y="-309.5" font-family="Helvetica,sans-Serif" font-size="10.00">rungeKutta4.hpp</text>
</a>
</g>
</g>
<!-- Node2&#45;&gt;Node26 -->
<g id="edge42" class="edge">
<title>Node2&#45;&gt;Node26</title>
<path fill="none" stroke="midnightblue" d="M943.63,-358.44C975.5,-349.24 1026.33,-334.56 1061.56,-324.39"/>
<polygon fill="midnightblue" stroke="midnightblue" points="1062.87,-327.65 1071.51,-321.52 1060.93,-320.93 1062.87,-327.65"/>
</g>
<!-- Node27 -->
<g id="node27" class="node">
<title>Node27</title>
<g id="a_node27"><a xlink:title=" ">
<polygon fill="none" stroke="#bfbfbf" points="1674.5,-302.5 1674.5,-321.5 1721.5,-321.5 1721.5,-302.5 1674.5,-302.5"/>
<text text-anchor="middle" x="1698" y="-309.5" font-family="Helvetica,sans-Serif" font-size="10.00">math.h</text>
</a>
</g>
</g>
<!-- Node2&#45;&gt;Node27 -->
<g id="edge61" class="edge">
<title>Node2&#45;&gt;Node27</title>
<path fill="none" stroke="midnightblue" d="M947.3,-367.03C1052.5,-366.69 1386.91,-362.27 1660,-322 1661.47,-321.78 1662.96,-321.54 1664.47,-321.27"/>
<polygon fill="midnightblue" stroke="midnightblue" points="1665.3,-324.67 1674.41,-319.25 1663.91,-317.81 1665.3,-324.67"/>
</g>
<!-- Node3&#45;&gt;Node4 -->
<g id="edge3" class="edge">
<title>Node3&#45;&gt;Node4</title>
<path fill="none" stroke="midnightblue" d="M854.26,-246.44C782.03,-236.1 661.48,-218.83 591.63,-208.82"/>
<polygon fill="midnightblue" stroke="midnightblue" points="592.09,-205.36 581.7,-207.4 591.1,-212.29 592.09,-205.36"/>
</g>
<!-- Node3&#45;&gt;Node10 -->
<g id="edge35" class="edge">
<title>Node3&#45;&gt;Node10</title>
<path fill="none" stroke="midnightblue" d="M900.72,-246.26C867.46,-224.49 777.71,-166.49 700,-123 680.11,-111.87 657.47,-100.35 638.77,-91.12"/>
<polygon fill="midnightblue" stroke="midnightblue" points="640.18,-87.92 629.66,-86.66 637.1,-94.2 640.18,-87.92"/>
</g>
<!-- Node3&#45;&gt;Node11 -->
<g id="edge36" class="edge">
<title>Node3&#45;&gt;Node11</title>
<path fill="none" stroke="midnightblue" d="M842.22,-252.38C679.46,-245.29 287.93,-221.54 177,-154 151.75,-138.63 132.84,-109.13 122.61,-90.16"/>
<polygon fill="midnightblue" stroke="midnightblue" points="125.64,-88.38 117.95,-81.09 119.41,-91.58 125.64,-88.38"/>
</g>
<!-- Node3&#45;&gt;Node15 -->
<g id="edge30" class="edge">
<title>Node3&#45;&gt;Node15</title>
<path fill="none" stroke="midnightblue" d="M910.98,-246.47C907.89,-237.48 903.11,-222.88 900,-210 889.88,-168.14 882.25,-118.14 878.52,-91.47"/>
<polygon fill="midnightblue" stroke="midnightblue" points="881.95,-90.7 877.13,-81.27 875.01,-91.65 881.95,-90.7"/>
</g>
<!-- Node3&#45;&gt;Node16 -->
<g id="edge31" class="edge">
<title>Node3&#45;&gt;Node16</title>
<path fill="none" stroke="midnightblue" d="M912.3,-246.46C908.19,-223.1 900.39,-157.57 934,-123 963.52,-92.64 1079.07,-80.3 1152.19,-75.45"/>
<polygon fill="midnightblue" stroke="midnightblue" points="1152.45,-78.94 1162.21,-74.82 1152.01,-71.96 1152.45,-78.94"/>
</g>
<!-- Node3&#45;&gt;Node17 -->
<g id="edge32" class="edge">
<title>Node3&#45;&gt;Node17</title>
<path fill="none" stroke="midnightblue" d="M979.6,-246.45C1080.55,-232.01 1267.32,-199.83 1315,-154 1330.4,-139.2 1336.05,-115.08 1338.06,-96.91"/>
<polygon fill="midnightblue" stroke="midnightblue" points="1341.57,-97 1338.89,-86.75 1334.59,-96.44 1341.57,-97"/>
</g>
<!-- Node3&#45;&gt;Node18 -->
<g id="edge33" class="edge">
<title>Node3&#45;&gt;Node18</title>
<path fill="none" stroke="midnightblue" d="M921.14,-246.32C935.86,-228.42 969.96,-186.97 991.09,-161.28"/>
<polygon fill="midnightblue" stroke="midnightblue" points="993.8,-163.49 997.45,-153.55 988.39,-159.05 993.8,-163.49"/>
</g>
<!-- Node3&#45;&gt;Node19 -->
<g id="edge34" class="edge">
<title>Node3&#45;&gt;Node19</title>
<path fill="none" stroke="midnightblue" d="M936.92,-246.32C990.6,-225.99 1124.56,-175.26 1186.56,-151.78"/>
<polygon fill="midnightblue" stroke="midnightblue" points="1188.11,-154.94 1196.23,-148.12 1185.63,-148.39 1188.11,-154.94"/>
</g>
<!-- Node5 -->
<g id="node5" class="node">
<title>Node5</title>
<g id="a_node5"><a xlink:href="GSDUtil_8hpp.html" target="_top" xlink:title=" ">
<polygon fill="none" stroke="black" points="294,-129 294,-148 366,-148 366,-129 294,-129"/>
<text text-anchor="middle" x="330" y="-136" font-family="Helvetica,sans-Serif" font-size="10.00">GSDUtil.hpp</text>
</a>
</g>
</g>
<!-- Node4&#45;&gt;Node5 -->
<g id="edge4" class="edge">
<title>Node4&#45;&gt;Node5</title>
<path fill="none" stroke="midnightblue" d="M500.49,-190.48C466.6,-181.46 415.27,-166.76 371,-154 367.55,-153.01 363.97,-151.97 360.41,-150.93"/>
<polygon fill="midnightblue" stroke="midnightblue" points="361.17,-147.51 350.59,-148.03 359.18,-154.22 361.17,-147.51"/>
</g>
<!-- Node6 -->
<g id="node6" class="node">
<title>Node6</title>
<g id="a_node6"><a xlink:href="gsd_8h.html" target="_top" xlink:title="Declare GSD data types and C API.">
<polygon fill="none" stroke="black" points="347.5,-62 347.5,-81 388.5,-81 388.5,-62 347.5,-62"/>
<text text-anchor="middle" x="368" y="-69" font-family="Helvetica,sans-Serif" font-size="10.00">gsd.h</text>
</a>
</g>
</g>
<!-- Node4&#45;&gt;Node6 -->
<g id="edge15" class="edge">
<title>Node4&#45;&gt;Node6</title>
<path fill="none" stroke="midnightblue" d="M516.56,-190.38C498.49,-182.28 471.85,-169.17 451,-154 424.2,-134.49 397.64,-106.5 382.04,-88.92"/>
<polygon fill="midnightblue" stroke="midnightblue" points="384.52,-86.43 375.3,-81.2 379.25,-91.04 384.52,-86.43"/>
</g>
<!-- Node4&#45;&gt;Node10 -->
<g id="edge16" class="edge">
<title>Node4&#45;&gt;Node10</title>
<path fill="none" stroke="midnightblue" d="M541.33,-190.31C550.88,-171.13 574.02,-124.66 588.22,-96.15"/>
<polygon fill="midnightblue" stroke="midnightblue" points="591.51,-97.4 592.83,-86.89 585.24,-94.28 591.51,-97.4"/>
</g>
<!-- Node4&#45;&gt;Node11 -->
<g id="edge17" class="edge">
<title>Node4&#45;&gt;Node11</title>
<path fill="none" stroke="midnightblue" d="M492.22,-192.16C487.42,-191.43 482.61,-190.7 478,-190 371.35,-173.87 338.75,-192.52 238,-154 196.39,-138.09 154.42,-106.49 131.56,-87.66"/>
<polygon fill="midnightblue" stroke="midnightblue" points="133.68,-84.87 123.77,-81.12 129.18,-90.23 133.68,-84.87"/>
</g>
<!-- Node4&#45;&gt;Node12 -->
<g id="edge26" class="edge">
<title>Node4&#45;&gt;Node12</title>
<path fill="none" stroke="midnightblue" d="M534.87,-190.31C529.89,-169.99 517.41,-119.05 510.6,-91.28"/>
<polygon fill="midnightblue" stroke="midnightblue" points="513.93,-90.14 508.15,-81.26 507.13,-91.8 513.93,-90.14"/>
</g>
<!-- Node4&#45;&gt;Node13 -->
<g id="edge27" class="edge">
<title>Node4&#45;&gt;Node13</title>
<path fill="none" stroke="midnightblue" d="M492.24,-191.89C417.67,-179.97 275.64,-156.99 271,-154 247.39,-138.79 231.41,-109.47 223,-90.45"/>
<polygon fill="midnightblue" stroke="midnightblue" points="226.19,-88.99 219.11,-81.11 219.73,-91.68 226.19,-88.99"/>
</g>
<!-- Node4&#45;&gt;Node14 -->
<g id="edge28" class="edge">
<title>Node4&#45;&gt;Node14</title>
<path fill="none" stroke="midnightblue" d="M492.39,-191.77C420.92,-180.09 288.35,-157.96 285,-154 270.38,-136.76 273.62,-109.3 278.12,-91.09"/>
<polygon fill="midnightblue" stroke="midnightblue" points="281.52,-91.92 280.86,-81.35 274.78,-90.02 281.52,-91.92"/>
</g>
<!-- Node4&#45;&gt;Node15 -->
<g id="edge18" class="edge">
<title>Node4&#45;&gt;Node15</title>
<path fill="none" stroke="midnightblue" d="M554.89,-190.29C585.97,-175.36 652.16,-144.42 710,-123 751.47,-107.64 799.97,-93.29 833.8,-83.84"/>
<polygon fill="midnightblue" stroke="midnightblue" points="835.1,-87.11 843.8,-81.07 833.23,-80.37 835.1,-87.11"/>
</g>
<!-- Node4&#45;&gt;Node16 -->
<g id="edge19" class="edge">
<title>Node4&#45;&gt;Node16</title>
<path fill="none" stroke="midnightblue" d="M564.43,-190.46C615.18,-174.93 727.39,-141.96 824,-123 938.93,-100.44 1074.96,-85.44 1152.2,-78"/>
<polygon fill="midnightblue" stroke="midnightblue" points="1152.61,-81.47 1162.24,-77.04 1151.95,-74.5 1152.61,-81.47"/>
</g>
<!-- Node4&#45;&gt;Node17 -->
<g id="edge20" class="edge">
<title>Node4&#45;&gt;Node17</title>
<path fill="none" stroke="midnightblue" d="M581.56,-190.59C629.21,-181.59 706.96,-166.86 774,-154 845.14,-140.36 862.36,-133.7 934,-123 1081.49,-100.97 1122.88,-111.41 1273.17,-87.19"/>
<polygon fill="midnightblue" stroke="midnightblue" points="1273.92,-90.61 1283.23,-85.54 1272.79,-83.7 1273.92,-90.61"/>
</g>
<!-- Node4&#45;&gt;Node18 -->
<g id="edge21" class="edge">
<title>Node4&#45;&gt;Node18</title>
<path fill="none" stroke="midnightblue" d="M581.83,-193.35C662.48,-183.18 832.86,-161.7 932.35,-149.16"/>
<polygon fill="midnightblue" stroke="midnightblue" points="932.86,-152.63 942.34,-147.9 931.99,-145.68 932.86,-152.63"/>
</g>
<!-- Node4&#45;&gt;Node19 -->
<g id="edge22" class="edge">
<title>Node4&#45;&gt;Node19</title>
<path fill="none" stroke="midnightblue" d="M581.79,-195.72C675.33,-188.77 898.27,-171.77 1085,-154 1100.72,-152.5 1117.47,-150.79 1133.61,-149.07"/>
<polygon fill="midnightblue" stroke="midnightblue" points="1133.99,-152.55 1143.56,-148.01 1133.24,-145.59 1133.99,-152.55"/>
</g>
<!-- Node20 -->
<g id="node20" class="node">
<title>Node20</title>
<g id="a_node20"><a xlink:title=" ">
<polygon fill="none" stroke="#bfbfbf" points="460.5,-129 460.5,-148 505.5,-148 505.5,-129 460.5,-129"/>
<text text-anchor="middle" x="483" y="-136" font-family="Helvetica,sans-Serif" font-size="10.00">thread</text>
</a>
</g>
</g>
<!-- Node4&#45;&gt;Node20 -->
<g id="edge29" class="edge">
<title>Node4&#45;&gt;Node20</title>
<path fill="none" stroke="midnightblue" d="M529.26,-190.48C521,-181.37 507.72,-166.74 497.51,-155.48"/>
<polygon fill="midnightblue" stroke="midnightblue" points="500.03,-153.06 490.72,-148.01 494.85,-157.77 500.03,-153.06"/>
</g>
<!-- Node5&#45;&gt;Node4 -->
<g id="edge9" class="edge">
<title>Node5&#45;&gt;Node4</title>
<path fill="none" stroke="midnightblue" d="M366.19,-147.49C373.81,-149.61 381.71,-151.9 389,-154 428.78,-165.47 474.25,-178.49 504.31,-187.57"/>
<polygon fill="midnightblue" stroke="midnightblue" points="503.3,-190.92 513.88,-190.48 505.34,-184.22 503.3,-190.92"/>
</g>
<!-- Node5&#45;&gt;Node6 -->
<g id="edge5" class="edge">
<title>Node5&#45;&gt;Node6</title>
<path fill="none" stroke="midnightblue" d="M335.12,-128.73C340.94,-118.79 350.56,-102.34 357.89,-89.79"/>
<polygon fill="midnightblue" stroke="midnightblue" points="360.93,-91.53 362.96,-81.13 354.89,-87.99 360.93,-91.53"/>
</g>
<!-- Node5&#45;&gt;Node10 -->
<g id="edge10" class="edge">
<title>Node5&#45;&gt;Node10</title>
<path fill="none" stroke="midnightblue" d="M365.86,-128.99C407.85,-119 479.5,-101.92 541,-87 541.1,-86.98 541.2,-86.95 541.3,-86.93"/>
<polygon fill="midnightblue" stroke="midnightblue" points="541.86,-90.39 550.75,-84.63 540.21,-83.59 541.86,-90.39"/>
</g>
<!-- Node5&#45;&gt;Node11 -->
<g id="edge11" class="edge">
<title>Node5&#45;&gt;Node11</title>
<path fill="none" stroke="midnightblue" d="M301.32,-128.87C262.96,-117.33 194.87,-96.84 152.2,-84"/>
<polygon fill="midnightblue" stroke="midnightblue" points="153.04,-80.59 142.46,-81.06 151.02,-87.3 153.04,-80.59"/>
</g>
<!-- Node5&#45;&gt;Node12 -->
<g id="edge12" class="edge">
<title>Node5&#45;&gt;Node12</title>
<path fill="none" stroke="midnightblue" d="M353.37,-128.87C384.09,-117.52 438.24,-97.52 473.1,-84.65"/>
<polygon fill="midnightblue" stroke="midnightblue" points="474.64,-87.81 482.81,-81.06 472.22,-81.24 474.64,-87.81"/>
</g>
<!-- Node5&#45;&gt;Node13 -->
<g id="edge13" class="edge">
<title>Node5&#45;&gt;Node13</title>
<path fill="none" stroke="midnightblue" d="M314.63,-128.73C295.48,-117.82 262.56,-99.05 240.06,-86.22"/>
<polygon fill="midnightblue" stroke="midnightblue" points="241.55,-83.04 231.13,-81.13 238.08,-89.12 241.55,-83.04"/>
</g>
<!-- Node5&#45;&gt;Node14 -->
<g id="edge14" class="edge">
<title>Node5&#45;&gt;Node14</title>
<path fill="none" stroke="midnightblue" d="M323.8,-128.73C316.69,-118.7 304.89,-102.01 295.98,-89.42"/>
<polygon fill="midnightblue" stroke="midnightblue" points="298.74,-87.27 290.11,-81.13 293.03,-91.31 298.74,-87.27"/>
</g>
<!-- Node7 -->
<g id="node7" class="node">
<title>Node7</title>
<g id="a_node7"><a xlink:title=" ">
<polygon fill="none" stroke="#bfbfbf" points="268.5,-0.5 268.5,-19.5 325.5,-19.5 325.5,-0.5 268.5,-0.5"/>
<text text-anchor="middle" x="297" y="-7.5" font-family="Helvetica,sans-Serif" font-size="10.00">stdbool.h</text>
</a>
</g>
</g>
<!-- Node6&#45;&gt;Node7 -->
<g id="edge6" class="edge">
<title>Node6&#45;&gt;Node7</title>
<path fill="none" stroke="midnightblue" d="M357.83,-61.98C346.65,-52.61 328.48,-37.38 314.91,-26.01"/>
<polygon fill="midnightblue" stroke="midnightblue" points="317.07,-23.25 307.15,-19.51 312.57,-28.61 317.07,-23.25"/>
</g>
<!-- Node8 -->
<g id="node8" class="node">
<title>Node8</title>
<g id="a_node8"><a xlink:title=" ">
<polygon fill="none" stroke="#bfbfbf" points="343.5,-0.5 343.5,-19.5 392.5,-19.5 392.5,-0.5 343.5,-0.5"/>
<text text-anchor="middle" x="368" y="-7.5" font-family="Helvetica,sans-Serif" font-size="10.00">stdint.h</text>
</a>
</g>
</g>
<!-- Node6&#45;&gt;Node8 -->
<g id="edge7" class="edge">
<title>Node6&#45;&gt;Node8</title>
<path fill="none" stroke="midnightblue" d="M368,-61.98C368,-53.58 368,-40.48 368,-29.66"/>
<polygon fill="midnightblue" stroke="midnightblue" points="371.5,-29.51 368,-19.51 364.5,-29.51 371.5,-29.51"/>
</g>
<!-- Node9 -->
<g id="node9" class="node">
<title>Node9</title>
<g id="a_node9"><a xlink:title=" ">
<polygon fill="none" stroke="#bfbfbf" points="410.5,-0.5 410.5,-19.5 459.5,-19.5 459.5,-0.5 410.5,-0.5"/>
<text text-anchor="middle" x="435" y="-7.5" font-family="Helvetica,sans-Serif" font-size="10.00">string.h</text>
</a>
</g>
</g>
<!-- Node6&#45;&gt;Node9 -->
<g id="edge8" class="edge">
<title>Node6&#45;&gt;Node9</title>
<path fill="none" stroke="midnightblue" d="M377.6,-61.98C388.05,-52.7 404.97,-37.67 417.74,-26.33"/>
<polygon fill="midnightblue" stroke="midnightblue" points="420.27,-28.77 425.42,-19.51 415.62,-23.53 420.27,-28.77"/>
</g>
<!-- Node19&#45;&gt;Node15 -->
<g id="edge23" class="edge">
<title>Node19&#45;&gt;Node15</title>
<path fill="none" stroke="midnightblue" d="M1173.81,-128.94C1111.26,-117.08 998.4,-95.7 931.03,-82.93"/>
<polygon fill="midnightblue" stroke="midnightblue" points="931.5,-79.45 921.02,-81.03 930.19,-86.33 931.5,-79.45"/>
</g>
<!-- Node19&#45;&gt;Node16 -->
<g id="edge24" class="edge">
<title>Node19&#45;&gt;Node16</title>
<path fill="none" stroke="midnightblue" d="M1218.33,-128.73C1217.59,-119.18 1216.39,-103.62 1215.44,-91.28"/>
<polygon fill="midnightblue" stroke="midnightblue" points="1218.92,-90.83 1214.66,-81.13 1211.94,-91.37 1218.92,-90.83"/>
</g>
<!-- Node19&#45;&gt;Node17 -->
<g id="edge25" class="edge">
<title>Node19&#45;&gt;Node17</title>
<path fill="none" stroke="midnightblue" d="M1235.18,-128.73C1252.73,-119.23 1281.26,-103.78 1303.97,-91.47"/>
<polygon fill="midnightblue" stroke="midnightblue" points="1305.86,-94.43 1312.99,-86.59 1302.53,-88.27 1305.86,-94.43"/>
</g>
<!-- Node22 -->
<g id="node22" class="node">
<title>Node22</title>
<g id="a_node22"><a xlink:title=" ">
<polygon fill="none" stroke="#bfbfbf" points="1438.5,-246.5 1438.5,-265.5 1485.5,-265.5 1485.5,-246.5 1438.5,-246.5"/>
<text text-anchor="middle" x="1462" y="-253.5" font-family="Helvetica,sans-Serif" font-size="10.00">chrono</text>
</a>
</g>
</g>
<!-- Node21&#45;&gt;Node22 -->
<g id="edge38" class="edge">
<title>Node21&#45;&gt;Node22</title>
<path fill="none" stroke="midnightblue" d="M1479.53,-302.08C1476.69,-294.77 1472.57,-284.18 1469.04,-275.1"/>
<polygon fill="midnightblue" stroke="midnightblue" points="1472.29,-273.8 1465.4,-265.75 1465.77,-276.34 1472.29,-273.8"/>
</g>
<!-- Node23 -->
<g id="node23" class="node">
<title>Node23</title>
<g id="a_node23"><a xlink:title=" ">
<polygon fill="none" stroke="#bfbfbf" points="1504,-246.5 1504,-265.5 1548,-265.5 1548,-246.5 1504,-246.5"/>
<text text-anchor="middle" x="1526" y="-253.5" font-family="Helvetica,sans-Serif" font-size="10.00">cmath</text>
</a>
</g>
</g>
<!-- Node21&#45;&gt;Node23 -->
<g id="edge39" class="edge">
<title>Node21&#45;&gt;Node23</title>
<path fill="none" stroke="midnightblue" d="M1490.1,-302.08C1496.24,-294.38 1505.27,-283.03 1512.74,-273.65"/>
<polygon fill="midnightblue" stroke="midnightblue" points="1515.54,-275.75 1519.03,-265.75 1510.06,-271.39 1515.54,-275.75"/>
</g>
<!-- Node24 -->
<g id="node24" class="node">
<title>Node24</title>
<g id="a_node24"><a xlink:title=" ">
<polygon fill="none" stroke="#bfbfbf" points="1566,-246.5 1566,-265.5 1618,-265.5 1618,-246.5 1566,-246.5"/>
<text text-anchor="middle" x="1592" y="-253.5" font-family="Helvetica,sans-Serif" font-size="10.00">iomanip</text>
</a>
</g>
</g>
<!-- Node21&#45;&gt;Node24 -->
<g id="edge40" class="edge">
<title>Node21&#45;&gt;Node24</title>
<path fill="none" stroke="midnightblue" d="M1500.51,-302.32C1518.07,-293.62 1545.33,-280.12 1565.53,-270.11"/>
<polygon fill="midnightblue" stroke="midnightblue" points="1567.12,-273.23 1574.53,-265.65 1564.02,-266.96 1567.12,-273.23"/>
</g>
<!-- Node25 -->
<g id="node25" class="node">
<title>Node25</title>
<g id="a_node25"><a xlink:title=" ">
<polygon fill="none" stroke="#bfbfbf" points="1288.5,-246.5 1288.5,-265.5 1343.5,-265.5 1343.5,-246.5 1288.5,-246.5"/>
<text text-anchor="middle" x="1316" y="-253.5" font-family="Helvetica,sans-Serif" font-size="10.00">iostream</text>
</a>
</g>
</g>
<!-- Node21&#45;&gt;Node25 -->
<g id="edge41" class="edge">
<title>Node21&#45;&gt;Node25</title>
<path fill="none" stroke="midnightblue" d="M1456.54,-302.44C1428.32,-293.32 1383.46,-278.81 1352.03,-268.65"/>
<polygon fill="midnightblue" stroke="midnightblue" points="1352.93,-265.26 1342.34,-265.52 1350.78,-271.92 1352.93,-265.26"/>
</g>
<!-- Node26&#45;&gt;Node3 -->
<g id="edge43" class="edge">
<title>Node26&#45;&gt;Node3</title>
<path fill="none" stroke="midnightblue" d="M1071.37,-302.44C1039.5,-293.24 988.67,-278.56 953.44,-268.39"/>
<polygon fill="midnightblue" stroke="midnightblue" points="954.07,-264.93 943.49,-265.52 952.13,-271.65 954.07,-264.93"/>
</g>
<!-- Node26&#45;&gt;Node4 -->
<g id="edge44" class="edge">
<title>Node26&#45;&gt;Node4</title>
<path fill="none" stroke="midnightblue" d="M1055.72,-307.73C988.14,-302.3 857.15,-289.59 748,-266 683.62,-252.09 610.6,-227.57 569.55,-212.95"/>
<polygon fill="midnightblue" stroke="midnightblue" points="570.66,-209.63 560.07,-209.54 568.3,-216.22 570.66,-209.63"/>
</g>
<!-- Node26&#45;&gt;Node10 -->
<g id="edge50" class="edge">
<title>Node26&#45;&gt;Node10</title>
<path fill="none" stroke="midnightblue" d="M1055.94,-310.45C1001.12,-308.23 906.89,-299.34 834,-266 741.42,-223.66 655.35,-135.08 618.66,-94.12"/>
<polygon fill="midnightblue" stroke="midnightblue" points="621.24,-91.76 611.99,-86.59 616,-96.4 621.24,-91.76"/>
</g>
<!-- Node26&#45;&gt;Node11 -->
<g id="edge51" class="edge">
<title>Node26&#45;&gt;Node11</title>
<path fill="none" stroke="midnightblue" d="M1055.72,-309.84C930.38,-305.69 569.14,-287.36 281,-210 216.28,-192.62 186.93,-202.8 141,-154 124.76,-136.74 118.28,-109.48 115.7,-91.3"/>
<polygon fill="midnightblue" stroke="midnightblue" points="119.17,-90.86 114.54,-81.33 112.21,-91.66 119.17,-90.86"/>
</g>
<!-- Node26&#45;&gt;Node15 -->
<g id="edge45" class="edge">
<title>Node26&#45;&gt;Node15</title>
<path fill="none" stroke="midnightblue" d="M1103.43,-302.19C1110.98,-272.72 1130.87,-176.44 1085,-123 1065.77,-100.6 990.53,-86.6 935.83,-79.18"/>
<polygon fill="midnightblue" stroke="midnightblue" points="936.24,-75.7 925.87,-77.86 935.33,-82.64 936.24,-75.7"/>
</g>
<!-- Node26&#45;&gt;Node16 -->
<g id="edge46" class="edge">
<title>Node26&#45;&gt;Node16</title>
<path fill="none" stroke="midnightblue" d="M1124.69,-302.45C1171.82,-283.97 1276.12,-235.26 1315,-154 1320.95,-141.57 1322.24,-134.72 1315,-123 1303.31,-104.08 1282.15,-92.01 1262.2,-84.44"/>
<polygon fill="midnightblue" stroke="midnightblue" points="1263.15,-81.06 1252.56,-81.07 1260.85,-87.67 1263.15,-81.06"/>
</g>
<!-- Node26&#45;&gt;Node17 -->
<g id="edge47" class="edge">
<title>Node26&#45;&gt;Node17</title>
<path fill="none" stroke="midnightblue" d="M1136.13,-302.45C1162.93,-295.07 1200.19,-282.91 1230,-266 1263.76,-246.85 1271.7,-239.43 1297,-210 1315.98,-187.92 1321.79,-181.62 1331,-154 1337.14,-135.59 1339,-113.64 1339.41,-97.16"/>
<polygon fill="midnightblue" stroke="midnightblue" points="1342.91,-96.76 1339.49,-86.74 1335.91,-96.71 1342.91,-96.76"/>
</g>
<!-- Node26&#45;&gt;Node18 -->
<g id="edge48" class="edge">
<title>Node26&#45;&gt;Node18</title>
<path fill="none" stroke="midnightblue" d="M1097.21,-302.3C1088.34,-282.15 1065.19,-230.85 1042,-190 1036.7,-180.67 1030.36,-170.72 1024.66,-162.15"/>
<polygon fill="midnightblue" stroke="midnightblue" points="1027.52,-160.12 1019.02,-153.79 1021.71,-164.03 1027.52,-160.12"/>
</g>
<!-- Node26&#45;&gt;Node19 -->
<g id="edge49" class="edge">
<title>Node26&#45;&gt;Node19</title>
<path fill="none" stroke="midnightblue" d="M1114.59,-302.33C1126.65,-294.12 1144.15,-280.85 1156,-266 1183.32,-231.77 1203.17,-183.77 1212.69,-157.85"/>
<polygon fill="midnightblue" stroke="midnightblue" points="1216.07,-158.79 1216.12,-148.2 1209.47,-156.44 1216.07,-158.79"/>
</g>
<!-- Node26&#45;&gt;Node25 -->
<g id="edge52" class="edge">
<title>Node26&#45;&gt;Node25</title>
<path fill="none" stroke="midnightblue" d="M1135.07,-302.44C1174.15,-292.63 1238.02,-276.59 1278.49,-266.42"/>
<polygon fill="midnightblue" stroke="midnightblue" points="1279.4,-269.8 1288.25,-263.97 1277.69,-263.01 1279.4,-269.8"/>
</g>
</g>
</svg>
