<?xml version="1.0" encoding="UTF-8" standalone="no"?>
<!DOCTYPE svg PUBLIC "-//W3C//DTD SVG 1.1//EN"
 "http://www.w3.org/Graphics/SVG/1.1/DTD/svg11.dtd">
<!-- Generated by graphviz version 2.43.0 (0)
 -->
<!-- Title: src/simulation_system/Engine.cpp Pages: 1 -->
<svg width="1689pt" height="442pt"
 viewBox="0.00 0.00 1688.50 442.00" xmlns="http://www.w3.org/2000/svg" xmlns:xlink="http://www.w3.org/1999/xlink">
<g id="graph0" class="graph" transform="scale(1 1) rotate(0) translate(4 438)">
<title>src/simulation_system/Engine.cpp</title>
<!-- Node1 -->
<g id="node1" class="node">
<title>Node1</title>
<g id="a_node1"><a xlink:title=" ">
<polygon fill="#bfbfbf" stroke="black" points="939.5,-403.5 939.5,-433.5 1054.5,-433.5 1054.5,-403.5 939.5,-403.5"/>
<text text-anchor="start" x="947.5" y="-421.5" font-family="Helvetica,sans-Serif" font-size="10.00">src/simulation_system</text>
<text text-anchor="middle" x="997" y="-410.5" font-family="Helvetica,sans-Serif" font-size="10.00">/Engine.cpp</text>
</a>
</g>
</g>
<!-- Node2 -->
<g id="node2" class="node">
<title>Node2</title>
<g id="a_node2"><a xlink:href="Engine_8hpp.html" target="_top" xlink:title=" ">
<polygon fill="none" stroke="black" points="964.5,-347.5 964.5,-366.5 1029.5,-366.5 1029.5,-347.5 964.5,-347.5"/>
<text text-anchor="middle" x="997" y="-354.5" font-family="Helvetica,sans-Serif" font-size="10.00">Engine.hpp</text>
</a>
</g>
</g>
<!-- Node1&#45;&gt;Node2 -->
<g id="edge1" class="edge">
<title>Node1&#45;&gt;Node2</title>
<path fill="none" stroke="midnightblue" d="M997,-403.4C997,-395.47 997,-385.46 997,-376.86"/>
<polygon fill="midnightblue" stroke="midnightblue" points="1000.5,-376.66 997,-366.66 993.5,-376.66 1000.5,-376.66"/>
</g>
<!-- Node3 -->
<g id="node3" class="node">
<title>Node3</title>
<g id="a_node3"><a xlink:href="SystemData_8hpp.html" target="_top" xlink:title=" ">
<polygon fill="none" stroke="black" points="841,-179.5 841,-198.5 931,-198.5 931,-179.5 841,-179.5"/>
<text text-anchor="middle" x="886" y="-186.5" font-family="Helvetica,sans-Serif" font-size="10.00">SystemData.hpp</text>
</a>
</g>
</g>
<!-- Node2&#45;&gt;Node3 -->
<g id="edge2" class="edge">
<title>Node2&#45;&gt;Node3</title>
<path fill="none" stroke="midnightblue" d="M993.07,-347.34C983.56,-326.84 957.96,-274.12 929,-235 921.3,-224.6 911.4,-214.09 903.04,-205.84"/>
<polygon fill="midnightblue" stroke="midnightblue" points="905.25,-203.11 895.61,-198.7 900.4,-208.16 905.25,-203.11"/>
</g>
<!-- Node9 -->
<g id="node9" class="node">
<title>Node9</title>
<g id="a_node9"><a xlink:title=" ">
<polygon fill="none" stroke="#bfbfbf" points="1328,-56.5 1328,-86.5 1426,-86.5 1426,-56.5 1328,-56.5"/>
<text text-anchor="start" x="1336" y="-74.5" font-family="Helvetica,sans-Serif" font-size="10.00">spdlog/sinks/basic</text>
<text text-anchor="middle" x="1377" y="-63.5" font-family="Helvetica,sans-Serif" font-size="10.00">_file_sink.h</text>
</a>
</g>
</g>
<!-- Node2&#45;&gt;Node9 -->
<g id="edge62" class="edge">
<title>Node2&#45;&gt;Node9</title>
<path fill="none" stroke="midnightblue" d="M1029.7,-356.47C1084.86,-356.07 1198.81,-350.07 1285,-311 1320.35,-294.98 1333.21,-288.96 1352,-255 1380.06,-204.28 1380.92,-133.9 1379.03,-97.12"/>
<polygon fill="midnightblue" stroke="midnightblue" points="1382.5,-96.6 1378.38,-86.84 1375.52,-97.04 1382.5,-96.6"/>
</g>
<!-- Node10 -->
<g id="node10" class="node">
<title>Node10</title>
<g id="a_node10"><a xlink:title=" ">
<polygon fill="none" stroke="#bfbfbf" points="1486.5,-62 1486.5,-81 1571.5,-81 1571.5,-62 1486.5,-62"/>
<text text-anchor="middle" x="1529" y="-69" font-family="Helvetica,sans-Serif" font-size="10.00">spdlog/spdlog.h</text>
</a>
</g>
</g>
<!-- Node2&#45;&gt;Node10 -->
<g id="edge63" class="edge">
<title>Node2&#45;&gt;Node10</title>
<path fill="none" stroke="midnightblue" d="M1029.5,-356.49C1106.2,-356.88 1303.93,-353.31 1462,-311 1529.44,-292.95 1605,-315.81 1605,-246 1605,-246 1605,-246 1605,-188 1605,-146.31 1570.02,-108.03 1547.52,-87.72"/>
<polygon fill="midnightblue" stroke="midnightblue" points="1549.73,-85 1539.89,-81.08 1545.14,-90.28 1549.73,-85"/>
</g>
<!-- Node11 -->
<g id="node11" class="node">
<title>Node11</title>
<g id="a_node11"><a xlink:title=" ">
<polygon fill="none" stroke="#bfbfbf" points="1033,-62 1033,-81 1085,-81 1085,-62 1033,-62"/>
<text text-anchor="middle" x="1059" y="-69" font-family="Helvetica,sans-Serif" font-size="10.00">memory</text>
</a>
</g>
</g>
<!-- Node2&#45;&gt;Node11 -->
<g id="edge65" class="edge">
<title>Node2&#45;&gt;Node11</title>
<path fill="none" stroke="midnightblue" d="M1009.15,-347.42C1030.03,-331.85 1072.01,-296.64 1088,-255 1110,-197.71 1082.93,-124.13 1067.84,-90.6"/>
<polygon fill="midnightblue" stroke="midnightblue" points="1070.84,-88.77 1063.44,-81.19 1064.5,-91.73 1070.84,-88.77"/>
</g>
<!-- Node12 -->
<g id="node12" class="node">
<title>Node12</title>
<g id="a_node12"><a xlink:title=" ">
<polygon fill="none" stroke="#bfbfbf" points="1129.5,-62 1129.5,-81 1188.5,-81 1188.5,-62 1129.5,-62"/>
<text text-anchor="middle" x="1159" y="-69" font-family="Helvetica,sans-Serif" font-size="10.00">stdexcept</text>
</a>
</g>
</g>
<!-- Node2&#45;&gt;Node12 -->
<g id="edge66" class="edge">
<title>Node2&#45;&gt;Node12</title>
<path fill="none" stroke="midnightblue" d="M1029.79,-352.55C1115.39,-342.63 1339,-310.55 1339,-246 1339,-246 1339,-246 1339,-188 1339,-152.94 1241.07,-106.76 1189.67,-84.94"/>
<polygon fill="midnightblue" stroke="midnightblue" points="1190.93,-81.67 1180.36,-81.04 1188.22,-88.13 1190.93,-81.67"/>
</g>
<!-- Node13 -->
<g id="node13" class="node">
<title>Node13</title>
<g id="a_node13"><a xlink:title=" ">
<polygon fill="none" stroke="#bfbfbf" points="1206.5,-62 1206.5,-81 1247.5,-81 1247.5,-62 1206.5,-62"/>
<text text-anchor="middle" x="1227" y="-69" font-family="Helvetica,sans-Serif" font-size="10.00">string</text>
</a>
</g>
</g>
<!-- Node2&#45;&gt;Node13 -->
<g id="edge67" class="edge">
<title>Node2&#45;&gt;Node13</title>
<path fill="none" stroke="midnightblue" d="M1029.76,-355.49C1117.99,-353.65 1358.69,-345.52 1429,-311 1464.84,-293.4 1491,-285.92 1491,-246 1491,-246 1491,-246 1491,-188 1491,-137.56 1327.2,-94.92 1257.65,-79.09"/>
<polygon fill="midnightblue" stroke="midnightblue" points="1258.24,-75.63 1247.72,-76.86 1256.71,-82.46 1258.24,-75.63"/>
</g>
<!-- Node14 -->
<g id="node14" class="node">
<title>Node14</title>
<g id="a_node14"><a xlink:title=" ">
<polygon fill="none" stroke="#bfbfbf" points="27.5,-62 27.5,-81 124.5,-81 124.5,-62 27.5,-62"/>
<text text-anchor="middle" x="76" y="-69" font-family="Helvetica,sans-Serif" font-size="10.00">eigen3/Eigen/Core</text>
</a>
</g>
</g>
<!-- Node2&#45;&gt;Node14 -->
<g id="edge57" class="edge">
<title>Node2&#45;&gt;Node14</title>
<path fill="none" stroke="midnightblue" d="M964.43,-356.18C826.09,-356.66 286.85,-355.57 124,-311 63.98,-294.57 0,-308.22 0,-246 0,-246 0,-246 0,-188 0,-146.31 34.98,-108.03 57.48,-87.72"/>
<polygon fill="midnightblue" stroke="midnightblue" points="59.86,-90.28 65.11,-81.08 55.27,-85 59.86,-90.28"/>
</g>
<!-- Node15 -->
<g id="node15" class="node">
<title>Node15</title>
<g id="a_node15"><a xlink:title=" ">
<polygon fill="none" stroke="#bfbfbf" points="215.5,-62 215.5,-81 316.5,-81 316.5,-62 215.5,-62"/>
<text text-anchor="middle" x="266" y="-69" font-family="Helvetica,sans-Serif" font-size="10.00">eigen3/Eigen/Eigen</text>
</a>
</g>
</g>
<!-- Node2&#45;&gt;Node15 -->
<g id="edge58" class="edge">
<title>Node2&#45;&gt;Node15</title>
<path fill="none" stroke="midnightblue" d="M964.42,-355.53C811.35,-353.15 169.86,-341.41 141,-311 74.37,-240.78 197.31,-128.12 246.74,-87.61"/>
<polygon fill="midnightblue" stroke="midnightblue" points="249.21,-90.12 254.79,-81.12 244.81,-84.67 249.21,-90.12"/>
</g>
<!-- Node16 -->
<g id="node16" class="node">
<title>Node16</title>
<g id="a_node16"><a xlink:title=" ">
<polygon fill="none" stroke="#bfbfbf" points="454,-56.5 454,-86.5 564,-86.5 564,-56.5 454,-56.5"/>
<text text-anchor="start" x="462" y="-74.5" font-family="Helvetica,sans-Serif" font-size="10.00">eigen3/unsupported</text>
<text text-anchor="middle" x="509" y="-63.5" font-family="Helvetica,sans-Serif" font-size="10.00">/Eigen/CXX11/Tensor</text>
</a>
</g>
</g>
<!-- Node2&#45;&gt;Node16 -->
<g id="edge59" class="edge">
<title>Node2&#45;&gt;Node16</title>
<path fill="none" stroke="midnightblue" d="M964.37,-353.37C853.65,-344.04 493.63,-310.01 393,-255 332.05,-221.68 310.15,-207.35 284,-143 280.65,-134.76 278.45,-129.94 284,-123 303.75,-98.33 384.7,-84.88 443.87,-78.2"/>
<polygon fill="midnightblue" stroke="midnightblue" points="444.34,-81.67 453.9,-77.1 443.58,-74.71 444.34,-81.67"/>
</g>
<!-- Node17 -->
<g id="node17" class="node">
<title>Node17</title>
<g id="a_node17"><a xlink:title=" ">
<polygon fill="none" stroke="#bfbfbf" points="595.5,-56.5 595.5,-86.5 726.5,-86.5 726.5,-56.5 595.5,-56.5"/>
<text text-anchor="start" x="603.5" y="-74.5" font-family="Helvetica,sans-Serif" font-size="10.00">eigen3/unsupported</text>
<text text-anchor="middle" x="661" y="-63.5" font-family="Helvetica,sans-Serif" font-size="10.00">/Eigen/CXX11/ThreadPool</text>
</a>
</g>
</g>
<!-- Node2&#45;&gt;Node17 -->
<g id="edge60" class="edge">
<title>Node2&#45;&gt;Node17</title>
<path fill="none" stroke="midnightblue" d="M986.58,-347.2C940.37,-308.22 753.33,-150.4 685.62,-93.27"/>
<polygon fill="midnightblue" stroke="midnightblue" points="687.51,-90.29 677.61,-86.51 682.99,-95.64 687.51,-90.29"/>
</g>
<!-- Node18 -->
<g id="node18" class="node">
<title>Node18</title>
<g id="a_node18"><a xlink:href="helper__eigenTensorConversion_8hpp.html" target="_top" xlink:title=" ">
<polygon fill="none" stroke="black" points="293.5,-123.5 293.5,-142.5 462.5,-142.5 462.5,-123.5 293.5,-123.5"/>
<text text-anchor="middle" x="378" y="-130.5" font-family="Helvetica,sans-Serif" font-size="10.00">helper_eigenTensorConversion.hpp</text>
</a>
</g>
</g>
<!-- Node2&#45;&gt;Node18 -->
<g id="edge61" class="edge">
<title>Node2&#45;&gt;Node18</title>
<path fill="none" stroke="midnightblue" d="M964.27,-355.49C812.72,-352.98 185.26,-340.81 157,-311 89.55,-239.84 261.38,-172.11 340.56,-145.67"/>
<polygon fill="midnightblue" stroke="midnightblue" points="341.78,-148.96 350.19,-142.51 339.59,-142.3 341.78,-148.96"/>
</g>
<!-- Node21 -->
<g id="node21" class="node">
<title>Node21</title>
<g id="a_node21"><a xlink:href="PotentialHydrodynamics_8hpp.html" target="_top" xlink:title=" ">
<polygon fill="none" stroke="black" points="651,-235.5 651,-254.5 793,-254.5 793,-235.5 651,-235.5"/>
<text text-anchor="middle" x="722" y="-242.5" font-family="Helvetica,sans-Serif" font-size="10.00">PotentialHydrodynamics.hpp</text>
</a>
</g>
</g>
<!-- Node2&#45;&gt;Node21 -->
<g id="edge32" class="edge">
<title>Node2&#45;&gt;Node21</title>
<path fill="none" stroke="midnightblue" d="M975.42,-347.37C926.93,-327.97 809.17,-280.87 752.92,-258.37"/>
<polygon fill="midnightblue" stroke="midnightblue" points="754.06,-255.06 743.48,-254.59 751.46,-261.56 754.06,-255.06"/>
</g>
<!-- Node22 -->
<g id="node22" class="node">
<title>Node22</title>
<g id="a_node22"><a xlink:href="ProgressBar_8hpp.html" target="_top" xlink:title=" ">
<polygon fill="none" stroke="black" points="1135.5,-291.5 1135.5,-310.5 1224.5,-310.5 1224.5,-291.5 1135.5,-291.5"/>
<text text-anchor="middle" x="1180" y="-298.5" font-family="Helvetica,sans-Serif" font-size="10.00">ProgressBar.hpp</text>
</a>
</g>
</g>
<!-- Node2&#45;&gt;Node22 -->
<g id="edge41" class="edge">
<title>Node2&#45;&gt;Node22</title>
<path fill="none" stroke="midnightblue" d="M1026,-347.44C1057.18,-338.24 1106.93,-323.56 1141.41,-313.39"/>
<polygon fill="midnightblue" stroke="midnightblue" points="1142.54,-316.7 1151.14,-310.52 1140.56,-309.99 1142.54,-316.7"/>
</g>
<!-- Node27 -->
<g id="node27" class="node">
<title>Node27</title>
<g id="a_node27"><a xlink:href="RungeKutta4_8hpp.html" target="_top" xlink:title=" ">
<polygon fill="none" stroke="black" points="676,-291.5 676,-310.5 768,-310.5 768,-291.5 676,-291.5"/>
<text text-anchor="middle" x="722" y="-298.5" font-family="Helvetica,sans-Serif" font-size="10.00">RungeKutta4.hpp</text>
</a>
</g>
</g>
<!-- Node2&#45;&gt;Node27 -->
<g id="edge46" class="edge">
<title>Node2&#45;&gt;Node27</title>
<path fill="none" stroke="midnightblue" d="M964.37,-349.59C917.76,-340.44 831.57,-323.52 775.53,-312.51"/>
<polygon fill="midnightblue" stroke="midnightblue" points="775.92,-309.02 765.43,-310.53 774.57,-315.89 775.92,-309.02"/>
</g>
<!-- Node28 -->
<g id="node28" class="node">
<title>Node28</title>
<g id="a_node28"><a xlink:title=" ">
<polygon fill="none" stroke="#bfbfbf" points="1633.5,-291.5 1633.5,-310.5 1680.5,-310.5 1680.5,-291.5 1633.5,-291.5"/>
<text text-anchor="middle" x="1657" y="-298.5" font-family="Helvetica,sans-Serif" font-size="10.00">math.h</text>
</a>
</g>
</g>
<!-- Node2&#45;&gt;Node28 -->
<g id="edge64" class="edge">
<title>Node2&#45;&gt;Node28</title>
<path fill="none" stroke="midnightblue" d="M1029.58,-355.48C1122.3,-353.61 1395.34,-345.35 1619,-311 1620.47,-310.77 1621.96,-310.52 1623.46,-310.25"/>
<polygon fill="midnightblue" stroke="midnightblue" points="1624.31,-313.65 1633.4,-308.21 1622.9,-306.79 1624.31,-313.65"/>
</g>
<!-- Node4 -->
<g id="node4" class="node">
<title>Node4</title>
<g id="a_node4"><a xlink:href="GSDUtil_8hpp.html" target="_top" xlink:title=" ">
<polygon fill="none" stroke="black" points="1125,-123.5 1125,-142.5 1197,-142.5 1197,-123.5 1125,-123.5"/>
<text text-anchor="middle" x="1161" y="-130.5" font-family="Helvetica,sans-Serif" font-size="10.00">GSDUtil.hpp</text>
</a>
</g>
</g>
<!-- Node3&#45;&gt;Node4 -->
<g id="edge3" class="edge">
<title>Node3&#45;&gt;Node4</title>
<path fill="none" stroke="midnightblue" d="M924.49,-179.44C974.45,-169.19 1061.32,-152.14 1114.79,-142.09"/>
<polygon fill="midnightblue" stroke="midnightblue" points="1115.51,-145.52 1124.7,-140.24 1114.22,-138.64 1115.51,-145.52"/>
</g>
<!-- Node5 -->
<g id="node5" class="node">
<title>Node5</title>
<g id="a_node5"><a xlink:href="gsd_8h.html" target="_top" xlink:title="Declare GSD data types and C API.">
<polygon fill="none" stroke="black" points="882.5,-62 882.5,-81 923.5,-81 923.5,-62 882.5,-62"/>
<text text-anchor="middle" x="903" y="-69" font-family="Helvetica,sans-Serif" font-size="10.00">gsd.h</text>
</a>
</g>
</g>
<!-- Node3&#45;&gt;Node5 -->
<g id="edge14" class="edge">
<title>Node3&#45;&gt;Node5</title>
<path fill="none" stroke="midnightblue" d="M871.41,-179.46C853.28,-167.66 825.98,-145.3 837,-123 844.92,-106.98 860.62,-94.64 874.73,-86.17"/>
<polygon fill="midnightblue" stroke="midnightblue" points="876.65,-89.1 883.67,-81.16 873.23,-82.99 876.65,-89.1"/>
</g>
<!-- Node3&#45;&gt;Node9 -->
<g id="edge26" class="edge">
<title>Node3&#45;&gt;Node9</title>
<path fill="none" stroke="midnightblue" d="M931,-183.76C1010.29,-176.01 1171.63,-158.88 1226,-143 1268.35,-130.63 1313.83,-107.98 1343.68,-91.69"/>
<polygon fill="midnightblue" stroke="midnightblue" points="1345.74,-94.55 1352.8,-86.64 1342.35,-88.42 1345.74,-94.55"/>
</g>
<!-- Node3&#45;&gt;Node10 -->
<g id="edge27" class="edge">
<title>Node3&#45;&gt;Node10</title>
<path fill="none" stroke="midnightblue" d="M931.24,-184.73C1002.64,-179.1 1145.59,-165.91 1265,-143 1347.16,-127.24 1441.4,-99.74 1492.1,-84.15"/>
<polygon fill="midnightblue" stroke="midnightblue" points="1493.41,-87.4 1501.93,-81.1 1491.35,-80.72 1493.41,-87.4"/>
</g>
<!-- Node3&#45;&gt;Node11 -->
<g id="edge28" class="edge">
<title>Node3&#45;&gt;Node11</title>
<path fill="none" stroke="midnightblue" d="M879.82,-179.49C870.94,-166.12 856.98,-139.96 870,-123 888.49,-98.92 973.33,-83.84 1022.83,-76.94"/>
<polygon fill="midnightblue" stroke="midnightblue" points="1023.38,-80.4 1032.82,-75.59 1022.45,-73.46 1023.38,-80.4"/>
</g>
<!-- Node3&#45;&gt;Node12 -->
<g id="edge29" class="edge">
<title>Node3&#45;&gt;Node12</title>
<path fill="none" stroke="midnightblue" d="M924.91,-179.5C956.62,-171.89 1002.19,-159.42 1040,-143 1076.36,-127.21 1115.31,-102.47 1138.39,-86.89"/>
<polygon fill="midnightblue" stroke="midnightblue" points="1140.42,-89.74 1146.7,-81.21 1136.47,-83.96 1140.42,-89.74"/>
</g>
<!-- Node3&#45;&gt;Node13 -->
<g id="edge30" class="edge">
<title>Node3&#45;&gt;Node13</title>
<path fill="none" stroke="midnightblue" d="M931.07,-182.96C1016.77,-173.2 1195.67,-151.88 1206,-143 1220.65,-130.4 1225.32,-108.07 1226.68,-91.91"/>
<polygon fill="midnightblue" stroke="midnightblue" points="1230.2,-91.62 1227.19,-81.47 1223.21,-91.28 1230.2,-91.62"/>
</g>
<!-- Node3&#45;&gt;Node14 -->
<g id="edge15" class="edge">
<title>Node3&#45;&gt;Node14</title>
<path fill="none" stroke="midnightblue" d="M840.91,-188.48C740.04,-188.73 488.89,-184.68 284,-143 218.21,-129.62 144.52,-101.29 104.92,-84.91"/>
<polygon fill="midnightblue" stroke="midnightblue" points="106.19,-81.65 95.62,-81.02 103.49,-88.11 106.19,-81.65"/>
</g>
<!-- Node3&#45;&gt;Node15 -->
<g id="edge16" class="edge">
<title>Node3&#45;&gt;Node15</title>
<path fill="none" stroke="midnightblue" d="M840.91,-179.6C729.79,-158.9 442.99,-105.47 321.6,-82.86"/>
<polygon fill="midnightblue" stroke="midnightblue" points="322.23,-79.41 311.76,-81.02 320.95,-86.3 322.23,-79.41"/>
</g>
<!-- Node3&#45;&gt;Node16 -->
<g id="edge17" class="edge">
<title>Node3&#45;&gt;Node16</title>
<path fill="none" stroke="midnightblue" d="M857.97,-179.41C795.99,-160.42 646.31,-114.57 564.57,-89.52"/>
<polygon fill="midnightblue" stroke="midnightblue" points="565.53,-86.16 554.94,-86.58 563.48,-92.85 565.53,-86.16"/>
</g>
<!-- Node3&#45;&gt;Node17 -->
<g id="edge18" class="edge">
<title>Node3&#45;&gt;Node17</title>
<path fill="none" stroke="midnightblue" d="M869.09,-179.32C832.8,-160.69 746.75,-116.52 697.42,-91.19"/>
<polygon fill="midnightblue" stroke="midnightblue" points="698.86,-88 688.36,-86.55 695.66,-94.23 698.86,-88"/>
</g>
<!-- Node3&#45;&gt;Node18 -->
<g id="edge19" class="edge">
<title>Node3&#45;&gt;Node18</title>
<path fill="none" stroke="midnightblue" d="M840.92,-183.21C757.44,-174.33 577.37,-155.19 468.05,-143.57"/>
<polygon fill="midnightblue" stroke="midnightblue" points="468.34,-140.08 458.03,-142.51 467.6,-147.04 468.34,-140.08"/>
</g>
<!-- Node19 -->
<g id="node19" class="node">
<title>Node19</title>
<g id="a_node19"><a xlink:title=" ">
<polygon fill="none" stroke="#bfbfbf" points="879,-123.5 879,-142.5 969,-142.5 969,-123.5 879,-123.5"/>
<text text-anchor="middle" x="924" y="-130.5" font-family="Helvetica,sans-Serif" font-size="10.00">spdlog/fmt/ostr.h</text>
</a>
</g>
</g>
<!-- Node3&#45;&gt;Node19 -->
<g id="edge25" class="edge">
<title>Node3&#45;&gt;Node19</title>
<path fill="none" stroke="midnightblue" d="M892.27,-179.08C897.64,-171.46 905.52,-160.26 912.08,-150.94"/>
<polygon fill="midnightblue" stroke="midnightblue" points="914.95,-152.94 917.84,-142.75 909.22,-148.91 914.95,-152.94"/>
</g>
<!-- Node20 -->
<g id="node20" class="node">
<title>Node20</title>
<g id="a_node20"><a xlink:title=" ">
<polygon fill="none" stroke="#bfbfbf" points="987,-123.5 987,-142.5 1031,-142.5 1031,-123.5 987,-123.5"/>
<text text-anchor="middle" x="1009" y="-130.5" font-family="Helvetica,sans-Serif" font-size="10.00">thread</text>
</a>
</g>
</g>
<!-- Node3&#45;&gt;Node20 -->
<g id="edge31" class="edge">
<title>Node3&#45;&gt;Node20</title>
<path fill="none" stroke="midnightblue" d="M905.49,-179.44C925.64,-170.6 957.32,-156.69 980.33,-146.59"/>
<polygon fill="midnightblue" stroke="midnightblue" points="981.85,-149.74 989.6,-142.52 979.04,-143.33 981.85,-149.74"/>
</g>
<!-- Node4&#45;&gt;Node3 -->
<g id="edge4" class="edge">
<title>Node4&#45;&gt;Node3</title>
<path fill="none" stroke="midnightblue" d="M1124.7,-142.11C1077.74,-151.77 995.73,-167.89 941.09,-178.23"/>
<polygon fill="midnightblue" stroke="midnightblue" points="940.4,-174.8 931.22,-180.09 941.7,-181.68 940.4,-174.8"/>
</g>
<!-- Node4&#45;&gt;Node5 -->
<g id="edge5" class="edge">
<title>Node4&#45;&gt;Node5</title>
<path fill="none" stroke="midnightblue" d="M1124.85,-123.66C1073.69,-111.86 981.07,-90.5 933.3,-79.49"/>
<polygon fill="midnightblue" stroke="midnightblue" points="934.08,-76.08 923.55,-77.24 932.5,-82.9 934.08,-76.08"/>
</g>
<!-- Node4&#45;&gt;Node9 -->
<g id="edge9" class="edge">
<title>Node4&#45;&gt;Node9</title>
<path fill="none" stroke="midnightblue" d="M1191.95,-123.48C1224.71,-114.45 1277.21,-99.99 1317.93,-88.77"/>
<polygon fill="midnightblue" stroke="midnightblue" points="1319.04,-92.1 1327.75,-86.07 1317.18,-85.35 1319.04,-92.1"/>
</g>
<!-- Node4&#45;&gt;Node10 -->
<g id="edge10" class="edge">
<title>Node4&#45;&gt;Node10</title>
<path fill="none" stroke="midnightblue" d="M1197.29,-126.13C1262.58,-115.58 1400.09,-93.34 1475.95,-81.08"/>
<polygon fill="midnightblue" stroke="midnightblue" points="1476.92,-84.47 1486.24,-79.41 1475.8,-77.56 1476.92,-84.47"/>
</g>
<!-- Node4&#45;&gt;Node11 -->
<g id="edge11" class="edge">
<title>Node4&#45;&gt;Node11</title>
<path fill="none" stroke="midnightblue" d="M1146.39,-123.48C1129.65,-113.71 1102,-97.58 1082.28,-86.08"/>
<polygon fill="midnightblue" stroke="midnightblue" points="1083.99,-83.02 1073.59,-81.01 1080.46,-89.07 1083.99,-83.02"/>
</g>
<!-- Node4&#45;&gt;Node12 -->
<g id="edge12" class="edge">
<title>Node4&#45;&gt;Node12</title>
<path fill="none" stroke="midnightblue" d="M1160.71,-123.48C1160.43,-115.08 1159.99,-101.98 1159.63,-91.16"/>
<polygon fill="midnightblue" stroke="midnightblue" points="1163.12,-90.89 1159.29,-81.01 1156.12,-91.12 1163.12,-90.89"/>
</g>
<!-- Node4&#45;&gt;Node13 -->
<g id="edge13" class="edge">
<title>Node4&#45;&gt;Node13</title>
<path fill="none" stroke="midnightblue" d="M1170.46,-123.48C1180.75,-114.2 1197.42,-99.17 1209.99,-87.83"/>
<polygon fill="midnightblue" stroke="midnightblue" points="1212.48,-90.3 1217.56,-81.01 1207.79,-85.11 1212.48,-90.3"/>
</g>
<!-- Node6 -->
<g id="node6" class="node">
<title>Node6</title>
<g id="a_node6"><a xlink:title=" ">
<polygon fill="none" stroke="#bfbfbf" points="804,-0.5 804,-19.5 860,-19.5 860,-0.5 804,-0.5"/>
<text text-anchor="middle" x="832" y="-7.5" font-family="Helvetica,sans-Serif" font-size="10.00">stdbool.h</text>
</a>
</g>
</g>
<!-- Node5&#45;&gt;Node6 -->
<g id="edge6" class="edge">
<title>Node5&#45;&gt;Node6</title>
<path fill="none" stroke="midnightblue" d="M892.83,-61.98C881.65,-52.61 863.48,-37.38 849.91,-26.01"/>
<polygon fill="midnightblue" stroke="midnightblue" points="852.07,-23.25 842.15,-19.51 847.57,-28.61 852.07,-23.25"/>
</g>
<!-- Node7 -->
<g id="node7" class="node">
<title>Node7</title>
<g id="a_node7"><a xlink:title=" ">
<polygon fill="none" stroke="#bfbfbf" points="878.5,-0.5 878.5,-19.5 927.5,-19.5 927.5,-0.5 878.5,-0.5"/>
<text text-anchor="middle" x="903" y="-7.5" font-family="Helvetica,sans-Serif" font-size="10.00">stdint.h</text>
</a>
</g>
</g>
<!-- Node5&#45;&gt;Node7 -->
<g id="edge7" class="edge">
<title>Node5&#45;&gt;Node7</title>
<path fill="none" stroke="midnightblue" d="M903,-61.98C903,-53.58 903,-40.48 903,-29.66"/>
<polygon fill="midnightblue" stroke="midnightblue" points="906.5,-29.51 903,-19.51 899.5,-29.51 906.5,-29.51"/>
</g>
<!-- Node8 -->
<g id="node8" class="node">
<title>Node8</title>
<g id="a_node8"><a xlink:title=" ">
<polygon fill="none" stroke="#bfbfbf" points="945.5,-0.5 945.5,-19.5 994.5,-19.5 994.5,-0.5 945.5,-0.5"/>
<text text-anchor="middle" x="970" y="-7.5" font-family="Helvetica,sans-Serif" font-size="10.00">string.h</text>
</a>
</g>
</g>
<!-- Node5&#45;&gt;Node8 -->
<g id="edge8" class="edge">
<title>Node5&#45;&gt;Node8</title>
<path fill="none" stroke="midnightblue" d="M912.6,-61.98C923.05,-52.7 939.97,-37.67 952.74,-26.33"/>
<polygon fill="midnightblue" stroke="midnightblue" points="955.27,-28.77 960.42,-19.51 950.62,-23.53 955.27,-28.77"/>
</g>
<!-- Node18&#45;&gt;Node14 -->
<g id="edge20" class="edge">
<title>Node18&#45;&gt;Node14</title>
<path fill="none" stroke="midnightblue" d="M334.73,-123.48C280.57,-112.8 187.83,-94.53 129.34,-83.01"/>
<polygon fill="midnightblue" stroke="midnightblue" points="129.68,-79.51 119.19,-81.01 128.32,-86.38 129.68,-79.51"/>
</g>
<!-- Node18&#45;&gt;Node15 -->
<g id="edge21" class="edge">
<title>Node18&#45;&gt;Node15</title>
<path fill="none" stroke="midnightblue" d="M361.95,-123.48C343.41,-113.62 312.66,-97.29 290.98,-85.77"/>
<polygon fill="midnightblue" stroke="midnightblue" points="292.49,-82.61 282.02,-81.01 289.21,-88.79 292.49,-82.61"/>
</g>
<!-- Node18&#45;&gt;Node16 -->
<g id="edge22" class="edge">
<title>Node18&#45;&gt;Node16</title>
<path fill="none" stroke="midnightblue" d="M396.77,-123.48C415.51,-114.96 444.89,-101.62 468.89,-90.72"/>
<polygon fill="midnightblue" stroke="midnightblue" points="470.47,-93.85 478.13,-86.52 467.57,-87.47 470.47,-93.85"/>
</g>
<!-- Node18&#45;&gt;Node17 -->
<g id="edge23" class="edge">
<title>Node18&#45;&gt;Node17</title>
<path fill="none" stroke="midnightblue" d="M418.55,-123.48C462,-114.34 531.95,-99.63 585.58,-88.36"/>
<polygon fill="midnightblue" stroke="midnightblue" points="586.32,-91.78 595.39,-86.29 584.88,-84.93 586.32,-91.78"/>
</g>
<!-- Node18&#45;&gt;Node18 -->
<g id="edge24" class="edge">
<title>Node18&#45;&gt;Node18</title>
<path fill="none" stroke="midnightblue" d="M421.45,-142.5C451.25,-145.33 480.5,-142.16 480.5,-133 480.5,-124.88 457.5,-121.47 431.51,-122.77"/>
<polygon fill="midnightblue" stroke="midnightblue" points="431.17,-119.29 421.45,-123.5 431.68,-126.27 431.17,-119.29"/>
</g>
<!-- Node21&#45;&gt;Node3 -->
<g id="edge33" class="edge">
<title>Node21&#45;&gt;Node3</title>
<path fill="none" stroke="midnightblue" d="M747.99,-235.44C775.7,-226.32 819.75,-211.81 850.62,-201.65"/>
<polygon fill="midnightblue" stroke="midnightblue" points="851.73,-204.97 860.14,-198.52 849.54,-198.32 851.73,-204.97"/>
</g>
<!-- Node21&#45;&gt;Node9 -->
<g id="edge39" class="edge">
<title>Node21&#45;&gt;Node9</title>
<path fill="none" stroke="midnightblue" d="M766.82,-235.44C810.99,-226.83 880.34,-212.9 940,-199 974.44,-190.98 982.34,-185.99 1017,-179 1126.18,-156.97 1160.49,-181.5 1265,-143 1297.17,-131.15 1329.88,-109.17 1351.58,-92.89"/>
<polygon fill="midnightblue" stroke="midnightblue" points="1353.79,-95.6 1359.61,-86.74 1349.54,-90.04 1353.79,-95.6"/>
</g>
<!-- Node21&#45;&gt;Node10 -->
<g id="edge40" class="edge">
<title>Node21&#45;&gt;Node10</title>
<path fill="none" stroke="midnightblue" d="M786.49,-235.5C893.6,-220.75 1114.53,-187.69 1298,-143 1368.83,-125.75 1449.99,-99.42 1494.79,-84.29"/>
<polygon fill="midnightblue" stroke="midnightblue" points="1495.96,-87.59 1504.31,-81.06 1493.71,-80.96 1495.96,-87.59"/>
</g>
<!-- Node21&#45;&gt;Node14 -->
<g id="edge34" class="edge">
<title>Node21&#45;&gt;Node14</title>
<path fill="none" stroke="midnightblue" d="M650.97,-240.7C575.93,-235.97 454.65,-224.79 353,-199 287.24,-182.31 272.71,-171.19 211,-143 171.37,-124.9 126.83,-100.89 100.12,-86.08"/>
<polygon fill="midnightblue" stroke="midnightblue" points="101.56,-82.88 91.13,-81.07 98.16,-89 101.56,-82.88"/>
</g>
<!-- Node21&#45;&gt;Node15 -->
<g id="edge35" class="edge">
<title>Node21&#45;&gt;Node15</title>
<path fill="none" stroke="midnightblue" d="M650.98,-236.69C540.58,-223.89 335.13,-193.82 284,-143 270.45,-129.53 266.63,-107.36 265.77,-91.48"/>
<polygon fill="midnightblue" stroke="midnightblue" points="269.26,-91.17 265.57,-81.24 262.26,-91.3 269.26,-91.17"/>
</g>
<!-- Node21&#45;&gt;Node16 -->
<g id="edge36" class="edge">
<title>Node21&#45;&gt;Node16</title>
<path fill="none" stroke="midnightblue" d="M711.44,-235.5C679.13,-209.48 581,-130.47 534.26,-92.84"/>
<polygon fill="midnightblue" stroke="midnightblue" points="536.41,-90.08 526.43,-86.53 532.02,-95.53 536.41,-90.08"/>
</g>
<!-- Node21&#45;&gt;Node17 -->
<g id="edge37" class="edge">
<title>Node21&#45;&gt;Node17</title>
<path fill="none" stroke="midnightblue" d="M718.89,-235.26C709.82,-209.76 683.16,-134.81 669.41,-96.15"/>
<polygon fill="midnightblue" stroke="midnightblue" points="672.71,-94.97 666.06,-86.72 666.11,-97.32 672.71,-94.97"/>
</g>
<!-- Node21&#45;&gt;Node18 -->
<g id="edge38" class="edge">
<title>Node21&#45;&gt;Node18</title>
<path fill="none" stroke="midnightblue" d="M692.11,-235.43C661.58,-226.59 612.85,-212.28 571,-199 515.16,-181.28 450.75,-159.27 412.26,-145.94"/>
<polygon fill="midnightblue" stroke="midnightblue" points="413.18,-142.56 402.59,-142.59 410.89,-149.17 413.18,-142.56"/>
</g>
<!-- Node23 -->
<g id="node23" class="node">
<title>Node23</title>
<g id="a_node23"><a xlink:title=" ">
<polygon fill="none" stroke="#bfbfbf" points="1135,-235.5 1135,-254.5 1181,-254.5 1181,-235.5 1135,-235.5"/>
<text text-anchor="middle" x="1158" y="-242.5" font-family="Helvetica,sans-Serif" font-size="10.00">chrono</text>
</a>
</g>
</g>
<!-- Node22&#45;&gt;Node23 -->
<g id="edge42" class="edge">
<title>Node22&#45;&gt;Node23</title>
<path fill="none" stroke="midnightblue" d="M1176.37,-291.08C1173.39,-283.77 1169.07,-273.18 1165.38,-264.1"/>
<polygon fill="midnightblue" stroke="midnightblue" points="1168.58,-262.69 1161.57,-254.75 1162.1,-265.33 1168.58,-262.69"/>
</g>
<!-- Node24 -->
<g id="node24" class="node">
<title>Node24</title>
<g id="a_node24"><a xlink:title=" ">
<polygon fill="none" stroke="#bfbfbf" points="1199,-235.5 1199,-254.5 1243,-254.5 1243,-235.5 1199,-235.5"/>
<text text-anchor="middle" x="1221" y="-242.5" font-family="Helvetica,sans-Serif" font-size="10.00">cmath</text>
</a>
</g>
</g>
<!-- Node22&#45;&gt;Node24 -->
<g id="edge43" class="edge">
<title>Node22&#45;&gt;Node24</title>
<path fill="none" stroke="midnightblue" d="M1186.77,-291.08C1192.56,-283.46 1201.06,-272.26 1208.14,-262.94"/>
<polygon fill="midnightblue" stroke="midnightblue" points="1211.1,-264.83 1214.36,-254.75 1205.52,-260.6 1211.1,-264.83"/>
</g>
<!-- Node25 -->
<g id="node25" class="node">
<title>Node25</title>
<g id="a_node25"><a xlink:title=" ">
<polygon fill="none" stroke="#bfbfbf" points="1261,-235.5 1261,-254.5 1311,-254.5 1311,-235.5 1261,-235.5"/>
<text text-anchor="middle" x="1286" y="-242.5" font-family="Helvetica,sans-Serif" font-size="10.00">iomanip</text>
</a>
</g>
</g>
<!-- Node22&#45;&gt;Node25 -->
<g id="edge44" class="edge">
<title>Node22&#45;&gt;Node25</title>
<path fill="none" stroke="midnightblue" d="M1197.03,-291.32C1214.03,-282.66 1240.38,-269.24 1259.99,-259.25"/>
<polygon fill="midnightblue" stroke="midnightblue" points="1261.69,-262.31 1269.01,-254.65 1258.51,-256.08 1261.69,-262.31"/>
</g>
<!-- Node26 -->
<g id="node26" class="node">
<title>Node26</title>
<g id="a_node26"><a xlink:title=" ">
<polygon fill="none" stroke="#bfbfbf" points="1025,-235.5 1025,-254.5 1079,-254.5 1079,-235.5 1025,-235.5"/>
<text text-anchor="middle" x="1052" y="-242.5" font-family="Helvetica,sans-Serif" font-size="10.00">iostream</text>
</a>
</g>
</g>
<!-- Node22&#45;&gt;Node26 -->
<g id="edge45" class="edge">
<title>Node22&#45;&gt;Node26</title>
<path fill="none" stroke="midnightblue" d="M1159.72,-291.44C1138.65,-282.56 1105.48,-268.56 1081.51,-258.45"/>
<polygon fill="midnightblue" stroke="midnightblue" points="1082.76,-255.18 1072.19,-254.52 1080.04,-261.63 1082.76,-255.18"/>
</g>
<!-- Node27&#45;&gt;Node3 -->
<g id="edge48" class="edge">
<title>Node27&#45;&gt;Node3</title>
<path fill="none" stroke="midnightblue" d="M738.97,-291.38C755.46,-282.79 781.02,-268.91 802,-255 825.82,-239.21 851.58,-218.71 868.21,-205"/>
<polygon fill="midnightblue" stroke="midnightblue" points="870.57,-207.59 876.01,-198.5 866.09,-202.21 870.57,-207.59"/>
</g>
<!-- Node27&#45;&gt;Node9 -->
<g id="edge54" class="edge">
<title>Node27&#45;&gt;Node9</title>
<path fill="none" stroke="midnightblue" d="M750.44,-291.43C792.75,-278.74 874.83,-254.37 945,-235 1101.29,-191.87 1155.08,-219.56 1298,-143 1321.18,-130.58 1343.13,-110.03 1357.98,-94.31"/>
<polygon fill="midnightblue" stroke="midnightblue" points="1360.87,-96.33 1365.06,-86.6 1355.72,-91.59 1360.87,-96.33"/>
</g>
<!-- Node27&#45;&gt;Node10 -->
<g id="edge55" class="edge">
<title>Node27&#45;&gt;Node10</title>
<path fill="none" stroke="midnightblue" d="M760.52,-291.46C837.37,-274.44 1003.45,-237.66 1016,-235 1094.96,-218.29 1116.3,-220.85 1194,-199 1264.11,-179.28 1279.84,-168.66 1348,-143 1400.94,-123.07 1462.21,-98.99 1498.16,-84.76"/>
<polygon fill="midnightblue" stroke="midnightblue" points="1499.6,-87.95 1507.61,-81.01 1497.02,-81.44 1499.6,-87.95"/>
</g>
<!-- Node27&#45;&gt;Node14 -->
<g id="edge49" class="edge">
<title>Node27&#45;&gt;Node14</title>
<path fill="none" stroke="midnightblue" d="M675.76,-298.38C611.16,-295.06 490.82,-285.05 393,-255 285.84,-222.08 262,-202.51 167,-143 139.93,-126.04 111.19,-102.78 93.41,-87.69"/>
<polygon fill="midnightblue" stroke="midnightblue" points="95.49,-84.86 85.62,-81 90.93,-90.17 95.49,-84.86"/>
</g>
<!-- Node27&#45;&gt;Node15 -->
<g id="edge50" class="edge">
<title>Node27&#45;&gt;Node15</title>
<path fill="none" stroke="midnightblue" d="M675.8,-296.08C623.38,-290.68 535.86,-278.81 464,-255 368.76,-223.44 316.83,-230.65 268,-143 259.26,-127.32 259.88,-106.47 262,-91.52"/>
<polygon fill="midnightblue" stroke="midnightblue" points="265.49,-91.88 263.78,-81.42 258.6,-90.66 265.49,-91.88"/>
</g>
<!-- Node27&#45;&gt;Node16 -->
<g id="edge51" class="edge">
<title>Node27&#45;&gt;Node16</title>
<path fill="none" stroke="midnightblue" d="M695.63,-291.39C675.95,-284.01 649.25,-271.89 630,-255 577.01,-208.51 537.3,-133.62 519.43,-95.86"/>
<polygon fill="midnightblue" stroke="midnightblue" points="522.56,-94.27 515.17,-86.68 516.21,-97.22 522.56,-94.27"/>
</g>
<!-- Node27&#45;&gt;Node17 -->
<g id="edge52" class="edge">
<title>Node27&#45;&gt;Node17</title>
<path fill="none" stroke="midnightblue" d="M691.75,-291.49C673.87,-284.73 652.7,-273.29 642,-255 612.6,-204.73 634.88,-133.19 650.02,-96.39"/>
<polygon fill="midnightblue" stroke="midnightblue" points="653.33,-97.55 654.05,-86.98 646.9,-94.8 653.33,-97.55"/>
</g>
<!-- Node27&#45;&gt;Node18 -->
<g id="edge53" class="edge">
<title>Node27&#45;&gt;Node18</title>
<path fill="none" stroke="midnightblue" d="M675.78,-298.85C627.87,-295.89 552.15,-286.14 495,-255 447.72,-229.23 407.88,-177.87 389.27,-151.11"/>
<polygon fill="midnightblue" stroke="midnightblue" points="392.11,-149.05 383.6,-142.75 386.32,-152.99 392.11,-149.05"/>
</g>
<!-- Node27&#45;&gt;Node21 -->
<g id="edge47" class="edge">
<title>Node27&#45;&gt;Node21</title>
<path fill="none" stroke="midnightblue" d="M722,-291.08C722,-284.01 722,-273.86 722,-264.99"/>
<polygon fill="midnightblue" stroke="midnightblue" points="725.5,-264.75 722,-254.75 718.5,-264.75 725.5,-264.75"/>
</g>
<!-- Node27&#45;&gt;Node26 -->
<g id="edge56" class="edge">
<title>Node27&#45;&gt;Node26</title>
<path fill="none" stroke="midnightblue" d="M768.23,-292.43C834.3,-281.62 954.41,-261.97 1014.98,-252.06"/>
<polygon fill="midnightblue" stroke="midnightblue" points="1015.56,-255.51 1024.87,-250.44 1014.43,-248.6 1015.56,-255.51"/>
</g>
</g>
</svg>
