<?xml version="1.0" encoding="UTF-8" standalone="no"?>
<!DOCTYPE svg PUBLIC "-//W3C//DTD SVG 1.1//EN"
 "http://www.w3.org/Graphics/SVG/1.1/DTD/svg11.dtd">
<!-- Generated by graphviz version 2.49.1 (20210923.0004)
 -->
<!-- Title: src/simulation_system/engine.cpp Pages: 1 -->
<svg width="1274pt" height="453pt"
 viewBox="0.00 0.00 1273.50 453.00" xmlns="http://www.w3.org/2000/svg" xmlns:xlink="http://www.w3.org/1999/xlink">
<g id="graph0" class="graph" transform="scale(1 1) rotate(0) translate(4 449)">
<title>src/simulation_system/engine.cpp</title>
<!-- Node1 -->
<g id="node1" class="node">
<title>Node1</title>
<g id="a_node1"><a xlink:title=" ">
<polygon fill="#bfbfbf" stroke="black" points="595.5,-414.5 595.5,-444.5 710.5,-444.5 710.5,-414.5 595.5,-414.5"/>
<text text-anchor="start" x="603.5" y="-432.5" font-family="Helvetica,sans-Serif" font-size="10.00">src/simulation_system</text>
<text text-anchor="middle" x="653" y="-421.5" font-family="Helvetica,sans-Serif" font-size="10.00">/engine.cpp</text>
</a>
</g>
</g>
<!-- Node2 -->
<g id="node2" class="node">
<title>Node2</title>
<g id="a_node2"><a xlink:href="engine_8hpp.html" target="_top" xlink:title=" ">
<polygon fill="none" stroke="black" points="620,-358.5 620,-377.5 686,-377.5 686,-358.5 620,-358.5"/>
<text text-anchor="middle" x="653" y="-365.5" font-family="Helvetica,sans-Serif" font-size="10.00">engine.hpp</text>
</a>
</g>
</g>
<!-- Node1&#45;&gt;Node2 -->
<g id="edge1" class="edge">
<title>Node1&#45;&gt;Node2</title>
<path fill="none" stroke="midnightblue" d="M653,-414.4C653,-406.47 653,-396.46 653,-387.86"/>
<polygon fill="midnightblue" stroke="midnightblue" points="656.5,-387.66 653,-377.66 649.5,-387.66 656.5,-387.66"/>
</g>
<!-- Node3 -->
<g id="node3" class="node">
<title>Node3</title>
<g id="a_node3"><a xlink:href="potentialHydrodynamics_8hpp.html" target="_top" xlink:title=" ">
<polygon fill="none" stroke="black" points="480.5,-246.5 480.5,-265.5 623.5,-265.5 623.5,-246.5 480.5,-246.5"/>
<text text-anchor="middle" x="552" y="-253.5" font-family="Helvetica,sans-Serif" font-size="10.00">potentialHydrodynamics.hpp</text>
</a>
</g>
</g>
<!-- Node2&#45;&gt;Node3 -->
<g id="edge2" class="edge">
<title>Node2&#45;&gt;Node3</title>
<path fill="none" stroke="midnightblue" d="M641.1,-358.46C629.64,-349.93 612.16,-336.09 599,-322 585.08,-307.09 571.71,-287.97 562.81,-274.33"/>
<polygon fill="midnightblue" stroke="midnightblue" points="565.51,-272.05 557.18,-265.51 559.61,-275.82 565.51,-272.05"/>
</g>
<!-- Node4 -->
<g id="node4" class="node">
<title>Node4</title>
<g id="a_node4"><a xlink:href="systemData_8hpp.html" target="_top" xlink:title=" ">
<polygon fill="none" stroke="black" points="334.5,-190.5 334.5,-209.5 423.5,-209.5 423.5,-190.5 334.5,-190.5"/>
<text text-anchor="middle" x="379" y="-197.5" font-family="Helvetica,sans-Serif" font-size="10.00">systemData.hpp</text>
</a>
</g>
</g>
<!-- Node2&#45;&gt;Node4 -->
<g id="edge43" class="edge">
<title>Node2&#45;&gt;Node4</title>
<path fill="none" stroke="midnightblue" d="M619.84,-363.63C566.8,-357.67 465.98,-343.79 438,-322 404.76,-296.11 389.08,-246.69 382.71,-219.71"/>
<polygon fill="midnightblue" stroke="midnightblue" points="386.07,-218.69 380.53,-209.66 379.23,-220.17 386.07,-218.69"/>
</g>
<!-- Node10 -->
<g id="node10" class="node">
<title>Node10</title>
<g id="a_node10"><a xlink:title=" ">
<polygon fill="none" stroke="#bfbfbf" points="710,-56.5 710,-86.5 808,-86.5 808,-56.5 710,-56.5"/>
<text text-anchor="start" x="718" y="-74.5" font-family="Helvetica,sans-Serif" font-size="10.00">spdlog/sinks/basic</text>
<text text-anchor="middle" x="759" y="-63.5" font-family="Helvetica,sans-Serif" font-size="10.00">_file_sink.h</text>
</a>
</g>
</g>
<!-- Node2&#45;&gt;Node10 -->
<g id="edge47" class="edge">
<title>Node2&#45;&gt;Node10</title>
<path fill="none" stroke="midnightblue" d="M686.07,-366.13C793.49,-363.03 1127.9,-351.1 1166,-322 1190.47,-303.31 1190,-287.8 1190,-257 1190,-257 1190,-257 1190,-199 1190,-163.58 1193.22,-145.66 1166,-123 1114.47,-80.11 918.48,-72.99 818.47,-72.23"/>
<polygon fill="midnightblue" stroke="midnightblue" points="818.24,-68.73 808.22,-72.17 818.2,-75.73 818.24,-68.73"/>
</g>
<!-- Node11 -->
<g id="node11" class="node">
<title>Node11</title>
<g id="a_node11"><a xlink:title=" ">
<polygon fill="none" stroke="#bfbfbf" points="32.5,-62 32.5,-81 119.5,-81 119.5,-62 32.5,-62"/>
<text text-anchor="middle" x="76" y="-69" font-family="Helvetica,sans-Serif" font-size="10.00">spdlog/spdlog.h</text>
</a>
</g>
</g>
<!-- Node2&#45;&gt;Node11 -->
<g id="edge48" class="edge">
<title>Node2&#45;&gt;Node11</title>
<path fill="none" stroke="midnightblue" d="M619.81,-367.76C538.02,-368.83 320.78,-366.84 147,-322 77.83,-304.15 0,-328.44 0,-257 0,-257 0,-257 0,-199 0,-153.62 36.38,-110.48 58.8,-88.2"/>
<polygon fill="midnightblue" stroke="midnightblue" points="61.28,-90.68 66.06,-81.23 56.43,-85.63 61.28,-90.68"/>
</g>
<!-- Node12 -->
<g id="node12" class="node">
<title>Node12</title>
<g id="a_node12"><a xlink:title=" ">
<polygon fill="none" stroke="#bfbfbf" points="163.5,-62 163.5,-81 216.5,-81 216.5,-62 163.5,-62"/>
<text text-anchor="middle" x="190" y="-69" font-family="Helvetica,sans-Serif" font-size="10.00">memory</text>
</a>
</g>
</g>
<!-- Node2&#45;&gt;Node12 -->
<g id="edge50" class="edge">
<title>Node2&#45;&gt;Node12</title>
<path fill="none" stroke="midnightblue" d="M619.69,-367.33C502.18,-367.63 114,-360.74 114,-257 114,-257 114,-257 114,-199 114,-153.62 150.38,-110.48 172.8,-88.2"/>
<polygon fill="midnightblue" stroke="midnightblue" points="175.28,-90.68 180.06,-81.23 170.43,-85.63 175.28,-90.68"/>
</g>
<!-- Node13 -->
<g id="node13" class="node">
<title>Node13</title>
<g id="a_node13"><a xlink:title=" ">
<polygon fill="none" stroke="#bfbfbf" points="300.5,-62 300.5,-81 359.5,-81 359.5,-62 300.5,-62"/>
<text text-anchor="middle" x="330" y="-69" font-family="Helvetica,sans-Serif" font-size="10.00">stdexcept</text>
</a>
</g>
</g>
<!-- Node2&#45;&gt;Node13 -->
<g id="edge51" class="edge">
<title>Node2&#45;&gt;Node13</title>
<path fill="none" stroke="midnightblue" d="M619.67,-364.7C525.8,-357.31 266,-330.25 266,-257 266,-257 266,-257 266,-199 266,-164.18 268.72,-153.78 285,-123 291.95,-109.86 303.02,-97.37 312.45,-88.1"/>
<polygon fill="midnightblue" stroke="midnightblue" points="314.97,-90.53 319.85,-81.12 310.17,-85.43 314.97,-90.53"/>
</g>
<!-- Node14 -->
<g id="node14" class="node">
<title>Node14</title>
<g id="a_node14"><a xlink:title=" ">
<polygon fill="none" stroke="#bfbfbf" points="411.5,-62 411.5,-81 452.5,-81 452.5,-62 411.5,-62"/>
<text text-anchor="middle" x="432" y="-69" font-family="Helvetica,sans-Serif" font-size="10.00">string</text>
</a>
</g>
</g>
<!-- Node2&#45;&gt;Node14 -->
<g id="edge52" class="edge">
<title>Node2&#45;&gt;Node14</title>
<path fill="none" stroke="midnightblue" d="M686.13,-366.79C797.58,-365.22 1152,-352.7 1152,-257 1152,-257 1152,-257 1152,-199 1152,-127.95 601.07,-84.41 463.06,-74.61"/>
<polygon fill="midnightblue" stroke="midnightblue" points="462.99,-71.1 452.77,-73.89 462.5,-78.08 462.99,-71.1"/>
</g>
<!-- Node15 -->
<g id="node15" class="node">
<title>Node15</title>
<g id="a_node15"><a xlink:title=" ">
<polygon fill="none" stroke="#bfbfbf" points="787.5,-129 787.5,-148 886.5,-148 886.5,-129 787.5,-129"/>
<text text-anchor="middle" x="837" y="-136" font-family="Helvetica,sans-Serif" font-size="10.00">eigen3/Eigen/Core</text>
</a>
</g>
</g>
<!-- Node2&#45;&gt;Node15 -->
<g id="edge44" class="edge">
<title>Node2&#45;&gt;Node15</title>
<path fill="none" stroke="midnightblue" d="M686.24,-364.48C741.12,-358.32 849.36,-337.28 897,-266 921.85,-228.82 880,-179.75 854.48,-155.08"/>
<polygon fill="midnightblue" stroke="midnightblue" points="856.87,-152.52 847.18,-148.25 852.09,-157.63 856.87,-152.52"/>
</g>
<!-- Node16 -->
<g id="node16" class="node">
<title>Node16</title>
<g id="a_node16"><a xlink:title=" ">
<polygon fill="none" stroke="#bfbfbf" points="498.5,-129 498.5,-148 601.5,-148 601.5,-129 498.5,-129"/>
<text text-anchor="middle" x="550" y="-136" font-family="Helvetica,sans-Serif" font-size="10.00">eigen3/Eigen/Eigen</text>
</a>
</g>
</g>
<!-- Node2&#45;&gt;Node16 -->
<g id="edge45" class="edge">
<title>Node2&#45;&gt;Node16</title>
<path fill="none" stroke="midnightblue" d="M619.68,-359.37C576.76,-347.56 503.88,-320.3 472,-266 447.98,-225.09 498.69,-177.7 529.18,-154.23"/>
<polygon fill="midnightblue" stroke="midnightblue" points="531.6,-156.79 537.53,-148.01 527.42,-151.18 531.6,-156.79"/>
</g>
<!-- Node17 -->
<g id="node17" class="node">
<title>Node17</title>
<g id="a_node17"><a xlink:title=" ">
<polygon fill="none" stroke="#bfbfbf" points="619.5,-123.5 619.5,-153.5 730.5,-153.5 730.5,-123.5 619.5,-123.5"/>
<text text-anchor="start" x="627.5" y="-141.5" font-family="Helvetica,sans-Serif" font-size="10.00">eigen3/unsupported</text>
<text text-anchor="middle" x="675" y="-130.5" font-family="Helvetica,sans-Serif" font-size="10.00">/Eigen/CXX11/Tensor</text>
</a>
</g>
</g>
<!-- Node2&#45;&gt;Node17 -->
<g id="edge46" class="edge">
<title>Node2&#45;&gt;Node17</title>
<path fill="none" stroke="midnightblue" d="M669.63,-358.46C682.49,-350.84 699.34,-338.36 707,-322 731.94,-268.75 704.94,-198.48 687.47,-162.66"/>
<polygon fill="midnightblue" stroke="midnightblue" points="690.48,-160.86 682.84,-153.51 684.23,-164.02 690.48,-160.86"/>
</g>
<!-- Node18 -->
<g id="node18" class="node">
<title>Node18</title>
<g id="a_node18"><a xlink:href="progressBar_8hpp.html" target="_top" xlink:title=" ">
<polygon fill="none" stroke="black" points="944,-302.5 944,-321.5 1034,-321.5 1034,-302.5 944,-302.5"/>
<text text-anchor="middle" x="989" y="-309.5" font-family="Helvetica,sans-Serif" font-size="10.00">progressBar.hpp</text>
</a>
</g>
</g>
<!-- Node2&#45;&gt;Node18 -->
<g id="edge29" class="edge">
<title>Node2&#45;&gt;Node18</title>
<path fill="none" stroke="midnightblue" d="M686.14,-361.67C743.89,-352.39 863.54,-333.16 933.93,-321.85"/>
<polygon fill="midnightblue" stroke="midnightblue" points="934.63,-325.28 943.95,-320.24 933.52,-318.37 934.63,-325.28"/>
</g>
<!-- Node23 -->
<g id="node23" class="node">
<title>Node23</title>
<g id="a_node23"><a xlink:href="rungeKutta4_8hpp.html" target="_top" xlink:title=" ">
<polygon fill="none" stroke="black" points="608,-302.5 608,-321.5 698,-321.5 698,-302.5 608,-302.5"/>
<text text-anchor="middle" x="653" y="-309.5" font-family="Helvetica,sans-Serif" font-size="10.00">rungeKutta4.hpp</text>
</a>
</g>
</g>
<!-- Node2&#45;&gt;Node23 -->
<g id="edge34" class="edge">
<title>Node2&#45;&gt;Node23</title>
<path fill="none" stroke="midnightblue" d="M653,-358.08C653,-351.01 653,-340.86 653,-331.99"/>
<polygon fill="midnightblue" stroke="midnightblue" points="656.5,-331.75 653,-321.75 649.5,-331.75 656.5,-331.75"/>
</g>
<!-- Node24 -->
<g id="node24" class="node">
<title>Node24</title>
<g id="a_node24"><a xlink:title=" ">
<polygon fill="none" stroke="#bfbfbf" points="1218.5,-302.5 1218.5,-321.5 1265.5,-321.5 1265.5,-302.5 1218.5,-302.5"/>
<text text-anchor="middle" x="1242" y="-309.5" font-family="Helvetica,sans-Serif" font-size="10.00">math.h</text>
</a>
</g>
</g>
<!-- Node2&#45;&gt;Node24 -->
<g id="edge49" class="edge">
<title>Node2&#45;&gt;Node24</title>
<path fill="none" stroke="midnightblue" d="M686.12,-366.04C772.09,-363.17 1009.19,-352.84 1204,-322 1205.46,-321.77 1206.96,-321.51 1208.46,-321.23"/>
<polygon fill="midnightblue" stroke="midnightblue" points="1209.31,-324.63 1218.39,-319.17 1207.89,-317.78 1209.31,-324.63"/>
</g>
<!-- Node3&#45;&gt;Node4 -->
<g id="edge3" class="edge">
<title>Node3&#45;&gt;Node4</title>
<path fill="none" stroke="midnightblue" d="M524.59,-246.44C495.23,-237.28 448.48,-222.69 415.9,-212.52"/>
<polygon fill="midnightblue" stroke="midnightblue" points="416.87,-209.16 406.28,-209.52 414.79,-215.84 416.87,-209.16"/>
</g>
<!-- Node3&#45;&gt;Node10 -->
<g id="edge27" class="edge">
<title>Node3&#45;&gt;Node10</title>
<path fill="none" stroke="midnightblue" d="M565.93,-246.41C586.91,-233.59 627.98,-208.94 664,-190 697.08,-172.6 716.54,-183.09 740,-154 752.99,-137.89 757.41,-114.48 758.77,-96.88"/>
<polygon fill="midnightblue" stroke="midnightblue" points="762.27,-96.94 759.27,-86.78 755.28,-96.6 762.27,-96.94"/>
</g>
<!-- Node3&#45;&gt;Node11 -->
<g id="edge28" class="edge">
<title>Node3&#45;&gt;Node11</title>
<path fill="none" stroke="midnightblue" d="M480.22,-249.19C397.67,-239.77 260.58,-215.49 160,-154 131.4,-136.51 104.77,-107.71 89.45,-89.44"/>
<polygon fill="midnightblue" stroke="midnightblue" points="91.93,-86.94 82.88,-81.42 86.51,-91.37 91.93,-86.94"/>
</g>
<!-- Node3&#45;&gt;Node15 -->
<g id="edge24" class="edge">
<title>Node3&#45;&gt;Node15</title>
<path fill="none" stroke="midnightblue" d="M573.42,-246.32C623.47,-226.03 748.24,-175.47 806.33,-151.93"/>
<polygon fill="midnightblue" stroke="midnightblue" points="807.77,-155.12 815.72,-148.12 805.14,-148.64 807.77,-155.12"/>
</g>
<!-- Node3&#45;&gt;Node16 -->
<g id="edge25" class="edge">
<title>Node3&#45;&gt;Node16</title>
<path fill="none" stroke="midnightblue" d="M544.59,-246.41C537.72,-237.84 527.99,-223.98 524,-210 518.7,-191.45 528.2,-170.81 537.17,-156.68"/>
<polygon fill="midnightblue" stroke="midnightblue" points="540.32,-158.27 543.1,-148.04 534.55,-154.3 540.32,-158.27"/>
</g>
<!-- Node3&#45;&gt;Node17 -->
<g id="edge26" class="edge">
<title>Node3&#45;&gt;Node17</title>
<path fill="none" stroke="midnightblue" d="M550.9,-246.43C549.67,-232.98 549.26,-206.7 562,-190 573.98,-174.29 591.94,-163.35 610.03,-155.78"/>
<polygon fill="midnightblue" stroke="midnightblue" points="611.42,-158.99 619.48,-152.12 608.89,-152.47 611.42,-158.99"/>
</g>
<!-- Node5 -->
<g id="node5" class="node">
<title>Node5</title>
<g id="a_node5"><a xlink:href="GSDUtil_8hpp.html" target="_top" xlink:title=" ">
<polygon fill="none" stroke="black" points="294,-129 294,-148 366,-148 366,-129 294,-129"/>
<text text-anchor="middle" x="330" y="-136" font-family="Helvetica,sans-Serif" font-size="10.00">GSDUtil.hpp</text>
</a>
</g>
</g>
<!-- Node4&#45;&gt;Node5 -->
<g id="edge4" class="edge">
<title>Node4&#45;&gt;Node5</title>
<path fill="none" stroke="midnightblue" d="M367.08,-190.48C357.87,-181.64 345.88,-167.59 337.82,-156.48"/>
<polygon fill="midnightblue" stroke="midnightblue" points="340.6,-154.35 332.11,-148.01 334.8,-158.26 340.6,-154.35"/>
</g>
<!-- Node6 -->
<g id="node6" class="node">
<title>Node6</title>
<g id="a_node6"><a xlink:href="gsd_8h.html" target="_top" xlink:title="Declare GSD data types and C API.">
<polygon fill="none" stroke="black" points="238.5,-62 238.5,-81 279.5,-81 279.5,-62 238.5,-62"/>
<text text-anchor="middle" x="259" y="-69" font-family="Helvetica,sans-Serif" font-size="10.00">gsd.h</text>
</a>
</g>
</g>
<!-- Node4&#45;&gt;Node6 -->
<g id="edge15" class="edge">
<title>Node4&#45;&gt;Node6</title>
<path fill="none" stroke="midnightblue" d="M345.7,-190.38C325.56,-183.58 300.81,-172.15 285,-154 269.56,-136.28 263.28,-109.32 260.73,-91.32"/>
<polygon fill="midnightblue" stroke="midnightblue" points="264.18,-90.73 259.55,-81.2 257.23,-91.54 264.18,-90.73"/>
</g>
<!-- Node4&#45;&gt;Node10 -->
<g id="edge16" class="edge">
<title>Node4&#45;&gt;Node10</title>
<path fill="none" stroke="midnightblue" d="M388.58,-190.34C406.85,-174.34 448.58,-140.17 490,-123 558.6,-94.56 643.68,-82.03 699.57,-76.57"/>
<polygon fill="midnightblue" stroke="midnightblue" points="700.02,-80.05 709.65,-75.64 699.37,-73.08 700.02,-80.05"/>
</g>
<!-- Node4&#45;&gt;Node11 -->
<g id="edge17" class="edge">
<title>Node4&#45;&gt;Node11</title>
<path fill="none" stroke="midnightblue" d="M342.65,-190.5C311.4,-182.66 265.41,-169.85 227,-154 179.5,-134.4 127.45,-104.21 98.55,-86.6"/>
<polygon fill="midnightblue" stroke="midnightblue" points="100.03,-83.4 89.68,-81.14 96.37,-89.36 100.03,-83.4"/>
</g>
<!-- Node4&#45;&gt;Node12 -->
<g id="edge21" class="edge">
<title>Node4&#45;&gt;Node12</title>
<path fill="none" stroke="midnightblue" d="M346.39,-190.42C322.49,-183.16 290,-171.16 265,-154 239.08,-136.21 215.67,-107.9 202.15,-89.76"/>
<polygon fill="midnightblue" stroke="midnightblue" points="204.72,-87.35 196.01,-81.32 199.06,-91.47 204.72,-87.35"/>
</g>
<!-- Node4&#45;&gt;Node13 -->
<g id="edge22" class="edge">
<title>Node4&#45;&gt;Node13</title>
<path fill="none" stroke="midnightblue" d="M380.36,-190.16C382.22,-175.55 384.35,-145.73 375,-123 369.42,-109.42 358.56,-97.07 348.9,-87.97"/>
<polygon fill="midnightblue" stroke="midnightblue" points="351.02,-85.17 341.22,-81.15 346.37,-90.41 351.02,-85.17"/>
</g>
<!-- Node4&#45;&gt;Node14 -->
<g id="edge23" class="edge">
<title>Node4&#45;&gt;Node14</title>
<path fill="none" stroke="midnightblue" d="M382.64,-190.31C391.23,-169.81 412.88,-118.15 424.44,-90.54"/>
<polygon fill="midnightblue" stroke="midnightblue" points="427.7,-91.83 428.33,-81.26 421.24,-89.13 427.7,-91.83"/>
</g>
<!-- Node4&#45;&gt;Node15 -->
<g id="edge18" class="edge">
<title>Node4&#45;&gt;Node15</title>
<path fill="none" stroke="midnightblue" d="M423.51,-193.81C491.7,-185.77 626.12,-169.61 740,-154 751.99,-152.36 764.81,-150.51 777.06,-148.69"/>
<polygon fill="midnightblue" stroke="midnightblue" points="777.81,-152.12 787.19,-147.18 776.78,-145.2 777.81,-152.12"/>
</g>
<!-- Node4&#45;&gt;Node16 -->
<g id="edge19" class="edge">
<title>Node4&#45;&gt;Node16</title>
<path fill="none" stroke="midnightblue" d="M403.5,-190.48C432.96,-180.22 482.58,-162.96 515.8,-151.4"/>
<polygon fill="midnightblue" stroke="midnightblue" points="517.25,-154.6 525.55,-148.01 514.95,-147.99 517.25,-154.6"/>
</g>
<!-- Node4&#45;&gt;Node17 -->
<g id="edge20" class="edge">
<title>Node4&#45;&gt;Node17</title>
<path fill="none" stroke="midnightblue" d="M423.56,-190.78C468.23,-182.45 539.22,-168.95 609.3,-154.33"/>
<polygon fill="midnightblue" stroke="midnightblue" points="610.11,-157.73 619.17,-152.26 608.67,-150.88 610.11,-157.73"/>
</g>
<!-- Node5&#45;&gt;Node4 -->
<g id="edge9" class="edge">
<title>Node5&#45;&gt;Node4</title>
<path fill="none" stroke="midnightblue" d="M341.9,-148.01C351.11,-156.84 363.1,-170.89 371.17,-182.01"/>
<polygon fill="midnightblue" stroke="midnightblue" points="368.39,-184.14 376.88,-190.48 374.19,-180.23 368.39,-184.14"/>
</g>
<!-- Node5&#45;&gt;Node6 -->
<g id="edge5" class="edge">
<title>Node5&#45;&gt;Node6</title>
<path fill="none" stroke="midnightblue" d="M320.42,-128.73C309.03,-118.31 289.81,-100.71 275.9,-87.97"/>
<polygon fill="midnightblue" stroke="midnightblue" points="278.16,-85.3 268.42,-81.13 273.44,-90.46 278.16,-85.3"/>
</g>
<!-- Node5&#45;&gt;Node10 -->
<g id="edge10" class="edge">
<title>Node5&#45;&gt;Node10</title>
<path fill="none" stroke="midnightblue" d="M366.21,-132.01C440.22,-120.8 609.44,-95.16 699.71,-81.48"/>
<polygon fill="midnightblue" stroke="midnightblue" points="700.43,-84.91 709.79,-79.96 699.38,-77.99 700.43,-84.91"/>
</g>
<!-- Node5&#45;&gt;Node11 -->
<g id="edge11" class="edge">
<title>Node5&#45;&gt;Node11</title>
<path fill="none" stroke="midnightblue" d="M296.53,-128.94C251.04,-117.29 169.6,-96.45 119.44,-83.62"/>
<polygon fill="midnightblue" stroke="midnightblue" points="120.1,-80.17 109.54,-81.08 118.36,-86.95 120.1,-80.17"/>
</g>
<!-- Node5&#45;&gt;Node12 -->
<g id="edge12" class="edge">
<title>Node5&#45;&gt;Node12</title>
<path fill="none" stroke="midnightblue" d="M311.41,-128.87C287.46,-117.75 245.61,-98.32 217.85,-85.43"/>
<polygon fill="midnightblue" stroke="midnightblue" points="219.21,-82.2 208.67,-81.17 216.26,-88.55 219.21,-82.2"/>
</g>
<!-- Node5&#45;&gt;Node13 -->
<g id="edge13" class="edge">
<title>Node5&#45;&gt;Node13</title>
<path fill="none" stroke="midnightblue" d="M330,-128.73C330,-119.18 330,-103.62 330,-91.28"/>
<polygon fill="midnightblue" stroke="midnightblue" points="333.5,-91.13 330,-81.13 326.5,-91.13 333.5,-91.13"/>
</g>
<!-- Node5&#45;&gt;Node14 -->
<g id="edge14" class="edge">
<title>Node5&#45;&gt;Node14</title>
<path fill="none" stroke="midnightblue" d="M343.76,-128.73C360.73,-117.92 389.81,-99.38 409.93,-86.57"/>
<polygon fill="midnightblue" stroke="midnightblue" points="411.91,-89.45 418.46,-81.13 408.15,-83.55 411.91,-89.45"/>
</g>
<!-- Node7 -->
<g id="node7" class="node">
<title>Node7</title>
<g id="a_node7"><a xlink:title=" ">
<polygon fill="none" stroke="#bfbfbf" points="159.5,-0.5 159.5,-19.5 216.5,-19.5 216.5,-0.5 159.5,-0.5"/>
<text text-anchor="middle" x="188" y="-7.5" font-family="Helvetica,sans-Serif" font-size="10.00">stdbool.h</text>
</a>
</g>
</g>
<!-- Node6&#45;&gt;Node7 -->
<g id="edge6" class="edge">
<title>Node6&#45;&gt;Node7</title>
<path fill="none" stroke="midnightblue" d="M248.83,-61.98C237.65,-52.61 219.48,-37.38 205.91,-26.01"/>
<polygon fill="midnightblue" stroke="midnightblue" points="208.07,-23.25 198.15,-19.51 203.57,-28.61 208.07,-23.25"/>
</g>
<!-- Node8 -->
<g id="node8" class="node">
<title>Node8</title>
<g id="a_node8"><a xlink:title=" ">
<polygon fill="none" stroke="#bfbfbf" points="234.5,-0.5 234.5,-19.5 283.5,-19.5 283.5,-0.5 234.5,-0.5"/>
<text text-anchor="middle" x="259" y="-7.5" font-family="Helvetica,sans-Serif" font-size="10.00">stdint.h</text>
</a>
</g>
</g>
<!-- Node6&#45;&gt;Node8 -->
<g id="edge7" class="edge">
<title>Node6&#45;&gt;Node8</title>
<path fill="none" stroke="midnightblue" d="M259,-61.98C259,-53.58 259,-40.48 259,-29.66"/>
<polygon fill="midnightblue" stroke="midnightblue" points="262.5,-29.51 259,-19.51 255.5,-29.51 262.5,-29.51"/>
</g>
<!-- Node9 -->
<g id="node9" class="node">
<title>Node9</title>
<g id="a_node9"><a xlink:title=" ">
<polygon fill="none" stroke="#bfbfbf" points="301.5,-0.5 301.5,-19.5 350.5,-19.5 350.5,-0.5 301.5,-0.5"/>
<text text-anchor="middle" x="326" y="-7.5" font-family="Helvetica,sans-Serif" font-size="10.00">string.h</text>
</a>
</g>
</g>
<!-- Node6&#45;&gt;Node9 -->
<g id="edge8" class="edge">
<title>Node6&#45;&gt;Node9</title>
<path fill="none" stroke="midnightblue" d="M268.6,-61.98C279.05,-52.7 295.97,-37.67 308.74,-26.33"/>
<polygon fill="midnightblue" stroke="midnightblue" points="311.27,-28.77 316.42,-19.51 306.62,-23.53 311.27,-28.77"/>
</g>
<!-- Node19 -->
<g id="node19" class="node">
<title>Node19</title>
<g id="a_node19"><a xlink:title=" ">
<polygon fill="none" stroke="#bfbfbf" points="1014.5,-246.5 1014.5,-265.5 1061.5,-265.5 1061.5,-246.5 1014.5,-246.5"/>
<text text-anchor="middle" x="1038" y="-253.5" font-family="Helvetica,sans-Serif" font-size="10.00">chrono</text>
</a>
</g>
</g>
<!-- Node18&#45;&gt;Node19 -->
<g id="edge30" class="edge">
<title>Node18&#45;&gt;Node19</title>
<path fill="none" stroke="midnightblue" d="M997.09,-302.08C1004.16,-294.3 1014.59,-282.8 1023.15,-273.37"/>
<polygon fill="midnightblue" stroke="midnightblue" points="1025.93,-275.51 1030.06,-265.75 1020.75,-270.8 1025.93,-275.51"/>
</g>
<!-- Node20 -->
<g id="node20" class="node">
<title>Node20</title>
<g id="a_node20"><a xlink:title=" ">
<polygon fill="none" stroke="#bfbfbf" points="1080,-246.5 1080,-265.5 1124,-265.5 1124,-246.5 1080,-246.5"/>
<text text-anchor="middle" x="1102" y="-253.5" font-family="Helvetica,sans-Serif" font-size="10.00">cmath</text>
</a>
</g>
</g>
<!-- Node18&#45;&gt;Node20 -->
<g id="edge31" class="edge">
<title>Node18&#45;&gt;Node20</title>
<path fill="none" stroke="midnightblue" d="M1006.91,-302.44C1025.25,-293.68 1054.01,-279.94 1075.09,-269.86"/>
<polygon fill="midnightblue" stroke="midnightblue" points="1076.67,-272.99 1084.18,-265.52 1073.65,-266.67 1076.67,-272.99"/>
</g>
<!-- Node21 -->
<g id="node21" class="node">
<title>Node21</title>
<g id="a_node21"><a xlink:title=" ">
<polygon fill="none" stroke="#bfbfbf" points="944,-246.5 944,-265.5 996,-265.5 996,-246.5 944,-246.5"/>
<text text-anchor="middle" x="970" y="-253.5" font-family="Helvetica,sans-Serif" font-size="10.00">iomanip</text>
</a>
</g>
</g>
<!-- Node18&#45;&gt;Node21 -->
<g id="edge32" class="edge">
<title>Node18&#45;&gt;Node21</title>
<path fill="none" stroke="midnightblue" d="M985.86,-302.08C983.32,-294.85 979.64,-284.41 976.47,-275.4"/>
<polygon fill="midnightblue" stroke="midnightblue" points="979.7,-274.02 973.08,-265.75 973.1,-276.35 979.7,-274.02"/>
</g>
<!-- Node22 -->
<g id="node22" class="node">
<title>Node22</title>
<g id="a_node22"><a xlink:title=" ">
<polygon fill="none" stroke="#bfbfbf" points="832.5,-246.5 832.5,-265.5 887.5,-265.5 887.5,-246.5 832.5,-246.5"/>
<text text-anchor="middle" x="860" y="-253.5" font-family="Helvetica,sans-Serif" font-size="10.00">iostream</text>
</a>
</g>
</g>
<!-- Node18&#45;&gt;Node22 -->
<g id="edge33" class="edge">
<title>Node18&#45;&gt;Node22</title>
<path fill="none" stroke="midnightblue" d="M968.56,-302.44C947.33,-293.56 913.9,-279.56 889.75,-269.45"/>
<polygon fill="midnightblue" stroke="midnightblue" points="890.92,-266.15 880.34,-265.52 888.22,-272.61 890.92,-266.15"/>
</g>
<!-- Node23&#45;&gt;Node3 -->
<g id="edge35" class="edge">
<title>Node23&#45;&gt;Node3</title>
<path fill="none" stroke="midnightblue" d="M636.77,-302.32C620.65,-293.7 595.7,-280.36 577.04,-270.39"/>
<polygon fill="midnightblue" stroke="midnightblue" points="578.66,-267.28 568.19,-265.65 575.36,-273.46 578.66,-267.28"/>
</g>
<!-- Node23&#45;&gt;Node4 -->
<g id="edge36" class="edge">
<title>Node23&#45;&gt;Node4</title>
<path fill="none" stroke="midnightblue" d="M607.97,-304.52C570.39,-298.02 516.07,-286.04 472,-266 443.34,-252.96 414.21,-230.87 396.37,-216.1"/>
<polygon fill="midnightblue" stroke="midnightblue" points="398.47,-213.3 388.58,-209.52 393.96,-218.65 398.47,-213.3"/>
</g>
<!-- Node23&#45;&gt;Node10 -->
<g id="edge40" class="edge">
<title>Node23&#45;&gt;Node10</title>
<path fill="none" stroke="midnightblue" d="M682.39,-302.39C736.44,-284.76 850.26,-238.9 896,-154 902.53,-141.87 903.88,-134.3 896,-123 878.36,-97.7 846.55,-85.04 818.02,-78.72"/>
<polygon fill="midnightblue" stroke="midnightblue" points="818.58,-75.27 808.09,-76.74 817.21,-82.13 818.58,-75.27"/>
</g>
<!-- Node23&#45;&gt;Node11 -->
<g id="edge41" class="edge">
<title>Node23&#45;&gt;Node11</title>
<path fill="none" stroke="midnightblue" d="M607.84,-304.02C529.8,-291.1 365.44,-260.13 234,-210 180.88,-189.74 159.84,-193.54 119,-154 100.64,-136.22 88.45,-108.9 81.88,-90.86"/>
<polygon fill="midnightblue" stroke="midnightblue" points="85.13,-89.56 78.58,-81.23 78.51,-91.82 85.13,-89.56"/>
</g>
<!-- Node23&#45;&gt;Node15 -->
<g id="edge37" class="edge">
<title>Node23&#45;&gt;Node15</title>
<path fill="none" stroke="midnightblue" d="M662.12,-302.5C691.25,-275.35 782.29,-190.5 820.18,-155.17"/>
<polygon fill="midnightblue" stroke="midnightblue" points="822.89,-157.43 827.82,-148.06 818.12,-152.31 822.89,-157.43"/>
</g>
<!-- Node23&#45;&gt;Node16 -->
<g id="edge38" class="edge">
<title>Node23&#45;&gt;Node16</title>
<path fill="none" stroke="midnightblue" d="M651.35,-302.2C648.72,-289.33 642.82,-264.85 633,-246 614.62,-210.71 584.12,-175.39 565.66,-155.6"/>
<polygon fill="midnightblue" stroke="midnightblue" points="567.97,-152.96 558.55,-148.12 562.9,-157.78 567.97,-152.96"/>
</g>
<!-- Node23&#45;&gt;Node17 -->
<g id="edge39" class="edge">
<title>Node23&#45;&gt;Node17</title>
<path fill="none" stroke="midnightblue" d="M656.15,-302.17C659.21,-293.19 663.72,-278.81 666,-266 672.25,-230.88 674.19,-189.54 674.78,-163.93"/>
<polygon fill="midnightblue" stroke="midnightblue" points="678.28,-163.72 674.96,-153.66 671.28,-163.6 678.28,-163.72"/>
</g>
<!-- Node23&#45;&gt;Node22 -->
<g id="edge42" class="edge">
<title>Node23&#45;&gt;Node22</title>
<path fill="none" stroke="midnightblue" d="M685.8,-302.44C722.95,-292.75 783.38,-276.99 822.4,-266.81"/>
<polygon fill="midnightblue" stroke="midnightblue" points="823.53,-270.13 832.32,-264.22 821.76,-263.36 823.53,-270.13"/>
</g>
</g>
</svg>
