<?xml version="1.0" encoding="UTF-8" standalone="no"?>
<!DOCTYPE svg PUBLIC "-//W3C//DTD SVG 1.1//EN"
 "http://www.w3.org/Graphics/SVG/1.1/DTD/svg11.dtd">
<!-- Generated by graphviz version 2.43.0 (0)
 -->
<!-- Title: src/simulation_system/Engine.hpp Pages: 1 -->
<svg width="1959pt" height="386pt"
 viewBox="0.00 0.00 1958.50 386.00" xmlns="http://www.w3.org/2000/svg" xmlns:xlink="http://www.w3.org/1999/xlink">
<g id="graph0" class="graph" transform="scale(1 1) rotate(0) translate(4 382)">
<title>src/simulation_system/Engine.hpp</title>
<!-- Node1 -->
<g id="node1" class="node">
<title>Node1</title>
<g id="a_node1"><a xlink:title=" ">
<polygon fill="#bfbfbf" stroke="black" points="939.5,-347.5 939.5,-377.5 1054.5,-377.5 1054.5,-347.5 939.5,-347.5"/>
<text text-anchor="start" x="947.5" y="-365.5" font-family="Helvetica,sans-Serif" font-size="10.00">src/simulation_system</text>
<text text-anchor="middle" x="997" y="-354.5" font-family="Helvetica,sans-Serif" font-size="10.00">/Engine.hpp</text>
</a>
</g>
</g>
<!-- Node2 -->
<g id="node2" class="node">
<title>Node2</title>
<g id="a_node2"><a xlink:href="PotentialHydrodynamics_8hpp.html" target="_top" xlink:title=" ">
<polygon fill="none" stroke="black" points="926,-235.5 926,-254.5 1068,-254.5 1068,-235.5 926,-235.5"/>
<text text-anchor="middle" x="997" y="-242.5" font-family="Helvetica,sans-Serif" font-size="10.00">PotentialHydrodynamics.hpp</text>
</a>
</g>
</g>
<!-- Node1&#45;&gt;Node2 -->
<g id="edge1" class="edge">
<title>Node1&#45;&gt;Node2</title>
<path fill="none" stroke="midnightblue" d="M997,-347.34C997,-326.62 997,-288.02 997,-264.9"/>
<polygon fill="midnightblue" stroke="midnightblue" points="1000.5,-264.67 997,-254.67 993.5,-264.67 1000.5,-264.67"/>
</g>
<!-- Node3 -->
<g id="node3" class="node">
<title>Node3</title>
<g id="a_node3"><a xlink:href="SystemData_8hpp.html" target="_top" xlink:title=" ">
<polygon fill="none" stroke="black" points="671,-179.5 671,-198.5 761,-198.5 761,-179.5 671,-179.5"/>
<text text-anchor="middle" x="716" y="-186.5" font-family="Helvetica,sans-Serif" font-size="10.00">SystemData.hpp</text>
</a>
</g>
</g>
<!-- Node1&#45;&gt;Node3 -->
<g id="edge56" class="edge">
<title>Node1&#45;&gt;Node3</title>
<path fill="none" stroke="midnightblue" d="M939.25,-354.63C880.8,-346.64 795.52,-331.85 770,-311 737.89,-284.77 724.23,-235.49 718.95,-208.62"/>
<polygon fill="midnightblue" stroke="midnightblue" points="722.37,-207.85 717.18,-198.61 715.48,-209.07 722.37,-207.85"/>
</g>
<!-- Node9 -->
<g id="node9" class="node">
<title>Node9</title>
<g id="a_node9"><a xlink:title=" ">
<polygon fill="none" stroke="#bfbfbf" points="179,-56.5 179,-86.5 277,-86.5 277,-56.5 179,-56.5"/>
<text text-anchor="start" x="187" y="-74.5" font-family="Helvetica,sans-Serif" font-size="10.00">spdlog/sinks/basic</text>
<text text-anchor="middle" x="228" y="-63.5" font-family="Helvetica,sans-Serif" font-size="10.00">_file_sink.h</text>
</a>
</g>
</g>
<!-- Node1&#45;&gt;Node9 -->
<g id="edge62" class="edge">
<title>Node1&#45;&gt;Node9</title>
<path fill="none" stroke="midnightblue" d="M939.4,-360.05C743.35,-354.34 114,-329.53 114,-246 114,-246 114,-246 114,-188 114,-144.22 156,-111.03 189.02,-91.71"/>
<polygon fill="midnightblue" stroke="midnightblue" points="191.05,-94.58 198.05,-86.63 187.62,-88.48 191.05,-94.58"/>
</g>
<!-- Node10 -->
<g id="node10" class="node">
<title>Node10</title>
<g id="a_node10"><a xlink:title=" ">
<polygon fill="none" stroke="#bfbfbf" points="33.5,-62 33.5,-81 118.5,-81 118.5,-62 33.5,-62"/>
<text text-anchor="middle" x="76" y="-69" font-family="Helvetica,sans-Serif" font-size="10.00">spdlog/spdlog.h</text>
</a>
</g>
</g>
<!-- Node1&#45;&gt;Node10 -->
<g id="edge63" class="edge">
<title>Node1&#45;&gt;Node10</title>
<path fill="none" stroke="midnightblue" d="M939.45,-360.92C727.13,-358.05 0,-341.24 0,-246 0,-246 0,-246 0,-188 0,-146.31 34.98,-108.03 57.48,-87.72"/>
<polygon fill="midnightblue" stroke="midnightblue" points="59.86,-90.28 65.11,-81.08 55.27,-85 59.86,-90.28"/>
</g>
<!-- Node11 -->
<g id="node11" class="node">
<title>Node11</title>
<g id="a_node11"><a xlink:title=" ">
<polygon fill="none" stroke="#bfbfbf" points="375,-62 375,-81 427,-81 427,-62 375,-62"/>
<text text-anchor="middle" x="401" y="-69" font-family="Helvetica,sans-Serif" font-size="10.00">memory</text>
</a>
</g>
</g>
<!-- Node1&#45;&gt;Node11 -->
<g id="edge65" class="edge">
<title>Node1&#45;&gt;Node11</title>
<path fill="none" stroke="midnightblue" d="M939.43,-360.84C846.34,-358.62 657.6,-349.29 503,-311 428.1,-292.45 342,-323.17 342,-246 342,-246 342,-246 342,-188 342,-157.9 347.18,-149.74 361,-123 367.52,-110.4 377.39,-97.89 385.7,-88.47"/>
<polygon fill="midnightblue" stroke="midnightblue" points="388.31,-90.81 392.48,-81.07 383.15,-86.08 388.31,-90.81"/>
</g>
<!-- Node12 -->
<g id="node12" class="node">
<title>Node12</title>
<g id="a_node12"><a xlink:title=" ">
<polygon fill="none" stroke="#bfbfbf" points="445.5,-62 445.5,-81 504.5,-81 504.5,-62 445.5,-62"/>
<text text-anchor="middle" x="475" y="-69" font-family="Helvetica,sans-Serif" font-size="10.00">stdexcept</text>
</a>
</g>
</g>
<!-- Node1&#45;&gt;Node12 -->
<g id="edge66" class="edge">
<title>Node1&#45;&gt;Node12</title>
<path fill="none" stroke="midnightblue" d="M939.35,-360.94C802.6,-358.05 470,-341.25 470,-246 470,-246 470,-246 470,-188 470,-153.83 472.21,-114.03 473.69,-91.2"/>
<polygon fill="midnightblue" stroke="midnightblue" points="477.19,-91.4 474.37,-81.19 470.2,-90.93 477.19,-91.4"/>
</g>
<!-- Node13 -->
<g id="node13" class="node">
<title>Node13</title>
<g id="a_node13"><a xlink:title=" ">
<polygon fill="none" stroke="#bfbfbf" points="733.5,-62 733.5,-81 774.5,-81 774.5,-62 733.5,-62"/>
<text text-anchor="middle" x="754" y="-69" font-family="Helvetica,sans-Serif" font-size="10.00">string</text>
</a>
</g>
</g>
<!-- Node1&#45;&gt;Node13 -->
<g id="edge67" class="edge">
<title>Node1&#45;&gt;Node13</title>
<path fill="none" stroke="midnightblue" d="M975.56,-347.41C962.02,-337.96 944.57,-324.77 931,-311 857.96,-236.88 790.07,-131.39 764.61,-90.07"/>
<polygon fill="midnightblue" stroke="midnightblue" points="767.53,-88.12 759.33,-81.41 761.55,-91.77 767.53,-88.12"/>
</g>
<!-- Node14 -->
<g id="node14" class="node">
<title>Node14</title>
<g id="a_node14"><a xlink:title=" ">
<polygon fill="none" stroke="#bfbfbf" points="857.5,-62 857.5,-81 954.5,-81 954.5,-62 857.5,-62"/>
<text text-anchor="middle" x="906" y="-69" font-family="Helvetica,sans-Serif" font-size="10.00">eigen3/Eigen/Core</text>
</a>
</g>
</g>
<!-- Node1&#45;&gt;Node14 -->
<g id="edge57" class="edge">
<title>Node1&#45;&gt;Node14</title>
<path fill="none" stroke="midnightblue" d="M981.91,-347.34C962.85,-328.39 930.88,-292.77 917,-255 896.23,-198.5 900.2,-125.56 903.65,-91.54"/>
<polygon fill="midnightblue" stroke="midnightblue" points="907.17,-91.55 904.81,-81.22 900.21,-90.77 907.17,-91.55"/>
</g>
<!-- Node15 -->
<g id="node15" class="node">
<title>Node15</title>
<g id="a_node15"><a xlink:title=" ">
<polygon fill="none" stroke="#bfbfbf" points="1045.5,-62 1045.5,-81 1146.5,-81 1146.5,-62 1045.5,-62"/>
<text text-anchor="middle" x="1096" y="-69" font-family="Helvetica,sans-Serif" font-size="10.00">eigen3/Eigen/Eigen</text>
</a>
</g>
</g>
<!-- Node1&#45;&gt;Node15 -->
<g id="edge58" class="edge">
<title>Node1&#45;&gt;Node15</title>
<path fill="none" stroke="midnightblue" d="M1054.73,-355.34C1169.62,-342.07 1421.62,-307.7 1489,-255 1532.68,-220.84 1531.45,-197.02 1544,-143 1546.01,-134.34 1549.92,-129.63 1544,-123 1537.6,-115.84 1277.66,-89.97 1156.72,-78.29"/>
<polygon fill="midnightblue" stroke="midnightblue" points="1156.8,-74.79 1146.51,-77.31 1156.13,-81.75 1156.8,-74.79"/>
</g>
<!-- Node16 -->
<g id="node16" class="node">
<title>Node16</title>
<g id="a_node16"><a xlink:title=" ">
<polygon fill="none" stroke="#bfbfbf" points="1271,-56.5 1271,-86.5 1381,-86.5 1381,-56.5 1271,-56.5"/>
<text text-anchor="start" x="1279" y="-74.5" font-family="Helvetica,sans-Serif" font-size="10.00">eigen3/unsupported</text>
<text text-anchor="middle" x="1326" y="-63.5" font-family="Helvetica,sans-Serif" font-size="10.00">/Eigen/CXX11/Tensor</text>
</a>
</g>
</g>
<!-- Node1&#45;&gt;Node16 -->
<g id="edge59" class="edge">
<title>Node1&#45;&gt;Node16</title>
<path fill="none" stroke="midnightblue" d="M1054.54,-359.24C1131.56,-355.05 1271.8,-343.32 1387,-311 1446,-294.45 1467,-295.49 1513,-255 1559.64,-213.96 1598.06,-171.31 1559,-123 1512.96,-66.05 1469.33,-100.22 1391.49,-86.86"/>
<polygon fill="midnightblue" stroke="midnightblue" points="1391.8,-83.35 1381.31,-84.87 1390.46,-90.22 1391.8,-83.35"/>
</g>
<!-- Node17 -->
<g id="node17" class="node">
<title>Node17</title>
<g id="a_node17"><a xlink:title=" ">
<polygon fill="none" stroke="#bfbfbf" points="1399.5,-56.5 1399.5,-86.5 1530.5,-86.5 1530.5,-56.5 1399.5,-56.5"/>
<text text-anchor="start" x="1407.5" y="-74.5" font-family="Helvetica,sans-Serif" font-size="10.00">eigen3/unsupported</text>
<text text-anchor="middle" x="1465" y="-63.5" font-family="Helvetica,sans-Serif" font-size="10.00">/Eigen/CXX11/ThreadPool</text>
</a>
</g>
</g>
<!-- Node1&#45;&gt;Node17 -->
<g id="edge60" class="edge">
<title>Node1&#45;&gt;Node17</title>
<path fill="none" stroke="midnightblue" d="M1054.68,-360.62C1207.08,-357.83 1617.65,-347.09 1748,-311 1809.11,-294.08 1875,-309.41 1875,-246 1875,-246 1875,-246 1875,-188 1875,-119.38 1659.52,-89.55 1540.98,-78.33"/>
<polygon fill="midnightblue" stroke="midnightblue" points="1541.15,-74.83 1530.87,-77.4 1540.51,-81.8 1541.15,-74.83"/>
</g>
<!-- Node18 -->
<g id="node18" class="node">
<title>Node18</title>
<g id="a_node18"><a xlink:href="helper__eigenTensorConversion_8hpp.html" target="_top" xlink:title=" ">
<polygon fill="none" stroke="black" points="1123.5,-123.5 1123.5,-142.5 1292.5,-142.5 1292.5,-123.5 1123.5,-123.5"/>
<text text-anchor="middle" x="1208" y="-130.5" font-family="Helvetica,sans-Serif" font-size="10.00">helper_eigenTensorConversion.hpp</text>
</a>
</g>
</g>
<!-- Node1&#45;&gt;Node18 -->
<g id="edge61" class="edge">
<title>Node1&#45;&gt;Node18</title>
<path fill="none" stroke="midnightblue" d="M1054.66,-354.64C1086.52,-348.15 1124.82,-335.53 1151,-311 1196.71,-268.18 1205.87,-188.61 1207.63,-152.58"/>
<polygon fill="midnightblue" stroke="midnightblue" points="1211.13,-152.63 1207.98,-142.51 1204.14,-152.39 1211.13,-152.63"/>
</g>
<!-- Node22 -->
<g id="node22" class="node">
<title>Node22</title>
<g id="a_node22"><a xlink:href="ProgressBar_8hpp.html" target="_top" xlink:title=" ">
<polygon fill="none" stroke="black" points="1649.5,-291.5 1649.5,-310.5 1738.5,-310.5 1738.5,-291.5 1649.5,-291.5"/>
<text text-anchor="middle" x="1694" y="-298.5" font-family="Helvetica,sans-Serif" font-size="10.00">ProgressBar.hpp</text>
</a>
</g>
</g>
<!-- Node1&#45;&gt;Node22 -->
<g id="edge40" class="edge">
<title>Node1&#45;&gt;Node22</title>
<path fill="none" stroke="midnightblue" d="M1054.52,-357.57C1164.36,-349.91 1411.49,-331.87 1619,-311 1625.42,-310.35 1632.15,-309.62 1638.82,-308.87"/>
<polygon fill="midnightblue" stroke="midnightblue" points="1639.69,-312.29 1649.22,-307.66 1638.88,-305.34 1639.69,-312.29"/>
</g>
<!-- Node26 -->
<g id="node26" class="node">
<title>Node26</title>
<g id="a_node26"><a xlink:href="RungeKutta4_8hpp.html" target="_top" xlink:title=" ">
<polygon fill="none" stroke="black" points="1050,-291.5 1050,-310.5 1142,-310.5 1142,-291.5 1050,-291.5"/>
<text text-anchor="middle" x="1096" y="-298.5" font-family="Helvetica,sans-Serif" font-size="10.00">RungeKutta4.hpp</text>
</a>
</g>
</g>
<!-- Node1&#45;&gt;Node26 -->
<g id="edge45" class="edge">
<title>Node1&#45;&gt;Node26</title>
<path fill="none" stroke="midnightblue" d="M1020.46,-347.4C1036.33,-337.86 1057.19,-325.32 1072.97,-315.84"/>
<polygon fill="midnightblue" stroke="midnightblue" points="1074.83,-318.81 1081.59,-310.66 1071.22,-312.81 1074.83,-318.81"/>
</g>
<!-- Node27 -->
<g id="node27" class="node">
<title>Node27</title>
<g id="a_node27"><a xlink:title=" ">
<polygon fill="none" stroke="#bfbfbf" points="1903.5,-291.5 1903.5,-310.5 1950.5,-310.5 1950.5,-291.5 1903.5,-291.5"/>
<text text-anchor="middle" x="1927" y="-298.5" font-family="Helvetica,sans-Serif" font-size="10.00">math.h</text>
</a>
</g>
</g>
<!-- Node1&#45;&gt;Node27 -->
<g id="edge64" class="edge">
<title>Node1&#45;&gt;Node27</title>
<path fill="none" stroke="midnightblue" d="M1054.75,-361.74C1197.23,-361.56 1576.65,-356.47 1889,-311 1890.47,-310.79 1891.96,-310.54 1893.47,-310.28"/>
<polygon fill="midnightblue" stroke="midnightblue" points="1894.3,-313.68 1903.41,-308.27 1892.91,-306.82 1894.3,-313.68"/>
</g>
<!-- Node2&#45;&gt;Node3 -->
<g id="edge2" class="edge">
<title>Node2&#45;&gt;Node3</title>
<path fill="none" stroke="midnightblue" d="M952.47,-235.44C903.04,-225.94 823.25,-210.61 770.22,-200.42"/>
<polygon fill="midnightblue" stroke="midnightblue" points="770.8,-196.97 760.32,-198.52 769.48,-203.84 770.8,-196.97"/>
</g>
<!-- Node2&#45;&gt;Node9 -->
<g id="edge38" class="edge">
<title>Node2&#45;&gt;Node9</title>
<path fill="none" stroke="midnightblue" d="M925.97,-239.6C770.67,-229.06 406.03,-198.96 297,-143 275.15,-131.78 256.12,-111 243.61,-94.9"/>
<polygon fill="midnightblue" stroke="midnightblue" points="246.15,-92.44 237.36,-86.52 240.54,-96.63 246.15,-92.44"/>
</g>
<!-- Node2&#45;&gt;Node10 -->
<g id="edge39" class="edge">
<title>Node2&#45;&gt;Node10</title>
<path fill="none" stroke="midnightblue" d="M925.83,-242.88C816.34,-240.15 600.33,-230.84 420,-199 328.68,-182.87 305.63,-176.09 219,-143 175.75,-126.48 127.96,-101.45 100.04,-86.08"/>
<polygon fill="midnightblue" stroke="midnightblue" points="101.47,-82.87 91.03,-81.08 98.07,-88.99 101.47,-82.87"/>
</g>
<!-- Node2&#45;&gt;Node14 -->
<g id="edge33" class="edge">
<title>Node2&#45;&gt;Node14</title>
<path fill="none" stroke="midnightblue" d="M992.36,-235.26C978.06,-208.31 934.45,-126.12 915.25,-89.92"/>
<polygon fill="midnightblue" stroke="midnightblue" points="918.3,-88.21 910.52,-81.02 912.12,-91.49 918.3,-88.21"/>
</g>
<!-- Node2&#45;&gt;Node15 -->
<g id="edge34" class="edge">
<title>Node2&#45;&gt;Node15</title>
<path fill="none" stroke="midnightblue" d="M1002.05,-235.26C1017.6,-208.31 1065.05,-126.12 1085.94,-89.92"/>
<polygon fill="midnightblue" stroke="midnightblue" points="1089.11,-91.43 1091.08,-81.02 1083.05,-87.93 1089.11,-91.43"/>
</g>
<!-- Node2&#45;&gt;Node16 -->
<g id="edge35" class="edge">
<title>Node2&#45;&gt;Node16</title>
<path fill="none" stroke="midnightblue" d="M1068.11,-243.4C1143.39,-238.59 1259.5,-218.38 1320,-143 1330.27,-130.2 1331.46,-111.57 1330.24,-96.67"/>
<polygon fill="midnightblue" stroke="midnightblue" points="1333.7,-96.13 1329.03,-86.62 1326.75,-96.96 1333.7,-96.13"/>
</g>
<!-- Node2&#45;&gt;Node17 -->
<g id="edge36" class="edge">
<title>Node2&#45;&gt;Node17</title>
<path fill="none" stroke="midnightblue" d="M1068.24,-241.12C1126.43,-236.78 1209.89,-225.95 1278,-199 1342.85,-173.34 1407.88,-122.24 1441.52,-93.46"/>
<polygon fill="midnightblue" stroke="midnightblue" points="1444.11,-95.85 1449.38,-86.66 1439.53,-90.56 1444.11,-95.85"/>
</g>
<!-- Node2&#45;&gt;Node18 -->
<g id="edge37" class="edge">
<title>Node2&#45;&gt;Node18</title>
<path fill="none" stroke="midnightblue" d="M1013.56,-235.37C1050.3,-216.21 1138.88,-170.04 1182.65,-147.22"/>
<polygon fill="midnightblue" stroke="midnightblue" points="1184.27,-150.32 1191.52,-142.59 1181.03,-144.11 1184.27,-150.32"/>
</g>
<!-- Node4 -->
<g id="node4" class="node">
<title>Node4</title>
<g id="a_node4"><a xlink:href="GSDUtil_8hpp.html" target="_top" xlink:title=" ">
<polygon fill="none" stroke="black" points="370,-123.5 370,-142.5 442,-142.5 442,-123.5 370,-123.5"/>
<text text-anchor="middle" x="406" y="-130.5" font-family="Helvetica,sans-Serif" font-size="10.00">GSDUtil.hpp</text>
</a>
</g>
</g>
<!-- Node3&#45;&gt;Node4 -->
<g id="edge3" class="edge">
<title>Node3&#45;&gt;Node4</title>
<path fill="none" stroke="midnightblue" d="M670.74,-180.94C612.32,-171.2 511.41,-153.65 452.43,-142.99"/>
<polygon fill="midnightblue" stroke="midnightblue" points="452.74,-139.49 442.28,-141.15 451.49,-146.38 452.74,-139.49"/>
</g>
<!-- Node5 -->
<g id="node5" class="node">
<title>Node5</title>
<g id="a_node5"><a xlink:href="gsd_8h.html" target="_top" xlink:title="Declare GSD data types and C API.">
<polygon fill="none" stroke="black" points="302.5,-62 302.5,-81 343.5,-81 343.5,-62 302.5,-62"/>
<text text-anchor="middle" x="323" y="-69" font-family="Helvetica,sans-Serif" font-size="10.00">gsd.h</text>
</a>
</g>
</g>
<!-- Node3&#45;&gt;Node5 -->
<g id="edge14" class="edge">
<title>Node3&#45;&gt;Node5</title>
<path fill="none" stroke="midnightblue" d="M670.78,-184.58C580.86,-177.45 386.1,-160.22 361,-143 343.13,-130.74 332.93,-107.28 327.69,-90.8"/>
<polygon fill="midnightblue" stroke="midnightblue" points="331.05,-89.81 324.93,-81.16 324.32,-91.74 331.05,-89.81"/>
</g>
<!-- Node3&#45;&gt;Node9 -->
<g id="edge26" class="edge">
<title>Node3&#45;&gt;Node9</title>
<path fill="none" stroke="midnightblue" d="M670.76,-185.08C584.57,-179.12 400.03,-164.27 340,-143 307.5,-131.49 274.61,-109.24 252.96,-92.81"/>
<polygon fill="midnightblue" stroke="midnightblue" points="255.01,-89.97 244.96,-86.61 250.72,-95.5 255.01,-89.97"/>
</g>
<!-- Node3&#45;&gt;Node10 -->
<g id="edge27" class="edge">
<title>Node3&#45;&gt;Node10</title>
<path fill="none" stroke="midnightblue" d="M670.89,-186.14C593.6,-182.29 431.22,-171.31 297,-143 227.87,-128.42 149.7,-100.71 107.35,-84.72"/>
<polygon fill="midnightblue" stroke="midnightblue" points="108.46,-81.4 97.87,-81.11 105.97,-87.94 108.46,-81.4"/>
</g>
<!-- Node3&#45;&gt;Node11 -->
<g id="edge29" class="edge">
<title>Node3&#45;&gt;Node11</title>
<path fill="none" stroke="midnightblue" d="M670.64,-180.84C631.68,-173.84 574.45,-161.51 527,-143 488.07,-127.81 446.41,-102.51 422.09,-86.71"/>
<polygon fill="midnightblue" stroke="midnightblue" points="423.93,-83.73 413.65,-81.16 420.08,-89.58 423.93,-83.73"/>
</g>
<!-- Node3&#45;&gt;Node12 -->
<g id="edge30" class="edge">
<title>Node3&#45;&gt;Node12</title>
<path fill="none" stroke="midnightblue" d="M716.09,-179.44C715.74,-165.51 712.93,-137.99 697,-123 670.99,-98.52 571.04,-83.43 514.53,-76.68"/>
<polygon fill="midnightblue" stroke="midnightblue" points="514.84,-73.19 504.51,-75.51 514.04,-80.15 514.84,-73.19"/>
</g>
<!-- Node3&#45;&gt;Node13 -->
<g id="edge31" class="edge">
<title>Node3&#45;&gt;Node13</title>
<path fill="none" stroke="midnightblue" d="M718.86,-179.32C725.02,-160.59 739.67,-116.05 747.98,-90.79"/>
<polygon fill="midnightblue" stroke="midnightblue" points="751.31,-91.87 751.11,-81.28 744.66,-89.69 751.31,-91.87"/>
</g>
<!-- Node3&#45;&gt;Node14 -->
<g id="edge15" class="edge">
<title>Node3&#45;&gt;Node14</title>
<path fill="none" stroke="midnightblue" d="M730.28,-179.32C762.96,-159.45 843.41,-110.55 883.1,-86.42"/>
<polygon fill="midnightblue" stroke="midnightblue" points="885.09,-89.31 891.81,-81.12 881.45,-83.33 885.09,-89.31"/>
</g>
<!-- Node3&#45;&gt;Node15 -->
<g id="edge16" class="edge">
<title>Node3&#45;&gt;Node15</title>
<path fill="none" stroke="midnightblue" d="M744.25,-179.41C811.66,-158.92 981.96,-107.16 1058.15,-84.01"/>
<polygon fill="midnightblue" stroke="midnightblue" points="1059.27,-87.32 1067.82,-81.06 1057.24,-80.62 1059.27,-87.32"/>
</g>
<!-- Node3&#45;&gt;Node16 -->
<g id="edge17" class="edge">
<title>Node3&#45;&gt;Node16</title>
<path fill="none" stroke="midnightblue" d="M761.35,-179.41C868.24,-159.17 1136.29,-108.42 1260.69,-84.87"/>
<polygon fill="midnightblue" stroke="midnightblue" points="1261.66,-88.25 1270.83,-82.95 1260.35,-81.37 1261.66,-88.25"/>
</g>
<!-- Node3&#45;&gt;Node17 -->
<g id="edge18" class="edge">
<title>Node3&#45;&gt;Node17</title>
<path fill="none" stroke="midnightblue" d="M761.04,-186.84C882.47,-183.36 1214.54,-171.44 1320,-143 1361.7,-131.75 1405.81,-108.45 1434.27,-91.71"/>
<polygon fill="midnightblue" stroke="midnightblue" points="1436.15,-94.67 1442.94,-86.53 1432.56,-88.66 1436.15,-94.67"/>
</g>
<!-- Node3&#45;&gt;Node18 -->
<g id="edge19" class="edge">
<title>Node3&#45;&gt;Node18</title>
<path fill="none" stroke="midnightblue" d="M761.4,-183.02C842.87,-174.08 1015.15,-155.17 1120.32,-143.62"/>
<polygon fill="midnightblue" stroke="midnightblue" points="1120.72,-147.1 1130.28,-142.53 1119.96,-140.14 1120.72,-147.1"/>
</g>
<!-- Node19 -->
<g id="node19" class="node">
<title>Node19</title>
<g id="a_node19"><a xlink:title=" ">
<polygon fill="none" stroke="#bfbfbf" points="536,-123.5 536,-142.5 626,-142.5 626,-123.5 536,-123.5"/>
<text text-anchor="middle" x="581" y="-130.5" font-family="Helvetica,sans-Serif" font-size="10.00">spdlog/fmt/ostr.h</text>
</a>
</g>
</g>
<!-- Node3&#45;&gt;Node19 -->
<g id="edge25" class="edge">
<title>Node3&#45;&gt;Node19</title>
<path fill="none" stroke="midnightblue" d="M694.61,-179.44C672.29,-170.52 637.1,-156.44 611.79,-146.32"/>
<polygon fill="midnightblue" stroke="midnightblue" points="612.88,-142.98 602.29,-142.52 610.28,-149.48 612.88,-142.98"/>
</g>
<!-- Node20 -->
<g id="node20" class="node">
<title>Node20</title>
<g id="a_node20"><a xlink:title=" ">
<polygon fill="none" stroke="#bfbfbf" points="1481,-123.5 1481,-142.5 1535,-142.5 1535,-123.5 1481,-123.5"/>
<text text-anchor="middle" x="1508" y="-130.5" font-family="Helvetica,sans-Serif" font-size="10.00">iostream</text>
</a>
</g>
</g>
<!-- Node3&#45;&gt;Node20 -->
<g id="edge28" class="edge">
<title>Node3&#45;&gt;Node20</title>
<path fill="none" stroke="midnightblue" d="M761.14,-184.92C903.25,-175.23 1339.77,-145.47 1470.58,-136.55"/>
<polygon fill="midnightblue" stroke="midnightblue" points="1471.13,-140.02 1480.87,-135.85 1470.65,-133.04 1471.13,-140.02"/>
</g>
<!-- Node21 -->
<g id="node21" class="node">
<title>Node21</title>
<g id="a_node21"><a xlink:title=" ">
<polygon fill="none" stroke="#bfbfbf" points="644,-123.5 644,-142.5 688,-142.5 688,-123.5 644,-123.5"/>
<text text-anchor="middle" x="666" y="-130.5" font-family="Helvetica,sans-Serif" font-size="10.00">thread</text>
</a>
</g>
</g>
<!-- Node3&#45;&gt;Node21 -->
<g id="edge32" class="edge">
<title>Node3&#45;&gt;Node21</title>
<path fill="none" stroke="midnightblue" d="M707.74,-179.08C700.54,-171.3 689.89,-159.8 681.15,-150.37"/>
<polygon fill="midnightblue" stroke="midnightblue" points="683.47,-147.71 674.1,-142.75 678.33,-152.47 683.47,-147.71"/>
</g>
<!-- Node4&#45;&gt;Node3 -->
<g id="edge4" class="edge">
<title>Node4&#45;&gt;Node3</title>
<path fill="none" stroke="midnightblue" d="M442.15,-139.55C496.34,-148.5 598.68,-166.26 661.81,-177.61"/>
<polygon fill="midnightblue" stroke="midnightblue" points="661.51,-181.11 671.97,-179.44 662.75,-174.22 661.51,-181.11"/>
</g>
<!-- Node4&#45;&gt;Node5 -->
<g id="edge5" class="edge">
<title>Node4&#45;&gt;Node5</title>
<path fill="none" stroke="midnightblue" d="M394.11,-123.48C380.8,-113.93 359,-98.31 343.04,-86.87"/>
<polygon fill="midnightblue" stroke="midnightblue" points="345.04,-83.99 334.87,-81.01 340.96,-89.68 345.04,-83.99"/>
</g>
<!-- Node4&#45;&gt;Node9 -->
<g id="edge9" class="edge">
<title>Node4&#45;&gt;Node9</title>
<path fill="none" stroke="midnightblue" d="M380.5,-123.48C354.25,-114.7 312.63,-100.79 279.49,-89.71"/>
<polygon fill="midnightblue" stroke="midnightblue" points="280.54,-86.37 269.95,-86.52 278.33,-93.01 280.54,-86.37"/>
</g>
<!-- Node4&#45;&gt;Node10 -->
<g id="edge10" class="edge">
<title>Node4&#45;&gt;Node10</title>
<path fill="none" stroke="midnightblue" d="M369.74,-125.46C311.29,-114.92 196,-94.14 128.54,-81.97"/>
<polygon fill="midnightblue" stroke="midnightblue" points="129.01,-78.5 118.55,-80.17 127.77,-85.39 129.01,-78.5"/>
</g>
<!-- Node4&#45;&gt;Node11 -->
<g id="edge11" class="edge">
<title>Node4&#45;&gt;Node11</title>
<path fill="none" stroke="midnightblue" d="M405.28,-123.48C404.58,-115.08 403.48,-101.98 402.57,-91.16"/>
<polygon fill="midnightblue" stroke="midnightblue" points="406.04,-90.68 401.72,-81.01 399.06,-91.27 406.04,-90.68"/>
</g>
<!-- Node4&#45;&gt;Node12 -->
<g id="edge12" class="edge">
<title>Node4&#45;&gt;Node12</title>
<path fill="none" stroke="midnightblue" d="M415.89,-123.48C426.65,-114.2 444.07,-99.17 457.22,-87.83"/>
<polygon fill="midnightblue" stroke="midnightblue" points="459.84,-90.19 465.13,-81.01 455.27,-84.89 459.84,-90.19"/>
</g>
<!-- Node4&#45;&gt;Node13 -->
<g id="edge13" class="edge">
<title>Node4&#45;&gt;Node13</title>
<path fill="none" stroke="midnightblue" d="M442.26,-125.8C511.02,-114.04 659.24,-88.7 723.38,-77.74"/>
<polygon fill="midnightblue" stroke="midnightblue" points="724.02,-81.18 733.28,-76.04 722.84,-74.28 724.02,-81.18"/>
</g>
<!-- Node6 -->
<g id="node6" class="node">
<title>Node6</title>
<g id="a_node6"><a xlink:title=" ">
<polygon fill="none" stroke="#bfbfbf" points="224,-0.5 224,-19.5 280,-19.5 280,-0.5 224,-0.5"/>
<text text-anchor="middle" x="252" y="-7.5" font-family="Helvetica,sans-Serif" font-size="10.00">stdbool.h</text>
</a>
</g>
</g>
<!-- Node5&#45;&gt;Node6 -->
<g id="edge6" class="edge">
<title>Node5&#45;&gt;Node6</title>
<path fill="none" stroke="midnightblue" d="M312.83,-61.98C301.65,-52.61 283.48,-37.38 269.91,-26.01"/>
<polygon fill="midnightblue" stroke="midnightblue" points="272.07,-23.25 262.15,-19.51 267.57,-28.61 272.07,-23.25"/>
</g>
<!-- Node7 -->
<g id="node7" class="node">
<title>Node7</title>
<g id="a_node7"><a xlink:title=" ">
<polygon fill="none" stroke="#bfbfbf" points="298.5,-0.5 298.5,-19.5 347.5,-19.5 347.5,-0.5 298.5,-0.5"/>
<text text-anchor="middle" x="323" y="-7.5" font-family="Helvetica,sans-Serif" font-size="10.00">stdint.h</text>
</a>
</g>
</g>
<!-- Node5&#45;&gt;Node7 -->
<g id="edge7" class="edge">
<title>Node5&#45;&gt;Node7</title>
<path fill="none" stroke="midnightblue" d="M323,-61.98C323,-53.58 323,-40.48 323,-29.66"/>
<polygon fill="midnightblue" stroke="midnightblue" points="326.5,-29.51 323,-19.51 319.5,-29.51 326.5,-29.51"/>
</g>
<!-- Node8 -->
<g id="node8" class="node">
<title>Node8</title>
<g id="a_node8"><a xlink:title=" ">
<polygon fill="none" stroke="#bfbfbf" points="365.5,-0.5 365.5,-19.5 414.5,-19.5 414.5,-0.5 365.5,-0.5"/>
<text text-anchor="middle" x="390" y="-7.5" font-family="Helvetica,sans-Serif" font-size="10.00">string.h</text>
</a>
</g>
</g>
<!-- Node5&#45;&gt;Node8 -->
<g id="edge8" class="edge">
<title>Node5&#45;&gt;Node8</title>
<path fill="none" stroke="midnightblue" d="M332.6,-61.98C343.05,-52.7 359.97,-37.67 372.74,-26.33"/>
<polygon fill="midnightblue" stroke="midnightblue" points="375.27,-28.77 380.42,-19.51 370.62,-23.53 375.27,-28.77"/>
</g>
<!-- Node18&#45;&gt;Node14 -->
<g id="edge20" class="edge">
<title>Node18&#45;&gt;Node14</title>
<path fill="none" stroke="midnightblue" d="M1164.73,-123.48C1110.57,-112.8 1017.83,-94.53 959.34,-83.01"/>
<polygon fill="midnightblue" stroke="midnightblue" points="959.68,-79.51 949.19,-81.01 958.32,-86.38 959.68,-79.51"/>
</g>
<!-- Node18&#45;&gt;Node15 -->
<g id="edge21" class="edge">
<title>Node18&#45;&gt;Node15</title>
<path fill="none" stroke="midnightblue" d="M1191.95,-123.48C1173.41,-113.62 1142.66,-97.29 1120.98,-85.77"/>
<polygon fill="midnightblue" stroke="midnightblue" points="1122.49,-82.61 1112.02,-81.01 1119.21,-88.79 1122.49,-82.61"/>
</g>
<!-- Node18&#45;&gt;Node16 -->
<g id="edge22" class="edge">
<title>Node18&#45;&gt;Node16</title>
<path fill="none" stroke="midnightblue" d="M1224.91,-123.48C1241.56,-115.08 1267.55,-101.97 1289.01,-91.15"/>
<polygon fill="midnightblue" stroke="midnightblue" points="1290.84,-94.15 1298.19,-86.52 1287.68,-87.9 1290.84,-94.15"/>
</g>
<!-- Node18&#45;&gt;Node17 -->
<g id="edge23" class="edge">
<title>Node18&#45;&gt;Node17</title>
<path fill="none" stroke="midnightblue" d="M1244.82,-123.48C1283.78,-114.46 1346.19,-100.01 1394.63,-88.79"/>
<polygon fill="midnightblue" stroke="midnightblue" points="1395.48,-92.19 1404.43,-86.52 1393.9,-85.37 1395.48,-92.19"/>
</g>
<!-- Node18&#45;&gt;Node18 -->
<g id="edge24" class="edge">
<title>Node18&#45;&gt;Node18</title>
<path fill="none" stroke="midnightblue" d="M1251.45,-142.5C1281.25,-145.33 1310.5,-142.16 1310.5,-133 1310.5,-124.88 1287.5,-121.47 1261.51,-122.77"/>
<polygon fill="midnightblue" stroke="midnightblue" points="1261.17,-119.29 1251.45,-123.5 1261.68,-126.27 1261.17,-119.29"/>
</g>
<!-- Node22&#45;&gt;Node20 -->
<g id="edge44" class="edge">
<title>Node22&#45;&gt;Node20</title>
<path fill="none" stroke="midnightblue" d="M1684.26,-291.31C1654.38,-264.64 1563.71,-183.72 1525.39,-149.52"/>
<polygon fill="midnightblue" stroke="midnightblue" points="1527.43,-146.65 1517.64,-142.61 1522.77,-151.88 1527.43,-146.65"/>
</g>
<!-- Node23 -->
<g id="node23" class="node">
<title>Node23</title>
<g id="a_node23"><a xlink:title=" ">
<polygon fill="none" stroke="#bfbfbf" points="1671,-235.5 1671,-254.5 1717,-254.5 1717,-235.5 1671,-235.5"/>
<text text-anchor="middle" x="1694" y="-242.5" font-family="Helvetica,sans-Serif" font-size="10.00">chrono</text>
</a>
</g>
</g>
<!-- Node22&#45;&gt;Node23 -->
<g id="edge41" class="edge">
<title>Node22&#45;&gt;Node23</title>
<path fill="none" stroke="midnightblue" d="M1694,-291.08C1694,-284.01 1694,-273.86 1694,-264.99"/>
<polygon fill="midnightblue" stroke="midnightblue" points="1697.5,-264.75 1694,-254.75 1690.5,-264.75 1697.5,-264.75"/>
</g>
<!-- Node24 -->
<g id="node24" class="node">
<title>Node24</title>
<g id="a_node24"><a xlink:title=" ">
<polygon fill="none" stroke="#bfbfbf" points="1735,-235.5 1735,-254.5 1779,-254.5 1779,-235.5 1735,-235.5"/>
<text text-anchor="middle" x="1757" y="-242.5" font-family="Helvetica,sans-Serif" font-size="10.00">cmath</text>
</a>
</g>
</g>
<!-- Node22&#45;&gt;Node24 -->
<g id="edge42" class="edge">
<title>Node22&#45;&gt;Node24</title>
<path fill="none" stroke="midnightblue" d="M1704.12,-291.32C1713.53,-283.26 1727.74,-271.08 1739.07,-261.37"/>
<polygon fill="midnightblue" stroke="midnightblue" points="1741.38,-264 1746.69,-254.83 1736.82,-258.68 1741.38,-264"/>
</g>
<!-- Node25 -->
<g id="node25" class="node">
<title>Node25</title>
<g id="a_node25"><a xlink:title=" ">
<polygon fill="none" stroke="#bfbfbf" points="1797,-235.5 1797,-254.5 1847,-254.5 1847,-235.5 1797,-235.5"/>
<text text-anchor="middle" x="1822" y="-242.5" font-family="Helvetica,sans-Serif" font-size="10.00">iomanip</text>
</a>
</g>
</g>
<!-- Node22&#45;&gt;Node25 -->
<g id="edge43" class="edge">
<title>Node22&#45;&gt;Node25</title>
<path fill="none" stroke="midnightblue" d="M1714.28,-291.44C1735.35,-282.56 1768.52,-268.56 1792.49,-258.45"/>
<polygon fill="midnightblue" stroke="midnightblue" points="1793.96,-261.63 1801.81,-254.52 1791.24,-255.18 1793.96,-261.63"/>
</g>
<!-- Node26&#45;&gt;Node2 -->
<g id="edge46" class="edge">
<title>Node26&#45;&gt;Node2</title>
<path fill="none" stroke="midnightblue" d="M1080.09,-291.32C1064.36,-282.74 1040.06,-269.49 1021.79,-259.52"/>
<polygon fill="midnightblue" stroke="midnightblue" points="1023.32,-256.37 1012.87,-254.65 1019.97,-262.52 1023.32,-256.37"/>
</g>
<!-- Node26&#45;&gt;Node3 -->
<g id="edge47" class="edge">
<title>Node26&#45;&gt;Node3</title>
<path fill="none" stroke="midnightblue" d="M1059.13,-291.49C1022.8,-282.92 965.82,-269.01 917,-255 857.85,-238.02 789.9,-215.38 750.09,-201.79"/>
<polygon fill="midnightblue" stroke="midnightblue" points="751.19,-198.47 740.59,-198.54 748.92,-205.09 751.19,-198.47"/>
</g>
<!-- Node26&#45;&gt;Node9 -->
<g id="edge53" class="edge">
<title>Node26&#45;&gt;Node9</title>
<path fill="none" stroke="midnightblue" d="M1049.87,-296.35C939.59,-286.93 652.56,-258.28 420,-199 349.83,-181.11 322,-190.1 267,-143 252.58,-130.65 242.49,-111.59 236.19,-96.4"/>
<polygon fill="midnightblue" stroke="midnightblue" points="239.29,-94.7 232.43,-86.63 232.76,-97.22 239.29,-94.7"/>
</g>
<!-- Node26&#45;&gt;Node10 -->
<g id="edge54" class="edge">
<title>Node26&#45;&gt;Node10</title>
<path fill="none" stroke="midnightblue" d="M1049.6,-298.78C927.77,-294.56 589.64,-276.21 321,-199 251.81,-179.11 232.15,-177.57 169,-143 140.44,-127.37 111.09,-103.58 93.19,-88.04"/>
<polygon fill="midnightblue" stroke="midnightblue" points="95.2,-85.13 85.38,-81.14 90.56,-90.38 95.2,-85.13"/>
</g>
<!-- Node26&#45;&gt;Node14 -->
<g id="edge48" class="edge">
<title>Node26&#45;&gt;Node14</title>
<path fill="none" stroke="midnightblue" d="M1094.95,-291.43C1093.04,-278.41 1088.14,-253.27 1077,-235 1036.9,-169.24 963.43,-112.4 927.26,-86.87"/>
<polygon fill="midnightblue" stroke="midnightblue" points="929.12,-83.9 918.92,-81.06 925.13,-89.64 929.12,-83.9"/>
</g>
<!-- Node26&#45;&gt;Node15 -->
<g id="edge49" class="edge">
<title>Node26&#45;&gt;Node15</title>
<path fill="none" stroke="midnightblue" d="M1099.6,-291.22C1103.06,-282.28 1108.03,-267.94 1110,-255 1119.01,-195.7 1107.12,-124.64 1100.26,-91.39"/>
<polygon fill="midnightblue" stroke="midnightblue" points="1103.61,-90.33 1098.08,-81.29 1096.77,-91.8 1103.61,-90.33"/>
</g>
<!-- Node26&#45;&gt;Node16 -->
<g id="edge50" class="edge">
<title>Node26&#45;&gt;Node16</title>
<path fill="none" stroke="midnightblue" d="M1128.4,-291.48C1185.14,-274.48 1300.08,-230.27 1338,-143 1344.45,-128.16 1341.22,-110.15 1336.5,-96.05"/>
<polygon fill="midnightblue" stroke="midnightblue" points="1339.72,-94.69 1332.91,-86.57 1333.18,-97.17 1339.72,-94.69"/>
</g>
<!-- Node26&#45;&gt;Node17 -->
<g id="edge51" class="edge">
<title>Node26&#45;&gt;Node17</title>
<path fill="none" stroke="midnightblue" d="M1142,-299.12C1232.61,-296.69 1430.47,-287.7 1489,-255 1550.56,-220.62 1615.26,-182.22 1577,-123 1567.57,-108.4 1552.79,-97.97 1537.02,-90.55"/>
<polygon fill="midnightblue" stroke="midnightblue" points="1538.23,-87.26 1527.66,-86.52 1535.46,-93.69 1538.23,-87.26"/>
</g>
<!-- Node26&#45;&gt;Node18 -->
<g id="edge52" class="edge">
<title>Node26&#45;&gt;Node18</title>
<path fill="none" stroke="midnightblue" d="M1108.83,-291.18C1120.21,-282.87 1136.74,-269.54 1148,-255 1173.39,-222.22 1192.33,-176.99 1201.62,-152.15"/>
<polygon fill="midnightblue" stroke="midnightblue" points="1204.97,-153.17 1205.1,-142.57 1198.39,-150.78 1204.97,-153.17"/>
</g>
<!-- Node26&#45;&gt;Node20 -->
<g id="edge55" class="edge">
<title>Node26&#45;&gt;Node20</title>
<path fill="none" stroke="midnightblue" d="M1142.15,-300.34C1230.28,-300.07 1418.16,-294.69 1467,-255 1498.03,-229.79 1505.69,-180.09 1507.5,-152.89"/>
<polygon fill="midnightblue" stroke="midnightblue" points="1511.01,-152.9 1507.98,-142.75 1504.02,-152.57 1511.01,-152.9"/>
</g>
</g>
</svg>
