<?xml version="1.0" encoding="UTF-8" standalone="no"?>
<!DOCTYPE svg PUBLIC "-//W3C//DTD SVG 1.1//EN"
 "http://www.w3.org/Graphics/SVG/1.1/DTD/svg11.dtd">
<!-- Generated by graphviz version 2.43.0 (0)
 -->
<!-- Title: src/simulation_system/Engine.hpp Pages: 1 -->
<svg width="1845pt" height="386pt"
 viewBox="0.00 0.00 1844.50 386.00" xmlns="http://www.w3.org/2000/svg" xmlns:xlink="http://www.w3.org/1999/xlink">
<g id="graph0" class="graph" transform="scale(1 1) rotate(0) translate(4 382)">
<title>src/simulation_system/Engine.hpp</title>
<!-- Node1 -->
<g id="node1" class="node">
<title>Node1</title>
<g id="a_node1"><a xlink:title=" ">
<polygon fill="#bfbfbf" stroke="black" points="963.5,-347.5 963.5,-377.5 1078.5,-377.5 1078.5,-347.5 963.5,-347.5"/>
<text text-anchor="start" x="971.5" y="-365.5" font-family="Helvetica,sans-Serif" font-size="10.00">src/simulation_system</text>
<text text-anchor="middle" x="1021" y="-354.5" font-family="Helvetica,sans-Serif" font-size="10.00">/Engine.hpp</text>
</a>
</g>
</g>
<!-- Node2 -->
<g id="node2" class="node">
<title>Node2</title>
<g id="a_node2"><a xlink:href="SystemData_8hpp.html" target="_top" xlink:title=" ">
<polygon fill="none" stroke="black" points="586,-179.5 586,-198.5 676,-198.5 676,-179.5 586,-179.5"/>
<text text-anchor="middle" x="631" y="-186.5" font-family="Helvetica,sans-Serif" font-size="10.00">SystemData.hpp</text>
</a>
</g>
</g>
<!-- Node1&#45;&gt;Node2 -->
<g id="edge1" class="edge">
<title>Node1&#45;&gt;Node2</title>
<path fill="none" stroke="midnightblue" d="M963.29,-347.5C900.76,-330.89 799.31,-299.71 720,-255 694.03,-240.36 666.69,-219.46 649.28,-205.34"/>
<polygon fill="midnightblue" stroke="midnightblue" points="651.09,-202.29 641.14,-198.65 646.64,-207.7 651.09,-202.29"/>
</g>
<!-- Node8 -->
<g id="node8" class="node">
<title>Node8</title>
<g id="a_node8"><a xlink:title=" ">
<polygon fill="none" stroke="#bfbfbf" points="345,-56.5 345,-86.5 443,-86.5 443,-56.5 345,-56.5"/>
<text text-anchor="start" x="353" y="-74.5" font-family="Helvetica,sans-Serif" font-size="10.00">spdlog/sinks/basic</text>
<text text-anchor="middle" x="394" y="-63.5" font-family="Helvetica,sans-Serif" font-size="10.00">_file_sink.h</text>
</a>
</g>
</g>
<!-- Node1&#45;&gt;Node8 -->
<g id="edge62" class="edge">
<title>Node1&#45;&gt;Node8</title>
<path fill="none" stroke="midnightblue" d="M963.42,-360.77C865.84,-358.47 662.27,-349.08 495,-311 413.29,-292.4 318,-329.8 318,-246 318,-246 318,-246 318,-188 318,-149.99 347.07,-114.82 369.25,-93.51"/>
<polygon fill="midnightblue" stroke="midnightblue" points="371.79,-95.93 376.75,-86.57 367.04,-90.79 371.79,-95.93"/>
</g>
<!-- Node9 -->
<g id="node9" class="node">
<title>Node9</title>
<g id="a_node9"><a xlink:title=" ">
<polygon fill="none" stroke="#bfbfbf" points="503.5,-62 503.5,-81 588.5,-81 588.5,-62 503.5,-62"/>
<text text-anchor="middle" x="546" y="-69" font-family="Helvetica,sans-Serif" font-size="10.00">spdlog/spdlog.h</text>
</a>
</g>
</g>
<!-- Node1&#45;&gt;Node9 -->
<g id="edge63" class="edge">
<title>Node1&#45;&gt;Node9</title>
<path fill="none" stroke="midnightblue" d="M963.33,-361.49C822.04,-359.93 470,-346 470,-246 470,-246 470,-246 470,-188 470,-146.31 504.98,-108.03 527.48,-87.72"/>
<polygon fill="midnightblue" stroke="midnightblue" points="529.86,-90.28 535.11,-81.08 525.27,-85 529.86,-90.28"/>
</g>
<!-- Node10 -->
<g id="node10" class="node">
<title>Node10</title>
<g id="a_node10"><a xlink:title=" ">
<polygon fill="none" stroke="#bfbfbf" points="12,-62 12,-81 64,-81 64,-62 12,-62"/>
<text text-anchor="middle" x="38" y="-69" font-family="Helvetica,sans-Serif" font-size="10.00">memory</text>
</a>
</g>
</g>
<!-- Node1&#45;&gt;Node10 -->
<g id="edge65" class="edge">
<title>Node1&#45;&gt;Node10</title>
<path fill="none" stroke="midnightblue" d="M963.25,-362.1C787.96,-363.32 264.18,-362.45 103,-311 51.43,-294.54 0,-300.13 0,-246 0,-246 0,-246 0,-188 0,-151.75 17.09,-112.17 28.35,-90.03"/>
<polygon fill="midnightblue" stroke="midnightblue" points="31.46,-91.64 33.03,-81.16 25.27,-88.37 31.46,-91.64"/>
</g>
<!-- Node11 -->
<g id="node11" class="node">
<title>Node11</title>
<g id="a_node11"><a xlink:title=" ">
<polygon fill="none" stroke="#bfbfbf" points="238.5,-62 238.5,-81 297.5,-81 297.5,-62 238.5,-62"/>
<text text-anchor="middle" x="268" y="-69" font-family="Helvetica,sans-Serif" font-size="10.00">stdexcept</text>
</a>
</g>
</g>
<!-- Node1&#45;&gt;Node11 -->
<g id="edge66" class="edge">
<title>Node1&#45;&gt;Node11</title>
<path fill="none" stroke="midnightblue" d="M963.23,-360.24C763.45,-355.15 114,-331.97 114,-246 114,-246 114,-246 114,-188 114,-156.48 197.63,-108.69 241.64,-85.73"/>
<polygon fill="midnightblue" stroke="midnightblue" points="243.35,-88.78 250.63,-81.09 240.14,-82.56 243.35,-88.78"/>
</g>
<!-- Node12 -->
<g id="node12" class="node">
<title>Node12</title>
<g id="a_node12"><a xlink:title=" ">
<polygon fill="none" stroke="#bfbfbf" points="120.5,-62 120.5,-81 161.5,-81 161.5,-62 120.5,-62"/>
<text text-anchor="middle" x="141" y="-69" font-family="Helvetica,sans-Serif" font-size="10.00">string</text>
</a>
</g>
</g>
<!-- Node1&#45;&gt;Node12 -->
<g id="edge67" class="edge">
<title>Node1&#45;&gt;Node12</title>
<path fill="none" stroke="midnightblue" d="M963.42,-361.48C799.47,-360.89 332.55,-355.25 187,-311 132.3,-294.37 76,-303.17 76,-246 76,-246 76,-246 76,-188 76,-148.19 105.69,-109.43 124.94,-88.49"/>
<polygon fill="midnightblue" stroke="midnightblue" points="127.59,-90.78 131.96,-81.13 122.53,-85.95 127.59,-90.78"/>
</g>
<!-- Node13 -->
<g id="node13" class="node">
<title>Node13</title>
<g id="a_node13"><a xlink:title=" ">
<polygon fill="none" stroke="#bfbfbf" points="1326.5,-62 1326.5,-81 1423.5,-81 1423.5,-62 1326.5,-62"/>
<text text-anchor="middle" x="1375" y="-69" font-family="Helvetica,sans-Serif" font-size="10.00">eigen3/Eigen/Core</text>
</a>
</g>
</g>
<!-- Node1&#45;&gt;Node13 -->
<g id="edge57" class="edge">
<title>Node1&#45;&gt;Node13</title>
<path fill="none" stroke="midnightblue" d="M1078.78,-360.46C1211.93,-356.5 1529,-337.46 1529,-246 1529,-246 1529,-246 1529,-188 1529,-131.96 1462.92,-99.77 1417.33,-84.24"/>
<polygon fill="midnightblue" stroke="midnightblue" points="1418.25,-80.86 1407.66,-81.09 1416.08,-87.52 1418.25,-80.86"/>
</g>
<!-- Node14 -->
<g id="node14" class="node">
<title>Node14</title>
<g id="a_node14"><a xlink:title=" ">
<polygon fill="none" stroke="#bfbfbf" points="1441.5,-62 1441.5,-81 1542.5,-81 1542.5,-62 1441.5,-62"/>
<text text-anchor="middle" x="1492" y="-69" font-family="Helvetica,sans-Serif" font-size="10.00">eigen3/Eigen/Eigen</text>
</a>
</g>
</g>
<!-- Node1&#45;&gt;Node14 -->
<g id="edge58" class="edge">
<title>Node1&#45;&gt;Node14</title>
<path fill="none" stroke="midnightblue" d="M1078.67,-360.38C1214.2,-357.18 1549.6,-345.89 1656,-311 1708.15,-293.9 1761,-300.88 1761,-246 1761,-246 1761,-246 1761,-188 1761,-98.02 1632.33,-77.25 1552.97,-73"/>
<polygon fill="midnightblue" stroke="midnightblue" points="1552.75,-69.49 1542.6,-72.53 1552.43,-76.48 1552.75,-69.49"/>
</g>
<!-- Node15 -->
<g id="node15" class="node">
<title>Node15</title>
<g id="a_node15"><a xlink:title=" ">
<polygon fill="none" stroke="#bfbfbf" points="1079,-56.5 1079,-86.5 1189,-86.5 1189,-56.5 1079,-56.5"/>
<text text-anchor="start" x="1087" y="-74.5" font-family="Helvetica,sans-Serif" font-size="10.00">eigen3/unsupported</text>
<text text-anchor="middle" x="1134" y="-63.5" font-family="Helvetica,sans-Serif" font-size="10.00">/Eigen/CXX11/Tensor</text>
</a>
</g>
</g>
<!-- Node1&#45;&gt;Node15 -->
<g id="edge59" class="edge">
<title>Node1&#45;&gt;Node15</title>
<path fill="none" stroke="midnightblue" d="M1078.71,-356.67C1188.15,-345.9 1415,-315.23 1415,-246 1415,-246 1415,-246 1415,-188 1415,-95.21 1282.32,-75.41 1199.3,-72.1"/>
<polygon fill="midnightblue" stroke="midnightblue" points="1199.29,-68.59 1189.18,-71.76 1199.06,-75.59 1199.29,-68.59"/>
</g>
<!-- Node16 -->
<g id="node16" class="node">
<title>Node16</title>
<g id="a_node16"><a xlink:title=" ">
<polygon fill="none" stroke="#bfbfbf" points="916.5,-56.5 916.5,-86.5 1047.5,-86.5 1047.5,-56.5 916.5,-56.5"/>
<text text-anchor="start" x="924.5" y="-74.5" font-family="Helvetica,sans-Serif" font-size="10.00">eigen3/unsupported</text>
<text text-anchor="middle" x="982" y="-63.5" font-family="Helvetica,sans-Serif" font-size="10.00">/Eigen/CXX11/ThreadPool</text>
</a>
</g>
</g>
<!-- Node1&#45;&gt;Node16 -->
<g id="edge60" class="edge">
<title>Node1&#45;&gt;Node16</title>
<path fill="none" stroke="midnightblue" d="M972.59,-347.42C927.77,-331.05 868,-299.25 868,-246 868,-246 868,-246 868,-188 868,-144.22 910,-111.03 943.02,-91.71"/>
<polygon fill="midnightblue" stroke="midnightblue" points="945.05,-94.58 952.05,-86.63 941.62,-88.48 945.05,-94.58"/>
</g>
<!-- Node17 -->
<g id="node17" class="node">
<title>Node17</title>
<g id="a_node17"><a xlink:href="helper__eigenTensorConversion_8hpp.html" target="_top" xlink:title=" ">
<polygon fill="none" stroke="black" points="1161.5,-123.5 1161.5,-142.5 1330.5,-142.5 1330.5,-123.5 1161.5,-123.5"/>
<text text-anchor="middle" x="1246" y="-130.5" font-family="Helvetica,sans-Serif" font-size="10.00">helper_eigenTensorConversion.hpp</text>
</a>
</g>
</g>
<!-- Node1&#45;&gt;Node17 -->
<g id="edge61" class="edge">
<title>Node1&#45;&gt;Node17</title>
<path fill="none" stroke="midnightblue" d="M1078.73,-353.79C1159.12,-339.5 1301.28,-300.5 1358,-199 1373.34,-171.55 1338.49,-154.7 1303.72,-145.05"/>
<polygon fill="midnightblue" stroke="midnightblue" points="1304.51,-141.64 1293.95,-142.52 1302.75,-148.42 1304.51,-141.64"/>
</g>
<!-- Node20 -->
<g id="node20" class="node">
<title>Node20</title>
<g id="a_node20"><a xlink:href="PotentialHydrodynamics_8hpp.html" target="_top" xlink:title=" ">
<polygon fill="none" stroke="black" points="987,-235.5 987,-254.5 1129,-254.5 1129,-235.5 987,-235.5"/>
<text text-anchor="middle" x="1058" y="-242.5" font-family="Helvetica,sans-Serif" font-size="10.00">PotentialHydrodynamics.hpp</text>
</a>
</g>
</g>
<!-- Node1&#45;&gt;Node20 -->
<g id="edge31" class="edge">
<title>Node1&#45;&gt;Node20</title>
<path fill="none" stroke="midnightblue" d="M1024.3,-347.31C1027.77,-332.97 1033.58,-310.24 1040,-291 1043.03,-281.91 1046.93,-272 1050.32,-263.8"/>
<polygon fill="midnightblue" stroke="midnightblue" points="1053.58,-265.09 1054.25,-254.52 1047.13,-262.36 1053.58,-265.09"/>
</g>
<!-- Node22 -->
<g id="node22" class="node">
<title>Node22</title>
<g id="a_node22"><a xlink:href="ProgressBar_8hpp.html" target="_top" xlink:title=" ">
<polygon fill="none" stroke="black" points="1557.5,-291.5 1557.5,-310.5 1646.5,-310.5 1646.5,-291.5 1557.5,-291.5"/>
<text text-anchor="middle" x="1602" y="-298.5" font-family="Helvetica,sans-Serif" font-size="10.00">ProgressBar.hpp</text>
</a>
</g>
</g>
<!-- Node1&#45;&gt;Node22 -->
<g id="edge41" class="edge">
<title>Node1&#45;&gt;Node22</title>
<path fill="none" stroke="midnightblue" d="M1078.66,-356.96C1175,-349.15 1374.72,-331.96 1543,-311 1544.3,-310.84 1545.62,-310.67 1546.95,-310.5"/>
<polygon fill="midnightblue" stroke="midnightblue" points="1547.82,-313.91 1557.26,-309.09 1546.88,-306.97 1547.82,-313.91"/>
</g>
<!-- Node26 -->
<g id="node26" class="node">
<title>Node26</title>
<g id="a_node26"><a xlink:href="RungeKutta4_8hpp.html" target="_top" xlink:title=" ">
<polygon fill="none" stroke="black" points="1049,-291.5 1049,-310.5 1141,-310.5 1141,-291.5 1049,-291.5"/>
<text text-anchor="middle" x="1095" y="-298.5" font-family="Helvetica,sans-Serif" font-size="10.00">RungeKutta4.hpp</text>
</a>
</g>
</g>
<!-- Node1&#45;&gt;Node26 -->
<g id="edge46" class="edge">
<title>Node1&#45;&gt;Node26</title>
<path fill="none" stroke="midnightblue" d="M1038.54,-347.4C1049.84,-338.31 1064.54,-326.49 1076.11,-317.19"/>
<polygon fill="midnightblue" stroke="midnightblue" points="1078.63,-319.65 1084.23,-310.66 1074.25,-314.2 1078.63,-319.65"/>
</g>
<!-- Node27 -->
<g id="node27" class="node">
<title>Node27</title>
<g id="a_node27"><a xlink:title=" ">
<polygon fill="none" stroke="#bfbfbf" points="1789.5,-291.5 1789.5,-310.5 1836.5,-310.5 1836.5,-291.5 1789.5,-291.5"/>
<text text-anchor="middle" x="1813" y="-298.5" font-family="Helvetica,sans-Serif" font-size="10.00">math.h</text>
</a>
</g>
</g>
<!-- Node1&#45;&gt;Node27 -->
<g id="edge64" class="edge">
<title>Node1&#45;&gt;Node27</title>
<path fill="none" stroke="midnightblue" d="M1078.58,-360.89C1205.21,-358.83 1517.16,-349.89 1775,-311 1776.47,-310.78 1777.96,-310.53 1779.46,-310.26"/>
<polygon fill="midnightblue" stroke="midnightblue" points="1780.3,-313.66 1789.4,-308.23 1778.9,-306.8 1780.3,-313.66"/>
</g>
<!-- Node3 -->
<g id="node3" class="node">
<title>Node3</title>
<g id="a_node3"><a xlink:href="GSDUtil_8hpp.html" target="_top" xlink:title=" ">
<polygon fill="none" stroke="black" points="218,-123.5 218,-142.5 290,-142.5 290,-123.5 218,-123.5"/>
<text text-anchor="middle" x="254" y="-130.5" font-family="Helvetica,sans-Serif" font-size="10.00">GSDUtil.hpp</text>
</a>
</g>
</g>
<!-- Node2&#45;&gt;Node3 -->
<g id="edge2" class="edge">
<title>Node2&#45;&gt;Node3</title>
<path fill="none" stroke="midnightblue" d="M585.91,-182.17C513.76,-172.27 373.39,-152.18 300.42,-141.34"/>
<polygon fill="midnightblue" stroke="midnightblue" points="300.56,-137.82 290.16,-139.81 299.53,-144.74 300.56,-137.82"/>
</g>
<!-- Node4 -->
<g id="node4" class="node">
<title>Node4</title>
<g id="a_node4"><a xlink:href="gsd_8h.html" target="_top" xlink:title="Declare GSD data types and C API.">
<polygon fill="none" stroke="black" points="179.5,-62 179.5,-81 220.5,-81 220.5,-62 179.5,-62"/>
<text text-anchor="middle" x="200" y="-69" font-family="Helvetica,sans-Serif" font-size="10.00">gsd.h</text>
</a>
</g>
</g>
<!-- Node2&#45;&gt;Node4 -->
<g id="edge13" class="edge">
<title>Node2&#45;&gt;Node4</title>
<path fill="none" stroke="midnightblue" d="M585.76,-186.3C482.35,-181.97 235.55,-169 209,-143 195.66,-129.94 194.95,-107.69 196.59,-91.68"/>
<polygon fill="midnightblue" stroke="midnightblue" points="200.12,-91.74 198.06,-81.34 193.19,-90.75 200.12,-91.74"/>
</g>
<!-- Node2&#45;&gt;Node8 -->
<g id="edge25" class="edge">
<title>Node2&#45;&gt;Node8</title>
<path fill="none" stroke="midnightblue" d="M613.19,-179.32C574.88,-160.65 483.94,-116.33 432.04,-91.04"/>
<polygon fill="midnightblue" stroke="midnightblue" points="433.34,-87.78 422.82,-86.55 430.28,-94.07 433.34,-87.78"/>
</g>
<!-- Node2&#45;&gt;Node9 -->
<g id="edge26" class="edge">
<title>Node2&#45;&gt;Node9</title>
<path fill="none" stroke="midnightblue" d="M611.41,-179.36C596.55,-171.82 576.73,-159.5 565,-143 554.12,-127.68 549.47,-106.47 547.48,-91.32"/>
<polygon fill="midnightblue" stroke="midnightblue" points="550.94,-90.71 546.42,-81.12 543.97,-91.43 550.94,-90.71"/>
</g>
<!-- Node2&#45;&gt;Node10 -->
<g id="edge27" class="edge">
<title>Node2&#45;&gt;Node10</title>
<path fill="none" stroke="midnightblue" d="M585.69,-185.89C484.98,-180.84 245.32,-166.66 168,-143 126.42,-130.28 82.96,-103.53 58.3,-86.89"/>
<polygon fill="midnightblue" stroke="midnightblue" points="60.04,-83.83 49.82,-81.05 56.07,-89.6 60.04,-83.83"/>
</g>
<!-- Node2&#45;&gt;Node11 -->
<g id="edge28" class="edge">
<title>Node2&#45;&gt;Node11</title>
<path fill="none" stroke="midnightblue" d="M604.01,-179.41C539.83,-158.99 378,-107.5 304.87,-84.23"/>
<polygon fill="midnightblue" stroke="midnightblue" points="305.76,-80.84 295.17,-81.14 303.63,-87.51 305.76,-80.84"/>
</g>
<!-- Node2&#45;&gt;Node12 -->
<g id="edge29" class="edge">
<title>Node2&#45;&gt;Node12</title>
<path fill="none" stroke="midnightblue" d="M585.85,-187.86C488.06,-186.83 260.15,-180.38 194,-143 173.02,-131.15 157.81,-107.23 149.2,-90.56"/>
<polygon fill="midnightblue" stroke="midnightblue" points="152.22,-88.76 144.7,-81.29 145.92,-91.81 152.22,-88.76"/>
</g>
<!-- Node2&#45;&gt;Node13 -->
<g id="edge14" class="edge">
<title>Node2&#45;&gt;Node13</title>
<path fill="none" stroke="midnightblue" d="M676.14,-180.99C804.66,-161.04 1172.47,-103.94 1316.32,-81.61"/>
<polygon fill="midnightblue" stroke="midnightblue" points="1316.94,-85.05 1326.29,-80.06 1315.87,-78.14 1316.94,-85.05"/>
</g>
<!-- Node2&#45;&gt;Node14 -->
<g id="edge15" class="edge">
<title>Node2&#45;&gt;Node14</title>
<path fill="none" stroke="midnightblue" d="M676.22,-182.77C746.56,-174.6 886.45,-158.14 1005,-143 1070.84,-134.59 1087.19,-131.68 1153,-123 1277.39,-106.6 1309.66,-110.01 1433,-87 1438.51,-85.97 1444.27,-84.75 1449.95,-83.45"/>
<polygon fill="midnightblue" stroke="midnightblue" points="1451.07,-86.78 1459.99,-81.07 1449.45,-79.97 1451.07,-86.78"/>
</g>
<!-- Node2&#45;&gt;Node15 -->
<g id="edge16" class="edge">
<title>Node2&#45;&gt;Node15</title>
<path fill="none" stroke="midnightblue" d="M668.4,-179.41C753.42,-159.89 962.13,-111.97 1068.85,-87.46"/>
<polygon fill="midnightblue" stroke="midnightblue" points="1069.89,-90.81 1078.85,-85.16 1068.32,-83.99 1069.89,-90.81"/>
</g>
<!-- Node2&#45;&gt;Node16 -->
<g id="edge17" class="edge">
<title>Node2&#45;&gt;Node16</title>
<path fill="none" stroke="midnightblue" d="M657.1,-179.41C714.57,-160.5 853.03,-114.94 929.34,-89.83"/>
<polygon fill="midnightblue" stroke="midnightblue" points="930.82,-93.03 939.23,-86.58 928.63,-86.38 930.82,-93.03"/>
</g>
<!-- Node2&#45;&gt;Node17 -->
<g id="edge18" class="edge">
<title>Node2&#45;&gt;Node17</title>
<path fill="none" stroke="midnightblue" d="M676.22,-184.03C775.98,-175.27 1016.71,-154.13 1151.16,-142.33"/>
<polygon fill="midnightblue" stroke="midnightblue" points="1151.79,-145.79 1161.44,-141.42 1151.17,-138.81 1151.79,-145.79"/>
</g>
<!-- Node18 -->
<g id="node18" class="node">
<title>Node18</title>
<g id="a_node18"><a xlink:title=" ">
<polygon fill="none" stroke="#bfbfbf" points="574,-123.5 574,-142.5 664,-142.5 664,-123.5 574,-123.5"/>
<text text-anchor="middle" x="619" y="-130.5" font-family="Helvetica,sans-Serif" font-size="10.00">spdlog/fmt/ostr.h</text>
</a>
</g>
</g>
<!-- Node2&#45;&gt;Node18 -->
<g id="edge24" class="edge">
<title>Node2&#45;&gt;Node18</title>
<path fill="none" stroke="midnightblue" d="M629.02,-179.08C627.43,-171.93 625.14,-161.64 623.15,-152.69"/>
<polygon fill="midnightblue" stroke="midnightblue" points="626.53,-151.75 620.94,-142.75 619.7,-153.27 626.53,-151.75"/>
</g>
<!-- Node19 -->
<g id="node19" class="node">
<title>Node19</title>
<g id="a_node19"><a xlink:title=" ">
<polygon fill="none" stroke="#bfbfbf" points="682,-123.5 682,-142.5 726,-142.5 726,-123.5 682,-123.5"/>
<text text-anchor="middle" x="704" y="-130.5" font-family="Helvetica,sans-Serif" font-size="10.00">thread</text>
</a>
</g>
</g>
<!-- Node2&#45;&gt;Node19 -->
<g id="edge30" class="edge">
<title>Node2&#45;&gt;Node19</title>
<path fill="none" stroke="midnightblue" d="M642.73,-179.32C653.84,-171.11 670.74,-158.6 683.98,-148.81"/>
<polygon fill="midnightblue" stroke="midnightblue" points="686.1,-151.59 692.06,-142.83 681.94,-145.97 686.1,-151.59"/>
</g>
<!-- Node3&#45;&gt;Node2 -->
<g id="edge3" class="edge">
<title>Node3&#45;&gt;Node2</title>
<path fill="none" stroke="midnightblue" d="M290.25,-138.62C356.52,-147.65 497.19,-167.74 575.53,-179.32"/>
<polygon fill="midnightblue" stroke="midnightblue" points="575.29,-182.82 585.7,-180.83 576.32,-175.9 575.29,-182.82"/>
</g>
<!-- Node3&#45;&gt;Node4 -->
<g id="edge4" class="edge">
<title>Node3&#45;&gt;Node4</title>
<path fill="none" stroke="midnightblue" d="M246.26,-123.48C238,-114.37 224.72,-99.74 214.51,-88.48"/>
<polygon fill="midnightblue" stroke="midnightblue" points="217.03,-86.06 207.72,-81.01 211.85,-90.77 217.03,-86.06"/>
</g>
<!-- Node3&#45;&gt;Node8 -->
<g id="edge8" class="edge">
<title>Node3&#45;&gt;Node8</title>
<path fill="none" stroke="midnightblue" d="M274.06,-123.48C294.17,-114.93 325.76,-101.5 351.47,-90.57"/>
<polygon fill="midnightblue" stroke="midnightblue" points="353.17,-93.66 361,-86.52 350.43,-87.21 353.17,-93.66"/>
</g>
<!-- Node3&#45;&gt;Node9 -->
<g id="edge9" class="edge">
<title>Node3&#45;&gt;Node9</title>
<path fill="none" stroke="midnightblue" d="M290.1,-124.64C341.3,-114.21 435.32,-95.05 494.03,-83.09"/>
<polygon fill="midnightblue" stroke="midnightblue" points="494.75,-86.51 503.85,-81.09 493.35,-79.66 494.75,-86.51"/>
</g>
<!-- Node3&#45;&gt;Node10 -->
<g id="edge10" class="edge">
<title>Node3&#45;&gt;Node10</title>
<path fill="none" stroke="midnightblue" d="M223.05,-123.48C183.61,-112.61 115.56,-93.86 73.88,-82.38"/>
<polygon fill="midnightblue" stroke="midnightblue" points="74.72,-78.98 64.15,-79.7 72.86,-85.73 74.72,-78.98"/>
</g>
<!-- Node3&#45;&gt;Node11 -->
<g id="edge11" class="edge">
<title>Node3&#45;&gt;Node11</title>
<path fill="none" stroke="midnightblue" d="M256.01,-123.48C258,-114.99 261.13,-101.7 263.69,-90.82"/>
<polygon fill="midnightblue" stroke="midnightblue" points="267.11,-91.54 266,-81.01 260.3,-89.94 267.11,-91.54"/>
</g>
<!-- Node3&#45;&gt;Node12 -->
<g id="edge12" class="edge">
<title>Node3&#45;&gt;Node12</title>
<path fill="none" stroke="midnightblue" d="M237.81,-123.48C219.1,-113.62 188.08,-97.29 166.2,-85.77"/>
<polygon fill="midnightblue" stroke="midnightblue" points="167.64,-82.57 157.16,-81.01 164.38,-88.77 167.64,-82.57"/>
</g>
<!-- Node5 -->
<g id="node5" class="node">
<title>Node5</title>
<g id="a_node5"><a xlink:title=" ">
<polygon fill="none" stroke="#bfbfbf" points="101,-0.5 101,-19.5 157,-19.5 157,-0.5 101,-0.5"/>
<text text-anchor="middle" x="129" y="-7.5" font-family="Helvetica,sans-Serif" font-size="10.00">stdbool.h</text>
</a>
</g>
</g>
<!-- Node4&#45;&gt;Node5 -->
<g id="edge5" class="edge">
<title>Node4&#45;&gt;Node5</title>
<path fill="none" stroke="midnightblue" d="M189.83,-61.98C178.65,-52.61 160.48,-37.38 146.91,-26.01"/>
<polygon fill="midnightblue" stroke="midnightblue" points="149.07,-23.25 139.15,-19.51 144.57,-28.61 149.07,-23.25"/>
</g>
<!-- Node6 -->
<g id="node6" class="node">
<title>Node6</title>
<g id="a_node6"><a xlink:title=" ">
<polygon fill="none" stroke="#bfbfbf" points="175.5,-0.5 175.5,-19.5 224.5,-19.5 224.5,-0.5 175.5,-0.5"/>
<text text-anchor="middle" x="200" y="-7.5" font-family="Helvetica,sans-Serif" font-size="10.00">stdint.h</text>
</a>
</g>
</g>
<!-- Node4&#45;&gt;Node6 -->
<g id="edge6" class="edge">
<title>Node4&#45;&gt;Node6</title>
<path fill="none" stroke="midnightblue" d="M200,-61.98C200,-53.58 200,-40.48 200,-29.66"/>
<polygon fill="midnightblue" stroke="midnightblue" points="203.5,-29.51 200,-19.51 196.5,-29.51 203.5,-29.51"/>
</g>
<!-- Node7 -->
<g id="node7" class="node">
<title>Node7</title>
<g id="a_node7"><a xlink:title=" ">
<polygon fill="none" stroke="#bfbfbf" points="242.5,-0.5 242.5,-19.5 291.5,-19.5 291.5,-0.5 242.5,-0.5"/>
<text text-anchor="middle" x="267" y="-7.5" font-family="Helvetica,sans-Serif" font-size="10.00">string.h</text>
</a>
</g>
</g>
<!-- Node4&#45;&gt;Node7 -->
<g id="edge7" class="edge">
<title>Node4&#45;&gt;Node7</title>
<path fill="none" stroke="midnightblue" d="M209.6,-61.98C220.05,-52.7 236.97,-37.67 249.74,-26.33"/>
<polygon fill="midnightblue" stroke="midnightblue" points="252.27,-28.77 257.42,-19.51 247.62,-23.53 252.27,-28.77"/>
</g>
<!-- Node17&#45;&gt;Node13 -->
<g id="edge19" class="edge">
<title>Node17&#45;&gt;Node13</title>
<path fill="none" stroke="midnightblue" d="M1264.48,-123.48C1286.13,-113.49 1322.21,-96.85 1347.23,-85.31"/>
<polygon fill="midnightblue" stroke="midnightblue" points="1348.94,-88.38 1356.55,-81.01 1346.01,-82.02 1348.94,-88.38"/>
</g>
<!-- Node17&#45;&gt;Node14 -->
<g id="edge20" class="edge">
<title>Node17&#45;&gt;Node14</title>
<path fill="none" stroke="midnightblue" d="M1281.86,-123.42C1319.51,-114.41 1380.44,-99.78 1433,-87 1437.69,-85.86 1442.58,-84.67 1447.46,-83.47"/>
<polygon fill="midnightblue" stroke="midnightblue" points="1448.5,-86.82 1457.38,-81.04 1446.83,-80.02 1448.5,-86.82"/>
</g>
<!-- Node17&#45;&gt;Node15 -->
<g id="edge21" class="edge">
<title>Node17&#45;&gt;Node15</title>
<path fill="none" stroke="midnightblue" d="M1229.95,-123.48C1214.22,-115.12 1189.7,-102.09 1169.39,-91.3"/>
<polygon fill="midnightblue" stroke="midnightblue" points="1170.87,-88.12 1160.4,-86.52 1167.59,-94.31 1170.87,-88.12"/>
</g>
<!-- Node17&#45;&gt;Node16 -->
<g id="edge22" class="edge">
<title>Node17&#45;&gt;Node16</title>
<path fill="none" stroke="midnightblue" d="M1208.18,-123.48C1168.08,-114.44 1103.78,-99.95 1053.98,-88.72"/>
<polygon fill="midnightblue" stroke="midnightblue" points="1054.74,-85.31 1044.22,-86.52 1053.21,-92.14 1054.74,-85.31"/>
</g>
<!-- Node17&#45;&gt;Node17 -->
<g id="edge23" class="edge">
<title>Node17&#45;&gt;Node17</title>
<path fill="none" stroke="midnightblue" d="M1289.45,-142.5C1319.25,-145.33 1348.5,-142.16 1348.5,-133 1348.5,-124.88 1325.5,-121.47 1299.51,-122.77"/>
<polygon fill="midnightblue" stroke="midnightblue" points="1299.17,-119.29 1289.45,-123.5 1299.68,-126.27 1299.17,-119.29"/>
</g>
<!-- Node20&#45;&gt;Node2 -->
<g id="edge32" class="edge">
<title>Node20&#45;&gt;Node2</title>
<path fill="none" stroke="midnightblue" d="M990.34,-235.44C906.17,-224.8 764.07,-206.83 686.17,-196.98"/>
<polygon fill="midnightblue" stroke="midnightblue" points="686.44,-193.48 676.07,-195.7 685.56,-200.43 686.44,-193.48"/>
</g>
<!-- Node20&#45;&gt;Node8 -->
<g id="edge38" class="edge">
<title>Node20&#45;&gt;Node8</title>
<path fill="none" stroke="midnightblue" d="M986.72,-241.66C871.68,-237.15 650.54,-225.3 577,-199 511.96,-175.74 448.48,-123.24 416.12,-93.71"/>
<polygon fill="midnightblue" stroke="midnightblue" points="418.3,-90.95 408.59,-86.73 413.55,-96.09 418.3,-90.95"/>
</g>
<!-- Node20&#45;&gt;Node9 -->
<g id="edge39" class="edge">
<title>Node20&#45;&gt;Node9</title>
<path fill="none" stroke="midnightblue" d="M1043.5,-235.39C1005.74,-213.34 900.68,-154.35 806,-123 736.23,-99.9 652.22,-85.96 598.96,-78.74"/>
<polygon fill="midnightblue" stroke="midnightblue" points="599.1,-75.23 588.73,-77.39 598.18,-82.17 599.1,-75.23"/>
</g>
<!-- Node20&#45;&gt;Node13 -->
<g id="edge33" class="edge">
<title>Node20&#45;&gt;Node13</title>
<path fill="none" stroke="midnightblue" d="M1078.62,-235.42C1120.44,-218.02 1211.55,-180.14 1215,-179 1277.22,-158.41 1311.89,-189.57 1358,-143 1371.4,-129.46 1374.9,-107.31 1375.52,-91.44"/>
<polygon fill="midnightblue" stroke="midnightblue" points="1379.02,-91.23 1375.56,-81.22 1372.02,-91.2 1379.02,-91.23"/>
</g>
<!-- Node20&#45;&gt;Node14 -->
<g id="edge34" class="edge">
<title>Node20&#45;&gt;Node14</title>
<path fill="none" stroke="midnightblue" d="M1088.25,-235.48C1157.15,-215.9 1323.92,-167.49 1377,-143 1411.95,-126.87 1449.42,-102.39 1471.77,-86.94"/>
<polygon fill="midnightblue" stroke="midnightblue" points="1473.92,-89.71 1480.11,-81.1 1469.91,-83.97 1473.92,-89.71"/>
</g>
<!-- Node20&#45;&gt;Node15 -->
<g id="edge35" class="edge">
<title>Node20&#45;&gt;Node15</title>
<path fill="none" stroke="midnightblue" d="M1061.87,-235.26C1073.17,-209.76 1106.39,-134.81 1123.52,-96.15"/>
<polygon fill="midnightblue" stroke="midnightblue" points="1126.85,-97.28 1127.7,-86.72 1120.45,-94.45 1126.85,-97.28"/>
</g>
<!-- Node20&#45;&gt;Node16 -->
<g id="edge36" class="edge">
<title>Node20&#45;&gt;Node16</title>
<path fill="none" stroke="midnightblue" d="M1054.13,-235.26C1042.83,-209.76 1009.61,-134.81 992.48,-96.15"/>
<polygon fill="midnightblue" stroke="midnightblue" points="995.55,-94.45 988.3,-86.72 989.15,-97.28 995.55,-94.45"/>
</g>
<!-- Node20&#45;&gt;Node17 -->
<g id="edge37" class="edge">
<title>Node20&#45;&gt;Node17</title>
<path fill="none" stroke="midnightblue" d="M1072.75,-235.37C1105.29,-216.33 1183.42,-170.62 1222.67,-147.65"/>
<polygon fill="midnightblue" stroke="midnightblue" points="1224.45,-150.66 1231.32,-142.59 1220.92,-144.62 1224.45,-150.66"/>
</g>
<!-- Node21 -->
<g id="node21" class="node">
<title>Node21</title>
<g id="a_node21"><a xlink:title=" ">
<polygon fill="none" stroke="#bfbfbf" points="1295,-179.5 1295,-198.5 1349,-198.5 1349,-179.5 1295,-179.5"/>
<text text-anchor="middle" x="1322" y="-186.5" font-family="Helvetica,sans-Serif" font-size="10.00">iostream</text>
</a>
</g>
</g>
<!-- Node20&#45;&gt;Node21 -->
<g id="edge40" class="edge">
<title>Node20&#45;&gt;Node21</title>
<path fill="none" stroke="midnightblue" d="M1099.83,-235.44C1150.87,-225 1236.36,-207.52 1285.06,-197.56"/>
<polygon fill="midnightblue" stroke="midnightblue" points="1285.78,-200.98 1294.87,-195.55 1284.37,-194.12 1285.78,-200.98"/>
</g>
<!-- Node22&#45;&gt;Node21 -->
<g id="edge45" class="edge">
<title>Node22&#45;&gt;Node21</title>
<path fill="none" stroke="midnightblue" d="M1580.03,-291.37C1530.65,-271.97 1410.76,-224.87 1353.48,-202.37"/>
<polygon fill="midnightblue" stroke="midnightblue" points="1354.46,-198.99 1343.87,-198.59 1351.9,-205.51 1354.46,-198.99"/>
</g>
<!-- Node23 -->
<g id="node23" class="node">
<title>Node23</title>
<g id="a_node23"><a xlink:title=" ">
<polygon fill="none" stroke="#bfbfbf" points="1557,-235.5 1557,-254.5 1603,-254.5 1603,-235.5 1557,-235.5"/>
<text text-anchor="middle" x="1580" y="-242.5" font-family="Helvetica,sans-Serif" font-size="10.00">chrono</text>
</a>
</g>
</g>
<!-- Node22&#45;&gt;Node23 -->
<g id="edge42" class="edge">
<title>Node22&#45;&gt;Node23</title>
<path fill="none" stroke="midnightblue" d="M1598.37,-291.08C1595.39,-283.77 1591.07,-273.18 1587.38,-264.1"/>
<polygon fill="midnightblue" stroke="midnightblue" points="1590.58,-262.69 1583.57,-254.75 1584.1,-265.33 1590.58,-262.69"/>
</g>
<!-- Node24 -->
<g id="node24" class="node">
<title>Node24</title>
<g id="a_node24"><a xlink:title=" ">
<polygon fill="none" stroke="#bfbfbf" points="1621,-235.5 1621,-254.5 1665,-254.5 1665,-235.5 1621,-235.5"/>
<text text-anchor="middle" x="1643" y="-242.5" font-family="Helvetica,sans-Serif" font-size="10.00">cmath</text>
</a>
</g>
</g>
<!-- Node22&#45;&gt;Node24 -->
<g id="edge43" class="edge">
<title>Node22&#45;&gt;Node24</title>
<path fill="none" stroke="midnightblue" d="M1608.77,-291.08C1614.56,-283.46 1623.06,-272.26 1630.14,-262.94"/>
<polygon fill="midnightblue" stroke="midnightblue" points="1633.1,-264.83 1636.36,-254.75 1627.52,-260.6 1633.1,-264.83"/>
</g>
<!-- Node25 -->
<g id="node25" class="node">
<title>Node25</title>
<g id="a_node25"><a xlink:title=" ">
<polygon fill="none" stroke="#bfbfbf" points="1683,-235.5 1683,-254.5 1733,-254.5 1733,-235.5 1683,-235.5"/>
<text text-anchor="middle" x="1708" y="-242.5" font-family="Helvetica,sans-Serif" font-size="10.00">iomanip</text>
</a>
</g>
</g>
<!-- Node22&#45;&gt;Node25 -->
<g id="edge44" class="edge">
<title>Node22&#45;&gt;Node25</title>
<path fill="none" stroke="midnightblue" d="M1619.03,-291.32C1636.03,-282.66 1662.38,-269.24 1681.99,-259.25"/>
<polygon fill="midnightblue" stroke="midnightblue" points="1683.69,-262.31 1691.01,-254.65 1680.51,-256.08 1683.69,-262.31"/>
</g>
<!-- Node26&#45;&gt;Node2 -->
<g id="edge48" class="edge">
<title>Node26&#45;&gt;Node2</title>
<path fill="none" stroke="midnightblue" d="M1048.77,-297.43C986.29,-293.06 871.92,-281.87 778,-255 733.17,-242.17 684.23,-218.39 655.65,-203.43"/>
<polygon fill="midnightblue" stroke="midnightblue" points="657.24,-200.31 646.77,-198.72 653.96,-206.5 657.24,-200.31"/>
</g>
<!-- Node26&#45;&gt;Node8 -->
<g id="edge54" class="edge">
<title>Node26&#45;&gt;Node8</title>
<path fill="none" stroke="midnightblue" d="M1048.93,-299.75C949.24,-297.55 708.09,-283.17 529,-199 488.73,-180.07 478.12,-173.8 446,-143 431.09,-128.7 417.37,-109.73 407.76,-95.07"/>
<polygon fill="midnightblue" stroke="midnightblue" points="410.68,-93.13 402.35,-86.58 404.77,-96.89 410.68,-93.13"/>
</g>
<!-- Node26&#45;&gt;Node9 -->
<g id="edge55" class="edge">
<title>Node26&#45;&gt;Node9</title>
<path fill="none" stroke="midnightblue" d="M1064.47,-291.45C1037.29,-283.41 996.72,-270.33 963,-255 856.41,-206.54 843.17,-167.84 735,-123 690.5,-104.56 637.3,-91.05 598.7,-82.67"/>
<polygon fill="midnightblue" stroke="midnightblue" points="599.22,-79.2 588.71,-80.54 597.77,-86.05 599.22,-79.2"/>
</g>
<!-- Node26&#45;&gt;Node13 -->
<g id="edge49" class="edge">
<title>Node26&#45;&gt;Node13</title>
<path fill="none" stroke="midnightblue" d="M1141.04,-296.2C1201.04,-288.61 1304.56,-266.02 1358,-199 1382.9,-167.77 1381.16,-117.8 1377.96,-90.97"/>
<polygon fill="midnightblue" stroke="midnightblue" points="1381.41,-90.43 1376.56,-81.01 1374.48,-91.4 1381.41,-90.43"/>
</g>
<!-- Node26&#45;&gt;Node14 -->
<g id="edge50" class="edge">
<title>Node26&#45;&gt;Node14</title>
<path fill="none" stroke="midnightblue" d="M1141.2,-297.95C1187.87,-294.24 1260.88,-283.89 1317,-255 1394.39,-215.16 1456.88,-127.55 1481.12,-90.07"/>
<polygon fill="midnightblue" stroke="midnightblue" points="1484.29,-91.61 1486.69,-81.3 1478.38,-87.87 1484.29,-91.61"/>
</g>
<!-- Node26&#45;&gt;Node15 -->
<g id="edge51" class="edge">
<title>Node26&#45;&gt;Node15</title>
<path fill="none" stroke="midnightblue" d="M1107.5,-291.3C1117.87,-283.25 1131.89,-270.24 1138,-255 1159.27,-201.95 1148.59,-133.07 1140.41,-97"/>
<polygon fill="midnightblue" stroke="midnightblue" points="1143.73,-95.82 1138,-86.91 1136.92,-97.45 1143.73,-95.82"/>
</g>
<!-- Node26&#45;&gt;Node16 -->
<g id="edge52" class="edge">
<title>Node26&#45;&gt;Node16</title>
<path fill="none" stroke="midnightblue" d="M1048.92,-294.85C1023.48,-289.39 993.89,-278.14 978,-255 945.04,-207 961.45,-133.9 973.34,-96.45"/>
<polygon fill="midnightblue" stroke="midnightblue" points="976.69,-97.47 976.53,-86.88 970.05,-95.26 976.69,-97.47"/>
</g>
<!-- Node26&#45;&gt;Node17 -->
<g id="edge53" class="edge">
<title>Node26&#45;&gt;Node17</title>
<path fill="none" stroke="midnightblue" d="M1115.18,-291.37C1131.61,-283.61 1154.68,-270.99 1171,-255 1202.65,-223.99 1226.76,-177.06 1238.36,-151.73"/>
<polygon fill="midnightblue" stroke="midnightblue" points="1241.56,-153.14 1242.43,-142.58 1235.17,-150.29 1241.56,-153.14"/>
</g>
<!-- Node26&#45;&gt;Node20 -->
<g id="edge47" class="edge">
<title>Node26&#45;&gt;Node20</title>
<path fill="none" stroke="midnightblue" d="M1088.89,-291.08C1083.72,-283.53 1076.15,-272.49 1069.81,-263.23"/>
<polygon fill="midnightblue" stroke="midnightblue" points="1072.54,-261.02 1064,-254.75 1066.76,-264.98 1072.54,-261.02"/>
</g>
<!-- Node26&#45;&gt;Node21 -->
<g id="edge56" class="edge">
<title>Node26&#45;&gt;Node21</title>
<path fill="none" stroke="midnightblue" d="M1135.65,-291.47C1165.37,-284.25 1206.07,-272.29 1239,-255 1264.39,-241.66 1289.79,-220.3 1305.68,-205.74"/>
<polygon fill="midnightblue" stroke="midnightblue" points="1308.16,-208.21 1313.07,-198.82 1303.38,-203.1 1308.16,-208.21"/>
</g>
</g>
</svg>
