<?xml version="1.0" encoding="UTF-8" standalone="no"?>
<!DOCTYPE svg PUBLIC "-//W3C//DTD SVG 1.1//EN"
 "http://www.w3.org/Graphics/SVG/1.1/DTD/svg11.dtd">
<!-- Generated by graphviz version 2.49.1 (20210923.0004)
 -->
<!-- Title: src/simulation_system/engine.cpp Pages: 1 -->
<svg width="1720pt" height="453pt"
 viewBox="0.00 0.00 1719.50 453.00" xmlns="http://www.w3.org/2000/svg" xmlns:xlink="http://www.w3.org/1999/xlink">
<g id="graph0" class="graph" transform="scale(1 1) rotate(0) translate(4 449)">
<title>src/simulation_system/engine.cpp</title>
<!-- Node1 -->
<g id="node1" class="node">
<title>Node1</title>
<g id="a_node1"><a xlink:title=" ">
<polygon fill="#bfbfbf" stroke="black" points="850.5,-414.5 850.5,-444.5 965.5,-444.5 965.5,-414.5 850.5,-414.5"/>
<text text-anchor="start" x="858.5" y="-432.5" font-family="Helvetica,sans-Serif" font-size="10.00">src/simulation_system</text>
<text text-anchor="middle" x="908" y="-421.5" font-family="Helvetica,sans-Serif" font-size="10.00">/engine.cpp</text>
</a>
</g>
</g>
<!-- Node2 -->
<g id="node2" class="node">
<title>Node2</title>
<g id="a_node2"><a xlink:href="engine_8hpp.html" target="_top" xlink:title=" ">
<polygon fill="none" stroke="black" points="875,-358.5 875,-377.5 941,-377.5 941,-358.5 875,-358.5"/>
<text text-anchor="middle" x="908" y="-365.5" font-family="Helvetica,sans-Serif" font-size="10.00">engine.hpp</text>
</a>
</g>
</g>
<!-- Node1&#45;&gt;Node2 -->
<g id="edge1" class="edge">
<title>Node1&#45;&gt;Node2</title>
<path fill="none" stroke="midnightblue" d="M908,-414.4C908,-406.47 908,-396.46 908,-387.86"/>
<polygon fill="midnightblue" stroke="midnightblue" points="911.5,-387.66 908,-377.66 904.5,-387.66 911.5,-387.66"/>
</g>
<!-- Node3 -->
<g id="node3" class="node">
<title>Node3</title>
<g id="a_node3"><a xlink:href="potentialHydrodynamics_8hpp.html" target="_top" xlink:title=" ">
<polygon fill="none" stroke="black" points="836.5,-246.5 836.5,-265.5 979.5,-265.5 979.5,-246.5 836.5,-246.5"/>
<text text-anchor="middle" x="908" y="-253.5" font-family="Helvetica,sans-Serif" font-size="10.00">potentialHydrodynamics.hpp</text>
</a>
</g>
</g>
<!-- Node2&#45;&gt;Node3 -->
<g id="edge2" class="edge">
<title>Node2&#45;&gt;Node3</title>
<path fill="none" stroke="midnightblue" d="M908,-358.37C908,-340.62 908,-299.67 908,-275.6"/>
<polygon fill="midnightblue" stroke="midnightblue" points="911.5,-275.59 908,-265.59 904.5,-275.59 911.5,-275.59"/>
</g>
<!-- Node4 -->
<g id="node4" class="node">
<title>Node4</title>
<g id="a_node4"><a xlink:href="systemData_8hpp.html" target="_top" xlink:title=" ">
<polygon fill="none" stroke="black" points="492.5,-190.5 492.5,-209.5 581.5,-209.5 581.5,-190.5 492.5,-190.5"/>
<text text-anchor="middle" x="537" y="-197.5" font-family="Helvetica,sans-Serif" font-size="10.00">systemData.hpp</text>
</a>
</g>
</g>
<!-- Node2&#45;&gt;Node4 -->
<g id="edge53" class="edge">
<title>Node2&#45;&gt;Node4</title>
<path fill="none" stroke="midnightblue" d="M874.76,-366.06C803.71,-363.46 639.94,-354.05 596,-322 561.81,-297.06 546.47,-246.88 540.42,-219.63"/>
<polygon fill="midnightblue" stroke="midnightblue" points="543.84,-218.9 538.42,-209.8 536.98,-220.29 543.84,-218.9"/>
</g>
<!-- Node10 -->
<g id="node10" class="node">
<title>Node10</title>
<g id="a_node10"><a xlink:title=" ">
<polygon fill="none" stroke="#bfbfbf" points="551,-56.5 551,-86.5 649,-86.5 649,-56.5 551,-56.5"/>
<text text-anchor="start" x="559" y="-74.5" font-family="Helvetica,sans-Serif" font-size="10.00">spdlog/sinks/basic</text>
<text text-anchor="middle" x="600" y="-63.5" font-family="Helvetica,sans-Serif" font-size="10.00">_file_sink.h</text>
</a>
</g>
</g>
<!-- Node2&#45;&gt;Node10 -->
<g id="edge59" class="edge">
<title>Node2&#45;&gt;Node10</title>
<path fill="none" stroke="midnightblue" d="M874.87,-365.72C800.44,-362.35 622.45,-351.38 571,-322 481.31,-270.79 390.82,-206.94 451,-123 456.65,-115.12 501.86,-100.45 541.01,-88.94"/>
<polygon fill="midnightblue" stroke="midnightblue" points="542.18,-92.25 550.81,-86.09 540.23,-85.53 542.18,-92.25"/>
</g>
<!-- Node11 -->
<g id="node11" class="node">
<title>Node11</title>
<g id="a_node11"><a xlink:title=" ">
<polygon fill="none" stroke="#bfbfbf" points="70.5,-62 70.5,-81 157.5,-81 157.5,-62 70.5,-62"/>
<text text-anchor="middle" x="114" y="-69" font-family="Helvetica,sans-Serif" font-size="10.00">spdlog/spdlog.h</text>
</a>
</g>
</g>
<!-- Node2&#45;&gt;Node11 -->
<g id="edge60" class="edge">
<title>Node2&#45;&gt;Node11</title>
<path fill="none" stroke="midnightblue" d="M874.91,-366.94C744.96,-366.42 269.58,-361.77 125,-322 64.63,-305.39 0,-319.62 0,-257 0,-257 0,-257 0,-199 0,-146.57 54.7,-106.08 88.32,-86.14"/>
<polygon fill="midnightblue" stroke="midnightblue" points="90.24,-89.08 97.18,-81.07 86.76,-83 90.24,-89.08"/>
</g>
<!-- Node12 -->
<g id="node12" class="node">
<title>Node12</title>
<g id="a_node12"><a xlink:title=" ">
<polygon fill="none" stroke="#bfbfbf" points="479.5,-62 479.5,-81 532.5,-81 532.5,-62 479.5,-62"/>
<text text-anchor="middle" x="506" y="-69" font-family="Helvetica,sans-Serif" font-size="10.00">memory</text>
</a>
</g>
</g>
<!-- Node2&#45;&gt;Node12 -->
<g id="edge62" class="edge">
<title>Node2&#45;&gt;Node12</title>
<path fill="none" stroke="midnightblue" d="M874.97,-362.01C797.38,-349.35 610,-312.98 610,-257 610,-257 610,-257 610,-199 610,-148.54 560.01,-107.25 529.35,-86.66"/>
<polygon fill="midnightblue" stroke="midnightblue" points="531.2,-83.69 520.9,-81.18 527.39,-89.56 531.2,-83.69"/>
</g>
<!-- Node13 -->
<g id="node13" class="node">
<title>Node13</title>
<g id="a_node13"><a xlink:title=" ">
<polygon fill="none" stroke="#bfbfbf" points="186.5,-62 186.5,-81 245.5,-81 245.5,-62 186.5,-62"/>
<text text-anchor="middle" x="216" y="-69" font-family="Helvetica,sans-Serif" font-size="10.00">stdexcept</text>
</a>
</g>
</g>
<!-- Node2&#45;&gt;Node13 -->
<g id="edge63" class="edge">
<title>Node2&#45;&gt;Node13</title>
<path fill="none" stroke="midnightblue" d="M874.96,-366.37C716.04,-362.89 38,-343.02 38,-257 38,-257 38,-257 38,-199 38,-162.66 137.83,-109.8 187.97,-85.55"/>
<polygon fill="midnightblue" stroke="midnightblue" points="189.78,-88.56 197.29,-81.09 186.76,-82.25 189.78,-88.56"/>
</g>
<!-- Node14 -->
<g id="node14" class="node">
<title>Node14</title>
<g id="a_node14"><a xlink:title=" ">
<polygon fill="none" stroke="#bfbfbf" points="263.5,-62 263.5,-81 304.5,-81 304.5,-62 263.5,-62"/>
<text text-anchor="middle" x="284" y="-69" font-family="Helvetica,sans-Serif" font-size="10.00">string</text>
</a>
</g>
</g>
<!-- Node2&#45;&gt;Node14 -->
<g id="edge64" class="edge">
<title>Node2&#45;&gt;Node14</title>
<path fill="none" stroke="midnightblue" d="M874.54,-365.71C728.23,-359.66 152,-331.11 152,-257 152,-257 152,-257 152,-199 152,-168.71 225.35,-113.29 262.69,-87.03"/>
<polygon fill="midnightblue" stroke="midnightblue" points="265.13,-89.6 271.34,-81.02 261.13,-83.85 265.13,-89.6"/>
</g>
<!-- Node15 -->
<g id="node15" class="node">
<title>Node15</title>
<g id="a_node15"><a xlink:title=" ">
<polygon fill="none" stroke="#bfbfbf" points="826.5,-62 826.5,-81 925.5,-81 925.5,-62 826.5,-62"/>
<text text-anchor="middle" x="876" y="-69" font-family="Helvetica,sans-Serif" font-size="10.00">eigen3/Eigen/Core</text>
</a>
</g>
</g>
<!-- Node2&#45;&gt;Node15 -->
<g id="edge54" class="edge">
<title>Node2&#45;&gt;Node15</title>
<path fill="none" stroke="midnightblue" d="M897.58,-358.33C879.27,-342.33 841.97,-306.14 828,-266 805.94,-202.63 844.82,-124.27 864.99,-89.97"/>
<polygon fill="midnightblue" stroke="midnightblue" points="868.14,-91.52 870.34,-81.15 862.16,-87.88 868.14,-91.52"/>
</g>
<!-- Node16 -->
<g id="node16" class="node">
<title>Node16</title>
<g id="a_node16"><a xlink:title=" ">
<polygon fill="none" stroke="#bfbfbf" points="1154.5,-62 1154.5,-81 1257.5,-81 1257.5,-62 1154.5,-62"/>
<text text-anchor="middle" x="1206" y="-69" font-family="Helvetica,sans-Serif" font-size="10.00">eigen3/Eigen/Eigen</text>
</a>
</g>
</g>
<!-- Node2&#45;&gt;Node16 -->
<g id="edge55" class="edge">
<title>Node2&#45;&gt;Node16</title>
<path fill="none" stroke="midnightblue" d="M941.05,-366.69C1051.36,-364.79 1400,-351.31 1400,-257 1400,-257 1400,-257 1400,-199 1400,-150.28 1361.49,-150.1 1321,-123 1296.42,-106.55 1265.61,-93.35 1242.07,-84.58"/>
<polygon fill="midnightblue" stroke="midnightblue" points="1243.06,-81.22 1232.46,-81.1 1240.67,-87.8 1243.06,-81.22"/>
</g>
<!-- Node17 -->
<g id="node17" class="node">
<title>Node17</title>
<g id="a_node17"><a xlink:title=" ">
<polygon fill="none" stroke="#bfbfbf" points="1275.5,-56.5 1275.5,-86.5 1386.5,-86.5 1386.5,-56.5 1275.5,-56.5"/>
<text text-anchor="start" x="1283.5" y="-74.5" font-family="Helvetica,sans-Serif" font-size="10.00">eigen3/unsupported</text>
<text text-anchor="middle" x="1331" y="-63.5" font-family="Helvetica,sans-Serif" font-size="10.00">/Eigen/CXX11/Tensor</text>
</a>
</g>
</g>
<!-- Node2&#45;&gt;Node17 -->
<g id="edge56" class="edge">
<title>Node2&#45;&gt;Node17</title>
<path fill="none" stroke="midnightblue" d="M941.26,-366.6C1053.33,-364.92 1416.26,-356.88 1527,-322 1580.8,-305.05 1636,-313.4 1636,-257 1636,-257 1636,-257 1636,-199 1636,-96.19 1486.32,-75.35 1396.67,-72.08"/>
<polygon fill="midnightblue" stroke="midnightblue" points="1396.69,-68.58 1386.59,-71.78 1396.48,-75.58 1396.69,-68.58"/>
</g>
<!-- Node18 -->
<g id="node18" class="node">
<title>Node18</title>
<g id="a_node18"><a xlink:title=" ">
<polygon fill="none" stroke="#bfbfbf" points="942.5,-123.5 942.5,-153.5 1075.5,-153.5 1075.5,-123.5 942.5,-123.5"/>
<text text-anchor="start" x="950.5" y="-141.5" font-family="Helvetica,sans-Serif" font-size="10.00">eigen3/unsupported</text>
<text text-anchor="middle" x="1009" y="-130.5" font-family="Helvetica,sans-Serif" font-size="10.00">/Eigen/CXX11/ThreadPool</text>
</a>
</g>
</g>
<!-- Node2&#45;&gt;Node18 -->
<g id="edge57" class="edge">
<title>Node2&#45;&gt;Node18</title>
<path fill="none" stroke="midnightblue" d="M917.66,-358.37C935.09,-342.16 971.64,-305.26 989,-266 1003.71,-232.73 1007.79,-190.31 1008.81,-164.03"/>
<polygon fill="midnightblue" stroke="midnightblue" points="1012.32,-163.92 1009.09,-153.83 1005.32,-163.73 1012.32,-163.92"/>
</g>
<!-- Node19 -->
<g id="node19" class="node">
<title>Node19</title>
<g id="a_node19"><a xlink:href="helper__eigenTensorConversion_8h.html" target="_top" xlink:title=" ">
<polygon fill="none" stroke="black" points="1132.5,-129 1132.5,-148 1295.5,-148 1295.5,-129 1132.5,-129"/>
<text text-anchor="middle" x="1214" y="-136" font-family="Helvetica,sans-Serif" font-size="10.00">helper_eigenTensorConversion.h</text>
</a>
</g>
</g>
<!-- Node2&#45;&gt;Node19 -->
<g id="edge58" class="edge">
<title>Node2&#45;&gt;Node19</title>
<path fill="none" stroke="midnightblue" d="M941.01,-364.64C1033.94,-357.22 1294.18,-330.9 1343,-266 1378.1,-219.33 1293.92,-173.64 1245.39,-152.18"/>
<polygon fill="midnightblue" stroke="midnightblue" points="1246.49,-148.84 1235.92,-148.1 1243.72,-155.27 1246.49,-148.84"/>
</g>
<!-- Node21 -->
<g id="node21" class="node">
<title>Node21</title>
<g id="a_node21"><a xlink:href="progressBar_8hpp.html" target="_top" xlink:title=" ">
<polygon fill="none" stroke="black" points="1428,-302.5 1428,-321.5 1518,-321.5 1518,-302.5 1428,-302.5"/>
<text text-anchor="middle" x="1473" y="-309.5" font-family="Helvetica,sans-Serif" font-size="10.00">progressBar.hpp</text>
</a>
</g>
</g>
<!-- Node2&#45;&gt;Node21 -->
<g id="edge37" class="edge">
<title>Node2&#45;&gt;Node21</title>
<path fill="none" stroke="midnightblue" d="M941.23,-364.77C1022.23,-359.17 1236.25,-343.44 1414,-322 1415.27,-321.85 1416.56,-321.69 1417.86,-321.52"/>
<polygon fill="midnightblue" stroke="midnightblue" points="1418.5,-324.97 1427.94,-320.17 1417.57,-318.03 1418.5,-324.97"/>
</g>
<!-- Node26 -->
<g id="node26" class="node">
<title>Node26</title>
<g id="a_node26"><a xlink:href="rungeKutta4_8hpp.html" target="_top" xlink:title=" ">
<polygon fill="none" stroke="black" points="1050,-302.5 1050,-321.5 1140,-321.5 1140,-302.5 1050,-302.5"/>
<text text-anchor="middle" x="1095" y="-309.5" font-family="Helvetica,sans-Serif" font-size="10.00">rungeKutta4.hpp</text>
</a>
</g>
</g>
<!-- Node2&#45;&gt;Node26 -->
<g id="edge42" class="edge">
<title>Node2&#45;&gt;Node26</title>
<path fill="none" stroke="midnightblue" d="M937.63,-358.44C969.5,-349.24 1020.33,-334.56 1055.56,-324.39"/>
<polygon fill="midnightblue" stroke="midnightblue" points="1056.87,-327.65 1065.51,-321.52 1054.93,-320.93 1056.87,-327.65"/>
</g>
<!-- Node27 -->
<g id="node27" class="node">
<title>Node27</title>
<g id="a_node27"><a xlink:title=" ">
<polygon fill="none" stroke="#bfbfbf" points="1664.5,-302.5 1664.5,-321.5 1711.5,-321.5 1711.5,-302.5 1664.5,-302.5"/>
<text text-anchor="middle" x="1688" y="-309.5" font-family="Helvetica,sans-Serif" font-size="10.00">math.h</text>
</a>
</g>
</g>
<!-- Node2&#45;&gt;Node27 -->
<g id="edge61" class="edge">
<title>Node2&#45;&gt;Node27</title>
<path fill="none" stroke="midnightblue" d="M941.12,-367.01C1045.76,-366.63 1378.38,-362.1 1650,-322 1651.47,-321.78 1652.96,-321.54 1654.47,-321.27"/>
<polygon fill="midnightblue" stroke="midnightblue" points="1655.3,-324.67 1664.41,-319.25 1653.91,-317.81 1655.3,-324.67"/>
</g>
<!-- Node3&#45;&gt;Node4 -->
<g id="edge3" class="edge">
<title>Node3&#45;&gt;Node4</title>
<path fill="none" stroke="midnightblue" d="M849.21,-246.44C778.47,-236.15 660.64,-219 591.75,-208.97"/>
<polygon fill="midnightblue" stroke="midnightblue" points="591.94,-205.46 581.54,-207.48 590.93,-212.39 591.94,-205.46"/>
</g>
<!-- Node3&#45;&gt;Node10 -->
<g id="edge35" class="edge">
<title>Node3&#45;&gt;Node10</title>
<path fill="none" stroke="midnightblue" d="M895.13,-246.21C862.9,-224.33 775.86,-166.09 700,-123 680.18,-111.74 657.55,-100.21 638.83,-91.01"/>
<polygon fill="midnightblue" stroke="midnightblue" points="640.24,-87.8 629.72,-86.56 637.17,-94.09 640.24,-87.8"/>
</g>
<!-- Node3&#45;&gt;Node11 -->
<g id="edge36" class="edge">
<title>Node3&#45;&gt;Node11</title>
<path fill="none" stroke="midnightblue" d="M836.2,-252.28C674.41,-245 286.91,-220.91 177,-154 151.75,-138.63 132.84,-109.13 122.61,-90.16"/>
<polygon fill="midnightblue" stroke="midnightblue" points="125.64,-88.38 117.95,-81.09 119.41,-91.58 125.64,-88.38"/>
</g>
<!-- Node3&#45;&gt;Node15 -->
<g id="edge30" class="edge">
<title>Node3&#45;&gt;Node15</title>
<path fill="none" stroke="midnightblue" d="M904.87,-246.49C901.69,-237.53 896.84,-222.95 894,-210 884.84,-168.21 879.72,-118.18 877.45,-91.49"/>
<polygon fill="midnightblue" stroke="midnightblue" points="880.92,-90.96 876.62,-81.28 873.94,-91.53 880.92,-90.96"/>
</g>
<!-- Node3&#45;&gt;Node16 -->
<g id="edge31" class="edge">
<title>Node3&#45;&gt;Node16</title>
<path fill="none" stroke="midnightblue" d="M906.76,-246.42C903.88,-222.95 899.46,-157.17 934,-123 963.01,-94.31 1073.31,-81.46 1144.23,-76.06"/>
<polygon fill="midnightblue" stroke="midnightblue" points="1144.68,-79.54 1154.39,-75.31 1144.16,-72.55 1144.68,-79.54"/>
</g>
<!-- Node3&#45;&gt;Node17 -->
<g id="edge32" class="edge">
<title>Node3&#45;&gt;Node17</title>
<path fill="none" stroke="midnightblue" d="M971.22,-246.47C1070.61,-231.85 1257.05,-199.17 1305,-154 1320.65,-139.26 1326.92,-115.12 1329.4,-96.94"/>
<polygon fill="midnightblue" stroke="midnightblue" points="1332.91,-97.09 1330.5,-86.77 1325.95,-96.34 1332.91,-97.09"/>
</g>
<!-- Node3&#45;&gt;Node18 -->
<g id="edge33" class="edge">
<title>Node3&#45;&gt;Node18</title>
<path fill="none" stroke="midnightblue" d="M915.59,-246.32C931.24,-228.42 967.49,-186.97 989.95,-161.28"/>
<polygon fill="midnightblue" stroke="midnightblue" points="992.77,-163.38 996.72,-153.55 987.5,-158.77 992.77,-163.38"/>
</g>
<!-- Node3&#45;&gt;Node19 -->
<g id="edge34" class="edge">
<title>Node3&#45;&gt;Node19</title>
<path fill="none" stroke="midnightblue" d="M931,-246.32C984.85,-225.99 1119.25,-175.26 1181.46,-151.78"/>
<polygon fill="midnightblue" stroke="midnightblue" points="1183.03,-154.93 1191.15,-148.12 1180.56,-148.38 1183.03,-154.93"/>
</g>
<!-- Node5 -->
<g id="node5" class="node">
<title>Node5</title>
<g id="a_node5"><a xlink:href="GSDUtil_8hpp.html" target="_top" xlink:title=" ">
<polygon fill="none" stroke="black" points="294,-129 294,-148 366,-148 366,-129 294,-129"/>
<text text-anchor="middle" x="330" y="-136" font-family="Helvetica,sans-Serif" font-size="10.00">GSDUtil.hpp</text>
</a>
</g>
</g>
<!-- Node4&#45;&gt;Node5 -->
<g id="edge4" class="edge">
<title>Node4&#45;&gt;Node5</title>
<path fill="none" stroke="midnightblue" d="M500.49,-190.48C466.6,-181.46 415.27,-166.76 371,-154 367.55,-153.01 363.97,-151.97 360.41,-150.93"/>
<polygon fill="midnightblue" stroke="midnightblue" points="361.17,-147.51 350.59,-148.03 359.18,-154.22 361.17,-147.51"/>
</g>
<!-- Node6 -->
<g id="node6" class="node">
<title>Node6</title>
<g id="a_node6"><a xlink:href="gsd_8h.html" target="_top" xlink:title="Declare GSD data types and C API.">
<polygon fill="none" stroke="black" points="347.5,-62 347.5,-81 388.5,-81 388.5,-62 347.5,-62"/>
<text text-anchor="middle" x="368" y="-69" font-family="Helvetica,sans-Serif" font-size="10.00">gsd.h</text>
</a>
</g>
</g>
<!-- Node4&#45;&gt;Node6 -->
<g id="edge15" class="edge">
<title>Node4&#45;&gt;Node6</title>
<path fill="none" stroke="midnightblue" d="M516.56,-190.38C498.49,-182.28 471.85,-169.17 451,-154 424.2,-134.49 397.64,-106.5 382.04,-88.92"/>
<polygon fill="midnightblue" stroke="midnightblue" points="384.52,-86.43 375.3,-81.2 379.25,-91.04 384.52,-86.43"/>
</g>
<!-- Node4&#45;&gt;Node10 -->
<g id="edge16" class="edge">
<title>Node4&#45;&gt;Node10</title>
<path fill="none" stroke="midnightblue" d="M541.33,-190.31C550.88,-171.13 574.02,-124.66 588.22,-96.15"/>
<polygon fill="midnightblue" stroke="midnightblue" points="591.51,-97.4 592.83,-86.89 585.24,-94.28 591.51,-97.4"/>
</g>
<!-- Node4&#45;&gt;Node11 -->
<g id="edge17" class="edge">
<title>Node4&#45;&gt;Node11</title>
<path fill="none" stroke="midnightblue" d="M492.22,-192.16C487.42,-191.43 482.61,-190.7 478,-190 371.35,-173.87 338.75,-192.52 238,-154 196.39,-138.09 154.42,-106.49 131.56,-87.66"/>
<polygon fill="midnightblue" stroke="midnightblue" points="133.68,-84.87 123.77,-81.12 129.18,-90.23 133.68,-84.87"/>
</g>
<!-- Node4&#45;&gt;Node12 -->
<g id="edge26" class="edge">
<title>Node4&#45;&gt;Node12</title>
<path fill="none" stroke="midnightblue" d="M534.87,-190.31C529.89,-169.99 517.41,-119.05 510.6,-91.28"/>
<polygon fill="midnightblue" stroke="midnightblue" points="513.93,-90.14 508.15,-81.26 507.13,-91.8 513.93,-90.14"/>
</g>
<!-- Node4&#45;&gt;Node13 -->
<g id="edge27" class="edge">
<title>Node4&#45;&gt;Node13</title>
<path fill="none" stroke="midnightblue" d="M492.24,-191.89C417.67,-179.97 275.64,-156.99 271,-154 247.39,-138.79 231.41,-109.47 223,-90.45"/>
<polygon fill="midnightblue" stroke="midnightblue" points="226.19,-88.99 219.11,-81.11 219.73,-91.68 226.19,-88.99"/>
</g>
<!-- Node4&#45;&gt;Node14 -->
<g id="edge28" class="edge">
<title>Node4&#45;&gt;Node14</title>
<path fill="none" stroke="midnightblue" d="M492.39,-191.77C420.92,-180.09 288.35,-157.96 285,-154 270.38,-136.76 273.62,-109.3 278.12,-91.09"/>
<polygon fill="midnightblue" stroke="midnightblue" points="281.52,-91.92 280.86,-81.35 274.78,-90.02 281.52,-91.92"/>
</g>
<!-- Node4&#45;&gt;Node15 -->
<g id="edge18" class="edge">
<title>Node4&#45;&gt;Node15</title>
<path fill="none" stroke="midnightblue" d="M554.89,-190.29C585.97,-175.36 652.16,-144.42 710,-123 751.47,-107.64 799.97,-93.29 833.8,-83.84"/>
<polygon fill="midnightblue" stroke="midnightblue" points="835.1,-87.11 843.8,-81.07 833.23,-80.37 835.1,-87.11"/>
</g>
<!-- Node4&#45;&gt;Node16 -->
<g id="edge19" class="edge">
<title>Node4&#45;&gt;Node16</title>
<path fill="none" stroke="midnightblue" d="M564.43,-190.48C615.2,-175 727.42,-142.09 824,-123 935.88,-100.88 1068.16,-85.83 1144.05,-78.24"/>
<polygon fill="midnightblue" stroke="midnightblue" points="1144.77,-81.68 1154.38,-77.22 1144.08,-74.72 1144.77,-81.68"/>
</g>
<!-- Node4&#45;&gt;Node17 -->
<g id="edge20" class="edge">
<title>Node4&#45;&gt;Node17</title>
<path fill="none" stroke="midnightblue" d="M581.56,-190.59C629.21,-181.59 706.96,-166.86 774,-154 845.14,-140.36 862.37,-133.79 934,-123 1077.89,-101.32 1118.36,-111.02 1264.95,-87.23"/>
<polygon fill="midnightblue" stroke="midnightblue" points="1265.93,-90.61 1275.23,-85.53 1264.79,-83.71 1265.93,-90.61"/>
</g>
<!-- Node4&#45;&gt;Node18 -->
<g id="edge21" class="edge">
<title>Node4&#45;&gt;Node18</title>
<path fill="none" stroke="midnightblue" d="M581.83,-193.35C662.48,-183.18 832.86,-161.7 932.35,-149.16"/>
<polygon fill="midnightblue" stroke="midnightblue" points="932.86,-152.63 942.34,-147.9 931.99,-145.68 932.86,-152.63"/>
</g>
<!-- Node4&#45;&gt;Node19 -->
<g id="edge22" class="edge">
<title>Node4&#45;&gt;Node19</title>
<path fill="none" stroke="midnightblue" d="M581.79,-195.78C675.35,-188.95 898.3,-172.15 1085,-154 1100.09,-152.53 1116.15,-150.84 1131.64,-149.13"/>
<polygon fill="midnightblue" stroke="midnightblue" points="1132.17,-152.59 1141.72,-148.01 1131.39,-145.64 1132.17,-152.59"/>
</g>
<!-- Node20 -->
<g id="node20" class="node">
<title>Node20</title>
<g id="a_node20"><a xlink:title=" ">
<polygon fill="none" stroke="#bfbfbf" points="460.5,-129 460.5,-148 505.5,-148 505.5,-129 460.5,-129"/>
<text text-anchor="middle" x="483" y="-136" font-family="Helvetica,sans-Serif" font-size="10.00">thread</text>
</a>
</g>
</g>
<!-- Node4&#45;&gt;Node20 -->
<g id="edge29" class="edge">
<title>Node4&#45;&gt;Node20</title>
<path fill="none" stroke="midnightblue" d="M529.26,-190.48C521,-181.37 507.72,-166.74 497.51,-155.48"/>
<polygon fill="midnightblue" stroke="midnightblue" points="500.03,-153.06 490.72,-148.01 494.85,-157.77 500.03,-153.06"/>
</g>
<!-- Node5&#45;&gt;Node4 -->
<g id="edge9" class="edge">
<title>Node5&#45;&gt;Node4</title>
<path fill="none" stroke="midnightblue" d="M366.19,-147.49C373.81,-149.61 381.71,-151.9 389,-154 428.78,-165.47 474.25,-178.49 504.31,-187.57"/>
<polygon fill="midnightblue" stroke="midnightblue" points="503.3,-190.92 513.88,-190.48 505.34,-184.22 503.3,-190.92"/>
</g>
<!-- Node5&#45;&gt;Node6 -->
<g id="edge5" class="edge">
<title>Node5&#45;&gt;Node6</title>
<path fill="none" stroke="midnightblue" d="M335.12,-128.73C340.94,-118.79 350.56,-102.34 357.89,-89.79"/>
<polygon fill="midnightblue" stroke="midnightblue" points="360.93,-91.53 362.96,-81.13 354.89,-87.99 360.93,-91.53"/>
</g>
<!-- Node5&#45;&gt;Node10 -->
<g id="edge10" class="edge">
<title>Node5&#45;&gt;Node10</title>
<path fill="none" stroke="midnightblue" d="M365.86,-128.99C407.85,-119 479.5,-101.92 541,-87 541.1,-86.98 541.2,-86.95 541.3,-86.93"/>
<polygon fill="midnightblue" stroke="midnightblue" points="541.86,-90.39 550.75,-84.63 540.21,-83.59 541.86,-90.39"/>
</g>
<!-- Node5&#45;&gt;Node11 -->
<g id="edge11" class="edge">
<title>Node5&#45;&gt;Node11</title>
<path fill="none" stroke="midnightblue" d="M301.32,-128.87C262.96,-117.33 194.87,-96.84 152.2,-84"/>
<polygon fill="midnightblue" stroke="midnightblue" points="153.04,-80.59 142.46,-81.06 151.02,-87.3 153.04,-80.59"/>
</g>
<!-- Node5&#45;&gt;Node12 -->
<g id="edge12" class="edge">
<title>Node5&#45;&gt;Node12</title>
<path fill="none" stroke="midnightblue" d="M353.37,-128.87C384.09,-117.52 438.24,-97.52 473.1,-84.65"/>
<polygon fill="midnightblue" stroke="midnightblue" points="474.64,-87.81 482.81,-81.06 472.22,-81.24 474.64,-87.81"/>
</g>
<!-- Node5&#45;&gt;Node13 -->
<g id="edge13" class="edge">
<title>Node5&#45;&gt;Node13</title>
<path fill="none" stroke="midnightblue" d="M314.63,-128.73C295.48,-117.82 262.56,-99.05 240.06,-86.22"/>
<polygon fill="midnightblue" stroke="midnightblue" points="241.55,-83.04 231.13,-81.13 238.08,-89.12 241.55,-83.04"/>
</g>
<!-- Node5&#45;&gt;Node14 -->
<g id="edge14" class="edge">
<title>Node5&#45;&gt;Node14</title>
<path fill="none" stroke="midnightblue" d="M323.8,-128.73C316.69,-118.7 304.89,-102.01 295.98,-89.42"/>
<polygon fill="midnightblue" stroke="midnightblue" points="298.74,-87.27 290.11,-81.13 293.03,-91.31 298.74,-87.27"/>
</g>
<!-- Node7 -->
<g id="node7" class="node">
<title>Node7</title>
<g id="a_node7"><a xlink:title=" ">
<polygon fill="none" stroke="#bfbfbf" points="268.5,-0.5 268.5,-19.5 325.5,-19.5 325.5,-0.5 268.5,-0.5"/>
<text text-anchor="middle" x="297" y="-7.5" font-family="Helvetica,sans-Serif" font-size="10.00">stdbool.h</text>
</a>
</g>
</g>
<!-- Node6&#45;&gt;Node7 -->
<g id="edge6" class="edge">
<title>Node6&#45;&gt;Node7</title>
<path fill="none" stroke="midnightblue" d="M357.83,-61.98C346.65,-52.61 328.48,-37.38 314.91,-26.01"/>
<polygon fill="midnightblue" stroke="midnightblue" points="317.07,-23.25 307.15,-19.51 312.57,-28.61 317.07,-23.25"/>
</g>
<!-- Node8 -->
<g id="node8" class="node">
<title>Node8</title>
<g id="a_node8"><a xlink:title=" ">
<polygon fill="none" stroke="#bfbfbf" points="343.5,-0.5 343.5,-19.5 392.5,-19.5 392.5,-0.5 343.5,-0.5"/>
<text text-anchor="middle" x="368" y="-7.5" font-family="Helvetica,sans-Serif" font-size="10.00">stdint.h</text>
</a>
</g>
</g>
<!-- Node6&#45;&gt;Node8 -->
<g id="edge7" class="edge">
<title>Node6&#45;&gt;Node8</title>
<path fill="none" stroke="midnightblue" d="M368,-61.98C368,-53.58 368,-40.48 368,-29.66"/>
<polygon fill="midnightblue" stroke="midnightblue" points="371.5,-29.51 368,-19.51 364.5,-29.51 371.5,-29.51"/>
</g>
<!-- Node9 -->
<g id="node9" class="node">
<title>Node9</title>
<g id="a_node9"><a xlink:title=" ">
<polygon fill="none" stroke="#bfbfbf" points="410.5,-0.5 410.5,-19.5 459.5,-19.5 459.5,-0.5 410.5,-0.5"/>
<text text-anchor="middle" x="435" y="-7.5" font-family="Helvetica,sans-Serif" font-size="10.00">string.h</text>
</a>
</g>
</g>
<!-- Node6&#45;&gt;Node9 -->
<g id="edge8" class="edge">
<title>Node6&#45;&gt;Node9</title>
<path fill="none" stroke="midnightblue" d="M377.6,-61.98C388.05,-52.7 404.97,-37.67 417.74,-26.33"/>
<polygon fill="midnightblue" stroke="midnightblue" points="420.27,-28.77 425.42,-19.51 415.62,-23.53 420.27,-28.77"/>
</g>
<!-- Node19&#45;&gt;Node15 -->
<g id="edge23" class="edge">
<title>Node19&#45;&gt;Node15</title>
<path fill="none" stroke="midnightblue" d="M1169.46,-128.94C1107.83,-117.08 996.62,-95.7 930.22,-82.93"/>
<polygon fill="midnightblue" stroke="midnightblue" points="930.85,-79.48 920.36,-81.03 929.52,-86.36 930.85,-79.48"/>
</g>
<!-- Node19&#45;&gt;Node16 -->
<g id="edge24" class="edge">
<title>Node19&#45;&gt;Node16</title>
<path fill="none" stroke="midnightblue" d="M1212.92,-128.73C1211.75,-119.18 1209.83,-103.62 1208.31,-91.28"/>
<polygon fill="midnightblue" stroke="midnightblue" points="1211.76,-90.62 1207.06,-81.13 1204.81,-91.48 1211.76,-90.62"/>
</g>
<!-- Node19&#45;&gt;Node17 -->
<g id="edge25" class="edge">
<title>Node19&#45;&gt;Node17</title>
<path fill="none" stroke="midnightblue" d="M1229.78,-128.73C1246.88,-119.23 1274.7,-103.78 1296.85,-91.47"/>
<polygon fill="midnightblue" stroke="midnightblue" points="1298.6,-94.51 1305.64,-86.59 1295.2,-88.39 1298.6,-94.51"/>
</g>
<!-- Node22 -->
<g id="node22" class="node">
<title>Node22</title>
<g id="a_node22"><a xlink:title=" ">
<polygon fill="none" stroke="#bfbfbf" points="1428.5,-246.5 1428.5,-265.5 1475.5,-265.5 1475.5,-246.5 1428.5,-246.5"/>
<text text-anchor="middle" x="1452" y="-253.5" font-family="Helvetica,sans-Serif" font-size="10.00">chrono</text>
</a>
</g>
</g>
<!-- Node21&#45;&gt;Node22 -->
<g id="edge38" class="edge">
<title>Node21&#45;&gt;Node22</title>
<path fill="none" stroke="midnightblue" d="M1469.53,-302.08C1466.69,-294.77 1462.57,-284.18 1459.04,-275.1"/>
<polygon fill="midnightblue" stroke="midnightblue" points="1462.29,-273.8 1455.4,-265.75 1455.77,-276.34 1462.29,-273.8"/>
</g>
<!-- Node23 -->
<g id="node23" class="node">
<title>Node23</title>
<g id="a_node23"><a xlink:title=" ">
<polygon fill="none" stroke="#bfbfbf" points="1494,-246.5 1494,-265.5 1538,-265.5 1538,-246.5 1494,-246.5"/>
<text text-anchor="middle" x="1516" y="-253.5" font-family="Helvetica,sans-Serif" font-size="10.00">cmath</text>
</a>
</g>
</g>
<!-- Node21&#45;&gt;Node23 -->
<g id="edge39" class="edge">
<title>Node21&#45;&gt;Node23</title>
<path fill="none" stroke="midnightblue" d="M1480.1,-302.08C1486.24,-294.38 1495.27,-283.03 1502.74,-273.65"/>
<polygon fill="midnightblue" stroke="midnightblue" points="1505.54,-275.75 1509.03,-265.75 1500.06,-271.39 1505.54,-275.75"/>
</g>
<!-- Node24 -->
<g id="node24" class="node">
<title>Node24</title>
<g id="a_node24"><a xlink:title=" ">
<polygon fill="none" stroke="#bfbfbf" points="1556,-246.5 1556,-265.5 1608,-265.5 1608,-246.5 1556,-246.5"/>
<text text-anchor="middle" x="1582" y="-253.5" font-family="Helvetica,sans-Serif" font-size="10.00">iomanip</text>
</a>
</g>
</g>
<!-- Node21&#45;&gt;Node24 -->
<g id="edge40" class="edge">
<title>Node21&#45;&gt;Node24</title>
<path fill="none" stroke="midnightblue" d="M1490.51,-302.32C1508.07,-293.62 1535.33,-280.12 1555.53,-270.11"/>
<polygon fill="midnightblue" stroke="midnightblue" points="1557.12,-273.23 1564.53,-265.65 1554.02,-266.96 1557.12,-273.23"/>
</g>
<!-- Node25 -->
<g id="node25" class="node">
<title>Node25</title>
<g id="a_node25"><a xlink:title=" ">
<polygon fill="none" stroke="#bfbfbf" points="1278.5,-246.5 1278.5,-265.5 1333.5,-265.5 1333.5,-246.5 1278.5,-246.5"/>
<text text-anchor="middle" x="1306" y="-253.5" font-family="Helvetica,sans-Serif" font-size="10.00">iostream</text>
</a>
</g>
</g>
<!-- Node21&#45;&gt;Node25 -->
<g id="edge41" class="edge">
<title>Node21&#45;&gt;Node25</title>
<path fill="none" stroke="midnightblue" d="M1446.54,-302.44C1418.32,-293.32 1373.46,-278.81 1342.03,-268.65"/>
<polygon fill="midnightblue" stroke="midnightblue" points="1342.93,-265.26 1332.34,-265.52 1340.78,-271.92 1342.93,-265.26"/>
</g>
<!-- Node26&#45;&gt;Node3 -->
<g id="edge43" class="edge">
<title>Node26&#45;&gt;Node3</title>
<path fill="none" stroke="midnightblue" d="M1065.37,-302.44C1033.5,-293.24 982.67,-278.56 947.44,-268.39"/>
<polygon fill="midnightblue" stroke="midnightblue" points="948.07,-264.93 937.49,-265.52 946.13,-271.65 948.07,-264.93"/>
</g>
<!-- Node26&#45;&gt;Node4 -->
<g id="edge44" class="edge">
<title>Node26&#45;&gt;Node4</title>
<path fill="none" stroke="midnightblue" d="M1049.94,-307.62C983.35,-302.06 855,-289.24 748,-266 683.64,-252.02 610.61,-227.52 569.55,-212.92"/>
<polygon fill="midnightblue" stroke="midnightblue" points="570.67,-209.61 560.07,-209.53 568.31,-216.2 570.67,-209.61"/>
</g>
<!-- Node26&#45;&gt;Node10 -->
<g id="edge50" class="edge">
<title>Node26&#45;&gt;Node10</title>
<path fill="none" stroke="midnightblue" d="M1049.86,-310.61C994.98,-308.54 900.67,-299.8 828,-266 737.28,-223.8 653.93,-135.48 618.28,-94.39"/>
<polygon fill="midnightblue" stroke="midnightblue" points="620.76,-91.91 611.6,-86.6 615.45,-96.47 620.76,-91.91"/>
</g>
<!-- Node26&#45;&gt;Node11 -->
<g id="edge51" class="edge">
<title>Node26&#45;&gt;Node11</title>
<path fill="none" stroke="midnightblue" d="M1049.99,-309.82C925.4,-305.62 566.33,-287.2 280,-210 215.69,-192.66 186.59,-202.56 141,-154 124.78,-136.72 118.29,-109.47 115.7,-91.29"/>
<polygon fill="midnightblue" stroke="midnightblue" points="119.18,-90.85 114.55,-81.32 112.22,-91.66 119.18,-90.85"/>
</g>
<!-- Node26&#45;&gt;Node15 -->
<g id="edge45" class="edge">
<title>Node26&#45;&gt;Node15</title>
<path fill="none" stroke="midnightblue" d="M1097.77,-302.24C1106.44,-272.91 1129.92,-177.04 1085,-123 1066.08,-100.23 990.36,-86.29 935.5,-78.98"/>
<polygon fill="midnightblue" stroke="midnightblue" points="935.88,-75.5 925.51,-77.69 934.98,-82.44 935.88,-75.5"/>
</g>
<!-- Node26&#45;&gt;Node16 -->
<g id="edge46" class="edge">
<title>Node26&#45;&gt;Node16</title>
<path fill="none" stroke="midnightblue" d="M1117.95,-302.48C1164.12,-283.88 1267.07,-234.76 1305,-154 1310.86,-141.53 1312.2,-134.75 1305,-123 1293.48,-104.19 1272.51,-92.11 1252.83,-84.5"/>
<polygon fill="midnightblue" stroke="midnightblue" points="1253.91,-81.17 1243.32,-81.12 1251.57,-87.77 1253.91,-81.17"/>
</g>
<!-- Node26&#45;&gt;Node17 -->
<g id="edge47" class="edge">
<title>Node26&#45;&gt;Node17</title>
<path fill="none" stroke="midnightblue" d="M1129.34,-302.5C1155.76,-295.1 1192.6,-282.91 1222,-266 1255.34,-246.82 1263.22,-239.43 1288,-210 1306.61,-187.9 1311.71,-181.36 1321,-154 1327.26,-135.57 1329.68,-113.63 1330.59,-97.15"/>
<polygon fill="midnightblue" stroke="midnightblue" points="1334.1,-96.86 1331,-86.73 1327.11,-96.59 1334.1,-96.86"/>
</g>
<!-- Node26&#45;&gt;Node18 -->
<g id="edge48" class="edge">
<title>Node26&#45;&gt;Node18</title>
<path fill="none" stroke="midnightblue" d="M1090.96,-302.44C1081.56,-282.57 1057.37,-231.83 1036,-190 1031.4,-180.99 1026.19,-171.17 1021.59,-162.6"/>
<polygon fill="midnightblue" stroke="midnightblue" points="1024.54,-160.71 1016.71,-153.57 1018.38,-164.04 1024.54,-160.71"/>
</g>
<!-- Node26&#45;&gt;Node19 -->
<g id="edge49" class="edge">
<title>Node26&#45;&gt;Node19</title>
<path fill="none" stroke="midnightblue" d="M1108.57,-302.32C1120.62,-294.09 1138.1,-280.81 1150,-266 1177.51,-231.75 1197.77,-183.76 1207.52,-157.84"/>
<polygon fill="midnightblue" stroke="midnightblue" points="1210.9,-158.79 1211.04,-148.19 1204.33,-156.39 1210.9,-158.79"/>
</g>
<!-- Node26&#45;&gt;Node25 -->
<g id="edge52" class="edge">
<title>Node26&#45;&gt;Node25</title>
<path fill="none" stroke="midnightblue" d="M1128.43,-302.44C1166.6,-292.68 1228.86,-276.74 1268.6,-266.57"/>
<polygon fill="midnightblue" stroke="midnightblue" points="1269.62,-269.92 1278.44,-264.05 1267.88,-263.14 1269.62,-269.92"/>
</g>
</g>
</svg>
