<?xml version="1.0" encoding="UTF-8" standalone="no"?>
<!DOCTYPE svg PUBLIC "-//W3C//DTD SVG 1.1//EN"
 "http://www.w3.org/Graphics/SVG/1.1/DTD/svg11.dtd">
<!-- Generated by graphviz version 2.49.1 (20210923.0004)
 -->
<!-- Title: src/cuda_helpers/exception.h Pages: 1 -->
<svg width="188pt" height="162pt"
 viewBox="0.00 0.00 188.00 162.00" xmlns="http://www.w3.org/2000/svg" xmlns:xlink="http://www.w3.org/1999/xlink">
<g id="graph0" class="graph" transform="scale(1 1) rotate(0) translate(4 158)">
<title>src/cuda_helpers/exception.h</title>
<!-- Node1 -->
<g id="node1" class="node">
<title>Node1</title>
<g id="a_node1"><a xlink:title=" ">
<polygon fill="#bfbfbf" stroke="black" points="0,-134.5 0,-153.5 147,-153.5 147,-134.5 0,-134.5"/>
<text text-anchor="middle" x="73.5" y="-141.5" font-family="Helvetica,sans-Serif" font-size="10.00">src/cuda_helpers/exception.h</text>
</a>
</g>
</g>
<!-- Node2 -->
<g id="node2" class="node">
<title>Node2</title>
<g id="a_node2"><a xlink:href="helper__functions_8h.html" target="_top" xlink:title=" ">
<polygon fill="none" stroke="black" points="12,-0.5 12,-30.5 135,-30.5 135,-0.5 12,-0.5"/>
<text text-anchor="start" x="20" y="-18.5" font-family="Helvetica,sans-Serif" font-size="10.00">src/cuda_helpers/helper</text>
<text text-anchor="middle" x="73.5" y="-7.5" font-family="Helvetica,sans-Serif" font-size="10.00">_functions.h</text>
</a>
</g>
</g>
<!-- Node1&#45;&gt;Node2 -->
<g id="edge1" class="edge">
<title>Node1&#45;&gt;Node2</title>
<path fill="none" stroke="midnightblue" d="M60.77,-125.9C55.57,-117.87 50.15,-107.9 47.5,-98 43.93,-84.69 44.26,-80.39 47.5,-67 50.66,-53.97 57.8,-40.53 63.8,-30.79"/>
<polygon fill="midnightblue" stroke="midnightblue" points="58.04,-128.09 66.61,-134.32 63.79,-124.11 58.04,-128.09"/>
</g>
<!-- Node3 -->
<g id="node3" class="node">
<title>Node3</title>
<g id="a_node3"><a xlink:href="helper__timer_8h.html" target="_top" xlink:title=" ">
<polygon fill="none" stroke="black" points="57,-67.5 57,-97.5 180,-97.5 180,-67.5 57,-67.5"/>
<text text-anchor="start" x="65" y="-85.5" font-family="Helvetica,sans-Serif" font-size="10.00">src/cuda_helpers/helper</text>
<text text-anchor="middle" x="118.5" y="-74.5" font-family="Helvetica,sans-Serif" font-size="10.00">_timer.h</text>
</a>
</g>
</g>
<!-- Node1&#45;&gt;Node3 -->
<g id="edge2" class="edge">
<title>Node1&#45;&gt;Node3</title>
<path fill="none" stroke="midnightblue" d="M86.17,-126.25C93.02,-117.19 101.39,-106.12 107.89,-97.52"/>
<polygon fill="midnightblue" stroke="midnightblue" points="83.19,-124.39 79.95,-134.48 88.77,-128.61 83.19,-124.39"/>
</g>
<!-- Node3&#45;&gt;Node2 -->
<g id="edge3" class="edge">
<title>Node3&#45;&gt;Node2</title>
<path fill="none" stroke="midnightblue" d="M103.03,-59.16C96.47,-49.68 89.02,-38.92 83.25,-30.58"/>
<polygon fill="midnightblue" stroke="midnightblue" points="100.17,-61.17 108.74,-67.4 105.92,-57.18 100.17,-61.17"/>
</g>
</g>
</svg>
