<?xml version="1.0" encoding="UTF-8" standalone="no"?>
<!DOCTYPE svg PUBLIC "-//W3C//DTD SVG 1.1//EN"
 "http://www.w3.org/Graphics/SVG/1.1/DTD/svg11.dtd">
<!-- Generated by graphviz version 2.43.0 (0)
 -->
<!-- Title: gsd_byte_buffer_append Pages: 1 -->
<svg width="720pt" height="180pt"
 viewBox="0.00 0.00 720.00 180.00" xmlns="http://www.w3.org/2000/svg" xmlns:xlink="http://www.w3.org/1999/xlink">
<g id="graph0" class="graph" transform="scale(1 1) rotate(0) translate(4 176)">
<title>gsd_byte_buffer_append</title>
<!-- Node1 -->
<g id="node1" class="node">
<title>Node1</title>
<g id="a_node1"><a xlink:title=" ">
<polygon fill="#bfbfbf" stroke="black" points="590,-57.5 590,-76.5 712,-76.5 712,-57.5 590,-57.5"/>
<text text-anchor="middle" x="651" y="-64.5" font-family="Helvetica,sans-Serif" font-size="10.00">gsd_byte_buffer_append</text>
</a>
</g>
</g>
<!-- Node2 -->
<g id="node2" class="node">
<title>Node2</title>
<g id="a_node2"><a xlink:href="gsd_8c.html#aa1a0a7dcf4015edcadbb47a6451b4a4b" target="_top" xlink:title=" ">
<polygon fill="none" stroke="black" points="446.5,-114.5 446.5,-133.5 544.5,-133.5 544.5,-114.5 446.5,-114.5"/>
<text text-anchor="middle" x="495.5" y="-121.5" font-family="Helvetica,sans-Serif" font-size="10.00">gsd_append_name</text>
</a>
</g>
</g>
<!-- Node1&#45;&gt;Node2 -->
<g id="edge1" class="edge">
<title>Node1&#45;&gt;Node2</title>
<path fill="none" stroke="midnightblue" d="M614.81,-80.07C586.6,-90.54 547.65,-105.01 522.28,-114.43"/>
<polygon fill="midnightblue" stroke="midnightblue" points="616.15,-83.3 624.31,-76.54 613.71,-76.74 616.15,-83.3"/>
</g>
<!-- Node3 -->
<g id="node3" class="node">
<title>Node3</title>
<g id="a_node3"><a xlink:href="gsd_8h.html#ae22447904b925f284bf987fae448488a" target="_top" xlink:title=" ">
<polygon fill="none" stroke="black" points="311,-114.5 311,-133.5 401,-133.5 401,-114.5 311,-114.5"/>
<text text-anchor="middle" x="356" y="-121.5" font-family="Helvetica,sans-Serif" font-size="10.00">gsd_write_chunk</text>
</a>
</g>
</g>
<!-- Node1&#45;&gt;Node3 -->
<g id="edge13" class="edge">
<title>Node1&#45;&gt;Node3</title>
<path fill="none" stroke="midnightblue" d="M581.44,-78.22C539.59,-85.31 485.08,-95.01 437,-105 423.3,-107.85 408.37,-111.3 395.15,-114.47"/>
<polygon fill="midnightblue" stroke="midnightblue" points="582.24,-81.63 591.52,-76.52 581.07,-74.73 582.24,-81.63"/>
</g>
<!-- Node8 -->
<g id="node8" class="node">
<title>Node8</title>
<g id="a_node8"><a xlink:href="gsd_8c.html#ab147cf4d77c10fd8085e5023e9afe55f" target="_top" xlink:title=" ">
<polygon fill="none" stroke="black" points="437,-38.5 437,-57.5 554,-57.5 554,-38.5 437,-38.5"/>
<text text-anchor="middle" x="495.5" y="-45.5" font-family="Helvetica,sans-Serif" font-size="10.00">gsd_flush_name_buffer</text>
</a>
</g>
</g>
<!-- Node1&#45;&gt;Node8 -->
<g id="edge9" class="edge">
<title>Node1&#45;&gt;Node8</title>
<path fill="none" stroke="midnightblue" d="M579.75,-58.3C571.14,-57.24 562.43,-56.16 554.04,-55.12"/>
<polygon fill="midnightblue" stroke="midnightblue" points="579.42,-61.79 589.77,-59.55 580.28,-54.84 579.42,-61.79"/>
</g>
<!-- Node10 -->
<g id="node10" class="node">
<title>Node10</title>
<g id="a_node10"><a xlink:href="gsd_8h.html#adb92d5142812c19bf4ee33cbde439131" target="_top" xlink:title=" ">
<polygon fill="none" stroke="black" points="459.5,-0.5 459.5,-19.5 531.5,-19.5 531.5,-0.5 459.5,-0.5"/>
<text text-anchor="middle" x="495.5" y="-7.5" font-family="Helvetica,sans-Serif" font-size="10.00">gsd_upgrade</text>
</a>
</g>
</g>
<!-- Node1&#45;&gt;Node10 -->
<g id="edge12" class="edge">
<title>Node1&#45;&gt;Node10</title>
<path fill="none" stroke="midnightblue" d="M617.43,-53.57C598.93,-46.07 575.28,-36.72 554,-29 545.11,-25.77 535.36,-22.47 526.46,-19.54"/>
<polygon fill="midnightblue" stroke="midnightblue" points="616.28,-56.88 626.86,-57.41 618.92,-50.39 616.28,-56.88"/>
</g>
<!-- Node2&#45;&gt;Node3 -->
<g id="edge2" class="edge">
<title>Node2&#45;&gt;Node3</title>
<path fill="none" stroke="midnightblue" d="M436.23,-124C424.48,-124 412.32,-124 401.15,-124"/>
<polygon fill="midnightblue" stroke="midnightblue" points="436.41,-127.5 446.41,-124 436.41,-120.5 436.41,-127.5"/>
</g>
<!-- Node4 -->
<g id="node4" class="node">
<title>Node4</title>
<g id="a_node4"><a xlink:href="classGSDUtil.html#a77b5ebe2817ac868ad1b171f3d7b0cae" target="_top" xlink:title=" ">
<polygon fill="none" stroke="black" points="153.5,-152.5 153.5,-171.5 265.5,-171.5 265.5,-152.5 153.5,-152.5"/>
<text text-anchor="middle" x="209.5" y="-159.5" font-family="Helvetica,sans-Serif" font-size="10.00">GSDUtil::writeHeader</text>
</a>
</g>
</g>
<!-- Node3&#45;&gt;Node4 -->
<g id="edge3" class="edge">
<title>Node3&#45;&gt;Node4</title>
<path fill="none" stroke="midnightblue" d="M308.67,-136.18C288.61,-141.46 265.47,-147.54 246.7,-152.48"/>
<polygon fill="midnightblue" stroke="midnightblue" points="309.76,-139.52 318.54,-133.59 307.98,-132.75 309.76,-139.52"/>
</g>
<!-- Node6 -->
<g id="node6" class="node">
<title>Node6</title>
<g id="a_node6"><a xlink:href="classGSDUtil.html#aa0dc50cd5e5534260375ad4962511cf0" target="_top" xlink:title=" ">
<polygon fill="none" stroke="black" points="144,-114.5 144,-133.5 275,-133.5 275,-114.5 144,-114.5"/>
<text text-anchor="middle" x="209.5" y="-121.5" font-family="Helvetica,sans-Serif" font-size="10.00">GSDUtil::writeParameters</text>
</a>
</g>
</g>
<!-- Node3&#45;&gt;Node6 -->
<g id="edge5" class="edge">
<title>Node3&#45;&gt;Node6</title>
<path fill="none" stroke="midnightblue" d="M300.83,-124C292.44,-124 283.71,-124 275.12,-124"/>
<polygon fill="midnightblue" stroke="midnightblue" points="300.86,-127.5 310.86,-124 300.86,-120.5 300.86,-127.5"/>
</g>
<!-- Node7 -->
<g id="node7" class="node">
<title>Node7</title>
<g id="a_node7"><a xlink:href="classGSDUtil.html#a9464315a26a5d5e2c51bb2b4df5ee373" target="_top" xlink:title=" ">
<polygon fill="none" stroke="black" points="150,-76.5 150,-95.5 269,-95.5 269,-76.5 150,-76.5"/>
<text text-anchor="middle" x="209.5" y="-83.5" font-family="Helvetica,sans-Serif" font-size="10.00">GSDUtil::writeParticles</text>
</a>
</g>
</g>
<!-- Node3&#45;&gt;Node7 -->
<g id="edge7" class="edge">
<title>Node3&#45;&gt;Node7</title>
<path fill="none" stroke="midnightblue" d="M308.67,-111.82C288.61,-106.54 265.47,-100.46 246.7,-95.52"/>
<polygon fill="midnightblue" stroke="midnightblue" points="307.98,-115.25 318.54,-114.41 309.76,-108.48 307.98,-115.25"/>
</g>
<!-- Node5 -->
<g id="node5" class="node">
<title>Node5</title>
<g id="a_node5"><a xlink:href="classGSDUtil.html#ae76e4a23f0fe0bca3cd44137b56b816b" target="_top" xlink:title=" ">
<polygon fill="none" stroke="black" points="0,-95.5 0,-114.5 108,-114.5 108,-95.5 0,-95.5"/>
<text text-anchor="middle" x="54" y="-102.5" font-family="Helvetica,sans-Serif" font-size="10.00">GSDUtil::writeFrame</text>
</a>
</g>
</g>
<!-- Node4&#45;&gt;Node5 -->
<g id="edge4" class="edge">
<title>Node4&#45;&gt;Node5</title>
<path fill="none" stroke="midnightblue" d="M163.79,-149.57C157.12,-147.5 150.35,-145.28 144,-143 120.13,-134.42 93.45,-122.74 75.59,-114.6"/>
<polygon fill="midnightblue" stroke="midnightblue" points="162.86,-152.94 173.45,-152.48 164.88,-146.24 162.86,-152.94"/>
</g>
<!-- Node6&#45;&gt;Node5 -->
<g id="edge6" class="edge">
<title>Node6&#45;&gt;Node5</title>
<path fill="none" stroke="midnightblue" d="M133.82,-114.76C125.25,-113.7 116.64,-112.63 108.43,-111.61"/>
<polygon fill="midnightblue" stroke="midnightblue" points="133.49,-118.24 143.85,-116 134.35,-111.3 133.49,-118.24"/>
</g>
<!-- Node7&#45;&gt;Node5 -->
<g id="edge8" class="edge">
<title>Node7&#45;&gt;Node5</title>
<path fill="none" stroke="midnightblue" d="M139.65,-94.52C129.19,-95.82 118.54,-97.14 108.47,-98.38"/>
<polygon fill="midnightblue" stroke="midnightblue" points="140.1,-97.99 149.59,-93.29 139.24,-91.05 140.1,-97.99"/>
</g>
<!-- Node9 -->
<g id="node9" class="node">
<title>Node9</title>
<g id="a_node9"><a xlink:href="gsd_8h.html#aa03810337c5eebcbe716d8633eaefc5e" target="_top" xlink:title=" ">
<polygon fill="none" stroke="black" points="314.5,-38.5 314.5,-57.5 397.5,-57.5 397.5,-38.5 314.5,-38.5"/>
<text text-anchor="middle" x="356" y="-45.5" font-family="Helvetica,sans-Serif" font-size="10.00">gsd_end_frame</text>
</a>
</g>
</g>
<!-- Node8&#45;&gt;Node9 -->
<g id="edge10" class="edge">
<title>Node8&#45;&gt;Node9</title>
<path fill="none" stroke="midnightblue" d="M426.97,-48C416.92,-48 406.83,-48 397.57,-48"/>
<polygon fill="midnightblue" stroke="midnightblue" points="426.98,-51.5 436.98,-48 426.98,-44.5 426.98,-51.5"/>
</g>
<!-- Node9&#45;&gt;Node5 -->
<g id="edge11" class="edge">
<title>Node9&#45;&gt;Node5</title>
<path fill="none" stroke="midnightblue" d="M304.05,-48.14C260.85,-49.31 197.54,-53.52 144,-67 118.26,-73.48 90.39,-86.44 72.82,-95.41"/>
<polygon fill="midnightblue" stroke="midnightblue" points="304.4,-51.64 314.31,-47.91 304.24,-44.64 304.4,-51.64"/>
</g>
</g>
</svg>
