<?xml version="1.0" encoding="UTF-8" standalone="no"?>
<!DOCTYPE svg PUBLIC "-//W3C//DTD SVG 1.1//EN"
 "http://www.w3.org/Graphics/SVG/1.1/DTD/svg11.dtd">
<!-- Generated by graphviz version 2.43.0 (0)
 -->
<!-- Title: gsd_index_buffer_free Pages: 1 -->
<svg width="590pt" height="142pt"
 viewBox="0.00 0.00 590.00 142.00" xmlns="http://www.w3.org/2000/svg" xmlns:xlink="http://www.w3.org/1999/xlink">
<g id="graph0" class="graph" transform="scale(1 1) rotate(0) translate(4 138)">
<title>gsd_index_buffer_free</title>
<!-- Node1 -->
<g id="node1" class="node">
<title>Node1</title>
<g id="a_node1"><a xlink:title=" ">
<polygon fill="#bfbfbf" stroke="black" points="470,-57.5 470,-76.5 582,-76.5 582,-57.5 470,-57.5"/>
<text text-anchor="middle" x="526" y="-64.5" font-family="Helvetica,sans-Serif" font-size="10.00">gsd_index_buffer_free</text>
</a>
</g>
</g>
<!-- Node2 -->
<g id="node2" class="node">
<title>Node2</title>
<g id="a_node2"><a xlink:href="gsd_8h.html#a08b4f76e3e19eda194def8c0c4b2b7a3" target="_top" xlink:title=" ">
<polygon fill="none" stroke="black" points="345.5,-114.5 345.5,-133.5 406.5,-133.5 406.5,-114.5 345.5,-114.5"/>
<text text-anchor="middle" x="376" y="-121.5" font-family="Helvetica,sans-Serif" font-size="10.00">gsd_close</text>
</a>
</g>
</g>
<!-- Node1&#45;&gt;Node2 -->
<g id="edge1" class="edge">
<title>Node1&#45;&gt;Node2</title>
<path fill="none" stroke="midnightblue" d="M494.29,-80.49C476.76,-88.02 454.29,-97.39 434,-105 425.21,-108.3 415.55,-111.62 406.73,-114.55"/>
<polygon fill="midnightblue" stroke="midnightblue" points="495.69,-83.69 503.48,-76.51 492.92,-77.27 495.69,-83.69"/>
</g>
<!-- Node4 -->
<g id="node4" class="node">
<title>Node4</title>
<g id="a_node4"><a xlink:href="gsd_8c.html#ae6dddb94661e99e54f6c01b1a443e27f" target="_top" xlink:title=" ">
<polygon fill="none" stroke="black" points="318,-76.5 318,-95.5 434,-95.5 434,-76.5 318,-76.5"/>
<text text-anchor="middle" x="376" y="-83.5" font-family="Helvetica,sans-Serif" font-size="10.00">gsd_expand_file_index</text>
</a>
</g>
</g>
<!-- Node1&#45;&gt;Node4 -->
<g id="edge3" class="edge">
<title>Node1&#45;&gt;Node4</title>
<path fill="none" stroke="midnightblue" d="M459.91,-75.36C451.33,-76.46 442.58,-77.58 434.13,-78.67"/>
<polygon fill="midnightblue" stroke="midnightblue" points="460.42,-78.82 469.89,-74.07 459.53,-71.88 460.42,-78.82"/>
</g>
<!-- Node7 -->
<g id="node7" class="node">
<title>Node7</title>
<g id="a_node7"><a xlink:href="gsd_8h.html#a02ac7984034069d508b1c7ccbe702bac" target="_top" xlink:title=" ">
<polygon fill="none" stroke="black" points="339.5,-38.5 339.5,-57.5 412.5,-57.5 412.5,-38.5 339.5,-38.5"/>
<text text-anchor="middle" x="376" y="-45.5" font-family="Helvetica,sans-Serif" font-size="10.00">gsd_truncate</text>
</a>
</g>
</g>
<!-- Node1&#45;&gt;Node7 -->
<g id="edge6" class="edge">
<title>Node1&#45;&gt;Node7</title>
<path fill="none" stroke="midnightblue" d="M459.93,-58.65C443.76,-56.57 427.02,-54.42 412.85,-52.6"/>
<polygon fill="midnightblue" stroke="midnightblue" points="459.53,-62.12 469.89,-59.93 460.42,-55.18 459.53,-62.12"/>
</g>
<!-- Node9 -->
<g id="node9" class="node">
<title>Node9</title>
<g id="a_node9"><a xlink:href="gsd_8h.html#adb92d5142812c19bf4ee33cbde439131" target="_top" xlink:title=" ">
<polygon fill="none" stroke="black" points="340,-0.5 340,-19.5 412,-19.5 412,-0.5 340,-0.5"/>
<text text-anchor="middle" x="376" y="-7.5" font-family="Helvetica,sans-Serif" font-size="10.00">gsd_upgrade</text>
</a>
</g>
</g>
<!-- Node1&#45;&gt;Node9 -->
<g id="edge8" class="edge">
<title>Node1&#45;&gt;Node9</title>
<path fill="none" stroke="midnightblue" d="M494.29,-53.51C476.76,-45.98 454.29,-36.61 434,-29 425.31,-25.74 415.77,-22.45 407.02,-19.55"/>
<polygon fill="midnightblue" stroke="midnightblue" points="492.92,-56.73 503.48,-57.49 495.69,-50.31 492.92,-56.73"/>
</g>
<!-- Node3 -->
<g id="node3" class="node">
<title>Node3</title>
<g id="a_node3"><a xlink:href="classSystemData.html#aa650ece2e42d10df0a17419ed3833f36" target="_top" xlink:title="Destroy the system Data object.">
<polygon fill="none" stroke="black" points="144,-114.5 144,-133.5 282,-133.5 282,-114.5 144,-114.5"/>
<text text-anchor="middle" x="213" y="-121.5" font-family="Helvetica,sans-Serif" font-size="10.00">SystemData::~SystemData</text>
</a>
</g>
</g>
<!-- Node2&#45;&gt;Node3 -->
<g id="edge2" class="edge">
<title>Node2&#45;&gt;Node3</title>
<path fill="none" stroke="midnightblue" d="M335.37,-124C319.3,-124 300.26,-124 282.09,-124"/>
<polygon fill="midnightblue" stroke="midnightblue" points="335.47,-127.5 345.47,-124 335.47,-120.5 335.47,-127.5"/>
</g>
<!-- Node5 -->
<g id="node5" class="node">
<title>Node5</title>
<g id="a_node5"><a xlink:href="gsd_8h.html#aa03810337c5eebcbe716d8633eaefc5e" target="_top" xlink:title=" ">
<polygon fill="none" stroke="black" points="171.5,-76.5 171.5,-95.5 254.5,-95.5 254.5,-76.5 171.5,-76.5"/>
<text text-anchor="middle" x="213" y="-83.5" font-family="Helvetica,sans-Serif" font-size="10.00">gsd_end_frame</text>
</a>
</g>
</g>
<!-- Node4&#45;&gt;Node5 -->
<g id="edge4" class="edge">
<title>Node4&#45;&gt;Node5</title>
<path fill="none" stroke="midnightblue" d="M307.65,-86C289.71,-86 270.88,-86 254.85,-86"/>
<polygon fill="midnightblue" stroke="midnightblue" points="307.78,-89.5 317.78,-86 307.78,-82.5 307.78,-89.5"/>
</g>
<!-- Node6 -->
<g id="node6" class="node">
<title>Node6</title>
<g id="a_node6"><a xlink:href="classGSDUtil.html#ae76e4a23f0fe0bca3cd44137b56b816b" target="_top" xlink:title="Appends frame to GSD file using data from SystemData class.">
<polygon fill="none" stroke="black" points="0,-76.5 0,-95.5 108,-95.5 108,-76.5 0,-76.5"/>
<text text-anchor="middle" x="54" y="-83.5" font-family="Helvetica,sans-Serif" font-size="10.00">GSDUtil::writeFrame</text>
</a>
</g>
</g>
<!-- Node5&#45;&gt;Node6 -->
<g id="edge5" class="edge">
<title>Node5&#45;&gt;Node6</title>
<path fill="none" stroke="midnightblue" d="M160.91,-86C143.99,-86 125.13,-86 108.07,-86"/>
<polygon fill="midnightblue" stroke="midnightblue" points="161.16,-89.5 171.16,-86 161.16,-82.5 161.16,-89.5"/>
</g>
<!-- Node8 -->
<g id="node8" class="node">
<title>Node8</title>
<g id="a_node8"><a xlink:href="classGSDUtil.html#a78b796cb5093b0aa6f5d2573658fcca1" target="_top" xlink:title="Removes all frames and data from GSD file. This returns GSD to a &quot;new file&quot; state.">
<polygon fill="none" stroke="black" points="155,-38.5 155,-57.5 271,-57.5 271,-38.5 155,-38.5"/>
<text text-anchor="middle" x="213" y="-45.5" font-family="Helvetica,sans-Serif" font-size="10.00">GSDUtil::truncateGSD</text>
</a>
</g>
</g>
<!-- Node7&#45;&gt;Node8 -->
<g id="edge7" class="edge">
<title>Node7&#45;&gt;Node8</title>
<path fill="none" stroke="midnightblue" d="M329.02,-48C310.99,-48 290.11,-48 271.13,-48"/>
<polygon fill="midnightblue" stroke="midnightblue" points="329.27,-51.5 339.27,-48 329.27,-44.5 329.27,-51.5"/>
</g>
</g>
</svg>
