<?xml version="1.0" encoding="UTF-8" standalone="no"?>
<!DOCTYPE svg PUBLIC "-//W3C//DTD SVG 1.1//EN"
 "http://www.w3.org/Graphics/SVG/1.1/DTD/svg11.dtd">
<!-- Generated by graphviz version 2.43.0 (0)
 -->
<!-- Title: src/data_io/gsd.h Pages: 1 -->
<svg width="871pt" height="419pt"
 viewBox="0.00 0.00 870.63 419.00" xmlns="http://www.w3.org/2000/svg" xmlns:xlink="http://www.w3.org/1999/xlink">
<g id="graph0" class="graph" transform="scale(1 1) rotate(0) translate(4 415)">
<title>src/data_io/gsd.h</title>
<!-- Node1 -->
<g id="node1" class="node">
<title>Node1</title>
<g id="a_node1"><a xlink:title="Declare GSD data types and C API.">
<polygon fill="#bfbfbf" stroke="black" points="499.13,-391.5 499.13,-410.5 591.13,-410.5 591.13,-391.5 499.13,-391.5"/>
<text text-anchor="middle" x="545.13" y="-398.5" font-family="Helvetica,sans-Serif" font-size="10.00">src/data_io/gsd.h</text>
</a>
</g>
</g>
<!-- Node2 -->
<g id="node2" class="node">
<title>Node2</title>
<g id="a_node2"><a xlink:href="gsd_8c.html" target="_top" xlink:title="Implements the GSD C API.">
<polygon fill="none" stroke="black" points="328.13,-335.5 328.13,-354.5 420.13,-354.5 420.13,-335.5 328.13,-335.5"/>
<text text-anchor="middle" x="374.13" y="-342.5" font-family="Helvetica,sans-Serif" font-size="10.00">src/data_io/gsd.c</text>
</a>
</g>
</g>
<!-- Node1&#45;&gt;Node2 -->
<g id="edge1" class="edge">
<title>Node1&#45;&gt;Node2</title>
<path fill="none" stroke="midnightblue" d="M508.1,-388.3C475.87,-378.13 429.94,-363.62 401.1,-354.52"/>
<polygon fill="midnightblue" stroke="midnightblue" points="507.45,-391.77 518.04,-391.44 509.55,-385.09 507.45,-391.77"/>
</g>
<!-- Node3 -->
<g id="node3" class="node">
<title>Node3</title>
<g id="a_node3"><a xlink:href="GSDUtil_8hpp.html" target="_top" xlink:title=" ">
<polygon fill="none" stroke="black" points="438.63,-335.5 438.63,-354.5 561.63,-354.5 561.63,-335.5 438.63,-335.5"/>
<text text-anchor="middle" x="500.13" y="-342.5" font-family="Helvetica,sans-Serif" font-size="10.00">src/data_io/GSDUtil.hpp</text>
</a>
</g>
</g>
<!-- Node1&#45;&gt;Node3 -->
<g id="edge2" class="edge">
<title>Node1&#45;&gt;Node3</title>
<path fill="none" stroke="midnightblue" d="M531.09,-383.14C523.24,-373.74 513.8,-362.4 507.42,-354.75"/>
<polygon fill="midnightblue" stroke="midnightblue" points="528.61,-385.64 537.7,-391.08 533.99,-381.16 528.61,-385.64"/>
</g>
<!-- Node5 -->
<g id="node5" class="node">
<title>Node5</title>
<g id="a_node5"><a xlink:href="SystemData_8hpp.html" target="_top" xlink:title=" ">
<polygon fill="none" stroke="black" points="442.63,-268.5 442.63,-298.5 557.63,-298.5 557.63,-268.5 442.63,-268.5"/>
<text text-anchor="start" x="450.63" y="-286.5" font-family="Helvetica,sans-Serif" font-size="10.00">src/simulation_system</text>
<text text-anchor="middle" x="500.13" y="-275.5" font-family="Helvetica,sans-Serif" font-size="10.00">/SystemData.hpp</text>
</a>
</g>
</g>
<!-- Node1&#45;&gt;Node5 -->
<g id="edge23" class="edge">
<title>Node1&#45;&gt;Node5</title>
<path fill="none" stroke="midnightblue" d="M559.42,-383.08C568.88,-369.71 578.19,-350.74 570.13,-335 561.94,-318.99 546.05,-306.89 531.47,-298.56"/>
<polygon fill="midnightblue" stroke="midnightblue" points="556.39,-381.28 553.05,-391.34 561.93,-385.55 556.39,-381.28"/>
</g>
<!-- Node13 -->
<g id="node13" class="node">
<title>Node13</title>
<g id="a_node13"><a xlink:href="TestSimulation_8cpp.html" target="_top" xlink:title=" ">
<polygon fill="none" stroke="black" points="743.63,-6 743.63,-25 862.63,-25 862.63,-6 743.63,-6"/>
<text text-anchor="middle" x="803.13" y="-13" font-family="Helvetica,sans-Serif" font-size="10.00">test/TestSimulation.cpp</text>
</a>
</g>
</g>
<!-- Node1&#45;&gt;Node13 -->
<g id="edge24" class="edge">
<title>Node1&#45;&gt;Node13</title>
<path fill="none" stroke="midnightblue" d="M601.24,-389.96C687.07,-372.99 841.13,-335.44 841.13,-284.5 841.13,-284.5 841.13,-284.5 841.13,-148.5 841.13,-100.33 817.47,-45.99 807.49,-25.21"/>
<polygon fill="midnightblue" stroke="midnightblue" points="600.53,-386.54 591.38,-391.88 601.87,-393.41 600.53,-386.54"/>
</g>
<!-- Node4 -->
<g id="node4" class="node">
<title>Node4</title>
<g id="a_node4"><a xlink:href="GSDUtil_8cpp.html" target="_top" xlink:title=" ">
<polygon fill="none" stroke="black" points="301.63,-274 301.63,-293 424.63,-293 424.63,-274 301.63,-274"/>
<text text-anchor="middle" x="363.13" y="-281" font-family="Helvetica,sans-Serif" font-size="10.00">src/data_io/GSDUtil.cpp</text>
</a>
</g>
</g>
<!-- Node3&#45;&gt;Node4 -->
<g id="edge3" class="edge">
<title>Node3&#45;&gt;Node4</title>
<path fill="none" stroke="midnightblue" d="M471.3,-331.48C444.7,-319.92 405.9,-303.08 382.72,-293.01"/>
<polygon fill="midnightblue" stroke="midnightblue" points="469.94,-334.7 480.5,-335.48 472.73,-328.28 469.94,-334.7"/>
</g>
<!-- Node3&#45;&gt;Node5 -->
<g id="edge4" class="edge">
<title>Node3&#45;&gt;Node5</title>
<path fill="none" stroke="midnightblue" d="M493.83,-325.53C493.1,-316.81 493.26,-306.59 494.3,-298.52"/>
<polygon fill="midnightblue" stroke="midnightblue" points="490.37,-326.06 495.23,-335.48 497.31,-325.09 490.37,-326.06"/>
</g>
<!-- Node5&#45;&gt;Node3 -->
<g id="edge6" class="edge">
<title>Node5&#45;&gt;Node3</title>
<path fill="none" stroke="midnightblue" d="M506.78,-308.7C507.14,-318.19 506.56,-328.47 505.03,-335.48"/>
<polygon fill="midnightblue" stroke="midnightblue" points="510.25,-308.21 505.96,-298.52 503.27,-308.77 510.25,-308.21"/>
</g>
<!-- Node6 -->
<g id="node6" class="node">
<title>Node6</title>
<g id="a_node6"><a xlink:href="main_8cpp.html" target="_top" xlink:title=" ">
<polygon fill="none" stroke="black" points="116.63,-6 116.63,-25 189.63,-25 189.63,-6 116.63,-6"/>
<text text-anchor="middle" x="153.13" y="-13" font-family="Helvetica,sans-Serif" font-size="10.00">src/main.cpp</text>
</a>
</g>
</g>
<!-- Node5&#45;&gt;Node6 -->
<g id="edge5" class="edge">
<title>Node5&#45;&gt;Node6</title>
<path fill="none" stroke="midnightblue" d="M432.43,-268.05C241.58,-238.5 117.92,-322.9 18.13,-165 -5.14,-128.18 -6.69,-102.79 18.13,-67 40.09,-35.33 84.49,-23.49 116.38,-19.08"/>
<polygon fill="midnightblue" stroke="midnightblue" points="432.01,-271.53 442.45,-269.7 433.15,-264.62 432.01,-271.53"/>
</g>
<!-- Node7 -->
<g id="node7" class="node">
<title>Node7</title>
<g id="a_node7"><a xlink:href="PotentialHydrodynamics_8hpp.html" target="_top" xlink:title=" ">
<polygon fill="none" stroke="black" points="222.13,-207 222.13,-226 410.13,-226 410.13,-207 222.13,-207"/>
<text text-anchor="middle" x="316.13" y="-214" font-family="Helvetica,sans-Serif" font-size="10.00">src/forces/PotentialHydrodynamics.hpp</text>
</a>
</g>
</g>
<!-- Node5&#45;&gt;Node7 -->
<g id="edge7" class="edge">
<title>Node5&#45;&gt;Node7</title>
<path fill="none" stroke="midnightblue" d="M450.44,-264.95C414.7,-252.32 368.08,-235.85 340.21,-226.01"/>
<polygon fill="midnightblue" stroke="midnightblue" points="449.61,-268.37 460.21,-268.4 451.94,-261.76 449.61,-268.37"/>
</g>
<!-- Node9 -->
<g id="node9" class="node">
<title>Node9</title>
<g id="a_node9"><a xlink:href="RungeKutta4_8hpp.html" target="_top" xlink:title=" ">
<polygon fill="none" stroke="black" points="27.13,-140 27.13,-159 185.13,-159 185.13,-140 27.13,-140"/>
<text text-anchor="middle" x="106.13" y="-147" font-family="Helvetica,sans-Serif" font-size="10.00">src/integrators/RungeKutta4.hpp</text>
</a>
</g>
</g>
<!-- Node5&#45;&gt;Node9 -->
<g id="edge16" class="edge">
<title>Node5&#45;&gt;Node9</title>
<path fill="none" stroke="midnightblue" d="M432.35,-267.98C333.69,-250.85 301.2,-269.92 213.13,-232 171.31,-213.99 131.12,-176.13 114.34,-159.11"/>
<polygon fill="midnightblue" stroke="midnightblue" points="431.96,-271.47 442.43,-269.82 433.22,-264.58 431.96,-271.47"/>
</g>
<!-- Node11 -->
<g id="node11" class="node">
<title>Node11</title>
<g id="a_node11"><a xlink:href="Engine_8hpp.html" target="_top" xlink:title=" ">
<polygon fill="none" stroke="black" points="361.63,-67.5 361.63,-97.5 476.63,-97.5 476.63,-67.5 361.63,-67.5"/>
<text text-anchor="start" x="369.63" y="-85.5" font-family="Helvetica,sans-Serif" font-size="10.00">src/simulation_system</text>
<text text-anchor="middle" x="419.13" y="-74.5" font-family="Helvetica,sans-Serif" font-size="10.00">/Engine.hpp</text>
</a>
</g>
</g>
<!-- Node5&#45;&gt;Node11 -->
<g id="edge17" class="edge">
<title>Node5&#45;&gt;Node11</title>
<path fill="none" stroke="midnightblue" d="M488.73,-259.47C484.61,-250.91 480.02,-241.07 476.13,-232 455.24,-183.27 433.62,-124.1 424.12,-97.57"/>
<polygon fill="midnightblue" stroke="midnightblue" points="485.59,-261.02 493.11,-268.48 491.89,-257.96 485.59,-261.02"/>
</g>
<!-- Node5&#45;&gt;Node13 -->
<g id="edge19" class="edge">
<title>Node5&#45;&gt;Node13</title>
<path fill="none" stroke="midnightblue" d="M567.92,-274.94C630.62,-266.82 718.2,-252.31 746.13,-232 814.99,-181.93 807.6,-58.77 804.15,-25.12"/>
<polygon fill="midnightblue" stroke="midnightblue" points="567.18,-271.5 557.7,-276.23 568.06,-278.45 567.18,-271.5"/>
</g>
<!-- Node14 -->
<g id="node14" class="node">
<title>Node14</title>
<g id="a_node14"><a xlink:href="SystemData_8cpp.html" target="_top" xlink:title=" ">
<polygon fill="none" stroke="black" points="485.63,-201.5 485.63,-231.5 600.63,-231.5 600.63,-201.5 485.63,-201.5"/>
<text text-anchor="start" x="493.63" y="-219.5" font-family="Helvetica,sans-Serif" font-size="10.00">src/simulation_system</text>
<text text-anchor="middle" x="543.13" y="-208.5" font-family="Helvetica,sans-Serif" font-size="10.00">/SystemData.cpp</text>
</a>
</g>
</g>
<!-- Node5&#45;&gt;Node14 -->
<g id="edge18" class="edge">
<title>Node5&#45;&gt;Node14</title>
<path fill="none" stroke="midnightblue" d="M515.1,-259.87C521.33,-250.46 528.36,-239.83 533.82,-231.58"/>
<polygon fill="midnightblue" stroke="midnightblue" points="512.06,-258.12 509.46,-268.4 517.9,-261.99 512.06,-258.12"/>
</g>
<!-- Node15 -->
<g id="node15" class="node">
<title>Node15</title>
<g id="a_node15"><a xlink:href="TestSystemData_8hpp.html" target="_top" xlink:title=" ">
<polygon fill="none" stroke="black" points="619.13,-201.5 619.13,-231.5 737.13,-231.5 737.13,-201.5 619.13,-201.5"/>
<text text-anchor="start" x="627.13" y="-219.5" font-family="Helvetica,sans-Serif" font-size="10.00">test/simulation_system</text>
<text text-anchor="middle" x="678.13" y="-208.5" font-family="Helvetica,sans-Serif" font-size="10.00">/TestSystemData.hpp</text>
</a>
</g>
</g>
<!-- Node5&#45;&gt;Node15 -->
<g id="edge20" class="edge">
<title>Node5&#45;&gt;Node15</title>
<path fill="none" stroke="midnightblue" d="M548.18,-264.96C576.85,-254.48 612.78,-241.37 639.58,-231.58"/>
<polygon fill="midnightblue" stroke="midnightblue" points="546.95,-261.68 538.76,-268.4 549.35,-268.25 546.95,-261.68"/>
</g>
<!-- Node8 -->
<g id="node8" class="node">
<title>Node8</title>
<g id="a_node8"><a xlink:href="PotentialHydrodynamics_8cpp.html" target="_top" xlink:title=" ">
<polygon fill="none" stroke="black" points="203.13,-140 203.13,-159 391.13,-159 391.13,-140 203.13,-140"/>
<text text-anchor="middle" x="297.13" y="-147" font-family="Helvetica,sans-Serif" font-size="10.00">src/forces/PotentialHydrodynamics.cpp</text>
</a>
</g>
</g>
<!-- Node7&#45;&gt;Node8 -->
<g id="edge8" class="edge">
<title>Node7&#45;&gt;Node8</title>
<path fill="none" stroke="midnightblue" d="M310.7,-196.91C307.07,-184.49 302.46,-168.72 299.65,-159.13"/>
<polygon fill="midnightblue" stroke="midnightblue" points="307.4,-198.12 313.57,-206.73 314.12,-196.15 307.4,-198.12"/>
</g>
<!-- Node7&#45;&gt;Node9 -->
<g id="edge9" class="edge">
<title>Node7&#45;&gt;Node9</title>
<path fill="none" stroke="midnightblue" d="M278.48,-203.85C236.89,-190.97 170.89,-170.55 133.8,-159.06"/>
<polygon fill="midnightblue" stroke="midnightblue" points="277.66,-207.26 288.25,-206.87 279.73,-200.57 277.66,-207.26"/>
</g>
<!-- Node7&#45;&gt;Node11 -->
<g id="edge15" class="edge">
<title>Node7&#45;&gt;Node11</title>
<path fill="none" stroke="midnightblue" d="M349.83,-202.85C367.33,-194.61 387.63,-182.18 400.13,-165 414.84,-144.8 418.36,-114.95 419.09,-97.54"/>
<polygon fill="midnightblue" stroke="midnightblue" points="348.18,-199.75 340.45,-206.99 351.02,-206.15 348.18,-199.75"/>
</g>
<!-- Node10 -->
<g id="node10" class="node">
<title>Node10</title>
<g id="a_node10"><a xlink:href="RungeKutta4_8cpp.html" target="_top" xlink:title=" ">
<polygon fill="none" stroke="black" points="27.13,-73 27.13,-92 185.13,-92 185.13,-73 27.13,-73"/>
<text text-anchor="middle" x="106.13" y="-80" font-family="Helvetica,sans-Serif" font-size="10.00">src/integrators/RungeKutta4.cpp</text>
</a>
</g>
</g>
<!-- Node9&#45;&gt;Node10 -->
<g id="edge10" class="edge">
<title>Node9&#45;&gt;Node10</title>
<path fill="none" stroke="midnightblue" d="M106.13,-129.54C106.13,-117.17 106.13,-101.62 106.13,-92.13"/>
<polygon fill="midnightblue" stroke="midnightblue" points="102.63,-129.73 106.13,-139.73 109.63,-129.73 102.63,-129.73"/>
</g>
<!-- Node9&#45;&gt;Node11 -->
<g id="edge11" class="edge">
<title>Node9&#45;&gt;Node11</title>
<path fill="none" stroke="midnightblue" d="M157.44,-137.85C213.51,-126.2 303.14,-107.59 361.58,-95.45"/>
<polygon fill="midnightblue" stroke="midnightblue" points="156.45,-134.48 147.37,-139.94 157.88,-141.33 156.45,-134.48"/>
</g>
<!-- Node11&#45;&gt;Node6 -->
<g id="edge12" class="edge">
<title>Node11&#45;&gt;Node6</title>
<path fill="none" stroke="midnightblue" d="M351.89,-65.07C299.73,-52.32 229.53,-35.17 188.03,-25.03"/>
<polygon fill="midnightblue" stroke="midnightblue" points="351.2,-68.5 361.74,-67.48 352.86,-61.7 351.2,-68.5"/>
</g>
<!-- Node12 -->
<g id="node12" class="node">
<title>Node12</title>
<g id="a_node12"><a xlink:href="Engine_8cpp.html" target="_top" xlink:title=" ">
<polygon fill="none" stroke="black" points="361.63,-0.5 361.63,-30.5 476.63,-30.5 476.63,-0.5 361.63,-0.5"/>
<text text-anchor="start" x="369.63" y="-18.5" font-family="Helvetica,sans-Serif" font-size="10.00">src/simulation_system</text>
<text text-anchor="middle" x="419.13" y="-7.5" font-family="Helvetica,sans-Serif" font-size="10.00">/Engine.cpp</text>
</a>
</g>
</g>
<!-- Node11&#45;&gt;Node12 -->
<g id="edge13" class="edge">
<title>Node11&#45;&gt;Node12</title>
<path fill="none" stroke="midnightblue" d="M419.13,-57.11C419.13,-48.15 419.13,-38.32 419.13,-30.58"/>
<polygon fill="midnightblue" stroke="midnightblue" points="415.63,-57.4 419.13,-67.4 422.63,-57.4 415.63,-57.4"/>
</g>
<!-- Node11&#45;&gt;Node13 -->
<g id="edge14" class="edge">
<title>Node11&#45;&gt;Node13</title>
<path fill="none" stroke="midnightblue" d="M487,-70.01C563.07,-57.14 684.65,-36.56 752.73,-25.03"/>
<polygon fill="midnightblue" stroke="midnightblue" points="486.31,-66.58 477.04,-71.7 487.48,-73.48 486.31,-66.58"/>
</g>
<!-- Node16 -->
<g id="node16" class="node">
<title>Node16</title>
<g id="a_node16"><a xlink:href="TestSimulationSystem_8cpp.html" target="_top" xlink:title=" ">
<polygon fill="none" stroke="black" points="485.63,-140 485.63,-159 638.63,-159 638.63,-140 485.63,-140"/>
<text text-anchor="middle" x="562.13" y="-147" font-family="Helvetica,sans-Serif" font-size="10.00">test/TestSimulationSystem.cpp</text>
</a>
</g>
</g>
<!-- Node15&#45;&gt;Node16 -->
<g id="edge21" class="edge">
<title>Node15&#45;&gt;Node16</title>
<path fill="none" stroke="midnightblue" d="M644.18,-196.47C622.03,-184.06 594.2,-168.47 577.31,-159.01"/>
<polygon fill="midnightblue" stroke="midnightblue" points="642.53,-199.56 652.96,-201.4 645.95,-193.45 642.53,-199.56"/>
</g>
<!-- Node17 -->
<g id="node17" class="node">
<title>Node17</title>
<g id="a_node17"><a xlink:href="TestSystemData_8cpp.html" target="_top" xlink:title=" ">
<polygon fill="none" stroke="black" points="657.13,-134.5 657.13,-164.5 775.13,-164.5 775.13,-134.5 657.13,-134.5"/>
<text text-anchor="start" x="665.13" y="-152.5" font-family="Helvetica,sans-Serif" font-size="10.00">test/simulation_system</text>
<text text-anchor="middle" x="716.13" y="-141.5" font-family="Helvetica,sans-Serif" font-size="10.00">/TestSystemData.cpp</text>
</a>
</g>
</g>
<!-- Node15&#45;&gt;Node17 -->
<g id="edge22" class="edge">
<title>Node15&#45;&gt;Node17</title>
<path fill="none" stroke="midnightblue" d="M691.53,-192.58C696.99,-183.24 703.13,-172.75 707.9,-164.58"/>
<polygon fill="midnightblue" stroke="midnightblue" points="688.4,-191 686.38,-201.4 694.45,-194.53 688.4,-191"/>
</g>
</g>
</svg>
