<?xml version="1.0" encoding="UTF-8" standalone="no"?>
<!DOCTYPE svg PUBLIC "-//W3C//DTD SVG 1.1//EN"
 "http://www.w3.org/Graphics/SVG/1.1/DTD/svg11.dtd">
<!-- Generated by graphviz version 2.49.1 (20210923.0004)
 -->
<!-- Title: gsd_find_chunk Pages: 1 -->
<svg width="556pt" height="142pt"
 viewBox="0.00 0.00 556.00 142.00" xmlns="http://www.w3.org/2000/svg" xmlns:xlink="http://www.w3.org/1999/xlink">
<g id="graph0" class="graph" transform="scale(1 1) rotate(0) translate(4 138)">
<title>gsd_find_chunk</title>
<!-- Node1 -->
<g id="node1" class="node">
<title>Node1</title>
<g id="a_node1"><a xlink:title=" ">
<polygon fill="#bfbfbf" stroke="black" points="461,-57.5 461,-76.5 548,-76.5 548,-57.5 461,-57.5"/>
<text text-anchor="middle" x="504.5" y="-64.5" font-family="Helvetica,sans-Serif" font-size="10.00">gsd_find_chunk</text>
</a>
</g>
</g>
<!-- Node2 -->
<g id="node2" class="node">
<title>Node2</title>
<g id="a_node2"><a xlink:href="classGSDUtil.html#a86d2352b694afc6a0c938a13b3acec9d" target="_top" xlink:title=" ">
<polygon fill="none" stroke="black" points="318,-57.5 318,-76.5 425,-76.5 425,-57.5 318,-57.5"/>
<text text-anchor="middle" x="371.5" y="-64.5" font-family="Helvetica,sans-Serif" font-size="10.00">GSDUtil::readChunk</text>
</a>
</g>
</g>
<!-- Node1&#45;&gt;Node2 -->
<g id="edge1" class="edge">
<title>Node1&#45;&gt;Node2</title>
<path fill="none" stroke="midnightblue" d="M450.9,-67C442.49,-67 433.78,-67 425.36,-67"/>
<polygon fill="midnightblue" stroke="midnightblue" points="450.97,-70.5 460.97,-67 450.97,-63.5 450.97,-70.5"/>
</g>
<!-- Node3 -->
<g id="node3" class="node">
<title>Node3</title>
<g id="a_node3"><a xlink:href="classGSDUtil.html#a2015dcdcdb33be9106f5c8f45f8564cc" target="_top" xlink:title=" ">
<polygon fill="none" stroke="black" points="150.5,-114.5 150.5,-133.5 261.5,-133.5 261.5,-114.5 150.5,-114.5"/>
<text text-anchor="middle" x="206" y="-121.5" font-family="Helvetica,sans-Serif" font-size="10.00">GSDUtil::readHeader</text>
</a>
</g>
</g>
<!-- Node2&#45;&gt;Node3 -->
<g id="edge2" class="edge">
<title>Node2&#45;&gt;Node3</title>
<path fill="none" stroke="midnightblue" d="M341.41,-80.86C324.36,-88.64 302.25,-98.13 282,-105 271.7,-108.49 260.4,-111.68 249.78,-114.4"/>
<polygon fill="midnightblue" stroke="midnightblue" points="343.21,-83.89 350.82,-76.52 340.27,-77.54 343.21,-83.89"/>
</g>
<!-- Node5 -->
<g id="node5" class="node">
<title>Node5</title>
<g id="a_node5"><a xlink:href="classGSDUtil.html#a31f9c7368ebd89c6293d9d9d83598e62" target="_top" xlink:title=" ">
<polygon fill="none" stroke="black" points="141,-76.5 141,-95.5 271,-95.5 271,-76.5 141,-76.5"/>
<text text-anchor="middle" x="206" y="-83.5" font-family="Helvetica,sans-Serif" font-size="10.00">GSDUtil::readParameters</text>
</a>
</g>
</g>
<!-- Node2&#45;&gt;Node5 -->
<g id="edge4" class="edge">
<title>Node2&#45;&gt;Node5</title>
<path fill="none" stroke="midnightblue" d="M307.58,-74.31C295.68,-75.7 283.21,-77.14 271.27,-78.53"/>
<polygon fill="midnightblue" stroke="midnightblue" points="308.34,-77.75 317.87,-73.12 307.53,-70.79 308.34,-77.75"/>
</g>
<!-- Node6 -->
<g id="node6" class="node">
<title>Node6</title>
<g id="a_node6"><a xlink:href="classGSDUtil.html#ad404c3879fb81c0b73b2335ea6e4676a" target="_top" xlink:title=" ">
<polygon fill="none" stroke="black" points="147.5,-38.5 147.5,-57.5 264.5,-57.5 264.5,-38.5 147.5,-38.5"/>
<text text-anchor="middle" x="206" y="-45.5" font-family="Helvetica,sans-Serif" font-size="10.00">GSDUtil::readParticles</text>
</a>
</g>
</g>
<!-- Node2&#45;&gt;Node6 -->
<g id="edge6" class="edge">
<title>Node2&#45;&gt;Node6</title>
<path fill="none" stroke="midnightblue" d="M307.72,-59.7C293.55,-58.06 278.57,-56.32 264.63,-54.7"/>
<polygon fill="midnightblue" stroke="midnightblue" points="307.53,-63.21 317.87,-60.88 308.34,-56.25 307.53,-63.21"/>
</g>
<!-- Node7 -->
<g id="node7" class="node">
<title>Node7</title>
<g id="a_node7"><a xlink:href="classGSDUtil.html#a278d1db9ece12bdc1268780313d83daf" target="_top" xlink:title=" ">
<polygon fill="none" stroke="black" points="130,-0.5 130,-19.5 282,-19.5 282,-0.5 130,-0.5"/>
<text text-anchor="middle" x="206" y="-7.5" font-family="Helvetica,sans-Serif" font-size="10.00">GSDUtil::readSystemSpecifics</text>
</a>
</g>
</g>
<!-- Node2&#45;&gt;Node7 -->
<g id="edge8" class="edge">
<title>Node2&#45;&gt;Node7</title>
<path fill="none" stroke="midnightblue" d="M341.41,-53.14C324.36,-45.36 302.25,-35.87 282,-29 271.7,-25.51 260.4,-22.32 249.78,-19.6"/>
<polygon fill="midnightblue" stroke="midnightblue" points="340.27,-56.46 350.82,-57.48 343.21,-50.11 340.27,-56.46"/>
</g>
<!-- Node4 -->
<g id="node4" class="node">
<title>Node4</title>
<g id="a_node4"><a xlink:href="classGSDUtil.html#a2567bdb7f5952a76984552e0591fa330" target="_top" xlink:title=" ">
<polygon fill="none" stroke="black" points="0,-57.5 0,-76.5 94,-76.5 94,-57.5 0,-57.5"/>
<text text-anchor="middle" x="47" y="-64.5" font-family="Helvetica,sans-Serif" font-size="10.00">GSDUtil::GSDUtil</text>
</a>
</g>
</g>
<!-- Node3&#45;&gt;Node4 -->
<g id="edge3" class="edge">
<title>Node3&#45;&gt;Node4</title>
<path fill="none" stroke="midnightblue" d="M151.5,-111.75C144.21,-109.7 136.88,-107.44 130,-105 107.38,-96.97 82.51,-84.97 66.15,-76.61"/>
<polygon fill="midnightblue" stroke="midnightblue" points="150.79,-115.18 161.36,-114.4 152.61,-108.42 150.79,-115.18"/>
</g>
<!-- Node5&#45;&gt;Node4 -->
<g id="edge5" class="edge">
<title>Node5&#45;&gt;Node4</title>
<path fill="none" stroke="midnightblue" d="M130.75,-77.01C118.29,-75.51 105.68,-73.98 94.2,-72.59"/>
<polygon fill="midnightblue" stroke="midnightblue" points="130.34,-80.49 140.69,-78.22 131.18,-73.54 130.34,-80.49"/>
</g>
<!-- Node6&#45;&gt;Node4 -->
<g id="edge7" class="edge">
<title>Node6&#45;&gt;Node4</title>
<path fill="none" stroke="midnightblue" d="M137.45,-56.17C122.88,-57.94 107.8,-59.76 94.27,-61.4"/>
<polygon fill="midnightblue" stroke="midnightblue" points="137.92,-59.64 147.43,-54.97 137.08,-52.69 137.92,-59.64"/>
</g>
<!-- Node7&#45;&gt;Node4 -->
<g id="edge9" class="edge">
<title>Node7&#45;&gt;Node4</title>
<path fill="none" stroke="midnightblue" d="M151.5,-22.25C144.21,-24.3 136.88,-26.56 130,-29 107.38,-37.03 82.51,-49.03 66.15,-57.39"/>
<polygon fill="midnightblue" stroke="midnightblue" points="152.61,-25.58 161.36,-19.6 150.79,-18.82 152.61,-25.58"/>
</g>
</g>
</svg>
