<?xml version="1.0" encoding="UTF-8" standalone="no"?>
<!DOCTYPE svg PUBLIC "-//W3C//DTD SVG 1.1//EN"
 "http://www.w3.org/Graphics/SVG/1.1/DTD/svg11.dtd">
<!-- Generated by graphviz version 2.43.0 (0)
 -->
<!-- Title: gsd_heapify Pages: 1 -->
<svg width="372pt" height="104pt"
 viewBox="0.00 0.00 372.00 104.00" xmlns="http://www.w3.org/2000/svg" xmlns:xlink="http://www.w3.org/1999/xlink">
<g id="graph0" class="graph" transform="scale(1 1) rotate(0) translate(4 100)">
<title>gsd_heapify</title>
<!-- Node1 -->
<g id="node1" class="node">
<title>Node1</title>
<g id="a_node1"><a xlink:title=" ">
<polygon fill="#bfbfbf" stroke="black" points="0,-57.5 0,-76.5 69,-76.5 69,-57.5 0,-57.5"/>
<text text-anchor="middle" x="34.5" y="-64.5" font-family="Helvetica,sans-Serif" font-size="10.00">gsd_heapify</text>
</a>
</g>
</g>
<!-- Node2 -->
<g id="node2" class="node">
<title>Node2</title>
<g id="a_node2"><a xlink:href="gsd_8c.html#ab7b8e133941184a32c2d90414dfba6a5" target="_top" xlink:title=" ">
<polygon fill="none" stroke="black" points="115,-76.5 115,-95.5 206,-95.5 206,-76.5 115,-76.5"/>
<text text-anchor="middle" x="160.5" y="-83.5" font-family="Helvetica,sans-Serif" font-size="10.00">gsd_heap_parent</text>
</a>
</g>
</g>
<!-- Node1&#45;&gt;Node2 -->
<g id="edge1" class="edge">
<title>Node1&#45;&gt;Node2</title>
<path fill="none" stroke="midnightblue" d="M69.06,-72.14C80.04,-73.82 92.54,-75.74 104.67,-77.6"/>
<polygon fill="midnightblue" stroke="midnightblue" points="104.32,-81.09 114.74,-79.14 105.38,-74.17 104.32,-81.09"/>
</g>
<!-- Node3 -->
<g id="node3" class="node">
<title>Node3</title>
<g id="a_node3"><a xlink:href="gsd_8c.html#accc971ec12e75a165ffef6e1ee854681" target="_top" xlink:title=" ">
<polygon fill="none" stroke="black" points="105,-38.5 105,-57.5 216,-57.5 216,-38.5 105,-38.5"/>
<text text-anchor="middle" x="160.5" y="-45.5" font-family="Helvetica,sans-Serif" font-size="10.00">gsd_heap_shift_down</text>
</a>
</g>
</g>
<!-- Node1&#45;&gt;Node3 -->
<g id="edge2" class="edge">
<title>Node1&#45;&gt;Node3</title>
<path fill="none" stroke="midnightblue" d="M69.06,-61.86C77.08,-60.63 85.92,-59.27 94.83,-57.91"/>
<polygon fill="midnightblue" stroke="midnightblue" points="95.53,-61.34 104.88,-56.37 94.47,-54.42 95.53,-61.34"/>
</g>
<!-- Node4 -->
<g id="node4" class="node">
<title>Node4</title>
<g id="a_node4"><a xlink:href="gsd_8c.html#a3ffe758eed9a5bae487f514a0a45e97d" target="_top" xlink:title=" ">
<polygon fill="none" stroke="black" points="252,-76.5 252,-95.5 364,-95.5 364,-76.5 252,-76.5"/>
<text text-anchor="middle" x="308" y="-83.5" font-family="Helvetica,sans-Serif" font-size="10.00">gsd_cmp_index_entry</text>
</a>
</g>
</g>
<!-- Node3&#45;&gt;Node4 -->
<g id="edge3" class="edge">
<title>Node3&#45;&gt;Node4</title>
<path fill="none" stroke="midnightblue" d="M198.22,-57.59C217.16,-62.54 240.46,-68.62 260.63,-73.89"/>
<polygon fill="midnightblue" stroke="midnightblue" points="259.99,-77.34 270.55,-76.48 261.76,-70.57 259.99,-77.34"/>
</g>
<!-- Node5 -->
<g id="node5" class="node">
<title>Node5</title>
<g id="a_node5"><a xlink:href="gsd_8c.html#aaec0ae1e441692725a568aee8c8ef627" target="_top" xlink:title=" ">
<polygon fill="none" stroke="black" points="256.5,-38.5 256.5,-57.5 359.5,-57.5 359.5,-38.5 256.5,-38.5"/>
<text text-anchor="middle" x="308" y="-45.5" font-family="Helvetica,sans-Serif" font-size="10.00">gsd_heap_left_child</text>
</a>
</g>
</g>
<!-- Node3&#45;&gt;Node5 -->
<g id="edge4" class="edge">
<title>Node3&#45;&gt;Node5</title>
<path fill="none" stroke="midnightblue" d="M216.09,-48C225.91,-48 236.19,-48 246.17,-48"/>
<polygon fill="midnightblue" stroke="midnightblue" points="246.43,-51.5 256.43,-48 246.43,-44.5 246.43,-51.5"/>
</g>
<!-- Node6 -->
<g id="node6" class="node">
<title>Node6</title>
<g id="a_node6"><a xlink:href="gsd_8c.html#a987a1d460f7ca33476fc57bcc1ff8439" target="_top" xlink:title=" ">
<polygon fill="none" stroke="black" points="264.5,-0.5 264.5,-19.5 351.5,-19.5 351.5,-0.5 264.5,-0.5"/>
<text text-anchor="middle" x="308" y="-7.5" font-family="Helvetica,sans-Serif" font-size="10.00">gsd_heap_swap</text>
</a>
</g>
</g>
<!-- Node3&#45;&gt;Node6 -->
<g id="edge5" class="edge">
<title>Node3&#45;&gt;Node6</title>
<path fill="none" stroke="midnightblue" d="M198.22,-38.41C217.16,-33.46 240.46,-27.38 260.63,-22.11"/>
<polygon fill="midnightblue" stroke="midnightblue" points="261.76,-25.43 270.55,-19.52 259.99,-18.66 261.76,-25.43"/>
</g>
</g>
</svg>
