<?xml version="1.0" encoding="UTF-8" standalone="no"?>
<!DOCTYPE svg PUBLIC "-//W3C//DTD SVG 1.1//EN"
 "http://www.w3.org/Graphics/SVG/1.1/DTD/svg11.dtd">
<!-- Generated by graphviz version 2.49.1 (20210923.0004)
 -->
<!-- Title: gsd_name_id_map_insert Pages: 1 -->
<svg width="748pt" height="218pt"
 viewBox="0.00 0.00 748.00 218.00" xmlns="http://www.w3.org/2000/svg" xmlns:xlink="http://www.w3.org/1999/xlink">
<g id="graph0" class="graph" transform="scale(1 1) rotate(0) translate(4 214)">
<title>gsd_name_id_map_insert</title>
<!-- Node1 -->
<g id="node1" class="node">
<title>Node1</title>
<g id="a_node1"><a xlink:title=" ">
<polygon fill="#bfbfbf" stroke="black" points="608,-86.5 608,-105.5 740,-105.5 740,-86.5 608,-86.5"/>
<text text-anchor="middle" x="674" y="-93.5" font-family="Helvetica,sans-Serif" font-size="10.00">gsd_name_id_map_insert</text>
</a>
</g>
</g>
<!-- Node2 -->
<g id="node2" class="node">
<title>Node2</title>
<g id="a_node2"><a xlink:href="gsd_8c.html#aa1a0a7dcf4015edcadbb47a6451b4a4b" target="_top" xlink:title=" ">
<polygon fill="none" stroke="black" points="466.5,-114.5 466.5,-133.5 568.5,-133.5 568.5,-114.5 466.5,-114.5"/>
<text text-anchor="middle" x="517.5" y="-121.5" font-family="Helvetica,sans-Serif" font-size="10.00">gsd_append_name</text>
</a>
</g>
</g>
<!-- Node1&#45;&gt;Node2 -->
<g id="edge1" class="edge">
<title>Node1&#45;&gt;Node2</title>
<path fill="none" stroke="midnightblue" d="M610.31,-107.36C596.45,-109.87 581.94,-112.5 568.65,-114.91"/>
<polygon fill="midnightblue" stroke="midnightblue" points="611.05,-110.78 620.26,-105.56 609.8,-103.9 611.05,-110.78"/>
</g>
<!-- Node8 -->
<g id="node8" class="node">
<title>Node8</title>
<g id="a_node8"><a xlink:href="gsd_8c.html#ac159dfbfd790607f85073ad2d8464a8b" target="_top" xlink:title=" ">
<polygon fill="none" stroke="black" points="463,-67.5 463,-86.5 572,-86.5 572,-67.5 463,-67.5"/>
<text text-anchor="middle" x="517.5" y="-74.5" font-family="Helvetica,sans-Serif" font-size="10.00">gsd_initialize_handle</text>
</a>
</g>
</g>
<!-- Node1&#45;&gt;Node8 -->
<g id="edge9" class="edge">
<title>Node1&#45;&gt;Node8</title>
<path fill="none" stroke="midnightblue" d="M597.84,-86.76C589.21,-85.7 580.55,-84.63 572.28,-83.61"/>
<polygon fill="midnightblue" stroke="midnightblue" points="597.57,-90.25 607.93,-88 598.43,-83.3 597.57,-90.25"/>
</g>
<!-- Node3 -->
<g id="node3" class="node">
<title>Node3</title>
<g id="a_node3"><a xlink:href="gsd_8c.html#ae22447904b925f284bf987fae448488a" target="_top" xlink:title=" ">
<polygon fill="none" stroke="black" points="323,-133.5 323,-152.5 415,-152.5 415,-133.5 323,-133.5"/>
<text text-anchor="middle" x="369" y="-140.5" font-family="Helvetica,sans-Serif" font-size="10.00">gsd_write_chunk</text>
</a>
</g>
</g>
<!-- Node2&#45;&gt;Node3 -->
<g id="edge2" class="edge">
<title>Node2&#45;&gt;Node3</title>
<path fill="none" stroke="midnightblue" d="M456.2,-131.82C442.55,-133.59 428.27,-135.44 415.36,-137.12"/>
<polygon fill="midnightblue" stroke="midnightblue" points="457.03,-135.24 466.49,-130.49 456.13,-128.3 457.03,-135.24"/>
</g>
<!-- Node4 -->
<g id="node4" class="node">
<title>Node4</title>
<g id="a_node4"><a xlink:href="classGSDUtil.html#a77b5ebe2817ac868ad1b171f3d7b0cae" target="_top" xlink:title=" ">
<polygon fill="none" stroke="black" points="153.5,-190.5 153.5,-209.5 265.5,-209.5 265.5,-190.5 153.5,-190.5"/>
<text text-anchor="middle" x="209.5" y="-197.5" font-family="Helvetica,sans-Serif" font-size="10.00">GSDUtil::writeHeader</text>
</a>
</g>
</g>
<!-- Node3&#45;&gt;Node4 -->
<g id="edge3" class="edge">
<title>Node3&#45;&gt;Node4</title>
<path fill="none" stroke="midnightblue" d="M337.05,-156.57C319.1,-164.2 295.97,-173.65 275,-181 265.42,-184.36 254.9,-187.63 245.18,-190.48"/>
<polygon fill="midnightblue" stroke="midnightblue" points="338.63,-159.7 346.44,-152.54 335.87,-153.26 338.63,-159.7"/>
</g>
<!-- Node6 -->
<g id="node6" class="node">
<title>Node6</title>
<g id="a_node6"><a xlink:href="classGSDUtil.html#aa0dc50cd5e5534260375ad4962511cf0" target="_top" xlink:title=" ">
<polygon fill="none" stroke="black" points="144,-152.5 144,-171.5 275,-171.5 275,-152.5 144,-152.5"/>
<text text-anchor="middle" x="209.5" y="-159.5" font-family="Helvetica,sans-Serif" font-size="10.00">GSDUtil::writeParameters</text>
</a>
</g>
</g>
<!-- Node3&#45;&gt;Node6 -->
<g id="edge5" class="edge">
<title>Node3&#45;&gt;Node6</title>
<path fill="none" stroke="midnightblue" d="M312.83,-149.66C300.61,-151.13 287.56,-152.7 275.01,-154.22"/>
<polygon fill="midnightblue" stroke="midnightblue" points="313.36,-153.12 322.87,-148.44 312.52,-146.17 313.36,-153.12"/>
</g>
<!-- Node7 -->
<g id="node7" class="node">
<title>Node7</title>
<g id="a_node7"><a xlink:href="classGSDUtil.html#a9464315a26a5d5e2c51bb2b4df5ee373" target="_top" xlink:title=" ">
<polygon fill="none" stroke="black" points="150.5,-114.5 150.5,-133.5 268.5,-133.5 268.5,-114.5 150.5,-114.5"/>
<text text-anchor="middle" x="209.5" y="-121.5" font-family="Helvetica,sans-Serif" font-size="10.00">GSDUtil::writeParticles</text>
</a>
</g>
</g>
<!-- Node3&#45;&gt;Node7 -->
<g id="edge7" class="edge">
<title>Node3&#45;&gt;Node7</title>
<path fill="none" stroke="midnightblue" d="M312.7,-136.33C298.42,-134.61 283.01,-132.75 268.59,-131.01"/>
<polygon fill="midnightblue" stroke="midnightblue" points="312.52,-139.83 322.87,-137.56 313.36,-132.88 312.52,-139.83"/>
</g>
<!-- Node5 -->
<g id="node5" class="node">
<title>Node5</title>
<g id="a_node5"><a xlink:href="classGSDUtil.html#ae76e4a23f0fe0bca3cd44137b56b816b" target="_top" xlink:title=" ">
<polygon fill="none" stroke="black" points="0,-152.5 0,-171.5 108,-171.5 108,-152.5 0,-152.5"/>
<text text-anchor="middle" x="54" y="-159.5" font-family="Helvetica,sans-Serif" font-size="10.00">GSDUtil::writeFrame</text>
</a>
</g>
</g>
<!-- Node4&#45;&gt;Node5 -->
<g id="edge4" class="edge">
<title>Node4&#45;&gt;Node5</title>
<path fill="none" stroke="midnightblue" d="M159.86,-187.96C138.42,-182.65 113.58,-176.5 93.46,-171.52"/>
<polygon fill="midnightblue" stroke="midnightblue" points="159.22,-191.41 169.77,-190.41 160.9,-184.61 159.22,-191.41"/>
</g>
<!-- Node6&#45;&gt;Node5 -->
<g id="edge6" class="edge">
<title>Node6&#45;&gt;Node5</title>
<path fill="none" stroke="midnightblue" d="M133.82,-162C125.25,-162 116.64,-162 108.43,-162"/>
<polygon fill="midnightblue" stroke="midnightblue" points="133.85,-165.5 143.85,-162 133.85,-158.5 133.85,-165.5"/>
</g>
<!-- Node7&#45;&gt;Node5 -->
<g id="edge8" class="edge">
<title>Node7&#45;&gt;Node5</title>
<path fill="none" stroke="midnightblue" d="M159.86,-136.04C138.42,-141.35 113.58,-147.5 93.46,-152.48"/>
<polygon fill="midnightblue" stroke="midnightblue" points="160.9,-139.39 169.77,-133.59 159.22,-132.59 160.9,-139.39"/>
</g>
<!-- Node9 -->
<g id="node9" class="node">
<title>Node9</title>
<g id="a_node9"><a xlink:href="gsd_8c.html#aa0b0b7fb6b385707ffc83989d54bc81b" target="_top" xlink:title=" ">
<polygon fill="none" stroke="black" points="311,-86.5 311,-105.5 427,-105.5 427,-86.5 311,-86.5"/>
<text text-anchor="middle" x="369" y="-93.5" font-family="Helvetica,sans-Serif" font-size="10.00">gsd_create_and_open</text>
</a>
</g>
</g>
<!-- Node8&#45;&gt;Node9 -->
<g id="edge10" class="edge">
<title>Node8&#45;&gt;Node9</title>
<path fill="none" stroke="midnightblue" d="M452.86,-85.25C444.31,-86.36 435.59,-87.49 427.16,-88.59"/>
<polygon fill="midnightblue" stroke="midnightblue" points="453.31,-88.72 462.78,-83.97 452.41,-81.78 453.31,-88.72"/>
</g>
<!-- Node10 -->
<g id="node10" class="node">
<title>Node10</title>
<g id="a_node10"><a xlink:href="gsd_8c.html#ad8933dcce55fd8101b5688f382c10a8e" target="_top" xlink:title=" ">
<polygon fill="none" stroke="black" points="339,-48.5 339,-67.5 399,-67.5 399,-48.5 339,-48.5"/>
<text text-anchor="middle" x="369" y="-55.5" font-family="Helvetica,sans-Serif" font-size="10.00">gsd_open</text>
</a>
</g>
</g>
<!-- Node8&#45;&gt;Node10 -->
<g id="edge11" class="edge">
<title>Node8&#45;&gt;Node10</title>
<path fill="none" stroke="midnightblue" d="M452.79,-68.74C434.05,-66.31 414.46,-63.77 399.04,-61.77"/>
<polygon fill="midnightblue" stroke="midnightblue" points="452.41,-72.22 462.78,-70.03 453.31,-65.28 452.41,-72.22"/>
</g>
<!-- Node13 -->
<g id="node13" class="node">
<title>Node13</title>
<g id="a_node13"><a xlink:href="gsd_8c.html#a02ac7984034069d508b1c7ccbe702bac" target="_top" xlink:title=" ">
<polygon fill="none" stroke="black" points="332,-10.5 332,-29.5 406,-29.5 406,-10.5 332,-10.5"/>
<text text-anchor="middle" x="369" y="-17.5" font-family="Helvetica,sans-Serif" font-size="10.00">gsd_truncate</text>
</a>
</g>
</g>
<!-- Node8&#45;&gt;Node13 -->
<g id="edge14" class="edge">
<title>Node8&#45;&gt;Node13</title>
<path fill="none" stroke="midnightblue" d="M485.84,-63.27C468.67,-55.76 446.8,-46.49 427,-39 418.32,-35.72 408.78,-32.42 400.04,-29.51"/>
<polygon fill="midnightblue" stroke="midnightblue" points="484.79,-66.63 495.35,-67.46 487.61,-60.22 484.79,-66.63"/>
</g>
<!-- Node11 -->
<g id="node11" class="node">
<title>Node11</title>
<g id="a_node11"><a xlink:href="classGSDUtil.html#a2567bdb7f5952a76984552e0591fa330" target="_top" xlink:title=" ">
<polygon fill="none" stroke="black" points="162.5,-76.5 162.5,-95.5 256.5,-95.5 256.5,-76.5 162.5,-76.5"/>
<text text-anchor="middle" x="209.5" y="-83.5" font-family="Helvetica,sans-Serif" font-size="10.00">GSDUtil::GSDUtil</text>
</a>
</g>
</g>
<!-- Node10&#45;&gt;Node11 -->
<g id="edge12" class="edge">
<title>Node10&#45;&gt;Node11</title>
<path fill="none" stroke="midnightblue" d="M328.8,-64.97C306.92,-68.86 279.53,-73.73 256.62,-77.8"/>
<polygon fill="midnightblue" stroke="midnightblue" points="329.51,-68.4 338.74,-63.2 328.29,-61.51 329.51,-68.4"/>
</g>
<!-- Node12 -->
<g id="node12" class="node">
<title>Node12</title>
<g id="a_node12"><a xlink:href="testsSimulationBuild_8cpp.html#ac2b102ba50512565940601db33c64cf2" target="_top" xlink:title=" ">
<polygon fill="none" stroke="black" points="172,-38.5 172,-57.5 247,-57.5 247,-38.5 172,-38.5"/>
<text text-anchor="middle" x="209.5" y="-45.5" font-family="Helvetica,sans-Serif" font-size="10.00">TEST_CASE</text>
</a>
</g>
</g>
<!-- Node10&#45;&gt;Node12 -->
<g id="edge13" class="edge">
<title>Node10&#45;&gt;Node12</title>
<path fill="none" stroke="midnightblue" d="M328.52,-55.49C303.54,-53.91 271.48,-51.87 247.08,-50.32"/>
<polygon fill="midnightblue" stroke="midnightblue" points="328.54,-59 338.74,-56.14 328.99,-52.02 328.54,-59"/>
</g>
<!-- Node14 -->
<g id="node14" class="node">
<title>Node14</title>
<g id="a_node14"><a xlink:href="classGSDUtil.html#a78b796cb5093b0aa6f5d2573658fcca1" target="_top" xlink:title=" ">
<polygon fill="none" stroke="black" points="151.5,-0.5 151.5,-19.5 267.5,-19.5 267.5,-0.5 151.5,-0.5"/>
<text text-anchor="middle" x="209.5" y="-7.5" font-family="Helvetica,sans-Serif" font-size="10.00">GSDUtil::truncateGSD</text>
</a>
</g>
</g>
<!-- Node13&#45;&gt;Node14 -->
<g id="edge15" class="edge">
<title>Node13&#45;&gt;Node14</title>
<path fill="none" stroke="midnightblue" d="M321.7,-17.06C304.8,-15.99 285.5,-14.76 267.76,-13.64"/>
<polygon fill="midnightblue" stroke="midnightblue" points="321.66,-20.57 331.87,-17.71 322.11,-13.58 321.66,-20.57"/>
</g>
</g>
</svg>
