<?xml version="1.0" encoding="UTF-8" standalone="no"?>
<!DOCTYPE svg PUBLIC "-//W3C//DTD SVG 1.1//EN"
 "http://www.w3.org/Graphics/SVG/1.1/DTD/svg11.dtd">
<!-- Generated by graphviz version 2.43.0 (0)
 -->
<!-- Title: gsd_byte_buffer_free Pages: 1 -->
<svg width="398pt" height="104pt"
 viewBox="0.00 0.00 398.00 104.00" xmlns="http://www.w3.org/2000/svg" xmlns:xlink="http://www.w3.org/1999/xlink">
<g id="graph0" class="graph" transform="scale(1 1) rotate(0) translate(4 100)">
<title>gsd_byte_buffer_free</title>
<!-- Node1 -->
<g id="node1" class="node">
<title>Node1</title>
<g id="a_node1"><a xlink:title=" ">
<polygon fill="#bfbfbf" stroke="black" points="283,-38.5 283,-57.5 390,-57.5 390,-38.5 283,-38.5"/>
<text text-anchor="middle" x="336.5" y="-45.5" font-family="Helvetica,sans-Serif" font-size="10.00">gsd_byte_buffer_free</text>
</a>
</g>
</g>
<!-- Node2 -->
<g id="node2" class="node">
<title>Node2</title>
<g id="a_node2"><a xlink:href="gsd_8h.html#a08b4f76e3e19eda194def8c0c4b2b7a3" target="_top" xlink:title=" ">
<polygon fill="none" stroke="black" points="180,-76.5 180,-95.5 241,-95.5 241,-76.5 180,-76.5"/>
<text text-anchor="middle" x="210.5" y="-83.5" font-family="Helvetica,sans-Serif" font-size="10.00">gsd_close</text>
</a>
</g>
</g>
<!-- Node1&#45;&gt;Node2 -->
<g id="edge1" class="edge">
<title>Node1&#45;&gt;Node2</title>
<path fill="none" stroke="midnightblue" d="M294.29,-60.63C276.88,-65.96 256.99,-72.06 241.07,-76.94"/>
<polygon fill="midnightblue" stroke="midnightblue" points="295.67,-63.87 304.21,-57.59 293.62,-57.17 295.67,-63.87"/>
</g>
<!-- Node4 -->
<g id="node4" class="node">
<title>Node4</title>
<g id="a_node4"><a xlink:href="gsd_8h.html#a02ac7984034069d508b1c7ccbe702bac" target="_top" xlink:title=" ">
<polygon fill="none" stroke="black" points="174,-38.5 174,-57.5 247,-57.5 247,-38.5 174,-38.5"/>
<text text-anchor="middle" x="210.5" y="-45.5" font-family="Helvetica,sans-Serif" font-size="10.00">gsd_truncate</text>
</a>
</g>
</g>
<!-- Node1&#45;&gt;Node4 -->
<g id="edge3" class="edge">
<title>Node1&#45;&gt;Node4</title>
<path fill="none" stroke="midnightblue" d="M272.7,-48C263.98,-48 255.28,-48 247.29,-48"/>
<polygon fill="midnightblue" stroke="midnightblue" points="272.91,-51.5 282.91,-48 272.91,-44.5 272.91,-51.5"/>
</g>
<!-- Node6 -->
<g id="node6" class="node">
<title>Node6</title>
<g id="a_node6"><a xlink:href="gsd_8h.html#adb92d5142812c19bf4ee33cbde439131" target="_top" xlink:title=" ">
<polygon fill="none" stroke="black" points="174.5,-0.5 174.5,-19.5 246.5,-19.5 246.5,-0.5 174.5,-0.5"/>
<text text-anchor="middle" x="210.5" y="-7.5" font-family="Helvetica,sans-Serif" font-size="10.00">gsd_upgrade</text>
</a>
</g>
</g>
<!-- Node1&#45;&gt;Node6 -->
<g id="edge5" class="edge">
<title>Node1&#45;&gt;Node6</title>
<path fill="none" stroke="midnightblue" d="M294.6,-35.46C277.73,-30.3 258.49,-24.4 242.78,-19.59"/>
<polygon fill="midnightblue" stroke="midnightblue" points="293.62,-38.83 304.21,-38.41 295.67,-32.13 293.62,-38.83"/>
</g>
<!-- Node3 -->
<g id="node3" class="node">
<title>Node3</title>
<g id="a_node3"><a xlink:href="classSystemData.html#aa650ece2e42d10df0a17419ed3833f36" target="_top" xlink:title="Destroy the system Data object.">
<polygon fill="none" stroke="black" points="0,-76.5 0,-95.5 138,-95.5 138,-76.5 0,-76.5"/>
<text text-anchor="middle" x="69" y="-83.5" font-family="Helvetica,sans-Serif" font-size="10.00">SystemData::~SystemData</text>
</a>
</g>
</g>
<!-- Node2&#45;&gt;Node3 -->
<g id="edge2" class="edge">
<title>Node2&#45;&gt;Node3</title>
<path fill="none" stroke="midnightblue" d="M169.61,-86C159.72,-86 148.83,-86 138,-86"/>
<polygon fill="midnightblue" stroke="midnightblue" points="169.92,-89.5 179.92,-86 169.92,-82.5 169.92,-89.5"/>
</g>
<!-- Node5 -->
<g id="node5" class="node">
<title>Node5</title>
<g id="a_node5"><a xlink:href="classGSDUtil.html#a78b796cb5093b0aa6f5d2573658fcca1" target="_top" xlink:title="Removes all frames and data from GSD file. This returns GSD to a &quot;new file&quot; state.">
<polygon fill="none" stroke="black" points="11,-38.5 11,-57.5 127,-57.5 127,-38.5 11,-38.5"/>
<text text-anchor="middle" x="69" y="-45.5" font-family="Helvetica,sans-Serif" font-size="10.00">GSDUtil::truncateGSD</text>
</a>
</g>
</g>
<!-- Node4&#45;&gt;Node5 -->
<g id="edge4" class="edge">
<title>Node4&#45;&gt;Node5</title>
<path fill="none" stroke="midnightblue" d="M163.93,-48C152.2,-48 139.42,-48 127.18,-48"/>
<polygon fill="midnightblue" stroke="midnightblue" points="163.94,-51.5 173.94,-48 163.94,-44.5 163.94,-51.5"/>
</g>
</g>
</svg>
