<?xml version="1.0" encoding="UTF-8" standalone="no"?>
<!DOCTYPE svg PUBLIC "-//W3C//DTD SVG 1.1//EN"
 "http://www.w3.org/Graphics/SVG/1.1/DTD/svg11.dtd">
<!-- Generated by graphviz version 2.43.0 (0)
 -->
<!-- Title: gsd_flush_name_buffer Pages: 1 -->
<svg width="434pt" height="104pt"
 viewBox="0.00 0.00 434.00 104.00" xmlns="http://www.w3.org/2000/svg" xmlns:xlink="http://www.w3.org/1999/xlink">
<g id="graph0" class="graph" transform="scale(1 1) rotate(0) translate(4 100)">
<title>gsd_flush_name_buffer</title>
<!-- Node1 -->
<g id="node1" class="node">
<title>Node1</title>
<g id="a_node1"><a xlink:title=" ">
<polygon fill="#bfbfbf" stroke="black" points="0,-38.5 0,-57.5 117,-57.5 117,-38.5 0,-38.5"/>
<text text-anchor="middle" x="58.5" y="-45.5" font-family="Helvetica,sans-Serif" font-size="10.00">gsd_flush_name_buffer</text>
</a>
</g>
</g>
<!-- Node2 -->
<g id="node2" class="node">
<title>Node2</title>
<g id="a_node2"><a xlink:href="gsd_8c.html#a7a717f9dafe011e68434e181c76253af" target="_top" xlink:title=" ">
<polygon fill="none" stroke="black" points="153,-76.5 153,-95.5 275,-95.5 275,-76.5 153,-76.5"/>
<text text-anchor="middle" x="214" y="-83.5" font-family="Helvetica,sans-Serif" font-size="10.00">gsd_byte_buffer_append</text>
</a>
</g>
</g>
<!-- Node1&#45;&gt;Node2 -->
<g id="edge1" class="edge">
<title>Node1&#45;&gt;Node2</title>
<path fill="none" stroke="midnightblue" d="M98.23,-57.59C118.4,-62.58 143.25,-68.73 164.66,-74.03"/>
<polygon fill="midnightblue" stroke="midnightblue" points="164,-77.47 174.54,-76.48 165.68,-70.68 164,-77.47"/>
</g>
<!-- Node3 -->
<g id="node3" class="node">
<title>Node3</title>
<g id="a_node3"><a xlink:href="gsd_8c.html#a9b05d58560daee2512f03bedf7b2926d" target="_top" xlink:title=" ">
<polygon fill="none" stroke="black" points="311,-57.5 311,-76.5 426,-76.5 426,-57.5 311,-57.5"/>
<text text-anchor="middle" x="368.5" y="-64.5" font-family="Helvetica,sans-Serif" font-size="10.00">gsd_util_zero_memory</text>
</a>
</g>
</g>
<!-- Node1&#45;&gt;Node3 -->
<g id="edge4" class="edge">
<title>Node1&#45;&gt;Node3</title>
<path fill="none" stroke="midnightblue" d="M117.07,-51.55C169.17,-54.77 245.9,-59.5 300.69,-62.88"/>
<polygon fill="midnightblue" stroke="midnightblue" points="300.8,-66.39 310.99,-63.51 301.23,-59.4 300.8,-66.39"/>
</g>
<!-- Node4 -->
<g id="node4" class="node">
<title>Node4</title>
<g id="a_node4"><a xlink:href="gsd_8c.html#a3fb7746d93a1c856ca7ef64fa3548cbe" target="_top" xlink:title=" ">
<polygon fill="none" stroke="black" points="163.5,-0.5 163.5,-19.5 264.5,-19.5 264.5,-0.5 163.5,-0.5"/>
<text text-anchor="middle" x="214" y="-7.5" font-family="Helvetica,sans-Serif" font-size="10.00">gsd_io_pwrite_retry</text>
</a>
</g>
</g>
<!-- Node1&#45;&gt;Node4 -->
<g id="edge3" class="edge">
<title>Node1&#45;&gt;Node4</title>
<path fill="none" stroke="midnightblue" d="M98.23,-38.41C118.4,-33.42 143.25,-27.27 164.66,-21.97"/>
<polygon fill="midnightblue" stroke="midnightblue" points="165.68,-25.32 174.54,-19.52 164,-18.53 165.68,-25.32"/>
</g>
<!-- Node2&#45;&gt;Node3 -->
<g id="edge2" class="edge">
<title>Node2&#45;&gt;Node3</title>
<path fill="none" stroke="midnightblue" d="M275.27,-78.49C283.56,-77.46 292.11,-76.39 300.51,-75.35"/>
<polygon fill="midnightblue" stroke="midnightblue" points="301.16,-78.79 310.65,-74.08 300.29,-71.85 301.16,-78.79"/>
</g>
</g>
</svg>
