<?xml version="1.0" encoding="UTF-8" standalone="no"?>
<!DOCTYPE svg PUBLIC "-//W3C//DTD SVG 1.1//EN"
 "http://www.w3.org/Graphics/SVG/1.1/DTD/svg11.dtd">
<!-- Generated by graphviz version 2.49.1 (20210923.0004)
 -->
<!-- Title: gsd_util_zero_memory Pages: 1 -->
<svg width="926pt" height="500pt"
 viewBox="0.00 0.00 926.00 500.08" xmlns="http://www.w3.org/2000/svg" xmlns:xlink="http://www.w3.org/1999/xlink">
<g id="graph0" class="graph" transform="scale(1 1) rotate(0) translate(4 496.08)">
<title>gsd_util_zero_memory</title>
<!-- Node1 -->
<g id="node1" class="node">
<title>Node1</title>
<g id="a_node1"><a xlink:title=" ">
<polygon fill="#bfbfbf" stroke="black" points="800,-228.5 800,-247.5 918,-247.5 918,-228.5 800,-228.5"/>
<text text-anchor="middle" x="859" y="-235.5" font-family="Helvetica,sans-Serif" font-size="10.00">gsd_util_zero_memory</text>
</a>
</g>
</g>
<!-- Node2 -->
<g id="node2" class="node">
<title>Node2</title>
<g id="a_node2"><a xlink:href="gsd_8c.html#a7a717f9dafe011e68434e181c76253af" target="_top" xlink:title=" ">
<polygon fill="none" stroke="black" points="637,-342.5 637,-361.5 764,-361.5 764,-342.5 637,-342.5"/>
<text text-anchor="middle" x="700.5" y="-349.5" font-family="Helvetica,sans-Serif" font-size="10.00">gsd_byte_buffer_append</text>
</a>
</g>
</g>
<!-- Node1&#45;&gt;Node2 -->
<g id="edge1" class="edge">
<title>Node1&#45;&gt;Node2</title>
<path fill="none" stroke="midnightblue" d="M843.68,-255.39C826.52,-275.27 796.06,-307.67 764,-328 754.67,-333.91 743.66,-338.74 733.5,-342.48"/>
<polygon fill="midnightblue" stroke="midnightblue" points="846.39,-257.6 850.18,-247.71 841.05,-253.08 846.39,-257.6"/>
</g>
<!-- Node4 -->
<g id="node4" class="node">
<title>Node4</title>
<g id="a_node4"><a xlink:href="gsd_8c.html#ae22447904b925f284bf987fae448488a" target="_top" xlink:title=" ">
<polygon fill="none" stroke="black" points="331.5,-413.5 331.5,-432.5 423.5,-432.5 423.5,-413.5 331.5,-413.5"/>
<text text-anchor="middle" x="377.5" y="-420.5" font-family="Helvetica,sans-Serif" font-size="10.00">gsd_write_chunk</text>
</a>
</g>
</g>
<!-- Node1&#45;&gt;Node4 -->
<g id="edge43" class="edge">
<title>Node1&#45;&gt;Node4</title>
<path fill="none" stroke="midnightblue" d="M855.64,-257.74C849.39,-300.36 828.23,-400.86 764,-447 661.33,-520.76 604.2,-486.59 480,-463 449.48,-457.2 416.41,-442.42 396.58,-432.54"/>
<polygon fill="midnightblue" stroke="midnightblue" points="859.14,-257.94 857,-247.57 852.2,-257.01 859.14,-257.94"/>
</g>
<!-- Node9 -->
<g id="node9" class="node">
<title>Node9</title>
<g id="a_node9"><a xlink:href="gsd_8c.html#ab147cf4d77c10fd8085e5023e9afe55f" target="_top" xlink:title=" ">
<polygon fill="none" stroke="black" points="480,-304.5 480,-323.5 601,-323.5 601,-304.5 480,-304.5"/>
<text text-anchor="middle" x="540.5" y="-311.5" font-family="Helvetica,sans-Serif" font-size="10.00">gsd_flush_name_buffer</text>
</a>
</g>
</g>
<!-- Node1&#45;&gt;Node9 -->
<g id="edge24" class="edge">
<title>Node1&#45;&gt;Node9</title>
<path fill="none" stroke="midnightblue" d="M826.14,-251.44C808.15,-258.63 785.1,-267.17 764,-273 709.67,-288 646.33,-299.06 601.16,-305.89"/>
<polygon fill="midnightblue" stroke="midnightblue" points="827.62,-254.62 835.57,-247.61 824.99,-248.13 827.62,-254.62"/>
</g>
<!-- Node11 -->
<g id="node11" class="node">
<title>Node11</title>
<g id="a_node11"><a xlink:href="gsd_8c.html#adb92d5142812c19bf4ee33cbde439131" target="_top" xlink:title=" ">
<polygon fill="none" stroke="black" points="503,-228.5 503,-247.5 578,-247.5 578,-228.5 503,-228.5"/>
<text text-anchor="middle" x="540.5" y="-235.5" font-family="Helvetica,sans-Serif" font-size="10.00">gsd_upgrade</text>
</a>
</g>
</g>
<!-- Node1&#45;&gt;Node11 -->
<g id="edge42" class="edge">
<title>Node1&#45;&gt;Node11</title>
<path fill="none" stroke="midnightblue" d="M789.83,-238C725.07,-238 630.13,-238 578.42,-238"/>
<polygon fill="midnightblue" stroke="midnightblue" points="789.95,-241.5 799.95,-238 789.95,-234.5 789.95,-241.5"/>
</g>
<!-- Node12 -->
<g id="node12" class="node">
<title>Node12</title>
<g id="a_node12"><a xlink:href="gsd_8c.html#ae50726c30c5bf629b6af1ef88020302f" target="_top" xlink:title=" ">
<polygon fill="none" stroke="black" points="645,-152.5 645,-171.5 756,-171.5 756,-152.5 645,-152.5"/>
<text text-anchor="middle" x="700.5" y="-159.5" font-family="Helvetica,sans-Serif" font-size="10.00">gsd_byte_buffer_free</text>
</a>
</g>
</g>
<!-- Node1&#45;&gt;Node12 -->
<g id="edge15" class="edge">
<title>Node1&#45;&gt;Node12</title>
<path fill="none" stroke="midnightblue" d="M836.27,-222.66C817.74,-210.13 790.06,-192.64 764,-181 755.92,-177.39 746.97,-174.22 738.41,-171.55"/>
<polygon fill="midnightblue" stroke="midnightblue" points="834.35,-225.59 844.58,-228.37 838.32,-219.82 834.35,-225.59"/>
</g>
<!-- Node17 -->
<g id="node17" class="node">
<title>Node17</title>
<g id="a_node17"><a xlink:href="gsd_8c.html#aa0b0b7fb6b385707ffc83989d54bc81b" target="_top" xlink:title=" ">
<polygon fill="none" stroke="black" points="482.5,-76.5 482.5,-95.5 598.5,-95.5 598.5,-76.5 482.5,-76.5"/>
<text text-anchor="middle" x="540.5" y="-83.5" font-family="Helvetica,sans-Serif" font-size="10.00">gsd_create_and_open</text>
</a>
</g>
</g>
<!-- Node1&#45;&gt;Node17 -->
<g id="edge21" class="edge">
<title>Node1&#45;&gt;Node17</title>
<path fill="none" stroke="midnightblue" d="M850.83,-219.07C838.32,-188.99 809.43,-131.03 764,-105 713.71,-76.18 646.28,-74.54 598.87,-78.17"/>
<polygon fill="midnightblue" stroke="midnightblue" points="847.61,-220.45 854.57,-228.45 854.11,-217.86 847.61,-220.45"/>
</g>
<!-- Node18 -->
<g id="node18" class="node">
<title>Node18</title>
<g id="a_node18"><a xlink:href="gsd_8c.html#ae6dddb94661e99e54f6c01b1a443e27f" target="_top" xlink:title=" ">
<polygon fill="none" stroke="black" points="481,-266.5 481,-285.5 600,-285.5 600,-266.5 481,-266.5"/>
<text text-anchor="middle" x="540.5" y="-273.5" font-family="Helvetica,sans-Serif" font-size="10.00">gsd_expand_file_index</text>
</a>
</g>
</g>
<!-- Node1&#45;&gt;Node18 -->
<g id="edge22" class="edge">
<title>Node1&#45;&gt;Node18</title>
<path fill="none" stroke="midnightblue" d="M789.78,-248.49C781.11,-249.73 772.35,-250.93 764,-252 708.51,-259.12 645.04,-265.83 600.13,-270.33"/>
<polygon fill="midnightblue" stroke="midnightblue" points="790.49,-251.93 799.88,-247.03 789.49,-245 790.49,-251.93"/>
</g>
<!-- Node19 -->
<g id="node19" class="node">
<title>Node19</title>
<g id="a_node19"><a xlink:href="gsd_8c.html#a258b64725f90f60d969752d65fba9850" target="_top" xlink:title=" ">
<polygon fill="none" stroke="black" points="643,-418.5 643,-437.5 758,-437.5 758,-418.5 643,-418.5"/>
<text text-anchor="middle" x="700.5" y="-425.5" font-family="Helvetica,sans-Serif" font-size="10.00">gsd_index_buffer_add</text>
</a>
</g>
</g>
<!-- Node1&#45;&gt;Node19 -->
<g id="edge25" class="edge">
<title>Node1&#45;&gt;Node19</title>
<path fill="none" stroke="midnightblue" d="M846.95,-256.16C830.44,-282.65 797.67,-332.87 764,-371 748.06,-389.05 726.89,-407.37 713.74,-418.2"/>
<polygon fill="midnightblue" stroke="midnightblue" points="849.99,-257.89 852.26,-247.54 844.03,-254.21 849.99,-257.89"/>
</g>
<!-- Node21 -->
<g id="node21" class="node">
<title>Node21</title>
<g id="a_node21"><a xlink:href="gsd_8c.html#a9e12a38df69cf73fa771b005748cb3e5" target="_top" xlink:title=" ">
<polygon fill="none" stroke="black" points="642.5,-190.5 642.5,-209.5 758.5,-209.5 758.5,-190.5 642.5,-190.5"/>
<text text-anchor="middle" x="700.5" y="-197.5" font-family="Helvetica,sans-Serif" font-size="10.00">gsd_index_buffer_free</text>
</a>
</g>
</g>
<!-- Node1&#45;&gt;Node21 -->
<g id="edge30" class="edge">
<title>Node1&#45;&gt;Node21</title>
<path fill="none" stroke="midnightblue" d="M808.71,-226.03C786.78,-220.71 761.32,-214.52 740.71,-209.52"/>
<polygon fill="midnightblue" stroke="midnightblue" points="807.96,-229.45 818.51,-228.41 809.62,-222.65 807.96,-229.45"/>
</g>
<!-- Node22 -->
<g id="node22" class="node">
<title>Node22</title>
<g id="a_node22"><a xlink:href="gsd_8c.html#acb769baf09c31a5ad6cba95bd348c194" target="_top" xlink:title=" ">
<polygon fill="none" stroke="black" points="654.5,-114.5 654.5,-133.5 746.5,-133.5 746.5,-114.5 654.5,-114.5"/>
<text text-anchor="middle" x="700.5" y="-121.5" font-family="Helvetica,sans-Serif" font-size="10.00">gsd_initialize_file</text>
</a>
</g>
</g>
<!-- Node1&#45;&gt;Node22 -->
<g id="edge35" class="edge">
<title>Node1&#45;&gt;Node22</title>
<path fill="none" stroke="midnightblue" d="M844.92,-220.17C828.37,-198.84 797.9,-163.45 764,-143 757.69,-139.19 750.55,-136.09 743.42,-133.59"/>
<polygon fill="midnightblue" stroke="midnightblue" points="842.3,-222.51 851.13,-228.37 847.88,-218.29 842.3,-222.51"/>
</g>
<!-- Node24 -->
<g id="node24" class="node">
<title>Node24</title>
<g id="a_node24"><a xlink:href="gsd_8c.html#ad8933dcce55fd8101b5688f382c10a8e" target="_top" xlink:title=" ">
<polygon fill="none" stroke="black" points="670.5,-38.5 670.5,-57.5 730.5,-57.5 730.5,-38.5 670.5,-38.5"/>
<text text-anchor="middle" x="700.5" y="-45.5" font-family="Helvetica,sans-Serif" font-size="10.00">gsd_open</text>
</a>
</g>
</g>
<!-- Node1&#45;&gt;Node24 -->
<g id="edge39" class="edge">
<title>Node1&#45;&gt;Node24</title>
<path fill="none" stroke="midnightblue" d="M851.89,-218.5C840.21,-184.23 811.55,-112.96 764,-72 754.58,-63.88 742.11,-58.36 730.8,-54.68"/>
<polygon fill="midnightblue" stroke="midnightblue" points="848.64,-219.84 855.09,-228.24 855.29,-217.65 848.64,-219.84"/>
</g>
<!-- Node3 -->
<g id="node3" class="node">
<title>Node3</title>
<g id="a_node3"><a xlink:href="gsd_8c.html#aa1a0a7dcf4015edcadbb47a6451b4a4b" target="_top" xlink:title=" ">
<polygon fill="none" stroke="black" points="489.5,-380.5 489.5,-399.5 591.5,-399.5 591.5,-380.5 489.5,-380.5"/>
<text text-anchor="middle" x="540.5" y="-387.5" font-family="Helvetica,sans-Serif" font-size="10.00">gsd_append_name</text>
</a>
</g>
</g>
<!-- Node2&#45;&gt;Node3 -->
<g id="edge2" class="edge">
<title>Node2&#45;&gt;Node3</title>
<path fill="none" stroke="midnightblue" d="M649.74,-363.97C627.6,-369.29 601.89,-375.48 581.08,-380.48"/>
<polygon fill="midnightblue" stroke="midnightblue" points="650.73,-367.33 659.63,-361.59 649.09,-360.52 650.73,-367.33"/>
</g>
<!-- Node2&#45;&gt;Node4 -->
<g id="edge14" class="edge">
<title>Node2&#45;&gt;Node4</title>
<path fill="none" stroke="midnightblue" d="M626.66,-351.31C583.31,-352.61 527.65,-357.3 480,-371 446.89,-380.52 411.9,-401.12 392.88,-413.34"/>
<polygon fill="midnightblue" stroke="midnightblue" points="626.93,-354.8 636.84,-351.06 626.76,-347.8 626.93,-354.8"/>
</g>
<!-- Node2&#45;&gt;Node9 -->
<g id="edge10" class="edge">
<title>Node2&#45;&gt;Node9</title>
<path fill="none" stroke="midnightblue" d="M649.74,-340.03C627.6,-334.71 601.89,-328.52 581.08,-323.52"/>
<polygon fill="midnightblue" stroke="midnightblue" points="649.09,-343.48 659.63,-342.41 650.73,-336.67 649.09,-343.48"/>
</g>
<!-- Node2&#45;&gt;Node11 -->
<g id="edge13" class="edge">
<title>Node2&#45;&gt;Node11</title>
<path fill="none" stroke="midnightblue" d="M685.79,-334.57C668.26,-313.38 635.96,-277.87 601,-257 594.02,-252.83 586.02,-249.47 578.2,-246.81"/>
<polygon fill="midnightblue" stroke="midnightblue" points="683.15,-336.87 692.16,-342.43 688.59,-332.46 683.15,-336.87"/>
</g>
<!-- Node3&#45;&gt;Node4 -->
<g id="edge3" class="edge">
<title>Node3&#45;&gt;Node4</title>
<path fill="none" stroke="midnightblue" d="M482.97,-401.59C463.51,-405.57 442,-409.98 423.58,-413.76"/>
<polygon fill="midnightblue" stroke="midnightblue" points="483.84,-404.98 492.93,-399.54 482.43,-398.12 483.84,-404.98"/>
</g>
<!-- Node5 -->
<g id="node5" class="node">
<title>Node5</title>
<g id="a_node5"><a xlink:href="classGSDUtil.html#a77b5ebe2817ac868ad1b171f3d7b0cae" target="_top" xlink:title=" ">
<polygon fill="none" stroke="black" points="153.5,-432.5 153.5,-451.5 265.5,-451.5 265.5,-432.5 153.5,-432.5"/>
<text text-anchor="middle" x="209.5" y="-439.5" font-family="Helvetica,sans-Serif" font-size="10.00">GSDUtil::writeHeader</text>
</a>
</g>
</g>
<!-- Node4&#45;&gt;Node5 -->
<g id="edge4" class="edge">
<title>Node4&#45;&gt;Node5</title>
<path fill="none" stroke="midnightblue" d="M321.14,-429.34C303.25,-431.38 283.43,-433.65 265.56,-435.7"/>
<polygon fill="midnightblue" stroke="midnightblue" points="321.6,-432.81 331.14,-428.19 320.81,-425.85 321.6,-432.81"/>
</g>
<!-- Node7 -->
<g id="node7" class="node">
<title>Node7</title>
<g id="a_node7"><a xlink:href="classGSDUtil.html#aa0dc50cd5e5534260375ad4962511cf0" target="_top" xlink:title=" ">
<polygon fill="none" stroke="black" points="144,-394.5 144,-413.5 275,-413.5 275,-394.5 144,-394.5"/>
<text text-anchor="middle" x="209.5" y="-401.5" font-family="Helvetica,sans-Serif" font-size="10.00">GSDUtil::writeParameters</text>
</a>
</g>
</g>
<!-- Node4&#45;&gt;Node7 -->
<g id="edge6" class="edge">
<title>Node4&#45;&gt;Node7</title>
<path fill="none" stroke="midnightblue" d="M321.16,-416.67C306.39,-414.98 290.31,-413.13 275.1,-411.39"/>
<polygon fill="midnightblue" stroke="midnightblue" points="320.81,-420.15 331.14,-417.81 321.6,-413.19 320.81,-420.15"/>
</g>
<!-- Node8 -->
<g id="node8" class="node">
<title>Node8</title>
<g id="a_node8"><a xlink:href="classGSDUtil.html#a9464315a26a5d5e2c51bb2b4df5ee373" target="_top" xlink:title=" ">
<polygon fill="none" stroke="black" points="150.5,-356.5 150.5,-375.5 268.5,-375.5 268.5,-356.5 150.5,-356.5"/>
<text text-anchor="middle" x="209.5" y="-363.5" font-family="Helvetica,sans-Serif" font-size="10.00">GSDUtil::writeParticles</text>
</a>
</g>
</g>
<!-- Node4&#45;&gt;Node8 -->
<g id="edge8" class="edge">
<title>Node4&#45;&gt;Node8</title>
<path fill="none" stroke="midnightblue" d="M343.03,-409.78C323.35,-402.18 297.9,-392.65 275,-385 265.15,-381.71 254.35,-378.41 244.45,-375.51"/>
<polygon fill="midnightblue" stroke="midnightblue" points="341.89,-413.09 352.47,-413.45 344.42,-406.56 341.89,-413.09"/>
</g>
<!-- Node6 -->
<g id="node6" class="node">
<title>Node6</title>
<g id="a_node6"><a xlink:href="classGSDUtil.html#ae76e4a23f0fe0bca3cd44137b56b816b" target="_top" xlink:title=" ">
<polygon fill="none" stroke="black" points="0,-375.5 0,-394.5 108,-394.5 108,-375.5 0,-375.5"/>
<text text-anchor="middle" x="54" y="-382.5" font-family="Helvetica,sans-Serif" font-size="10.00">GSDUtil::writeFrame</text>
</a>
</g>
</g>
<!-- Node5&#45;&gt;Node6 -->
<g id="edge5" class="edge">
<title>Node5&#45;&gt;Node6</title>
<path fill="none" stroke="midnightblue" d="M163.79,-429.57C157.12,-427.5 150.35,-425.28 144,-423 120.13,-414.42 93.45,-402.74 75.59,-394.6"/>
<polygon fill="midnightblue" stroke="midnightblue" points="162.86,-432.94 173.45,-432.48 164.88,-426.24 162.86,-432.94"/>
</g>
<!-- Node7&#45;&gt;Node6 -->
<g id="edge7" class="edge">
<title>Node7&#45;&gt;Node6</title>
<path fill="none" stroke="midnightblue" d="M133.82,-394.76C125.25,-393.7 116.64,-392.63 108.43,-391.61"/>
<polygon fill="midnightblue" stroke="midnightblue" points="133.49,-398.24 143.85,-396 134.35,-391.3 133.49,-398.24"/>
</g>
<!-- Node8&#45;&gt;Node6 -->
<g id="edge9" class="edge">
<title>Node8&#45;&gt;Node6</title>
<path fill="none" stroke="midnightblue" d="M140.23,-374.45C129.44,-375.79 118.43,-377.15 108.06,-378.43"/>
<polygon fill="midnightblue" stroke="midnightblue" points="140.97,-377.89 150.47,-373.18 140.11,-370.94 140.97,-377.89"/>
</g>
<!-- Node10 -->
<g id="node10" class="node">
<title>Node10</title>
<g id="a_node10"><a xlink:href="gsd_8c.html#aa03810337c5eebcbe716d8633eaefc5e" target="_top" xlink:title=" ">
<polygon fill="none" stroke="black" points="334.5,-304.5 334.5,-323.5 420.5,-323.5 420.5,-304.5 334.5,-304.5"/>
<text text-anchor="middle" x="377.5" y="-311.5" font-family="Helvetica,sans-Serif" font-size="10.00">gsd_end_frame</text>
</a>
</g>
</g>
<!-- Node9&#45;&gt;Node10 -->
<g id="edge11" class="edge">
<title>Node9&#45;&gt;Node10</title>
<path fill="none" stroke="midnightblue" d="M469.37,-314C452.86,-314 435.76,-314 420.91,-314"/>
<polygon fill="midnightblue" stroke="midnightblue" points="469.55,-317.5 479.55,-314 469.55,-310.5 469.55,-317.5"/>
</g>
<!-- Node10&#45;&gt;Node6 -->
<g id="edge12" class="edge">
<title>Node10&#45;&gt;Node6</title>
<path fill="none" stroke="midnightblue" d="M324.16,-317.49C276.5,-321.58 204.55,-330.1 144,-347 118.76,-354.05 91.23,-366.62 73.58,-375.36"/>
<polygon fill="midnightblue" stroke="midnightblue" points="324.56,-320.96 334.24,-316.65 323.99,-313.99 324.56,-320.96"/>
</g>
<!-- Node12&#45;&gt;Node11 -->
<g id="edge20" class="edge">
<title>Node12&#45;&gt;Node11</title>
<path fill="none" stroke="midnightblue" d="M647.73,-175.36C644,-177.04 640.38,-178.91 637,-181 617.21,-193.23 620.7,-206.63 601,-219 594.02,-223.38 585.94,-226.84 578.03,-229.53"/>
<polygon fill="midnightblue" stroke="midnightblue" points="649.2,-178.55 657.18,-171.59 646.6,-172.05 649.2,-178.55"/>
</g>
<!-- Node13 -->
<g id="node13" class="node">
<title>Node13</title>
<g id="a_node13"><a xlink:href="gsd_8c.html#a08b4f76e3e19eda194def8c0c4b2b7a3" target="_top" xlink:title=" ">
<polygon fill="none" stroke="black" points="509.5,-190.5 509.5,-209.5 571.5,-209.5 571.5,-190.5 509.5,-190.5"/>
<text text-anchor="middle" x="540.5" y="-197.5" font-family="Helvetica,sans-Serif" font-size="10.00">gsd_close</text>
</a>
</g>
</g>
<!-- Node12&#45;&gt;Node13 -->
<g id="edge16" class="edge">
<title>Node12&#45;&gt;Node13</title>
<path fill="none" stroke="midnightblue" d="M649.71,-173.98C624.08,-180.14 593.67,-187.45 571.63,-192.75"/>
<polygon fill="midnightblue" stroke="midnightblue" points="650.73,-177.33 659.63,-171.59 649.09,-170.52 650.73,-177.33"/>
</g>
<!-- Node15 -->
<g id="node15" class="node">
<title>Node15</title>
<g id="a_node15"><a xlink:href="gsd_8c.html#a02ac7984034069d508b1c7ccbe702bac" target="_top" xlink:title=" ">
<polygon fill="none" stroke="black" points="503.5,-152.5 503.5,-171.5 577.5,-171.5 577.5,-152.5 503.5,-152.5"/>
<text text-anchor="middle" x="540.5" y="-159.5" font-family="Helvetica,sans-Serif" font-size="10.00">gsd_truncate</text>
</a>
</g>
</g>
<!-- Node12&#45;&gt;Node15 -->
<g id="edge18" class="edge">
<title>Node12&#45;&gt;Node15</title>
<path fill="none" stroke="midnightblue" d="M634.68,-162C615.3,-162 594.74,-162 577.88,-162"/>
<polygon fill="midnightblue" stroke="midnightblue" points="634.68,-165.5 644.68,-162 634.68,-158.5 634.68,-165.5"/>
</g>
<!-- Node14 -->
<g id="node14" class="node">
<title>Node14</title>
<g id="a_node14"><a xlink:href="classsystemData.html#a423b9bf369d6c53a27b64c9b56004810" target="_top" xlink:title=" ">
<polygon fill="none" stroke="black" points="311,-190.5 311,-209.5 444,-209.5 444,-190.5 311,-190.5"/>
<text text-anchor="middle" x="377.5" y="-197.5" font-family="Helvetica,sans-Serif" font-size="10.00">systemData::~systemData</text>
</a>
</g>
</g>
<!-- Node13&#45;&gt;Node14 -->
<g id="edge17" class="edge">
<title>Node13&#45;&gt;Node14</title>
<path fill="none" stroke="midnightblue" d="M498.83,-200C482.31,-200 462.79,-200 444.33,-200"/>
<polygon fill="midnightblue" stroke="midnightblue" points="499.22,-203.5 509.22,-200 499.22,-196.5 499.22,-203.5"/>
</g>
<!-- Node16 -->
<g id="node16" class="node">
<title>Node16</title>
<g id="a_node16"><a xlink:href="classGSDUtil.html#a78b796cb5093b0aa6f5d2573658fcca1" target="_top" xlink:title=" ">
<polygon fill="none" stroke="black" points="319.5,-152.5 319.5,-171.5 435.5,-171.5 435.5,-152.5 319.5,-152.5"/>
<text text-anchor="middle" x="377.5" y="-159.5" font-family="Helvetica,sans-Serif" font-size="10.00">GSDUtil::truncateGSD</text>
</a>
</g>
</g>
<!-- Node15&#45;&gt;Node16 -->
<g id="edge19" class="edge">
<title>Node15&#45;&gt;Node16</title>
<path fill="none" stroke="midnightblue" d="M493.17,-162C475.24,-162 454.53,-162 435.68,-162"/>
<polygon fill="midnightblue" stroke="midnightblue" points="493.37,-165.5 503.37,-162 493.37,-158.5 493.37,-165.5"/>
</g>
<!-- Node18&#45;&gt;Node10 -->
<g id="edge23" class="edge">
<title>Node18&#45;&gt;Node10</title>
<path fill="none" stroke="midnightblue" d="M489.1,-287.9C466.47,-293.24 440.13,-299.45 418.83,-304.48"/>
<polygon fill="midnightblue" stroke="midnightblue" points="489.94,-291.29 498.87,-285.59 488.34,-284.48 489.94,-291.29"/>
</g>
<!-- Node19&#45;&gt;Node4 -->
<g id="edge29" class="edge">
<title>Node19&#45;&gt;Node4</title>
<path fill="none" stroke="midnightblue" d="M649.59,-439.54C634.11,-442.6 616.93,-445.48 601,-447 547.47,-452.12 533.42,-453.23 480,-447 456.44,-444.25 430.41,-438.03 410.61,-432.61"/>
<polygon fill="midnightblue" stroke="midnightblue" points="650.4,-442.95 659.5,-437.51 649,-436.09 650.4,-442.95"/>
</g>
<!-- Node20 -->
<g id="node20" class="node">
<title>Node20</title>
<g id="a_node20"><a xlink:href="gsd_8c.html#a61daeaa70162e9bac3d241832b460278" target="_top" xlink:title=" ">
<polygon fill="none" stroke="black" points="482,-418.5 482,-437.5 599,-437.5 599,-418.5 482,-418.5"/>
<text text-anchor="middle" x="540.5" y="-425.5" font-family="Helvetica,sans-Serif" font-size="10.00">gsd_flush_write_buffer</text>
</a>
</g>
</g>
<!-- Node19&#45;&gt;Node20 -->
<g id="edge26" class="edge">
<title>Node19&#45;&gt;Node20</title>
<path fill="none" stroke="midnightblue" d="M632.73,-428C621.52,-428 609.98,-428 599.03,-428"/>
<polygon fill="midnightblue" stroke="midnightblue" points="632.9,-431.5 642.9,-428 632.9,-424.5 632.9,-431.5"/>
</g>
<!-- Node20&#45;&gt;Node4 -->
<g id="edge28" class="edge">
<title>Node20&#45;&gt;Node4</title>
<path fill="none" stroke="midnightblue" d="M471.83,-425.9C455.57,-425.39 438.6,-424.87 423.65,-424.4"/>
<polygon fill="midnightblue" stroke="midnightblue" points="471.73,-429.4 481.83,-426.21 471.94,-422.4 471.73,-429.4"/>
</g>
<!-- Node20&#45;&gt;Node10 -->
<g id="edge27" class="edge">
<title>Node20&#45;&gt;Node10</title>
<path fill="none" stroke="midnightblue" d="M491.53,-414.78C487.53,-413.05 483.63,-411.13 480,-409 439.41,-385.18 401.76,-342.53 386.13,-323.55"/>
<polygon fill="midnightblue" stroke="midnightblue" points="490.38,-418.09 500.97,-418.46 492.92,-411.57 490.38,-418.09"/>
</g>
<!-- Node21&#45;&gt;Node11 -->
<g id="edge34" class="edge">
<title>Node21&#45;&gt;Node11</title>
<path fill="none" stroke="midnightblue" d="M649.62,-212C626.44,-217.57 599.37,-224.08 578.11,-229.2"/>
<polygon fill="midnightblue" stroke="midnightblue" points="650.73,-215.33 659.63,-209.59 649.09,-208.52 650.73,-215.33"/>
</g>
<!-- Node21&#45;&gt;Node13 -->
<g id="edge31" class="edge">
<title>Node21&#45;&gt;Node13</title>
<path fill="none" stroke="midnightblue" d="M632.24,-200C611.2,-200 589.01,-200 571.85,-200"/>
<polygon fill="midnightblue" stroke="midnightblue" points="632.46,-203.5 642.46,-200 632.46,-196.5 632.46,-203.5"/>
</g>
<!-- Node21&#45;&gt;Node15 -->
<g id="edge33" class="edge">
<title>Node21&#45;&gt;Node15</title>
<path fill="none" stroke="midnightblue" d="M649.86,-188.06C626.43,-182.43 598.98,-175.83 577.58,-170.68"/>
<polygon fill="midnightblue" stroke="midnightblue" points="649.09,-191.48 659.63,-190.41 650.73,-184.67 649.09,-191.48"/>
</g>
<!-- Node21&#45;&gt;Node18 -->
<g id="edge32" class="edge">
<title>Node21&#45;&gt;Node18</title>
<path fill="none" stroke="midnightblue" d="M676.84,-215C657.34,-227.44 628.14,-244.98 601,-257 592.97,-260.56 584.06,-263.76 575.64,-266.49"/>
<polygon fill="midnightblue" stroke="midnightblue" points="678.83,-217.88 685.33,-209.51 675.03,-212 678.83,-217.88"/>
</g>
<!-- Node22&#45;&gt;Node15 -->
<g id="edge38" class="edge">
<title>Node22&#45;&gt;Node15</title>
<path fill="none" stroke="midnightblue" d="M649.86,-135.94C626.43,-141.57 598.98,-148.17 577.58,-153.32"/>
<polygon fill="midnightblue" stroke="midnightblue" points="650.73,-139.33 659.63,-133.59 649.09,-132.52 650.73,-139.33"/>
</g>
<!-- Node22&#45;&gt;Node17 -->
<g id="edge37" class="edge">
<title>Node22&#45;&gt;Node17</title>
<path fill="none" stroke="midnightblue" d="M649.74,-112.03C627.6,-106.71 601.89,-100.52 581.08,-95.52"/>
<polygon fill="midnightblue" stroke="midnightblue" points="649.09,-115.48 659.63,-114.41 650.73,-108.67 649.09,-115.48"/>
</g>
<!-- Node23 -->
<g id="node23" class="node">
<title>Node23</title>
<g id="a_node23"><a xlink:href="gsd_8c.html#a58654880dd98b2bc32e429810b7d2623" target="_top" xlink:title=" ">
<polygon fill="none" stroke="black" points="507.5,-114.5 507.5,-133.5 573.5,-133.5 573.5,-114.5 507.5,-114.5"/>
<text text-anchor="middle" x="540.5" y="-121.5" font-family="Helvetica,sans-Serif" font-size="10.00">gsd_create</text>
</a>
</g>
</g>
<!-- Node22&#45;&gt;Node23 -->
<g id="edge36" class="edge">
<title>Node22&#45;&gt;Node23</title>
<path fill="none" stroke="midnightblue" d="M644.02,-124C620.51,-124 593.94,-124 573.74,-124"/>
<polygon fill="midnightblue" stroke="midnightblue" points="644.22,-127.5 654.22,-124 644.22,-120.5 644.22,-127.5"/>
</g>
<!-- Node25 -->
<g id="node25" class="node">
<title>Node25</title>
<g id="a_node25"><a xlink:href="classGSDUtil.html#a2567bdb7f5952a76984552e0591fa330" target="_top" xlink:title=" ">
<polygon fill="none" stroke="black" points="493.5,-38.5 493.5,-57.5 587.5,-57.5 587.5,-38.5 493.5,-38.5"/>
<text text-anchor="middle" x="540.5" y="-45.5" font-family="Helvetica,sans-Serif" font-size="10.00">GSDUtil::GSDUtil</text>
</a>
</g>
</g>
<!-- Node24&#45;&gt;Node25 -->
<g id="edge40" class="edge">
<title>Node24&#45;&gt;Node25</title>
<path fill="none" stroke="midnightblue" d="M659.88,-48C637.97,-48 610.64,-48 587.76,-48"/>
<polygon fill="midnightblue" stroke="midnightblue" points="660.15,-51.5 670.15,-48 660.15,-44.5 660.15,-51.5"/>
</g>
<!-- Node26 -->
<g id="node26" class="node">
<title>Node26</title>
<g id="a_node26"><a xlink:href="testsSimulationBuild_8cpp.html#ac2b102ba50512565940601db33c64cf2" target="_top" xlink:title=" ">
<polygon fill="none" stroke="black" points="503,-0.5 503,-19.5 578,-19.5 578,-0.5 503,-0.5"/>
<text text-anchor="middle" x="540.5" y="-7.5" font-family="Helvetica,sans-Serif" font-size="10.00">TEST_CASE</text>
</a>
</g>
</g>
<!-- Node24&#45;&gt;Node26 -->
<g id="edge41" class="edge">
<title>Node24&#45;&gt;Node26</title>
<path fill="none" stroke="midnightblue" d="M660.23,-38.55C635.12,-32.52 602.79,-24.74 578.2,-18.83"/>
<polygon fill="midnightblue" stroke="midnightblue" points="659.61,-42.01 670.15,-40.94 661.25,-35.2 659.61,-42.01"/>
</g>
</g>
</svg>
