<?xml version="1.0" encoding="UTF-8" standalone="no"?>
<!DOCTYPE svg PUBLIC "-//W3C//DTD SVG 1.1//EN"
 "http://www.w3.org/Graphics/SVG/1.1/DTD/svg11.dtd">
<!-- Generated by graphviz version 2.43.0 (0)
 -->
<!-- Title: gsd_write_chunk Pages: 1 -->
<svg width="568pt" height="286pt"
 viewBox="0.00 0.00 568.00 285.82" xmlns="http://www.w3.org/2000/svg" xmlns:xlink="http://www.w3.org/1999/xlink">
<g id="graph0" class="graph" transform="scale(1 1) rotate(0) translate(4 281.82)">
<title>gsd_write_chunk</title>
<!-- Node1 -->
<g id="node1" class="node">
<title>Node1</title>
<g id="a_node1"><a xlink:title=" ">
<polygon fill="#bfbfbf" stroke="black" points="0,-133.5 0,-152.5 90,-152.5 90,-133.5 0,-133.5"/>
<text text-anchor="middle" x="45" y="-140.5" font-family="Helvetica,sans-Serif" font-size="10.00">gsd_write_chunk</text>
</a>
</g>
</g>
<!-- Node2 -->
<g id="node2" class="node">
<title>Node2</title>
<g id="a_node2"><a xlink:href="gsd_8c.html#aa1a0a7dcf4015edcadbb47a6451b4a4b" target="_top" xlink:title=" ">
<polygon fill="none" stroke="black" points="136.5,-190.5 136.5,-209.5 234.5,-209.5 234.5,-190.5 136.5,-190.5"/>
<text text-anchor="middle" x="185.5" y="-197.5" font-family="Helvetica,sans-Serif" font-size="10.00">gsd_append_name</text>
</a>
</g>
</g>
<!-- Node1&#45;&gt;Node2 -->
<g id="edge1" class="edge">
<title>Node1&#45;&gt;Node2</title>
<path fill="none" stroke="midnightblue" d="M69.1,-152.54C85.08,-159.14 106.83,-168.11 126,-176 134.32,-179.42 143.3,-183.11 151.68,-186.55"/>
<polygon fill="midnightblue" stroke="midnightblue" points="150.57,-189.88 161.15,-190.43 153.23,-183.4 150.57,-189.88"/>
</g>
<!-- Node3 -->
<g id="node3" class="node">
<title>Node3</title>
<g id="a_node3"><a xlink:href="gsd_8c.html#a7a717f9dafe011e68434e181c76253af" target="_top" xlink:title=" ">
<polygon fill="none" stroke="black" points="284,-228.5 284,-247.5 406,-247.5 406,-228.5 284,-228.5"/>
<text text-anchor="middle" x="345" y="-235.5" font-family="Helvetica,sans-Serif" font-size="10.00">gsd_byte_buffer_append</text>
</a>
</g>
</g>
<!-- Node1&#45;&gt;Node3 -->
<g id="edge7" class="edge">
<title>Node1&#45;&gt;Node3</title>
<path fill="none" stroke="midnightblue" d="M52.59,-152.57C64.82,-169.43 92.81,-204.05 126,-219 172.27,-239.85 229.62,-244.11 273.88,-243.42"/>
<polygon fill="midnightblue" stroke="midnightblue" points="274.06,-246.92 283.97,-243.18 273.89,-239.92 274.06,-246.92"/>
</g>
<!-- Node4 -->
<g id="node4" class="node">
<title>Node4</title>
<g id="a_node4"><a xlink:href="gsd_8c.html#a9b05d58560daee2512f03bedf7b2926d" target="_top" xlink:title=" ">
<polygon fill="none" stroke="black" points="445,-228.5 445,-247.5 560,-247.5 560,-228.5 445,-228.5"/>
<text text-anchor="middle" x="502.5" y="-235.5" font-family="Helvetica,sans-Serif" font-size="10.00">gsd_util_zero_memory</text>
</a>
</g>
</g>
<!-- Node1&#45;&gt;Node4 -->
<g id="edge17" class="edge">
<title>Node1&#45;&gt;Node4</title>
<path fill="none" stroke="midnightblue" d="M50.3,-152.66C60.19,-173.6 86.77,-222.96 126,-244 235.53,-302.74 390.14,-270.68 461.97,-250.47"/>
<polygon fill="midnightblue" stroke="midnightblue" points="463.32,-253.72 471.95,-247.58 461.37,-247 463.32,-253.72"/>
</g>
<!-- Node8 -->
<g id="node8" class="node">
<title>Node8</title>
<g id="a_node8"><a xlink:href="gsd_8c.html#a61daeaa70162e9bac3d241832b460278" target="_top" xlink:title=" ">
<polygon fill="none" stroke="black" points="128.5,-114.5 128.5,-133.5 242.5,-133.5 242.5,-114.5 128.5,-114.5"/>
<text text-anchor="middle" x="185.5" y="-121.5" font-family="Helvetica,sans-Serif" font-size="10.00">gsd_flush_write_buffer</text>
</a>
</g>
</g>
<!-- Node1&#45;&gt;Node8 -->
<g id="edge8" class="edge">
<title>Node1&#45;&gt;Node8</title>
<path fill="none" stroke="midnightblue" d="M90.2,-136.94C99.04,-135.72 108.51,-134.43 117.91,-133.14"/>
<polygon fill="midnightblue" stroke="midnightblue" points="118.62,-136.57 128.05,-131.74 117.67,-129.64 118.62,-136.57"/>
</g>
<!-- Node9 -->
<g id="node9" class="node">
<title>Node9</title>
<g id="a_node9"><a xlink:href="gsd_8c.html#a258b64725f90f60d969752d65fba9850" target="_top" xlink:title=" ">
<polygon fill="none" stroke="black" points="289.5,-114.5 289.5,-133.5 400.5,-133.5 400.5,-114.5 289.5,-114.5"/>
<text text-anchor="middle" x="345" y="-121.5" font-family="Helvetica,sans-Serif" font-size="10.00">gsd_index_buffer_add</text>
</a>
</g>
</g>
<!-- Node1&#45;&gt;Node9 -->
<g id="edge12" class="edge">
<title>Node1&#45;&gt;Node9</title>
<path fill="none" stroke="midnightblue" d="M90.38,-145.4C130.78,-147.01 192.03,-148.04 245,-143 261.01,-141.48 278.28,-138.6 293.84,-135.54"/>
<polygon fill="midnightblue" stroke="midnightblue" points="294.69,-138.94 303.79,-133.51 293.29,-132.08 294.69,-138.94"/>
</g>
<!-- Node10 -->
<g id="node10" class="node">
<title>Node10</title>
<g id="a_node10"><a xlink:href="gsd_8c.html#a3fb7746d93a1c856ca7ef64fa3548cbe" target="_top" xlink:title=" ">
<polygon fill="none" stroke="black" points="294.5,-76.5 294.5,-95.5 395.5,-95.5 395.5,-76.5 294.5,-76.5"/>
<text text-anchor="middle" x="345" y="-83.5" font-family="Helvetica,sans-Serif" font-size="10.00">gsd_io_pwrite_retry</text>
</a>
</g>
</g>
<!-- Node1&#45;&gt;Node10 -->
<g id="edge13" class="edge">
<title>Node1&#45;&gt;Node10</title>
<path fill="none" stroke="midnightblue" d="M61.89,-133.36C77.58,-124.35 102.56,-111.37 126,-105 178.21,-90.82 239.79,-86.54 284.16,-85.53"/>
<polygon fill="midnightblue" stroke="midnightblue" points="284.27,-89.03 294.21,-85.35 284.15,-82.03 284.27,-89.03"/>
</g>
<!-- Node11 -->
<g id="node11" class="node">
<title>Node11</title>
<g id="a_node11"><a xlink:href="gsd_8c.html#a31b9400272036b121040e9fc0a9e626b" target="_top" xlink:title=" ">
<polygon fill="none" stroke="black" points="126,-38.5 126,-57.5 245,-57.5 245,-38.5 126,-38.5"/>
<text text-anchor="middle" x="185.5" y="-45.5" font-family="Helvetica,sans-Serif" font-size="10.00">gsd_name_id_map_find</text>
</a>
</g>
</g>
<!-- Node1&#45;&gt;Node11 -->
<g id="edge14" class="edge">
<title>Node1&#45;&gt;Node11</title>
<path fill="none" stroke="midnightblue" d="M55,-133.11C68.99,-118.22 97.32,-89.88 126,-72 132.34,-68.05 139.44,-64.5 146.46,-61.42"/>
<polygon fill="midnightblue" stroke="midnightblue" points="147.98,-64.58 155.89,-57.52 145.31,-58.11 147.98,-64.58"/>
</g>
<!-- Node12 -->
<g id="node12" class="node">
<title>Node12</title>
<g id="a_node12"><a xlink:href="gsd_8c.html#ab1d1a8a5f73b37df0c706f41df3bdd69" target="_top" xlink:title=" ">
<polygon fill="none" stroke="black" points="141.5,-0.5 141.5,-19.5 229.5,-19.5 229.5,-0.5 141.5,-0.5"/>
<text text-anchor="middle" x="185.5" y="-7.5" font-family="Helvetica,sans-Serif" font-size="10.00">gsd_sizeof_type</text>
</a>
</g>
</g>
<!-- Node1&#45;&gt;Node12 -->
<g id="edge16" class="edge">
<title>Node1&#45;&gt;Node12</title>
<path fill="none" stroke="midnightblue" d="M50.08,-133.47C59.89,-111.69 86.92,-57.89 126,-29 128.62,-27.06 131.44,-25.32 134.39,-23.75"/>
<polygon fill="midnightblue" stroke="midnightblue" points="135.89,-26.91 143.5,-19.54 132.95,-20.56 135.89,-26.91"/>
</g>
<!-- Node2&#45;&gt;Node3 -->
<g id="edge2" class="edge">
<title>Node2&#45;&gt;Node3</title>
<path fill="none" stroke="midnightblue" d="M226.24,-209.59C247.03,-214.6 272.66,-220.79 294.7,-226.11"/>
<polygon fill="midnightblue" stroke="midnightblue" points="294,-229.54 304.54,-228.48 295.64,-222.73 294,-229.54"/>
</g>
<!-- Node5 -->
<g id="node5" class="node">
<title>Node5</title>
<g id="a_node5"><a xlink:href="gsd_8c.html#a493ef951956c9f98adff89a80ddb3fa6" target="_top" xlink:title=" ">
<polygon fill="none" stroke="black" points="296,-190.5 296,-209.5 394,-209.5 394,-190.5 296,-190.5"/>
<text text-anchor="middle" x="345" y="-197.5" font-family="Helvetica,sans-Serif" font-size="10.00">gsd_make_version</text>
</a>
</g>
</g>
<!-- Node2&#45;&gt;Node5 -->
<g id="edge4" class="edge">
<title>Node2&#45;&gt;Node5</title>
<path fill="none" stroke="midnightblue" d="M234.61,-200C250.72,-200 268.85,-200 285.65,-200"/>
<polygon fill="midnightblue" stroke="midnightblue" points="285.91,-203.5 295.91,-200 285.91,-196.5 285.91,-203.5"/>
</g>
<!-- Node6 -->
<g id="node6" class="node">
<title>Node6</title>
<g id="a_node6"><a xlink:href="gsd_8c.html#a6c8c2e5a49ac4eb01a95be2e0df06eb9" target="_top" xlink:title=" ">
<polygon fill="none" stroke="black" points="281,-152.5 281,-171.5 409,-171.5 409,-152.5 281,-152.5"/>
<text text-anchor="middle" x="345" y="-159.5" font-family="Helvetica,sans-Serif" font-size="10.00">gsd_name_id_map_insert</text>
</a>
</g>
</g>
<!-- Node2&#45;&gt;Node6 -->
<g id="edge5" class="edge">
<title>Node2&#45;&gt;Node6</title>
<path fill="none" stroke="midnightblue" d="M226.24,-190.41C247.03,-185.4 272.66,-179.21 294.7,-173.89"/>
<polygon fill="midnightblue" stroke="midnightblue" points="295.64,-177.27 304.54,-171.52 294,-170.46 295.64,-177.27"/>
</g>
<!-- Node3&#45;&gt;Node4 -->
<g id="edge3" class="edge">
<title>Node3&#45;&gt;Node4</title>
<path fill="none" stroke="midnightblue" d="M406.12,-238C415.47,-238 425.18,-238 434.67,-238"/>
<polygon fill="midnightblue" stroke="midnightblue" points="434.85,-241.5 444.85,-238 434.85,-234.5 434.85,-241.5"/>
</g>
<!-- Node7 -->
<g id="node7" class="node">
<title>Node7</title>
<g id="a_node7"><a xlink:href="gsd_8c.html#a6d8087323ec29c58d907b9462b4a31da" target="_top" xlink:title=" ">
<polygon fill="none" stroke="black" points="465,-95.5 465,-114.5 540,-114.5 540,-95.5 465,-95.5"/>
<text text-anchor="middle" x="502.5" y="-102.5" font-family="Helvetica,sans-Serif" font-size="10.00">gsd_hash_str</text>
</a>
</g>
</g>
<!-- Node6&#45;&gt;Node7 -->
<g id="edge6" class="edge">
<title>Node6&#45;&gt;Node7</title>
<path fill="none" stroke="midnightblue" d="M379.87,-152.44C389.36,-149.59 399.63,-146.33 409,-143 429.84,-135.6 452.85,-126.15 470.71,-118.53"/>
<polygon fill="midnightblue" stroke="midnightblue" points="472.25,-121.67 480.05,-114.5 469.48,-115.24 472.25,-121.67"/>
</g>
<!-- Node8&#45;&gt;Node9 -->
<g id="edge9" class="edge">
<title>Node8&#45;&gt;Node9</title>
<path fill="none" stroke="midnightblue" d="M242.92,-124C254.71,-124 267.23,-124 279.29,-124"/>
<polygon fill="midnightblue" stroke="midnightblue" points="279.3,-127.5 289.3,-124 279.3,-120.5 279.3,-127.5"/>
</g>
<!-- Node8&#45;&gt;Node10 -->
<g id="edge11" class="edge">
<title>Node8&#45;&gt;Node10</title>
<path fill="none" stroke="midnightblue" d="M226.24,-114.41C247.03,-109.4 272.66,-103.21 294.7,-97.89"/>
<polygon fill="midnightblue" stroke="midnightblue" points="295.64,-101.27 304.54,-95.52 294,-94.46 295.64,-101.27"/>
</g>
<!-- Node9&#45;&gt;Node4 -->
<g id="edge10" class="edge">
<title>Node9&#45;&gt;Node4</title>
<path fill="none" stroke="midnightblue" d="M388.28,-133.51C395.47,-136.02 402.65,-139.15 409,-143 442.57,-163.39 472.48,-198.8 488.7,-220.15"/>
<polygon fill="midnightblue" stroke="midnightblue" points="486.02,-222.41 494.78,-228.36 491.64,-218.24 486.02,-222.41"/>
</g>
<!-- Node11&#45;&gt;Node7 -->
<g id="edge15" class="edge">
<title>Node11&#45;&gt;Node7</title>
<path fill="none" stroke="midnightblue" d="M245.37,-48.17C290.68,-49.47 354.55,-53.82 409,-67 431.5,-72.45 455.65,-82.52 473.63,-90.93"/>
<polygon fill="midnightblue" stroke="midnightblue" points="472.4,-94.23 482.93,-95.39 475.43,-87.92 472.4,-94.23"/>
</g>
</g>
</svg>
