<?xml version="1.0" encoding="UTF-8" standalone="no"?>
<!DOCTYPE svg PUBLIC "-//W3C//DTD SVG 1.1//EN"
 "http://www.w3.org/Graphics/SVG/1.1/DTD/svg11.dtd">
<!-- Generated by graphviz version 2.49.1 (20210923.0004)
 -->
<!-- Title: gsd_index_buffer_free Pages: 1 -->
<svg width="592pt" height="142pt"
 viewBox="0.00 0.00 592.00 142.00" xmlns="http://www.w3.org/2000/svg" xmlns:xlink="http://www.w3.org/1999/xlink">
<g id="graph0" class="graph" transform="scale(1 1) rotate(0) translate(4 138)">
<title>gsd_index_buffer_free</title>
<!-- Node1 -->
<g id="node1" class="node">
<title>Node1</title>
<g id="a_node1"><a xlink:title=" ">
<polygon fill="#bfbfbf" stroke="black" points="468,-57.5 468,-76.5 584,-76.5 584,-57.5 468,-57.5"/>
<text text-anchor="middle" x="526" y="-64.5" font-family="Helvetica,sans-Serif" font-size="10.00">gsd_index_buffer_free</text>
</a>
</g>
</g>
<!-- Node2 -->
<g id="node2" class="node">
<title>Node2</title>
<g id="a_node2"><a xlink:href="gsd_8c.html#a08b4f76e3e19eda194def8c0c4b2b7a3" target="_top" xlink:title=" ">
<polygon fill="none" stroke="black" points="341.5,-114.5 341.5,-133.5 403.5,-133.5 403.5,-114.5 341.5,-114.5"/>
<text text-anchor="middle" x="372.5" y="-121.5" font-family="Helvetica,sans-Serif" font-size="10.00">gsd_close</text>
</a>
</g>
</g>
<!-- Node1&#45;&gt;Node2 -->
<g id="edge1" class="edge">
<title>Node1&#45;&gt;Node2</title>
<path fill="none" stroke="midnightblue" d="M493.61,-80.5C475.69,-88.04 452.73,-97.41 432,-105 422.87,-108.34 412.85,-111.71 403.71,-114.66"/>
<polygon fill="midnightblue" stroke="midnightblue" points="495.16,-83.65 503.01,-76.52 492.43,-77.2 495.16,-83.65"/>
</g>
<!-- Node4 -->
<g id="node4" class="node">
<title>Node4</title>
<g id="a_node4"><a xlink:href="gsd_8c.html#ae6dddb94661e99e54f6c01b1a443e27f" target="_top" xlink:title=" ">
<polygon fill="none" stroke="black" points="313,-76.5 313,-95.5 432,-95.5 432,-76.5 313,-76.5"/>
<text text-anchor="middle" x="372.5" y="-83.5" font-family="Helvetica,sans-Serif" font-size="10.00">gsd_expand_file_index</text>
</a>
</g>
</g>
<!-- Node1&#45;&gt;Node4 -->
<g id="edge3" class="edge">
<title>Node1&#45;&gt;Node4</title>
<path fill="none" stroke="midnightblue" d="M457.78,-75.43C449.22,-76.5 440.52,-77.59 432.12,-78.65"/>
<polygon fill="midnightblue" stroke="midnightblue" points="458.24,-78.9 467.72,-74.18 457.37,-71.95 458.24,-78.9"/>
</g>
<!-- Node7 -->
<g id="node7" class="node">
<title>Node7</title>
<g id="a_node7"><a xlink:href="gsd_8c.html#a02ac7984034069d508b1c7ccbe702bac" target="_top" xlink:title=" ">
<polygon fill="none" stroke="black" points="335.5,-38.5 335.5,-57.5 409.5,-57.5 409.5,-38.5 335.5,-38.5"/>
<text text-anchor="middle" x="372.5" y="-45.5" font-family="Helvetica,sans-Serif" font-size="10.00">gsd_truncate</text>
</a>
</g>
</g>
<!-- Node1&#45;&gt;Node7 -->
<g id="edge6" class="edge">
<title>Node1&#45;&gt;Node7</title>
<path fill="none" stroke="midnightblue" d="M457.58,-58.54C441.12,-56.48 424.14,-54.35 409.78,-52.55"/>
<polygon fill="midnightblue" stroke="midnightblue" points="457.37,-62.05 467.72,-59.82 458.24,-55.1 457.37,-62.05"/>
</g>
<!-- Node9 -->
<g id="node9" class="node">
<title>Node9</title>
<g id="a_node9"><a xlink:href="gsd_8c.html#adb92d5142812c19bf4ee33cbde439131" target="_top" xlink:title=" ">
<polygon fill="none" stroke="black" points="335,-0.5 335,-19.5 410,-19.5 410,-0.5 335,-0.5"/>
<text text-anchor="middle" x="372.5" y="-7.5" font-family="Helvetica,sans-Serif" font-size="10.00">gsd_upgrade</text>
</a>
</g>
</g>
<!-- Node1&#45;&gt;Node9 -->
<g id="edge8" class="edge">
<title>Node1&#45;&gt;Node9</title>
<path fill="none" stroke="midnightblue" d="M493.61,-53.5C475.69,-45.96 452.73,-36.59 432,-29 423.08,-25.73 413.29,-22.44 404.31,-19.54"/>
<polygon fill="midnightblue" stroke="midnightblue" points="492.43,-56.8 503.01,-57.48 495.16,-50.35 492.43,-56.8"/>
</g>
<!-- Node3 -->
<g id="node3" class="node">
<title>Node3</title>
<g id="a_node3"><a xlink:href="classsystemData.html#a423b9bf369d6c53a27b64c9b56004810" target="_top" xlink:title=" ">
<polygon fill="none" stroke="black" points="144,-114.5 144,-133.5 277,-133.5 277,-114.5 144,-114.5"/>
<text text-anchor="middle" x="210.5" y="-121.5" font-family="Helvetica,sans-Serif" font-size="10.00">systemData::~systemData</text>
</a>
</g>
</g>
<!-- Node2&#45;&gt;Node3 -->
<g id="edge2" class="edge">
<title>Node2&#45;&gt;Node3</title>
<path fill="none" stroke="midnightblue" d="M331.14,-124C314.8,-124 295.52,-124 277.26,-124"/>
<polygon fill="midnightblue" stroke="midnightblue" points="331.41,-127.5 341.41,-124 331.41,-120.5 331.41,-127.5"/>
</g>
<!-- Node5 -->
<g id="node5" class="node">
<title>Node5</title>
<g id="a_node5"><a xlink:href="gsd_8c.html#aa03810337c5eebcbe716d8633eaefc5e" target="_top" xlink:title=" ">
<polygon fill="none" stroke="black" points="167.5,-76.5 167.5,-95.5 253.5,-95.5 253.5,-76.5 167.5,-76.5"/>
<text text-anchor="middle" x="210.5" y="-83.5" font-family="Helvetica,sans-Serif" font-size="10.00">gsd_end_frame</text>
</a>
</g>
</g>
<!-- Node4&#45;&gt;Node5 -->
<g id="edge4" class="edge">
<title>Node4&#45;&gt;Node5</title>
<path fill="none" stroke="midnightblue" d="M302.58,-86C285.93,-86 268.63,-86 253.64,-86"/>
<polygon fill="midnightblue" stroke="midnightblue" points="302.83,-89.5 312.83,-86 302.83,-82.5 302.83,-89.5"/>
</g>
<!-- Node6 -->
<g id="node6" class="node">
<title>Node6</title>
<g id="a_node6"><a xlink:href="classGSDUtil.html#ae76e4a23f0fe0bca3cd44137b56b816b" target="_top" xlink:title=" ">
<polygon fill="none" stroke="black" points="0,-76.5 0,-95.5 108,-95.5 108,-76.5 0,-76.5"/>
<text text-anchor="middle" x="54" y="-83.5" font-family="Helvetica,sans-Serif" font-size="10.00">GSDUtil::writeFrame</text>
</a>
</g>
</g>
<!-- Node5&#45;&gt;Node6 -->
<g id="edge5" class="edge">
<title>Node5&#45;&gt;Node6</title>
<path fill="none" stroke="midnightblue" d="M157.17,-86C141.39,-86 124.06,-86 108.22,-86"/>
<polygon fill="midnightblue" stroke="midnightblue" points="157.28,-89.5 167.28,-86 157.28,-82.5 157.28,-89.5"/>
</g>
<!-- Node8 -->
<g id="node8" class="node">
<title>Node8</title>
<g id="a_node8"><a xlink:href="classGSDUtil.html#a78b796cb5093b0aa6f5d2573658fcca1" target="_top" xlink:title=" ">
<polygon fill="none" stroke="black" points="152.5,-38.5 152.5,-57.5 268.5,-57.5 268.5,-38.5 152.5,-38.5"/>
<text text-anchor="middle" x="210.5" y="-45.5" font-family="Helvetica,sans-Serif" font-size="10.00">GSDUtil::truncateGSD</text>
</a>
</g>
</g>
<!-- Node7&#45;&gt;Node8 -->
<g id="edge7" class="edge">
<title>Node7&#45;&gt;Node8</title>
<path fill="none" stroke="midnightblue" d="M325.15,-48C307.52,-48 287.21,-48 268.69,-48"/>
<polygon fill="midnightblue" stroke="midnightblue" points="325.19,-51.5 335.19,-48 325.19,-44.5 325.19,-51.5"/>
</g>
</g>
</svg>
