<?xml version="1.0" encoding="UTF-8" standalone="no"?>
<!DOCTYPE svg PUBLIC "-//W3C//DTD SVG 1.1//EN"
 "http://www.w3.org/Graphics/SVG/1.1/DTD/svg11.dtd">
<!-- Generated by graphviz version 2.43.0 (0)
 -->
<!-- Title: gsd_util_zero_memory Pages: 1 -->
<svg width="919pt" height="494pt"
 viewBox="0.00 0.00 919.00 493.95" xmlns="http://www.w3.org/2000/svg" xmlns:xlink="http://www.w3.org/1999/xlink">
<g id="graph0" class="graph" transform="scale(1 1) rotate(0) translate(4 489.95)">
<title>gsd_util_zero_memory</title>
<!-- Node1 -->
<g id="node1" class="node">
<title>Node1</title>
<g id="a_node1"><a xlink:title=" ">
<polygon fill="#bfbfbf" stroke="black" points="796,-228.5 796,-247.5 911,-247.5 911,-228.5 796,-228.5"/>
<text text-anchor="middle" x="853.5" y="-235.5" font-family="Helvetica,sans-Serif" font-size="10.00">gsd_util_zero_memory</text>
</a>
</g>
</g>
<!-- Node2 -->
<g id="node2" class="node">
<title>Node2</title>
<g id="a_node2"><a xlink:href="gsd_8c.html#a7a717f9dafe011e68434e181c76253af" target="_top" xlink:title=" ">
<polygon fill="none" stroke="black" points="638,-342.5 638,-361.5 760,-361.5 760,-342.5 638,-342.5"/>
<text text-anchor="middle" x="699" y="-349.5" font-family="Helvetica,sans-Serif" font-size="10.00">gsd_byte_buffer_append</text>
</a>
</g>
</g>
<!-- Node1&#45;&gt;Node2 -->
<g id="edge1" class="edge">
<title>Node1&#45;&gt;Node2</title>
<path fill="none" stroke="midnightblue" d="M838.19,-255.59C821.27,-275.43 791.43,-307.59 760,-328 750.97,-333.87 740.27,-338.71 730.43,-342.47"/>
<polygon fill="midnightblue" stroke="midnightblue" points="841.08,-257.58 844.81,-247.67 835.71,-253.09 841.08,-257.58"/>
</g>
<!-- Node4 -->
<g id="node4" class="node">
<title>Node4</title>
<g id="a_node4"><a xlink:href="gsd_8h.html#ae22447904b925f284bf987fae448488a" target="_top" xlink:title=" ">
<polygon fill="none" stroke="black" points="335,-413.5 335,-432.5 425,-432.5 425,-413.5 335,-413.5"/>
<text text-anchor="middle" x="380" y="-420.5" font-family="Helvetica,sans-Serif" font-size="10.00">gsd_write_chunk</text>
</a>
</g>
</g>
<!-- Node1&#45;&gt;Node4 -->
<g id="edge43" class="edge">
<title>Node1&#45;&gt;Node4</title>
<path fill="none" stroke="midnightblue" d="M850.27,-257.72C844.31,-300.29 823.85,-400.69 760,-447 647.39,-528.68 462.94,-459.41 401.58,-432.54"/>
<polygon fill="midnightblue" stroke="midnightblue" points="853.77,-257.92 851.57,-247.55 846.83,-257.03 853.77,-257.92"/>
</g>
<!-- Node9 -->
<g id="node9" class="node">
<title>Node9</title>
<g id="a_node9"><a xlink:href="gsd_8c.html#ab147cf4d77c10fd8085e5023e9afe55f" target="_top" xlink:title=" ">
<polygon fill="none" stroke="black" points="485,-304.5 485,-323.5 602,-323.5 602,-304.5 485,-304.5"/>
<text text-anchor="middle" x="543.5" y="-311.5" font-family="Helvetica,sans-Serif" font-size="10.00">gsd_flush_name_buffer</text>
</a>
</g>
</g>
<!-- Node1&#45;&gt;Node9 -->
<g id="edge24" class="edge">
<title>Node1&#45;&gt;Node9</title>
<path fill="none" stroke="midnightblue" d="M819.9,-251.43C802.37,-258.28 780.25,-266.34 760,-272 707.32,-286.71 645.98,-298.13 602.25,-305.32"/>
<polygon fill="midnightblue" stroke="midnightblue" points="821.64,-254.51 829.65,-247.56 819.06,-248 821.64,-254.51"/>
</g>
<!-- Node11 -->
<g id="node11" class="node">
<title>Node11</title>
<g id="a_node11"><a xlink:href="gsd_8h.html#adb92d5142812c19bf4ee33cbde439131" target="_top" xlink:title=" ">
<polygon fill="none" stroke="black" points="507.5,-228.5 507.5,-247.5 579.5,-247.5 579.5,-228.5 507.5,-228.5"/>
<text text-anchor="middle" x="543.5" y="-235.5" font-family="Helvetica,sans-Serif" font-size="10.00">gsd_upgrade</text>
</a>
</g>
</g>
<!-- Node1&#45;&gt;Node11 -->
<g id="edge42" class="edge">
<title>Node1&#45;&gt;Node11</title>
<path fill="none" stroke="midnightblue" d="M785.37,-238C722.15,-238 629.9,-238 579.9,-238"/>
<polygon fill="midnightblue" stroke="midnightblue" points="785.65,-241.5 795.65,-238 785.65,-234.5 785.65,-241.5"/>
</g>
<!-- Node12 -->
<g id="node12" class="node">
<title>Node12</title>
<g id="a_node12"><a xlink:href="gsd_8c.html#ae50726c30c5bf629b6af1ef88020302f" target="_top" xlink:title=" ">
<polygon fill="none" stroke="black" points="645.5,-152.5 645.5,-171.5 752.5,-171.5 752.5,-152.5 645.5,-152.5"/>
<text text-anchor="middle" x="699" y="-159.5" font-family="Helvetica,sans-Serif" font-size="10.00">gsd_byte_buffer_free</text>
</a>
</g>
</g>
<!-- Node1&#45;&gt;Node12 -->
<g id="edge15" class="edge">
<title>Node1&#45;&gt;Node12</title>
<path fill="none" stroke="midnightblue" d="M830.62,-222.38C812.4,-209.9 785.41,-192.64 760,-181 752.15,-177.41 743.43,-174.22 735.13,-171.53"/>
<polygon fill="midnightblue" stroke="midnightblue" points="829.09,-225.57 839.29,-228.41 833.08,-219.83 829.09,-225.57"/>
</g>
<!-- Node17 -->
<g id="node17" class="node">
<title>Node17</title>
<g id="a_node17"><a xlink:href="gsd_8h.html#a157d14770365926fde71a7787871bc63" target="_top" xlink:title=" ">
<polygon fill="none" stroke="black" points="487.5,-76.5 487.5,-95.5 599.5,-95.5 599.5,-76.5 487.5,-76.5"/>
<text text-anchor="middle" x="543.5" y="-83.5" font-family="Helvetica,sans-Serif" font-size="10.00">gsd_create_and_open</text>
</a>
</g>
</g>
<!-- Node1&#45;&gt;Node17 -->
<g id="edge21" class="edge">
<title>Node1&#45;&gt;Node17</title>
<path fill="none" stroke="midnightblue" d="M845.52,-219.09C833.32,-189.04 805.05,-131.13 760,-105 711.26,-76.74 645.65,-75.07 599.68,-78.54"/>
<polygon fill="midnightblue" stroke="midnightblue" points="842.28,-220.41 849.17,-228.46 848.8,-217.87 842.28,-220.41"/>
</g>
<!-- Node18 -->
<g id="node18" class="node">
<title>Node18</title>
<g id="a_node18"><a xlink:href="gsd_8c.html#ae6dddb94661e99e54f6c01b1a443e27f" target="_top" xlink:title=" ">
<polygon fill="none" stroke="black" points="485.5,-266.5 485.5,-285.5 601.5,-285.5 601.5,-266.5 485.5,-266.5"/>
<text text-anchor="middle" x="543.5" y="-273.5" font-family="Helvetica,sans-Serif" font-size="10.00">gsd_expand_file_index</text>
</a>
</g>
</g>
<!-- Node1&#45;&gt;Node18 -->
<g id="edge22" class="edge">
<title>Node1&#45;&gt;Node18</title>
<path fill="none" stroke="midnightblue" d="M785.73,-248.43C777.08,-249.68 768.33,-250.91 760,-252 706.44,-259.03 645.21,-265.72 601.74,-270.24"/>
<polygon fill="midnightblue" stroke="midnightblue" points="786.42,-251.86 795.8,-246.94 785.4,-244.94 786.42,-251.86"/>
</g>
<!-- Node19 -->
<g id="node19" class="node">
<title>Node19</title>
<g id="a_node19"><a xlink:href="gsd_8c.html#a258b64725f90f60d969752d65fba9850" target="_top" xlink:title=" ">
<polygon fill="none" stroke="black" points="643.5,-418.5 643.5,-437.5 754.5,-437.5 754.5,-418.5 643.5,-418.5"/>
<text text-anchor="middle" x="699" y="-425.5" font-family="Helvetica,sans-Serif" font-size="10.00">gsd_index_buffer_add</text>
</a>
</g>
</g>
<!-- Node1&#45;&gt;Node19 -->
<g id="edge25" class="edge">
<title>Node1&#45;&gt;Node19</title>
<path fill="none" stroke="midnightblue" d="M841.58,-256.09C825.28,-282.49 792.96,-332.61 760,-371 744.65,-388.88 724.34,-407.24 711.73,-418.13"/>
<polygon fill="midnightblue" stroke="midnightblue" points="844.6,-257.86 846.83,-247.5 838.63,-254.21 844.6,-257.86"/>
</g>
<!-- Node21 -->
<g id="node21" class="node">
<title>Node21</title>
<g id="a_node21"><a xlink:href="gsd_8c.html#a9e12a38df69cf73fa771b005748cb3e5" target="_top" xlink:title=" ">
<polygon fill="none" stroke="black" points="643,-190.5 643,-209.5 755,-209.5 755,-190.5 643,-190.5"/>
<text text-anchor="middle" x="699" y="-197.5" font-family="Helvetica,sans-Serif" font-size="10.00">gsd_index_buffer_free</text>
</a>
</g>
</g>
<!-- Node1&#45;&gt;Node21 -->
<g id="edge30" class="edge">
<title>Node1&#45;&gt;Node21</title>
<path fill="none" stroke="midnightblue" d="M804.18,-225.96C782.88,-220.65 758.2,-214.5 738.21,-209.52"/>
<polygon fill="midnightblue" stroke="midnightblue" points="803.47,-229.39 814.02,-228.41 805.16,-222.6 803.47,-229.39"/>
</g>
<!-- Node22 -->
<g id="node22" class="node">
<title>Node22</title>
<g id="a_node22"><a xlink:href="gsd_8c.html#acb769baf09c31a5ad6cba95bd348c194" target="_top" xlink:title=" ">
<polygon fill="none" stroke="black" points="653.5,-114.5 653.5,-133.5 744.5,-133.5 744.5,-114.5 653.5,-114.5"/>
<text text-anchor="middle" x="699" y="-121.5" font-family="Helvetica,sans-Serif" font-size="10.00">gsd_initialize_file</text>
</a>
</g>
</g>
<!-- Node1&#45;&gt;Node22 -->
<g id="edge35" class="edge">
<title>Node1&#45;&gt;Node22</title>
<path fill="none" stroke="midnightblue" d="M839.65,-220.23C823.39,-198.96 793.43,-163.62 760,-143 753.86,-139.21 746.9,-136.12 739.95,-133.61"/>
<polygon fill="midnightblue" stroke="midnightblue" points="836.97,-222.48 845.75,-228.4 842.58,-218.3 836.97,-222.48"/>
</g>
<!-- Node24 -->
<g id="node24" class="node">
<title>Node24</title>
<g id="a_node24"><a xlink:href="gsd_8h.html#ae0add799755285c1108a7b97b2ed7e00" target="_top" xlink:title=" ">
<polygon fill="none" stroke="black" points="669.5,-38.5 669.5,-57.5 728.5,-57.5 728.5,-38.5 669.5,-38.5"/>
<text text-anchor="middle" x="699" y="-45.5" font-family="Helvetica,sans-Serif" font-size="10.00">gsd_open</text>
</a>
</g>
</g>
<!-- Node1&#45;&gt;Node24 -->
<g id="edge39" class="edge">
<title>Node1&#45;&gt;Node24</title>
<path fill="none" stroke="midnightblue" d="M846.52,-218.57C835.07,-184.41 806.94,-113.29 760,-72 751.16,-64.22 739.47,-58.78 728.77,-55.08"/>
<polygon fill="midnightblue" stroke="midnightblue" points="843.25,-219.84 849.65,-228.28 849.91,-217.69 843.25,-219.84"/>
</g>
<!-- Node3 -->
<g id="node3" class="node">
<title>Node3</title>
<g id="a_node3"><a xlink:href="gsd_8c.html#aa1a0a7dcf4015edcadbb47a6451b4a4b" target="_top" xlink:title=" ">
<polygon fill="none" stroke="black" points="494.5,-380.5 494.5,-399.5 592.5,-399.5 592.5,-380.5 494.5,-380.5"/>
<text text-anchor="middle" x="543.5" y="-387.5" font-family="Helvetica,sans-Serif" font-size="10.00">gsd_append_name</text>
</a>
</g>
</g>
<!-- Node2&#45;&gt;Node3 -->
<g id="edge2" class="edge">
<title>Node2&#45;&gt;Node3</title>
<path fill="none" stroke="midnightblue" d="M649.36,-364.04C627.92,-369.35 603.08,-375.5 582.96,-380.48"/>
<polygon fill="midnightblue" stroke="midnightblue" points="650.4,-367.39 659.27,-361.59 648.72,-360.59 650.4,-367.39"/>
</g>
<!-- Node2&#45;&gt;Node4 -->
<g id="edge14" class="edge">
<title>Node2&#45;&gt;Node4</title>
<path fill="none" stroke="midnightblue" d="M627.54,-351.72C585.47,-353.15 531.36,-357.85 485,-371 451.21,-380.58 415.31,-401.16 395.77,-413.36"/>
<polygon fill="midnightblue" stroke="midnightblue" points="627.8,-355.21 637.7,-351.42 627.6,-348.21 627.8,-355.21"/>
</g>
<!-- Node2&#45;&gt;Node9 -->
<g id="edge10" class="edge">
<title>Node2&#45;&gt;Node9</title>
<path fill="none" stroke="midnightblue" d="M649.36,-339.96C627.92,-334.65 603.08,-328.5 582.96,-323.52"/>
<polygon fill="midnightblue" stroke="midnightblue" points="648.72,-343.41 659.27,-342.41 650.4,-336.61 648.72,-343.41"/>
</g>
<!-- Node2&#45;&gt;Node11 -->
<g id="edge13" class="edge">
<title>Node2&#45;&gt;Node11</title>
<path fill="none" stroke="midnightblue" d="M684.47,-334.32C667.4,-313.14 636.11,-277.9 602,-257 595.19,-252.83 587.35,-249.46 579.7,-246.78"/>
<polygon fill="midnightblue" stroke="midnightblue" points="681.95,-336.77 690.89,-342.46 687.44,-332.44 681.95,-336.77"/>
</g>
<!-- Node3&#45;&gt;Node4 -->
<g id="edge3" class="edge">
<title>Node3&#45;&gt;Node4</title>
<path fill="none" stroke="midnightblue" d="M485.9,-401.57C465.96,-405.64 443.86,-410.15 425.11,-413.99"/>
<polygon fill="midnightblue" stroke="midnightblue" points="486.69,-404.98 495.79,-399.54 485.29,-398.12 486.69,-404.98"/>
</g>
<!-- Node5 -->
<g id="node5" class="node">
<title>Node5</title>
<g id="a_node5"><a xlink:href="classGSDUtil.html#a77b5ebe2817ac868ad1b171f3d7b0cae" target="_top" xlink:title="Writes header information to GSD.">
<polygon fill="none" stroke="black" points="153.5,-432.5 153.5,-451.5 265.5,-451.5 265.5,-432.5 153.5,-432.5"/>
<text text-anchor="middle" x="209.5" y="-439.5" font-family="Helvetica,sans-Serif" font-size="10.00">GSDUtil::writeHeader</text>
</a>
</g>
</g>
<!-- Node4&#45;&gt;Node5 -->
<g id="edge4" class="edge">
<title>Node4&#45;&gt;Node5</title>
<path fill="none" stroke="midnightblue" d="M324.78,-429.11C305.86,-431.25 284.62,-433.64 265.63,-435.78"/>
<polygon fill="midnightblue" stroke="midnightblue" points="325.18,-432.59 334.73,-427.99 324.4,-425.63 325.18,-432.59"/>
</g>
<!-- Node7 -->
<g id="node7" class="node">
<title>Node7</title>
<g id="a_node7"><a xlink:href="classGSDUtil.html#aa0dc50cd5e5534260375ad4962511cf0" target="_top" xlink:title="Writes parameter information to GSD.">
<polygon fill="none" stroke="black" points="144,-394.5 144,-413.5 275,-413.5 275,-394.5 144,-394.5"/>
<text text-anchor="middle" x="209.5" y="-401.5" font-family="Helvetica,sans-Serif" font-size="10.00">GSDUtil::writeParameters</text>
</a>
</g>
</g>
<!-- Node4&#45;&gt;Node7 -->
<g id="edge6" class="edge">
<title>Node4&#45;&gt;Node7</title>
<path fill="none" stroke="midnightblue" d="M324.61,-416.87C308.82,-415.09 291.43,-413.13 275.08,-411.28"/>
<polygon fill="midnightblue" stroke="midnightblue" points="324.4,-420.37 334.73,-418.01 325.18,-413.41 324.4,-420.37"/>
</g>
<!-- Node8 -->
<g id="node8" class="node">
<title>Node8</title>
<g id="a_node8"><a xlink:href="classGSDUtil.html#a9464315a26a5d5e2c51bb2b4df5ee373" target="_top" xlink:title="Writes particle information to GSD.">
<polygon fill="none" stroke="black" points="150,-356.5 150,-375.5 269,-375.5 269,-356.5 150,-356.5"/>
<text text-anchor="middle" x="209.5" y="-363.5" font-family="Helvetica,sans-Serif" font-size="10.00">GSDUtil::writeParticles</text>
</a>
</g>
</g>
<!-- Node4&#45;&gt;Node8 -->
<g id="edge8" class="edge">
<title>Node4&#45;&gt;Node8</title>
<path fill="none" stroke="midnightblue" d="M344.95,-409.94C324.74,-402.34 298.53,-392.76 275,-385 265.13,-381.75 254.33,-378.46 244.44,-375.56"/>
<polygon fill="midnightblue" stroke="midnightblue" points="343.77,-413.23 354.36,-413.49 346.24,-406.68 343.77,-413.23"/>
</g>
<!-- Node6 -->
<g id="node6" class="node">
<title>Node6</title>
<g id="a_node6"><a xlink:href="classGSDUtil.html#ae76e4a23f0fe0bca3cd44137b56b816b" target="_top" xlink:title="Appends frame to GSD file using data from SystemData class.">
<polygon fill="none" stroke="black" points="0,-375.5 0,-394.5 108,-394.5 108,-375.5 0,-375.5"/>
<text text-anchor="middle" x="54" y="-382.5" font-family="Helvetica,sans-Serif" font-size="10.00">GSDUtil::writeFrame</text>
</a>
</g>
</g>
<!-- Node5&#45;&gt;Node6 -->
<g id="edge5" class="edge">
<title>Node5&#45;&gt;Node6</title>
<path fill="none" stroke="midnightblue" d="M163.79,-429.57C157.12,-427.5 150.35,-425.28 144,-423 120.13,-414.42 93.45,-402.74 75.59,-394.6"/>
<polygon fill="midnightblue" stroke="midnightblue" points="162.86,-432.94 173.45,-432.48 164.88,-426.24 162.86,-432.94"/>
</g>
<!-- Node7&#45;&gt;Node6 -->
<g id="edge7" class="edge">
<title>Node7&#45;&gt;Node6</title>
<path fill="none" stroke="midnightblue" d="M133.82,-394.76C125.25,-393.7 116.64,-392.63 108.43,-391.61"/>
<polygon fill="midnightblue" stroke="midnightblue" points="133.49,-398.24 143.85,-396 134.35,-391.3 133.49,-398.24"/>
</g>
<!-- Node8&#45;&gt;Node6 -->
<g id="edge9" class="edge">
<title>Node8&#45;&gt;Node6</title>
<path fill="none" stroke="midnightblue" d="M139.65,-374.52C129.19,-375.82 118.54,-377.14 108.47,-378.38"/>
<polygon fill="midnightblue" stroke="midnightblue" points="140.1,-377.99 149.59,-373.29 139.24,-371.05 140.1,-377.99"/>
</g>
<!-- Node10 -->
<g id="node10" class="node">
<title>Node10</title>
<g id="a_node10"><a xlink:href="gsd_8h.html#aa03810337c5eebcbe716d8633eaefc5e" target="_top" xlink:title=" ">
<polygon fill="none" stroke="black" points="338.5,-304.5 338.5,-323.5 421.5,-323.5 421.5,-304.5 338.5,-304.5"/>
<text text-anchor="middle" x="380" y="-311.5" font-family="Helvetica,sans-Serif" font-size="10.00">gsd_end_frame</text>
</a>
</g>
</g>
<!-- Node9&#45;&gt;Node10 -->
<g id="edge11" class="edge">
<title>Node9&#45;&gt;Node10</title>
<path fill="none" stroke="midnightblue" d="M474.5,-314C456.56,-314 437.75,-314 421.75,-314"/>
<polygon fill="midnightblue" stroke="midnightblue" points="474.65,-317.5 484.65,-314 474.65,-310.5 474.65,-317.5"/>
</g>
<!-- Node10&#45;&gt;Node6 -->
<g id="edge12" class="edge">
<title>Node10&#45;&gt;Node6</title>
<path fill="none" stroke="midnightblue" d="M328.26,-317.24C280.12,-321.22 206.12,-329.71 144,-347 118.75,-354.03 91.23,-366.6 73.57,-375.35"/>
<polygon fill="midnightblue" stroke="midnightblue" points="328.73,-320.72 338.42,-316.44 328.18,-313.74 328.73,-320.72"/>
</g>
<!-- Node12&#45;&gt;Node11 -->
<g id="edge20" class="edge">
<title>Node12&#45;&gt;Node11</title>
<path fill="none" stroke="midnightblue" d="M648.64,-175.34C644.93,-177.03 641.34,-178.91 638,-181 618.28,-193.35 621.64,-206.53 602,-219 595.25,-223.28 587.45,-226.7 579.8,-229.38"/>
<polygon fill="midnightblue" stroke="midnightblue" points="650.06,-178.54 658.01,-171.54 647.43,-172.06 650.06,-178.54"/>
</g>
<!-- Node13 -->
<g id="node13" class="node">
<title>Node13</title>
<g id="a_node13"><a xlink:href="gsd_8h.html#a08b4f76e3e19eda194def8c0c4b2b7a3" target="_top" xlink:title=" ">
<polygon fill="none" stroke="black" points="513,-190.5 513,-209.5 574,-209.5 574,-190.5 513,-190.5"/>
<text text-anchor="middle" x="543.5" y="-197.5" font-family="Helvetica,sans-Serif" font-size="10.00">gsd_close</text>
</a>
</g>
</g>
<!-- Node12&#45;&gt;Node13 -->
<g id="edge16" class="edge">
<title>Node12&#45;&gt;Node13</title>
<path fill="none" stroke="midnightblue" d="M649.33,-174.05C624.59,-180.17 595.33,-187.42 574.02,-192.69"/>
<polygon fill="midnightblue" stroke="midnightblue" points="650.4,-177.39 659.27,-171.59 648.72,-170.59 650.4,-177.39"/>
</g>
<!-- Node15 -->
<g id="node15" class="node">
<title>Node15</title>
<g id="a_node15"><a xlink:href="gsd_8h.html#a02ac7984034069d508b1c7ccbe702bac" target="_top" xlink:title=" ">
<polygon fill="none" stroke="black" points="507,-152.5 507,-171.5 580,-171.5 580,-152.5 507,-152.5"/>
<text text-anchor="middle" x="543.5" y="-159.5" font-family="Helvetica,sans-Serif" font-size="10.00">gsd_truncate</text>
</a>
</g>
</g>
<!-- Node12&#45;&gt;Node15 -->
<g id="edge18" class="edge">
<title>Node12&#45;&gt;Node15</title>
<path fill="none" stroke="midnightblue" d="M634.92,-162C616.2,-162 596.35,-162 580.04,-162"/>
<polygon fill="midnightblue" stroke="midnightblue" points="635.17,-165.5 645.17,-162 635.17,-158.5 635.17,-165.5"/>
</g>
<!-- Node14 -->
<g id="node14" class="node">
<title>Node14</title>
<g id="a_node14"><a xlink:href="classSystemData.html#aa650ece2e42d10df0a17419ed3833f36" target="_top" xlink:title="Destroy the system Data object.">
<polygon fill="none" stroke="black" points="311,-190.5 311,-209.5 449,-209.5 449,-190.5 311,-190.5"/>
<text text-anchor="middle" x="380" y="-197.5" font-family="Helvetica,sans-Serif" font-size="10.00">SystemData::~SystemData</text>
</a>
</g>
</g>
<!-- Node13&#45;&gt;Node14 -->
<g id="edge17" class="edge">
<title>Node13&#45;&gt;Node14</title>
<path fill="none" stroke="midnightblue" d="M502.75,-200C486.62,-200 467.53,-200 449.3,-200"/>
<polygon fill="midnightblue" stroke="midnightblue" points="502.88,-203.5 512.88,-200 502.88,-196.5 502.88,-203.5"/>
</g>
<!-- Node16 -->
<g id="node16" class="node">
<title>Node16</title>
<g id="a_node16"><a xlink:href="classGSDUtil.html#a78b796cb5093b0aa6f5d2573658fcca1" target="_top" xlink:title="Removes all frames and data from GSD file. This returns GSD to a &quot;new file&quot; state.">
<polygon fill="none" stroke="black" points="322,-152.5 322,-171.5 438,-171.5 438,-152.5 322,-152.5"/>
<text text-anchor="middle" x="380" y="-159.5" font-family="Helvetica,sans-Serif" font-size="10.00">GSDUtil::truncateGSD</text>
</a>
</g>
</g>
<!-- Node15&#45;&gt;Node16 -->
<g id="edge19" class="edge">
<title>Node15&#45;&gt;Node16</title>
<path fill="none" stroke="midnightblue" d="M496.63,-162C478.49,-162 457.44,-162 438.31,-162"/>
<polygon fill="midnightblue" stroke="midnightblue" points="496.66,-165.5 506.66,-162 496.66,-158.5 496.66,-165.5"/>
</g>
<!-- Node18&#45;&gt;Node10 -->
<g id="edge23" class="edge">
<title>Node18&#45;&gt;Node10</title>
<path fill="none" stroke="midnightblue" d="M491.94,-287.9C469.24,-293.24 442.82,-299.45 421.46,-304.48"/>
<polygon fill="midnightblue" stroke="midnightblue" points="492.81,-291.29 501.75,-285.59 491.21,-284.47 492.81,-291.29"/>
</g>
<!-- Node19&#45;&gt;Node4 -->
<g id="edge29" class="edge">
<title>Node19&#45;&gt;Node4</title>
<path fill="none" stroke="midnightblue" d="M648.94,-439.62C633.97,-442.66 617.39,-445.49 602,-447 550.25,-452.07 536.67,-452.88 485,-447 460.88,-444.25 434.21,-438.03 413.92,-432.61"/>
<polygon fill="midnightblue" stroke="midnightblue" points="649.96,-442.99 659.02,-437.51 648.52,-436.14 649.96,-442.99"/>
</g>
<!-- Node20 -->
<g id="node20" class="node">
<title>Node20</title>
<g id="a_node20"><a xlink:href="gsd_8c.html#a61daeaa70162e9bac3d241832b460278" target="_top" xlink:title=" ">
<polygon fill="none" stroke="black" points="486.5,-418.5 486.5,-437.5 600.5,-437.5 600.5,-418.5 486.5,-418.5"/>
<text text-anchor="middle" x="543.5" y="-425.5" font-family="Helvetica,sans-Serif" font-size="10.00">gsd_flush_write_buffer</text>
</a>
</g>
</g>
<!-- Node19&#45;&gt;Node20 -->
<g id="edge26" class="edge">
<title>Node19&#45;&gt;Node20</title>
<path fill="none" stroke="midnightblue" d="M633.21,-428C622.4,-428 611.26,-428 600.69,-428"/>
<polygon fill="midnightblue" stroke="midnightblue" points="633.45,-431.5 643.45,-428 633.45,-424.5 633.45,-431.5"/>
</g>
<!-- Node20&#45;&gt;Node4 -->
<g id="edge28" class="edge">
<title>Node20&#45;&gt;Node4</title>
<path fill="none" stroke="midnightblue" d="M476.45,-425.96C459.2,-425.42 441.03,-424.86 425.23,-424.37"/>
<polygon fill="midnightblue" stroke="midnightblue" points="476.36,-429.45 486.47,-426.27 476.58,-422.46 476.36,-429.45"/>
</g>
<!-- Node20&#45;&gt;Node10 -->
<g id="edge27" class="edge">
<title>Node20&#45;&gt;Node10</title>
<path fill="none" stroke="midnightblue" d="M496.5,-414.78C492.52,-413.04 488.62,-411.12 485,-409 443.85,-384.91 405.05,-342.4 388.89,-323.51"/>
<polygon fill="midnightblue" stroke="midnightblue" points="495.32,-418.07 505.91,-418.48 497.89,-411.56 495.32,-418.07"/>
</g>
<!-- Node21&#45;&gt;Node11 -->
<g id="edge34" class="edge">
<title>Node21&#45;&gt;Node11</title>
<path fill="none" stroke="midnightblue" d="M649.47,-212.01C626.78,-217.63 600.25,-224.2 579.55,-229.32"/>
<polygon fill="midnightblue" stroke="midnightblue" points="650.4,-215.39 659.27,-209.59 648.72,-208.59 650.4,-215.39"/>
</g>
<!-- Node21&#45;&gt;Node13 -->
<g id="edge31" class="edge">
<title>Node21&#45;&gt;Node13</title>
<path fill="none" stroke="midnightblue" d="M632.46,-200C612.25,-200 590.98,-200 574.42,-200"/>
<polygon fill="midnightblue" stroke="midnightblue" points="632.58,-203.5 642.58,-200 632.58,-196.5 632.58,-203.5"/>
</g>
<!-- Node21&#45;&gt;Node15 -->
<g id="edge33" class="edge">
<title>Node21&#45;&gt;Node15</title>
<path fill="none" stroke="midnightblue" d="M649.55,-188C627.02,-182.43 600.72,-175.92 580.07,-170.8"/>
<polygon fill="midnightblue" stroke="midnightblue" points="648.72,-191.41 659.27,-190.41 650.4,-184.61 648.72,-191.41"/>
</g>
<!-- Node21&#45;&gt;Node18 -->
<g id="edge32" class="edge">
<title>Node21&#45;&gt;Node18</title>
<path fill="none" stroke="midnightblue" d="M675.36,-215.36C656.37,-227.76 628.22,-245.05 602,-257 594.25,-260.53 585.65,-263.73 577.51,-266.45"/>
<polygon fill="midnightblue" stroke="midnightblue" points="677.49,-218.14 683.89,-209.71 673.62,-212.31 677.49,-218.14"/>
</g>
<!-- Node22&#45;&gt;Node15 -->
<g id="edge38" class="edge">
<title>Node22&#45;&gt;Node15</title>
<path fill="none" stroke="midnightblue" d="M649.55,-136C627.02,-141.57 600.72,-148.08 580.07,-153.2"/>
<polygon fill="midnightblue" stroke="midnightblue" points="650.4,-139.39 659.27,-133.59 648.72,-132.59 650.4,-139.39"/>
</g>
<!-- Node22&#45;&gt;Node17 -->
<g id="edge37" class="edge">
<title>Node22&#45;&gt;Node17</title>
<path fill="none" stroke="midnightblue" d="M649.36,-111.96C627.92,-106.65 603.08,-100.5 582.96,-95.52"/>
<polygon fill="midnightblue" stroke="midnightblue" points="648.72,-115.41 659.27,-114.41 650.4,-108.61 648.72,-115.41"/>
</g>
<!-- Node23 -->
<g id="node23" class="node">
<title>Node23</title>
<g id="a_node23"><a xlink:href="gsd_8h.html#a58654880dd98b2bc32e429810b7d2623" target="_top" xlink:title=" ">
<polygon fill="none" stroke="black" points="511,-114.5 511,-133.5 576,-133.5 576,-114.5 511,-114.5"/>
<text text-anchor="middle" x="543.5" y="-121.5" font-family="Helvetica,sans-Serif" font-size="10.00">gsd_create</text>
</a>
</g>
</g>
<!-- Node22&#45;&gt;Node23 -->
<g id="edge36" class="edge">
<title>Node22&#45;&gt;Node23</title>
<path fill="none" stroke="midnightblue" d="M643.14,-124C620.77,-124 595.71,-124 576.44,-124"/>
<polygon fill="midnightblue" stroke="midnightblue" points="643.19,-127.5 653.19,-124 643.19,-120.5 643.19,-127.5"/>
</g>
<!-- Node25 -->
<g id="node25" class="node">
<title>Node25</title>
<g id="a_node25"><a xlink:href="classGSDUtil.html#ad1910c8e68bb120e4bedac1589011fe4" target="_top" xlink:title="Construct a new GSDUtil object.">
<polygon fill="none" stroke="black" points="495.5,-38.5 495.5,-57.5 591.5,-57.5 591.5,-38.5 495.5,-38.5"/>
<text text-anchor="middle" x="543.5" y="-45.5" font-family="Helvetica,sans-Serif" font-size="10.00">GSDUtil::GSDUtil</text>
</a>
</g>
</g>
<!-- Node24&#45;&gt;Node25 -->
<g id="edge40" class="edge">
<title>Node24&#45;&gt;Node25</title>
<path fill="none" stroke="midnightblue" d="M659.22,-48C638.66,-48 613.24,-48 591.56,-48"/>
<polygon fill="midnightblue" stroke="midnightblue" points="659.49,-51.5 669.49,-48 659.49,-44.5 659.49,-51.5"/>
</g>
<!-- Node26 -->
<g id="node26" class="node">
<title>Node26</title>
<g id="a_node26"><a xlink:href="TestSimulation_8cpp.html#a73f1516a36d4cf2efd1c65a9c80a277a" target="_top" xlink:title=" ">
<polygon fill="none" stroke="black" points="506,-0.5 506,-19.5 581,-19.5 581,-0.5 506,-0.5"/>
<text text-anchor="middle" x="543.5" y="-7.5" font-family="Helvetica,sans-Serif" font-size="10.00">TEST_CASE</text>
</a>
</g>
</g>
<!-- Node24&#45;&gt;Node26 -->
<g id="edge41" class="edge">
<title>Node24&#45;&gt;Node26</title>
<path fill="none" stroke="midnightblue" d="M659.66,-38.51C635.68,-32.57 604.96,-24.97 581.28,-19.11"/>
<polygon fill="midnightblue" stroke="midnightblue" points="658.94,-41.94 669.49,-40.94 660.62,-35.14 658.94,-41.94"/>
</g>
</g>
</svg>
