<?xml version="1.0" encoding="UTF-8" standalone="no"?>
<!DOCTYPE svg PUBLIC "-//W3C//DTD SVG 1.1//EN"
 "http://www.w3.org/Graphics/SVG/1.1/DTD/svg11.dtd">
<!-- Generated by graphviz version 2.43.0 (0)
 -->
<!-- Title: gsd_initialize_handle Pages: 1 -->
<svg width="577pt" height="256pt"
 viewBox="0.00 0.00 577.00 256.00" xmlns="http://www.w3.org/2000/svg" xmlns:xlink="http://www.w3.org/1999/xlink">
<g id="graph0" class="graph" transform="scale(1 1) rotate(0) translate(4 252)">
<title>gsd_initialize_handle</title>
<!-- Node1 -->
<g id="node1" class="node">
<title>Node1</title>
<g id="a_node1"><a xlink:title=" ">
<polygon fill="#bfbfbf" stroke="black" points="0,-114.5 0,-133.5 107,-133.5 107,-114.5 0,-114.5"/>
<text text-anchor="middle" x="53.5" y="-121.5" font-family="Helvetica,sans-Serif" font-size="10.00">gsd_initialize_handle</text>
</a>
</g>
</g>
<!-- Node2 -->
<g id="node2" class="node">
<title>Node2</title>
<g id="a_node2"><a xlink:href="gsd_8c.html#aeaf487909ab334303fa478cf4a126d6f" target="_top" xlink:title=" ">
<polygon fill="none" stroke="black" points="149,-228.5 149,-247.5 274,-247.5 274,-228.5 149,-228.5"/>
<text text-anchor="middle" x="211.5" y="-235.5" font-family="Helvetica,sans-Serif" font-size="10.00">gsd_byte_buffer_allocate</text>
</a>
</g>
</g>
<!-- Node1&#45;&gt;Node2 -->
<g id="edge1" class="edge">
<title>Node1&#45;&gt;Node2</title>
<path fill="none" stroke="midnightblue" d="M61.46,-133.54C75.15,-151.65 107.34,-191.26 143,-214 149.64,-218.23 157.12,-221.84 164.62,-224.87"/>
<polygon fill="midnightblue" stroke="midnightblue" points="163.47,-228.18 174.07,-228.41 165.93,-221.62 163.47,-228.18"/>
</g>
<!-- Node3 -->
<g id="node3" class="node">
<title>Node3</title>
<g id="a_node3"><a xlink:href="gsd_8c.html#ae1948c93f77d642c4e3797fe7e5f2095" target="_top" xlink:title=" ">
<polygon fill="none" stroke="black" points="316,-190.5 316,-209.5 445,-209.5 445,-190.5 316,-190.5"/>
<text text-anchor="middle" x="380.5" y="-197.5" font-family="Helvetica,sans-Serif" font-size="10.00">gsd_index_buffer_allocate</text>
</a>
</g>
</g>
<!-- Node1&#45;&gt;Node3 -->
<g id="edge2" class="edge">
<title>Node1&#45;&gt;Node3</title>
<path fill="none" stroke="midnightblue" d="M65.29,-133.52C81.09,-146.83 112.01,-170.52 143,-181 195.44,-198.74 258,-203.09 305.6,-203.22"/>
<polygon fill="midnightblue" stroke="midnightblue" points="305.84,-206.72 315.82,-203.18 305.81,-199.72 305.84,-206.72"/>
</g>
<!-- Node4 -->
<g id="node4" class="node">
<title>Node4</title>
<g id="a_node4"><a xlink:href="gsd_8c.html#a6fe75caf6c4df550af2455a0c40bfbdf" target="_top" xlink:title=" ">
<polygon fill="none" stroke="black" points="154.5,-152.5 154.5,-171.5 268.5,-171.5 268.5,-152.5 154.5,-152.5"/>
<text text-anchor="middle" x="211.5" y="-159.5" font-family="Helvetica,sans-Serif" font-size="10.00">gsd_index_buffer_map</text>
</a>
</g>
</g>
<!-- Node1&#45;&gt;Node4 -->
<g id="edge3" class="edge">
<title>Node1&#45;&gt;Node4</title>
<path fill="none" stroke="midnightblue" d="M93.87,-133.59C114.45,-138.6 139.84,-144.79 161.67,-150.11"/>
<polygon fill="midnightblue" stroke="midnightblue" points="160.87,-153.51 171.42,-152.48 162.53,-146.71 160.87,-153.51"/>
</g>
<!-- Node5 -->
<g id="node5" class="node">
<title>Node5</title>
<g id="a_node5"><a xlink:href="gsd_8c.html#ac1f41abbefbfe35337e7053d766c089b" target="_top" xlink:title=" ">
<polygon fill="none" stroke="black" points="331,-114.5 331,-133.5 430,-133.5 430,-114.5 331,-114.5"/>
<text text-anchor="middle" x="380.5" y="-121.5" font-family="Helvetica,sans-Serif" font-size="10.00">gsd_io_pread_retry</text>
</a>
</g>
</g>
<!-- Node1&#45;&gt;Node5 -->
<g id="edge8" class="edge">
<title>Node1&#45;&gt;Node5</title>
<path fill="none" stroke="midnightblue" d="M107.08,-124C165.58,-124 259.88,-124 320.76,-124"/>
<polygon fill="midnightblue" stroke="midnightblue" points="320.98,-127.5 330.98,-124 320.98,-120.5 320.98,-127.5"/>
</g>
<!-- Node8 -->
<g id="node8" class="node">
<title>Node8</title>
<g id="a_node8"><a xlink:href="gsd_8c.html#a493ef951956c9f98adff89a80ddb3fa6" target="_top" xlink:title=" ">
<polygon fill="none" stroke="black" points="162.5,-76.5 162.5,-95.5 260.5,-95.5 260.5,-76.5 162.5,-76.5"/>
<text text-anchor="middle" x="211.5" y="-83.5" font-family="Helvetica,sans-Serif" font-size="10.00">gsd_make_version</text>
</a>
</g>
</g>
<!-- Node1&#45;&gt;Node8 -->
<g id="edge9" class="edge">
<title>Node1&#45;&gt;Node8</title>
<path fill="none" stroke="midnightblue" d="M93.87,-114.41C114.45,-109.4 139.84,-103.21 161.67,-97.89"/>
<polygon fill="midnightblue" stroke="midnightblue" points="162.53,-101.29 171.42,-95.52 160.87,-94.49 162.53,-101.29"/>
</g>
<!-- Node9 -->
<g id="node9" class="node">
<title>Node9</title>
<g id="a_node9"><a xlink:href="gsd_8c.html#aebfeb70fcbc089409a7179af7d814554" target="_top" xlink:title=" ">
<polygon fill="none" stroke="black" points="143,-38.5 143,-57.5 280,-57.5 280,-38.5 143,-38.5"/>
<text text-anchor="middle" x="211.5" y="-45.5" font-family="Helvetica,sans-Serif" font-size="10.00">gsd_name_id_map_allocate</text>
</a>
</g>
</g>
<!-- Node1&#45;&gt;Node9 -->
<g id="edge10" class="edge">
<title>Node1&#45;&gt;Node9</title>
<path fill="none" stroke="midnightblue" d="M66.72,-114.44C83.19,-101.95 113.84,-80.14 143,-67 148.26,-64.63 153.89,-62.49 159.57,-60.56"/>
<polygon fill="midnightblue" stroke="midnightblue" points="160.64,-63.9 169.11,-57.54 158.52,-57.22 160.64,-63.9"/>
</g>
<!-- Node10 -->
<g id="node10" class="node">
<title>Node10</title>
<g id="a_node10"><a xlink:href="gsd_8c.html#a6c8c2e5a49ac4eb01a95be2e0df06eb9" target="_top" xlink:title=" ">
<polygon fill="none" stroke="black" points="147.5,-0.5 147.5,-19.5 275.5,-19.5 275.5,-0.5 147.5,-0.5"/>
<text text-anchor="middle" x="211.5" y="-7.5" font-family="Helvetica,sans-Serif" font-size="10.00">gsd_name_id_map_insert</text>
</a>
</g>
</g>
<!-- Node1&#45;&gt;Node10 -->
<g id="edge11" class="edge">
<title>Node1&#45;&gt;Node10</title>
<path fill="none" stroke="midnightblue" d="M60.79,-114.29C73.77,-95.03 105.47,-51.88 143,-29 146.57,-26.83 150.39,-24.89 154.34,-23.17"/>
<polygon fill="midnightblue" stroke="midnightblue" points="155.64,-26.42 163.71,-19.55 153.12,-19.89 155.64,-26.42"/>
</g>
<!-- Node4&#45;&gt;Node3 -->
<g id="edge4" class="edge">
<title>Node4&#45;&gt;Node3</title>
<path fill="none" stroke="midnightblue" d="M254.64,-171.59C276.88,-176.65 304.35,-182.9 327.86,-188.25"/>
<polygon fill="midnightblue" stroke="midnightblue" points="327.13,-191.67 337.66,-190.48 328.69,-184.85 327.13,-191.67"/>
</g>
<!-- Node4&#45;&gt;Node5 -->
<g id="edge5" class="edge">
<title>Node4&#45;&gt;Node5</title>
<path fill="none" stroke="midnightblue" d="M254.64,-152.41C276.88,-147.35 304.35,-141.1 327.86,-135.75"/>
<polygon fill="midnightblue" stroke="midnightblue" points="328.69,-139.15 337.66,-133.52 327.13,-132.33 328.69,-139.15"/>
</g>
<!-- Node6 -->
<g id="node6" class="node">
<title>Node6</title>
<g id="a_node6"><a xlink:href="gsd_8c.html#ab5d19295bedec41b7919caec2cb22759" target="_top" xlink:title=" ">
<polygon fill="none" stroke="black" points="331.5,-152.5 331.5,-171.5 429.5,-171.5 429.5,-152.5 331.5,-152.5"/>
<text text-anchor="middle" x="380.5" y="-159.5" font-family="Helvetica,sans-Serif" font-size="10.00">gsd_is_entry_valid</text>
</a>
</g>
</g>
<!-- Node4&#45;&gt;Node6 -->
<g id="edge6" class="edge">
<title>Node4&#45;&gt;Node6</title>
<path fill="none" stroke="midnightblue" d="M268.57,-162C285.44,-162 304,-162 321.02,-162"/>
<polygon fill="midnightblue" stroke="midnightblue" points="321.39,-165.5 331.39,-162 321.39,-158.5 321.39,-165.5"/>
</g>
<!-- Node7 -->
<g id="node7" class="node">
<title>Node7</title>
<g id="a_node7"><a xlink:href="gsd_8c.html#ab1d1a8a5f73b37df0c706f41df3bdd69" target="_top" xlink:title=" ">
<polygon fill="none" stroke="black" points="481,-152.5 481,-171.5 569,-171.5 569,-152.5 481,-152.5"/>
<text text-anchor="middle" x="525" y="-159.5" font-family="Helvetica,sans-Serif" font-size="10.00">gsd_sizeof_type</text>
</a>
</g>
</g>
<!-- Node6&#45;&gt;Node7 -->
<g id="edge7" class="edge">
<title>Node6&#45;&gt;Node7</title>
<path fill="none" stroke="midnightblue" d="M429.74,-162C442.87,-162 457.16,-162 470.56,-162"/>
<polygon fill="midnightblue" stroke="midnightblue" points="470.59,-165.5 480.59,-162 470.59,-158.5 470.59,-165.5"/>
</g>
<!-- Node11 -->
<g id="node11" class="node">
<title>Node11</title>
<g id="a_node11"><a xlink:href="gsd_8c.html#a6d8087323ec29c58d907b9462b4a31da" target="_top" xlink:title=" ">
<polygon fill="none" stroke="black" points="343,-0.5 343,-19.5 418,-19.5 418,-0.5 343,-0.5"/>
<text text-anchor="middle" x="380.5" y="-7.5" font-family="Helvetica,sans-Serif" font-size="10.00">gsd_hash_str</text>
</a>
</g>
</g>
<!-- Node10&#45;&gt;Node11 -->
<g id="edge12" class="edge">
<title>Node10&#45;&gt;Node11</title>
<path fill="none" stroke="midnightblue" d="M275.64,-10C294.63,-10 315.12,-10 332.84,-10"/>
<polygon fill="midnightblue" stroke="midnightblue" points="332.93,-13.5 342.93,-10 332.93,-6.5 332.93,-13.5"/>
</g>
</g>
</svg>
