<?xml version="1.0" encoding="UTF-8" standalone="no"?>
<!DOCTYPE svg PUBLIC "-//W3C//DTD SVG 1.1//EN"
 "http://www.w3.org/Graphics/SVG/1.1/DTD/svg11.dtd">
<!-- Generated by graphviz version 2.49.1 (20210923.0004)
 -->
<!-- Title: gsd_open Pages: 1 -->
<svg width="198pt" height="66pt"
 viewBox="0.00 0.00 198.00 66.00" xmlns="http://www.w3.org/2000/svg" xmlns:xlink="http://www.w3.org/1999/xlink">
<g id="graph0" class="graph" transform="scale(1 1) rotate(0) translate(4 62)">
<title>gsd_open</title>
<!-- Node1 -->
<g id="node1" class="node">
<title>Node1</title>
<g id="a_node1"><a xlink:title=" ">
<polygon fill="#bfbfbf" stroke="black" points="130,-19.5 130,-38.5 190,-38.5 190,-19.5 130,-19.5"/>
<text text-anchor="middle" x="160" y="-26.5" font-family="Helvetica,sans-Serif" font-size="10.00">gsd_open</text>
</a>
</g>
</g>
<!-- Node2 -->
<g id="node2" class="node">
<title>Node2</title>
<g id="a_node2"><a xlink:href="classGSDUtil.html#a2567bdb7f5952a76984552e0591fa330" target="_top" xlink:title=" ">
<polygon fill="none" stroke="black" points="0,-38.5 0,-57.5 94,-57.5 94,-38.5 0,-38.5"/>
<text text-anchor="middle" x="47" y="-45.5" font-family="Helvetica,sans-Serif" font-size="10.00">GSDUtil::GSDUtil</text>
</a>
</g>
</g>
<!-- Node1&#45;&gt;Node2 -->
<g id="edge1" class="edge">
<title>Node1&#45;&gt;Node2</title>
<path fill="none" stroke="midnightblue" d="M119.7,-35.73C111.44,-37.14 102.64,-38.65 94.14,-40.1"/>
<polygon fill="midnightblue" stroke="midnightblue" points="120.57,-39.13 129.84,-33.99 119.39,-32.23 120.57,-39.13"/>
</g>
<!-- Node3 -->
<g id="node3" class="node">
<title>Node3</title>
<g id="a_node3"><a xlink:href="testsSimulationBuild_8cpp.html#ac2b102ba50512565940601db33c64cf2" target="_top" xlink:title=" ">
<polygon fill="none" stroke="black" points="9.5,-0.5 9.5,-19.5 84.5,-19.5 84.5,-0.5 9.5,-0.5"/>
<text text-anchor="middle" x="47" y="-7.5" font-family="Helvetica,sans-Serif" font-size="10.00">TEST_CASE</text>
</a>
</g>
</g>
<!-- Node1&#45;&gt;Node3 -->
<g id="edge2" class="edge">
<title>Node1&#45;&gt;Node3</title>
<path fill="none" stroke="midnightblue" d="M119.67,-22.27C108.23,-20.31 95.78,-18.18 84.52,-16.25"/>
<polygon fill="midnightblue" stroke="midnightblue" points="119.39,-25.77 129.84,-24.01 120.57,-18.87 119.39,-25.77"/>
</g>
</g>
</svg>
