<?xml version="1.0" encoding="UTF-8" standalone="no"?>
<!DOCTYPE svg PUBLIC "-//W3C//DTD SVG 1.1//EN"
 "http://www.w3.org/Graphics/SVG/1.1/DTD/svg11.dtd">
<!-- Generated by graphviz version 2.43.0 (0)
 -->
<!-- Title: gsd_upgrade Pages: 1 -->
<svg width="735pt" height="493pt"
 viewBox="0.00 0.00 735.00 493.00" xmlns="http://www.w3.org/2000/svg" xmlns:xlink="http://www.w3.org/1999/xlink">
<g id="graph0" class="graph" transform="scale(1 1) rotate(0) translate(4 489)">
<title>gsd_upgrade</title>
<!-- Node1 -->
<g id="node1" class="node">
<title>Node1</title>
<g id="a_node1"><a xlink:title=" ">
<polygon fill="#bfbfbf" stroke="black" points="0,-275.5 0,-294.5 72,-294.5 72,-275.5 0,-275.5"/>
<text text-anchor="middle" x="36" y="-282.5" font-family="Helvetica,sans-Serif" font-size="10.00">gsd_upgrade</text>
</a>
</g>
</g>
<!-- Node2 -->
<g id="node2" class="node">
<title>Node2</title>
<g id="a_node2"><a xlink:href="gsd_8c.html#aeaf487909ab334303fa478cf4a126d6f" target="_top" xlink:title=" ">
<polygon fill="none" stroke="black" points="125,-465.5 125,-484.5 250,-484.5 250,-465.5 125,-465.5"/>
<text text-anchor="middle" x="187.5" y="-472.5" font-family="Helvetica,sans-Serif" font-size="10.00">gsd_byte_buffer_allocate</text>
</a>
</g>
</g>
<!-- Node1&#45;&gt;Node2 -->
<g id="edge1" class="edge">
<title>Node1&#45;&gt;Node2</title>
<path fill="none" stroke="midnightblue" d="M38.03,-294.91C41.64,-324.34 56.45,-411.92 108,-456 110.43,-458.07 113.04,-459.93 115.79,-461.59"/>
<polygon fill="midnightblue" stroke="midnightblue" points="114.48,-464.85 124.98,-466.25 117.65,-458.6 114.48,-464.85"/>
</g>
<!-- Node3 -->
<g id="node3" class="node">
<title>Node3</title>
<g id="a_node3"><a xlink:href="gsd_8c.html#a7a717f9dafe011e68434e181c76253af" target="_top" xlink:title=" ">
<polygon fill="none" stroke="black" points="126.5,-427.5 126.5,-446.5 248.5,-446.5 248.5,-427.5 126.5,-427.5"/>
<text text-anchor="middle" x="187.5" y="-434.5" font-family="Helvetica,sans-Serif" font-size="10.00">gsd_byte_buffer_append</text>
</a>
</g>
</g>
<!-- Node1&#45;&gt;Node3 -->
<g id="edge2" class="edge">
<title>Node1&#45;&gt;Node3</title>
<path fill="none" stroke="midnightblue" d="M39.61,-294.66C46.55,-318.47 67.71,-380.38 108,-413 113.28,-417.28 119.32,-420.79 125.66,-423.69"/>
<polygon fill="midnightblue" stroke="midnightblue" points="124.5,-426.99 135.09,-427.49 127.12,-420.5 124.5,-426.99"/>
</g>
<!-- Node4 -->
<g id="node4" class="node">
<title>Node4</title>
<g id="a_node4"><a xlink:href="gsd_8c.html#a9b05d58560daee2512f03bedf7b2926d" target="_top" xlink:title=" ">
<polygon fill="none" stroke="black" points="310,-370.5 310,-389.5 425,-389.5 425,-370.5 310,-370.5"/>
<text text-anchor="middle" x="367.5" y="-377.5" font-family="Helvetica,sans-Serif" font-size="10.00">gsd_util_zero_memory</text>
</a>
</g>
</g>
<!-- Node1&#45;&gt;Node4 -->
<g id="edge27" class="edge">
<title>Node1&#45;&gt;Node4</title>
<path fill="none" stroke="midnightblue" d="M40.67,-294.61C49.01,-314.9 71.55,-361.74 108,-380 175.85,-414 266.85,-403.08 320.82,-391.75"/>
<polygon fill="midnightblue" stroke="midnightblue" points="321.76,-395.13 330.77,-389.57 320.26,-388.29 321.76,-395.13"/>
</g>
<!-- Node5 -->
<g id="node5" class="node">
<title>Node5</title>
<g id="a_node5"><a xlink:href="gsd_8c.html#ae50726c30c5bf629b6af1ef88020302f" target="_top" xlink:title=" ">
<polygon fill="none" stroke="black" points="134,-351.5 134,-370.5 241,-370.5 241,-351.5 134,-351.5"/>
<text text-anchor="middle" x="187.5" y="-358.5" font-family="Helvetica,sans-Serif" font-size="10.00">gsd_byte_buffer_free</text>
</a>
</g>
</g>
<!-- Node1&#45;&gt;Node5 -->
<g id="edge4" class="edge">
<title>Node1&#45;&gt;Node5</title>
<path fill="none" stroke="midnightblue" d="M46.15,-294.62C58.84,-307.39 83.03,-329.72 108,-342 113.03,-344.47 118.41,-346.64 123.9,-348.53"/>
<polygon fill="midnightblue" stroke="midnightblue" points="123.27,-352 133.86,-351.65 125.36,-345.32 123.27,-352"/>
</g>
<!-- Node6 -->
<g id="node6" class="node">
<title>Node6</title>
<g id="a_node6"><a xlink:href="gsd_8c.html#a081b6fad5e27f4f8cfabd0030af7ebf5" target="_top" xlink:title=" ">
<polygon fill="none" stroke="black" points="108,-275.5 108,-294.5 267,-294.5 267,-275.5 108,-275.5"/>
<text text-anchor="middle" x="187.5" y="-282.5" font-family="Helvetica,sans-Serif" font-size="10.00">gsd_find_matching_chunk_name</text>
</a>
</g>
</g>
<!-- Node1&#45;&gt;Node6 -->
<g id="edge6" class="edge">
<title>Node1&#45;&gt;Node6</title>
<path fill="none" stroke="midnightblue" d="M72.05,-285C79.95,-285 88.69,-285 97.7,-285"/>
<polygon fill="midnightblue" stroke="midnightblue" points="97.98,-288.5 107.98,-285 97.98,-281.5 97.98,-288.5"/>
</g>
<!-- Node7 -->
<g id="node7" class="node">
<title>Node7</title>
<g id="a_node7"><a xlink:href="gsd_8c.html#a493ef951956c9f98adff89a80ddb3fa6" target="_top" xlink:title=" ">
<polygon fill="none" stroke="black" points="318.5,-266.5 318.5,-285.5 416.5,-285.5 416.5,-266.5 318.5,-266.5"/>
<text text-anchor="middle" x="367.5" y="-273.5" font-family="Helvetica,sans-Serif" font-size="10.00">gsd_make_version</text>
</a>
</g>
</g>
<!-- Node1&#45;&gt;Node7 -->
<g id="edge26" class="edge">
<title>Node1&#45;&gt;Node7</title>
<path fill="none" stroke="midnightblue" d="M65.67,-275.5C78.47,-271.73 93.83,-267.86 108,-266 176.25,-257.03 255.45,-262.38 308.01,-268.13"/>
<polygon fill="midnightblue" stroke="midnightblue" points="307.83,-271.63 318.16,-269.28 308.61,-264.67 307.83,-271.63"/>
</g>
<!-- Node8 -->
<g id="node8" class="node">
<title>Node8</title>
<g id="a_node8"><a xlink:href="gsd_8c.html#ae1948c93f77d642c4e3797fe7e5f2095" target="_top" xlink:title=" ">
<polygon fill="none" stroke="black" points="303,-218.5 303,-237.5 432,-237.5 432,-218.5 303,-218.5"/>
<text text-anchor="middle" x="367.5" y="-225.5" font-family="Helvetica,sans-Serif" font-size="10.00">gsd_index_buffer_allocate</text>
</a>
</g>
</g>
<!-- Node1&#45;&gt;Node8 -->
<g id="edge8" class="edge">
<title>Node1&#45;&gt;Node8</title>
<path fill="none" stroke="midnightblue" d="M57.04,-275.45C71.01,-269.2 90.25,-261.41 108,-257 169.22,-241.78 240.59,-234.54 292.82,-231.09"/>
<polygon fill="midnightblue" stroke="midnightblue" points="293.23,-234.57 303,-230.45 292.8,-227.59 293.23,-234.57"/>
</g>
<!-- Node9 -->
<g id="node9" class="node">
<title>Node9</title>
<g id="a_node9"><a xlink:href="gsd_8c.html#a9e12a38df69cf73fa771b005748cb3e5" target="_top" xlink:title=" ">
<polygon fill="none" stroke="black" points="131.5,-313.5 131.5,-332.5 243.5,-332.5 243.5,-313.5 131.5,-313.5"/>
<text text-anchor="middle" x="187.5" y="-320.5" font-family="Helvetica,sans-Serif" font-size="10.00">gsd_index_buffer_free</text>
</a>
</g>
</g>
<!-- Node1&#45;&gt;Node9 -->
<g id="edge9" class="edge">
<title>Node1&#45;&gt;Node9</title>
<path fill="none" stroke="midnightblue" d="M71.99,-294.54C83.45,-297.62 96.25,-301.01 108,-304 117.08,-306.31 126.77,-308.71 136.13,-311"/>
<polygon fill="midnightblue" stroke="midnightblue" points="135.57,-314.46 146.12,-313.42 137.22,-307.66 135.57,-314.46"/>
</g>
<!-- Node10 -->
<g id="node10" class="node">
<title>Node10</title>
<g id="a_node10"><a xlink:href="gsd_8c.html#a6fe75caf6c4df550af2455a0c40bfbdf" target="_top" xlink:title=" ">
<polygon fill="none" stroke="black" points="130.5,-161.5 130.5,-180.5 244.5,-180.5 244.5,-161.5 130.5,-161.5"/>
<text text-anchor="middle" x="187.5" y="-168.5" font-family="Helvetica,sans-Serif" font-size="10.00">gsd_index_buffer_map</text>
</a>
</g>
</g>
<!-- Node1&#45;&gt;Node10 -->
<g id="edge11" class="edge">
<title>Node1&#45;&gt;Node10</title>
<path fill="none" stroke="midnightblue" d="M42.02,-275.27C52.04,-256.83 76.29,-216.68 108,-195 114.45,-190.59 121.74,-186.97 129.22,-184"/>
<polygon fill="midnightblue" stroke="midnightblue" points="130.5,-187.25 138.73,-180.57 128.14,-180.66 130.5,-187.25"/>
</g>
<!-- Node14 -->
<g id="node14" class="node">
<title>Node14</title>
<g id="a_node14"><a xlink:href="gsd_8c.html#a6c20ccb47eed1a3ea9995a47a8eebdbd" target="_top" xlink:title=" ">
<polygon fill="none" stroke="black" points="131.5,-104.5 131.5,-123.5 243.5,-123.5 243.5,-104.5 131.5,-104.5"/>
<text text-anchor="middle" x="187.5" y="-111.5" font-family="Helvetica,sans-Serif" font-size="10.00">gsd_index_buffer_sort</text>
</a>
</g>
</g>
<!-- Node1&#45;&gt;Node14 -->
<g id="edge16" class="edge">
<title>Node1&#45;&gt;Node14</title>
<path fill="none" stroke="midnightblue" d="M39.83,-275.35C47.28,-251.49 69.5,-189 108,-152 118.89,-141.53 133.22,-133.45 146.65,-127.48"/>
<polygon fill="midnightblue" stroke="midnightblue" points="148.32,-130.58 156.21,-123.51 145.63,-124.12 148.32,-130.58"/>
</g>
<!-- Node21 -->
<g id="node21" class="node">
<title>Node21</title>
<g id="a_node21"><a xlink:href="gsd_8c.html#a3fb7746d93a1c856ca7ef64fa3548cbe" target="_top" xlink:title=" ">
<polygon fill="none" stroke="black" points="137,-66.5 137,-85.5 238,-85.5 238,-66.5 137,-66.5"/>
<text text-anchor="middle" x="187.5" y="-73.5" font-family="Helvetica,sans-Serif" font-size="10.00">gsd_io_pwrite_retry</text>
</a>
</g>
</g>
<!-- Node1&#45;&gt;Node21 -->
<g id="edge25" class="edge">
<title>Node1&#45;&gt;Node21</title>
<path fill="none" stroke="midnightblue" d="M37.55,-275.37C39.88,-244.17 51.61,-144.99 108,-95 113.55,-90.08 120.17,-86.38 127.17,-83.6"/>
<polygon fill="midnightblue" stroke="midnightblue" points="128.5,-86.85 136.88,-80.37 126.29,-80.21 128.5,-86.85"/>
</g>
<!-- Node3&#45;&gt;Node4 -->
<g id="edge3" class="edge">
<title>Node3&#45;&gt;Node4</title>
<path fill="none" stroke="midnightblue" d="M220.25,-427.48C234.56,-423.14 251.66,-417.89 267,-413 287.43,-406.49 310.13,-398.98 328.69,-392.77"/>
<polygon fill="midnightblue" stroke="midnightblue" points="329.88,-396.06 338.25,-389.57 327.66,-389.43 329.88,-396.06"/>
</g>
<!-- Node5&#45;&gt;Node4 -->
<g id="edge5" class="edge">
<title>Node5&#45;&gt;Node4</title>
<path fill="none" stroke="midnightblue" d="M241.42,-366.65C259.67,-368.6 280.34,-370.8 299.56,-372.85"/>
<polygon fill="midnightblue" stroke="midnightblue" points="299.43,-376.36 309.75,-373.94 300.18,-369.4 299.43,-376.36"/>
</g>
<!-- Node6&#45;&gt;Node7 -->
<g id="edge7" class="edge">
<title>Node6&#45;&gt;Node7</title>
<path fill="none" stroke="midnightblue" d="M267.09,-281.03C280.91,-280.33 295.06,-279.61 308.2,-278.95"/>
<polygon fill="midnightblue" stroke="midnightblue" points="308.68,-282.43 318.49,-278.43 308.33,-275.44 308.68,-282.43"/>
</g>
<!-- Node9&#45;&gt;Node4 -->
<g id="edge10" class="edge">
<title>Node9&#45;&gt;Node4</title>
<path fill="none" stroke="midnightblue" d="M232.37,-332.57C243.73,-335.34 255.89,-338.55 267,-342 289.86,-349.1 315.04,-358.73 334.35,-366.53"/>
<polygon fill="midnightblue" stroke="midnightblue" points="333.29,-369.87 343.87,-370.41 335.93,-363.39 333.29,-369.87"/>
</g>
<!-- Node10&#45;&gt;Node8 -->
<g id="edge12" class="edge">
<title>Node10&#45;&gt;Node8</title>
<path fill="none" stroke="midnightblue" d="M221.52,-180.5C235.61,-184.71 252.19,-189.86 267,-195 283.22,-200.62 286.76,-203.42 303,-209 309.43,-211.21 316.28,-213.41 323.01,-215.49"/>
<polygon fill="midnightblue" stroke="midnightblue" points="322.14,-218.89 332.73,-218.44 324.17,-212.19 322.14,-218.89"/>
</g>
<!-- Node11 -->
<g id="node11" class="node">
<title>Node11</title>
<g id="a_node11"><a xlink:href="gsd_8c.html#ac1f41abbefbfe35337e7053d766c089b" target="_top" xlink:title=" ">
<polygon fill="none" stroke="black" points="318,-180.5 318,-199.5 417,-199.5 417,-180.5 318,-180.5"/>
<text text-anchor="middle" x="367.5" y="-187.5" font-family="Helvetica,sans-Serif" font-size="10.00">gsd_io_pread_retry</text>
</a>
</g>
</g>
<!-- Node10&#45;&gt;Node11 -->
<g id="edge13" class="edge">
<title>Node10&#45;&gt;Node11</title>
<path fill="none" stroke="midnightblue" d="M244.82,-177.01C264.86,-179.15 287.47,-181.56 307.71,-183.72"/>
<polygon fill="midnightblue" stroke="midnightblue" points="307.43,-187.21 317.74,-184.8 308.17,-180.25 307.43,-187.21"/>
</g>
<!-- Node12 -->
<g id="node12" class="node">
<title>Node12</title>
<g id="a_node12"><a xlink:href="gsd_8c.html#ab5d19295bedec41b7919caec2cb22759" target="_top" xlink:title=" ">
<polygon fill="none" stroke="black" points="318.5,-142.5 318.5,-161.5 416.5,-161.5 416.5,-142.5 318.5,-142.5"/>
<text text-anchor="middle" x="367.5" y="-149.5" font-family="Helvetica,sans-Serif" font-size="10.00">gsd_is_entry_valid</text>
</a>
</g>
</g>
<!-- Node10&#45;&gt;Node12 -->
<g id="edge14" class="edge">
<title>Node10&#45;&gt;Node12</title>
<path fill="none" stroke="midnightblue" d="M244.82,-164.99C265.03,-162.83 287.86,-160.39 308.24,-158.22"/>
<polygon fill="midnightblue" stroke="midnightblue" points="308.76,-161.68 318.33,-157.14 308.02,-154.72 308.76,-161.68"/>
</g>
<!-- Node13 -->
<g id="node13" class="node">
<title>Node13</title>
<g id="a_node13"><a xlink:href="gsd_8c.html#ab1d1a8a5f73b37df0c706f41df3bdd69" target="_top" xlink:title=" ">
<polygon fill="none" stroke="black" points="479.5,-142.5 479.5,-161.5 567.5,-161.5 567.5,-142.5 479.5,-142.5"/>
<text text-anchor="middle" x="523.5" y="-149.5" font-family="Helvetica,sans-Serif" font-size="10.00">gsd_sizeof_type</text>
</a>
</g>
</g>
<!-- Node12&#45;&gt;Node13 -->
<g id="edge15" class="edge">
<title>Node12&#45;&gt;Node13</title>
<path fill="none" stroke="midnightblue" d="M416.8,-152C433.39,-152 452.04,-152 469.01,-152"/>
<polygon fill="midnightblue" stroke="midnightblue" points="469.32,-155.5 479.32,-152 469.32,-148.5 469.32,-155.5"/>
</g>
<!-- Node15 -->
<g id="node15" class="node">
<title>Node15</title>
<g id="a_node15"><a xlink:href="gsd_8c.html#accc971ec12e75a165ffef6e1ee854681" target="_top" xlink:title=" ">
<polygon fill="none" stroke="black" points="468,-28.5 468,-47.5 579,-47.5 579,-28.5 468,-28.5"/>
<text text-anchor="middle" x="523.5" y="-35.5" font-family="Helvetica,sans-Serif" font-size="10.00">gsd_heap_shift_down</text>
</a>
</g>
</g>
<!-- Node14&#45;&gt;Node15 -->
<g id="edge17" class="edge">
<title>Node14&#45;&gt;Node15</title>
<path fill="none" stroke="midnightblue" d="M243.69,-104.93C251.81,-102.39 259.84,-99.15 267,-95 287.13,-83.34 282.05,-67.11 303,-57 351.21,-33.75 412.29,-30.24 457.77,-31.84"/>
<polygon fill="midnightblue" stroke="midnightblue" points="457.66,-35.33 467.81,-32.28 457.97,-28.34 457.66,-35.33"/>
</g>
<!-- Node18 -->
<g id="node18" class="node">
<title>Node18</title>
<g id="a_node18"><a xlink:href="gsd_8c.html#a987a1d460f7ca33476fc57bcc1ff8439" target="_top" xlink:title=" ">
<polygon fill="none" stroke="black" points="627.5,-95.5 627.5,-114.5 714.5,-114.5 714.5,-95.5 627.5,-95.5"/>
<text text-anchor="middle" x="671" y="-102.5" font-family="Helvetica,sans-Serif" font-size="10.00">gsd_heap_swap</text>
</a>
</g>
</g>
<!-- Node14&#45;&gt;Node18 -->
<g id="edge21" class="edge">
<title>Node14&#45;&gt;Node18</title>
<path fill="none" stroke="midnightblue" d="M243.73,-112.97C337.21,-111.22 525.36,-107.7 617.18,-105.99"/>
<polygon fill="midnightblue" stroke="midnightblue" points="617.42,-109.48 627.36,-105.8 617.29,-102.48 617.42,-109.48"/>
</g>
<!-- Node19 -->
<g id="node19" class="node">
<title>Node19</title>
<g id="a_node19"><a xlink:href="gsd_8c.html#a0de3f89cdd57571b57401c91feef2f66" target="_top" xlink:title=" ">
<polygon fill="none" stroke="black" points="333,-66.5 333,-85.5 402,-85.5 402,-66.5 333,-66.5"/>
<text text-anchor="middle" x="367.5" y="-73.5" font-family="Helvetica,sans-Serif" font-size="10.00">gsd_heapify</text>
</a>
</g>
</g>
<!-- Node14&#45;&gt;Node19 -->
<g id="edge22" class="edge">
<title>Node14&#45;&gt;Node19</title>
<path fill="none" stroke="midnightblue" d="M233.42,-104.41C260.81,-98.56 295.67,-91.12 322.83,-85.32"/>
<polygon fill="midnightblue" stroke="midnightblue" points="323.79,-88.7 332.84,-83.19 322.33,-81.85 323.79,-88.7"/>
</g>
<!-- Node16 -->
<g id="node16" class="node">
<title>Node16</title>
<g id="a_node16"><a xlink:href="gsd_8c.html#a3ffe758eed9a5bae487f514a0a45e97d" target="_top" xlink:title=" ">
<polygon fill="none" stroke="black" points="615,-38.5 615,-57.5 727,-57.5 727,-38.5 615,-38.5"/>
<text text-anchor="middle" x="671" y="-45.5" font-family="Helvetica,sans-Serif" font-size="10.00">gsd_cmp_index_entry</text>
</a>
</g>
</g>
<!-- Node15&#45;&gt;Node16 -->
<g id="edge18" class="edge">
<title>Node15&#45;&gt;Node16</title>
<path fill="none" stroke="midnightblue" d="M579.09,-41.75C587.35,-42.32 595.94,-42.91 604.39,-43.49"/>
<polygon fill="midnightblue" stroke="midnightblue" points="604.4,-47 614.62,-44.19 604.88,-40.02 604.4,-47"/>
</g>
<!-- Node17 -->
<g id="node17" class="node">
<title>Node17</title>
<g id="a_node17"><a xlink:href="gsd_8c.html#aaec0ae1e441692725a568aee8c8ef627" target="_top" xlink:title=" ">
<polygon fill="none" stroke="black" points="619.5,-0.5 619.5,-19.5 722.5,-19.5 722.5,-0.5 619.5,-0.5"/>
<text text-anchor="middle" x="671" y="-7.5" font-family="Helvetica,sans-Serif" font-size="10.00">gsd_heap_left_child</text>
</a>
</g>
</g>
<!-- Node15&#45;&gt;Node17 -->
<g id="edge19" class="edge">
<title>Node15&#45;&gt;Node17</title>
<path fill="none" stroke="midnightblue" d="M574.17,-28.44C585.87,-26.19 598.47,-23.77 610.55,-21.44"/>
<polygon fill="midnightblue" stroke="midnightblue" points="611.4,-24.84 620.56,-19.51 610.08,-17.97 611.4,-24.84"/>
</g>
<!-- Node15&#45;&gt;Node18 -->
<g id="edge20" class="edge">
<title>Node15&#45;&gt;Node18</title>
<path fill="none" stroke="midnightblue" d="M554.51,-47.56C562.56,-50.37 571.19,-53.6 579,-57 601.87,-66.95 626.87,-80.33 644.87,-90.44"/>
<polygon fill="midnightblue" stroke="midnightblue" points="643.17,-93.5 653.6,-95.39 646.63,-87.41 643.17,-93.5"/>
</g>
<!-- Node19&#45;&gt;Node15 -->
<g id="edge24" class="edge">
<title>Node19&#45;&gt;Node15</title>
<path fill="none" stroke="midnightblue" d="M402.3,-67.66C423.37,-62.46 450.82,-55.69 474.17,-49.92"/>
<polygon fill="midnightblue" stroke="midnightblue" points="475.03,-53.32 483.9,-47.52 473.35,-46.52 475.03,-53.32"/>
</g>
<!-- Node20 -->
<g id="node20" class="node">
<title>Node20</title>
<g id="a_node20"><a xlink:href="gsd_8c.html#ab7b8e133941184a32c2d90414dfba6a5" target="_top" xlink:title=" ">
<polygon fill="none" stroke="black" points="478,-66.5 478,-85.5 569,-85.5 569,-66.5 478,-66.5"/>
<text text-anchor="middle" x="523.5" y="-73.5" font-family="Helvetica,sans-Serif" font-size="10.00">gsd_heap_parent</text>
</a>
</g>
</g>
<!-- Node19&#45;&gt;Node20 -->
<g id="edge23" class="edge">
<title>Node19&#45;&gt;Node20</title>
<path fill="none" stroke="midnightblue" d="M402.3,-76C421.48,-76 445.96,-76 467.81,-76"/>
<polygon fill="midnightblue" stroke="midnightblue" points="467.96,-79.5 477.96,-76 467.96,-72.5 467.96,-79.5"/>
</g>
</g>
</svg>
