<?xml version="1.0" encoding="UTF-8" standalone="no"?>
<!DOCTYPE svg PUBLIC "-//W3C//DTD SVG 1.1//EN"
 "http://www.w3.org/Graphics/SVG/1.1/DTD/svg11.dtd">
<!-- Generated by graphviz version 2.43.0 (0)
 -->
<!-- Title: gsd_truncate Pages: 1 -->
<svg width="699pt" height="332pt"
 viewBox="0.00 0.00 699.00 332.00" xmlns="http://www.w3.org/2000/svg" xmlns:xlink="http://www.w3.org/1999/xlink">
<g id="graph0" class="graph" transform="scale(1 1) rotate(0) translate(4 328)">
<title>gsd_truncate</title>
<!-- Node1 -->
<g id="node1" class="node">
<title>Node1</title>
<g id="a_node1"><a xlink:title=" ">
<polygon fill="#bfbfbf" stroke="black" points="0,-228.5 0,-247.5 73,-247.5 73,-228.5 0,-228.5"/>
<text text-anchor="middle" x="36.5" y="-235.5" font-family="Helvetica,sans-Serif" font-size="10.00">gsd_truncate</text>
</a>
</g>
</g>
<!-- Node2 -->
<g id="node2" class="node">
<title>Node2</title>
<g id="a_node2"><a xlink:href="gsd_8c.html#ae50726c30c5bf629b6af1ef88020302f" target="_top" xlink:title=" ">
<polygon fill="none" stroke="black" points="115.5,-304.5 115.5,-323.5 222.5,-323.5 222.5,-304.5 115.5,-304.5"/>
<text text-anchor="middle" x="169" y="-311.5" font-family="Helvetica,sans-Serif" font-size="10.00">gsd_byte_buffer_free</text>
</a>
</g>
</g>
<!-- Node1&#45;&gt;Node2 -->
<g id="edge1" class="edge">
<title>Node1&#45;&gt;Node2</title>
<path fill="none" stroke="midnightblue" d="M47.32,-247.78C60.37,-260.3 84.66,-281.94 109,-295 113,-297.15 117.29,-299.1 121.66,-300.87"/>
<polygon fill="midnightblue" stroke="midnightblue" points="120.68,-304.24 131.27,-304.45 123.12,-297.68 120.68,-304.24"/>
</g>
<!-- Node4 -->
<g id="node4" class="node">
<title>Node4</title>
<g id="a_node4"><a xlink:href="gsd_8c.html#a9e12a38df69cf73fa771b005748cb3e5" target="_top" xlink:title=" ">
<polygon fill="none" stroke="black" points="113,-266.5 113,-285.5 225,-285.5 225,-266.5 113,-266.5"/>
<text text-anchor="middle" x="169" y="-273.5" font-family="Helvetica,sans-Serif" font-size="10.00">gsd_index_buffer_free</text>
</a>
</g>
</g>
<!-- Node1&#45;&gt;Node4 -->
<g id="edge3" class="edge">
<title>Node1&#45;&gt;Node4</title>
<path fill="none" stroke="midnightblue" d="M70.43,-247.59C87.12,-252.45 107.59,-258.41 125.46,-263.61"/>
<polygon fill="midnightblue" stroke="midnightblue" points="124.5,-266.98 135.08,-266.41 126.46,-260.26 124.5,-266.98"/>
</g>
<!-- Node5 -->
<g id="node5" class="node">
<title>Node5</title>
<g id="a_node5"><a xlink:href="gsd_8c.html#acb769baf09c31a5ad6cba95bd348c194" target="_top" xlink:title=" ">
<polygon fill="none" stroke="black" points="123.5,-228.5 123.5,-247.5 214.5,-247.5 214.5,-228.5 123.5,-228.5"/>
<text text-anchor="middle" x="169" y="-235.5" font-family="Helvetica,sans-Serif" font-size="10.00">gsd_initialize_file</text>
</a>
</g>
</g>
<!-- Node1&#45;&gt;Node5 -->
<g id="edge5" class="edge">
<title>Node1&#45;&gt;Node5</title>
<path fill="none" stroke="midnightblue" d="M73.16,-238C85.43,-238 99.47,-238 112.91,-238"/>
<polygon fill="midnightblue" stroke="midnightblue" points="113.04,-241.5 123.04,-238 113.04,-234.5 113.04,-241.5"/>
</g>
<!-- Node8 -->
<g id="node8" class="node">
<title>Node8</title>
<g id="a_node8"><a xlink:href="gsd_8c.html#ac159dfbfd790607f85073ad2d8464a8b" target="_top" xlink:title=" ">
<polygon fill="none" stroke="black" points="115.5,-152.5 115.5,-171.5 222.5,-171.5 222.5,-152.5 115.5,-152.5"/>
<text text-anchor="middle" x="169" y="-159.5" font-family="Helvetica,sans-Serif" font-size="10.00">gsd_initialize_handle</text>
</a>
</g>
</g>
<!-- Node1&#45;&gt;Node8 -->
<g id="edge9" class="edge">
<title>Node1&#45;&gt;Node8</title>
<path fill="none" stroke="midnightblue" d="M54.03,-228.37C76.38,-215.35 116.47,-192.01 142.65,-176.76"/>
<polygon fill="midnightblue" stroke="midnightblue" points="144.73,-179.6 151.61,-171.55 141.2,-173.56 144.73,-179.6"/>
</g>
<!-- Node18 -->
<g id="node18" class="node">
<title>Node18</title>
<g id="a_node18"><a xlink:href="gsd_8c.html#a8249dc854c432e55e8ee07a8d3e8546c" target="_top" xlink:title=" ">
<polygon fill="none" stroke="black" points="109,-114.5 109,-133.5 229,-133.5 229,-114.5 109,-114.5"/>
<text text-anchor="middle" x="169" y="-121.5" font-family="Helvetica,sans-Serif" font-size="10.00">gsd_name_id_map_free</text>
</a>
</g>
</g>
<!-- Node1&#45;&gt;Node18 -->
<g id="edge22" class="edge">
<title>Node1&#45;&gt;Node18</title>
<path fill="none" stroke="midnightblue" d="M42.16,-228.36C51.89,-209.24 76.21,-166.34 109,-143 111.72,-141.07 114.64,-139.32 117.68,-137.75"/>
<polygon fill="midnightblue" stroke="midnightblue" points="119.38,-140.82 127.07,-133.53 116.51,-134.44 119.38,-140.82"/>
</g>
<!-- Node3 -->
<g id="node3" class="node">
<title>Node3</title>
<g id="a_node3"><a xlink:href="gsd_8c.html#a9b05d58560daee2512f03bedf7b2926d" target="_top" xlink:title=" ">
<polygon fill="none" stroke="black" points="276,-304.5 276,-323.5 391,-323.5 391,-304.5 276,-304.5"/>
<text text-anchor="middle" x="333.5" y="-311.5" font-family="Helvetica,sans-Serif" font-size="10.00">gsd_util_zero_memory</text>
</a>
</g>
</g>
<!-- Node2&#45;&gt;Node3 -->
<g id="edge2" class="edge">
<title>Node2&#45;&gt;Node3</title>
<path fill="none" stroke="midnightblue" d="M222.76,-314C236.41,-314 251.28,-314 265.55,-314"/>
<polygon fill="midnightblue" stroke="midnightblue" points="265.8,-317.5 275.8,-314 265.8,-310.5 265.8,-317.5"/>
</g>
<!-- Node4&#45;&gt;Node3 -->
<g id="edge4" class="edge">
<title>Node4&#45;&gt;Node3</title>
<path fill="none" stroke="midnightblue" d="M211.01,-285.59C232.55,-290.63 259.13,-296.84 281.94,-302.18"/>
<polygon fill="midnightblue" stroke="midnightblue" points="281.25,-305.61 291.79,-304.48 282.85,-298.79 281.25,-305.61"/>
</g>
<!-- Node5&#45;&gt;Node3 -->
<g id="edge8" class="edge">
<title>Node5&#45;&gt;Node3</title>
<path fill="none" stroke="midnightblue" d="M209.33,-247.61C216.16,-250.12 222.99,-253.22 229,-257 248.69,-269.4 245.09,-282.97 265,-295 268.58,-297.16 272.41,-299.08 276.36,-300.79"/>
<polygon fill="midnightblue" stroke="midnightblue" points="275.15,-304.08 285.74,-304.41 277.66,-297.54 275.15,-304.08"/>
</g>
<!-- Node6 -->
<g id="node6" class="node">
<title>Node6</title>
<g id="a_node6"><a xlink:href="gsd_8c.html#a3fb7746d93a1c856ca7ef64fa3548cbe" target="_top" xlink:title=" ">
<polygon fill="none" stroke="black" points="283,-266.5 283,-285.5 384,-285.5 384,-266.5 283,-266.5"/>
<text text-anchor="middle" x="333.5" y="-273.5" font-family="Helvetica,sans-Serif" font-size="10.00">gsd_io_pwrite_retry</text>
</a>
</g>
</g>
<!-- Node5&#45;&gt;Node6 -->
<g id="edge6" class="edge">
<title>Node5&#45;&gt;Node6</title>
<path fill="none" stroke="midnightblue" d="M211.01,-247.59C232.55,-252.63 259.13,-258.84 281.94,-264.18"/>
<polygon fill="midnightblue" stroke="midnightblue" points="281.25,-267.61 291.79,-266.48 282.85,-260.79 281.25,-267.61"/>
</g>
<!-- Node7 -->
<g id="node7" class="node">
<title>Node7</title>
<g id="a_node7"><a xlink:href="gsd_8c.html#a493ef951956c9f98adff89a80ddb3fa6" target="_top" xlink:title=" ">
<polygon fill="none" stroke="black" points="284.5,-228.5 284.5,-247.5 382.5,-247.5 382.5,-228.5 284.5,-228.5"/>
<text text-anchor="middle" x="333.5" y="-235.5" font-family="Helvetica,sans-Serif" font-size="10.00">gsd_make_version</text>
</a>
</g>
</g>
<!-- Node5&#45;&gt;Node7 -->
<g id="edge7" class="edge">
<title>Node5&#45;&gt;Node7</title>
<path fill="none" stroke="midnightblue" d="M214.83,-238C233.23,-238 254.77,-238 274.36,-238"/>
<polygon fill="midnightblue" stroke="midnightblue" points="274.4,-241.5 284.4,-238 274.4,-234.5 274.4,-241.5"/>
</g>
<!-- Node8&#45;&gt;Node7 -->
<g id="edge18" class="edge">
<title>Node8&#45;&gt;Node7</title>
<path fill="none" stroke="midnightblue" d="M183.23,-171.5C201.05,-183.92 234.1,-205.66 265,-219 270.44,-221.35 276.26,-223.49 282.1,-225.42"/>
<polygon fill="midnightblue" stroke="midnightblue" points="281.33,-228.84 291.91,-228.47 283.4,-222.16 281.33,-228.84"/>
</g>
<!-- Node9 -->
<g id="node9" class="node">
<title>Node9</title>
<g id="a_node9"><a xlink:href="gsd_8c.html#aeaf487909ab334303fa478cf4a126d6f" target="_top" xlink:title=" ">
<polygon fill="none" stroke="black" points="271,-190.5 271,-209.5 396,-209.5 396,-190.5 271,-190.5"/>
<text text-anchor="middle" x="333.5" y="-197.5" font-family="Helvetica,sans-Serif" font-size="10.00">gsd_byte_buffer_allocate</text>
</a>
</g>
</g>
<!-- Node8&#45;&gt;Node9 -->
<g id="edge10" class="edge">
<title>Node8&#45;&gt;Node9</title>
<path fill="none" stroke="midnightblue" d="M211.01,-171.59C232.55,-176.63 259.13,-182.84 281.94,-188.18"/>
<polygon fill="midnightblue" stroke="midnightblue" points="281.25,-191.61 291.79,-190.48 282.85,-184.79 281.25,-191.61"/>
</g>
<!-- Node10 -->
<g id="node10" class="node">
<title>Node10</title>
<g id="a_node10"><a xlink:href="gsd_8c.html#ae1948c93f77d642c4e3797fe7e5f2095" target="_top" xlink:title=" ">
<polygon fill="none" stroke="black" points="438,-152.5 438,-171.5 567,-171.5 567,-152.5 438,-152.5"/>
<text text-anchor="middle" x="502.5" y="-159.5" font-family="Helvetica,sans-Serif" font-size="10.00">gsd_index_buffer_allocate</text>
</a>
</g>
</g>
<!-- Node8&#45;&gt;Node10 -->
<g id="edge11" class="edge">
<title>Node8&#45;&gt;Node10</title>
<path fill="none" stroke="midnightblue" d="M222.53,-162C277.87,-162 365.46,-162 427.72,-162"/>
<polygon fill="midnightblue" stroke="midnightblue" points="427.88,-165.5 437.88,-162 427.88,-158.5 427.88,-165.5"/>
</g>
<!-- Node11 -->
<g id="node11" class="node">
<title>Node11</title>
<g id="a_node11"><a xlink:href="gsd_8c.html#a6fe75caf6c4df550af2455a0c40bfbdf" target="_top" xlink:title=" ">
<polygon fill="none" stroke="black" points="276.5,-114.5 276.5,-133.5 390.5,-133.5 390.5,-114.5 276.5,-114.5"/>
<text text-anchor="middle" x="333.5" y="-121.5" font-family="Helvetica,sans-Serif" font-size="10.00">gsd_index_buffer_map</text>
</a>
</g>
</g>
<!-- Node8&#45;&gt;Node11 -->
<g id="edge12" class="edge">
<title>Node8&#45;&gt;Node11</title>
<path fill="none" stroke="midnightblue" d="M211.01,-152.41C232.55,-147.37 259.13,-141.16 281.94,-135.82"/>
<polygon fill="midnightblue" stroke="midnightblue" points="282.85,-139.21 291.79,-133.52 281.25,-132.39 282.85,-139.21"/>
</g>
<!-- Node12 -->
<g id="node12" class="node">
<title>Node12</title>
<g id="a_node12"><a xlink:href="gsd_8c.html#ac1f41abbefbfe35337e7053d766c089b" target="_top" xlink:title=" ">
<polygon fill="none" stroke="black" points="453,-76.5 453,-95.5 552,-95.5 552,-76.5 453,-76.5"/>
<text text-anchor="middle" x="502.5" y="-83.5" font-family="Helvetica,sans-Serif" font-size="10.00">gsd_io_pread_retry</text>
</a>
</g>
</g>
<!-- Node8&#45;&gt;Node12 -->
<g id="edge17" class="edge">
<title>Node8&#45;&gt;Node12</title>
<path fill="none" stroke="midnightblue" d="M209.33,-152.39C216.16,-149.88 222.99,-146.78 229,-143 248.69,-130.6 244.01,-115.04 265,-105 320.85,-78.28 392.65,-76.38 442.41,-79.38"/>
<polygon fill="midnightblue" stroke="midnightblue" points="442.46,-82.89 452.68,-80.08 442.94,-75.9 442.46,-82.89"/>
</g>
<!-- Node15 -->
<g id="node15" class="node">
<title>Node15</title>
<g id="a_node15"><a xlink:href="gsd_8c.html#aebfeb70fcbc089409a7179af7d814554" target="_top" xlink:title=" ">
<polygon fill="none" stroke="black" points="265,-38.5 265,-57.5 402,-57.5 402,-38.5 265,-38.5"/>
<text text-anchor="middle" x="333.5" y="-45.5" font-family="Helvetica,sans-Serif" font-size="10.00">gsd_name_id_map_allocate</text>
</a>
</g>
</g>
<!-- Node8&#45;&gt;Node15 -->
<g id="edge19" class="edge">
<title>Node8&#45;&gt;Node15</title>
<path fill="none" stroke="midnightblue" d="M213.37,-152.49C219.01,-150.02 224.42,-146.91 229,-143 255.91,-120.03 238.44,-95.37 265,-72 269.72,-67.85 275.2,-64.4 280.97,-61.54"/>
<polygon fill="midnightblue" stroke="midnightblue" points="282.43,-64.72 290.19,-57.51 279.63,-58.31 282.43,-64.72"/>
</g>
<!-- Node16 -->
<g id="node16" class="node">
<title>Node16</title>
<g id="a_node16"><a xlink:href="gsd_8c.html#a6c8c2e5a49ac4eb01a95be2e0df06eb9" target="_top" xlink:title=" ">
<polygon fill="none" stroke="black" points="269.5,-0.5 269.5,-19.5 397.5,-19.5 397.5,-0.5 269.5,-0.5"/>
<text text-anchor="middle" x="333.5" y="-7.5" font-family="Helvetica,sans-Serif" font-size="10.00">gsd_name_id_map_insert</text>
</a>
</g>
</g>
<!-- Node8&#45;&gt;Node16 -->
<g id="edge20" class="edge">
<title>Node8&#45;&gt;Node16</title>
<path fill="none" stroke="midnightblue" d="M215.46,-152.45C220.46,-149.99 225.13,-146.89 229,-143 266.46,-105.32 226.84,-65.97 265,-29 266.63,-27.42 268.39,-25.96 270.24,-24.63"/>
<polygon fill="midnightblue" stroke="midnightblue" points="272.05,-27.62 278.87,-19.51 268.49,-21.6 272.05,-27.62"/>
</g>
<!-- Node11&#45;&gt;Node10 -->
<g id="edge13" class="edge">
<title>Node11&#45;&gt;Node10</title>
<path fill="none" stroke="midnightblue" d="M376.64,-133.59C398.88,-138.65 426.35,-144.9 449.86,-150.25"/>
<polygon fill="midnightblue" stroke="midnightblue" points="449.13,-153.67 459.66,-152.48 450.69,-146.85 449.13,-153.67"/>
</g>
<!-- Node11&#45;&gt;Node12 -->
<g id="edge14" class="edge">
<title>Node11&#45;&gt;Node12</title>
<path fill="none" stroke="midnightblue" d="M376.64,-114.41C398.88,-109.35 426.35,-103.1 449.86,-97.75"/>
<polygon fill="midnightblue" stroke="midnightblue" points="450.69,-101.15 459.66,-95.52 449.13,-94.33 450.69,-101.15"/>
</g>
<!-- Node13 -->
<g id="node13" class="node">
<title>Node13</title>
<g id="a_node13"><a xlink:href="gsd_8c.html#ab5d19295bedec41b7919caec2cb22759" target="_top" xlink:title=" ">
<polygon fill="none" stroke="black" points="453.5,-114.5 453.5,-133.5 551.5,-133.5 551.5,-114.5 453.5,-114.5"/>
<text text-anchor="middle" x="502.5" y="-121.5" font-family="Helvetica,sans-Serif" font-size="10.00">gsd_is_entry_valid</text>
</a>
</g>
</g>
<!-- Node11&#45;&gt;Node13 -->
<g id="edge15" class="edge">
<title>Node11&#45;&gt;Node13</title>
<path fill="none" stroke="midnightblue" d="M390.57,-124C407.44,-124 426,-124 443.02,-124"/>
<polygon fill="midnightblue" stroke="midnightblue" points="443.39,-127.5 453.39,-124 443.39,-120.5 443.39,-127.5"/>
</g>
<!-- Node14 -->
<g id="node14" class="node">
<title>Node14</title>
<g id="a_node14"><a xlink:href="gsd_8c.html#ab1d1a8a5f73b37df0c706f41df3bdd69" target="_top" xlink:title=" ">
<polygon fill="none" stroke="black" points="603,-114.5 603,-133.5 691,-133.5 691,-114.5 603,-114.5"/>
<text text-anchor="middle" x="647" y="-121.5" font-family="Helvetica,sans-Serif" font-size="10.00">gsd_sizeof_type</text>
</a>
</g>
</g>
<!-- Node13&#45;&gt;Node14 -->
<g id="edge16" class="edge">
<title>Node13&#45;&gt;Node14</title>
<path fill="none" stroke="midnightblue" d="M551.74,-124C564.87,-124 579.16,-124 592.56,-124"/>
<polygon fill="midnightblue" stroke="midnightblue" points="592.59,-127.5 602.59,-124 592.59,-120.5 592.59,-127.5"/>
</g>
<!-- Node17 -->
<g id="node17" class="node">
<title>Node17</title>
<g id="a_node17"><a xlink:href="gsd_8c.html#a6d8087323ec29c58d907b9462b4a31da" target="_top" xlink:title=" ">
<polygon fill="none" stroke="black" points="465,-0.5 465,-19.5 540,-19.5 540,-0.5 465,-0.5"/>
<text text-anchor="middle" x="502.5" y="-7.5" font-family="Helvetica,sans-Serif" font-size="10.00">gsd_hash_str</text>
</a>
</g>
</g>
<!-- Node16&#45;&gt;Node17 -->
<g id="edge21" class="edge">
<title>Node16&#45;&gt;Node17</title>
<path fill="none" stroke="midnightblue" d="M397.64,-10C416.63,-10 437.12,-10 454.84,-10"/>
<polygon fill="midnightblue" stroke="midnightblue" points="454.93,-13.5 464.93,-10 454.93,-6.5 454.93,-13.5"/>
</g>
</g>
</svg>
