<?xml version="1.0" encoding="UTF-8" standalone="no"?>
<!DOCTYPE svg PUBLIC "-//W3C//DTD SVG 1.1//EN"
 "http://www.w3.org/Graphics/SVG/1.1/DTD/svg11.dtd">
<!-- Generated by graphviz version 2.43.0 (0)
 -->
<!-- Title: gsd_name_id_map_insert Pages: 1 -->
<svg width="738pt" height="180pt"
 viewBox="0.00 0.00 738.00 180.00" xmlns="http://www.w3.org/2000/svg" xmlns:xlink="http://www.w3.org/1999/xlink">
<g id="graph0" class="graph" transform="scale(1 1) rotate(0) translate(4 176)">
<title>gsd_name_id_map_insert</title>
<!-- Node1 -->
<g id="node1" class="node">
<title>Node1</title>
<g id="a_node1"><a xlink:title=" ">
<polygon fill="#bfbfbf" stroke="black" points="602,-76.5 602,-95.5 730,-95.5 730,-76.5 602,-76.5"/>
<text text-anchor="middle" x="666" y="-83.5" font-family="Helvetica,sans-Serif" font-size="10.00">gsd_name_id_map_insert</text>
</a>
</g>
</g>
<!-- Node2 -->
<g id="node2" class="node">
<title>Node2</title>
<g id="a_node2"><a xlink:href="gsd_8c.html#aa1a0a7dcf4015edcadbb47a6451b4a4b" target="_top" xlink:title=" ">
<polygon fill="none" stroke="black" points="463.5,-104.5 463.5,-123.5 561.5,-123.5 561.5,-104.5 463.5,-104.5"/>
<text text-anchor="middle" x="512.5" y="-111.5" font-family="Helvetica,sans-Serif" font-size="10.00">gsd_append_name</text>
</a>
</g>
</g>
<!-- Node1&#45;&gt;Node2 -->
<g id="edge1" class="edge">
<title>Node1&#45;&gt;Node2</title>
<path fill="none" stroke="midnightblue" d="M603.32,-97.4C589.44,-99.97 574.9,-102.65 561.67,-105.1"/>
<polygon fill="midnightblue" stroke="midnightblue" points="604.09,-100.82 613.29,-95.56 602.82,-93.93 604.09,-100.82"/>
</g>
<!-- Node8 -->
<g id="node8" class="node">
<title>Node8</title>
<g id="a_node8"><a xlink:href="gsd_8c.html#ac159dfbfd790607f85073ad2d8464a8b" target="_top" xlink:title=" ">
<polygon fill="none" stroke="black" points="459,-57.5 459,-76.5 566,-76.5 566,-57.5 459,-57.5"/>
<text text-anchor="middle" x="512.5" y="-64.5" font-family="Helvetica,sans-Serif" font-size="10.00">gsd_initialize_handle</text>
</a>
</g>
</g>
<!-- Node1&#45;&gt;Node8 -->
<g id="edge9" class="edge">
<title>Node1&#45;&gt;Node8</title>
<path fill="none" stroke="midnightblue" d="M591.57,-76.79C582.96,-75.71 574.31,-74.63 566.07,-73.59"/>
<polygon fill="midnightblue" stroke="midnightblue" points="591.27,-80.28 601.63,-78.05 592.14,-73.34 591.27,-80.28"/>
</g>
<!-- Node3 -->
<g id="node3" class="node">
<title>Node3</title>
<g id="a_node3"><a xlink:href="gsd_8h.html#ae22447904b925f284bf987fae448488a" target="_top" xlink:title=" ">
<polygon fill="none" stroke="black" points="322,-114.5 322,-133.5 412,-133.5 412,-114.5 322,-114.5"/>
<text text-anchor="middle" x="367" y="-121.5" font-family="Helvetica,sans-Serif" font-size="10.00">gsd_write_chunk</text>
</a>
</g>
</g>
<!-- Node2&#45;&gt;Node3 -->
<g id="edge2" class="edge">
<title>Node2&#45;&gt;Node3</title>
<path fill="none" stroke="midnightblue" d="M453.1,-118.07C439.52,-119.02 425.29,-120.01 412.43,-120.9"/>
<polygon fill="midnightblue" stroke="midnightblue" points="453.58,-121.54 463.32,-117.36 453.1,-114.56 453.58,-121.54"/>
</g>
<!-- Node4 -->
<g id="node4" class="node">
<title>Node4</title>
<g id="a_node4"><a xlink:href="classGSDUtil.html#a77b5ebe2817ac868ad1b171f3d7b0cae" target="_top" xlink:title="Writes header information to GSD.">
<polygon fill="none" stroke="black" points="153.5,-152.5 153.5,-171.5 265.5,-171.5 265.5,-152.5 153.5,-152.5"/>
<text text-anchor="middle" x="209.5" y="-159.5" font-family="Helvetica,sans-Serif" font-size="10.00">GSDUtil::writeHeader</text>
</a>
</g>
</g>
<!-- Node3&#45;&gt;Node4 -->
<g id="edge3" class="edge">
<title>Node3&#45;&gt;Node4</title>
<path fill="none" stroke="midnightblue" d="M317.03,-135.97C295.23,-141.29 269.93,-147.48 249.46,-152.48"/>
<polygon fill="midnightblue" stroke="midnightblue" points="317.88,-139.36 326.76,-133.59 316.22,-132.56 317.88,-139.36"/>
</g>
<!-- Node6 -->
<g id="node6" class="node">
<title>Node6</title>
<g id="a_node6"><a xlink:href="classGSDUtil.html#aa0dc50cd5e5534260375ad4962511cf0" target="_top" xlink:title="Writes parameter information to GSD.">
<polygon fill="none" stroke="black" points="144,-114.5 144,-133.5 275,-133.5 275,-114.5 144,-114.5"/>
<text text-anchor="middle" x="209.5" y="-121.5" font-family="Helvetica,sans-Serif" font-size="10.00">GSDUtil::writeParameters</text>
</a>
</g>
</g>
<!-- Node3&#45;&gt;Node6 -->
<g id="edge5" class="edge">
<title>Node3&#45;&gt;Node6</title>
<path fill="none" stroke="midnightblue" d="M311.7,-124C299.88,-124 287.25,-124 275.07,-124"/>
<polygon fill="midnightblue" stroke="midnightblue" points="311.86,-127.5 321.86,-124 311.86,-120.5 311.86,-127.5"/>
</g>
<!-- Node7 -->
<g id="node7" class="node">
<title>Node7</title>
<g id="a_node7"><a xlink:href="classGSDUtil.html#a9464315a26a5d5e2c51bb2b4df5ee373" target="_top" xlink:title="Writes particle information to GSD.">
<polygon fill="none" stroke="black" points="150,-76.5 150,-95.5 269,-95.5 269,-76.5 150,-76.5"/>
<text text-anchor="middle" x="209.5" y="-83.5" font-family="Helvetica,sans-Serif" font-size="10.00">GSDUtil::writeParticles</text>
</a>
</g>
</g>
<!-- Node3&#45;&gt;Node7 -->
<g id="edge7" class="edge">
<title>Node3&#45;&gt;Node7</title>
<path fill="none" stroke="midnightblue" d="M317.03,-112.03C295.23,-106.71 269.93,-100.52 249.46,-95.52"/>
<polygon fill="midnightblue" stroke="midnightblue" points="316.22,-115.44 326.76,-114.41 317.88,-108.64 316.22,-115.44"/>
</g>
<!-- Node5 -->
<g id="node5" class="node">
<title>Node5</title>
<g id="a_node5"><a xlink:href="classGSDUtil.html#ae76e4a23f0fe0bca3cd44137b56b816b" target="_top" xlink:title="Appends frame to GSD file using data from systemData class.">
<polygon fill="none" stroke="black" points="0,-114.5 0,-133.5 108,-133.5 108,-114.5 0,-114.5"/>
<text text-anchor="middle" x="54" y="-121.5" font-family="Helvetica,sans-Serif" font-size="10.00">GSDUtil::writeFrame</text>
</a>
</g>
</g>
<!-- Node4&#45;&gt;Node5 -->
<g id="edge4" class="edge">
<title>Node4&#45;&gt;Node5</title>
<path fill="none" stroke="midnightblue" d="M159.86,-149.96C138.42,-144.65 113.58,-138.5 93.46,-133.52"/>
<polygon fill="midnightblue" stroke="midnightblue" points="159.22,-153.41 169.77,-152.41 160.9,-146.61 159.22,-153.41"/>
</g>
<!-- Node6&#45;&gt;Node5 -->
<g id="edge6" class="edge">
<title>Node6&#45;&gt;Node5</title>
<path fill="none" stroke="midnightblue" d="M133.82,-124C125.25,-124 116.64,-124 108.43,-124"/>
<polygon fill="midnightblue" stroke="midnightblue" points="133.85,-127.5 143.85,-124 133.85,-120.5 133.85,-127.5"/>
</g>
<!-- Node7&#45;&gt;Node5 -->
<g id="edge8" class="edge">
<title>Node7&#45;&gt;Node5</title>
<path fill="none" stroke="midnightblue" d="M159.86,-98.04C138.42,-103.35 113.58,-109.5 93.46,-114.48"/>
<polygon fill="midnightblue" stroke="midnightblue" points="160.9,-101.39 169.77,-95.59 159.22,-94.59 160.9,-101.39"/>
</g>
<!-- Node9 -->
<g id="node9" class="node">
<title>Node9</title>
<g id="a_node9"><a xlink:href="gsd_8h.html#a157d14770365926fde71a7787871bc63" target="_top" xlink:title=" ">
<polygon fill="none" stroke="black" points="311,-76.5 311,-95.5 423,-95.5 423,-76.5 311,-76.5"/>
<text text-anchor="middle" x="367" y="-83.5" font-family="Helvetica,sans-Serif" font-size="10.00">gsd_create_and_open</text>
</a>
</g>
</g>
<!-- Node8&#45;&gt;Node9 -->
<g id="edge10" class="edge">
<title>Node8&#45;&gt;Node9</title>
<path fill="none" stroke="midnightblue" d="M448.88,-75.29C440.27,-76.43 431.48,-77.59 423.02,-78.71"/>
<polygon fill="midnightblue" stroke="midnightblue" points="449.43,-78.75 458.88,-73.97 448.51,-71.81 449.43,-78.75"/>
</g>
<!-- Node10 -->
<g id="node10" class="node">
<title>Node10</title>
<g id="a_node10"><a xlink:href="gsd_8h.html#ae0add799755285c1108a7b97b2ed7e00" target="_top" xlink:title=" ">
<polygon fill="none" stroke="black" points="337.5,-38.5 337.5,-57.5 396.5,-57.5 396.5,-38.5 337.5,-38.5"/>
<text text-anchor="middle" x="367" y="-45.5" font-family="Helvetica,sans-Serif" font-size="10.00">gsd_open</text>
</a>
</g>
</g>
<!-- Node8&#45;&gt;Node10 -->
<g id="edge11" class="edge">
<title>Node8&#45;&gt;Node10</title>
<path fill="none" stroke="midnightblue" d="M448.92,-58.71C430.78,-56.31 411.84,-53.8 396.85,-51.82"/>
<polygon fill="midnightblue" stroke="midnightblue" points="448.51,-62.19 458.88,-60.03 449.43,-55.25 448.51,-62.19"/>
</g>
<!-- Node12 -->
<g id="node12" class="node">
<title>Node12</title>
<g id="a_node12"><a xlink:href="gsd_8h.html#a02ac7984034069d508b1c7ccbe702bac" target="_top" xlink:title=" ">
<polygon fill="none" stroke="black" points="330.5,-0.5 330.5,-19.5 403.5,-19.5 403.5,-0.5 330.5,-0.5"/>
<text text-anchor="middle" x="367" y="-7.5" font-family="Helvetica,sans-Serif" font-size="10.00">gsd_truncate</text>
</a>
</g>
</g>
<!-- Node8&#45;&gt;Node12 -->
<g id="edge13" class="edge">
<title>Node8&#45;&gt;Node12</title>
<path fill="none" stroke="midnightblue" d="M480.83,-53.18C463.9,-45.71 442.42,-36.51 423,-29 414.61,-25.76 405.41,-22.47 396.97,-19.57"/>
<polygon fill="midnightblue" stroke="midnightblue" points="479.66,-56.49 490.22,-57.34 482.5,-50.09 479.66,-56.49"/>
</g>
<!-- Node11 -->
<g id="node11" class="node">
<title>Node11</title>
<g id="a_node11"><a xlink:href="classGSDUtil.html#a2567bdb7f5952a76984552e0591fa330" target="_top" xlink:title="Construct a new GSDUtil object.">
<polygon fill="none" stroke="black" points="161.5,-38.5 161.5,-57.5 257.5,-57.5 257.5,-38.5 161.5,-38.5"/>
<text text-anchor="middle" x="209.5" y="-45.5" font-family="Helvetica,sans-Serif" font-size="10.00">GSDUtil::GSDUtil</text>
</a>
</g>
</g>
<!-- Node10&#45;&gt;Node11 -->
<g id="edge12" class="edge">
<title>Node10&#45;&gt;Node11</title>
<path fill="none" stroke="midnightblue" d="M327.29,-48C306.24,-48 280.02,-48 257.77,-48"/>
<polygon fill="midnightblue" stroke="midnightblue" points="327.48,-51.5 337.48,-48 327.48,-44.5 327.48,-51.5"/>
</g>
<!-- Node13 -->
<g id="node13" class="node">
<title>Node13</title>
<g id="a_node13"><a xlink:href="classGSDUtil.html#a78b796cb5093b0aa6f5d2573658fcca1" target="_top" xlink:title="Removes all frames and data from GSD file. This returns GSD to a &quot;new file&quot; state.">
<polygon fill="none" stroke="black" points="151.5,-0.5 151.5,-19.5 267.5,-19.5 267.5,-0.5 151.5,-0.5"/>
<text text-anchor="middle" x="209.5" y="-7.5" font-family="Helvetica,sans-Serif" font-size="10.00">GSDUtil::truncateGSD</text>
</a>
</g>
</g>
<!-- Node12&#45;&gt;Node13 -->
<g id="edge14" class="edge">
<title>Node12&#45;&gt;Node13</title>
<path fill="none" stroke="midnightblue" d="M319.92,-10C303.52,-10 284.86,-10 267.64,-10"/>
<polygon fill="midnightblue" stroke="midnightblue" points="320.33,-13.5 330.33,-10 320.33,-6.5 320.33,-13.5"/>
</g>
</g>
</svg>
