<?xml version="1.0" encoding="UTF-8" standalone="no"?>
<!DOCTYPE svg PUBLIC "-//W3C//DTD SVG 1.1//EN"
 "http://www.w3.org/Graphics/SVG/1.1/DTD/svg11.dtd">
<!-- Generated by graphviz version 2.43.0 (0)
 -->
<!-- Title: src/data_io/gsd.h Pages: 1 -->
<svg width="609pt" height="408pt"
 viewBox="0.00 0.00 609.00 408.00" xmlns="http://www.w3.org/2000/svg" xmlns:xlink="http://www.w3.org/1999/xlink">
<g id="graph0" class="graph" transform="scale(1 1) rotate(0) translate(4 404)">
<title>src/data_io/gsd.h</title>
<!-- Node1 -->
<g id="node1" class="node">
<title>Node1</title>
<g id="a_node1"><a xlink:title="Declare GSD data types and C API.">
<polygon fill="#bfbfbf" stroke="black" points="353.5,-380.5 353.5,-399.5 445.5,-399.5 445.5,-380.5 353.5,-380.5"/>
<text text-anchor="middle" x="399.5" y="-387.5" font-family="Helvetica,sans-Serif" font-size="10.00">src/data_io/gsd.h</text>
</a>
</g>
</g>
<!-- Node2 -->
<g id="node2" class="node">
<title>Node2</title>
<g id="a_node2"><a xlink:href="gsd_8c.html" target="_top" xlink:title="Implements the GSD C API.">
<polygon fill="none" stroke="black" points="182.5,-324.5 182.5,-343.5 274.5,-343.5 274.5,-324.5 182.5,-324.5"/>
<text text-anchor="middle" x="228.5" y="-331.5" font-family="Helvetica,sans-Serif" font-size="10.00">src/data_io/gsd.c</text>
</a>
</g>
</g>
<!-- Node1&#45;&gt;Node2 -->
<g id="edge1" class="edge">
<title>Node1&#45;&gt;Node2</title>
<path fill="none" stroke="midnightblue" d="M362.46,-377.3C330.24,-367.13 284.31,-352.62 255.47,-343.52"/>
<polygon fill="midnightblue" stroke="midnightblue" points="361.81,-380.77 372.4,-380.44 363.92,-374.09 361.81,-380.77"/>
</g>
<!-- Node3 -->
<g id="node3" class="node">
<title>Node3</title>
<g id="a_node3"><a xlink:href="GSDUtil_8hpp.html" target="_top" xlink:title=" ">
<polygon fill="none" stroke="black" points="293,-324.5 293,-343.5 416,-343.5 416,-324.5 293,-324.5"/>
<text text-anchor="middle" x="354.5" y="-331.5" font-family="Helvetica,sans-Serif" font-size="10.00">src/data_io/GSDUtil.hpp</text>
</a>
</g>
</g>
<!-- Node1&#45;&gt;Node3 -->
<g id="edge2" class="edge">
<title>Node1&#45;&gt;Node3</title>
<path fill="none" stroke="midnightblue" d="M385.45,-372.14C377.61,-362.74 368.17,-351.4 361.79,-343.75"/>
<polygon fill="midnightblue" stroke="midnightblue" points="382.98,-374.64 392.07,-380.08 388.36,-370.16 382.98,-374.64"/>
</g>
<!-- Node5 -->
<g id="node5" class="node">
<title>Node5</title>
<g id="a_node5"><a xlink:href="systemData_8hpp.html" target="_top" xlink:title=" ">
<polygon fill="none" stroke="black" points="297,-257.5 297,-287.5 412,-287.5 412,-257.5 297,-257.5"/>
<text text-anchor="start" x="305" y="-275.5" font-family="Helvetica,sans-Serif" font-size="10.00">src/simulation_system</text>
<text text-anchor="middle" x="354.5" y="-264.5" font-family="Helvetica,sans-Serif" font-size="10.00">/systemData.hpp</text>
</a>
</g>
</g>
<!-- Node1&#45;&gt;Node5 -->
<g id="edge20" class="edge">
<title>Node1&#45;&gt;Node5</title>
<path fill="none" stroke="midnightblue" d="M413.79,-372.08C423.25,-358.71 432.55,-339.74 424.5,-324 416.31,-307.99 400.42,-295.89 385.84,-287.56"/>
<polygon fill="midnightblue" stroke="midnightblue" points="410.76,-370.28 407.42,-380.34 416.3,-374.55 410.76,-370.28"/>
</g>
<!-- Node13 -->
<g id="node13" class="node">
<title>Node13</title>
<g id="a_node13"><a xlink:href="testsSimulationBuild_8cpp.html" target="_top" xlink:title=" ">
<polygon fill="none" stroke="black" points="452,-6 452,-25 601,-25 601,-6 452,-6"/>
<text text-anchor="middle" x="526.5" y="-13" font-family="Helvetica,sans-Serif" font-size="10.00">tests/testsSimulationBuild.cpp</text>
</a>
</g>
</g>
<!-- Node1&#45;&gt;Node13 -->
<g id="edge21" class="edge">
<title>Node1&#45;&gt;Node13</title>
<path fill="none" stroke="midnightblue" d="M446.7,-377.62C495.46,-362.72 564.5,-331.4 564.5,-273.5 564.5,-273.5 564.5,-273.5 564.5,-143 564.5,-108.65 561.07,-99.68 550.5,-67 545.54,-51.67 536.92,-34.99 531.47,-25.15"/>
<polygon fill="midnightblue" stroke="midnightblue" points="445.56,-374.31 436.94,-380.47 447.52,-381.03 445.56,-374.31"/>
</g>
<!-- Node4 -->
<g id="node4" class="node">
<title>Node4</title>
<g id="a_node4"><a xlink:href="GSDUtil_8cpp.html" target="_top" xlink:title=" ">
<polygon fill="none" stroke="black" points="156,-263 156,-282 279,-282 279,-263 156,-263"/>
<text text-anchor="middle" x="217.5" y="-270" font-family="Helvetica,sans-Serif" font-size="10.00">src/data_io/GSDUtil.cpp</text>
</a>
</g>
</g>
<!-- Node3&#45;&gt;Node4 -->
<g id="edge3" class="edge">
<title>Node3&#45;&gt;Node4</title>
<path fill="none" stroke="midnightblue" d="M325.67,-320.48C299.06,-308.92 260.27,-292.08 237.09,-282.01"/>
<polygon fill="midnightblue" stroke="midnightblue" points="324.3,-323.7 334.87,-324.48 327.09,-317.28 324.3,-323.7"/>
</g>
<!-- Node3&#45;&gt;Node5 -->
<g id="edge4" class="edge">
<title>Node3&#45;&gt;Node5</title>
<path fill="none" stroke="midnightblue" d="M348.2,-314.53C347.47,-305.81 347.63,-295.59 348.67,-287.52"/>
<polygon fill="midnightblue" stroke="midnightblue" points="344.74,-315.06 349.6,-324.48 351.67,-314.09 344.74,-315.06"/>
</g>
<!-- Node5&#45;&gt;Node3 -->
<g id="edge5" class="edge">
<title>Node5&#45;&gt;Node3</title>
<path fill="none" stroke="midnightblue" d="M361.14,-297.7C361.51,-307.19 360.93,-317.47 359.4,-324.48"/>
<polygon fill="midnightblue" stroke="midnightblue" points="364.62,-297.21 360.33,-287.52 357.64,-297.77 364.62,-297.21"/>
</g>
<!-- Node6 -->
<g id="node6" class="node">
<title>Node6</title>
<g id="a_node6"><a xlink:href="potentialHydrodynamics_8hpp.html" target="_top" xlink:title=" ">
<polygon fill="none" stroke="black" points="140,-196 140,-215 327,-215 327,-196 140,-196"/>
<text text-anchor="middle" x="233.5" y="-203" font-family="Helvetica,sans-Serif" font-size="10.00">src/forces/potentialHydrodynamics.hpp</text>
</a>
</g>
</g>
<!-- Node5&#45;&gt;Node6 -->
<g id="edge6" class="edge">
<title>Node5&#45;&gt;Node6</title>
<path fill="none" stroke="midnightblue" d="M319.39,-252.64C296.24,-240.2 267.03,-224.51 249.34,-215.01"/>
<polygon fill="midnightblue" stroke="midnightblue" points="317.78,-255.75 328.24,-257.4 321.09,-249.58 317.78,-255.75"/>
</g>
<!-- Node8 -->
<g id="node8" class="node">
<title>Node8</title>
<g id="a_node8"><a xlink:href="rungeKutta4_8hpp.html" target="_top" xlink:title=" ">
<polygon fill="none" stroke="black" points="345,-134.5 345,-153.5 498,-153.5 498,-134.5 345,-134.5"/>
<text text-anchor="middle" x="421.5" y="-141.5" font-family="Helvetica,sans-Serif" font-size="10.00">src/integrators/rungeKutta4.hpp</text>
</a>
</g>
</g>
<!-- Node5&#45;&gt;Node8 -->
<g id="edge15" class="edge">
<title>Node5&#45;&gt;Node8</title>
<path fill="none" stroke="midnightblue" d="M356.43,-247.12C358.64,-230.16 363.37,-207.55 373.5,-190 382.18,-174.96 397.47,-161.92 408.47,-153.8"/>
<polygon fill="midnightblue" stroke="midnightblue" points="352.92,-247.01 355.31,-257.33 359.88,-247.77 352.92,-247.01"/>
</g>
<!-- Node10 -->
<g id="node10" class="node">
<title>Node10</title>
<g id="a_node10"><a xlink:href="engine_8hpp.html" target="_top" xlink:title=" ">
<polygon fill="none" stroke="black" points="78,-67.5 78,-97.5 193,-97.5 193,-67.5 78,-67.5"/>
<text text-anchor="start" x="86" y="-85.5" font-family="Helvetica,sans-Serif" font-size="10.00">src/simulation_system</text>
<text text-anchor="middle" x="135.5" y="-74.5" font-family="Helvetica,sans-Serif" font-size="10.00">/engine.hpp</text>
</a>
</g>
</g>
<!-- Node5&#45;&gt;Node10 -->
<g id="edge17" class="edge">
<title>Node5&#45;&gt;Node10</title>
<path fill="none" stroke="midnightblue" d="M286.84,-256.72C221.4,-242.35 131.88,-222.48 130.5,-221 98.96,-187.05 118.09,-125.59 129.21,-97.81"/>
<polygon fill="midnightblue" stroke="midnightblue" points="286.2,-260.16 296.72,-258.88 287.7,-253.32 286.2,-260.16"/>
</g>
<!-- Node11 -->
<g id="node11" class="node">
<title>Node11</title>
<g id="a_node11"><a xlink:href="main_8cpp.html" target="_top" xlink:title=" ">
<polygon fill="none" stroke="black" points="0,-6 0,-25 73,-25 73,-6 0,-6"/>
<text text-anchor="middle" x="36.5" y="-13" font-family="Helvetica,sans-Serif" font-size="10.00">src/main.cpp</text>
</a>
</g>
</g>
<!-- Node5&#45;&gt;Node11 -->
<g id="edge16" class="edge">
<title>Node5&#45;&gt;Node11</title>
<path fill="none" stroke="midnightblue" d="M286.8,-257.04C206.88,-242.98 170.42,-270.68 112.5,-221 49.82,-167.25 38.78,-56.75 36.88,-25.13"/>
<polygon fill="midnightblue" stroke="midnightblue" points="286.28,-260.5 296.76,-258.97 287.61,-253.63 286.28,-260.5"/>
</g>
<!-- Node5&#45;&gt;Node13 -->
<g id="edge19" class="edge">
<title>Node5&#45;&gt;Node13</title>
<path fill="none" stroke="midnightblue" d="M422.48,-265.46C452.82,-259.11 486.24,-246.38 506.5,-221 554.8,-160.51 535.59,-55.63 528.61,-25.08"/>
<polygon fill="midnightblue" stroke="midnightblue" points="421.51,-262.08 412.33,-267.37 422.8,-268.96 421.51,-262.08"/>
</g>
<!-- Node14 -->
<g id="node14" class="node">
<title>Node14</title>
<g id="a_node14"><a xlink:href="systemData_8cpp.html" target="_top" xlink:title=" ">
<polygon fill="none" stroke="black" points="383,-190.5 383,-220.5 498,-220.5 498,-190.5 383,-190.5"/>
<text text-anchor="start" x="391" y="-208.5" font-family="Helvetica,sans-Serif" font-size="10.00">src/simulation_system</text>
<text text-anchor="middle" x="440.5" y="-197.5" font-family="Helvetica,sans-Serif" font-size="10.00">/systemData.cpp</text>
</a>
</g>
</g>
<!-- Node5&#45;&gt;Node14 -->
<g id="edge18" class="edge">
<title>Node5&#45;&gt;Node14</title>
<path fill="none" stroke="midnightblue" d="M381.4,-251.17C394.55,-241.23 410.05,-229.51 421.88,-220.58"/>
<polygon fill="midnightblue" stroke="midnightblue" points="379.03,-248.57 373.16,-257.4 383.25,-254.16 379.03,-248.57"/>
</g>
<!-- Node7 -->
<g id="node7" class="node">
<title>Node7</title>
<g id="a_node7"><a xlink:href="potentialHydrodynamics_8cpp.html" target="_top" xlink:title=" ">
<polygon fill="none" stroke="black" points="140,-134.5 140,-153.5 327,-153.5 327,-134.5 140,-134.5"/>
<text text-anchor="middle" x="233.5" y="-141.5" font-family="Helvetica,sans-Serif" font-size="10.00">src/forces/potentialHydrodynamics.cpp</text>
</a>
</g>
</g>
<!-- Node6&#45;&gt;Node7 -->
<g id="edge7" class="edge">
<title>Node6&#45;&gt;Node7</title>
<path fill="none" stroke="midnightblue" d="M233.5,-185.82C233.5,-175 233.5,-161.9 233.5,-153.51"/>
<polygon fill="midnightblue" stroke="midnightblue" points="230,-185.98 233.5,-195.98 237,-185.98 230,-185.98"/>
</g>
<!-- Node6&#45;&gt;Node8 -->
<g id="edge8" class="edge">
<title>Node6&#45;&gt;Node8</title>
<path fill="none" stroke="midnightblue" d="M270.21,-192.88C306.76,-181.32 361.97,-163.84 394.61,-153.51"/>
<polygon fill="midnightblue" stroke="midnightblue" points="268.91,-189.62 260.44,-195.98 271.03,-196.29 268.91,-189.62"/>
</g>
<!-- Node6&#45;&gt;Node10 -->
<g id="edge14" class="edge">
<title>Node6&#45;&gt;Node10</title>
<path fill="none" stroke="midnightblue" d="M184.18,-192.73C163.9,-185.19 142.42,-173.11 130.5,-154 119.85,-136.92 124.9,-112.79 129.9,-97.65"/>
<polygon fill="midnightblue" stroke="midnightblue" points="183.09,-196.05 193.68,-195.97 185.35,-189.43 183.09,-196.05"/>
</g>
<!-- Node9 -->
<g id="node9" class="node">
<title>Node9</title>
<g id="a_node9"><a xlink:href="rungeKutta4_8cpp.html" target="_top" xlink:title=" ">
<polygon fill="none" stroke="black" points="345,-73 345,-92 498,-92 498,-73 345,-73"/>
<text text-anchor="middle" x="421.5" y="-80" font-family="Helvetica,sans-Serif" font-size="10.00">src/integrators/rungeKutta4.cpp</text>
</a>
</g>
</g>
<!-- Node8&#45;&gt;Node9 -->
<g id="edge9" class="edge">
<title>Node8&#45;&gt;Node9</title>
<path fill="none" stroke="midnightblue" d="M421.5,-124.32C421.5,-113.5 421.5,-100.4 421.5,-92.01"/>
<polygon fill="midnightblue" stroke="midnightblue" points="418,-124.48 421.5,-134.48 425,-124.48 418,-124.48"/>
</g>
<!-- Node8&#45;&gt;Node10 -->
<g id="edge10" class="edge">
<title>Node8&#45;&gt;Node10</title>
<path fill="none" stroke="midnightblue" d="M370.62,-132.42C320.87,-122.06 245.2,-106.32 193.22,-95.51"/>
<polygon fill="midnightblue" stroke="midnightblue" points="370.02,-135.86 380.52,-134.48 371.45,-129.01 370.02,-135.86"/>
</g>
<!-- Node10&#45;&gt;Node11 -->
<g id="edge11" class="edge">
<title>Node10&#45;&gt;Node11</title>
<path fill="none" stroke="midnightblue" d="M105.51,-61.81C86.78,-49.51 63.62,-34.3 49.46,-25.01"/>
<polygon fill="midnightblue" stroke="midnightblue" points="103.74,-64.83 114.02,-67.4 107.58,-58.98 103.74,-64.83"/>
</g>
<!-- Node12 -->
<g id="node12" class="node">
<title>Node12</title>
<g id="a_node12"><a xlink:href="engine_8cpp.html" target="_top" xlink:title=" ">
<polygon fill="none" stroke="black" points="91,-0.5 91,-30.5 206,-30.5 206,-0.5 91,-0.5"/>
<text text-anchor="start" x="99" y="-18.5" font-family="Helvetica,sans-Serif" font-size="10.00">src/simulation_system</text>
<text text-anchor="middle" x="148.5" y="-7.5" font-family="Helvetica,sans-Serif" font-size="10.00">/engine.cpp</text>
</a>
</g>
</g>
<!-- Node10&#45;&gt;Node12 -->
<g id="edge12" class="edge">
<title>Node10&#45;&gt;Node12</title>
<path fill="none" stroke="midnightblue" d="M140.32,-57.4C142.13,-48.37 144.12,-38.41 145.68,-30.58"/>
<polygon fill="midnightblue" stroke="midnightblue" points="136.85,-56.9 138.32,-67.4 143.71,-58.28 136.85,-56.9"/>
</g>
<!-- Node10&#45;&gt;Node13 -->
<g id="edge13" class="edge">
<title>Node10&#45;&gt;Node13</title>
<path fill="none" stroke="midnightblue" d="M203.32,-70.23C280.66,-57.37 405.4,-36.63 475.12,-25.04"/>
<polygon fill="midnightblue" stroke="midnightblue" points="202.48,-66.82 193.19,-71.91 203.63,-73.72 202.48,-66.82"/>
</g>
</g>
</svg>
