<?xml version="1.0" encoding="UTF-8" standalone="no"?>
<!DOCTYPE svg PUBLIC "-//W3C//DTD SVG 1.1//EN"
 "http://www.w3.org/Graphics/SVG/1.1/DTD/svg11.dtd">
<!-- Generated by graphviz version 2.43.0 (0)
 -->
<!-- Title: gsd_sizeof_type Pages: 1 -->
<svg width="872pt" height="408pt"
 viewBox="0.00 0.00 872.00 408.00" xmlns="http://www.w3.org/2000/svg" xmlns:xlink="http://www.w3.org/1999/xlink">
<g id="graph0" class="graph" transform="scale(1 1) rotate(0) translate(4 404)">
<title>gsd_sizeof_type</title>
<!-- Node1 -->
<g id="node1" class="node">
<title>Node1</title>
<g id="a_node1"><a xlink:title=" ">
<polygon fill="#bfbfbf" stroke="black" points="776,-190.5 776,-209.5 864,-209.5 864,-190.5 776,-190.5"/>
<text text-anchor="middle" x="820" y="-197.5" font-family="Helvetica,sans-Serif" font-size="10.00">gsd_sizeof_type</text>
</a>
</g>
</g>
<!-- Node2 -->
<g id="node2" class="node">
<title>Node2</title>
<g id="a_node2"><a xlink:href="gsd_8c.html#ab5d19295bedec41b7919caec2cb22759" target="_top" xlink:title=" ">
<polygon fill="none" stroke="black" points="642,-171.5 642,-190.5 740,-190.5 740,-171.5 642,-171.5"/>
<text text-anchor="middle" x="691" y="-178.5" font-family="Helvetica,sans-Serif" font-size="10.00">gsd_is_entry_valid</text>
</a>
</g>
</g>
<!-- Node1&#45;&gt;Node2 -->
<g id="edge1" class="edge">
<title>Node1&#45;&gt;Node2</title>
<path fill="none" stroke="midnightblue" d="M765.6,-192.01C757.24,-190.76 748.63,-189.47 740.39,-188.24"/>
<polygon fill="midnightblue" stroke="midnightblue" points="765.24,-195.5 775.65,-193.51 766.28,-188.57 765.24,-195.5"/>
</g>
<!-- Node15 -->
<g id="node15" class="node">
<title>Node15</title>
<g id="a_node15"><a xlink:href="gsd_8h.html#a2db2e3e8a72948bf413e7f09469ec8a6" target="_top" xlink:title=" ">
<polygon fill="none" stroke="black" points="647,-275.5 647,-294.5 735,-294.5 735,-275.5 647,-275.5"/>
<text text-anchor="middle" x="691" y="-282.5" font-family="Helvetica,sans-Serif" font-size="10.00">gsd_read_chunk</text>
</a>
</g>
</g>
<!-- Node1&#45;&gt;Node15 -->
<g id="edge14" class="edge">
<title>Node1&#45;&gt;Node15</title>
<path fill="none" stroke="midnightblue" d="M795.92,-215.45C769.84,-232.9 728.21,-260.76 706.4,-275.36"/>
<polygon fill="midnightblue" stroke="midnightblue" points="798.07,-218.22 804.43,-209.75 794.17,-212.4 798.07,-218.22"/>
</g>
<!-- Node16 -->
<g id="node16" class="node">
<title>Node16</title>
<g id="a_node16"><a xlink:href="classGSDUtil.html#a86d2352b694afc6a0c938a13b3acec9d" target="_top" xlink:title="Finds and then loads data from GSD.">
<polygon fill="none" stroke="black" points="344.5,-285.5 344.5,-304.5 451.5,-304.5 451.5,-285.5 344.5,-285.5"/>
<text text-anchor="middle" x="398" y="-292.5" font-family="Helvetica,sans-Serif" font-size="10.00">GSDUtil::readChunk</text>
</a>
</g>
</g>
<!-- Node1&#45;&gt;Node16 -->
<g id="edge31" class="edge">
<title>Node1&#45;&gt;Node16</title>
<path fill="none" stroke="midnightblue" d="M766.95,-211.77C682.8,-230.81 518.5,-267.97 441.17,-285.46"/>
<polygon fill="midnightblue" stroke="midnightblue" points="767.82,-215.16 776.81,-209.54 766.28,-208.34 767.82,-215.16"/>
</g>
<!-- Node21 -->
<g id="node21" class="node">
<title>Node21</title>
<g id="a_node21"><a xlink:href="gsd_8h.html#ae22447904b925f284bf987fae448488a" target="_top" xlink:title=" ">
<polygon fill="none" stroke="black" points="353,-57.5 353,-76.5 443,-76.5 443,-57.5 353,-57.5"/>
<text text-anchor="middle" x="398" y="-64.5" font-family="Helvetica,sans-Serif" font-size="10.00">gsd_write_chunk</text>
</a>
</g>
</g>
<!-- Node1&#45;&gt;Node21 -->
<g id="edge24" class="edge">
<title>Node1&#45;&gt;Node21</title>
<path fill="none" stroke="midnightblue" d="M792.28,-185.69C777.21,-177.99 757.88,-168.73 740,-162 635.75,-122.76 508.19,-91.46 442.58,-76.53"/>
<polygon fill="midnightblue" stroke="midnightblue" points="791.02,-188.98 801.51,-190.48 794.25,-182.77 791.02,-188.98"/>
</g>
<!-- Node3 -->
<g id="node3" class="node">
<title>Node3</title>
<g id="a_node3"><a xlink:href="gsd_8c.html#a6fe75caf6c4df550af2455a0c40bfbdf" target="_top" xlink:title=" ">
<polygon fill="none" stroke="black" points="492,-171.5 492,-190.5 606,-190.5 606,-171.5 492,-171.5"/>
<text text-anchor="middle" x="549" y="-178.5" font-family="Helvetica,sans-Serif" font-size="10.00">gsd_index_buffer_map</text>
</a>
</g>
</g>
<!-- Node2&#45;&gt;Node3 -->
<g id="edge2" class="edge">
<title>Node2&#45;&gt;Node3</title>
<path fill="none" stroke="midnightblue" d="M631.76,-181C623.39,-181 614.8,-181 606.46,-181"/>
<polygon fill="midnightblue" stroke="midnightblue" points="631.82,-184.5 641.82,-181 631.82,-177.5 631.82,-184.5"/>
</g>
<!-- Node4 -->
<g id="node4" class="node">
<title>Node4</title>
<g id="a_node4"><a xlink:href="gsd_8c.html#ae6dddb94661e99e54f6c01b1a443e27f" target="_top" xlink:title=" ">
<polygon fill="none" stroke="black" points="340,-114.5 340,-133.5 456,-133.5 456,-114.5 340,-114.5"/>
<text text-anchor="middle" x="398" y="-121.5" font-family="Helvetica,sans-Serif" font-size="10.00">gsd_expand_file_index</text>
</a>
</g>
</g>
<!-- Node3&#45;&gt;Node4 -->
<g id="edge3" class="edge">
<title>Node3&#45;&gt;Node4</title>
<path fill="none" stroke="midnightblue" d="M516.59,-167.39C498.91,-159.89 476.36,-150.59 456,-143 447.3,-139.76 437.76,-136.47 429.02,-133.57"/>
<polygon fill="midnightblue" stroke="midnightblue" points="515.29,-170.64 525.86,-171.35 518.04,-164.2 515.29,-170.64"/>
</g>
<!-- Node7 -->
<g id="node7" class="node">
<title>Node7</title>
<g id="a_node7"><a xlink:href="gsd_8c.html#ac159dfbfd790607f85073ad2d8464a8b" target="_top" xlink:title=" ">
<polygon fill="none" stroke="black" points="344.5,-190.5 344.5,-209.5 451.5,-209.5 451.5,-190.5 344.5,-190.5"/>
<text text-anchor="middle" x="398" y="-197.5" font-family="Helvetica,sans-Serif" font-size="10.00">gsd_initialize_handle</text>
</a>
</g>
</g>
<!-- Node3&#45;&gt;Node7 -->
<g id="edge6" class="edge">
<title>Node3&#45;&gt;Node7</title>
<path fill="none" stroke="midnightblue" d="M481.47,-189.48C471.59,-190.74 461.52,-192.03 451.97,-193.25"/>
<polygon fill="midnightblue" stroke="midnightblue" points="482.19,-192.92 491.67,-188.18 481.31,-185.98 482.19,-192.92"/>
</g>
<!-- Node14 -->
<g id="node14" class="node">
<title>Node14</title>
<g id="a_node14"><a xlink:href="gsd_8h.html#adb92d5142812c19bf4ee33cbde439131" target="_top" xlink:title=" ">
<polygon fill="none" stroke="black" points="362,-152.5 362,-171.5 434,-171.5 434,-152.5 362,-152.5"/>
<text text-anchor="middle" x="398" y="-159.5" font-family="Helvetica,sans-Serif" font-size="10.00">gsd_upgrade</text>
</a>
</g>
</g>
<!-- Node3&#45;&gt;Node14 -->
<g id="edge13" class="edge">
<title>Node3&#45;&gt;Node14</title>
<path fill="none" stroke="midnightblue" d="M481.6,-172.53C465.28,-170.45 448.43,-168.3 434.24,-166.49"/>
<polygon fill="midnightblue" stroke="midnightblue" points="481.31,-176.02 491.67,-173.82 482.19,-169.08 481.31,-176.02"/>
</g>
<!-- Node5 -->
<g id="node5" class="node">
<title>Node5</title>
<g id="a_node5"><a xlink:href="gsd_8h.html#aa03810337c5eebcbe716d8633eaefc5e" target="_top" xlink:title=" ">
<polygon fill="none" stroke="black" points="186.5,-114.5 186.5,-133.5 269.5,-133.5 269.5,-114.5 186.5,-114.5"/>
<text text-anchor="middle" x="228" y="-121.5" font-family="Helvetica,sans-Serif" font-size="10.00">gsd_end_frame</text>
</a>
</g>
</g>
<!-- Node4&#45;&gt;Node5 -->
<g id="edge4" class="edge">
<title>Node4&#45;&gt;Node5</title>
<path fill="none" stroke="midnightblue" d="M329.52,-124C309.24,-124 287.64,-124 269.67,-124"/>
<polygon fill="midnightblue" stroke="midnightblue" points="329.65,-127.5 339.65,-124 329.65,-120.5 329.65,-127.5"/>
</g>
<!-- Node6 -->
<g id="node6" class="node">
<title>Node6</title>
<g id="a_node6"><a xlink:href="classGSDUtil.html#ae76e4a23f0fe0bca3cd44137b56b816b" target="_top" xlink:title="Appends frame to GSD file using data from systemData class.">
<polygon fill="none" stroke="black" points="4,-57.5 4,-76.5 112,-76.5 112,-57.5 4,-57.5"/>
<text text-anchor="middle" x="58" y="-64.5" font-family="Helvetica,sans-Serif" font-size="10.00">GSDUtil::writeFrame</text>
</a>
</g>
</g>
<!-- Node5&#45;&gt;Node6 -->
<g id="edge5" class="edge">
<title>Node5&#45;&gt;Node6</title>
<path fill="none" stroke="midnightblue" d="M176.35,-112.2C168.15,-109.99 159.8,-107.57 152,-105 126.82,-96.71 98.75,-84.87 80.11,-76.61"/>
<polygon fill="midnightblue" stroke="midnightblue" points="175.66,-115.63 186.22,-114.77 177.43,-108.86 175.66,-115.63"/>
</g>
<!-- Node8 -->
<g id="node8" class="node">
<title>Node8</title>
<g id="a_node8"><a xlink:href="gsd_8h.html#a157d14770365926fde71a7787871bc63" target="_top" xlink:title=" ">
<polygon fill="none" stroke="black" points="172,-228.5 172,-247.5 284,-247.5 284,-228.5 172,-228.5"/>
<text text-anchor="middle" x="228" y="-235.5" font-family="Helvetica,sans-Serif" font-size="10.00">gsd_create_and_open</text>
</a>
</g>
</g>
<!-- Node7&#45;&gt;Node8 -->
<g id="edge7" class="edge">
<title>Node7&#45;&gt;Node8</title>
<path fill="none" stroke="midnightblue" d="M344.72,-211.82C321.04,-217.18 293.41,-223.43 271.09,-228.48"/>
<polygon fill="midnightblue" stroke="midnightblue" points="345.63,-215.21 354.61,-209.59 344.08,-208.38 345.63,-215.21"/>
</g>
<!-- Node9 -->
<g id="node9" class="node">
<title>Node9</title>
<g id="a_node9"><a xlink:href="gsd_8h.html#ae0add799755285c1108a7b97b2ed7e00" target="_top" xlink:title=" ">
<polygon fill="none" stroke="black" points="198.5,-190.5 198.5,-209.5 257.5,-209.5 257.5,-190.5 198.5,-190.5"/>
<text text-anchor="middle" x="228" y="-197.5" font-family="Helvetica,sans-Serif" font-size="10.00">gsd_open</text>
</a>
</g>
</g>
<!-- Node7&#45;&gt;Node9 -->
<g id="edge8" class="edge">
<title>Node7&#45;&gt;Node9</title>
<path fill="none" stroke="midnightblue" d="M334.02,-200C307.72,-200 278.49,-200 257.56,-200"/>
<polygon fill="midnightblue" stroke="midnightblue" points="334.3,-203.5 344.3,-200 334.3,-196.5 334.3,-203.5"/>
</g>
<!-- Node12 -->
<g id="node12" class="node">
<title>Node12</title>
<g id="a_node12"><a xlink:href="gsd_8h.html#a02ac7984034069d508b1c7ccbe702bac" target="_top" xlink:title=" ">
<polygon fill="none" stroke="black" points="191.5,-152.5 191.5,-171.5 264.5,-171.5 264.5,-152.5 191.5,-152.5"/>
<text text-anchor="middle" x="228" y="-159.5" font-family="Helvetica,sans-Serif" font-size="10.00">gsd_truncate</text>
</a>
</g>
</g>
<!-- Node7&#45;&gt;Node12 -->
<g id="edge11" class="edge">
<title>Node7&#45;&gt;Node12</title>
<path fill="none" stroke="midnightblue" d="M344.53,-188.13C318.52,-182.25 287.79,-175.3 264.56,-170.04"/>
<polygon fill="midnightblue" stroke="midnightblue" points="344.08,-191.62 354.61,-190.41 345.63,-184.79 344.08,-191.62"/>
</g>
<!-- Node10 -->
<g id="node10" class="node">
<title>Node10</title>
<g id="a_node10"><a xlink:href="classGSDUtil.html#a2567bdb7f5952a76984552e0591fa330" target="_top" xlink:title="Construct a new GSDUtil object.">
<polygon fill="none" stroke="black" points="10,-304.5 10,-323.5 106,-323.5 106,-304.5 10,-304.5"/>
<text text-anchor="middle" x="58" y="-311.5" font-family="Helvetica,sans-Serif" font-size="10.00">GSDUtil::GSDUtil</text>
</a>
</g>
</g>
<!-- Node9&#45;&gt;Node10 -->
<g id="edge9" class="edge">
<title>Node9&#45;&gt;Node10</title>
<path fill="none" stroke="midnightblue" d="M188.26,-205.58C176.11,-208.42 163.01,-212.67 152,-219 112.99,-241.44 79.45,-284.82 65.68,-304.21"/>
<polygon fill="midnightblue" stroke="midnightblue" points="189.1,-208.98 198.18,-203.52 187.68,-202.13 189.1,-208.98"/>
</g>
<!-- Node11 -->
<g id="node11" class="node">
<title>Node11</title>
<g id="a_node11"><a xlink:href="testsSimulationBuild_8cpp.html#ac2b102ba50512565940601db33c64cf2" target="_top" xlink:title=" ">
<polygon fill="none" stroke="black" points="20.5,-190.5 20.5,-209.5 95.5,-209.5 95.5,-190.5 20.5,-190.5"/>
<text text-anchor="middle" x="58" y="-197.5" font-family="Helvetica,sans-Serif" font-size="10.00">TEST_CASE</text>
</a>
</g>
</g>
<!-- Node9&#45;&gt;Node11 -->
<g id="edge10" class="edge">
<title>Node9&#45;&gt;Node11</title>
<path fill="none" stroke="midnightblue" d="M187.95,-200C160.14,-200 122.99,-200 95.71,-200"/>
<polygon fill="midnightblue" stroke="midnightblue" points="188.12,-203.5 198.12,-200 188.12,-196.5 188.12,-203.5"/>
</g>
<!-- Node13 -->
<g id="node13" class="node">
<title>Node13</title>
<g id="a_node13"><a xlink:href="classGSDUtil.html#a78b796cb5093b0aa6f5d2573658fcca1" target="_top" xlink:title="Removes all frames and data from GSD file. This returns GSD to a &quot;new file&quot; state.">
<polygon fill="none" stroke="black" points="0,-152.5 0,-171.5 116,-171.5 116,-152.5 0,-152.5"/>
<text text-anchor="middle" x="58" y="-159.5" font-family="Helvetica,sans-Serif" font-size="10.00">GSDUtil::truncateGSD</text>
</a>
</g>
</g>
<!-- Node12&#45;&gt;Node13 -->
<g id="edge12" class="edge">
<title>Node12&#45;&gt;Node13</title>
<path fill="none" stroke="midnightblue" d="M181.23,-162C161.13,-162 137.31,-162 116.06,-162"/>
<polygon fill="midnightblue" stroke="midnightblue" points="181.37,-165.5 191.37,-162 181.37,-158.5 181.37,-165.5"/>
</g>
<!-- Node15&#45;&gt;Node16 -->
<g id="edge15" class="edge">
<title>Node15&#45;&gt;Node16</title>
<path fill="none" stroke="midnightblue" d="M636.6,-286.84C583.95,-288.64 503.99,-291.39 451.62,-293.19"/>
<polygon fill="midnightblue" stroke="midnightblue" points="636.87,-290.33 646.75,-286.49 636.63,-283.33 636.87,-290.33"/>
</g>
<!-- Node17 -->
<g id="node17" class="node">
<title>Node17</title>
<g id="a_node17"><a xlink:href="classGSDUtil.html#a2015dcdcdb33be9106f5c8f45f8564cc" target="_top" xlink:title="Read header information from GSD frame m_frame">
<polygon fill="none" stroke="black" points="173,-380.5 173,-399.5 283,-399.5 283,-380.5 173,-380.5"/>
<text text-anchor="middle" x="228" y="-387.5" font-family="Helvetica,sans-Serif" font-size="10.00">GSDUtil::readHeader</text>
</a>
</g>
</g>
<!-- Node16&#45;&gt;Node17 -->
<g id="edge16" class="edge">
<title>Node16&#45;&gt;Node17</title>
<path fill="none" stroke="midnightblue" d="M381.12,-311.74C363.77,-329.07 334.36,-355.71 304,-371 296.32,-374.87 287.8,-377.99 279.33,-380.5"/>
<polygon fill="midnightblue" stroke="midnightblue" points="383.71,-314.1 388.21,-304.51 378.71,-309.2 383.71,-314.1"/>
</g>
<!-- Node18 -->
<g id="node18" class="node">
<title>Node18</title>
<g id="a_node18"><a xlink:href="classGSDUtil.html#a31f9c7368ebd89c6293d9d9d83598e62" target="_top" xlink:title="Read parameter information from GSD frame m_frame">
<polygon fill="none" stroke="black" points="164,-342.5 164,-361.5 292,-361.5 292,-342.5 164,-342.5"/>
<text text-anchor="middle" x="228" y="-349.5" font-family="Helvetica,sans-Serif" font-size="10.00">GSDUtil::readParameters</text>
</a>
</g>
</g>
<!-- Node16&#45;&gt;Node18 -->
<g id="edge18" class="edge">
<title>Node16&#45;&gt;Node18</title>
<path fill="none" stroke="midnightblue" d="M366.51,-308.72C348.55,-316.48 325.25,-326.01 304,-333 293.41,-336.49 281.8,-339.71 270.95,-342.47"/>
<polygon fill="midnightblue" stroke="midnightblue" points="368.13,-311.83 375.89,-304.61 365.33,-305.42 368.13,-311.83"/>
</g>
<!-- Node19 -->
<g id="node19" class="node">
<title>Node19</title>
<g id="a_node19"><a xlink:href="classGSDUtil.html#ad404c3879fb81c0b73b2335ea6e4676a" target="_top" xlink:title="Read particle information from GSD frame m_frame">
<polygon fill="none" stroke="black" points="170,-304.5 170,-323.5 286,-323.5 286,-304.5 170,-304.5"/>
<text text-anchor="middle" x="228" y="-311.5" font-family="Helvetica,sans-Serif" font-size="10.00">GSDUtil::readParticles</text>
</a>
</g>
</g>
<!-- Node16&#45;&gt;Node19 -->
<g id="edge20" class="edge">
<title>Node16&#45;&gt;Node19</title>
<path fill="none" stroke="midnightblue" d="M334.14,-302.11C318.41,-303.89 301.61,-305.79 286.17,-307.53"/>
<polygon fill="midnightblue" stroke="midnightblue" points="334.76,-305.56 344.3,-300.96 333.97,-298.61 334.76,-305.56"/>
</g>
<!-- Node20 -->
<g id="node20" class="node">
<title>Node20</title>
<g id="a_node20"><a xlink:href="classGSDUtil.html#a278d1db9ece12bdc1268780313d83daf" target="_top" xlink:title="Reads system specific variables from GSD frame m_frame">
<polygon fill="none" stroke="black" points="152,-266.5 152,-285.5 304,-285.5 304,-266.5 152,-266.5"/>
<text text-anchor="middle" x="228" y="-273.5" font-family="Helvetica,sans-Serif" font-size="10.00">GSDUtil::readSystemSpecifics</text>
</a>
</g>
</g>
<!-- Node16&#45;&gt;Node20 -->
<g id="edge22" class="edge">
<title>Node16&#45;&gt;Node20</title>
<path fill="none" stroke="midnightblue" d="M334.28,-287.91C324.5,-286.8 314.3,-285.65 304.27,-284.51"/>
<polygon fill="midnightblue" stroke="midnightblue" points="333.97,-291.39 344.3,-289.04 334.76,-284.44 333.97,-291.39"/>
</g>
<!-- Node17&#45;&gt;Node10 -->
<g id="edge17" class="edge">
<title>Node17&#45;&gt;Node10</title>
<path fill="none" stroke="midnightblue" d="M170.39,-377.62C164.09,-375.67 157.85,-373.47 152,-371 121.46,-358.13 89.22,-336.22 71.87,-323.64"/>
<polygon fill="midnightblue" stroke="midnightblue" points="169.69,-381.06 180.27,-380.49 171.64,-374.34 169.69,-381.06"/>
</g>
<!-- Node18&#45;&gt;Node10 -->
<g id="edge19" class="edge">
<title>Node18&#45;&gt;Node10</title>
<path fill="none" stroke="midnightblue" d="M174.72,-340.18C151.04,-334.82 123.41,-328.57 101.09,-323.52"/>
<polygon fill="midnightblue" stroke="midnightblue" points="174.08,-343.62 184.61,-342.41 175.63,-336.79 174.08,-343.62"/>
</g>
<!-- Node19&#45;&gt;Node10 -->
<g id="edge21" class="edge">
<title>Node19&#45;&gt;Node10</title>
<path fill="none" stroke="midnightblue" d="M159.54,-314C141.61,-314 122.63,-314 106.06,-314"/>
<polygon fill="midnightblue" stroke="midnightblue" points="159.65,-317.5 169.65,-314 159.65,-310.5 159.65,-317.5"/>
</g>
<!-- Node20&#45;&gt;Node10 -->
<g id="edge23" class="edge">
<title>Node20&#45;&gt;Node10</title>
<path fill="none" stroke="midnightblue" d="M174.72,-287.82C151.04,-293.18 123.41,-299.43 101.09,-304.48"/>
<polygon fill="midnightblue" stroke="midnightblue" points="175.63,-291.21 184.61,-285.59 174.08,-284.38 175.63,-291.21"/>
</g>
<!-- Node22 -->
<g id="node22" class="node">
<title>Node22</title>
<g id="a_node22"><a xlink:href="classGSDUtil.html#a77b5ebe2817ac868ad1b171f3d7b0cae" target="_top" xlink:title="Writes header information to GSD.">
<polygon fill="none" stroke="black" points="172,-76.5 172,-95.5 284,-95.5 284,-76.5 172,-76.5"/>
<text text-anchor="middle" x="228" y="-83.5" font-family="Helvetica,sans-Serif" font-size="10.00">GSDUtil::writeHeader</text>
</a>
</g>
</g>
<!-- Node21&#45;&gt;Node22 -->
<g id="edge25" class="edge">
<title>Node21&#45;&gt;Node22</title>
<path fill="none" stroke="midnightblue" d="M342.73,-73.14C324.02,-75.25 303.06,-77.62 284.27,-79.75"/>
<polygon fill="midnightblue" stroke="midnightblue" points="343.32,-76.59 352.86,-71.99 342.53,-69.64 343.32,-76.59"/>
</g>
<!-- Node23 -->
<g id="node23" class="node">
<title>Node23</title>
<g id="a_node23"><a xlink:href="classGSDUtil.html#aa0dc50cd5e5534260375ad4962511cf0" target="_top" xlink:title="Writes parameter information to GSD.">
<polygon fill="none" stroke="black" points="162.5,-38.5 162.5,-57.5 293.5,-57.5 293.5,-38.5 162.5,-38.5"/>
<text text-anchor="middle" x="228" y="-45.5" font-family="Helvetica,sans-Serif" font-size="10.00">GSDUtil::writeParameters</text>
</a>
</g>
</g>
<!-- Node21&#45;&gt;Node23 -->
<g id="edge27" class="edge">
<title>Node21&#45;&gt;Node23</title>
<path fill="none" stroke="midnightblue" d="M342.83,-60.87C327.17,-59.1 309.93,-57.15 293.71,-55.32"/>
<polygon fill="midnightblue" stroke="midnightblue" points="342.53,-64.36 352.86,-62.01 343.32,-57.41 342.53,-64.36"/>
</g>
<!-- Node24 -->
<g id="node24" class="node">
<title>Node24</title>
<g id="a_node24"><a xlink:href="classGSDUtil.html#a9464315a26a5d5e2c51bb2b4df5ee373" target="_top" xlink:title="Writes particle information to GSD.">
<polygon fill="none" stroke="black" points="168.5,-0.5 168.5,-19.5 287.5,-19.5 287.5,-0.5 168.5,-0.5"/>
<text text-anchor="middle" x="228" y="-7.5" font-family="Helvetica,sans-Serif" font-size="10.00">GSDUtil::writeParticles</text>
</a>
</g>
</g>
<!-- Node21&#45;&gt;Node24 -->
<g id="edge29" class="edge">
<title>Node21&#45;&gt;Node24</title>
<path fill="none" stroke="midnightblue" d="M366.51,-53.28C348.55,-45.52 325.25,-35.99 304,-29 293.41,-25.51 281.8,-22.29 270.95,-19.53"/>
<polygon fill="midnightblue" stroke="midnightblue" points="365.33,-56.58 375.89,-57.39 368.13,-50.17 365.33,-56.58"/>
</g>
<!-- Node22&#45;&gt;Node6 -->
<g id="edge26" class="edge">
<title>Node22&#45;&gt;Node6</title>
<path fill="none" stroke="midnightblue" d="M161.89,-78.64C145.42,-76.77 127.93,-74.8 112.13,-73.01"/>
<polygon fill="midnightblue" stroke="midnightblue" points="161.66,-82.13 171.99,-79.78 162.45,-75.18 161.66,-82.13"/>
</g>
<!-- Node23&#45;&gt;Node6 -->
<g id="edge28" class="edge">
<title>Node23&#45;&gt;Node6</title>
<path fill="none" stroke="midnightblue" d="M151.87,-56.5C138.45,-58.01 124.73,-59.57 112.09,-61"/>
<polygon fill="midnightblue" stroke="midnightblue" points="152.5,-59.95 162.05,-55.35 151.72,-52.99 152.5,-59.95"/>
</g>
<!-- Node24&#45;&gt;Node6 -->
<g id="edge30" class="edge">
<title>Node24&#45;&gt;Node6</title>
<path fill="none" stroke="midnightblue" d="M175.23,-22.11C167.39,-24.23 159.45,-26.55 152,-29 126.82,-37.29 98.75,-49.13 80.11,-57.39"/>
<polygon fill="midnightblue" stroke="midnightblue" points="176.26,-25.45 185.05,-19.53 174.49,-18.68 176.26,-25.45"/>
</g>
</g>
</svg>
