<?xml version="1.0" encoding="UTF-8" standalone="no"?>
<!DOCTYPE svg PUBLIC "-//W3C//DTD SVG 1.1//EN"
 "http://www.w3.org/Graphics/SVG/1.1/DTD/svg11.dtd">
<!-- Generated by graphviz version 2.43.0 (0)
 -->
<!-- Title: gsd_make_version Pages: 1 -->
<svg width="781pt" height="427pt"
 viewBox="0.00 0.00 781.00 427.00" xmlns="http://www.w3.org/2000/svg" xmlns:xlink="http://www.w3.org/1999/xlink">
<g id="graph0" class="graph" transform="scale(1 1) rotate(0) translate(4 423)">
<title>gsd_make_version</title>
<!-- Node1 -->
<g id="node1" class="node">
<title>Node1</title>
<g id="a_node1"><a xlink:title=" ">
<polygon fill="#bfbfbf" stroke="black" points="675,-95.5 675,-114.5 773,-114.5 773,-95.5 675,-95.5"/>
<text text-anchor="middle" x="724" y="-102.5" font-family="Helvetica,sans-Serif" font-size="10.00">gsd_make_version</text>
</a>
</g>
</g>
<!-- Node2 -->
<g id="node2" class="node">
<title>Node2</title>
<g id="a_node2"><a xlink:href="gsd_8c.html#aa1a0a7dcf4015edcadbb47a6451b4a4b" target="_top" xlink:title=" ">
<polygon fill="none" stroke="black" points="510.5,-256.5 510.5,-275.5 608.5,-275.5 608.5,-256.5 510.5,-256.5"/>
<text text-anchor="middle" x="559.5" y="-263.5" font-family="Helvetica,sans-Serif" font-size="10.00">gsd_append_name</text>
</a>
</g>
</g>
<!-- Node1&#45;&gt;Node2 -->
<g id="edge1" class="edge">
<title>Node1&#45;&gt;Node2</title>
<path fill="none" stroke="midnightblue" d="M708.96,-122.37C692.84,-141.96 665.22,-174.42 639,-200 616.95,-221.51 588.85,-244.09 572.95,-256.47"/>
<polygon fill="midnightblue" stroke="midnightblue" points="711.71,-124.54 715.33,-114.58 706.29,-120.12 711.71,-124.54"/>
</g>
<!-- Node8 -->
<g id="node8" class="node">
<title>Node8</title>
<g id="a_node8"><a xlink:href="gsd_8h.html#a3c76bbf6c28b953cff198a44852c732f" target="_top" xlink:title=" ">
<polygon fill="none" stroke="black" points="517,-171.5 517,-190.5 602,-190.5 602,-171.5 517,-171.5"/>
<text text-anchor="middle" x="559.5" y="-178.5" font-family="Helvetica,sans-Serif" font-size="10.00">gsd_find_chunk</text>
</a>
</g>
</g>
<!-- Node1&#45;&gt;Node8 -->
<g id="edge9" class="edge">
<title>Node1&#45;&gt;Node8</title>
<path fill="none" stroke="midnightblue" d="M693.36,-118.86C660.77,-134.1 609.27,-158.19 580.91,-171.45"/>
<polygon fill="midnightblue" stroke="midnightblue" points="694.84,-122.03 702.42,-114.63 691.88,-115.69 694.84,-122.03"/>
</g>
<!-- Node15 -->
<g id="node15" class="node">
<title>Node15</title>
<g id="a_node15"><a xlink:href="gsd_8h.html#a081b6fad5e27f4f8cfabd0030af7ebf5" target="_top" xlink:title=" ">
<polygon fill="none" stroke="black" points="480,-0.5 480,-19.5 639,-19.5 639,-0.5 480,-0.5"/>
<text text-anchor="middle" x="559.5" y="-7.5" font-family="Helvetica,sans-Serif" font-size="10.00">gsd_find_matching_chunk_name</text>
</a>
</g>
</g>
<!-- Node1&#45;&gt;Node15 -->
<g id="edge19" class="edge">
<title>Node1&#45;&gt;Node15</title>
<path fill="none" stroke="midnightblue" d="M706.74,-87.7C690.85,-71.71 665.27,-48.32 639,-34 627.86,-27.93 614.98,-23.18 602.92,-19.56"/>
<polygon fill="midnightblue" stroke="midnightblue" points="704.65,-90.57 714.12,-95.3 709.67,-85.69 704.65,-90.57"/>
</g>
<!-- Node16 -->
<g id="node16" class="node">
<title>Node16</title>
<g id="a_node16"><a xlink:href="gsd_8h.html#adb92d5142812c19bf4ee33cbde439131" target="_top" xlink:title=" ">
<polygon fill="none" stroke="black" points="352,-0.5 352,-19.5 424,-19.5 424,-0.5 352,-0.5"/>
<text text-anchor="middle" x="388" y="-7.5" font-family="Helvetica,sans-Serif" font-size="10.00">gsd_upgrade</text>
</a>
</g>
</g>
<!-- Node1&#45;&gt;Node16 -->
<g id="edge31" class="edge">
<title>Node1&#45;&gt;Node16</title>
<path fill="none" stroke="midnightblue" d="M695.39,-90.81C679.26,-82.96 658.35,-73.51 639,-67 618.75,-60.19 488.25,-31.53 424.27,-17.63"/>
<polygon fill="midnightblue" stroke="midnightblue" points="694.23,-94.15 704.75,-95.45 697.34,-87.88 694.23,-94.15"/>
</g>
<!-- Node17 -->
<g id="node17" class="node">
<title>Node17</title>
<g id="a_node17"><a xlink:href="gsd_8c.html#acb769baf09c31a5ad6cba95bd348c194" target="_top" xlink:title=" ">
<polygon fill="none" stroke="black" points="514,-76.5 514,-95.5 605,-95.5 605,-76.5 514,-76.5"/>
<text text-anchor="middle" x="559.5" y="-83.5" font-family="Helvetica,sans-Serif" font-size="10.00">gsd_initialize_file</text>
</a>
</g>
</g>
<!-- Node1&#45;&gt;Node17 -->
<g id="edge21" class="edge">
<title>Node1&#45;&gt;Node17</title>
<path fill="none" stroke="midnightblue" d="M664.62,-98.17C644.99,-95.88 623.41,-93.36 605.02,-91.21"/>
<polygon fill="midnightblue" stroke="midnightblue" points="664.35,-101.67 674.68,-99.35 665.16,-94.71 664.35,-101.67"/>
</g>
<!-- Node22 -->
<g id="node22" class="node">
<title>Node22</title>
<g id="a_node22"><a xlink:href="gsd_8c.html#ac159dfbfd790607f85073ad2d8464a8b" target="_top" xlink:title=" ">
<polygon fill="none" stroke="black" points="506,-114.5 506,-133.5 613,-133.5 613,-114.5 506,-114.5"/>
<text text-anchor="middle" x="559.5" y="-121.5" font-family="Helvetica,sans-Serif" font-size="10.00">gsd_initialize_handle</text>
</a>
</g>
</g>
<!-- Node1&#45;&gt;Node22 -->
<g id="edge26" class="edge">
<title>Node1&#45;&gt;Node22</title>
<path fill="none" stroke="midnightblue" d="M664.46,-111.84C647.71,-113.8 629.55,-115.93 613.17,-117.84"/>
<polygon fill="midnightblue" stroke="midnightblue" points="665.16,-115.29 674.68,-110.65 664.35,-108.33 665.16,-115.29"/>
</g>
<!-- Node3 -->
<g id="node3" class="node">
<title>Node3</title>
<g id="a_node3"><a xlink:href="gsd_8h.html#ae22447904b925f284bf987fae448488a" target="_top" xlink:title=" ">
<polygon fill="none" stroke="black" points="343,-342.5 343,-361.5 433,-361.5 433,-342.5 343,-342.5"/>
<text text-anchor="middle" x="388" y="-349.5" font-family="Helvetica,sans-Serif" font-size="10.00">gsd_write_chunk</text>
</a>
</g>
</g>
<!-- Node2&#45;&gt;Node3 -->
<g id="edge2" class="edge">
<title>Node2&#45;&gt;Node3</title>
<path fill="none" stroke="midnightblue" d="M530.6,-280.15C495.93,-297.75 437.71,-327.29 407.87,-342.43"/>
<polygon fill="midnightblue" stroke="midnightblue" points="532.38,-283.18 539.71,-275.53 529.21,-276.94 532.38,-283.18"/>
</g>
<!-- Node4 -->
<g id="node4" class="node">
<title>Node4</title>
<g id="a_node4"><a xlink:href="classGSDUtil.html#a77b5ebe2817ac868ad1b171f3d7b0cae" target="_top" xlink:title="Writes header information to GSD.">
<polygon fill="none" stroke="black" points="164,-399.5 164,-418.5 276,-418.5 276,-399.5 164,-399.5"/>
<text text-anchor="middle" x="220" y="-406.5" font-family="Helvetica,sans-Serif" font-size="10.00">GSDUtil::writeHeader</text>
</a>
</g>
</g>
<!-- Node3&#45;&gt;Node4 -->
<g id="edge3" class="edge">
<title>Node3&#45;&gt;Node4</title>
<path fill="none" stroke="midnightblue" d="M357.19,-365.76C339.63,-373.53 316.83,-383.05 296,-390 285.55,-393.48 274.1,-396.69 263.36,-399.43"/>
<polygon fill="midnightblue" stroke="midnightblue" points="358.68,-368.93 366.37,-361.64 355.81,-362.54 358.68,-368.93"/>
</g>
<!-- Node6 -->
<g id="node6" class="node">
<title>Node6</title>
<g id="a_node6"><a xlink:href="classGSDUtil.html#aa0dc50cd5e5534260375ad4962511cf0" target="_top" xlink:title="Writes parameter information to GSD.">
<polygon fill="none" stroke="black" points="154.5,-361.5 154.5,-380.5 285.5,-380.5 285.5,-361.5 154.5,-361.5"/>
<text text-anchor="middle" x="220" y="-368.5" font-family="Helvetica,sans-Serif" font-size="10.00">GSDUtil::writeParameters</text>
</a>
</g>
</g>
<!-- Node3&#45;&gt;Node6 -->
<g id="edge5" class="edge">
<title>Node3&#45;&gt;Node6</title>
<path fill="none" stroke="midnightblue" d="M332.77,-358.21C317.7,-359.93 301.18,-361.82 285.58,-363.61"/>
<polygon fill="midnightblue" stroke="midnightblue" points="333.41,-361.66 342.95,-357.04 332.62,-354.7 333.41,-361.66"/>
</g>
<!-- Node7 -->
<g id="node7" class="node">
<title>Node7</title>
<g id="a_node7"><a xlink:href="classGSDUtil.html#a9464315a26a5d5e2c51bb2b4df5ee373" target="_top" xlink:title="Writes particle information to GSD.">
<polygon fill="none" stroke="black" points="160.5,-323.5 160.5,-342.5 279.5,-342.5 279.5,-323.5 160.5,-323.5"/>
<text text-anchor="middle" x="220" y="-330.5" font-family="Helvetica,sans-Serif" font-size="10.00">GSDUtil::writeParticles</text>
</a>
</g>
</g>
<!-- Node3&#45;&gt;Node7 -->
<g id="edge7" class="edge">
<title>Node3&#45;&gt;Node7</title>
<path fill="none" stroke="midnightblue" d="M332.65,-345.78C315.68,-343.84 296.89,-341.69 279.64,-339.71"/>
<polygon fill="midnightblue" stroke="midnightblue" points="332.62,-349.3 342.95,-346.96 333.41,-342.34 332.62,-349.3"/>
</g>
<!-- Node5 -->
<g id="node5" class="node">
<title>Node5</title>
<g id="a_node5"><a xlink:href="classGSDUtil.html#ae76e4a23f0fe0bca3cd44137b56b816b" target="_top" xlink:title="Appends frame to GSD file using data from systemData class.">
<polygon fill="none" stroke="black" points="0,-361.5 0,-380.5 108,-380.5 108,-361.5 0,-361.5"/>
<text text-anchor="middle" x="54" y="-368.5" font-family="Helvetica,sans-Serif" font-size="10.00">GSDUtil::writeFrame</text>
</a>
</g>
</g>
<!-- Node4&#45;&gt;Node5 -->
<g id="edge4" class="edge">
<title>Node4&#45;&gt;Node5</title>
<path fill="none" stroke="midnightblue" d="M167.66,-397.1C144.61,-391.76 117.78,-385.55 96.09,-380.52"/>
<polygon fill="midnightblue" stroke="midnightblue" points="167.08,-400.56 177.62,-399.41 168.66,-393.74 167.08,-400.56"/>
</g>
<!-- Node6&#45;&gt;Node5 -->
<g id="edge6" class="edge">
<title>Node6&#45;&gt;Node5</title>
<path fill="none" stroke="midnightblue" d="M144.04,-371C131.88,-371 119.51,-371 108.01,-371"/>
<polygon fill="midnightblue" stroke="midnightblue" points="144.18,-374.5 154.18,-371 144.18,-367.5 144.18,-374.5"/>
</g>
<!-- Node7&#45;&gt;Node5 -->
<g id="edge8" class="edge">
<title>Node7&#45;&gt;Node5</title>
<path fill="none" stroke="midnightblue" d="M167.66,-344.9C144.61,-350.24 117.78,-356.45 96.09,-361.48"/>
<polygon fill="midnightblue" stroke="midnightblue" points="168.66,-348.26 177.62,-342.59 167.08,-341.44 168.66,-348.26"/>
</g>
<!-- Node9 -->
<g id="node9" class="node">
<title>Node9</title>
<g id="a_node9"><a xlink:href="classGSDUtil.html#a86d2352b694afc6a0c938a13b3acec9d" target="_top" xlink:title="Finds and then loads data from GSD.">
<polygon fill="none" stroke="black" points="334.5,-209.5 334.5,-228.5 441.5,-228.5 441.5,-209.5 334.5,-209.5"/>
<text text-anchor="middle" x="388" y="-216.5" font-family="Helvetica,sans-Serif" font-size="10.00">GSDUtil::readChunk</text>
</a>
</g>
</g>
<!-- Node8&#45;&gt;Node9 -->
<g id="edge10" class="edge">
<title>Node8&#45;&gt;Node9</title>
<path fill="none" stroke="midnightblue" d="M506.58,-192.64C482.55,-198.03 454.35,-204.35 431.59,-209.45"/>
<polygon fill="midnightblue" stroke="midnightblue" points="507.61,-196 516.6,-190.39 506.08,-189.17 507.61,-196"/>
</g>
<!-- Node10 -->
<g id="node10" class="node">
<title>Node10</title>
<g id="a_node10"><a xlink:href="classGSDUtil.html#a2015dcdcdb33be9106f5c8f45f8564cc" target="_top" xlink:title="Read header information from GSD frame m_frame">
<polygon fill="none" stroke="black" points="165,-285.5 165,-304.5 275,-304.5 275,-285.5 165,-285.5"/>
<text text-anchor="middle" x="220" y="-292.5" font-family="Helvetica,sans-Serif" font-size="10.00">GSDUtil::readHeader</text>
</a>
</g>
</g>
<!-- Node9&#45;&gt;Node10 -->
<g id="edge11" class="edge">
<title>Node9&#45;&gt;Node10</title>
<path fill="none" stroke="midnightblue" d="M365.99,-234.82C348.19,-247.56 321.55,-265.08 296,-276 287.23,-279.75 277.56,-282.88 268.15,-285.45"/>
<polygon fill="midnightblue" stroke="midnightblue" points="368.43,-237.38 374.44,-228.66 364.3,-231.72 368.43,-237.38"/>
</g>
<!-- Node12 -->
<g id="node12" class="node">
<title>Node12</title>
<g id="a_node12"><a xlink:href="classGSDUtil.html#a31f9c7368ebd89c6293d9d9d83598e62" target="_top" xlink:title="Read parameter information from GSD frame m_frame">
<polygon fill="none" stroke="black" points="156,-247.5 156,-266.5 284,-266.5 284,-247.5 156,-247.5"/>
<text text-anchor="middle" x="220" y="-254.5" font-family="Helvetica,sans-Serif" font-size="10.00">GSDUtil::readParameters</text>
</a>
</g>
</g>
<!-- Node9&#45;&gt;Node12 -->
<g id="edge13" class="edge">
<title>Node9&#45;&gt;Node12</title>
<path fill="none" stroke="midnightblue" d="M335.35,-230.82C311.94,-236.18 284.64,-242.43 262.59,-247.48"/>
<polygon fill="midnightblue" stroke="midnightblue" points="336.14,-234.23 345.11,-228.59 334.58,-227.41 336.14,-234.23"/>
</g>
<!-- Node13 -->
<g id="node13" class="node">
<title>Node13</title>
<g id="a_node13"><a xlink:href="classGSDUtil.html#ad404c3879fb81c0b73b2335ea6e4676a" target="_top" xlink:title="Read particle information from GSD frame m_frame">
<polygon fill="none" stroke="black" points="162,-209.5 162,-228.5 278,-228.5 278,-209.5 162,-209.5"/>
<text text-anchor="middle" x="220" y="-216.5" font-family="Helvetica,sans-Serif" font-size="10.00">GSDUtil::readParticles</text>
</a>
</g>
</g>
<!-- Node9&#45;&gt;Node13 -->
<g id="edge15" class="edge">
<title>Node9&#45;&gt;Node13</title>
<path fill="none" stroke="midnightblue" d="M324.17,-219C309.03,-219 292.93,-219 278.07,-219"/>
<polygon fill="midnightblue" stroke="midnightblue" points="324.48,-222.5 334.48,-219 324.48,-215.5 324.48,-222.5"/>
</g>
<!-- Node14 -->
<g id="node14" class="node">
<title>Node14</title>
<g id="a_node14"><a xlink:href="classGSDUtil.html#a278d1db9ece12bdc1268780313d83daf" target="_top" xlink:title="Reads system specific variables from GSD frame m_frame">
<polygon fill="none" stroke="black" points="144,-171.5 144,-190.5 296,-190.5 296,-171.5 144,-171.5"/>
<text text-anchor="middle" x="220" y="-178.5" font-family="Helvetica,sans-Serif" font-size="10.00">GSDUtil::readSystemSpecifics</text>
</a>
</g>
</g>
<!-- Node9&#45;&gt;Node14 -->
<g id="edge17" class="edge">
<title>Node9&#45;&gt;Node14</title>
<path fill="none" stroke="midnightblue" d="M335.35,-207.18C311.94,-201.82 284.64,-195.57 262.59,-190.52"/>
<polygon fill="midnightblue" stroke="midnightblue" points="334.58,-210.59 345.11,-209.41 336.14,-203.77 334.58,-210.59"/>
</g>
<!-- Node11 -->
<g id="node11" class="node">
<title>Node11</title>
<g id="a_node11"><a xlink:href="classGSDUtil.html#a2567bdb7f5952a76984552e0591fa330" target="_top" xlink:title="Construct a new GSDUtil object.">
<polygon fill="none" stroke="black" points="6,-209.5 6,-228.5 102,-228.5 102,-209.5 6,-209.5"/>
<text text-anchor="middle" x="54" y="-216.5" font-family="Helvetica,sans-Serif" font-size="10.00">GSDUtil::GSDUtil</text>
</a>
</g>
</g>
<!-- Node10&#45;&gt;Node11 -->
<g id="edge12" class="edge">
<title>Node10&#45;&gt;Node11</title>
<path fill="none" stroke="midnightblue" d="M161.81,-282.57C155.71,-280.64 149.66,-278.45 144,-276 114.54,-263.23 83.77,-241.29 67.24,-228.67"/>
<polygon fill="midnightblue" stroke="midnightblue" points="160.84,-285.93 171.42,-285.41 162.82,-279.22 160.84,-285.93"/>
</g>
<!-- Node12&#45;&gt;Node11 -->
<g id="edge14" class="edge">
<title>Node12&#45;&gt;Node11</title>
<path fill="none" stroke="midnightblue" d="M167.66,-245.1C144.61,-239.76 117.78,-233.55 96.09,-228.52"/>
<polygon fill="midnightblue" stroke="midnightblue" points="167.08,-248.56 177.62,-247.41 168.66,-241.74 167.08,-248.56"/>
</g>
<!-- Node13&#45;&gt;Node11 -->
<g id="edge16" class="edge">
<title>Node13&#45;&gt;Node11</title>
<path fill="none" stroke="midnightblue" d="M151.44,-219C134.83,-219 117.42,-219 102.03,-219"/>
<polygon fill="midnightblue" stroke="midnightblue" points="151.64,-222.5 161.64,-219 151.64,-215.5 151.64,-222.5"/>
</g>
<!-- Node14&#45;&gt;Node11 -->
<g id="edge18" class="edge">
<title>Node14&#45;&gt;Node11</title>
<path fill="none" stroke="midnightblue" d="M167.66,-192.9C144.61,-198.24 117.78,-204.45 96.09,-209.48"/>
<polygon fill="midnightblue" stroke="midnightblue" points="168.66,-196.26 177.62,-190.59 167.08,-189.44 168.66,-196.26"/>
</g>
<!-- Node15&#45;&gt;Node16 -->
<g id="edge20" class="edge">
<title>Node15&#45;&gt;Node16</title>
<path fill="none" stroke="midnightblue" d="M469.7,-10C453.65,-10 437.79,-10 424.43,-10"/>
<polygon fill="midnightblue" stroke="midnightblue" points="469.7,-13.5 479.7,-10 469.7,-6.5 469.7,-13.5"/>
</g>
<!-- Node18 -->
<g id="node18" class="node">
<title>Node18</title>
<g id="a_node18"><a xlink:href="gsd_8h.html#a58654880dd98b2bc32e429810b7d2623" target="_top" xlink:title=" ">
<polygon fill="none" stroke="black" points="355.5,-38.5 355.5,-57.5 420.5,-57.5 420.5,-38.5 355.5,-38.5"/>
<text text-anchor="middle" x="388" y="-45.5" font-family="Helvetica,sans-Serif" font-size="10.00">gsd_create</text>
</a>
</g>
</g>
<!-- Node17&#45;&gt;Node18 -->
<g id="edge22" class="edge">
<title>Node17&#45;&gt;Node18</title>
<path fill="none" stroke="midnightblue" d="M505.71,-74.16C477.77,-67.9 444.41,-60.42 420.52,-55.07"/>
<polygon fill="midnightblue" stroke="midnightblue" points="505.2,-77.64 515.73,-76.41 506.74,-70.81 505.2,-77.64"/>
</g>
<!-- Node19 -->
<g id="node19" class="node">
<title>Node19</title>
<g id="a_node19"><a xlink:href="gsd_8h.html#a157d14770365926fde71a7787871bc63" target="_top" xlink:title=" ">
<polygon fill="none" stroke="black" points="332,-76.5 332,-95.5 444,-95.5 444,-76.5 332,-76.5"/>
<text text-anchor="middle" x="388" y="-83.5" font-family="Helvetica,sans-Serif" font-size="10.00">gsd_create_and_open</text>
</a>
</g>
</g>
<!-- Node17&#45;&gt;Node19 -->
<g id="edge23" class="edge">
<title>Node17&#45;&gt;Node19</title>
<path fill="none" stroke="midnightblue" d="M503.91,-86C484.79,-86 463.31,-86 444.14,-86"/>
<polygon fill="midnightblue" stroke="midnightblue" points="503.97,-89.5 513.97,-86 503.97,-82.5 503.97,-89.5"/>
</g>
<!-- Node20 -->
<g id="node20" class="node">
<title>Node20</title>
<g id="a_node20"><a xlink:href="gsd_8h.html#a02ac7984034069d508b1c7ccbe702bac" target="_top" xlink:title=" ">
<polygon fill="none" stroke="black" points="351.5,-114.5 351.5,-133.5 424.5,-133.5 424.5,-114.5 351.5,-114.5"/>
<text text-anchor="middle" x="388" y="-121.5" font-family="Helvetica,sans-Serif" font-size="10.00">gsd_truncate</text>
</a>
</g>
</g>
<!-- Node17&#45;&gt;Node20 -->
<g id="edge24" class="edge">
<title>Node17&#45;&gt;Node20</title>
<path fill="none" stroke="midnightblue" d="M505.87,-97.8C479.46,-103.72 448.16,-110.74 424.6,-116.02"/>
<polygon fill="midnightblue" stroke="midnightblue" points="506.74,-101.19 515.73,-95.59 505.2,-94.36 506.74,-101.19"/>
</g>
<!-- Node21 -->
<g id="node21" class="node">
<title>Node21</title>
<g id="a_node21"><a xlink:href="classGSDUtil.html#a78b796cb5093b0aa6f5d2573658fcca1" target="_top" xlink:title="Removes all frames and data from GSD file. This returns GSD to a &quot;new file&quot; state.">
<polygon fill="none" stroke="black" points="162,-95.5 162,-114.5 278,-114.5 278,-95.5 162,-95.5"/>
<text text-anchor="middle" x="220" y="-102.5" font-family="Helvetica,sans-Serif" font-size="10.00">GSDUtil::truncateGSD</text>
</a>
</g>
</g>
<!-- Node20&#45;&gt;Node21 -->
<g id="edge25" class="edge">
<title>Node20&#45;&gt;Node21</title>
<path fill="none" stroke="midnightblue" d="M341.23,-118.76C321.71,-116.53 298.72,-113.9 278.1,-111.54"/>
<polygon fill="midnightblue" stroke="midnightblue" points="341.06,-122.26 351.39,-119.92 341.85,-115.31 341.06,-122.26"/>
</g>
<!-- Node22&#45;&gt;Node19 -->
<g id="edge27" class="edge">
<title>Node22&#45;&gt;Node19</title>
<path fill="none" stroke="midnightblue" d="M505.76,-112.18C481.86,-106.82 453.98,-100.57 431.46,-95.52"/>
<polygon fill="midnightblue" stroke="midnightblue" points="505.2,-115.64 515.73,-114.41 506.74,-108.81 505.2,-115.64"/>
</g>
<!-- Node22&#45;&gt;Node20 -->
<g id="edge30" class="edge">
<title>Node22&#45;&gt;Node20</title>
<path fill="none" stroke="midnightblue" d="M495.68,-124C471.66,-124 445.11,-124 424.51,-124"/>
<polygon fill="midnightblue" stroke="midnightblue" points="495.8,-127.5 505.8,-124 495.8,-120.5 495.8,-127.5"/>
</g>
<!-- Node23 -->
<g id="node23" class="node">
<title>Node23</title>
<g id="a_node23"><a xlink:href="gsd_8h.html#ae0add799755285c1108a7b97b2ed7e00" target="_top" xlink:title=" ">
<polygon fill="none" stroke="black" points="358.5,-152.5 358.5,-171.5 417.5,-171.5 417.5,-152.5 358.5,-152.5"/>
<text text-anchor="middle" x="388" y="-159.5" font-family="Helvetica,sans-Serif" font-size="10.00">gsd_open</text>
</a>
</g>
</g>
<!-- Node22&#45;&gt;Node23 -->
<g id="edge28" class="edge">
<title>Node22&#45;&gt;Node23</title>
<path fill="none" stroke="midnightblue" d="M505.71,-135.83C476.63,-142.35 441.67,-150.19 417.64,-155.58"/>
<polygon fill="midnightblue" stroke="midnightblue" points="506.74,-139.19 515.73,-133.59 505.2,-132.36 506.74,-139.19"/>
</g>
<!-- Node23&#45;&gt;Node11 -->
<g id="edge29" class="edge">
<title>Node23&#45;&gt;Node11</title>
<path fill="none" stroke="midnightblue" d="M348.08,-155.4C299.28,-148.61 213.59,-141.62 144,-162 112.3,-171.28 81.18,-195.69 65.49,-209.37"/>
<polygon fill="midnightblue" stroke="midnightblue" points="347.8,-158.9 358.2,-156.88 348.81,-151.97 347.8,-158.9"/>
</g>
</g>
</svg>
