<?xml version="1.0" encoding="UTF-8" standalone="no"?>
<!DOCTYPE svg PUBLIC "-//W3C//DTD SVG 1.1//EN"
 "http://www.w3.org/Graphics/SVG/1.1/DTD/svg11.dtd">
<!-- Generated by graphviz version 2.43.0 (0)
 -->
<!-- Title: gsd_util_zero_memory Pages: 1 -->
<svg width="916pt" height="499pt"
 viewBox="0.00 0.00 916.00 498.99" xmlns="http://www.w3.org/2000/svg" xmlns:xlink="http://www.w3.org/1999/xlink">
<g id="graph0" class="graph" transform="scale(1 1) rotate(0) translate(4 494.99)">
<title>gsd_util_zero_memory</title>
<!-- Node1 -->
<g id="node1" class="node">
<title>Node1</title>
<g id="a_node1"><a xlink:title=" ">
<polygon fill="#bfbfbf" stroke="black" points="793,-228.5 793,-247.5 908,-247.5 908,-228.5 793,-228.5"/>
<text text-anchor="middle" x="850.5" y="-235.5" font-family="Helvetica,sans-Serif" font-size="10.00">gsd_util_zero_memory</text>
</a>
</g>
</g>
<!-- Node2 -->
<g id="node2" class="node">
<title>Node2</title>
<g id="a_node2"><a xlink:href="gsd_8c.html#a7a717f9dafe011e68434e181c76253af" target="_top" xlink:title=" ">
<polygon fill="none" stroke="black" points="635,-342.5 635,-361.5 757,-361.5 757,-342.5 635,-342.5"/>
<text text-anchor="middle" x="696" y="-349.5" font-family="Helvetica,sans-Serif" font-size="10.00">gsd_byte_buffer_append</text>
</a>
</g>
</g>
<!-- Node1&#45;&gt;Node2 -->
<g id="edge1" class="edge">
<title>Node1&#45;&gt;Node2</title>
<path fill="none" stroke="midnightblue" d="M835.19,-255.59C818.27,-275.43 788.43,-307.59 757,-328 747.97,-333.87 737.27,-338.71 727.43,-342.47"/>
<polygon fill="midnightblue" stroke="midnightblue" points="838.08,-257.58 841.81,-247.67 832.71,-253.09 838.08,-257.58"/>
</g>
<!-- Node4 -->
<g id="node4" class="node">
<title>Node4</title>
<g id="a_node4"><a xlink:href="gsd_8h.html#ae22447904b925f284bf987fae448488a" target="_top" xlink:title=" ">
<polygon fill="none" stroke="black" points="333.5,-413.5 333.5,-432.5 423.5,-432.5 423.5,-413.5 333.5,-413.5"/>
<text text-anchor="middle" x="378.5" y="-420.5" font-family="Helvetica,sans-Serif" font-size="10.00">gsd_write_chunk</text>
</a>
</g>
</g>
<!-- Node1&#45;&gt;Node4 -->
<g id="edge43" class="edge">
<title>Node1&#45;&gt;Node4</title>
<path fill="none" stroke="midnightblue" d="M847.27,-257.72C841.31,-300.29 820.85,-400.69 757,-447 657.9,-518.88 602.32,-485.64 482,-463 451.21,-457.21 417.81,-442.42 397.77,-432.54"/>
<polygon fill="midnightblue" stroke="midnightblue" points="850.77,-257.92 848.57,-247.55 843.83,-257.03 850.77,-257.92"/>
</g>
<!-- Node9 -->
<g id="node9" class="node">
<title>Node9</title>
<g id="a_node9"><a xlink:href="gsd_8c.html#ab147cf4d77c10fd8085e5023e9afe55f" target="_top" xlink:title=" ">
<polygon fill="none" stroke="black" points="482,-304.5 482,-323.5 599,-323.5 599,-304.5 482,-304.5"/>
<text text-anchor="middle" x="540.5" y="-311.5" font-family="Helvetica,sans-Serif" font-size="10.00">gsd_flush_name_buffer</text>
</a>
</g>
</g>
<!-- Node1&#45;&gt;Node9 -->
<g id="edge24" class="edge">
<title>Node1&#45;&gt;Node9</title>
<path fill="none" stroke="midnightblue" d="M816.9,-251.43C799.37,-258.28 777.25,-266.34 757,-272 704.32,-286.71 642.98,-298.13 599.25,-305.32"/>
<polygon fill="midnightblue" stroke="midnightblue" points="818.64,-254.51 826.65,-247.56 816.06,-248 818.64,-254.51"/>
</g>
<!-- Node11 -->
<g id="node11" class="node">
<title>Node11</title>
<g id="a_node11"><a xlink:href="gsd_8h.html#adb92d5142812c19bf4ee33cbde439131" target="_top" xlink:title=" ">
<polygon fill="none" stroke="black" points="504.5,-228.5 504.5,-247.5 576.5,-247.5 576.5,-228.5 504.5,-228.5"/>
<text text-anchor="middle" x="540.5" y="-235.5" font-family="Helvetica,sans-Serif" font-size="10.00">gsd_upgrade</text>
</a>
</g>
</g>
<!-- Node1&#45;&gt;Node11 -->
<g id="edge42" class="edge">
<title>Node1&#45;&gt;Node11</title>
<path fill="none" stroke="midnightblue" d="M782.37,-238C719.15,-238 626.9,-238 576.9,-238"/>
<polygon fill="midnightblue" stroke="midnightblue" points="782.65,-241.5 792.65,-238 782.65,-234.5 782.65,-241.5"/>
</g>
<!-- Node12 -->
<g id="node12" class="node">
<title>Node12</title>
<g id="a_node12"><a xlink:href="gsd_8c.html#ae50726c30c5bf629b6af1ef88020302f" target="_top" xlink:title=" ">
<polygon fill="none" stroke="black" points="642.5,-152.5 642.5,-171.5 749.5,-171.5 749.5,-152.5 642.5,-152.5"/>
<text text-anchor="middle" x="696" y="-159.5" font-family="Helvetica,sans-Serif" font-size="10.00">gsd_byte_buffer_free</text>
</a>
</g>
</g>
<!-- Node1&#45;&gt;Node12 -->
<g id="edge15" class="edge">
<title>Node1&#45;&gt;Node12</title>
<path fill="none" stroke="midnightblue" d="M827.62,-222.38C809.4,-209.9 782.41,-192.64 757,-181 749.15,-177.41 740.43,-174.22 732.13,-171.53"/>
<polygon fill="midnightblue" stroke="midnightblue" points="826.09,-225.57 836.29,-228.41 830.08,-219.83 826.09,-225.57"/>
</g>
<!-- Node17 -->
<g id="node17" class="node">
<title>Node17</title>
<g id="a_node17"><a xlink:href="gsd_8h.html#a157d14770365926fde71a7787871bc63" target="_top" xlink:title=" ">
<polygon fill="none" stroke="black" points="484.5,-76.5 484.5,-95.5 596.5,-95.5 596.5,-76.5 484.5,-76.5"/>
<text text-anchor="middle" x="540.5" y="-83.5" font-family="Helvetica,sans-Serif" font-size="10.00">gsd_create_and_open</text>
</a>
</g>
</g>
<!-- Node1&#45;&gt;Node17 -->
<g id="edge21" class="edge">
<title>Node1&#45;&gt;Node17</title>
<path fill="none" stroke="midnightblue" d="M842.52,-219.09C830.32,-189.04 802.05,-131.13 757,-105 708.26,-76.74 642.65,-75.07 596.68,-78.54"/>
<polygon fill="midnightblue" stroke="midnightblue" points="839.28,-220.41 846.17,-228.46 845.8,-217.87 839.28,-220.41"/>
</g>
<!-- Node18 -->
<g id="node18" class="node">
<title>Node18</title>
<g id="a_node18"><a xlink:href="gsd_8c.html#ae6dddb94661e99e54f6c01b1a443e27f" target="_top" xlink:title=" ">
<polygon fill="none" stroke="black" points="482.5,-266.5 482.5,-285.5 598.5,-285.5 598.5,-266.5 482.5,-266.5"/>
<text text-anchor="middle" x="540.5" y="-273.5" font-family="Helvetica,sans-Serif" font-size="10.00">gsd_expand_file_index</text>
</a>
</g>
</g>
<!-- Node1&#45;&gt;Node18 -->
<g id="edge22" class="edge">
<title>Node1&#45;&gt;Node18</title>
<path fill="none" stroke="midnightblue" d="M782.73,-248.43C774.08,-249.68 765.33,-250.91 757,-252 703.44,-259.03 642.21,-265.72 598.74,-270.24"/>
<polygon fill="midnightblue" stroke="midnightblue" points="783.42,-251.86 792.8,-246.94 782.4,-244.94 783.42,-251.86"/>
</g>
<!-- Node19 -->
<g id="node19" class="node">
<title>Node19</title>
<g id="a_node19"><a xlink:href="gsd_8c.html#a258b64725f90f60d969752d65fba9850" target="_top" xlink:title=" ">
<polygon fill="none" stroke="black" points="640.5,-418.5 640.5,-437.5 751.5,-437.5 751.5,-418.5 640.5,-418.5"/>
<text text-anchor="middle" x="696" y="-425.5" font-family="Helvetica,sans-Serif" font-size="10.00">gsd_index_buffer_add</text>
</a>
</g>
</g>
<!-- Node1&#45;&gt;Node19 -->
<g id="edge25" class="edge">
<title>Node1&#45;&gt;Node19</title>
<path fill="none" stroke="midnightblue" d="M838.58,-256.09C822.28,-282.49 789.96,-332.61 757,-371 741.65,-388.88 721.34,-407.24 708.73,-418.13"/>
<polygon fill="midnightblue" stroke="midnightblue" points="841.6,-257.86 843.83,-247.5 835.63,-254.21 841.6,-257.86"/>
</g>
<!-- Node21 -->
<g id="node21" class="node">
<title>Node21</title>
<g id="a_node21"><a xlink:href="gsd_8c.html#a9e12a38df69cf73fa771b005748cb3e5" target="_top" xlink:title=" ">
<polygon fill="none" stroke="black" points="640,-190.5 640,-209.5 752,-209.5 752,-190.5 640,-190.5"/>
<text text-anchor="middle" x="696" y="-197.5" font-family="Helvetica,sans-Serif" font-size="10.00">gsd_index_buffer_free</text>
</a>
</g>
</g>
<!-- Node1&#45;&gt;Node21 -->
<g id="edge30" class="edge">
<title>Node1&#45;&gt;Node21</title>
<path fill="none" stroke="midnightblue" d="M801.18,-225.96C779.88,-220.65 755.2,-214.5 735.21,-209.52"/>
<polygon fill="midnightblue" stroke="midnightblue" points="800.47,-229.39 811.02,-228.41 802.16,-222.6 800.47,-229.39"/>
</g>
<!-- Node22 -->
<g id="node22" class="node">
<title>Node22</title>
<g id="a_node22"><a xlink:href="gsd_8c.html#acb769baf09c31a5ad6cba95bd348c194" target="_top" xlink:title=" ">
<polygon fill="none" stroke="black" points="650.5,-114.5 650.5,-133.5 741.5,-133.5 741.5,-114.5 650.5,-114.5"/>
<text text-anchor="middle" x="696" y="-121.5" font-family="Helvetica,sans-Serif" font-size="10.00">gsd_initialize_file</text>
</a>
</g>
</g>
<!-- Node1&#45;&gt;Node22 -->
<g id="edge35" class="edge">
<title>Node1&#45;&gt;Node22</title>
<path fill="none" stroke="midnightblue" d="M836.65,-220.23C820.39,-198.96 790.43,-163.62 757,-143 750.86,-139.21 743.9,-136.12 736.95,-133.61"/>
<polygon fill="midnightblue" stroke="midnightblue" points="833.97,-222.48 842.75,-228.4 839.58,-218.3 833.97,-222.48"/>
</g>
<!-- Node24 -->
<g id="node24" class="node">
<title>Node24</title>
<g id="a_node24"><a xlink:href="gsd_8h.html#ae0add799755285c1108a7b97b2ed7e00" target="_top" xlink:title=" ">
<polygon fill="none" stroke="black" points="666.5,-38.5 666.5,-57.5 725.5,-57.5 725.5,-38.5 666.5,-38.5"/>
<text text-anchor="middle" x="696" y="-45.5" font-family="Helvetica,sans-Serif" font-size="10.00">gsd_open</text>
</a>
</g>
</g>
<!-- Node1&#45;&gt;Node24 -->
<g id="edge39" class="edge">
<title>Node1&#45;&gt;Node24</title>
<path fill="none" stroke="midnightblue" d="M843.52,-218.57C832.07,-184.41 803.94,-113.29 757,-72 748.16,-64.22 736.47,-58.78 725.77,-55.08"/>
<polygon fill="midnightblue" stroke="midnightblue" points="840.25,-219.84 846.65,-228.28 846.91,-217.69 840.25,-219.84"/>
</g>
<!-- Node3 -->
<g id="node3" class="node">
<title>Node3</title>
<g id="a_node3"><a xlink:href="gsd_8c.html#aa1a0a7dcf4015edcadbb47a6451b4a4b" target="_top" xlink:title=" ">
<polygon fill="none" stroke="black" points="491.5,-380.5 491.5,-399.5 589.5,-399.5 589.5,-380.5 491.5,-380.5"/>
<text text-anchor="middle" x="540.5" y="-387.5" font-family="Helvetica,sans-Serif" font-size="10.00">gsd_append_name</text>
</a>
</g>
</g>
<!-- Node2&#45;&gt;Node3 -->
<g id="edge2" class="edge">
<title>Node2&#45;&gt;Node3</title>
<path fill="none" stroke="midnightblue" d="M646.36,-364.04C624.92,-369.35 600.08,-375.5 579.96,-380.48"/>
<polygon fill="midnightblue" stroke="midnightblue" points="647.4,-367.39 656.27,-361.59 645.72,-360.59 647.4,-367.39"/>
</g>
<!-- Node2&#45;&gt;Node4 -->
<g id="edge14" class="edge">
<title>Node2&#45;&gt;Node4</title>
<path fill="none" stroke="midnightblue" d="M624.52,-351.62C582.43,-353.02 528.32,-357.72 482,-371 448.62,-380.57 413.27,-401.15 394.04,-413.36"/>
<polygon fill="midnightblue" stroke="midnightblue" points="624.77,-355.11 634.67,-351.33 624.58,-348.11 624.77,-355.11"/>
</g>
<!-- Node2&#45;&gt;Node9 -->
<g id="edge10" class="edge">
<title>Node2&#45;&gt;Node9</title>
<path fill="none" stroke="midnightblue" d="M646.36,-339.96C624.92,-334.65 600.08,-328.5 579.96,-323.52"/>
<polygon fill="midnightblue" stroke="midnightblue" points="645.72,-343.41 656.27,-342.41 647.4,-336.61 645.72,-343.41"/>
</g>
<!-- Node2&#45;&gt;Node11 -->
<g id="edge13" class="edge">
<title>Node2&#45;&gt;Node11</title>
<path fill="none" stroke="midnightblue" d="M681.47,-334.32C664.4,-313.14 633.11,-277.9 599,-257 592.19,-252.83 584.35,-249.46 576.7,-246.78"/>
<polygon fill="midnightblue" stroke="midnightblue" points="678.95,-336.77 687.89,-342.46 684.44,-332.44 678.95,-336.77"/>
</g>
<!-- Node3&#45;&gt;Node4 -->
<g id="edge3" class="edge">
<title>Node3&#45;&gt;Node4</title>
<path fill="none" stroke="midnightblue" d="M483.24,-401.6C463.73,-405.63 442.15,-410.08 423.75,-413.87"/>
<polygon fill="midnightblue" stroke="midnightblue" points="484.13,-404.99 493.22,-399.54 482.72,-398.14 484.13,-404.99"/>
</g>
<!-- Node5 -->
<g id="node5" class="node">
<title>Node5</title>
<g id="a_node5"><a xlink:href="classGSDUtil.html#a77b5ebe2817ac868ad1b171f3d7b0cae" target="_top" xlink:title="Writes header information to GSD.">
<polygon fill="none" stroke="black" points="153.5,-432.5 153.5,-451.5 265.5,-451.5 265.5,-432.5 153.5,-432.5"/>
<text text-anchor="middle" x="209.5" y="-439.5" font-family="Helvetica,sans-Serif" font-size="10.00">GSDUtil::writeHeader</text>
</a>
</g>
</g>
<!-- Node4&#45;&gt;Node5 -->
<g id="edge4" class="edge">
<title>Node4&#45;&gt;Node5</title>
<path fill="none" stroke="midnightblue" d="M323.22,-429.18C304.82,-431.27 284.26,-433.61 265.79,-435.71"/>
<polygon fill="midnightblue" stroke="midnightblue" points="323.65,-432.65 333.19,-428.04 322.85,-425.69 323.65,-432.65"/>
</g>
<!-- Node7 -->
<g id="node7" class="node">
<title>Node7</title>
<g id="a_node7"><a xlink:href="classGSDUtil.html#aa0dc50cd5e5534260375ad4962511cf0" target="_top" xlink:title="Writes parameter information to GSD.">
<polygon fill="none" stroke="black" points="144,-394.5 144,-413.5 275,-413.5 275,-394.5 144,-394.5"/>
<text text-anchor="middle" x="209.5" y="-401.5" font-family="Helvetica,sans-Serif" font-size="10.00">GSDUtil::writeParameters</text>
</a>
</g>
</g>
<!-- Node4&#45;&gt;Node7 -->
<g id="edge6" class="edge">
<title>Node4&#45;&gt;Node7</title>
<path fill="none" stroke="midnightblue" d="M322.89,-416.79C307.64,-415.05 290.92,-413.15 275.15,-411.36"/>
<polygon fill="midnightblue" stroke="midnightblue" points="322.85,-420.31 333.19,-417.96 323.65,-413.35 322.85,-420.31"/>
</g>
<!-- Node8 -->
<g id="node8" class="node">
<title>Node8</title>
<g id="a_node8"><a xlink:href="classGSDUtil.html#a9464315a26a5d5e2c51bb2b4df5ee373" target="_top" xlink:title="Writes particle information to GSD.">
<polygon fill="none" stroke="black" points="150,-356.5 150,-375.5 269,-375.5 269,-356.5 150,-356.5"/>
<text text-anchor="middle" x="209.5" y="-363.5" font-family="Helvetica,sans-Serif" font-size="10.00">GSDUtil::writeParticles</text>
</a>
</g>
</g>
<!-- Node4&#45;&gt;Node8 -->
<g id="edge8" class="edge">
<title>Node4&#45;&gt;Node8</title>
<path fill="none" stroke="midnightblue" d="M343.69,-409.8C323.81,-402.21 298.11,-392.68 275,-385 265.14,-381.72 254.34,-378.43 244.45,-375.53"/>
<polygon fill="midnightblue" stroke="midnightblue" points="342.64,-413.15 353.23,-413.47 345.15,-406.61 342.64,-413.15"/>
</g>
<!-- Node6 -->
<g id="node6" class="node">
<title>Node6</title>
<g id="a_node6"><a xlink:href="classGSDUtil.html#ae76e4a23f0fe0bca3cd44137b56b816b" target="_top" xlink:title="Appends frame to GSD file using data from systemData class.">
<polygon fill="none" stroke="black" points="0,-375.5 0,-394.5 108,-394.5 108,-375.5 0,-375.5"/>
<text text-anchor="middle" x="54" y="-382.5" font-family="Helvetica,sans-Serif" font-size="10.00">GSDUtil::writeFrame</text>
</a>
</g>
</g>
<!-- Node5&#45;&gt;Node6 -->
<g id="edge5" class="edge">
<title>Node5&#45;&gt;Node6</title>
<path fill="none" stroke="midnightblue" d="M163.79,-429.57C157.12,-427.5 150.35,-425.28 144,-423 120.13,-414.42 93.45,-402.74 75.59,-394.6"/>
<polygon fill="midnightblue" stroke="midnightblue" points="162.86,-432.94 173.45,-432.48 164.88,-426.24 162.86,-432.94"/>
</g>
<!-- Node7&#45;&gt;Node6 -->
<g id="edge7" class="edge">
<title>Node7&#45;&gt;Node6</title>
<path fill="none" stroke="midnightblue" d="M133.82,-394.76C125.25,-393.7 116.64,-392.63 108.43,-391.61"/>
<polygon fill="midnightblue" stroke="midnightblue" points="133.49,-398.24 143.85,-396 134.35,-391.3 133.49,-398.24"/>
</g>
<!-- Node8&#45;&gt;Node6 -->
<g id="edge9" class="edge">
<title>Node8&#45;&gt;Node6</title>
<path fill="none" stroke="midnightblue" d="M139.65,-374.52C129.19,-375.82 118.54,-377.14 108.47,-378.38"/>
<polygon fill="midnightblue" stroke="midnightblue" points="140.1,-377.99 149.59,-373.29 139.24,-371.05 140.1,-377.99"/>
</g>
<!-- Node10 -->
<g id="node10" class="node">
<title>Node10</title>
<g id="a_node10"><a xlink:href="gsd_8h.html#aa03810337c5eebcbe716d8633eaefc5e" target="_top" xlink:title=" ">
<polygon fill="none" stroke="black" points="337,-304.5 337,-323.5 420,-323.5 420,-304.5 337,-304.5"/>
<text text-anchor="middle" x="378.5" y="-311.5" font-family="Helvetica,sans-Serif" font-size="10.00">gsd_end_frame</text>
</a>
</g>
</g>
<!-- Node9&#45;&gt;Node10 -->
<g id="edge11" class="edge">
<title>Node9&#45;&gt;Node10</title>
<path fill="none" stroke="midnightblue" d="M471.55,-314C454.05,-314 435.76,-314 420.13,-314"/>
<polygon fill="midnightblue" stroke="midnightblue" points="471.74,-317.5 481.74,-314 471.74,-310.5 471.74,-317.5"/>
</g>
<!-- Node10&#45;&gt;Node6 -->
<g id="edge12" class="edge">
<title>Node10&#45;&gt;Node6</title>
<path fill="none" stroke="midnightblue" d="M326.66,-317.31C278.82,-321.34 205.54,-329.84 144,-347 118.75,-354.04 91.23,-366.61 73.57,-375.36"/>
<polygon fill="midnightblue" stroke="midnightblue" points="327.07,-320.79 336.76,-316.5 326.51,-313.82 327.07,-320.79"/>
</g>
<!-- Node12&#45;&gt;Node11 -->
<g id="edge20" class="edge">
<title>Node12&#45;&gt;Node11</title>
<path fill="none" stroke="midnightblue" d="M645.64,-175.34C641.93,-177.03 638.34,-178.91 635,-181 615.28,-193.35 618.64,-206.53 599,-219 592.25,-223.28 584.45,-226.7 576.8,-229.38"/>
<polygon fill="midnightblue" stroke="midnightblue" points="647.06,-178.54 655.01,-171.54 644.43,-172.06 647.06,-178.54"/>
</g>
<!-- Node13 -->
<g id="node13" class="node">
<title>Node13</title>
<g id="a_node13"><a xlink:href="gsd_8h.html#a08b4f76e3e19eda194def8c0c4b2b7a3" target="_top" xlink:title=" ">
<polygon fill="none" stroke="black" points="510,-190.5 510,-209.5 571,-209.5 571,-190.5 510,-190.5"/>
<text text-anchor="middle" x="540.5" y="-197.5" font-family="Helvetica,sans-Serif" font-size="10.00">gsd_close</text>
</a>
</g>
</g>
<!-- Node12&#45;&gt;Node13 -->
<g id="edge16" class="edge">
<title>Node12&#45;&gt;Node13</title>
<path fill="none" stroke="midnightblue" d="M646.33,-174.05C621.59,-180.17 592.33,-187.42 571.02,-192.69"/>
<polygon fill="midnightblue" stroke="midnightblue" points="647.4,-177.39 656.27,-171.59 645.72,-170.59 647.4,-177.39"/>
</g>
<!-- Node15 -->
<g id="node15" class="node">
<title>Node15</title>
<g id="a_node15"><a xlink:href="gsd_8h.html#a02ac7984034069d508b1c7ccbe702bac" target="_top" xlink:title=" ">
<polygon fill="none" stroke="black" points="504,-152.5 504,-171.5 577,-171.5 577,-152.5 504,-152.5"/>
<text text-anchor="middle" x="540.5" y="-159.5" font-family="Helvetica,sans-Serif" font-size="10.00">gsd_truncate</text>
</a>
</g>
</g>
<!-- Node12&#45;&gt;Node15 -->
<g id="edge18" class="edge">
<title>Node12&#45;&gt;Node15</title>
<path fill="none" stroke="midnightblue" d="M631.92,-162C613.2,-162 593.35,-162 577.04,-162"/>
<polygon fill="midnightblue" stroke="midnightblue" points="632.17,-165.5 642.17,-162 632.17,-158.5 632.17,-165.5"/>
</g>
<!-- Node14 -->
<g id="node14" class="node">
<title>Node14</title>
<g id="a_node14"><a xlink:href="classsystemData.html#a423b9bf369d6c53a27b64c9b56004810" target="_top" xlink:title=" ">
<polygon fill="none" stroke="black" points="311,-190.5 311,-209.5 446,-209.5 446,-190.5 311,-190.5"/>
<text text-anchor="middle" x="378.5" y="-197.5" font-family="Helvetica,sans-Serif" font-size="10.00">systemData::~systemData</text>
</a>
</g>
</g>
<!-- Node13&#45;&gt;Node14 -->
<g id="edge17" class="edge">
<title>Node13&#45;&gt;Node14</title>
<path fill="none" stroke="midnightblue" d="M499.63,-200C483.47,-200 464.37,-200 446.21,-200"/>
<polygon fill="midnightblue" stroke="midnightblue" points="499.78,-203.5 509.78,-200 499.78,-196.5 499.78,-203.5"/>
</g>
<!-- Node16 -->
<g id="node16" class="node">
<title>Node16</title>
<g id="a_node16"><a xlink:href="classGSDUtil.html#a78b796cb5093b0aa6f5d2573658fcca1" target="_top" xlink:title="Removes all frames and data from GSD file. This returns GSD to a &quot;new file&quot; state.">
<polygon fill="none" stroke="black" points="320.5,-152.5 320.5,-171.5 436.5,-171.5 436.5,-152.5 320.5,-152.5"/>
<text text-anchor="middle" x="378.5" y="-159.5" font-family="Helvetica,sans-Serif" font-size="10.00">GSDUtil::truncateGSD</text>
</a>
</g>
</g>
<!-- Node15&#45;&gt;Node16 -->
<g id="edge19" class="edge">
<title>Node15&#45;&gt;Node16</title>
<path fill="none" stroke="midnightblue" d="M493.85,-162C476.02,-162 455.39,-162 436.59,-162"/>
<polygon fill="midnightblue" stroke="midnightblue" points="493.99,-165.5 503.99,-162 493.99,-158.5 493.99,-165.5"/>
</g>
<!-- Node18&#45;&gt;Node10 -->
<g id="edge23" class="edge">
<title>Node18&#45;&gt;Node10</title>
<path fill="none" stroke="midnightblue" d="M489.11,-287.97C466.69,-293.29 440.65,-299.48 419.58,-304.48"/>
<polygon fill="midnightblue" stroke="midnightblue" points="490.2,-291.31 499.13,-285.59 488.59,-284.49 490.2,-291.31"/>
</g>
<!-- Node19&#45;&gt;Node4 -->
<g id="edge29" class="edge">
<title>Node19&#45;&gt;Node4</title>
<path fill="none" stroke="midnightblue" d="M645.94,-439.62C630.97,-442.66 614.39,-445.49 599,-447 547.25,-452.07 533.66,-452.97 482,-447 458.22,-444.25 431.93,-438.03 411.94,-432.61"/>
<polygon fill="midnightblue" stroke="midnightblue" points="646.96,-442.99 656.02,-437.51 645.52,-436.14 646.96,-442.99"/>
</g>
<!-- Node20 -->
<g id="node20" class="node">
<title>Node20</title>
<g id="a_node20"><a xlink:href="gsd_8c.html#a61daeaa70162e9bac3d241832b460278" target="_top" xlink:title=" ">
<polygon fill="none" stroke="black" points="483.5,-418.5 483.5,-437.5 597.5,-437.5 597.5,-418.5 483.5,-418.5"/>
<text text-anchor="middle" x="540.5" y="-425.5" font-family="Helvetica,sans-Serif" font-size="10.00">gsd_flush_write_buffer</text>
</a>
</g>
</g>
<!-- Node19&#45;&gt;Node20 -->
<g id="edge26" class="edge">
<title>Node19&#45;&gt;Node20</title>
<path fill="none" stroke="midnightblue" d="M630.21,-428C619.4,-428 608.26,-428 597.69,-428"/>
<polygon fill="midnightblue" stroke="midnightblue" points="630.45,-431.5 640.45,-428 630.45,-424.5 630.45,-431.5"/>
</g>
<!-- Node20&#45;&gt;Node4 -->
<g id="edge28" class="edge">
<title>Node20&#45;&gt;Node4</title>
<path fill="none" stroke="midnightblue" d="M472.87,-425.92C456.24,-425.4 438.82,-424.85 423.6,-424.38"/>
<polygon fill="midnightblue" stroke="midnightblue" points="472.99,-429.42 483.09,-426.24 473.2,-422.43 472.99,-429.42"/>
</g>
<!-- Node20&#45;&gt;Node10 -->
<g id="edge27" class="edge">
<title>Node20&#45;&gt;Node10</title>
<path fill="none" stroke="midnightblue" d="M492.99,-414.59C489.18,-412.91 485.47,-411.05 482,-409 441.26,-384.95 403.11,-342.42 387.25,-323.51"/>
<polygon fill="midnightblue" stroke="midnightblue" points="492,-417.96 502.58,-418.41 494.59,-411.46 492,-417.96"/>
</g>
<!-- Node21&#45;&gt;Node11 -->
<g id="edge34" class="edge">
<title>Node21&#45;&gt;Node11</title>
<path fill="none" stroke="midnightblue" d="M646.47,-212.01C623.78,-217.63 597.25,-224.2 576.55,-229.32"/>
<polygon fill="midnightblue" stroke="midnightblue" points="647.4,-215.39 656.27,-209.59 645.72,-208.59 647.4,-215.39"/>
</g>
<!-- Node21&#45;&gt;Node13 -->
<g id="edge31" class="edge">
<title>Node21&#45;&gt;Node13</title>
<path fill="none" stroke="midnightblue" d="M629.46,-200C609.25,-200 587.98,-200 571.42,-200"/>
<polygon fill="midnightblue" stroke="midnightblue" points="629.58,-203.5 639.58,-200 629.58,-196.5 629.58,-203.5"/>
</g>
<!-- Node21&#45;&gt;Node15 -->
<g id="edge33" class="edge">
<title>Node21&#45;&gt;Node15</title>
<path fill="none" stroke="midnightblue" d="M646.55,-188C624.02,-182.43 597.72,-175.92 577.07,-170.8"/>
<polygon fill="midnightblue" stroke="midnightblue" points="645.72,-191.41 656.27,-190.41 647.4,-184.61 645.72,-191.41"/>
</g>
<!-- Node21&#45;&gt;Node18 -->
<g id="edge32" class="edge">
<title>Node21&#45;&gt;Node18</title>
<path fill="none" stroke="midnightblue" d="M672.36,-215.36C653.37,-227.76 625.22,-245.05 599,-257 591.25,-260.53 582.65,-263.73 574.51,-266.45"/>
<polygon fill="midnightblue" stroke="midnightblue" points="674.49,-218.14 680.89,-209.71 670.62,-212.31 674.49,-218.14"/>
</g>
<!-- Node22&#45;&gt;Node15 -->
<g id="edge38" class="edge">
<title>Node22&#45;&gt;Node15</title>
<path fill="none" stroke="midnightblue" d="M646.55,-136C624.02,-141.57 597.72,-148.08 577.07,-153.2"/>
<polygon fill="midnightblue" stroke="midnightblue" points="647.4,-139.39 656.27,-133.59 645.72,-132.59 647.4,-139.39"/>
</g>
<!-- Node22&#45;&gt;Node17 -->
<g id="edge37" class="edge">
<title>Node22&#45;&gt;Node17</title>
<path fill="none" stroke="midnightblue" d="M646.36,-111.96C624.92,-106.65 600.08,-100.5 579.96,-95.52"/>
<polygon fill="midnightblue" stroke="midnightblue" points="645.72,-115.41 656.27,-114.41 647.4,-108.61 645.72,-115.41"/>
</g>
<!-- Node23 -->
<g id="node23" class="node">
<title>Node23</title>
<g id="a_node23"><a xlink:href="gsd_8h.html#a58654880dd98b2bc32e429810b7d2623" target="_top" xlink:title=" ">
<polygon fill="none" stroke="black" points="508,-114.5 508,-133.5 573,-133.5 573,-114.5 508,-114.5"/>
<text text-anchor="middle" x="540.5" y="-121.5" font-family="Helvetica,sans-Serif" font-size="10.00">gsd_create</text>
</a>
</g>
</g>
<!-- Node22&#45;&gt;Node23 -->
<g id="edge36" class="edge">
<title>Node22&#45;&gt;Node23</title>
<path fill="none" stroke="midnightblue" d="M640.14,-124C617.77,-124 592.71,-124 573.44,-124"/>
<polygon fill="midnightblue" stroke="midnightblue" points="640.19,-127.5 650.19,-124 640.19,-120.5 640.19,-127.5"/>
</g>
<!-- Node25 -->
<g id="node25" class="node">
<title>Node25</title>
<g id="a_node25"><a xlink:href="classGSDUtil.html#a2567bdb7f5952a76984552e0591fa330" target="_top" xlink:title="Construct a new GSDUtil object.">
<polygon fill="none" stroke="black" points="492.5,-38.5 492.5,-57.5 588.5,-57.5 588.5,-38.5 492.5,-38.5"/>
<text text-anchor="middle" x="540.5" y="-45.5" font-family="Helvetica,sans-Serif" font-size="10.00">GSDUtil::GSDUtil</text>
</a>
</g>
</g>
<!-- Node24&#45;&gt;Node25 -->
<g id="edge40" class="edge">
<title>Node24&#45;&gt;Node25</title>
<path fill="none" stroke="midnightblue" d="M656.22,-48C635.66,-48 610.24,-48 588.56,-48"/>
<polygon fill="midnightblue" stroke="midnightblue" points="656.49,-51.5 666.49,-48 656.49,-44.5 656.49,-51.5"/>
</g>
<!-- Node26 -->
<g id="node26" class="node">
<title>Node26</title>
<g id="a_node26"><a xlink:href="testsSimulationBuild_8cpp.html#ac2b102ba50512565940601db33c64cf2" target="_top" xlink:title=" ">
<polygon fill="none" stroke="black" points="503,-0.5 503,-19.5 578,-19.5 578,-0.5 503,-0.5"/>
<text text-anchor="middle" x="540.5" y="-7.5" font-family="Helvetica,sans-Serif" font-size="10.00">TEST_CASE</text>
</a>
</g>
</g>
<!-- Node24&#45;&gt;Node26 -->
<g id="edge41" class="edge">
<title>Node24&#45;&gt;Node26</title>
<path fill="none" stroke="midnightblue" d="M656.66,-38.51C632.68,-32.57 601.96,-24.97 578.28,-19.11"/>
<polygon fill="midnightblue" stroke="midnightblue" points="655.94,-41.94 666.49,-40.94 657.62,-35.14 655.94,-41.94"/>
</g>
</g>
</svg>
