<?xml version="1.0" encoding="UTF-8" standalone="no"?>
<!DOCTYPE svg PUBLIC "-//W3C//DTD SVG 1.1//EN"
 "http://www.w3.org/Graphics/SVG/1.1/DTD/svg11.dtd">
<!-- Generated by graphviz version 2.49.1 (20210923.0004)
 -->
<!-- Title: gsd_upgrade Pages: 1 -->
<svg width="751pt" height="493pt"
 viewBox="0.00 0.00 751.00 493.00" xmlns="http://www.w3.org/2000/svg" xmlns:xlink="http://www.w3.org/1999/xlink">
<g id="graph0" class="graph" transform="scale(1 1) rotate(0) translate(4 489)">
<title>gsd_upgrade</title>
<!-- Node1 -->
<g id="node1" class="node">
<title>Node1</title>
<g id="a_node1"><a xlink:title=" ">
<polygon fill="#bfbfbf" stroke="black" points="0,-275.5 0,-294.5 75,-294.5 75,-275.5 0,-275.5"/>
<text text-anchor="middle" x="37.5" y="-282.5" font-family="Helvetica,sans-Serif" font-size="10.00">gsd_upgrade</text>
</a>
</g>
</g>
<!-- Node2 -->
<g id="node2" class="node">
<title>Node2</title>
<g id="a_node2"><a xlink:href="gsd_8c.html#aeaf487909ab334303fa478cf4a126d6f" target="_top" xlink:title=" ">
<polygon fill="none" stroke="black" points="128.5,-465.5 128.5,-484.5 256.5,-484.5 256.5,-465.5 128.5,-465.5"/>
<text text-anchor="middle" x="192.5" y="-472.5" font-family="Helvetica,sans-Serif" font-size="10.00">gsd_byte_buffer_allocate</text>
</a>
</g>
</g>
<!-- Node1&#45;&gt;Node2 -->
<g id="edge1" class="edge">
<title>Node1&#45;&gt;Node2</title>
<path fill="none" stroke="midnightblue" d="M39.56,-294.51C43.32,-323.58 58.75,-411.92 111,-456 113.58,-458.18 116.36,-460.11 119.29,-461.84"/>
<polygon fill="midnightblue" stroke="midnightblue" points="117.95,-465.07 128.46,-466.39 121.06,-458.8 117.95,-465.07"/>
</g>
<!-- Node3 -->
<g id="node3" class="node">
<title>Node3</title>
<g id="a_node3"><a xlink:href="gsd_8c.html#a7a717f9dafe011e68434e181c76253af" target="_top" xlink:title=" ">
<polygon fill="none" stroke="black" points="129,-427.5 129,-446.5 256,-446.5 256,-427.5 129,-427.5"/>
<text text-anchor="middle" x="192.5" y="-434.5" font-family="Helvetica,sans-Serif" font-size="10.00">gsd_byte_buffer_append</text>
</a>
</g>
</g>
<!-- Node1&#45;&gt;Node3 -->
<g id="edge2" class="edge">
<title>Node1&#45;&gt;Node3</title>
<path fill="none" stroke="midnightblue" d="M41.21,-294.68C48.41,-318.53 70.25,-380.54 111,-413 116.37,-417.27 122.48,-420.79 128.88,-423.67"/>
<polygon fill="midnightblue" stroke="midnightblue" points="127.83,-427.02 138.41,-427.47 130.42,-420.52 127.83,-427.02"/>
</g>
<!-- Node4 -->
<g id="node4" class="node">
<title>Node4</title>
<g id="a_node4"><a xlink:href="gsd_8c.html#a9b05d58560daee2512f03bedf7b2926d" target="_top" xlink:title=" ">
<polygon fill="none" stroke="black" points="317.5,-370.5 317.5,-389.5 435.5,-389.5 435.5,-370.5 317.5,-370.5"/>
<text text-anchor="middle" x="376.5" y="-377.5" font-family="Helvetica,sans-Serif" font-size="10.00">gsd_util_zero_memory</text>
</a>
</g>
</g>
<!-- Node1&#45;&gt;Node4 -->
<g id="edge27" class="edge">
<title>Node1&#45;&gt;Node4</title>
<path fill="none" stroke="midnightblue" d="M42.31,-294.61C50.95,-314.92 74.18,-361.78 111,-380 180.94,-414.6 274.56,-403.27 329.62,-391.74"/>
<polygon fill="midnightblue" stroke="midnightblue" points="330.41,-395.15 339.44,-389.59 328.92,-388.31 330.41,-395.15"/>
</g>
<!-- Node5 -->
<g id="node5" class="node">
<title>Node5</title>
<g id="a_node5"><a xlink:href="gsd_8c.html#ae50726c30c5bf629b6af1ef88020302f" target="_top" xlink:title=" ">
<polygon fill="none" stroke="black" points="137,-351.5 137,-370.5 248,-370.5 248,-351.5 137,-351.5"/>
<text text-anchor="middle" x="192.5" y="-358.5" font-family="Helvetica,sans-Serif" font-size="10.00">gsd_byte_buffer_free</text>
</a>
</g>
</g>
<!-- Node1&#45;&gt;Node5 -->
<g id="edge4" class="edge">
<title>Node1&#45;&gt;Node5</title>
<path fill="none" stroke="midnightblue" d="M47.88,-294.64C60.87,-307.41 85.61,-329.77 111,-342 116.01,-344.42 121.35,-346.53 126.81,-348.39"/>
<polygon fill="midnightblue" stroke="midnightblue" points="126.11,-351.84 136.7,-351.46 128.18,-345.16 126.11,-351.84"/>
</g>
<!-- Node6 -->
<g id="node6" class="node">
<title>Node6</title>
<g id="a_node6"><a xlink:href="gsd_8c.html#ad6f823bc40d0a28be983368adb42783e" target="_top" xlink:title=" ">
<polygon fill="none" stroke="black" points="111,-275.5 111,-294.5 274,-294.5 274,-275.5 111,-275.5"/>
<text text-anchor="middle" x="192.5" y="-282.5" font-family="Helvetica,sans-Serif" font-size="10.00">gsd_find_matching_chunk_name</text>
</a>
</g>
</g>
<!-- Node1&#45;&gt;Node6 -->
<g id="edge6" class="edge">
<title>Node1&#45;&gt;Node6</title>
<path fill="none" stroke="midnightblue" d="M75.15,-285C83.05,-285 91.74,-285 100.69,-285"/>
<polygon fill="midnightblue" stroke="midnightblue" points="100.9,-288.5 110.9,-285 100.9,-281.5 100.9,-288.5"/>
</g>
<!-- Node7 -->
<g id="node7" class="node">
<title>Node7</title>
<g id="a_node7"><a xlink:href="gsd_8c.html#a493ef951956c9f98adff89a80ddb3fa6" target="_top" xlink:title=" ">
<polygon fill="none" stroke="black" points="326.5,-266.5 326.5,-285.5 426.5,-285.5 426.5,-266.5 326.5,-266.5"/>
<text text-anchor="middle" x="376.5" y="-273.5" font-family="Helvetica,sans-Serif" font-size="10.00">gsd_make_version</text>
</a>
</g>
</g>
<!-- Node1&#45;&gt;Node7 -->
<g id="edge26" class="edge">
<title>Node1&#45;&gt;Node7</title>
<path fill="none" stroke="midnightblue" d="M67.79,-275.5C80.86,-271.73 96.55,-267.86 111,-266 181.01,-256.98 262.22,-262.38 316,-268.15"/>
<polygon fill="midnightblue" stroke="midnightblue" points="315.72,-271.64 326.04,-269.27 316.49,-264.68 315.72,-271.64"/>
</g>
<!-- Node8 -->
<g id="node8" class="node">
<title>Node8</title>
<g id="a_node8"><a xlink:href="gsd_8c.html#ae1948c93f77d642c4e3797fe7e5f2095" target="_top" xlink:title=" ">
<polygon fill="none" stroke="black" points="310,-218.5 310,-237.5 443,-237.5 443,-218.5 310,-218.5"/>
<text text-anchor="middle" x="376.5" y="-225.5" font-family="Helvetica,sans-Serif" font-size="10.00">gsd_index_buffer_allocate</text>
</a>
</g>
</g>
<!-- Node1&#45;&gt;Node8 -->
<g id="edge8" class="edge">
<title>Node1&#45;&gt;Node8</title>
<path fill="none" stroke="midnightblue" d="M58.98,-275.45C73.25,-269.2 92.91,-261.41 111,-257 173.51,-241.78 246.29,-234.53 299.67,-231.09"/>
<polygon fill="midnightblue" stroke="midnightblue" points="299.97,-234.58 309.74,-230.48 299.54,-227.6 299.97,-234.58"/>
</g>
<!-- Node9 -->
<g id="node9" class="node">
<title>Node9</title>
<g id="a_node9"><a xlink:href="gsd_8c.html#a9e12a38df69cf73fa771b005748cb3e5" target="_top" xlink:title=" ">
<polygon fill="none" stroke="black" points="134.5,-313.5 134.5,-332.5 250.5,-332.5 250.5,-313.5 134.5,-313.5"/>
<text text-anchor="middle" x="192.5" y="-320.5" font-family="Helvetica,sans-Serif" font-size="10.00">gsd_index_buffer_free</text>
</a>
</g>
</g>
<!-- Node1&#45;&gt;Node9 -->
<g id="edge9" class="edge">
<title>Node1&#45;&gt;Node9</title>
<path fill="none" stroke="midnightblue" d="M74.23,-294.55C85.93,-297.63 99.01,-301.01 111,-304 120.41,-306.34 130.46,-308.77 140.15,-311.08"/>
<polygon fill="midnightblue" stroke="midnightblue" points="139.55,-314.53 150.09,-313.43 141.16,-307.72 139.55,-314.53"/>
</g>
<!-- Node10 -->
<g id="node10" class="node">
<title>Node10</title>
<g id="a_node10"><a xlink:href="gsd_8c.html#a6fe75caf6c4df550af2455a0c40bfbdf" target="_top" xlink:title=" ">
<polygon fill="none" stroke="black" points="133.5,-161.5 133.5,-180.5 251.5,-180.5 251.5,-161.5 133.5,-161.5"/>
<text text-anchor="middle" x="192.5" y="-168.5" font-family="Helvetica,sans-Serif" font-size="10.00">gsd_index_buffer_map</text>
</a>
</g>
</g>
<!-- Node1&#45;&gt;Node10 -->
<g id="edge11" class="edge">
<title>Node1&#45;&gt;Node10</title>
<path fill="none" stroke="midnightblue" d="M43.67,-275.25C53.97,-256.78 78.85,-216.58 111,-195 117.56,-190.6 124.94,-186.99 132.51,-184.03"/>
<polygon fill="midnightblue" stroke="midnightblue" points="133.88,-187.25 142.14,-180.61 131.55,-180.65 133.88,-187.25"/>
</g>
<!-- Node14 -->
<g id="node14" class="node">
<title>Node14</title>
<g id="a_node14"><a xlink:href="gsd_8c.html#a6c20ccb47eed1a3ea9995a47a8eebdbd" target="_top" xlink:title=" ">
<polygon fill="none" stroke="black" points="135,-104.5 135,-123.5 250,-123.5 250,-104.5 135,-104.5"/>
<text text-anchor="middle" x="192.5" y="-111.5" font-family="Helvetica,sans-Serif" font-size="10.00">gsd_index_buffer_sort</text>
</a>
</g>
</g>
<!-- Node1&#45;&gt;Node14 -->
<g id="edge16" class="edge">
<title>Node1&#45;&gt;Node14</title>
<path fill="none" stroke="midnightblue" d="M41.43,-275.32C49.11,-251.41 71.98,-188.82 111,-152 122.23,-141.4 136.96,-133.29 150.75,-127.33"/>
<polygon fill="midnightblue" stroke="midnightblue" points="152.13,-130.55 160.09,-123.55 149.51,-124.06 152.13,-130.55"/>
</g>
<!-- Node21 -->
<g id="node21" class="node">
<title>Node21</title>
<g id="a_node21"><a xlink:href="gsd_8c.html#a3fb7746d93a1c856ca7ef64fa3548cbe" target="_top" xlink:title=" ">
<polygon fill="none" stroke="black" points="140.5,-66.5 140.5,-85.5 244.5,-85.5 244.5,-66.5 140.5,-66.5"/>
<text text-anchor="middle" x="192.5" y="-73.5" font-family="Helvetica,sans-Serif" font-size="10.00">gsd_io_pwrite_retry</text>
</a>
</g>
</g>
<!-- Node1&#45;&gt;Node21 -->
<g id="edge25" class="edge">
<title>Node1&#45;&gt;Node21</title>
<path fill="none" stroke="midnightblue" d="M39.12,-275.35C41.68,-244.1 54.15,-144.76 111,-95 116.65,-90.06 123.34,-86.34 130.42,-83.56"/>
<polygon fill="midnightblue" stroke="midnightblue" points="131.85,-86.77 140.25,-80.31 129.66,-80.12 131.85,-86.77"/>
</g>
<!-- Node3&#45;&gt;Node4 -->
<g id="edge3" class="edge">
<title>Node3&#45;&gt;Node4</title>
<path fill="none" stroke="midnightblue" d="M226.07,-427.49C240.74,-423.15 258.27,-417.9 274,-413 294.84,-406.51 318,-399 336.93,-392.79"/>
<polygon fill="midnightblue" stroke="midnightblue" points="338.28,-396.03 346.68,-389.58 336.09,-389.38 338.28,-396.03"/>
</g>
<!-- Node5&#45;&gt;Node4 -->
<g id="edge5" class="edge">
<title>Node5&#45;&gt;Node4</title>
<path fill="none" stroke="midnightblue" d="M248.11,-366.7C266.74,-368.65 287.81,-370.85 307.38,-372.89"/>
<polygon fill="midnightblue" stroke="midnightblue" points="307.14,-376.38 317.45,-373.94 307.87,-369.42 307.14,-376.38"/>
</g>
<!-- Node6&#45;&gt;Node7 -->
<g id="edge7" class="edge">
<title>Node6&#45;&gt;Node7</title>
<path fill="none" stroke="midnightblue" d="M274.12,-281.01C288.29,-280.31 302.8,-279.6 316.25,-278.93"/>
<polygon fill="midnightblue" stroke="midnightblue" points="316.49,-282.42 326.31,-278.43 316.15,-275.43 316.49,-282.42"/>
</g>
<!-- Node9&#45;&gt;Node4 -->
<g id="edge10" class="edge">
<title>Node9&#45;&gt;Node4</title>
<path fill="none" stroke="midnightblue" d="M238.48,-332.56C250.13,-335.32 262.6,-338.53 274,-342 297.41,-349.11 323.22,-358.8 342.96,-366.62"/>
<polygon fill="midnightblue" stroke="midnightblue" points="341.82,-369.93 352.4,-370.4 344.42,-363.43 341.82,-369.93"/>
</g>
<!-- Node10&#45;&gt;Node8 -->
<g id="edge12" class="edge">
<title>Node10&#45;&gt;Node8</title>
<path fill="none" stroke="midnightblue" d="M227.77,-180.55C242.14,-184.73 258.96,-189.84 274,-195 290.24,-200.57 293.74,-203.49 310,-209 316.56,-211.22 323.53,-213.42 330.4,-215.49"/>
<polygon fill="midnightblue" stroke="midnightblue" points="329.73,-218.94 340.31,-218.41 331.71,-212.22 329.73,-218.94"/>
</g>
<!-- Node11 -->
<g id="node11" class="node">
<title>Node11</title>
<g id="a_node11"><a xlink:href="gsd_8c.html#ac1f41abbefbfe35337e7053d766c089b" target="_top" xlink:title=" ">
<polygon fill="none" stroke="black" points="325,-180.5 325,-199.5 428,-199.5 428,-180.5 325,-180.5"/>
<text text-anchor="middle" x="376.5" y="-187.5" font-family="Helvetica,sans-Serif" font-size="10.00">gsd_io_pread_retry</text>
</a>
</g>
</g>
<!-- Node10&#45;&gt;Node11 -->
<g id="edge13" class="edge">
<title>Node10&#45;&gt;Node11</title>
<path fill="none" stroke="midnightblue" d="M251.59,-177.06C271.7,-179.16 294.29,-181.52 314.62,-183.64"/>
<polygon fill="midnightblue" stroke="midnightblue" points="314.4,-187.14 324.71,-184.7 315.13,-180.18 314.4,-187.14"/>
</g>
<!-- Node12 -->
<g id="node12" class="node">
<title>Node12</title>
<g id="a_node12"><a xlink:href="gsd_8c.html#ab5d19295bedec41b7919caec2cb22759" target="_top" xlink:title=" ">
<polygon fill="none" stroke="black" points="327,-142.5 327,-161.5 426,-161.5 426,-142.5 327,-142.5"/>
<text text-anchor="middle" x="376.5" y="-149.5" font-family="Helvetica,sans-Serif" font-size="10.00">gsd_is_entry_valid</text>
</a>
</g>
</g>
<!-- Node10&#45;&gt;Node12 -->
<g id="edge14" class="edge">
<title>Node10&#45;&gt;Node12</title>
<path fill="none" stroke="midnightblue" d="M251.59,-164.94C272.42,-162.76 295.91,-160.31 316.79,-158.13"/>
<polygon fill="midnightblue" stroke="midnightblue" points="317.23,-161.6 326.81,-157.08 316.5,-154.64 317.23,-161.6"/>
</g>
<!-- Node13 -->
<g id="node13" class="node">
<title>Node13</title>
<g id="a_node13"><a xlink:href="gsd_8c.html#ab1d1a8a5f73b37df0c706f41df3bdd69" target="_top" xlink:title=" ">
<polygon fill="none" stroke="black" points="491.5,-142.5 491.5,-161.5 580.5,-161.5 580.5,-142.5 491.5,-142.5"/>
<text text-anchor="middle" x="536" y="-149.5" font-family="Helvetica,sans-Serif" font-size="10.00">gsd_sizeof_type</text>
</a>
</g>
</g>
<!-- Node12&#45;&gt;Node13 -->
<g id="edge15" class="edge">
<title>Node12&#45;&gt;Node13</title>
<path fill="none" stroke="midnightblue" d="M426.04,-152C443.58,-152 463.47,-152 481.41,-152"/>
<polygon fill="midnightblue" stroke="midnightblue" points="481.43,-155.5 491.43,-152 481.43,-148.5 481.43,-155.5"/>
</g>
<!-- Node15 -->
<g id="node15" class="node">
<title>Node15</title>
<g id="a_node15"><a xlink:href="gsd_8c.html#accc971ec12e75a165ffef6e1ee854681" target="_top" xlink:title=" ">
<polygon fill="none" stroke="black" points="479,-28.5 479,-47.5 593,-47.5 593,-28.5 479,-28.5"/>
<text text-anchor="middle" x="536" y="-35.5" font-family="Helvetica,sans-Serif" font-size="10.00">gsd_heap_shift_down</text>
</a>
</g>
</g>
<!-- Node14&#45;&gt;Node15 -->
<g id="edge17" class="edge">
<title>Node14&#45;&gt;Node15</title>
<path fill="none" stroke="midnightblue" d="M250.1,-105.07C258.42,-102.51 266.66,-99.23 274,-95 294.17,-83.4 289.03,-67.08 310,-57 359.53,-33.17 422.3,-29.75 468.95,-31.52"/>
<polygon fill="midnightblue" stroke="midnightblue" points="468.79,-35.02 478.95,-31.99 469.12,-28.03 468.79,-35.02"/>
</g>
<!-- Node18 -->
<g id="node18" class="node">
<title>Node18</title>
<g id="a_node18"><a xlink:href="gsd_8c.html#a987a1d460f7ca33476fc57bcc1ff8439" target="_top" xlink:title=" ">
<polygon fill="none" stroke="black" points="641.5,-95.5 641.5,-114.5 730.5,-114.5 730.5,-95.5 641.5,-95.5"/>
<text text-anchor="middle" x="686" y="-102.5" font-family="Helvetica,sans-Serif" font-size="10.00">gsd_heap_swap</text>
</a>
</g>
</g>
<!-- Node14&#45;&gt;Node18 -->
<g id="edge21" class="edge">
<title>Node14&#45;&gt;Node18</title>
<path fill="none" stroke="midnightblue" d="M250.36,-112.96C345.96,-111.21 537.58,-107.7 631.13,-105.99"/>
<polygon fill="midnightblue" stroke="midnightblue" points="631.3,-109.48 641.23,-105.8 631.17,-102.49 631.3,-109.48"/>
</g>
<!-- Node19 -->
<g id="node19" class="node">
<title>Node19</title>
<g id="a_node19"><a xlink:href="gsd_8c.html#a0de3f89cdd57571b57401c91feef2f66" target="_top" xlink:title=" ">
<polygon fill="none" stroke="black" points="341.5,-66.5 341.5,-85.5 411.5,-85.5 411.5,-66.5 341.5,-66.5"/>
<text text-anchor="middle" x="376.5" y="-73.5" font-family="Helvetica,sans-Serif" font-size="10.00">gsd_heapify</text>
</a>
</g>
</g>
<!-- Node14&#45;&gt;Node19 -->
<g id="edge22" class="edge">
<title>Node14&#45;&gt;Node19</title>
<path fill="none" stroke="midnightblue" d="M239.43,-104.41C267.66,-98.52 303.63,-91.01 331.5,-85.19"/>
<polygon fill="midnightblue" stroke="midnightblue" points="332.29,-88.6 341.37,-83.13 330.86,-81.74 332.29,-88.6"/>
</g>
<!-- Node16 -->
<g id="node16" class="node">
<title>Node16</title>
<g id="a_node16"><a xlink:href="gsd_8c.html#a3ffe758eed9a5bae487f514a0a45e97d" target="_top" xlink:title=" ">
<polygon fill="none" stroke="black" points="629,-38.5 629,-57.5 743,-57.5 743,-38.5 629,-38.5"/>
<text text-anchor="middle" x="686" y="-45.5" font-family="Helvetica,sans-Serif" font-size="10.00">gsd_cmp_index_entry</text>
</a>
</g>
</g>
<!-- Node15&#45;&gt;Node16 -->
<g id="edge18" class="edge">
<title>Node15&#45;&gt;Node16</title>
<path fill="none" stroke="midnightblue" d="M593.37,-41.81C601.62,-42.37 610.18,-42.94 618.6,-43.51"/>
<polygon fill="midnightblue" stroke="midnightblue" points="618.57,-47.02 628.78,-44.2 619.04,-40.04 618.57,-47.02"/>
</g>
<!-- Node17 -->
<g id="node17" class="node">
<title>Node17</title>
<g id="a_node17"><a xlink:href="gsd_8c.html#aaec0ae1e441692725a568aee8c8ef627" target="_top" xlink:title=" ">
<polygon fill="none" stroke="black" points="633.5,-0.5 633.5,-19.5 738.5,-19.5 738.5,-0.5 633.5,-0.5"/>
<text text-anchor="middle" x="686" y="-7.5" font-family="Helvetica,sans-Serif" font-size="10.00">gsd_heap_left_child</text>
</a>
</g>
</g>
<!-- Node15&#45;&gt;Node17 -->
<g id="edge19" class="edge">
<title>Node15&#45;&gt;Node17</title>
<path fill="none" stroke="midnightblue" d="M587.52,-28.44C599.43,-26.19 612.24,-23.77 624.53,-21.44"/>
<polygon fill="midnightblue" stroke="midnightblue" points="625.53,-24.81 634.71,-19.51 624.23,-17.93 625.53,-24.81"/>
</g>
<!-- Node15&#45;&gt;Node18 -->
<g id="edge20" class="edge">
<title>Node15&#45;&gt;Node18</title>
<path fill="none" stroke="midnightblue" d="M567.84,-47.52C576.11,-50.32 584.98,-53.57 593,-57 616.13,-66.89 641.41,-80.27 659.6,-90.4"/>
<polygon fill="midnightblue" stroke="midnightblue" points="657.99,-93.51 668.42,-95.36 661.42,-87.41 657.99,-93.51"/>
</g>
<!-- Node19&#45;&gt;Node15 -->
<g id="edge24" class="edge">
<title>Node19&#45;&gt;Node15</title>
<path fill="none" stroke="midnightblue" d="M411.68,-67.75C433.29,-62.54 461.58,-55.71 485.61,-49.92"/>
<polygon fill="midnightblue" stroke="midnightblue" points="486.72,-53.25 495.62,-47.5 485.07,-46.45 486.72,-53.25"/>
</g>
<!-- Node20 -->
<g id="node20" class="node">
<title>Node20</title>
<g id="a_node20"><a xlink:href="gsd_8c.html#ab7b8e133941184a32c2d90414dfba6a5" target="_top" xlink:title=" ">
<polygon fill="none" stroke="black" points="489,-66.5 489,-85.5 583,-85.5 583,-66.5 489,-66.5"/>
<text text-anchor="middle" x="536" y="-73.5" font-family="Helvetica,sans-Serif" font-size="10.00">gsd_heap_parent</text>
</a>
</g>
</g>
<!-- Node19&#45;&gt;Node20 -->
<g id="edge23" class="edge">
<title>Node19&#45;&gt;Node20</title>
<path fill="none" stroke="midnightblue" d="M411.68,-76C431.29,-76 456.4,-76 478.85,-76"/>
<polygon fill="midnightblue" stroke="midnightblue" points="478.94,-79.5 488.94,-76 478.94,-72.5 478.94,-79.5"/>
</g>
</g>
</svg>
