<?xml version="1.0" encoding="UTF-8" standalone="no"?>
<!DOCTYPE svg PUBLIC "-//W3C//DTD SVG 1.1//EN"
 "http://www.w3.org/Graphics/SVG/1.1/DTD/svg11.dtd">
<!-- Generated by graphviz version 2.43.0 (0)
 -->
<!-- Title: gsd_get_nframes Pages: 1 -->
<svg width="719pt" height="256pt"
 viewBox="0.00 0.00 719.00 256.00" xmlns="http://www.w3.org/2000/svg" xmlns:xlink="http://www.w3.org/1999/xlink">
<g id="graph0" class="graph" transform="scale(1 1) rotate(0) translate(4 252)">
<title>gsd_get_nframes</title>
<!-- Node1 -->
<g id="node1" class="node">
<title>Node1</title>
<g id="a_node1"><a xlink:title=" ">
<polygon fill="#bfbfbf" stroke="black" points="619,-57.5 619,-76.5 711,-76.5 711,-57.5 619,-57.5"/>
<text text-anchor="middle" x="665" y="-64.5" font-family="Helvetica,sans-Serif" font-size="10.00">gsd_get_nframes</text>
</a>
</g>
</g>
<!-- Node2 -->
<g id="node2" class="node">
<title>Node2</title>
<g id="a_node2"><a xlink:href="gsd_8h.html#a3c76bbf6c28b953cff198a44852c732f" target="_top" xlink:title=" ">
<polygon fill="none" stroke="black" points="481,-133.5 481,-152.5 566,-152.5 566,-133.5 481,-133.5"/>
<text text-anchor="middle" x="523.5" y="-140.5" font-family="Helvetica,sans-Serif" font-size="10.00">gsd_find_chunk</text>
</a>
</g>
</g>
<!-- Node1&#45;&gt;Node2 -->
<g id="edge1" class="edge">
<title>Node1&#45;&gt;Node2</title>
<path fill="none" stroke="midnightblue" d="M637.47,-81.46C609.44,-96.72 566.06,-120.36 542.02,-133.45"/>
<polygon fill="midnightblue" stroke="midnightblue" points="639.23,-84.48 646.33,-76.63 635.88,-78.34 639.23,-84.48"/>
</g>
<!-- Node5 -->
<g id="node5" class="node">
<title>Node5</title>
<g id="a_node5"><a xlink:href="classGSDUtil.html#a2567bdb7f5952a76984552e0591fa330" target="_top" xlink:title="Construct a new GSDUtil object.">
<polygon fill="none" stroke="black" points="0,-152.5 0,-171.5 96,-171.5 96,-152.5 0,-152.5"/>
<text text-anchor="middle" x="48" y="-159.5" font-family="Helvetica,sans-Serif" font-size="10.00">GSDUtil::GSDUtil</text>
</a>
</g>
</g>
<!-- Node1&#45;&gt;Node5 -->
<g id="edge11" class="edge">
<title>Node1&#45;&gt;Node5</title>
<path fill="none" stroke="midnightblue" d="M608.68,-67.3C490.85,-68.52 218.75,-74.65 132,-105 102.63,-115.28 73.98,-138.82 59.24,-152.21"/>
<polygon fill="midnightblue" stroke="midnightblue" points="608.96,-70.79 618.92,-67.2 608.89,-63.79 608.96,-70.79"/>
</g>
<!-- Node9 -->
<g id="node9" class="node">
<title>Node9</title>
<g id="a_node9"><a xlink:href="classGSDUtil.html#a77b5ebe2817ac868ad1b171f3d7b0cae" target="_top" xlink:title="Writes header information to GSD.">
<polygon fill="none" stroke="black" points="467.5,-38.5 467.5,-57.5 579.5,-57.5 579.5,-38.5 467.5,-38.5"/>
<text text-anchor="middle" x="523.5" y="-45.5" font-family="Helvetica,sans-Serif" font-size="10.00">GSDUtil::writeHeader</text>
</a>
</g>
</g>
<!-- Node1&#45;&gt;Node9 -->
<g id="edge12" class="edge">
<title>Node1&#45;&gt;Node9</title>
<path fill="none" stroke="midnightblue" d="M608.6,-59.45C599.12,-58.16 589.28,-56.82 579.8,-55.53"/>
<polygon fill="midnightblue" stroke="midnightblue" points="608.33,-62.95 618.71,-60.83 609.27,-56.01 608.33,-62.95"/>
</g>
<!-- Node11 -->
<g id="node11" class="node">
<title>Node11</title>
<g id="a_node11"><a xlink:href="classGSDUtil.html#a9464315a26a5d5e2c51bb2b4df5ee373" target="_top" xlink:title="Writes particle information to GSD.">
<polygon fill="none" stroke="black" points="464,-0.5 464,-19.5 583,-19.5 583,-0.5 464,-0.5"/>
<text text-anchor="middle" x="523.5" y="-7.5" font-family="Helvetica,sans-Serif" font-size="10.00">GSDUtil::writeParticles</text>
</a>
</g>
</g>
<!-- Node1&#45;&gt;Node11 -->
<g id="edge14" class="edge">
<title>Node1&#45;&gt;Node11</title>
<path fill="none" stroke="midnightblue" d="M636.28,-52.95C620.81,-45.37 601.06,-36.14 583,-29 574.46,-25.62 565.05,-22.37 556.33,-19.54"/>
<polygon fill="midnightblue" stroke="midnightblue" points="634.79,-56.12 645.31,-57.42 637.9,-49.84 634.79,-56.12"/>
</g>
<!-- Node3 -->
<g id="node3" class="node">
<title>Node3</title>
<g id="a_node3"><a xlink:href="classGSDUtil.html#a86d2352b694afc6a0c938a13b3acec9d" target="_top" xlink:title="Finds and then loads data from GSD.">
<polygon fill="none" stroke="black" points="320.5,-152.5 320.5,-171.5 427.5,-171.5 427.5,-152.5 320.5,-152.5"/>
<text text-anchor="middle" x="374" y="-159.5" font-family="Helvetica,sans-Serif" font-size="10.00">GSDUtil::readChunk</text>
</a>
</g>
</g>
<!-- Node2&#45;&gt;Node3 -->
<g id="edge2" class="edge">
<title>Node2&#45;&gt;Node3</title>
<path fill="none" stroke="midnightblue" d="M470.68,-149.68C456.68,-151.48 441.53,-153.43 427.5,-155.24"/>
<polygon fill="midnightblue" stroke="midnightblue" points="471.16,-153.14 480.63,-148.39 470.26,-146.2 471.16,-153.14"/>
</g>
<!-- Node4 -->
<g id="node4" class="node">
<title>Node4</title>
<g id="a_node4"><a xlink:href="classGSDUtil.html#a2015dcdcdb33be9106f5c8f45f8564cc" target="_top" xlink:title="Read header information from GSD frame m_frame">
<polygon fill="none" stroke="black" points="153,-228.5 153,-247.5 263,-247.5 263,-228.5 153,-228.5"/>
<text text-anchor="middle" x="208" y="-235.5" font-family="Helvetica,sans-Serif" font-size="10.00">GSDUtil::readHeader</text>
</a>
</g>
</g>
<!-- Node3&#45;&gt;Node4 -->
<g id="edge3" class="edge">
<title>Node3&#45;&gt;Node4</title>
<path fill="none" stroke="midnightblue" d="M352.51,-177.85C335.13,-190.6 309.09,-208.13 284,-219 275.37,-222.74 265.86,-225.85 256.58,-228.41"/>
<polygon fill="midnightblue" stroke="midnightblue" points="354.85,-180.47 360.76,-171.67 350.65,-174.86 354.85,-180.47"/>
</g>
<!-- Node6 -->
<g id="node6" class="node">
<title>Node6</title>
<g id="a_node6"><a xlink:href="classGSDUtil.html#a31f9c7368ebd89c6293d9d9d83598e62" target="_top" xlink:title="Read parameter information from GSD frame m_frame">
<polygon fill="none" stroke="black" points="144,-190.5 144,-209.5 272,-209.5 272,-190.5 144,-190.5"/>
<text text-anchor="middle" x="208" y="-197.5" font-family="Helvetica,sans-Serif" font-size="10.00">GSDUtil::readParameters</text>
</a>
</g>
</g>
<!-- Node3&#45;&gt;Node6 -->
<g id="edge5" class="edge">
<title>Node3&#45;&gt;Node6</title>
<path fill="none" stroke="midnightblue" d="M321.66,-173.9C298.61,-179.24 271.78,-185.45 250.09,-190.48"/>
<polygon fill="midnightblue" stroke="midnightblue" points="322.66,-177.26 331.62,-171.59 321.08,-170.44 322.66,-177.26"/>
</g>
<!-- Node7 -->
<g id="node7" class="node">
<title>Node7</title>
<g id="a_node7"><a xlink:href="classGSDUtil.html#ad404c3879fb81c0b73b2335ea6e4676a" target="_top" xlink:title="Read particle information from GSD frame m_frame">
<polygon fill="none" stroke="black" points="150,-152.5 150,-171.5 266,-171.5 266,-152.5 150,-152.5"/>
<text text-anchor="middle" x="208" y="-159.5" font-family="Helvetica,sans-Serif" font-size="10.00">GSDUtil::readParticles</text>
</a>
</g>
</g>
<!-- Node3&#45;&gt;Node7 -->
<g id="edge7" class="edge">
<title>Node3&#45;&gt;Node7</title>
<path fill="none" stroke="midnightblue" d="M309.91,-162C295.54,-162 280.34,-162 266.23,-162"/>
<polygon fill="midnightblue" stroke="midnightblue" points="310.21,-165.5 320.21,-162 310.21,-158.5 310.21,-165.5"/>
</g>
<!-- Node8 -->
<g id="node8" class="node">
<title>Node8</title>
<g id="a_node8"><a xlink:href="classGSDUtil.html#a278d1db9ece12bdc1268780313d83daf" target="_top" xlink:title="Reads system specific variables from GSD frame m_frame">
<polygon fill="none" stroke="black" points="132,-114.5 132,-133.5 284,-133.5 284,-114.5 132,-114.5"/>
<text text-anchor="middle" x="208" y="-121.5" font-family="Helvetica,sans-Serif" font-size="10.00">GSDUtil::readSystemSpecifics</text>
</a>
</g>
</g>
<!-- Node3&#45;&gt;Node8 -->
<g id="edge9" class="edge">
<title>Node3&#45;&gt;Node8</title>
<path fill="none" stroke="midnightblue" d="M321.66,-150.1C298.61,-144.76 271.78,-138.55 250.09,-133.52"/>
<polygon fill="midnightblue" stroke="midnightblue" points="321.08,-153.56 331.62,-152.41 322.66,-146.74 321.08,-153.56"/>
</g>
<!-- Node4&#45;&gt;Node5 -->
<g id="edge4" class="edge">
<title>Node4&#45;&gt;Node5</title>
<path fill="none" stroke="midnightblue" d="M148.79,-225.45C143.02,-223.55 137.33,-221.41 132,-219 103.97,-206.32 75.25,-184.13 60.04,-171.5"/>
<polygon fill="midnightblue" stroke="midnightblue" points="147.94,-228.85 158.53,-228.4 149.97,-222.15 147.94,-228.85"/>
</g>
<!-- Node6&#45;&gt;Node5 -->
<g id="edge6" class="edge">
<title>Node6&#45;&gt;Node5</title>
<path fill="none" stroke="midnightblue" d="M157.24,-188.03C135.1,-182.71 109.39,-176.52 88.58,-171.52"/>
<polygon fill="midnightblue" stroke="midnightblue" points="156.59,-191.48 167.13,-190.41 158.23,-184.67 156.59,-191.48"/>
</g>
<!-- Node7&#45;&gt;Node5 -->
<g id="edge8" class="edge">
<title>Node7&#45;&gt;Node5</title>
<path fill="none" stroke="midnightblue" d="M139.87,-162C125.14,-162 109.83,-162 96.08,-162"/>
<polygon fill="midnightblue" stroke="midnightblue" points="139.96,-165.5 149.96,-162 139.96,-158.5 139.96,-165.5"/>
</g>
<!-- Node8&#45;&gt;Node5 -->
<g id="edge10" class="edge">
<title>Node8&#45;&gt;Node5</title>
<path fill="none" stroke="midnightblue" d="M157.24,-135.97C135.1,-141.29 109.39,-147.48 88.58,-152.48"/>
<polygon fill="midnightblue" stroke="midnightblue" points="158.23,-139.33 167.13,-133.59 156.59,-132.52 158.23,-139.33"/>
</g>
<!-- Node10 -->
<g id="node10" class="node">
<title>Node10</title>
<g id="a_node10"><a xlink:href="classGSDUtil.html#ae76e4a23f0fe0bca3cd44137b56b816b" target="_top" xlink:title="Appends frame to GSD file using data from systemData class.">
<polygon fill="none" stroke="black" points="320,-19.5 320,-38.5 428,-38.5 428,-19.5 320,-19.5"/>
<text text-anchor="middle" x="374" y="-26.5" font-family="Helvetica,sans-Serif" font-size="10.00">GSDUtil::writeFrame</text>
</a>
</g>
</g>
<!-- Node9&#45;&gt;Node10 -->
<g id="edge13" class="edge">
<title>Node9&#45;&gt;Node10</title>
<path fill="none" stroke="midnightblue" d="M457.17,-39.58C447.48,-38.34 437.6,-37.06 428.21,-35.85"/>
<polygon fill="midnightblue" stroke="midnightblue" points="456.79,-43.06 467.16,-40.87 457.69,-36.12 456.79,-43.06"/>
</g>
<!-- Node11&#45;&gt;Node10 -->
<g id="edge15" class="edge">
<title>Node11&#45;&gt;Node10</title>
<path fill="none" stroke="midnightblue" d="M453.79,-18.85C445.21,-19.96 436.55,-21.07 428.26,-22.14"/>
<polygon fill="midnightblue" stroke="midnightblue" points="454.31,-22.31 463.78,-17.56 453.42,-15.37 454.31,-22.31"/>
</g>
</g>
</svg>
