<?xml version="1.0" encoding="UTF-8" standalone="no"?>
<!DOCTYPE svg PUBLIC "-//W3C//DTD SVG 1.1//EN"
 "http://www.w3.org/Graphics/SVG/1.1/DTD/svg11.dtd">
<!-- Generated by graphviz version 2.43.0 (0)
 -->
<!-- Title: gsd_io_pread_retry Pages: 1 -->
<svg width="749pt" height="294pt"
 viewBox="0.00 0.00 749.00 294.00" xmlns="http://www.w3.org/2000/svg" xmlns:xlink="http://www.w3.org/1999/xlink">
<g id="graph0" class="graph" transform="scale(1 1) rotate(0) translate(4 290)">
<title>gsd_io_pread_retry</title>
<!-- Node1 -->
<g id="node1" class="node">
<title>Node1</title>
<g id="a_node1"><a xlink:title=" ">
<polygon fill="#bfbfbf" stroke="black" points="642,-209.5 642,-228.5 741,-228.5 741,-209.5 642,-209.5"/>
<text text-anchor="middle" x="691.5" y="-216.5" font-family="Helvetica,sans-Serif" font-size="10.00">gsd_io_pread_retry</text>
</a>
</g>
</g>
<!-- Node2 -->
<g id="node2" class="node">
<title>Node2</title>
<g id="a_node2"><a xlink:href="gsd_8c.html#ae6dddb94661e99e54f6c01b1a443e27f" target="_top" xlink:title=" ">
<polygon fill="none" stroke="black" points="340,-266.5 340,-285.5 456,-285.5 456,-266.5 340,-266.5"/>
<text text-anchor="middle" x="398" y="-273.5" font-family="Helvetica,sans-Serif" font-size="10.00">gsd_expand_file_index</text>
</a>
</g>
</g>
<!-- Node1&#45;&gt;Node2 -->
<g id="edge1" class="edge">
<title>Node1&#45;&gt;Node2</title>
<path fill="none" stroke="midnightblue" d="M664.71,-233.3C648.38,-241.66 626.55,-251.6 606,-257 556.44,-270.03 498.17,-274.45 456.1,-275.8"/>
<polygon fill="midnightblue" stroke="midnightblue" points="666.42,-236.35 673.64,-228.6 663.16,-230.16 666.42,-236.35"/>
</g>
<!-- Node5 -->
<g id="node5" class="node">
<title>Node5</title>
<g id="a_node5"><a xlink:href="gsd_8c.html#a6fe75caf6c4df550af2455a0c40bfbdf" target="_top" xlink:title=" ">
<polygon fill="none" stroke="black" points="492,-228.5 492,-247.5 606,-247.5 606,-228.5 492,-228.5"/>
<text text-anchor="middle" x="549" y="-235.5" font-family="Helvetica,sans-Serif" font-size="10.00">gsd_index_buffer_map</text>
</a>
</g>
</g>
<!-- Node1&#45;&gt;Node5 -->
<g id="edge4" class="edge">
<title>Node1&#45;&gt;Node5</title>
<path fill="none" stroke="midnightblue" d="M631.68,-226.95C623.3,-228.09 614.7,-229.25 606.38,-230.38"/>
<polygon fill="midnightblue" stroke="midnightblue" points="632.31,-230.4 641.75,-225.59 631.38,-223.46 632.31,-230.4"/>
</g>
<!-- Node6 -->
<g id="node6" class="node">
<title>Node6</title>
<g id="a_node6"><a xlink:href="gsd_8c.html#ac159dfbfd790607f85073ad2d8464a8b" target="_top" xlink:title=" ">
<polygon fill="none" stroke="black" points="344.5,-190.5 344.5,-209.5 451.5,-209.5 451.5,-190.5 344.5,-190.5"/>
<text text-anchor="middle" x="398" y="-197.5" font-family="Helvetica,sans-Serif" font-size="10.00">gsd_initialize_handle</text>
</a>
</g>
</g>
<!-- Node1&#45;&gt;Node6 -->
<g id="edge14" class="edge">
<title>Node1&#45;&gt;Node6</title>
<path fill="none" stroke="midnightblue" d="M631.52,-215.16C578.91,-211.73 502.57,-206.75 451.9,-203.45"/>
<polygon fill="midnightblue" stroke="midnightblue" points="631.5,-218.66 641.71,-215.82 631.96,-211.68 631.5,-218.66"/>
</g>
<!-- Node14 -->
<g id="node14" class="node">
<title>Node14</title>
<g id="a_node14"><a xlink:href="gsd_8h.html#a2db2e3e8a72948bf413e7f09469ec8a6" target="_top" xlink:title=" ">
<polygon fill="none" stroke="black" points="505,-114.5 505,-133.5 593,-133.5 593,-114.5 505,-114.5"/>
<text text-anchor="middle" x="549" y="-121.5" font-family="Helvetica,sans-Serif" font-size="10.00">gsd_read_chunk</text>
</a>
</g>
</g>
<!-- Node1&#45;&gt;Node14 -->
<g id="edge15" class="edge">
<title>Node1&#45;&gt;Node14</title>
<path fill="none" stroke="midnightblue" d="M667.91,-203.73C638.71,-183.98 588.71,-150.18 564.28,-133.66"/>
<polygon fill="midnightblue" stroke="midnightblue" points="666.01,-206.67 676.25,-209.37 669.93,-200.87 666.01,-206.67"/>
</g>
<!-- Node3 -->
<g id="node3" class="node">
<title>Node3</title>
<g id="a_node3"><a xlink:href="gsd_8h.html#aa03810337c5eebcbe716d8633eaefc5e" target="_top" xlink:title=" ">
<polygon fill="none" stroke="black" points="186.5,-266.5 186.5,-285.5 269.5,-285.5 269.5,-266.5 186.5,-266.5"/>
<text text-anchor="middle" x="228" y="-273.5" font-family="Helvetica,sans-Serif" font-size="10.00">gsd_end_frame</text>
</a>
</g>
</g>
<!-- Node2&#45;&gt;Node3 -->
<g id="edge2" class="edge">
<title>Node2&#45;&gt;Node3</title>
<path fill="none" stroke="midnightblue" d="M329.52,-276C309.24,-276 287.64,-276 269.67,-276"/>
<polygon fill="midnightblue" stroke="midnightblue" points="329.65,-279.5 339.65,-276 329.65,-272.5 329.65,-279.5"/>
</g>
<!-- Node4 -->
<g id="node4" class="node">
<title>Node4</title>
<g id="a_node4"><a xlink:href="classGSDUtil.html#ae76e4a23f0fe0bca3cd44137b56b816b" target="_top" xlink:title="Appends frame to GSD file using data from systemData class.">
<polygon fill="none" stroke="black" points="4,-266.5 4,-285.5 112,-285.5 112,-266.5 4,-266.5"/>
<text text-anchor="middle" x="58" y="-273.5" font-family="Helvetica,sans-Serif" font-size="10.00">GSDUtil::writeFrame</text>
</a>
</g>
</g>
<!-- Node3&#45;&gt;Node4 -->
<g id="edge3" class="edge">
<title>Node3&#45;&gt;Node4</title>
<path fill="none" stroke="midnightblue" d="M176.32,-276C156,-276 132.56,-276 112,-276"/>
<polygon fill="midnightblue" stroke="midnightblue" points="176.33,-279.5 186.33,-276 176.33,-272.5 176.33,-279.5"/>
</g>
<!-- Node5&#45;&gt;Node2 -->
<g id="edge5" class="edge">
<title>Node5&#45;&gt;Node2</title>
<path fill="none" stroke="midnightblue" d="M500.51,-250.11C479.76,-255.4 455.77,-261.52 436.33,-266.48"/>
<polygon fill="midnightblue" stroke="midnightblue" points="501.58,-253.45 510.4,-247.59 499.85,-246.67 501.58,-253.45"/>
</g>
<!-- Node5&#45;&gt;Node6 -->
<g id="edge6" class="edge">
<title>Node5&#45;&gt;Node6</title>
<path fill="none" stroke="midnightblue" d="M500.51,-225.89C479.76,-220.6 455.77,-214.48 436.33,-209.52"/>
<polygon fill="midnightblue" stroke="midnightblue" points="499.85,-229.33 510.4,-228.41 501.58,-222.55 499.85,-229.33"/>
</g>
<!-- Node13 -->
<g id="node13" class="node">
<title>Node13</title>
<g id="a_node13"><a xlink:href="gsd_8h.html#adb92d5142812c19bf4ee33cbde439131" target="_top" xlink:title=" ">
<polygon fill="none" stroke="black" points="362,-228.5 362,-247.5 434,-247.5 434,-228.5 362,-228.5"/>
<text text-anchor="middle" x="398" y="-235.5" font-family="Helvetica,sans-Serif" font-size="10.00">gsd_upgrade</text>
</a>
</g>
</g>
<!-- Node5&#45;&gt;Node13 -->
<g id="edge13" class="edge">
<title>Node5&#45;&gt;Node13</title>
<path fill="none" stroke="midnightblue" d="M481.6,-238C465.28,-238 448.43,-238 434.24,-238"/>
<polygon fill="midnightblue" stroke="midnightblue" points="481.67,-241.5 491.67,-238 481.67,-234.5 481.67,-241.5"/>
</g>
<!-- Node7 -->
<g id="node7" class="node">
<title>Node7</title>
<g id="a_node7"><a xlink:href="gsd_8h.html#a157d14770365926fde71a7787871bc63" target="_top" xlink:title=" ">
<polygon fill="none" stroke="black" points="172,-152.5 172,-171.5 284,-171.5 284,-152.5 172,-152.5"/>
<text text-anchor="middle" x="228" y="-159.5" font-family="Helvetica,sans-Serif" font-size="10.00">gsd_create_and_open</text>
</a>
</g>
</g>
<!-- Node6&#45;&gt;Node7 -->
<g id="edge7" class="edge">
<title>Node6&#45;&gt;Node7</title>
<path fill="none" stroke="midnightblue" d="M344.72,-188.18C321.04,-182.82 293.41,-176.57 271.09,-171.52"/>
<polygon fill="midnightblue" stroke="midnightblue" points="344.08,-191.62 354.61,-190.41 345.63,-184.79 344.08,-191.62"/>
</g>
<!-- Node8 -->
<g id="node8" class="node">
<title>Node8</title>
<g id="a_node8"><a xlink:href="gsd_8h.html#ae0add799755285c1108a7b97b2ed7e00" target="_top" xlink:title=" ">
<polygon fill="none" stroke="black" points="198.5,-190.5 198.5,-209.5 257.5,-209.5 257.5,-190.5 198.5,-190.5"/>
<text text-anchor="middle" x="228" y="-197.5" font-family="Helvetica,sans-Serif" font-size="10.00">gsd_open</text>
</a>
</g>
</g>
<!-- Node6&#45;&gt;Node8 -->
<g id="edge8" class="edge">
<title>Node6&#45;&gt;Node8</title>
<path fill="none" stroke="midnightblue" d="M334.02,-200C307.72,-200 278.49,-200 257.56,-200"/>
<polygon fill="midnightblue" stroke="midnightblue" points="334.3,-203.5 344.3,-200 334.3,-196.5 334.3,-203.5"/>
</g>
<!-- Node11 -->
<g id="node11" class="node">
<title>Node11</title>
<g id="a_node11"><a xlink:href="gsd_8h.html#a02ac7984034069d508b1c7ccbe702bac" target="_top" xlink:title=" ">
<polygon fill="none" stroke="black" points="191.5,-228.5 191.5,-247.5 264.5,-247.5 264.5,-228.5 191.5,-228.5"/>
<text text-anchor="middle" x="228" y="-235.5" font-family="Helvetica,sans-Serif" font-size="10.00">gsd_truncate</text>
</a>
</g>
</g>
<!-- Node6&#45;&gt;Node11 -->
<g id="edge11" class="edge">
<title>Node6&#45;&gt;Node11</title>
<path fill="none" stroke="midnightblue" d="M344.53,-211.87C318.52,-217.75 287.79,-224.7 264.56,-229.96"/>
<polygon fill="midnightblue" stroke="midnightblue" points="345.63,-215.21 354.61,-209.59 344.08,-208.38 345.63,-215.21"/>
</g>
<!-- Node9 -->
<g id="node9" class="node">
<title>Node9</title>
<g id="a_node9"><a xlink:href="classGSDUtil.html#a2567bdb7f5952a76984552e0591fa330" target="_top" xlink:title="Construct a new GSDUtil object.">
<polygon fill="none" stroke="black" points="10,-76.5 10,-95.5 106,-95.5 106,-76.5 10,-76.5"/>
<text text-anchor="middle" x="58" y="-83.5" font-family="Helvetica,sans-Serif" font-size="10.00">GSDUtil::GSDUtil</text>
</a>
</g>
</g>
<!-- Node8&#45;&gt;Node9 -->
<g id="edge9" class="edge">
<title>Node8&#45;&gt;Node9</title>
<path fill="none" stroke="midnightblue" d="M188.26,-194.42C176.11,-191.58 163.01,-187.33 152,-181 112.99,-158.56 79.45,-115.18 65.68,-95.79"/>
<polygon fill="midnightblue" stroke="midnightblue" points="187.68,-197.87 198.18,-196.48 189.1,-191.02 187.68,-197.87"/>
</g>
<!-- Node10 -->
<g id="node10" class="node">
<title>Node10</title>
<g id="a_node10"><a xlink:href="testSimulationBuild_8cpp.html#ac2b102ba50512565940601db33c64cf2" target="_top" xlink:title=" ">
<polygon fill="none" stroke="black" points="20.5,-190.5 20.5,-209.5 95.5,-209.5 95.5,-190.5 20.5,-190.5"/>
<text text-anchor="middle" x="58" y="-197.5" font-family="Helvetica,sans-Serif" font-size="10.00">TEST_CASE</text>
</a>
</g>
</g>
<!-- Node8&#45;&gt;Node10 -->
<g id="edge10" class="edge">
<title>Node8&#45;&gt;Node10</title>
<path fill="none" stroke="midnightblue" d="M187.95,-200C160.14,-200 122.99,-200 95.71,-200"/>
<polygon fill="midnightblue" stroke="midnightblue" points="188.12,-203.5 198.12,-200 188.12,-196.5 188.12,-203.5"/>
</g>
<!-- Node12 -->
<g id="node12" class="node">
<title>Node12</title>
<g id="a_node12"><a xlink:href="classGSDUtil.html#a78b796cb5093b0aa6f5d2573658fcca1" target="_top" xlink:title="Removes all frames and data from GSD file. This returns GSD to a &quot;new file&quot; state.">
<polygon fill="none" stroke="black" points="0,-228.5 0,-247.5 116,-247.5 116,-228.5 0,-228.5"/>
<text text-anchor="middle" x="58" y="-235.5" font-family="Helvetica,sans-Serif" font-size="10.00">GSDUtil::truncateGSD</text>
</a>
</g>
</g>
<!-- Node11&#45;&gt;Node12 -->
<g id="edge12" class="edge">
<title>Node11&#45;&gt;Node12</title>
<path fill="none" stroke="midnightblue" d="M181.23,-238C161.13,-238 137.31,-238 116.06,-238"/>
<polygon fill="midnightblue" stroke="midnightblue" points="181.37,-241.5 191.37,-238 181.37,-234.5 181.37,-241.5"/>
</g>
<!-- Node15 -->
<g id="node15" class="node">
<title>Node15</title>
<g id="a_node15"><a xlink:href="classGSDUtil.html#a86d2352b694afc6a0c938a13b3acec9d" target="_top" xlink:title="Finds and then loads data from GSD.">
<polygon fill="none" stroke="black" points="344.5,-76.5 344.5,-95.5 451.5,-95.5 451.5,-76.5 344.5,-76.5"/>
<text text-anchor="middle" x="398" y="-83.5" font-family="Helvetica,sans-Serif" font-size="10.00">GSDUtil::readChunk</text>
</a>
</g>
</g>
<!-- Node14&#45;&gt;Node15 -->
<g id="edge16" class="edge">
<title>Node14&#45;&gt;Node15</title>
<path fill="none" stroke="midnightblue" d="M500.51,-111.89C479.76,-106.6 455.77,-100.48 436.33,-95.52"/>
<polygon fill="midnightblue" stroke="midnightblue" points="499.85,-115.33 510.4,-114.41 501.58,-108.55 499.85,-115.33"/>
</g>
<!-- Node16 -->
<g id="node16" class="node">
<title>Node16</title>
<g id="a_node16"><a xlink:href="classGSDUtil.html#a2015dcdcdb33be9106f5c8f45f8564cc" target="_top" xlink:title="Read header information from GSD frame m_frame">
<polygon fill="none" stroke="black" points="173,-114.5 173,-133.5 283,-133.5 283,-114.5 173,-114.5"/>
<text text-anchor="middle" x="228" y="-121.5" font-family="Helvetica,sans-Serif" font-size="10.00">GSDUtil::readHeader</text>
</a>
</g>
</g>
<!-- Node15&#45;&gt;Node16 -->
<g id="edge17" class="edge">
<title>Node15&#45;&gt;Node16</title>
<path fill="none" stroke="midnightblue" d="M344.72,-97.82C321.04,-103.18 293.41,-109.43 271.09,-114.48"/>
<polygon fill="midnightblue" stroke="midnightblue" points="345.63,-101.21 354.61,-95.59 344.08,-94.38 345.63,-101.21"/>
</g>
<!-- Node17 -->
<g id="node17" class="node">
<title>Node17</title>
<g id="a_node17"><a xlink:href="classGSDUtil.html#a31f9c7368ebd89c6293d9d9d83598e62" target="_top" xlink:title="Read parameter information from GSD frame m_frame">
<polygon fill="none" stroke="black" points="164,-76.5 164,-95.5 292,-95.5 292,-76.5 164,-76.5"/>
<text text-anchor="middle" x="228" y="-83.5" font-family="Helvetica,sans-Serif" font-size="10.00">GSDUtil::readParameters</text>
</a>
</g>
</g>
<!-- Node15&#45;&gt;Node17 -->
<g id="edge19" class="edge">
<title>Node15&#45;&gt;Node17</title>
<path fill="none" stroke="midnightblue" d="M334.01,-86C320.31,-86 305.82,-86 292.11,-86"/>
<polygon fill="midnightblue" stroke="midnightblue" points="334.3,-89.5 344.3,-86 334.3,-82.5 334.3,-89.5"/>
</g>
<!-- Node18 -->
<g id="node18" class="node">
<title>Node18</title>
<g id="a_node18"><a xlink:href="classGSDUtil.html#ad404c3879fb81c0b73b2335ea6e4676a" target="_top" xlink:title="Read particle information from GSD frame m_frame">
<polygon fill="none" stroke="black" points="170,-38.5 170,-57.5 286,-57.5 286,-38.5 170,-38.5"/>
<text text-anchor="middle" x="228" y="-45.5" font-family="Helvetica,sans-Serif" font-size="10.00">GSDUtil::readParticles</text>
</a>
</g>
</g>
<!-- Node15&#45;&gt;Node18 -->
<g id="edge21" class="edge">
<title>Node15&#45;&gt;Node18</title>
<path fill="none" stroke="midnightblue" d="M344.72,-74.18C321.04,-68.82 293.41,-62.57 271.09,-57.52"/>
<polygon fill="midnightblue" stroke="midnightblue" points="344.08,-77.62 354.61,-76.41 345.63,-70.79 344.08,-77.62"/>
</g>
<!-- Node19 -->
<g id="node19" class="node">
<title>Node19</title>
<g id="a_node19"><a xlink:href="classGSDUtil.html#a278d1db9ece12bdc1268780313d83daf" target="_top" xlink:title="Reads system specific variables from GSD frame m_frame">
<polygon fill="none" stroke="black" points="152,-0.5 152,-19.5 304,-19.5 304,-0.5 152,-0.5"/>
<text text-anchor="middle" x="228" y="-7.5" font-family="Helvetica,sans-Serif" font-size="10.00">GSDUtil::readSystemSpecifics</text>
</a>
</g>
</g>
<!-- Node15&#45;&gt;Node19 -->
<g id="edge23" class="edge">
<title>Node15&#45;&gt;Node19</title>
<path fill="none" stroke="midnightblue" d="M375.98,-70.55C357.75,-57.8 330.24,-40.06 304,-29 295.09,-25.24 285.26,-22.1 275.73,-19.51"/>
<polygon fill="midnightblue" stroke="midnightblue" points="373.96,-73.41 384.13,-76.36 378.02,-67.71 373.96,-73.41"/>
</g>
<!-- Node16&#45;&gt;Node9 -->
<g id="edge18" class="edge">
<title>Node16&#45;&gt;Node9</title>
<path fill="none" stroke="midnightblue" d="M174.72,-112.18C151.04,-106.82 123.41,-100.57 101.09,-95.52"/>
<polygon fill="midnightblue" stroke="midnightblue" points="174.08,-115.62 184.61,-114.41 175.63,-108.79 174.08,-115.62"/>
</g>
<!-- Node17&#45;&gt;Node9 -->
<g id="edge20" class="edge">
<title>Node17&#45;&gt;Node9</title>
<path fill="none" stroke="midnightblue" d="M153.96,-86C137.74,-86 120.96,-86 106.11,-86"/>
<polygon fill="midnightblue" stroke="midnightblue" points="153.97,-89.5 163.97,-86 153.96,-82.5 153.97,-89.5"/>
</g>
<!-- Node18&#45;&gt;Node9 -->
<g id="edge22" class="edge">
<title>Node18&#45;&gt;Node9</title>
<path fill="none" stroke="midnightblue" d="M174.72,-59.82C151.04,-65.18 123.41,-71.43 101.09,-76.48"/>
<polygon fill="midnightblue" stroke="midnightblue" points="175.63,-63.21 184.61,-57.59 174.08,-56.38 175.63,-63.21"/>
</g>
<!-- Node19&#45;&gt;Node9 -->
<g id="edge24" class="edge">
<title>Node19&#45;&gt;Node9</title>
<path fill="none" stroke="midnightblue" d="M170.39,-22.38C164.09,-24.33 157.85,-26.53 152,-29 121.46,-41.87 89.22,-63.78 71.87,-76.36"/>
<polygon fill="midnightblue" stroke="midnightblue" points="171.64,-25.66 180.27,-19.51 169.69,-18.94 171.64,-25.66"/>
</g>
</g>
</svg>
