<?xml version="1.0" encoding="UTF-8" standalone="no"?>
<!DOCTYPE svg PUBLIC "-//W3C//DTD SVG 1.1//EN"
 "http://www.w3.org/Graphics/SVG/1.1/DTD/svg11.dtd">
<!-- Generated by graphviz version 2.43.0 (0)
 -->
<!-- Title: gsd_find_chunk Pages: 1 -->
<svg width="556pt" height="142pt"
 viewBox="0.00 0.00 556.00 142.00" xmlns="http://www.w3.org/2000/svg" xmlns:xlink="http://www.w3.org/1999/xlink">
<g id="graph0" class="graph" transform="scale(1 1) rotate(0) translate(4 138)">
<title>gsd_find_chunk</title>
<!-- Node1 -->
<g id="node1" class="node">
<title>Node1</title>
<g id="a_node1"><a xlink:title=" ">
<polygon fill="#bfbfbf" stroke="black" points="463,-57.5 463,-76.5 548,-76.5 548,-57.5 463,-57.5"/>
<text text-anchor="middle" x="505.5" y="-64.5" font-family="Helvetica,sans-Serif" font-size="10.00">gsd_find_chunk</text>
</a>
</g>
</g>
<!-- Node2 -->
<g id="node2" class="node">
<title>Node2</title>
<g id="a_node2"><a xlink:href="classGSDUtil.html#a86d2352b694afc6a0c938a13b3acec9d" target="_top" xlink:title=" ">
<polygon fill="none" stroke="black" points="320,-57.5 320,-76.5 427,-76.5 427,-57.5 320,-57.5"/>
<text text-anchor="middle" x="373.5" y="-64.5" font-family="Helvetica,sans-Serif" font-size="10.00">GSDUtil::readChunk</text>
</a>
</g>
</g>
<!-- Node1&#45;&gt;Node2 -->
<g id="edge1" class="edge">
<title>Node1&#45;&gt;Node2</title>
<path fill="none" stroke="midnightblue" d="M452.64,-67C444.27,-67 435.61,-67 427.22,-67"/>
<polygon fill="midnightblue" stroke="midnightblue" points="452.65,-70.5 462.65,-67 452.65,-63.5 452.65,-70.5"/>
</g>
<!-- Node3 -->
<g id="node3" class="node">
<title>Node3</title>
<g id="a_node3"><a xlink:href="classGSDUtil.html#a2015dcdcdb33be9106f5c8f45f8564cc" target="_top" xlink:title=" ">
<polygon fill="none" stroke="black" points="153,-114.5 153,-133.5 263,-133.5 263,-114.5 153,-114.5"/>
<text text-anchor="middle" x="208" y="-121.5" font-family="Helvetica,sans-Serif" font-size="10.00">GSDUtil::readHeader</text>
</a>
</g>
</g>
<!-- Node2&#45;&gt;Node3 -->
<g id="edge2" class="edge">
<title>Node2&#45;&gt;Node3</title>
<path fill="none" stroke="midnightblue" d="M343.41,-80.86C326.36,-88.64 304.25,-98.13 284,-105 273.7,-108.49 262.4,-111.68 251.78,-114.4"/>
<polygon fill="midnightblue" stroke="midnightblue" points="345.21,-83.89 352.82,-76.52 342.27,-77.54 345.21,-83.89"/>
</g>
<!-- Node5 -->
<g id="node5" class="node">
<title>Node5</title>
<g id="a_node5"><a xlink:href="classGSDUtil.html#a31f9c7368ebd89c6293d9d9d83598e62" target="_top" xlink:title=" ">
<polygon fill="none" stroke="black" points="144,-76.5 144,-95.5 272,-95.5 272,-76.5 144,-76.5"/>
<text text-anchor="middle" x="208" y="-83.5" font-family="Helvetica,sans-Serif" font-size="10.00">GSDUtil::readParameters</text>
</a>
</g>
</g>
<!-- Node2&#45;&gt;Node5 -->
<g id="edge4" class="edge">
<title>Node2&#45;&gt;Node5</title>
<path fill="none" stroke="midnightblue" d="M309.69,-74.3C297.36,-75.73 284.43,-77.23 272.1,-78.67"/>
<polygon fill="midnightblue" stroke="midnightblue" points="310.34,-77.75 319.87,-73.12 309.53,-70.79 310.34,-77.75"/>
</g>
<!-- Node6 -->
<g id="node6" class="node">
<title>Node6</title>
<g id="a_node6"><a xlink:href="classGSDUtil.html#ad404c3879fb81c0b73b2335ea6e4676a" target="_top" xlink:title=" ">
<polygon fill="none" stroke="black" points="150,-38.5 150,-57.5 266,-57.5 266,-38.5 150,-38.5"/>
<text text-anchor="middle" x="208" y="-45.5" font-family="Helvetica,sans-Serif" font-size="10.00">GSDUtil::readParticles</text>
</a>
</g>
</g>
<!-- Node2&#45;&gt;Node6 -->
<g id="edge6" class="edge">
<title>Node2&#45;&gt;Node6</title>
<path fill="none" stroke="midnightblue" d="M309.6,-59.69C295.27,-58.03 280.13,-56.27 266.06,-54.63"/>
<polygon fill="midnightblue" stroke="midnightblue" points="309.53,-63.21 319.87,-60.88 310.34,-56.25 309.53,-63.21"/>
</g>
<!-- Node7 -->
<g id="node7" class="node">
<title>Node7</title>
<g id="a_node7"><a xlink:href="classGSDUtil.html#a278d1db9ece12bdc1268780313d83daf" target="_top" xlink:title=" ">
<polygon fill="none" stroke="black" points="132,-0.5 132,-19.5 284,-19.5 284,-0.5 132,-0.5"/>
<text text-anchor="middle" x="208" y="-7.5" font-family="Helvetica,sans-Serif" font-size="10.00">GSDUtil::readSystemSpecifics</text>
</a>
</g>
</g>
<!-- Node2&#45;&gt;Node7 -->
<g id="edge8" class="edge">
<title>Node2&#45;&gt;Node7</title>
<path fill="none" stroke="midnightblue" d="M343.41,-53.14C326.36,-45.36 304.25,-35.87 284,-29 273.7,-25.51 262.4,-22.32 251.78,-19.6"/>
<polygon fill="midnightblue" stroke="midnightblue" points="342.27,-56.46 352.82,-57.48 345.21,-50.11 342.27,-56.46"/>
</g>
<!-- Node4 -->
<g id="node4" class="node">
<title>Node4</title>
<g id="a_node4"><a xlink:href="classGSDUtil.html#a2567bdb7f5952a76984552e0591fa330" target="_top" xlink:title=" ">
<polygon fill="none" stroke="black" points="0,-57.5 0,-76.5 96,-76.5 96,-57.5 0,-57.5"/>
<text text-anchor="middle" x="48" y="-64.5" font-family="Helvetica,sans-Serif" font-size="10.00">GSDUtil::GSDUtil</text>
</a>
</g>
</g>
<!-- Node3&#45;&gt;Node4 -->
<g id="edge3" class="edge">
<title>Node3&#45;&gt;Node4</title>
<path fill="none" stroke="midnightblue" d="M154.04,-111.86C146.57,-109.78 139.05,-107.48 132,-105 109.13,-96.94 83.95,-84.94 67.39,-76.59"/>
<polygon fill="midnightblue" stroke="midnightblue" points="153.2,-115.26 163.77,-114.47 155.01,-108.5 153.2,-115.26"/>
</g>
<!-- Node5&#45;&gt;Node4 -->
<g id="edge5" class="edge">
<title>Node5&#45;&gt;Node4</title>
<path fill="none" stroke="midnightblue" d="M133.56,-77.17C120.9,-75.65 108.05,-74.1 96.31,-72.69"/>
<polygon fill="midnightblue" stroke="midnightblue" points="133.3,-80.66 143.65,-78.38 134.14,-73.71 133.3,-80.66"/>
</g>
<!-- Node6&#45;&gt;Node4 -->
<g id="edge7" class="edge">
<title>Node6&#45;&gt;Node4</title>
<path fill="none" stroke="midnightblue" d="M139.87,-56.07C125.14,-57.84 109.83,-59.68 96.08,-61.34"/>
<polygon fill="midnightblue" stroke="midnightblue" points="140.45,-59.53 149.96,-54.86 139.61,-52.58 140.45,-59.53"/>
</g>
<!-- Node7&#45;&gt;Node4 -->
<g id="edge9" class="edge">
<title>Node7&#45;&gt;Node4</title>
<path fill="none" stroke="midnightblue" d="M154.04,-22.14C146.57,-24.22 139.05,-26.52 132,-29 109.13,-37.06 83.95,-49.06 67.39,-57.41"/>
<polygon fill="midnightblue" stroke="midnightblue" points="155.01,-25.5 163.77,-19.53 153.2,-18.74 155.01,-25.5"/>
</g>
</g>
</svg>
