<?xml version="1.0" encoding="UTF-8" standalone="no"?>
<!DOCTYPE svg PUBLIC "-//W3C//DTD SVG 1.1//EN"
 "http://www.w3.org/Graphics/SVG/1.1/DTD/svg11.dtd">
<!-- Generated by graphviz version 2.43.0 (0)
 -->
<!-- Title: gsd_hash_str Pages: 1 -->
<svg width="870pt" height="341pt"
 viewBox="0.00 0.00 870.00 341.00" xmlns="http://www.w3.org/2000/svg" xmlns:xlink="http://www.w3.org/1999/xlink">
<g id="graph0" class="graph" transform="scale(1 1) rotate(0) translate(4 337)">
<title>gsd_hash_str</title>
<!-- Node1 -->
<g id="node1" class="node">
<title>Node1</title>
<g id="a_node1"><a xlink:title=" ">
<polygon fill="#bfbfbf" stroke="black" points="787,-114.5 787,-133.5 862,-133.5 862,-114.5 787,-114.5"/>
<text text-anchor="middle" x="824.5" y="-121.5" font-family="Helvetica,sans-Serif" font-size="10.00">gsd_hash_str</text>
</a>
</g>
</g>
<!-- Node2 -->
<g id="node2" class="node">
<title>Node2</title>
<g id="a_node2"><a xlink:href="gsd_8c.html#a31b9400272036b121040e9fc0a9e626b" target="_top" xlink:title=" ">
<polygon fill="none" stroke="black" points="627.5,-133.5 627.5,-152.5 746.5,-152.5 746.5,-133.5 627.5,-133.5"/>
<text text-anchor="middle" x="687" y="-140.5" font-family="Helvetica,sans-Serif" font-size="10.00">gsd_name_id_map_find</text>
</a>
</g>
</g>
<!-- Node1&#45;&gt;Node2 -->
<g id="edge1" class="edge">
<title>Node1&#45;&gt;Node2</title>
<path fill="none" stroke="midnightblue" d="M776.63,-130.57C766.97,-131.93 756.67,-133.37 746.65,-134.78"/>
<polygon fill="midnightblue" stroke="midnightblue" points="777.41,-134 786.83,-129.14 776.44,-127.06 777.41,-134"/>
</g>
<!-- Node15 -->
<g id="node15" class="node">
<title>Node15</title>
<g id="a_node15"><a xlink:href="gsd_8c.html#a6c8c2e5a49ac4eb01a95be2e0df06eb9" target="_top" xlink:title=" ">
<polygon fill="none" stroke="black" points="623,-95.5 623,-114.5 751,-114.5 751,-95.5 623,-95.5"/>
<text text-anchor="middle" x="687" y="-102.5" font-family="Helvetica,sans-Serif" font-size="10.00">gsd_name_id_map_insert</text>
</a>
</g>
</g>
<!-- Node1&#45;&gt;Node15 -->
<g id="edge19" class="edge">
<title>Node1&#45;&gt;Node15</title>
<path fill="none" stroke="midnightblue" d="M776.66,-117.43C768.4,-116.27 759.68,-115.05 751.07,-113.84"/>
<polygon fill="midnightblue" stroke="midnightblue" points="776.44,-120.94 786.83,-118.86 777.41,-114 776.44,-120.94"/>
</g>
<!-- Node3 -->
<g id="node3" class="node">
<title>Node3</title>
<g id="a_node3"><a xlink:href="gsd_8h.html#a3c76bbf6c28b953cff198a44852c732f" target="_top" xlink:title=" ">
<polygon fill="none" stroke="black" points="491,-199.5 491,-218.5 576,-218.5 576,-199.5 491,-199.5"/>
<text text-anchor="middle" x="533.5" y="-206.5" font-family="Helvetica,sans-Serif" font-size="10.00">gsd_find_chunk</text>
</a>
</g>
</g>
<!-- Node2&#45;&gt;Node3 -->
<g id="edge2" class="edge">
<title>Node2&#45;&gt;Node3</title>
<path fill="none" stroke="midnightblue" d="M654.61,-156.68C625.32,-169.44 582.37,-188.14 556.56,-199.39"/>
<polygon fill="midnightblue" stroke="midnightblue" points="656.2,-159.8 663.97,-152.6 653.4,-153.38 656.2,-159.8"/>
</g>
<!-- Node10 -->
<g id="node10" class="node">
<title>Node10</title>
<g id="a_node10"><a xlink:href="gsd_8h.html#ae22447904b925f284bf987fae448488a" target="_top" xlink:title=" ">
<polygon fill="none" stroke="black" points="343,-57.5 343,-76.5 433,-76.5 433,-57.5 343,-57.5"/>
<text text-anchor="middle" x="388" y="-64.5" font-family="Helvetica,sans-Serif" font-size="10.00">gsd_write_chunk</text>
</a>
</g>
</g>
<!-- Node2&#45;&gt;Node10 -->
<g id="edge12" class="edge">
<title>Node2&#45;&gt;Node10</title>
<path fill="none" stroke="midnightblue" d="M638.89,-130.94C579.98,-115.87 480.34,-90.37 426.4,-76.57"/>
<polygon fill="midnightblue" stroke="midnightblue" points="638.13,-134.36 648.69,-133.45 639.87,-127.58 638.13,-134.36"/>
</g>
<!-- Node4 -->
<g id="node4" class="node">
<title>Node4</title>
<g id="a_node4"><a xlink:href="classGSDUtil.html#a86d2352b694afc6a0c938a13b3acec9d" target="_top" xlink:title="Finds and then loads data from GSD.">
<polygon fill="none" stroke="black" points="334.5,-237.5 334.5,-256.5 441.5,-256.5 441.5,-237.5 334.5,-237.5"/>
<text text-anchor="middle" x="388" y="-244.5" font-family="Helvetica,sans-Serif" font-size="10.00">GSDUtil::readChunk</text>
</a>
</g>
</g>
<!-- Node3&#45;&gt;Node4 -->
<g id="edge3" class="edge">
<title>Node3&#45;&gt;Node4</title>
<path fill="none" stroke="midnightblue" d="M486.53,-221.17C466.68,-226.43 443.81,-232.49 425.2,-237.41"/>
<polygon fill="midnightblue" stroke="midnightblue" points="487.52,-224.53 496.29,-218.59 485.73,-217.77 487.52,-224.53"/>
</g>
<!-- Node5 -->
<g id="node5" class="node">
<title>Node5</title>
<g id="a_node5"><a xlink:href="classGSDUtil.html#a2015dcdcdb33be9106f5c8f45f8564cc" target="_top" xlink:title="Read header information from GSD frame m_frame">
<polygon fill="none" stroke="black" points="165,-313.5 165,-332.5 275,-332.5 275,-313.5 165,-313.5"/>
<text text-anchor="middle" x="220" y="-320.5" font-family="Helvetica,sans-Serif" font-size="10.00">GSDUtil::readHeader</text>
</a>
</g>
</g>
<!-- Node4&#45;&gt;Node5 -->
<g id="edge4" class="edge">
<title>Node4&#45;&gt;Node5</title>
<path fill="none" stroke="midnightblue" d="M365.99,-262.82C348.19,-275.56 321.55,-293.08 296,-304 287.23,-307.75 277.56,-310.88 268.15,-313.45"/>
<polygon fill="midnightblue" stroke="midnightblue" points="368.43,-265.38 374.44,-256.66 364.3,-259.72 368.43,-265.38"/>
</g>
<!-- Node7 -->
<g id="node7" class="node">
<title>Node7</title>
<g id="a_node7"><a xlink:href="classGSDUtil.html#a31f9c7368ebd89c6293d9d9d83598e62" target="_top" xlink:title="Read parameter information from GSD frame m_frame">
<polygon fill="none" stroke="black" points="156,-275.5 156,-294.5 284,-294.5 284,-275.5 156,-275.5"/>
<text text-anchor="middle" x="220" y="-282.5" font-family="Helvetica,sans-Serif" font-size="10.00">GSDUtil::readParameters</text>
</a>
</g>
</g>
<!-- Node4&#45;&gt;Node7 -->
<g id="edge6" class="edge">
<title>Node4&#45;&gt;Node7</title>
<path fill="none" stroke="midnightblue" d="M335.35,-258.82C311.94,-264.18 284.64,-270.43 262.59,-275.48"/>
<polygon fill="midnightblue" stroke="midnightblue" points="336.14,-262.23 345.11,-256.59 334.58,-255.41 336.14,-262.23"/>
</g>
<!-- Node8 -->
<g id="node8" class="node">
<title>Node8</title>
<g id="a_node8"><a xlink:href="classGSDUtil.html#ad404c3879fb81c0b73b2335ea6e4676a" target="_top" xlink:title="Read particle information from GSD frame m_frame">
<polygon fill="none" stroke="black" points="162,-237.5 162,-256.5 278,-256.5 278,-237.5 162,-237.5"/>
<text text-anchor="middle" x="220" y="-244.5" font-family="Helvetica,sans-Serif" font-size="10.00">GSDUtil::readParticles</text>
</a>
</g>
</g>
<!-- Node4&#45;&gt;Node8 -->
<g id="edge8" class="edge">
<title>Node4&#45;&gt;Node8</title>
<path fill="none" stroke="midnightblue" d="M324.17,-247C309.03,-247 292.93,-247 278.07,-247"/>
<polygon fill="midnightblue" stroke="midnightblue" points="324.48,-250.5 334.48,-247 324.48,-243.5 324.48,-250.5"/>
</g>
<!-- Node9 -->
<g id="node9" class="node">
<title>Node9</title>
<g id="a_node9"><a xlink:href="classGSDUtil.html#a278d1db9ece12bdc1268780313d83daf" target="_top" xlink:title="Reads system specific variables from GSD frame m_frame">
<polygon fill="none" stroke="black" points="144,-199.5 144,-218.5 296,-218.5 296,-199.5 144,-199.5"/>
<text text-anchor="middle" x="220" y="-206.5" font-family="Helvetica,sans-Serif" font-size="10.00">GSDUtil::readSystemSpecifics</text>
</a>
</g>
</g>
<!-- Node4&#45;&gt;Node9 -->
<g id="edge10" class="edge">
<title>Node4&#45;&gt;Node9</title>
<path fill="none" stroke="midnightblue" d="M335.35,-235.18C311.94,-229.82 284.64,-223.57 262.59,-218.52"/>
<polygon fill="midnightblue" stroke="midnightblue" points="334.58,-238.59 345.11,-237.41 336.14,-231.77 334.58,-238.59"/>
</g>
<!-- Node6 -->
<g id="node6" class="node">
<title>Node6</title>
<g id="a_node6"><a xlink:href="classGSDUtil.html#a2567bdb7f5952a76984552e0591fa330" target="_top" xlink:title="Construct a new GSDUtil object.">
<polygon fill="none" stroke="black" points="6,-237.5 6,-256.5 102,-256.5 102,-237.5 6,-237.5"/>
<text text-anchor="middle" x="54" y="-244.5" font-family="Helvetica,sans-Serif" font-size="10.00">GSDUtil::GSDUtil</text>
</a>
</g>
</g>
<!-- Node5&#45;&gt;Node6 -->
<g id="edge5" class="edge">
<title>Node5&#45;&gt;Node6</title>
<path fill="none" stroke="midnightblue" d="M161.81,-310.57C155.71,-308.64 149.66,-306.45 144,-304 114.54,-291.23 83.77,-269.29 67.24,-256.67"/>
<polygon fill="midnightblue" stroke="midnightblue" points="160.84,-313.93 171.42,-313.41 162.82,-307.22 160.84,-313.93"/>
</g>
<!-- Node7&#45;&gt;Node6 -->
<g id="edge7" class="edge">
<title>Node7&#45;&gt;Node6</title>
<path fill="none" stroke="midnightblue" d="M167.66,-273.1C144.61,-267.76 117.78,-261.55 96.09,-256.52"/>
<polygon fill="midnightblue" stroke="midnightblue" points="167.08,-276.56 177.62,-275.41 168.66,-269.74 167.08,-276.56"/>
</g>
<!-- Node8&#45;&gt;Node6 -->
<g id="edge9" class="edge">
<title>Node8&#45;&gt;Node6</title>
<path fill="none" stroke="midnightblue" d="M151.44,-247C134.83,-247 117.42,-247 102.03,-247"/>
<polygon fill="midnightblue" stroke="midnightblue" points="151.64,-250.5 161.64,-247 151.64,-243.5 151.64,-250.5"/>
</g>
<!-- Node9&#45;&gt;Node6 -->
<g id="edge11" class="edge">
<title>Node9&#45;&gt;Node6</title>
<path fill="none" stroke="midnightblue" d="M167.66,-220.9C144.61,-226.24 117.78,-232.45 96.09,-237.48"/>
<polygon fill="midnightblue" stroke="midnightblue" points="168.66,-224.26 177.62,-218.59 167.08,-217.44 168.66,-224.26"/>
</g>
<!-- Node11 -->
<g id="node11" class="node">
<title>Node11</title>
<g id="a_node11"><a xlink:href="classGSDUtil.html#a77b5ebe2817ac868ad1b171f3d7b0cae" target="_top" xlink:title="Writes header information to GSD.">
<polygon fill="none" stroke="black" points="164,-76.5 164,-95.5 276,-95.5 276,-76.5 164,-76.5"/>
<text text-anchor="middle" x="220" y="-83.5" font-family="Helvetica,sans-Serif" font-size="10.00">GSDUtil::writeHeader</text>
</a>
</g>
</g>
<!-- Node10&#45;&gt;Node11 -->
<g id="edge13" class="edge">
<title>Node10&#45;&gt;Node11</title>
<path fill="none" stroke="midnightblue" d="M332.84,-73.2C314.7,-75.27 294.48,-77.59 276.26,-79.67"/>
<polygon fill="midnightblue" stroke="midnightblue" points="333.41,-76.66 342.95,-72.04 332.62,-69.7 333.41,-76.66"/>
</g>
<!-- Node13 -->
<g id="node13" class="node">
<title>Node13</title>
<g id="a_node13"><a xlink:href="classGSDUtil.html#aa0dc50cd5e5534260375ad4962511cf0" target="_top" xlink:title="Writes parameter information to GSD.">
<polygon fill="none" stroke="black" points="154.5,-38.5 154.5,-57.5 285.5,-57.5 285.5,-38.5 154.5,-38.5"/>
<text text-anchor="middle" x="220" y="-45.5" font-family="Helvetica,sans-Serif" font-size="10.00">GSDUtil::writeParameters</text>
</a>
</g>
</g>
<!-- Node10&#45;&gt;Node13 -->
<g id="edge15" class="edge">
<title>Node10&#45;&gt;Node13</title>
<path fill="none" stroke="midnightblue" d="M332.77,-60.79C317.7,-59.07 301.18,-57.18 285.58,-55.39"/>
<polygon fill="midnightblue" stroke="midnightblue" points="332.62,-64.3 342.95,-61.96 333.41,-57.34 332.62,-64.3"/>
</g>
<!-- Node14 -->
<g id="node14" class="node">
<title>Node14</title>
<g id="a_node14"><a xlink:href="classGSDUtil.html#a9464315a26a5d5e2c51bb2b4df5ee373" target="_top" xlink:title="Writes particle information to GSD.">
<polygon fill="none" stroke="black" points="160.5,-0.5 160.5,-19.5 279.5,-19.5 279.5,-0.5 160.5,-0.5"/>
<text text-anchor="middle" x="220" y="-7.5" font-family="Helvetica,sans-Serif" font-size="10.00">GSDUtil::writeParticles</text>
</a>
</g>
</g>
<!-- Node10&#45;&gt;Node14 -->
<g id="edge17" class="edge">
<title>Node10&#45;&gt;Node14</title>
<path fill="none" stroke="midnightblue" d="M357.19,-53.24C339.63,-45.47 316.83,-35.95 296,-29 285.55,-25.52 274.1,-22.31 263.36,-19.57"/>
<polygon fill="midnightblue" stroke="midnightblue" points="355.81,-56.46 366.37,-57.36 358.68,-50.07 355.81,-56.46"/>
</g>
<!-- Node12 -->
<g id="node12" class="node">
<title>Node12</title>
<g id="a_node12"><a xlink:href="classGSDUtil.html#ae76e4a23f0fe0bca3cd44137b56b816b" target="_top" xlink:title="Appends frame to GSD file using data from systemData class.">
<polygon fill="none" stroke="black" points="0,-38.5 0,-57.5 108,-57.5 108,-38.5 0,-38.5"/>
<text text-anchor="middle" x="54" y="-45.5" font-family="Helvetica,sans-Serif" font-size="10.00">GSDUtil::writeFrame</text>
</a>
</g>
</g>
<!-- Node11&#45;&gt;Node12 -->
<g id="edge14" class="edge">
<title>Node11&#45;&gt;Node12</title>
<path fill="none" stroke="midnightblue" d="M167.66,-74.1C144.61,-68.76 117.78,-62.55 96.09,-57.52"/>
<polygon fill="midnightblue" stroke="midnightblue" points="167.08,-77.56 177.62,-76.41 168.66,-70.74 167.08,-77.56"/>
</g>
<!-- Node13&#45;&gt;Node12 -->
<g id="edge16" class="edge">
<title>Node13&#45;&gt;Node12</title>
<path fill="none" stroke="midnightblue" d="M144.04,-48C131.88,-48 119.51,-48 108.01,-48"/>
<polygon fill="midnightblue" stroke="midnightblue" points="144.18,-51.5 154.18,-48 144.18,-44.5 144.18,-51.5"/>
</g>
<!-- Node14&#45;&gt;Node12 -->
<g id="edge18" class="edge">
<title>Node14&#45;&gt;Node12</title>
<path fill="none" stroke="midnightblue" d="M167.66,-21.9C144.61,-27.24 117.78,-33.45 96.09,-38.48"/>
<polygon fill="midnightblue" stroke="midnightblue" points="168.66,-25.26 177.62,-19.59 167.08,-18.44 168.66,-25.26"/>
</g>
<!-- Node16 -->
<g id="node16" class="node">
<title>Node16</title>
<g id="a_node16"><a xlink:href="gsd_8c.html#aa1a0a7dcf4015edcadbb47a6451b4a4b" target="_top" xlink:title=" ">
<polygon fill="none" stroke="black" points="484.5,-57.5 484.5,-76.5 582.5,-76.5 582.5,-57.5 484.5,-57.5"/>
<text text-anchor="middle" x="533.5" y="-64.5" font-family="Helvetica,sans-Serif" font-size="10.00">gsd_append_name</text>
</a>
</g>
</g>
<!-- Node15&#45;&gt;Node16 -->
<g id="edge20" class="edge">
<title>Node15&#45;&gt;Node16</title>
<path fill="none" stroke="midnightblue" d="M638,-92.96C616.83,-87.65 592.31,-81.5 572.45,-76.52"/>
<polygon fill="midnightblue" stroke="midnightblue" points="637.22,-96.37 647.77,-95.41 638.92,-89.58 637.22,-96.37"/>
</g>
<!-- Node17 -->
<g id="node17" class="node">
<title>Node17</title>
<g id="a_node17"><a xlink:href="gsd_8c.html#ac159dfbfd790607f85073ad2d8464a8b" target="_top" xlink:title=" ">
<polygon fill="none" stroke="black" points="480,-133.5 480,-152.5 587,-152.5 587,-133.5 480,-133.5"/>
<text text-anchor="middle" x="533.5" y="-140.5" font-family="Helvetica,sans-Serif" font-size="10.00">gsd_initialize_handle</text>
</a>
</g>
</g>
<!-- Node15&#45;&gt;Node17 -->
<g id="edge22" class="edge">
<title>Node15&#45;&gt;Node17</title>
<path fill="none" stroke="midnightblue" d="M638,-117.04C616.83,-122.35 592.31,-128.5 572.45,-133.48"/>
<polygon fill="midnightblue" stroke="midnightblue" points="638.92,-120.42 647.77,-114.59 637.22,-113.63 638.92,-120.42"/>
</g>
<!-- Node16&#45;&gt;Node10 -->
<g id="edge21" class="edge">
<title>Node16&#45;&gt;Node10</title>
<path fill="none" stroke="midnightblue" d="M474.1,-67C460.52,-67 446.29,-67 433.43,-67"/>
<polygon fill="midnightblue" stroke="midnightblue" points="474.32,-70.5 484.32,-67 474.32,-63.5 474.32,-70.5"/>
</g>
<!-- Node18 -->
<g id="node18" class="node">
<title>Node18</title>
<g id="a_node18"><a xlink:href="gsd_8h.html#a157d14770365926fde71a7787871bc63" target="_top" xlink:title=" ">
<polygon fill="none" stroke="black" points="332,-133.5 332,-152.5 444,-152.5 444,-133.5 332,-133.5"/>
<text text-anchor="middle" x="388" y="-140.5" font-family="Helvetica,sans-Serif" font-size="10.00">gsd_create_and_open</text>
</a>
</g>
</g>
<!-- Node17&#45;&gt;Node18 -->
<g id="edge23" class="edge">
<title>Node17&#45;&gt;Node18</title>
<path fill="none" stroke="midnightblue" d="M469.6,-143C461.08,-143 452.39,-143 444.02,-143"/>
<polygon fill="midnightblue" stroke="midnightblue" points="469.88,-146.5 479.88,-143 469.88,-139.5 469.88,-146.5"/>
</g>
<!-- Node19 -->
<g id="node19" class="node">
<title>Node19</title>
<g id="a_node19"><a xlink:href="gsd_8h.html#ae0add799755285c1108a7b97b2ed7e00" target="_top" xlink:title=" ">
<polygon fill="none" stroke="black" points="358.5,-171.5 358.5,-190.5 417.5,-190.5 417.5,-171.5 358.5,-171.5"/>
<text text-anchor="middle" x="388" y="-178.5" font-family="Helvetica,sans-Serif" font-size="10.00">gsd_open</text>
</a>
</g>
</g>
<!-- Node17&#45;&gt;Node19 -->
<g id="edge24" class="edge">
<title>Node17&#45;&gt;Node19</title>
<path fill="none" stroke="midnightblue" d="M486.52,-155.18C463.84,-161.18 437.21,-168.23 417.51,-173.45"/>
<polygon fill="midnightblue" stroke="midnightblue" points="487.52,-158.53 496.29,-152.59 485.73,-151.77 487.52,-158.53"/>
</g>
<!-- Node20 -->
<g id="node20" class="node">
<title>Node20</title>
<g id="a_node20"><a xlink:href="gsd_8h.html#a02ac7984034069d508b1c7ccbe702bac" target="_top" xlink:title=" ">
<polygon fill="none" stroke="black" points="351.5,-95.5 351.5,-114.5 424.5,-114.5 424.5,-95.5 351.5,-95.5"/>
<text text-anchor="middle" x="388" y="-102.5" font-family="Helvetica,sans-Serif" font-size="10.00">gsd_truncate</text>
</a>
</g>
</g>
<!-- Node17&#45;&gt;Node20 -->
<g id="edge26" class="edge">
<title>Node17&#45;&gt;Node20</title>
<path fill="none" stroke="midnightblue" d="M486.45,-130.81C466.45,-125.51 443.37,-119.4 424.7,-114.45"/>
<polygon fill="midnightblue" stroke="midnightblue" points="485.73,-134.23 496.29,-133.41 487.52,-127.47 485.73,-134.23"/>
</g>
<!-- Node19&#45;&gt;Node6 -->
<g id="edge25" class="edge">
<title>Node19&#45;&gt;Node6</title>
<path fill="none" stroke="midnightblue" d="M348.36,-176.29C299.52,-171.72 213.44,-168.27 144,-190 112.66,-199.81 81.63,-223.77 65.8,-237.29"/>
<polygon fill="midnightblue" stroke="midnightblue" points="348.19,-179.79 358.49,-177.31 348.89,-172.83 348.19,-179.79"/>
</g>
<!-- Node21 -->
<g id="node21" class="node">
<title>Node21</title>
<g id="a_node21"><a xlink:href="classGSDUtil.html#a78b796cb5093b0aa6f5d2573658fcca1" target="_top" xlink:title="Removes all frames and data from GSD file. This returns GSD to a &quot;new file&quot; state.">
<polygon fill="none" stroke="black" points="162,-114.5 162,-133.5 278,-133.5 278,-114.5 162,-114.5"/>
<text text-anchor="middle" x="220" y="-121.5" font-family="Helvetica,sans-Serif" font-size="10.00">GSDUtil::truncateGSD</text>
</a>
</g>
</g>
<!-- Node20&#45;&gt;Node21 -->
<g id="edge27" class="edge">
<title>Node20&#45;&gt;Node21</title>
<path fill="none" stroke="midnightblue" d="M341.23,-110.24C321.71,-112.47 298.72,-115.1 278.1,-117.46"/>
<polygon fill="midnightblue" stroke="midnightblue" points="341.85,-113.69 351.39,-109.08 341.06,-106.74 341.85,-113.69"/>
</g>
</g>
</svg>
