<?xml version="1.0" encoding="UTF-8" standalone="no"?>
<!DOCTYPE svg PUBLIC "-//W3C//DTD SVG 1.1//EN"
 "http://www.w3.org/Graphics/SVG/1.1/DTD/svg11.dtd">
<!-- Generated by graphviz version 2.49.1 (20210923.0004)
 -->
<!-- Title: gsd_flush_write_buffer Pages: 1 -->
<svg width="564pt" height="132pt"
 viewBox="0.00 0.00 564.00 132.00" xmlns="http://www.w3.org/2000/svg" xmlns:xlink="http://www.w3.org/1999/xlink">
<g id="graph0" class="graph" transform="scale(1 1) rotate(0) translate(4 128)">
<title>gsd_flush_write_buffer</title>
<!-- Node1 -->
<g id="node1" class="node">
<title>Node1</title>
<g id="a_node1"><a xlink:title=" ">
<polygon fill="#bfbfbf" stroke="black" points="439,-76.5 439,-95.5 556,-95.5 556,-76.5 439,-76.5"/>
<text text-anchor="middle" x="497.5" y="-83.5" font-family="Helvetica,sans-Serif" font-size="10.00">gsd_flush_write_buffer</text>
</a>
</g>
</g>
<!-- Node2 -->
<g id="node2" class="node">
<title>Node2</title>
<g id="a_node2"><a xlink:href="gsd_8c.html#aa03810337c5eebcbe716d8633eaefc5e" target="_top" xlink:title=" ">
<polygon fill="none" stroke="black" points="314,-104.5 314,-123.5 400,-123.5 400,-104.5 314,-104.5"/>
<text text-anchor="middle" x="357" y="-111.5" font-family="Helvetica,sans-Serif" font-size="10.00">gsd_end_frame</text>
</a>
</g>
</g>
<!-- Node1&#45;&gt;Node2 -->
<g id="edge1" class="edge">
<title>Node1&#45;&gt;Node2</title>
<path fill="none" stroke="midnightblue" d="M439.4,-97.54C426.36,-100.18 412.72,-102.94 400.42,-105.42"/>
<polygon fill="midnightblue" stroke="midnightblue" points="440.12,-100.97 449.22,-95.56 438.73,-94.11 440.12,-100.97"/>
</g>
<!-- Node4 -->
<g id="node4" class="node">
<title>Node4</title>
<g id="a_node4"><a xlink:href="gsd_8c.html#ae22447904b925f284bf987fae448488a" target="_top" xlink:title=" ">
<polygon fill="none" stroke="black" points="311,-57.5 311,-76.5 403,-76.5 403,-57.5 311,-57.5"/>
<text text-anchor="middle" x="357" y="-64.5" font-family="Helvetica,sans-Serif" font-size="10.00">gsd_write_chunk</text>
</a>
</g>
</g>
<!-- Node1&#45;&gt;Node4 -->
<g id="edge3" class="edge">
<title>Node1&#45;&gt;Node4</title>
<path fill="none" stroke="midnightblue" d="M428.85,-76.72C420.2,-75.53 411.51,-74.34 403.33,-73.22"/>
<polygon fill="midnightblue" stroke="midnightblue" points="428.58,-80.22 438.97,-78.11 429.54,-73.28 428.58,-80.22"/>
</g>
<!-- Node3 -->
<g id="node3" class="node">
<title>Node3</title>
<g id="a_node3"><a xlink:href="classGSDUtil.html#ae76e4a23f0fe0bca3cd44137b56b816b" target="_top" xlink:title=" ">
<polygon fill="none" stroke="black" points="0,-57.5 0,-76.5 108,-76.5 108,-57.5 0,-57.5"/>
<text text-anchor="middle" x="54" y="-64.5" font-family="Helvetica,sans-Serif" font-size="10.00">GSDUtil::writeFrame</text>
</a>
</g>
</g>
<!-- Node2&#45;&gt;Node3 -->
<g id="edge2" class="edge">
<title>Node2&#45;&gt;Node3</title>
<path fill="none" stroke="midnightblue" d="M303.95,-116.96C260.61,-118.2 197.55,-117.14 144,-105 117.78,-99.06 89.57,-85.7 72.1,-76.52"/>
<polygon fill="midnightblue" stroke="midnightblue" points="304.1,-120.45 313.98,-116.62 303.87,-113.46 304.1,-120.45"/>
</g>
<!-- Node5 -->
<g id="node5" class="node">
<title>Node5</title>
<g id="a_node5"><a xlink:href="classGSDUtil.html#a77b5ebe2817ac868ad1b171f3d7b0cae" target="_top" xlink:title=" ">
<polygon fill="none" stroke="black" points="153.5,-76.5 153.5,-95.5 265.5,-95.5 265.5,-76.5 153.5,-76.5"/>
<text text-anchor="middle" x="209.5" y="-83.5" font-family="Helvetica,sans-Serif" font-size="10.00">GSDUtil::writeHeader</text>
</a>
</g>
</g>
<!-- Node4&#45;&gt;Node5 -->
<g id="edge4" class="edge">
<title>Node4&#45;&gt;Node5</title>
<path fill="none" stroke="midnightblue" d="M300.84,-74.2C289.34,-75.71 277.2,-77.29 265.7,-78.79"/>
<polygon fill="midnightblue" stroke="midnightblue" points="301.3,-77.67 310.76,-72.91 300.39,-70.73 301.3,-77.67"/>
</g>
<!-- Node6 -->
<g id="node6" class="node">
<title>Node6</title>
<g id="a_node6"><a xlink:href="classGSDUtil.html#aa0dc50cd5e5534260375ad4962511cf0" target="_top" xlink:title=" ">
<polygon fill="none" stroke="black" points="144,-38.5 144,-57.5 275,-57.5 275,-38.5 144,-38.5"/>
<text text-anchor="middle" x="209.5" y="-45.5" font-family="Helvetica,sans-Serif" font-size="10.00">GSDUtil::writeParameters</text>
</a>
</g>
</g>
<!-- Node4&#45;&gt;Node6 -->
<g id="edge6" class="edge">
<title>Node4&#45;&gt;Node6</title>
<path fill="none" stroke="midnightblue" d="M300.77,-59.79C292.42,-58.7 283.74,-57.56 275.21,-56.45"/>
<polygon fill="midnightblue" stroke="midnightblue" points="300.39,-63.27 310.76,-61.09 301.3,-56.33 300.39,-63.27"/>
</g>
<!-- Node7 -->
<g id="node7" class="node">
<title>Node7</title>
<g id="a_node7"><a xlink:href="classGSDUtil.html#a9464315a26a5d5e2c51bb2b4df5ee373" target="_top" xlink:title=" ">
<polygon fill="none" stroke="black" points="150.5,-0.5 150.5,-19.5 268.5,-19.5 268.5,-0.5 150.5,-0.5"/>
<text text-anchor="middle" x="209.5" y="-7.5" font-family="Helvetica,sans-Serif" font-size="10.00">GSDUtil::writeParticles</text>
</a>
</g>
</g>
<!-- Node4&#45;&gt;Node7 -->
<g id="edge8" class="edge">
<title>Node4&#45;&gt;Node7</title>
<path fill="none" stroke="midnightblue" d="M328.66,-52.9C313.17,-45.24 293.28,-35.93 275,-29 265.94,-25.56 255.98,-22.36 246.64,-19.6"/>
<polygon fill="midnightblue" stroke="midnightblue" points="327.18,-56.07 337.69,-57.43 330.32,-49.82 327.18,-56.07"/>
</g>
<!-- Node5&#45;&gt;Node3 -->
<g id="edge5" class="edge">
<title>Node5&#45;&gt;Node3</title>
<path fill="none" stroke="midnightblue" d="M142.96,-77.89C131.3,-76.44 119.28,-74.96 108.03,-73.56"/>
<polygon fill="midnightblue" stroke="midnightblue" points="142.73,-81.39 153.08,-79.14 143.59,-74.44 142.73,-81.39"/>
</g>
<!-- Node6&#45;&gt;Node3 -->
<g id="edge7" class="edge">
<title>Node6&#45;&gt;Node3</title>
<path fill="none" stroke="midnightblue" d="M133.82,-57.24C125.25,-58.3 116.64,-59.37 108.43,-60.39"/>
<polygon fill="midnightblue" stroke="midnightblue" points="134.35,-60.7 143.85,-56 133.49,-53.76 134.35,-60.7"/>
</g>
<!-- Node7&#45;&gt;Node3 -->
<g id="edge9" class="edge">
<title>Node7&#45;&gt;Node3</title>
<path fill="none" stroke="midnightblue" d="M163.79,-22.43C157.12,-24.5 150.35,-26.72 144,-29 120.13,-37.58 93.45,-49.26 75.59,-57.4"/>
<polygon fill="midnightblue" stroke="midnightblue" points="164.88,-25.76 173.45,-19.52 162.86,-19.06 164.88,-25.76"/>
</g>
</g>
</svg>
