<?xml version="1.0" encoding="UTF-8" standalone="no"?>
<!DOCTYPE svg PUBLIC "-//W3C//DTD SVG 1.1//EN"
 "http://www.w3.org/Graphics/SVG/1.1/DTD/svg11.dtd">
<!-- Generated by graphviz version 2.43.0 (0)
 -->
<!-- Title: gsd_index_buffer_add Pages: 1 -->
<svg width="706pt" height="132pt"
 viewBox="0.00 0.00 706.00 132.00" xmlns="http://www.w3.org/2000/svg" xmlns:xlink="http://www.w3.org/1999/xlink">
<g id="graph0" class="graph" transform="scale(1 1) rotate(0) translate(4 128)">
<title>gsd_index_buffer_add</title>
<!-- Node1 -->
<g id="node1" class="node">
<title>Node1</title>
<g id="a_node1"><a xlink:title=" ">
<polygon fill="#bfbfbf" stroke="black" points="587,-66.5 587,-85.5 698,-85.5 698,-66.5 587,-66.5"/>
<text text-anchor="middle" x="642.5" y="-73.5" font-family="Helvetica,sans-Serif" font-size="10.00">gsd_index_buffer_add</text>
</a>
</g>
</g>
<!-- Node2 -->
<g id="node2" class="node">
<title>Node2</title>
<g id="a_node2"><a xlink:href="gsd_8c.html#a61daeaa70162e9bac3d241832b460278" target="_top" xlink:title=" ">
<polygon fill="none" stroke="black" points="437,-85.5 437,-104.5 551,-104.5 551,-85.5 437,-85.5"/>
<text text-anchor="middle" x="494" y="-92.5" font-family="Helvetica,sans-Serif" font-size="10.00">gsd_flush_write_buffer</text>
</a>
</g>
</g>
<!-- Node1&#45;&gt;Node2 -->
<g id="edge1" class="edge">
<title>Node1&#45;&gt;Node2</title>
<path fill="none" stroke="midnightblue" d="M576.93,-84.37C568.31,-85.49 559.53,-86.63 551.06,-87.73"/>
<polygon fill="midnightblue" stroke="midnightblue" points="577.48,-87.83 586.95,-83.07 576.58,-80.89 577.48,-87.83"/>
</g>
<!-- Node5 -->
<g id="node5" class="node">
<title>Node5</title>
<g id="a_node5"><a xlink:href="gsd_8h.html#ae22447904b925f284bf987fae448488a" target="_top" xlink:title=" ">
<polygon fill="none" stroke="black" points="311,-47.5 311,-66.5 401,-66.5 401,-47.5 311,-47.5"/>
<text text-anchor="middle" x="356" y="-54.5" font-family="Helvetica,sans-Serif" font-size="10.00">gsd_write_chunk</text>
</a>
</g>
</g>
<!-- Node1&#45;&gt;Node5 -->
<g id="edge11" class="edge">
<title>Node1&#45;&gt;Node5</title>
<path fill="none" stroke="midnightblue" d="M576.87,-71.68C523.14,-68.1 448.12,-63.09 401.07,-59.94"/>
<polygon fill="midnightblue" stroke="midnightblue" points="576.77,-75.18 586.98,-72.36 577.24,-68.2 576.77,-75.18"/>
</g>
<!-- Node3 -->
<g id="node3" class="node">
<title>Node3</title>
<g id="a_node3"><a xlink:href="gsd_8h.html#aa03810337c5eebcbe716d8633eaefc5e" target="_top" xlink:title=" ">
<polygon fill="none" stroke="black" points="314.5,-104.5 314.5,-123.5 397.5,-123.5 397.5,-104.5 314.5,-104.5"/>
<text text-anchor="middle" x="356" y="-111.5" font-family="Helvetica,sans-Serif" font-size="10.00">gsd_end_frame</text>
</a>
</g>
</g>
<!-- Node2&#45;&gt;Node3 -->
<g id="edge2" class="edge">
<title>Node2&#45;&gt;Node3</title>
<path fill="none" stroke="midnightblue" d="M426.94,-104.23C416.93,-105.63 406.86,-107.03 397.6,-108.33"/>
<polygon fill="midnightblue" stroke="midnightblue" points="427.48,-107.69 436.9,-102.84 426.51,-100.76 427.48,-107.69"/>
</g>
<!-- Node2&#45;&gt;Node5 -->
<g id="edge4" class="edge">
<title>Node2&#45;&gt;Node5</title>
<path fill="none" stroke="midnightblue" d="M448.91,-82.68C430.23,-77.46 408.78,-71.47 391.31,-66.59"/>
<polygon fill="midnightblue" stroke="midnightblue" points="448.11,-86.09 458.68,-85.41 449.99,-79.35 448.11,-86.09"/>
</g>
<!-- Node4 -->
<g id="node4" class="node">
<title>Node4</title>
<g id="a_node4"><a xlink:href="classGSDUtil.html#ae76e4a23f0fe0bca3cd44137b56b816b" target="_top" xlink:title="Appends frame to GSD file using data from systemData class.">
<polygon fill="none" stroke="black" points="0,-57.5 0,-76.5 108,-76.5 108,-57.5 0,-57.5"/>
<text text-anchor="middle" x="54" y="-64.5" font-family="Helvetica,sans-Serif" font-size="10.00">GSDUtil::writeFrame</text>
</a>
</g>
</g>
<!-- Node3&#45;&gt;Node4 -->
<g id="edge3" class="edge">
<title>Node3&#45;&gt;Node4</title>
<path fill="none" stroke="midnightblue" d="M304.12,-116.9C260.96,-118.17 197.68,-117.18 144,-105 117.78,-99.05 89.57,-85.7 72.1,-76.51"/>
<polygon fill="midnightblue" stroke="midnightblue" points="304.5,-120.39 314.37,-116.55 304.26,-113.4 304.5,-120.39"/>
</g>
<!-- Node6 -->
<g id="node6" class="node">
<title>Node6</title>
<g id="a_node6"><a xlink:href="classGSDUtil.html#a77b5ebe2817ac868ad1b171f3d7b0cae" target="_top" xlink:title="Writes header information to GSD.">
<polygon fill="none" stroke="black" points="153.5,-76.5 153.5,-95.5 265.5,-95.5 265.5,-76.5 153.5,-76.5"/>
<text text-anchor="middle" x="209.5" y="-83.5" font-family="Helvetica,sans-Serif" font-size="10.00">GSDUtil::writeHeader</text>
</a>
</g>
</g>
<!-- Node5&#45;&gt;Node6 -->
<g id="edge5" class="edge">
<title>Node5&#45;&gt;Node6</title>
<path fill="none" stroke="midnightblue" d="M300.8,-67.88C286.69,-70.71 271.61,-73.74 257.88,-76.49"/>
<polygon fill="midnightblue" stroke="midnightblue" points="301.74,-71.26 310.86,-65.86 300.37,-64.39 301.74,-71.26"/>
</g>
<!-- Node7 -->
<g id="node7" class="node">
<title>Node7</title>
<g id="a_node7"><a xlink:href="classGSDUtil.html#aa0dc50cd5e5534260375ad4962511cf0" target="_top" xlink:title="Writes parameter information to GSD.">
<polygon fill="none" stroke="black" points="144,-38.5 144,-57.5 275,-57.5 275,-38.5 144,-38.5"/>
<text text-anchor="middle" x="209.5" y="-45.5" font-family="Helvetica,sans-Serif" font-size="10.00">GSDUtil::writeParameters</text>
</a>
</g>
</g>
<!-- Node5&#45;&gt;Node7 -->
<g id="edge7" class="edge">
<title>Node5&#45;&gt;Node7</title>
<path fill="none" stroke="midnightblue" d="M300.83,-53.63C292.44,-53.1 283.71,-52.56 275.12,-52.02"/>
<polygon fill="midnightblue" stroke="midnightblue" points="300.66,-57.12 310.86,-54.25 301.1,-50.14 300.66,-57.12"/>
</g>
<!-- Node8 -->
<g id="node8" class="node">
<title>Node8</title>
<g id="a_node8"><a xlink:href="classGSDUtil.html#a9464315a26a5d5e2c51bb2b4df5ee373" target="_top" xlink:title="Writes particle information to GSD.">
<polygon fill="none" stroke="black" points="150,-0.5 150,-19.5 269,-19.5 269,-0.5 150,-0.5"/>
<text text-anchor="middle" x="209.5" y="-7.5" font-family="Helvetica,sans-Serif" font-size="10.00">GSDUtil::writeParticles</text>
</a>
</g>
</g>
<!-- Node5&#45;&gt;Node8 -->
<g id="edge9" class="edge">
<title>Node5&#45;&gt;Node8</title>
<path fill="none" stroke="midnightblue" d="M319.21,-44.04C305.44,-39.17 289.54,-33.68 275,-29 265,-25.78 254.06,-22.47 244.07,-19.54"/>
<polygon fill="midnightblue" stroke="midnightblue" points="318.21,-47.4 328.81,-47.46 320.56,-40.81 318.21,-47.4"/>
</g>
<!-- Node6&#45;&gt;Node4 -->
<g id="edge6" class="edge">
<title>Node6&#45;&gt;Node4</title>
<path fill="none" stroke="midnightblue" d="M142.96,-77.89C131.3,-76.44 119.28,-74.96 108.03,-73.56"/>
<polygon fill="midnightblue" stroke="midnightblue" points="142.73,-81.39 153.08,-79.14 143.59,-74.44 142.73,-81.39"/>
</g>
<!-- Node7&#45;&gt;Node4 -->
<g id="edge8" class="edge">
<title>Node7&#45;&gt;Node4</title>
<path fill="none" stroke="midnightblue" d="M133.82,-57.24C125.25,-58.3 116.64,-59.37 108.43,-60.39"/>
<polygon fill="midnightblue" stroke="midnightblue" points="134.35,-60.7 143.85,-56 133.49,-53.76 134.35,-60.7"/>
</g>
<!-- Node8&#45;&gt;Node4 -->
<g id="edge10" class="edge">
<title>Node8&#45;&gt;Node4</title>
<path fill="none" stroke="midnightblue" d="M163.79,-22.43C157.12,-24.5 150.35,-26.72 144,-29 120.13,-37.58 93.45,-49.26 75.59,-57.4"/>
<polygon fill="midnightblue" stroke="midnightblue" points="164.88,-25.76 173.45,-19.52 162.86,-19.06 164.88,-25.76"/>
</g>
</g>
</svg>
