<?xml version="1.0" encoding="UTF-8" standalone="no"?>
<!DOCTYPE svg PUBLIC "-//W3C//DTD SVG 1.1//EN"
 "http://www.w3.org/Graphics/SVG/1.1/DTD/svg11.dtd">
<!-- Generated by graphviz version 2.43.0 (0)
 -->
<!-- Title: gsd_name_id_map_allocate Pages: 1 -->
<svg width="588pt" height="104pt"
 viewBox="0.00 0.00 588.00 104.00" xmlns="http://www.w3.org/2000/svg" xmlns:xlink="http://www.w3.org/1999/xlink">
<g id="graph0" class="graph" transform="scale(1 1) rotate(0) translate(4 100)">
<title>gsd_name_id_map_allocate</title>
<!-- Node1 -->
<g id="node1" class="node">
<title>Node1</title>
<g id="a_node1"><a xlink:title=" ">
<polygon fill="#bfbfbf" stroke="black" points="443,-38.5 443,-57.5 580,-57.5 580,-38.5 443,-38.5"/>
<text text-anchor="middle" x="511.5" y="-45.5" font-family="Helvetica,sans-Serif" font-size="10.00">gsd_name_id_map_allocate</text>
</a>
</g>
</g>
<!-- Node2 -->
<g id="node2" class="node">
<title>Node2</title>
<g id="a_node2"><a xlink:href="gsd_8c.html#ac159dfbfd790607f85073ad2d8464a8b" target="_top" xlink:title=" ">
<polygon fill="none" stroke="black" points="300,-38.5 300,-57.5 407,-57.5 407,-38.5 300,-38.5"/>
<text text-anchor="middle" x="353.5" y="-45.5" font-family="Helvetica,sans-Serif" font-size="10.00">gsd_initialize_handle</text>
</a>
</g>
</g>
<!-- Node1&#45;&gt;Node2 -->
<g id="edge1" class="edge">
<title>Node1&#45;&gt;Node2</title>
<path fill="none" stroke="midnightblue" d="M432.79,-48C424.07,-48 415.36,-48 407.07,-48"/>
<polygon fill="midnightblue" stroke="midnightblue" points="432.98,-51.5 442.98,-48 432.98,-44.5 432.98,-51.5"/>
</g>
<!-- Node3 -->
<g id="node3" class="node">
<title>Node3</title>
<g id="a_node3"><a xlink:href="gsd_8h.html#a157d14770365926fde71a7787871bc63" target="_top" xlink:title=" ">
<polygon fill="none" stroke="black" points="152,-76.5 152,-95.5 264,-95.5 264,-76.5 152,-76.5"/>
<text text-anchor="middle" x="208" y="-83.5" font-family="Helvetica,sans-Serif" font-size="10.00">gsd_create_and_open</text>
</a>
</g>
</g>
<!-- Node2&#45;&gt;Node3 -->
<g id="edge2" class="edge">
<title>Node2&#45;&gt;Node3</title>
<path fill="none" stroke="midnightblue" d="M306.53,-60.17C286.68,-65.43 263.81,-71.49 245.2,-76.41"/>
<polygon fill="midnightblue" stroke="midnightblue" points="307.52,-63.53 316.29,-57.59 305.73,-56.77 307.52,-63.53"/>
</g>
<!-- Node4 -->
<g id="node4" class="node">
<title>Node4</title>
<g id="a_node4"><a xlink:href="gsd_8h.html#ae0add799755285c1108a7b97b2ed7e00" target="_top" xlink:title=" ">
<polygon fill="none" stroke="black" points="178.5,-38.5 178.5,-57.5 237.5,-57.5 237.5,-38.5 178.5,-38.5"/>
<text text-anchor="middle" x="208" y="-45.5" font-family="Helvetica,sans-Serif" font-size="10.00">gsd_open</text>
</a>
</g>
</g>
<!-- Node2&#45;&gt;Node4 -->
<g id="edge3" class="edge">
<title>Node2&#45;&gt;Node4</title>
<path fill="none" stroke="midnightblue" d="M289.66,-48C271.6,-48 252.77,-48 237.85,-48"/>
<polygon fill="midnightblue" stroke="midnightblue" points="289.88,-51.5 299.88,-48 289.88,-44.5 289.88,-51.5"/>
</g>
<!-- Node6 -->
<g id="node6" class="node">
<title>Node6</title>
<g id="a_node6"><a xlink:href="gsd_8h.html#a02ac7984034069d508b1c7ccbe702bac" target="_top" xlink:title=" ">
<polygon fill="none" stroke="black" points="171.5,-0.5 171.5,-19.5 244.5,-19.5 244.5,-0.5 171.5,-0.5"/>
<text text-anchor="middle" x="208" y="-7.5" font-family="Helvetica,sans-Serif" font-size="10.00">gsd_truncate</text>
</a>
</g>
</g>
<!-- Node2&#45;&gt;Node6 -->
<g id="edge5" class="edge">
<title>Node2&#45;&gt;Node6</title>
<path fill="none" stroke="midnightblue" d="M306.45,-35.81C286.45,-30.51 263.37,-24.4 244.7,-19.45"/>
<polygon fill="midnightblue" stroke="midnightblue" points="305.73,-39.23 316.29,-38.41 307.52,-32.47 305.73,-39.23"/>
</g>
<!-- Node5 -->
<g id="node5" class="node">
<title>Node5</title>
<g id="a_node5"><a xlink:href="classGSDUtil.html#a2567bdb7f5952a76984552e0591fa330" target="_top" xlink:title="Construct a new GSDUtil object.">
<polygon fill="none" stroke="black" points="10,-38.5 10,-57.5 106,-57.5 106,-38.5 10,-38.5"/>
<text text-anchor="middle" x="58" y="-45.5" font-family="Helvetica,sans-Serif" font-size="10.00">GSDUtil::GSDUtil</text>
</a>
</g>
</g>
<!-- Node4&#45;&gt;Node5 -->
<g id="edge4" class="edge">
<title>Node4&#45;&gt;Node5</title>
<path fill="none" stroke="midnightblue" d="M168.35,-48C149.29,-48 126.16,-48 106.08,-48"/>
<polygon fill="midnightblue" stroke="midnightblue" points="168.46,-51.5 178.46,-48 168.46,-44.5 168.46,-51.5"/>
</g>
<!-- Node7 -->
<g id="node7" class="node">
<title>Node7</title>
<g id="a_node7"><a xlink:href="classGSDUtil.html#a78b796cb5093b0aa6f5d2573658fcca1" target="_top" xlink:title="Removes all frames and data from GSD file. This returns GSD to a &quot;new file&quot; state.">
<polygon fill="none" stroke="black" points="0,-0.5 0,-19.5 116,-19.5 116,-0.5 0,-0.5"/>
<text text-anchor="middle" x="58" y="-7.5" font-family="Helvetica,sans-Serif" font-size="10.00">GSDUtil::truncateGSD</text>
</a>
</g>
</g>
<!-- Node6&#45;&gt;Node7 -->
<g id="edge6" class="edge">
<title>Node6&#45;&gt;Node7</title>
<path fill="none" stroke="midnightblue" d="M161.14,-10C146.91,-10 131.04,-10 116.14,-10"/>
<polygon fill="midnightblue" stroke="midnightblue" points="161.17,-13.5 171.17,-10 161.17,-6.5 161.17,-13.5"/>
</g>
</g>
</svg>
