<?xml version="1.0" encoding="UTF-8" standalone="no"?>
<!DOCTYPE svg PUBLIC "-//W3C//DTD SVG 1.1//EN"
 "http://www.w3.org/Graphics/SVG/1.1/DTD/svg11.dtd">
<!-- Generated by graphviz version 2.49.1 (20210923.0004)
 -->
<!-- Title: gsd_initialize_handle Pages: 1 -->
<svg width="589pt" height="256pt"
 viewBox="0.00 0.00 589.00 256.00" xmlns="http://www.w3.org/2000/svg" xmlns:xlink="http://www.w3.org/1999/xlink">
<g id="graph0" class="graph" transform="scale(1 1) rotate(0) translate(4 252)">
<title>gsd_initialize_handle</title>
<!-- Node1 -->
<g id="node1" class="node">
<title>Node1</title>
<g id="a_node1"><a xlink:title=" ">
<polygon fill="#bfbfbf" stroke="black" points="0,-114.5 0,-133.5 109,-133.5 109,-114.5 0,-114.5"/>
<text text-anchor="middle" x="54.5" y="-121.5" font-family="Helvetica,sans-Serif" font-size="10.00">gsd_initialize_handle</text>
</a>
</g>
</g>
<!-- Node2 -->
<g id="node2" class="node">
<title>Node2</title>
<g id="a_node2"><a xlink:href="gsd_8c.html#aeaf487909ab334303fa478cf4a126d6f" target="_top" xlink:title=" ">
<polygon fill="none" stroke="black" points="152,-228.5 152,-247.5 280,-247.5 280,-228.5 152,-228.5"/>
<text text-anchor="middle" x="216" y="-235.5" font-family="Helvetica,sans-Serif" font-size="10.00">gsd_byte_buffer_allocate</text>
</a>
</g>
</g>
<!-- Node1&#45;&gt;Node2 -->
<g id="edge1" class="edge">
<title>Node1&#45;&gt;Node2</title>
<path fill="none" stroke="midnightblue" d="M62.54,-133.57C76.39,-151.74 108.95,-191.44 145,-214 151.89,-218.31 159.65,-221.96 167.43,-225.01"/>
<polygon fill="midnightblue" stroke="midnightblue" points="166.28,-228.31 176.87,-228.43 168.66,-221.73 166.28,-228.31"/>
</g>
<!-- Node3 -->
<g id="node3" class="node">
<title>Node3</title>
<g id="a_node3"><a xlink:href="gsd_8c.html#ae1948c93f77d642c4e3797fe7e5f2095" target="_top" xlink:title=" ">
<polygon fill="none" stroke="black" points="323,-190.5 323,-209.5 456,-209.5 456,-190.5 323,-190.5"/>
<text text-anchor="middle" x="389.5" y="-197.5" font-family="Helvetica,sans-Serif" font-size="10.00">gsd_index_buffer_allocate</text>
</a>
</g>
</g>
<!-- Node1&#45;&gt;Node3 -->
<g id="edge2" class="edge">
<title>Node1&#45;&gt;Node3</title>
<path fill="none" stroke="midnightblue" d="M66.43,-133.53C82.43,-146.85 113.72,-170.55 145,-181 199.16,-199.1 263.72,-203.41 312.76,-203.44"/>
<polygon fill="midnightblue" stroke="midnightblue" points="312.99,-206.94 322.97,-203.38 312.95,-199.94 312.99,-206.94"/>
</g>
<!-- Node4 -->
<g id="node4" class="node">
<title>Node4</title>
<g id="a_node4"><a xlink:href="gsd_8c.html#a6fe75caf6c4df550af2455a0c40bfbdf" target="_top" xlink:title=" ">
<polygon fill="none" stroke="black" points="157,-152.5 157,-171.5 275,-171.5 275,-152.5 157,-152.5"/>
<text text-anchor="middle" x="216" y="-159.5" font-family="Helvetica,sans-Serif" font-size="10.00">gsd_index_buffer_map</text>
</a>
</g>
</g>
<!-- Node1&#45;&gt;Node4 -->
<g id="edge3" class="edge">
<title>Node1&#45;&gt;Node4</title>
<path fill="none" stroke="midnightblue" d="M95.75,-133.59C116.8,-138.6 142.76,-144.79 165.07,-150.11"/>
<polygon fill="midnightblue" stroke="midnightblue" points="164.5,-153.57 175.04,-152.48 166.12,-146.76 164.5,-153.57"/>
</g>
<!-- Node5 -->
<g id="node5" class="node">
<title>Node5</title>
<g id="a_node5"><a xlink:href="gsd_8c.html#ac1f41abbefbfe35337e7053d766c089b" target="_top" xlink:title=" ">
<polygon fill="none" stroke="black" points="338,-114.5 338,-133.5 441,-133.5 441,-114.5 338,-114.5"/>
<text text-anchor="middle" x="389.5" y="-121.5" font-family="Helvetica,sans-Serif" font-size="10.00">gsd_io_pread_retry</text>
</a>
</g>
</g>
<!-- Node1&#45;&gt;Node5 -->
<g id="edge8" class="edge">
<title>Node1&#45;&gt;Node5</title>
<path fill="none" stroke="midnightblue" d="M109,-124C168.74,-124 265.21,-124 327.74,-124"/>
<polygon fill="midnightblue" stroke="midnightblue" points="327.86,-127.5 337.86,-124 327.86,-120.5 327.86,-127.5"/>
</g>
<!-- Node8 -->
<g id="node8" class="node">
<title>Node8</title>
<g id="a_node8"><a xlink:href="gsd_8c.html#a493ef951956c9f98adff89a80ddb3fa6" target="_top" xlink:title=" ">
<polygon fill="none" stroke="black" points="166,-76.5 166,-95.5 266,-95.5 266,-76.5 166,-76.5"/>
<text text-anchor="middle" x="216" y="-83.5" font-family="Helvetica,sans-Serif" font-size="10.00">gsd_make_version</text>
</a>
</g>
</g>
<!-- Node1&#45;&gt;Node8 -->
<g id="edge9" class="edge">
<title>Node1&#45;&gt;Node8</title>
<path fill="none" stroke="midnightblue" d="M95.75,-114.41C116.8,-109.4 142.76,-103.21 165.07,-97.89"/>
<polygon fill="midnightblue" stroke="midnightblue" points="166.12,-101.24 175.04,-95.52 164.5,-94.43 166.12,-101.24"/>
</g>
<!-- Node9 -->
<g id="node9" class="node">
<title>Node9</title>
<g id="a_node9"><a xlink:href="gsd_8c.html#aebfeb70fcbc089409a7179af7d814554" target="_top" xlink:title=" ">
<polygon fill="none" stroke="black" points="145,-38.5 145,-57.5 287,-57.5 287,-38.5 145,-38.5"/>
<text text-anchor="middle" x="216" y="-45.5" font-family="Helvetica,sans-Serif" font-size="10.00">gsd_name_id_map_allocate</text>
</a>
</g>
</g>
<!-- Node1&#45;&gt;Node9 -->
<g id="edge10" class="edge">
<title>Node1&#45;&gt;Node9</title>
<path fill="none" stroke="midnightblue" d="M67.85,-114.41C84.52,-101.88 115.51,-80.03 145,-67 150.39,-64.62 156.14,-62.48 161.95,-60.56"/>
<polygon fill="midnightblue" stroke="midnightblue" points="163.19,-63.84 171.72,-57.55 161.13,-57.15 163.19,-63.84"/>
</g>
<!-- Node10 -->
<g id="node10" class="node">
<title>Node10</title>
<g id="a_node10"><a xlink:href="gsd_8c.html#a6c8c2e5a49ac4eb01a95be2e0df06eb9" target="_top" xlink:title=" ">
<polygon fill="none" stroke="black" points="150,-0.5 150,-19.5 282,-19.5 282,-0.5 150,-0.5"/>
<text text-anchor="middle" x="216" y="-7.5" font-family="Helvetica,sans-Serif" font-size="10.00">gsd_name_id_map_insert</text>
</a>
</g>
</g>
<!-- Node1&#45;&gt;Node10 -->
<g id="edge11" class="edge">
<title>Node1&#45;&gt;Node10</title>
<path fill="none" stroke="midnightblue" d="M61.87,-114.26C75.01,-94.95 107.1,-51.72 145,-29 148.64,-26.81 152.55,-24.88 156.57,-23.15"/>
<polygon fill="midnightblue" stroke="midnightblue" points="158.02,-26.35 166.13,-19.53 155.54,-19.8 158.02,-26.35"/>
</g>
<!-- Node4&#45;&gt;Node3 -->
<g id="edge4" class="edge">
<title>Node4&#45;&gt;Node3</title>
<path fill="none" stroke="midnightblue" d="M260.28,-171.59C283.11,-176.65 311.32,-182.9 335.46,-188.25"/>
<polygon fill="midnightblue" stroke="midnightblue" points="335.01,-191.73 345.53,-190.48 336.53,-184.9 335.01,-191.73"/>
</g>
<!-- Node4&#45;&gt;Node5 -->
<g id="edge5" class="edge">
<title>Node4&#45;&gt;Node5</title>
<path fill="none" stroke="midnightblue" d="M260.28,-152.41C283.11,-147.35 311.32,-141.1 335.46,-135.75"/>
<polygon fill="midnightblue" stroke="midnightblue" points="336.53,-139.1 345.53,-133.52 335.01,-132.27 336.53,-139.1"/>
</g>
<!-- Node6 -->
<g id="node6" class="node">
<title>Node6</title>
<g id="a_node6"><a xlink:href="gsd_8c.html#ab5d19295bedec41b7919caec2cb22759" target="_top" xlink:title=" ">
<polygon fill="none" stroke="black" points="340,-152.5 340,-171.5 439,-171.5 439,-152.5 340,-152.5"/>
<text text-anchor="middle" x="389.5" y="-159.5" font-family="Helvetica,sans-Serif" font-size="10.00">gsd_is_entry_valid</text>
</a>
</g>
</g>
<!-- Node4&#45;&gt;Node6 -->
<g id="edge6" class="edge">
<title>Node4&#45;&gt;Node6</title>
<path fill="none" stroke="midnightblue" d="M275.06,-162C292.69,-162 312.07,-162 329.74,-162"/>
<polygon fill="midnightblue" stroke="midnightblue" points="329.92,-165.5 339.92,-162 329.92,-158.5 329.92,-165.5"/>
</g>
<!-- Node7 -->
<g id="node7" class="node">
<title>Node7</title>
<g id="a_node7"><a xlink:href="gsd_8c.html#ab1d1a8a5f73b37df0c706f41df3bdd69" target="_top" xlink:title=" ">
<polygon fill="none" stroke="black" points="492,-152.5 492,-171.5 581,-171.5 581,-152.5 492,-152.5"/>
<text text-anchor="middle" x="536.5" y="-159.5" font-family="Helvetica,sans-Serif" font-size="10.00">gsd_sizeof_type</text>
</a>
</g>
</g>
<!-- Node6&#45;&gt;Node7 -->
<g id="edge7" class="edge">
<title>Node6&#45;&gt;Node7</title>
<path fill="none" stroke="midnightblue" d="M439.19,-162C452.69,-162 467.44,-162 481.24,-162"/>
<polygon fill="midnightblue" stroke="midnightblue" points="481.58,-165.5 491.58,-162 481.58,-158.5 481.58,-165.5"/>
</g>
<!-- Node11 -->
<g id="node11" class="node">
<title>Node11</title>
<g id="a_node11"><a xlink:href="gsd_8c.html#a6d8087323ec29c58d907b9462b4a31da" target="_top" xlink:title=" ">
<polygon fill="none" stroke="black" points="351,-0.5 351,-19.5 428,-19.5 428,-0.5 351,-0.5"/>
<text text-anchor="middle" x="389.5" y="-7.5" font-family="Helvetica,sans-Serif" font-size="10.00">gsd_hash_str</text>
</a>
</g>
</g>
<!-- Node10&#45;&gt;Node11 -->
<g id="edge12" class="edge">
<title>Node10&#45;&gt;Node11</title>
<path fill="none" stroke="midnightblue" d="M282.33,-10C301.63,-10 322.41,-10 340.42,-10"/>
<polygon fill="midnightblue" stroke="midnightblue" points="340.67,-13.5 350.67,-10 340.67,-6.5 340.67,-13.5"/>
</g>
</g>
</svg>
