<?xml version="1.0" encoding="UTF-8" standalone="no"?>
<!DOCTYPE svg PUBLIC "-//W3C//DTD SVG 1.1//EN"
 "http://www.w3.org/Graphics/SVG/1.1/DTD/svg11.dtd">
<!-- Generated by graphviz version 2.43.0 (0)
 -->
<!-- Title: gsd_end_frame Pages: 1 -->
<svg width="715pt" height="408pt"
 viewBox="0.00 0.00 715.00 408.00" xmlns="http://www.w3.org/2000/svg" xmlns:xlink="http://www.w3.org/1999/xlink">
<g id="graph0" class="graph" transform="scale(1 1) rotate(0) translate(4 404)">
<title>gsd_end_frame</title>
<!-- Node1 -->
<g id="node1" class="node">
<title>Node1</title>
<g id="a_node1"><a xlink:title=" ">
<polygon fill="#bfbfbf" stroke="black" points="0,-190.5 0,-209.5 83,-209.5 83,-190.5 0,-190.5"/>
<text text-anchor="middle" x="41.5" y="-197.5" font-family="Helvetica,sans-Serif" font-size="10.00">gsd_end_frame</text>
</a>
</g>
</g>
<!-- Node2 -->
<g id="node2" class="node">
<title>Node2</title>
<g id="a_node2"><a xlink:href="gsd_8c.html#ae6dddb94661e99e54f6c01b1a443e27f" target="_top" xlink:title=" ">
<polygon fill="none" stroke="black" points="119.5,-285.5 119.5,-304.5 235.5,-304.5 235.5,-285.5 119.5,-285.5"/>
<text text-anchor="middle" x="177.5" y="-292.5" font-family="Helvetica,sans-Serif" font-size="10.00">gsd_expand_file_index</text>
</a>
</g>
</g>
<!-- Node1&#45;&gt;Node2 -->
<g id="edge1" class="edge">
<title>Node1&#45;&gt;Node2</title>
<path fill="none" stroke="midnightblue" d="M55.06,-209.7C70.09,-221.23 96.09,-240.92 119,-257 129.91,-264.66 142.21,-272.85 152.62,-279.65"/>
<polygon fill="midnightblue" stroke="midnightblue" points="150.92,-282.72 161.21,-285.23 154.73,-276.85 150.92,-282.72"/>
</g>
<!-- Node10 -->
<g id="node10" class="node">
<title>Node10</title>
<g id="a_node10"><a xlink:href="gsd_8c.html#a3fb7746d93a1c856ca7ef64fa3548cbe" target="_top" xlink:title=" ">
<polygon fill="none" stroke="black" points="282.5,-190.5 282.5,-209.5 383.5,-209.5 383.5,-190.5 282.5,-190.5"/>
<text text-anchor="middle" x="333" y="-197.5" font-family="Helvetica,sans-Serif" font-size="10.00">gsd_io_pwrite_retry</text>
</a>
</g>
</g>
<!-- Node1&#45;&gt;Node10 -->
<g id="edge30" class="edge">
<title>Node1&#45;&gt;Node10</title>
<path fill="none" stroke="midnightblue" d="M83.06,-200C132.21,-200 215.45,-200 272.02,-200"/>
<polygon fill="midnightblue" stroke="midnightblue" points="272.26,-203.5 282.26,-200 272.26,-196.5 272.26,-203.5"/>
</g>
<!-- Node11 -->
<g id="node11" class="node">
<title>Node11</title>
<g id="a_node11"><a xlink:href="gsd_8c.html#ab147cf4d77c10fd8085e5023e9afe55f" target="_top" xlink:title=" ">
<polygon fill="none" stroke="black" points="119,-152.5 119,-171.5 236,-171.5 236,-152.5 119,-152.5"/>
<text text-anchor="middle" x="177.5" y="-159.5" font-family="Helvetica,sans-Serif" font-size="10.00">gsd_flush_name_buffer</text>
</a>
</g>
</g>
<!-- Node1&#45;&gt;Node11 -->
<g id="edge12" class="edge">
<title>Node1&#45;&gt;Node11</title>
<path fill="none" stroke="midnightblue" d="M76.31,-190.41C93.53,-185.53 114.66,-179.54 133.07,-174.32"/>
<polygon fill="midnightblue" stroke="midnightblue" points="134.03,-177.68 142.7,-171.59 132.12,-170.95 134.03,-177.68"/>
</g>
<!-- Node13 -->
<g id="node13" class="node">
<title>Node13</title>
<g id="a_node13"><a xlink:href="gsd_8c.html#a61daeaa70162e9bac3d241832b460278" target="_top" xlink:title=" ">
<polygon fill="none" stroke="black" points="120.5,-228.5 120.5,-247.5 234.5,-247.5 234.5,-228.5 120.5,-228.5"/>
<text text-anchor="middle" x="177.5" y="-235.5" font-family="Helvetica,sans-Serif" font-size="10.00">gsd_flush_write_buffer</text>
</a>
</g>
</g>
<!-- Node1&#45;&gt;Node13 -->
<g id="edge17" class="edge">
<title>Node1&#45;&gt;Node13</title>
<path fill="none" stroke="midnightblue" d="M76.31,-209.59C93.53,-214.47 114.66,-220.46 133.07,-225.68"/>
<polygon fill="midnightblue" stroke="midnightblue" points="132.12,-229.05 142.7,-228.41 134.03,-222.32 132.12,-229.05"/>
</g>
<!-- Node15 -->
<g id="node15" class="node">
<title>Node15</title>
<g id="a_node15"><a xlink:href="gsd_8c.html#a6c20ccb47eed1a3ea9995a47a8eebdbd" target="_top" xlink:title=" ">
<polygon fill="none" stroke="black" points="121.5,-57.5 121.5,-76.5 233.5,-76.5 233.5,-57.5 121.5,-57.5"/>
<text text-anchor="middle" x="177.5" y="-64.5" font-family="Helvetica,sans-Serif" font-size="10.00">gsd_index_buffer_sort</text>
</a>
</g>
</g>
<!-- Node1&#45;&gt;Node15 -->
<g id="edge21" class="edge">
<title>Node1&#45;&gt;Node15</title>
<path fill="none" stroke="midnightblue" d="M52.14,-190.43C74.63,-168.11 130.82,-112.34 159.33,-84.04"/>
<polygon fill="midnightblue" stroke="midnightblue" points="161.96,-86.37 166.59,-76.84 157.03,-81.4 161.96,-86.37"/>
</g>
<!-- Node3 -->
<g id="node3" class="node">
<title>Node3</title>
<g id="a_node3"><a xlink:href="gsd_8c.html#a9e12a38df69cf73fa771b005748cb3e5" target="_top" xlink:title=" ">
<polygon fill="none" stroke="black" points="277,-304.5 277,-323.5 389,-323.5 389,-304.5 277,-304.5"/>
<text text-anchor="middle" x="333" y="-311.5" font-family="Helvetica,sans-Serif" font-size="10.00">gsd_index_buffer_free</text>
</a>
</g>
</g>
<!-- Node2&#45;&gt;Node3 -->
<g id="edge2" class="edge">
<title>Node2&#45;&gt;Node3</title>
<path fill="none" stroke="midnightblue" d="M235.66,-302.07C245.76,-303.33 256.34,-304.64 266.65,-305.91"/>
<polygon fill="midnightblue" stroke="midnightblue" points="266.48,-309.42 276.83,-307.17 267.34,-302.47 266.48,-309.42"/>
</g>
<!-- Node4 -->
<g id="node4" class="node">
<title>Node4</title>
<g id="a_node4"><a xlink:href="gsd_8c.html#a9b05d58560daee2512f03bedf7b2926d" target="_top" xlink:title=" ">
<polygon fill="none" stroke="black" points="437,-228.5 437,-247.5 552,-247.5 552,-228.5 437,-228.5"/>
<text text-anchor="middle" x="494.5" y="-235.5" font-family="Helvetica,sans-Serif" font-size="10.00">gsd_util_zero_memory</text>
</a>
</g>
</g>
<!-- Node2&#45;&gt;Node4 -->
<g id="edge11" class="edge">
<title>Node2&#45;&gt;Node4</title>
<path fill="none" stroke="midnightblue" d="M233.9,-285.45C277.45,-277.89 339.63,-266.98 394,-257 407.09,-254.6 421.15,-251.95 434.44,-249.42"/>
<polygon fill="midnightblue" stroke="midnightblue" points="435.27,-252.83 444.44,-247.51 433.96,-245.95 435.27,-252.83"/>
</g>
<!-- Node5 -->
<g id="node5" class="node">
<title>Node5</title>
<g id="a_node5"><a xlink:href="gsd_8c.html#a6fe75caf6c4df550af2455a0c40bfbdf" target="_top" xlink:title=" ">
<polygon fill="none" stroke="black" points="276,-342.5 276,-361.5 390,-361.5 390,-342.5 276,-342.5"/>
<text text-anchor="middle" x="333" y="-349.5" font-family="Helvetica,sans-Serif" font-size="10.00">gsd_index_buffer_map</text>
</a>
</g>
</g>
<!-- Node2&#45;&gt;Node5 -->
<g id="edge4" class="edge">
<title>Node2&#45;&gt;Node5</title>
<path fill="none" stroke="midnightblue" d="M200.6,-304.56C219.43,-312.56 247.28,-324.08 272,-333 277.94,-335.14 284.25,-337.28 290.46,-339.32"/>
<polygon fill="midnightblue" stroke="midnightblue" points="289.49,-342.68 300.08,-342.41 291.63,-336.02 289.49,-342.68"/>
</g>
<!-- Node7 -->
<g id="node7" class="node">
<title>Node7</title>
<g id="a_node7"><a xlink:href="gsd_8c.html#ac1f41abbefbfe35337e7053d766c089b" target="_top" xlink:title=" ">
<polygon fill="none" stroke="black" points="445,-380.5 445,-399.5 544,-399.5 544,-380.5 445,-380.5"/>
<text text-anchor="middle" x="494.5" y="-387.5" font-family="Helvetica,sans-Serif" font-size="10.00">gsd_io_pread_retry</text>
</a>
</g>
</g>
<!-- Node2&#45;&gt;Node7 -->
<g id="edge9" class="edge">
<title>Node2&#45;&gt;Node7</title>
<path fill="none" stroke="midnightblue" d="M186.59,-304.58C201.5,-321.46 235.15,-356.11 272,-371 324.23,-392.11 388.91,-395.32 434.86,-394.19"/>
<polygon fill="midnightblue" stroke="midnightblue" points="435.07,-397.68 444.95,-393.86 434.84,-390.68 435.07,-397.68"/>
</g>
<!-- Node2&#45;&gt;Node10 -->
<g id="edge10" class="edge">
<title>Node2&#45;&gt;Node10</title>
<path fill="none" stroke="midnightblue" d="M195.06,-285.45C206.95,-278.27 223.08,-267.85 236,-257 253.82,-242.04 252.28,-231.35 272,-219 275.34,-216.91 278.93,-215.03 282.64,-213.34"/>
<polygon fill="midnightblue" stroke="midnightblue" points="284.06,-216.54 292.01,-209.54 281.43,-210.06 284.06,-216.54"/>
</g>
<!-- Node3&#45;&gt;Node4 -->
<g id="edge3" class="edge">
<title>Node3&#45;&gt;Node4</title>
<path fill="none" stroke="midnightblue" d="M359.64,-304.4C370.36,-300.22 382.89,-295.11 394,-290 419.53,-278.26 447.86,-263.25 467.74,-252.38"/>
<polygon fill="midnightblue" stroke="midnightblue" points="469.43,-255.44 476.51,-247.55 466.06,-249.31 469.43,-255.44"/>
</g>
<!-- Node6 -->
<g id="node6" class="node">
<title>Node6</title>
<g id="a_node6"><a xlink:href="gsd_8c.html#ae1948c93f77d642c4e3797fe7e5f2095" target="_top" xlink:title=" ">
<polygon fill="none" stroke="black" points="430,-304.5 430,-323.5 559,-323.5 559,-304.5 430,-304.5"/>
<text text-anchor="middle" x="494.5" y="-311.5" font-family="Helvetica,sans-Serif" font-size="10.00">gsd_index_buffer_allocate</text>
</a>
</g>
</g>
<!-- Node5&#45;&gt;Node6 -->
<g id="edge5" class="edge">
<title>Node5&#45;&gt;Node6</title>
<path fill="none" stroke="midnightblue" d="M374.25,-342.41C395.3,-337.4 421.26,-331.21 443.57,-325.89"/>
<polygon fill="midnightblue" stroke="midnightblue" points="444.62,-329.24 453.54,-323.52 443,-322.43 444.62,-329.24"/>
</g>
<!-- Node5&#45;&gt;Node7 -->
<g id="edge6" class="edge">
<title>Node5&#45;&gt;Node7</title>
<path fill="none" stroke="midnightblue" d="M374.25,-361.59C395.3,-366.6 421.26,-372.79 443.57,-378.11"/>
<polygon fill="midnightblue" stroke="midnightblue" points="443,-381.57 453.54,-380.48 444.62,-374.76 443,-381.57"/>
</g>
<!-- Node8 -->
<g id="node8" class="node">
<title>Node8</title>
<g id="a_node8"><a xlink:href="gsd_8c.html#ab5d19295bedec41b7919caec2cb22759" target="_top" xlink:title=" ">
<polygon fill="none" stroke="black" points="445.5,-342.5 445.5,-361.5 543.5,-361.5 543.5,-342.5 445.5,-342.5"/>
<text text-anchor="middle" x="494.5" y="-349.5" font-family="Helvetica,sans-Serif" font-size="10.00">gsd_is_entry_valid</text>
</a>
</g>
</g>
<!-- Node5&#45;&gt;Node8 -->
<g id="edge7" class="edge">
<title>Node5&#45;&gt;Node8</title>
<path fill="none" stroke="midnightblue" d="M390.23,-352C404.88,-352 420.69,-352 435.43,-352"/>
<polygon fill="midnightblue" stroke="midnightblue" points="435.44,-355.5 445.44,-352 435.44,-348.5 435.44,-355.5"/>
</g>
<!-- Node9 -->
<g id="node9" class="node">
<title>Node9</title>
<g id="a_node9"><a xlink:href="gsd_8c.html#ab1d1a8a5f73b37df0c706f41df3bdd69" target="_top" xlink:title=" ">
<polygon fill="none" stroke="black" points="607,-342.5 607,-361.5 695,-361.5 695,-342.5 607,-342.5"/>
<text text-anchor="middle" x="651" y="-349.5" font-family="Helvetica,sans-Serif" font-size="10.00">gsd_sizeof_type</text>
</a>
</g>
</g>
<!-- Node8&#45;&gt;Node9 -->
<g id="edge8" class="edge">
<title>Node8&#45;&gt;Node9</title>
<path fill="none" stroke="midnightblue" d="M543.54,-352C560.34,-352 579.3,-352 596.51,-352"/>
<polygon fill="midnightblue" stroke="midnightblue" points="596.97,-355.5 606.97,-352 596.97,-348.5 596.97,-355.5"/>
</g>
<!-- Node11&#45;&gt;Node4 -->
<g id="edge16" class="edge">
<title>Node11&#45;&gt;Node4</title>
<path fill="none" stroke="midnightblue" d="M236.06,-160.43C280.23,-160.79 342.22,-164.75 394,-181 423.19,-190.16 453.19,-208.86 472.5,-222.35"/>
<polygon fill="midnightblue" stroke="midnightblue" points="470.66,-225.33 480.83,-228.3 474.74,-219.64 470.66,-225.33"/>
</g>
<!-- Node11&#45;&gt;Node10 -->
<g id="edge15" class="edge">
<title>Node11&#45;&gt;Node10</title>
<path fill="none" stroke="midnightblue" d="M217.23,-171.59C237.4,-176.58 262.25,-182.73 283.66,-188.03"/>
<polygon fill="midnightblue" stroke="midnightblue" points="283,-191.47 293.54,-190.48 284.68,-184.68 283,-191.47"/>
</g>
<!-- Node12 -->
<g id="node12" class="node">
<title>Node12</title>
<g id="a_node12"><a xlink:href="gsd_8c.html#a7a717f9dafe011e68434e181c76253af" target="_top" xlink:title=" ">
<polygon fill="none" stroke="black" points="272,-114.5 272,-133.5 394,-133.5 394,-114.5 272,-114.5"/>
<text text-anchor="middle" x="333" y="-121.5" font-family="Helvetica,sans-Serif" font-size="10.00">gsd_byte_buffer_append</text>
</a>
</g>
</g>
<!-- Node11&#45;&gt;Node12 -->
<g id="edge13" class="edge">
<title>Node11&#45;&gt;Node12</title>
<path fill="none" stroke="midnightblue" d="M217.23,-152.41C237.4,-147.42 262.25,-141.27 283.66,-135.97"/>
<polygon fill="midnightblue" stroke="midnightblue" points="284.68,-139.32 293.54,-133.52 283,-132.53 284.68,-139.32"/>
</g>
<!-- Node12&#45;&gt;Node4 -->
<g id="edge14" class="edge">
<title>Node12&#45;&gt;Node4</title>
<path fill="none" stroke="midnightblue" d="M364,-133.61C373.92,-137.4 384.77,-142.24 394,-148 427.2,-168.72 459.67,-201 478.08,-220.75"/>
<polygon fill="midnightblue" stroke="midnightblue" points="475.73,-223.37 485.07,-228.38 480.89,-218.64 475.73,-223.37"/>
</g>
<!-- Node13&#45;&gt;Node10 -->
<g id="edge20" class="edge">
<title>Node13&#45;&gt;Node10</title>
<path fill="none" stroke="midnightblue" d="M217.23,-228.41C237.4,-223.42 262.25,-217.27 283.66,-211.97"/>
<polygon fill="midnightblue" stroke="midnightblue" points="284.68,-215.32 293.54,-209.52 283,-208.53 284.68,-215.32"/>
</g>
<!-- Node14 -->
<g id="node14" class="node">
<title>Node14</title>
<g id="a_node14"><a xlink:href="gsd_8c.html#a258b64725f90f60d969752d65fba9850" target="_top" xlink:title=" ">
<polygon fill="none" stroke="black" points="277.5,-228.5 277.5,-247.5 388.5,-247.5 388.5,-228.5 277.5,-228.5"/>
<text text-anchor="middle" x="333" y="-235.5" font-family="Helvetica,sans-Serif" font-size="10.00">gsd_index_buffer_add</text>
</a>
</g>
</g>
<!-- Node13&#45;&gt;Node14 -->
<g id="edge18" class="edge">
<title>Node13&#45;&gt;Node14</title>
<path fill="none" stroke="midnightblue" d="M234.79,-238C245.29,-238 256.35,-238 267.09,-238"/>
<polygon fill="midnightblue" stroke="midnightblue" points="267.26,-241.5 277.26,-238 267.26,-234.5 267.26,-241.5"/>
</g>
<!-- Node14&#45;&gt;Node4 -->
<g id="edge19" class="edge">
<title>Node14&#45;&gt;Node4</title>
<path fill="none" stroke="midnightblue" d="M388.89,-238C401.12,-238 414.22,-238 426.86,-238"/>
<polygon fill="midnightblue" stroke="midnightblue" points="426.88,-241.5 436.88,-238 426.88,-234.5 426.88,-241.5"/>
</g>
<!-- Node16 -->
<g id="node16" class="node">
<title>Node16</title>
<g id="a_node16"><a xlink:href="gsd_8c.html#accc971ec12e75a165ffef6e1ee854681" target="_top" xlink:title=" ">
<polygon fill="none" stroke="black" points="439,-38.5 439,-57.5 550,-57.5 550,-38.5 439,-38.5"/>
<text text-anchor="middle" x="494.5" y="-45.5" font-family="Helvetica,sans-Serif" font-size="10.00">gsd_heap_shift_down</text>
</a>
</g>
</g>
<!-- Node15&#45;&gt;Node16 -->
<g id="edge22" class="edge">
<title>Node15&#45;&gt;Node16</title>
<path fill="none" stroke="midnightblue" d="M233.73,-63.67C288.16,-60.39 371.3,-55.37 428.8,-51.9"/>
<polygon fill="midnightblue" stroke="midnightblue" points="429.09,-55.39 438.86,-51.3 428.67,-48.4 429.09,-55.39"/>
</g>
<!-- Node19 -->
<g id="node19" class="node">
<title>Node19</title>
<g id="a_node19"><a xlink:href="gsd_8c.html#a987a1d460f7ca33476fc57bcc1ff8439" target="_top" xlink:title=" ">
<polygon fill="none" stroke="black" points="607.5,-76.5 607.5,-95.5 694.5,-95.5 694.5,-76.5 607.5,-76.5"/>
<text text-anchor="middle" x="651" y="-83.5" font-family="Helvetica,sans-Serif" font-size="10.00">gsd_heap_swap</text>
</a>
</g>
</g>
<!-- Node15&#45;&gt;Node19 -->
<g id="edge26" class="edge">
<title>Node15&#45;&gt;Node19</title>
<path fill="none" stroke="midnightblue" d="M233.87,-69.4C246.41,-69.93 259.66,-70.49 272,-71 388.02,-75.78 524.09,-81.11 597.17,-83.96"/>
<polygon fill="midnightblue" stroke="midnightblue" points="597.35,-87.46 607.48,-84.36 597.63,-80.47 597.35,-87.46"/>
</g>
<!-- Node20 -->
<g id="node20" class="node">
<title>Node20</title>
<g id="a_node20"><a xlink:href="gsd_8c.html#a0de3f89cdd57571b57401c91feef2f66" target="_top" xlink:title=" ">
<polygon fill="none" stroke="black" points="298.5,-0.5 298.5,-19.5 367.5,-19.5 367.5,-0.5 298.5,-0.5"/>
<text text-anchor="middle" x="333" y="-7.5" font-family="Helvetica,sans-Serif" font-size="10.00">gsd_heapify</text>
</a>
</g>
</g>
<!-- Node15&#45;&gt;Node20 -->
<g id="edge27" class="edge">
<title>Node15&#45;&gt;Node20</title>
<path fill="none" stroke="midnightblue" d="M204.19,-57.46C229.54,-48.05 268.48,-33.59 296.72,-23.1"/>
<polygon fill="midnightblue" stroke="midnightblue" points="298.07,-26.33 306.22,-19.57 295.63,-19.77 298.07,-26.33"/>
</g>
<!-- Node17 -->
<g id="node17" class="node">
<title>Node17</title>
<g id="a_node17"><a xlink:href="gsd_8c.html#a3ffe758eed9a5bae487f514a0a45e97d" target="_top" xlink:title=" ">
<polygon fill="none" stroke="black" points="595,-38.5 595,-57.5 707,-57.5 707,-38.5 595,-38.5"/>
<text text-anchor="middle" x="651" y="-45.5" font-family="Helvetica,sans-Serif" font-size="10.00">gsd_cmp_index_entry</text>
</a>
</g>
</g>
<!-- Node16&#45;&gt;Node17 -->
<g id="edge23" class="edge">
<title>Node16&#45;&gt;Node17</title>
<path fill="none" stroke="midnightblue" d="M550.41,-48C561.43,-48 573.12,-48 584.46,-48"/>
<polygon fill="midnightblue" stroke="midnightblue" points="584.75,-51.5 594.75,-48 584.75,-44.5 584.75,-51.5"/>
</g>
<!-- Node18 -->
<g id="node18" class="node">
<title>Node18</title>
<g id="a_node18"><a xlink:href="gsd_8c.html#aaec0ae1e441692725a568aee8c8ef627" target="_top" xlink:title=" ">
<polygon fill="none" stroke="black" points="599.5,-0.5 599.5,-19.5 702.5,-19.5 702.5,-0.5 599.5,-0.5"/>
<text text-anchor="middle" x="651" y="-7.5" font-family="Helvetica,sans-Serif" font-size="10.00">gsd_heap_left_child</text>
</a>
</g>
</g>
<!-- Node16&#45;&gt;Node18 -->
<g id="edge24" class="edge">
<title>Node16&#45;&gt;Node18</title>
<path fill="none" stroke="midnightblue" d="M534.49,-38.41C554.78,-33.42 579.79,-27.27 601.35,-21.97"/>
<polygon fill="midnightblue" stroke="midnightblue" points="602.42,-25.31 611.29,-19.52 600.75,-18.51 602.42,-25.31"/>
</g>
<!-- Node16&#45;&gt;Node19 -->
<g id="edge25" class="edge">
<title>Node16&#45;&gt;Node19</title>
<path fill="none" stroke="midnightblue" d="M534.49,-57.59C554.78,-62.58 579.79,-68.73 601.35,-74.03"/>
<polygon fill="midnightblue" stroke="midnightblue" points="600.75,-77.49 611.29,-76.48 602.42,-70.69 600.75,-77.49"/>
</g>
<!-- Node20&#45;&gt;Node16 -->
<g id="edge29" class="edge">
<title>Node20&#45;&gt;Node16</title>
<path fill="none" stroke="midnightblue" d="M367.83,-18.06C389.85,-23.31 418.96,-30.24 443.61,-36.11"/>
<polygon fill="midnightblue" stroke="midnightblue" points="442.98,-39.56 453.52,-38.48 444.61,-32.75 442.98,-39.56"/>
</g>
<!-- Node21 -->
<g id="node21" class="node">
<title>Node21</title>
<g id="a_node21"><a xlink:href="gsd_8c.html#ab7b8e133941184a32c2d90414dfba6a5" target="_top" xlink:title=" ">
<polygon fill="none" stroke="black" points="449,-0.5 449,-19.5 540,-19.5 540,-0.5 449,-0.5"/>
<text text-anchor="middle" x="494.5" y="-7.5" font-family="Helvetica,sans-Serif" font-size="10.00">gsd_heap_parent</text>
</a>
</g>
</g>
<!-- Node20&#45;&gt;Node21 -->
<g id="edge28" class="edge">
<title>Node20&#45;&gt;Node21</title>
<path fill="none" stroke="midnightblue" d="M367.83,-10C388.38,-10 415.1,-10 438.62,-10"/>
<polygon fill="midnightblue" stroke="midnightblue" points="438.82,-13.5 448.82,-10 438.82,-6.5 438.82,-13.5"/>
</g>
</g>
</svg>
