<?xml version="1.0" encoding="UTF-8" standalone="no"?>
<!DOCTYPE svg PUBLIC "-//W3C//DTD SVG 1.1//EN"
 "http://www.w3.org/Graphics/SVG/1.1/DTD/svg11.dtd">
<!-- Generated by graphviz version 2.43.0 (0)
 -->
<!-- Title: src/data_io/GSDUtil.cpp Pages: 1 -->
<svg width="917pt" height="263pt"
 viewBox="0.00 0.00 916.50 263.00" xmlns="http://www.w3.org/2000/svg" xmlns:xlink="http://www.w3.org/1999/xlink">
<g id="graph0" class="graph" transform="scale(1 1) rotate(0) translate(4 259)">
<title>src/data_io/GSDUtil.cpp</title>
<!-- Node1 -->
<g id="node1" class="node">
<title>Node1</title>
<g id="a_node1"><a xlink:title=" ">
<polygon fill="#bfbfbf" stroke="black" points="461.5,-235.5 461.5,-254.5 584.5,-254.5 584.5,-235.5 461.5,-235.5"/>
<text text-anchor="middle" x="523" y="-242.5" font-family="Helvetica,sans-Serif" font-size="10.00">src/data_io/GSDUtil.cpp</text>
</a>
</g>
</g>
<!-- Node2 -->
<g id="node2" class="node">
<title>Node2</title>
<g id="a_node2"><a xlink:href="GSDUtil_8hpp.html" target="_top" xlink:title=" ">
<polygon fill="none" stroke="black" points="487,-179.5 487,-198.5 559,-198.5 559,-179.5 487,-179.5"/>
<text text-anchor="middle" x="523" y="-186.5" font-family="Helvetica,sans-Serif" font-size="10.00">GSDUtil.hpp</text>
</a>
</g>
</g>
<!-- Node1&#45;&gt;Node2 -->
<g id="edge1" class="edge">
<title>Node1&#45;&gt;Node2</title>
<path fill="none" stroke="midnightblue" d="M523,-235.08C523,-228.01 523,-217.86 523,-208.99"/>
<polygon fill="midnightblue" stroke="midnightblue" points="526.5,-208.75 523,-198.75 519.5,-208.75 526.5,-208.75"/>
</g>
<!-- Node3 -->
<g id="node3" class="node">
<title>Node3</title>
<g id="a_node3"><a xlink:href="gsd_8h.html" target="_top" xlink:title="Declare GSD data types and C API.">
<polygon fill="none" stroke="black" points="78.5,-62 78.5,-81 119.5,-81 119.5,-62 78.5,-62"/>
<text text-anchor="middle" x="99" y="-69" font-family="Helvetica,sans-Serif" font-size="10.00">gsd.h</text>
</a>
</g>
</g>
<!-- Node2&#45;&gt;Node3 -->
<g id="edge2" class="edge">
<title>Node2&#45;&gt;Node3</title>
<path fill="none" stroke="midnightblue" d="M486.88,-181.49C416.54,-168.23 256.86,-135.18 129,-87 127.58,-86.46 126.13,-85.89 124.68,-85.28"/>
<polygon fill="midnightblue" stroke="midnightblue" points="125.83,-81.95 115.27,-81.02 122.94,-88.33 125.83,-81.95"/>
</g>
<!-- Node7 -->
<g id="node7" class="node">
<title>Node7</title>
<g id="a_node7"><a xlink:href="systemData_8hpp.html" target="_top" xlink:title=" ">
<polygon fill="none" stroke="black" points="478.5,-123.5 478.5,-142.5 567.5,-142.5 567.5,-123.5 478.5,-123.5"/>
<text text-anchor="middle" x="523" y="-130.5" font-family="Helvetica,sans-Serif" font-size="10.00">systemData.hpp</text>
</a>
</g>
</g>
<!-- Node2&#45;&gt;Node7 -->
<g id="edge6" class="edge">
<title>Node2&#45;&gt;Node7</title>
<path fill="none" stroke="midnightblue" d="M517.83,-179.08C516.32,-171.93 515.89,-161.64 516.54,-152.69"/>
<polygon fill="midnightblue" stroke="midnightblue" points="520.02,-153.13 517.87,-142.75 513.08,-152.2 520.02,-153.13"/>
</g>
<!-- Node8 -->
<g id="node8" class="node">
<title>Node8</title>
<g id="a_node8"><a xlink:title=" ">
<polygon fill="none" stroke="#bfbfbf" points="138,-56.5 138,-86.5 236,-86.5 236,-56.5 138,-56.5"/>
<text text-anchor="start" x="146" y="-74.5" font-family="Helvetica,sans-Serif" font-size="10.00">spdlog/sinks/basic</text>
<text text-anchor="middle" x="187" y="-63.5" font-family="Helvetica,sans-Serif" font-size="10.00">_file_sink.h</text>
</a>
</g>
</g>
<!-- Node2&#45;&gt;Node8 -->
<g id="edge17" class="edge">
<title>Node2&#45;&gt;Node8</title>
<path fill="none" stroke="midnightblue" d="M498.02,-179.41C443,-160.5 310.46,-114.94 237.41,-89.83"/>
<polygon fill="midnightblue" stroke="midnightblue" points="238.54,-86.52 227.95,-86.58 236.27,-93.14 238.54,-86.52"/>
</g>
<!-- Node9 -->
<g id="node9" class="node">
<title>Node9</title>
<g id="a_node9"><a xlink:title=" ">
<polygon fill="none" stroke="#bfbfbf" points="254.5,-62 254.5,-81 339.5,-81 339.5,-62 254.5,-62"/>
<text text-anchor="middle" x="297" y="-69" font-family="Helvetica,sans-Serif" font-size="10.00">spdlog/spdlog.h</text>
</a>
</g>
</g>
<!-- Node2&#45;&gt;Node9 -->
<g id="edge18" class="edge">
<title>Node2&#45;&gt;Node9</title>
<path fill="none" stroke="midnightblue" d="M506.01,-179.32C466.82,-159.29 369.83,-109.72 323.06,-85.82"/>
<polygon fill="midnightblue" stroke="midnightblue" points="324.37,-82.56 313.88,-81.12 321.19,-88.79 324.37,-82.56"/>
</g>
<!-- Node13 -->
<g id="node13" class="node">
<title>Node13</title>
<g id="a_node13"><a xlink:title=" ">
<polygon fill="none" stroke="#bfbfbf" points="720,-62 720,-81 772,-81 772,-62 720,-62"/>
<text text-anchor="middle" x="746" y="-69" font-family="Helvetica,sans-Serif" font-size="10.00">memory</text>
</a>
</g>
</g>
<!-- Node2&#45;&gt;Node13 -->
<g id="edge19" class="edge">
<title>Node2&#45;&gt;Node13</title>
<path fill="none" stroke="midnightblue" d="M539.76,-179.32C578.44,-159.29 674.13,-109.72 720.29,-85.82"/>
<polygon fill="midnightblue" stroke="midnightblue" points="722.08,-88.83 729.35,-81.12 718.86,-82.62 722.08,-88.83"/>
</g>
<!-- Node14 -->
<g id="node14" class="node">
<title>Node14</title>
<g id="a_node14"><a xlink:title=" ">
<polygon fill="none" stroke="#bfbfbf" points="790.5,-62 790.5,-81 849.5,-81 849.5,-62 790.5,-62"/>
<text text-anchor="middle" x="820" y="-69" font-family="Helvetica,sans-Serif" font-size="10.00">stdexcept</text>
</a>
</g>
</g>
<!-- Node2&#45;&gt;Node14 -->
<g id="edge20" class="edge">
<title>Node2&#45;&gt;Node14</title>
<path fill="none" stroke="midnightblue" d="M547.13,-179.45C572,-170.57 611.84,-156.16 646,-143 696.79,-123.42 755.37,-99.38 789.96,-85.04"/>
<polygon fill="midnightblue" stroke="midnightblue" points="791.57,-88.15 799.47,-81.09 788.89,-81.69 791.57,-88.15"/>
</g>
<!-- Node15 -->
<g id="node15" class="node">
<title>Node15</title>
<g id="a_node15"><a xlink:title=" ">
<polygon fill="none" stroke="#bfbfbf" points="867.5,-62 867.5,-81 908.5,-81 908.5,-62 867.5,-62"/>
<text text-anchor="middle" x="888" y="-69" font-family="Helvetica,sans-Serif" font-size="10.00">string</text>
</a>
</g>
</g>
<!-- Node2&#45;&gt;Node15 -->
<g id="edge21" class="edge">
<title>Node2&#45;&gt;Node15</title>
<path fill="none" stroke="midnightblue" d="M559.08,-179.55C621.45,-164.41 752.94,-130.18 859,-87 860.2,-86.51 861.42,-85.99 862.65,-85.45"/>
<polygon fill="midnightblue" stroke="midnightblue" points="864.39,-88.5 871.94,-81.08 861.41,-82.17 864.39,-88.5"/>
</g>
<!-- Node4 -->
<g id="node4" class="node">
<title>Node4</title>
<g id="a_node4"><a xlink:title=" ">
<polygon fill="none" stroke="#bfbfbf" points="0,-0.5 0,-19.5 56,-19.5 56,-0.5 0,-0.5"/>
<text text-anchor="middle" x="28" y="-7.5" font-family="Helvetica,sans-Serif" font-size="10.00">stdbool.h</text>
</a>
</g>
</g>
<!-- Node3&#45;&gt;Node4 -->
<g id="edge3" class="edge">
<title>Node3&#45;&gt;Node4</title>
<path fill="none" stroke="midnightblue" d="M88.83,-61.98C77.65,-52.61 59.48,-37.38 45.91,-26.01"/>
<polygon fill="midnightblue" stroke="midnightblue" points="48.07,-23.25 38.15,-19.51 43.57,-28.61 48.07,-23.25"/>
</g>
<!-- Node5 -->
<g id="node5" class="node">
<title>Node5</title>
<g id="a_node5"><a xlink:title=" ">
<polygon fill="none" stroke="#bfbfbf" points="74.5,-0.5 74.5,-19.5 123.5,-19.5 123.5,-0.5 74.5,-0.5"/>
<text text-anchor="middle" x="99" y="-7.5" font-family="Helvetica,sans-Serif" font-size="10.00">stdint.h</text>
</a>
</g>
</g>
<!-- Node3&#45;&gt;Node5 -->
<g id="edge4" class="edge">
<title>Node3&#45;&gt;Node5</title>
<path fill="none" stroke="midnightblue" d="M99,-61.98C99,-53.58 99,-40.48 99,-29.66"/>
<polygon fill="midnightblue" stroke="midnightblue" points="102.5,-29.51 99,-19.51 95.5,-29.51 102.5,-29.51"/>
</g>
<!-- Node6 -->
<g id="node6" class="node">
<title>Node6</title>
<g id="a_node6"><a xlink:title=" ">
<polygon fill="none" stroke="#bfbfbf" points="141.5,-0.5 141.5,-19.5 190.5,-19.5 190.5,-0.5 141.5,-0.5"/>
<text text-anchor="middle" x="166" y="-7.5" font-family="Helvetica,sans-Serif" font-size="10.00">string.h</text>
</a>
</g>
</g>
<!-- Node3&#45;&gt;Node6 -->
<g id="edge5" class="edge">
<title>Node3&#45;&gt;Node6</title>
<path fill="none" stroke="midnightblue" d="M108.6,-61.98C119.05,-52.7 135.97,-37.67 148.74,-26.33"/>
<polygon fill="midnightblue" stroke="midnightblue" points="151.27,-28.77 156.42,-19.51 146.62,-23.53 151.27,-28.77"/>
</g>
<!-- Node7&#45;&gt;Node2 -->
<g id="edge7" class="edge">
<title>Node7&#45;&gt;Node2</title>
<path fill="none" stroke="midnightblue" d="M528.13,-142.75C529.66,-149.86 530.1,-160.14 529.47,-169.1"/>
<polygon fill="midnightblue" stroke="midnightblue" points="525.99,-168.71 528.17,-179.08 532.93,-169.62 525.99,-168.71"/>
</g>
<!-- Node7&#45;&gt;Node3 -->
<g id="edge8" class="edge">
<title>Node7&#45;&gt;Node3</title>
<path fill="none" stroke="midnightblue" d="M478.32,-131.74C404.26,-130.24 252,-122.63 129,-87 127.12,-86.46 125.22,-85.8 123.33,-85.08"/>
<polygon fill="midnightblue" stroke="midnightblue" points="124.74,-81.88 114.18,-81.06 121.92,-88.28 124.74,-81.88"/>
</g>
<!-- Node7&#45;&gt;Node8 -->
<g id="edge9" class="edge">
<title>Node7&#45;&gt;Node8</title>
<path fill="none" stroke="midnightblue" d="M478.49,-125.98C425.41,-118.54 333.81,-104.87 246.14,-87.14"/>
<polygon fill="midnightblue" stroke="midnightblue" points="246.79,-83.7 236.3,-85.13 245.39,-90.56 246.79,-83.7"/>
</g>
<!-- Node7&#45;&gt;Node9 -->
<g id="edge10" class="edge">
<title>Node7&#45;&gt;Node9</title>
<path fill="none" stroke="midnightblue" d="M488.73,-123.46C453.4,-114.59 396.75,-100.2 348,-87 344.21,-85.97 340.27,-84.89 336.33,-83.79"/>
<polygon fill="midnightblue" stroke="midnightblue" points="337.2,-80.4 326.63,-81.06 335.31,-87.14 337.2,-80.4"/>
</g>
<!-- Node10 -->
<g id="node10" class="node">
<title>Node10</title>
<g id="a_node10"><a xlink:title=" ">
<polygon fill="none" stroke="#bfbfbf" points="357.5,-62 357.5,-81 454.5,-81 454.5,-62 357.5,-62"/>
<text text-anchor="middle" x="406" y="-69" font-family="Helvetica,sans-Serif" font-size="10.00">eigen3/Eigen/Core</text>
</a>
</g>
</g>
<!-- Node7&#45;&gt;Node10 -->
<g id="edge11" class="edge">
<title>Node7&#45;&gt;Node10</title>
<path fill="none" stroke="midnightblue" d="M506.24,-123.48C486.78,-113.58 454.45,-97.14 431.79,-85.62"/>
<polygon fill="midnightblue" stroke="midnightblue" points="433.23,-82.42 422.73,-81.01 430.06,-88.66 433.23,-82.42"/>
</g>
<!-- Node11 -->
<g id="node11" class="node">
<title>Node11</title>
<g id="a_node11"><a xlink:title=" ">
<polygon fill="none" stroke="#bfbfbf" points="472.5,-62 472.5,-81 573.5,-81 573.5,-62 472.5,-62"/>
<text text-anchor="middle" x="523" y="-69" font-family="Helvetica,sans-Serif" font-size="10.00">eigen3/Eigen/Eigen</text>
</a>
</g>
</g>
<!-- Node7&#45;&gt;Node11 -->
<g id="edge12" class="edge">
<title>Node7&#45;&gt;Node11</title>
<path fill="none" stroke="midnightblue" d="M523,-123.48C523,-115.08 523,-101.98 523,-91.16"/>
<polygon fill="midnightblue" stroke="midnightblue" points="526.5,-91.01 523,-81.01 519.5,-91.01 526.5,-91.01"/>
</g>
<!-- Node12 -->
<g id="node12" class="node">
<title>Node12</title>
<g id="a_node12"><a xlink:title=" ">
<polygon fill="none" stroke="#bfbfbf" points="592,-56.5 592,-86.5 702,-86.5 702,-56.5 592,-56.5"/>
<text text-anchor="start" x="600" y="-74.5" font-family="Helvetica,sans-Serif" font-size="10.00">eigen3/unsupported</text>
<text text-anchor="middle" x="647" y="-63.5" font-family="Helvetica,sans-Serif" font-size="10.00">/Eigen/CXX11/Tensor</text>
</a>
</g>
</g>
<!-- Node7&#45;&gt;Node12 -->
<g id="edge13" class="edge">
<title>Node7&#45;&gt;Node12</title>
<path fill="none" stroke="midnightblue" d="M540.77,-123.48C558.42,-115 586.07,-101.74 608.73,-90.86"/>
<polygon fill="midnightblue" stroke="midnightblue" points="610.27,-94 617.78,-86.52 607.25,-87.69 610.27,-94"/>
</g>
<!-- Node7&#45;&gt;Node13 -->
<g id="edge14" class="edge">
<title>Node7&#45;&gt;Node13</title>
<path fill="none" stroke="midnightblue" d="M567.23,-123.47C605.68,-115.58 662.64,-102.7 711,-87 713.13,-86.31 715.32,-85.54 717.51,-84.73"/>
<polygon fill="midnightblue" stroke="midnightblue" points="718.92,-87.94 726.95,-81.03 716.36,-81.43 718.92,-87.94"/>
</g>
<!-- Node7&#45;&gt;Node14 -->
<g id="edge15" class="edge">
<title>Node7&#45;&gt;Node14</title>
<path fill="none" stroke="midnightblue" d="M567.83,-126.72C619.72,-120.02 707.49,-106.9 781,-87 783.81,-86.24 786.7,-85.36 789.58,-84.41"/>
<polygon fill="midnightblue" stroke="midnightblue" points="790.91,-87.66 799.18,-81.04 788.59,-81.06 790.91,-87.66"/>
</g>
<!-- Node7&#45;&gt;Node15 -->
<g id="edge16" class="edge">
<title>Node7&#45;&gt;Node15</title>
<path fill="none" stroke="midnightblue" d="M567.76,-130.68C633.11,-127.71 757.88,-118.1 859,-87 860.66,-86.49 862.35,-85.89 864.03,-85.23"/>
<polygon fill="midnightblue" stroke="midnightblue" points="865.68,-88.32 873.34,-81 862.79,-81.95 865.68,-88.32"/>
</g>
</g>
</svg>
