<?xml version="1.0" encoding="UTF-8" standalone="no"?>
<!DOCTYPE svg PUBLIC "-//W3C//DTD SVG 1.1//EN"
 "http://www.w3.org/Graphics/SVG/1.1/DTD/svg11.dtd">
<!-- Generated by graphviz version 2.49.1 (20210923.0004)
 -->
<!-- Title: src/data_io/GSDUtil.hpp Pages: 1 -->
<svg width="1078pt" height="218pt"
 viewBox="0.00 0.00 1078.00 218.00" xmlns="http://www.w3.org/2000/svg" xmlns:xlink="http://www.w3.org/1999/xlink">
<g id="graph0" class="graph" transform="scale(1 1) rotate(0) translate(4 214)">
<title>src/data_io/GSDUtil.hpp</title>
<!-- Node1 -->
<g id="node1" class="node">
<title>Node1</title>
<g id="a_node1"><a xlink:title=" ">
<polygon fill="#bfbfbf" stroke="black" points="557.5,-190.5 557.5,-209.5 681.5,-209.5 681.5,-190.5 557.5,-190.5"/>
<text text-anchor="middle" x="619.5" y="-197.5" font-family="Helvetica,sans-Serif" font-size="10.00">src/data_io/GSDUtil.hpp</text>
</a>
</g>
</g>
<!-- Node2 -->
<g id="node2" class="node">
<title>Node2</title>
<g id="a_node2"><a xlink:href="gsd_8h.html" target="_top" xlink:title="Declare GSD data types and C API.">
<polygon fill="none" stroke="black" points="79,-73 79,-92 120,-92 120,-73 79,-73"/>
<text text-anchor="middle" x="99.5" y="-80" font-family="Helvetica,sans-Serif" font-size="10.00">gsd.h</text>
</a>
</g>
</g>
<!-- Node1&#45;&gt;Node2 -->
<g id="edge1" class="edge">
<title>Node1&#45;&gt;Node2</title>
<path fill="none" stroke="midnightblue" d="M557.28,-191.8C462.75,-179.63 278.22,-150.96 129.5,-98 128.07,-97.49 126.62,-96.93 125.16,-96.34"/>
<polygon fill="midnightblue" stroke="midnightblue" points="126.29,-93.01 115.73,-92.13 123.44,-99.41 126.29,-93.01"/>
</g>
<!-- Node6 -->
<g id="node6" class="node">
<title>Node6</title>
<g id="a_node6"><a xlink:href="systemData_8hpp.html" target="_top" xlink:title=" ">
<polygon fill="none" stroke="black" points="575,-134.5 575,-153.5 664,-153.5 664,-134.5 575,-134.5"/>
<text text-anchor="middle" x="619.5" y="-141.5" font-family="Helvetica,sans-Serif" font-size="10.00">systemData.hpp</text>
</a>
</g>
</g>
<!-- Node1&#45;&gt;Node6 -->
<g id="edge5" class="edge">
<title>Node1&#45;&gt;Node6</title>
<path fill="none" stroke="midnightblue" d="M614.33,-190.08C612.82,-182.93 612.39,-172.64 613.04,-163.69"/>
<polygon fill="midnightblue" stroke="midnightblue" points="616.52,-164.13 614.37,-153.75 609.58,-163.2 616.52,-164.13"/>
</g>
<!-- Node7 -->
<g id="node7" class="node">
<title>Node7</title>
<g id="a_node7"><a xlink:title=" ">
<polygon fill="none" stroke="#bfbfbf" points="138.5,-67.5 138.5,-97.5 236.5,-97.5 236.5,-67.5 138.5,-67.5"/>
<text text-anchor="start" x="146.5" y="-85.5" font-family="Helvetica,sans-Serif" font-size="10.00">spdlog/sinks/basic</text>
<text text-anchor="middle" x="187.5" y="-74.5" font-family="Helvetica,sans-Serif" font-size="10.00">_file_sink.h</text>
</a>
</g>
</g>
<!-- Node1&#45;&gt;Node7 -->
<g id="edge22" class="edge">
<title>Node1&#45;&gt;Node7</title>
<path fill="none" stroke="midnightblue" d="M583.29,-190.49C546.31,-181.7 487.27,-167.42 436.5,-154 370.53,-136.56 295.2,-115 244.83,-100.34"/>
<polygon fill="midnightblue" stroke="midnightblue" points="245.68,-96.95 235.1,-97.51 243.72,-103.67 245.68,-96.95"/>
</g>
<!-- Node8 -->
<g id="node8" class="node">
<title>Node8</title>
<g id="a_node8"><a xlink:title=" ">
<polygon fill="none" stroke="#bfbfbf" points="255,-73 255,-92 342,-92 342,-73 255,-73"/>
<text text-anchor="middle" x="298.5" y="-80" font-family="Helvetica,sans-Serif" font-size="10.00">spdlog/spdlog.h</text>
</a>
</g>
</g>
<!-- Node1&#45;&gt;Node8 -->
<g id="edge23" class="edge">
<title>Node1&#45;&gt;Node8</title>
<path fill="none" stroke="midnightblue" d="M595.64,-190.41C539.23,-170.12 397.52,-119.13 332.31,-95.66"/>
<polygon fill="midnightblue" stroke="midnightblue" points="333.12,-92.24 322.52,-92.14 330.75,-98.82 333.12,-92.24"/>
</g>
<!-- Node14 -->
<g id="node14" class="node">
<title>Node14</title>
<g id="a_node14"><a xlink:title=" ">
<polygon fill="none" stroke="#bfbfbf" points="881,-73 881,-92 934,-92 934,-73 881,-73"/>
<text text-anchor="middle" x="907.5" y="-80" font-family="Helvetica,sans-Serif" font-size="10.00">memory</text>
</a>
</g>
</g>
<!-- Node1&#45;&gt;Node14 -->
<g id="edge24" class="edge">
<title>Node1&#45;&gt;Node14</title>
<path fill="none" stroke="midnightblue" d="M640.74,-190.5C684.12,-173.14 786,-132.35 871.5,-98 873.13,-97.34 874.81,-96.67 876.5,-95.99"/>
<polygon fill="midnightblue" stroke="midnightblue" points="878.21,-99.07 886.18,-92.09 875.6,-92.58 878.21,-99.07"/>
</g>
<!-- Node15 -->
<g id="node15" class="node">
<title>Node15</title>
<g id="a_node15"><a xlink:title=" ">
<polygon fill="none" stroke="#bfbfbf" points="952,-73 952,-92 1011,-92 1011,-73 952,-73"/>
<text text-anchor="middle" x="981.5" y="-80" font-family="Helvetica,sans-Serif" font-size="10.00">stdexcept</text>
</a>
</g>
</g>
<!-- Node1&#45;&gt;Node15 -->
<g id="edge25" class="edge">
<title>Node1&#45;&gt;Node15</title>
<path fill="none" stroke="midnightblue" d="M649.49,-190.49C680.4,-181.64 729.94,-167.26 772.5,-154 848.45,-130.33 867.43,-124.31 942.5,-98 944.74,-97.21 947.05,-96.39 949.38,-95.55"/>
<polygon fill="midnightblue" stroke="midnightblue" points="950.68,-98.8 958.87,-92.08 948.27,-92.23 950.68,-98.8"/>
</g>
<!-- Node16 -->
<g id="node16" class="node">
<title>Node16</title>
<g id="a_node16"><a xlink:title=" ">
<polygon fill="none" stroke="#bfbfbf" points="1029,-73 1029,-92 1070,-92 1070,-73 1029,-73"/>
<text text-anchor="middle" x="1049.5" y="-80" font-family="Helvetica,sans-Serif" font-size="10.00">string</text>
</a>
</g>
</g>
<!-- Node1&#45;&gt;Node16 -->
<g id="edge26" class="edge">
<title>Node1&#45;&gt;Node16</title>
<path fill="none" stroke="midnightblue" d="M669.13,-190.49C746.07,-176.41 898.04,-145.08 1020.5,-98 1021.88,-97.47 1023.28,-96.9 1024.68,-96.29"/>
<polygon fill="midnightblue" stroke="midnightblue" points="1026.21,-99.44 1033.79,-92.04 1023.25,-93.1 1026.21,-99.44"/>
</g>
<!-- Node3 -->
<g id="node3" class="node">
<title>Node3</title>
<g id="a_node3"><a xlink:title=" ">
<polygon fill="none" stroke="#bfbfbf" points="0,-6 0,-25 57,-25 57,-6 0,-6"/>
<text text-anchor="middle" x="28.5" y="-13" font-family="Helvetica,sans-Serif" font-size="10.00">stdbool.h</text>
</a>
</g>
</g>
<!-- Node2&#45;&gt;Node3 -->
<g id="edge2" class="edge">
<title>Node2&#45;&gt;Node3</title>
<path fill="none" stroke="midnightblue" d="M89.92,-72.73C78.53,-62.31 59.31,-44.71 45.4,-31.97"/>
<polygon fill="midnightblue" stroke="midnightblue" points="47.66,-29.3 37.92,-25.13 42.94,-34.46 47.66,-29.3"/>
</g>
<!-- Node4 -->
<g id="node4" class="node">
<title>Node4</title>
<g id="a_node4"><a xlink:title=" ">
<polygon fill="none" stroke="#bfbfbf" points="75,-6 75,-25 124,-25 124,-6 75,-6"/>
<text text-anchor="middle" x="99.5" y="-13" font-family="Helvetica,sans-Serif" font-size="10.00">stdint.h</text>
</a>
</g>
</g>
<!-- Node2&#45;&gt;Node4 -->
<g id="edge3" class="edge">
<title>Node2&#45;&gt;Node4</title>
<path fill="none" stroke="midnightblue" d="M99.5,-72.73C99.5,-63.18 99.5,-47.62 99.5,-35.28"/>
<polygon fill="midnightblue" stroke="midnightblue" points="103,-35.13 99.5,-25.13 96,-35.13 103,-35.13"/>
</g>
<!-- Node5 -->
<g id="node5" class="node">
<title>Node5</title>
<g id="a_node5"><a xlink:title=" ">
<polygon fill="none" stroke="#bfbfbf" points="142,-6 142,-25 191,-25 191,-6 142,-6"/>
<text text-anchor="middle" x="166.5" y="-13" font-family="Helvetica,sans-Serif" font-size="10.00">string.h</text>
</a>
</g>
</g>
<!-- Node2&#45;&gt;Node5 -->
<g id="edge4" class="edge">
<title>Node2&#45;&gt;Node5</title>
<path fill="none" stroke="midnightblue" d="M108.54,-72.73C119.18,-62.4 137.08,-45.04 150.18,-32.33"/>
<polygon fill="midnightblue" stroke="midnightblue" points="152.87,-34.6 157.61,-25.13 147.99,-29.58 152.87,-34.6"/>
</g>
<!-- Node6&#45;&gt;Node1 -->
<g id="edge6" class="edge">
<title>Node6&#45;&gt;Node1</title>
<path fill="none" stroke="midnightblue" d="M624.63,-153.75C626.16,-160.86 626.6,-171.14 625.97,-180.1"/>
<polygon fill="midnightblue" stroke="midnightblue" points="622.49,-179.71 624.67,-190.08 629.43,-180.62 622.49,-179.71"/>
</g>
<!-- Node6&#45;&gt;Node2 -->
<g id="edge7" class="edge">
<title>Node6&#45;&gt;Node2</title>
<path fill="none" stroke="midnightblue" d="M574.78,-140.94C470.29,-135.79 212.74,-121.12 129.5,-98 127.62,-97.48 125.71,-96.84 123.82,-96.13"/>
<polygon fill="midnightblue" stroke="midnightblue" points="125.22,-92.92 114.66,-92.13 122.42,-99.34 125.22,-92.92"/>
</g>
<!-- Node6&#45;&gt;Node7 -->
<g id="edge8" class="edge">
<title>Node6&#45;&gt;Node7</title>
<path fill="none" stroke="midnightblue" d="M574.9,-139.45C506.36,-133.61 370.9,-120.48 246.82,-98.1"/>
<polygon fill="midnightblue" stroke="midnightblue" points="247.24,-94.62 236.77,-96.26 245.98,-101.51 247.24,-94.62"/>
</g>
<!-- Node6&#45;&gt;Node8 -->
<g id="edge9" class="edge">
<title>Node6&#45;&gt;Node8</title>
<path fill="none" stroke="midnightblue" d="M574.63,-136.38C522.12,-128.39 432.66,-114.01 356.5,-98 351.42,-96.93 346.12,-95.73 340.87,-94.48"/>
<polygon fill="midnightblue" stroke="midnightblue" points="341.46,-91.03 330.92,-92.06 339.81,-97.83 341.46,-91.03"/>
</g>
<!-- Node9 -->
<g id="node9" class="node">
<title>Node9</title>
<g id="a_node9"><a xlink:title=" ">
<polygon fill="none" stroke="#bfbfbf" points="324,-6 324,-25 423,-25 423,-6 324,-6"/>
<text text-anchor="middle" x="373.5" y="-13" font-family="Helvetica,sans-Serif" font-size="10.00">eigen3/Eigen/Core</text>
</a>
</g>
</g>
<!-- Node6&#45;&gt;Node9 -->
<g id="edge10" class="edge">
<title>Node6&#45;&gt;Node9</title>
<path fill="none" stroke="midnightblue" d="M574.94,-136.99C511.8,-128.07 402.5,-111 389.5,-98 373.11,-81.62 370.99,-53.7 371.69,-35.18"/>
<polygon fill="midnightblue" stroke="midnightblue" points="375.19,-35.26 372.38,-25.05 368.21,-34.78 375.19,-35.26"/>
</g>
<!-- Node10 -->
<g id="node10" class="node">
<title>Node10</title>
<g id="a_node10"><a xlink:title=" ">
<polygon fill="none" stroke="#bfbfbf" points="453,-6 453,-25 556,-25 556,-6 453,-6"/>
<text text-anchor="middle" x="504.5" y="-13" font-family="Helvetica,sans-Serif" font-size="10.00">eigen3/Eigen/Eigen</text>
</a>
</g>
</g>
<!-- Node6&#45;&gt;Node10 -->
<g id="edge11" class="edge">
<title>Node6&#45;&gt;Node10</title>
<path fill="none" stroke="midnightblue" d="M616.78,-134.15C611.79,-119 599.93,-87.72 581.5,-67 567.64,-51.42 547.92,-38.61 531.91,-29.79"/>
<polygon fill="midnightblue" stroke="midnightblue" points="533.46,-26.65 522.98,-25.07 530.18,-32.84 533.46,-26.65"/>
</g>
<!-- Node11 -->
<g id="node11" class="node">
<title>Node11</title>
<g id="a_node11"><a xlink:title=" ">
<polygon fill="none" stroke="#bfbfbf" points="580,-0.5 580,-30.5 691,-30.5 691,-0.5 580,-0.5"/>
<text text-anchor="start" x="588" y="-18.5" font-family="Helvetica,sans-Serif" font-size="10.00">eigen3/unsupported</text>
<text text-anchor="middle" x="635.5" y="-7.5" font-family="Helvetica,sans-Serif" font-size="10.00">/Eigen/CXX11/Tensor</text>
</a>
</g>
</g>
<!-- Node6&#45;&gt;Node11 -->
<g id="edge12" class="edge">
<title>Node6&#45;&gt;Node11</title>
<path fill="none" stroke="midnightblue" d="M620.6,-134.31C623,-115.3 628.8,-69.47 632.41,-40.9"/>
<polygon fill="midnightblue" stroke="midnightblue" points="635.9,-41.25 633.68,-30.89 628.95,-40.37 635.9,-41.25"/>
</g>
<!-- Node12 -->
<g id="node12" class="node">
<title>Node12</title>
<g id="a_node12"><a xlink:title=" ">
<polygon fill="none" stroke="#bfbfbf" points="667,-67.5 667,-97.5 800,-97.5 800,-67.5 667,-67.5"/>
<text text-anchor="start" x="675" y="-85.5" font-family="Helvetica,sans-Serif" font-size="10.00">eigen3/unsupported</text>
<text text-anchor="middle" x="733.5" y="-74.5" font-family="Helvetica,sans-Serif" font-size="10.00">/Eigen/CXX11/ThreadPool</text>
</a>
</g>
</g>
<!-- Node6&#45;&gt;Node12 -->
<g id="edge13" class="edge">
<title>Node6&#45;&gt;Node12</title>
<path fill="none" stroke="midnightblue" d="M635.83,-134.48C651.92,-126.08 677.03,-112.97 697.76,-102.15"/>
<polygon fill="midnightblue" stroke="midnightblue" points="699.39,-105.25 706.63,-97.52 696.15,-99.05 699.39,-105.25"/>
</g>
<!-- Node13 -->
<g id="node13" class="node">
<title>Node13</title>
<g id="a_node13"><a xlink:href="helper__eigenTensorConversion_8hpp.html" target="_top" xlink:title=" ">
<polygon fill="none" stroke="black" points="398.5,-73 398.5,-92 572.5,-92 572.5,-73 398.5,-73"/>
<text text-anchor="middle" x="485.5" y="-80" font-family="Helvetica,sans-Serif" font-size="10.00">helper_eigenTensorConversion.hpp</text>
</a>
</g>
</g>
<!-- Node6&#45;&gt;Node13 -->
<g id="edge14" class="edge">
<title>Node6&#45;&gt;Node13</title>
<path fill="none" stroke="midnightblue" d="M600.3,-134.48C577.71,-124.45 540,-107.7 514,-96.15"/>
<polygon fill="midnightblue" stroke="midnightblue" points="515.22,-92.87 504.66,-92.01 512.38,-99.27 515.22,-92.87"/>
</g>
<!-- Node6&#45;&gt;Node14 -->
<g id="edge18" class="edge">
<title>Node6&#45;&gt;Node14</title>
<path fill="none" stroke="midnightblue" d="M664.29,-137.84C715.17,-131.32 800.38,-118.44 871.5,-98 873.94,-97.3 876.43,-96.49 878.92,-95.62"/>
<polygon fill="midnightblue" stroke="midnightblue" points="880.21,-98.88 888.33,-92.07 877.73,-92.33 880.21,-98.88"/>
</g>
<!-- Node6&#45;&gt;Node15 -->
<g id="edge19" class="edge">
<title>Node6&#45;&gt;Node15</title>
<path fill="none" stroke="midnightblue" d="M664.23,-139.86C727.13,-134.75 844.92,-122.62 942.5,-98 945.49,-97.25 948.56,-96.34 951.61,-95.36"/>
<polygon fill="midnightblue" stroke="midnightblue" points="952.84,-98.63 961.12,-92.03 950.53,-92.03 952.84,-98.63"/>
</g>
<!-- Node6&#45;&gt;Node16 -->
<g id="edge20" class="edge">
<title>Node6&#45;&gt;Node16</title>
<path fill="none" stroke="midnightblue" d="M664.11,-143.05C739.23,-142.03 895.05,-135.12 1020.5,-98 1022.17,-97.51 1023.86,-96.92 1025.54,-96.27"/>
<polygon fill="midnightblue" stroke="midnightblue" points="1027.18,-99.37 1034.86,-92.07 1024.31,-92.99 1027.18,-99.37"/>
</g>
<!-- Node17 -->
<g id="node17" class="node">
<title>Node17</title>
<g id="a_node17"><a xlink:title=" ">
<polygon fill="none" stroke="#bfbfbf" points="818,-73 818,-92 863,-92 863,-73 818,-73"/>
<text text-anchor="middle" x="840.5" y="-80" font-family="Helvetica,sans-Serif" font-size="10.00">thread</text>
</a>
</g>
</g>
<!-- Node6&#45;&gt;Node17 -->
<g id="edge21" class="edge">
<title>Node6&#45;&gt;Node17</title>
<path fill="none" stroke="midnightblue" d="M664.1,-134.89C702.83,-127.26 760.15,-114.54 808.5,-98 810.17,-97.43 811.86,-96.8 813.56,-96.14"/>
<polygon fill="midnightblue" stroke="midnightblue" points="815.29,-99.21 823.14,-92.1 812.57,-92.76 815.29,-99.21"/>
</g>
<!-- Node13&#45;&gt;Node9 -->
<g id="edge15" class="edge">
<title>Node13&#45;&gt;Node9</title>
<path fill="none" stroke="midnightblue" d="M470.4,-72.73C451.59,-61.82 419.25,-43.05 397.14,-30.22"/>
<polygon fill="midnightblue" stroke="midnightblue" points="398.77,-27.12 388.37,-25.13 395.26,-33.17 398.77,-27.12"/>
</g>
<!-- Node13&#45;&gt;Node10 -->
<g id="edge16" class="edge">
<title>Node13&#45;&gt;Node10</title>
<path fill="none" stroke="midnightblue" d="M488.06,-72.73C490.88,-63.09 495.5,-47.3 499.12,-34.91"/>
<polygon fill="midnightblue" stroke="midnightblue" points="502.53,-35.71 501.98,-25.13 495.81,-33.74 502.53,-35.71"/>
</g>
<!-- Node13&#45;&gt;Node11 -->
<g id="edge17" class="edge">
<title>Node13&#45;&gt;Node11</title>
<path fill="none" stroke="midnightblue" d="M505.42,-72.87C527.83,-63.16 564.86,-47.11 593.7,-34.61"/>
<polygon fill="midnightblue" stroke="midnightblue" points="595.34,-37.72 603.13,-30.53 592.56,-31.29 595.34,-37.72"/>
</g>
</g>
</svg>
