<?xml version="1.0" encoding="UTF-8" standalone="no"?>
<!DOCTYPE svg PUBLIC "-//W3C//DTD SVG 1.1//EN"
 "http://www.w3.org/Graphics/SVG/1.1/DTD/svg11.dtd">
<!-- Generated by graphviz version 2.43.0 (0)
 -->
<!-- Title: src/data_io/GSDUtil.hpp Pages: 1 -->
<svg width="651pt" height="352pt"
 viewBox="0.00 0.00 651.00 352.00" xmlns="http://www.w3.org/2000/svg" xmlns:xlink="http://www.w3.org/1999/xlink">
<g id="graph0" class="graph" transform="scale(1 1) rotate(0) translate(4 348)">
<title>src/data_io/GSDUtil.hpp</title>
<!-- Node1 -->
<g id="node1" class="node">
<title>Node1</title>
<g id="a_node1"><a xlink:title=" ">
<polygon fill="#bfbfbf" stroke="black" points="381,-324.5 381,-343.5 504,-343.5 504,-324.5 381,-324.5"/>
<text text-anchor="middle" x="442.5" y="-331.5" font-family="Helvetica,sans-Serif" font-size="10.00">src/data_io/GSDUtil.hpp</text>
</a>
</g>
</g>
<!-- Node2 -->
<g id="node2" class="node">
<title>Node2</title>
<g id="a_node2"><a xlink:href="GSDUtil_8cpp.html" target="_top" xlink:title=" ">
<polygon fill="none" stroke="black" points="244,-263 244,-282 367,-282 367,-263 244,-263"/>
<text text-anchor="middle" x="305.5" y="-270" font-family="Helvetica,sans-Serif" font-size="10.00">src/data_io/GSDUtil.cpp</text>
</a>
</g>
</g>
<!-- Node1&#45;&gt;Node2 -->
<g id="edge1" class="edge">
<title>Node1&#45;&gt;Node2</title>
<path fill="none" stroke="midnightblue" d="M413.67,-320.48C387.06,-308.92 348.27,-292.08 325.09,-282.01"/>
<polygon fill="midnightblue" stroke="midnightblue" points="412.3,-323.7 422.87,-324.48 415.09,-317.28 412.3,-323.7"/>
</g>
<!-- Node3 -->
<g id="node3" class="node">
<title>Node3</title>
<g id="a_node3"><a xlink:href="systemData_8hpp.html" target="_top" xlink:title=" ">
<polygon fill="none" stroke="black" points="385,-257.5 385,-287.5 500,-287.5 500,-257.5 385,-257.5"/>
<text text-anchor="start" x="393" y="-275.5" font-family="Helvetica,sans-Serif" font-size="10.00">src/simulation_system</text>
<text text-anchor="middle" x="442.5" y="-264.5" font-family="Helvetica,sans-Serif" font-size="10.00">/systemData.hpp</text>
</a>
</g>
</g>
<!-- Node1&#45;&gt;Node3 -->
<g id="edge2" class="edge">
<title>Node1&#45;&gt;Node3</title>
<path fill="none" stroke="midnightblue" d="M436.2,-314.53C435.47,-305.81 435.63,-295.59 436.67,-287.52"/>
<polygon fill="midnightblue" stroke="midnightblue" points="432.74,-315.06 437.6,-324.48 439.67,-314.09 432.74,-315.06"/>
</g>
<!-- Node3&#45;&gt;Node1 -->
<g id="edge3" class="edge">
<title>Node3&#45;&gt;Node1</title>
<path fill="none" stroke="midnightblue" d="M449.14,-297.7C449.51,-307.19 448.93,-317.47 447.4,-324.48"/>
<polygon fill="midnightblue" stroke="midnightblue" points="452.62,-297.21 448.33,-287.52 445.64,-297.77 452.62,-297.21"/>
</g>
<!-- Node4 -->
<g id="node4" class="node">
<title>Node4</title>
<g id="a_node4"><a xlink:href="potentialHydrodynamics_8hpp.html" target="_top" xlink:title=" ">
<polygon fill="none" stroke="black" points="190,-196 190,-215 377,-215 377,-196 190,-196"/>
<text text-anchor="middle" x="283.5" y="-203" font-family="Helvetica,sans-Serif" font-size="10.00">src/forces/potentialHydrodynamics.hpp</text>
</a>
</g>
</g>
<!-- Node3&#45;&gt;Node4 -->
<g id="edge4" class="edge">
<title>Node3&#45;&gt;Node4</title>
<path fill="none" stroke="midnightblue" d="M398.37,-253.46C367.65,-240.9 328.08,-224.72 304.31,-215.01"/>
<polygon fill="midnightblue" stroke="midnightblue" points="397.42,-256.85 408,-257.4 400.07,-250.37 397.42,-256.85"/>
</g>
<!-- Node6 -->
<g id="node6" class="node">
<title>Node6</title>
<g id="a_node6"><a xlink:href="rungeKutta4_8hpp.html" target="_top" xlink:title=" ">
<polygon fill="none" stroke="black" points="0,-134.5 0,-153.5 153,-153.5 153,-134.5 0,-134.5"/>
<text text-anchor="middle" x="76.5" y="-141.5" font-family="Helvetica,sans-Serif" font-size="10.00">src/integrators/rungeKutta4.hpp</text>
</a>
</g>
</g>
<!-- Node3&#45;&gt;Node6 -->
<g id="edge13" class="edge">
<title>Node3&#45;&gt;Node6</title>
<path fill="none" stroke="midnightblue" d="M374.91,-256.79C288.05,-240.64 259.59,-254.43 181.5,-221 141.78,-203.99 102.58,-169.75 85.46,-153.69"/>
<polygon fill="midnightblue" stroke="midnightblue" points="374.45,-260.26 384.93,-258.73 375.78,-253.39 374.45,-260.26"/>
</g>
<!-- Node8 -->
<g id="node8" class="node">
<title>Node8</title>
<g id="a_node8"><a xlink:href="engine_8hpp.html" target="_top" xlink:title=" ">
<polygon fill="none" stroke="black" points="318,-67.5 318,-97.5 433,-97.5 433,-67.5 318,-67.5"/>
<text text-anchor="start" x="326" y="-85.5" font-family="Helvetica,sans-Serif" font-size="10.00">src/simulation_system</text>
<text text-anchor="middle" x="375.5" y="-74.5" font-family="Helvetica,sans-Serif" font-size="10.00">/engine.hpp</text>
</a>
</g>
</g>
<!-- Node3&#45;&gt;Node8 -->
<g id="edge15" class="edge">
<title>Node3&#45;&gt;Node8</title>
<path fill="none" stroke="midnightblue" d="M434.03,-247.72C419.88,-208.04 391.9,-129.51 380.5,-97.54"/>
<polygon fill="midnightblue" stroke="midnightblue" points="430.81,-249.12 437.46,-257.37 437.4,-246.77 430.81,-249.12"/>
</g>
<!-- Node9 -->
<g id="node9" class="node">
<title>Node9</title>
<g id="a_node9"><a xlink:href="main_8cpp.html" target="_top" xlink:title=" ">
<polygon fill="none" stroke="black" points="339,-6 339,-25 412,-25 412,-6 339,-6"/>
<text text-anchor="middle" x="375.5" y="-13" font-family="Helvetica,sans-Serif" font-size="10.00">src/main.cpp</text>
</a>
</g>
</g>
<!-- Node3&#45;&gt;Node9 -->
<g id="edge14" class="edge">
<title>Node3&#45;&gt;Node9</title>
<path fill="none" stroke="midnightblue" d="M449.05,-247.51C458.55,-207.63 472.03,-126.23 442.5,-67 432.69,-47.32 411.14,-33.28 395.12,-25.08"/>
<polygon fill="midnightblue" stroke="midnightblue" points="445.61,-246.83 446.57,-257.38 452.4,-248.54 445.61,-246.83"/>
</g>
<!-- Node11 -->
<g id="node11" class="node">
<title>Node11</title>
<g id="a_node11"><a xlink:href="testsSimulationBuild_8cpp.html" target="_top" xlink:title=" ">
<polygon fill="none" stroke="black" points="430,-6 430,-25 579,-25 579,-6 430,-6"/>
<text text-anchor="middle" x="504.5" y="-13" font-family="Helvetica,sans-Serif" font-size="10.00">tests/testsSimulationBuild.cpp</text>
</a>
</g>
</g>
<!-- Node3&#45;&gt;Node11 -->
<g id="edge17" class="edge">
<title>Node3&#45;&gt;Node11</title>
<path fill="none" stroke="midnightblue" d="M460.06,-249.25C465.86,-240.84 471.78,-230.89 475.5,-221 502.65,-148.84 504.65,-53.65 504.6,-25"/>
<polygon fill="midnightblue" stroke="midnightblue" points="457.19,-247.25 454.15,-257.4 462.85,-251.36 457.19,-247.25"/>
</g>
<!-- Node12 -->
<g id="node12" class="node">
<title>Node12</title>
<g id="a_node12"><a xlink:href="systemData_8cpp.html" target="_top" xlink:title=" ">
<polygon fill="none" stroke="black" points="528,-190.5 528,-220.5 643,-220.5 643,-190.5 528,-190.5"/>
<text text-anchor="start" x="536" y="-208.5" font-family="Helvetica,sans-Serif" font-size="10.00">src/simulation_system</text>
<text text-anchor="middle" x="585.5" y="-197.5" font-family="Helvetica,sans-Serif" font-size="10.00">/systemData.cpp</text>
</a>
</g>
</g>
<!-- Node3&#45;&gt;Node12 -->
<g id="edge16" class="edge">
<title>Node3&#45;&gt;Node12</title>
<path fill="none" stroke="midnightblue" d="M482.91,-253.13C505.63,-242.8 533.56,-230.11 554.53,-220.58"/>
<polygon fill="midnightblue" stroke="midnightblue" points="481.18,-250.07 473.53,-257.4 484.08,-256.44 481.18,-250.07"/>
</g>
<!-- Node5 -->
<g id="node5" class="node">
<title>Node5</title>
<g id="a_node5"><a xlink:href="potentialHydrodynamics_8cpp.html" target="_top" xlink:title=" ">
<polygon fill="none" stroke="black" points="171,-134.5 171,-153.5 358,-153.5 358,-134.5 171,-134.5"/>
<text text-anchor="middle" x="264.5" y="-141.5" font-family="Helvetica,sans-Serif" font-size="10.00">src/forces/potentialHydrodynamics.cpp</text>
</a>
</g>
</g>
<!-- Node4&#45;&gt;Node5 -->
<g id="edge5" class="edge">
<title>Node4&#45;&gt;Node5</title>
<path fill="none" stroke="midnightblue" d="M277.64,-186.16C274.17,-175.27 269.92,-161.99 267.22,-153.51"/>
<polygon fill="midnightblue" stroke="midnightblue" points="274.4,-187.51 280.78,-195.98 281.07,-185.38 274.4,-187.51"/>
</g>
<!-- Node4&#45;&gt;Node6 -->
<g id="edge6" class="edge">
<title>Node4&#45;&gt;Node6</title>
<path fill="none" stroke="midnightblue" d="M244.1,-193.18C203.88,-181.61 142.35,-163.93 106.1,-153.51"/>
<polygon fill="midnightblue" stroke="midnightblue" points="243.26,-196.58 253.84,-195.98 245.2,-189.85 243.26,-196.58"/>
</g>
<!-- Node4&#45;&gt;Node8 -->
<g id="edge12" class="edge">
<title>Node4&#45;&gt;Node8</title>
<path fill="none" stroke="midnightblue" d="M319.08,-191.9C336.56,-183.82 356.24,-171.51 367.5,-154 378.42,-137.01 378.63,-112.85 377.38,-97.69"/>
<polygon fill="midnightblue" stroke="midnightblue" points="317.46,-188.79 309.66,-195.96 320.23,-195.21 317.46,-188.79"/>
</g>
<!-- Node7 -->
<g id="node7" class="node">
<title>Node7</title>
<g id="a_node7"><a xlink:href="rungeKutta4_8cpp.html" target="_top" xlink:title=" ">
<polygon fill="none" stroke="black" points="0,-73 0,-92 153,-92 153,-73 0,-73"/>
<text text-anchor="middle" x="76.5" y="-80" font-family="Helvetica,sans-Serif" font-size="10.00">src/integrators/rungeKutta4.cpp</text>
</a>
</g>
</g>
<!-- Node6&#45;&gt;Node7 -->
<g id="edge7" class="edge">
<title>Node6&#45;&gt;Node7</title>
<path fill="none" stroke="midnightblue" d="M76.5,-124.32C76.5,-113.5 76.5,-100.4 76.5,-92.01"/>
<polygon fill="midnightblue" stroke="midnightblue" points="73,-124.48 76.5,-134.48 80,-124.48 73,-124.48"/>
</g>
<!-- Node6&#45;&gt;Node8 -->
<g id="edge8" class="edge">
<title>Node6&#45;&gt;Node8</title>
<path fill="none" stroke="midnightblue" d="M129.2,-132.51C182.08,-121.99 263.31,-105.83 317.87,-94.97"/>
<polygon fill="midnightblue" stroke="midnightblue" points="128.46,-129.09 119.34,-134.48 129.83,-135.96 128.46,-129.09"/>
</g>
<!-- Node8&#45;&gt;Node9 -->
<g id="edge9" class="edge">
<title>Node8&#45;&gt;Node9</title>
<path fill="none" stroke="midnightblue" d="M375.5,-57.25C375.5,-46.02 375.5,-33.38 375.5,-25.19"/>
<polygon fill="midnightblue" stroke="midnightblue" points="372,-57.4 375.5,-67.4 379,-57.4 372,-57.4"/>
</g>
<!-- Node10 -->
<g id="node10" class="node">
<title>Node10</title>
<g id="a_node10"><a xlink:href="engine_8cpp.html" target="_top" xlink:title=" ">
<polygon fill="none" stroke="black" points="206,-0.5 206,-30.5 321,-30.5 321,-0.5 206,-0.5"/>
<text text-anchor="start" x="214" y="-18.5" font-family="Helvetica,sans-Serif" font-size="10.00">src/simulation_system</text>
<text text-anchor="middle" x="263.5" y="-7.5" font-family="Helvetica,sans-Serif" font-size="10.00">/engine.cpp</text>
</a>
</g>
</g>
<!-- Node8&#45;&gt;Node10 -->
<g id="edge10" class="edge">
<title>Node8&#45;&gt;Node10</title>
<path fill="none" stroke="midnightblue" d="M342.41,-62.3C324.88,-52.12 303.74,-39.85 287.75,-30.58"/>
<polygon fill="midnightblue" stroke="midnightblue" points="340.79,-65.4 351.2,-67.4 344.31,-59.35 340.79,-65.4"/>
</g>
<!-- Node8&#45;&gt;Node11 -->
<g id="edge11" class="edge">
<title>Node8&#45;&gt;Node11</title>
<path fill="none" stroke="midnightblue" d="M412.61,-62.8C437.34,-50.34 468.67,-34.56 487.62,-25.01"/>
<polygon fill="midnightblue" stroke="midnightblue" points="410.85,-59.77 403.49,-67.4 414,-66.02 410.85,-59.77"/>
</g>
</g>
</svg>
