<?xml version="1.0" encoding="UTF-8" standalone="no"?>
<!DOCTYPE svg PUBLIC "-//W3C//DTD SVG 1.1//EN"
 "http://www.w3.org/Graphics/SVG/1.1/DTD/svg11.dtd">
<!-- Generated by graphviz version 2.43.0 (0)
 -->
<!-- Title: src/data_io/GSDUtil.hpp Pages: 1 -->
<svg width="878pt" height="363pt"
 viewBox="0.00 0.00 878.45 363.00" xmlns="http://www.w3.org/2000/svg" xmlns:xlink="http://www.w3.org/1999/xlink">
<g id="graph0" class="graph" transform="scale(1 1) rotate(0) translate(4 359)">
<title>src/data_io/GSDUtil.hpp</title>
<!-- Node1 -->
<g id="node1" class="node">
<title>Node1</title>
<g id="a_node1"><a xlink:title=" ">
<polygon fill="#bfbfbf" stroke="black" points="394.95,-335.5 394.95,-354.5 517.95,-354.5 517.95,-335.5 394.95,-335.5"/>
<text text-anchor="middle" x="456.45" y="-342.5" font-family="Helvetica,sans-Serif" font-size="10.00">src/data_io/GSDUtil.hpp</text>
</a>
</g>
</g>
<!-- Node2 -->
<g id="node2" class="node">
<title>Node2</title>
<g id="a_node2"><a xlink:href="GSDUtil_8cpp.html" target="_top" xlink:title=" ">
<polygon fill="none" stroke="black" points="257.95,-274 257.95,-293 380.95,-293 380.95,-274 257.95,-274"/>
<text text-anchor="middle" x="319.45" y="-281" font-family="Helvetica,sans-Serif" font-size="10.00">src/data_io/GSDUtil.cpp</text>
</a>
</g>
</g>
<!-- Node1&#45;&gt;Node2 -->
<g id="edge1" class="edge">
<title>Node1&#45;&gt;Node2</title>
<path fill="none" stroke="midnightblue" d="M427.62,-331.48C401.01,-319.92 362.22,-303.08 339.04,-293.01"/>
<polygon fill="midnightblue" stroke="midnightblue" points="426.25,-334.7 436.82,-335.48 429.04,-328.28 426.25,-334.7"/>
</g>
<!-- Node3 -->
<g id="node3" class="node">
<title>Node3</title>
<g id="a_node3"><a xlink:href="SystemData_8hpp.html" target="_top" xlink:title=" ">
<polygon fill="none" stroke="black" points="398.95,-268.5 398.95,-298.5 513.95,-298.5 513.95,-268.5 398.95,-268.5"/>
<text text-anchor="start" x="406.95" y="-286.5" font-family="Helvetica,sans-Serif" font-size="10.00">src/simulation_system</text>
<text text-anchor="middle" x="456.45" y="-275.5" font-family="Helvetica,sans-Serif" font-size="10.00">/SystemData.hpp</text>
</a>
</g>
</g>
<!-- Node1&#45;&gt;Node3 -->
<g id="edge2" class="edge">
<title>Node1&#45;&gt;Node3</title>
<path fill="none" stroke="midnightblue" d="M450.15,-325.53C449.42,-316.81 449.57,-306.59 450.62,-298.52"/>
<polygon fill="midnightblue" stroke="midnightblue" points="446.69,-326.06 451.55,-335.48 453.62,-325.09 446.69,-326.06"/>
</g>
<!-- Node3&#45;&gt;Node1 -->
<g id="edge4" class="edge">
<title>Node3&#45;&gt;Node1</title>
<path fill="none" stroke="midnightblue" d="M463.09,-308.7C463.46,-318.19 462.87,-328.47 461.35,-335.48"/>
<polygon fill="midnightblue" stroke="midnightblue" points="466.56,-308.21 462.28,-298.52 459.59,-308.77 466.56,-308.21"/>
</g>
<!-- Node4 -->
<g id="node4" class="node">
<title>Node4</title>
<g id="a_node4"><a xlink:href="main_8cpp.html" target="_top" xlink:title=" ">
<polygon fill="none" stroke="black" points="86.95,-6 86.95,-25 159.95,-25 159.95,-6 86.95,-6"/>
<text text-anchor="middle" x="123.45" y="-13" font-family="Helvetica,sans-Serif" font-size="10.00">src/main.cpp</text>
</a>
</g>
</g>
<!-- Node3&#45;&gt;Node4 -->
<g id="edge3" class="edge">
<title>Node3&#45;&gt;Node4</title>
<path fill="none" stroke="midnightblue" d="M388.65,-268.01C216.54,-239.35 107.35,-307.26 17.45,-165 -5.82,-128.18 -5.8,-103.83 17.45,-67 32.57,-43.04 62.52,-30.21 86.74,-23.49"/>
<polygon fill="midnightblue" stroke="midnightblue" points="388.29,-271.5 398.75,-269.79 389.51,-264.6 388.29,-271.5"/>
</g>
<!-- Node5 -->
<g id="node5" class="node">
<title>Node5</title>
<g id="a_node5"><a xlink:href="PotentialHydrodynamics_8hpp.html" target="_top" xlink:title=" ">
<polygon fill="none" stroke="black" points="221.45,-207 221.45,-226 409.45,-226 409.45,-207 221.45,-207"/>
<text text-anchor="middle" x="315.45" y="-214" font-family="Helvetica,sans-Serif" font-size="10.00">src/forces/PotentialHydrodynamics.hpp</text>
</a>
</g>
</g>
<!-- Node3&#45;&gt;Node5 -->
<g id="edge5" class="edge">
<title>Node3&#45;&gt;Node5</title>
<path fill="none" stroke="midnightblue" d="M416.6,-264.13C389.46,-251.62 354.8,-235.64 333.9,-226.01"/>
<polygon fill="midnightblue" stroke="midnightblue" points="415.3,-267.39 425.85,-268.4 418.23,-261.03 415.3,-267.39"/>
</g>
<!-- Node7 -->
<g id="node7" class="node">
<title>Node7</title>
<g id="a_node7"><a xlink:href="RungeKutta4_8hpp.html" target="_top" xlink:title=" ">
<polygon fill="none" stroke="black" points="26.45,-140 26.45,-159 184.45,-159 184.45,-140 26.45,-140"/>
<text text-anchor="middle" x="105.45" y="-147" font-family="Helvetica,sans-Serif" font-size="10.00">src/integrators/RungeKutta4.hpp</text>
</a>
</g>
</g>
<!-- Node3&#45;&gt;Node7 -->
<g id="edge14" class="edge">
<title>Node3&#45;&gt;Node7</title>
<path fill="none" stroke="midnightblue" d="M388.7,-267.94C308.83,-252.5 282.7,-263.86 212.45,-232 171.19,-213.29 131.01,-176.13 113.97,-159.23"/>
<polygon fill="midnightblue" stroke="midnightblue" points="388.22,-271.41 398.71,-269.96 389.6,-264.55 388.22,-271.41"/>
</g>
<!-- Node9 -->
<g id="node9" class="node">
<title>Node9</title>
<g id="a_node9"><a xlink:href="Engine_8hpp.html" target="_top" xlink:title=" ">
<polygon fill="none" stroke="black" points="326.95,-67.5 326.95,-97.5 441.95,-97.5 441.95,-67.5 326.95,-67.5"/>
<text text-anchor="start" x="334.95" y="-85.5" font-family="Helvetica,sans-Serif" font-size="10.00">src/simulation_system</text>
<text text-anchor="middle" x="384.45" y="-74.5" font-family="Helvetica,sans-Serif" font-size="10.00">/Engine.hpp</text>
</a>
</g>
</g>
<!-- Node3&#45;&gt;Node9 -->
<g id="edge15" class="edge">
<title>Node3&#45;&gt;Node9</title>
<path fill="none" stroke="midnightblue" d="M452.22,-258.08C446.49,-228.02 434.81,-175.8 416.45,-134 410.77,-121.08 402.09,-107.63 395.21,-97.87"/>
<polygon fill="midnightblue" stroke="midnightblue" points="448.81,-258.9 454.06,-268.1 455.69,-257.63 448.81,-258.9"/>
</g>
<!-- Node11 -->
<g id="node11" class="node">
<title>Node11</title>
<g id="a_node11"><a xlink:href="TestSimulation_8cpp.html" target="_top" xlink:title=" ">
<polygon fill="none" stroke="black" points="434.95,-6 434.95,-25 553.95,-25 553.95,-6 434.95,-6"/>
<text text-anchor="middle" x="494.45" y="-13" font-family="Helvetica,sans-Serif" font-size="10.00">test/TestSimulation.cpp</text>
</a>
</g>
</g>
<!-- Node3&#45;&gt;Node11 -->
<g id="edge17" class="edge">
<title>Node3&#45;&gt;Node11</title>
<path fill="none" stroke="midnightblue" d="M459.91,-258.28C468.04,-201.34 488.08,-61.08 493.22,-25.05"/>
<polygon fill="midnightblue" stroke="midnightblue" points="456.44,-257.8 458.49,-268.2 463.37,-258.79 456.44,-257.8"/>
</g>
<!-- Node12 -->
<g id="node12" class="node">
<title>Node12</title>
<g id="a_node12"><a xlink:href="SystemData_8cpp.html" target="_top" xlink:title=" ">
<polygon fill="none" stroke="black" points="522.95,-201.5 522.95,-231.5 637.95,-231.5 637.95,-201.5 522.95,-201.5"/>
<text text-anchor="start" x="530.95" y="-219.5" font-family="Helvetica,sans-Serif" font-size="10.00">src/simulation_system</text>
<text text-anchor="middle" x="580.45" y="-208.5" font-family="Helvetica,sans-Serif" font-size="10.00">/SystemData.cpp</text>
</a>
</g>
</g>
<!-- Node3&#45;&gt;Node12 -->
<g id="edge16" class="edge">
<title>Node3&#45;&gt;Node12</title>
<path fill="none" stroke="midnightblue" d="M492.28,-263.71C511.84,-253.46 535.65,-240.98 553.59,-231.58"/>
<polygon fill="midnightblue" stroke="midnightblue" points="490.58,-260.65 483.35,-268.4 493.83,-266.85 490.58,-260.65"/>
</g>
<!-- Node13 -->
<g id="node13" class="node">
<title>Node13</title>
<g id="a_node13"><a xlink:href="TestSystemData_8hpp.html" target="_top" xlink:title=" ">
<polygon fill="none" stroke="black" points="656.45,-201.5 656.45,-231.5 774.45,-231.5 774.45,-201.5 656.45,-201.5"/>
<text text-anchor="start" x="664.45" y="-219.5" font-family="Helvetica,sans-Serif" font-size="10.00">test/simulation_system</text>
<text text-anchor="middle" x="715.45" y="-208.5" font-family="Helvetica,sans-Serif" font-size="10.00">/TestSystemData.hpp</text>
</a>
</g>
</g>
<!-- Node3&#45;&gt;Node13 -->
<g id="edge18" class="edge">
<title>Node3&#45;&gt;Node13</title>
<path fill="none" stroke="midnightblue" d="M522.25,-265.98C564.56,-255.37 618.94,-241.72 659.22,-231.61"/>
<polygon fill="midnightblue" stroke="midnightblue" points="521.17,-262.65 512.33,-268.48 522.88,-269.44 521.17,-262.65"/>
</g>
<!-- Node6 -->
<g id="node6" class="node">
<title>Node6</title>
<g id="a_node6"><a xlink:href="PotentialHydrodynamics_8cpp.html" target="_top" xlink:title=" ">
<polygon fill="none" stroke="black" points="202.45,-140 202.45,-159 390.45,-159 390.45,-140 202.45,-140"/>
<text text-anchor="middle" x="296.45" y="-147" font-family="Helvetica,sans-Serif" font-size="10.00">src/forces/PotentialHydrodynamics.cpp</text>
</a>
</g>
</g>
<!-- Node5&#45;&gt;Node6 -->
<g id="edge6" class="edge">
<title>Node5&#45;&gt;Node6</title>
<path fill="none" stroke="midnightblue" d="M310.01,-196.91C306.38,-184.49 301.77,-168.72 298.97,-159.13"/>
<polygon fill="midnightblue" stroke="midnightblue" points="306.72,-198.12 312.88,-206.73 313.44,-196.15 306.72,-198.12"/>
</g>
<!-- Node5&#45;&gt;Node7 -->
<g id="edge7" class="edge">
<title>Node5&#45;&gt;Node7</title>
<path fill="none" stroke="midnightblue" d="M277.8,-203.85C236.2,-190.97 170.21,-170.55 133.11,-159.06"/>
<polygon fill="midnightblue" stroke="midnightblue" points="276.97,-207.26 287.56,-206.87 279.04,-200.57 276.97,-207.26"/>
</g>
<!-- Node5&#45;&gt;Node9 -->
<g id="edge13" class="edge">
<title>Node5&#45;&gt;Node9</title>
<path fill="none" stroke="midnightblue" d="M352.95,-202.9C370.37,-194.94 389.41,-182.75 399.45,-165 411.49,-143.71 400.92,-114.76 392.46,-97.71"/>
<polygon fill="midnightblue" stroke="midnightblue" points="351.35,-199.77 343.51,-206.89 354.08,-206.22 351.35,-199.77"/>
</g>
<!-- Node8 -->
<g id="node8" class="node">
<title>Node8</title>
<g id="a_node8"><a xlink:href="RungeKutta4_8cpp.html" target="_top" xlink:title=" ">
<polygon fill="none" stroke="black" points="26.45,-73 26.45,-92 184.45,-92 184.45,-73 26.45,-73"/>
<text text-anchor="middle" x="105.45" y="-80" font-family="Helvetica,sans-Serif" font-size="10.00">src/integrators/RungeKutta4.cpp</text>
</a>
</g>
</g>
<!-- Node7&#45;&gt;Node8 -->
<g id="edge8" class="edge">
<title>Node7&#45;&gt;Node8</title>
<path fill="none" stroke="midnightblue" d="M105.45,-129.54C105.45,-117.17 105.45,-101.62 105.45,-92.13"/>
<polygon fill="midnightblue" stroke="midnightblue" points="101.95,-129.73 105.45,-139.73 108.95,-129.73 101.95,-129.73"/>
</g>
<!-- Node7&#45;&gt;Node9 -->
<g id="edge9" class="edge">
<title>Node7&#45;&gt;Node9</title>
<path fill="none" stroke="midnightblue" d="M152.03,-137.65C200.04,-126.46 274.99,-109 326.73,-96.95"/>
<polygon fill="midnightblue" stroke="midnightblue" points="151.15,-134.26 142.21,-139.94 152.74,-141.08 151.15,-134.26"/>
</g>
<!-- Node9&#45;&gt;Node4 -->
<g id="edge10" class="edge">
<title>Node9&#45;&gt;Node4</title>
<path fill="none" stroke="midnightblue" d="M318.15,-64.99C267,-52.25 198.33,-35.15 157.69,-25.03"/>
<polygon fill="midnightblue" stroke="midnightblue" points="317.58,-68.46 328.13,-67.48 319.28,-61.66 317.58,-68.46"/>
</g>
<!-- Node10 -->
<g id="node10" class="node">
<title>Node10</title>
<g id="a_node10"><a xlink:href="Engine_8cpp.html" target="_top" xlink:title=" ">
<polygon fill="none" stroke="black" points="301.95,-0.5 301.95,-30.5 416.95,-30.5 416.95,-0.5 301.95,-0.5"/>
<text text-anchor="start" x="309.95" y="-18.5" font-family="Helvetica,sans-Serif" font-size="10.00">src/simulation_system</text>
<text text-anchor="middle" x="359.45" y="-7.5" font-family="Helvetica,sans-Serif" font-size="10.00">/Engine.cpp</text>
</a>
</g>
</g>
<!-- Node9&#45;&gt;Node10 -->
<g id="edge11" class="edge">
<title>Node9&#45;&gt;Node10</title>
<path fill="none" stroke="midnightblue" d="M375.4,-57.99C371.87,-48.8 367.94,-38.58 364.86,-30.58"/>
<polygon fill="midnightblue" stroke="midnightblue" points="372.16,-59.32 379.02,-67.4 378.7,-56.81 372.16,-59.32"/>
</g>
<!-- Node9&#45;&gt;Node11 -->
<g id="edge12" class="edge">
<title>Node9&#45;&gt;Node11</title>
<path fill="none" stroke="midnightblue" d="M416.93,-62.31C437.88,-49.93 464.1,-34.43 480.05,-25.01"/>
<polygon fill="midnightblue" stroke="midnightblue" points="415.14,-59.3 408.31,-67.4 418.7,-65.32 415.14,-59.3"/>
</g>
<!-- Node14 -->
<g id="node14" class="node">
<title>Node14</title>
<g id="a_node14"><a xlink:href="TestSimulationSystem_8cpp.html" target="_top" xlink:title=" ">
<polygon fill="none" stroke="black" points="580.95,-140 580.95,-159 733.95,-159 733.95,-140 580.95,-140"/>
<text text-anchor="middle" x="657.45" y="-147" font-family="Helvetica,sans-Serif" font-size="10.00">test/TestSimulationSystem.cpp</text>
</a>
</g>
</g>
<!-- Node13&#45;&gt;Node14 -->
<g id="edge19" class="edge">
<title>Node13&#45;&gt;Node14</title>
<path fill="none" stroke="midnightblue" d="M695.96,-193.66C685.43,-181.86 673.03,-167.97 665.2,-159.19"/>
<polygon fill="midnightblue" stroke="midnightblue" points="693.59,-196.26 702.86,-201.4 698.81,-191.6 693.59,-196.26"/>
</g>
<!-- Node15 -->
<g id="node15" class="node">
<title>Node15</title>
<g id="a_node15"><a xlink:href="TestSystemData_8cpp.html" target="_top" xlink:title=" ">
<polygon fill="none" stroke="black" points="752.45,-134.5 752.45,-164.5 870.45,-164.5 870.45,-134.5 752.45,-134.5"/>
<text text-anchor="start" x="760.45" y="-152.5" font-family="Helvetica,sans-Serif" font-size="10.00">test/simulation_system</text>
<text text-anchor="middle" x="811.45" y="-141.5" font-family="Helvetica,sans-Serif" font-size="10.00">/TestSystemData.cpp</text>
</a>
</g>
</g>
<!-- Node13&#45;&gt;Node15 -->
<g id="edge20" class="edge">
<title>Node13&#45;&gt;Node15</title>
<path fill="none" stroke="midnightblue" d="M744.64,-195.73C759.49,-185.68 777.2,-173.68 790.66,-164.58"/>
<polygon fill="midnightblue" stroke="midnightblue" points="742.59,-192.89 736.28,-201.4 746.52,-198.69 742.59,-192.89"/>
</g>
</g>
</svg>
