<?xml version="1.0" encoding="UTF-8" standalone="no"?>
<!DOCTYPE svg PUBLIC "-//W3C//DTD SVG 1.1//EN"
 "http://www.w3.org/Graphics/SVG/1.1/DTD/svg11.dtd">
<!-- Generated by graphviz version 2.43.0 (0)
 -->
<!-- Title: src/data_io/GSDUtil.hpp Pages: 1 -->
<svg width="840pt" height="363pt"
 viewBox="0.00 0.00 840.31 363.00" xmlns="http://www.w3.org/2000/svg" xmlns:xlink="http://www.w3.org/1999/xlink">
<g id="graph0" class="graph" transform="scale(1 1) rotate(0) translate(4 359)">
<title>src/data_io/GSDUtil.hpp</title>
<!-- Node1 -->
<g id="node1" class="node">
<title>Node1</title>
<g id="a_node1"><a xlink:title=" ">
<polygon fill="#bfbfbf" stroke="black" points="388.81,-335.5 388.81,-354.5 511.81,-354.5 511.81,-335.5 388.81,-335.5"/>
<text text-anchor="middle" x="450.31" y="-342.5" font-family="Helvetica,sans-Serif" font-size="10.00">src/data_io/GSDUtil.hpp</text>
</a>
</g>
</g>
<!-- Node2 -->
<g id="node2" class="node">
<title>Node2</title>
<g id="a_node2"><a xlink:href="GSDUtil_8cpp.html" target="_top" xlink:title=" ">
<polygon fill="none" stroke="black" points="251.81,-274 251.81,-293 374.81,-293 374.81,-274 251.81,-274"/>
<text text-anchor="middle" x="313.31" y="-281" font-family="Helvetica,sans-Serif" font-size="10.00">src/data_io/GSDUtil.cpp</text>
</a>
</g>
</g>
<!-- Node1&#45;&gt;Node2 -->
<g id="edge1" class="edge">
<title>Node1&#45;&gt;Node2</title>
<path fill="none" stroke="midnightblue" d="M421.48,-331.48C394.88,-319.92 356.08,-303.08 332.91,-293.01"/>
<polygon fill="midnightblue" stroke="midnightblue" points="420.12,-334.7 430.68,-335.48 422.91,-328.28 420.12,-334.7"/>
</g>
<!-- Node3 -->
<g id="node3" class="node">
<title>Node3</title>
<g id="a_node3"><a xlink:href="systemData_8hpp.html" target="_top" xlink:title=" ">
<polygon fill="none" stroke="black" points="392.81,-268.5 392.81,-298.5 507.81,-298.5 507.81,-268.5 392.81,-268.5"/>
<text text-anchor="start" x="400.81" y="-286.5" font-family="Helvetica,sans-Serif" font-size="10.00">src/simulation_system</text>
<text text-anchor="middle" x="450.31" y="-275.5" font-family="Helvetica,sans-Serif" font-size="10.00">/systemData.hpp</text>
</a>
</g>
</g>
<!-- Node1&#45;&gt;Node3 -->
<g id="edge2" class="edge">
<title>Node1&#45;&gt;Node3</title>
<path fill="none" stroke="midnightblue" d="M444.01,-325.53C443.28,-316.81 443.44,-306.59 444.48,-298.52"/>
<polygon fill="midnightblue" stroke="midnightblue" points="440.55,-326.06 445.41,-335.48 447.49,-325.09 440.55,-326.06"/>
</g>
<!-- Node3&#45;&gt;Node1 -->
<g id="edge4" class="edge">
<title>Node3&#45;&gt;Node1</title>
<path fill="none" stroke="midnightblue" d="M456.96,-308.7C457.32,-318.19 456.74,-328.47 455.21,-335.48"/>
<polygon fill="midnightblue" stroke="midnightblue" points="460.43,-308.21 456.14,-298.52 453.45,-308.77 460.43,-308.21"/>
</g>
<!-- Node4 -->
<g id="node4" class="node">
<title>Node4</title>
<g id="a_node4"><a xlink:href="main_8cpp.html" target="_top" xlink:title=" ">
<polygon fill="none" stroke="black" points="83.81,-6 83.81,-25 156.81,-25 156.81,-6 83.81,-6"/>
<text text-anchor="middle" x="120.31" y="-13" font-family="Helvetica,sans-Serif" font-size="10.00">src/main.cpp</text>
</a>
</g>
</g>
<!-- Node3&#45;&gt;Node4 -->
<g id="edge3" class="edge">
<title>Node3&#45;&gt;Node4</title>
<path fill="none" stroke="midnightblue" d="M382.66,-268.03C213.02,-239.58 105.28,-305.5 17.31,-165 -5.8,-128.08 -5.73,-103.96 17.31,-67 31.75,-43.85 60.23,-31.01 83.59,-24.08"/>
<polygon fill="midnightblue" stroke="midnightblue" points="382.15,-271.49 392.61,-269.8 383.38,-264.6 382.15,-271.49"/>
</g>
<!-- Node5 -->
<g id="node5" class="node">
<title>Node5</title>
<g id="a_node5"><a xlink:href="potentialHydrodynamics_8hpp.html" target="_top" xlink:title=" ">
<polygon fill="none" stroke="black" points="216.81,-207 216.81,-226 403.81,-226 403.81,-207 216.81,-207"/>
<text text-anchor="middle" x="310.31" y="-214" font-family="Helvetica,sans-Serif" font-size="10.00">src/forces/potentialHydrodynamics.hpp</text>
</a>
</g>
</g>
<!-- Node3&#45;&gt;Node5 -->
<g id="edge5" class="edge">
<title>Node3&#45;&gt;Node5</title>
<path fill="none" stroke="midnightblue" d="M410.75,-264.13C383.8,-251.62 349.38,-235.64 328.64,-226.01"/>
<polygon fill="midnightblue" stroke="midnightblue" points="409.39,-267.36 419.94,-268.4 412.34,-261.01 409.39,-267.36"/>
</g>
<!-- Node7 -->
<g id="node7" class="node">
<title>Node7</title>
<g id="a_node7"><a xlink:href="rungeKutta4_8hpp.html" target="_top" xlink:title=" ">
<polygon fill="none" stroke="black" points="26.81,-140 26.81,-159 179.81,-159 179.81,-140 26.81,-140"/>
<text text-anchor="middle" x="103.31" y="-147" font-family="Helvetica,sans-Serif" font-size="10.00">src/integrators/rungeKutta4.hpp</text>
</a>
</g>
</g>
<!-- Node3&#45;&gt;Node7 -->
<g id="edge14" class="edge">
<title>Node3&#45;&gt;Node7</title>
<path fill="none" stroke="midnightblue" d="M382.61,-267.95C303.13,-252.57 276.95,-264.21 207.31,-232 166.92,-213.32 128.02,-176.15 111.55,-159.24"/>
<polygon fill="midnightblue" stroke="midnightblue" points="382.08,-271.41 392.58,-269.96 383.47,-264.55 382.08,-271.41"/>
</g>
<!-- Node9 -->
<g id="node9" class="node">
<title>Node9</title>
<g id="a_node9"><a xlink:href="engine_8hpp.html" target="_top" xlink:title=" ">
<polygon fill="none" stroke="black" points="320.81,-67.5 320.81,-97.5 435.81,-97.5 435.81,-67.5 320.81,-67.5"/>
<text text-anchor="start" x="328.81" y="-85.5" font-family="Helvetica,sans-Serif" font-size="10.00">src/simulation_system</text>
<text text-anchor="middle" x="378.31" y="-74.5" font-family="Helvetica,sans-Serif" font-size="10.00">/engine.hpp</text>
</a>
</g>
</g>
<!-- Node3&#45;&gt;Node9 -->
<g id="edge15" class="edge">
<title>Node3&#45;&gt;Node9</title>
<path fill="none" stroke="midnightblue" d="M446.09,-258.08C440.36,-228.02 428.68,-175.8 410.31,-134 404.64,-121.08 395.96,-107.63 389.07,-97.87"/>
<polygon fill="midnightblue" stroke="midnightblue" points="442.68,-258.9 447.93,-268.1 449.56,-257.63 442.68,-258.9"/>
</g>
<!-- Node11 -->
<g id="node11" class="node">
<title>Node11</title>
<g id="a_node11"><a xlink:href="test-simulation_8cpp.html" target="_top" xlink:title=" ">
<polygon fill="none" stroke="black" points="428.81,-6 428.81,-25 547.81,-25 547.81,-6 428.81,-6"/>
<text text-anchor="middle" x="488.31" y="-13" font-family="Helvetica,sans-Serif" font-size="10.00">test/test&#45;simulation.cpp</text>
</a>
</g>
</g>
<!-- Node3&#45;&gt;Node11 -->
<g id="edge17" class="edge">
<title>Node3&#45;&gt;Node11</title>
<path fill="none" stroke="midnightblue" d="M453.77,-258.28C461.91,-201.34 481.94,-61.08 487.09,-25.05"/>
<polygon fill="midnightblue" stroke="midnightblue" points="450.31,-257.8 452.36,-268.2 457.24,-258.79 450.31,-257.8"/>
</g>
<!-- Node12 -->
<g id="node12" class="node">
<title>Node12</title>
<g id="a_node12"><a xlink:href="systemData_8cpp.html" target="_top" xlink:title=" ">
<polygon fill="none" stroke="black" points="516.81,-201.5 516.81,-231.5 631.81,-231.5 631.81,-201.5 516.81,-201.5"/>
<text text-anchor="start" x="524.81" y="-219.5" font-family="Helvetica,sans-Serif" font-size="10.00">src/simulation_system</text>
<text text-anchor="middle" x="574.31" y="-208.5" font-family="Helvetica,sans-Serif" font-size="10.00">/systemData.cpp</text>
</a>
</g>
</g>
<!-- Node3&#45;&gt;Node12 -->
<g id="edge16" class="edge">
<title>Node3&#45;&gt;Node12</title>
<path fill="none" stroke="midnightblue" d="M486.15,-263.71C505.71,-253.46 529.52,-240.98 547.46,-231.58"/>
<polygon fill="midnightblue" stroke="midnightblue" points="484.45,-260.65 477.22,-268.4 487.7,-266.85 484.45,-260.65"/>
</g>
<!-- Node13 -->
<g id="node13" class="node">
<title>Node13</title>
<g id="a_node13"><a xlink:href="testSystemData_8hpp.html" target="_top" xlink:title=" ">
<polygon fill="none" stroke="black" points="650.31,-201.5 650.31,-231.5 768.31,-231.5 768.31,-201.5 650.31,-201.5"/>
<text text-anchor="start" x="658.31" y="-219.5" font-family="Helvetica,sans-Serif" font-size="10.00">test/simulation_system</text>
<text text-anchor="middle" x="709.31" y="-208.5" font-family="Helvetica,sans-Serif" font-size="10.00">/testSystemData.hpp</text>
</a>
</g>
</g>
<!-- Node3&#45;&gt;Node13 -->
<g id="edge18" class="edge">
<title>Node3&#45;&gt;Node13</title>
<path fill="none" stroke="midnightblue" d="M516.12,-265.98C558.43,-255.37 612.81,-241.72 653.09,-231.61"/>
<polygon fill="midnightblue" stroke="midnightblue" points="515.04,-262.65 506.19,-268.48 516.74,-269.44 515.04,-262.65"/>
</g>
<!-- Node6 -->
<g id="node6" class="node">
<title>Node6</title>
<g id="a_node6"><a xlink:href="potentialHydrodynamics_8cpp.html" target="_top" xlink:title=" ">
<polygon fill="none" stroke="black" points="197.81,-140 197.81,-159 384.81,-159 384.81,-140 197.81,-140"/>
<text text-anchor="middle" x="291.31" y="-147" font-family="Helvetica,sans-Serif" font-size="10.00">src/forces/potentialHydrodynamics.cpp</text>
</a>
</g>
</g>
<!-- Node5&#45;&gt;Node6 -->
<g id="edge6" class="edge">
<title>Node5&#45;&gt;Node6</title>
<path fill="none" stroke="midnightblue" d="M304.88,-196.91C301.25,-184.49 296.64,-168.72 293.84,-159.13"/>
<polygon fill="midnightblue" stroke="midnightblue" points="301.59,-198.12 307.75,-206.73 308.3,-196.15 301.59,-198.12"/>
</g>
<!-- Node5&#45;&gt;Node7 -->
<g id="edge7" class="edge">
<title>Node5&#45;&gt;Node7</title>
<path fill="none" stroke="midnightblue" d="M273.2,-203.85C232.2,-190.97 167.15,-170.55 130.59,-159.06"/>
<polygon fill="midnightblue" stroke="midnightblue" points="272.24,-207.21 282.83,-206.87 274.33,-200.53 272.24,-207.21"/>
</g>
<!-- Node5&#45;&gt;Node9 -->
<g id="edge13" class="edge">
<title>Node5&#45;&gt;Node9</title>
<path fill="none" stroke="midnightblue" d="M347.02,-202.96C364.33,-194.98 383.34,-182.74 393.31,-165 405.3,-143.68 394.75,-114.74 386.31,-97.69"/>
<polygon fill="midnightblue" stroke="midnightblue" points="345.47,-199.81 337.64,-206.96 348.21,-206.25 345.47,-199.81"/>
</g>
<!-- Node8 -->
<g id="node8" class="node">
<title>Node8</title>
<g id="a_node8"><a xlink:href="rungeKutta4_8cpp.html" target="_top" xlink:title=" ">
<polygon fill="none" stroke="black" points="26.81,-73 26.81,-92 179.81,-92 179.81,-73 26.81,-73"/>
<text text-anchor="middle" x="103.31" y="-80" font-family="Helvetica,sans-Serif" font-size="10.00">src/integrators/rungeKutta4.cpp</text>
</a>
</g>
</g>
<!-- Node7&#45;&gt;Node8 -->
<g id="edge8" class="edge">
<title>Node7&#45;&gt;Node8</title>
<path fill="none" stroke="midnightblue" d="M103.31,-129.54C103.31,-117.17 103.31,-101.62 103.31,-92.13"/>
<polygon fill="midnightblue" stroke="midnightblue" points="99.81,-129.73 103.31,-139.73 106.81,-129.73 99.81,-129.73"/>
</g>
<!-- Node7&#45;&gt;Node9 -->
<g id="edge9" class="edge">
<title>Node7&#45;&gt;Node9</title>
<path fill="none" stroke="midnightblue" d="M149.47,-137.59C196.57,-126.46 269.77,-109.16 320.65,-97.13"/>
<polygon fill="midnightblue" stroke="midnightblue" points="148.47,-134.23 139.55,-139.94 150.08,-141.04 148.47,-134.23"/>
</g>
<!-- Node9&#45;&gt;Node4 -->
<g id="edge10" class="edge">
<title>Node9&#45;&gt;Node4</title>
<path fill="none" stroke="midnightblue" d="M312.78,-64.99C262.22,-52.25 194.33,-35.15 154.17,-25.03"/>
<polygon fill="midnightblue" stroke="midnightblue" points="312.1,-68.43 322.65,-67.48 313.81,-61.64 312.1,-68.43"/>
</g>
<!-- Node10 -->
<g id="node10" class="node">
<title>Node10</title>
<g id="a_node10"><a xlink:href="engine_8cpp.html" target="_top" xlink:title=" ">
<polygon fill="none" stroke="black" points="295.81,-0.5 295.81,-30.5 410.81,-30.5 410.81,-0.5 295.81,-0.5"/>
<text text-anchor="start" x="303.81" y="-18.5" font-family="Helvetica,sans-Serif" font-size="10.00">src/simulation_system</text>
<text text-anchor="middle" x="353.31" y="-7.5" font-family="Helvetica,sans-Serif" font-size="10.00">/engine.cpp</text>
</a>
</g>
</g>
<!-- Node9&#45;&gt;Node10 -->
<g id="edge11" class="edge">
<title>Node9&#45;&gt;Node10</title>
<path fill="none" stroke="midnightblue" d="M369.27,-57.99C365.74,-48.8 361.8,-38.58 358.73,-30.58"/>
<polygon fill="midnightblue" stroke="midnightblue" points="366.03,-59.32 372.89,-67.4 372.57,-56.81 366.03,-59.32"/>
</g>
<!-- Node9&#45;&gt;Node11 -->
<g id="edge12" class="edge">
<title>Node9&#45;&gt;Node11</title>
<path fill="none" stroke="midnightblue" d="M410.79,-62.31C431.75,-49.93 457.97,-34.43 473.92,-25.01"/>
<polygon fill="midnightblue" stroke="midnightblue" points="409.01,-59.3 402.18,-67.4 412.57,-65.32 409.01,-59.3"/>
</g>
<!-- Node14 -->
<g id="node14" class="node">
<title>Node14</title>
<g id="a_node14"><a xlink:href="test-simulation__system_8cpp.html" target="_top" xlink:title=" ">
<polygon fill="none" stroke="black" points="596.31,-134.5 596.31,-164.5 696.31,-164.5 696.31,-134.5 596.31,-134.5"/>
<text text-anchor="start" x="604.31" y="-152.5" font-family="Helvetica,sans-Serif" font-size="10.00">test/test&#45;simulation</text>
<text text-anchor="middle" x="646.31" y="-141.5" font-family="Helvetica,sans-Serif" font-size="10.00">_system.cpp</text>
</a>
</g>
</g>
<!-- Node13&#45;&gt;Node14 -->
<g id="edge19" class="edge">
<title>Node13&#45;&gt;Node14</title>
<path fill="none" stroke="midnightblue" d="M688.5,-194.02C679.11,-184.34 668.29,-173.17 659.96,-164.58"/>
<polygon fill="midnightblue" stroke="midnightblue" points="686.17,-196.65 695.64,-201.4 691.2,-191.78 686.17,-196.65"/>
</g>
<!-- Node15 -->
<g id="node15" class="node">
<title>Node15</title>
<g id="a_node15"><a xlink:href="testSystemData_8cpp.html" target="_top" xlink:title=" ">
<polygon fill="none" stroke="black" points="714.31,-134.5 714.31,-164.5 832.31,-164.5 832.31,-134.5 714.31,-134.5"/>
<text text-anchor="start" x="722.31" y="-152.5" font-family="Helvetica,sans-Serif" font-size="10.00">test/simulation_system</text>
<text text-anchor="middle" x="773.31" y="-141.5" font-family="Helvetica,sans-Serif" font-size="10.00">/testSystemData.cpp</text>
</a>
</g>
</g>
<!-- Node13&#45;&gt;Node15 -->
<g id="edge20" class="edge">
<title>Node13&#45;&gt;Node15</title>
<path fill="none" stroke="midnightblue" d="M730.46,-194.02C739.99,-184.34 750.99,-173.17 759.45,-164.58"/>
<polygon fill="midnightblue" stroke="midnightblue" points="727.72,-191.81 723.2,-201.4 732.71,-196.73 727.72,-191.81"/>
</g>
</g>
</svg>
