<?xml version="1.0" encoding="UTF-8" standalone="no"?>
<!DOCTYPE svg PUBLIC "-//W3C//DTD SVG 1.1//EN"
 "http://www.w3.org/Graphics/SVG/1.1/DTD/svg11.dtd">
<!-- Generated by graphviz version 2.43.0 (0)
 -->
<!-- Title: src/data_io/GSDUtil.hpp Pages: 1 -->
<svg width="638pt" height="352pt"
 viewBox="0.00 0.00 637.72 352.00" xmlns="http://www.w3.org/2000/svg" xmlns:xlink="http://www.w3.org/1999/xlink">
<g id="graph0" class="graph" transform="scale(1 1) rotate(0) translate(4 348)">
<title>src/data_io/GSDUtil.hpp</title>
<!-- Node1 -->
<g id="node1" class="node">
<title>Node1</title>
<g id="a_node1"><a xlink:title=" ">
<polygon fill="#bfbfbf" stroke="black" points="325.72,-324.5 325.72,-343.5 448.72,-343.5 448.72,-324.5 325.72,-324.5"/>
<text text-anchor="middle" x="387.22" y="-331.5" font-family="Helvetica,sans-Serif" font-size="10.00">src/data_io/GSDUtil.hpp</text>
</a>
</g>
</g>
<!-- Node2 -->
<g id="node2" class="node">
<title>Node2</title>
<g id="a_node2"><a xlink:href="GSDUtil_8cpp.html" target="_top" xlink:title=" ">
<polygon fill="none" stroke="black" points="188.72,-263 188.72,-282 311.72,-282 311.72,-263 188.72,-263"/>
<text text-anchor="middle" x="250.22" y="-270" font-family="Helvetica,sans-Serif" font-size="10.00">src/data_io/GSDUtil.cpp</text>
</a>
</g>
</g>
<!-- Node1&#45;&gt;Node2 -->
<g id="edge1" class="edge">
<title>Node1&#45;&gt;Node2</title>
<path fill="none" stroke="midnightblue" d="M358.39,-320.48C331.79,-308.92 292.99,-292.08 269.81,-282.01"/>
<polygon fill="midnightblue" stroke="midnightblue" points="357.03,-323.7 367.59,-324.48 359.81,-317.28 357.03,-323.7"/>
</g>
<!-- Node3 -->
<g id="node3" class="node">
<title>Node3</title>
<g id="a_node3"><a xlink:href="systemData_8hpp.html" target="_top" xlink:title=" ">
<polygon fill="none" stroke="black" points="329.72,-257.5 329.72,-287.5 444.72,-287.5 444.72,-257.5 329.72,-257.5"/>
<text text-anchor="start" x="337.72" y="-275.5" font-family="Helvetica,sans-Serif" font-size="10.00">src/simulation_system</text>
<text text-anchor="middle" x="387.22" y="-264.5" font-family="Helvetica,sans-Serif" font-size="10.00">/systemData.hpp</text>
</a>
</g>
</g>
<!-- Node1&#45;&gt;Node3 -->
<g id="edge2" class="edge">
<title>Node1&#45;&gt;Node3</title>
<path fill="none" stroke="midnightblue" d="M380.92,-314.53C380.19,-305.81 380.35,-295.59 381.39,-287.52"/>
<polygon fill="midnightblue" stroke="midnightblue" points="377.46,-315.06 382.32,-324.48 384.39,-314.09 377.46,-315.06"/>
</g>
<!-- Node3&#45;&gt;Node1 -->
<g id="edge4" class="edge">
<title>Node3&#45;&gt;Node1</title>
<path fill="none" stroke="midnightblue" d="M393.87,-297.7C394.23,-307.19 393.65,-317.47 392.12,-324.48"/>
<polygon fill="midnightblue" stroke="midnightblue" points="397.34,-297.21 393.05,-287.52 390.36,-297.77 397.34,-297.21"/>
</g>
<!-- Node4 -->
<g id="node4" class="node">
<title>Node4</title>
<g id="a_node4"><a xlink:href="main_8cpp.html" target="_top" xlink:title=" ">
<polygon fill="none" stroke="black" points="73.72,-6 73.72,-25 146.72,-25 146.72,-6 73.72,-6"/>
<text text-anchor="middle" x="110.22" y="-13" font-family="Helvetica,sans-Serif" font-size="10.00">src/main.cpp</text>
</a>
</g>
</g>
<!-- Node3&#45;&gt;Node4 -->
<g id="edge3" class="edge">
<title>Node3&#45;&gt;Node4</title>
<path fill="none" stroke="midnightblue" d="M319.71,-256.77C176.99,-228.6 89.83,-272.79 15.22,-154 -5.34,-121.26 -4.69,-100.14 15.22,-67 28.31,-45.23 54.3,-32.33 75.79,-25.03"/>
<polygon fill="midnightblue" stroke="midnightblue" points="319.13,-260.23 329.63,-258.83 320.55,-253.37 319.13,-260.23"/>
</g>
<!-- Node5 -->
<g id="node5" class="node">
<title>Node5</title>
<g id="a_node5"><a xlink:href="potentialHydrodynamics_8hpp.html" target="_top" xlink:title=" ">
<polygon fill="none" stroke="black" points="214.72,-196 214.72,-215 401.72,-215 401.72,-196 214.72,-196"/>
<text text-anchor="middle" x="308.22" y="-203" font-family="Helvetica,sans-Serif" font-size="10.00">src/forces/potentialHydrodynamics.hpp</text>
</a>
</g>
</g>
<!-- Node3&#45;&gt;Node5 -->
<g id="edge5" class="edge">
<title>Node3&#45;&gt;Node5</title>
<path fill="none" stroke="midnightblue" d="M362.32,-251.01C347.65,-238.94 329.86,-224.3 318.79,-215.19"/>
<polygon fill="midnightblue" stroke="midnightblue" points="360.13,-253.75 370.08,-257.4 364.58,-248.34 360.13,-253.75"/>
</g>
<!-- Node7 -->
<g id="node7" class="node">
<title>Node7</title>
<g id="a_node7"><a xlink:href="rungeKutta4_8hpp.html" target="_top" xlink:title=" ">
<polygon fill="none" stroke="black" points="24.72,-134.5 24.72,-153.5 177.72,-153.5 177.72,-134.5 24.72,-134.5"/>
<text text-anchor="middle" x="101.22" y="-141.5" font-family="Helvetica,sans-Serif" font-size="10.00">src/integrators/rungeKutta4.hpp</text>
</a>
</g>
</g>
<!-- Node3&#45;&gt;Node7 -->
<g id="edge14" class="edge">
<title>Node3&#45;&gt;Node7</title>
<path fill="none" stroke="midnightblue" d="M319.58,-255.27C277,-244.55 226.4,-230.73 206.22,-221 167.51,-202.33 128.11,-169.21 110.6,-153.6"/>
<polygon fill="midnightblue" stroke="midnightblue" points="318.82,-258.69 329.37,-257.72 320.52,-251.9 318.82,-258.69"/>
</g>
<!-- Node9 -->
<g id="node9" class="node">
<title>Node9</title>
<g id="a_node9"><a xlink:href="engine_8hpp.html" target="_top" xlink:title=" ">
<polygon fill="none" stroke="black" points="310.72,-67.5 310.72,-97.5 425.72,-97.5 425.72,-67.5 310.72,-67.5"/>
<text text-anchor="start" x="318.72" y="-85.5" font-family="Helvetica,sans-Serif" font-size="10.00">src/simulation_system</text>
<text text-anchor="middle" x="368.22" y="-74.5" font-family="Helvetica,sans-Serif" font-size="10.00">/engine.hpp</text>
</a>
</g>
</g>
<!-- Node3&#45;&gt;Node9 -->
<g id="edge15" class="edge">
<title>Node3&#45;&gt;Node9</title>
<path fill="none" stroke="midnightblue" d="M401,-248.08C405.14,-239.81 409.13,-230.26 411.22,-221 414.99,-204.28 407.74,-135.35 407.22,-134 401.93,-120.13 391.49,-106.94 382.75,-97.53"/>
<polygon fill="midnightblue" stroke="midnightblue" points="397.81,-246.63 396.18,-257.1 403.98,-249.93 397.81,-246.63"/>
</g>
<!-- Node11 -->
<g id="node11" class="node">
<title>Node11</title>
<g id="a_node11"><a xlink:href="testsSimulationBuild_8cpp.html" target="_top" xlink:title=" ">
<polygon fill="none" stroke="black" points="411.72,-6 411.72,-25 560.72,-25 560.72,-6 411.72,-6"/>
<text text-anchor="middle" x="486.22" y="-13" font-family="Helvetica,sans-Serif" font-size="10.00">tests/testsSimulationBuild.cpp</text>
</a>
</g>
</g>
<!-- Node3&#45;&gt;Node11 -->
<g id="edge17" class="edge">
<title>Node3&#45;&gt;Node11</title>
<path fill="none" stroke="midnightblue" d="M406.46,-249.51C413.12,-241.04 420.18,-230.99 425.22,-221 461.12,-149.89 479.75,-53.98 484.79,-25.08"/>
<polygon fill="midnightblue" stroke="midnightblue" points="403.63,-247.44 400.01,-257.4 409.05,-251.87 403.63,-247.44"/>
</g>
<!-- Node12 -->
<g id="node12" class="node">
<title>Node12</title>
<g id="a_node12"><a xlink:href="systemData_8cpp.html" target="_top" xlink:title=" ">
<polygon fill="none" stroke="black" points="514.72,-190.5 514.72,-220.5 629.72,-220.5 629.72,-190.5 514.72,-190.5"/>
<text text-anchor="start" x="522.72" y="-208.5" font-family="Helvetica,sans-Serif" font-size="10.00">src/simulation_system</text>
<text text-anchor="middle" x="572.22" y="-197.5" font-family="Helvetica,sans-Serif" font-size="10.00">/systemData.cpp</text>
</a>
</g>
</g>
<!-- Node3&#45;&gt;Node12 -->
<g id="edge16" class="edge">
<title>Node3&#45;&gt;Node12</title>
<path fill="none" stroke="midnightblue" d="M437.16,-253.96C466.96,-243.48 504.3,-230.37 532.16,-220.58"/>
<polygon fill="midnightblue" stroke="midnightblue" points="435.64,-250.78 427.36,-257.4 437.96,-257.38 435.64,-250.78"/>
</g>
<!-- Node6 -->
<g id="node6" class="node">
<title>Node6</title>
<g id="a_node6"><a xlink:href="potentialHydrodynamics_8cpp.html" target="_top" xlink:title=" ">
<polygon fill="none" stroke="black" points="195.72,-134.5 195.72,-153.5 382.72,-153.5 382.72,-134.5 195.72,-134.5"/>
<text text-anchor="middle" x="289.22" y="-141.5" font-family="Helvetica,sans-Serif" font-size="10.00">src/forces/potentialHydrodynamics.cpp</text>
</a>
</g>
</g>
<!-- Node5&#45;&gt;Node6 -->
<g id="edge6" class="edge">
<title>Node5&#45;&gt;Node6</title>
<path fill="none" stroke="midnightblue" d="M302.36,-186.16C298.89,-175.27 294.65,-161.99 291.94,-153.51"/>
<polygon fill="midnightblue" stroke="midnightblue" points="299.12,-187.51 305.5,-195.98 305.79,-185.38 299.12,-187.51"/>
</g>
<!-- Node5&#45;&gt;Node7 -->
<g id="edge7" class="edge">
<title>Node5&#45;&gt;Node7</title>
<path fill="none" stroke="midnightblue" d="M268.82,-193.18C228.6,-181.61 167.08,-163.93 130.82,-153.51"/>
<polygon fill="midnightblue" stroke="midnightblue" points="267.99,-196.58 278.56,-195.98 269.92,-189.85 267.99,-196.58"/>
</g>
<!-- Node5&#45;&gt;Node9 -->
<g id="edge13" class="edge">
<title>Node5&#45;&gt;Node9</title>
<path fill="none" stroke="midnightblue" d="M345.72,-191.9C363.14,-183.94 382.18,-171.75 392.22,-154 402.53,-135.77 390.18,-112.38 379.72,-97.66"/>
<polygon fill="midnightblue" stroke="midnightblue" points="344.13,-188.77 336.28,-195.89 346.86,-195.22 344.13,-188.77"/>
</g>
<!-- Node8 -->
<g id="node8" class="node">
<title>Node8</title>
<g id="a_node8"><a xlink:href="rungeKutta4_8cpp.html" target="_top" xlink:title=" ">
<polygon fill="none" stroke="black" points="24.72,-73 24.72,-92 177.72,-92 177.72,-73 24.72,-73"/>
<text text-anchor="middle" x="101.22" y="-80" font-family="Helvetica,sans-Serif" font-size="10.00">src/integrators/rungeKutta4.cpp</text>
</a>
</g>
</g>
<!-- Node7&#45;&gt;Node8 -->
<g id="edge8" class="edge">
<title>Node7&#45;&gt;Node8</title>
<path fill="none" stroke="midnightblue" d="M101.22,-124.32C101.22,-113.5 101.22,-100.4 101.22,-92.01"/>
<polygon fill="midnightblue" stroke="midnightblue" points="97.72,-124.48 101.22,-134.48 104.72,-124.48 97.72,-124.48"/>
</g>
<!-- Node7&#45;&gt;Node9 -->
<g id="edge9" class="edge">
<title>Node7&#45;&gt;Node9</title>
<path fill="none" stroke="midnightblue" d="M149.34,-132.28C194.63,-122.19 262.48,-107.06 310.62,-96.34"/>
<polygon fill="midnightblue" stroke="midnightblue" points="148.48,-128.88 139.48,-134.48 150,-135.72 148.48,-128.88"/>
</g>
<!-- Node9&#45;&gt;Node4 -->
<g id="edge10" class="edge">
<title>Node9&#45;&gt;Node4</title>
<path fill="none" stroke="midnightblue" d="M302.69,-64.99C252.13,-52.25 184.24,-35.15 144.07,-25.03"/>
<polygon fill="midnightblue" stroke="midnightblue" points="302,-68.43 312.56,-67.48 303.72,-61.64 302,-68.43"/>
</g>
<!-- Node10 -->
<g id="node10" class="node">
<title>Node10</title>
<g id="a_node10"><a xlink:href="engine_8cpp.html" target="_top" xlink:title=" ">
<polygon fill="none" stroke="black" points="278.72,-0.5 278.72,-30.5 393.72,-30.5 393.72,-0.5 278.72,-0.5"/>
<text text-anchor="start" x="286.72" y="-18.5" font-family="Helvetica,sans-Serif" font-size="10.00">src/simulation_system</text>
<text text-anchor="middle" x="336.22" y="-7.5" font-family="Helvetica,sans-Serif" font-size="10.00">/engine.cpp</text>
</a>
</g>
</g>
<!-- Node9&#45;&gt;Node10 -->
<g id="edge11" class="edge">
<title>Node9&#45;&gt;Node10</title>
<path fill="none" stroke="midnightblue" d="M356.79,-58.28C352.23,-49.02 347.13,-38.66 343.15,-30.58"/>
<polygon fill="midnightblue" stroke="midnightblue" points="353.72,-59.97 361.28,-67.4 360,-56.88 353.72,-59.97"/>
</g>
<!-- Node9&#45;&gt;Node11 -->
<g id="edge12" class="edge">
<title>Node9&#45;&gt;Node11</title>
<path fill="none" stroke="midnightblue" d="M402.76,-62.47C425.29,-50.06 453.6,-34.47 470.78,-25.01"/>
<polygon fill="midnightblue" stroke="midnightblue" points="400.9,-59.51 393.83,-67.4 404.27,-65.64 400.9,-59.51"/>
</g>
</g>
</svg>
