<?xml version="1.0" encoding="UTF-8" standalone="no"?>
<!DOCTYPE svg PUBLIC "-//W3C//DTD SVG 1.1//EN"
 "http://www.w3.org/Graphics/SVG/1.1/DTD/svg11.dtd">
<!-- Generated by graphviz version 2.43.0 (0)
 -->
<!-- Title: src/data_io/GSDUtil.cpp Pages: 1 -->
<svg width="1057pt" height="274pt"
 viewBox="0.00 0.00 1056.50 274.00" xmlns="http://www.w3.org/2000/svg" xmlns:xlink="http://www.w3.org/1999/xlink">
<g id="graph0" class="graph" transform="scale(1 1) rotate(0) translate(4 270)">
<title>src/data_io/GSDUtil.cpp</title>
<!-- Node1 -->
<g id="node1" class="node">
<title>Node1</title>
<g id="a_node1"><a xlink:title=" ">
<polygon fill="#bfbfbf" stroke="black" points="539.5,-246.5 539.5,-265.5 662.5,-265.5 662.5,-246.5 539.5,-246.5"/>
<text text-anchor="middle" x="601" y="-253.5" font-family="Helvetica,sans-Serif" font-size="10.00">src/data_io/GSDUtil.cpp</text>
</a>
</g>
</g>
<!-- Node2 -->
<g id="node2" class="node">
<title>Node2</title>
<g id="a_node2"><a xlink:href="GSDUtil_8hpp.html" target="_top" xlink:title=" ">
<polygon fill="none" stroke="black" points="565,-190.5 565,-209.5 637,-209.5 637,-190.5 565,-190.5"/>
<text text-anchor="middle" x="601" y="-197.5" font-family="Helvetica,sans-Serif" font-size="10.00">GSDUtil.hpp</text>
</a>
</g>
</g>
<!-- Node1&#45;&gt;Node2 -->
<g id="edge1" class="edge">
<title>Node1&#45;&gt;Node2</title>
<path fill="none" stroke="midnightblue" d="M601,-246.08C601,-239.01 601,-228.86 601,-219.99"/>
<polygon fill="midnightblue" stroke="midnightblue" points="604.5,-219.75 601,-209.75 597.5,-219.75 604.5,-219.75"/>
</g>
<!-- Node3 -->
<g id="node3" class="node">
<title>Node3</title>
<g id="a_node3"><a xlink:href="gsd_8h.html" target="_top" xlink:title="Declare GSD data types and C API.">
<polygon fill="none" stroke="black" points="78.5,-73 78.5,-92 119.5,-92 119.5,-73 78.5,-73"/>
<text text-anchor="middle" x="99" y="-80" font-family="Helvetica,sans-Serif" font-size="10.00">gsd.h</text>
</a>
</g>
</g>
<!-- Node2&#45;&gt;Node3 -->
<g id="edge2" class="edge">
<title>Node2&#45;&gt;Node3</title>
<path fill="none" stroke="midnightblue" d="M564.86,-194.65C484.58,-184.26 286.1,-154.55 129,-98 127.57,-97.49 126.12,-96.92 124.67,-96.33"/>
<polygon fill="midnightblue" stroke="midnightblue" points="125.8,-93 115.24,-92.11 122.94,-99.39 125.8,-93"/>
</g>
<!-- Node7 -->
<g id="node7" class="node">
<title>Node7</title>
<g id="a_node7"><a xlink:href="systemData_8hpp.html" target="_top" xlink:title=" ">
<polygon fill="none" stroke="black" points="556.5,-134.5 556.5,-153.5 645.5,-153.5 645.5,-134.5 556.5,-134.5"/>
<text text-anchor="middle" x="601" y="-141.5" font-family="Helvetica,sans-Serif" font-size="10.00">systemData.hpp</text>
</a>
</g>
</g>
<!-- Node2&#45;&gt;Node7 -->
<g id="edge6" class="edge">
<title>Node2&#45;&gt;Node7</title>
<path fill="none" stroke="midnightblue" d="M595.83,-190.08C594.32,-182.93 593.89,-172.64 594.54,-163.69"/>
<polygon fill="midnightblue" stroke="midnightblue" points="598.02,-164.13 595.87,-153.75 591.08,-163.2 598.02,-164.13"/>
</g>
<!-- Node8 -->
<g id="node8" class="node">
<title>Node8</title>
<g id="a_node8"><a xlink:title=" ">
<polygon fill="none" stroke="#bfbfbf" points="138,-67.5 138,-97.5 236,-97.5 236,-67.5 138,-67.5"/>
<text text-anchor="start" x="146" y="-85.5" font-family="Helvetica,sans-Serif" font-size="10.00">spdlog/sinks/basic</text>
<text text-anchor="middle" x="187" y="-74.5" font-family="Helvetica,sans-Serif" font-size="10.00">_file_sink.h</text>
</a>
</g>
</g>
<!-- Node2&#45;&gt;Node8 -->
<g id="edge23" class="edge">
<title>Node2&#45;&gt;Node8</title>
<path fill="none" stroke="midnightblue" d="M566.58,-190.45C531.41,-181.63 475.27,-167.33 427,-154 363.75,-136.54 291.56,-115.13 243.02,-100.52"/>
<polygon fill="midnightblue" stroke="midnightblue" points="243.91,-97.13 233.33,-97.6 241.89,-103.83 243.91,-97.13"/>
</g>
<!-- Node9 -->
<g id="node9" class="node">
<title>Node9</title>
<g id="a_node9"><a xlink:title=" ">
<polygon fill="none" stroke="#bfbfbf" points="254.5,-73 254.5,-92 339.5,-92 339.5,-73 254.5,-73"/>
<text text-anchor="middle" x="297" y="-80" font-family="Helvetica,sans-Serif" font-size="10.00">spdlog/spdlog.h</text>
</a>
</g>
</g>
<!-- Node2&#45;&gt;Node9 -->
<g id="edge24" class="edge">
<title>Node2&#45;&gt;Node9</title>
<path fill="none" stroke="midnightblue" d="M578.15,-190.32C524.65,-169.99 391.13,-119.26 329.33,-95.78"/>
<polygon fill="midnightblue" stroke="midnightblue" points="330.29,-92.4 319.7,-92.12 327.8,-98.95 330.29,-92.4"/>
</g>
<!-- Node15 -->
<g id="node15" class="node">
<title>Node15</title>
<g id="a_node15"><a xlink:title=" ">
<polygon fill="none" stroke="#bfbfbf" points="860,-73 860,-92 912,-92 912,-73 860,-73"/>
<text text-anchor="middle" x="886" y="-80" font-family="Helvetica,sans-Serif" font-size="10.00">memory</text>
</a>
</g>
</g>
<!-- Node2&#45;&gt;Node15 -->
<g id="edge25" class="edge">
<title>Node2&#45;&gt;Node15</title>
<path fill="none" stroke="midnightblue" d="M622.43,-190.42C665.68,-173.07 766.52,-132.57 851,-98 852.59,-97.35 854.22,-96.68 855.87,-96"/>
<polygon fill="midnightblue" stroke="midnightblue" points="857.38,-99.17 865.28,-92.12 854.71,-92.7 857.38,-99.17"/>
</g>
<!-- Node16 -->
<g id="node16" class="node">
<title>Node16</title>
<g id="a_node16"><a xlink:title=" ">
<polygon fill="none" stroke="#bfbfbf" points="930.5,-73 930.5,-92 989.5,-92 989.5,-73 930.5,-73"/>
<text text-anchor="middle" x="960" y="-80" font-family="Helvetica,sans-Serif" font-size="10.00">stdexcept</text>
</a>
</g>
</g>
<!-- Node2&#45;&gt;Node16 -->
<g id="edge26" class="edge">
<title>Node2&#45;&gt;Node16</title>
<path fill="none" stroke="midnightblue" d="M631.09,-190.42C661.82,-181.58 710.86,-167.26 753,-154 828.08,-130.38 846.77,-124.16 921,-98 923.24,-97.21 925.55,-96.38 927.88,-95.54"/>
<polygon fill="midnightblue" stroke="midnightblue" points="929.18,-98.79 937.36,-92.07 926.77,-92.22 929.18,-98.79"/>
</g>
<!-- Node17 -->
<g id="node17" class="node">
<title>Node17</title>
<g id="a_node17"><a xlink:title=" ">
<polygon fill="none" stroke="#bfbfbf" points="1007.5,-73 1007.5,-92 1048.5,-92 1048.5,-73 1007.5,-73"/>
<text text-anchor="middle" x="1028" y="-80" font-family="Helvetica,sans-Serif" font-size="10.00">string</text>
</a>
</g>
</g>
<!-- Node2&#45;&gt;Node17 -->
<g id="edge27" class="edge">
<title>Node2&#45;&gt;Node17</title>
<path fill="none" stroke="midnightblue" d="M637.02,-192.84C707.93,-180.08 869.95,-147.71 999,-98 1000.38,-97.47 1001.78,-96.89 1003.18,-96.29"/>
<polygon fill="midnightblue" stroke="midnightblue" points="1004.71,-99.44 1012.29,-92.04 1001.75,-93.1 1004.71,-99.44"/>
</g>
<!-- Node4 -->
<g id="node4" class="node">
<title>Node4</title>
<g id="a_node4"><a xlink:title=" ">
<polygon fill="none" stroke="#bfbfbf" points="0,-6 0,-25 56,-25 56,-6 0,-6"/>
<text text-anchor="middle" x="28" y="-13" font-family="Helvetica,sans-Serif" font-size="10.00">stdbool.h</text>
</a>
</g>
</g>
<!-- Node3&#45;&gt;Node4 -->
<g id="edge3" class="edge">
<title>Node3&#45;&gt;Node4</title>
<path fill="none" stroke="midnightblue" d="M89.42,-72.73C78.03,-62.31 58.81,-44.71 44.9,-31.97"/>
<polygon fill="midnightblue" stroke="midnightblue" points="47.16,-29.3 37.42,-25.13 42.44,-34.46 47.16,-29.3"/>
</g>
<!-- Node5 -->
<g id="node5" class="node">
<title>Node5</title>
<g id="a_node5"><a xlink:title=" ">
<polygon fill="none" stroke="#bfbfbf" points="74.5,-6 74.5,-25 123.5,-25 123.5,-6 74.5,-6"/>
<text text-anchor="middle" x="99" y="-13" font-family="Helvetica,sans-Serif" font-size="10.00">stdint.h</text>
</a>
</g>
</g>
<!-- Node3&#45;&gt;Node5 -->
<g id="edge4" class="edge">
<title>Node3&#45;&gt;Node5</title>
<path fill="none" stroke="midnightblue" d="M99,-72.73C99,-63.18 99,-47.62 99,-35.28"/>
<polygon fill="midnightblue" stroke="midnightblue" points="102.5,-35.13 99,-25.13 95.5,-35.13 102.5,-35.13"/>
</g>
<!-- Node6 -->
<g id="node6" class="node">
<title>Node6</title>
<g id="a_node6"><a xlink:title=" ">
<polygon fill="none" stroke="#bfbfbf" points="141.5,-6 141.5,-25 190.5,-25 190.5,-6 141.5,-6"/>
<text text-anchor="middle" x="166" y="-13" font-family="Helvetica,sans-Serif" font-size="10.00">string.h</text>
</a>
</g>
</g>
<!-- Node3&#45;&gt;Node6 -->
<g id="edge5" class="edge">
<title>Node3&#45;&gt;Node6</title>
<path fill="none" stroke="midnightblue" d="M108.04,-72.73C118.68,-62.4 136.58,-45.04 149.68,-32.33"/>
<polygon fill="midnightblue" stroke="midnightblue" points="152.37,-34.6 157.11,-25.13 147.49,-29.58 152.37,-34.6"/>
</g>
<!-- Node7&#45;&gt;Node2 -->
<g id="edge7" class="edge">
<title>Node7&#45;&gt;Node2</title>
<path fill="none" stroke="midnightblue" d="M606.13,-153.75C607.66,-160.86 608.1,-171.14 607.47,-180.1"/>
<polygon fill="midnightblue" stroke="midnightblue" points="603.99,-179.71 606.17,-190.08 610.93,-180.62 603.99,-179.71"/>
</g>
<!-- Node7&#45;&gt;Node3 -->
<g id="edge8" class="edge">
<title>Node7&#45;&gt;Node3</title>
<path fill="none" stroke="midnightblue" d="M556.41,-140.77C454.82,-135.35 208.77,-120.3 129,-98 127.12,-97.47 125.21,-96.84 123.32,-96.12"/>
<polygon fill="midnightblue" stroke="midnightblue" points="124.72,-92.91 114.16,-92.12 121.92,-99.33 124.72,-92.91"/>
</g>
<!-- Node7&#45;&gt;Node8 -->
<g id="edge9" class="edge">
<title>Node7&#45;&gt;Node8</title>
<path fill="none" stroke="midnightblue" d="M556.33,-139.08C490.48,-132.92 363.33,-119.59 246.13,-98.08"/>
<polygon fill="midnightblue" stroke="midnightblue" points="246.74,-94.63 236.27,-96.24 245.46,-101.51 246.74,-94.63"/>
</g>
<!-- Node7&#45;&gt;Node9 -->
<g id="edge10" class="edge">
<title>Node7&#45;&gt;Node9</title>
<path fill="none" stroke="midnightblue" d="M556.19,-135.79C506.57,-127.59 424.27,-113.32 354,-98 349.01,-96.91 343.8,-95.7 338.65,-94.45"/>
<polygon fill="midnightblue" stroke="midnightblue" points="339.41,-91.03 328.86,-92.02 337.73,-97.82 339.41,-91.03"/>
</g>
<!-- Node10 -->
<g id="node10" class="node">
<title>Node10</title>
<g id="a_node10"><a xlink:title=" ">
<polygon fill="none" stroke="#bfbfbf" points="320.5,-6 320.5,-25 417.5,-25 417.5,-6 320.5,-6"/>
<text text-anchor="middle" x="369" y="-13" font-family="Helvetica,sans-Serif" font-size="10.00">eigen3/Eigen/Core</text>
</a>
</g>
</g>
<!-- Node7&#45;&gt;Node10 -->
<g id="edge11" class="edge">
<title>Node7&#45;&gt;Node10</title>
<path fill="none" stroke="midnightblue" d="M556.42,-139.26C500.9,-133.68 410.47,-121.24 387,-98 370.46,-81.62 367.59,-53.7 367.75,-35.18"/>
<polygon fill="midnightblue" stroke="midnightblue" points="371.25,-35.17 368.14,-25.05 364.25,-34.9 371.25,-35.17"/>
</g>
<!-- Node11 -->
<g id="node11" class="node">
<title>Node11</title>
<g id="a_node11"><a xlink:title=" ">
<polygon fill="none" stroke="#bfbfbf" points="440.5,-6 440.5,-25 541.5,-25 541.5,-6 440.5,-6"/>
<text text-anchor="middle" x="491" y="-13" font-family="Helvetica,sans-Serif" font-size="10.00">eigen3/Eigen/Eigen</text>
</a>
</g>
</g>
<!-- Node7&#45;&gt;Node11 -->
<g id="edge12" class="edge">
<title>Node7&#45;&gt;Node11</title>
<path fill="none" stroke="midnightblue" d="M598.21,-134.21C593.11,-119.15 581.11,-88.01 563,-67 549.96,-51.87 531.44,-39.01 516.45,-30.06"/>
<polygon fill="midnightblue" stroke="midnightblue" points="518.07,-26.95 507.65,-25 514.58,-33.02 518.07,-26.95"/>
</g>
<!-- Node12 -->
<g id="node12" class="node">
<title>Node12</title>
<g id="a_node12"><a xlink:title=" ">
<polygon fill="none" stroke="#bfbfbf" points="563,-0.5 563,-30.5 673,-30.5 673,-0.5 563,-0.5"/>
<text text-anchor="start" x="571" y="-18.5" font-family="Helvetica,sans-Serif" font-size="10.00">eigen3/unsupported</text>
<text text-anchor="middle" x="618" y="-7.5" font-family="Helvetica,sans-Serif" font-size="10.00">/Eigen/CXX11/Tensor</text>
</a>
</g>
</g>
<!-- Node7&#45;&gt;Node12 -->
<g id="edge13" class="edge">
<title>Node7&#45;&gt;Node12</title>
<path fill="none" stroke="midnightblue" d="M602.17,-134.31C604.72,-115.3 610.88,-69.47 614.72,-40.9"/>
<polygon fill="midnightblue" stroke="midnightblue" points="618.2,-41.27 616.07,-30.89 611.27,-40.33 618.2,-41.27"/>
</g>
<!-- Node13 -->
<g id="node13" class="node">
<title>Node13</title>
<g id="a_node13"><a xlink:title=" ">
<polygon fill="none" stroke="#bfbfbf" points="648.5,-67.5 648.5,-97.5 779.5,-97.5 779.5,-67.5 648.5,-67.5"/>
<text text-anchor="start" x="656.5" y="-85.5" font-family="Helvetica,sans-Serif" font-size="10.00">eigen3/unsupported</text>
<text text-anchor="middle" x="714" y="-74.5" font-family="Helvetica,sans-Serif" font-size="10.00">/Eigen/CXX11/ThreadPool</text>
</a>
</g>
</g>
<!-- Node7&#45;&gt;Node13 -->
<g id="edge14" class="edge">
<title>Node7&#45;&gt;Node13</title>
<path fill="none" stroke="midnightblue" d="M617.19,-134.48C633.07,-126.12 657.8,-113.09 678.3,-102.3"/>
<polygon fill="midnightblue" stroke="midnightblue" points="680.15,-105.28 687.37,-97.52 676.89,-99.09 680.15,-105.28"/>
</g>
<!-- Node14 -->
<g id="node14" class="node">
<title>Node14</title>
<g id="a_node14"><a xlink:href="helper__eigenTensorConversion_8h.html" target="_top" xlink:title=" ">
<polygon fill="none" stroke="black" points="396,-73 396,-92 554,-92 554,-73 396,-73"/>
<text text-anchor="middle" x="475" y="-80" font-family="Helvetica,sans-Serif" font-size="10.00">helper_eigenTensorConversion.h</text>
</a>
</g>
</g>
<!-- Node7&#45;&gt;Node14 -->
<g id="edge15" class="edge">
<title>Node7&#45;&gt;Node14</title>
<path fill="none" stroke="midnightblue" d="M582.95,-134.48C561.8,-124.49 526.56,-107.85 502.12,-96.31"/>
<polygon fill="midnightblue" stroke="midnightblue" points="503.56,-93.11 493.02,-92.01 500.57,-99.44 503.56,-93.11"/>
</g>
<!-- Node7&#45;&gt;Node15 -->
<g id="edge19" class="edge">
<title>Node7&#45;&gt;Node15</title>
<path fill="none" stroke="midnightblue" d="M645.93,-137.87C696.49,-131.41 780.76,-118.61 851,-98 853.29,-97.33 855.63,-96.56 857.97,-95.72"/>
<polygon fill="midnightblue" stroke="midnightblue" points="859.31,-98.96 867.38,-92.08 856.79,-92.43 859.31,-98.96"/>
</g>
<!-- Node7&#45;&gt;Node16 -->
<g id="edge20" class="edge">
<title>Node7&#45;&gt;Node16</title>
<path fill="none" stroke="midnightblue" d="M645.58,-139.79C707.96,-134.61 824.46,-122.43 921,-98 923.99,-97.24 927.06,-96.34 930.1,-95.35"/>
<polygon fill="midnightblue" stroke="midnightblue" points="931.34,-98.63 939.62,-92.02 929.02,-92.02 931.34,-98.63"/>
</g>
<!-- Node7&#45;&gt;Node17 -->
<g id="edge21" class="edge">
<title>Node7&#45;&gt;Node17</title>
<path fill="none" stroke="midnightblue" d="M645.58,-143C720.25,-141.89 874.66,-134.85 999,-98 1000.67,-97.51 1002.36,-96.92 1004.04,-96.27"/>
<polygon fill="midnightblue" stroke="midnightblue" points="1005.68,-99.37 1013.36,-92.07 1002.8,-92.99 1005.68,-99.37"/>
</g>
<!-- Node18 -->
<g id="node18" class="node">
<title>Node18</title>
<g id="a_node18"><a xlink:title=" ">
<polygon fill="none" stroke="#bfbfbf" points="798,-73 798,-92 842,-92 842,-73 798,-73"/>
<text text-anchor="middle" x="820" y="-80" font-family="Helvetica,sans-Serif" font-size="10.00">thread</text>
</a>
</g>
</g>
<!-- Node7&#45;&gt;Node18 -->
<g id="edge22" class="edge">
<title>Node7&#45;&gt;Node18</title>
<path fill="none" stroke="midnightblue" d="M645.5,-134.76C683.82,-127.09 740.31,-114.38 788,-98 789.67,-97.43 791.36,-96.8 793.06,-96.14"/>
<polygon fill="midnightblue" stroke="midnightblue" points="794.79,-99.21 802.64,-92.09 792.06,-92.76 794.79,-99.21"/>
</g>
<!-- Node14&#45;&gt;Node10 -->
<g id="edge16" class="edge">
<title>Node14&#45;&gt;Node10</title>
<path fill="none" stroke="midnightblue" d="M460.7,-72.73C442.98,-61.87 412.57,-43.22 391.66,-30.39"/>
<polygon fill="midnightblue" stroke="midnightblue" points="393.42,-27.37 383.07,-25.13 389.76,-33.34 393.42,-27.37"/>
</g>
<!-- Node14&#45;&gt;Node11 -->
<g id="edge17" class="edge">
<title>Node14&#45;&gt;Node11</title>
<path fill="none" stroke="midnightblue" d="M477.16,-72.73C479.53,-63.09 483.42,-47.3 486.47,-34.91"/>
<polygon fill="midnightblue" stroke="midnightblue" points="489.88,-35.67 488.88,-25.13 483.09,-34 489.88,-35.67"/>
</g>
<!-- Node14&#45;&gt;Node12 -->
<g id="edge18" class="edge">
<title>Node14&#45;&gt;Node12</title>
<path fill="none" stroke="midnightblue" d="M493.99,-72.87C515.26,-63.2 550.35,-47.25 577.79,-34.78"/>
<polygon fill="midnightblue" stroke="midnightblue" points="579.48,-37.85 587.14,-30.53 576.59,-31.48 579.48,-37.85"/>
</g>
</g>
</svg>
