<?xml version="1.0" encoding="UTF-8" standalone="no"?>
<!DOCTYPE svg PUBLIC "-//W3C//DTD SVG 1.1//EN"
 "http://www.w3.org/Graphics/SVG/1.1/DTD/svg11.dtd">
<!-- Generated by graphviz version 2.49.1 (20210923.0004)
 -->
<!-- Title: src/data_io/GSDUtil.hpp Pages: 1 -->
<svg width="657pt" height="352pt"
 viewBox="0.00 0.00 657.00 352.00" xmlns="http://www.w3.org/2000/svg" xmlns:xlink="http://www.w3.org/1999/xlink">
<g id="graph0" class="graph" transform="scale(1 1) rotate(0) translate(4 348)">
<title>src/data_io/GSDUtil.hpp</title>
<!-- Node1 -->
<g id="node1" class="node">
<title>Node1</title>
<g id="a_node1"><a xlink:title=" ">
<polygon fill="#bfbfbf" stroke="black" points="386.5,-324.5 386.5,-343.5 510.5,-343.5 510.5,-324.5 386.5,-324.5"/>
<text text-anchor="middle" x="448.5" y="-331.5" font-family="Helvetica,sans-Serif" font-size="10.00">src/data_io/GSDUtil.hpp</text>
</a>
</g>
</g>
<!-- Node2 -->
<g id="node2" class="node">
<title>Node2</title>
<g id="a_node2"><a xlink:href="GSDUtil_8cpp.html" target="_top" xlink:title=" ">
<polygon fill="none" stroke="black" points="250,-263 250,-282 373,-282 373,-263 250,-263"/>
<text text-anchor="middle" x="311.5" y="-270" font-family="Helvetica,sans-Serif" font-size="10.00">src/data_io/GSDUtil.cpp</text>
</a>
</g>
</g>
<!-- Node1&#45;&gt;Node2 -->
<g id="edge1" class="edge">
<title>Node1&#45;&gt;Node2</title>
<path fill="none" stroke="midnightblue" d="M419.67,-320.48C393.06,-308.92 354.27,-292.08 331.09,-282.01"/>
<polygon fill="midnightblue" stroke="midnightblue" points="418.3,-323.7 428.87,-324.48 421.09,-317.28 418.3,-323.7"/>
</g>
<!-- Node3 -->
<g id="node3" class="node">
<title>Node3</title>
<g id="a_node3"><a xlink:href="systemData_8hpp.html" target="_top" xlink:title=" ">
<polygon fill="none" stroke="black" points="391,-257.5 391,-287.5 506,-287.5 506,-257.5 391,-257.5"/>
<text text-anchor="start" x="399" y="-275.5" font-family="Helvetica,sans-Serif" font-size="10.00">src/simulation_system</text>
<text text-anchor="middle" x="448.5" y="-264.5" font-family="Helvetica,sans-Serif" font-size="10.00">/systemData.hpp</text>
</a>
</g>
</g>
<!-- Node1&#45;&gt;Node3 -->
<g id="edge2" class="edge">
<title>Node1&#45;&gt;Node3</title>
<path fill="none" stroke="midnightblue" d="M442.2,-314.53C441.47,-305.81 441.63,-295.59 442.67,-287.52"/>
<polygon fill="midnightblue" stroke="midnightblue" points="438.74,-315.06 443.6,-324.48 445.67,-314.09 438.74,-315.06"/>
</g>
<!-- Node3&#45;&gt;Node1 -->
<g id="edge3" class="edge">
<title>Node3&#45;&gt;Node1</title>
<path fill="none" stroke="midnightblue" d="M455.14,-297.7C455.51,-307.19 454.93,-317.47 453.4,-324.48"/>
<polygon fill="midnightblue" stroke="midnightblue" points="458.62,-297.21 454.33,-287.52 451.64,-297.77 458.62,-297.21"/>
</g>
<!-- Node4 -->
<g id="node4" class="node">
<title>Node4</title>
<g id="a_node4"><a xlink:href="potentialHydrodynamics_8hpp.html" target="_top" xlink:title=" ">
<polygon fill="none" stroke="black" points="194,-196 194,-215 383,-215 383,-196 194,-196"/>
<text text-anchor="middle" x="288.5" y="-203" font-family="Helvetica,sans-Serif" font-size="10.00">src/forces/potentialHydrodynamics.hpp</text>
</a>
</g>
</g>
<!-- Node3&#45;&gt;Node4 -->
<g id="edge4" class="edge">
<title>Node3&#45;&gt;Node4</title>
<path fill="none" stroke="midnightblue" d="M404.49,-253.62C373.52,-241.04 333.46,-224.77 309.44,-215.01"/>
<polygon fill="midnightblue" stroke="midnightblue" points="403.2,-256.87 413.78,-257.4 405.84,-250.39 403.2,-256.87"/>
</g>
<!-- Node6 -->
<g id="node6" class="node">
<title>Node6</title>
<g id="a_node6"><a xlink:href="rungeKutta4_8hpp.html" target="_top" xlink:title=" ">
<polygon fill="none" stroke="black" points="0,-134.5 0,-153.5 157,-153.5 157,-134.5 0,-134.5"/>
<text text-anchor="middle" x="78.5" y="-141.5" font-family="Helvetica,sans-Serif" font-size="10.00">src/integrators/rungeKutta4.hpp</text>
</a>
</g>
</g>
<!-- Node3&#45;&gt;Node6 -->
<g id="edge13" class="edge">
<title>Node3&#45;&gt;Node6</title>
<path fill="none" stroke="midnightblue" d="M381.04,-256.81C292.77,-240.5 263.95,-254.68 184.5,-221 144.47,-204.03 104.86,-169.77 87.56,-153.69"/>
<polygon fill="midnightblue" stroke="midnightblue" points="380.45,-260.26 390.93,-258.72 381.78,-253.39 380.45,-260.26"/>
</g>
<!-- Node8 -->
<g id="node8" class="node">
<title>Node8</title>
<g id="a_node8"><a xlink:href="engine_8hpp.html" target="_top" xlink:title=" ">
<polygon fill="none" stroke="black" points="324,-67.5 324,-97.5 439,-97.5 439,-67.5 324,-67.5"/>
<text text-anchor="start" x="332" y="-85.5" font-family="Helvetica,sans-Serif" font-size="10.00">src/simulation_system</text>
<text text-anchor="middle" x="381.5" y="-74.5" font-family="Helvetica,sans-Serif" font-size="10.00">/engine.hpp</text>
</a>
</g>
</g>
<!-- Node3&#45;&gt;Node8 -->
<g id="edge15" class="edge">
<title>Node3&#45;&gt;Node8</title>
<path fill="none" stroke="midnightblue" d="M440.03,-247.72C425.88,-208.04 397.9,-129.51 386.5,-97.54"/>
<polygon fill="midnightblue" stroke="midnightblue" points="436.81,-249.12 443.46,-257.37 443.4,-246.77 436.81,-249.12"/>
</g>
<!-- Node9 -->
<g id="node9" class="node">
<title>Node9</title>
<g id="a_node9"><a xlink:href="main_8cpp.html" target="_top" xlink:title=" ">
<polygon fill="none" stroke="black" points="345,-6 345,-25 418,-25 418,-6 345,-6"/>
<text text-anchor="middle" x="381.5" y="-13" font-family="Helvetica,sans-Serif" font-size="10.00">src/main.cpp</text>
</a>
</g>
</g>
<!-- Node3&#45;&gt;Node9 -->
<g id="edge14" class="edge">
<title>Node3&#45;&gt;Node9</title>
<path fill="none" stroke="midnightblue" d="M455.05,-247.51C464.55,-207.63 478.03,-126.23 448.5,-67 438.69,-47.32 417.14,-33.28 401.12,-25.08"/>
<polygon fill="midnightblue" stroke="midnightblue" points="451.61,-246.83 452.57,-257.38 458.4,-248.54 451.61,-246.83"/>
</g>
<!-- Node11 -->
<g id="node11" class="node">
<title>Node11</title>
<g id="a_node11"><a xlink:href="testsSimulationBuild_8cpp.html" target="_top" xlink:title=" ">
<polygon fill="none" stroke="black" points="436,-6 436,-25 585,-25 585,-6 436,-6"/>
<text text-anchor="middle" x="510.5" y="-13" font-family="Helvetica,sans-Serif" font-size="10.00">tests/testsSimulationBuild.cpp</text>
</a>
</g>
</g>
<!-- Node3&#45;&gt;Node11 -->
<g id="edge17" class="edge">
<title>Node3&#45;&gt;Node11</title>
<path fill="none" stroke="midnightblue" d="M466.06,-249.25C471.86,-240.84 477.78,-230.89 481.5,-221 508.65,-148.84 510.65,-53.65 510.6,-25"/>
<polygon fill="midnightblue" stroke="midnightblue" points="463.19,-247.25 460.15,-257.4 468.85,-251.36 463.19,-247.25"/>
</g>
<!-- Node12 -->
<g id="node12" class="node">
<title>Node12</title>
<g id="a_node12"><a xlink:href="systemData_8cpp.html" target="_top" xlink:title=" ">
<polygon fill="none" stroke="black" points="534,-190.5 534,-220.5 649,-220.5 649,-190.5 534,-190.5"/>
<text text-anchor="start" x="542" y="-208.5" font-family="Helvetica,sans-Serif" font-size="10.00">src/simulation_system</text>
<text text-anchor="middle" x="591.5" y="-197.5" font-family="Helvetica,sans-Serif" font-size="10.00">/systemData.cpp</text>
</a>
</g>
</g>
<!-- Node3&#45;&gt;Node12 -->
<g id="edge16" class="edge">
<title>Node3&#45;&gt;Node12</title>
<path fill="none" stroke="midnightblue" d="M488.91,-253.13C511.63,-242.8 539.56,-230.11 560.53,-220.58"/>
<polygon fill="midnightblue" stroke="midnightblue" points="487.18,-250.07 479.53,-257.4 490.08,-256.44 487.18,-250.07"/>
</g>
<!-- Node5 -->
<g id="node5" class="node">
<title>Node5</title>
<g id="a_node5"><a xlink:href="potentialHydrodynamics_8cpp.html" target="_top" xlink:title=" ">
<polygon fill="none" stroke="black" points="175.5,-134.5 175.5,-153.5 363.5,-153.5 363.5,-134.5 175.5,-134.5"/>
<text text-anchor="middle" x="269.5" y="-141.5" font-family="Helvetica,sans-Serif" font-size="10.00">src/forces/potentialHydrodynamics.cpp</text>
</a>
</g>
</g>
<!-- Node4&#45;&gt;Node5 -->
<g id="edge5" class="edge">
<title>Node4&#45;&gt;Node5</title>
<path fill="none" stroke="midnightblue" d="M282.64,-186.16C279.17,-175.27 274.92,-161.99 272.22,-153.51"/>
<polygon fill="midnightblue" stroke="midnightblue" points="279.4,-187.51 285.78,-195.98 286.07,-185.38 279.4,-187.51"/>
</g>
<!-- Node4&#45;&gt;Node6 -->
<g id="edge6" class="edge">
<title>Node4&#45;&gt;Node6</title>
<path fill="none" stroke="midnightblue" d="M248.53,-193.18C207.73,-181.61 145.31,-163.93 108.53,-153.51"/>
<polygon fill="midnightblue" stroke="midnightblue" points="247.84,-196.62 258.41,-195.98 249.74,-189.88 247.84,-196.62"/>
</g>
<!-- Node4&#45;&gt;Node8 -->
<g id="edge12" class="edge">
<title>Node4&#45;&gt;Node8</title>
<path fill="none" stroke="midnightblue" d="M323.98,-191.83C341.43,-183.74 361.12,-171.43 372.5,-154 383.56,-137.05 384.14,-112.89 383.13,-97.71"/>
<polygon fill="midnightblue" stroke="midnightblue" points="322.36,-188.72 314.58,-195.9 325.14,-195.14 322.36,-188.72"/>
</g>
<!-- Node7 -->
<g id="node7" class="node">
<title>Node7</title>
<g id="a_node7"><a xlink:href="rungeKutta4_8cpp.html" target="_top" xlink:title=" ">
<polygon fill="none" stroke="black" points="0.5,-73 0.5,-92 156.5,-92 156.5,-73 0.5,-73"/>
<text text-anchor="middle" x="78.5" y="-80" font-family="Helvetica,sans-Serif" font-size="10.00">src/integrators/rungeKutta4.cpp</text>
</a>
</g>
</g>
<!-- Node6&#45;&gt;Node7 -->
<g id="edge7" class="edge">
<title>Node6&#45;&gt;Node7</title>
<path fill="none" stroke="midnightblue" d="M78.5,-124.32C78.5,-113.5 78.5,-100.4 78.5,-92.01"/>
<polygon fill="midnightblue" stroke="midnightblue" points="75,-124.48 78.5,-134.48 82,-124.48 75,-124.48"/>
</g>
<!-- Node6&#45;&gt;Node8 -->
<g id="edge8" class="edge">
<title>Node6&#45;&gt;Node8</title>
<path fill="none" stroke="midnightblue" d="M131.95,-132.5C185.8,-121.93 268.64,-105.66 323.92,-94.81"/>
<polygon fill="midnightblue" stroke="midnightblue" points="131.05,-129.11 121.91,-134.48 132.4,-135.98 131.05,-129.11"/>
</g>
<!-- Node8&#45;&gt;Node9 -->
<g id="edge9" class="edge">
<title>Node8&#45;&gt;Node9</title>
<path fill="none" stroke="midnightblue" d="M381.5,-57.25C381.5,-46.02 381.5,-33.38 381.5,-25.19"/>
<polygon fill="midnightblue" stroke="midnightblue" points="378,-57.4 381.5,-67.4 385,-57.4 378,-57.4"/>
</g>
<!-- Node10 -->
<g id="node10" class="node">
<title>Node10</title>
<g id="a_node10"><a xlink:href="engine_8cpp.html" target="_top" xlink:title=" ">
<polygon fill="none" stroke="black" points="212,-0.5 212,-30.5 327,-30.5 327,-0.5 212,-0.5"/>
<text text-anchor="start" x="220" y="-18.5" font-family="Helvetica,sans-Serif" font-size="10.00">src/simulation_system</text>
<text text-anchor="middle" x="269.5" y="-7.5" font-family="Helvetica,sans-Serif" font-size="10.00">/engine.cpp</text>
</a>
</g>
</g>
<!-- Node8&#45;&gt;Node10 -->
<g id="edge10" class="edge">
<title>Node8&#45;&gt;Node10</title>
<path fill="none" stroke="midnightblue" d="M348.41,-62.3C330.88,-52.12 309.74,-39.85 293.75,-30.58"/>
<polygon fill="midnightblue" stroke="midnightblue" points="346.79,-65.4 357.2,-67.4 350.31,-59.35 346.79,-65.4"/>
</g>
<!-- Node8&#45;&gt;Node11 -->
<g id="edge11" class="edge">
<title>Node8&#45;&gt;Node11</title>
<path fill="none" stroke="midnightblue" d="M418.61,-62.8C443.34,-50.34 474.67,-34.56 493.62,-25.01"/>
<polygon fill="midnightblue" stroke="midnightblue" points="416.85,-59.77 409.49,-67.4 420,-66.02 416.85,-59.77"/>
</g>
</g>
</svg>
