<?xml version="1.0" encoding="UTF-8" standalone="no"?>
<!DOCTYPE svg PUBLIC "-//W3C//DTD SVG 1.1//EN"
 "http://www.w3.org/Graphics/SVG/1.1/DTD/svg11.dtd">
<!-- Generated by graphviz version 2.43.0 (0)
 -->
<!-- Title: src/data_io/GSDUtil.cpp Pages: 1 -->
<svg width="1230pt" height="274pt"
 viewBox="0.00 0.00 1229.50 274.00" xmlns="http://www.w3.org/2000/svg" xmlns:xlink="http://www.w3.org/1999/xlink">
<g id="graph0" class="graph" transform="scale(1 1) rotate(0) translate(4 270)">
<title>src/data_io/GSDUtil.cpp</title>
<!-- Node1 -->
<g id="node1" class="node">
<title>Node1</title>
<g id="a_node1"><a xlink:title=" ">
<polygon fill="#bfbfbf" stroke="black" points="836.5,-246.5 836.5,-265.5 959.5,-265.5 959.5,-246.5 836.5,-246.5"/>
<text text-anchor="middle" x="898" y="-253.5" font-family="Helvetica,sans-Serif" font-size="10.00">src/data_io/GSDUtil.cpp</text>
</a>
</g>
</g>
<!-- Node2 -->
<g id="node2" class="node">
<title>Node2</title>
<g id="a_node2"><a xlink:href="GSDUtil_8hpp.html" target="_top" xlink:title=" ">
<polygon fill="none" stroke="black" points="862,-190.5 862,-209.5 934,-209.5 934,-190.5 862,-190.5"/>
<text text-anchor="middle" x="898" y="-197.5" font-family="Helvetica,sans-Serif" font-size="10.00">GSDUtil.hpp</text>
</a>
</g>
</g>
<!-- Node1&#45;&gt;Node2 -->
<g id="edge1" class="edge">
<title>Node1&#45;&gt;Node2</title>
<path fill="none" stroke="midnightblue" d="M898,-246.08C898,-239.01 898,-228.86 898,-219.99"/>
<polygon fill="midnightblue" stroke="midnightblue" points="901.5,-219.75 898,-209.75 894.5,-219.75 901.5,-219.75"/>
</g>
<!-- Node3 -->
<g id="node3" class="node">
<title>Node3</title>
<g id="a_node3"><a xlink:href="SystemData_8hpp.html" target="_top" xlink:title=" ">
<polygon fill="none" stroke="black" points="721,-134.5 721,-153.5 811,-153.5 811,-134.5 721,-134.5"/>
<text text-anchor="middle" x="766" y="-141.5" font-family="Helvetica,sans-Serif" font-size="10.00">SystemData.hpp</text>
</a>
</g>
</g>
<!-- Node2&#45;&gt;Node3 -->
<g id="edge2" class="edge">
<title>Node2&#45;&gt;Node3</title>
<path fill="none" stroke="midnightblue" d="M872,-190.44C848.43,-181.6 814.19,-167.69 790.96,-157.59"/>
<polygon fill="midnightblue" stroke="midnightblue" points="792.3,-154.35 781.74,-153.52 789.47,-160.76 792.3,-154.35"/>
</g>
<!-- Node4 -->
<g id="node4" class="node">
<title>Node4</title>
<g id="a_node4"><a xlink:href="gsd_8h.html" target="_top" xlink:title="Declare GSD data types and C API.">
<polygon fill="none" stroke="black" points="145.5,-73 145.5,-92 186.5,-92 186.5,-73 145.5,-73"/>
<text text-anchor="middle" x="166" y="-80" font-family="Helvetica,sans-Serif" font-size="10.00">gsd.h</text>
</a>
</g>
</g>
<!-- Node2&#45;&gt;Node4 -->
<g id="edge26" class="edge">
<title>Node2&#45;&gt;Node4</title>
<path fill="none" stroke="midnightblue" d="M861.91,-193.51C763.83,-178.56 484.22,-135.73 252,-98 233.73,-95.03 213.3,-91.59 196.94,-88.81"/>
<polygon fill="midnightblue" stroke="midnightblue" points="197.29,-85.32 186.84,-87.09 196.11,-92.22 197.29,-85.32"/>
</g>
<!-- Node14 -->
<g id="node14" class="node">
<title>Node14</title>
<g id="a_node14"><a xlink:title=" ">
<polygon fill="none" stroke="#bfbfbf" points="813,-67.5 813,-97.5 911,-97.5 911,-67.5 813,-67.5"/>
<text text-anchor="start" x="821" y="-85.5" font-family="Helvetica,sans-Serif" font-size="10.00">spdlog/sinks/basic</text>
<text text-anchor="middle" x="862" y="-74.5" font-family="Helvetica,sans-Serif" font-size="10.00">_file_sink.h</text>
</a>
</g>
</g>
<!-- Node2&#45;&gt;Node14 -->
<g id="edge27" class="edge">
<title>Node2&#45;&gt;Node14</title>
<path fill="none" stroke="midnightblue" d="M895.29,-190.32C889.86,-172.89 877.46,-133.1 869.42,-107.31"/>
<polygon fill="midnightblue" stroke="midnightblue" points="872.69,-106.05 866.38,-97.55 866.01,-108.13 872.69,-106.05"/>
</g>
<!-- Node15 -->
<g id="node15" class="node">
<title>Node15</title>
<g id="a_node15"><a xlink:title=" ">
<polygon fill="none" stroke="#bfbfbf" points="929.5,-73 929.5,-92 1014.5,-92 1014.5,-73 929.5,-73"/>
<text text-anchor="middle" x="972" y="-80" font-family="Helvetica,sans-Serif" font-size="10.00">spdlog/spdlog.h</text>
</a>
</g>
</g>
<!-- Node2&#45;&gt;Node15 -->
<g id="edge28" class="edge">
<title>Node2&#45;&gt;Node15</title>
<path fill="none" stroke="midnightblue" d="M903.56,-190.32C915.72,-171.34 944.87,-125.85 960.92,-100.79"/>
<polygon fill="midnightblue" stroke="midnightblue" points="963.93,-102.59 966.37,-92.28 958.03,-98.81 963.93,-102.59"/>
</g>
<!-- Node17 -->
<g id="node17" class="node">
<title>Node17</title>
<g id="a_node17"><a xlink:title=" ">
<polygon fill="none" stroke="#bfbfbf" points="1033,-73 1033,-92 1085,-92 1085,-73 1033,-73"/>
<text text-anchor="middle" x="1059" y="-80" font-family="Helvetica,sans-Serif" font-size="10.00">memory</text>
</a>
</g>
</g>
<!-- Node2&#45;&gt;Node17 -->
<g id="edge29" class="edge">
<title>Node2&#45;&gt;Node17</title>
<path fill="none" stroke="midnightblue" d="M910.1,-190.32C937.49,-170.67 1004.48,-122.61 1038.49,-98.22"/>
<polygon fill="midnightblue" stroke="midnightblue" points="1040.67,-100.96 1046.76,-92.28 1036.59,-95.27 1040.67,-100.96"/>
</g>
<!-- Node18 -->
<g id="node18" class="node">
<title>Node18</title>
<g id="a_node18"><a xlink:title=" ">
<polygon fill="none" stroke="#bfbfbf" points="1103.5,-73 1103.5,-92 1162.5,-92 1162.5,-73 1103.5,-73"/>
<text text-anchor="middle" x="1133" y="-80" font-family="Helvetica,sans-Serif" font-size="10.00">stdexcept</text>
</a>
</g>
</g>
<!-- Node2&#45;&gt;Node18 -->
<g id="edge30" class="edge">
<title>Node2&#45;&gt;Node18</title>
<path fill="none" stroke="midnightblue" d="M915.85,-190.43C934.6,-181.41 964.91,-166.79 991,-154 1031.46,-134.17 1078.24,-110.87 1106.71,-96.65"/>
<polygon fill="midnightblue" stroke="midnightblue" points="1108.6,-99.62 1115.98,-92.02 1105.47,-93.36 1108.6,-99.62"/>
</g>
<!-- Node19 -->
<g id="node19" class="node">
<title>Node19</title>
<g id="a_node19"><a xlink:title=" ">
<polygon fill="none" stroke="#bfbfbf" points="1180.5,-73 1180.5,-92 1221.5,-92 1221.5,-73 1180.5,-73"/>
<text text-anchor="middle" x="1201" y="-80" font-family="Helvetica,sans-Serif" font-size="10.00">string</text>
</a>
</g>
</g>
<!-- Node2&#45;&gt;Node19 -->
<g id="edge31" class="edge">
<title>Node2&#45;&gt;Node19</title>
<path fill="none" stroke="midnightblue" d="M924.49,-190.43C973.88,-174.19 1083.11,-137.04 1172,-98 1173.16,-97.49 1174.34,-96.96 1175.53,-96.41"/>
<polygon fill="midnightblue" stroke="midnightblue" points="1177.07,-99.55 1184.57,-92.07 1174.04,-93.24 1177.07,-99.55"/>
</g>
<!-- Node3&#45;&gt;Node2 -->
<g id="edge3" class="edge">
<title>Node3&#45;&gt;Node2</title>
<path fill="none" stroke="midnightblue" d="M791.9,-153.52C815.43,-162.35 849.67,-176.26 872.94,-186.37"/>
<polygon fill="midnightblue" stroke="midnightblue" points="871.61,-189.61 882.17,-190.44 874.44,-183.2 871.61,-189.61"/>
</g>
<!-- Node3&#45;&gt;Node4 -->
<g id="edge4" class="edge">
<title>Node3&#45;&gt;Node4</title>
<path fill="none" stroke="midnightblue" d="M720.81,-142.96C625.44,-142.08 397,-135.82 210,-98 205.53,-97.1 200.89,-95.88 196.36,-94.54"/>
<polygon fill="midnightblue" stroke="midnightblue" points="197.36,-91.18 186.76,-91.47 195.22,-97.85 197.36,-91.18"/>
</g>
<!-- Node8 -->
<g id="node8" class="node">
<title>Node8</title>
<g id="a_node8"><a xlink:title=" ">
<polygon fill="none" stroke="#bfbfbf" points="701.5,-6 701.5,-25 798.5,-25 798.5,-6 701.5,-6"/>
<text text-anchor="middle" x="750" y="-13" font-family="Helvetica,sans-Serif" font-size="10.00">eigen3/Eigen/Core</text>
</a>
</g>
</g>
<!-- Node3&#45;&gt;Node8 -->
<g id="edge8" class="edge">
<title>Node3&#45;&gt;Node8</title>
<path fill="none" stroke="midnightblue" d="M765.84,-134.06C765.49,-119.81 764.4,-91.09 761,-67 759.49,-56.27 756.95,-44.43 754.7,-34.91"/>
<polygon fill="midnightblue" stroke="midnightblue" points="758.05,-33.88 752.26,-25.01 751.25,-35.55 758.05,-33.88"/>
</g>
<!-- Node9 -->
<g id="node9" class="node">
<title>Node9</title>
<g id="a_node9"><a xlink:title=" ">
<polygon fill="none" stroke="#bfbfbf" points="208.5,-6 208.5,-25 309.5,-25 309.5,-6 208.5,-6"/>
<text text-anchor="middle" x="259" y="-13" font-family="Helvetica,sans-Serif" font-size="10.00">eigen3/Eigen/Eigen</text>
</a>
</g>
</g>
<!-- Node3&#45;&gt;Node9 -->
<g id="edge9" class="edge">
<title>Node3&#45;&gt;Node9</title>
<path fill="none" stroke="midnightblue" d="M720.73,-142.06C604.47,-139.19 302.21,-128.83 270,-98 253.35,-82.06 253.32,-53.82 255.58,-35.13"/>
<polygon fill="midnightblue" stroke="midnightblue" points="259.05,-35.57 257.1,-25.16 252.13,-34.51 259.05,-35.57"/>
</g>
<!-- Node10 -->
<g id="node10" class="node">
<title>Node10</title>
<g id="a_node10"><a xlink:title=" ">
<polygon fill="none" stroke="#bfbfbf" points="328,-0.5 328,-30.5 438,-30.5 438,-0.5 328,-0.5"/>
<text text-anchor="start" x="336" y="-18.5" font-family="Helvetica,sans-Serif" font-size="10.00">eigen3/unsupported</text>
<text text-anchor="middle" x="383" y="-7.5" font-family="Helvetica,sans-Serif" font-size="10.00">/Eigen/CXX11/Tensor</text>
</a>
</g>
</g>
<!-- Node3&#45;&gt;Node10 -->
<g id="edge10" class="edge">
<title>Node3&#45;&gt;Node10</title>
<path fill="none" stroke="midnightblue" d="M720.99,-142.21C606.18,-139.74 309.4,-130.25 280,-98 257.29,-73.1 295.14,-49.78 331.18,-34.53"/>
<polygon fill="midnightblue" stroke="midnightblue" points="332.81,-37.64 340.76,-30.63 330.17,-31.16 332.81,-37.64"/>
</g>
<!-- Node11 -->
<g id="node11" class="node">
<title>Node11</title>
<g id="a_node11"><a xlink:title=" ">
<polygon fill="none" stroke="#bfbfbf" points="491.5,-0.5 491.5,-30.5 622.5,-30.5 622.5,-0.5 491.5,-0.5"/>
<text text-anchor="start" x="499.5" y="-18.5" font-family="Helvetica,sans-Serif" font-size="10.00">eigen3/unsupported</text>
<text text-anchor="middle" x="557" y="-7.5" font-family="Helvetica,sans-Serif" font-size="10.00">/Eigen/CXX11/ThreadPool</text>
</a>
</g>
</g>
<!-- Node3&#45;&gt;Node11 -->
<g id="edge11" class="edge">
<title>Node3&#45;&gt;Node11</title>
<path fill="none" stroke="midnightblue" d="M764.07,-134.29C760.12,-118.49 749.6,-85.09 728,-67 701.22,-44.58 664.83,-32.11 632.5,-25.18"/>
<polygon fill="midnightblue" stroke="midnightblue" points="633.11,-21.73 622.62,-23.2 631.74,-28.59 633.11,-21.73"/>
</g>
<!-- Node12 -->
<g id="node12" class="node">
<title>Node12</title>
<g id="a_node12"><a xlink:href="helper__eigenTensorConversion_8hpp.html" target="_top" xlink:title=" ">
<polygon fill="none" stroke="black" points="289.5,-73 289.5,-92 458.5,-92 458.5,-73 289.5,-73"/>
<text text-anchor="middle" x="374" y="-80" font-family="Helvetica,sans-Serif" font-size="10.00">helper_eigenTensorConversion.hpp</text>
</a>
</g>
</g>
<!-- Node3&#45;&gt;Node12 -->
<g id="edge12" class="edge">
<title>Node3&#45;&gt;Node12</title>
<path fill="none" stroke="midnightblue" d="M720.65,-136.12C651.65,-125.64 519.94,-105.65 440.23,-93.55"/>
<polygon fill="midnightblue" stroke="midnightblue" points="440.7,-90.08 430.29,-92.04 439.65,-97.01 440.7,-90.08"/>
</g>
<!-- Node13 -->
<g id="node13" class="node">
<title>Node13</title>
<g id="a_node13"><a xlink:title=" ">
<polygon fill="none" stroke="#bfbfbf" points="495,-73 495,-92 585,-92 585,-73 495,-73"/>
<text text-anchor="middle" x="540" y="-80" font-family="Helvetica,sans-Serif" font-size="10.00">spdlog/fmt/ostr.h</text>
</a>
</g>
</g>
<!-- Node3&#45;&gt;Node13 -->
<g id="edge18" class="edge">
<title>Node3&#45;&gt;Node13</title>
<path fill="none" stroke="midnightblue" d="M733.01,-134.44C698.37,-125.43 642.33,-110.81 594,-98 589.94,-96.92 585.7,-95.79 581.47,-94.66"/>
<polygon fill="midnightblue" stroke="midnightblue" points="582.25,-91.25 571.69,-92.04 580.44,-98.01 582.25,-91.25"/>
</g>
<!-- Node3&#45;&gt;Node14 -->
<g id="edge19" class="edge">
<title>Node3&#45;&gt;Node14</title>
<path fill="none" stroke="midnightblue" d="M779.75,-134.48C793,-126.27 813.5,-113.56 830.72,-102.88"/>
<polygon fill="midnightblue" stroke="midnightblue" points="832.72,-105.77 839.37,-97.52 829.03,-99.82 832.72,-105.77"/>
</g>
<!-- Node3&#45;&gt;Node15 -->
<g id="edge20" class="edge">
<title>Node3&#45;&gt;Node15</title>
<path fill="none" stroke="midnightblue" d="M795.51,-134.48C831.62,-124.05 892.85,-106.36 932.85,-94.81"/>
<polygon fill="midnightblue" stroke="midnightblue" points="933.9,-98.15 942.54,-92.01 931.96,-91.42 933.9,-98.15"/>
</g>
<!-- Node16 -->
<g id="node16" class="node">
<title>Node16</title>
<g id="a_node16"><a xlink:title=" ">
<polygon fill="none" stroke="#bfbfbf" points="603,-73 603,-92 657,-92 657,-73 603,-73"/>
<text text-anchor="middle" x="630" y="-80" font-family="Helvetica,sans-Serif" font-size="10.00">iostream</text>
</a>
</g>
</g>
<!-- Node3&#45;&gt;Node16 -->
<g id="edge21" class="edge">
<title>Node3&#45;&gt;Node16</title>
<path fill="none" stroke="midnightblue" d="M746.51,-134.48C723.59,-124.45 685.31,-107.7 658.92,-96.15"/>
<polygon fill="midnightblue" stroke="midnightblue" points="660.01,-92.81 649.45,-92.01 657.21,-99.22 660.01,-92.81"/>
</g>
<!-- Node3&#45;&gt;Node17 -->
<g id="edge22" class="edge">
<title>Node3&#45;&gt;Node17</title>
<path fill="none" stroke="midnightblue" d="M811.21,-138C863.06,-131.59 950.26,-118.77 1023,-98 1025.44,-97.3 1027.94,-96.5 1030.43,-95.63"/>
<polygon fill="midnightblue" stroke="midnightblue" points="1031.71,-98.89 1039.83,-92.09 1029.24,-92.34 1031.71,-98.89"/>
</g>
<!-- Node3&#45;&gt;Node18 -->
<g id="edge23" class="edge">
<title>Node3&#45;&gt;Node18</title>
<path fill="none" stroke="midnightblue" d="M811.16,-139.96C874.96,-134.95 994.77,-122.93 1094,-98 1096.99,-97.25 1100.06,-96.35 1103.11,-95.36"/>
<polygon fill="midnightblue" stroke="midnightblue" points="1104.34,-98.64 1112.62,-92.04 1102.03,-92.03 1104.34,-98.64"/>
</g>
<!-- Node3&#45;&gt;Node19 -->
<g id="edge24" class="edge">
<title>Node3&#45;&gt;Node19</title>
<path fill="none" stroke="midnightblue" d="M811.17,-143.13C887.22,-142.23 1044.98,-135.49 1172,-98 1173.67,-97.51 1175.36,-96.92 1177.04,-96.27"/>
<polygon fill="midnightblue" stroke="midnightblue" points="1178.68,-99.37 1186.36,-92.07 1175.81,-92.99 1178.68,-99.37"/>
</g>
<!-- Node20 -->
<g id="node20" class="node">
<title>Node20</title>
<g id="a_node20"><a xlink:title=" ">
<polygon fill="none" stroke="#bfbfbf" points="675,-73 675,-92 719,-92 719,-73 675,-73"/>
<text text-anchor="middle" x="697" y="-80" font-family="Helvetica,sans-Serif" font-size="10.00">thread</text>
</a>
</g>
</g>
<!-- Node3&#45;&gt;Node20 -->
<g id="edge25" class="edge">
<title>Node3&#45;&gt;Node20</title>
<path fill="none" stroke="midnightblue" d="M756.11,-134.48C745.35,-125.2 727.93,-110.17 714.78,-98.83"/>
<polygon fill="midnightblue" stroke="midnightblue" points="716.73,-95.89 706.87,-92.01 712.16,-101.19 716.73,-95.89"/>
</g>
<!-- Node5 -->
<g id="node5" class="node">
<title>Node5</title>
<g id="a_node5"><a xlink:title=" ">
<polygon fill="none" stroke="#bfbfbf" points="0,-6 0,-25 56,-25 56,-6 0,-6"/>
<text text-anchor="middle" x="28" y="-13" font-family="Helvetica,sans-Serif" font-size="10.00">stdbool.h</text>
</a>
</g>
</g>
<!-- Node4&#45;&gt;Node5 -->
<g id="edge5" class="edge">
<title>Node4&#45;&gt;Node5</title>
<path fill="none" stroke="midnightblue" d="M147.67,-72.87C124.06,-61.75 82.81,-42.32 55.45,-29.43"/>
<polygon fill="midnightblue" stroke="midnightblue" points="56.94,-26.26 46.4,-25.17 53.96,-32.59 56.94,-26.26"/>
</g>
<!-- Node6 -->
<g id="node6" class="node">
<title>Node6</title>
<g id="a_node6"><a xlink:title=" ">
<polygon fill="none" stroke="#bfbfbf" points="74.5,-6 74.5,-25 123.5,-25 123.5,-6 74.5,-6"/>
<text text-anchor="middle" x="99" y="-13" font-family="Helvetica,sans-Serif" font-size="10.00">stdint.h</text>
</a>
</g>
</g>
<!-- Node4&#45;&gt;Node6 -->
<g id="edge6" class="edge">
<title>Node4&#45;&gt;Node6</title>
<path fill="none" stroke="midnightblue" d="M156.96,-72.73C146.32,-62.4 128.42,-45.04 115.32,-32.33"/>
<polygon fill="midnightblue" stroke="midnightblue" points="117.51,-29.58 107.89,-25.13 112.63,-34.6 117.51,-29.58"/>
</g>
<!-- Node7 -->
<g id="node7" class="node">
<title>Node7</title>
<g id="a_node7"><a xlink:title=" ">
<polygon fill="none" stroke="#bfbfbf" points="141.5,-6 141.5,-25 190.5,-25 190.5,-6 141.5,-6"/>
<text text-anchor="middle" x="166" y="-13" font-family="Helvetica,sans-Serif" font-size="10.00">string.h</text>
</a>
</g>
</g>
<!-- Node4&#45;&gt;Node7 -->
<g id="edge7" class="edge">
<title>Node4&#45;&gt;Node7</title>
<path fill="none" stroke="midnightblue" d="M166,-72.73C166,-63.18 166,-47.62 166,-35.28"/>
<polygon fill="midnightblue" stroke="midnightblue" points="169.5,-35.13 166,-25.13 162.5,-35.13 169.5,-35.13"/>
</g>
<!-- Node12&#45;&gt;Node8 -->
<g id="edge13" class="edge">
<title>Node12&#45;&gt;Node8</title>
<path fill="none" stroke="midnightblue" d="M423.54,-72.94C492.58,-61 617.53,-39.4 691.2,-26.67"/>
<polygon fill="midnightblue" stroke="midnightblue" points="691.99,-30.08 701.24,-24.93 690.79,-23.18 691.99,-30.08"/>
</g>
<!-- Node12&#45;&gt;Node9 -->
<g id="edge14" class="edge">
<title>Node12&#45;&gt;Node9</title>
<path fill="none" stroke="midnightblue" d="M358.49,-72.73C339.09,-61.77 305.67,-42.88 282.97,-30.05"/>
<polygon fill="midnightblue" stroke="midnightblue" points="284.69,-27 274.26,-25.13 281.25,-33.09 284.69,-27"/>
</g>
<!-- Node12&#45;&gt;Node10 -->
<g id="edge15" class="edge">
<title>Node12&#45;&gt;Node10</title>
<path fill="none" stroke="midnightblue" d="M375.21,-72.73C376.35,-64.54 378.1,-51.92 379.65,-40.71"/>
<polygon fill="midnightblue" stroke="midnightblue" points="383.14,-40.97 381.05,-30.59 376.21,-40.01 383.14,-40.97"/>
</g>
<!-- Node12&#45;&gt;Node11 -->
<g id="edge16" class="edge">
<title>Node12&#45;&gt;Node11</title>
<path fill="none" stroke="midnightblue" d="M398.3,-72.87C426.12,-62.99 472.4,-46.55 507.83,-33.97"/>
<polygon fill="midnightblue" stroke="midnightblue" points="509.25,-37.17 517.51,-30.53 506.91,-30.58 509.25,-37.17"/>
</g>
<!-- Node12&#45;&gt;Node12 -->
<g id="edge17" class="edge">
<title>Node12&#45;&gt;Node12</title>
<path fill="none" stroke="midnightblue" d="M411.85,-92.03C443.46,-96.11 476.5,-92.93 476.5,-82.5 476.5,-73.17 450.06,-69.64 421.86,-71.92"/>
<polygon fill="midnightblue" stroke="midnightblue" points="421.43,-68.45 411.85,-72.97 422.16,-75.41 421.43,-68.45"/>
</g>
</g>
</svg>
