<?xml version="1.0" encoding="UTF-8" standalone="no"?>
<!DOCTYPE svg PUBLIC "-//W3C//DTD SVG 1.1//EN"
 "http://www.w3.org/Graphics/SVG/1.1/DTD/svg11.dtd">
<!-- Generated by graphviz version 2.43.0 (0)
 -->
<!-- Title: src/data_io/GSDUtil.hpp Pages: 1 -->
<svg width="511pt" height="352pt"
 viewBox="0.00 0.00 511.00 352.00" xmlns="http://www.w3.org/2000/svg" xmlns:xlink="http://www.w3.org/1999/xlink">
<g id="graph0" class="graph" transform="scale(1 1) rotate(0) translate(4 348)">
<title>src/data_io/GSDUtil.hpp</title>
<!-- Node1 -->
<g id="node1" class="node">
<title>Node1</title>
<g id="a_node1"><a xlink:title=" ">
<polygon fill="#bfbfbf" stroke="black" points="158,-324.5 158,-343.5 281,-343.5 281,-324.5 158,-324.5"/>
<text text-anchor="middle" x="219.5" y="-331.5" font-family="Helvetica,sans-Serif" font-size="10.00">src/data_io/GSDUtil.hpp</text>
</a>
</g>
</g>
<!-- Node2 -->
<g id="node2" class="node">
<title>Node2</title>
<g id="a_node2"><a xlink:href="GSDUtil_8cpp.html" target="_top" xlink:title=" ">
<polygon fill="none" stroke="black" points="21,-263 21,-282 144,-282 144,-263 21,-263"/>
<text text-anchor="middle" x="82.5" y="-270" font-family="Helvetica,sans-Serif" font-size="10.00">src/data_io/GSDUtil.cpp</text>
</a>
</g>
</g>
<!-- Node1&#45;&gt;Node2 -->
<g id="edge1" class="edge">
<title>Node1&#45;&gt;Node2</title>
<path fill="none" stroke="midnightblue" d="M190.67,-320.48C164.06,-308.92 125.27,-292.08 102.09,-282.01"/>
<polygon fill="midnightblue" stroke="midnightblue" points="189.3,-323.7 199.87,-324.48 192.09,-317.28 189.3,-323.7"/>
</g>
<!-- Node3 -->
<g id="node3" class="node">
<title>Node3</title>
<g id="a_node3"><a xlink:href="systemData_8hpp.html" target="_top" xlink:title=" ">
<polygon fill="none" stroke="black" points="162,-257.5 162,-287.5 277,-287.5 277,-257.5 162,-257.5"/>
<text text-anchor="start" x="170" y="-275.5" font-family="Helvetica,sans-Serif" font-size="10.00">src/simulation_system</text>
<text text-anchor="middle" x="219.5" y="-264.5" font-family="Helvetica,sans-Serif" font-size="10.00">/systemData.hpp</text>
</a>
</g>
</g>
<!-- Node1&#45;&gt;Node3 -->
<g id="edge2" class="edge">
<title>Node1&#45;&gt;Node3</title>
<path fill="none" stroke="midnightblue" d="M213.2,-314.53C212.47,-305.81 212.63,-295.59 213.67,-287.52"/>
<polygon fill="midnightblue" stroke="midnightblue" points="209.74,-315.06 214.6,-324.48 216.67,-314.09 209.74,-315.06"/>
</g>
<!-- Node3&#45;&gt;Node1 -->
<g id="edge4" class="edge">
<title>Node3&#45;&gt;Node1</title>
<path fill="none" stroke="midnightblue" d="M226.14,-297.7C226.51,-307.19 225.93,-317.47 224.4,-324.48"/>
<polygon fill="midnightblue" stroke="midnightblue" points="229.62,-297.21 225.33,-287.52 222.64,-297.77 229.62,-297.21"/>
</g>
<!-- Node4 -->
<g id="node4" class="node">
<title>Node4</title>
<g id="a_node4"><a xlink:href="main_8cpp.html" target="_top" xlink:title=" ">
<polygon fill="none" stroke="black" points="0,-6 0,-25 73,-25 73,-6 0,-6"/>
<text text-anchor="middle" x="36.5" y="-13" font-family="Helvetica,sans-Serif" font-size="10.00">src/main.cpp</text>
</a>
</g>
</g>
<!-- Node3&#45;&gt;Node4 -->
<g id="edge3" class="edge">
<title>Node3&#45;&gt;Node4</title>
<path fill="none" stroke="midnightblue" d="M154.65,-253.69C136.24,-246.07 117.44,-235.49 103.5,-221 47.29,-162.58 38.23,-56.26 36.78,-25.22"/>
<polygon fill="midnightblue" stroke="midnightblue" points="153.62,-257.05 164.21,-257.41 156.16,-250.52 153.62,-257.05"/>
</g>
<!-- Node5 -->
<g id="node5" class="node">
<title>Node5</title>
<g id="a_node5"><a xlink:href="potentialHydrodynamics_8hpp.html" target="_top" xlink:title=" ">
<polygon fill="none" stroke="black" points="126,-196 126,-215 313,-215 313,-196 126,-196"/>
<text text-anchor="middle" x="219.5" y="-203" font-family="Helvetica,sans-Serif" font-size="10.00">src/forces/potentialHydrodynamics.hpp</text>
</a>
</g>
</g>
<!-- Node3&#45;&gt;Node5 -->
<g id="edge5" class="edge">
<title>Node3&#45;&gt;Node5</title>
<path fill="none" stroke="midnightblue" d="M219.5,-247.25C219.5,-236.02 219.5,-223.38 219.5,-215.19"/>
<polygon fill="midnightblue" stroke="midnightblue" points="216,-247.4 219.5,-257.4 223,-247.4 216,-247.4"/>
</g>
<!-- Node7 -->
<g id="node7" class="node">
<title>Node7</title>
<g id="a_node7"><a xlink:href="rungeKutta4_8hpp.html" target="_top" xlink:title=" ">
<polygon fill="none" stroke="black" points="350,-134.5 350,-153.5 503,-153.5 503,-134.5 350,-134.5"/>
<text text-anchor="middle" x="426.5" y="-141.5" font-family="Helvetica,sans-Serif" font-size="10.00">src/integrators/rungeKutta4.hpp</text>
</a>
</g>
</g>
<!-- Node3&#45;&gt;Node7 -->
<g id="edge13" class="edge">
<title>Node3&#45;&gt;Node7</title>
<path fill="none" stroke="midnightblue" d="M262.32,-253.18C281.3,-244.39 303.57,-233.14 322.5,-221 340.85,-209.24 343.04,-203.04 360.5,-190 378.28,-176.72 399.62,-162.47 413.12,-153.64"/>
<polygon fill="midnightblue" stroke="midnightblue" points="260.66,-250.09 253.01,-257.42 263.56,-256.46 260.66,-250.09"/>
</g>
<!-- Node9 -->
<g id="node9" class="node">
<title>Node9</title>
<g id="a_node9"><a xlink:href="engine_8hpp.html" target="_top" xlink:title=" ">
<polygon fill="none" stroke="black" points="65,-67.5 65,-97.5 180,-97.5 180,-67.5 65,-67.5"/>
<text text-anchor="start" x="73" y="-85.5" font-family="Helvetica,sans-Serif" font-size="10.00">src/simulation_system</text>
<text text-anchor="middle" x="122.5" y="-74.5" font-family="Helvetica,sans-Serif" font-size="10.00">/engine.hpp</text>
</a>
</g>
</g>
<!-- Node3&#45;&gt;Node9 -->
<g id="edge14" class="edge">
<title>Node3&#45;&gt;Node9</title>
<path fill="none" stroke="midnightblue" d="M155.78,-253.18C140.68,-245.7 126.39,-235.32 117.5,-221 93.31,-182.03 108.22,-124.17 117.18,-97.68"/>
<polygon fill="midnightblue" stroke="midnightblue" points="154.7,-256.54 165.25,-257.48 157.59,-250.16 154.7,-256.54"/>
</g>
<!-- Node11 -->
<g id="node11" class="node">
<title>Node11</title>
<g id="a_node11"><a xlink:href="systemData_8cpp.html" target="_top" xlink:title=" ">
<polygon fill="none" stroke="black" points="369,-190.5 369,-220.5 484,-220.5 484,-190.5 369,-190.5"/>
<text text-anchor="start" x="377" y="-208.5" font-family="Helvetica,sans-Serif" font-size="10.00">src/simulation_system</text>
<text text-anchor="middle" x="426.5" y="-197.5" font-family="Helvetica,sans-Serif" font-size="10.00">/systemData.cpp</text>
</a>
</g>
</g>
<!-- Node3&#45;&gt;Node11 -->
<g id="edge15" class="edge">
<title>Node3&#45;&gt;Node11</title>
<path fill="none" stroke="midnightblue" d="M273.82,-254.44C307.37,-243.91 349.91,-230.55 381.56,-220.61"/>
<polygon fill="midnightblue" stroke="midnightblue" points="272.65,-251.14 264.16,-257.48 274.75,-257.82 272.65,-251.14"/>
</g>
<!-- Node6 -->
<g id="node6" class="node">
<title>Node6</title>
<g id="a_node6"><a xlink:href="potentialHydrodynamics_8cpp.html" target="_top" xlink:title=" ">
<polygon fill="none" stroke="black" points="145,-134.5 145,-153.5 332,-153.5 332,-134.5 145,-134.5"/>
<text text-anchor="middle" x="238.5" y="-141.5" font-family="Helvetica,sans-Serif" font-size="10.00">src/forces/potentialHydrodynamics.cpp</text>
</a>
</g>
</g>
<!-- Node5&#45;&gt;Node6 -->
<g id="edge6" class="edge">
<title>Node5&#45;&gt;Node6</title>
<path fill="none" stroke="midnightblue" d="M225.36,-186.16C228.83,-175.27 233.08,-161.99 235.78,-153.51"/>
<polygon fill="midnightblue" stroke="midnightblue" points="221.93,-185.38 222.22,-195.98 228.6,-187.51 221.93,-185.38"/>
</g>
<!-- Node5&#45;&gt;Node7 -->
<g id="edge7" class="edge">
<title>Node5&#45;&gt;Node7</title>
<path fill="none" stroke="midnightblue" d="M258.9,-193.18C299.12,-181.61 360.65,-163.93 396.9,-153.51"/>
<polygon fill="midnightblue" stroke="midnightblue" points="257.8,-189.85 249.16,-195.98 259.74,-196.58 257.8,-189.85"/>
</g>
<!-- Node5&#45;&gt;Node9 -->
<g id="edge12" class="edge">
<title>Node5&#45;&gt;Node9</title>
<path fill="none" stroke="midnightblue" d="M185.63,-191.75C168.34,-183.53 148.49,-171.15 136.5,-154 124.77,-137.23 122.33,-113.01 122.08,-97.77"/>
<polygon fill="midnightblue" stroke="midnightblue" points="184.34,-195 194.9,-195.88 187.19,-188.61 184.34,-195"/>
</g>
<!-- Node8 -->
<g id="node8" class="node">
<title>Node8</title>
<g id="a_node8"><a xlink:href="rungeKutta4_8cpp.html" target="_top" xlink:title=" ">
<polygon fill="none" stroke="black" points="350,-73 350,-92 503,-92 503,-73 350,-73"/>
<text text-anchor="middle" x="426.5" y="-80" font-family="Helvetica,sans-Serif" font-size="10.00">src/integrators/rungeKutta4.cpp</text>
</a>
</g>
</g>
<!-- Node7&#45;&gt;Node8 -->
<g id="edge8" class="edge">
<title>Node7&#45;&gt;Node8</title>
<path fill="none" stroke="midnightblue" d="M426.5,-124.32C426.5,-113.5 426.5,-100.4 426.5,-92.01"/>
<polygon fill="midnightblue" stroke="midnightblue" points="423,-124.48 426.5,-134.48 430,-124.48 423,-124.48"/>
</g>
<!-- Node7&#45;&gt;Node9 -->
<g id="edge9" class="edge">
<title>Node7&#45;&gt;Node9</title>
<path fill="none" stroke="midnightblue" d="M372.87,-132.5C318.84,-121.93 235.73,-105.66 180.27,-94.81"/>
<polygon fill="midnightblue" stroke="midnightblue" points="372.46,-135.99 382.94,-134.48 373.8,-129.12 372.46,-135.99"/>
</g>
<!-- Node9&#45;&gt;Node4 -->
<g id="edge10" class="edge">
<title>Node9&#45;&gt;Node4</title>
<path fill="none" stroke="midnightblue" d="M95.83,-61.34C79.78,-49.21 60.17,-34.39 48,-25.19"/>
<polygon fill="midnightblue" stroke="midnightblue" points="93.75,-64.16 103.84,-67.4 97.97,-58.57 93.75,-64.16"/>
</g>
<!-- Node10 -->
<g id="node10" class="node">
<title>Node10</title>
<g id="a_node10"><a xlink:href="engine_8cpp.html" target="_top" xlink:title=" ">
<polygon fill="none" stroke="black" points="91,-0.5 91,-30.5 206,-30.5 206,-0.5 91,-0.5"/>
<text text-anchor="start" x="99" y="-18.5" font-family="Helvetica,sans-Serif" font-size="10.00">src/simulation_system</text>
<text text-anchor="middle" x="148.5" y="-7.5" font-family="Helvetica,sans-Serif" font-size="10.00">/engine.cpp</text>
</a>
</g>
</g>
<!-- Node9&#45;&gt;Node10 -->
<g id="edge11" class="edge">
<title>Node9&#45;&gt;Node10</title>
<path fill="none" stroke="midnightblue" d="M131.9,-57.99C135.58,-48.8 139.67,-38.58 142.87,-30.58"/>
<polygon fill="midnightblue" stroke="midnightblue" points="128.61,-56.81 128.14,-67.4 135.11,-59.41 128.61,-56.81"/>
</g>
</g>
</svg>
