<?xml version="1.0" encoding="UTF-8" standalone="no"?>
<!DOCTYPE svg PUBLIC "-//W3C//DTD SVG 1.1//EN"
 "http://www.w3.org/Graphics/SVG/1.1/DTD/svg11.dtd">
<!-- Generated by graphviz version 2.43.0 (0)
 -->
<!-- Title: abs Pages: 1 -->
<svg width="632pt" height="78pt"
 viewBox="0.00 0.00 632.00 77.50" xmlns="http://www.w3.org/2000/svg" xmlns:xlink="http://www.w3.org/1999/xlink">
<g id="graph0" class="graph" transform="scale(1 1) rotate(0) translate(4 73.5)">
<title>abs</title>
<!-- Node1 -->
<g id="node1" class="node">
<title>Node1</title>
<g id="a_node1"><a xlink:title=" ">
<polygon fill="#bfbfbf" stroke="black" points="592,-28 592,-47 624,-47 624,-28 592,-28"/>
<text text-anchor="middle" x="608" y="-35" font-family="Helvetica,sans-Serif" font-size="10.00">abs</text>
</a>
</g>
</g>
<!-- Node2 -->
<g id="node2" class="node">
<title>Node2</title>
<g id="a_node2"><a xlink:href="helper__math_8h.html#afe553b3ddd067e12861af3967b19f1cd" target="_top" xlink:title=" ">
<polygon fill="none" stroke="black" points="472,-50 472,-69 504,-69 504,-50 472,-50"/>
<text text-anchor="middle" x="488" y="-57" font-family="Helvetica,sans-Serif" font-size="10.00">abs</text>
</a>
</g>
</g>
<!-- Node1&#45;&gt;Node2 -->
<g id="edge1" class="edge">
<title>Node1&#45;&gt;Node2</title>
<path fill="none" stroke="midnightblue" d="M581.57,-42.24C557.96,-46.64 523.59,-53.05 504.06,-56.69"/>
<polygon fill="midnightblue" stroke="midnightblue" points="582.38,-45.65 591.57,-40.38 581.1,-38.77 582.38,-45.65"/>
</g>
<!-- Node3 -->
<g id="node3" class="node">
<title>Node3</title>
<g id="a_node3"><a xlink:href="classsystemData.html#a1d50589c7d3a4ceda2e227cee3a9be90" target="_top" xlink:title="Computes the orientation (unit vector) of a particle with respect to its locater point.">
<polygon fill="none" stroke="black" points="420,-0.5 420,-30.5 556,-30.5 556,-0.5 420,-0.5"/>
<text text-anchor="start" x="428" y="-18.5" font-family="Helvetica,sans-Serif" font-size="10.00">systemData::convertBody2</text>
<text text-anchor="middle" x="488" y="-7.5" font-family="Helvetica,sans-Serif" font-size="10.00">ParticleOrient</text>
</a>
</g>
</g>
<!-- Node1&#45;&gt;Node3 -->
<g id="edge2" class="edge">
<title>Node1&#45;&gt;Node3</title>
<path fill="none" stroke="midnightblue" d="M581.57,-32.76C573.89,-31.33 565.07,-29.68 556,-27.99"/>
<polygon fill="midnightblue" stroke="midnightblue" points="581.1,-36.23 591.57,-34.62 582.38,-29.35 581.1,-36.23"/>
</g>
<!-- Node4 -->
<g id="node4" class="node">
<title>Node4</title>
<g id="a_node4"><a xlink:href="classsystemData.html#abe08e8ef40710f40f585342d24076085" target="_top" xlink:title="Updates all relevant rigid body motion tensors, respective gradients, and kinematic/Udwadia constrain...">
<polygon fill="none" stroke="black" points="279,-6 279,-25 384,-25 384,-6 279,-6"/>
<text text-anchor="middle" x="331.5" y="-13" font-family="Helvetica,sans-Serif" font-size="10.00">systemData::update</text>
</a>
</g>
</g>
<!-- Node3&#45;&gt;Node4 -->
<g id="edge3" class="edge">
<title>Node3&#45;&gt;Node4</title>
<path fill="none" stroke="midnightblue" d="M409.62,-15.5C401.02,-15.5 392.42,-15.5 384.26,-15.5"/>
<polygon fill="midnightblue" stroke="midnightblue" points="409.68,-19 419.68,-15.5 409.68,-12 409.68,-19"/>
</g>
<!-- Node5 -->
<g id="node5" class="node">
<title>Node5</title>
<g id="a_node5"><a xlink:href="classsystemData.html#ad2ba3455704ef6cec1aac76a417e91e9" target="_top" xlink:title="Function loads data from GSD file using GSDUtil class.">
<polygon fill="none" stroke="black" points="111,-6 111,-25 243,-25 243,-6 111,-6"/>
<text text-anchor="middle" x="177" y="-13" font-family="Helvetica,sans-Serif" font-size="10.00">systemData::initializeData</text>
</a>
</g>
</g>
<!-- Node4&#45;&gt;Node5 -->
<g id="edge4" class="edge">
<title>Node4&#45;&gt;Node5</title>
<path fill="none" stroke="midnightblue" d="M268.72,-15.5C260.28,-15.5 251.59,-15.5 243.1,-15.5"/>
<polygon fill="midnightblue" stroke="midnightblue" points="268.87,-19 278.87,-15.5 268.87,-12 268.87,-19"/>
</g>
<!-- Node6 -->
<g id="node6" class="node">
<title>Node6</title>
<g id="a_node6"><a xlink:href="test-simulation_8cpp.html#ad247837e3960442b6e67b555c11a84f8" target="_top" xlink:title=" ">
<polygon fill="none" stroke="black" points="0,-6 0,-25 75,-25 75,-6 0,-6"/>
<text text-anchor="middle" x="37.5" y="-13" font-family="Helvetica,sans-Serif" font-size="10.00">TEST_CASE</text>
</a>
</g>
</g>
<!-- Node5&#45;&gt;Node6 -->
<g id="edge5" class="edge">
<title>Node5&#45;&gt;Node6</title>
<path fill="none" stroke="midnightblue" d="M100.85,-15.5C92,-15.5 83.29,-15.5 75.31,-15.5"/>
<polygon fill="midnightblue" stroke="midnightblue" points="100.87,-19 110.87,-15.5 100.87,-12 100.87,-19"/>
</g>
</g>
</svg>
