<?xml version="1.0" encoding="UTF-8" standalone="no"?>
<!DOCTYPE svg PUBLIC "-//W3C//DTD SVG 1.1//EN"
 "http://www.w3.org/Graphics/SVG/1.1/DTD/svg11.dtd">
<!-- Generated by graphviz version 2.43.0 (0)
 -->
<!-- Title: make_float3 Pages: 1 -->
<svg width="184pt" height="522pt"
 viewBox="0.00 0.00 184.00 522.00" xmlns="http://www.w3.org/2000/svg" xmlns:xlink="http://www.w3.org/1999/xlink">
<g id="graph0" class="graph" transform="scale(1 1) rotate(0) translate(4 518)">
<title>make_float3</title>
<!-- Node1 -->
<g id="node1" class="node">
<title>Node1</title>
<g id="a_node1"><a xlink:title=" ">
<polygon fill="#bfbfbf" stroke="black" points="106,-247.5 106,-266.5 176,-266.5 176,-247.5 106,-247.5"/>
<text text-anchor="middle" x="141" y="-254.5" font-family="Helvetica,sans-Serif" font-size="10.00">make_float3</text>
</a>
</g>
</g>
<!-- Node2 -->
<g id="node2" class="node">
<title>Node2</title>
<g id="a_node2"><a xlink:href="helper__math_8h.html#a7899cceba82589cf107c88f733db3528" target="_top" xlink:title=" ">
<polygon fill="none" stroke="black" points="13.5,-494.5 13.5,-513.5 56.5,-513.5 56.5,-494.5 13.5,-494.5"/>
<text text-anchor="middle" x="35" y="-501.5" font-family="Helvetica,sans-Serif" font-size="10.00">clamp</text>
</a>
</g>
</g>
<!-- Node1&#45;&gt;Node2 -->
<g id="edge1" class="edge">
<title>Node1&#45;&gt;Node2</title>
<path fill="none" stroke="midnightblue" d="M138.78,-277.08C135.2,-319.86 121.49,-421.27 70,-485 66.43,-489.42 61.54,-492.98 56.59,-495.78"/>
<polygon fill="midnightblue" stroke="midnightblue" points="142.28,-277.09 139.52,-266.86 135.3,-276.58 142.28,-277.09"/>
</g>
<!-- Node3 -->
<g id="node3" class="node">
<title>Node3</title>
<g id="a_node3"><a xlink:href="helper__math_8h.html#a2e4be24f36bc31a9d0b35540aaa5fb71" target="_top" xlink:title=" ">
<polygon fill="none" stroke="black" points="14.5,-456.5 14.5,-475.5 55.5,-475.5 55.5,-456.5 14.5,-456.5"/>
<text text-anchor="middle" x="35" y="-463.5" font-family="Helvetica,sans-Serif" font-size="10.00">cross</text>
</a>
</g>
</g>
<!-- Node1&#45;&gt;Node3 -->
<g id="edge2" class="edge">
<title>Node1&#45;&gt;Node3</title>
<path fill="none" stroke="midnightblue" d="M137.3,-276.99C131.32,-314.36 113.88,-395.65 70,-447 66.13,-451.52 60.91,-455.18 55.72,-458.04"/>
<polygon fill="midnightblue" stroke="midnightblue" points="140.79,-277.29 138.8,-266.89 133.87,-276.26 140.79,-277.29"/>
</g>
<!-- Node4 -->
<g id="node4" class="node">
<title>Node4</title>
<g id="a_node4"><a xlink:href="helper__math_8h.html#a62721d5f250db151ae718f799c9a3dd7" target="_top" xlink:title=" ">
<polygon fill="none" stroke="black" points="17.5,-418.5 17.5,-437.5 52.5,-437.5 52.5,-418.5 17.5,-418.5"/>
<text text-anchor="middle" x="35" y="-425.5" font-family="Helvetica,sans-Serif" font-size="10.00">fabs</text>
</a>
</g>
</g>
<!-- Node1&#45;&gt;Node4 -->
<g id="edge3" class="edge">
<title>Node1&#45;&gt;Node4</title>
<path fill="none" stroke="midnightblue" d="M135.17,-276.81C126.66,-308.16 106.37,-369.68 70,-409 65.23,-414.16 58.72,-418.27 52.68,-421.32"/>
<polygon fill="midnightblue" stroke="midnightblue" points="138.66,-277.28 137.78,-266.72 131.88,-275.53 138.66,-277.28"/>
</g>
<!-- Node5 -->
<g id="node5" class="node">
<title>Node5</title>
<g id="a_node5"><a xlink:href="helper__math_8h.html#a549835c169f172cf838f65d81f958421" target="_top" xlink:title=" ">
<polygon fill="none" stroke="black" points="16,-380.5 16,-399.5 54,-399.5 54,-380.5 16,-380.5"/>
<text text-anchor="middle" x="35" y="-387.5" font-family="Helvetica,sans-Serif" font-size="10.00">floorf</text>
</a>
</g>
</g>
<!-- Node1&#45;&gt;Node5 -->
<g id="edge4" class="edge">
<title>Node1&#45;&gt;Node5</title>
<path fill="none" stroke="midnightblue" d="M132.05,-275.93C121.05,-300.35 99.18,-343 70,-371 65.41,-375.4 59.61,-379.13 54.1,-382.09"/>
<polygon fill="midnightblue" stroke="midnightblue" points="135.3,-277.24 136.09,-266.68 128.88,-274.44 135.3,-277.24"/>
</g>
<!-- Node6 -->
<g id="node6" class="node">
<title>Node6</title>
<g id="a_node6"><a xlink:href="helper__math_8h.html#aa0e0b97a8c683602220c9509d12adefa" target="_top" xlink:title=" ">
<polygon fill="none" stroke="black" points="14.5,-342.5 14.5,-361.5 55.5,-361.5 55.5,-342.5 14.5,-342.5"/>
<text text-anchor="middle" x="35" y="-349.5" font-family="Helvetica,sans-Serif" font-size="10.00">fmaxf</text>
</a>
</g>
</g>
<!-- Node1&#45;&gt;Node6 -->
<g id="edge5" class="edge">
<title>Node1&#45;&gt;Node6</title>
<path fill="none" stroke="midnightblue" d="M126.17,-275.03C112.95,-291.47 91.86,-315.75 70,-333 65.65,-336.43 60.59,-339.62 55.74,-342.36"/>
<polygon fill="midnightblue" stroke="midnightblue" points="129.21,-276.82 132.65,-266.8 123.71,-272.49 129.21,-276.82"/>
</g>
<!-- Node7 -->
<g id="node7" class="node">
<title>Node7</title>
<g id="a_node7"><a xlink:href="helper__math_8h.html#afdb8567710b900ab3f50d023282e3f37" target="_top" xlink:title=" ">
<polygon fill="none" stroke="black" points="16,-304.5 16,-323.5 54,-323.5 54,-304.5 16,-304.5"/>
<text text-anchor="middle" x="35" y="-311.5" font-family="Helvetica,sans-Serif" font-size="10.00">fminf</text>
</a>
</g>
</g>
<!-- Node1&#45;&gt;Node7 -->
<g id="edge6" class="edge">
<title>Node1&#45;&gt;Node7</title>
<path fill="none" stroke="midnightblue" d="M113.37,-271.59C94.51,-281.93 69.75,-295.5 53.38,-304.47"/>
<polygon fill="midnightblue" stroke="midnightblue" points="115.27,-274.54 122.36,-266.67 111.91,-268.41 115.27,-274.54"/>
</g>
<!-- Node8 -->
<g id="node8" class="node">
<title>Node8</title>
<g id="a_node8"><a xlink:href="helper__math_8h.html#a6faff26c220db9b3a0e6288ee06ec521" target="_top" xlink:title=" ">
<polygon fill="none" stroke="black" points="14.5,-266.5 14.5,-285.5 55.5,-285.5 55.5,-266.5 14.5,-266.5"/>
<text text-anchor="middle" x="35" y="-273.5" font-family="Helvetica,sans-Serif" font-size="10.00">fmodf</text>
</a>
</g>
</g>
<!-- Node1&#45;&gt;Node8 -->
<g id="edge7" class="edge">
<title>Node1&#45;&gt;Node8</title>
<path fill="none" stroke="midnightblue" d="M95.9,-265.06C81.82,-267.63 66.95,-270.35 55.55,-272.43"/>
<polygon fill="midnightblue" stroke="midnightblue" points="96.74,-268.46 105.95,-263.22 95.48,-261.58 96.74,-268.46"/>
</g>
<!-- Node9 -->
<g id="node9" class="node">
<title>Node9</title>
<g id="a_node9"><a xlink:href="helper__math_8h.html#a87222927d3e8a5bf864b90ebd23e4531" target="_top" xlink:title=" ">
<polygon fill="none" stroke="black" points="17,-228.5 17,-247.5 53,-247.5 53,-228.5 17,-228.5"/>
<text text-anchor="middle" x="35" y="-235.5" font-family="Helvetica,sans-Serif" font-size="10.00">fracf</text>
</a>
</g>
</g>
<!-- Node1&#45;&gt;Node9 -->
<g id="edge8" class="edge">
<title>Node1&#45;&gt;Node9</title>
<path fill="none" stroke="midnightblue" d="M95.75,-248.92C80.72,-246.17 64.81,-243.26 53.19,-241.14"/>
<polygon fill="midnightblue" stroke="midnightblue" points="95.48,-252.42 105.95,-250.78 96.74,-245.54 95.48,-252.42"/>
</g>
<!-- Node10 -->
<g id="node10" class="node">
<title>Node10</title>
<g id="a_node10"><a xlink:href="helper__math_8h.html#ab9370c14e8795ec39775092dae97f7e1" target="_top" xlink:title=" ">
<polygon fill="none" stroke="black" points="0,-190.5 0,-209.5 70,-209.5 70,-190.5 0,-190.5"/>
<text text-anchor="middle" x="35" y="-197.5" font-family="Helvetica,sans-Serif" font-size="10.00">make_float3</text>
</a>
</g>
</g>
<!-- Node1&#45;&gt;Node10 -->
<g id="edge9" class="edge">
<title>Node1&#45;&gt;Node10</title>
<path fill="none" stroke="midnightblue" d="M113.37,-242.41C94.51,-232.07 69.75,-218.5 53.38,-209.53"/>
<polygon fill="midnightblue" stroke="midnightblue" points="111.91,-245.59 122.36,-247.33 115.27,-239.46 111.91,-245.59"/>
</g>
<!-- Node11 -->
<g id="node11" class="node">
<title>Node11</title>
<g id="a_node11"><a xlink:href="helper__math_8h.html#ad0d3c9c8703577ba6c9c688c882d402d" target="_top" xlink:title=" ">
<polygon fill="none" stroke="black" points="7,-152.5 7,-171.5 63,-171.5 63,-152.5 7,-152.5"/>
<text text-anchor="middle" x="35" y="-159.5" font-family="Helvetica,sans-Serif" font-size="10.00">operator*</text>
</a>
</g>
</g>
<!-- Node1&#45;&gt;Node11 -->
<g id="edge10" class="edge">
<title>Node1&#45;&gt;Node11</title>
<path fill="none" stroke="midnightblue" d="M126.17,-238.97C112.95,-222.53 91.86,-198.25 70,-181 65.65,-177.57 60.59,-174.38 55.74,-171.64"/>
<polygon fill="midnightblue" stroke="midnightblue" points="123.71,-241.51 132.65,-247.2 129.21,-237.18 123.71,-241.51"/>
</g>
<!-- Node12 -->
<g id="node12" class="node">
<title>Node12</title>
<g id="a_node12"><a xlink:href="helper__math_8h.html#a2d6165328ff6cc4542f56a815ab992a6" target="_top" xlink:title=" ">
<polygon fill="none" stroke="black" points="6,-114.5 6,-133.5 64,-133.5 64,-114.5 6,-114.5"/>
<text text-anchor="middle" x="35" y="-121.5" font-family="Helvetica,sans-Serif" font-size="10.00">operator+</text>
</a>
</g>
</g>
<!-- Node1&#45;&gt;Node12 -->
<g id="edge11" class="edge">
<title>Node1&#45;&gt;Node12</title>
<path fill="none" stroke="midnightblue" d="M132.05,-238.07C121.05,-213.65 99.18,-171 70,-143 66.29,-139.44 61.79,-136.32 57.29,-133.69"/>
<polygon fill="midnightblue" stroke="midnightblue" points="128.88,-239.56 136.09,-247.32 135.3,-236.76 128.88,-239.56"/>
</g>
<!-- Node13 -->
<g id="node13" class="node">
<title>Node13</title>
<g id="a_node13"><a xlink:href="helper__math_8h.html#a13c460bf0477142ba40606d7f4d20a90" target="_top" xlink:title=" ">
<polygon fill="none" stroke="black" points="7.5,-76.5 7.5,-95.5 62.5,-95.5 62.5,-76.5 7.5,-76.5"/>
<text text-anchor="middle" x="35" y="-83.5" font-family="Helvetica,sans-Serif" font-size="10.00">operator&#45;</text>
</a>
</g>
</g>
<!-- Node1&#45;&gt;Node13 -->
<g id="edge12" class="edge">
<title>Node1&#45;&gt;Node13</title>
<path fill="none" stroke="midnightblue" d="M135.17,-237.19C126.66,-205.84 106.37,-144.32 70,-105 66.6,-101.33 62.33,-98.19 57.97,-95.58"/>
<polygon fill="midnightblue" stroke="midnightblue" points="131.88,-238.47 137.78,-247.28 138.66,-236.72 131.88,-238.47"/>
</g>
<!-- Node14 -->
<g id="node14" class="node">
<title>Node14</title>
<g id="a_node14"><a xlink:href="helper__math_8h.html#a550637f7c0c6efac2589120c47fef0a5" target="_top" xlink:title=" ">
<polygon fill="none" stroke="black" points="7.5,-38.5 7.5,-57.5 62.5,-57.5 62.5,-38.5 7.5,-38.5"/>
<text text-anchor="middle" x="35" y="-45.5" font-family="Helvetica,sans-Serif" font-size="10.00">operator/</text>
</a>
</g>
</g>
<!-- Node1&#45;&gt;Node14 -->
<g id="edge13" class="edge">
<title>Node1&#45;&gt;Node14</title>
<path fill="none" stroke="midnightblue" d="M137.3,-237.01C131.32,-199.64 113.88,-118.35 70,-67 66.84,-63.3 62.76,-60.18 58.54,-57.6"/>
<polygon fill="midnightblue" stroke="midnightblue" points="133.87,-237.74 138.8,-247.11 140.79,-236.71 133.87,-237.74"/>
</g>
<!-- Node15 -->
<g id="node15" class="node">
<title>Node15</title>
<g id="a_node15"><a xlink:href="helper__math_8h.html#a803dfc03ce7a72b312ea14cd3d854e01" target="_top" xlink:title=" ">
<polygon fill="none" stroke="black" points="1,-0.5 1,-19.5 69,-19.5 69,-0.5 1,-0.5"/>
<text text-anchor="middle" x="35" y="-7.5" font-family="Helvetica,sans-Serif" font-size="10.00">smoothstep</text>
</a>
</g>
</g>
<!-- Node1&#45;&gt;Node15 -->
<g id="edge14" class="edge">
<title>Node1&#45;&gt;Node15</title>
<path fill="none" stroke="midnightblue" d="M138.78,-236.92C135.2,-194.14 121.49,-92.73 70,-29 67.03,-25.32 63.14,-22.23 59.05,-19.68"/>
<polygon fill="midnightblue" stroke="midnightblue" points="135.3,-237.42 139.52,-247.14 142.28,-236.91 135.3,-237.42"/>
</g>
</g>
</svg>
