<?xml version="1.0" encoding="UTF-8" standalone="no"?>
<!DOCTYPE svg PUBLIC "-//W3C//DTD SVG 1.1//EN"
 "http://www.w3.org/Graphics/SVG/1.1/DTD/svg11.dtd">
<!-- Generated by graphviz version 2.49.1 (20210923.0004)
 -->
<!-- Title: fmodf Pages: 1 -->
<svg width="157pt" height="46pt"
 viewBox="0.00 0.00 157.00 46.00" xmlns="http://www.w3.org/2000/svg" xmlns:xlink="http://www.w3.org/1999/xlink">
<g id="graph0" class="graph" transform="scale(1 1) rotate(0) translate(4 42)">
<title>fmodf</title>
<!-- Node1 -->
<g id="node1" class="node">
<title>Node1</title>
<g id="a_node1"><a xlink:title=" ">
<polygon fill="#bfbfbf" stroke="black" points="0,-0.5 0,-19.5 42,-19.5 42,-0.5 0,-0.5"/>
<text text-anchor="middle" x="21" y="-7.5" font-family="Helvetica,sans-Serif" font-size="10.00">fmodf</text>
</a>
</g>
</g>
<!-- Node1&#45;&gt;Node1 -->
<g id="edge1" class="edge">
<title>Node1&#45;&gt;Node1</title>
<path fill="none" stroke="midnightblue" d="M6.82,-19.76C-0.08,-28.57 4.65,-38 21,-38 31.22,-38 36.9,-34.31 38.04,-29.4"/>
<polygon fill="midnightblue" stroke="midnightblue" points="41.38,-28.35 35.18,-19.76 34.66,-30.34 41.38,-28.35"/>
</g>
<!-- Node2 -->
<g id="node2" class="node">
<title>Node2</title>
<g id="a_node2"><a xlink:href="helper__math_8h.html#ae157a97cf7d77e6a05db0e0d22b85fb7" target="_top" xlink:title=" ">
<polygon fill="none" stroke="black" points="78,-0.5 78,-19.5 149,-19.5 149,-0.5 78,-0.5"/>
<text text-anchor="middle" x="113.5" y="-7.5" font-family="Helvetica,sans-Serif" font-size="10.00">make_float2</text>
</a>
</g>
</g>
<!-- Node1&#45;&gt;Node2 -->
<g id="edge2" class="edge">
<title>Node1&#45;&gt;Node2</title>
<path fill="none" stroke="midnightblue" d="M42.08,-10C49.73,-10 58.77,-10 67.79,-10"/>
<polygon fill="midnightblue" stroke="midnightblue" points="67.89,-13.5 77.89,-10 67.89,-6.5 67.89,-13.5"/>
</g>
<!-- Node2&#45;&gt;Node2 -->
<g id="edge3" class="edge">
<title>Node2&#45;&gt;Node2</title>
<path fill="none" stroke="midnightblue" d="M99.32,-19.76C92.42,-28.57 97.15,-38 113.5,-38 123.72,-38 129.4,-34.31 130.54,-29.4"/>
<polygon fill="midnightblue" stroke="midnightblue" points="133.88,-28.35 127.68,-19.76 127.16,-30.34 133.88,-28.35"/>
</g>
</g>
</svg>
