<?xml version="1.0" encoding="UTF-8" standalone="no"?>
<!DOCTYPE svg PUBLIC "-//W3C//DTD SVG 1.1//EN"
 "http://www.w3.org/Graphics/SVG/1.1/DTD/svg11.dtd">
<!-- Generated by graphviz version 2.43.0 (0)
 -->
<!-- Title: make_int2 Pages: 1 -->
<svg width="846pt" height="387pt"
 viewBox="0.00 0.00 846.00 387.00" xmlns="http://www.w3.org/2000/svg" xmlns:xlink="http://www.w3.org/1999/xlink">
<g id="graph0" class="graph" transform="scale(1 1) rotate(0) translate(4 383)">
<title>make_int2</title>
<!-- Node1 -->
<g id="node1" class="node">
<title>Node1</title>
<g id="a_node1"><a xlink:title=" ">
<polygon fill="#bfbfbf" stroke="black" points="776,-133.5 776,-152.5 838,-152.5 838,-133.5 776,-133.5"/>
<text text-anchor="middle" x="807" y="-140.5" font-family="Helvetica,sans-Serif" font-size="10.00">make_int2</text>
</a>
</g>
</g>
<!-- Node2 -->
<g id="node2" class="node">
<title>Node2</title>
<g id="a_node2"><a xlink:href="helper__math_8h.html#ae4378072f9d836b0d4770a1514db2be3" target="_top" xlink:title=" ">
<polygon fill="none" stroke="black" points="693,-266.5 693,-285.5 725,-285.5 725,-266.5 693,-266.5"/>
<text text-anchor="middle" x="709" y="-273.5" font-family="Helvetica,sans-Serif" font-size="10.00">abs</text>
</a>
</g>
</g>
<!-- Node1&#45;&gt;Node2 -->
<g id="edge1" class="edge">
<title>Node1&#45;&gt;Node2</title>
<path fill="none" stroke="midnightblue" d="M798.39,-162.04C788,-186.27 767.47,-228.42 740,-257 735.73,-261.45 730.22,-265.32 725.08,-268.38"/>
<polygon fill="midnightblue" stroke="midnightblue" points="801.73,-163.14 802.33,-152.56 795.26,-160.45 801.73,-163.14"/>
</g>
<!-- Node11 -->
<g id="node11" class="node">
<title>Node11</title>
<g id="a_node11"><a xlink:href="helper__math_8h.html#ad1f08ef2aabcda2e2aca45d40fbc3397" target="_top" xlink:title=" ">
<polygon fill="none" stroke="black" points="687.5,-228.5 687.5,-247.5 730.5,-247.5 730.5,-228.5 687.5,-228.5"/>
<text text-anchor="middle" x="709" y="-235.5" font-family="Helvetica,sans-Serif" font-size="10.00">clamp</text>
</a>
</g>
</g>
<!-- Node1&#45;&gt;Node11 -->
<g id="edge10" class="edge">
<title>Node1&#45;&gt;Node11</title>
<path fill="none" stroke="midnightblue" d="M792.94,-160.83C780.47,-177.13 760.57,-201.31 740,-219 736.07,-222.38 731.49,-225.58 727.11,-228.37"/>
<polygon fill="midnightblue" stroke="midnightblue" points="795.85,-162.78 799.06,-152.68 790.26,-158.57 795.85,-162.78"/>
</g>
<!-- Node12 -->
<g id="node12" class="node">
<title>Node12</title>
<g id="a_node12"><a xlink:href="helper__math_8h.html#ae61756ff3dc1ab198bee68dabd89b2ec" target="_top" xlink:title=" ">
<polygon fill="none" stroke="black" points="678,-190.5 678,-209.5 740,-209.5 740,-190.5 678,-190.5"/>
<text text-anchor="middle" x="709" y="-197.5" font-family="Helvetica,sans-Serif" font-size="10.00">make_int2</text>
</a>
</g>
</g>
<!-- Node1&#45;&gt;Node12 -->
<g id="edge11" class="edge">
<title>Node1&#45;&gt;Node12</title>
<path fill="none" stroke="midnightblue" d="M780.7,-158.02C763.39,-168.3 740.95,-181.62 726.04,-190.47"/>
<polygon fill="midnightblue" stroke="midnightblue" points="782.9,-160.78 789.71,-152.67 779.33,-154.77 782.9,-160.78"/>
</g>
<!-- Node13 -->
<g id="node13" class="node">
<title>Node13</title>
<g id="a_node13"><a xlink:href="helper__math_8h.html#a0d1da99482e200287b0c786ff8f769eb" target="_top" xlink:title=" ">
<polygon fill="none" stroke="black" points="691.5,-152.5 691.5,-171.5 726.5,-171.5 726.5,-152.5 691.5,-152.5"/>
<text text-anchor="middle" x="709" y="-159.5" font-family="Helvetica,sans-Serif" font-size="10.00">max</text>
</a>
</g>
</g>
<!-- Node1&#45;&gt;Node13 -->
<g id="edge12" class="edge">
<title>Node1&#45;&gt;Node13</title>
<path fill="none" stroke="midnightblue" d="M766.05,-150.91C752.23,-153.64 737.49,-156.56 726.6,-158.72"/>
<polygon fill="midnightblue" stroke="midnightblue" points="766.76,-154.33 775.89,-148.96 765.4,-147.47 766.76,-154.33"/>
</g>
<!-- Node14 -->
<g id="node14" class="node">
<title>Node14</title>
<g id="a_node14"><a xlink:href="helper__math_8h.html#a4d54be3b6388d6a2a0d095b880de4d4a" target="_top" xlink:title=" ">
<polygon fill="none" stroke="black" points="693,-114.5 693,-133.5 725,-133.5 725,-114.5 693,-114.5"/>
<text text-anchor="middle" x="709" y="-121.5" font-family="Helvetica,sans-Serif" font-size="10.00">min</text>
</a>
</g>
</g>
<!-- Node1&#45;&gt;Node14 -->
<g id="edge13" class="edge">
<title>Node1&#45;&gt;Node14</title>
<path fill="none" stroke="midnightblue" d="M765.71,-135.03C751.41,-132.2 736.16,-129.18 725.24,-127.02"/>
<polygon fill="midnightblue" stroke="midnightblue" points="765.4,-138.53 775.89,-137.04 766.76,-131.67 765.4,-138.53"/>
</g>
<!-- Node15 -->
<g id="node15" class="node">
<title>Node15</title>
<g id="a_node15"><a xlink:href="helper__math_8h.html#af87d56b7874c3bfec0de4c6fd8ae625e" target="_top" xlink:title=" ">
<polygon fill="none" stroke="black" points="681,-76.5 681,-95.5 737,-95.5 737,-76.5 681,-76.5"/>
<text text-anchor="middle" x="709" y="-83.5" font-family="Helvetica,sans-Serif" font-size="10.00">operator*</text>
</a>
</g>
</g>
<!-- Node1&#45;&gt;Node15 -->
<g id="edge14" class="edge">
<title>Node1&#45;&gt;Node15</title>
<path fill="none" stroke="midnightblue" d="M780.7,-127.98C763.39,-117.7 740.95,-104.38 726.04,-95.53"/>
<polygon fill="midnightblue" stroke="midnightblue" points="779.33,-131.23 789.71,-133.33 782.9,-125.22 779.33,-131.23"/>
</g>
<!-- Node16 -->
<g id="node16" class="node">
<title>Node16</title>
<g id="a_node16"><a xlink:href="helper__math_8h.html#ac2c1c606d303052b7d6ac2a0a8d3a359" target="_top" xlink:title=" ">
<polygon fill="none" stroke="black" points="680,-38.5 680,-57.5 738,-57.5 738,-38.5 680,-38.5"/>
<text text-anchor="middle" x="709" y="-45.5" font-family="Helvetica,sans-Serif" font-size="10.00">operator+</text>
</a>
</g>
</g>
<!-- Node1&#45;&gt;Node16 -->
<g id="edge15" class="edge">
<title>Node1&#45;&gt;Node16</title>
<path fill="none" stroke="midnightblue" d="M792.94,-125.17C780.47,-108.87 760.57,-84.69 740,-67 736.07,-63.62 731.49,-60.42 727.11,-57.63"/>
<polygon fill="midnightblue" stroke="midnightblue" points="790.26,-127.43 799.06,-133.32 795.85,-123.22 790.26,-127.43"/>
</g>
<!-- Node17 -->
<g id="node17" class="node">
<title>Node17</title>
<g id="a_node17"><a xlink:href="helper__math_8h.html#aa2a017587dafe51d6a2aa0ac393d4cea" target="_top" xlink:title=" ">
<polygon fill="none" stroke="black" points="681.5,-0.5 681.5,-19.5 736.5,-19.5 736.5,-0.5 681.5,-0.5"/>
<text text-anchor="middle" x="709" y="-7.5" font-family="Helvetica,sans-Serif" font-size="10.00">operator&#45;</text>
</a>
</g>
</g>
<!-- Node1&#45;&gt;Node17 -->
<g id="edge16" class="edge">
<title>Node1&#45;&gt;Node17</title>
<path fill="none" stroke="midnightblue" d="M798.39,-123.96C788,-99.73 767.47,-57.58 740,-29 736.58,-25.44 732.37,-22.25 728.2,-19.55"/>
<polygon fill="midnightblue" stroke="midnightblue" points="795.26,-125.55 802.33,-133.44 801.73,-122.86 795.26,-125.55"/>
</g>
<!-- Node3 -->
<g id="node3" class="node">
<title>Node3</title>
<g id="a_node3"><a xlink:href="helper__math_8h.html#afe553b3ddd067e12861af3967b19f1cd" target="_top" xlink:title=" ">
<polygon fill="none" stroke="black" points="517,-359.5 517,-378.5 549,-378.5 549,-359.5 517,-359.5"/>
<text text-anchor="middle" x="533" y="-366.5" font-family="Helvetica,sans-Serif" font-size="10.00">abs</text>
</a>
</g>
</g>
<!-- Node2&#45;&gt;Node3 -->
<g id="edge2" class="edge">
<title>Node2&#45;&gt;Node3</title>
<path fill="none" stroke="midnightblue" d="M696.97,-294.21C685.49,-311.48 665.85,-336.71 642,-350 612.23,-366.59 571.29,-369.27 549.35,-369.38"/>
<polygon fill="midnightblue" stroke="midnightblue" points="700.06,-295.87 702.49,-285.56 694.16,-292.1 700.06,-295.87"/>
</g>
<!-- Node4 -->
<g id="node4" class="node">
<title>Node4</title>
<g id="a_node4"><a xlink:href="namespacecollinear-swimmer-internal-dynamics-individual-analysis.html#a85816fbd52c1d1e26f47e73fce3a238d" target="_top" xlink:title="Script to analyze a single GSD file.">
<polygon fill="none" stroke="black" points="425,-310 425,-340 641,-340 641,-310 425,-310"/>
<text text-anchor="start" x="433" y="-328" font-family="Helvetica,sans-Serif" font-size="10.00">collinear&#45;swimmer&#45;internal</text>
<text text-anchor="middle" x="533" y="-317" font-family="Helvetica,sans-Serif" font-size="10.00">&#45;dynamics&#45;individual&#45;analysis.aggregate_plots</text>
</a>
</g>
</g>
<!-- Node2&#45;&gt;Node4 -->
<g id="edge3" class="edge">
<title>Node2&#45;&gt;Node4</title>
<path fill="none" stroke="midnightblue" d="M683.21,-286.36C670.95,-291.23 655.85,-296.86 642,-301 631.23,-304.22 619.75,-307.22 608.44,-309.93"/>
<polygon fill="midnightblue" stroke="midnightblue" points="684.79,-289.49 692.75,-282.49 682.16,-283 684.79,-289.49"/>
</g>
<!-- Node5 -->
<g id="node5" class="node">
<title>Node5</title>
<g id="a_node5"><a xlink:href="namespacecollinear-swimmer-internal-dynamics-aggregate-analysis.html#a95d6a2c618aa100dd70824ac5edce4bf" target="_top" xlink:title="Analyze a single GSD file.">
<polygon fill="none" stroke="black" points="424,-261 424,-291 642,-291 642,-261 424,-261"/>
<text text-anchor="start" x="432" y="-279" font-family="Helvetica,sans-Serif" font-size="10.00">collinear&#45;swimmer&#45;internal</text>
<text text-anchor="middle" x="533" y="-268" font-family="Helvetica,sans-Serif" font-size="10.00">&#45;dynamics&#45;aggregate&#45;analysis.aggregate_plots</text>
</a>
</g>
</g>
<!-- Node2&#45;&gt;Node5 -->
<g id="edge4" class="edge">
<title>Node2&#45;&gt;Node5</title>
<path fill="none" stroke="midnightblue" d="M682.59,-276C671.31,-276 657.18,-276 642.16,-276"/>
<polygon fill="midnightblue" stroke="midnightblue" points="682.86,-279.5 692.86,-276 682.86,-272.5 682.86,-279.5"/>
</g>
<!-- Node6 -->
<g id="node6" class="node">
<title>Node6</title>
<g id="a_node6"><a xlink:href="classSystemData.html#a000a3e77f12b4c1bc9678e9ede202f83" target="_top" xlink:title="Computes the orientation (unit vector) of a particle with respect to its locater point.">
<polygon fill="none" stroke="black" points="464.5,-212 464.5,-242 601.5,-242 601.5,-212 464.5,-212"/>
<text text-anchor="start" x="472.5" y="-230" font-family="Helvetica,sans-Serif" font-size="10.00">SystemData::convertBody2</text>
<text text-anchor="middle" x="533" y="-219" font-family="Helvetica,sans-Serif" font-size="10.00">ParticleOrient</text>
</a>
</g>
</g>
<!-- Node2&#45;&gt;Node6 -->
<g id="edge5" class="edge">
<title>Node2&#45;&gt;Node6</title>
<path fill="none" stroke="midnightblue" d="M683.4,-266.25C671.09,-261.58 655.88,-256.11 642,-252 629.08,-248.17 615.16,-244.57 601.74,-241.35"/>
<polygon fill="midnightblue" stroke="midnightblue" points="682.38,-269.61 692.97,-269.94 684.9,-263.08 682.38,-269.61"/>
</g>
<!-- Node10 -->
<g id="node10" class="node">
<title>Node10</title>
<g id="a_node10"><a xlink:href="classRungeKutta4.html#a301c6c8b82c9f0808159aff069aef28e" target="_top" xlink:title="Construct a new runge Kutta4 object.">
<polygon fill="none" stroke="black" points="464.5,-173.5 464.5,-192.5 601.5,-192.5 601.5,-173.5 464.5,-173.5"/>
<text text-anchor="middle" x="533" y="-180.5" font-family="Helvetica,sans-Serif" font-size="10.00">RungeKutta4::RungeKutta4</text>
</a>
</g>
</g>
<!-- Node2&#45;&gt;Node10 -->
<g id="edge9" class="edge">
<title>Node2&#45;&gt;Node10</title>
<path fill="none" stroke="midnightblue" d="M684.17,-262.26C681.99,-260.61 679.89,-258.85 678,-257 657.37,-236.84 666.08,-218.88 642,-203 630.06,-195.13 615.85,-190.15 601.72,-187.05"/>
<polygon fill="midnightblue" stroke="midnightblue" points="682.51,-265.36 692.76,-268.05 686.42,-259.56 682.51,-265.36"/>
</g>
<!-- Node7 -->
<g id="node7" class="node">
<title>Node7</title>
<g id="a_node7"><a xlink:href="classSystemData.html#a96d6dfb7bdb78d98fbbdac1f421c838c" target="_top" xlink:title="Updates all relevant rigid body motion tensors, respective gradients, and kinematic/Udwadia constrain...">
<polygon fill="none" stroke="black" points="281,-217.5 281,-236.5 388,-236.5 388,-217.5 281,-217.5"/>
<text text-anchor="middle" x="334.5" y="-224.5" font-family="Helvetica,sans-Serif" font-size="10.00">SystemData::update</text>
</a>
</g>
</g>
<!-- Node6&#45;&gt;Node7 -->
<g id="edge6" class="edge">
<title>Node6&#45;&gt;Node7</title>
<path fill="none" stroke="midnightblue" d="M454.29,-227C432.06,-227 408.37,-227 388.04,-227"/>
<polygon fill="midnightblue" stroke="midnightblue" points="454.38,-230.5 464.38,-227 454.38,-223.5 454.38,-230.5"/>
</g>
<!-- Node8 -->
<g id="node8" class="node">
<title>Node8</title>
<g id="a_node8"><a xlink:href="classSystemData.html#ac3a796dc8bf1fa82ea6dec33e548924f" target="_top" xlink:title="Function loads data from GSD file using GSDUtil class.">
<polygon fill="none" stroke="black" points="111,-217.5 111,-236.5 245,-236.5 245,-217.5 111,-217.5"/>
<text text-anchor="middle" x="178" y="-224.5" font-family="Helvetica,sans-Serif" font-size="10.00">SystemData::initializeData</text>
</a>
</g>
</g>
<!-- Node7&#45;&gt;Node8 -->
<g id="edge7" class="edge">
<title>Node7&#45;&gt;Node8</title>
<path fill="none" stroke="midnightblue" d="M270.66,-227C262.26,-227 253.62,-227 245.16,-227"/>
<polygon fill="midnightblue" stroke="midnightblue" points="270.76,-230.5 280.76,-227 270.76,-223.5 270.76,-230.5"/>
</g>
<!-- Node9 -->
<g id="node9" class="node">
<title>Node9</title>
<g id="a_node9"><a xlink:href="TestSimulation_8cpp.html#a7537b8ac7073aed4bf8255b43bbbf1f9" target="_top" xlink:title=" ">
<polygon fill="none" stroke="black" points="0,-217.5 0,-236.5 75,-236.5 75,-217.5 0,-217.5"/>
<text text-anchor="middle" x="37.5" y="-224.5" font-family="Helvetica,sans-Serif" font-size="10.00">TEST_CASE</text>
</a>
</g>
</g>
<!-- Node8&#45;&gt;Node9 -->
<g id="edge8" class="edge">
<title>Node8&#45;&gt;Node9</title>
<path fill="none" stroke="midnightblue" d="M100.94,-227C92.06,-227 83.33,-227 75.34,-227"/>
<polygon fill="midnightblue" stroke="midnightblue" points="101,-230.5 111,-227 101,-223.5 101,-230.5"/>
</g>
</g>
</svg>
