<?xml version="1.0" encoding="UTF-8" standalone="no"?>
<!DOCTYPE svg PUBLIC "-//W3C//DTD SVG 1.1//EN"
 "http://www.w3.org/Graphics/SVG/1.1/DTD/svg11.dtd">
<!-- Generated by graphviz version 2.43.0 (0)
 -->
<!-- Title: asEval Pages: 1 -->
<svg width="792pt" height="176pt"
 viewBox="0.00 0.00 792.00 175.50" xmlns="http://www.w3.org/2000/svg" xmlns:xlink="http://www.w3.org/1999/xlink">
<g id="graph0" class="graph" transform="scale(1 1) rotate(0) translate(4 171.5)">
<title>asEval</title>
<!-- Node1 -->
<g id="node1" class="node">
<title>Node1</title>
<g id="a_node1"><a xlink:title=" ">
<polygon fill="#bfbfbf" stroke="black" points="737,-49.5 737,-68.5 784,-68.5 784,-49.5 737,-49.5"/>
<text text-anchor="middle" x="760.5" y="-56.5" font-family="Helvetica,sans-Serif" font-size="10.00">asEval</text>
</a>
</g>
</g>
<!-- Node2 -->
<g id="node2" class="node">
<title>Node2</title>
<g id="a_node2"><a xlink:href="helper__eigenTensorConversion_8hpp.html#a556d08b55a6ad7cd703b6db06194e5cf" target="_top" xlink:title=" ">
<polygon fill="none" stroke="black" points="636,-68.5 636,-87.5 701,-87.5 701,-68.5 636,-68.5"/>
<text text-anchor="middle" x="668.5" y="-75.5" font-family="Helvetica,sans-Serif" font-size="10.00">MatrixCast</text>
</a>
</g>
</g>
<!-- Node1&#45;&gt;Node2 -->
<g id="edge1" class="edge">
<title>Node1&#45;&gt;Node2</title>
<path fill="none" stroke="midnightblue" d="M726.91,-65.88C718.48,-67.66 709.42,-69.57 701.04,-71.34"/>
<polygon fill="midnightblue" stroke="midnightblue" points="727.73,-69.28 736.79,-63.79 726.28,-62.44 727.73,-69.28"/>
</g>
<!-- Node13 -->
<g id="node13" class="node">
<title>Node13</title>
<g id="a_node13"><a xlink:href="helper__eigenTensorConversion_8hpp.html#ac872c78296e568aec10500f4e18c8f83" target="_top" xlink:title=" ">
<polygon fill="none" stroke="black" points="636,-30.5 636,-49.5 701,-49.5 701,-30.5 636,-30.5"/>
<text text-anchor="middle" x="668.5" y="-37.5" font-family="Helvetica,sans-Serif" font-size="10.00">VectorCast</text>
</a>
</g>
</g>
<!-- Node1&#45;&gt;Node13 -->
<g id="edge13" class="edge">
<title>Node1&#45;&gt;Node13</title>
<path fill="none" stroke="midnightblue" d="M726.91,-52.12C718.48,-50.34 709.42,-48.43 701.04,-46.66"/>
<polygon fill="midnightblue" stroke="midnightblue" points="726.28,-55.56 736.79,-54.21 727.73,-48.72 726.28,-55.56"/>
</g>
<!-- Node3 -->
<g id="node3" class="node">
<title>Node3</title>
<g id="a_node3"><a xlink:href="classPotentialHydrodynamics.html#a3195035f26bdbd013fa2825903e7de2e" target="_top" xlink:title=" ">
<polygon fill="none" stroke="black" points="465.5,-137 465.5,-167 588.5,-167 588.5,-137 465.5,-137"/>
<text text-anchor="start" x="473.5" y="-155" font-family="Helvetica,sans-Serif" font-size="10.00">PotentialHydrodynamics</text>
<text text-anchor="middle" x="527" y="-144" font-family="Helvetica,sans-Serif" font-size="10.00">::calcBodyMass</text>
</a>
</g>
</g>
<!-- Node2&#45;&gt;Node3 -->
<g id="edge2" class="edge">
<title>Node2&#45;&gt;Node3</title>
<path fill="none" stroke="midnightblue" d="M649.02,-94.2C636.02,-104.95 617.83,-118.73 600,-128 593.69,-131.28 586.83,-134.25 579.95,-136.89"/>
<polygon fill="midnightblue" stroke="midnightblue" points="651.39,-96.79 656.76,-87.65 646.87,-91.44 651.39,-96.79"/>
</g>
<!-- Node6 -->
<g id="node6" class="node">
<title>Node6</title>
<g id="a_node6"><a xlink:href="classPotentialHydrodynamics.html#a1f22d16e1aa9f675611d2394d76cd595" target="_top" xlink:title="Calculates m_F_hydro and m_F_hydroNoInertia">
<polygon fill="none" stroke="black" points="465.5,-88 465.5,-118 588.5,-118 588.5,-88 465.5,-88"/>
<text text-anchor="start" x="473.5" y="-106" font-family="Helvetica,sans-Serif" font-size="10.00">PotentialHydrodynamics</text>
<text text-anchor="middle" x="527" y="-95" font-family="Helvetica,sans-Serif" font-size="10.00">::calcHydroForces</text>
</a>
</g>
</g>
<!-- Node2&#45;&gt;Node6 -->
<g id="edge5" class="edge">
<title>Node2&#45;&gt;Node6</title>
<path fill="none" stroke="midnightblue" d="M625.93,-85.45C614.22,-87.55 601.24,-89.88 588.66,-92.13"/>
<polygon fill="midnightblue" stroke="midnightblue" points="626.62,-88.88 635.85,-83.67 625.38,-81.99 626.62,-88.88"/>
</g>
<!-- Node7 -->
<g id="node7" class="node">
<title>Node7</title>
<g id="a_node7"><a xlink:href="classSystemData.html#aa3a9fae706cf141ed66c05736656fdba" target="_top" xlink:title="Computes the particle D.o.F. from the body D.o.F.">
<polygon fill="none" stroke="black" points="458.5,-39 458.5,-69 595.5,-69 595.5,-39 458.5,-39"/>
<text text-anchor="start" x="466.5" y="-57" font-family="Helvetica,sans-Serif" font-size="10.00">SystemData::convertBody2</text>
<text text-anchor="middle" x="527" y="-46" font-family="Helvetica,sans-Serif" font-size="10.00">ParticleVelAcc</text>
</a>
</g>
</g>
<!-- Node2&#45;&gt;Node7 -->
<g id="edge7" class="edge">
<title>Node2&#45;&gt;Node7</title>
<path fill="none" stroke="midnightblue" d="M625.89,-70.84C616.36,-69.2 606,-67.42 595.7,-65.65"/>
<polygon fill="midnightblue" stroke="midnightblue" points="625.4,-74.31 635.85,-72.55 626.58,-67.41 625.4,-74.31"/>
</g>
<!-- Node11 -->
<g id="node11" class="node">
<title>Node11</title>
<g id="a_node11"><a xlink:href="classRungeKutta4.html#acca3997f41542bb0536436fbb64e4b40" target="_top" xlink:title="(linear/angular) momentum and (linear/angular) force free algorithm">
<polygon fill="none" stroke="black" points="454,-0.5 454,-19.5 600,-19.5 600,-0.5 454,-0.5"/>
<text text-anchor="middle" x="527" y="-7.5" font-family="Helvetica,sans-Serif" font-size="10.00">RungeKutta4::momForceFree</text>
</a>
</g>
</g>
<!-- Node2&#45;&gt;Node11 -->
<g id="edge11" class="edge">
<title>Node2&#45;&gt;Node11</title>
<path fill="none" stroke="midnightblue" d="M641.8,-62.95C639.81,-61.65 637.86,-60.32 636,-59 619.03,-46.92 618.51,-38.55 600,-29 592.53,-25.15 584.22,-22.03 575.96,-19.51"/>
<polygon fill="midnightblue" stroke="midnightblue" points="640.19,-66.07 650.52,-68.4 643.9,-60.13 640.19,-66.07"/>
</g>
<!-- Node4 -->
<g id="node4" class="node">
<title>Node4</title>
<g id="a_node4"><a xlink:href="classPotentialHydrodynamics.html#af46b6fe2ab386a26a3e0b6c1fee527cb" target="_top" xlink:title="Updates all hydrodynamic quantities at current configuration (data from SystemData)">
<polygon fill="none" stroke="black" points="288,-112 288,-142 411,-142 411,-112 288,-112"/>
<text text-anchor="start" x="296" y="-130" font-family="Helvetica,sans-Serif" font-size="10.00">PotentialHydrodynamics</text>
<text text-anchor="middle" x="349.5" y="-119" font-family="Helvetica,sans-Serif" font-size="10.00">::update</text>
</a>
</g>
</g>
<!-- Node3&#45;&gt;Node4 -->
<g id="edge3" class="edge">
<title>Node3&#45;&gt;Node4</title>
<path fill="none" stroke="midnightblue" d="M455.17,-141.91C440.62,-139.84 425.43,-137.67 411.28,-135.66"/>
<polygon fill="midnightblue" stroke="midnightblue" points="454.72,-145.38 465.11,-143.33 455.7,-138.45 454.72,-145.38"/>
</g>
<!-- Node5 -->
<g id="node5" class="node">
<title>Node5</title>
<g id="a_node5"><a xlink:href="classPotentialHydrodynamics.html#a7ef38402d3034fd4009ded220d8438fc" target="_top" xlink:title="Construct a new potential hydrodynamics object.">
<polygon fill="none" stroke="black" points="113.5,-112 113.5,-142 242.5,-142 242.5,-112 113.5,-112"/>
<text text-anchor="start" x="121.5" y="-130" font-family="Helvetica,sans-Serif" font-size="10.00">PotentialHydrodynamics</text>
<text text-anchor="middle" x="178" y="-119" font-family="Helvetica,sans-Serif" font-size="10.00">::PotentialHydrodynamics</text>
</a>
</g>
</g>
<!-- Node4&#45;&gt;Node5 -->
<g id="edge4" class="edge">
<title>Node4&#45;&gt;Node5</title>
<path fill="none" stroke="midnightblue" d="M277.7,-127C266.1,-127 254.14,-127 242.72,-127"/>
<polygon fill="midnightblue" stroke="midnightblue" points="277.79,-130.5 287.79,-127 277.79,-123.5 277.79,-130.5"/>
</g>
<!-- Node6&#45;&gt;Node4 -->
<g id="edge6" class="edge">
<title>Node6&#45;&gt;Node4</title>
<path fill="none" stroke="midnightblue" d="M455.17,-112.69C440.62,-114.68 425.43,-116.75 411.28,-118.69"/>
<polygon fill="midnightblue" stroke="midnightblue" points="455.68,-116.15 465.11,-111.33 454.73,-109.21 455.68,-116.15"/>
</g>
<!-- Node8 -->
<g id="node8" class="node">
<title>Node8</title>
<g id="a_node8"><a xlink:href="classSystemData.html#a96d6dfb7bdb78d98fbbdac1f421c838c" target="_top" xlink:title="Updates all relevant rigid body motion tensors, respective gradients, and kinematic/Udwadia constrain...">
<polygon fill="none" stroke="black" points="296,-44.5 296,-63.5 403,-63.5 403,-44.5 296,-44.5"/>
<text text-anchor="middle" x="349.5" y="-51.5" font-family="Helvetica,sans-Serif" font-size="10.00">SystemData::update</text>
</a>
</g>
</g>
<!-- Node7&#45;&gt;Node8 -->
<g id="edge8" class="edge">
<title>Node7&#45;&gt;Node8</title>
<path fill="none" stroke="midnightblue" d="M447.97,-54C432.78,-54 417.2,-54 403.08,-54"/>
<polygon fill="midnightblue" stroke="midnightblue" points="448.4,-57.5 458.4,-54 448.4,-50.5 448.4,-57.5"/>
</g>
<!-- Node9 -->
<g id="node9" class="node">
<title>Node9</title>
<g id="a_node9"><a xlink:href="classSystemData.html#ac3a796dc8bf1fa82ea6dec33e548924f" target="_top" xlink:title="Function loads data from GSD file using GSDUtil class.">
<polygon fill="none" stroke="black" points="111,-44.5 111,-63.5 245,-63.5 245,-44.5 111,-44.5"/>
<text text-anchor="middle" x="178" y="-51.5" font-family="Helvetica,sans-Serif" font-size="10.00">SystemData::initializeData</text>
</a>
</g>
</g>
<!-- Node8&#45;&gt;Node9 -->
<g id="edge9" class="edge">
<title>Node8&#45;&gt;Node9</title>
<path fill="none" stroke="midnightblue" d="M285.44,-54C272.29,-54 258.39,-54 245.13,-54"/>
<polygon fill="midnightblue" stroke="midnightblue" points="285.8,-57.5 295.8,-54 285.8,-50.5 285.8,-57.5"/>
</g>
<!-- Node10 -->
<g id="node10" class="node">
<title>Node10</title>
<g id="a_node10"><a xlink:href="TestSimulation_8cpp.html#a7537b8ac7073aed4bf8255b43bbbf1f9" target="_top" xlink:title=" ">
<polygon fill="none" stroke="black" points="0,-44.5 0,-63.5 75,-63.5 75,-44.5 0,-44.5"/>
<text text-anchor="middle" x="37.5" y="-51.5" font-family="Helvetica,sans-Serif" font-size="10.00">TEST_CASE</text>
</a>
</g>
</g>
<!-- Node9&#45;&gt;Node10 -->
<g id="edge10" class="edge">
<title>Node9&#45;&gt;Node10</title>
<path fill="none" stroke="midnightblue" d="M100.94,-54C92.06,-54 83.33,-54 75.34,-54"/>
<polygon fill="midnightblue" stroke="midnightblue" points="101,-57.5 111,-54 101,-50.5 101,-57.5"/>
</g>
<!-- Node12 -->
<g id="node12" class="node">
<title>Node12</title>
<g id="a_node12"><a xlink:href="classRungeKutta4.html#a301c6c8b82c9f0808159aff069aef28e" target="_top" xlink:title="Construct a new runge Kutta4 object.">
<polygon fill="none" stroke="black" points="281,-0.5 281,-19.5 418,-19.5 418,-0.5 281,-0.5"/>
<text text-anchor="middle" x="349.5" y="-7.5" font-family="Helvetica,sans-Serif" font-size="10.00">RungeKutta4::RungeKutta4</text>
</a>
</g>
</g>
<!-- Node11&#45;&gt;Node12 -->
<g id="edge12" class="edge">
<title>Node11&#45;&gt;Node12</title>
<path fill="none" stroke="midnightblue" d="M443.81,-10C435.21,-10 426.54,-10 418.13,-10"/>
<polygon fill="midnightblue" stroke="midnightblue" points="443.86,-13.5 453.86,-10 443.86,-6.5 443.86,-13.5"/>
</g>
</g>
</svg>
