<?xml version="1.0" encoding="UTF-8" standalone="no"?>
<!DOCTYPE svg PUBLIC "-//W3C//DTD SVG 1.1//EN"
 "http://www.w3.org/Graphics/SVG/1.1/DTD/svg11.dtd">
<!-- Generated by graphviz version 2.49.1 (20210923.0004)
 -->
<!-- Title: src/cuda_helpers/helper_cusolver.h Pages: 1 -->
<svg width="506pt" height="95pt"
 viewBox="0.00 0.00 506.00 95.00" xmlns="http://www.w3.org/2000/svg" xmlns:xlink="http://www.w3.org/1999/xlink">
<g id="graph0" class="graph" transform="scale(1 1) rotate(0) translate(4 91)">
<title>src/cuda_helpers/helper_cusolver.h</title>
<!-- Node1 -->
<g id="node1" class="node">
<title>Node1</title>
<g id="a_node1"><a xlink:title=" ">
<polygon fill="#bfbfbf" stroke="black" points="197,-56.5 197,-86.5 320,-86.5 320,-56.5 197,-56.5"/>
<text text-anchor="start" x="205" y="-74.5" font-family="Helvetica,sans-Serif" font-size="10.00">src/cuda_helpers/helper</text>
<text text-anchor="middle" x="258.5" y="-63.5" font-family="Helvetica,sans-Serif" font-size="10.00">_cusolver.h</text>
</a>
</g>
</g>
<!-- Node2 -->
<g id="node2" class="node">
<title>Node2</title>
<g id="a_node2"><a xlink:title=" ">
<polygon fill="none" stroke="#bfbfbf" points="0,-0.5 0,-19.5 49,-19.5 49,-0.5 0,-0.5"/>
<text text-anchor="middle" x="24.5" y="-7.5" font-family="Helvetica,sans-Serif" font-size="10.00">ctype.h</text>
</a>
</g>
</g>
<!-- Node1&#45;&gt;Node2 -->
<g id="edge1" class="edge">
<title>Node1&#45;&gt;Node2</title>
<path fill="none" stroke="midnightblue" d="M201.24,-56.44C163.34,-47.06 112.29,-34.28 59.27,-20.43"/>
<polygon fill="midnightblue" stroke="midnightblue" points="59.91,-16.98 49.35,-17.84 58.14,-23.75 59.91,-16.98"/>
</g>
<!-- Node3 -->
<g id="node3" class="node">
<title>Node3</title>
<g id="a_node3"><a xlink:title=" ">
<polygon fill="none" stroke="#bfbfbf" points="67,-0.5 67,-19.5 152,-19.5 152,-0.5 67,-0.5"/>
<text text-anchor="middle" x="109.5" y="-7.5" font-family="Helvetica,sans-Serif" font-size="10.00">cuda_runtime.h</text>
</a>
</g>
</g>
<!-- Node1&#45;&gt;Node3 -->
<g id="edge2" class="edge">
<title>Node1&#45;&gt;Node3</title>
<path fill="none" stroke="midnightblue" d="M223.19,-56.4C198.08,-46.37 164.66,-33.03 140.56,-23.4"/>
<polygon fill="midnightblue" stroke="midnightblue" points="141.77,-20.12 131.18,-19.66 139.17,-26.62 141.77,-20.12"/>
</g>
<!-- Node4 -->
<g id="node4" class="node">
<title>Node4</title>
<g id="a_node4"><a xlink:title=" ">
<polygon fill="none" stroke="#bfbfbf" points="170,-0.5 170,-19.5 217,-19.5 217,-0.5 170,-0.5"/>
<text text-anchor="middle" x="193.5" y="-7.5" font-family="Helvetica,sans-Serif" font-size="10.00">math.h</text>
</a>
</g>
</g>
<!-- Node1&#45;&gt;Node4 -->
<g id="edge3" class="edge">
<title>Node1&#45;&gt;Node4</title>
<path fill="none" stroke="midnightblue" d="M243.1,-56.4C233.26,-47.4 220.51,-35.72 210.39,-26.47"/>
<polygon fill="midnightblue" stroke="midnightblue" points="212.7,-23.83 202.96,-19.66 207.97,-28.99 212.7,-23.83"/>
</g>
<!-- Node5 -->
<g id="node5" class="node">
<title>Node5</title>
<g id="a_node5"><a xlink:title=" ">
<polygon fill="none" stroke="#bfbfbf" points="235.5,-0.5 235.5,-19.5 281.5,-19.5 281.5,-0.5 235.5,-0.5"/>
<text text-anchor="middle" x="258.5" y="-7.5" font-family="Helvetica,sans-Serif" font-size="10.00">stdio.h</text>
</a>
</g>
</g>
<!-- Node1&#45;&gt;Node5 -->
<g id="edge4" class="edge">
<title>Node1&#45;&gt;Node5</title>
<path fill="none" stroke="midnightblue" d="M258.5,-56.4C258.5,-48.47 258.5,-38.46 258.5,-29.86"/>
<polygon fill="midnightblue" stroke="midnightblue" points="262,-29.66 258.5,-19.66 255,-29.66 262,-29.66"/>
</g>
<!-- Node6 -->
<g id="node6" class="node">
<title>Node6</title>
<g id="a_node6"><a xlink:title=" ">
<polygon fill="none" stroke="#bfbfbf" points="299.5,-0.5 299.5,-19.5 347.5,-19.5 347.5,-0.5 299.5,-0.5"/>
<text text-anchor="middle" x="323.5" y="-7.5" font-family="Helvetica,sans-Serif" font-size="10.00">stdlib.h</text>
</a>
</g>
</g>
<!-- Node1&#45;&gt;Node6 -->
<g id="edge5" class="edge">
<title>Node1&#45;&gt;Node6</title>
<path fill="none" stroke="midnightblue" d="M273.9,-56.4C283.74,-47.4 296.49,-35.72 306.61,-26.47"/>
<polygon fill="midnightblue" stroke="midnightblue" points="309.03,-28.99 314.04,-19.66 304.3,-23.83 309.03,-28.99"/>
</g>
<!-- Node7 -->
<g id="node7" class="node">
<title>Node7</title>
<g id="a_node7"><a xlink:title=" ">
<polygon fill="none" stroke="#bfbfbf" points="366,-0.5 366,-19.5 415,-19.5 415,-0.5 366,-0.5"/>
<text text-anchor="middle" x="390.5" y="-7.5" font-family="Helvetica,sans-Serif" font-size="10.00">string.h</text>
</a>
</g>
</g>
<!-- Node1&#45;&gt;Node7 -->
<g id="edge6" class="edge">
<title>Node1&#45;&gt;Node7</title>
<path fill="none" stroke="midnightblue" d="M289.78,-56.4C311.73,-46.51 340.84,-33.38 362.12,-23.79"/>
<polygon fill="midnightblue" stroke="midnightblue" points="363.61,-26.96 371.29,-19.66 360.74,-20.58 363.61,-26.96"/>
</g>
<!-- Node8 -->
<g id="node8" class="node">
<title>Node8</title>
<g id="a_node8"><a xlink:title=" ">
<polygon fill="none" stroke="#bfbfbf" points="433,-0.5 433,-19.5 498,-19.5 498,-0.5 433,-0.5"/>
<text text-anchor="middle" x="465.5" y="-7.5" font-family="Helvetica,sans-Serif" font-size="10.00">cusparse.h</text>
</a>
</g>
</g>
<!-- Node1&#45;&gt;Node8 -->
<g id="edge7" class="edge">
<title>Node1&#45;&gt;Node8</title>
<path fill="none" stroke="midnightblue" d="M307.29,-56.47C343.47,-46.08 392.17,-32.08 425.94,-22.37"/>
<polygon fill="midnightblue" stroke="midnightblue" points="427.26,-25.63 435.91,-19.51 425.33,-18.91 427.26,-25.63"/>
</g>
</g>
</svg>
