<?xml version="1.0" encoding="UTF-8" standalone="no"?>
<!DOCTYPE svg PUBLIC "-//W3C//DTD SVG 1.1//EN"
 "http://www.w3.org/Graphics/SVG/1.1/DTD/svg11.dtd">
<!-- Generated by graphviz version 2.43.0 (0)
 -->
<!-- Title: src/helpers/eigen/helper_eigenTensorConversion.h Pages: 1 -->
<svg width="793pt" height="363pt"
 viewBox="0.00 0.00 793.00 363.00" xmlns="http://www.w3.org/2000/svg" xmlns:xlink="http://www.w3.org/1999/xlink">
<g id="graph0" class="graph" transform="scale(1 1) rotate(0) translate(4 359)">
<title>src/helpers/eigen/helper_eigenTensorConversion.h</title>
<!-- Node1 -->
<g id="node1" class="node">
<title>Node1</title>
<g id="a_node1"><a xlink:title=" ">
<polygon fill="#bfbfbf" stroke="black" points="379.5,-324.5 379.5,-354.5 511.5,-354.5 511.5,-324.5 379.5,-324.5"/>
<text text-anchor="start" x="387.5" y="-342.5" font-family="Helvetica,sans-Serif" font-size="10.00">src/helpers/eigen/helper</text>
<text text-anchor="middle" x="445.5" y="-331.5" font-family="Helvetica,sans-Serif" font-size="10.00">_eigenTensorConversion.h</text>
</a>
</g>
</g>
<!-- Node2 -->
<g id="node2" class="node">
<title>Node2</title>
<g id="a_node2"><a xlink:href="systemData_8hpp.html" target="_top" xlink:title=" ">
<polygon fill="none" stroke="black" points="388,-257.5 388,-287.5 503,-287.5 503,-257.5 388,-257.5"/>
<text text-anchor="start" x="396" y="-275.5" font-family="Helvetica,sans-Serif" font-size="10.00">src/simulation_system</text>
<text text-anchor="middle" x="445.5" y="-264.5" font-family="Helvetica,sans-Serif" font-size="10.00">/systemData.hpp</text>
</a>
</g>
</g>
<!-- Node1&#45;&gt;Node2 -->
<g id="edge1" class="edge">
<title>Node1&#45;&gt;Node2</title>
<path fill="none" stroke="midnightblue" d="M445.5,-314.11C445.5,-305.15 445.5,-295.32 445.5,-287.58"/>
<polygon fill="midnightblue" stroke="midnightblue" points="442,-314.4 445.5,-324.4 449,-314.4 442,-314.4"/>
</g>
<!-- Node3 -->
<g id="node3" class="node">
<title>Node3</title>
<g id="a_node3"><a xlink:href="GSDUtil_8hpp.html" target="_top" xlink:title=" ">
<polygon fill="none" stroke="black" points="0,-196 0,-215 123,-215 123,-196 0,-196"/>
<text text-anchor="middle" x="61.5" y="-203" font-family="Helvetica,sans-Serif" font-size="10.00">src/data_io/GSDUtil.hpp</text>
</a>
</g>
</g>
<!-- Node2&#45;&gt;Node3 -->
<g id="edge2" class="edge">
<title>Node2&#45;&gt;Node3</title>
<path fill="none" stroke="midnightblue" d="M377.76,-261.99C313.35,-252.16 214.09,-236.18 128.5,-221 118.05,-219.15 106.81,-217.06 96.53,-215.05"/>
<polygon fill="midnightblue" stroke="midnightblue" points="377.38,-265.47 387.79,-263.51 378.43,-258.55 377.38,-265.47"/>
</g>
<!-- Node5 -->
<g id="node5" class="node">
<title>Node5</title>
<g id="a_node5"><a xlink:href="potentialHydrodynamics_8hpp.html" target="_top" xlink:title=" ">
<polygon fill="none" stroke="black" points="292,-196 292,-215 479,-215 479,-196 292,-196"/>
<text text-anchor="middle" x="385.5" y="-203" font-family="Helvetica,sans-Serif" font-size="10.00">src/forces/potentialHydrodynamics.hpp</text>
</a>
</g>
</g>
<!-- Node2&#45;&gt;Node5 -->
<g id="edge5" class="edge">
<title>Node2&#45;&gt;Node5</title>
<path fill="none" stroke="midnightblue" d="M425.65,-250C414.7,-238.13 401.7,-224.05 393.53,-215.19"/>
<polygon fill="midnightblue" stroke="midnightblue" points="423.13,-252.42 432.48,-257.4 428.27,-247.67 423.13,-252.42"/>
</g>
<!-- Node7 -->
<g id="node7" class="node">
<title>Node7</title>
<g id="a_node7"><a xlink:href="rungeKutta4_8hpp.html" target="_top" xlink:title=" ">
<polygon fill="none" stroke="black" points="422,-134.5 422,-153.5 575,-153.5 575,-134.5 422,-134.5"/>
<text text-anchor="middle" x="498.5" y="-141.5" font-family="Helvetica,sans-Serif" font-size="10.00">src/integrators/rungeKutta4.hpp</text>
</a>
</g>
</g>
<!-- Node2&#45;&gt;Node7 -->
<g id="edge14" class="edge">
<title>Node2&#45;&gt;Node7</title>
<path fill="none" stroke="midnightblue" d="M468.73,-249.83C476.24,-241.54 483.82,-231.53 488.5,-221 498.55,-198.38 499.28,-168.51 498.92,-153.87"/>
<polygon fill="midnightblue" stroke="midnightblue" points="466.04,-247.57 461.65,-257.21 471.1,-252.41 466.04,-247.57"/>
</g>
<!-- Node9 -->
<g id="node9" class="node">
<title>Node9</title>
<g id="a_node9"><a xlink:href="engine_8hpp.html" target="_top" xlink:title=" ">
<polygon fill="none" stroke="black" points="289,-67.5 289,-97.5 404,-97.5 404,-67.5 289,-67.5"/>
<text text-anchor="start" x="297" y="-85.5" font-family="Helvetica,sans-Serif" font-size="10.00">src/simulation_system</text>
<text text-anchor="middle" x="346.5" y="-74.5" font-family="Helvetica,sans-Serif" font-size="10.00">/engine.hpp</text>
</a>
</g>
</g>
<!-- Node2&#45;&gt;Node9 -->
<g id="edge16" class="edge">
<title>Node2&#45;&gt;Node9</title>
<path fill="none" stroke="midnightblue" d="M377.66,-265.06C310.54,-254.54 211.99,-226.84 170.5,-154 143.09,-105.88 227.73,-90.56 288.98,-85.71"/>
<polygon fill="midnightblue" stroke="midnightblue" points="377.34,-268.55 387.74,-266.55 378.36,-261.63 377.34,-268.55"/>
</g>
<!-- Node10 -->
<g id="node10" class="node">
<title>Node10</title>
<g id="a_node10"><a xlink:href="main_8cpp.html" target="_top" xlink:title=" ">
<polygon fill="none" stroke="black" points="449,-6 449,-25 522,-25 522,-6 449,-6"/>
<text text-anchor="middle" x="485.5" y="-13" font-family="Helvetica,sans-Serif" font-size="10.00">src/main.cpp</text>
</a>
</g>
</g>
<!-- Node2&#45;&gt;Node10 -->
<g id="edge15" class="edge">
<title>Node2&#45;&gt;Node10</title>
<path fill="none" stroke="midnightblue" d="M482.94,-252.34C516.63,-232.76 563.89,-198.88 584.5,-154 600.64,-118.86 604.7,-99.97 584.5,-67 571,-44.95 544.5,-32.15 522.32,-24.95"/>
<polygon fill="midnightblue" stroke="midnightblue" points="480.82,-249.52 473.84,-257.48 484.27,-255.61 480.82,-249.52"/>
</g>
<!-- Node12 -->
<g id="node12" class="node">
<title>Node12</title>
<g id="a_node12"><a xlink:href="testsSimulationBuild_8cpp.html" target="_top" xlink:title=" ">
<polygon fill="none" stroke="black" points="553,-6 553,-25 702,-25 702,-6 553,-6"/>
<text text-anchor="middle" x="627.5" y="-13" font-family="Helvetica,sans-Serif" font-size="10.00">tests/testsSimulationBuild.cpp</text>
</a>
</g>
</g>
<!-- Node2&#45;&gt;Node12 -->
<g id="edge18" class="edge">
<title>Node2&#45;&gt;Node12</title>
<path fill="none" stroke="midnightblue" d="M501.7,-253.74C521.08,-245.79 542.04,-235 558.5,-221 620.71,-168.07 627.01,-56.99 627.5,-25.18"/>
<polygon fill="midnightblue" stroke="midnightblue" points="500.36,-250.5 492.33,-257.41 502.92,-257.02 500.36,-250.5"/>
</g>
<!-- Node13 -->
<g id="node13" class="node">
<title>Node13</title>
<g id="a_node13"><a xlink:href="systemData_8cpp.html" target="_top" xlink:title=" ">
<polygon fill="none" stroke="black" points="670,-190.5 670,-220.5 785,-220.5 785,-190.5 670,-190.5"/>
<text text-anchor="start" x="678" y="-208.5" font-family="Helvetica,sans-Serif" font-size="10.00">src/simulation_system</text>
<text text-anchor="middle" x="727.5" y="-197.5" font-family="Helvetica,sans-Serif" font-size="10.00">/systemData.cpp</text>
</a>
</g>
</g>
<!-- Node2&#45;&gt;Node13 -->
<g id="edge17" class="edge">
<title>Node2&#45;&gt;Node13</title>
<path fill="none" stroke="midnightblue" d="M513.2,-255.89C561.02,-244.87 624.42,-230.26 669.83,-219.79"/>
<polygon fill="midnightblue" stroke="midnightblue" points="512.21,-252.53 503.25,-258.19 513.78,-259.35 512.21,-252.53"/>
</g>
<!-- Node3&#45;&gt;Node2 -->
<g id="edge4" class="edge">
<title>Node3&#45;&gt;Node2</title>
<path fill="none" stroke="midnightblue" d="M123.97,-216.9C131.59,-218.31 139.23,-219.71 146.5,-221 230.4,-235.88 327.44,-251.53 387.73,-261.4"/>
<polygon fill="midnightblue" stroke="midnightblue" points="124.48,-213.43 114.01,-215.05 123.2,-220.32 124.48,-213.43"/>
</g>
<!-- Node4 -->
<g id="node4" class="node">
<title>Node4</title>
<g id="a_node4"><a xlink:href="GSDUtil_8cpp.html" target="_top" xlink:title=" ">
<polygon fill="none" stroke="black" points="0,-134.5 0,-153.5 123,-153.5 123,-134.5 0,-134.5"/>
<text text-anchor="middle" x="61.5" y="-141.5" font-family="Helvetica,sans-Serif" font-size="10.00">src/data_io/GSDUtil.cpp</text>
</a>
</g>
</g>
<!-- Node3&#45;&gt;Node4 -->
<g id="edge3" class="edge">
<title>Node3&#45;&gt;Node4</title>
<path fill="none" stroke="midnightblue" d="M61.5,-185.82C61.5,-175 61.5,-161.9 61.5,-153.51"/>
<polygon fill="midnightblue" stroke="midnightblue" points="58,-185.98 61.5,-195.98 65,-185.98 58,-185.98"/>
</g>
<!-- Node6 -->
<g id="node6" class="node">
<title>Node6</title>
<g id="a_node6"><a xlink:href="potentialHydrodynamics_8cpp.html" target="_top" xlink:title=" ">
<polygon fill="none" stroke="black" points="179,-134.5 179,-153.5 366,-153.5 366,-134.5 179,-134.5"/>
<text text-anchor="middle" x="272.5" y="-141.5" font-family="Helvetica,sans-Serif" font-size="10.00">src/forces/potentialHydrodynamics.cpp</text>
</a>
</g>
</g>
<!-- Node5&#45;&gt;Node6 -->
<g id="edge6" class="edge">
<title>Node5&#45;&gt;Node6</title>
<path fill="none" stroke="midnightblue" d="M360.26,-191.21C338.38,-179.69 307.36,-163.36 288.66,-153.51"/>
<polygon fill="midnightblue" stroke="midnightblue" points="358.83,-194.41 369.31,-195.98 362.09,-188.22 358.83,-194.41"/>
</g>
<!-- Node5&#45;&gt;Node7 -->
<g id="edge7" class="edge">
<title>Node5&#45;&gt;Node7</title>
<path fill="none" stroke="midnightblue" d="M410.74,-191.21C432.62,-179.69 463.64,-163.36 482.34,-153.51"/>
<polygon fill="midnightblue" stroke="midnightblue" points="408.91,-188.22 401.69,-195.98 412.17,-194.41 408.91,-188.22"/>
</g>
<!-- Node5&#45;&gt;Node9 -->
<g id="edge13" class="edge">
<title>Node5&#45;&gt;Node9</title>
<path fill="none" stroke="midnightblue" d="M384.34,-185.4C383.03,-170.96 380.27,-150.83 374.5,-134 370.08,-121.1 362.45,-107.66 356.27,-97.89"/>
<polygon fill="midnightblue" stroke="midnightblue" points="380.87,-185.87 385.11,-195.58 387.85,-185.34 380.87,-185.87"/>
</g>
<!-- Node8 -->
<g id="node8" class="node">
<title>Node8</title>
<g id="a_node8"><a xlink:href="rungeKutta4_8cpp.html" target="_top" xlink:title=" ">
<polygon fill="none" stroke="black" points="422,-73 422,-92 575,-92 575,-73 422,-73"/>
<text text-anchor="middle" x="498.5" y="-80" font-family="Helvetica,sans-Serif" font-size="10.00">src/integrators/rungeKutta4.cpp</text>
</a>
</g>
</g>
<!-- Node7&#45;&gt;Node8 -->
<g id="edge8" class="edge">
<title>Node7&#45;&gt;Node8</title>
<path fill="none" stroke="midnightblue" d="M498.5,-124.32C498.5,-113.5 498.5,-100.4 498.5,-92.01"/>
<polygon fill="midnightblue" stroke="midnightblue" points="495,-124.48 498.5,-134.48 502,-124.48 495,-124.48"/>
</g>
<!-- Node7&#45;&gt;Node9 -->
<g id="edge9" class="edge">
<title>Node7&#45;&gt;Node9</title>
<path fill="none" stroke="midnightblue" d="M467.13,-130.72C442.46,-121.06 408.07,-107.6 382.32,-97.52"/>
<polygon fill="midnightblue" stroke="midnightblue" points="466.13,-134.09 476.72,-134.48 468.69,-127.57 466.13,-134.09"/>
</g>
<!-- Node9&#45;&gt;Node10 -->
<g id="edge10" class="edge">
<title>Node9&#45;&gt;Node10</title>
<path fill="none" stroke="midnightblue" d="M385.78,-63.13C412.53,-50.62 446.71,-34.64 467.31,-25.01"/>
<polygon fill="midnightblue" stroke="midnightblue" points="384.24,-59.99 376.66,-67.4 387.2,-66.33 384.24,-59.99"/>
</g>
<!-- Node11 -->
<g id="node11" class="node">
<title>Node11</title>
<g id="a_node11"><a xlink:href="engine_8cpp.html" target="_top" xlink:title=" ">
<polygon fill="none" stroke="black" points="289,-0.5 289,-30.5 404,-30.5 404,-0.5 289,-0.5"/>
<text text-anchor="start" x="297" y="-18.5" font-family="Helvetica,sans-Serif" font-size="10.00">src/simulation_system</text>
<text text-anchor="middle" x="346.5" y="-7.5" font-family="Helvetica,sans-Serif" font-size="10.00">/engine.cpp</text>
</a>
</g>
</g>
<!-- Node9&#45;&gt;Node11 -->
<g id="edge11" class="edge">
<title>Node9&#45;&gt;Node11</title>
<path fill="none" stroke="midnightblue" d="M346.5,-57.11C346.5,-48.15 346.5,-38.32 346.5,-30.58"/>
<polygon fill="midnightblue" stroke="midnightblue" points="343,-57.4 346.5,-67.4 350,-57.4 343,-57.4"/>
</g>
<!-- Node9&#45;&gt;Node12 -->
<g id="edge12" class="edge">
<title>Node9&#45;&gt;Node12</title>
<path fill="none" stroke="midnightblue" d="M413.79,-65.94C469.23,-53.11 545.76,-35.41 590.61,-25.03"/>
<polygon fill="midnightblue" stroke="midnightblue" points="413,-62.53 404.04,-68.19 414.57,-69.35 413,-62.53"/>
</g>
</g>
</svg>
