<?xml version="1.0" encoding="UTF-8" standalone="no"?>
<!DOCTYPE svg PUBLIC "-//W3C//DTD SVG 1.1//EN"
 "http://www.w3.org/Graphics/SVG/1.1/DTD/svg11.dtd">
<!-- Generated by graphviz version 2.43.0 (0)
 -->
<!-- Title: smoothstep Pages: 1 -->
<svg width="259pt" height="85pt"
 viewBox="0.00 0.00 259.00 85.00" xmlns="http://www.w3.org/2000/svg" xmlns:xlink="http://www.w3.org/1999/xlink">
<g id="graph0" class="graph" transform="scale(1 1) rotate(0) translate(4 81)">
<title>smoothstep</title>
<!-- Node1 -->
<g id="node1" class="node">
<title>Node1</title>
<g id="a_node1"><a xlink:title=" ">
<polygon fill="#bfbfbf" stroke="black" points="0,-19.5 0,-38.5 68,-38.5 68,-19.5 0,-19.5"/>
<text text-anchor="middle" x="34" y="-26.5" font-family="Helvetica,sans-Serif" font-size="10.00">smoothstep</text>
</a>
</g>
</g>
<!-- Node2 -->
<g id="node2" class="node">
<title>Node2</title>
<g id="a_node2"><a xlink:href="helper__math_8h.html#a4e52302c6978bafbb9336fc91bc8aee6" target="_top" xlink:title=" ">
<polygon fill="none" stroke="black" points="117.5,-38.5 117.5,-57.5 160.5,-57.5 160.5,-38.5 117.5,-38.5"/>
<text text-anchor="middle" x="139" y="-45.5" font-family="Helvetica,sans-Serif" font-size="10.00">clamp</text>
</a>
</g>
</g>
<!-- Node1&#45;&gt;Node2 -->
<g id="edge1" class="edge">
<title>Node1&#45;&gt;Node2</title>
<path fill="none" stroke="midnightblue" d="M68.16,-35.12C80.75,-37.44 95.02,-40.07 107.36,-42.35"/>
<polygon fill="midnightblue" stroke="midnightblue" points="106.73,-45.79 117.2,-44.16 108,-38.91 106.73,-45.79"/>
</g>
<!-- Node5 -->
<g id="node5" class="node">
<title>Node5</title>
<g id="a_node5"><a xlink:href="helper__math_8h.html#a5ac86555d5a546106ec01ed56f8d48b4" target="_top" xlink:title=" ">
<polygon fill="none" stroke="black" points="104,-0.5 104,-19.5 174,-19.5 174,-0.5 104,-0.5"/>
<text text-anchor="middle" x="139" y="-7.5" font-family="Helvetica,sans-Serif" font-size="10.00">make_float4</text>
</a>
</g>
</g>
<!-- Node1&#45;&gt;Node5 -->
<g id="edge4" class="edge">
<title>Node1&#45;&gt;Node5</title>
<path fill="none" stroke="midnightblue" d="M68.16,-22.88C76.36,-21.37 85.27,-19.73 93.9,-18.13"/>
<polygon fill="midnightblue" stroke="midnightblue" points="94.64,-21.56 103.84,-16.3 93.37,-14.67 94.64,-21.56"/>
</g>
<!-- Node3 -->
<g id="node3" class="node">
<title>Node3</title>
<g id="a_node3"><a xlink:href="helper__math_8h.html#a2e3ea020fe010be1ba2da473f17223b7" target="_top" xlink:title=" ">
<polygon fill="none" stroke="black" points="210,-57.5 210,-76.5 251,-76.5 251,-57.5 210,-57.5"/>
<text text-anchor="middle" x="230.5" y="-64.5" font-family="Helvetica,sans-Serif" font-size="10.00">fmaxf</text>
</a>
</g>
</g>
<!-- Node2&#45;&gt;Node3 -->
<g id="edge2" class="edge">
<title>Node2&#45;&gt;Node3</title>
<path fill="none" stroke="midnightblue" d="M160.76,-52.41C172.41,-54.88 187.15,-58.01 199.98,-60.73"/>
<polygon fill="midnightblue" stroke="midnightblue" points="199.27,-64.16 209.78,-62.81 200.72,-57.31 199.27,-64.16"/>
</g>
<!-- Node4 -->
<g id="node4" class="node">
<title>Node4</title>
<g id="a_node4"><a xlink:href="helper__math_8h.html#a550f4f667b306665a335168336fc95b3" target="_top" xlink:title=" ">
<polygon fill="none" stroke="black" points="211.5,-19.5 211.5,-38.5 249.5,-38.5 249.5,-19.5 211.5,-19.5"/>
<text text-anchor="middle" x="230.5" y="-26.5" font-family="Helvetica,sans-Serif" font-size="10.00">fminf</text>
</a>
</g>
</g>
<!-- Node2&#45;&gt;Node4 -->
<g id="edge3" class="edge">
<title>Node2&#45;&gt;Node4</title>
<path fill="none" stroke="midnightblue" d="M160.76,-43.59C172.82,-41.03 188.18,-37.77 201.32,-34.98"/>
<polygon fill="midnightblue" stroke="midnightblue" points="202.23,-38.37 211.28,-32.87 200.77,-31.52 202.23,-38.37"/>
</g>
</g>
</svg>
