<?xml version="1.0" encoding="UTF-8" standalone="no"?>
<!DOCTYPE svg PUBLIC "-//W3C//DTD SVG 1.1//EN"
 "http://www.w3.org/Graphics/SVG/1.1/DTD/svg11.dtd">
<!-- Generated by graphviz version 2.43.0 (0)
 -->
<!-- Title: MatrixCast Pages: 1 -->
<svg width="686pt" height="137pt"
 viewBox="0.00 0.00 686.00 137.00" xmlns="http://www.w3.org/2000/svg" xmlns:xlink="http://www.w3.org/1999/xlink">
<g id="graph0" class="graph" transform="scale(1 1) rotate(0) translate(4 133)">
<title>MatrixCast</title>
<!-- Node1 -->
<g id="node1" class="node">
<title>Node1</title>
<g id="a_node1"><a xlink:title=" ">
<polygon fill="#bfbfbf" stroke="black" points="613,-55 613,-74 678,-74 678,-55 613,-55"/>
<text text-anchor="middle" x="645.5" y="-62" font-family="Helvetica,sans-Serif" font-size="10.00">MatrixCast</text>
</a>
</g>
</g>
<!-- Node2 -->
<g id="node2" class="node">
<title>Node2</title>
<g id="a_node2"><a xlink:href="classPotentialHydrodynamics.html#ac598599337f804bdb7ca664c99467d6a" target="_top" xlink:title=" ">
<polygon fill="none" stroke="black" points="447,-98.5 447,-128.5 570,-128.5 570,-98.5 447,-98.5"/>
<text text-anchor="start" x="455" y="-116.5" font-family="Helvetica,sans-Serif" font-size="10.00">PotentialHydrodynamics</text>
<text text-anchor="middle" x="508.5" y="-105.5" font-family="Helvetica,sans-Serif" font-size="10.00">::calcBodyTensors</text>
</a>
</g>
</g>
<!-- Node1&#45;&gt;Node2 -->
<g id="edge1" class="edge">
<title>Node1&#45;&gt;Node2</title>
<path fill="none" stroke="midnightblue" d="M609.3,-77.64C598.91,-81.49 587.5,-85.69 577,-89.5 568.93,-92.43 560.31,-95.52 552.02,-98.48"/>
<polygon fill="midnightblue" stroke="midnightblue" points="610.73,-80.84 618.89,-74.08 608.29,-74.28 610.73,-80.84"/>
</g>
<!-- Node5 -->
<g id="node5" class="node">
<title>Node5</title>
<g id="a_node5"><a xlink:href="classPotentialHydrodynamics.html#a281e3e793371c6fb032d0b4871b06160" target="_top" xlink:title="Calculates m_F_hydro and m_F_hydroNoInertia">
<polygon fill="none" stroke="black" points="447,-49.5 447,-79.5 570,-79.5 570,-49.5 447,-49.5"/>
<text text-anchor="start" x="455" y="-67.5" font-family="Helvetica,sans-Serif" font-size="10.00">PotentialHydrodynamics</text>
<text text-anchor="middle" x="508.5" y="-56.5" font-family="Helvetica,sans-Serif" font-size="10.00">::calcHydroForces</text>
</a>
</g>
</g>
<!-- Node1&#45;&gt;Node5 -->
<g id="edge4" class="edge">
<title>Node1&#45;&gt;Node5</title>
<path fill="none" stroke="midnightblue" d="M602.53,-64.5C592.26,-64.5 581.07,-64.5 570.12,-64.5"/>
<polygon fill="midnightblue" stroke="midnightblue" points="602.85,-68 612.85,-64.5 602.85,-61 602.85,-68"/>
</g>
<!-- Node6 -->
<g id="node6" class="node">
<title>Node6</title>
<g id="a_node6"><a xlink:href="classSystemData.html#a7da2011ba5d866e5338b14e8b04ace70" target="_top" xlink:title="Computes the particle D.o.F. from the body D.o.F.">
<polygon fill="none" stroke="black" points="440,-0.5 440,-30.5 577,-30.5 577,-0.5 440,-0.5"/>
<text text-anchor="start" x="448" y="-18.5" font-family="Helvetica,sans-Serif" font-size="10.00">SystemData::convertBody2</text>
<text text-anchor="middle" x="508.5" y="-7.5" font-family="Helvetica,sans-Serif" font-size="10.00">ParticleVelAcc</text>
</a>
</g>
</g>
<!-- Node1&#45;&gt;Node6 -->
<g id="edge6" class="edge">
<title>Node1&#45;&gt;Node6</title>
<path fill="none" stroke="midnightblue" d="M609.3,-51.36C598.91,-47.51 587.5,-43.31 577,-39.5 568.93,-36.57 560.31,-33.48 552.02,-30.52"/>
<polygon fill="midnightblue" stroke="midnightblue" points="608.29,-54.72 618.89,-54.92 610.73,-48.16 608.29,-54.72"/>
</g>
<!-- Node3 -->
<g id="node3" class="node">
<title>Node3</title>
<g id="a_node3"><a xlink:href="classPotentialHydrodynamics.html#a929a5cd3ab1afe2e78fc2a18a16c423d" target="_top" xlink:title="Updates all hydrodynamic quantities at current configuration (data from SystemData)">
<polygon fill="none" stroke="black" points="281,-73.5 281,-103.5 404,-103.5 404,-73.5 281,-73.5"/>
<text text-anchor="start" x="289" y="-91.5" font-family="Helvetica,sans-Serif" font-size="10.00">PotentialHydrodynamics</text>
<text text-anchor="middle" x="342.5" y="-80.5" font-family="Helvetica,sans-Serif" font-size="10.00">::update</text>
</a>
</g>
</g>
<!-- Node2&#45;&gt;Node3 -->
<g id="edge2" class="edge">
<title>Node2&#45;&gt;Node3</title>
<path fill="none" stroke="midnightblue" d="M436.96,-102.75C426.03,-101.08 414.82,-99.37 404.13,-97.74"/>
<polygon fill="midnightblue" stroke="midnightblue" points="436.49,-106.21 446.9,-104.26 437.54,-99.29 436.49,-106.21"/>
</g>
<!-- Node4 -->
<g id="node4" class="node">
<title>Node4</title>
<g id="a_node4"><a xlink:href="classPotentialHydrodynamics.html#a7ef38402d3034fd4009ded220d8438fc" target="_top" xlink:title="Construct a new potential hydrodynamics object.">
<polygon fill="none" stroke="black" points="113.5,-73.5 113.5,-103.5 242.5,-103.5 242.5,-73.5 113.5,-73.5"/>
<text text-anchor="start" x="121.5" y="-91.5" font-family="Helvetica,sans-Serif" font-size="10.00">PotentialHydrodynamics</text>
<text text-anchor="middle" x="178" y="-80.5" font-family="Helvetica,sans-Serif" font-size="10.00">::PotentialHydrodynamics</text>
</a>
</g>
</g>
<!-- Node3&#45;&gt;Node4 -->
<g id="edge3" class="edge">
<title>Node3&#45;&gt;Node4</title>
<path fill="none" stroke="midnightblue" d="M270.87,-88.5C261.45,-88.5 251.84,-88.5 242.55,-88.5"/>
<polygon fill="midnightblue" stroke="midnightblue" points="270.99,-92 280.99,-88.5 270.99,-85 270.99,-92"/>
</g>
<!-- Node5&#45;&gt;Node3 -->
<g id="edge5" class="edge">
<title>Node5&#45;&gt;Node3</title>
<path fill="none" stroke="midnightblue" d="M436.96,-74.82C426.03,-76.42 414.82,-78.06 404.13,-79.63"/>
<polygon fill="midnightblue" stroke="midnightblue" points="437.51,-78.28 446.9,-73.37 436.5,-71.35 437.51,-78.28"/>
</g>
<!-- Node7 -->
<g id="node7" class="node">
<title>Node7</title>
<g id="a_node7"><a xlink:href="classSystemData.html#aa1dc8988cbb137f2667af95ca52a709c" target="_top" xlink:title="Updates all relevant rigid body motion tensors, respective gradients, and kinematic/Udwadia constrain...">
<polygon fill="none" stroke="black" points="289,-6 289,-25 396,-25 396,-6 289,-6"/>
<text text-anchor="middle" x="342.5" y="-13" font-family="Helvetica,sans-Serif" font-size="10.00">SystemData::update</text>
</a>
</g>
</g>
<!-- Node6&#45;&gt;Node7 -->
<g id="edge7" class="edge">
<title>Node6&#45;&gt;Node7</title>
<path fill="none" stroke="midnightblue" d="M429.53,-15.5C418.24,-15.5 406.85,-15.5 396.22,-15.5"/>
<polygon fill="midnightblue" stroke="midnightblue" points="429.85,-19 439.85,-15.5 429.85,-12 429.85,-19"/>
</g>
<!-- Node8 -->
<g id="node8" class="node">
<title>Node8</title>
<g id="a_node8"><a xlink:href="classSystemData.html#ac3a796dc8bf1fa82ea6dec33e548924f" target="_top" xlink:title="Function loads data from GSD file using GSDUtil class.">
<polygon fill="none" stroke="black" points="111,-6 111,-25 245,-25 245,-6 111,-6"/>
<text text-anchor="middle" x="178" y="-13" font-family="Helvetica,sans-Serif" font-size="10.00">SystemData::initializeData</text>
</a>
</g>
</g>
<!-- Node7&#45;&gt;Node8 -->
<g id="edge8" class="edge">
<title>Node7&#45;&gt;Node8</title>
<path fill="none" stroke="midnightblue" d="M278.44,-15.5C267.53,-15.5 256.15,-15.5 245.16,-15.5"/>
<polygon fill="midnightblue" stroke="midnightblue" points="278.74,-19 288.74,-15.5 278.74,-12 278.74,-19"/>
</g>
<!-- Node9 -->
<g id="node9" class="node">
<title>Node9</title>
<g id="a_node9"><a xlink:href="TestSimulation_8cpp.html#a227401f331fbabbd263158efc43b3bf6" target="_top" xlink:title=" ">
<polygon fill="none" stroke="black" points="0,-6 0,-25 75,-25 75,-6 0,-6"/>
<text text-anchor="middle" x="37.5" y="-13" font-family="Helvetica,sans-Serif" font-size="10.00">TEST_CASE</text>
</a>
</g>
</g>
<!-- Node8&#45;&gt;Node9 -->
<g id="edge9" class="edge">
<title>Node8&#45;&gt;Node9</title>
<path fill="none" stroke="midnightblue" d="M100.94,-15.5C92.06,-15.5 83.33,-15.5 75.34,-15.5"/>
<polygon fill="midnightblue" stroke="midnightblue" points="101,-19 111,-15.5 101,-12 101,-19"/>
</g>
</g>
</svg>
