<?xml version="1.0" encoding="UTF-8" standalone="no"?>
<!DOCTYPE svg PUBLIC "-//W3C//DTD SVG 1.1//EN"
 "http://www.w3.org/Graphics/SVG/1.1/DTD/svg11.dtd">
<!-- Generated by graphviz version 2.43.0 (0)
 -->
<!-- Title: abs Pages: 1 -->
<svg width="718pt" height="214pt"
 viewBox="0.00 0.00 718.00 214.00" xmlns="http://www.w3.org/2000/svg" xmlns:xlink="http://www.w3.org/1999/xlink">
<g id="graph0" class="graph" transform="scale(1 1) rotate(0) translate(4 210)">
<title>abs</title>
<!-- Node1 -->
<g id="node1" class="node">
<title>Node1</title>
<g id="a_node1"><a xlink:title=" ">
<polygon fill="#bfbfbf" stroke="black" points="678,-93.5 678,-112.5 710,-112.5 710,-93.5 678,-93.5"/>
<text text-anchor="middle" x="694" y="-100.5" font-family="Helvetica,sans-Serif" font-size="10.00">abs</text>
</a>
</g>
</g>
<!-- Node2 -->
<g id="node2" class="node">
<title>Node2</title>
<g id="a_node2"><a xlink:href="helper__math_8h.html#afe553b3ddd067e12861af3967b19f1cd" target="_top" xlink:title=" ">
<polygon fill="none" stroke="black" points="517,-186.5 517,-205.5 549,-205.5 549,-186.5 517,-186.5"/>
<text text-anchor="middle" x="533" y="-193.5" font-family="Helvetica,sans-Serif" font-size="10.00">abs</text>
</a>
</g>
</g>
<!-- Node1&#45;&gt;Node2 -->
<g id="edge1" class="edge">
<title>Node1&#45;&gt;Node2</title>
<path fill="none" stroke="midnightblue" d="M685.06,-122.14C676.88,-139.35 662.44,-163.88 642,-177 613.16,-195.51 571.48,-197.39 549.28,-196.87"/>
<polygon fill="midnightblue" stroke="midnightblue" points="688.47,-123.09 689.34,-112.54 682.07,-120.24 688.47,-123.09"/>
</g>
<!-- Node3 -->
<g id="node3" class="node">
<title>Node3</title>
<g id="a_node3"><a xlink:href="namespacecollinear-swimmer-internal-dynamics-individual-analysis.html#a85816fbd52c1d1e26f47e73fce3a238d" target="_top" xlink:title="Script to analyze a single GSD file.">
<polygon fill="none" stroke="black" points="425,-137 425,-167 641,-167 641,-137 425,-137"/>
<text text-anchor="start" x="433" y="-155" font-family="Helvetica,sans-Serif" font-size="10.00">collinear&#45;swimmer&#45;internal</text>
<text text-anchor="middle" x="533" y="-144" font-family="Helvetica,sans-Serif" font-size="10.00">&#45;dynamics&#45;individual&#45;analysis.aggregate_plots</text>
</a>
</g>
</g>
<!-- Node1&#45;&gt;Node3 -->
<g id="edge2" class="edge">
<title>Node1&#45;&gt;Node3</title>
<path fill="none" stroke="midnightblue" d="M668.69,-116.38C660.4,-120.54 650.96,-124.86 642,-128 632.48,-131.34 622.33,-134.31 612.2,-136.94"/>
<polygon fill="midnightblue" stroke="midnightblue" points="670.53,-119.36 677.79,-111.64 667.3,-113.15 670.53,-119.36"/>
</g>
<!-- Node4 -->
<g id="node4" class="node">
<title>Node4</title>
<g id="a_node4"><a xlink:href="namespacecollinear-swimmer-internal-dynamics-aggregate-analysis.html#a95d6a2c618aa100dd70824ac5edce4bf" target="_top" xlink:title="Analyze a single GSD file.">
<polygon fill="none" stroke="black" points="424,-88 424,-118 642,-118 642,-88 424,-88"/>
<text text-anchor="start" x="432" y="-106" font-family="Helvetica,sans-Serif" font-size="10.00">collinear&#45;swimmer&#45;internal</text>
<text text-anchor="middle" x="533" y="-95" font-family="Helvetica,sans-Serif" font-size="10.00">&#45;dynamics&#45;aggregate&#45;analysis.aggregate_plots</text>
</a>
</g>
</g>
<!-- Node1&#45;&gt;Node4 -->
<g id="edge3" class="edge">
<title>Node1&#45;&gt;Node4</title>
<path fill="none" stroke="midnightblue" d="M667.7,-103C660.18,-103 651.43,-103 642.07,-103"/>
<polygon fill="midnightblue" stroke="midnightblue" points="667.75,-106.5 677.75,-103 667.75,-99.5 667.75,-106.5"/>
</g>
<!-- Node5 -->
<g id="node5" class="node">
<title>Node5</title>
<g id="a_node5"><a xlink:href="classSystemData.html#a000a3e77f12b4c1bc9678e9ede202f83" target="_top" xlink:title="Computes the orientation (unit vector) of a particle with respect to its locater point.">
<polygon fill="none" stroke="black" points="464.5,-39 464.5,-69 601.5,-69 601.5,-39 464.5,-39"/>
<text text-anchor="start" x="472.5" y="-57" font-family="Helvetica,sans-Serif" font-size="10.00">SystemData::convertBody2</text>
<text text-anchor="middle" x="533" y="-46" font-family="Helvetica,sans-Serif" font-size="10.00">ParticleOrient</text>
</a>
</g>
</g>
<!-- Node1&#45;&gt;Node5 -->
<g id="edge4" class="edge">
<title>Node1&#45;&gt;Node5</title>
<path fill="none" stroke="midnightblue" d="M668.62,-90.24C660.33,-86.25 650.9,-82.09 642,-79 629.18,-74.56 615.23,-70.66 601.75,-67.36"/>
<polygon fill="midnightblue" stroke="midnightblue" points="667.22,-93.45 677.73,-94.77 670.34,-87.18 667.22,-93.45"/>
</g>
<!-- Node9 -->
<g id="node9" class="node">
<title>Node9</title>
<g id="a_node9"><a xlink:href="classRungeKutta4.html#a301c6c8b82c9f0808159aff069aef28e" target="_top" xlink:title="Construct a new runge Kutta4 object.">
<polygon fill="none" stroke="black" points="464.5,-0.5 464.5,-19.5 601.5,-19.5 601.5,-0.5 464.5,-0.5"/>
<text text-anchor="middle" x="533" y="-7.5" font-family="Helvetica,sans-Serif" font-size="10.00">RungeKutta4::RungeKutta4</text>
</a>
</g>
</g>
<!-- Node1&#45;&gt;Node9 -->
<g id="edge8" class="edge">
<title>Node1&#45;&gt;Node9</title>
<path fill="none" stroke="midnightblue" d="M684.83,-83.89C676.57,-66.95 662.13,-42.96 642,-30 629.98,-22.26 615.73,-17.34 601.59,-14.25"/>
<polygon fill="midnightblue" stroke="midnightblue" points="681.83,-85.73 689.18,-93.36 688.19,-82.81 681.83,-85.73"/>
</g>
<!-- Node6 -->
<g id="node6" class="node">
<title>Node6</title>
<g id="a_node6"><a xlink:href="classSystemData.html#a96d6dfb7bdb78d98fbbdac1f421c838c" target="_top" xlink:title="Updates all relevant rigid body motion tensors, respective gradients, and kinematic/Udwadia constrain...">
<polygon fill="none" stroke="black" points="281,-44.5 281,-63.5 388,-63.5 388,-44.5 281,-44.5"/>
<text text-anchor="middle" x="334.5" y="-51.5" font-family="Helvetica,sans-Serif" font-size="10.00">SystemData::update</text>
</a>
</g>
</g>
<!-- Node5&#45;&gt;Node6 -->
<g id="edge5" class="edge">
<title>Node5&#45;&gt;Node6</title>
<path fill="none" stroke="midnightblue" d="M454.29,-54C432.06,-54 408.37,-54 388.04,-54"/>
<polygon fill="midnightblue" stroke="midnightblue" points="454.38,-57.5 464.38,-54 454.38,-50.5 454.38,-57.5"/>
</g>
<!-- Node7 -->
<g id="node7" class="node">
<title>Node7</title>
<g id="a_node7"><a xlink:href="classSystemData.html#ac3a796dc8bf1fa82ea6dec33e548924f" target="_top" xlink:title="Function loads data from GSD file using GSDUtil class.">
<polygon fill="none" stroke="black" points="111,-44.5 111,-63.5 245,-63.5 245,-44.5 111,-44.5"/>
<text text-anchor="middle" x="178" y="-51.5" font-family="Helvetica,sans-Serif" font-size="10.00">SystemData::initializeData</text>
</a>
</g>
</g>
<!-- Node6&#45;&gt;Node7 -->
<g id="edge6" class="edge">
<title>Node6&#45;&gt;Node7</title>
<path fill="none" stroke="midnightblue" d="M270.66,-54C262.26,-54 253.62,-54 245.16,-54"/>
<polygon fill="midnightblue" stroke="midnightblue" points="270.76,-57.5 280.76,-54 270.76,-50.5 270.76,-57.5"/>
</g>
<!-- Node8 -->
<g id="node8" class="node">
<title>Node8</title>
<g id="a_node8"><a xlink:href="TestSimulation_8cpp.html#a7537b8ac7073aed4bf8255b43bbbf1f9" target="_top" xlink:title=" ">
<polygon fill="none" stroke="black" points="0,-44.5 0,-63.5 75,-63.5 75,-44.5 0,-44.5"/>
<text text-anchor="middle" x="37.5" y="-51.5" font-family="Helvetica,sans-Serif" font-size="10.00">TEST_CASE</text>
</a>
</g>
</g>
<!-- Node7&#45;&gt;Node8 -->
<g id="edge7" class="edge">
<title>Node7&#45;&gt;Node8</title>
<path fill="none" stroke="midnightblue" d="M100.94,-54C92.06,-54 83.33,-54 75.34,-54"/>
<polygon fill="midnightblue" stroke="midnightblue" points="101,-57.5 111,-54 101,-50.5 101,-57.5"/>
</g>
</g>
</svg>
