<?xml version="1.0" encoding="UTF-8" standalone="no"?>
<!DOCTYPE svg PUBLIC "-//W3C//DTD SVG 1.1//EN"
 "http://www.w3.org/Graphics/SVG/1.1/DTD/svg11.dtd">
<!-- Generated by graphviz version 2.49.1 (20210923.0004)
 -->
<!-- Title: make_float3 Pages: 1 -->
<svg width="183pt" height="484pt"
 viewBox="0.00 0.00 183.00 484.00" xmlns="http://www.w3.org/2000/svg" xmlns:xlink="http://www.w3.org/1999/xlink">
<g id="graph0" class="graph" transform="scale(1 1) rotate(0) translate(4 480)">
<title>make_float3</title>
<!-- Node1 -->
<g id="node1" class="node">
<title>Node1</title>
<g id="a_node1"><a xlink:title=" ">
<polygon fill="#bfbfbf" stroke="black" points="104,-228.5 104,-247.5 175,-247.5 175,-228.5 104,-228.5"/>
<text text-anchor="middle" x="139.5" y="-235.5" font-family="Helvetica,sans-Serif" font-size="10.00">make_float3</text>
</a>
</g>
</g>
<!-- Node1&#45;&gt;Node1 -->
<g id="edge9" class="edge">
<title>Node1&#45;&gt;Node1</title>
<path fill="none" stroke="midnightblue" d="M158.76,-257.4C157.47,-262.31 151.05,-266 139.5,-266 121.02,-266 115.67,-256.57 123.47,-247.76"/>
<polygon fill="midnightblue" stroke="midnightblue" points="162.02,-256.13 155.53,-247.76 155.39,-258.35 162.02,-256.13"/>
</g>
<!-- Node2 -->
<g id="node2" class="node">
<title>Node2</title>
<g id="a_node2"><a xlink:href="helper__math_8h.html#a7899cceba82589cf107c88f733db3528" target="_top" xlink:title=" ">
<polygon fill="none" stroke="black" points="12.5,-456.5 12.5,-475.5 55.5,-475.5 55.5,-456.5 12.5,-456.5"/>
<text text-anchor="middle" x="34" y="-463.5" font-family="Helvetica,sans-Serif" font-size="10.00">clamp</text>
</a>
</g>
</g>
<!-- Node1&#45;&gt;Node2 -->
<g id="edge1" class="edge">
<title>Node1&#45;&gt;Node2</title>
<path fill="none" stroke="midnightblue" d="M136.48,-257.99C131.5,-298.04 115.4,-389.2 68,-447 64.65,-451.09 60.17,-454.48 55.59,-457.21"/>
<polygon fill="midnightblue" stroke="midnightblue" points="139.97,-258.25 137.63,-247.91 133.02,-257.45 139.97,-258.25"/>
</g>
<!-- Node3 -->
<g id="node3" class="node">
<title>Node3</title>
<g id="a_node3"><a xlink:href="helper__math_8h.html#a2e4be24f36bc31a9d0b35540aaa5fb71" target="_top" xlink:title=" ">
<polygon fill="none" stroke="black" points="14,-418.5 14,-437.5 54,-437.5 54,-418.5 14,-418.5"/>
<text text-anchor="middle" x="34" y="-425.5" font-family="Helvetica,sans-Serif" font-size="10.00">cross</text>
</a>
</g>
</g>
<!-- Node1&#45;&gt;Node3 -->
<g id="edge2" class="edge">
<title>Node1&#45;&gt;Node3</title>
<path fill="none" stroke="midnightblue" d="M134.72,-257.81C127.3,-292.15 107.94,-363.44 68,-409 64.17,-413.37 59.07,-416.99 54.03,-419.84"/>
<polygon fill="midnightblue" stroke="midnightblue" points="138.22,-258.17 136.79,-247.67 131.36,-256.76 138.22,-258.17"/>
</g>
<!-- Node4 -->
<g id="node4" class="node">
<title>Node4</title>
<g id="a_node4"><a xlink:href="helper__math_8h.html#a62721d5f250db151ae718f799c9a3dd7" target="_top" xlink:title=" ">
<polygon fill="none" stroke="black" points="16.5,-380.5 16.5,-399.5 51.5,-399.5 51.5,-380.5 16.5,-380.5"/>
<text text-anchor="middle" x="34" y="-387.5" font-family="Helvetica,sans-Serif" font-size="10.00">fabs</text>
</a>
</g>
</g>
<!-- Node1&#45;&gt;Node4 -->
<g id="edge3" class="edge">
<title>Node1&#45;&gt;Node4</title>
<path fill="none" stroke="midnightblue" d="M132.06,-257.63C122.07,-285.61 100.53,-337.31 68,-371 63.41,-375.76 57.37,-379.7 51.71,-382.73"/>
<polygon fill="midnightblue" stroke="midnightblue" points="135.48,-258.43 135.42,-247.83 128.86,-256.15 135.48,-258.43"/>
</g>
<!-- Node5 -->
<g id="node5" class="node">
<title>Node5</title>
<g id="a_node5"><a xlink:href="helper__math_8h.html#a549835c169f172cf838f65d81f958421" target="_top" xlink:title=" ">
<polygon fill="none" stroke="black" points="14.5,-342.5 14.5,-361.5 53.5,-361.5 53.5,-342.5 14.5,-342.5"/>
<text text-anchor="middle" x="34" y="-349.5" font-family="Helvetica,sans-Serif" font-size="10.00">floorf</text>
</a>
</g>
</g>
<!-- Node1&#45;&gt;Node5 -->
<g id="edge4" class="edge">
<title>Node1&#45;&gt;Node5</title>
<path fill="none" stroke="midnightblue" d="M128.07,-256.34C115.71,-276.87 93.56,-310.25 68,-333 63.75,-336.78 58.64,-340.16 53.71,-342.99"/>
<polygon fill="midnightblue" stroke="midnightblue" points="131.13,-258.04 133.17,-247.64 125.09,-254.49 131.13,-258.04"/>
</g>
<!-- Node6 -->
<g id="node6" class="node">
<title>Node6</title>
<g id="a_node6"><a xlink:href="helper__math_8h.html#aa0e0b97a8c683602220c9509d12adefa" target="_top" xlink:title=" ">
<polygon fill="none" stroke="black" points="13.5,-304.5 13.5,-323.5 54.5,-323.5 54.5,-304.5 13.5,-304.5"/>
<text text-anchor="middle" x="34" y="-311.5" font-family="Helvetica,sans-Serif" font-size="10.00">fmaxf</text>
</a>
</g>
</g>
<!-- Node1&#45;&gt;Node6 -->
<g id="edge5" class="edge">
<title>Node1&#45;&gt;Node6</title>
<path fill="none" stroke="midnightblue" d="M119.62,-254.63C105.77,-266.48 86.27,-282.47 68,-295 63.2,-298.29 57.8,-301.56 52.78,-304.44"/>
<polygon fill="midnightblue" stroke="midnightblue" points="122.18,-257.04 127.45,-247.85 117.6,-251.75 122.18,-257.04"/>
</g>
<!-- Node7 -->
<g id="node7" class="node">
<title>Node7</title>
<g id="a_node7"><a xlink:href="helper__math_8h.html#afdb8567710b900ab3f50d023282e3f37" target="_top" xlink:title=" ">
<polygon fill="none" stroke="black" points="15,-266.5 15,-285.5 53,-285.5 53,-266.5 15,-266.5"/>
<text text-anchor="middle" x="34" y="-273.5" font-family="Helvetica,sans-Serif" font-size="10.00">fminf</text>
</a>
</g>
</g>
<!-- Node1&#45;&gt;Node7 -->
<g id="edge6" class="edge">
<title>Node1&#45;&gt;Node7</title>
<path fill="none" stroke="midnightblue" d="M102.9,-251.07C86.19,-257.21 66.99,-264.25 53.28,-269.29"/>
<polygon fill="midnightblue" stroke="midnightblue" points="104.2,-254.32 112.38,-247.59 101.79,-247.75 104.2,-254.32"/>
</g>
<!-- Node8 -->
<g id="node8" class="node">
<title>Node8</title>
<g id="a_node8"><a xlink:href="helper__math_8h.html#a6faff26c220db9b3a0e6288ee06ec521" target="_top" xlink:title=" ">
<polygon fill="none" stroke="black" points="13,-228.5 13,-247.5 55,-247.5 55,-228.5 13,-228.5"/>
<text text-anchor="middle" x="34" y="-235.5" font-family="Helvetica,sans-Serif" font-size="10.00">fmodf</text>
</a>
</g>
</g>
<!-- Node1&#45;&gt;Node8 -->
<g id="edge7" class="edge">
<title>Node1&#45;&gt;Node8</title>
<path fill="none" stroke="midnightblue" d="M93.62,-238C80.14,-238 66.02,-238 55.02,-238"/>
<polygon fill="midnightblue" stroke="midnightblue" points="93.75,-241.5 103.75,-238 93.75,-234.5 93.75,-241.5"/>
</g>
<!-- Node9 -->
<g id="node9" class="node">
<title>Node9</title>
<g id="a_node9"><a xlink:href="helper__math_8h.html#a87222927d3e8a5bf864b90ebd23e4531" target="_top" xlink:title=" ">
<polygon fill="none" stroke="black" points="16,-190.5 16,-209.5 52,-209.5 52,-190.5 16,-190.5"/>
<text text-anchor="middle" x="34" y="-197.5" font-family="Helvetica,sans-Serif" font-size="10.00">fracf</text>
</a>
</g>
</g>
<!-- Node1&#45;&gt;Node9 -->
<g id="edge8" class="edge">
<title>Node1&#45;&gt;Node9</title>
<path fill="none" stroke="midnightblue" d="M102.64,-224.83C85.47,-218.53 65.73,-211.28 52.02,-206.25"/>
<polygon fill="midnightblue" stroke="midnightblue" points="101.79,-228.25 112.38,-228.41 104.2,-221.68 101.79,-228.25"/>
</g>
<!-- Node10 -->
<g id="node10" class="node">
<title>Node10</title>
<g id="a_node10"><a xlink:href="helper__math_8h.html#ad0d3c9c8703577ba6c9c688c882d402d" target="_top" xlink:title=" ">
<polygon fill="none" stroke="black" points="5,-152.5 5,-171.5 63,-171.5 63,-152.5 5,-152.5"/>
<text text-anchor="middle" x="34" y="-159.5" font-family="Helvetica,sans-Serif" font-size="10.00">operator*</text>
</a>
</g>
</g>
<!-- Node1&#45;&gt;Node10 -->
<g id="edge10" class="edge">
<title>Node1&#45;&gt;Node10</title>
<path fill="none" stroke="midnightblue" d="M119.62,-221.37C105.77,-209.52 86.27,-193.53 68,-181 63.2,-177.71 57.8,-174.44 52.78,-171.56"/>
<polygon fill="midnightblue" stroke="midnightblue" points="117.6,-224.25 127.45,-228.15 122.18,-218.96 117.6,-224.25"/>
</g>
<!-- Node11 -->
<g id="node11" class="node">
<title>Node11</title>
<g id="a_node11"><a xlink:href="helper__math_8h.html#a2d6165328ff6cc4542f56a815ab992a6" target="_top" xlink:title=" ">
<polygon fill="none" stroke="black" points="4,-114.5 4,-133.5 64,-133.5 64,-114.5 4,-114.5"/>
<text text-anchor="middle" x="34" y="-121.5" font-family="Helvetica,sans-Serif" font-size="10.00">operator+</text>
</a>
</g>
</g>
<!-- Node1&#45;&gt;Node11 -->
<g id="edge11" class="edge">
<title>Node1&#45;&gt;Node11</title>
<path fill="none" stroke="midnightblue" d="M128.07,-219.66C115.71,-199.13 93.56,-165.75 68,-143 64.05,-139.48 59.35,-136.31 54.74,-133.61"/>
<polygon fill="midnightblue" stroke="midnightblue" points="125.09,-221.51 133.17,-228.36 131.13,-217.96 125.09,-221.51"/>
</g>
<!-- Node12 -->
<g id="node12" class="node">
<title>Node12</title>
<g id="a_node12"><a xlink:href="helper__math_8h.html#a13c460bf0477142ba40606d7f4d20a90" target="_top" xlink:title=" ">
<polygon fill="none" stroke="black" points="5.5,-76.5 5.5,-95.5 62.5,-95.5 62.5,-76.5 5.5,-76.5"/>
<text text-anchor="middle" x="34" y="-83.5" font-family="Helvetica,sans-Serif" font-size="10.00">operator&#45;</text>
</a>
</g>
</g>
<!-- Node1&#45;&gt;Node12 -->
<g id="edge12" class="edge">
<title>Node1&#45;&gt;Node12</title>
<path fill="none" stroke="midnightblue" d="M132.06,-218.37C122.07,-190.39 100.53,-138.69 68,-105 64.51,-101.39 60.18,-98.24 55.83,-95.61"/>
<polygon fill="midnightblue" stroke="midnightblue" points="128.86,-219.85 135.42,-228.17 135.48,-217.57 128.86,-219.85"/>
</g>
<!-- Node13 -->
<g id="node13" class="node">
<title>Node13</title>
<g id="a_node13"><a xlink:href="helper__math_8h.html#a550637f7c0c6efac2589120c47fef0a5" target="_top" xlink:title=" ">
<polygon fill="none" stroke="black" points="5.5,-38.5 5.5,-57.5 62.5,-57.5 62.5,-38.5 5.5,-38.5"/>
<text text-anchor="middle" x="34" y="-45.5" font-family="Helvetica,sans-Serif" font-size="10.00">operator/</text>
</a>
</g>
</g>
<!-- Node1&#45;&gt;Node13 -->
<g id="edge13" class="edge">
<title>Node1&#45;&gt;Node13</title>
<path fill="none" stroke="midnightblue" d="M134.72,-218.19C127.3,-183.85 107.94,-112.56 68,-67 64.78,-63.32 60.66,-60.18 56.43,-57.58"/>
<polygon fill="midnightblue" stroke="midnightblue" points="131.36,-219.24 136.79,-228.33 138.22,-217.83 131.36,-219.24"/>
</g>
<!-- Node14 -->
<g id="node14" class="node">
<title>Node14</title>
<g id="a_node14"><a xlink:href="helper__math_8h.html#a803dfc03ce7a72b312ea14cd3d854e01" target="_top" xlink:title=" ">
<polygon fill="none" stroke="black" points="0,-0.5 0,-19.5 68,-19.5 68,-0.5 0,-0.5"/>
<text text-anchor="middle" x="34" y="-7.5" font-family="Helvetica,sans-Serif" font-size="10.00">smoothstep</text>
</a>
</g>
</g>
<!-- Node1&#45;&gt;Node14 -->
<g id="edge14" class="edge">
<title>Node1&#45;&gt;Node14</title>
<path fill="none" stroke="midnightblue" d="M136.48,-218.01C131.5,-177.96 115.4,-86.8 68,-29 64.98,-25.32 61.05,-22.21 56.96,-19.63"/>
<polygon fill="midnightblue" stroke="midnightblue" points="133.02,-218.55 137.63,-228.09 139.97,-217.75 133.02,-218.55"/>
</g>
</g>
</svg>
