<?xml version="1.0" encoding="UTF-8" standalone="no"?>
<!DOCTYPE svg PUBLIC "-//W3C//DTD SVG 1.1//EN"
 "http://www.w3.org/Graphics/SVG/1.1/DTD/svg11.dtd">
<!-- Generated by graphviz version 2.49.1 (20210923.0004)
 -->
<!-- Title: fabs Pages: 1 -->
<svg width="257pt" height="102pt"
 viewBox="0.00 0.00 257.00 102.00" xmlns="http://www.w3.org/2000/svg" xmlns:xlink="http://www.w3.org/1999/xlink">
<g id="graph0" class="graph" transform="scale(1 1) rotate(0) translate(4 98)">
<title>fabs</title>
<!-- Node1 -->
<g id="node1" class="node">
<title>Node1</title>
<g id="a_node1"><a xlink:title=" ">
<polygon fill="#bfbfbf" stroke="black" points="0,-28.5 0,-47.5 35,-47.5 35,-28.5 0,-28.5"/>
<text text-anchor="middle" x="17.5" y="-35.5" font-family="Helvetica,sans-Serif" font-size="10.00">fabs</text>
</a>
</g>
</g>
<!-- Node2 -->
<g id="node2" class="node">
<title>Node2</title>
<g id="a_node2"><a xlink:href="helper__math_8h.html#aad6a2701675cd2a4bc1b1da7b79948ae" target="_top" xlink:title=" ">
<polygon fill="none" stroke="black" points="89,-56.5 89,-75.5 124,-75.5 124,-56.5 89,-56.5"/>
<text text-anchor="middle" x="106.5" y="-63.5" font-family="Helvetica,sans-Serif" font-size="10.00">fabs</text>
</a>
</g>
</g>
<!-- Node1&#45;&gt;Node2 -->
<g id="edge1" class="edge">
<title>Node1&#45;&gt;Node2</title>
<path fill="none" stroke="midnightblue" d="M35.27,-43.4C47.67,-47.39 64.8,-52.9 79.03,-57.48"/>
<polygon fill="midnightblue" stroke="midnightblue" points="78.19,-60.89 88.78,-60.62 80.33,-54.22 78.19,-60.89"/>
</g>
<!-- Node4 -->
<g id="node4" class="node">
<title>Node4</title>
<g id="a_node4"><a xlink:href="helper__math_8h.html#a5ac86555d5a546106ec01ed56f8d48b4" target="_top" xlink:title=" ">
<polygon fill="none" stroke="black" points="71,-0.5 71,-19.5 142,-19.5 142,-0.5 71,-0.5"/>
<text text-anchor="middle" x="106.5" y="-7.5" font-family="Helvetica,sans-Serif" font-size="10.00">make_float4</text>
</a>
</g>
</g>
<!-- Node1&#45;&gt;Node4 -->
<g id="edge5" class="edge">
<title>Node1&#45;&gt;Node4</title>
<path fill="none" stroke="midnightblue" d="M35.27,-32.6C44.05,-29.78 55.18,-26.19 65.99,-22.72"/>
<polygon fill="midnightblue" stroke="midnightblue" points="67.3,-25.97 75.74,-19.58 65.15,-19.31 67.3,-25.97"/>
</g>
<!-- Node2&#45;&gt;Node2 -->
<g id="edge2" class="edge">
<title>Node2&#45;&gt;Node2</title>
<path fill="none" stroke="midnightblue" d="M92.94,-75.76C86.34,-84.57 90.86,-94 106.5,-94 116.28,-94 121.71,-90.31 122.8,-85.4"/>
<polygon fill="midnightblue" stroke="midnightblue" points="126.16,-84.42 120.06,-75.76 119.42,-86.33 126.16,-84.42"/>
</g>
<!-- Node3 -->
<g id="node3" class="node">
<title>Node3</title>
<g id="a_node3"><a xlink:href="helper__math_8h.html#ae157a97cf7d77e6a05db0e0d22b85fb7" target="_top" xlink:title=" ">
<polygon fill="none" stroke="black" points="178,-56.5 178,-75.5 249,-75.5 249,-56.5 178,-56.5"/>
<text text-anchor="middle" x="213.5" y="-63.5" font-family="Helvetica,sans-Serif" font-size="10.00">make_float2</text>
</a>
</g>
</g>
<!-- Node2&#45;&gt;Node3 -->
<g id="edge3" class="edge">
<title>Node2&#45;&gt;Node3</title>
<path fill="none" stroke="midnightblue" d="M124.37,-66C136.05,-66 152.19,-66 167.46,-66"/>
<polygon fill="midnightblue" stroke="midnightblue" points="167.84,-69.5 177.84,-66 167.84,-62.5 167.84,-69.5"/>
</g>
<!-- Node3&#45;&gt;Node3 -->
<g id="edge4" class="edge">
<title>Node3&#45;&gt;Node3</title>
<path fill="none" stroke="midnightblue" d="M197.16,-75.76C189.21,-84.57 194.66,-94 213.5,-94 225.27,-94 231.82,-90.31 233.13,-85.4"/>
<polygon fill="midnightblue" stroke="midnightblue" points="236.38,-84.09 229.84,-75.76 229.76,-86.35 236.38,-84.09"/>
</g>
<!-- Node4&#45;&gt;Node4 -->
<g id="edge6" class="edge">
<title>Node4&#45;&gt;Node4</title>
<path fill="none" stroke="midnightblue" d="M92.94,-19.76C86.34,-28.57 90.86,-38 106.5,-38 116.28,-38 121.71,-34.31 122.8,-29.4"/>
<polygon fill="midnightblue" stroke="midnightblue" points="126.16,-28.42 120.06,-19.76 119.42,-30.33 126.16,-28.42"/>
</g>
</g>
</svg>
