<?xml version="1.0" encoding="UTF-8" standalone="no"?>
<!DOCTYPE svg PUBLIC "-//W3C//DTD SVG 1.1//EN"
 "http://www.w3.org/Graphics/SVG/1.1/DTD/svg11.dtd">
<!-- Generated by graphviz version 2.49.1 (20210923.0004)
 -->
<!-- Title: fmodf Pages: 1 -->
<svg width="264pt" height="102pt"
 viewBox="0.00 0.00 264.00 102.00" xmlns="http://www.w3.org/2000/svg" xmlns:xlink="http://www.w3.org/1999/xlink">
<g id="graph0" class="graph" transform="scale(1 1) rotate(0) translate(4 98)">
<title>fmodf</title>
<!-- Node1 -->
<g id="node1" class="node">
<title>Node1</title>
<g id="a_node1"><a xlink:title=" ">
<polygon fill="#bfbfbf" stroke="black" points="0,-28.5 0,-47.5 42,-47.5 42,-28.5 0,-28.5"/>
<text text-anchor="middle" x="21" y="-35.5" font-family="Helvetica,sans-Serif" font-size="10.00">fmodf</text>
</a>
</g>
</g>
<!-- Node2 -->
<g id="node2" class="node">
<title>Node2</title>
<g id="a_node2"><a xlink:href="helper__math_8h.html#a49ad5cf537dac10aa125288115afb051" target="_top" xlink:title=" ">
<polygon fill="none" stroke="black" points="92.5,-56.5 92.5,-75.5 134.5,-75.5 134.5,-56.5 92.5,-56.5"/>
<text text-anchor="middle" x="113.5" y="-63.5" font-family="Helvetica,sans-Serif" font-size="10.00">fmodf</text>
</a>
</g>
</g>
<!-- Node1&#45;&gt;Node2 -->
<g id="edge1" class="edge">
<title>Node1&#45;&gt;Node2</title>
<path fill="none" stroke="midnightblue" d="M42.08,-44.21C54.04,-47.91 69.42,-52.67 82.76,-56.8"/>
<polygon fill="midnightblue" stroke="midnightblue" points="81.88,-60.19 92.47,-59.8 83.95,-53.5 81.88,-60.19"/>
</g>
<!-- Node4 -->
<g id="node4" class="node">
<title>Node4</title>
<g id="a_node4"><a xlink:href="helper__math_8h.html#a5ac86555d5a546106ec01ed56f8d48b4" target="_top" xlink:title=" ">
<polygon fill="none" stroke="black" points="78,-0.5 78,-19.5 149,-19.5 149,-0.5 78,-0.5"/>
<text text-anchor="middle" x="113.5" y="-7.5" font-family="Helvetica,sans-Serif" font-size="10.00">make_float4</text>
</a>
</g>
</g>
<!-- Node1&#45;&gt;Node4 -->
<g id="edge5" class="edge">
<title>Node1&#45;&gt;Node4</title>
<path fill="none" stroke="midnightblue" d="M42.08,-31.79C50.85,-29.08 61.45,-25.79 71.74,-22.61"/>
<polygon fill="midnightblue" stroke="midnightblue" points="72.93,-25.91 81.45,-19.61 70.86,-19.22 72.93,-25.91"/>
</g>
<!-- Node2&#45;&gt;Node2 -->
<g id="edge2" class="edge">
<title>Node2&#45;&gt;Node2</title>
<path fill="none" stroke="midnightblue" d="M99.32,-75.76C92.42,-84.57 97.15,-94 113.5,-94 123.72,-94 129.4,-90.31 130.54,-85.4"/>
<polygon fill="midnightblue" stroke="midnightblue" points="133.88,-84.35 127.68,-75.76 127.16,-86.34 133.88,-84.35"/>
</g>
<!-- Node3 -->
<g id="node3" class="node">
<title>Node3</title>
<g id="a_node3"><a xlink:href="helper__math_8h.html#ae157a97cf7d77e6a05db0e0d22b85fb7" target="_top" xlink:title=" ">
<polygon fill="none" stroke="black" points="185,-56.5 185,-75.5 256,-75.5 256,-56.5 185,-56.5"/>
<text text-anchor="middle" x="220.5" y="-63.5" font-family="Helvetica,sans-Serif" font-size="10.00">make_float2</text>
</a>
</g>
</g>
<!-- Node2&#45;&gt;Node3 -->
<g id="edge3" class="edge">
<title>Node2&#45;&gt;Node3</title>
<path fill="none" stroke="midnightblue" d="M134.75,-66C146.05,-66 160.61,-66 174.46,-66"/>
<polygon fill="midnightblue" stroke="midnightblue" points="174.85,-69.5 184.85,-66 174.85,-62.5 174.85,-69.5"/>
</g>
<!-- Node3&#45;&gt;Node3 -->
<g id="edge4" class="edge">
<title>Node3&#45;&gt;Node3</title>
<path fill="none" stroke="midnightblue" d="M204.16,-75.76C196.21,-84.57 201.66,-94 220.5,-94 232.27,-94 238.82,-90.31 240.13,-85.4"/>
<polygon fill="midnightblue" stroke="midnightblue" points="243.38,-84.09 236.84,-75.76 236.76,-86.35 243.38,-84.09"/>
</g>
<!-- Node4&#45;&gt;Node4 -->
<g id="edge6" class="edge">
<title>Node4&#45;&gt;Node4</title>
<path fill="none" stroke="midnightblue" d="M99.32,-19.76C92.42,-28.57 97.15,-38 113.5,-38 123.72,-38 129.4,-34.31 130.54,-29.4"/>
<polygon fill="midnightblue" stroke="midnightblue" points="133.88,-28.35 127.68,-19.76 127.16,-30.34 133.88,-28.35"/>
</g>
</g>
</svg>
