<?xml version="1.0" encoding="UTF-8" standalone="no"?>
<!DOCTYPE svg PUBLIC "-//W3C//DTD SVG 1.1//EN"
 "http://www.w3.org/Graphics/SVG/1.1/DTD/svg11.dtd">
<!-- Generated by graphviz version 2.43.0 (0)
 -->
<!-- Title: mat_norminf Pages: 1 -->
<svg width="256pt" height="28pt"
 viewBox="0.00 0.00 256.00 28.00" xmlns="http://www.w3.org/2000/svg" xmlns:xlink="http://www.w3.org/1999/xlink">
<g id="graph0" class="graph" transform="scale(1 1) rotate(0) translate(4 24)">
<title>mat_norminf</title>
<!-- Node1 -->
<g id="node1" class="node">
<title>Node1</title>
<g id="a_node1"><a xlink:title=" ">
<polygon fill="#bfbfbf" stroke="black" points="0,-0.5 0,-19.5 71,-19.5 71,-0.5 0,-0.5"/>
<text text-anchor="middle" x="35.5" y="-7.5" font-family="Helvetica,sans-Serif" font-size="10.00">mat_norminf</text>
</a>
</g>
</g>
<!-- Node2 -->
<g id="node2" class="node">
<title>Node2</title>
<g id="a_node2"><a xlink:href="helper__math_8h.html#aad6a2701675cd2a4bc1b1da7b79948ae" target="_top" xlink:title=" ">
<polygon fill="none" stroke="black" points="107,-0.5 107,-19.5 142,-19.5 142,-0.5 107,-0.5"/>
<text text-anchor="middle" x="124.5" y="-7.5" font-family="Helvetica,sans-Serif" font-size="10.00">fabs</text>
</a>
</g>
</g>
<!-- Node1&#45;&gt;Node2 -->
<g id="edge1" class="edge">
<title>Node1&#45;&gt;Node2</title>
<path fill="none" stroke="midnightblue" d="M71.13,-10C79.7,-10 88.75,-10 96.86,-10"/>
<polygon fill="midnightblue" stroke="midnightblue" points="96.88,-13.5 106.88,-10 96.88,-6.5 96.88,-13.5"/>
</g>
<!-- Node3 -->
<g id="node3" class="node">
<title>Node3</title>
<g id="a_node3"><a xlink:href="helper__math_8h.html#ae157a97cf7d77e6a05db0e0d22b85fb7" target="_top" xlink:title=" ">
<polygon fill="none" stroke="black" points="178,-0.5 178,-19.5 248,-19.5 248,-0.5 178,-0.5"/>
<text text-anchor="middle" x="213" y="-7.5" font-family="Helvetica,sans-Serif" font-size="10.00">make_float2</text>
</a>
</g>
</g>
<!-- Node2&#45;&gt;Node3 -->
<g id="edge2" class="edge">
<title>Node2&#45;&gt;Node3</title>
<path fill="none" stroke="midnightblue" d="M142.18,-10C149.53,-10 158.54,-10 167.63,-10"/>
<polygon fill="midnightblue" stroke="midnightblue" points="167.83,-13.5 177.83,-10 167.83,-6.5 167.83,-13.5"/>
</g>
</g>
</svg>
