<?xml version="1.0" encoding="UTF-8" standalone="no"?>
<!DOCTYPE svg PUBLIC "-//W3C//DTD SVG 1.1//EN"
 "http://www.w3.org/Graphics/SVG/1.1/DTD/svg11.dtd">
<!-- Generated by graphviz version 2.43.0 (0)
 -->
<!-- Title: TensorCast Pages: 1 -->
<svg width="725pt" height="78pt"
 viewBox="0.00 0.00 725.00 77.50" xmlns="http://www.w3.org/2000/svg" xmlns:xlink="http://www.w3.org/1999/xlink">
<g id="graph0" class="graph" transform="scale(1 1) rotate(0) translate(4 73.5)">
<title>TensorCast</title>
<!-- Node1 -->
<g id="node1" class="node">
<title>Node1</title>
<g id="a_node1"><a xlink:title="Convert Eigen::Matrix &#45;&#45;&gt; Eigen::Tensor.">
<polygon fill="#bfbfbf" stroke="black" points="650,-22.5 650,-41.5 717,-41.5 717,-22.5 650,-22.5"/>
<text text-anchor="middle" x="683.5" y="-29.5" font-family="Helvetica,sans-Serif" font-size="10.00">TensorCast</text>
</a>
</g>
</g>
<!-- Node2 -->
<g id="node2" class="node">
<title>Node2</title>
<g id="a_node2"><a xlink:href="classsystemData.html#aca5c01655d711e9088b3f1e9d7578612" target="_top" xlink:title=" ">
<polygon fill="none" stroke="black" points="470,-39 470,-69 614,-69 614,-39 470,-39"/>
<text text-anchor="start" x="478" y="-57" font-family="Helvetica,sans-Serif" font-size="10.00">systemData::gradientChange</text>
<text text-anchor="middle" x="542" y="-46" font-family="Helvetica,sans-Serif" font-size="10.00">OfVariableTensors</text>
</a>
</g>
</g>
<!-- Node1&#45;&gt;Node2 -->
<g id="edge1" class="edge">
<title>Node1&#45;&gt;Node2</title>
<path fill="none" stroke="midnightblue" d="M639.78,-38.74C631.6,-40.03 622.83,-41.41 614.03,-42.8"/>
<polygon fill="midnightblue" stroke="midnightblue" points="640.46,-42.17 649.79,-37.16 639.37,-35.26 640.46,-42.17"/>
</g>
<!-- Node6 -->
<g id="node6" class="node">
<title>Node6</title>
<g id="a_node6"><a xlink:href="helper__eigenTensorConversion_8h.html#a1c806578084d178c05d1660894693538" target="_top" xlink:title=" ">
<polygon fill="none" stroke="black" points="508.5,-0.5 508.5,-19.5 575.5,-19.5 575.5,-0.5 508.5,-0.5"/>
<text text-anchor="middle" x="542" y="-7.5" font-family="Helvetica,sans-Serif" font-size="10.00">TensorCast</text>
</a>
</g>
</g>
<!-- Node1&#45;&gt;Node6 -->
<g id="edge5" class="edge">
<title>Node1&#45;&gt;Node6</title>
<path fill="none" stroke="midnightblue" d="M639.68,-25.25C619.01,-21.99 594.62,-18.14 575.5,-15.13"/>
<polygon fill="midnightblue" stroke="midnightblue" points="639.37,-28.74 649.79,-26.84 640.46,-21.83 639.37,-28.74"/>
</g>
<!-- Node3 -->
<g id="node3" class="node">
<title>Node3</title>
<g id="a_node3"><a xlink:href="classsystemData.html#a3c7862901ce425c4d5e6001efa3ef61d" target="_top" xlink:title="Updates all relevant rigid body motion tensors, respective gradients, and kinematic/Udwadia constrain...">
<polygon fill="none" stroke="black" points="279,-44.5 279,-63.5 434,-63.5 434,-44.5 279,-44.5"/>
<text text-anchor="middle" x="356.5" y="-51.5" font-family="Helvetica,sans-Serif" font-size="10.00">systemData::updateConstraints</text>
</a>
</g>
</g>
<!-- Node2&#45;&gt;Node3 -->
<g id="edge2" class="edge">
<title>Node2&#45;&gt;Node3</title>
<path fill="none" stroke="midnightblue" d="M459.56,-54C451.11,-54 442.54,-54 434.14,-54"/>
<polygon fill="midnightblue" stroke="midnightblue" points="459.79,-57.5 469.79,-54 459.79,-50.5 459.79,-57.5"/>
</g>
<!-- Node4 -->
<g id="node4" class="node">
<title>Node4</title>
<g id="a_node4"><a xlink:href="classsystemData.html#ad2ba3455704ef6cec1aac76a417e91e9" target="_top" xlink:title="Function loads data from GSD file using GSDUtil class.">
<polygon fill="none" stroke="black" points="111,-44.5 111,-63.5 243,-63.5 243,-44.5 111,-44.5"/>
<text text-anchor="middle" x="177" y="-51.5" font-family="Helvetica,sans-Serif" font-size="10.00">systemData::initializeData</text>
</a>
</g>
</g>
<!-- Node3&#45;&gt;Node4 -->
<g id="edge3" class="edge">
<title>Node3&#45;&gt;Node4</title>
<path fill="none" stroke="midnightblue" d="M268.83,-54C260.2,-54 251.53,-54 243.17,-54"/>
<polygon fill="midnightblue" stroke="midnightblue" points="268.94,-57.5 278.94,-54 268.94,-50.5 268.94,-57.5"/>
</g>
<!-- Node5 -->
<g id="node5" class="node">
<title>Node5</title>
<g id="a_node5"><a xlink:href="testsSimulationBuild_8cpp.html#ac2b102ba50512565940601db33c64cf2" target="_top" xlink:title=" ">
<polygon fill="none" stroke="black" points="0,-44.5 0,-63.5 75,-63.5 75,-44.5 0,-44.5"/>
<text text-anchor="middle" x="37.5" y="-51.5" font-family="Helvetica,sans-Serif" font-size="10.00">TEST_CASE</text>
</a>
</g>
</g>
<!-- Node4&#45;&gt;Node5 -->
<g id="edge4" class="edge">
<title>Node4&#45;&gt;Node5</title>
<path fill="none" stroke="midnightblue" d="M100.85,-54C92,-54 83.29,-54 75.31,-54"/>
<polygon fill="midnightblue" stroke="midnightblue" points="100.87,-57.5 110.87,-54 100.87,-50.5 100.87,-57.5"/>
</g>
</g>
</svg>
