<?xml version="1.0" encoding="UTF-8" standalone="no"?>
<!DOCTYPE svg PUBLIC "-//W3C//DTD SVG 1.1//EN"
 "http://www.w3.org/Graphics/SVG/1.1/DTD/svg11.dtd">
<!-- Generated by graphviz version 2.43.0 (0)
 -->
<!-- Title: max Pages: 1 -->
<svg width="146pt" height="66pt"
 viewBox="0.00 0.00 146.00 66.00" xmlns="http://www.w3.org/2000/svg" xmlns:xlink="http://www.w3.org/1999/xlink">
<g id="graph0" class="graph" transform="scale(1 1) rotate(0) translate(4 62)">
<title>max</title>
<!-- Node1 -->
<g id="node1" class="node">
<title>Node1</title>
<g id="a_node1"><a xlink:title=" ">
<polygon fill="#bfbfbf" stroke="black" points="0,-19.5 0,-38.5 35,-38.5 35,-19.5 0,-19.5"/>
<text text-anchor="middle" x="17.5" y="-26.5" font-family="Helvetica,sans-Serif" font-size="10.00">max</text>
</a>
</g>
</g>
<!-- Node2 -->
<g id="node2" class="node">
<title>Node2</title>
<g id="a_node2"><a xlink:href="helper__math_8h.html#adcf40e92c44d3592e8a6b6c9c50a031b" target="_top" xlink:title=" ">
<polygon fill="none" stroke="black" points="71,-38.5 71,-57.5 138,-57.5 138,-38.5 71,-38.5"/>
<text text-anchor="middle" x="104.5" y="-45.5" font-family="Helvetica,sans-Serif" font-size="10.00">make_uint3</text>
</a>
</g>
</g>
<!-- Node1&#45;&gt;Node2 -->
<g id="edge1" class="edge">
<title>Node1&#45;&gt;Node2</title>
<path fill="none" stroke="midnightblue" d="M35.29,-32.75C42.75,-34.42 51.91,-36.47 61.06,-38.51"/>
<polygon fill="midnightblue" stroke="midnightblue" points="60.39,-41.95 70.91,-40.71 61.91,-35.12 60.39,-41.95"/>
</g>
<!-- Node3 -->
<g id="node3" class="node">
<title>Node3</title>
<g id="a_node3"><a xlink:href="helper__math_8h.html#af082905f7eac6d03e92015146bbc1925" target="_top" xlink:title=" ">
<polygon fill="none" stroke="black" points="87,-0.5 87,-19.5 122,-19.5 122,-0.5 87,-0.5"/>
<text text-anchor="middle" x="104.5" y="-7.5" font-family="Helvetica,sans-Serif" font-size="10.00">max</text>
</a>
</g>
</g>
<!-- Node1&#45;&gt;Node3 -->
<g id="edge2" class="edge">
<title>Node1&#45;&gt;Node3</title>
<path fill="none" stroke="midnightblue" d="M35.29,-25.25C47.17,-22.59 63.33,-18.98 76.94,-15.94"/>
<polygon fill="midnightblue" stroke="midnightblue" points="77.75,-19.34 86.74,-13.75 76.22,-12.51 77.75,-19.34"/>
</g>
</g>
</svg>
