<?xml version="1.0" encoding="UTF-8" standalone="no"?>
<!DOCTYPE svg PUBLIC "-//W3C//DTD SVG 1.1//EN"
 "http://www.w3.org/Graphics/SVG/1.1/DTD/svg11.dtd">
<!-- Generated by graphviz version 2.49.1 (20210923.0004)
 -->
<!-- Title: src/helpers/cuda/helper_functions.h Pages: 1 -->
<svg width="942pt" height="207pt"
 viewBox="0.00 0.00 941.50 207.00" xmlns="http://www.w3.org/2000/svg" xmlns:xlink="http://www.w3.org/1999/xlink">
<g id="graph0" class="graph" transform="scale(1 1) rotate(0) translate(4 203)">
<title>src/helpers/cuda/helper_functions.h</title>
<!-- Node1 -->
<g id="node1" class="node">
<title>Node1</title>
<g id="a_node1"><a xlink:title=" ">
<polygon fill="#bfbfbf" stroke="black" points="444,-168.5 444,-198.5 564,-198.5 564,-168.5 444,-168.5"/>
<text text-anchor="start" x="452" y="-186.5" font-family="Helvetica,sans-Serif" font-size="10.00">src/helpers/cuda/helper</text>
<text text-anchor="middle" x="504" y="-175.5" font-family="Helvetica,sans-Serif" font-size="10.00">_functions.h</text>
</a>
</g>
</g>
<!-- Node2 -->
<g id="node2" class="node">
<title>Node2</title>
<g id="a_node2"><a xlink:title=" ">
<polygon fill="none" stroke="#bfbfbf" points="0,-112.5 0,-131.5 52,-131.5 52,-112.5 0,-112.5"/>
<text text-anchor="middle" x="26" y="-119.5" font-family="Helvetica,sans-Serif" font-size="10.00">assert.h</text>
</a>
</g>
</g>
<!-- Node1&#45;&gt;Node2 -->
<g id="edge1" class="edge">
<title>Node1&#45;&gt;Node2</title>
<path fill="none" stroke="midnightblue" d="M443.85,-177.61C359.17,-170.26 200.14,-154.76 66,-132 64.74,-131.79 63.45,-131.56 62.16,-131.32"/>
<polygon fill="midnightblue" stroke="midnightblue" points="62.66,-127.85 52.17,-129.31 61.28,-134.71 62.66,-127.85"/>
</g>
<!-- Node3 -->
<g id="node3" class="node">
<title>Node3</title>
<g id="a_node3"><a xlink:href="exception_8h.html" target="_top" xlink:title=" ">
<polygon fill="none" stroke="black" points="532,-56.5 532,-75.5 600,-75.5 600,-56.5 532,-56.5"/>
<text text-anchor="middle" x="566" y="-63.5" font-family="Helvetica,sans-Serif" font-size="10.00">exception.h</text>
</a>
</g>
</g>
<!-- Node1&#45;&gt;Node3 -->
<g id="edge2" class="edge">
<title>Node1&#45;&gt;Node3</title>
<path fill="none" stroke="midnightblue" d="M511.6,-168.34C522.93,-147.24 544.21,-107.6 556.53,-84.65"/>
<polygon fill="midnightblue" stroke="midnightblue" points="559.7,-86.14 561.35,-75.67 553.53,-82.82 559.7,-86.14"/>
</g>
<!-- Node4 -->
<g id="node4" class="node">
<title>Node4</title>
<g id="a_node4"><a xlink:title=" ">
<polygon fill="none" stroke="#bfbfbf" points="403,-0.5 403,-19.5 451,-19.5 451,-0.5 403,-0.5"/>
<text text-anchor="middle" x="427" y="-7.5" font-family="Helvetica,sans-Serif" font-size="10.00">stdlib.h</text>
</a>
</g>
</g>
<!-- Node1&#45;&gt;Node4 -->
<g id="edge11" class="edge">
<title>Node1&#45;&gt;Node4</title>
<path fill="none" stroke="midnightblue" d="M497.7,-168.47C483.77,-137.44 450.37,-63.05 434.99,-28.81"/>
<polygon fill="midnightblue" stroke="midnightblue" points="438.13,-27.25 430.84,-19.56 431.75,-30.12 438.13,-27.25"/>
</g>
<!-- Node6 -->
<g id="node6" class="node">
<title>Node6</title>
<g id="a_node6"><a xlink:title=" ">
<polygon fill="none" stroke="#bfbfbf" points="469.5,-0.5 469.5,-19.5 524.5,-19.5 524.5,-0.5 469.5,-0.5"/>
<text text-anchor="middle" x="497" y="-7.5" font-family="Helvetica,sans-Serif" font-size="10.00">iostream</text>
</a>
</g>
</g>
<!-- Node1&#45;&gt;Node6 -->
<g id="edge14" class="edge">
<title>Node1&#45;&gt;Node6</title>
<path fill="none" stroke="midnightblue" d="M503.43,-168.47C502.17,-137.7 499.18,-64.33 497.76,-29.7"/>
<polygon fill="midnightblue" stroke="midnightblue" points="501.25,-29.41 497.35,-19.56 494.26,-29.69 501.25,-29.41"/>
</g>
<!-- Node8 -->
<g id="node8" class="node">
<title>Node8</title>
<g id="a_node8"><a xlink:title=" ">
<polygon fill="none" stroke="#bfbfbf" points="301.5,-0.5 301.5,-19.5 342.5,-19.5 342.5,-0.5 301.5,-0.5"/>
<text text-anchor="middle" x="322" y="-7.5" font-family="Helvetica,sans-Serif" font-size="10.00">string</text>
</a>
</g>
</g>
<!-- Node1&#45;&gt;Node8 -->
<g id="edge15" class="edge">
<title>Node1&#45;&gt;Node8</title>
<path fill="none" stroke="midnightblue" d="M443.72,-176.42C340.19,-164.51 136.1,-134.04 99,-76 94.21,-68.51 93.37,-62.88 99,-56 122.92,-26.77 235.56,-16.1 291.01,-12.57"/>
<polygon fill="midnightblue" stroke="midnightblue" points="291.52,-16.05 301.29,-11.96 291.1,-9.06 291.52,-16.05"/>
</g>
<!-- Node10 -->
<g id="node10" class="node">
<title>Node10</title>
<g id="a_node10"><a xlink:title=" ">
<polygon fill="none" stroke="#bfbfbf" points="706.5,-112.5 706.5,-131.5 753.5,-131.5 753.5,-112.5 706.5,-112.5"/>
<text text-anchor="middle" x="730" y="-119.5" font-family="Helvetica,sans-Serif" font-size="10.00">math.h</text>
</a>
</g>
</g>
<!-- Node1&#45;&gt;Node10 -->
<g id="edge9" class="edge">
<title>Node1&#45;&gt;Node10</title>
<path fill="none" stroke="midnightblue" d="M558.53,-168.39C594.94,-158.94 644.15,-146.08 696.42,-132.14"/>
<polygon fill="midnightblue" stroke="midnightblue" points="697.46,-135.48 706.21,-129.52 695.65,-128.72 697.46,-135.48"/>
</g>
<!-- Node11 -->
<g id="node11" class="node">
<title>Node11</title>
<g id="a_node11"><a xlink:title=" ">
<polygon fill="none" stroke="#bfbfbf" points="108,-56.5 108,-75.5 154,-75.5 154,-56.5 108,-56.5"/>
<text text-anchor="middle" x="131" y="-63.5" font-family="Helvetica,sans-Serif" font-size="10.00">stdio.h</text>
</a>
</g>
</g>
<!-- Node1&#45;&gt;Node11 -->
<g id="edge10" class="edge">
<title>Node1&#45;&gt;Node11</title>
<path fill="none" stroke="midnightblue" d="M443.64,-173.2C396.01,-164.96 328.29,-151.24 271,-132 228.96,-117.88 182.77,-94.85 155.36,-80.34"/>
<polygon fill="midnightblue" stroke="midnightblue" points="156.96,-77.22 146.49,-75.58 153.65,-83.39 156.96,-77.22"/>
</g>
<!-- Node12 -->
<g id="node12" class="node">
<title>Node12</title>
<g id="a_node12"><a xlink:title=" ">
<polygon fill="none" stroke="#bfbfbf" points="772,-112.5 772,-131.5 830,-131.5 830,-112.5 772,-112.5"/>
<text text-anchor="middle" x="801" y="-119.5" font-family="Helvetica,sans-Serif" font-size="10.00">algorithm</text>
</a>
</g>
</g>
<!-- Node1&#45;&gt;Node12 -->
<g id="edge12" class="edge">
<title>Node1&#45;&gt;Node12</title>
<path fill="none" stroke="midnightblue" d="M564.06,-171.49C614.39,-162.11 688.36,-147.95 762.06,-132.14"/>
<polygon fill="midnightblue" stroke="midnightblue" points="762.94,-135.53 771.98,-130 761.47,-128.68 762.94,-135.53"/>
</g>
<!-- Node13 -->
<g id="node13" class="node">
<title>Node13</title>
<g id="a_node13"><a xlink:title=" ">
<polygon fill="none" stroke="#bfbfbf" points="388,-56.5 388,-75.5 438,-75.5 438,-56.5 388,-56.5"/>
<text text-anchor="middle" x="413" y="-63.5" font-family="Helvetica,sans-Serif" font-size="10.00">fstream</text>
</a>
</g>
</g>
<!-- Node1&#45;&gt;Node13 -->
<g id="edge13" class="edge">
<title>Node1&#45;&gt;Node13</title>
<path fill="none" stroke="midnightblue" d="M487.44,-168.46C476.64,-158.83 462.63,-145.41 452,-132 440.27,-117.21 429.45,-98.58 422.19,-85.07"/>
<polygon fill="midnightblue" stroke="midnightblue" points="425.12,-83.12 417.38,-75.88 418.91,-86.36 425.12,-83.12"/>
</g>
<!-- Node14 -->
<g id="node14" class="node">
<title>Node14</title>
<g id="a_node14"><a xlink:title=" ">
<polygon fill="none" stroke="#bfbfbf" points="618,-56.5 618,-75.5 662,-75.5 662,-56.5 618,-56.5"/>
<text text-anchor="middle" x="640" y="-63.5" font-family="Helvetica,sans-Serif" font-size="10.00">vector</text>
</a>
</g>
</g>
<!-- Node1&#45;&gt;Node14 -->
<g id="edge16" class="edge">
<title>Node1&#45;&gt;Node14</title>
<path fill="none" stroke="midnightblue" d="M520.68,-168.34C546.41,-146.49 595.57,-104.73 622.05,-82.24"/>
<polygon fill="midnightblue" stroke="midnightblue" points="624.44,-84.81 629.79,-75.67 619.9,-79.47 624.44,-84.81"/>
</g>
<!-- Node15 -->
<g id="node15" class="node">
<title>Node15</title>
<g id="a_node15"><a xlink:title=" ">
<polygon fill="none" stroke="#bfbfbf" points="848.5,-112.5 848.5,-131.5 933.5,-131.5 933.5,-112.5 848.5,-112.5"/>
<text text-anchor="middle" x="891" y="-119.5" font-family="Helvetica,sans-Serif" font-size="10.00">helper_image.h</text>
</a>
</g>
</g>
<!-- Node1&#45;&gt;Node15 -->
<g id="edge17" class="edge">
<title>Node1&#45;&gt;Node15</title>
<path fill="none" stroke="midnightblue" d="M564.28,-173.82C629.29,-164.36 736.12,-148.56 838.55,-132.04"/>
<polygon fill="midnightblue" stroke="midnightblue" points="839.13,-135.49 848.45,-130.44 838.02,-128.58 839.13,-135.49"/>
</g>
<!-- Node16 -->
<g id="node16" class="node">
<title>Node16</title>
<g id="a_node16"><a xlink:href="helper__string_8h.html" target="_top" xlink:title=" ">
<polygon fill="none" stroke="black" points="280.5,-112.5 280.5,-131.5 363.5,-131.5 363.5,-112.5 280.5,-112.5"/>
<text text-anchor="middle" x="322" y="-119.5" font-family="Helvetica,sans-Serif" font-size="10.00">helper_string.h</text>
</a>
</g>
</g>
<!-- Node1&#45;&gt;Node16 -->
<g id="edge18" class="edge">
<title>Node1&#45;&gt;Node16</title>
<path fill="none" stroke="midnightblue" d="M460.87,-168.4C429.42,-158.12 387.31,-144.35 357.73,-134.68"/>
<polygon fill="midnightblue" stroke="midnightblue" points="358.81,-131.35 348.22,-131.57 356.63,-138.01 358.81,-131.35"/>
</g>
<!-- Node19 -->
<g id="node19" class="node">
<title>Node19</title>
<g id="a_node19"><a xlink:href="helper__timer_8h.html" target="_top" xlink:title=" ">
<polygon fill="none" stroke="black" points="608,-112.5 608,-131.5 688,-131.5 688,-112.5 608,-112.5"/>
<text text-anchor="middle" x="648" y="-119.5" font-family="Helvetica,sans-Serif" font-size="10.00">helper_timer.h</text>
</a>
</g>
</g>
<!-- Node1&#45;&gt;Node19 -->
<g id="edge25" class="edge">
<title>Node1&#45;&gt;Node19</title>
<path fill="none" stroke="midnightblue" d="M538.13,-168.4C562.29,-158.42 594.4,-145.15 617.67,-135.53"/>
<polygon fill="midnightblue" stroke="midnightblue" points="619.14,-138.71 627.05,-131.66 616.47,-132.24 619.14,-138.71"/>
</g>
<!-- Node3&#45;&gt;Node4 -->
<g id="edge3" class="edge">
<title>Node3&#45;&gt;Node4</title>
<path fill="none" stroke="midnightblue" d="M543.98,-56.44C520.9,-47.48 484.44,-33.31 458.36,-23.18"/>
<polygon fill="midnightblue" stroke="midnightblue" points="459.51,-19.88 448.92,-19.52 456.98,-26.4 459.51,-19.88"/>
</g>
<!-- Node5 -->
<g id="node5" class="node">
<title>Node5</title>
<g id="a_node5"><a xlink:title=" ">
<polygon fill="none" stroke="#bfbfbf" points="542.5,-0.5 542.5,-19.5 601.5,-19.5 601.5,-0.5 542.5,-0.5"/>
<text text-anchor="middle" x="572" y="-7.5" font-family="Helvetica,sans-Serif" font-size="10.00">exception</text>
</a>
</g>
</g>
<!-- Node3&#45;&gt;Node5 -->
<g id="edge4" class="edge">
<title>Node3&#45;&gt;Node5</title>
<path fill="none" stroke="midnightblue" d="M566.99,-56.08C567.79,-48.93 568.93,-38.64 569.92,-29.69"/>
<polygon fill="midnightblue" stroke="midnightblue" points="573.4,-30.08 571.03,-19.75 566.44,-29.3 573.4,-30.08"/>
</g>
<!-- Node3&#45;&gt;Node6 -->
<g id="edge5" class="edge">
<title>Node3&#45;&gt;Node6</title>
<path fill="none" stroke="midnightblue" d="M554.91,-56.32C544.51,-48.18 528.74,-35.84 516.28,-26.09"/>
<polygon fill="midnightblue" stroke="midnightblue" points="518.32,-23.24 508.29,-19.83 514.01,-28.75 518.32,-23.24"/>
</g>
<!-- Node7 -->
<g id="node7" class="node">
<title>Node7</title>
<g id="a_node7"><a xlink:title=" ">
<polygon fill="none" stroke="#bfbfbf" points="619.5,-0.5 619.5,-19.5 678.5,-19.5 678.5,-0.5 619.5,-0.5"/>
<text text-anchor="middle" x="649" y="-7.5" font-family="Helvetica,sans-Serif" font-size="10.00">stdexcept</text>
</a>
</g>
</g>
<!-- Node3&#45;&gt;Node7 -->
<g id="edge6" class="edge">
<title>Node3&#45;&gt;Node7</title>
<path fill="none" stroke="midnightblue" d="M579.34,-56.32C592.16,-47.98 611.78,-35.21 626.94,-25.35"/>
<polygon fill="midnightblue" stroke="midnightblue" points="629.22,-28.04 635.7,-19.65 625.41,-22.17 629.22,-28.04"/>
</g>
<!-- Node3&#45;&gt;Node8 -->
<g id="edge7" class="edge">
<title>Node3&#45;&gt;Node8</title>
<path fill="none" stroke="midnightblue" d="M531.82,-57.43C484.12,-46.88 398.32,-27.89 352.62,-17.78"/>
<polygon fill="midnightblue" stroke="midnightblue" points="353.22,-14.33 342.7,-15.58 351.71,-21.16 353.22,-14.33"/>
</g>
<!-- Node9 -->
<g id="node9" class="node">
<title>Node9</title>
<g id="a_node9"><a xlink:title=" ">
<polygon fill="none" stroke="#bfbfbf" points="697,-0.5 697,-19.5 749,-19.5 749,-0.5 697,-0.5"/>
<text text-anchor="middle" x="723" y="-7.5" font-family="Helvetica,sans-Serif" font-size="10.00">sstream</text>
</a>
</g>
</g>
<!-- Node3&#45;&gt;Node9 -->
<g id="edge8" class="edge">
<title>Node3&#45;&gt;Node9</title>
<path fill="none" stroke="midnightblue" d="M590.88,-56.44C617.29,-47.36 659.22,-32.94 688.74,-22.78"/>
<polygon fill="midnightblue" stroke="midnightblue" points="689.92,-26.08 698.24,-19.52 687.64,-19.46 689.92,-26.08"/>
</g>
<!-- Node16&#45;&gt;Node4 -->
<g id="edge20" class="edge">
<title>Node16&#45;&gt;Node4</title>
<path fill="none" stroke="midnightblue" d="M329.12,-112.35C339.67,-99.66 360.22,-75.42 379,-56 388.83,-45.84 400.37,-34.99 409.67,-26.49"/>
<polygon fill="midnightblue" stroke="midnightblue" points="412.11,-29 417.17,-19.7 407.41,-23.81 412.11,-29"/>
</g>
<!-- Node16&#45;&gt;Node8 -->
<g id="edge22" class="edge">
<title>Node16&#45;&gt;Node8</title>
<path fill="none" stroke="midnightblue" d="M322,-112.37C322,-94.62 322,-53.67 322,-29.6"/>
<polygon fill="midnightblue" stroke="midnightblue" points="325.5,-29.59 322,-19.59 318.5,-29.59 325.5,-29.59"/>
</g>
<!-- Node16&#45;&gt;Node11 -->
<g id="edge19" class="edge">
<title>Node16&#45;&gt;Node11</title>
<path fill="none" stroke="midnightblue" d="M291.74,-112.44C256.98,-102.62 200.15,-86.55 164.21,-76.39"/>
<polygon fill="midnightblue" stroke="midnightblue" points="164.79,-72.92 154.21,-73.56 162.88,-79.65 164.79,-72.92"/>
</g>
<!-- Node16&#45;&gt;Node13 -->
<g id="edge21" class="edge">
<title>Node16&#45;&gt;Node13</title>
<path fill="none" stroke="midnightblue" d="M336.62,-112.32C350.95,-103.82 373.01,-90.73 389.75,-80.8"/>
<polygon fill="midnightblue" stroke="midnightblue" points="391.6,-83.77 398.42,-75.65 388.03,-77.75 391.6,-83.77"/>
</g>
<!-- Node17 -->
<g id="node17" class="node">
<title>Node17</title>
<g id="a_node17"><a xlink:title=" ">
<polygon fill="none" stroke="#bfbfbf" points="172.5,-56.5 172.5,-75.5 221.5,-75.5 221.5,-56.5 172.5,-56.5"/>
<text text-anchor="middle" x="197" y="-63.5" font-family="Helvetica,sans-Serif" font-size="10.00">string.h</text>
</a>
</g>
</g>
<!-- Node16&#45;&gt;Node17 -->
<g id="edge23" class="edge">
<title>Node16&#45;&gt;Node17</title>
<path fill="none" stroke="midnightblue" d="M302.19,-112.44C281.71,-103.6 249.52,-89.69 226.14,-79.59"/>
<polygon fill="midnightblue" stroke="midnightblue" points="227.28,-76.27 216.71,-75.52 224.51,-82.7 227.28,-76.27"/>
</g>
<!-- Node18 -->
<g id="node18" class="node">
<title>Node18</title>
<g id="a_node18"><a xlink:title=" ">
<polygon fill="none" stroke="#bfbfbf" points="240,-56.5 240,-75.5 294,-75.5 294,-56.5 240,-56.5"/>
<text text-anchor="middle" x="267" y="-63.5" font-family="Helvetica,sans-Serif" font-size="10.00">strings.h</text>
</a>
</g>
</g>
<!-- Node16&#45;&gt;Node18 -->
<g id="edge24" class="edge">
<title>Node16&#45;&gt;Node18</title>
<path fill="none" stroke="midnightblue" d="M312.92,-112.08C304.83,-104.14 292.8,-92.34 283.09,-82.8"/>
<polygon fill="midnightblue" stroke="midnightblue" points="285.5,-80.26 275.91,-75.75 280.6,-85.25 285.5,-80.26"/>
</g>
<!-- Node19&#45;&gt;Node3 -->
<g id="edge27" class="edge">
<title>Node19&#45;&gt;Node3</title>
<path fill="none" stroke="midnightblue" d="M634.83,-112.32C622.15,-103.98 602.77,-91.21 587.79,-81.35"/>
<polygon fill="midnightblue" stroke="midnightblue" points="589.42,-78.23 579.14,-75.65 585.57,-84.08 589.42,-78.23"/>
</g>
<!-- Node19&#45;&gt;Node14 -->
<g id="edge26" class="edge">
<title>Node19&#45;&gt;Node14</title>
<path fill="none" stroke="midnightblue" d="M646.68,-112.08C645.62,-104.93 644.09,-94.64 642.77,-85.69"/>
<polygon fill="midnightblue" stroke="midnightblue" points="646.22,-85.13 641.3,-75.75 639.3,-86.16 646.22,-85.13"/>
</g>
<!-- Node20 -->
<g id="node20" class="node">
<title>Node20</title>
<g id="a_node20"><a xlink:title=" ">
<polygon fill="none" stroke="#bfbfbf" points="760,-56.5 760,-75.5 800,-75.5 800,-56.5 760,-56.5"/>
<text text-anchor="middle" x="780" y="-63.5" font-family="Helvetica,sans-Serif" font-size="10.00">ctime</text>
</a>
</g>
</g>
<!-- Node19&#45;&gt;Node20 -->
<g id="edge28" class="edge">
<title>Node19&#45;&gt;Node20</title>
<path fill="none" stroke="midnightblue" d="M668.92,-112.44C690.86,-103.46 725.56,-89.27 750.33,-79.14"/>
<polygon fill="midnightblue" stroke="midnightblue" points="751.69,-82.36 759.62,-75.34 749.04,-75.89 751.69,-82.36"/>
</g>
<!-- Node21 -->
<g id="node21" class="node">
<title>Node21</title>
<g id="a_node21"><a xlink:title=" ">
<polygon fill="none" stroke="#bfbfbf" points="680,-56.5 680,-75.5 742,-75.5 742,-56.5 680,-56.5"/>
<text text-anchor="middle" x="711" y="-63.5" font-family="Helvetica,sans-Serif" font-size="10.00">sys/time.h</text>
</a>
</g>
</g>
<!-- Node19&#45;&gt;Node21 -->
<g id="edge29" class="edge">
<title>Node19&#45;&gt;Node21</title>
<path fill="none" stroke="midnightblue" d="M658.12,-112.32C667.53,-104.26 681.74,-92.08 693.07,-82.37"/>
<polygon fill="midnightblue" stroke="midnightblue" points="695.38,-85 700.69,-75.83 690.82,-79.68 695.38,-85"/>
</g>
</g>
</svg>
