<?xml version="1.0" encoding="UTF-8" standalone="no"?>
<!DOCTYPE svg PUBLIC "-//W3C//DTD SVG 1.1//EN"
 "http://www.w3.org/Graphics/SVG/1.1/DTD/svg11.dtd">
<!-- Generated by graphviz version 2.49.1 (20210923.0004)
 -->
<!-- Title: TensorCast Pages: 1 -->
<svg width="584pt" height="176pt"
 viewBox="0.00 0.00 584.00 175.50" xmlns="http://www.w3.org/2000/svg" xmlns:xlink="http://www.w3.org/1999/xlink">
<g id="graph0" class="graph" transform="scale(1 1) rotate(0) translate(4 171.5)">
<title>TensorCast</title>
<!-- Node1 -->
<g id="node1" class="node">
<title>Node1</title>
<g id="a_node1"><a xlink:title="Convert Eigen::Matrix &#45;&#45;&gt; Eigen::Tensor.">
<polygon fill="#bfbfbf" stroke="black" points="509,-68.5 509,-87.5 576,-87.5 576,-68.5 509,-68.5"/>
<text text-anchor="middle" x="542.5" y="-75.5" font-family="Helvetica,sans-Serif" font-size="10.00">TensorCast</text>
</a>
</g>
</g>
<!-- Node2 -->
<g id="node2" class="node">
<title>Node2</title>
<g id="a_node2"><a xlink:href="classpotentialHydrodynamics.html#a19d927bd0b419517d15b566c9132d632" target="_top" xlink:title="Calculates m_M_added">
<polygon fill="none" stroke="black" points="338.5,-137 338.5,-167 461.5,-167 461.5,-137 338.5,-137"/>
<text text-anchor="start" x="346.5" y="-155" font-family="Helvetica,sans-Serif" font-size="10.00">potentialHydrodynamics</text>
<text text-anchor="middle" x="400" y="-144" font-family="Helvetica,sans-Serif" font-size="10.00">::calcAddedMassGrad</text>
</a>
</g>
</g>
<!-- Node1&#45;&gt;Node2 -->
<g id="edge1" class="edge">
<title>Node1&#45;&gt;Node2</title>
<path fill="none" stroke="midnightblue" d="M522.71,-94.18C509.5,-104.92 491.03,-118.7 473,-128 466.56,-131.32 459.56,-134.32 452.55,-136.99"/>
<polygon fill="midnightblue" stroke="midnightblue" points="525.13,-96.73 530.58,-87.64 520.65,-91.35 525.13,-96.73"/>
</g>
<!-- Node5 -->
<g id="node5" class="node">
<title>Node5</title>
<g id="a_node5"><a xlink:href="classpotentialHydrodynamics.html#a2b71af05a80cbe982c996d61b084695c" target="_top" xlink:title="Calculates m_F_hydro and m_F_hydroNoInertia">
<polygon fill="none" stroke="black" points="338.5,-88 338.5,-118 461.5,-118 461.5,-88 338.5,-88"/>
<text text-anchor="start" x="346.5" y="-106" font-family="Helvetica,sans-Serif" font-size="10.00">potentialHydrodynamics</text>
<text text-anchor="middle" x="400" y="-95" font-family="Helvetica,sans-Serif" font-size="10.00">::calcHydroForces</text>
</a>
</g>
</g>
<!-- Node1&#45;&gt;Node5 -->
<g id="edge4" class="edge">
<title>Node1&#45;&gt;Node5</title>
<path fill="none" stroke="midnightblue" d="M498.92,-85.58C487.15,-87.67 474.14,-89.99 461.55,-92.23"/>
<polygon fill="midnightblue" stroke="midnightblue" points="499.68,-89 508.91,-83.8 498.45,-82.1 499.68,-89"/>
</g>
<!-- Node6 -->
<g id="node6" class="node">
<title>Node6</title>
<g id="a_node6"><a xlink:href="classsystemData.html#aca5c01655d711e9088b3f1e9d7578612" target="_top" xlink:title=" ">
<polygon fill="none" stroke="black" points="327,-39 327,-69 473,-69 473,-39 327,-39"/>
<text text-anchor="start" x="335" y="-57" font-family="Helvetica,sans-Serif" font-size="10.00">systemData::gradientChange</text>
<text text-anchor="middle" x="400" y="-46" font-family="Helvetica,sans-Serif" font-size="10.00">OfVariableTensors</text>
</a>
</g>
</g>
<!-- Node1&#45;&gt;Node6 -->
<g id="edge6" class="edge">
<title>Node1&#45;&gt;Node6</title>
<path fill="none" stroke="midnightblue" d="M498.91,-70.72C490.73,-69.33 481.95,-67.83 473.13,-66.32"/>
<polygon fill="midnightblue" stroke="midnightblue" points="498.47,-74.2 508.91,-72.43 499.65,-67.3 498.47,-74.2"/>
</g>
<!-- Node9 -->
<g id="node9" class="node">
<title>Node9</title>
<g id="a_node9"><a xlink:href="helper__eigenTensorConversion_8hpp.html#a1c806578084d178c05d1660894693538" target="_top" xlink:title=" ">
<polygon fill="none" stroke="black" points="366.5,-0.5 366.5,-19.5 433.5,-19.5 433.5,-0.5 366.5,-0.5"/>
<text text-anchor="middle" x="400" y="-7.5" font-family="Helvetica,sans-Serif" font-size="10.00">TensorCast</text>
</a>
</g>
</g>
<!-- Node1&#45;&gt;Node9 -->
<g id="edge9" class="edge">
<title>Node1&#45;&gt;Node9</title>
<path fill="none" stroke="midnightblue" d="M522.84,-61.79C509.69,-51.12 491.24,-37.57 473,-29 460.72,-23.22 446.4,-18.99 433.78,-16"/>
<polygon fill="midnightblue" stroke="midnightblue" points="520.74,-64.6 530.66,-68.32 525.22,-59.22 520.74,-64.6"/>
</g>
<!-- Node3 -->
<g id="node3" class="node">
<title>Node3</title>
<g id="a_node3"><a xlink:href="classpotentialHydrodynamics.html#acce7436c3cc8b62fe54fa61da98554f6" target="_top" xlink:title="Updates all hydrodynamic quantities at current configuration (data from systemData)">
<polygon fill="none" stroke="black" points="168,-112 168,-142 291,-142 291,-112 168,-112"/>
<text text-anchor="start" x="176" y="-130" font-family="Helvetica,sans-Serif" font-size="10.00">potentialHydrodynamics</text>
<text text-anchor="middle" x="229.5" y="-119" font-family="Helvetica,sans-Serif" font-size="10.00">::update</text>
</a>
</g>
</g>
<!-- Node2&#45;&gt;Node3 -->
<g id="edge2" class="edge">
<title>Node2&#45;&gt;Node3</title>
<path fill="none" stroke="midnightblue" d="M328.01,-141.47C315.78,-139.65 303.17,-137.78 291.24,-136.01"/>
<polygon fill="midnightblue" stroke="midnightblue" points="327.76,-144.97 338.17,-142.97 328.79,-138.04 327.76,-144.97"/>
</g>
<!-- Node4 -->
<g id="node4" class="node">
<title>Node4</title>
<g id="a_node4"><a xlink:href="classpotentialHydrodynamics.html#ae93f12dc4a892a191d52bf4754d4d99c" target="_top" xlink:title="Construct a new potential hydrodynamics object.">
<polygon fill="none" stroke="black" points="1.5,-112 1.5,-142 130.5,-142 130.5,-112 1.5,-112"/>
<text text-anchor="start" x="9.5" y="-130" font-family="Helvetica,sans-Serif" font-size="10.00">potentialHydrodynamics</text>
<text text-anchor="middle" x="66" y="-119" font-family="Helvetica,sans-Serif" font-size="10.00">::potentialHydrodynamics</text>
</a>
</g>
</g>
<!-- Node3&#45;&gt;Node4 -->
<g id="edge3" class="edge">
<title>Node3&#45;&gt;Node4</title>
<path fill="none" stroke="midnightblue" d="M157.8,-127C148.76,-127 139.55,-127 130.63,-127"/>
<polygon fill="midnightblue" stroke="midnightblue" points="157.9,-130.5 167.9,-127 157.9,-123.5 157.9,-130.5"/>
</g>
<!-- Node5&#45;&gt;Node3 -->
<g id="edge5" class="edge">
<title>Node5&#45;&gt;Node3</title>
<path fill="none" stroke="midnightblue" d="M328.01,-113.11C315.78,-114.85 303.17,-116.65 291.24,-118.35"/>
<polygon fill="midnightblue" stroke="midnightblue" points="328.76,-116.54 338.17,-111.66 327.77,-109.61 328.76,-116.54"/>
</g>
<!-- Node7 -->
<g id="node7" class="node">
<title>Node7</title>
<g id="a_node7"><a xlink:href="classsystemData.html#a3500ff682e88dc3d24c111ca3f97505a" target="_top" xlink:title="Updates all relevant rigid body motion tensors, respective gradients, and kinematic/Udwadia constrain...">
<polygon fill="none" stroke="black" points="177,-44.5 177,-63.5 282,-63.5 282,-44.5 177,-44.5"/>
<text text-anchor="middle" x="229.5" y="-51.5" font-family="Helvetica,sans-Serif" font-size="10.00">systemData::update</text>
</a>
</g>
</g>
<!-- Node6&#45;&gt;Node7 -->
<g id="edge7" class="edge">
<title>Node6&#45;&gt;Node7</title>
<path fill="none" stroke="midnightblue" d="M316.32,-54C304.63,-54 292.9,-54 282.03,-54"/>
<polygon fill="midnightblue" stroke="midnightblue" points="316.56,-57.5 326.56,-54 316.56,-50.5 316.56,-57.5"/>
</g>
<!-- Node8 -->
<g id="node8" class="node">
<title>Node8</title>
<g id="a_node8"><a xlink:href="classsystemData.html#ad2ba3455704ef6cec1aac76a417e91e9" target="_top" xlink:title="Function loads data from GSD file using GSDUtil class.">
<polygon fill="none" stroke="black" points="0,-44.5 0,-63.5 132,-63.5 132,-44.5 0,-44.5"/>
<text text-anchor="middle" x="66" y="-51.5" font-family="Helvetica,sans-Serif" font-size="10.00">systemData::initializeData</text>
</a>
</g>
</g>
<!-- Node7&#45;&gt;Node8 -->
<g id="edge8" class="edge">
<title>Node7&#45;&gt;Node8</title>
<path fill="none" stroke="midnightblue" d="M166.76,-54C155.46,-54 143.64,-54 132.25,-54"/>
<polygon fill="midnightblue" stroke="midnightblue" points="166.96,-57.5 176.96,-54 166.96,-50.5 166.96,-57.5"/>
</g>
</g>
</svg>
