<?xml version="1.0" encoding="UTF-8" standalone="no"?>
<!DOCTYPE svg PUBLIC "-//W3C//DTD SVG 1.1//EN"
 "http://www.w3.org/Graphics/SVG/1.1/DTD/svg11.dtd">
<!-- Generated by graphviz version 2.43.0 (0)
 -->
<!-- Title: TensorCast Pages: 1 -->
<svg width="698pt" height="323pt"
 viewBox="0.00 0.00 698.00 322.50" xmlns="http://www.w3.org/2000/svg" xmlns:xlink="http://www.w3.org/1999/xlink">
<g id="graph0" class="graph" transform="scale(1 1) rotate(0) translate(4 318.5)">
<title>TensorCast</title>
<!-- Node1 -->
<g id="node1" class="node">
<title>Node1</title>
<g id="a_node1"><a xlink:title="Convert Eigen::Matrix &#45;&#45;&gt; Eigen::Tensor.">
<polygon fill="#bfbfbf" stroke="black" points="623,-142.5 623,-161.5 690,-161.5 690,-142.5 623,-142.5"/>
<text text-anchor="middle" x="656.5" y="-149.5" font-family="Helvetica,sans-Serif" font-size="10.00">TensorCast</text>
</a>
</g>
</g>
<!-- Node2 -->
<g id="node2" class="node">
<title>Node2</title>
<g id="a_node2"><a xlink:href="classPotentialHydrodynamics.html#a3887d7ad9dceea28a5e9a78933016a19" target="_top" xlink:title="Calculates m_M_added">
<polygon fill="none" stroke="black" points="452,-284 452,-314 575,-314 575,-284 452,-284"/>
<text text-anchor="start" x="460" y="-302" font-family="Helvetica,sans-Serif" font-size="10.00">PotentialHydrodynamics</text>
<text text-anchor="middle" x="513.5" y="-291" font-family="Helvetica,sans-Serif" font-size="10.00">::calcAddedMassGrad</text>
</a>
</g>
</g>
<!-- Node1&#45;&gt;Node2 -->
<g id="edge1" class="edge">
<title>Node1&#45;&gt;Node2</title>
<path fill="none" stroke="midnightblue" d="M649.7,-171.38C640.64,-198.41 620.6,-247.2 587,-275 582.81,-278.47 578.11,-281.44 573.15,-283.98"/>
<polygon fill="midnightblue" stroke="midnightblue" points="653.12,-172.16 652.82,-161.57 646.45,-170.03 653.12,-172.16"/>
</g>
<!-- Node5 -->
<g id="node5" class="node">
<title>Node5</title>
<g id="a_node5"><a xlink:href="classPotentialHydrodynamics.html#a281e3e793371c6fb032d0b4871b06160" target="_top" xlink:title="Calculates m_F_hydro and m_F_hydroNoInertia">
<polygon fill="none" stroke="black" points="452,-235 452,-265 575,-265 575,-235 452,-235"/>
<text text-anchor="start" x="460" y="-253" font-family="Helvetica,sans-Serif" font-size="10.00">PotentialHydrodynamics</text>
<text text-anchor="middle" x="513.5" y="-242" font-family="Helvetica,sans-Serif" font-size="10.00">::calcHydroForces</text>
</a>
</g>
</g>
<!-- Node1&#45;&gt;Node5 -->
<g id="edge4" class="edge">
<title>Node1&#45;&gt;Node5</title>
<path fill="none" stroke="midnightblue" d="M643.05,-169.99C630.62,-186.68 610.1,-211.13 587,-226 581.76,-229.37 576,-232.32 570.09,-234.87"/>
<polygon fill="midnightblue" stroke="midnightblue" points="646.07,-171.78 649.08,-161.62 640.39,-167.68 646.07,-171.78"/>
</g>
<!-- Node6 -->
<g id="node6" class="node">
<title>Node6</title>
<g id="a_node6"><a xlink:href="classPotentialHydrodynamics.html#a166daae7d4c96b24e80d9920f566e6f5" target="_top" xlink:title="Calculates m_M_added">
<polygon fill="none" stroke="black" points="452,-186 452,-216 575,-216 575,-186 452,-186"/>
<text text-anchor="start" x="460" y="-204" font-family="Helvetica,sans-Serif" font-size="10.00">PotentialHydrodynamics</text>
<text text-anchor="middle" x="513.5" y="-193" font-family="Helvetica,sans-Serif" font-size="10.00">::calcTotalMass</text>
</a>
</g>
</g>
<!-- Node1&#45;&gt;Node6 -->
<g id="edge6" class="edge">
<title>Node1&#45;&gt;Node6</title>
<path fill="none" stroke="midnightblue" d="M620.41,-165.04C609.71,-168.95 597.89,-173.21 587,-177 578.48,-179.96 569.38,-183.04 560.59,-185.97"/>
<polygon fill="midnightblue" stroke="midnightblue" points="621.69,-168.3 629.87,-161.56 619.27,-161.73 621.69,-168.3"/>
</g>
<!-- Node7 -->
<g id="node7" class="node">
<title>Node7</title>
<g id="a_node7"><a xlink:href="classSystemData.html#a7da2011ba5d866e5338b14e8b04ace70" target="_top" xlink:title="Computes the particle D.o.F. from the body D.o.F.">
<polygon fill="none" stroke="black" points="445,-137 445,-167 582,-167 582,-137 445,-137"/>
<text text-anchor="start" x="453" y="-155" font-family="Helvetica,sans-Serif" font-size="10.00">SystemData::convertBody2</text>
<text text-anchor="middle" x="513.5" y="-144" font-family="Helvetica,sans-Serif" font-size="10.00">ParticleVelAcc</text>
</a>
</g>
</g>
<!-- Node1&#45;&gt;Node7 -->
<g id="edge8" class="edge">
<title>Node1&#45;&gt;Node7</title>
<path fill="none" stroke="midnightblue" d="M612.66,-152C602.98,-152 592.48,-152 582.06,-152"/>
<polygon fill="midnightblue" stroke="midnightblue" points="612.8,-155.5 622.8,-152 612.8,-148.5 612.8,-155.5"/>
</g>
<!-- Node11 -->
<g id="node11" class="node">
<title>Node11</title>
<g id="a_node11"><a xlink:href="classSystemData.html#a301fa1815b3b68cffc789f1824e29f5e" target="_top" xlink:title="Computes the gradients rigid body motion connectivity tensors and tensors associated with change of v...">
<polygon fill="none" stroke="black" points="440.5,-88 440.5,-118 586.5,-118 586.5,-88 440.5,-88"/>
<text text-anchor="start" x="448.5" y="-106" font-family="Helvetica,sans-Serif" font-size="10.00">SystemData::gradientChange</text>
<text text-anchor="middle" x="513.5" y="-95" font-family="Helvetica,sans-Serif" font-size="10.00">OfVariableTensors</text>
</a>
</g>
</g>
<!-- Node1&#45;&gt;Node11 -->
<g id="edge12" class="edge">
<title>Node1&#45;&gt;Node11</title>
<path fill="none" stroke="midnightblue" d="M618.68,-139.06C608.43,-135.47 597.28,-131.57 587,-128 577.69,-124.77 567.71,-121.31 558.22,-118.04"/>
<polygon fill="midnightblue" stroke="midnightblue" points="617.58,-142.39 628.18,-142.39 619.9,-135.78 617.58,-142.39"/>
</g>
<!-- Node12 -->
<g id="node12" class="node">
<title>Node12</title>
<g id="a_node12"><a xlink:href="classSystemData.html#ae08b2263f2981e57d0f12ba7881a083b" target="_top" xlink:title="Computes the rigid body motion connectivity tensors.">
<polygon fill="none" stroke="black" points="440,-39 440,-69 587,-69 587,-39 440,-39"/>
<text text-anchor="start" x="448" y="-57" font-family="Helvetica,sans-Serif" font-size="10.00">SystemData::rigidBodyMotion</text>
<text text-anchor="middle" x="513.5" y="-46" font-family="Helvetica,sans-Serif" font-size="10.00">Tensors</text>
</a>
</g>
</g>
<!-- Node1&#45;&gt;Node12 -->
<g id="edge14" class="edge">
<title>Node1&#45;&gt;Node12</title>
<path fill="none" stroke="midnightblue" d="M643.05,-134.01C630.62,-117.32 610.1,-92.87 587,-78 581.76,-74.63 576,-71.68 570.09,-69.13"/>
<polygon fill="midnightblue" stroke="midnightblue" points="640.39,-136.32 649.08,-142.38 646.07,-132.22 640.39,-136.32"/>
</g>
<!-- Node13 -->
<g id="node13" class="node">
<title>Node13</title>
<g id="a_node13"><a xlink:href="helper__eigenTensorConversion_8hpp.html#a1c806578084d178c05d1660894693538" target="_top" xlink:title=" ">
<polygon fill="none" stroke="black" points="480,-0.5 480,-19.5 547,-19.5 547,-0.5 480,-0.5"/>
<text text-anchor="middle" x="513.5" y="-7.5" font-family="Helvetica,sans-Serif" font-size="10.00">TensorCast</text>
</a>
</g>
</g>
<!-- Node1&#45;&gt;Node13 -->
<g id="edge16" class="edge">
<title>Node1&#45;&gt;Node13</title>
<path fill="none" stroke="midnightblue" d="M650.05,-132.68C641.34,-105.38 621.62,-55.84 587,-29 575.69,-20.23 560.71,-15.49 547.31,-12.93"/>
<polygon fill="midnightblue" stroke="midnightblue" points="646.71,-133.72 652.95,-142.28 653.41,-131.69 646.71,-133.72"/>
</g>
<!-- Node3 -->
<g id="node3" class="node">
<title>Node3</title>
<g id="a_node3"><a xlink:href="classPotentialHydrodynamics.html#a929a5cd3ab1afe2e78fc2a18a16c423d" target="_top" xlink:title="Updates all hydrodynamic quantities at current configuration (data from SystemData)">
<polygon fill="none" stroke="black" points="281,-235 281,-265 404,-265 404,-235 281,-235"/>
<text text-anchor="start" x="289" y="-253" font-family="Helvetica,sans-Serif" font-size="10.00">PotentialHydrodynamics</text>
<text text-anchor="middle" x="342.5" y="-242" font-family="Helvetica,sans-Serif" font-size="10.00">::update</text>
</a>
</g>
</g>
<!-- Node2&#45;&gt;Node3 -->
<g id="edge2" class="edge">
<title>Node2&#45;&gt;Node3</title>
<path fill="none" stroke="midnightblue" d="M450.78,-281.11C432.61,-275.84 412.91,-270.12 395.41,-265.05"/>
<polygon fill="midnightblue" stroke="midnightblue" points="449.84,-284.48 460.42,-283.9 451.79,-277.75 449.84,-284.48"/>
</g>
<!-- Node4 -->
<g id="node4" class="node">
<title>Node4</title>
<g id="a_node4"><a xlink:href="classPotentialHydrodynamics.html#a7ef38402d3034fd4009ded220d8438fc" target="_top" xlink:title="Construct a new potential hydrodynamics object.">
<polygon fill="none" stroke="black" points="113.5,-235 113.5,-265 242.5,-265 242.5,-235 113.5,-235"/>
<text text-anchor="start" x="121.5" y="-253" font-family="Helvetica,sans-Serif" font-size="10.00">PotentialHydrodynamics</text>
<text text-anchor="middle" x="178" y="-242" font-family="Helvetica,sans-Serif" font-size="10.00">::PotentialHydrodynamics</text>
</a>
</g>
</g>
<!-- Node3&#45;&gt;Node4 -->
<g id="edge3" class="edge">
<title>Node3&#45;&gt;Node4</title>
<path fill="none" stroke="midnightblue" d="M270.87,-250C261.45,-250 251.84,-250 242.55,-250"/>
<polygon fill="midnightblue" stroke="midnightblue" points="270.99,-253.5 280.99,-250 270.99,-246.5 270.99,-253.5"/>
</g>
<!-- Node5&#45;&gt;Node3 -->
<g id="edge5" class="edge">
<title>Node5&#45;&gt;Node3</title>
<path fill="none" stroke="midnightblue" d="M441.63,-250C429.18,-250 416.32,-250 404.18,-250"/>
<polygon fill="midnightblue" stroke="midnightblue" points="441.96,-253.5 451.96,-250 441.96,-246.5 441.96,-253.5"/>
</g>
<!-- Node6&#45;&gt;Node3 -->
<g id="edge7" class="edge">
<title>Node6&#45;&gt;Node3</title>
<path fill="none" stroke="midnightblue" d="M450.78,-218.89C432.61,-224.16 412.91,-229.88 395.41,-234.95"/>
<polygon fill="midnightblue" stroke="midnightblue" points="451.79,-222.25 460.42,-216.1 449.84,-215.52 451.79,-222.25"/>
</g>
<!-- Node8 -->
<g id="node8" class="node">
<title>Node8</title>
<g id="a_node8"><a xlink:href="classSystemData.html#aa1dc8988cbb137f2667af95ca52a709c" target="_top" xlink:title="Updates all relevant rigid body motion tensors, respective gradients, and kinematic/Udwadia constrain...">
<polygon fill="none" stroke="black" points="289,-93.5 289,-112.5 396,-112.5 396,-93.5 289,-93.5"/>
<text text-anchor="middle" x="342.5" y="-100.5" font-family="Helvetica,sans-Serif" font-size="10.00">SystemData::update</text>
</a>
</g>
</g>
<!-- Node7&#45;&gt;Node8 -->
<g id="edge9" class="edge">
<title>Node7&#45;&gt;Node8</title>
<path fill="none" stroke="midnightblue" d="M450.57,-134.04C425.4,-126.75 397.35,-118.61 376.27,-112.5"/>
<polygon fill="midnightblue" stroke="midnightblue" points="449.84,-137.48 460.42,-136.9 451.79,-130.75 449.84,-137.48"/>
</g>
<!-- Node9 -->
<g id="node9" class="node">
<title>Node9</title>
<g id="a_node9"><a xlink:href="classSystemData.html#ac3a796dc8bf1fa82ea6dec33e548924f" target="_top" xlink:title="Function loads data from GSD file using GSDUtil class.">
<polygon fill="none" stroke="black" points="111,-93.5 111,-112.5 245,-112.5 245,-93.5 111,-93.5"/>
<text text-anchor="middle" x="178" y="-100.5" font-family="Helvetica,sans-Serif" font-size="10.00">SystemData::initializeData</text>
</a>
</g>
</g>
<!-- Node8&#45;&gt;Node9 -->
<g id="edge10" class="edge">
<title>Node8&#45;&gt;Node9</title>
<path fill="none" stroke="midnightblue" d="M278.44,-103C267.53,-103 256.15,-103 245.16,-103"/>
<polygon fill="midnightblue" stroke="midnightblue" points="278.74,-106.5 288.74,-103 278.74,-99.5 278.74,-106.5"/>
</g>
<!-- Node10 -->
<g id="node10" class="node">
<title>Node10</title>
<g id="a_node10"><a xlink:href="TestSimulation_8cpp.html#a227401f331fbabbd263158efc43b3bf6" target="_top" xlink:title=" ">
<polygon fill="none" stroke="black" points="0,-93.5 0,-112.5 75,-112.5 75,-93.5 0,-93.5"/>
<text text-anchor="middle" x="37.5" y="-100.5" font-family="Helvetica,sans-Serif" font-size="10.00">TEST_CASE</text>
</a>
</g>
</g>
<!-- Node9&#45;&gt;Node10 -->
<g id="edge11" class="edge">
<title>Node9&#45;&gt;Node10</title>
<path fill="none" stroke="midnightblue" d="M100.94,-103C92.06,-103 83.33,-103 75.34,-103"/>
<polygon fill="midnightblue" stroke="midnightblue" points="101,-106.5 111,-103 101,-99.5 101,-106.5"/>
</g>
<!-- Node11&#45;&gt;Node8 -->
<g id="edge13" class="edge">
<title>Node11&#45;&gt;Node8</title>
<path fill="none" stroke="midnightblue" d="M430.22,-103C418.66,-103 407.05,-103 396.25,-103"/>
<polygon fill="midnightblue" stroke="midnightblue" points="430.34,-106.5 440.34,-103 430.34,-99.5 430.34,-106.5"/>
</g>
<!-- Node12&#45;&gt;Node8 -->
<g id="edge15" class="edge">
<title>Node12&#45;&gt;Node8</title>
<path fill="none" stroke="midnightblue" d="M450.57,-71.96C425.4,-79.25 397.35,-87.39 376.27,-93.5"/>
<polygon fill="midnightblue" stroke="midnightblue" points="451.79,-75.25 460.42,-69.1 449.84,-68.52 451.79,-75.25"/>
</g>
</g>
</svg>
