<?xml version="1.0" encoding="UTF-8" standalone="no"?>
<!DOCTYPE svg PUBLIC "-//W3C//DTD SVG 1.1//EN"
 "http://www.w3.org/Graphics/SVG/1.1/DTD/svg11.dtd">
<!-- Generated by graphviz version 2.43.0 (0)
 -->
<!-- Title: asEval Pages: 1 -->
<svg width="765pt" height="137pt"
 viewBox="0.00 0.00 765.00 137.00" xmlns="http://www.w3.org/2000/svg" xmlns:xlink="http://www.w3.org/1999/xlink">
<g id="graph0" class="graph" transform="scale(1 1) rotate(0) translate(4 133)">
<title>asEval</title>
<!-- Node1 -->
<g id="node1" class="node">
<title>Node1</title>
<g id="a_node1"><a xlink:title="Convert between Eigen::Tensor and Eigen::Matrix classes.">
<polygon fill="#bfbfbf" stroke="black" points="710,-36 710,-55 757,-55 757,-36 710,-36"/>
<text text-anchor="middle" x="733.5" y="-43" font-family="Helvetica,sans-Serif" font-size="10.00">asEval</text>
</a>
</g>
</g>
<!-- Node2 -->
<g id="node2" class="node">
<title>Node2</title>
<g id="a_node2"><a xlink:href="helper__eigenTensorConversion_8hpp.html#a556d08b55a6ad7cd703b6db06194e5cf" target="_top" xlink:title=" ">
<polygon fill="none" stroke="black" points="609,-55 609,-74 674,-74 674,-55 609,-55"/>
<text text-anchor="middle" x="641.5" y="-62" font-family="Helvetica,sans-Serif" font-size="10.00">MatrixCast</text>
</a>
</g>
</g>
<!-- Node1&#45;&gt;Node2 -->
<g id="edge1" class="edge">
<title>Node1&#45;&gt;Node2</title>
<path fill="none" stroke="midnightblue" d="M699.91,-52.38C691.48,-54.16 682.42,-56.07 674.04,-57.84"/>
<polygon fill="midnightblue" stroke="midnightblue" points="700.73,-55.78 709.79,-50.29 699.28,-48.94 700.73,-55.78"/>
</g>
<!-- Node11 -->
<g id="node11" class="node">
<title>Node11</title>
<g id="a_node11"><a xlink:href="helper__eigenTensorConversion_8hpp.html#ac872c78296e568aec10500f4e18c8f83" target="_top" xlink:title=" ">
<polygon fill="none" stroke="black" points="609,-17 609,-36 674,-36 674,-17 609,-17"/>
<text text-anchor="middle" x="641.5" y="-24" font-family="Helvetica,sans-Serif" font-size="10.00">VectorCast</text>
</a>
</g>
</g>
<!-- Node1&#45;&gt;Node11 -->
<g id="edge11" class="edge">
<title>Node1&#45;&gt;Node11</title>
<path fill="none" stroke="midnightblue" d="M699.91,-38.62C691.48,-36.84 682.42,-34.93 674.04,-33.16"/>
<polygon fill="midnightblue" stroke="midnightblue" points="699.28,-42.06 709.79,-40.71 700.73,-35.22 699.28,-42.06"/>
</g>
<!-- Node3 -->
<g id="node3" class="node">
<title>Node3</title>
<g id="a_node3"><a xlink:href="classpotentialHydrodynamics.html#ace1a595ce5a1c818ae9889e520f43fe7" target="_top" xlink:title=" ">
<polygon fill="none" stroke="black" points="444,-98.5 444,-128.5 566,-128.5 566,-98.5 444,-98.5"/>
<text text-anchor="start" x="452" y="-116.5" font-family="Helvetica,sans-Serif" font-size="10.00">potentialHydrodynamics</text>
<text text-anchor="middle" x="505" y="-105.5" font-family="Helvetica,sans-Serif" font-size="10.00">::calcBodyTensors</text>
</a>
</g>
</g>
<!-- Node2&#45;&gt;Node3 -->
<g id="edge2" class="edge">
<title>Node2&#45;&gt;Node3</title>
<path fill="none" stroke="midnightblue" d="M605.29,-77.62C594.9,-81.47 583.5,-85.68 573,-89.5 564.99,-92.42 556.43,-95.51 548.2,-98.46"/>
<polygon fill="midnightblue" stroke="midnightblue" points="606.72,-80.82 614.88,-74.06 604.29,-74.26 606.72,-80.82"/>
</g>
<!-- Node6 -->
<g id="node6" class="node">
<title>Node6</title>
<g id="a_node6"><a xlink:href="classpotentialHydrodynamics.html#a89622611b037fc10f3aacdf990c4a9f5" target="_top" xlink:title="Calculates m_F_hydro and m_F_hydroNoInertia">
<polygon fill="none" stroke="black" points="444,-49.5 444,-79.5 566,-79.5 566,-49.5 444,-49.5"/>
<text text-anchor="start" x="452" y="-67.5" font-family="Helvetica,sans-Serif" font-size="10.00">potentialHydrodynamics</text>
<text text-anchor="middle" x="505" y="-56.5" font-family="Helvetica,sans-Serif" font-size="10.00">::calcHydroForces</text>
</a>
</g>
</g>
<!-- Node2&#45;&gt;Node6 -->
<g id="edge5" class="edge">
<title>Node2&#45;&gt;Node6</title>
<path fill="none" stroke="midnightblue" d="M598.95,-64.5C588.56,-64.5 577.21,-64.5 566.12,-64.5"/>
<polygon fill="midnightblue" stroke="midnightblue" points="598.97,-68 608.97,-64.5 598.97,-61 598.97,-68"/>
</g>
<!-- Node7 -->
<g id="node7" class="node">
<title>Node7</title>
<g id="a_node7"><a xlink:href="classsystemData.html#adc3f589f2fc622293dce85c53f215823" target="_top" xlink:title="Computes the particle D.o.F. from the body D.o.F.">
<polygon fill="none" stroke="black" points="437,-0.5 437,-30.5 573,-30.5 573,-0.5 437,-0.5"/>
<text text-anchor="start" x="445" y="-18.5" font-family="Helvetica,sans-Serif" font-size="10.00">systemData::convertBody2</text>
<text text-anchor="middle" x="505" y="-7.5" font-family="Helvetica,sans-Serif" font-size="10.00">ParticleVelAcc</text>
</a>
</g>
</g>
<!-- Node2&#45;&gt;Node7 -->
<g id="edge7" class="edge">
<title>Node2&#45;&gt;Node7</title>
<path fill="none" stroke="midnightblue" d="M605.29,-51.38C594.9,-47.53 583.5,-43.32 573,-39.5 564.99,-36.58 556.43,-33.49 548.2,-30.54"/>
<polygon fill="midnightblue" stroke="midnightblue" points="604.29,-54.74 614.88,-54.94 606.72,-48.18 604.29,-54.74"/>
</g>
<!-- Node4 -->
<g id="node4" class="node">
<title>Node4</title>
<g id="a_node4"><a xlink:href="classpotentialHydrodynamics.html#aa9cd1bea38a16754f58110f1e190fb71" target="_top" xlink:title="Updates all hydrodynamic quantities at current configuration (data from systemData)">
<polygon fill="none" stroke="black" points="279,-73.5 279,-103.5 401,-103.5 401,-73.5 279,-73.5"/>
<text text-anchor="start" x="287" y="-91.5" font-family="Helvetica,sans-Serif" font-size="10.00">potentialHydrodynamics</text>
<text text-anchor="middle" x="340" y="-80.5" font-family="Helvetica,sans-Serif" font-size="10.00">::update</text>
</a>
</g>
</g>
<!-- Node3&#45;&gt;Node4 -->
<g id="edge3" class="edge">
<title>Node3&#45;&gt;Node4</title>
<path fill="none" stroke="midnightblue" d="M433.56,-102.7C422.8,-101.05 411.77,-99.35 401.26,-97.74"/>
<polygon fill="midnightblue" stroke="midnightblue" points="433.35,-106.21 443.77,-104.26 434.41,-99.29 433.35,-106.21"/>
</g>
<!-- Node5 -->
<g id="node5" class="node">
<title>Node5</title>
<g id="a_node5"><a xlink:href="classpotentialHydrodynamics.html#ae93f12dc4a892a191d52bf4754d4d99c" target="_top" xlink:title="Construct a new potential hydrodynamics object.">
<polygon fill="none" stroke="black" points="113,-73.5 113,-103.5 241,-103.5 241,-73.5 113,-73.5"/>
<text text-anchor="start" x="121" y="-91.5" font-family="Helvetica,sans-Serif" font-size="10.00">potentialHydrodynamics</text>
<text text-anchor="middle" x="177" y="-80.5" font-family="Helvetica,sans-Serif" font-size="10.00">::potentialHydrodynamics</text>
</a>
</g>
</g>
<!-- Node4&#45;&gt;Node5 -->
<g id="edge4" class="edge">
<title>Node4&#45;&gt;Node5</title>
<path fill="none" stroke="midnightblue" d="M268.44,-88.5C259.36,-88.5 250.12,-88.5 241.17,-88.5"/>
<polygon fill="midnightblue" stroke="midnightblue" points="268.59,-92 278.59,-88.5 268.59,-85 268.59,-92"/>
</g>
<!-- Node6&#45;&gt;Node4 -->
<g id="edge6" class="edge">
<title>Node6&#45;&gt;Node4</title>
<path fill="none" stroke="midnightblue" d="M433.56,-74.87C422.8,-76.46 411.77,-78.08 401.26,-79.63"/>
<polygon fill="midnightblue" stroke="midnightblue" points="434.38,-78.29 443.77,-73.37 433.36,-71.36 434.38,-78.29"/>
</g>
<!-- Node8 -->
<g id="node8" class="node">
<title>Node8</title>
<g id="a_node8"><a xlink:href="classsystemData.html#abe08e8ef40710f40f585342d24076085" target="_top" xlink:title="Updates all relevant rigid body motion tensors, respective gradients, and kinematic/Udwadia constrain...">
<polygon fill="none" stroke="black" points="287.5,-6 287.5,-25 392.5,-25 392.5,-6 287.5,-6"/>
<text text-anchor="middle" x="340" y="-13" font-family="Helvetica,sans-Serif" font-size="10.00">systemData::update</text>
</a>
</g>
</g>
<!-- Node7&#45;&gt;Node8 -->
<g id="edge8" class="edge">
<title>Node7&#45;&gt;Node8</title>
<path fill="none" stroke="midnightblue" d="M426.67,-15.5C415.13,-15.5 403.48,-15.5 392.64,-15.5"/>
<polygon fill="midnightblue" stroke="midnightblue" points="426.76,-19 436.76,-15.5 426.76,-12 426.76,-19"/>
</g>
<!-- Node9 -->
<g id="node9" class="node">
<title>Node9</title>
<g id="a_node9"><a xlink:href="classsystemData.html#ad2ba3455704ef6cec1aac76a417e91e9" target="_top" xlink:title="Function loads data from GSD file using GSDUtil class.">
<polygon fill="none" stroke="black" points="111,-6 111,-25 243,-25 243,-6 111,-6"/>
<text text-anchor="middle" x="177" y="-13" font-family="Helvetica,sans-Serif" font-size="10.00">systemData::initializeData</text>
</a>
</g>
</g>
<!-- Node8&#45;&gt;Node9 -->
<g id="edge9" class="edge">
<title>Node8&#45;&gt;Node9</title>
<path fill="none" stroke="midnightblue" d="M277.09,-15.5C265.92,-15.5 254.26,-15.5 243.01,-15.5"/>
<polygon fill="midnightblue" stroke="midnightblue" points="277.17,-19 287.17,-15.5 277.17,-12 277.17,-19"/>
</g>
<!-- Node10 -->
<g id="node10" class="node">
<title>Node10</title>
<g id="a_node10"><a xlink:href="test-simulation_8cpp.html#ad247837e3960442b6e67b555c11a84f8" target="_top" xlink:title=" ">
<polygon fill="none" stroke="black" points="0,-6 0,-25 75,-25 75,-6 0,-6"/>
<text text-anchor="middle" x="37.5" y="-13" font-family="Helvetica,sans-Serif" font-size="10.00">TEST_CASE</text>
</a>
</g>
</g>
<!-- Node9&#45;&gt;Node10 -->
<g id="edge10" class="edge">
<title>Node9&#45;&gt;Node10</title>
<path fill="none" stroke="midnightblue" d="M100.85,-15.5C92,-15.5 83.29,-15.5 75.31,-15.5"/>
<polygon fill="midnightblue" stroke="midnightblue" points="100.87,-19 110.87,-15.5 100.87,-12 100.87,-19"/>
</g>
</g>
</svg>
