<?xml version="1.0" encoding="UTF-8" standalone="no"?>
<!DOCTYPE svg PUBLIC "-//W3C//DTD SVG 1.1//EN"
 "http://www.w3.org/Graphics/SVG/1.1/DTD/svg11.dtd">
<!-- Generated by graphviz version 2.43.0 (0)
 -->
<!-- Title: getCmdLineArgumentValue Pages: 1 -->
<svg width="361pt" height="66pt"
 viewBox="0.00 0.00 361.00 66.00" xmlns="http://www.w3.org/2000/svg" xmlns:xlink="http://www.w3.org/1999/xlink">
<g id="graph0" class="graph" transform="scale(1 1) rotate(0) translate(4 62)">
<title>getCmdLineArgumentValue</title>
<!-- Node1 -->
<g id="node1" class="node">
<title>Node1</title>
<g id="a_node1"><a xlink:title=" ">
<polygon fill="#bfbfbf" stroke="black" points="0,-19.5 0,-38.5 135,-38.5 135,-19.5 0,-19.5"/>
<text text-anchor="middle" x="67.5" y="-26.5" font-family="Helvetica,sans-Serif" font-size="10.00">getCmdLineArgumentValue</text>
</a>
</g>
</g>
<!-- Node2 -->
<g id="node2" class="node">
<title>Node2</title>
<g id="a_node2"><a xlink:href="helper__math_8h.html#a2fcd5057894d92219f3d8e11e6ace2ff" target="_top" xlink:title=" ">
<polygon fill="none" stroke="black" points="207.5,-38.5 207.5,-57.5 250.5,-57.5 250.5,-38.5 207.5,-38.5"/>
<text text-anchor="middle" x="229" y="-45.5" font-family="Helvetica,sans-Serif" font-size="10.00">length</text>
</a>
</g>
</g>
<!-- Node1&#45;&gt;Node2 -->
<g id="edge1" class="edge">
<title>Node1&#45;&gt;Node2</title>
<path fill="none" stroke="midnightblue" d="M135.22,-36.95C156.71,-39.51 179.5,-42.22 197.11,-44.32"/>
<polygon fill="midnightblue" stroke="midnightblue" points="197.01,-47.83 207.35,-45.54 197.84,-40.88 197.01,-47.83"/>
</g>
<!-- Node4 -->
<g id="node4" class="node">
<title>Node4</title>
<g id="a_node4"><a xlink:href="helper__string_8h.html#ac58c822a5ef82babc6a997386ef77469" target="_top" xlink:title=" ">
<polygon fill="none" stroke="black" points="171,-0.5 171,-19.5 287,-19.5 287,-0.5 171,-0.5"/>
<text text-anchor="middle" x="229" y="-7.5" font-family="Helvetica,sans-Serif" font-size="10.00">stringRemoveDelimiter</text>
</a>
</g>
</g>
<!-- Node1&#45;&gt;Node4 -->
<g id="edge3" class="edge">
<title>Node1&#45;&gt;Node4</title>
<path fill="none" stroke="midnightblue" d="M135.22,-21.05C143.59,-20.05 152.17,-19.03 160.55,-18.03"/>
<polygon fill="midnightblue" stroke="midnightblue" points="161.15,-21.49 170.66,-16.83 160.32,-14.54 161.15,-21.49"/>
</g>
<!-- Node3 -->
<g id="node3" class="node">
<title>Node3</title>
<g id="a_node3"><a xlink:href="helper__math_8h.html#aa81053cc504f50bd3cd8b5cc6f54b666" target="_top" xlink:title=" ">
<polygon fill="none" stroke="black" points="323,-38.5 323,-57.5 353,-57.5 353,-38.5 323,-38.5"/>
<text text-anchor="middle" x="338" y="-45.5" font-family="Helvetica,sans-Serif" font-size="10.00">dot</text>
</a>
</g>
</g>
<!-- Node2&#45;&gt;Node3 -->
<g id="edge2" class="edge">
<title>Node2&#45;&gt;Node3</title>
<path fill="none" stroke="midnightblue" d="M250.63,-48C268.4,-48 294.06,-48 312.8,-48"/>
<polygon fill="midnightblue" stroke="midnightblue" points="312.92,-51.5 322.92,-48 312.92,-44.5 312.92,-51.5"/>
</g>
</g>
</svg>
