<?xml version="1.0" encoding="UTF-8" standalone="no"?>
<!DOCTYPE svg PUBLIC "-//W3C//DTD SVG 1.1//EN"
 "http://www.w3.org/Graphics/SVG/1.1/DTD/svg11.dtd">
<!-- Generated by graphviz version 2.43.0 (0)
 -->
<!-- Title: make_int3 Pages: 1 -->
<svg width="168pt" height="294pt"
 viewBox="0.00 0.00 168.00 294.00" xmlns="http://www.w3.org/2000/svg" xmlns:xlink="http://www.w3.org/1999/xlink">
<g id="graph0" class="graph" transform="scale(1 1) rotate(0) translate(4 290)">
<title>make_int3</title>
<!-- Node1 -->
<g id="node1" class="node">
<title>Node1</title>
<g id="a_node1"><a xlink:title=" ">
<polygon fill="#bfbfbf" stroke="black" points="98,-133.5 98,-152.5 160,-152.5 160,-133.5 98,-133.5"/>
<text text-anchor="middle" x="129" y="-140.5" font-family="Helvetica,sans-Serif" font-size="10.00">make_int3</text>
</a>
</g>
</g>
<!-- Node2 -->
<g id="node2" class="node">
<title>Node2</title>
<g id="a_node2"><a xlink:href="helper__math_8h.html#afe553b3ddd067e12861af3967b19f1cd" target="_top" xlink:title=" ">
<polygon fill="none" stroke="black" points="15,-266.5 15,-285.5 47,-285.5 47,-266.5 15,-266.5"/>
<text text-anchor="middle" x="31" y="-273.5" font-family="Helvetica,sans-Serif" font-size="10.00">abs</text>
</a>
</g>
</g>
<!-- Node1&#45;&gt;Node2 -->
<g id="edge1" class="edge">
<title>Node1&#45;&gt;Node2</title>
<path fill="none" stroke="midnightblue" d="M120.39,-162.04C110,-186.27 89.47,-228.42 62,-257 57.73,-261.45 52.22,-265.32 47.08,-268.38"/>
<polygon fill="midnightblue" stroke="midnightblue" points="123.73,-163.14 124.33,-152.56 117.26,-160.45 123.73,-163.14"/>
</g>
<!-- Node3 -->
<g id="node3" class="node">
<title>Node3</title>
<g id="a_node3"><a xlink:href="helper__math_8h.html#a2ad0c85491bef8c0028ddaa95c992912" target="_top" xlink:title=" ">
<polygon fill="none" stroke="black" points="9.5,-228.5 9.5,-247.5 52.5,-247.5 52.5,-228.5 9.5,-228.5"/>
<text text-anchor="middle" x="31" y="-235.5" font-family="Helvetica,sans-Serif" font-size="10.00">clamp</text>
</a>
</g>
</g>
<!-- Node1&#45;&gt;Node3 -->
<g id="edge2" class="edge">
<title>Node1&#45;&gt;Node3</title>
<path fill="none" stroke="midnightblue" d="M114.94,-160.83C102.47,-177.13 82.57,-201.31 62,-219 58.07,-222.38 53.49,-225.58 49.11,-228.37"/>
<polygon fill="midnightblue" stroke="midnightblue" points="117.85,-162.78 121.06,-152.68 112.26,-158.57 117.85,-162.78"/>
</g>
<!-- Node4 -->
<g id="node4" class="node">
<title>Node4</title>
<g id="a_node4"><a xlink:href="helper__math_8h.html#afcf55d96866f5e6d69793bc86060fdfe" target="_top" xlink:title=" ">
<polygon fill="none" stroke="black" points="0,-190.5 0,-209.5 62,-209.5 62,-190.5 0,-190.5"/>
<text text-anchor="middle" x="31" y="-197.5" font-family="Helvetica,sans-Serif" font-size="10.00">make_int3</text>
</a>
</g>
</g>
<!-- Node1&#45;&gt;Node4 -->
<g id="edge3" class="edge">
<title>Node1&#45;&gt;Node4</title>
<path fill="none" stroke="midnightblue" d="M102.7,-158.02C85.39,-168.3 62.95,-181.62 48.04,-190.47"/>
<polygon fill="midnightblue" stroke="midnightblue" points="104.9,-160.78 111.71,-152.67 101.33,-154.77 104.9,-160.78"/>
</g>
<!-- Node5 -->
<g id="node5" class="node">
<title>Node5</title>
<g id="a_node5"><a xlink:href="helper__math_8h.html#a86bb61d22c0e88f85b47d9834f0ec34b" target="_top" xlink:title=" ">
<polygon fill="none" stroke="black" points="13.5,-152.5 13.5,-171.5 48.5,-171.5 48.5,-152.5 13.5,-152.5"/>
<text text-anchor="middle" x="31" y="-159.5" font-family="Helvetica,sans-Serif" font-size="10.00">max</text>
</a>
</g>
</g>
<!-- Node1&#45;&gt;Node5 -->
<g id="edge4" class="edge">
<title>Node1&#45;&gt;Node5</title>
<path fill="none" stroke="midnightblue" d="M88.05,-150.91C74.23,-153.64 59.49,-156.56 48.6,-158.72"/>
<polygon fill="midnightblue" stroke="midnightblue" points="88.76,-154.33 97.89,-148.96 87.4,-147.47 88.76,-154.33"/>
</g>
<!-- Node6 -->
<g id="node6" class="node">
<title>Node6</title>
<g id="a_node6"><a xlink:href="helper__math_8h.html#abe4b67087a13d8e4b8fd2d1333f05212" target="_top" xlink:title=" ">
<polygon fill="none" stroke="black" points="15,-114.5 15,-133.5 47,-133.5 47,-114.5 15,-114.5"/>
<text text-anchor="middle" x="31" y="-121.5" font-family="Helvetica,sans-Serif" font-size="10.00">min</text>
</a>
</g>
</g>
<!-- Node1&#45;&gt;Node6 -->
<g id="edge5" class="edge">
<title>Node1&#45;&gt;Node6</title>
<path fill="none" stroke="midnightblue" d="M87.71,-135.03C73.41,-132.2 58.16,-129.18 47.24,-127.02"/>
<polygon fill="midnightblue" stroke="midnightblue" points="87.4,-138.53 97.89,-137.04 88.76,-131.67 87.4,-138.53"/>
</g>
<!-- Node7 -->
<g id="node7" class="node">
<title>Node7</title>
<g id="a_node7"><a xlink:href="helper__math_8h.html#ae2395fa25fedaa9f7d54d253fd41e446" target="_top" xlink:title=" ">
<polygon fill="none" stroke="black" points="3,-76.5 3,-95.5 59,-95.5 59,-76.5 3,-76.5"/>
<text text-anchor="middle" x="31" y="-83.5" font-family="Helvetica,sans-Serif" font-size="10.00">operator*</text>
</a>
</g>
</g>
<!-- Node1&#45;&gt;Node7 -->
<g id="edge6" class="edge">
<title>Node1&#45;&gt;Node7</title>
<path fill="none" stroke="midnightblue" d="M102.7,-127.98C85.39,-117.7 62.95,-104.38 48.04,-95.53"/>
<polygon fill="midnightblue" stroke="midnightblue" points="101.33,-131.23 111.71,-133.33 104.9,-125.22 101.33,-131.23"/>
</g>
<!-- Node8 -->
<g id="node8" class="node">
<title>Node8</title>
<g id="a_node8"><a xlink:href="helper__math_8h.html#ade23035ad90bdaeb84fef16038074110" target="_top" xlink:title=" ">
<polygon fill="none" stroke="black" points="2,-38.5 2,-57.5 60,-57.5 60,-38.5 2,-38.5"/>
<text text-anchor="middle" x="31" y="-45.5" font-family="Helvetica,sans-Serif" font-size="10.00">operator+</text>
</a>
</g>
</g>
<!-- Node1&#45;&gt;Node8 -->
<g id="edge7" class="edge">
<title>Node1&#45;&gt;Node8</title>
<path fill="none" stroke="midnightblue" d="M114.94,-125.17C102.47,-108.87 82.57,-84.69 62,-67 58.07,-63.62 53.49,-60.42 49.11,-57.63"/>
<polygon fill="midnightblue" stroke="midnightblue" points="112.26,-127.43 121.06,-133.32 117.85,-123.22 112.26,-127.43"/>
</g>
<!-- Node9 -->
<g id="node9" class="node">
<title>Node9</title>
<g id="a_node9"><a xlink:href="helper__math_8h.html#a26c49763a45d00cd11d802e00c52ae30" target="_top" xlink:title=" ">
<polygon fill="none" stroke="black" points="3.5,-0.5 3.5,-19.5 58.5,-19.5 58.5,-0.5 3.5,-0.5"/>
<text text-anchor="middle" x="31" y="-7.5" font-family="Helvetica,sans-Serif" font-size="10.00">operator&#45;</text>
</a>
</g>
</g>
<!-- Node1&#45;&gt;Node9 -->
<g id="edge8" class="edge">
<title>Node1&#45;&gt;Node9</title>
<path fill="none" stroke="midnightblue" d="M120.39,-123.96C110,-99.73 89.47,-57.58 62,-29 58.58,-25.44 54.37,-22.25 50.2,-19.55"/>
<polygon fill="midnightblue" stroke="midnightblue" points="117.26,-125.55 124.33,-133.44 123.73,-122.86 117.26,-125.55"/>
</g>
</g>
</svg>
