<?xml version="1.0" encoding="UTF-8" standalone="no"?>
<!DOCTYPE svg PUBLIC "-//W3C//DTD SVG 1.1//EN"
 "http://www.w3.org/Graphics/SVG/1.1/DTD/svg11.dtd">
<!-- Generated by graphviz version 2.43.0 (0)
 -->
<!-- Title: TensorCast Pages: 1 -->
<svg width="694pt" height="323pt"
 viewBox="0.00 0.00 694.00 322.50" xmlns="http://www.w3.org/2000/svg" xmlns:xlink="http://www.w3.org/1999/xlink">
<g id="graph0" class="graph" transform="scale(1 1) rotate(0) translate(4 318.5)">
<title>TensorCast</title>
<!-- Node1 -->
<g id="node1" class="node">
<title>Node1</title>
<g id="a_node1"><a xlink:title="Convert Eigen::Matrix &#45;&#45;&gt; Eigen::Tensor.">
<polygon fill="#bfbfbf" stroke="black" points="619,-142.5 619,-161.5 686,-161.5 686,-142.5 619,-142.5"/>
<text text-anchor="middle" x="652.5" y="-149.5" font-family="Helvetica,sans-Serif" font-size="10.00">TensorCast</text>
</a>
</g>
</g>
<!-- Node2 -->
<g id="node2" class="node">
<title>Node2</title>
<g id="a_node2"><a xlink:href="classpotentialHydrodynamics.html#ae78694d22e337a95daabdd0820a8be28" target="_top" xlink:title="Calculates m_M_added">
<polygon fill="none" stroke="black" points="449,-284 449,-314 571,-314 571,-284 449,-284"/>
<text text-anchor="start" x="457" y="-302" font-family="Helvetica,sans-Serif" font-size="10.00">potentialHydrodynamics</text>
<text text-anchor="middle" x="510" y="-291" font-family="Helvetica,sans-Serif" font-size="10.00">::calcAddedMassGrad</text>
</a>
</g>
</g>
<!-- Node1&#45;&gt;Node2 -->
<g id="edge1" class="edge">
<title>Node1&#45;&gt;Node2</title>
<path fill="none" stroke="midnightblue" d="M645.69,-171.37C636.62,-198.38 616.57,-247.17 583,-275 578.84,-278.45 574.17,-281.41 569.25,-283.95"/>
<polygon fill="midnightblue" stroke="midnightblue" points="649.12,-172.15 648.82,-161.56 642.45,-170.02 649.12,-172.15"/>
</g>
<!-- Node5 -->
<g id="node5" class="node">
<title>Node5</title>
<g id="a_node5"><a xlink:href="classpotentialHydrodynamics.html#a89622611b037fc10f3aacdf990c4a9f5" target="_top" xlink:title="Calculates m_F_hydro and m_F_hydroNoInertia">
<polygon fill="none" stroke="black" points="449,-235 449,-265 571,-265 571,-235 449,-235"/>
<text text-anchor="start" x="457" y="-253" font-family="Helvetica,sans-Serif" font-size="10.00">potentialHydrodynamics</text>
<text text-anchor="middle" x="510" y="-242" font-family="Helvetica,sans-Serif" font-size="10.00">::calcHydroForces</text>
</a>
</g>
</g>
<!-- Node1&#45;&gt;Node5 -->
<g id="edge4" class="edge">
<title>Node1&#45;&gt;Node5</title>
<path fill="none" stroke="midnightblue" d="M639.04,-169.98C626.61,-186.66 606.09,-211.11 583,-226 577.8,-229.36 572.08,-232.29 566.2,-234.84"/>
<polygon fill="midnightblue" stroke="midnightblue" points="642.06,-171.77 645.07,-161.61 636.38,-167.67 642.06,-171.77"/>
</g>
<!-- Node6 -->
<g id="node6" class="node">
<title>Node6</title>
<g id="a_node6"><a xlink:href="classpotentialHydrodynamics.html#a4ebdc0aa027f2a9e4f1f34bf781dffe9" target="_top" xlink:title="Calculates m_M_added">
<polygon fill="none" stroke="black" points="449,-186 449,-216 571,-216 571,-186 449,-186"/>
<text text-anchor="start" x="457" y="-204" font-family="Helvetica,sans-Serif" font-size="10.00">potentialHydrodynamics</text>
<text text-anchor="middle" x="510" y="-193" font-family="Helvetica,sans-Serif" font-size="10.00">::calcTotalMass</text>
</a>
</g>
</g>
<!-- Node1&#45;&gt;Node6 -->
<g id="edge6" class="edge">
<title>Node1&#45;&gt;Node6</title>
<path fill="none" stroke="midnightblue" d="M616.41,-165.02C605.7,-168.94 593.89,-173.2 583,-177 574.54,-179.95 565.5,-183.03 556.77,-185.96"/>
<polygon fill="midnightblue" stroke="midnightblue" points="617.68,-168.28 625.86,-161.55 615.27,-161.71 617.68,-168.28"/>
</g>
<!-- Node7 -->
<g id="node7" class="node">
<title>Node7</title>
<g id="a_node7"><a xlink:href="classsystemData.html#a2a35b86c91b3a2eb19612e6a2124a3ae" target="_top" xlink:title="Computes the particle D.o.F. from the body D.o.F.">
<polygon fill="none" stroke="black" points="442,-137 442,-167 578,-167 578,-137 442,-137"/>
<text text-anchor="start" x="450" y="-155" font-family="Helvetica,sans-Serif" font-size="10.00">systemData::convertBody2</text>
<text text-anchor="middle" x="510" y="-144" font-family="Helvetica,sans-Serif" font-size="10.00">ParticleDoF</text>
</a>
</g>
</g>
<!-- Node1&#45;&gt;Node7 -->
<g id="edge8" class="edge">
<title>Node1&#45;&gt;Node7</title>
<path fill="none" stroke="midnightblue" d="M608.74,-152C599.03,-152 588.49,-152 578.04,-152"/>
<polygon fill="midnightblue" stroke="midnightblue" points="608.91,-155.5 618.91,-152 608.91,-148.5 608.91,-155.5"/>
</g>
<!-- Node11 -->
<g id="node11" class="node">
<title>Node11</title>
<g id="a_node11"><a xlink:href="classsystemData.html#a3c41026c4b66d4f6e6e22a6398c6ced8" target="_top" xlink:title="Computes the gradients rigid body motion connectivity tensors and tensors associated with change of v...">
<polygon fill="none" stroke="black" points="438,-88 438,-118 582,-118 582,-88 438,-88"/>
<text text-anchor="start" x="446" y="-106" font-family="Helvetica,sans-Serif" font-size="10.00">systemData::gradientChange</text>
<text text-anchor="middle" x="510" y="-95" font-family="Helvetica,sans-Serif" font-size="10.00">OfVariableTensors</text>
</a>
</g>
</g>
<!-- Node1&#45;&gt;Node11 -->
<g id="edge12" class="edge">
<title>Node1&#45;&gt;Node11</title>
<path fill="none" stroke="midnightblue" d="M614.67,-139.08C604.42,-135.48 593.28,-131.59 583,-128 573.75,-124.78 563.84,-121.33 554.41,-118.05"/>
<polygon fill="midnightblue" stroke="midnightblue" points="613.58,-142.4 624.17,-142.41 615.89,-135.79 613.58,-142.4"/>
</g>
<!-- Node12 -->
<g id="node12" class="node">
<title>Node12</title>
<g id="a_node12"><a xlink:href="classsystemData.html#a05afc9e7e7423d88def51ec43ab91a33" target="_top" xlink:title="Computes the rigid body motion connectivity tensors.">
<polygon fill="none" stroke="black" points="437,-39 437,-69 583,-69 583,-39 437,-39"/>
<text text-anchor="start" x="445" y="-57" font-family="Helvetica,sans-Serif" font-size="10.00">systemData::rigidBodyMotion</text>
<text text-anchor="middle" x="510" y="-46" font-family="Helvetica,sans-Serif" font-size="10.00">Tensors</text>
</a>
</g>
</g>
<!-- Node1&#45;&gt;Node12 -->
<g id="edge14" class="edge">
<title>Node1&#45;&gt;Node12</title>
<path fill="none" stroke="midnightblue" d="M639.04,-134.02C626.61,-117.34 606.09,-92.89 583,-78 577.8,-74.64 572.08,-71.71 566.2,-69.16"/>
<polygon fill="midnightblue" stroke="midnightblue" points="636.38,-136.33 645.07,-142.39 642.06,-132.23 636.38,-136.33"/>
</g>
<!-- Node13 -->
<g id="node13" class="node">
<title>Node13</title>
<g id="a_node13"><a xlink:href="helper__eigenTensorConversion_8hpp.html#a1c806578084d178c05d1660894693538" target="_top" xlink:title=" ">
<polygon fill="none" stroke="black" points="476.5,-0.5 476.5,-19.5 543.5,-19.5 543.5,-0.5 476.5,-0.5"/>
<text text-anchor="middle" x="510" y="-7.5" font-family="Helvetica,sans-Serif" font-size="10.00">TensorCast</text>
</a>
</g>
</g>
<!-- Node1&#45;&gt;Node13 -->
<g id="edge16" class="edge">
<title>Node1&#45;&gt;Node13</title>
<path fill="none" stroke="midnightblue" d="M646.05,-132.69C637.32,-105.4 617.6,-55.87 583,-29 571.77,-20.28 556.9,-15.54 543.58,-12.98"/>
<polygon fill="midnightblue" stroke="midnightblue" points="642.7,-133.72 648.95,-142.28 649.4,-131.7 642.7,-133.72"/>
</g>
<!-- Node3 -->
<g id="node3" class="node">
<title>Node3</title>
<g id="a_node3"><a xlink:href="classpotentialHydrodynamics.html#aa9cd1bea38a16754f58110f1e190fb71" target="_top" xlink:title="Updates all hydrodynamic quantities at current configuration (data from systemData)">
<polygon fill="none" stroke="black" points="279,-235 279,-265 401,-265 401,-235 279,-235"/>
<text text-anchor="start" x="287" y="-253" font-family="Helvetica,sans-Serif" font-size="10.00">potentialHydrodynamics</text>
<text text-anchor="middle" x="340" y="-242" font-family="Helvetica,sans-Serif" font-size="10.00">::update</text>
</a>
</g>
</g>
<!-- Node2&#45;&gt;Node3 -->
<g id="edge2" class="edge">
<title>Node2&#45;&gt;Node3</title>
<path fill="none" stroke="midnightblue" d="M447.4,-281.03C429.4,-275.78 409.92,-270.1 392.61,-265.05"/>
<polygon fill="midnightblue" stroke="midnightblue" points="446.64,-284.46 457.22,-283.9 448.6,-277.74 446.64,-284.46"/>
</g>
<!-- Node4 -->
<g id="node4" class="node">
<title>Node4</title>
<g id="a_node4"><a xlink:href="classpotentialHydrodynamics.html#ae93f12dc4a892a191d52bf4754d4d99c" target="_top" xlink:title="Construct a new potential hydrodynamics object.">
<polygon fill="none" stroke="black" points="113,-235 113,-265 241,-265 241,-235 113,-235"/>
<text text-anchor="start" x="121" y="-253" font-family="Helvetica,sans-Serif" font-size="10.00">potentialHydrodynamics</text>
<text text-anchor="middle" x="177" y="-242" font-family="Helvetica,sans-Serif" font-size="10.00">::potentialHydrodynamics</text>
</a>
</g>
</g>
<!-- Node3&#45;&gt;Node4 -->
<g id="edge3" class="edge">
<title>Node3&#45;&gt;Node4</title>
<path fill="none" stroke="midnightblue" d="M268.44,-250C259.36,-250 250.12,-250 241.17,-250"/>
<polygon fill="midnightblue" stroke="midnightblue" points="268.59,-253.5 278.59,-250 268.59,-246.5 268.59,-253.5"/>
</g>
<!-- Node5&#45;&gt;Node3 -->
<g id="edge5" class="edge">
<title>Node5&#45;&gt;Node3</title>
<path fill="none" stroke="midnightblue" d="M438.48,-250C426.03,-250 413.17,-250 401.04,-250"/>
<polygon fill="midnightblue" stroke="midnightblue" points="438.82,-253.5 448.82,-250 438.82,-246.5 438.82,-253.5"/>
</g>
<!-- Node6&#45;&gt;Node3 -->
<g id="edge7" class="edge">
<title>Node6&#45;&gt;Node3</title>
<path fill="none" stroke="midnightblue" d="M447.4,-218.97C429.4,-224.22 409.92,-229.9 392.61,-234.95"/>
<polygon fill="midnightblue" stroke="midnightblue" points="448.6,-222.26 457.22,-216.1 446.64,-215.54 448.6,-222.26"/>
</g>
<!-- Node8 -->
<g id="node8" class="node">
<title>Node8</title>
<g id="a_node8"><a xlink:href="classsystemData.html#abe08e8ef40710f40f585342d24076085" target="_top" xlink:title="Updates all relevant rigid body motion tensors, respective gradients, and kinematic/Udwadia constrain...">
<polygon fill="none" stroke="black" points="287.5,-93.5 287.5,-112.5 392.5,-112.5 392.5,-93.5 287.5,-93.5"/>
<text text-anchor="middle" x="340" y="-100.5" font-family="Helvetica,sans-Serif" font-size="10.00">systemData::update</text>
</a>
</g>
</g>
<!-- Node7&#45;&gt;Node8 -->
<g id="edge9" class="edge">
<title>Node7&#45;&gt;Node8</title>
<path fill="none" stroke="midnightblue" d="M447.43,-134.04C422.41,-126.75 394.53,-118.61 373.58,-112.5"/>
<polygon fill="midnightblue" stroke="midnightblue" points="446.64,-137.46 457.22,-136.9 448.6,-130.74 446.64,-137.46"/>
</g>
<!-- Node9 -->
<g id="node9" class="node">
<title>Node9</title>
<g id="a_node9"><a xlink:href="classsystemData.html#ad2ba3455704ef6cec1aac76a417e91e9" target="_top" xlink:title="Function loads data from GSD file using GSDUtil class.">
<polygon fill="none" stroke="black" points="111,-93.5 111,-112.5 243,-112.5 243,-93.5 111,-93.5"/>
<text text-anchor="middle" x="177" y="-100.5" font-family="Helvetica,sans-Serif" font-size="10.00">systemData::initializeData</text>
</a>
</g>
</g>
<!-- Node8&#45;&gt;Node9 -->
<g id="edge10" class="edge">
<title>Node8&#45;&gt;Node9</title>
<path fill="none" stroke="midnightblue" d="M277.09,-103C265.92,-103 254.26,-103 243.01,-103"/>
<polygon fill="midnightblue" stroke="midnightblue" points="277.17,-106.5 287.17,-103 277.17,-99.5 277.17,-106.5"/>
</g>
<!-- Node10 -->
<g id="node10" class="node">
<title>Node10</title>
<g id="a_node10"><a xlink:href="testsSimulationBuild_8cpp.html#ac2b102ba50512565940601db33c64cf2" target="_top" xlink:title=" ">
<polygon fill="none" stroke="black" points="0,-93.5 0,-112.5 75,-112.5 75,-93.5 0,-93.5"/>
<text text-anchor="middle" x="37.5" y="-100.5" font-family="Helvetica,sans-Serif" font-size="10.00">TEST_CASE</text>
</a>
</g>
</g>
<!-- Node9&#45;&gt;Node10 -->
<g id="edge11" class="edge">
<title>Node9&#45;&gt;Node10</title>
<path fill="none" stroke="midnightblue" d="M100.85,-103C92,-103 83.29,-103 75.31,-103"/>
<polygon fill="midnightblue" stroke="midnightblue" points="100.87,-106.5 110.87,-103 100.87,-99.5 100.87,-106.5"/>
</g>
<!-- Node11&#45;&gt;Node8 -->
<g id="edge13" class="edge">
<title>Node11&#45;&gt;Node8</title>
<path fill="none" stroke="midnightblue" d="M427.42,-103C415.61,-103 403.74,-103 392.74,-103"/>
<polygon fill="midnightblue" stroke="midnightblue" points="427.75,-106.5 437.75,-103 427.75,-99.5 427.75,-106.5"/>
</g>
<!-- Node12&#45;&gt;Node8 -->
<g id="edge15" class="edge">
<title>Node12&#45;&gt;Node8</title>
<path fill="none" stroke="midnightblue" d="M447.43,-71.96C422.41,-79.25 394.53,-87.39 373.58,-93.5"/>
<polygon fill="midnightblue" stroke="midnightblue" points="448.6,-75.26 457.22,-69.1 446.64,-68.54 448.6,-75.26"/>
</g>
</g>
</svg>
