<?xml version="1.0" encoding="UTF-8" standalone="no"?>
<!DOCTYPE svg PUBLIC "-//W3C//DTD SVG 1.1//EN"
 "http://www.w3.org/Graphics/SVG/1.1/DTD/svg11.dtd">
<!-- Generated by graphviz version 2.49.1 (20210923.0004)
 -->
<!-- Title: make_float2 Pages: 1 -->
<svg width="382pt" height="502pt"
 viewBox="0.00 0.00 382.00 502.00" xmlns="http://www.w3.org/2000/svg" xmlns:xlink="http://www.w3.org/1999/xlink">
<g id="graph0" class="graph" transform="scale(1 1) rotate(0) translate(4 498)">
<title>make_float2</title>
<!-- Node1 -->
<g id="node1" class="node">
<title>Node1</title>
<g id="a_node1"><a xlink:title=" ">
<polygon fill="#bfbfbf" stroke="black" points="303,-218.5 303,-237.5 374,-237.5 374,-218.5 303,-218.5"/>
<text text-anchor="middle" x="338.5" y="-225.5" font-family="Helvetica,sans-Serif" font-size="10.00">make_float2</text>
</a>
</g>
</g>
<!-- Node1&#45;&gt;Node1 -->
<g id="edge16" class="edge">
<title>Node1&#45;&gt;Node1</title>
<path fill="none" stroke="midnightblue" d="M357.76,-247.4C356.47,-252.31 350.05,-256 338.5,-256 320.02,-256 314.67,-246.57 322.47,-237.76"/>
<polygon fill="midnightblue" stroke="midnightblue" points="361.02,-246.13 354.53,-237.76 354.39,-248.35 361.02,-246.13"/>
</g>
<!-- Node2 -->
<g id="node2" class="node">
<title>Node2</title>
<g id="a_node2"><a xlink:href="helper__math_8h.html#a96f3477b0c986285c1e8961a91c03318" target="_top" xlink:title=" ">
<polygon fill="none" stroke="black" points="211.5,-472.5 211.5,-491.5 254.5,-491.5 254.5,-472.5 211.5,-472.5"/>
<text text-anchor="middle" x="233" y="-479.5" font-family="Helvetica,sans-Serif" font-size="10.00">clamp</text>
</a>
</g>
</g>
<!-- Node1&#45;&gt;Node2 -->
<g id="edge1" class="edge">
<title>Node1&#45;&gt;Node2</title>
<path fill="none" stroke="midnightblue" d="M336.41,-247.75C333.07,-291.2 319.68,-396.49 267,-463 263.72,-467.15 259.26,-470.56 254.69,-473.29"/>
<polygon fill="midnightblue" stroke="midnightblue" points="339.91,-247.87 337.09,-237.66 332.92,-247.4 339.91,-247.87"/>
</g>
<!-- Node3 -->
<g id="node3" class="node">
<title>Node3</title>
<g id="a_node3"><a xlink:href="helper__math_8h.html#aad6a2701675cd2a4bc1b1da7b79948ae" target="_top" xlink:title=" ">
<polygon fill="none" stroke="black" points="215.5,-416.5 215.5,-435.5 250.5,-435.5 250.5,-416.5 215.5,-416.5"/>
<text text-anchor="middle" x="233" y="-423.5" font-family="Helvetica,sans-Serif" font-size="10.00">fabs</text>
</a>
</g>
</g>
<!-- Node1&#45;&gt;Node3 -->
<g id="edge2" class="edge">
<title>Node1&#45;&gt;Node3</title>
<path fill="none" stroke="midnightblue" d="M334.17,-247.76C327.29,-283.31 308.54,-358.85 267,-407 262.6,-412.11 256.46,-416.16 250.68,-419.19"/>
<polygon fill="midnightblue" stroke="midnightblue" points="337.65,-248.17 336,-237.7 330.76,-246.91 337.65,-248.17"/>
</g>
<!-- Node7 -->
<g id="node7" class="node">
<title>Node7</title>
<g id="a_node7"><a xlink:href="helper__math_8h.html#adf6628c6a1c008e290b58ae210f051d6" target="_top" xlink:title=" ">
<polygon fill="none" stroke="black" points="213.5,-360.5 213.5,-379.5 252.5,-379.5 252.5,-360.5 213.5,-360.5"/>
<text text-anchor="middle" x="233" y="-367.5" font-family="Helvetica,sans-Serif" font-size="10.00">floorf</text>
</a>
</g>
</g>
<!-- Node1&#45;&gt;Node7 -->
<g id="edge7" class="edge">
<title>Node1&#45;&gt;Node7</title>
<path fill="none" stroke="midnightblue" d="M329.08,-247.08C317.54,-271.79 295.03,-315.32 267,-346 262.03,-351.44 255.65,-356.42 249.83,-360.42"/>
<polygon fill="midnightblue" stroke="midnightblue" points="332.38,-248.28 333.34,-237.73 326.01,-245.38 332.38,-248.28"/>
</g>
<!-- Node9 -->
<g id="node9" class="node">
<title>Node9</title>
<g id="a_node9"><a xlink:href="helper__math_8h.html#ac26eb0c8f1fa7b38ea491354d953453b" target="_top" xlink:title=" ">
<polygon fill="none" stroke="black" points="0,-341.5 0,-360.5 36,-360.5 36,-341.5 0,-341.5"/>
<text text-anchor="middle" x="18" y="-348.5" font-family="Helvetica,sans-Serif" font-size="10.00">fracf</text>
</a>
</g>
</g>
<!-- Node1&#45;&gt;Node9 -->
<g id="edge15" class="edge">
<title>Node1&#45;&gt;Node9</title>
<path fill="none" stroke="midnightblue" d="M327.73,-246.37C316.08,-266.29 294.67,-297.33 267,-313 227.2,-335.53 85.81,-346.67 36.29,-349.94"/>
<polygon fill="midnightblue" stroke="midnightblue" points="330.8,-248.03 332.64,-237.6 324.7,-244.61 330.8,-248.03"/>
</g>
<!-- Node10 -->
<g id="node10" class="node">
<title>Node10</title>
<g id="a_node10"><a xlink:href="helper__math_8h.html#a0ac776761f333de82e2477b1d7c3d54f" target="_top" xlink:title=" ">
<polygon fill="none" stroke="black" points="212.5,-284.5 212.5,-303.5 253.5,-303.5 253.5,-284.5 212.5,-284.5"/>
<text text-anchor="middle" x="233" y="-291.5" font-family="Helvetica,sans-Serif" font-size="10.00">fmaxf</text>
</a>
</g>
</g>
<!-- Node1&#45;&gt;Node10 -->
<g id="edge11" class="edge">
<title>Node1&#45;&gt;Node10</title>
<path fill="none" stroke="midnightblue" d="M315.28,-243.36C301.52,-252.73 283.41,-264.82 267,-275 261.94,-278.14 256.36,-281.42 251.25,-284.35"/>
<polygon fill="midnightblue" stroke="midnightblue" points="317.36,-246.17 323.63,-237.64 313.4,-240.4 317.36,-246.17"/>
</g>
<!-- Node11 -->
<g id="node11" class="node">
<title>Node11</title>
<g id="a_node11"><a xlink:href="helper__math_8h.html#a273d356570807ab4546038f5792077b2" target="_top" xlink:title=" ">
<polygon fill="none" stroke="black" points="214,-246.5 214,-265.5 252,-265.5 252,-246.5 214,-246.5"/>
<text text-anchor="middle" x="233" y="-253.5" font-family="Helvetica,sans-Serif" font-size="10.00">fminf</text>
</a>
</g>
</g>
<!-- Node1&#45;&gt;Node11 -->
<g id="edge12" class="edge">
<title>Node1&#45;&gt;Node11</title>
<path fill="none" stroke="midnightblue" d="M293,-240.04C278.67,-243.92 263.58,-248 252.25,-251.06"/>
<polygon fill="midnightblue" stroke="midnightblue" points="294.01,-243.39 302.75,-237.4 292.18,-236.63 294.01,-243.39"/>
</g>
<!-- Node12 -->
<g id="node12" class="node">
<title>Node12</title>
<g id="a_node12"><a xlink:href="helper__math_8h.html#a49ad5cf537dac10aa125288115afb051" target="_top" xlink:title=" ">
<polygon fill="none" stroke="black" points="212,-190.5 212,-209.5 254,-209.5 254,-190.5 212,-190.5"/>
<text text-anchor="middle" x="233" y="-197.5" font-family="Helvetica,sans-Serif" font-size="10.00">fmodf</text>
</a>
</g>
</g>
<!-- Node1&#45;&gt;Node12 -->
<g id="edge13" class="edge">
<title>Node1&#45;&gt;Node12</title>
<path fill="none" stroke="midnightblue" d="M293.02,-215.97C279.42,-212.29 265.13,-208.42 254.02,-205.42"/>
<polygon fill="midnightblue" stroke="midnightblue" points="292.18,-219.37 302.75,-218.6 294.01,-212.61 292.18,-219.37"/>
</g>
<!-- Node13 -->
<g id="node13" class="node">
<title>Node13</title>
<g id="a_node13"><a xlink:href="helper__math_8h.html#a564af5e6ea1d02d67303e46b66322968" target="_top" xlink:title=" ">
<polygon fill="none" stroke="black" points="204,-152.5 204,-171.5 262,-171.5 262,-152.5 204,-152.5"/>
<text text-anchor="middle" x="233" y="-159.5" font-family="Helvetica,sans-Serif" font-size="10.00">operator*</text>
</a>
</g>
</g>
<!-- Node1&#45;&gt;Node13 -->
<g id="edge17" class="edge">
<title>Node1&#45;&gt;Node13</title>
<path fill="none" stroke="midnightblue" d="M315.28,-212.64C301.52,-203.27 283.41,-191.18 267,-181 261.94,-177.86 256.36,-174.58 251.25,-171.65"/>
<polygon fill="midnightblue" stroke="midnightblue" points="313.4,-215.6 323.63,-218.36 317.36,-209.83 313.4,-215.6"/>
</g>
<!-- Node14 -->
<g id="node14" class="node">
<title>Node14</title>
<g id="a_node14"><a xlink:href="helper__math_8h.html#aabe4a4caf16da937cee9a5e2d2e6d123" target="_top" xlink:title=" ">
<polygon fill="none" stroke="black" points="203,-114.5 203,-133.5 263,-133.5 263,-114.5 203,-114.5"/>
<text text-anchor="middle" x="233" y="-121.5" font-family="Helvetica,sans-Serif" font-size="10.00">operator+</text>
</a>
</g>
</g>
<!-- Node1&#45;&gt;Node14 -->
<g id="edge18" class="edge">
<title>Node1&#45;&gt;Node14</title>
<path fill="none" stroke="midnightblue" d="M325.49,-210.02C312.59,-191.63 290.7,-162.98 267,-143 262.86,-139.51 257.98,-136.3 253.27,-133.56"/>
<polygon fill="midnightblue" stroke="midnightblue" points="322.69,-212.12 331.23,-218.38 328.46,-208.16 322.69,-212.12"/>
</g>
<!-- Node15 -->
<g id="node15" class="node">
<title>Node15</title>
<g id="a_node15"><a xlink:href="helper__math_8h.html#a7bb7255dfcfbae1cd128711f6fd076fd" target="_top" xlink:title=" ">
<polygon fill="none" stroke="black" points="204.5,-76.5 204.5,-95.5 261.5,-95.5 261.5,-76.5 204.5,-76.5"/>
<text text-anchor="middle" x="233" y="-83.5" font-family="Helvetica,sans-Serif" font-size="10.00">operator&#45;</text>
</a>
</g>
</g>
<!-- Node1&#45;&gt;Node15 -->
<g id="edge19" class="edge">
<title>Node1&#45;&gt;Node15</title>
<path fill="none" stroke="midnightblue" d="M330.23,-208.75C319.61,-182.65 297.72,-135.78 267,-105 263.45,-101.44 259.1,-98.32 254.74,-95.7"/>
<polygon fill="midnightblue" stroke="midnightblue" points="327.06,-210.23 333.98,-218.26 333.57,-207.67 327.06,-210.23"/>
</g>
<!-- Node16 -->
<g id="node16" class="node">
<title>Node16</title>
<g id="a_node16"><a xlink:href="helper__math_8h.html#a2778db976af87b1e1e3222b716806de7" target="_top" xlink:title=" ">
<polygon fill="none" stroke="black" points="204.5,-38.5 204.5,-57.5 261.5,-57.5 261.5,-38.5 204.5,-38.5"/>
<text text-anchor="middle" x="233" y="-45.5" font-family="Helvetica,sans-Serif" font-size="10.00">operator/</text>
</a>
</g>
</g>
<!-- Node1&#45;&gt;Node16 -->
<g id="edge20" class="edge">
<title>Node1&#45;&gt;Node16</title>
<path fill="none" stroke="midnightblue" d="M333.07,-207.98C324.94,-175.15 304.89,-109.29 267,-67 263.74,-63.36 259.6,-60.23 255.37,-57.63"/>
<polygon fill="midnightblue" stroke="midnightblue" points="329.76,-209.2 335.46,-218.13 336.58,-207.59 329.76,-209.2"/>
</g>
<!-- Node17 -->
<g id="node17" class="node">
<title>Node17</title>
<g id="a_node17"><a xlink:href="helper__math_8h.html#a49db91bc8d6d57f347ca87dc1c70e2de" target="_top" xlink:title=" ">
<polygon fill="none" stroke="black" points="199,-0.5 199,-19.5 267,-19.5 267,-0.5 199,-0.5"/>
<text text-anchor="middle" x="233" y="-7.5" font-family="Helvetica,sans-Serif" font-size="10.00">smoothstep</text>
</a>
</g>
</g>
<!-- Node1&#45;&gt;Node17 -->
<g id="edge21" class="edge">
<title>Node1&#45;&gt;Node17</title>
<path fill="none" stroke="midnightblue" d="M335.09,-208.17C329.5,-169.63 312.47,-83.6 267,-29 263.95,-25.34 260.01,-22.24 255.92,-19.67"/>
<polygon fill="midnightblue" stroke="midnightblue" points="331.63,-208.68 336.43,-218.12 338.57,-207.74 331.63,-208.68"/>
</g>
<!-- Node3&#45;&gt;Node3 -->
<g id="edge4" class="edge">
<title>Node3&#45;&gt;Node3</title>
<path fill="none" stroke="midnightblue" d="M252.26,-445.4C250.97,-450.31 244.55,-454 233,-454 214.52,-454 209.17,-444.57 216.97,-435.76"/>
<polygon fill="midnightblue" stroke="midnightblue" points="255.52,-444.13 249.03,-435.76 248.89,-446.35 255.52,-444.13"/>
</g>
<!-- Node4 -->
<g id="node4" class="node">
<title>Node4</title>
<g id="a_node4"><a xlink:href="helper__cusolver_8h.html#acc115ad8f91197d469e02b12a5219c24" target="_top" xlink:title=" ">
<polygon fill="none" stroke="black" points="72,-474.5 72,-493.5 163,-493.5 163,-474.5 72,-474.5"/>
<text text-anchor="middle" x="117.5" y="-481.5" font-family="Helvetica,sans-Serif" font-size="10.00">csr_mat_norminf</text>
</a>
</g>
</g>
<!-- Node3&#45;&gt;Node4 -->
<g id="edge3" class="edge">
<title>Node3&#45;&gt;Node4</title>
<path fill="none" stroke="midnightblue" d="M207.29,-440.85C194.29,-448.43 177.99,-457.59 163,-465 156.37,-468.28 149.04,-471.54 142.28,-474.42"/>
<polygon fill="midnightblue" stroke="midnightblue" points="209.26,-443.75 216.1,-435.65 205.71,-437.72 209.26,-443.75"/>
</g>
<!-- Node5 -->
<g id="node5" class="node">
<title>Node5</title>
<g id="a_node5"><a xlink:href="helper__cusolver_8h.html#a66066542513544b6881c45e677b8f92e" target="_top" xlink:title=" ">
<polygon fill="none" stroke="black" points="81.5,-436.5 81.5,-455.5 153.5,-455.5 153.5,-436.5 81.5,-436.5"/>
<text text-anchor="middle" x="117.5" y="-443.5" font-family="Helvetica,sans-Serif" font-size="10.00">mat_norminf</text>
</a>
</g>
</g>
<!-- Node3&#45;&gt;Node5 -->
<g id="edge5" class="edge">
<title>Node3&#45;&gt;Node5</title>
<path fill="none" stroke="midnightblue" d="M205.32,-430.7C189.89,-433.42 170.29,-436.87 153.62,-439.81"/>
<polygon fill="midnightblue" stroke="midnightblue" points="206.01,-434.13 215.25,-428.95 204.8,-427.24 206.01,-434.13"/>
</g>
<!-- Node6 -->
<g id="node6" class="node">
<title>Node6</title>
<g id="a_node6"><a xlink:href="helper__cusolver_8h.html#a259616a7c0fc746e639c531cd68f32e4" target="_top" xlink:title=" ">
<polygon fill="none" stroke="black" points="82,-398.5 82,-417.5 153,-417.5 153,-398.5 82,-398.5"/>
<text text-anchor="middle" x="117.5" y="-405.5" font-family="Helvetica,sans-Serif" font-size="10.00">vec_norminf</text>
</a>
</g>
</g>
<!-- Node3&#45;&gt;Node6 -->
<g id="edge6" class="edge">
<title>Node3&#45;&gt;Node6</title>
<path fill="none" stroke="midnightblue" d="M205.24,-421.76C189.68,-419.29 169.89,-416.15 153.15,-413.5"/>
<polygon fill="midnightblue" stroke="midnightblue" points="204.83,-425.23 215.25,-423.34 205.92,-418.32 204.83,-425.23"/>
</g>
<!-- Node7&#45;&gt;Node7 -->
<g id="edge8" class="edge">
<title>Node7&#45;&gt;Node7</title>
<path fill="none" stroke="midnightblue" d="M252.26,-389.4C250.97,-394.31 244.55,-398 233,-398 214.52,-398 209.17,-388.57 216.97,-379.76"/>
<polygon fill="midnightblue" stroke="midnightblue" points="255.52,-388.13 249.03,-379.76 248.89,-390.35 255.52,-388.13"/>
</g>
<!-- Node8 -->
<g id="node8" class="node">
<title>Node8</title>
<g id="a_node8"><a xlink:href="helper__math_8h.html#aa8a9d57950bb3ca3835bece91188dbf4" target="_top" xlink:title=" ">
<polygon fill="none" stroke="black" points="99.5,-360.5 99.5,-379.5 135.5,-379.5 135.5,-360.5 99.5,-360.5"/>
<text text-anchor="middle" x="117.5" y="-367.5" font-family="Helvetica,sans-Serif" font-size="10.00">fracf</text>
</a>
</g>
</g>
<!-- Node7&#45;&gt;Node8 -->
<g id="edge9" class="edge">
<title>Node7&#45;&gt;Node8</title>
<path fill="none" stroke="midnightblue" d="M203.16,-370C181.89,-370 153.66,-370 135.78,-370"/>
<polygon fill="midnightblue" stroke="midnightblue" points="203.26,-373.5 213.26,-370 203.26,-366.5 203.26,-373.5"/>
</g>
<!-- Node8&#45;&gt;Node9 -->
<g id="edge10" class="edge">
<title>Node8&#45;&gt;Node9</title>
<path fill="none" stroke="midnightblue" d="M89.16,-364.67C72.21,-361.37 50.93,-357.22 36.28,-354.37"/>
<polygon fill="midnightblue" stroke="midnightblue" points="88.58,-368.13 99.07,-366.6 89.92,-361.25 88.58,-368.13"/>
</g>
<!-- Node12&#45;&gt;Node12 -->
<g id="edge14" class="edge">
<title>Node12&#45;&gt;Node12</title>
<path fill="none" stroke="midnightblue" d="M252.26,-219.4C250.97,-224.31 244.55,-228 233,-228 214.52,-228 209.17,-218.57 216.97,-209.76"/>
<polygon fill="midnightblue" stroke="midnightblue" points="255.52,-218.13 249.03,-209.76 248.89,-220.35 255.52,-218.13"/>
</g>
</g>
</svg>
