<?xml version="1.0" encoding="UTF-8" standalone="no"?>
<!DOCTYPE svg PUBLIC "-//W3C//DTD SVG 1.1//EN"
 "http://www.w3.org/Graphics/SVG/1.1/DTD/svg11.dtd">
<!-- Generated by graphviz version 2.43.0 (0)
 -->
<!-- Title: src/helpers/eigen/helper_eigenTensorConversion.hpp Pages: 1 -->
<svg width="919pt" height="374pt"
 viewBox="0.00 0.00 919.28 374.00" xmlns="http://www.w3.org/2000/svg" xmlns:xlink="http://www.w3.org/1999/xlink">
<g id="graph0" class="graph" transform="scale(1 1) rotate(0) translate(4 370)">
<title>src/helpers/eigen/helper_eigenTensorConversion.hpp</title>
<!-- Node1 -->
<g id="node1" class="node">
<title>Node1</title>
<g id="a_node1"><a xlink:title=" ">
<polygon fill="#bfbfbf" stroke="black" points="131.82,-335.5 131.82,-365.5 274.82,-365.5 274.82,-335.5 131.82,-335.5"/>
<text text-anchor="start" x="139.82" y="-353.5" font-family="Helvetica,sans-Serif" font-size="10.00">src/helpers/eigen/helper</text>
<text text-anchor="middle" x="203.32" y="-342.5" font-family="Helvetica,sans-Serif" font-size="10.00">_eigenTensorConversion.hpp</text>
</a>
</g>
</g>
<!-- Node2 -->
<g id="node2" class="node">
<title>Node2</title>
<g id="a_node2"><a xlink:href="potentialHydrodynamics_8hpp.html" target="_top" xlink:title=" ">
<polygon fill="none" stroke="black" points="196.82,-207 196.82,-226 383.82,-226 383.82,-207 196.82,-207"/>
<text text-anchor="middle" x="290.32" y="-214" font-family="Helvetica,sans-Serif" font-size="10.00">src/forces/potentialHydrodynamics.hpp</text>
</a>
</g>
</g>
<!-- Node1&#45;&gt;Node2 -->
<g id="edge1" class="edge">
<title>Node1&#45;&gt;Node2</title>
<path fill="none" stroke="midnightblue" d="M218.24,-326.87C237.85,-297.12 271.37,-246.26 284.66,-226.1"/>
<polygon fill="midnightblue" stroke="midnightblue" points="215.21,-325.1 212.63,-335.37 221.06,-328.95 215.21,-325.1"/>
</g>
<!-- Node4 -->
<g id="node4" class="node">
<title>Node4</title>
<g id="a_node4"><a xlink:href="rungeKutta4_8hpp.html" target="_top" xlink:title=" ">
<polygon fill="none" stroke="black" points="25.82,-140 25.82,-159 178.82,-159 178.82,-140 25.82,-140"/>
<text text-anchor="middle" x="102.32" y="-147" font-family="Helvetica,sans-Serif" font-size="10.00">src/integrators/rungeKutta4.hpp</text>
</a>
</g>
</g>
<!-- Node1&#45;&gt;Node4 -->
<g id="edge10" class="edge">
<title>Node1&#45;&gt;Node4</title>
<path fill="none" stroke="midnightblue" d="M191.21,-326.54C178.79,-302.92 158.98,-265 142.32,-232 128.97,-205.55 113.66,-173.99 106.46,-159.1"/>
<polygon fill="midnightblue" stroke="midnightblue" points="188.14,-328.23 195.9,-335.45 194.34,-324.97 188.14,-328.23"/>
</g>
<!-- Node6 -->
<g id="node6" class="node">
<title>Node6</title>
<g id="a_node6"><a xlink:href="engine_8hpp.html" target="_top" xlink:title=" ">
<polygon fill="none" stroke="black" points="372.82,-67.5 372.82,-97.5 487.82,-97.5 487.82,-67.5 372.82,-67.5"/>
<text text-anchor="start" x="380.82" y="-85.5" font-family="Helvetica,sans-Serif" font-size="10.00">src/simulation_system</text>
<text text-anchor="middle" x="430.32" y="-74.5" font-family="Helvetica,sans-Serif" font-size="10.00">/engine.hpp</text>
</a>
</g>
</g>
<!-- Node1&#45;&gt;Node6 -->
<g id="edge11" class="edge">
<title>Node1&#45;&gt;Node6</title>
<path fill="none" stroke="midnightblue" d="M164.83,-330.52C93.26,-292.86 -47.47,-206.05 16.32,-134 39.54,-107.78 264.19,-92.34 372.5,-86.37"/>
<polygon fill="midnightblue" stroke="midnightblue" points="163.54,-333.8 174.02,-335.3 166.76,-327.58 163.54,-333.8"/>
</g>
<!-- Node10 -->
<g id="node10" class="node">
<title>Node10</title>
<g id="a_node10"><a xlink:href="systemData_8hpp.html" target="_top" xlink:title=" ">
<polygon fill="none" stroke="black" points="530.82,-268.5 530.82,-298.5 645.82,-298.5 645.82,-268.5 530.82,-268.5"/>
<text text-anchor="start" x="538.82" y="-286.5" font-family="Helvetica,sans-Serif" font-size="10.00">src/simulation_system</text>
<text text-anchor="middle" x="588.32" y="-275.5" font-family="Helvetica,sans-Serif" font-size="10.00">/systemData.hpp</text>
</a>
</g>
</g>
<!-- Node1&#45;&gt;Node10 -->
<g id="edge12" class="edge">
<title>Node1&#45;&gt;Node10</title>
<path fill="none" stroke="midnightblue" d="M285.02,-335.71C358.79,-323.25 465.49,-305.24 530.69,-294.23"/>
<polygon fill="midnightblue" stroke="midnightblue" points="284.11,-332.31 274.84,-337.43 285.28,-339.21 284.11,-332.31"/>
</g>
<!-- Node3 -->
<g id="node3" class="node">
<title>Node3</title>
<g id="a_node3"><a xlink:href="potentialHydrodynamics_8cpp.html" target="_top" xlink:title=" ">
<polygon fill="none" stroke="black" points="196.82,-140 196.82,-159 383.82,-159 383.82,-140 196.82,-140"/>
<text text-anchor="middle" x="290.32" y="-147" font-family="Helvetica,sans-Serif" font-size="10.00">src/forces/potentialHydrodynamics.cpp</text>
</a>
</g>
</g>
<!-- Node2&#45;&gt;Node3 -->
<g id="edge2" class="edge">
<title>Node2&#45;&gt;Node3</title>
<path fill="none" stroke="midnightblue" d="M290.32,-196.54C290.32,-184.17 290.32,-168.62 290.32,-159.13"/>
<polygon fill="midnightblue" stroke="midnightblue" points="286.82,-196.73 290.32,-206.73 293.82,-196.73 286.82,-196.73"/>
</g>
<!-- Node2&#45;&gt;Node4 -->
<g id="edge3" class="edge">
<title>Node2&#45;&gt;Node4</title>
<path fill="none" stroke="midnightblue" d="M255.43,-203.44C218.14,-190.54 159.95,-170.42 127.09,-159.06"/>
<polygon fill="midnightblue" stroke="midnightblue" points="254.76,-206.91 265.36,-206.87 257.05,-200.29 254.76,-206.91"/>
</g>
<!-- Node2&#45;&gt;Node6 -->
<g id="edge9" class="edge">
<title>Node2&#45;&gt;Node6</title>
<path fill="none" stroke="midnightblue" d="M329.92,-203.43C350.95,-195.36 375.96,-182.89 393.32,-165 412.05,-145.71 422.36,-115.27 427.08,-97.56"/>
<polygon fill="midnightblue" stroke="midnightblue" points="328.48,-200.23 320.28,-206.94 330.87,-206.81 328.48,-200.23"/>
</g>
<!-- Node5 -->
<g id="node5" class="node">
<title>Node5</title>
<g id="a_node5"><a xlink:href="rungeKutta4_8cpp.html" target="_top" xlink:title=" ">
<polygon fill="none" stroke="black" points="25.82,-73 25.82,-92 178.82,-92 178.82,-73 25.82,-73"/>
<text text-anchor="middle" x="102.32" y="-80" font-family="Helvetica,sans-Serif" font-size="10.00">src/integrators/rungeKutta4.cpp</text>
</a>
</g>
</g>
<!-- Node4&#45;&gt;Node5 -->
<g id="edge4" class="edge">
<title>Node4&#45;&gt;Node5</title>
<path fill="none" stroke="midnightblue" d="M102.32,-129.54C102.32,-117.17 102.32,-101.62 102.32,-92.13"/>
<polygon fill="midnightblue" stroke="midnightblue" points="98.82,-129.73 102.32,-139.73 105.82,-129.73 98.82,-129.73"/>
</g>
<!-- Node4&#45;&gt;Node6 -->
<g id="edge5" class="edge">
<title>Node4&#45;&gt;Node6</title>
<path fill="none" stroke="midnightblue" d="M155.5,-137.96C215.07,-126.16 311.3,-107.09 372.65,-94.93"/>
<polygon fill="midnightblue" stroke="midnightblue" points="154.67,-134.56 145.54,-139.94 156.03,-141.42 154.67,-134.56"/>
</g>
<!-- Node7 -->
<g id="node7" class="node">
<title>Node7</title>
<g id="a_node7"><a xlink:href="main_8cpp.html" target="_top" xlink:title=" ">
<polygon fill="none" stroke="black" points="837.82,-6 837.82,-25 910.82,-25 910.82,-6 837.82,-6"/>
<text text-anchor="middle" x="874.32" y="-13" font-family="Helvetica,sans-Serif" font-size="10.00">src/main.cpp</text>
</a>
</g>
</g>
<!-- Node6&#45;&gt;Node7 -->
<g id="edge6" class="edge">
<title>Node6&#45;&gt;Node7</title>
<path fill="none" stroke="midnightblue" d="M498,-71.59C593.1,-57.67 762.98,-32.8 837.53,-21.89"/>
<polygon fill="midnightblue" stroke="midnightblue" points="497.3,-68.16 487.91,-73.07 498.31,-75.08 497.3,-68.16"/>
</g>
<!-- Node8 -->
<g id="node8" class="node">
<title>Node8</title>
<g id="a_node8"><a xlink:href="engine_8cpp.html" target="_top" xlink:title=" ">
<polygon fill="none" stroke="black" points="372.82,-0.5 372.82,-30.5 487.82,-30.5 487.82,-0.5 372.82,-0.5"/>
<text text-anchor="start" x="380.82" y="-18.5" font-family="Helvetica,sans-Serif" font-size="10.00">src/simulation_system</text>
<text text-anchor="middle" x="430.32" y="-7.5" font-family="Helvetica,sans-Serif" font-size="10.00">/engine.cpp</text>
</a>
</g>
</g>
<!-- Node6&#45;&gt;Node8 -->
<g id="edge7" class="edge">
<title>Node6&#45;&gt;Node8</title>
<path fill="none" stroke="midnightblue" d="M430.32,-57.11C430.32,-48.15 430.32,-38.32 430.32,-30.58"/>
<polygon fill="midnightblue" stroke="midnightblue" points="426.82,-57.4 430.32,-67.4 433.82,-57.4 426.82,-57.4"/>
</g>
<!-- Node9 -->
<g id="node9" class="node">
<title>Node9</title>
<g id="a_node9"><a xlink:href="test-simulation_8cpp.html" target="_top" xlink:title=" ">
<polygon fill="none" stroke="black" points="635.82,-6 635.82,-25 754.82,-25 754.82,-6 635.82,-6"/>
<text text-anchor="middle" x="695.32" y="-13" font-family="Helvetica,sans-Serif" font-size="10.00">test/test&#45;simulation.cpp</text>
</a>
</g>
</g>
<!-- Node6&#45;&gt;Node9 -->
<g id="edge8" class="edge">
<title>Node6&#45;&gt;Node9</title>
<path fill="none" stroke="midnightblue" d="M497.31,-65.07C549.28,-52.32 619.21,-35.17 660.55,-25.03"/>
<polygon fill="midnightblue" stroke="midnightblue" points="496.38,-61.69 487.5,-67.48 498.04,-68.49 496.38,-61.69"/>
</g>
<!-- Node10&#45;&gt;Node2 -->
<g id="edge17" class="edge">
<title>Node10&#45;&gt;Node2</title>
<path fill="none" stroke="midnightblue" d="M520.52,-267.71C461.49,-254.84 377.98,-236.62 329.45,-226.03"/>
<polygon fill="midnightblue" stroke="midnightblue" points="520,-271.18 530.51,-269.89 521.49,-264.34 520,-271.18"/>
</g>
<!-- Node10&#45;&gt;Node4 -->
<g id="edge18" class="edge">
<title>Node10&#45;&gt;Node4</title>
<path fill="none" stroke="midnightblue" d="M520.33,-279.02C422.01,-273.14 245.61,-259.11 188.32,-232 152.07,-214.84 121.15,-176.53 108.47,-159.25"/>
<polygon fill="midnightblue" stroke="midnightblue" points="520.28,-282.53 530.47,-279.62 520.69,-275.54 520.28,-282.53"/>
</g>
<!-- Node10&#45;&gt;Node6 -->
<g id="edge19" class="edge">
<title>Node10&#45;&gt;Node6</title>
<path fill="none" stroke="midnightblue" d="M521.05,-271.71C496.6,-264.45 470.92,-252.31 454.32,-232 421.93,-192.37 425.07,-126.38 428.32,-97.62"/>
<polygon fill="midnightblue" stroke="midnightblue" points="520.13,-275.09 530.7,-274.36 521.98,-268.34 520.13,-275.09"/>
</g>
<!-- Node10&#45;&gt;Node7 -->
<g id="edge13" class="edge">
<title>Node10&#45;&gt;Node7</title>
<path fill="none" stroke="midnightblue" d="M656.39,-280.79C735.07,-277.21 857.48,-266.14 886.32,-232 939.04,-169.6 893.27,-57.2 878.52,-25.21"/>
<polygon fill="midnightblue" stroke="midnightblue" points="655.91,-277.31 646.07,-281.23 656.21,-284.3 655.91,-277.31"/>
</g>
<!-- Node10&#45;&gt;Node9 -->
<g id="edge21" class="edge">
<title>Node10&#45;&gt;Node9</title>
<path fill="none" stroke="midnightblue" d="M655.89,-279.75C728.89,-275.2 838.29,-263.22 864.32,-232 892.21,-198.54 884.5,-172.6 864.32,-134 833.7,-75.41 759.08,-40.14 720.04,-25.08"/>
<polygon fill="midnightblue" stroke="midnightblue" points="655.62,-276.26 645.85,-280.35 656.03,-283.25 655.62,-276.26"/>
</g>
<!-- Node11 -->
<g id="node11" class="node">
<title>Node11</title>
<g id="a_node11"><a xlink:href="GSDUtil_8hpp.html" target="_top" xlink:title=" ">
<polygon fill="none" stroke="black" points="595.82,-207 595.82,-226 718.82,-226 718.82,-207 595.82,-207"/>
<text text-anchor="middle" x="657.32" y="-214" font-family="Helvetica,sans-Serif" font-size="10.00">src/data_io/GSDUtil.hpp</text>
</a>
</g>
</g>
<!-- Node10&#45;&gt;Node11 -->
<g id="edge14" class="edge">
<title>Node10&#45;&gt;Node11</title>
<path fill="none" stroke="midnightblue" d="M604.76,-261C616.55,-249.13 632.04,-235.05 643.32,-226.19"/>
<polygon fill="midnightblue" stroke="midnightblue" points="602.04,-258.77 597.62,-268.4 607.08,-263.63 602.04,-258.77"/>
</g>
<!-- Node13 -->
<g id="node13" class="node">
<title>Node13</title>
<g id="a_node13"><a xlink:href="systemData_8cpp.html" target="_top" xlink:title=" ">
<polygon fill="none" stroke="black" points="462.82,-201.5 462.82,-231.5 577.82,-231.5 577.82,-201.5 462.82,-201.5"/>
<text text-anchor="start" x="470.82" y="-219.5" font-family="Helvetica,sans-Serif" font-size="10.00">src/simulation_system</text>
<text text-anchor="middle" x="520.32" y="-208.5" font-family="Helvetica,sans-Serif" font-size="10.00">/systemData.cpp</text>
</a>
</g>
</g>
<!-- Node10&#45;&gt;Node13 -->
<g id="edge20" class="edge">
<title>Node10&#45;&gt;Node13</title>
<path fill="none" stroke="midnightblue" d="M566.16,-261.31C555.96,-251.56 544.13,-240.26 535.05,-231.58"/>
<polygon fill="midnightblue" stroke="midnightblue" points="563.92,-264.02 573.57,-268.4 568.76,-258.96 563.92,-264.02"/>
</g>
<!-- Node14 -->
<g id="node14" class="node">
<title>Node14</title>
<g id="a_node14"><a xlink:href="testSystemData_8hpp.html" target="_top" xlink:title=" ">
<polygon fill="none" stroke="black" points="737.32,-201.5 737.32,-231.5 855.32,-231.5 855.32,-201.5 737.32,-201.5"/>
<text text-anchor="start" x="745.32" y="-219.5" font-family="Helvetica,sans-Serif" font-size="10.00">test/simulation_system</text>
<text text-anchor="middle" x="796.32" y="-208.5" font-family="Helvetica,sans-Serif" font-size="10.00">/testSystemData.hpp</text>
</a>
</g>
</g>
<!-- Node10&#45;&gt;Node14 -->
<g id="edge22" class="edge">
<title>Node10&#45;&gt;Node14</title>
<path fill="none" stroke="midnightblue" d="M642.9,-265.44C676.62,-254.91 719.36,-241.55 751.17,-231.61"/>
<polygon fill="midnightblue" stroke="midnightblue" points="641.7,-262.15 633.2,-268.48 643.79,-268.83 641.7,-262.15"/>
</g>
<!-- Node11&#45;&gt;Node10 -->
<g id="edge16" class="edge">
<title>Node11&#45;&gt;Node10</title>
<path fill="none" stroke="midnightblue" d="M646.13,-233.62C635.98,-244.3 621.18,-258.16 608.97,-268.4"/>
<polygon fill="midnightblue" stroke="midnightblue" points="648.74,-235.95 652.87,-226.19 643.56,-231.25 648.74,-235.95"/>
</g>
<!-- Node12 -->
<g id="node12" class="node">
<title>Node12</title>
<g id="a_node12"><a xlink:href="GSDUtil_8cpp.html" target="_top" xlink:title=" ">
<polygon fill="none" stroke="black" points="477.82,-140 477.82,-159 600.82,-159 600.82,-140 477.82,-140"/>
<text text-anchor="middle" x="539.32" y="-147" font-family="Helvetica,sans-Serif" font-size="10.00">src/data_io/GSDUtil.cpp</text>
</a>
</g>
</g>
<!-- Node11&#45;&gt;Node12 -->
<g id="edge15" class="edge">
<title>Node11&#45;&gt;Node12</title>
<path fill="none" stroke="midnightblue" d="M632.43,-201.79C609.04,-188.9 574.77,-170.02 554.99,-159.13"/>
<polygon fill="midnightblue" stroke="midnightblue" points="630.96,-204.97 641.41,-206.73 634.34,-198.84 630.96,-204.97"/>
</g>
<!-- Node15 -->
<g id="node15" class="node">
<title>Node15</title>
<g id="a_node15"><a xlink:href="test-simulation__system_8cpp.html" target="_top" xlink:title=" ">
<polygon fill="none" stroke="black" points="619.32,-134.5 619.32,-164.5 719.32,-164.5 719.32,-134.5 619.32,-134.5"/>
<text text-anchor="start" x="627.32" y="-152.5" font-family="Helvetica,sans-Serif" font-size="10.00">test/test&#45;simulation</text>
<text text-anchor="middle" x="669.32" y="-141.5" font-family="Helvetica,sans-Serif" font-size="10.00">_system.cpp</text>
</a>
</g>
</g>
<!-- Node14&#45;&gt;Node15 -->
<g id="edge23" class="edge">
<title>Node14&#45;&gt;Node15</title>
<path fill="none" stroke="midnightblue" d="M759.62,-196.71C739.59,-186.46 715.2,-173.98 696.83,-164.58"/>
<polygon fill="midnightblue" stroke="midnightblue" points="758.27,-199.96 768.77,-201.4 761.46,-193.72 758.27,-199.96"/>
</g>
<!-- Node16 -->
<g id="node16" class="node">
<title>Node16</title>
<g id="a_node16"><a xlink:href="testSystemData_8cpp.html" target="_top" xlink:title=" ">
<polygon fill="none" stroke="black" points="737.32,-134.5 737.32,-164.5 855.32,-164.5 855.32,-134.5 737.32,-134.5"/>
<text text-anchor="start" x="745.32" y="-152.5" font-family="Helvetica,sans-Serif" font-size="10.00">test/simulation_system</text>
<text text-anchor="middle" x="796.32" y="-141.5" font-family="Helvetica,sans-Serif" font-size="10.00">/testSystemData.cpp</text>
</a>
</g>
</g>
<!-- Node14&#45;&gt;Node16 -->
<g id="edge24" class="edge">
<title>Node14&#45;&gt;Node16</title>
<path fill="none" stroke="midnightblue" d="M796.32,-191.11C796.32,-182.15 796.32,-172.32 796.32,-164.58"/>
<polygon fill="midnightblue" stroke="midnightblue" points="792.82,-191.4 796.32,-201.4 799.82,-191.4 792.82,-191.4"/>
</g>
</g>
</svg>
