<?xml version="1.0" encoding="UTF-8" standalone="no"?>
<!DOCTYPE svg PUBLIC "-//W3C//DTD SVG 1.1//EN"
 "http://www.w3.org/Graphics/SVG/1.1/DTD/svg11.dtd">
<!-- Generated by graphviz version 2.43.0 (0)
 -->
<!-- Title: normalize Pages: 1 -->
<svg width="142pt" height="66pt"
 viewBox="0.00 0.00 142.00 66.00" xmlns="http://www.w3.org/2000/svg" xmlns:xlink="http://www.w3.org/1999/xlink">
<g id="graph0" class="graph" transform="scale(1 1) rotate(0) translate(4 62)">
<title>normalize</title>
<!-- Node1 -->
<g id="node1" class="node">
<title>Node1</title>
<g id="a_node1"><a xlink:title=" ">
<polygon fill="#bfbfbf" stroke="black" points="0,-19.5 0,-38.5 59,-38.5 59,-19.5 0,-19.5"/>
<text text-anchor="middle" x="29.5" y="-26.5" font-family="Helvetica,sans-Serif" font-size="10.00">normalize</text>
</a>
</g>
</g>
<!-- Node2 -->
<g id="node2" class="node">
<title>Node2</title>
<g id="a_node2"><a xlink:href="helper__math_8h.html#aa81053cc504f50bd3cd8b5cc6f54b666" target="_top" xlink:title=" ">
<polygon fill="none" stroke="black" points="99.5,-38.5 99.5,-57.5 129.5,-57.5 129.5,-38.5 99.5,-38.5"/>
<text text-anchor="middle" x="114.5" y="-45.5" font-family="Helvetica,sans-Serif" font-size="10.00">dot</text>
</a>
</g>
</g>
<!-- Node1&#45;&gt;Node2 -->
<g id="edge1" class="edge">
<title>Node1&#45;&gt;Node2</title>
<path fill="none" stroke="midnightblue" d="M59.06,-35.54C68.88,-37.78 79.76,-40.28 89.2,-42.44"/>
<polygon fill="midnightblue" stroke="midnightblue" points="88.58,-45.89 99.11,-44.71 90.15,-39.06 88.58,-45.89"/>
</g>
<!-- Node3 -->
<g id="node3" class="node">
<title>Node3</title>
<g id="a_node3"><a xlink:href="helper__math_8h.html#a03dd2c47cd23a00d16e39bfb75a2e6fe" target="_top" xlink:title=" ">
<polygon fill="none" stroke="black" points="95,-0.5 95,-19.5 134,-19.5 134,-0.5 95,-0.5"/>
<text text-anchor="middle" x="114.5" y="-7.5" font-family="Helvetica,sans-Serif" font-size="10.00">rsqrtf</text>
</a>
</g>
</g>
<!-- Node1&#45;&gt;Node3 -->
<g id="edge2" class="edge">
<title>Node1&#45;&gt;Node3</title>
<path fill="none" stroke="midnightblue" d="M59.06,-22.46C67.37,-20.56 76.45,-18.48 84.77,-16.58"/>
<polygon fill="midnightblue" stroke="midnightblue" points="85.82,-19.93 94.79,-14.28 84.26,-13.1 85.82,-19.93"/>
</g>
</g>
</svg>
