<?xml version="1.0" encoding="UTF-8" standalone="no"?>
<!DOCTYPE svg PUBLIC "-//W3C//DTD SVG 1.1//EN"
 "http://www.w3.org/Graphics/SVG/1.1/DTD/svg11.dtd">
<!-- Generated by graphviz version 2.43.0 (0)
 -->
<!-- Title: make_uint2 Pages: 1 -->
<svg width="178pt" height="256pt"
 viewBox="0.00 0.00 178.00 256.00" xmlns="http://www.w3.org/2000/svg" xmlns:xlink="http://www.w3.org/1999/xlink">
<g id="graph0" class="graph" transform="scale(1 1) rotate(0) translate(4 252)">
<title>make_uint2</title>
<!-- Node1 -->
<g id="node1" class="node">
<title>Node1</title>
<g id="a_node1"><a xlink:title=" ">
<polygon fill="#bfbfbf" stroke="black" points="103,-114.5 103,-133.5 170,-133.5 170,-114.5 103,-114.5"/>
<text text-anchor="middle" x="136.5" y="-121.5" font-family="Helvetica,sans-Serif" font-size="10.00">make_uint2</text>
</a>
</g>
</g>
<!-- Node2 -->
<g id="node2" class="node">
<title>Node2</title>
<g id="a_node2"><a xlink:href="helper__math_8h.html#a138484df38165472bb41682c66484b7f" target="_top" xlink:title=" ">
<polygon fill="none" stroke="black" points="12,-228.5 12,-247.5 55,-247.5 55,-228.5 12,-228.5"/>
<text text-anchor="middle" x="33.5" y="-235.5" font-family="Helvetica,sans-Serif" font-size="10.00">clamp</text>
</a>
</g>
</g>
<!-- Node1&#45;&gt;Node2 -->
<g id="edge1" class="edge">
<title>Node1&#45;&gt;Node2</title>
<path fill="none" stroke="midnightblue" d="M125.29,-142.6C113.33,-163.15 91.96,-196.32 67,-219 63.13,-222.52 58.51,-225.69 53.97,-228.39"/>
<polygon fill="midnightblue" stroke="midnightblue" points="128.49,-144.06 130.37,-133.63 122.4,-140.61 128.49,-144.06"/>
</g>
<!-- Node3 -->
<g id="node3" class="node">
<title>Node3</title>
<g id="a_node3"><a xlink:href="helper__math_8h.html#abbc2000421b607c0fffb193de779957b" target="_top" xlink:title=" ">
<polygon fill="none" stroke="black" points="0,-190.5 0,-209.5 67,-209.5 67,-190.5 0,-190.5"/>
<text text-anchor="middle" x="33.5" y="-197.5" font-family="Helvetica,sans-Serif" font-size="10.00">make_uint2</text>
</a>
</g>
</g>
<!-- Node1&#45;&gt;Node3 -->
<g id="edge2" class="edge">
<title>Node1&#45;&gt;Node3</title>
<path fill="none" stroke="midnightblue" d="M117.2,-140.65C103.77,-152.51 84.83,-168.5 67,-181 62.29,-184.3 56.98,-187.58 52.03,-190.46"/>
<polygon fill="midnightblue" stroke="midnightblue" points="119.67,-143.14 124.79,-133.86 115,-137.92 119.67,-143.14"/>
</g>
<!-- Node4 -->
<g id="node4" class="node">
<title>Node4</title>
<g id="a_node4"><a xlink:href="helper__math_8h.html#ab3930c0956d728e3848e3bc6b369ec58" target="_top" xlink:title=" ">
<polygon fill="none" stroke="black" points="16,-152.5 16,-171.5 51,-171.5 51,-152.5 16,-152.5"/>
<text text-anchor="middle" x="33.5" y="-159.5" font-family="Helvetica,sans-Serif" font-size="10.00">max</text>
</a>
</g>
</g>
<!-- Node1&#45;&gt;Node4 -->
<g id="edge3" class="edge">
<title>Node1&#45;&gt;Node4</title>
<path fill="none" stroke="midnightblue" d="M100.51,-137.17C83.76,-143.47 64.48,-150.72 51.11,-155.75"/>
<polygon fill="midnightblue" stroke="midnightblue" points="101.89,-140.39 110.01,-133.59 99.42,-133.83 101.89,-140.39"/>
</g>
<!-- Node5 -->
<g id="node5" class="node">
<title>Node5</title>
<g id="a_node5"><a xlink:href="helper__math_8h.html#adee4157b656ec731b83abe9389e9f054" target="_top" xlink:title=" ">
<polygon fill="none" stroke="black" points="17.5,-114.5 17.5,-133.5 49.5,-133.5 49.5,-114.5 17.5,-114.5"/>
<text text-anchor="middle" x="33.5" y="-121.5" font-family="Helvetica,sans-Serif" font-size="10.00">min</text>
</a>
</g>
</g>
<!-- Node1&#45;&gt;Node5 -->
<g id="edge4" class="edge">
<title>Node1&#45;&gt;Node5</title>
<path fill="none" stroke="midnightblue" d="M92.64,-124C77.37,-124 61.14,-124 49.72,-124"/>
<polygon fill="midnightblue" stroke="midnightblue" points="92.99,-127.5 102.99,-124 92.99,-120.5 92.99,-127.5"/>
</g>
<!-- Node6 -->
<g id="node6" class="node">
<title>Node6</title>
<g id="a_node6"><a xlink:href="helper__math_8h.html#ae340fa5e9807f9eca945fd9551b6f26c" target="_top" xlink:title=" ">
<polygon fill="none" stroke="black" points="5.5,-76.5 5.5,-95.5 61.5,-95.5 61.5,-76.5 5.5,-76.5"/>
<text text-anchor="middle" x="33.5" y="-83.5" font-family="Helvetica,sans-Serif" font-size="10.00">operator*</text>
</a>
</g>
</g>
<!-- Node1&#45;&gt;Node6 -->
<g id="edge5" class="edge">
<title>Node1&#45;&gt;Node6</title>
<path fill="none" stroke="midnightblue" d="M100.63,-110.88C87.28,-105.86 72.3,-100.22 59.98,-95.59"/>
<polygon fill="midnightblue" stroke="midnightblue" points="99.42,-114.17 110.01,-114.41 101.89,-107.61 99.42,-114.17"/>
</g>
<!-- Node7 -->
<g id="node7" class="node">
<title>Node7</title>
<g id="a_node7"><a xlink:href="helper__math_8h.html#afac48af87e5962ea3d6417d181472ffb" target="_top" xlink:title=" ">
<polygon fill="none" stroke="black" points="4.5,-38.5 4.5,-57.5 62.5,-57.5 62.5,-38.5 4.5,-38.5"/>
<text text-anchor="middle" x="33.5" y="-45.5" font-family="Helvetica,sans-Serif" font-size="10.00">operator+</text>
</a>
</g>
</g>
<!-- Node1&#45;&gt;Node7 -->
<g id="edge6" class="edge">
<title>Node1&#45;&gt;Node7</title>
<path fill="none" stroke="midnightblue" d="M117.2,-107.35C103.77,-95.49 84.83,-79.5 67,-67 62.29,-63.7 56.98,-60.42 52.03,-57.54"/>
<polygon fill="midnightblue" stroke="midnightblue" points="115,-110.08 124.79,-114.14 119.67,-104.86 115,-110.08"/>
</g>
<!-- Node8 -->
<g id="node8" class="node">
<title>Node8</title>
<g id="a_node8"><a xlink:href="helper__math_8h.html#a5eff670232c718087a9066549273f601" target="_top" xlink:title=" ">
<polygon fill="none" stroke="black" points="6,-0.5 6,-19.5 61,-19.5 61,-0.5 6,-0.5"/>
<text text-anchor="middle" x="33.5" y="-7.5" font-family="Helvetica,sans-Serif" font-size="10.00">operator&#45;</text>
</a>
</g>
</g>
<!-- Node1&#45;&gt;Node8 -->
<g id="edge7" class="edge">
<title>Node1&#45;&gt;Node8</title>
<path fill="none" stroke="midnightblue" d="M125.29,-105.4C113.33,-84.85 91.96,-51.68 67,-29 63.13,-25.48 58.51,-22.31 53.97,-19.61"/>
<polygon fill="midnightblue" stroke="midnightblue" points="122.4,-107.39 130.37,-114.37 128.49,-103.94 122.4,-107.39"/>
</g>
</g>
</svg>
