<?xml version="1.0" encoding="UTF-8" standalone="no"?>
<!DOCTYPE svg PUBLIC "-//W3C//DTD SVG 1.1//EN"
 "http://www.w3.org/Graphics/SVG/1.1/DTD/svg11.dtd">
<!-- Generated by graphviz version 2.49.1 (20210923.0004)
 -->
<!-- Title: max Pages: 1 -->
<svg width="142pt" height="84pt"
 viewBox="0.00 0.00 142.00 84.00" xmlns="http://www.w3.org/2000/svg" xmlns:xlink="http://www.w3.org/1999/xlink">
<g id="graph0" class="graph" transform="scale(1 1) rotate(0) translate(4 80)">
<title>max</title>
<!-- Node1 -->
<g id="node1" class="node">
<title>Node1</title>
<g id="a_node1"><a xlink:title=" ">
<polygon fill="#bfbfbf" stroke="black" points="0,-19.5 0,-38.5 35,-38.5 35,-19.5 0,-19.5"/>
<text text-anchor="middle" x="17.5" y="-26.5" font-family="Helvetica,sans-Serif" font-size="10.00">max</text>
</a>
</g>
</g>
<!-- Node2 -->
<g id="node2" class="node">
<title>Node2</title>
<g id="a_node2"><a xlink:href="helper__math_8h.html#a0438caa49958ffd7b60a6cd81bb7c4c0" target="_top" xlink:title=" ">
<polygon fill="none" stroke="black" points="71,-38.5 71,-57.5 134,-57.5 134,-38.5 71,-38.5"/>
<text text-anchor="middle" x="102.5" y="-45.5" font-family="Helvetica,sans-Serif" font-size="10.00">make_int4</text>
</a>
</g>
</g>
<!-- Node1&#45;&gt;Node2 -->
<g id="edge1" class="edge">
<title>Node1&#45;&gt;Node2</title>
<path fill="none" stroke="midnightblue" d="M35.3,-32.84C42.81,-34.56 52.02,-36.67 61.16,-38.77"/>
<polygon fill="midnightblue" stroke="midnightblue" points="60.43,-42.19 70.96,-41.01 62,-35.37 60.43,-42.19"/>
</g>
<!-- Node3 -->
<g id="node3" class="node">
<title>Node3</title>
<g id="a_node3"><a xlink:href="helper__math_8h.html#af082905f7eac6d03e92015146bbc1925" target="_top" xlink:title=" ">
<polygon fill="none" stroke="black" points="85,-0.5 85,-19.5 120,-19.5 120,-0.5 85,-0.5"/>
<text text-anchor="middle" x="102.5" y="-7.5" font-family="Helvetica,sans-Serif" font-size="10.00">max</text>
</a>
</g>
</g>
<!-- Node1&#45;&gt;Node3 -->
<g id="edge3" class="edge">
<title>Node1&#45;&gt;Node3</title>
<path fill="none" stroke="midnightblue" d="M35.3,-25.16C46.66,-22.55 61.91,-19.06 74.9,-16.09"/>
<polygon fill="midnightblue" stroke="midnightblue" points="75.76,-19.48 84.73,-13.84 74.2,-12.66 75.76,-19.48"/>
</g>
<!-- Node2&#45;&gt;Node2 -->
<g id="edge2" class="edge">
<title>Node2&#45;&gt;Node2</title>
<path fill="none" stroke="midnightblue" d="M89.55,-57.76C83.25,-66.57 87.57,-76 102.5,-76 111.6,-76 116.75,-72.5 117.97,-67.77"/>
<polygon fill="midnightblue" stroke="midnightblue" points="121.28,-66.6 115.45,-57.76 114.5,-68.31 121.28,-66.6"/>
</g>
</g>
</svg>
