<?xml version="1.0" encoding="UTF-8" standalone="no"?>
<!DOCTYPE svg PUBLIC "-//W3C//DTD SVG 1.1//EN"
 "http://www.w3.org/Graphics/SVG/1.1/DTD/svg11.dtd">
<!-- Generated by graphviz version 2.43.0 (0)
 -->
<!-- Title: make_int2 Pages: 1 -->
<svg width="765pt" height="316pt"
 viewBox="0.00 0.00 765.00 316.00" xmlns="http://www.w3.org/2000/svg" xmlns:xlink="http://www.w3.org/1999/xlink">
<g id="graph0" class="graph" transform="scale(1 1) rotate(0) translate(4 312)">
<title>make_int2</title>
<!-- Node1 -->
<g id="node1" class="node">
<title>Node1</title>
<g id="a_node1"><a xlink:title=" ">
<polygon fill="#bfbfbf" stroke="black" points="695,-133.5 695,-152.5 757,-152.5 757,-133.5 695,-133.5"/>
<text text-anchor="middle" x="726" y="-140.5" font-family="Helvetica,sans-Serif" font-size="10.00">make_int2</text>
</a>
</g>
</g>
<!-- Node2 -->
<g id="node2" class="node">
<title>Node2</title>
<g id="a_node2"><a xlink:href="helper__math_8h.html#ae4378072f9d836b0d4770a1514db2be3" target="_top" xlink:title=" ">
<polygon fill="none" stroke="black" points="612,-266.5 612,-285.5 644,-285.5 644,-266.5 612,-266.5"/>
<text text-anchor="middle" x="628" y="-273.5" font-family="Helvetica,sans-Serif" font-size="10.00">abs</text>
</a>
</g>
</g>
<!-- Node1&#45;&gt;Node2 -->
<g id="edge1" class="edge">
<title>Node1&#45;&gt;Node2</title>
<path fill="none" stroke="midnightblue" d="M717.39,-162.04C707,-186.27 686.47,-228.42 659,-257 654.73,-261.45 649.22,-265.32 644.08,-268.38"/>
<polygon fill="midnightblue" stroke="midnightblue" points="720.73,-163.14 721.33,-152.56 714.26,-160.45 720.73,-163.14"/>
</g>
<!-- Node8 -->
<g id="node8" class="node">
<title>Node8</title>
<g id="a_node8"><a xlink:href="helper__math_8h.html#ad1f08ef2aabcda2e2aca45d40fbc3397" target="_top" xlink:title=" ">
<polygon fill="none" stroke="black" points="606.5,-228.5 606.5,-247.5 649.5,-247.5 649.5,-228.5 606.5,-228.5"/>
<text text-anchor="middle" x="628" y="-235.5" font-family="Helvetica,sans-Serif" font-size="10.00">clamp</text>
</a>
</g>
</g>
<!-- Node1&#45;&gt;Node8 -->
<g id="edge7" class="edge">
<title>Node1&#45;&gt;Node8</title>
<path fill="none" stroke="midnightblue" d="M711.94,-160.83C699.47,-177.13 679.57,-201.31 659,-219 655.07,-222.38 650.49,-225.58 646.11,-228.37"/>
<polygon fill="midnightblue" stroke="midnightblue" points="714.85,-162.78 718.06,-152.68 709.26,-158.57 714.85,-162.78"/>
</g>
<!-- Node9 -->
<g id="node9" class="node">
<title>Node9</title>
<g id="a_node9"><a xlink:href="helper__math_8h.html#ae61756ff3dc1ab198bee68dabd89b2ec" target="_top" xlink:title=" ">
<polygon fill="none" stroke="black" points="597,-190.5 597,-209.5 659,-209.5 659,-190.5 597,-190.5"/>
<text text-anchor="middle" x="628" y="-197.5" font-family="Helvetica,sans-Serif" font-size="10.00">make_int2</text>
</a>
</g>
</g>
<!-- Node1&#45;&gt;Node9 -->
<g id="edge8" class="edge">
<title>Node1&#45;&gt;Node9</title>
<path fill="none" stroke="midnightblue" d="M699.7,-158.02C682.39,-168.3 659.95,-181.62 645.04,-190.47"/>
<polygon fill="midnightblue" stroke="midnightblue" points="701.9,-160.78 708.71,-152.67 698.33,-154.77 701.9,-160.78"/>
</g>
<!-- Node10 -->
<g id="node10" class="node">
<title>Node10</title>
<g id="a_node10"><a xlink:href="helper__math_8h.html#a0d1da99482e200287b0c786ff8f769eb" target="_top" xlink:title=" ">
<polygon fill="none" stroke="black" points="610.5,-152.5 610.5,-171.5 645.5,-171.5 645.5,-152.5 610.5,-152.5"/>
<text text-anchor="middle" x="628" y="-159.5" font-family="Helvetica,sans-Serif" font-size="10.00">max</text>
</a>
</g>
</g>
<!-- Node1&#45;&gt;Node10 -->
<g id="edge9" class="edge">
<title>Node1&#45;&gt;Node10</title>
<path fill="none" stroke="midnightblue" d="M685.05,-150.91C671.23,-153.64 656.49,-156.56 645.6,-158.72"/>
<polygon fill="midnightblue" stroke="midnightblue" points="685.76,-154.33 694.89,-148.96 684.4,-147.47 685.76,-154.33"/>
</g>
<!-- Node11 -->
<g id="node11" class="node">
<title>Node11</title>
<g id="a_node11"><a xlink:href="helper__math_8h.html#a4d54be3b6388d6a2a0d095b880de4d4a" target="_top" xlink:title=" ">
<polygon fill="none" stroke="black" points="612,-114.5 612,-133.5 644,-133.5 644,-114.5 612,-114.5"/>
<text text-anchor="middle" x="628" y="-121.5" font-family="Helvetica,sans-Serif" font-size="10.00">min</text>
</a>
</g>
</g>
<!-- Node1&#45;&gt;Node11 -->
<g id="edge10" class="edge">
<title>Node1&#45;&gt;Node11</title>
<path fill="none" stroke="midnightblue" d="M684.71,-135.03C670.41,-132.2 655.16,-129.18 644.24,-127.02"/>
<polygon fill="midnightblue" stroke="midnightblue" points="684.4,-138.53 694.89,-137.04 685.76,-131.67 684.4,-138.53"/>
</g>
<!-- Node12 -->
<g id="node12" class="node">
<title>Node12</title>
<g id="a_node12"><a xlink:href="helper__math_8h.html#af87d56b7874c3bfec0de4c6fd8ae625e" target="_top" xlink:title=" ">
<polygon fill="none" stroke="black" points="600,-76.5 600,-95.5 656,-95.5 656,-76.5 600,-76.5"/>
<text text-anchor="middle" x="628" y="-83.5" font-family="Helvetica,sans-Serif" font-size="10.00">operator*</text>
</a>
</g>
</g>
<!-- Node1&#45;&gt;Node12 -->
<g id="edge11" class="edge">
<title>Node1&#45;&gt;Node12</title>
<path fill="none" stroke="midnightblue" d="M699.7,-127.98C682.39,-117.7 659.95,-104.38 645.04,-95.53"/>
<polygon fill="midnightblue" stroke="midnightblue" points="698.33,-131.23 708.71,-133.33 701.9,-125.22 698.33,-131.23"/>
</g>
<!-- Node13 -->
<g id="node13" class="node">
<title>Node13</title>
<g id="a_node13"><a xlink:href="helper__math_8h.html#ac2c1c606d303052b7d6ac2a0a8d3a359" target="_top" xlink:title=" ">
<polygon fill="none" stroke="black" points="599,-38.5 599,-57.5 657,-57.5 657,-38.5 599,-38.5"/>
<text text-anchor="middle" x="628" y="-45.5" font-family="Helvetica,sans-Serif" font-size="10.00">operator+</text>
</a>
</g>
</g>
<!-- Node1&#45;&gt;Node13 -->
<g id="edge12" class="edge">
<title>Node1&#45;&gt;Node13</title>
<path fill="none" stroke="midnightblue" d="M711.94,-125.17C699.47,-108.87 679.57,-84.69 659,-67 655.07,-63.62 650.49,-60.42 646.11,-57.63"/>
<polygon fill="midnightblue" stroke="midnightblue" points="709.26,-127.43 718.06,-133.32 714.85,-123.22 709.26,-127.43"/>
</g>
<!-- Node14 -->
<g id="node14" class="node">
<title>Node14</title>
<g id="a_node14"><a xlink:href="helper__math_8h.html#aa2a017587dafe51d6a2aa0ac393d4cea" target="_top" xlink:title=" ">
<polygon fill="none" stroke="black" points="600.5,-0.5 600.5,-19.5 655.5,-19.5 655.5,-0.5 600.5,-0.5"/>
<text text-anchor="middle" x="628" y="-7.5" font-family="Helvetica,sans-Serif" font-size="10.00">operator&#45;</text>
</a>
</g>
</g>
<!-- Node1&#45;&gt;Node14 -->
<g id="edge13" class="edge">
<title>Node1&#45;&gt;Node14</title>
<path fill="none" stroke="midnightblue" d="M717.39,-123.96C707,-99.73 686.47,-57.58 659,-29 655.58,-25.44 651.37,-22.25 647.2,-19.55"/>
<polygon fill="midnightblue" stroke="midnightblue" points="714.26,-125.55 721.33,-133.44 720.73,-122.86 714.26,-125.55"/>
</g>
<!-- Node3 -->
<g id="node3" class="node">
<title>Node3</title>
<g id="a_node3"><a xlink:href="helper__math_8h.html#afe553b3ddd067e12861af3967b19f1cd" target="_top" xlink:title=" ">
<polygon fill="none" stroke="black" points="476.5,-288.5 476.5,-307.5 508.5,-307.5 508.5,-288.5 476.5,-288.5"/>
<text text-anchor="middle" x="492.5" y="-295.5" font-family="Helvetica,sans-Serif" font-size="10.00">abs</text>
</a>
</g>
</g>
<!-- Node2&#45;&gt;Node3 -->
<g id="edge2" class="edge">
<title>Node2&#45;&gt;Node3</title>
<path fill="none" stroke="midnightblue" d="M601.94,-280.13C574.51,-284.65 531.43,-291.75 508.7,-295.49"/>
<polygon fill="midnightblue" stroke="midnightblue" points="602.65,-283.56 611.95,-278.48 601.51,-276.65 602.65,-283.56"/>
</g>
<!-- Node4 -->
<g id="node4" class="node">
<title>Node4</title>
<g id="a_node4"><a xlink:href="classSystemData.html#a000a3e77f12b4c1bc9678e9ede202f83" target="_top" xlink:title="Computes the orientation (unit vector) of a particle with respect to its locater point.">
<polygon fill="none" stroke="black" points="424,-239 424,-269 561,-269 561,-239 424,-239"/>
<text text-anchor="start" x="432" y="-257" font-family="Helvetica,sans-Serif" font-size="10.00">SystemData::convertBody2</text>
<text text-anchor="middle" x="492.5" y="-246" font-family="Helvetica,sans-Serif" font-size="10.00">ParticleOrient</text>
</a>
</g>
</g>
<!-- Node2&#45;&gt;Node4 -->
<g id="edge3" class="edge">
<title>Node2&#45;&gt;Node4</title>
<path fill="none" stroke="midnightblue" d="M601.75,-271.84C590.14,-269.93 575.75,-267.55 561.29,-265.17"/>
<polygon fill="midnightblue" stroke="midnightblue" points="601.51,-275.35 611.95,-273.52 602.65,-268.44 601.51,-275.35"/>
</g>
<!-- Node5 -->
<g id="node5" class="node">
<title>Node5</title>
<g id="a_node5"><a xlink:href="classSystemData.html#aa1dc8988cbb137f2667af95ca52a709c" target="_top" xlink:title="Updates all relevant rigid body motion tensors, respective gradients, and kinematic/Udwadia constrain...">
<polygon fill="none" stroke="black" points="281,-244.5 281,-263.5 388,-263.5 388,-244.5 281,-244.5"/>
<text text-anchor="middle" x="334.5" y="-251.5" font-family="Helvetica,sans-Serif" font-size="10.00">SystemData::update</text>
</a>
</g>
</g>
<!-- Node4&#45;&gt;Node5 -->
<g id="edge4" class="edge">
<title>Node4&#45;&gt;Node5</title>
<path fill="none" stroke="midnightblue" d="M413.79,-254C405.07,-254 396.36,-254 388.07,-254"/>
<polygon fill="midnightblue" stroke="midnightblue" points="413.98,-257.5 423.98,-254 413.98,-250.5 413.98,-257.5"/>
</g>
<!-- Node6 -->
<g id="node6" class="node">
<title>Node6</title>
<g id="a_node6"><a xlink:href="classSystemData.html#ac3a796dc8bf1fa82ea6dec33e548924f" target="_top" xlink:title="Function loads data from GSD file using GSDUtil class.">
<polygon fill="none" stroke="black" points="111,-244.5 111,-263.5 245,-263.5 245,-244.5 111,-244.5"/>
<text text-anchor="middle" x="178" y="-251.5" font-family="Helvetica,sans-Serif" font-size="10.00">SystemData::initializeData</text>
</a>
</g>
</g>
<!-- Node5&#45;&gt;Node6 -->
<g id="edge5" class="edge">
<title>Node5&#45;&gt;Node6</title>
<path fill="none" stroke="midnightblue" d="M270.66,-254C262.26,-254 253.62,-254 245.16,-254"/>
<polygon fill="midnightblue" stroke="midnightblue" points="270.76,-257.5 280.76,-254 270.76,-250.5 270.76,-257.5"/>
</g>
<!-- Node7 -->
<g id="node7" class="node">
<title>Node7</title>
<g id="a_node7"><a xlink:href="TestSimulation_8cpp.html#a227401f331fbabbd263158efc43b3bf6" target="_top" xlink:title=" ">
<polygon fill="none" stroke="black" points="0,-244.5 0,-263.5 75,-263.5 75,-244.5 0,-244.5"/>
<text text-anchor="middle" x="37.5" y="-251.5" font-family="Helvetica,sans-Serif" font-size="10.00">TEST_CASE</text>
</a>
</g>
</g>
<!-- Node6&#45;&gt;Node7 -->
<g id="edge6" class="edge">
<title>Node6&#45;&gt;Node7</title>
<path fill="none" stroke="midnightblue" d="M100.94,-254C92.06,-254 83.33,-254 75.34,-254"/>
<polygon fill="midnightblue" stroke="midnightblue" points="101,-257.5 111,-254 101,-250.5 101,-257.5"/>
</g>
</g>
</svg>
