<?xml version="1.0" encoding="UTF-8" standalone="no"?>
<!DOCTYPE svg PUBLIC "-//W3C//DTD SVG 1.1//EN"
 "http://www.w3.org/Graphics/SVG/1.1/DTD/svg11.dtd">
<!-- Generated by graphviz version 2.43.0 (0)
 -->
<!-- Title: make_int2 Pages: 1 -->
<svg width="760pt" height="316pt"
 viewBox="0.00 0.00 760.00 316.00" xmlns="http://www.w3.org/2000/svg" xmlns:xlink="http://www.w3.org/1999/xlink">
<g id="graph0" class="graph" transform="scale(1 1) rotate(0) translate(4 312)">
<title>make_int2</title>
<!-- Node1 -->
<g id="node1" class="node">
<title>Node1</title>
<g id="a_node1"><a xlink:title=" ">
<polygon fill="#bfbfbf" stroke="black" points="690,-133.5 690,-152.5 752,-152.5 752,-133.5 690,-133.5"/>
<text text-anchor="middle" x="721" y="-140.5" font-family="Helvetica,sans-Serif" font-size="10.00">make_int2</text>
</a>
</g>
</g>
<!-- Node2 -->
<g id="node2" class="node">
<title>Node2</title>
<g id="a_node2"><a xlink:href="helper__math_8h.html#ae4378072f9d836b0d4770a1514db2be3" target="_top" xlink:title=" ">
<polygon fill="none" stroke="black" points="607,-266.5 607,-285.5 639,-285.5 639,-266.5 607,-266.5"/>
<text text-anchor="middle" x="623" y="-273.5" font-family="Helvetica,sans-Serif" font-size="10.00">abs</text>
</a>
</g>
</g>
<!-- Node1&#45;&gt;Node2 -->
<g id="edge1" class="edge">
<title>Node1&#45;&gt;Node2</title>
<path fill="none" stroke="midnightblue" d="M712.39,-162.04C702,-186.27 681.47,-228.42 654,-257 649.73,-261.45 644.22,-265.32 639.08,-268.38"/>
<polygon fill="midnightblue" stroke="midnightblue" points="715.73,-163.14 716.33,-152.56 709.26,-160.45 715.73,-163.14"/>
</g>
<!-- Node8 -->
<g id="node8" class="node">
<title>Node8</title>
<g id="a_node8"><a xlink:href="helper__math_8h.html#ad1f08ef2aabcda2e2aca45d40fbc3397" target="_top" xlink:title=" ">
<polygon fill="none" stroke="black" points="601.5,-228.5 601.5,-247.5 644.5,-247.5 644.5,-228.5 601.5,-228.5"/>
<text text-anchor="middle" x="623" y="-235.5" font-family="Helvetica,sans-Serif" font-size="10.00">clamp</text>
</a>
</g>
</g>
<!-- Node1&#45;&gt;Node8 -->
<g id="edge7" class="edge">
<title>Node1&#45;&gt;Node8</title>
<path fill="none" stroke="midnightblue" d="M706.94,-160.83C694.47,-177.13 674.57,-201.31 654,-219 650.07,-222.38 645.49,-225.58 641.11,-228.37"/>
<polygon fill="midnightblue" stroke="midnightblue" points="709.85,-162.78 713.06,-152.68 704.26,-158.57 709.85,-162.78"/>
</g>
<!-- Node9 -->
<g id="node9" class="node">
<title>Node9</title>
<g id="a_node9"><a xlink:href="helper__math_8h.html#ae61756ff3dc1ab198bee68dabd89b2ec" target="_top" xlink:title=" ">
<polygon fill="none" stroke="black" points="592,-190.5 592,-209.5 654,-209.5 654,-190.5 592,-190.5"/>
<text text-anchor="middle" x="623" y="-197.5" font-family="Helvetica,sans-Serif" font-size="10.00">make_int2</text>
</a>
</g>
</g>
<!-- Node1&#45;&gt;Node9 -->
<g id="edge8" class="edge">
<title>Node1&#45;&gt;Node9</title>
<path fill="none" stroke="midnightblue" d="M694.7,-158.02C677.39,-168.3 654.95,-181.62 640.04,-190.47"/>
<polygon fill="midnightblue" stroke="midnightblue" points="696.9,-160.78 703.71,-152.67 693.33,-154.77 696.9,-160.78"/>
</g>
<!-- Node10 -->
<g id="node10" class="node">
<title>Node10</title>
<g id="a_node10"><a xlink:href="helper__math_8h.html#a0d1da99482e200287b0c786ff8f769eb" target="_top" xlink:title=" ">
<polygon fill="none" stroke="black" points="605.5,-152.5 605.5,-171.5 640.5,-171.5 640.5,-152.5 605.5,-152.5"/>
<text text-anchor="middle" x="623" y="-159.5" font-family="Helvetica,sans-Serif" font-size="10.00">max</text>
</a>
</g>
</g>
<!-- Node1&#45;&gt;Node10 -->
<g id="edge9" class="edge">
<title>Node1&#45;&gt;Node10</title>
<path fill="none" stroke="midnightblue" d="M680.05,-150.91C666.23,-153.64 651.49,-156.56 640.6,-158.72"/>
<polygon fill="midnightblue" stroke="midnightblue" points="680.76,-154.33 689.89,-148.96 679.4,-147.47 680.76,-154.33"/>
</g>
<!-- Node11 -->
<g id="node11" class="node">
<title>Node11</title>
<g id="a_node11"><a xlink:href="helper__math_8h.html#a4d54be3b6388d6a2a0d095b880de4d4a" target="_top" xlink:title=" ">
<polygon fill="none" stroke="black" points="607,-114.5 607,-133.5 639,-133.5 639,-114.5 607,-114.5"/>
<text text-anchor="middle" x="623" y="-121.5" font-family="Helvetica,sans-Serif" font-size="10.00">min</text>
</a>
</g>
</g>
<!-- Node1&#45;&gt;Node11 -->
<g id="edge10" class="edge">
<title>Node1&#45;&gt;Node11</title>
<path fill="none" stroke="midnightblue" d="M679.71,-135.03C665.41,-132.2 650.16,-129.18 639.24,-127.02"/>
<polygon fill="midnightblue" stroke="midnightblue" points="679.4,-138.53 689.89,-137.04 680.76,-131.67 679.4,-138.53"/>
</g>
<!-- Node12 -->
<g id="node12" class="node">
<title>Node12</title>
<g id="a_node12"><a xlink:href="helper__math_8h.html#af87d56b7874c3bfec0de4c6fd8ae625e" target="_top" xlink:title=" ">
<polygon fill="none" stroke="black" points="595,-76.5 595,-95.5 651,-95.5 651,-76.5 595,-76.5"/>
<text text-anchor="middle" x="623" y="-83.5" font-family="Helvetica,sans-Serif" font-size="10.00">operator*</text>
</a>
</g>
</g>
<!-- Node1&#45;&gt;Node12 -->
<g id="edge11" class="edge">
<title>Node1&#45;&gt;Node12</title>
<path fill="none" stroke="midnightblue" d="M694.7,-127.98C677.39,-117.7 654.95,-104.38 640.04,-95.53"/>
<polygon fill="midnightblue" stroke="midnightblue" points="693.33,-131.23 703.71,-133.33 696.9,-125.22 693.33,-131.23"/>
</g>
<!-- Node13 -->
<g id="node13" class="node">
<title>Node13</title>
<g id="a_node13"><a xlink:href="helper__math_8h.html#ac2c1c606d303052b7d6ac2a0a8d3a359" target="_top" xlink:title=" ">
<polygon fill="none" stroke="black" points="594,-38.5 594,-57.5 652,-57.5 652,-38.5 594,-38.5"/>
<text text-anchor="middle" x="623" y="-45.5" font-family="Helvetica,sans-Serif" font-size="10.00">operator+</text>
</a>
</g>
</g>
<!-- Node1&#45;&gt;Node13 -->
<g id="edge12" class="edge">
<title>Node1&#45;&gt;Node13</title>
<path fill="none" stroke="midnightblue" d="M706.94,-125.17C694.47,-108.87 674.57,-84.69 654,-67 650.07,-63.62 645.49,-60.42 641.11,-57.63"/>
<polygon fill="midnightblue" stroke="midnightblue" points="704.26,-127.43 713.06,-133.32 709.85,-123.22 704.26,-127.43"/>
</g>
<!-- Node14 -->
<g id="node14" class="node">
<title>Node14</title>
<g id="a_node14"><a xlink:href="helper__math_8h.html#aa2a017587dafe51d6a2aa0ac393d4cea" target="_top" xlink:title=" ">
<polygon fill="none" stroke="black" points="595.5,-0.5 595.5,-19.5 650.5,-19.5 650.5,-0.5 595.5,-0.5"/>
<text text-anchor="middle" x="623" y="-7.5" font-family="Helvetica,sans-Serif" font-size="10.00">operator&#45;</text>
</a>
</g>
</g>
<!-- Node1&#45;&gt;Node14 -->
<g id="edge13" class="edge">
<title>Node1&#45;&gt;Node14</title>
<path fill="none" stroke="midnightblue" d="M712.39,-123.96C702,-99.73 681.47,-57.58 654,-29 650.58,-25.44 646.37,-22.25 642.2,-19.55"/>
<polygon fill="midnightblue" stroke="midnightblue" points="709.26,-125.55 716.33,-133.44 715.73,-122.86 709.26,-125.55"/>
</g>
<!-- Node3 -->
<g id="node3" class="node">
<title>Node3</title>
<g id="a_node3"><a xlink:href="helper__math_8h.html#afe553b3ddd067e12861af3967b19f1cd" target="_top" xlink:title=" ">
<polygon fill="none" stroke="black" points="472,-288.5 472,-307.5 504,-307.5 504,-288.5 472,-288.5"/>
<text text-anchor="middle" x="488" y="-295.5" font-family="Helvetica,sans-Serif" font-size="10.00">abs</text>
</a>
</g>
</g>
<!-- Node2&#45;&gt;Node3 -->
<g id="edge2" class="edge">
<title>Node2&#45;&gt;Node3</title>
<path fill="none" stroke="midnightblue" d="M596.74,-280.18C569.38,-284.7 526.62,-291.78 504.08,-295.51"/>
<polygon fill="midnightblue" stroke="midnightblue" points="597.45,-283.61 606.74,-278.52 596.31,-276.7 597.45,-283.61"/>
</g>
<!-- Node4 -->
<g id="node4" class="node">
<title>Node4</title>
<g id="a_node4"><a xlink:href="classsystemData.html#a1d50589c7d3a4ceda2e227cee3a9be90" target="_top" xlink:title="Computes the orientation (unit vector) of a particle with respect to its locater point.">
<polygon fill="none" stroke="black" points="420,-239 420,-269 556,-269 556,-239 420,-239"/>
<text text-anchor="start" x="428" y="-257" font-family="Helvetica,sans-Serif" font-size="10.00">systemData::convertBody2</text>
<text text-anchor="middle" x="488" y="-246" font-family="Helvetica,sans-Serif" font-size="10.00">ParticleOrient</text>
</a>
</g>
</g>
<!-- Node2&#45;&gt;Node4 -->
<g id="edge3" class="edge">
<title>Node2&#45;&gt;Node4</title>
<path fill="none" stroke="midnightblue" d="M596.56,-271.79C584.97,-269.88 570.66,-267.51 556.29,-265.13"/>
<polygon fill="midnightblue" stroke="midnightblue" points="596.31,-275.3 606.74,-273.48 597.45,-268.39 596.31,-275.3"/>
</g>
<!-- Node5 -->
<g id="node5" class="node">
<title>Node5</title>
<g id="a_node5"><a xlink:href="classsystemData.html#abe08e8ef40710f40f585342d24076085" target="_top" xlink:title="Updates all relevant rigid body motion tensors, respective gradients, and kinematic/Udwadia constrain...">
<polygon fill="none" stroke="black" points="279,-244.5 279,-263.5 384,-263.5 384,-244.5 279,-244.5"/>
<text text-anchor="middle" x="331.5" y="-251.5" font-family="Helvetica,sans-Serif" font-size="10.00">systemData::update</text>
</a>
</g>
</g>
<!-- Node4&#45;&gt;Node5 -->
<g id="edge4" class="edge">
<title>Node4&#45;&gt;Node5</title>
<path fill="none" stroke="midnightblue" d="M409.62,-254C401.02,-254 392.42,-254 384.26,-254"/>
<polygon fill="midnightblue" stroke="midnightblue" points="409.68,-257.5 419.68,-254 409.68,-250.5 409.68,-257.5"/>
</g>
<!-- Node6 -->
<g id="node6" class="node">
<title>Node6</title>
<g id="a_node6"><a xlink:href="classsystemData.html#ad2ba3455704ef6cec1aac76a417e91e9" target="_top" xlink:title="Function loads data from GSD file using GSDUtil class.">
<polygon fill="none" stroke="black" points="111,-244.5 111,-263.5 243,-263.5 243,-244.5 111,-244.5"/>
<text text-anchor="middle" x="177" y="-251.5" font-family="Helvetica,sans-Serif" font-size="10.00">systemData::initializeData</text>
</a>
</g>
</g>
<!-- Node5&#45;&gt;Node6 -->
<g id="edge5" class="edge">
<title>Node5&#45;&gt;Node6</title>
<path fill="none" stroke="midnightblue" d="M268.72,-254C260.28,-254 251.59,-254 243.1,-254"/>
<polygon fill="midnightblue" stroke="midnightblue" points="268.87,-257.5 278.87,-254 268.87,-250.5 268.87,-257.5"/>
</g>
<!-- Node7 -->
<g id="node7" class="node">
<title>Node7</title>
<g id="a_node7"><a xlink:href="test-simulation_8cpp.html#ad247837e3960442b6e67b555c11a84f8" target="_top" xlink:title=" ">
<polygon fill="none" stroke="black" points="0,-244.5 0,-263.5 75,-263.5 75,-244.5 0,-244.5"/>
<text text-anchor="middle" x="37.5" y="-251.5" font-family="Helvetica,sans-Serif" font-size="10.00">TEST_CASE</text>
</a>
</g>
</g>
<!-- Node6&#45;&gt;Node7 -->
<g id="edge6" class="edge">
<title>Node6&#45;&gt;Node7</title>
<path fill="none" stroke="midnightblue" d="M100.85,-254C92,-254 83.29,-254 75.31,-254"/>
<polygon fill="midnightblue" stroke="midnightblue" points="100.87,-257.5 110.87,-254 100.87,-250.5 100.87,-257.5"/>
</g>
</g>
</svg>
