<?xml version="1.0" encoding="UTF-8" standalone="no"?>
<!DOCTYPE svg PUBLIC "-//W3C//DTD SVG 1.1//EN"
 "http://www.w3.org/Graphics/SVG/1.1/DTD/svg11.dtd">
<!-- Generated by graphviz version 2.49.1 (20210923.0004)
 -->
<!-- Title: asEval Pages: 1 -->
<svg width="639pt" height="72pt"
 viewBox="0.00 0.00 639.00 71.50" xmlns="http://www.w3.org/2000/svg" xmlns:xlink="http://www.w3.org/1999/xlink">
<g id="graph0" class="graph" transform="scale(1 1) rotate(0) translate(4 67.5)">
<title>asEval</title>
<!-- Node1 -->
<g id="node1" class="node">
<title>Node1</title>
<g id="a_node1"><a xlink:title="Convert between Eigen::Tensor and Eigen::Matrix classes.">
<polygon fill="#bfbfbf" stroke="black" points="584,-19.5 584,-38.5 631,-38.5 631,-19.5 584,-19.5"/>
<text text-anchor="middle" x="607.5" y="-26.5" font-family="Helvetica,sans-Serif" font-size="10.00">asEval</text>
</a>
</g>
</g>
<!-- Node2 -->
<g id="node2" class="node">
<title>Node2</title>
<g id="a_node2"><a xlink:href="helper__eigenTensorConversion_8hpp.html#a556d08b55a6ad7cd703b6db06194e5cf" target="_top" xlink:title=" ">
<polygon fill="none" stroke="black" points="483.5,-38.5 483.5,-57.5 547.5,-57.5 547.5,-38.5 483.5,-38.5"/>
<text text-anchor="middle" x="515.5" y="-45.5" font-family="Helvetica,sans-Serif" font-size="10.00">MatrixCast</text>
</a>
</g>
</g>
<!-- Node1&#45;&gt;Node2 -->
<g id="edge1" class="edge">
<title>Node1&#45;&gt;Node2</title>
<path fill="none" stroke="midnightblue" d="M573.81,-35.9C565.29,-37.7 556.14,-39.63 547.7,-41.41"/>
<polygon fill="midnightblue" stroke="midnightblue" points="574.73,-39.28 583.79,-33.79 573.28,-32.44 574.73,-39.28"/>
</g>
<!-- Node6 -->
<g id="node6" class="node">
<title>Node6</title>
<g id="a_node6"><a xlink:href="helper__eigenTensorConversion_8hpp.html#ac872c78296e568aec10500f4e18c8f83" target="_top" xlink:title=" ">
<polygon fill="none" stroke="black" points="483,-0.5 483,-19.5 548,-19.5 548,-0.5 483,-0.5"/>
<text text-anchor="middle" x="515.5" y="-7.5" font-family="Helvetica,sans-Serif" font-size="10.00">VectorCast</text>
</a>
</g>
</g>
<!-- Node1&#45;&gt;Node6 -->
<g id="edge5" class="edge">
<title>Node1&#45;&gt;Node6</title>
<path fill="none" stroke="midnightblue" d="M573.91,-22.12C565.48,-20.34 556.42,-18.43 548.04,-16.66"/>
<polygon fill="midnightblue" stroke="midnightblue" points="573.28,-25.56 583.79,-24.21 574.73,-18.72 573.28,-25.56"/>
</g>
<!-- Node3 -->
<g id="node3" class="node">
<title>Node3</title>
<g id="a_node3"><a xlink:href="classpotentialHydrodynamics.html#a2b71af05a80cbe982c996d61b084695c" target="_top" xlink:title="Calculates m_F_hydro and m_F_hydroNoInertia">
<polygon fill="none" stroke="black" points="324,-33 324,-63 447,-63 447,-33 324,-33"/>
<text text-anchor="start" x="332" y="-51" font-family="Helvetica,sans-Serif" font-size="10.00">potentialHydrodynamics</text>
<text text-anchor="middle" x="385.5" y="-40" font-family="Helvetica,sans-Serif" font-size="10.00">::calcHydroForces</text>
</a>
</g>
</g>
<!-- Node2&#45;&gt;Node3 -->
<g id="edge2" class="edge">
<title>Node2&#45;&gt;Node3</title>
<path fill="none" stroke="midnightblue" d="M473.02,-48C464.71,-48 455.82,-48 447.01,-48"/>
<polygon fill="midnightblue" stroke="midnightblue" points="473.19,-51.5 483.19,-48 473.19,-44.5 473.19,-51.5"/>
</g>
<!-- Node4 -->
<g id="node4" class="node">
<title>Node4</title>
<g id="a_node4"><a xlink:href="classpotentialHydrodynamics.html#acce7436c3cc8b62fe54fa61da98554f6" target="_top" xlink:title="Updates all hydrodynamic quantities at current configuration (data from systemData)">
<polygon fill="none" stroke="black" points="165,-33 165,-63 288,-63 288,-33 165,-33"/>
<text text-anchor="start" x="173" y="-51" font-family="Helvetica,sans-Serif" font-size="10.00">potentialHydrodynamics</text>
<text text-anchor="middle" x="226.5" y="-40" font-family="Helvetica,sans-Serif" font-size="10.00">::update</text>
</a>
</g>
</g>
<!-- Node3&#45;&gt;Node4 -->
<g id="edge3" class="edge">
<title>Node3&#45;&gt;Node4</title>
<path fill="none" stroke="midnightblue" d="M313.79,-48C305.19,-48 296.47,-48 288.04,-48"/>
<polygon fill="midnightblue" stroke="midnightblue" points="313.8,-51.5 323.8,-48 313.8,-44.5 313.8,-51.5"/>
</g>
<!-- Node5 -->
<g id="node5" class="node">
<title>Node5</title>
<g id="a_node5"><a xlink:href="classpotentialHydrodynamics.html#ae93f12dc4a892a191d52bf4754d4d99c" target="_top" xlink:title="Construct a new potential hydrodynamics object.">
<polygon fill="none" stroke="black" points="0,-33 0,-63 129,-63 129,-33 0,-33"/>
<text text-anchor="start" x="8" y="-51" font-family="Helvetica,sans-Serif" font-size="10.00">potentialHydrodynamics</text>
<text text-anchor="middle" x="64.5" y="-40" font-family="Helvetica,sans-Serif" font-size="10.00">::potentialHydrodynamics</text>
</a>
</g>
</g>
<!-- Node4&#45;&gt;Node5 -->
<g id="edge4" class="edge">
<title>Node4&#45;&gt;Node5</title>
<path fill="none" stroke="midnightblue" d="M154.41,-48C146.01,-48 137.48,-48 129.2,-48"/>
<polygon fill="midnightblue" stroke="midnightblue" points="154.55,-51.5 164.55,-48 154.55,-44.5 154.55,-51.5"/>
</g>
</g>
</svg>
