<?xml version="1.0" encoding="UTF-8" standalone="no"?>
<!DOCTYPE svg PUBLIC "-//W3C//DTD SVG 1.1//EN"
 "http://www.w3.org/Graphics/SVG/1.1/DTD/svg11.dtd">
<!-- Generated by graphviz version 2.43.0 (0)
 -->
<!-- Title: length Pages: 1 -->
<svg width="224pt" height="180pt"
 viewBox="0.00 0.00 224.00 180.00" xmlns="http://www.w3.org/2000/svg" xmlns:xlink="http://www.w3.org/1999/xlink">
<g id="graph0" class="graph" transform="scale(1 1) rotate(0) translate(4 176)">
<title>length</title>
<!-- Node1 -->
<g id="node1" class="node">
<title>Node1</title>
<g id="a_node1"><a xlink:title=" ">
<polygon fill="#bfbfbf" stroke="black" points="173,-76.5 173,-95.5 216,-95.5 216,-76.5 173,-76.5"/>
<text text-anchor="middle" x="194.5" y="-83.5" font-family="Helvetica,sans-Serif" font-size="10.00">length</text>
</a>
</g>
</g>
<!-- Node2 -->
<g id="node2" class="node">
<title>Node2</title>
<g id="a_node2"><a xlink:href="helper__string_8h.html#ac4941870cb5a1c286453eccb73e2e2a6" target="_top" xlink:title=" ">
<polygon fill="none" stroke="black" points="18,-152.5 18,-171.5 119,-171.5 119,-152.5 18,-152.5"/>
<text text-anchor="middle" x="68.5" y="-159.5" font-family="Helvetica,sans-Serif" font-size="10.00">checkCmdLineFlag</text>
</a>
</g>
</g>
<!-- Node1&#45;&gt;Node2 -->
<g id="edge1" class="edge">
<title>Node1&#45;&gt;Node2</title>
<path fill="none" stroke="midnightblue" d="M180.23,-103.6C169.79,-116.29 154.17,-132.89 137,-143 130.5,-146.83 123.18,-149.92 115.83,-152.4"/>
<polygon fill="midnightblue" stroke="midnightblue" points="183.12,-105.59 186.59,-95.58 177.64,-101.24 183.12,-105.59"/>
</g>
<!-- Node3 -->
<g id="node3" class="node">
<title>Node3</title>
<g id="a_node3"><a xlink:href="helper__string_8h.html#a58201641910e5cd66b8ff4efde6c4fca" target="_top" xlink:title=" ">
<polygon fill="none" stroke="black" points="2,-114.5 2,-133.5 135,-133.5 135,-114.5 2,-114.5"/>
<text text-anchor="middle" x="68.5" y="-121.5" font-family="Helvetica,sans-Serif" font-size="10.00">getCmdLineArgumentFloat</text>
</a>
</g>
</g>
<!-- Node1&#45;&gt;Node3 -->
<g id="edge2" class="edge">
<title>Node1&#45;&gt;Node3</title>
<path fill="none" stroke="midnightblue" d="M163.38,-96.44C154.88,-99.3 145.6,-102.35 137,-105 126.53,-108.23 115.08,-111.54 104.63,-114.47"/>
<polygon fill="midnightblue" stroke="midnightblue" points="164.58,-99.73 172.92,-93.2 162.32,-93.1 164.58,-99.73"/>
</g>
<!-- Node4 -->
<g id="node4" class="node">
<title>Node4</title>
<g id="a_node4"><a xlink:href="helper__string_8h.html#ade9cb99a49aabcdf5ddcc8d276174576" target="_top" xlink:title=" ">
<polygon fill="none" stroke="black" points="7.5,-76.5 7.5,-95.5 129.5,-95.5 129.5,-76.5 7.5,-76.5"/>
<text text-anchor="middle" x="68.5" y="-83.5" font-family="Helvetica,sans-Serif" font-size="10.00">getCmdLineArgumentInt</text>
</a>
</g>
</g>
<!-- Node1&#45;&gt;Node4 -->
<g id="edge3" class="edge">
<title>Node1&#45;&gt;Node4</title>
<path fill="none" stroke="midnightblue" d="M162.52,-86C152.51,-86 141.05,-86 129.66,-86"/>
<polygon fill="midnightblue" stroke="midnightblue" points="162.75,-89.5 172.75,-86 162.75,-82.5 162.75,-89.5"/>
</g>
<!-- Node5 -->
<g id="node5" class="node">
<title>Node5</title>
<g id="a_node5"><a xlink:href="helper__string_8h.html#a21bc9c16271b623400816c8839c862bb" target="_top" xlink:title=" ">
<polygon fill="none" stroke="black" points="0,-38.5 0,-57.5 137,-57.5 137,-38.5 0,-38.5"/>
<text text-anchor="middle" x="68.5" y="-45.5" font-family="Helvetica,sans-Serif" font-size="10.00">getCmdLineArgumentString</text>
</a>
</g>
</g>
<!-- Node1&#45;&gt;Node5 -->
<g id="edge4" class="edge">
<title>Node1&#45;&gt;Node5</title>
<path fill="none" stroke="midnightblue" d="M163.38,-75.56C154.88,-72.7 145.6,-69.65 137,-67 126.53,-63.77 115.08,-60.46 104.63,-57.53"/>
<polygon fill="midnightblue" stroke="midnightblue" points="162.32,-78.9 172.92,-78.8 164.58,-72.27 162.32,-78.9"/>
</g>
<!-- Node6 -->
<g id="node6" class="node">
<title>Node6</title>
<g id="a_node6"><a xlink:href="helper__string_8h.html#a885b977ee2b2ce6e95e5e80e96c6535f" target="_top" xlink:title=" ">
<polygon fill="none" stroke="black" points="1,-0.5 1,-19.5 136,-19.5 136,-0.5 1,-0.5"/>
<text text-anchor="middle" x="68.5" y="-7.5" font-family="Helvetica,sans-Serif" font-size="10.00">getCmdLineArgumentValue</text>
</a>
</g>
</g>
<!-- Node1&#45;&gt;Node6 -->
<g id="edge5" class="edge">
<title>Node1&#45;&gt;Node6</title>
<path fill="none" stroke="midnightblue" d="M180.23,-68.4C169.79,-55.71 154.17,-39.11 137,-29 130.5,-25.17 123.18,-22.08 115.83,-19.6"/>
<polygon fill="midnightblue" stroke="midnightblue" points="177.64,-70.76 186.59,-76.42 183.12,-66.41 177.64,-70.76"/>
</g>
</g>
</svg>
