<?xml version="1.0" encoding="UTF-8" standalone="no"?>
<!DOCTYPE svg PUBLIC "-//W3C//DTD SVG 1.1//EN"
 "http://www.w3.org/Graphics/SVG/1.1/DTD/svg11.dtd">
<!-- Generated by graphviz version 2.43.0 (0)
 -->
<!-- Title: TensorCast Pages: 1 -->
<svg width="885pt" height="340pt"
 viewBox="0.00 0.00 885.00 339.50" xmlns="http://www.w3.org/2000/svg" xmlns:xlink="http://www.w3.org/1999/xlink">
<g id="graph0" class="graph" transform="scale(1 1) rotate(0) translate(4 335.5)">
<title>TensorCast</title>
<!-- Node1 -->
<g id="node1" class="node">
<title>Node1</title>
<g id="a_node1"><a xlink:title="Convert Eigen::Matrix &#45;&#45;&gt; Eigen::Tensor.">
<polygon fill="#bfbfbf" stroke="black" points="810,-145.5 810,-164.5 877,-164.5 877,-145.5 810,-145.5"/>
<text text-anchor="middle" x="843.5" y="-152.5" font-family="Helvetica,sans-Serif" font-size="10.00">TensorCast</text>
</a>
</g>
</g>
<!-- Node2 -->
<g id="node2" class="node">
<title>Node2</title>
<g id="a_node2"><a xlink:href="classPotentialHydrodynamics.html#a3887d7ad9dceea28a5e9a78933016a19" target="_top" xlink:title="Calculates m_M_added">
<polygon fill="none" stroke="black" points="640,-301 640,-331 763,-331 763,-301 640,-301"/>
<text text-anchor="start" x="648" y="-319" font-family="Helvetica,sans-Serif" font-size="10.00">PotentialHydrodynamics</text>
<text text-anchor="middle" x="701.5" y="-308" font-family="Helvetica,sans-Serif" font-size="10.00">::calcAddedMassGrad</text>
</a>
</g>
</g>
<!-- Node1&#45;&gt;Node2 -->
<g id="edge1" class="edge">
<title>Node1&#45;&gt;Node2</title>
<path fill="none" stroke="midnightblue" d="M837.88,-174.44C829.88,-203.99 810.66,-260.14 774,-292 770.05,-295.44 765.58,-298.38 760.87,-300.91"/>
<polygon fill="midnightblue" stroke="midnightblue" points="841.33,-175.08 840.41,-164.52 834.55,-173.35 841.33,-175.08"/>
</g>
<!-- Node5 -->
<g id="node5" class="node">
<title>Node5</title>
<g id="a_node5"><a xlink:href="classPotentialHydrodynamics.html#a281e3e793371c6fb032d0b4871b06160" target="_top" xlink:title="Calculates m_F_hydro and m_F_hydroNoInertia">
<polygon fill="none" stroke="black" points="640,-252 640,-282 763,-282 763,-252 640,-252"/>
<text text-anchor="start" x="648" y="-270" font-family="Helvetica,sans-Serif" font-size="10.00">PotentialHydrodynamics</text>
<text text-anchor="middle" x="701.5" y="-259" font-family="Helvetica,sans-Serif" font-size="10.00">::calcHydroForces</text>
</a>
</g>
</g>
<!-- Node1&#45;&gt;Node5 -->
<g id="edge4" class="edge">
<title>Node1&#45;&gt;Node5</title>
<path fill="none" stroke="midnightblue" d="M832.57,-173.45C820.99,-193.31 800.06,-224.53 774,-243 769.19,-246.41 763.87,-249.36 758.35,-251.91"/>
<polygon fill="midnightblue" stroke="midnightblue" points="835.63,-175.15 837.48,-164.72 829.53,-171.72 835.63,-175.15"/>
</g>
<!-- Node6 -->
<g id="node6" class="node">
<title>Node6</title>
<g id="a_node6"><a xlink:href="classPotentialHydrodynamics.html#a166daae7d4c96b24e80d9920f566e6f5" target="_top" xlink:title="Calculates m_M_added">
<polygon fill="none" stroke="black" points="640,-203 640,-233 763,-233 763,-203 640,-203"/>
<text text-anchor="start" x="648" y="-221" font-family="Helvetica,sans-Serif" font-size="10.00">PotentialHydrodynamics</text>
<text text-anchor="middle" x="701.5" y="-210" font-family="Helvetica,sans-Serif" font-size="10.00">::calcTotalMass</text>
</a>
</g>
</g>
<!-- Node1&#45;&gt;Node6 -->
<g id="edge6" class="edge">
<title>Node1&#45;&gt;Node6</title>
<path fill="none" stroke="midnightblue" d="M814.15,-169.06C801.87,-175.05 787.3,-182.01 774,-188 762.83,-193.03 750.57,-198.27 739.4,-202.95"/>
<polygon fill="midnightblue" stroke="midnightblue" points="815.99,-172.06 823.43,-164.51 812.91,-165.77 815.99,-172.06"/>
</g>
<!-- Node7 -->
<g id="node7" class="node">
<title>Node7</title>
<g id="a_node7"><a xlink:href="classSystemData.html#a7da2011ba5d866e5338b14e8b04ace70" target="_top" xlink:title="Computes the particle D.o.F. from the body D.o.F.">
<polygon fill="none" stroke="black" points="451,-156 451,-186 588,-186 588,-156 451,-156"/>
<text text-anchor="start" x="459" y="-174" font-family="Helvetica,sans-Serif" font-size="10.00">SystemData::convertBody2</text>
<text text-anchor="middle" x="519.5" y="-163" font-family="Helvetica,sans-Serif" font-size="10.00">ParticleVelAcc</text>
</a>
</g>
</g>
<!-- Node1&#45;&gt;Node7 -->
<g id="edge8" class="edge">
<title>Node1&#45;&gt;Node7</title>
<path fill="none" stroke="midnightblue" d="M799.59,-157.13C745.53,-159.82 652,-164.47 588.25,-167.63"/>
<polygon fill="midnightblue" stroke="midnightblue" points="800.04,-160.61 809.85,-156.62 799.69,-153.62 800.04,-160.61"/>
</g>
<!-- Node11 -->
<g id="node11" class="node">
<title>Node11</title>
<g id="a_node11"><a xlink:href="classSystemData.html#a301fa1815b3b68cffc789f1824e29f5e" target="_top" xlink:title="Computes the gradients rigid body motion connectivity tensors and tensors associated with change of v...">
<polygon fill="none" stroke="black" points="446.5,-100 446.5,-130 592.5,-130 592.5,-100 446.5,-100"/>
<text text-anchor="start" x="454.5" y="-118" font-family="Helvetica,sans-Serif" font-size="10.00">SystemData::gradientChange</text>
<text text-anchor="middle" x="519.5" y="-107" font-family="Helvetica,sans-Serif" font-size="10.00">OfVariableTensors</text>
</a>
</g>
</g>
<!-- Node1&#45;&gt;Node11 -->
<g id="edge12" class="edge">
<title>Node1&#45;&gt;Node11</title>
<path fill="none" stroke="midnightblue" d="M799.82,-149.7C747.04,-143.14 656.39,-131.88 592.71,-123.97"/>
<polygon fill="midnightblue" stroke="midnightblue" points="799.5,-153.18 809.85,-150.94 800.36,-146.24 799.5,-153.18"/>
</g>
<!-- Node12 -->
<g id="node12" class="node">
<title>Node12</title>
<g id="a_node12"><a xlink:href="classSystemData.html#aeaaa2fb7779cd160ab4d90f6f1659aae" target="_top" xlink:title="Computes \nabla_{\xi} \zeta_{i \alpha} tensor for given particle number and body number.">
<polygon fill="none" stroke="black" points="629,-77 629,-107 774,-107 774,-77 629,-77"/>
<text text-anchor="start" x="637" y="-95" font-family="Helvetica,sans-Serif" font-size="10.00">SystemData::gradZetaTensor</text>
<text text-anchor="middle" x="701.5" y="-84" font-family="Helvetica,sans-Serif" font-size="10.00">Element</text>
</a>
</g>
</g>
<!-- Node1&#45;&gt;Node12 -->
<g id="edge14" class="edge">
<title>Node1&#45;&gt;Node12</title>
<path fill="none" stroke="midnightblue" d="M814.15,-140.94C801.87,-134.95 787.3,-127.99 774,-122 762.83,-116.97 750.57,-111.73 739.4,-107.05"/>
<polygon fill="midnightblue" stroke="midnightblue" points="812.91,-144.23 823.43,-145.49 815.99,-137.94 812.91,-144.23"/>
</g>
<!-- Node13 -->
<g id="node13" class="node">
<title>Node13</title>
<g id="a_node13"><a xlink:href="classSystemData.html#ae08b2263f2981e57d0f12ba7881a083b" target="_top" xlink:title="Computes the rigid body motion connectivity tensors.">
<polygon fill="none" stroke="black" points="446,-37 446,-67 593,-67 593,-37 446,-37"/>
<text text-anchor="start" x="454" y="-55" font-family="Helvetica,sans-Serif" font-size="10.00">SystemData::rigidBodyMotion</text>
<text text-anchor="middle" x="519.5" y="-44" font-family="Helvetica,sans-Serif" font-size="10.00">Tensors</text>
</a>
</g>
</g>
<!-- Node1&#45;&gt;Node13 -->
<g id="edge16" class="edge">
<title>Node1&#45;&gt;Node13</title>
<path fill="none" stroke="midnightblue" d="M833.91,-136.16C823.19,-115.14 802.71,-82.1 774,-67 718.4,-37.75 646.15,-36.42 593.02,-40.98"/>
<polygon fill="midnightblue" stroke="midnightblue" points="830.87,-137.91 838.38,-145.39 837.16,-134.86 830.87,-137.91"/>
</g>
<!-- Node14 -->
<g id="node14" class="node">
<title>Node14</title>
<g id="a_node14"><a xlink:href="helper__eigenTensorConversion_8hpp.html#a1c806578084d178c05d1660894693538" target="_top" xlink:title=" ">
<polygon fill="none" stroke="black" points="668,-0.5 668,-19.5 735,-19.5 735,-0.5 668,-0.5"/>
<text text-anchor="middle" x="701.5" y="-7.5" font-family="Helvetica,sans-Serif" font-size="10.00">TensorCast</text>
</a>
</g>
</g>
<!-- Node1&#45;&gt;Node14 -->
<g id="edge18" class="edge">
<title>Node1&#45;&gt;Node14</title>
<path fill="none" stroke="midnightblue" d="M836.46,-135.55C827.21,-108.91 807.06,-61.27 774,-34 762.99,-24.92 748.39,-19.22 735.26,-15.67"/>
<polygon fill="midnightblue" stroke="midnightblue" points="833.2,-136.86 839.66,-145.26 839.85,-134.67 833.2,-136.86"/>
</g>
<!-- Node3 -->
<g id="node3" class="node">
<title>Node3</title>
<g id="a_node3"><a xlink:href="classPotentialHydrodynamics.html#a929a5cd3ab1afe2e78fc2a18a16c423d" target="_top" xlink:title="Updates all hydrodynamic quantities at current configuration (data from SystemData)">
<polygon fill="none" stroke="black" points="458,-252 458,-282 581,-282 581,-252 458,-252"/>
<text text-anchor="start" x="466" y="-270" font-family="Helvetica,sans-Serif" font-size="10.00">PotentialHydrodynamics</text>
<text text-anchor="middle" x="519.5" y="-259" font-family="Helvetica,sans-Serif" font-size="10.00">::update</text>
</a>
</g>
</g>
<!-- Node2&#45;&gt;Node3 -->
<g id="edge2" class="edge">
<title>Node2&#45;&gt;Node3</title>
<path fill="none" stroke="midnightblue" d="M635.3,-298.25C615.79,-292.94 594.6,-287.17 575.79,-282.05"/>
<polygon fill="midnightblue" stroke="midnightblue" points="634.46,-301.65 645.03,-300.9 636.3,-294.89 634.46,-301.65"/>
</g>
<!-- Node4 -->
<g id="node4" class="node">
<title>Node4</title>
<g id="a_node4"><a xlink:href="classPotentialHydrodynamics.html#a7ef38402d3034fd4009ded220d8438fc" target="_top" xlink:title="Construct a new potential hydrodynamics object.">
<polygon fill="none" stroke="black" points="281,-252 281,-282 410,-282 410,-252 281,-252"/>
<text text-anchor="start" x="289" y="-270" font-family="Helvetica,sans-Serif" font-size="10.00">PotentialHydrodynamics</text>
<text text-anchor="middle" x="345.5" y="-259" font-family="Helvetica,sans-Serif" font-size="10.00">::PotentialHydrodynamics</text>
</a>
</g>
</g>
<!-- Node3&#45;&gt;Node4 -->
<g id="edge3" class="edge">
<title>Node3&#45;&gt;Node4</title>
<path fill="none" stroke="midnightblue" d="M447.55,-267C435.14,-267 422.29,-267 410.09,-267"/>
<polygon fill="midnightblue" stroke="midnightblue" points="447.86,-270.5 457.86,-267 447.86,-263.5 447.86,-270.5"/>
</g>
<!-- Node5&#45;&gt;Node3 -->
<g id="edge5" class="edge">
<title>Node5&#45;&gt;Node3</title>
<path fill="none" stroke="midnightblue" d="M629.47,-267C613.51,-267 596.72,-267 581.23,-267"/>
<polygon fill="midnightblue" stroke="midnightblue" points="629.81,-270.5 639.81,-267 629.81,-263.5 629.81,-270.5"/>
</g>
<!-- Node6&#45;&gt;Node3 -->
<g id="edge7" class="edge">
<title>Node6&#45;&gt;Node3</title>
<path fill="none" stroke="midnightblue" d="M635.3,-235.75C615.79,-241.06 594.6,-246.83 575.79,-251.95"/>
<polygon fill="midnightblue" stroke="midnightblue" points="636.3,-239.11 645.03,-233.1 634.46,-232.35 636.3,-239.11"/>
</g>
<!-- Node8 -->
<g id="node8" class="node">
<title>Node8</title>
<g id="a_node8"><a xlink:href="classSystemData.html#aa1dc8988cbb137f2667af95ca52a709c" target="_top" xlink:title="Updates all relevant rigid body motion tensors, respective gradients, and kinematic/Udwadia constrain...">
<polygon fill="none" stroke="black" points="292,-105.5 292,-124.5 399,-124.5 399,-105.5 292,-105.5"/>
<text text-anchor="middle" x="345.5" y="-112.5" font-family="Helvetica,sans-Serif" font-size="10.00">SystemData::update</text>
</a>
</g>
</g>
<!-- Node7&#45;&gt;Node8 -->
<g id="edge9" class="edge">
<title>Node7&#45;&gt;Node8</title>
<path fill="none" stroke="midnightblue" d="M462.79,-152.86C433.77,-143.41 399.48,-132.25 375.68,-124.5"/>
<polygon fill="midnightblue" stroke="midnightblue" points="461.81,-156.23 472.41,-155.99 463.98,-149.57 461.81,-156.23"/>
</g>
<!-- Node9 -->
<g id="node9" class="node">
<title>Node9</title>
<g id="a_node9"><a xlink:href="classSystemData.html#ac3a796dc8bf1fa82ea6dec33e548924f" target="_top" xlink:title="Function loads data from GSD file using GSDUtil class.">
<polygon fill="none" stroke="black" points="111,-105.5 111,-124.5 245,-124.5 245,-105.5 111,-105.5"/>
<text text-anchor="middle" x="178" y="-112.5" font-family="Helvetica,sans-Serif" font-size="10.00">SystemData::initializeData</text>
</a>
</g>
</g>
<!-- Node8&#45;&gt;Node9 -->
<g id="edge10" class="edge">
<title>Node8&#45;&gt;Node9</title>
<path fill="none" stroke="midnightblue" d="M281.45,-115C269.61,-115 257.2,-115 245.27,-115"/>
<polygon fill="midnightblue" stroke="midnightblue" points="281.68,-118.5 291.68,-115 281.68,-111.5 281.68,-118.5"/>
</g>
<!-- Node10 -->
<g id="node10" class="node">
<title>Node10</title>
<g id="a_node10"><a xlink:href="TestSimulation_8cpp.html#a227401f331fbabbd263158efc43b3bf6" target="_top" xlink:title=" ">
<polygon fill="none" stroke="black" points="0,-105.5 0,-124.5 75,-124.5 75,-105.5 0,-105.5"/>
<text text-anchor="middle" x="37.5" y="-112.5" font-family="Helvetica,sans-Serif" font-size="10.00">TEST_CASE</text>
</a>
</g>
</g>
<!-- Node9&#45;&gt;Node10 -->
<g id="edge11" class="edge">
<title>Node9&#45;&gt;Node10</title>
<path fill="none" stroke="midnightblue" d="M100.94,-115C92.06,-115 83.33,-115 75.34,-115"/>
<polygon fill="midnightblue" stroke="midnightblue" points="101,-118.5 111,-115 101,-111.5 101,-118.5"/>
</g>
<!-- Node11&#45;&gt;Node8 -->
<g id="edge13" class="edge">
<title>Node11&#45;&gt;Node8</title>
<path fill="none" stroke="midnightblue" d="M436,-115C423.41,-115 410.72,-115 399.01,-115"/>
<polygon fill="midnightblue" stroke="midnightblue" points="436.06,-118.5 446.06,-115 436.05,-111.5 436.06,-118.5"/>
</g>
<!-- Node12&#45;&gt;Node11 -->
<g id="edge15" class="edge">
<title>Node12&#45;&gt;Node11</title>
<path fill="none" stroke="midnightblue" d="M618.75,-102.45C610.09,-103.55 601.33,-104.67 592.79,-105.76"/>
<polygon fill="midnightblue" stroke="midnightblue" points="619.37,-105.9 628.84,-101.16 618.48,-98.95 619.37,-105.9"/>
</g>
<!-- Node13&#45;&gt;Node8 -->
<g id="edge17" class="edge">
<title>Node13&#45;&gt;Node8</title>
<path fill="none" stroke="midnightblue" d="M467.87,-70.54C436.63,-81.99 397.86,-96.19 372.66,-105.42"/>
<polygon fill="midnightblue" stroke="midnightblue" points="469.12,-73.82 477.3,-67.09 466.71,-67.24 469.12,-73.82"/>
</g>
</g>
</svg>
