<?xml version="1.0" encoding="UTF-8" standalone="no"?>
<!DOCTYPE svg PUBLIC "-//W3C//DTD SVG 1.1//EN"
 "http://www.w3.org/Graphics/SVG/1.1/DTD/svg11.dtd">
<!-- Generated by graphviz version 2.43.0 (0)
 -->
<!-- Title: clamp Pages: 1 -->
<svg width="234pt" height="85pt"
 viewBox="0.00 0.00 234.00 85.00" xmlns="http://www.w3.org/2000/svg" xmlns:xlink="http://www.w3.org/1999/xlink">
<g id="graph0" class="graph" transform="scale(1 1) rotate(0) translate(4 81)">
<title>clamp</title>
<!-- Node1 -->
<g id="node1" class="node">
<title>Node1</title>
<g id="a_node1"><a xlink:title=" ">
<polygon fill="#bfbfbf" stroke="black" points="0,-19.5 0,-38.5 43,-38.5 43,-19.5 0,-19.5"/>
<text text-anchor="middle" x="21.5" y="-26.5" font-family="Helvetica,sans-Serif" font-size="10.00">clamp</text>
</a>
</g>
</g>
<!-- Node2 -->
<g id="node2" class="node">
<title>Node2</title>
<g id="a_node2"><a xlink:href="helper__math_8h.html#a4e52302c6978bafbb9336fc91bc8aee6" target="_top" xlink:title=" ">
<polygon fill="none" stroke="black" points="92.5,-38.5 92.5,-57.5 135.5,-57.5 135.5,-38.5 92.5,-38.5"/>
<text text-anchor="middle" x="114" y="-45.5" font-family="Helvetica,sans-Serif" font-size="10.00">clamp</text>
</a>
</g>
</g>
<!-- Node1&#45;&gt;Node2 -->
<g id="edge1" class="edge">
<title>Node1&#45;&gt;Node2</title>
<path fill="none" stroke="midnightblue" d="M43.04,-33.31C54.64,-35.75 69.37,-38.84 82.32,-41.56"/>
<polygon fill="midnightblue" stroke="midnightblue" points="81.73,-45.01 92.23,-43.64 83.16,-38.16 81.73,-45.01"/>
</g>
<!-- Node5 -->
<g id="node5" class="node">
<title>Node5</title>
<g id="a_node5"><a xlink:href="helper__math_8h.html#ae157a97cf7d77e6a05db0e0d22b85fb7" target="_top" xlink:title=" ">
<polygon fill="none" stroke="black" points="79,-0.5 79,-19.5 149,-19.5 149,-0.5 79,-0.5"/>
<text text-anchor="middle" x="114" y="-7.5" font-family="Helvetica,sans-Serif" font-size="10.00">make_float2</text>
</a>
</g>
</g>
<!-- Node1&#45;&gt;Node5 -->
<g id="edge4" class="edge">
<title>Node1&#45;&gt;Node5</title>
<path fill="none" stroke="midnightblue" d="M43.04,-24.69C50.69,-23.08 59.7,-21.19 68.67,-19.31"/>
<polygon fill="midnightblue" stroke="midnightblue" points="69.63,-22.68 78.7,-17.2 68.19,-15.83 69.63,-22.68"/>
</g>
<!-- Node3 -->
<g id="node3" class="node">
<title>Node3</title>
<g id="a_node3"><a xlink:href="helper__math_8h.html#a2e3ea020fe010be1ba2da473f17223b7" target="_top" xlink:title=" ">
<polygon fill="none" stroke="black" points="185,-57.5 185,-76.5 226,-76.5 226,-57.5 185,-57.5"/>
<text text-anchor="middle" x="205.5" y="-64.5" font-family="Helvetica,sans-Serif" font-size="10.00">fmaxf</text>
</a>
</g>
</g>
<!-- Node2&#45;&gt;Node3 -->
<g id="edge2" class="edge">
<title>Node2&#45;&gt;Node3</title>
<path fill="none" stroke="midnightblue" d="M135.76,-52.41C147.41,-54.88 162.15,-58.01 174.98,-60.73"/>
<polygon fill="midnightblue" stroke="midnightblue" points="174.27,-64.16 184.78,-62.81 175.72,-57.31 174.27,-64.16"/>
</g>
<!-- Node4 -->
<g id="node4" class="node">
<title>Node4</title>
<g id="a_node4"><a xlink:href="helper__math_8h.html#a550f4f667b306665a335168336fc95b3" target="_top" xlink:title=" ">
<polygon fill="none" stroke="black" points="186.5,-19.5 186.5,-38.5 224.5,-38.5 224.5,-19.5 186.5,-19.5"/>
<text text-anchor="middle" x="205.5" y="-26.5" font-family="Helvetica,sans-Serif" font-size="10.00">fminf</text>
</a>
</g>
</g>
<!-- Node2&#45;&gt;Node4 -->
<g id="edge3" class="edge">
<title>Node2&#45;&gt;Node4</title>
<path fill="none" stroke="midnightblue" d="M135.76,-43.59C147.82,-41.03 163.18,-37.77 176.32,-34.98"/>
<polygon fill="midnightblue" stroke="midnightblue" points="177.23,-38.37 186.28,-32.87 175.77,-31.52 177.23,-38.37"/>
</g>
</g>
</svg>
