<?xml version="1.0" encoding="UTF-8" standalone="no"?>
<!DOCTYPE svg PUBLIC "-//W3C//DTD SVG 1.1//EN"
 "http://www.w3.org/Graphics/SVG/1.1/DTD/svg11.dtd">
<!-- Generated by graphviz version 2.43.0 (0)
 -->
<!-- Title: abs Pages: 1 -->
<svg width="236pt" height="66pt"
 viewBox="0.00 0.00 236.00 66.00" xmlns="http://www.w3.org/2000/svg" xmlns:xlink="http://www.w3.org/1999/xlink">
<g id="graph0" class="graph" transform="scale(1 1) rotate(0) translate(4 62)">
<title>abs</title>
<!-- Node1 -->
<g id="node1" class="node">
<title>Node1</title>
<g id="a_node1"><a xlink:title=" ">
<polygon fill="#bfbfbf" stroke="black" points="0,-19.5 0,-38.5 32,-38.5 32,-19.5 0,-19.5"/>
<text text-anchor="middle" x="16" y="-26.5" font-family="Helvetica,sans-Serif" font-size="10.00">abs</text>
</a>
</g>
</g>
<!-- Node2 -->
<g id="node2" class="node">
<title>Node2</title>
<g id="a_node2"><a xlink:href="helper__math_8h.html#ae4378072f9d836b0d4770a1514db2be3" target="_top" xlink:title=" ">
<polygon fill="none" stroke="black" points="83,-38.5 83,-57.5 115,-57.5 115,-38.5 83,-38.5"/>
<text text-anchor="middle" x="99" y="-45.5" font-family="Helvetica,sans-Serif" font-size="10.00">abs</text>
</a>
</g>
</g>
<!-- Node1&#45;&gt;Node2 -->
<g id="edge1" class="edge">
<title>Node1&#45;&gt;Node2</title>
<path fill="none" stroke="midnightblue" d="M32.24,-32.57C43.66,-35.25 59.56,-38.98 72.86,-42.1"/>
<polygon fill="midnightblue" stroke="midnightblue" points="72.3,-45.57 82.83,-44.44 73.9,-38.75 72.3,-45.57"/>
</g>
<!-- Node4 -->
<g id="node4" class="node">
<title>Node4</title>
<g id="a_node4"><a xlink:href="helper__math_8h.html#aa72ad70768ab882bd2d74319b3afbcbe" target="_top" xlink:title=" ">
<polygon fill="none" stroke="black" points="68,-0.5 68,-19.5 130,-19.5 130,-0.5 68,-0.5"/>
<text text-anchor="middle" x="99" y="-7.5" font-family="Helvetica,sans-Serif" font-size="10.00">make_int3</text>
</a>
</g>
</g>
<!-- Node1&#45;&gt;Node4 -->
<g id="edge3" class="edge">
<title>Node1&#45;&gt;Node4</title>
<path fill="none" stroke="midnightblue" d="M32.24,-25.43C39.57,-23.71 48.75,-21.55 57.9,-19.41"/>
<polygon fill="midnightblue" stroke="midnightblue" points="58.8,-22.79 67.73,-17.1 57.2,-15.98 58.8,-22.79"/>
</g>
<!-- Node3 -->
<g id="node3" class="node">
<title>Node3</title>
<g id="a_node3"><a xlink:href="helper__math_8h.html#a3be05aff487ded3c05aab21d24dd6439" target="_top" xlink:title=" ">
<polygon fill="none" stroke="black" points="166,-38.5 166,-57.5 228,-57.5 228,-38.5 166,-38.5"/>
<text text-anchor="middle" x="197" y="-45.5" font-family="Helvetica,sans-Serif" font-size="10.00">make_int2</text>
</a>
</g>
</g>
<!-- Node2&#45;&gt;Node3 -->
<g id="edge2" class="edge">
<title>Node2&#45;&gt;Node3</title>
<path fill="none" stroke="midnightblue" d="M115.42,-48C126.34,-48 141.52,-48 155.76,-48"/>
<polygon fill="midnightblue" stroke="midnightblue" points="155.89,-51.5 165.89,-48 155.89,-44.5 155.89,-51.5"/>
</g>
</g>
</svg>
