<?xml version="1.0" encoding="UTF-8" standalone="no"?>
<!DOCTYPE svg PUBLIC "-//W3C//DTD SVG 1.1//EN"
 "http://www.w3.org/Graphics/SVG/1.1/DTD/svg11.dtd">
<!-- Generated by graphviz version 2.49.1 (20210923.0004)
 -->
<!-- Title: cross Pages: 1 -->
<svg width="155pt" height="46pt"
 viewBox="0.00 0.00 155.00 46.00" xmlns="http://www.w3.org/2000/svg" xmlns:xlink="http://www.w3.org/1999/xlink">
<g id="graph0" class="graph" transform="scale(1 1) rotate(0) translate(4 42)">
<title>cross</title>
<!-- Node1 -->
<g id="node1" class="node">
<title>Node1</title>
<g id="a_node1"><a xlink:title=" ">
<polygon fill="#bfbfbf" stroke="black" points="0,-0.5 0,-19.5 40,-19.5 40,-0.5 0,-0.5"/>
<text text-anchor="middle" x="20" y="-7.5" font-family="Helvetica,sans-Serif" font-size="10.00">cross</text>
</a>
</g>
</g>
<!-- Node2 -->
<g id="node2" class="node">
<title>Node2</title>
<g id="a_node2"><a xlink:href="helper__math_8h.html#aff0ce950ea54e88da8eb7226e215646e" target="_top" xlink:title=" ">
<polygon fill="none" stroke="black" points="76,-0.5 76,-19.5 147,-19.5 147,-0.5 76,-0.5"/>
<text text-anchor="middle" x="111.5" y="-7.5" font-family="Helvetica,sans-Serif" font-size="10.00">make_float3</text>
</a>
</g>
</g>
<!-- Node1&#45;&gt;Node2 -->
<g id="edge1" class="edge">
<title>Node1&#45;&gt;Node2</title>
<path fill="none" stroke="midnightblue" d="M40.42,-10C47.97,-10 56.94,-10 65.91,-10"/>
<polygon fill="midnightblue" stroke="midnightblue" points="65.96,-13.5 75.96,-10 65.96,-6.5 65.96,-13.5"/>
</g>
<!-- Node2&#45;&gt;Node2 -->
<g id="edge2" class="edge">
<title>Node2&#45;&gt;Node2</title>
<path fill="none" stroke="midnightblue" d="M97.63,-19.76C90.88,-28.57 95.5,-38 111.5,-38 121.5,-38 127.05,-34.31 128.17,-29.4"/>
<polygon fill="midnightblue" stroke="midnightblue" points="131.52,-28.39 125.37,-19.76 124.79,-30.34 131.52,-28.39"/>
</g>
</g>
</svg>
