<?xml version="1.0" encoding="UTF-8" standalone="no"?>
<!DOCTYPE svg PUBLIC "-//W3C//DTD SVG 1.1//EN"
 "http://www.w3.org/Graphics/SVG/1.1/DTD/svg11.dtd">
<!-- Generated by graphviz version 2.43.0 (0)
 -->
<!-- Title: TensorCast Pages: 1 -->
<svg width="583pt" height="323pt"
 viewBox="0.00 0.00 583.00 322.50" xmlns="http://www.w3.org/2000/svg" xmlns:xlink="http://www.w3.org/1999/xlink">
<g id="graph0" class="graph" transform="scale(1 1) rotate(0) translate(4 318.5)">
<title>TensorCast</title>
<!-- Node1 -->
<g id="node1" class="node">
<title>Node1</title>
<g id="a_node1"><a xlink:title="Convert Eigen::Matrix &#45;&#45;&gt; Eigen::Tensor.">
<polygon fill="#bfbfbf" stroke="black" points="508,-142.5 508,-161.5 575,-161.5 575,-142.5 508,-142.5"/>
<text text-anchor="middle" x="541.5" y="-149.5" font-family="Helvetica,sans-Serif" font-size="10.00">TensorCast</text>
</a>
</g>
</g>
<!-- Node2 -->
<g id="node2" class="node">
<title>Node2</title>
<g id="a_node2"><a xlink:href="classpotentialHydrodynamics.html#ae78694d22e337a95daabdd0820a8be28" target="_top" xlink:title="Calculates m_M_added">
<polygon fill="none" stroke="black" points="338,-284 338,-314 460,-314 460,-284 338,-284"/>
<text text-anchor="start" x="346" y="-302" font-family="Helvetica,sans-Serif" font-size="10.00">potentialHydrodynamics</text>
<text text-anchor="middle" x="399" y="-291" font-family="Helvetica,sans-Serif" font-size="10.00">::calcAddedMassGrad</text>
</a>
</g>
</g>
<!-- Node1&#45;&gt;Node2 -->
<g id="edge1" class="edge">
<title>Node1&#45;&gt;Node2</title>
<path fill="none" stroke="midnightblue" d="M534.69,-171.37C525.62,-198.38 505.57,-247.17 472,-275 467.84,-278.45 463.17,-281.41 458.25,-283.95"/>
<polygon fill="midnightblue" stroke="midnightblue" points="538.12,-172.15 537.82,-161.56 531.45,-170.02 538.12,-172.15"/>
</g>
<!-- Node5 -->
<g id="node5" class="node">
<title>Node5</title>
<g id="a_node5"><a xlink:href="classpotentialHydrodynamics.html#a89622611b037fc10f3aacdf990c4a9f5" target="_top" xlink:title="Calculates m_F_hydro and m_F_hydroNoInertia">
<polygon fill="none" stroke="black" points="338,-235 338,-265 460,-265 460,-235 338,-235"/>
<text text-anchor="start" x="346" y="-253" font-family="Helvetica,sans-Serif" font-size="10.00">potentialHydrodynamics</text>
<text text-anchor="middle" x="399" y="-242" font-family="Helvetica,sans-Serif" font-size="10.00">::calcHydroForces</text>
</a>
</g>
</g>
<!-- Node1&#45;&gt;Node5 -->
<g id="edge4" class="edge">
<title>Node1&#45;&gt;Node5</title>
<path fill="none" stroke="midnightblue" d="M528.04,-169.98C515.61,-186.66 495.09,-211.11 472,-226 466.8,-229.36 461.08,-232.29 455.2,-234.84"/>
<polygon fill="midnightblue" stroke="midnightblue" points="531.06,-171.77 534.07,-161.61 525.38,-167.67 531.06,-171.77"/>
</g>
<!-- Node6 -->
<g id="node6" class="node">
<title>Node6</title>
<g id="a_node6"><a xlink:href="classpotentialHydrodynamics.html#a4ebdc0aa027f2a9e4f1f34bf781dffe9" target="_top" xlink:title="Calculates m_M_added">
<polygon fill="none" stroke="black" points="338,-186 338,-216 460,-216 460,-186 338,-186"/>
<text text-anchor="start" x="346" y="-204" font-family="Helvetica,sans-Serif" font-size="10.00">potentialHydrodynamics</text>
<text text-anchor="middle" x="399" y="-193" font-family="Helvetica,sans-Serif" font-size="10.00">::calcTotalMass</text>
</a>
</g>
</g>
<!-- Node1&#45;&gt;Node6 -->
<g id="edge6" class="edge">
<title>Node1&#45;&gt;Node6</title>
<path fill="none" stroke="midnightblue" d="M505.41,-165.02C494.7,-168.94 482.89,-173.2 472,-177 463.54,-179.95 454.5,-183.03 445.77,-185.96"/>
<polygon fill="midnightblue" stroke="midnightblue" points="506.68,-168.28 514.86,-161.55 504.27,-161.71 506.68,-168.28"/>
</g>
<!-- Node7 -->
<g id="node7" class="node">
<title>Node7</title>
<g id="a_node7"><a xlink:href="classsystemData.html#a2a35b86c91b3a2eb19612e6a2124a3ae" target="_top" xlink:title="Computes the particle D.o.F. from the body D.o.F.">
<polygon fill="none" stroke="black" points="331,-137 331,-167 467,-167 467,-137 331,-137"/>
<text text-anchor="start" x="339" y="-155" font-family="Helvetica,sans-Serif" font-size="10.00">systemData::convertBody2</text>
<text text-anchor="middle" x="399" y="-144" font-family="Helvetica,sans-Serif" font-size="10.00">ParticleDoF</text>
</a>
</g>
</g>
<!-- Node1&#45;&gt;Node7 -->
<g id="edge8" class="edge">
<title>Node1&#45;&gt;Node7</title>
<path fill="none" stroke="midnightblue" d="M497.74,-152C488.03,-152 477.49,-152 467.04,-152"/>
<polygon fill="midnightblue" stroke="midnightblue" points="497.91,-155.5 507.91,-152 497.91,-148.5 497.91,-155.5"/>
</g>
<!-- Node10 -->
<g id="node10" class="node">
<title>Node10</title>
<g id="a_node10"><a xlink:href="classsystemData.html#a3c41026c4b66d4f6e6e22a6398c6ced8" target="_top" xlink:title="Computes the gradients rigid body motion connectivity tensors and tensors associated with change of v...">
<polygon fill="none" stroke="black" points="327,-88 327,-118 471,-118 471,-88 327,-88"/>
<text text-anchor="start" x="335" y="-106" font-family="Helvetica,sans-Serif" font-size="10.00">systemData::gradientChange</text>
<text text-anchor="middle" x="399" y="-95" font-family="Helvetica,sans-Serif" font-size="10.00">OfVariableTensors</text>
</a>
</g>
</g>
<!-- Node1&#45;&gt;Node10 -->
<g id="edge11" class="edge">
<title>Node1&#45;&gt;Node10</title>
<path fill="none" stroke="midnightblue" d="M503.67,-139.08C493.42,-135.48 482.28,-131.59 472,-128 462.75,-124.78 452.84,-121.33 443.41,-118.05"/>
<polygon fill="midnightblue" stroke="midnightblue" points="502.58,-142.4 513.17,-142.41 504.89,-135.79 502.58,-142.4"/>
</g>
<!-- Node11 -->
<g id="node11" class="node">
<title>Node11</title>
<g id="a_node11"><a xlink:href="classsystemData.html#a05afc9e7e7423d88def51ec43ab91a33" target="_top" xlink:title="Computes the rigid body motion connectivity tensors.">
<polygon fill="none" stroke="black" points="326,-39 326,-69 472,-69 472,-39 326,-39"/>
<text text-anchor="start" x="334" y="-57" font-family="Helvetica,sans-Serif" font-size="10.00">systemData::rigidBodyMotion</text>
<text text-anchor="middle" x="399" y="-46" font-family="Helvetica,sans-Serif" font-size="10.00">Tensors</text>
</a>
</g>
</g>
<!-- Node1&#45;&gt;Node11 -->
<g id="edge13" class="edge">
<title>Node1&#45;&gt;Node11</title>
<path fill="none" stroke="midnightblue" d="M528.04,-134.02C515.61,-117.34 495.09,-92.89 472,-78 466.8,-74.64 461.08,-71.71 455.2,-69.16"/>
<polygon fill="midnightblue" stroke="midnightblue" points="525.38,-136.33 534.07,-142.39 531.06,-132.23 525.38,-136.33"/>
</g>
<!-- Node12 -->
<g id="node12" class="node">
<title>Node12</title>
<g id="a_node12"><a xlink:href="helper__eigenTensorConversion_8hpp.html#a1c806578084d178c05d1660894693538" target="_top" xlink:title=" ">
<polygon fill="none" stroke="black" points="365.5,-0.5 365.5,-19.5 432.5,-19.5 432.5,-0.5 365.5,-0.5"/>
<text text-anchor="middle" x="399" y="-7.5" font-family="Helvetica,sans-Serif" font-size="10.00">TensorCast</text>
</a>
</g>
</g>
<!-- Node1&#45;&gt;Node12 -->
<g id="edge15" class="edge">
<title>Node1&#45;&gt;Node12</title>
<path fill="none" stroke="midnightblue" d="M535.05,-132.69C526.32,-105.4 506.6,-55.87 472,-29 460.77,-20.28 445.9,-15.54 432.58,-12.98"/>
<polygon fill="midnightblue" stroke="midnightblue" points="531.7,-133.72 537.95,-142.28 538.4,-131.7 531.7,-133.72"/>
</g>
<!-- Node3 -->
<g id="node3" class="node">
<title>Node3</title>
<g id="a_node3"><a xlink:href="classpotentialHydrodynamics.html#aa9cd1bea38a16754f58110f1e190fb71" target="_top" xlink:title="Updates all hydrodynamic quantities at current configuration (data from systemData)">
<polygon fill="none" stroke="black" points="168,-235 168,-265 290,-265 290,-235 168,-235"/>
<text text-anchor="start" x="176" y="-253" font-family="Helvetica,sans-Serif" font-size="10.00">potentialHydrodynamics</text>
<text text-anchor="middle" x="229" y="-242" font-family="Helvetica,sans-Serif" font-size="10.00">::update</text>
</a>
</g>
</g>
<!-- Node2&#45;&gt;Node3 -->
<g id="edge2" class="edge">
<title>Node2&#45;&gt;Node3</title>
<path fill="none" stroke="midnightblue" d="M336.4,-281.03C318.4,-275.78 298.92,-270.1 281.61,-265.05"/>
<polygon fill="midnightblue" stroke="midnightblue" points="335.64,-284.46 346.22,-283.9 337.6,-277.74 335.64,-284.46"/>
</g>
<!-- Node4 -->
<g id="node4" class="node">
<title>Node4</title>
<g id="a_node4"><a xlink:href="classpotentialHydrodynamics.html#ae93f12dc4a892a191d52bf4754d4d99c" target="_top" xlink:title="Construct a new potential hydrodynamics object.">
<polygon fill="none" stroke="black" points="2,-235 2,-265 130,-265 130,-235 2,-235"/>
<text text-anchor="start" x="10" y="-253" font-family="Helvetica,sans-Serif" font-size="10.00">potentialHydrodynamics</text>
<text text-anchor="middle" x="66" y="-242" font-family="Helvetica,sans-Serif" font-size="10.00">::potentialHydrodynamics</text>
</a>
</g>
</g>
<!-- Node3&#45;&gt;Node4 -->
<g id="edge3" class="edge">
<title>Node3&#45;&gt;Node4</title>
<path fill="none" stroke="midnightblue" d="M157.44,-250C148.36,-250 139.12,-250 130.17,-250"/>
<polygon fill="midnightblue" stroke="midnightblue" points="157.59,-253.5 167.59,-250 157.59,-246.5 157.59,-253.5"/>
</g>
<!-- Node5&#45;&gt;Node3 -->
<g id="edge5" class="edge">
<title>Node5&#45;&gt;Node3</title>
<path fill="none" stroke="midnightblue" d="M327.48,-250C315.03,-250 302.17,-250 290.04,-250"/>
<polygon fill="midnightblue" stroke="midnightblue" points="327.82,-253.5 337.82,-250 327.82,-246.5 327.82,-253.5"/>
</g>
<!-- Node6&#45;&gt;Node3 -->
<g id="edge7" class="edge">
<title>Node6&#45;&gt;Node3</title>
<path fill="none" stroke="midnightblue" d="M336.4,-218.97C318.4,-224.22 298.92,-229.9 281.61,-234.95"/>
<polygon fill="midnightblue" stroke="midnightblue" points="337.6,-222.26 346.22,-216.1 335.64,-215.54 337.6,-222.26"/>
</g>
<!-- Node8 -->
<g id="node8" class="node">
<title>Node8</title>
<g id="a_node8"><a xlink:href="classsystemData.html#abe08e8ef40710f40f585342d24076085" target="_top" xlink:title="Updates all relevant rigid body motion tensors, respective gradients, and kinematic/Udwadia constrain...">
<polygon fill="none" stroke="black" points="176.5,-93.5 176.5,-112.5 281.5,-112.5 281.5,-93.5 176.5,-93.5"/>
<text text-anchor="middle" x="229" y="-100.5" font-family="Helvetica,sans-Serif" font-size="10.00">systemData::update</text>
</a>
</g>
</g>
<!-- Node7&#45;&gt;Node8 -->
<g id="edge9" class="edge">
<title>Node7&#45;&gt;Node8</title>
<path fill="none" stroke="midnightblue" d="M336.43,-134.04C311.41,-126.75 283.53,-118.61 262.58,-112.5"/>
<polygon fill="midnightblue" stroke="midnightblue" points="335.64,-137.46 346.22,-136.9 337.6,-130.74 335.64,-137.46"/>
</g>
<!-- Node9 -->
<g id="node9" class="node">
<title>Node9</title>
<g id="a_node9"><a xlink:href="classsystemData.html#ad2ba3455704ef6cec1aac76a417e91e9" target="_top" xlink:title="Function loads data from GSD file using GSDUtil class.">
<polygon fill="none" stroke="black" points="0,-93.5 0,-112.5 132,-112.5 132,-93.5 0,-93.5"/>
<text text-anchor="middle" x="66" y="-100.5" font-family="Helvetica,sans-Serif" font-size="10.00">systemData::initializeData</text>
</a>
</g>
</g>
<!-- Node8&#45;&gt;Node9 -->
<g id="edge10" class="edge">
<title>Node8&#45;&gt;Node9</title>
<path fill="none" stroke="midnightblue" d="M166.09,-103C154.92,-103 143.26,-103 132.01,-103"/>
<polygon fill="midnightblue" stroke="midnightblue" points="166.17,-106.5 176.17,-103 166.17,-99.5 166.17,-106.5"/>
</g>
<!-- Node10&#45;&gt;Node8 -->
<g id="edge12" class="edge">
<title>Node10&#45;&gt;Node8</title>
<path fill="none" stroke="midnightblue" d="M316.42,-103C304.61,-103 292.74,-103 281.74,-103"/>
<polygon fill="midnightblue" stroke="midnightblue" points="316.75,-106.5 326.75,-103 316.75,-99.5 316.75,-106.5"/>
</g>
<!-- Node11&#45;&gt;Node8 -->
<g id="edge14" class="edge">
<title>Node11&#45;&gt;Node8</title>
<path fill="none" stroke="midnightblue" d="M336.43,-71.96C311.41,-79.25 283.53,-87.39 262.58,-93.5"/>
<polygon fill="midnightblue" stroke="midnightblue" points="337.6,-75.26 346.22,-69.1 335.64,-68.54 337.6,-75.26"/>
</g>
</g>
</svg>
