<?xml version="1.0" encoding="UTF-8" standalone="no"?>
<!DOCTYPE svg PUBLIC "-//W3C//DTD SVG 1.1//EN"
 "http://www.w3.org/Graphics/SVG/1.1/DTD/svg11.dtd">
<!-- Generated by graphviz version 2.43.0 (0)
 -->
<!-- Title: TensorCast Pages: 1 -->
<svg width="910pt" height="329pt"
 viewBox="0.00 0.00 910.00 328.50" xmlns="http://www.w3.org/2000/svg" xmlns:xlink="http://www.w3.org/1999/xlink">
<g id="graph0" class="graph" transform="scale(1 1) rotate(0) translate(4 324.5)">
<title>TensorCast</title>
<!-- Node1 -->
<g id="node1" class="node">
<title>Node1</title>
<g id="a_node1"><a xlink:title="Convert Eigen::Matrix &#45;&#45;&gt; Eigen::Tensor.">
<polygon fill="#bfbfbf" stroke="black" points="835,-142.5 835,-161.5 902,-161.5 902,-142.5 835,-142.5"/>
<text text-anchor="middle" x="868.5" y="-149.5" font-family="Helvetica,sans-Serif" font-size="10.00">TensorCast</text>
</a>
</g>
</g>
<!-- Node2 -->
<g id="node2" class="node">
<title>Node2</title>
<g id="a_node2"><a xlink:href="classPotentialHydrodynamics.html#a1f22d16e1aa9f675611d2394d76cd595" target="_top" xlink:title="Calculates m_F_hydro and m_F_hydroNoInertia">
<polygon fill="none" stroke="black" points="652.5,-290 652.5,-320 775.5,-320 775.5,-290 652.5,-290"/>
<text text-anchor="start" x="660.5" y="-308" font-family="Helvetica,sans-Serif" font-size="10.00">PotentialHydrodynamics</text>
<text text-anchor="middle" x="714" y="-297" font-family="Helvetica,sans-Serif" font-size="10.00">::calcHydroForces</text>
</a>
</g>
</g>
<!-- Node1&#45;&gt;Node2 -->
<g id="edge1" class="edge">
<title>Node1&#45;&gt;Node2</title>
<path fill="none" stroke="midnightblue" d="M862.37,-171.72C853.95,-200.12 834.5,-252.27 799,-281 792.16,-286.53 784.11,-290.79 775.75,-294.07"/>
<polygon fill="midnightblue" stroke="midnightblue" points="865.82,-172.35 865.15,-161.78 859.08,-170.47 865.82,-172.35"/>
</g>
<!-- Node5 -->
<g id="node5" class="node">
<title>Node5</title>
<g id="a_node5"><a xlink:href="classPotentialHydrodynamics.html#a166daae7d4c96b24e80d9920f566e6f5" target="_top" xlink:title="Calculates m_M_added">
<polygon fill="none" stroke="black" points="652.5,-241 652.5,-271 775.5,-271 775.5,-241 652.5,-241"/>
<text text-anchor="start" x="660.5" y="-259" font-family="Helvetica,sans-Serif" font-size="10.00">PotentialHydrodynamics</text>
<text text-anchor="middle" x="714" y="-248" font-family="Helvetica,sans-Serif" font-size="10.00">::calcTotalMass</text>
</a>
</g>
</g>
<!-- Node1&#45;&gt;Node5 -->
<g id="edge4" class="edge">
<title>Node1&#45;&gt;Node5</title>
<path fill="none" stroke="midnightblue" d="M854.97,-169.87C842.49,-186.47 821.93,-210.86 799,-226 789.95,-231.97 779.57,-236.92 769.27,-240.96"/>
<polygon fill="midnightblue" stroke="midnightblue" points="857.97,-171.69 861.03,-161.55 852.31,-167.57 857.97,-171.69"/>
</g>
<!-- Node6 -->
<g id="node6" class="node">
<title>Node6</title>
<g id="a_node6"><a xlink:href="classSystemData.html#aa3a9fae706cf141ed66c05736656fdba" target="_top" xlink:title="Computes the particle D.o.F. from the body D.o.F.">
<polygon fill="none" stroke="black" points="451,-192 451,-222 588,-222 588,-192 451,-192"/>
<text text-anchor="start" x="459" y="-210" font-family="Helvetica,sans-Serif" font-size="10.00">SystemData::convertBody2</text>
<text text-anchor="middle" x="519.5" y="-199" font-family="Helvetica,sans-Serif" font-size="10.00">ParticleVelAcc</text>
</a>
</g>
</g>
<!-- Node1&#45;&gt;Node6 -->
<g id="edge6" class="edge">
<title>Node1&#45;&gt;Node6</title>
<path fill="none" stroke="midnightblue" d="M825.06,-163.29C816.47,-165.36 807.48,-167.37 799,-169 727.47,-182.71 644.68,-193.35 588.08,-199.84"/>
<polygon fill="midnightblue" stroke="midnightblue" points="826.04,-166.65 834.91,-160.85 824.36,-159.85 826.04,-166.65"/>
</g>
<!-- Node10 -->
<g id="node10" class="node">
<title>Node10</title>
<g id="a_node10"><a xlink:href="classSystemData.html#a0aa3296e765575ba6397b5f71bf892a8" target="_top" xlink:title="Computes the gradients rigid body motion connectivity tensors and tensors associated with change of v...">
<polygon fill="none" stroke="black" points="446.5,-132 446.5,-162 592.5,-162 592.5,-132 446.5,-132"/>
<text text-anchor="start" x="454.5" y="-150" font-family="Helvetica,sans-Serif" font-size="10.00">SystemData::gradientChange</text>
<text text-anchor="middle" x="519.5" y="-139" font-family="Helvetica,sans-Serif" font-size="10.00">OfVariableTensors</text>
</a>
</g>
</g>
<!-- Node1&#45;&gt;Node10 -->
<g id="edge10" class="edge">
<title>Node1&#45;&gt;Node10</title>
<path fill="none" stroke="midnightblue" d="M824.64,-154.17C816.14,-154.51 807.29,-154.82 799,-155 723.46,-156.65 704.5,-157.78 629,-155 617.2,-154.57 604.7,-153.87 592.54,-153.06"/>
<polygon fill="midnightblue" stroke="midnightblue" points="824.92,-157.66 834.76,-153.73 824.61,-150.66 824.92,-157.66"/>
</g>
<!-- Node11 -->
<g id="node11" class="node">
<title>Node11</title>
<g id="a_node11"><a xlink:href="classSystemData.html#a95b4afa16b44bb89aac9e8ef9e64845b" target="_top" xlink:title="Computes \nabla_{\xi} \Sigma_{i \alpha} tensor for given particle number and body number.">
<polygon fill="none" stroke="black" points="629,-115 629,-145 799,-145 799,-115 629,-115"/>
<text text-anchor="start" x="637" y="-133" font-family="Helvetica,sans-Serif" font-size="10.00">SystemData::gradRbmConnTensor</text>
<text text-anchor="middle" x="714" y="-122" font-family="Helvetica,sans-Serif" font-size="10.00">Element</text>
</a>
</g>
</g>
<!-- Node1&#45;&gt;Node11 -->
<g id="edge12" class="edge">
<title>Node1&#45;&gt;Node11</title>
<path fill="none" stroke="midnightblue" d="M824.86,-145.85C816.73,-144.68 807.95,-143.41 799.04,-142.12"/>
<polygon fill="midnightblue" stroke="midnightblue" points="824.39,-149.32 834.78,-147.28 825.39,-142.39 824.39,-149.32"/>
</g>
<!-- Node12 -->
<g id="node12" class="node">
<title>Node12</title>
<g id="a_node12"><a xlink:href="classRungeKutta4.html#acca3997f41542bb0536436fbb64e4b40" target="_top" xlink:title="(linear/angular) momentum and (linear/angular) force free algorithm">
<polygon fill="none" stroke="black" points="641,-76.5 641,-95.5 787,-95.5 787,-76.5 641,-76.5"/>
<text text-anchor="middle" x="714" y="-83.5" font-family="Helvetica,sans-Serif" font-size="10.00">RungeKutta4::momForceFree</text>
</a>
</g>
</g>
<!-- Node1&#45;&gt;Node12 -->
<g id="edge14" class="edge">
<title>Node1&#45;&gt;Node12</title>
<path fill="none" stroke="midnightblue" d="M847.89,-136.05C834.76,-126.1 816.7,-113.75 799,-106 789.25,-101.73 778.45,-98.29 767.92,-95.55"/>
<polygon fill="midnightblue" stroke="midnightblue" points="846.09,-139.09 856.13,-142.48 850.4,-133.57 846.09,-139.09"/>
</g>
<!-- Node14 -->
<g id="node14" class="node">
<title>Node14</title>
<g id="a_node14"><a xlink:href="classSystemData.html#a48585dcdee2612bc4ee815bb599c1679" target="_top" xlink:title="Computes the rigid body motion connectivity tensors.">
<polygon fill="none" stroke="black" points="446,-33 446,-63 593,-63 593,-33 446,-33"/>
<text text-anchor="start" x="454" y="-51" font-family="Helvetica,sans-Serif" font-size="10.00">SystemData::rigidBodyMotion</text>
<text text-anchor="middle" x="519.5" y="-40" font-family="Helvetica,sans-Serif" font-size="10.00">Tensors</text>
</a>
</g>
</g>
<!-- Node1&#45;&gt;Node14 -->
<g id="edge16" class="edge">
<title>Node1&#45;&gt;Node14</title>
<path fill="none" stroke="midnightblue" d="M858.54,-133.52C847.6,-113.23 827.02,-81.6 799,-67 735.28,-33.8 651.97,-32.68 593.12,-37.62"/>
<polygon fill="midnightblue" stroke="midnightblue" points="855.44,-135.15 863.13,-142.45 861.67,-131.95 855.44,-135.15"/>
</g>
<!-- Node15 -->
<g id="node15" class="node">
<title>Node15</title>
<g id="a_node15"><a xlink:href="helper__eigenTensorConversion_8hpp.html#a1c806578084d178c05d1660894693538" target="_top" xlink:title=" ">
<polygon fill="none" stroke="black" points="680.5,-0.5 680.5,-19.5 747.5,-19.5 747.5,-0.5 680.5,-0.5"/>
<text text-anchor="middle" x="714" y="-7.5" font-family="Helvetica,sans-Serif" font-size="10.00">TensorCast</text>
</a>
</g>
</g>
<!-- Node1&#45;&gt;Node15 -->
<g id="edge18" class="edge">
<title>Node1&#45;&gt;Node15</title>
<path fill="none" stroke="midnightblue" d="M861.49,-132.82C852.29,-106.59 832.18,-59.84 799,-34 784.28,-22.54 764.31,-16.55 747.54,-13.42"/>
<polygon fill="midnightblue" stroke="midnightblue" points="858.2,-134.01 864.68,-142.39 864.84,-131.79 858.2,-134.01"/>
</g>
<!-- Node3 -->
<g id="node3" class="node">
<title>Node3</title>
<g id="a_node3"><a xlink:href="classPotentialHydrodynamics.html#af46b6fe2ab386a26a3e0b6c1fee527cb" target="_top" xlink:title="Updates all hydrodynamic quantities at current configuration (data from SystemData)">
<polygon fill="none" stroke="black" points="458,-246 458,-276 581,-276 581,-246 458,-246"/>
<text text-anchor="start" x="466" y="-264" font-family="Helvetica,sans-Serif" font-size="10.00">PotentialHydrodynamics</text>
<text text-anchor="middle" x="519.5" y="-253" font-family="Helvetica,sans-Serif" font-size="10.00">::update</text>
</a>
</g>
</g>
<!-- Node2&#45;&gt;Node3 -->
<g id="edge2" class="edge">
<title>Node2&#45;&gt;Node3</title>
<path fill="none" stroke="midnightblue" d="M642.34,-288.85C622.27,-284.26 600.59,-279.31 581.17,-274.87"/>
<polygon fill="midnightblue" stroke="midnightblue" points="641.83,-292.32 652.36,-291.14 643.39,-285.5 641.83,-292.32"/>
</g>
<!-- Node4 -->
<g id="node4" class="node">
<title>Node4</title>
<g id="a_node4"><a xlink:href="classPotentialHydrodynamics.html#a7ef38402d3034fd4009ded220d8438fc" target="_top" xlink:title="Construct a new potential hydrodynamics object.">
<polygon fill="none" stroke="black" points="281,-246 281,-276 410,-276 410,-246 281,-246"/>
<text text-anchor="start" x="289" y="-264" font-family="Helvetica,sans-Serif" font-size="10.00">PotentialHydrodynamics</text>
<text text-anchor="middle" x="345.5" y="-253" font-family="Helvetica,sans-Serif" font-size="10.00">::PotentialHydrodynamics</text>
</a>
</g>
</g>
<!-- Node3&#45;&gt;Node4 -->
<g id="edge3" class="edge">
<title>Node3&#45;&gt;Node4</title>
<path fill="none" stroke="midnightblue" d="M447.55,-261C435.14,-261 422.29,-261 410.09,-261"/>
<polygon fill="midnightblue" stroke="midnightblue" points="447.86,-264.5 457.86,-261 447.86,-257.5 447.86,-264.5"/>
</g>
<!-- Node5&#45;&gt;Node3 -->
<g id="edge5" class="edge">
<title>Node5&#45;&gt;Node3</title>
<path fill="none" stroke="midnightblue" d="M642.34,-257.84C622.27,-258.36 600.59,-258.92 581.17,-259.42"/>
<polygon fill="midnightblue" stroke="midnightblue" points="642.45,-261.33 652.36,-257.58 642.27,-254.34 642.45,-261.33"/>
</g>
<!-- Node7 -->
<g id="node7" class="node">
<title>Node7</title>
<g id="a_node7"><a xlink:href="classSystemData.html#a96d6dfb7bdb78d98fbbdac1f421c838c" target="_top" xlink:title="Updates all relevant rigid body motion tensors, respective gradients, and kinematic/Udwadia constrain...">
<polygon fill="none" stroke="black" points="292,-137.5 292,-156.5 399,-156.5 399,-137.5 292,-137.5"/>
<text text-anchor="middle" x="345.5" y="-144.5" font-family="Helvetica,sans-Serif" font-size="10.00">SystemData::update</text>
</a>
</g>
</g>
<!-- Node6&#45;&gt;Node7 -->
<g id="edge7" class="edge">
<title>Node6&#45;&gt;Node7</title>
<path fill="none" stroke="midnightblue" d="M465.49,-188.51C435.14,-177.92 398.32,-165.08 373.75,-156.51"/>
<polygon fill="midnightblue" stroke="midnightblue" points="464.5,-191.87 475.1,-191.86 466.81,-185.26 464.5,-191.87"/>
</g>
<!-- Node8 -->
<g id="node8" class="node">
<title>Node8</title>
<g id="a_node8"><a xlink:href="classSystemData.html#ac3a796dc8bf1fa82ea6dec33e548924f" target="_top" xlink:title="Function loads data from GSD file using GSDUtil class.">
<polygon fill="none" stroke="black" points="111,-137.5 111,-156.5 245,-156.5 245,-137.5 111,-137.5"/>
<text text-anchor="middle" x="178" y="-144.5" font-family="Helvetica,sans-Serif" font-size="10.00">SystemData::initializeData</text>
</a>
</g>
</g>
<!-- Node7&#45;&gt;Node8 -->
<g id="edge8" class="edge">
<title>Node7&#45;&gt;Node8</title>
<path fill="none" stroke="midnightblue" d="M281.45,-147C269.61,-147 257.2,-147 245.27,-147"/>
<polygon fill="midnightblue" stroke="midnightblue" points="281.68,-150.5 291.68,-147 281.68,-143.5 281.68,-150.5"/>
</g>
<!-- Node9 -->
<g id="node9" class="node">
<title>Node9</title>
<g id="a_node9"><a xlink:href="TestSimulation_8cpp.html#a7537b8ac7073aed4bf8255b43bbbf1f9" target="_top" xlink:title=" ">
<polygon fill="none" stroke="black" points="0,-137.5 0,-156.5 75,-156.5 75,-137.5 0,-137.5"/>
<text text-anchor="middle" x="37.5" y="-144.5" font-family="Helvetica,sans-Serif" font-size="10.00">TEST_CASE</text>
</a>
</g>
</g>
<!-- Node8&#45;&gt;Node9 -->
<g id="edge9" class="edge">
<title>Node8&#45;&gt;Node9</title>
<path fill="none" stroke="midnightblue" d="M100.94,-147C92.06,-147 83.33,-147 75.34,-147"/>
<polygon fill="midnightblue" stroke="midnightblue" points="101,-150.5 111,-147 101,-143.5 101,-150.5"/>
</g>
<!-- Node10&#45;&gt;Node7 -->
<g id="edge11" class="edge">
<title>Node10&#45;&gt;Node7</title>
<path fill="none" stroke="midnightblue" d="M436,-147C423.41,-147 410.72,-147 399.01,-147"/>
<polygon fill="midnightblue" stroke="midnightblue" points="436.06,-150.5 446.06,-147 436.05,-143.5 436.06,-150.5"/>
</g>
<!-- Node11&#45;&gt;Node10 -->
<g id="edge13" class="edge">
<title>Node11&#45;&gt;Node10</title>
<path fill="none" stroke="midnightblue" d="M618.64,-138.33C609.93,-139.1 601.2,-139.87 592.73,-140.62"/>
<polygon fill="midnightblue" stroke="midnightblue" points="619.19,-141.8 628.85,-137.43 618.58,-134.83 619.19,-141.8"/>
</g>
<!-- Node13 -->
<g id="node13" class="node">
<title>Node13</title>
<g id="a_node13"><a xlink:href="classRungeKutta4.html#a301c6c8b82c9f0808159aff069aef28e" target="_top" xlink:title="Construct a new runge Kutta4 object.">
<polygon fill="none" stroke="black" points="451,-82.5 451,-101.5 588,-101.5 588,-82.5 451,-82.5"/>
<text text-anchor="middle" x="519.5" y="-89.5" font-family="Helvetica,sans-Serif" font-size="10.00">RungeKutta4::RungeKutta4</text>
</a>
</g>
</g>
<!-- Node12&#45;&gt;Node13 -->
<g id="edge15" class="edge">
<title>Node12&#45;&gt;Node13</title>
<path fill="none" stroke="midnightblue" d="M630.54,-88.57C616.36,-89.01 601.77,-89.47 588.04,-89.89"/>
<polygon fill="midnightblue" stroke="midnightblue" points="630.89,-92.06 640.77,-88.25 630.67,-85.06 630.89,-92.06"/>
</g>
<!-- Node14&#45;&gt;Node7 -->
<g id="edge17" class="edge">
<title>Node14&#45;&gt;Node7</title>
<path fill="none" stroke="midnightblue" d="M458.57,-67.01C454.25,-68.88 450.02,-70.88 446,-73 410.78,-91.59 374.5,-121.96 357.09,-137.37"/>
<polygon fill="midnightblue" stroke="midnightblue" points="460.18,-70.13 468.12,-63.11 457.54,-63.65 460.18,-70.13"/>
</g>
</g>
</svg>
