<?xml version="1.0" encoding="UTF-8" standalone="no"?>
<!DOCTYPE svg PUBLIC "-//W3C//DTD SVG 1.1//EN"
 "http://www.w3.org/Graphics/SVG/1.1/DTD/svg11.dtd">
<!-- Generated by graphviz version 2.43.0 (0)
 -->
<!-- Title: min Pages: 1 -->
<svg width="143pt" height="66pt"
 viewBox="0.00 0.00 143.00 66.00" xmlns="http://www.w3.org/2000/svg" xmlns:xlink="http://www.w3.org/1999/xlink">
<g id="graph0" class="graph" transform="scale(1 1) rotate(0) translate(4 62)">
<title>min</title>
<!-- Node1 -->
<g id="node1" class="node">
<title>Node1</title>
<g id="a_node1"><a xlink:title=" ">
<polygon fill="#bfbfbf" stroke="black" points="0,-19.5 0,-38.5 32,-38.5 32,-19.5 0,-19.5"/>
<text text-anchor="middle" x="16" y="-26.5" font-family="Helvetica,sans-Serif" font-size="10.00">min</text>
</a>
</g>
</g>
<!-- Node2 -->
<g id="node2" class="node">
<title>Node2</title>
<g id="a_node2"><a xlink:href="helper__math_8h.html#a0c63d36196448ce9bb8fb1d30db90a0c" target="_top" xlink:title=" ">
<polygon fill="none" stroke="black" points="68,-38.5 68,-57.5 135,-57.5 135,-38.5 68,-38.5"/>
<text text-anchor="middle" x="101.5" y="-45.5" font-family="Helvetica,sans-Serif" font-size="10.00">make_uint2</text>
</a>
</g>
</g>
<!-- Node1&#45;&gt;Node2 -->
<g id="edge1" class="edge">
<title>Node1&#45;&gt;Node2</title>
<path fill="none" stroke="midnightblue" d="M32.32,-32.48C39.65,-34.15 48.82,-36.24 58.04,-38.34"/>
<polygon fill="midnightblue" stroke="midnightblue" points="57.46,-41.8 67.99,-40.6 59.01,-34.97 57.46,-41.8"/>
</g>
<!-- Node3 -->
<g id="node3" class="node">
<title>Node3</title>
<g id="a_node3"><a xlink:href="helper__math_8h.html#abd8bbcfabb3ddef2ccaafb9928a37b95" target="_top" xlink:title=" ">
<polygon fill="none" stroke="black" points="85.5,-0.5 85.5,-19.5 117.5,-19.5 117.5,-0.5 85.5,-0.5"/>
<text text-anchor="middle" x="101.5" y="-7.5" font-family="Helvetica,sans-Serif" font-size="10.00">min</text>
</a>
</g>
</g>
<!-- Node1&#45;&gt;Node3 -->
<g id="edge2" class="edge">
<title>Node1&#45;&gt;Node3</title>
<path fill="none" stroke="midnightblue" d="M32.32,-25.52C44.32,-22.78 61.28,-18.92 75.28,-15.74"/>
<polygon fill="midnightblue" stroke="midnightblue" points="76.31,-19.09 85.28,-13.46 74.75,-12.27 76.31,-19.09"/>
</g>
</g>
</svg>
