<?xml version="1.0" encoding="UTF-8" standalone="no"?>
<!DOCTYPE svg PUBLIC "-//W3C//DTD SVG 1.1//EN"
 "http://www.w3.org/Graphics/SVG/1.1/DTD/svg11.dtd">
<!-- Generated by graphviz version 2.43.0 (0)
 -->
<!-- Title: clamp Pages: 1 -->
<svg width="231pt" height="85pt"
 viewBox="0.00 0.00 231.00 85.00" xmlns="http://www.w3.org/2000/svg" xmlns:xlink="http://www.w3.org/1999/xlink">
<g id="graph0" class="graph" transform="scale(1 1) rotate(0) translate(4 81)">
<title>clamp</title>
<!-- Node1 -->
<g id="node1" class="node">
<title>Node1</title>
<g id="a_node1"><a xlink:title=" ">
<polygon fill="#bfbfbf" stroke="black" points="0,-19.5 0,-38.5 43,-38.5 43,-19.5 0,-19.5"/>
<text text-anchor="middle" x="21.5" y="-26.5" font-family="Helvetica,sans-Serif" font-size="10.00">clamp</text>
</a>
</g>
</g>
<!-- Node2 -->
<g id="node2" class="node">
<title>Node2</title>
<g id="a_node2"><a xlink:href="helper__math_8h.html#a4e52302c6978bafbb9336fc91bc8aee6" target="_top" xlink:title=" ">
<polygon fill="none" stroke="black" points="91,-38.5 91,-57.5 134,-57.5 134,-38.5 91,-38.5"/>
<text text-anchor="middle" x="112.5" y="-45.5" font-family="Helvetica,sans-Serif" font-size="10.00">clamp</text>
</a>
</g>
</g>
<!-- Node1&#45;&gt;Node2 -->
<g id="edge1" class="edge">
<title>Node1&#45;&gt;Node2</title>
<path fill="none" stroke="midnightblue" d="M43.14,-33.41C54.38,-35.8 68.49,-38.82 80.97,-41.48"/>
<polygon fill="midnightblue" stroke="midnightblue" points="80.46,-44.95 90.97,-43.62 81.92,-38.11 80.46,-44.95"/>
</g>
<!-- Node5 -->
<g id="node5" class="node">
<title>Node5</title>
<g id="a_node5"><a xlink:href="helper__math_8h.html#a0c63d36196448ce9bb8fb1d30db90a0c" target="_top" xlink:title=" ">
<polygon fill="none" stroke="black" points="79,-0.5 79,-19.5 146,-19.5 146,-0.5 79,-0.5"/>
<text text-anchor="middle" x="112.5" y="-7.5" font-family="Helvetica,sans-Serif" font-size="10.00">make_uint2</text>
</a>
</g>
</g>
<!-- Node1&#45;&gt;Node5 -->
<g id="edge4" class="edge">
<title>Node1&#45;&gt;Node5</title>
<path fill="none" stroke="midnightblue" d="M43.14,-24.59C50.83,-22.95 59.86,-21.02 68.8,-19.12"/>
<polygon fill="midnightblue" stroke="midnightblue" points="69.72,-22.5 78.77,-16.99 68.26,-15.65 69.72,-22.5"/>
</g>
<!-- Node3 -->
<g id="node3" class="node">
<title>Node3</title>
<g id="a_node3"><a xlink:href="helper__math_8h.html#a2e3ea020fe010be1ba2da473f17223b7" target="_top" xlink:title=" ">
<polygon fill="none" stroke="black" points="182,-57.5 182,-76.5 223,-76.5 223,-57.5 182,-57.5"/>
<text text-anchor="middle" x="202.5" y="-64.5" font-family="Helvetica,sans-Serif" font-size="10.00">fmaxf</text>
</a>
</g>
</g>
<!-- Node2&#45;&gt;Node3 -->
<g id="edge2" class="edge">
<title>Node2&#45;&gt;Node3</title>
<path fill="none" stroke="midnightblue" d="M134.35,-52.5C145.55,-54.92 159.55,-57.94 171.86,-60.6"/>
<polygon fill="midnightblue" stroke="midnightblue" points="171.19,-64.04 181.7,-62.73 172.67,-57.19 171.19,-64.04"/>
</g>
<!-- Node4 -->
<g id="node4" class="node">
<title>Node4</title>
<g id="a_node4"><a xlink:href="helper__math_8h.html#a550f4f667b306665a335168336fc95b3" target="_top" xlink:title=" ">
<polygon fill="none" stroke="black" points="183.5,-19.5 183.5,-38.5 221.5,-38.5 221.5,-19.5 183.5,-19.5"/>
<text text-anchor="middle" x="202.5" y="-26.5" font-family="Helvetica,sans-Serif" font-size="10.00">fminf</text>
</a>
</g>
</g>
<!-- Node2&#45;&gt;Node4 -->
<g id="edge3" class="edge">
<title>Node2&#45;&gt;Node4</title>
<path fill="none" stroke="midnightblue" d="M134.35,-43.5C146.03,-40.98 160.74,-37.8 173.42,-35.06"/>
<polygon fill="midnightblue" stroke="midnightblue" points="174.44,-38.42 183.47,-32.89 172.96,-31.58 174.44,-38.42"/>
</g>
</g>
</svg>
