<?xml version="1.0" encoding="UTF-8" standalone="no"?>
<!DOCTYPE svg PUBLIC "-//W3C//DTD SVG 1.1//EN"
 "http://www.w3.org/Graphics/SVG/1.1/DTD/svg11.dtd">
<!-- Generated by graphviz version 2.49.1 (20210923.0004)
 -->
<!-- Title: src/main.cpp Pages: 1 -->
<svg width="1560pt" height="442pt"
 viewBox="0.00 0.00 1560.00 442.00" xmlns="http://www.w3.org/2000/svg" xmlns:xlink="http://www.w3.org/1999/xlink">
<g id="graph0" class="graph" transform="scale(1 1) rotate(0) translate(4 438)">
<title>src/main.cpp</title>
<!-- Node1 -->
<g id="node1" class="node">
<title>Node1</title>
<g id="a_node1"><a xlink:title=" ">
<polygon fill="#bfbfbf" stroke="black" points="1420.5,-414.5 1420.5,-433.5 1493.5,-433.5 1493.5,-414.5 1420.5,-414.5"/>
<text text-anchor="middle" x="1457" y="-421.5" font-family="Helvetica,sans-Serif" font-size="10.00">src/main.cpp</text>
</a>
</g>
</g>
<!-- Node2 -->
<g id="node2" class="node">
<title>Node2</title>
<g id="a_node2"><a xlink:href="engine_8hpp.html" target="_top" xlink:title=" ">
<polygon fill="none" stroke="black" points="937,-358.5 937,-377.5 1003,-377.5 1003,-358.5 937,-358.5"/>
<text text-anchor="middle" x="970" y="-365.5" font-family="Helvetica,sans-Serif" font-size="10.00">engine.hpp</text>
</a>
</g>
</g>
<!-- Node1&#45;&gt;Node2 -->
<g id="edge1" class="edge">
<title>Node1&#45;&gt;Node2</title>
<path fill="none" stroke="midnightblue" d="M1420.4,-418.94C1332.13,-409.15 1107.86,-384.29 1013.21,-373.79"/>
<polygon fill="midnightblue" stroke="midnightblue" points="1013.45,-370.3 1003.12,-372.67 1012.67,-377.25 1013.45,-370.3"/>
</g>
<!-- Node4 -->
<g id="node4" class="node">
<title>Node4</title>
<g id="a_node4"><a xlink:href="systemData_8hpp.html" target="_top" xlink:title=" ">
<polygon fill="none" stroke="black" points="1011.5,-190.5 1011.5,-209.5 1100.5,-209.5 1100.5,-190.5 1011.5,-190.5"/>
<text text-anchor="middle" x="1056" y="-197.5" font-family="Helvetica,sans-Serif" font-size="10.00">systemData.hpp</text>
</a>
</g>
</g>
<!-- Node1&#45;&gt;Node4 -->
<g id="edge65" class="edge">
<title>Node1&#45;&gt;Node4</title>
<path fill="none" stroke="midnightblue" d="M1448.01,-414.36C1425.4,-392.97 1363.68,-336.8 1304,-302 1233.74,-261.03 1143.69,-228.89 1093.71,-212.64"/>
<polygon fill="midnightblue" stroke="midnightblue" points="1094.56,-209.24 1083.97,-209.51 1092.42,-215.9 1094.56,-209.24"/>
</g>
<!-- Node12 -->
<g id="node12" class="node">
<title>Node12</title>
<g id="a_node12"><a xlink:title=" ">
<polygon fill="none" stroke="#bfbfbf" points="1327.5,-62 1327.5,-81 1380.5,-81 1380.5,-62 1327.5,-62"/>
<text text-anchor="middle" x="1354" y="-69" font-family="Helvetica,sans-Serif" font-size="10.00">memory</text>
</a>
</g>
</g>
<!-- Node1&#45;&gt;Node12 -->
<g id="edge66" class="edge">
<title>Node1&#45;&gt;Node12</title>
<path fill="none" stroke="midnightblue" d="M1459.56,-414.25C1464.75,-395.74 1476,-351.18 1476,-313 1476,-313 1476,-313 1476,-199 1476,-144.94 1417.57,-105.12 1381.58,-85.72"/>
<polygon fill="midnightblue" stroke="midnightblue" points="1383.02,-82.52 1372.53,-81.01 1379.79,-88.73 1383.02,-82.52"/>
</g>
<!-- Node14 -->
<g id="node14" class="node">
<title>Node14</title>
<g id="a_node14"><a xlink:title=" ">
<polygon fill="none" stroke="#bfbfbf" points="1455.5,-62 1455.5,-81 1496.5,-81 1496.5,-62 1455.5,-62"/>
<text text-anchor="middle" x="1476" y="-69" font-family="Helvetica,sans-Serif" font-size="10.00">string</text>
</a>
</g>
</g>
<!-- Node1&#45;&gt;Node14 -->
<g id="edge67" class="edge">
<title>Node1&#45;&gt;Node14</title>
<path fill="none" stroke="midnightblue" d="M1472.69,-414.4C1499.67,-398.31 1552,-360.94 1552,-313 1552,-313 1552,-313 1552,-199 1552,-153.62 1515.62,-110.48 1493.2,-88.2"/>
<polygon fill="midnightblue" stroke="midnightblue" points="1495.57,-85.63 1485.94,-81.23 1490.72,-90.68 1495.57,-85.63"/>
</g>
<!-- Node3 -->
<g id="node3" class="node">
<title>Node3</title>
<g id="a_node3"><a xlink:href="potentialHydrodynamics_8hpp.html" target="_top" xlink:title=" ">
<polygon fill="none" stroke="black" points="470.5,-246.5 470.5,-265.5 613.5,-265.5 613.5,-246.5 470.5,-246.5"/>
<text text-anchor="middle" x="542" y="-253.5" font-family="Helvetica,sans-Serif" font-size="10.00">potentialHydrodynamics.hpp</text>
</a>
</g>
</g>
<!-- Node2&#45;&gt;Node3 -->
<g id="edge2" class="edge">
<title>Node2&#45;&gt;Node3</title>
<path fill="none" stroke="midnightblue" d="M936.77,-359.69C898.24,-351.1 832.85,-336.23 777,-322 707.83,-304.38 627.82,-281.77 581.26,-268.39"/>
<polygon fill="midnightblue" stroke="midnightblue" points="582.15,-265 571.57,-265.6 580.22,-271.73 582.15,-265"/>
</g>
<!-- Node2&#45;&gt;Node4 -->
<g id="edge53" class="edge">
<title>Node2&#45;&gt;Node4</title>
<path fill="none" stroke="midnightblue" d="M977.18,-358.43C984.3,-349.65 995.26,-335.43 1003,-322 1023.06,-287.19 1040.48,-243.37 1049.48,-219.16"/>
<polygon fill="midnightblue" stroke="midnightblue" points="1052.86,-220.12 1053.01,-209.52 1046.29,-217.71 1052.86,-220.12"/>
</g>
<!-- Node10 -->
<g id="node10" class="node">
<title>Node10</title>
<g id="a_node10"><a xlink:title=" ">
<polygon fill="none" stroke="#bfbfbf" points="969,-56.5 969,-86.5 1067,-86.5 1067,-56.5 969,-56.5"/>
<text text-anchor="start" x="977" y="-74.5" font-family="Helvetica,sans-Serif" font-size="10.00">spdlog/sinks/basic</text>
<text text-anchor="middle" x="1018" y="-63.5" font-family="Helvetica,sans-Serif" font-size="10.00">_file_sink.h</text>
</a>
</g>
</g>
<!-- Node2&#45;&gt;Node10 -->
<g id="edge59" class="edge">
<title>Node2&#45;&gt;Node10</title>
<path fill="none" stroke="midnightblue" d="M1000.68,-358.44C1069.96,-337.24 1237.62,-275.06 1304,-154 1310.62,-141.92 1312.93,-133.49 1304,-123 1271.46,-84.78 1130.26,-96.63 1081,-87 1079.73,-86.75 1078.45,-86.5 1077.15,-86.23"/>
<polygon fill="midnightblue" stroke="midnightblue" points="1077.62,-82.76 1067.11,-84.13 1076.19,-89.61 1077.62,-82.76"/>
</g>
<!-- Node11 -->
<g id="node11" class="node">
<title>Node11</title>
<g id="a_node11"><a xlink:title=" ">
<polygon fill="none" stroke="#bfbfbf" points="822.5,-62 822.5,-81 909.5,-81 909.5,-62 822.5,-62"/>
<text text-anchor="middle" x="866" y="-69" font-family="Helvetica,sans-Serif" font-size="10.00">spdlog/spdlog.h</text>
</a>
</g>
</g>
<!-- Node2&#45;&gt;Node11 -->
<g id="edge60" class="edge">
<title>Node2&#45;&gt;Node11</title>
<path fill="none" stroke="midnightblue" d="M972.15,-358.09C974.87,-345.49 978.75,-321.79 975,-302 958.8,-216.46 902.79,-126.41 877.99,-89.64"/>
<polygon fill="midnightblue" stroke="midnightblue" points="880.67,-87.37 872.13,-81.1 874.9,-91.33 880.67,-87.37"/>
</g>
<!-- Node2&#45;&gt;Node12 -->
<g id="edge62" class="edge">
<title>Node2&#45;&gt;Node12</title>
<path fill="none" stroke="midnightblue" d="M1003.28,-366.39C1081.35,-364.4 1273.71,-356.07 1327,-322 1403.12,-273.34 1373.64,-139.83 1359.69,-90.84"/>
<polygon fill="midnightblue" stroke="midnightblue" points="1362.98,-89.6 1356.77,-81.01 1356.26,-91.59 1362.98,-89.6"/>
</g>
<!-- Node13 -->
<g id="node13" class="node">
<title>Node13</title>
<g id="a_node13"><a xlink:title=" ">
<polygon fill="none" stroke="#bfbfbf" points="1154.5,-62 1154.5,-81 1213.5,-81 1213.5,-62 1154.5,-62"/>
<text text-anchor="middle" x="1184" y="-69" font-family="Helvetica,sans-Serif" font-size="10.00">stdexcept</text>
</a>
</g>
</g>
<!-- Node2&#45;&gt;Node13 -->
<g id="edge63" class="edge">
<title>Node2&#45;&gt;Node13</title>
<path fill="none" stroke="midnightblue" d="M1003.11,-367.51C1079.17,-367.93 1262.96,-364.42 1304,-322 1365.72,-258.2 1371.77,-195.82 1321,-123 1299.22,-91.76 1255.82,-79.79 1223.67,-75.24"/>
<polygon fill="midnightblue" stroke="midnightblue" points="1224.03,-71.76 1213.68,-74.01 1223.17,-78.7 1224.03,-71.76"/>
</g>
<!-- Node2&#45;&gt;Node14 -->
<g id="edge64" class="edge">
<title>Node2&#45;&gt;Node14</title>
<path fill="none" stroke="midnightblue" d="M1003.21,-366.8C1085.22,-365.72 1294.8,-359.29 1352,-322 1435.28,-267.7 1464.76,-139.78 1473.15,-91.44"/>
<polygon fill="midnightblue" stroke="midnightblue" points="1476.63,-91.86 1474.78,-81.43 1469.72,-90.74 1476.63,-91.86"/>
</g>
<!-- Node15 -->
<g id="node15" class="node">
<title>Node15</title>
<g id="a_node15"><a xlink:title=" ">
<polygon fill="none" stroke="#bfbfbf" points="64.5,-62 64.5,-81 163.5,-81 163.5,-62 64.5,-62"/>
<text text-anchor="middle" x="114" y="-69" font-family="Helvetica,sans-Serif" font-size="10.00">eigen3/Eigen/Core</text>
</a>
</g>
</g>
<!-- Node2&#45;&gt;Node15 -->
<g id="edge54" class="edge">
<title>Node2&#45;&gt;Node15</title>
<path fill="none" stroke="midnightblue" d="M936.89,-366.8C766.89,-365.35 0,-353.45 0,-257 0,-257 0,-257 0,-199 0,-146.57 54.7,-106.08 88.32,-86.14"/>
<polygon fill="midnightblue" stroke="midnightblue" points="90.24,-89.08 97.18,-81.07 86.76,-83 90.24,-89.08"/>
</g>
<!-- Node16 -->
<g id="node16" class="node">
<title>Node16</title>
<g id="a_node16"><a xlink:title=" ">
<polygon fill="none" stroke="#bfbfbf" points="240.5,-62 240.5,-81 343.5,-81 343.5,-62 240.5,-62"/>
<text text-anchor="middle" x="292" y="-69" font-family="Helvetica,sans-Serif" font-size="10.00">eigen3/Eigen/Eigen</text>
</a>
</g>
</g>
<!-- Node2&#45;&gt;Node16 -->
<g id="edge55" class="edge">
<title>Node2&#45;&gt;Node16</title>
<path fill="none" stroke="midnightblue" d="M936.68,-367.5C816.2,-368.88 403.99,-369.93 283,-322 215.07,-295.09 176.46,-262.57 185,-190 188.58,-159.59 182.49,-147.39 201,-123 214.4,-105.35 235.84,-93.02 254.54,-84.97"/>
<polygon fill="midnightblue" stroke="midnightblue" points="256.06,-88.13 264.02,-81.14 253.44,-81.64 256.06,-88.13"/>
</g>
<!-- Node17 -->
<g id="node17" class="node">
<title>Node17</title>
<g id="a_node17"><a xlink:title=" ">
<polygon fill="none" stroke="#bfbfbf" points="361.5,-56.5 361.5,-86.5 472.5,-86.5 472.5,-56.5 361.5,-56.5"/>
<text text-anchor="start" x="369.5" y="-74.5" font-family="Helvetica,sans-Serif" font-size="10.00">eigen3/unsupported</text>
<text text-anchor="middle" x="417" y="-63.5" font-family="Helvetica,sans-Serif" font-size="10.00">/Eigen/CXX11/Tensor</text>
</a>
</g>
</g>
<!-- Node2&#45;&gt;Node17 -->
<g id="edge56" class="edge">
<title>Node2&#45;&gt;Node17</title>
<path fill="none" stroke="midnightblue" d="M936.81,-366.44C811.37,-364.11 370.61,-353.71 317,-322 230.39,-270.77 146.8,-202.11 209,-123 211.29,-120.09 291.35,-101.23 351.45,-87.41"/>
<polygon fill="midnightblue" stroke="midnightblue" points="352.33,-90.8 361.29,-85.15 350.76,-83.98 352.33,-90.8"/>
</g>
<!-- Node18 -->
<g id="node18" class="node">
<title>Node18</title>
<g id="a_node18"><a xlink:title=" ">
<polygon fill="none" stroke="#bfbfbf" points="666.5,-123.5 666.5,-153.5 799.5,-153.5 799.5,-123.5 666.5,-123.5"/>
<text text-anchor="start" x="674.5" y="-141.5" font-family="Helvetica,sans-Serif" font-size="10.00">eigen3/unsupported</text>
<text text-anchor="middle" x="733" y="-130.5" font-family="Helvetica,sans-Serif" font-size="10.00">/Eigen/CXX11/ThreadPool</text>
</a>
</g>
</g>
<!-- Node2&#45;&gt;Node18 -->
<g id="edge57" class="edge">
<title>Node2&#45;&gt;Node18</title>
<path fill="none" stroke="midnightblue" d="M969.48,-358.33C967.77,-336.89 960.66,-280.59 932,-246 895.32,-201.72 835.31,-173.21 790.76,-156.94"/>
<polygon fill="midnightblue" stroke="midnightblue" points="791.82,-153.6 781.22,-153.56 789.48,-160.2 791.82,-153.6"/>
</g>
<!-- Node19 -->
<g id="node19" class="node">
<title>Node19</title>
<g id="a_node19"><a xlink:href="helper__eigenTensorConversion_8h.html" target="_top" xlink:title=" ">
<polygon fill="none" stroke="black" points="218.5,-129 218.5,-148 381.5,-148 381.5,-129 218.5,-129"/>
<text text-anchor="middle" x="300" y="-136" font-family="Helvetica,sans-Serif" font-size="10.00">helper_eigenTensorConversion.h</text>
</a>
</g>
</g>
<!-- Node2&#45;&gt;Node19 -->
<g id="edge58" class="edge">
<title>Node2&#45;&gt;Node19</title>
<path fill="none" stroke="midnightblue" d="M936.98,-366.05C816.21,-362.37 402.84,-347.99 350,-322 299.52,-297.16 295.48,-266.08 291,-210 290.29,-201.14 290.22,-198.85 291,-190 291.95,-179.29 294,-167.45 295.91,-157.92"/>
<polygon fill="midnightblue" stroke="midnightblue" points="299.36,-158.52 298.01,-148.02 292.51,-157.07 299.36,-158.52"/>
</g>
<!-- Node21 -->
<g id="node21" class="node">
<title>Node21</title>
<g id="a_node21"><a xlink:href="progressBar_8hpp.html" target="_top" xlink:title=" ">
<polygon fill="none" stroke="black" points="786,-302.5 786,-321.5 876,-321.5 876,-302.5 786,-302.5"/>
<text text-anchor="middle" x="831" y="-309.5" font-family="Helvetica,sans-Serif" font-size="10.00">progressBar.hpp</text>
</a>
</g>
</g>
<!-- Node2&#45;&gt;Node21 -->
<g id="edge37" class="edge">
<title>Node2&#45;&gt;Node21</title>
<path fill="none" stroke="midnightblue" d="M947.98,-358.44C924.9,-349.48 888.44,-335.31 862.36,-325.18"/>
<polygon fill="midnightblue" stroke="midnightblue" points="863.51,-321.88 852.92,-321.52 860.98,-328.4 863.51,-321.88"/>
</g>
<!-- Node26 -->
<g id="node26" class="node">
<title>Node26</title>
<g id="a_node26"><a xlink:href="rungeKutta4_8hpp.html" target="_top" xlink:title=" ">
<polygon fill="none" stroke="black" points="359,-302.5 359,-321.5 449,-321.5 449,-302.5 359,-302.5"/>
<text text-anchor="middle" x="404" y="-309.5" font-family="Helvetica,sans-Serif" font-size="10.00">rungeKutta4.hpp</text>
</a>
</g>
</g>
<!-- Node2&#45;&gt;Node26 -->
<g id="edge42" class="edge">
<title>Node2&#45;&gt;Node26</title>
<path fill="none" stroke="midnightblue" d="M936.71,-363.82C842.86,-354.87 575.46,-329.36 459.15,-318.26"/>
<polygon fill="midnightblue" stroke="midnightblue" points="459.33,-314.76 449.04,-317.3 458.66,-321.73 459.33,-314.76"/>
</g>
<!-- Node27 -->
<g id="node27" class="node">
<title>Node27</title>
<g id="a_node27"><a xlink:title=" ">
<polygon fill="none" stroke="#bfbfbf" points="1248.5,-302.5 1248.5,-321.5 1295.5,-321.5 1295.5,-302.5 1248.5,-302.5"/>
<text text-anchor="middle" x="1272" y="-309.5" font-family="Helvetica,sans-Serif" font-size="10.00">math.h</text>
</a>
</g>
</g>
<!-- Node2&#45;&gt;Node27 -->
<g id="edge61" class="edge">
<title>Node2&#45;&gt;Node27</title>
<path fill="none" stroke="midnightblue" d="M1003.05,-362.06C1053.17,-354.41 1151.31,-338.82 1234,-322 1235.45,-321.7 1236.94,-321.39 1238.43,-321.07"/>
<polygon fill="midnightblue" stroke="midnightblue" points="1239.34,-324.45 1248.33,-318.85 1237.81,-317.62 1239.34,-324.45"/>
</g>
<!-- Node3&#45;&gt;Node4 -->
<g id="edge3" class="edge">
<title>Node3&#45;&gt;Node4</title>
<path fill="none" stroke="midnightblue" d="M613.74,-247.46C717.65,-236.55 907.79,-216.57 1001.23,-206.75"/>
<polygon fill="midnightblue" stroke="midnightblue" points="1001.74,-210.22 1011.32,-205.69 1001.01,-203.26 1001.74,-210.22"/>
</g>
<!-- Node3&#45;&gt;Node10 -->
<g id="edge35" class="edge">
<title>Node3&#45;&gt;Node10</title>
<path fill="none" stroke="midnightblue" d="M549.12,-246.13C571.95,-217.78 642.7,-130.73 657,-123 760.01,-67.31 802.06,-103.4 918,-87 931.22,-85.13 945.42,-83.09 958.84,-81.15"/>
<polygon fill="midnightblue" stroke="midnightblue" points="959.53,-84.58 968.93,-79.68 958.53,-77.66 959.53,-84.58"/>
</g>
<!-- Node3&#45;&gt;Node11 -->
<g id="edge36" class="edge">
<title>Node3&#45;&gt;Node11</title>
<path fill="none" stroke="midnightblue" d="M544.72,-246.21C552.62,-222.2 578.02,-155.16 624,-123 653.86,-102.12 750.57,-86.72 812.32,-78.72"/>
<polygon fill="midnightblue" stroke="midnightblue" points="812.81,-82.18 822.29,-77.45 811.93,-75.24 812.81,-82.18"/>
</g>
<!-- Node3&#45;&gt;Node15 -->
<g id="edge30" class="edge">
<title>Node3&#45;&gt;Node15</title>
<path fill="none" stroke="midnightblue" d="M491.5,-246.45C423.96,-233.54 301.96,-205 209,-154 177.11,-136.51 146.31,-107.05 128.81,-88.75"/>
<polygon fill="midnightblue" stroke="midnightblue" points="131.14,-86.12 121.75,-81.21 126.03,-90.9 131.14,-86.12"/>
</g>
<!-- Node3&#45;&gt;Node16 -->
<g id="edge31" class="edge">
<title>Node3&#45;&gt;Node16</title>
<path fill="none" stroke="midnightblue" d="M533.69,-246.48C511.71,-224.25 449.61,-163.38 390,-123 368.08,-108.15 341.22,-94.6 321.18,-85.28"/>
<polygon fill="midnightblue" stroke="midnightblue" points="322.48,-82.03 311.93,-81.06 319.57,-88.4 322.48,-82.03"/>
</g>
<!-- Node3&#45;&gt;Node17 -->
<g id="edge32" class="edge">
<title>Node3&#45;&gt;Node17</title>
<path fill="none" stroke="midnightblue" d="M537.46,-246.32C526,-224.68 494.49,-166.97 462,-123 454.73,-113.17 445.93,-102.98 438.05,-94.35"/>
<polygon fill="midnightblue" stroke="midnightblue" points="440.51,-91.86 431.14,-86.92 435.39,-96.62 440.51,-91.86"/>
</g>
<!-- Node3&#45;&gt;Node18 -->
<g id="edge33" class="edge">
<title>Node3&#45;&gt;Node18</title>
<path fill="none" stroke="midnightblue" d="M569.87,-246.44C592.86,-238.73 625.83,-226.13 652,-210 674.3,-196.26 696.52,-176.36 712.03,-161.21"/>
<polygon fill="midnightblue" stroke="midnightblue" points="714.88,-163.31 719.5,-153.77 709.94,-158.35 714.88,-163.31"/>
</g>
<!-- Node3&#45;&gt;Node19 -->
<g id="edge34" class="edge">
<title>Node3&#45;&gt;Node19</title>
<path fill="none" stroke="midnightblue" d="M523.81,-246.32C481.66,-226.2 377.12,-176.31 327.28,-152.52"/>
<polygon fill="midnightblue" stroke="midnightblue" points="328.6,-149.27 318.07,-148.12 325.59,-155.59 328.6,-149.27"/>
</g>
<!-- Node5 -->
<g id="node5" class="node">
<title>Node5</title>
<g id="a_node5"><a xlink:href="GSDUtil_8hpp.html" target="_top" xlink:title=" ">
<polygon fill="none" stroke="black" points="1084,-129 1084,-148 1156,-148 1156,-129 1084,-129"/>
<text text-anchor="middle" x="1120" y="-136" font-family="Helvetica,sans-Serif" font-size="10.00">GSDUtil.hpp</text>
</a>
</g>
</g>
<!-- Node4&#45;&gt;Node5 -->
<g id="edge4" class="edge">
<title>Node4&#45;&gt;Node5</title>
<path fill="none" stroke="midnightblue" d="M1060.27,-190.48C1068.3,-181.11 1084.33,-165.88 1097.91,-154.51"/>
<polygon fill="midnightblue" stroke="midnightblue" points="1100.37,-157.02 1105.95,-148.01 1095.97,-151.57 1100.37,-157.02"/>
</g>
<!-- Node6 -->
<g id="node6" class="node">
<title>Node6</title>
<g id="a_node6"><a xlink:href="gsd_8h.html" target="_top" xlink:title="Declare GSD data types and C API.">
<polygon fill="none" stroke="black" points="1090.5,-62 1090.5,-81 1131.5,-81 1131.5,-62 1090.5,-62"/>
<text text-anchor="middle" x="1111" y="-69" font-family="Helvetica,sans-Serif" font-size="10.00">gsd.h</text>
</a>
</g>
</g>
<!-- Node4&#45;&gt;Node6 -->
<g id="edge15" class="edge">
<title>Node4&#45;&gt;Node6</title>
<path fill="none" stroke="midnightblue" d="M1057.11,-190.21C1059.18,-175.68 1064.41,-145.97 1075,-123 1080.66,-110.72 1089.43,-98.34 1096.9,-88.91"/>
<polygon fill="midnightblue" stroke="midnightblue" points="1099.61,-91.11 1103.26,-81.17 1094.21,-86.67 1099.61,-91.11"/>
</g>
<!-- Node4&#45;&gt;Node10 -->
<g id="edge16" class="edge">
<title>Node4&#45;&gt;Node10</title>
<path fill="none" stroke="midnightblue" d="M1053.28,-190.39C1050.43,-181.34 1045.84,-166.69 1042,-154 1036.14,-134.66 1029.68,-112.68 1024.94,-96.42"/>
<polygon fill="midnightblue" stroke="midnightblue" points="1028.25,-95.28 1022.1,-86.65 1021.53,-97.23 1028.25,-95.28"/>
</g>
<!-- Node4&#45;&gt;Node11 -->
<g id="edge17" class="edge">
<title>Node4&#45;&gt;Node11</title>
<path fill="none" stroke="midnightblue" d="M1045.55,-190.29C1027.74,-175.61 990.1,-145.37 956,-123 935.08,-109.27 910.2,-95.5 891.91,-85.81"/>
<polygon fill="midnightblue" stroke="midnightblue" points="893.48,-82.68 883,-81.13 890.23,-88.88 893.48,-82.68"/>
</g>
<!-- Node4&#45;&gt;Node12 -->
<g id="edge26" class="edge">
<title>Node4&#45;&gt;Node12</title>
<path fill="none" stroke="midnightblue" d="M1086.02,-190.47C1112.98,-182.39 1153.39,-169.25 1187,-154 1212.2,-142.56 1216.34,-135.55 1241,-123 1268.65,-108.93 1301.05,-94.67 1324.05,-84.91"/>
<polygon fill="midnightblue" stroke="midnightblue" points="1325.44,-88.12 1333.29,-81.01 1322.72,-81.67 1325.44,-88.12"/>
</g>
<!-- Node4&#45;&gt;Node13 -->
<g id="edge27" class="edge">
<title>Node4&#45;&gt;Node13</title>
<path fill="none" stroke="midnightblue" d="M1100.76,-190.64C1123.11,-184.24 1148.76,-173.11 1165,-154 1179.88,-136.48 1183.63,-109.47 1184.32,-91.41"/>
<polygon fill="midnightblue" stroke="midnightblue" points="1187.82,-91.28 1184.42,-81.25 1180.82,-91.21 1187.82,-91.28"/>
</g>
<!-- Node4&#45;&gt;Node14 -->
<g id="edge28" class="edge">
<title>Node4&#45;&gt;Node14</title>
<path fill="none" stroke="midnightblue" d="M1100.76,-194.47C1151.1,-188.55 1234.85,-176.23 1304,-154 1359.55,-136.15 1420.29,-104.15 1452.64,-86.01"/>
<polygon fill="midnightblue" stroke="midnightblue" points="1454.38,-89.05 1461.36,-81.07 1450.93,-82.96 1454.38,-89.05"/>
</g>
<!-- Node4&#45;&gt;Node15 -->
<g id="edge18" class="edge">
<title>Node4&#45;&gt;Node15</title>
<path fill="none" stroke="midnightblue" d="M1011.1,-196.44C966.14,-192.34 896.07,-181.69 842,-154 823.8,-144.68 826.83,-130.98 808,-123 689.71,-72.88 358.92,-98.91 231,-87 212.34,-85.26 192.07,-82.91 173.72,-80.61"/>
<polygon fill="midnightblue" stroke="midnightblue" points="174.1,-77.13 163.74,-79.34 173.22,-84.08 174.1,-77.13"/>
</g>
<!-- Node4&#45;&gt;Node16 -->
<g id="edge19" class="edge">
<title>Node4&#45;&gt;Node16</title>
<path fill="none" stroke="midnightblue" d="M1027.78,-190.45C999.74,-181.81 955.62,-167.79 918,-154 883.75,-141.45 877.52,-131.33 842,-123 629.4,-73.15 567.74,-120.76 352,-87 345.75,-86.02 339.19,-84.72 332.79,-83.3"/>
<polygon fill="midnightblue" stroke="midnightblue" points="333.48,-79.87 322.95,-81 331.89,-86.69 333.48,-79.87"/>
</g>
<!-- Node4&#45;&gt;Node17 -->
<g id="edge20" class="edge">
<title>Node4&#45;&gt;Node17</title>
<path fill="none" stroke="midnightblue" d="M1032.5,-190.44C1011.66,-182.4 980.78,-169.31 956,-154 937.46,-142.54 938.14,-131.33 918,-123 840.96,-91.12 600.59,-78.71 483.05,-74.46"/>
<polygon fill="midnightblue" stroke="midnightblue" points="482.87,-70.95 472.75,-74.09 482.62,-77.94 482.87,-70.95"/>
</g>
<!-- Node4&#45;&gt;Node18 -->
<g id="edge21" class="edge">
<title>Node4&#45;&gt;Node18</title>
<path fill="none" stroke="midnightblue" d="M1011.43,-190.79C959.35,-181.2 872.32,-165.16 809.41,-153.57"/>
<polygon fill="midnightblue" stroke="midnightblue" points="809.99,-150.12 799.52,-151.75 808.72,-157.01 809.99,-150.12"/>
</g>
<!-- Node4&#45;&gt;Node19 -->
<g id="edge22" class="edge">
<title>Node4&#45;&gt;Node19</title>
<path fill="none" stroke="midnightblue" d="M1011.25,-195.48C890.32,-185.96 555.09,-159.58 391.78,-146.72"/>
<polygon fill="midnightblue" stroke="midnightblue" points="392,-143.23 381.75,-145.93 391.45,-150.21 392,-143.23"/>
</g>
<!-- Node20 -->
<g id="node20" class="node">
<title>Node20</title>
<g id="a_node20"><a xlink:title=" ">
<polygon fill="none" stroke="#bfbfbf" points="1250.5,-129 1250.5,-148 1295.5,-148 1295.5,-129 1250.5,-129"/>
<text text-anchor="middle" x="1273" y="-136" font-family="Helvetica,sans-Serif" font-size="10.00">thread</text>
</a>
</g>
</g>
<!-- Node4&#45;&gt;Node20 -->
<g id="edge29" class="edge">
<title>Node4&#45;&gt;Node20</title>
<path fill="none" stroke="midnightblue" d="M1096.45,-190.45C1133.21,-182.31 1188.75,-169.1 1236,-154 1238.27,-153.27 1240.61,-152.48 1242.95,-151.65"/>
<polygon fill="midnightblue" stroke="midnightblue" points="1244.28,-154.88 1252.43,-148.1 1241.83,-148.33 1244.28,-154.88"/>
</g>
<!-- Node5&#45;&gt;Node4 -->
<g id="edge9" class="edge">
<title>Node5&#45;&gt;Node4</title>
<path fill="none" stroke="midnightblue" d="M1115.74,-148.01C1107.72,-157.37 1091.7,-172.59 1078.12,-183.97"/>
<polygon fill="midnightblue" stroke="midnightblue" points="1075.65,-181.47 1070.07,-190.48 1080.05,-186.91 1075.65,-181.47"/>
</g>
<!-- Node5&#45;&gt;Node6 -->
<g id="edge5" class="edge">
<title>Node5&#45;&gt;Node6</title>
<path fill="none" stroke="midnightblue" d="M1118.79,-128.73C1117.46,-119.18 1115.31,-103.62 1113.6,-91.28"/>
<polygon fill="midnightblue" stroke="midnightblue" points="1117.03,-90.55 1112.19,-81.13 1110.1,-91.51 1117.03,-90.55"/>
</g>
<!-- Node5&#45;&gt;Node10 -->
<g id="edge10" class="edge">
<title>Node5&#45;&gt;Node10</title>
<path fill="none" stroke="midnightblue" d="M1106.24,-128.73C1091.53,-119.36 1067.73,-104.19 1048.55,-91.97"/>
<polygon fill="midnightblue" stroke="midnightblue" points="1050.42,-89.01 1040.11,-86.59 1046.66,-94.91 1050.42,-89.01"/>
</g>
<!-- Node5&#45;&gt;Node11 -->
<g id="edge11" class="edge">
<title>Node5&#45;&gt;Node11</title>
<path fill="none" stroke="midnightblue" d="M1086.53,-128.94C1041.04,-117.29 959.6,-96.45 909.44,-83.62"/>
<polygon fill="midnightblue" stroke="midnightblue" points="910.1,-80.17 899.54,-81.08 908.36,-86.95 910.1,-80.17"/>
</g>
<!-- Node5&#45;&gt;Node12 -->
<g id="edge12" class="edge">
<title>Node5&#45;&gt;Node12</title>
<path fill="none" stroke="midnightblue" d="M1151.07,-128.87C1194.07,-116.93 1271.57,-95.4 1317.34,-82.68"/>
<polygon fill="midnightblue" stroke="midnightblue" points="1318.46,-86.01 1327.15,-79.96 1316.58,-79.26 1318.46,-86.01"/>
</g>
<!-- Node5&#45;&gt;Node13 -->
<g id="edge13" class="edge">
<title>Node5&#45;&gt;Node13</title>
<path fill="none" stroke="midnightblue" d="M1128.63,-128.73C1138.8,-118.4 1155.9,-101.04 1168.41,-88.33"/>
<polygon fill="midnightblue" stroke="midnightblue" points="1170.98,-90.71 1175.51,-81.13 1166,-85.8 1170.98,-90.71"/>
</g>
<!-- Node5&#45;&gt;Node14 -->
<g id="edge14" class="edge">
<title>Node5&#45;&gt;Node14</title>
<path fill="none" stroke="midnightblue" d="M1156.09,-130.91C1226.09,-118.13 1379.15,-90.18 1444.94,-78.17"/>
<polygon fill="midnightblue" stroke="midnightblue" points="1445.87,-81.56 1455.08,-76.32 1444.62,-74.67 1445.87,-81.56"/>
</g>
<!-- Node7 -->
<g id="node7" class="node">
<title>Node7</title>
<g id="a_node7"><a xlink:title=" ">
<polygon fill="none" stroke="#bfbfbf" points="1011.5,-0.5 1011.5,-19.5 1068.5,-19.5 1068.5,-0.5 1011.5,-0.5"/>
<text text-anchor="middle" x="1040" y="-7.5" font-family="Helvetica,sans-Serif" font-size="10.00">stdbool.h</text>
</a>
</g>
</g>
<!-- Node6&#45;&gt;Node7 -->
<g id="edge6" class="edge">
<title>Node6&#45;&gt;Node7</title>
<path fill="none" stroke="midnightblue" d="M1100.83,-61.98C1089.65,-52.61 1071.48,-37.38 1057.91,-26.01"/>
<polygon fill="midnightblue" stroke="midnightblue" points="1060.07,-23.25 1050.15,-19.51 1055.57,-28.61 1060.07,-23.25"/>
</g>
<!-- Node8 -->
<g id="node8" class="node">
<title>Node8</title>
<g id="a_node8"><a xlink:title=" ">
<polygon fill="none" stroke="#bfbfbf" points="1086.5,-0.5 1086.5,-19.5 1135.5,-19.5 1135.5,-0.5 1086.5,-0.5"/>
<text text-anchor="middle" x="1111" y="-7.5" font-family="Helvetica,sans-Serif" font-size="10.00">stdint.h</text>
</a>
</g>
</g>
<!-- Node6&#45;&gt;Node8 -->
<g id="edge7" class="edge">
<title>Node6&#45;&gt;Node8</title>
<path fill="none" stroke="midnightblue" d="M1111,-61.98C1111,-53.58 1111,-40.48 1111,-29.66"/>
<polygon fill="midnightblue" stroke="midnightblue" points="1114.5,-29.51 1111,-19.51 1107.5,-29.51 1114.5,-29.51"/>
</g>
<!-- Node9 -->
<g id="node9" class="node">
<title>Node9</title>
<g id="a_node9"><a xlink:title=" ">
<polygon fill="none" stroke="#bfbfbf" points="1153.5,-0.5 1153.5,-19.5 1202.5,-19.5 1202.5,-0.5 1153.5,-0.5"/>
<text text-anchor="middle" x="1178" y="-7.5" font-family="Helvetica,sans-Serif" font-size="10.00">string.h</text>
</a>
</g>
</g>
<!-- Node6&#45;&gt;Node9 -->
<g id="edge8" class="edge">
<title>Node6&#45;&gt;Node9</title>
<path fill="none" stroke="midnightblue" d="M1120.6,-61.98C1131.05,-52.7 1147.97,-37.67 1160.74,-26.33"/>
<polygon fill="midnightblue" stroke="midnightblue" points="1163.27,-28.77 1168.42,-19.51 1158.62,-23.53 1163.27,-28.77"/>
</g>
<!-- Node19&#45;&gt;Node15 -->
<g id="edge23" class="edge">
<title>Node19&#45;&gt;Node15</title>
<path fill="none" stroke="midnightblue" d="M275.3,-128.87C242.69,-117.47 185.12,-97.35 148.3,-84.49"/>
<polygon fill="midnightblue" stroke="midnightblue" points="149.1,-81.06 138.51,-81.06 146.79,-87.67 149.1,-81.06"/>
</g>
<!-- Node19&#45;&gt;Node16 -->
<g id="edge24" class="edge">
<title>Node19&#45;&gt;Node16</title>
<path fill="none" stroke="midnightblue" d="M298.92,-128.73C297.75,-119.18 295.83,-103.62 294.31,-91.28"/>
<polygon fill="midnightblue" stroke="midnightblue" points="297.76,-90.62 293.06,-81.13 290.81,-91.48 297.76,-90.62"/>
</g>
<!-- Node19&#45;&gt;Node17 -->
<g id="edge25" class="edge">
<title>Node19&#45;&gt;Node17</title>
<path fill="none" stroke="midnightblue" d="M315.78,-128.73C332.88,-119.23 360.7,-103.78 382.85,-91.47"/>
<polygon fill="midnightblue" stroke="midnightblue" points="384.6,-94.51 391.64,-86.59 381.2,-88.39 384.6,-94.51"/>
</g>
<!-- Node22 -->
<g id="node22" class="node">
<title>Node22</title>
<g id="a_node22"><a xlink:title=" ">
<polygon fill="none" stroke="#bfbfbf" points="743.5,-246.5 743.5,-265.5 790.5,-265.5 790.5,-246.5 743.5,-246.5"/>
<text text-anchor="middle" x="767" y="-253.5" font-family="Helvetica,sans-Serif" font-size="10.00">chrono</text>
</a>
</g>
</g>
<!-- Node21&#45;&gt;Node22 -->
<g id="edge38" class="edge">
<title>Node21&#45;&gt;Node22</title>
<path fill="none" stroke="midnightblue" d="M820.72,-302.32C811.16,-294.26 796.72,-282.08 785.22,-272.37"/>
<polygon fill="midnightblue" stroke="midnightblue" points="787.37,-269.61 777.47,-265.83 782.86,-274.96 787.37,-269.61"/>
</g>
<!-- Node23 -->
<g id="node23" class="node">
<title>Node23</title>
<g id="a_node23"><a xlink:title=" ">
<polygon fill="none" stroke="#bfbfbf" points="809,-246.5 809,-265.5 853,-265.5 853,-246.5 809,-246.5"/>
<text text-anchor="middle" x="831" y="-253.5" font-family="Helvetica,sans-Serif" font-size="10.00">cmath</text>
</a>
</g>
</g>
<!-- Node21&#45;&gt;Node23 -->
<g id="edge39" class="edge">
<title>Node21&#45;&gt;Node23</title>
<path fill="none" stroke="midnightblue" d="M831,-302.08C831,-295.01 831,-284.86 831,-275.99"/>
<polygon fill="midnightblue" stroke="midnightblue" points="834.5,-275.75 831,-265.75 827.5,-275.75 834.5,-275.75"/>
</g>
<!-- Node24 -->
<g id="node24" class="node">
<title>Node24</title>
<g id="a_node24"><a xlink:title=" ">
<polygon fill="none" stroke="#bfbfbf" points="871,-246.5 871,-265.5 923,-265.5 923,-246.5 871,-246.5"/>
<text text-anchor="middle" x="897" y="-253.5" font-family="Helvetica,sans-Serif" font-size="10.00">iomanip</text>
</a>
</g>
</g>
<!-- Node21&#45;&gt;Node24 -->
<g id="edge40" class="edge">
<title>Node21&#45;&gt;Node24</title>
<path fill="none" stroke="midnightblue" d="M841.6,-302.32C851.46,-294.26 866.35,-282.08 878.22,-272.37"/>
<polygon fill="midnightblue" stroke="midnightblue" points="880.68,-274.88 886.2,-265.83 876.25,-269.46 880.68,-274.88"/>
</g>
<!-- Node25 -->
<g id="node25" class="node">
<title>Node25</title>
<g id="a_node25"><a xlink:title=" ">
<polygon fill="none" stroke="#bfbfbf" points="670.5,-246.5 670.5,-265.5 725.5,-265.5 725.5,-246.5 670.5,-246.5"/>
<text text-anchor="middle" x="698" y="-253.5" font-family="Helvetica,sans-Serif" font-size="10.00">iostream</text>
</a>
</g>
</g>
<!-- Node21&#45;&gt;Node25 -->
<g id="edge41" class="edge">
<title>Node21&#45;&gt;Node25</title>
<path fill="none" stroke="midnightblue" d="M809.93,-302.44C787.94,-293.52 753.27,-279.44 728.34,-269.32"/>
<polygon fill="midnightblue" stroke="midnightblue" points="729.56,-266.04 718.98,-265.52 726.92,-272.52 729.56,-266.04"/>
</g>
<!-- Node26&#45;&gt;Node3 -->
<g id="edge43" class="edge">
<title>Node26&#45;&gt;Node3</title>
<path fill="none" stroke="midnightblue" d="M425.87,-302.44C448.78,-293.48 484.98,-279.31 510.87,-269.18"/>
<polygon fill="midnightblue" stroke="midnightblue" points="512.2,-272.42 520.24,-265.52 509.65,-265.9 512.2,-272.42"/>
</g>
<!-- Node26&#45;&gt;Node4 -->
<g id="edge44" class="edge">
<title>Node26&#45;&gt;Node4</title>
<path fill="none" stroke="midnightblue" d="M449.21,-305.31C493.99,-298.83 564.05,-286.42 622,-266 640.37,-259.53 642.35,-251.64 661,-246 778.76,-210.39 924.03,-202.55 1001.41,-201.08"/>
<polygon fill="midnightblue" stroke="midnightblue" points="1001.47,-204.58 1011.41,-200.92 1001.36,-197.58 1001.47,-204.58"/>
</g>
<!-- Node26&#45;&gt;Node10 -->
<g id="edge50" class="edge">
<title>Node26&#45;&gt;Node10</title>
<path fill="none" stroke="midnightblue" d="M406.68,-302.15C411.07,-288.78 420.86,-263.17 436,-246 441.57,-239.68 613.31,-126.55 623,-123 747.02,-77.55 787.08,-104.48 918,-87 931.23,-85.23 945.44,-83.24 958.86,-81.3"/>
<polygon fill="midnightblue" stroke="midnightblue" points="959.55,-84.74 968.95,-79.84 958.55,-77.81 959.55,-84.74"/>
</g>
<!-- Node26&#45;&gt;Node11 -->
<g id="edge51" class="edge">
<title>Node26&#45;&gt;Node11</title>
<path fill="none" stroke="midnightblue" d="M399.38,-302.39C388.65,-281.06 364.8,-225.02 390,-190 439.3,-121.49 697.85,-88.62 811.89,-77.28"/>
<polygon fill="midnightblue" stroke="midnightblue" points="812.52,-80.73 822.13,-76.28 811.84,-73.76 812.52,-80.73"/>
</g>
<!-- Node26&#45;&gt;Node15 -->
<g id="edge45" class="edge">
<title>Node26&#45;&gt;Node15</title>
<path fill="none" stroke="midnightblue" d="M363.11,-302.49C335.62,-295.53 299.35,-283.88 271,-266 212.25,-228.95 204.15,-209.21 162,-154 146.32,-133.46 131.78,-107.38 122.91,-90.33"/>
<polygon fill="midnightblue" stroke="midnightblue" points="125.81,-88.33 118.15,-81.01 119.58,-91.51 125.81,-88.33"/>
</g>
<!-- Node26&#45;&gt;Node16 -->
<g id="edge46" class="edge">
<title>Node26&#45;&gt;Node16</title>
<path fill="none" stroke="midnightblue" d="M374.21,-302.37C352.25,-295.04 322.42,-282.99 300,-266 248.88,-227.27 230.46,-214.44 209,-154 204.39,-141.02 202.25,-135.01 209,-123 218.97,-105.26 237.98,-93.02 255.29,-85.04"/>
<polygon fill="midnightblue" stroke="midnightblue" points="256.85,-88.19 264.67,-81.04 254.1,-81.75 256.85,-88.19"/>
</g>
<!-- Node26&#45;&gt;Node17 -->
<g id="edge47" class="edge">
<title>Node26&#45;&gt;Node17</title>
<path fill="none" stroke="midnightblue" d="M388.22,-302.47C375.8,-294.77 359.39,-282.18 352,-266 337.96,-235.28 338.65,-221.03 352,-190 361.19,-168.63 377.52,-173.63 390,-154 401.15,-136.46 408.16,-113.84 412.24,-96.89"/>
<polygon fill="midnightblue" stroke="midnightblue" points="415.76,-97.19 414.51,-86.67 408.92,-95.68 415.76,-97.19"/>
</g>
<!-- Node26&#45;&gt;Node18 -->
<g id="edge48" class="edge">
<title>Node26&#45;&gt;Node18</title>
<path fill="none" stroke="midnightblue" d="M409.63,-302.23C418.84,-288.5 438.4,-261.87 461,-246 523.78,-201.93 607.32,-172.76 665.18,-156.27"/>
<polygon fill="midnightblue" stroke="midnightblue" points="666.27,-159.6 674.96,-153.53 664.38,-152.86 666.27,-159.6"/>
</g>
<!-- Node26&#45;&gt;Node19 -->
<g id="edge49" class="edge">
<title>Node26&#45;&gt;Node19</title>
<path fill="none" stroke="midnightblue" d="M369.04,-302.41C349.64,-295.77 326.89,-284.49 314,-266 291.44,-233.63 293.54,-184.87 296.88,-158.33"/>
<polygon fill="midnightblue" stroke="midnightblue" points="300.38,-158.54 298.36,-148.14 293.46,-157.53 300.38,-158.54"/>
</g>
<!-- Node26&#45;&gt;Node25 -->
<g id="edge52" class="edge">
<title>Node26&#45;&gt;Node25</title>
<path fill="none" stroke="midnightblue" d="M449.15,-303.42C499.65,-294.83 583.83,-280.17 656,-266 657.46,-265.71 658.95,-265.42 660.46,-265.11"/>
<polygon fill="midnightblue" stroke="midnightblue" points="661.38,-268.49 670.47,-263.04 659.96,-261.64 661.38,-268.49"/>
</g>
</g>
</svg>
