<?xml version="1.0" encoding="UTF-8" standalone="no"?>
<!DOCTYPE svg PUBLIC "-//W3C//DTD SVG 1.1//EN"
 "http://www.w3.org/Graphics/SVG/1.1/DTD/svg11.dtd">
<!-- Generated by graphviz version 2.43.0 (0)
 -->
<!-- Title: src/main.cpp Pages: 1 -->
<svg width="1879pt" height="431pt"
 viewBox="0.00 0.00 1879.16 431.00" xmlns="http://www.w3.org/2000/svg" xmlns:xlink="http://www.w3.org/1999/xlink">
<g id="graph0" class="graph" transform="scale(1 1) rotate(0) translate(4 427)">
<title>src/main.cpp</title>
<!-- Node1 -->
<g id="node1" class="node">
<title>Node1</title>
<g id="a_node1"><a xlink:title=" ">
<polygon fill="#bfbfbf" stroke="black" points="1609.16,-403.5 1609.16,-422.5 1682.16,-422.5 1682.16,-403.5 1609.16,-403.5"/>
<text text-anchor="middle" x="1645.66" y="-410.5" font-family="Helvetica,sans-Serif" font-size="10.00">src/main.cpp</text>
</a>
</g>
</g>
<!-- Node2 -->
<g id="node2" class="node">
<title>Node2</title>
<g id="a_node2"><a xlink:href="Engine_8hpp.html" target="_top" xlink:title=" ">
<polygon fill="none" stroke="black" points="1017.16,-347.5 1017.16,-366.5 1082.16,-366.5 1082.16,-347.5 1017.16,-347.5"/>
<text text-anchor="middle" x="1049.66" y="-354.5" font-family="Helvetica,sans-Serif" font-size="10.00">Engine.hpp</text>
</a>
</g>
</g>
<!-- Node1&#45;&gt;Node2 -->
<g id="edge1" class="edge">
<title>Node1&#45;&gt;Node2</title>
<path fill="none" stroke="midnightblue" d="M1608.82,-408.66C1503.96,-399.16 1204.21,-372 1092.39,-361.87"/>
<polygon fill="midnightblue" stroke="midnightblue" points="1092.45,-358.36 1082.17,-360.95 1091.82,-365.33 1092.45,-358.36"/>
</g>
<!-- Node4 -->
<g id="node4" class="node">
<title>Node4</title>
<g id="a_node4"><a xlink:href="SystemData_8hpp.html" target="_top" xlink:title=" ">
<polygon fill="none" stroke="black" points="1009.66,-179.5 1009.66,-198.5 1099.66,-198.5 1099.66,-179.5 1009.66,-179.5"/>
<text text-anchor="middle" x="1054.66" y="-186.5" font-family="Helvetica,sans-Serif" font-size="10.00">SystemData.hpp</text>
</a>
</g>
</g>
<!-- Node1&#45;&gt;Node4 -->
<g id="edge69" class="edge">
<title>Node1&#45;&gt;Node4</title>
<path fill="none" stroke="midnightblue" d="M1622.85,-403.43C1531.71,-369.2 1193.43,-242.13 1086.96,-202.13"/>
<polygon fill="midnightblue" stroke="midnightblue" points="1087.99,-198.78 1077.39,-198.54 1085.52,-205.33 1087.99,-198.78"/>
</g>
<!-- Node12 -->
<g id="node12" class="node">
<title>Node12</title>
<g id="a_node12"><a xlink:title=" ">
<polygon fill="none" stroke="#bfbfbf" points="1523.66,-62 1523.66,-81 1575.66,-81 1575.66,-62 1523.66,-62"/>
<text text-anchor="middle" x="1549.66" y="-69" font-family="Helvetica,sans-Serif" font-size="10.00">memory</text>
</a>
</g>
</g>
<!-- Node1&#45;&gt;Node12 -->
<g id="edge73" class="edge">
<title>Node1&#45;&gt;Node12</title>
<path fill="none" stroke="midnightblue" d="M1644.49,-403.23C1639.56,-367.43 1618.71,-229.26 1577.66,-123 1573.16,-111.36 1566.41,-99.1 1560.67,-89.57"/>
<polygon fill="midnightblue" stroke="midnightblue" points="1563.64,-87.72 1555.38,-81.08 1557.7,-91.42 1563.64,-87.72"/>
</g>
<!-- Node14 -->
<g id="node14" class="node">
<title>Node14</title>
<g id="a_node14"><a xlink:title=" ">
<polygon fill="none" stroke="#bfbfbf" points="1644.16,-62 1644.16,-81 1685.16,-81 1685.16,-62 1644.16,-62"/>
<text text-anchor="middle" x="1664.66" y="-69" font-family="Helvetica,sans-Serif" font-size="10.00">string</text>
</a>
</g>
</g>
<!-- Node1&#45;&gt;Node14 -->
<g id="edge74" class="edge">
<title>Node1&#45;&gt;Node14</title>
<path fill="none" stroke="midnightblue" d="M1657.2,-403.43C1678.46,-386.57 1721.66,-346.8 1721.66,-302 1721.66,-302 1721.66,-302 1721.66,-188 1721.66,-149.28 1695.58,-110.1 1678.7,-88.8"/>
<polygon fill="midnightblue" stroke="midnightblue" points="1681.4,-86.56 1672.34,-81.06 1675.99,-91.01 1681.4,-86.56"/>
</g>
<!-- Node21 -->
<g id="node21" class="node">
<title>Node21</title>
<g id="a_node21"><a xlink:title=" ">
<polygon fill="none" stroke="#bfbfbf" points="72.66,-123.5 72.66,-142.5 126.66,-142.5 126.66,-123.5 72.66,-123.5"/>
<text text-anchor="middle" x="99.66" y="-130.5" font-family="Helvetica,sans-Serif" font-size="10.00">iostream</text>
</a>
</g>
</g>
<!-- Node1&#45;&gt;Node21 -->
<g id="edge71" class="edge">
<title>Node1&#45;&gt;Node21</title>
<path fill="none" stroke="midnightblue" d="M1609.03,-412.1C1381.79,-412.39 170.1,-409.31 41.66,-311 -5.02,-275.28 1.29,-228.06 33.66,-179 42.65,-165.36 57.35,-154.75 70.59,-147.26"/>
<polygon fill="midnightblue" stroke="midnightblue" points="72.24,-150.35 79.44,-142.58 68.96,-144.16 72.24,-150.35"/>
</g>
<!-- Node29 -->
<g id="node29" class="node">
<title>Node29</title>
<g id="a_node29"><a xlink:title=" ">
<polygon fill="none" stroke="#bfbfbf" points="1749.66,-347.5 1749.66,-366.5 1805.66,-366.5 1805.66,-347.5 1749.66,-347.5"/>
<text text-anchor="middle" x="1777.66" y="-354.5" font-family="Helvetica,sans-Serif" font-size="10.00">algorithm</text>
</a>
</g>
</g>
<!-- Node1&#45;&gt;Node29 -->
<g id="edge70" class="edge">
<title>Node1&#45;&gt;Node29</title>
<path fill="none" stroke="midnightblue" d="M1666.57,-403.44C1688.39,-394.52 1722.81,-380.44 1747.55,-370.32"/>
<polygon fill="midnightblue" stroke="midnightblue" points="1748.91,-373.54 1756.84,-366.52 1746.26,-367.06 1748.91,-373.54"/>
</g>
<!-- Node30 -->
<g id="node30" class="node">
<title>Node30</title>
<g id="a_node30"><a xlink:title=" ">
<polygon fill="none" stroke="#bfbfbf" points="1824.16,-347.5 1824.16,-366.5 1871.16,-366.5 1871.16,-347.5 1824.16,-347.5"/>
<text text-anchor="middle" x="1847.66" y="-354.5" font-family="Helvetica,sans-Serif" font-size="10.00">iterator</text>
</a>
</g>
</g>
<!-- Node1&#45;&gt;Node30 -->
<g id="edge72" class="edge">
<title>Node1&#45;&gt;Node30</title>
<path fill="none" stroke="midnightblue" d="M1678.07,-403.43C1710.11,-394.95 1760.78,-381.49 1813.92,-367.19"/>
<polygon fill="midnightblue" stroke="midnightblue" points="1815.12,-370.49 1823.87,-364.51 1813.3,-363.73 1815.12,-370.49"/>
</g>
<!-- Node3 -->
<g id="node3" class="node">
<title>Node3</title>
<g id="a_node3"><a xlink:href="PotentialHydrodynamics_8hpp.html" target="_top" xlink:title=" ">
<polygon fill="none" stroke="black" points="623.66,-235.5 623.66,-254.5 765.66,-254.5 765.66,-235.5 623.66,-235.5"/>
<text text-anchor="middle" x="694.66" y="-242.5" font-family="Helvetica,sans-Serif" font-size="10.00">PotentialHydrodynamics.hpp</text>
</a>
</g>
</g>
<!-- Node2&#45;&gt;Node3 -->
<g id="edge2" class="edge">
<title>Node2&#45;&gt;Node3</title>
<path fill="none" stroke="midnightblue" d="M1022.1,-347.46C959.06,-327.93 804.26,-279.96 732.42,-257.7"/>
<polygon fill="midnightblue" stroke="midnightblue" points="733.03,-254.23 722.44,-254.61 730.96,-260.91 733.03,-254.23"/>
</g>
<!-- Node2&#45;&gt;Node4 -->
<g id="edge57" class="edge">
<title>Node2&#45;&gt;Node4</title>
<path fill="none" stroke="midnightblue" d="M1049.93,-347.08C1050.71,-320.95 1053.02,-244.21 1054.1,-208.58"/>
<polygon fill="midnightblue" stroke="midnightblue" points="1057.6,-208.67 1054.4,-198.57 1050.6,-208.46 1057.6,-208.67"/>
</g>
<!-- Node10 -->
<g id="node10" class="node">
<title>Node10</title>
<g id="a_node10"><a xlink:title=" ">
<polygon fill="none" stroke="#bfbfbf" points="918.66,-56.5 918.66,-86.5 1016.66,-86.5 1016.66,-56.5 918.66,-56.5"/>
<text text-anchor="start" x="926.66" y="-74.5" font-family="Helvetica,sans-Serif" font-size="10.00">spdlog/sinks/basic</text>
<text text-anchor="middle" x="967.66" y="-63.5" font-family="Helvetica,sans-Serif" font-size="10.00">_file_sink.h</text>
</a>
</g>
</g>
<!-- Node2&#45;&gt;Node10 -->
<g id="edge63" class="edge">
<title>Node2&#45;&gt;Node10</title>
<path fill="none" stroke="midnightblue" d="M1082.56,-353.02C1139.8,-345.84 1251.66,-322.07 1251.66,-246 1251.66,-246 1251.66,-246 1251.66,-188 1251.66,-157.9 1254.94,-143.24 1232.66,-123 1203.14,-96.19 1095.67,-82.71 1026.99,-76.68"/>
<polygon fill="midnightblue" stroke="midnightblue" points="1027,-73.17 1016.74,-75.81 1026.4,-80.14 1027,-73.17"/>
</g>
<!-- Node11 -->
<g id="node11" class="node">
<title>Node11</title>
<g id="a_node11"><a xlink:title=" ">
<polygon fill="none" stroke="#bfbfbf" points="1247.16,-62 1247.16,-81 1332.16,-81 1332.16,-62 1247.16,-62"/>
<text text-anchor="middle" x="1289.66" y="-69" font-family="Helvetica,sans-Serif" font-size="10.00">spdlog/spdlog.h</text>
</a>
</g>
</g>
<!-- Node2&#45;&gt;Node11 -->
<g id="edge64" class="edge">
<title>Node2&#45;&gt;Node11</title>
<path fill="none" stroke="midnightblue" d="M1082.42,-352.42C1121.56,-347.23 1188.33,-335.41 1240.66,-311 1284.4,-290.59 1327.66,-294.27 1327.66,-246 1327.66,-246 1327.66,-246 1327.66,-188 1327.66,-151.75 1310.56,-112.17 1299.3,-90.03"/>
<polygon fill="midnightblue" stroke="midnightblue" points="1302.39,-88.37 1294.62,-81.16 1296.2,-91.64 1302.39,-88.37"/>
</g>
<!-- Node2&#45;&gt;Node12 -->
<g id="edge66" class="edge">
<title>Node2&#45;&gt;Node12</title>
<path fill="none" stroke="midnightblue" d="M1082.18,-356.09C1196.03,-355.54 1569.66,-346.12 1569.66,-246 1569.66,-246 1569.66,-246 1569.66,-188 1569.66,-153.36 1560.81,-113.71 1554.89,-91.04"/>
<polygon fill="midnightblue" stroke="midnightblue" points="1558.19,-89.84 1552.19,-81.11 1551.43,-91.67 1558.19,-89.84"/>
</g>
<!-- Node13 -->
<g id="node13" class="node">
<title>Node13</title>
<g id="a_node13"><a xlink:title=" ">
<polygon fill="none" stroke="#bfbfbf" points="1426.16,-62 1426.16,-81 1485.16,-81 1485.16,-62 1426.16,-62"/>
<text text-anchor="middle" x="1455.66" y="-69" font-family="Helvetica,sans-Serif" font-size="10.00">stdexcept</text>
</a>
</g>
</g>
<!-- Node2&#45;&gt;Node13 -->
<g id="edge67" class="edge">
<title>Node2&#45;&gt;Node13</title>
<path fill="none" stroke="midnightblue" d="M1082.24,-355.29C1128.87,-353.06 1216.22,-344.34 1281.66,-311 1314.86,-294.08 1442.57,-176.38 1456.66,-143 1463.63,-126.46 1462.29,-105.74 1459.87,-91.06"/>
<polygon fill="midnightblue" stroke="midnightblue" points="1463.29,-90.31 1457.93,-81.17 1456.42,-91.66 1463.29,-90.31"/>
</g>
<!-- Node2&#45;&gt;Node14 -->
<g id="edge68" class="edge">
<title>Node2&#45;&gt;Node14</title>
<path fill="none" stroke="midnightblue" d="M1082.17,-356.03C1177.31,-355.63 1453.43,-350.99 1532.66,-311 1619.68,-267.08 1652.12,-139.42 1661.48,-91.22"/>
<polygon fill="midnightblue" stroke="midnightblue" points="1664.94,-91.71 1663.3,-81.25 1658.06,-90.46 1664.94,-91.71"/>
</g>
<!-- Node15 -->
<g id="node15" class="node">
<title>Node15</title>
<g id="a_node15"><a xlink:title=" ">
<polygon fill="none" stroke="#bfbfbf" points="104.16,-62 104.16,-81 201.16,-81 201.16,-62 104.16,-62"/>
<text text-anchor="middle" x="152.66" y="-69" font-family="Helvetica,sans-Serif" font-size="10.00">eigen3/Eigen/Core</text>
</a>
</g>
</g>
<!-- Node2&#45;&gt;Node15 -->
<g id="edge58" class="edge">
<title>Node2&#45;&gt;Node15</title>
<path fill="none" stroke="midnightblue" d="M1017.07,-355.47C848.69,-352.61 83.48,-338.16 41.66,-311 -8.64,-278.34 -5.63,-235.79 13.66,-179 29.88,-131.24 83.45,-100.66 119.15,-85.04"/>
<polygon fill="midnightblue" stroke="midnightblue" points="120.84,-88.13 128.7,-81.03 118.13,-81.68 120.84,-88.13"/>
</g>
<!-- Node16 -->
<g id="node16" class="node">
<title>Node16</title>
<g id="a_node16"><a xlink:title=" ">
<polygon fill="none" stroke="#bfbfbf" points="219.16,-62 219.16,-81 320.16,-81 320.16,-62 219.16,-62"/>
<text text-anchor="middle" x="269.66" y="-69" font-family="Helvetica,sans-Serif" font-size="10.00">eigen3/Eigen/Eigen</text>
</a>
</g>
</g>
<!-- Node2&#45;&gt;Node16 -->
<g id="edge59" class="edge">
<title>Node2&#45;&gt;Node16</title>
<path fill="none" stroke="midnightblue" d="M1016.96,-355.97C856.95,-355.63 160.55,-351.81 73.66,-311 -2.08,-275.43 -2.46,-174.28 63.66,-123 64.47,-122.37 163.96,-98.15 224.36,-83.49"/>
<polygon fill="midnightblue" stroke="midnightblue" points="225.53,-86.8 234.42,-81.04 223.88,-80 225.53,-86.8"/>
</g>
<!-- Node17 -->
<g id="node17" class="node">
<title>Node17</title>
<g id="a_node17"><a xlink:title=" ">
<polygon fill="none" stroke="#bfbfbf" points="494.66,-56.5 494.66,-86.5 604.66,-86.5 604.66,-56.5 494.66,-56.5"/>
<text text-anchor="start" x="502.66" y="-74.5" font-family="Helvetica,sans-Serif" font-size="10.00">eigen3/unsupported</text>
<text text-anchor="middle" x="549.66" y="-63.5" font-family="Helvetica,sans-Serif" font-size="10.00">/Eigen/CXX11/Tensor</text>
</a>
</g>
</g>
<!-- Node2&#45;&gt;Node17 -->
<g id="edge60" class="edge">
<title>Node2&#45;&gt;Node17</title>
<path fill="none" stroke="midnightblue" d="M1017.06,-355.32C918.13,-352.9 622.6,-343.12 532.66,-311 407.97,-266.47 348.48,-260.08 286.66,-143 282.51,-135.14 280.99,-129.85 286.66,-123 311.28,-93.19 414.92,-80.8 484.51,-75.78"/>
<polygon fill="midnightblue" stroke="midnightblue" points="484.78,-79.27 494.52,-75.09 484.3,-72.28 484.78,-79.27"/>
</g>
<!-- Node18 -->
<g id="node18" class="node">
<title>Node18</title>
<g id="a_node18"><a xlink:title=" ">
<polygon fill="none" stroke="#bfbfbf" points="636.16,-56.5 636.16,-86.5 767.16,-86.5 767.16,-56.5 636.16,-56.5"/>
<text text-anchor="start" x="644.16" y="-74.5" font-family="Helvetica,sans-Serif" font-size="10.00">eigen3/unsupported</text>
<text text-anchor="middle" x="701.66" y="-63.5" font-family="Helvetica,sans-Serif" font-size="10.00">/Eigen/CXX11/ThreadPool</text>
</a>
</g>
</g>
<!-- Node2&#45;&gt;Node18 -->
<g id="edge61" class="edge">
<title>Node2&#45;&gt;Node18</title>
<path fill="none" stroke="midnightblue" d="M1038.86,-347.2C990.9,-308.14 796.49,-149.76 726.73,-92.92"/>
<polygon fill="midnightblue" stroke="midnightblue" points="728.82,-90.11 718.86,-86.51 724.4,-95.54 728.82,-90.11"/>
</g>
<!-- Node19 -->
<g id="node19" class="node">
<title>Node19</title>
<g id="a_node19"><a xlink:href="helper__eigenTensorConversion_8hpp.html" target="_top" xlink:title=" ">
<polygon fill="none" stroke="black" points="296.16,-123.5 296.16,-142.5 465.16,-142.5 465.16,-123.5 296.16,-123.5"/>
<text text-anchor="middle" x="380.66" y="-130.5" font-family="Helvetica,sans-Serif" font-size="10.00">helper_eigenTensorConversion.hpp</text>
</a>
</g>
</g>
<!-- Node2&#45;&gt;Node19 -->
<g id="edge62" class="edge">
<title>Node2&#45;&gt;Node19</title>
<path fill="none" stroke="midnightblue" d="M1016.89,-356.32C888.91,-357.23 427.62,-357.25 383.66,-311 342.59,-267.8 362.02,-188.47 373.86,-152.55"/>
<polygon fill="midnightblue" stroke="midnightblue" points="377.24,-153.48 377.21,-142.88 370.63,-151.18 377.24,-153.48"/>
</g>
<!-- Node23 -->
<g id="node23" class="node">
<title>Node23</title>
<g id="a_node23"><a xlink:href="ProgressBar_8hpp.html" target="_top" xlink:title=" ">
<polygon fill="none" stroke="black" points="83.16,-291.5 83.16,-310.5 172.16,-310.5 172.16,-291.5 83.16,-291.5"/>
<text text-anchor="middle" x="127.66" y="-298.5" font-family="Helvetica,sans-Serif" font-size="10.00">ProgressBar.hpp</text>
</a>
</g>
</g>
<!-- Node2&#45;&gt;Node23 -->
<g id="edge41" class="edge">
<title>Node2&#45;&gt;Node23</title>
<path fill="none" stroke="midnightblue" d="M1016.96,-354.18C909.79,-348.2 559.4,-328.54 269.66,-311 240.92,-309.26 208.93,-307.24 182.59,-305.55"/>
<polygon fill="midnightblue" stroke="midnightblue" points="182.62,-302.05 172.42,-304.9 182.18,-309.04 182.62,-302.05"/>
</g>
<!-- Node27 -->
<g id="node27" class="node">
<title>Node27</title>
<g id="a_node27"><a xlink:href="RungeKutta4_8hpp.html" target="_top" xlink:title=" ">
<polygon fill="none" stroke="black" points="541.66,-291.5 541.66,-310.5 633.66,-310.5 633.66,-291.5 541.66,-291.5"/>
<text text-anchor="middle" x="587.66" y="-298.5" font-family="Helvetica,sans-Serif" font-size="10.00">RungeKutta4.hpp</text>
</a>
</g>
</g>
<!-- Node2&#45;&gt;Node27 -->
<g id="edge46" class="edge">
<title>Node2&#45;&gt;Node27</title>
<path fill="none" stroke="midnightblue" d="M1016.8,-352.16C938.75,-343.04 741.48,-319.98 643.98,-308.58"/>
<polygon fill="midnightblue" stroke="midnightblue" points="644.35,-305.1 634.01,-307.42 643.54,-312.06 644.35,-305.1"/>
</g>
<!-- Node28 -->
<g id="node28" class="node">
<title>Node28</title>
<g id="a_node28"><a xlink:title=" ">
<polygon fill="none" stroke="#bfbfbf" points="1097.16,-291.5 1097.16,-310.5 1144.16,-310.5 1144.16,-291.5 1097.16,-291.5"/>
<text text-anchor="middle" x="1120.66" y="-298.5" font-family="Helvetica,sans-Serif" font-size="10.00">math.h</text>
</a>
</g>
</g>
<!-- Node2&#45;&gt;Node28 -->
<g id="edge65" class="edge">
<title>Node2&#45;&gt;Node28</title>
<path fill="none" stroke="midnightblue" d="M1061.06,-347.32C1071.77,-339.18 1088,-326.84 1100.82,-317.09"/>
<polygon fill="midnightblue" stroke="midnightblue" points="1103.2,-319.67 1109.04,-310.83 1098.96,-314.1 1103.2,-319.67"/>
</g>
<!-- Node3&#45;&gt;Node4 -->
<g id="edge3" class="edge">
<title>Node3&#45;&gt;Node4</title>
<path fill="none" stroke="midnightblue" d="M751.7,-235.44C819.68,-225.25 932.49,-208.32 999.59,-198.26"/>
<polygon fill="midnightblue" stroke="midnightblue" points="1000.18,-201.71 1009.55,-196.77 999.14,-194.79 1000.18,-201.71"/>
</g>
<!-- Node3&#45;&gt;Node10 -->
<g id="edge39" class="edge">
<title>Node3&#45;&gt;Node10</title>
<path fill="none" stroke="midnightblue" d="M706.88,-235.47C736.01,-215.24 811.98,-163.07 877.66,-123 895.47,-112.14 915.69,-100.71 932.45,-91.48"/>
<polygon fill="midnightblue" stroke="midnightblue" points="934.28,-94.46 941.37,-86.59 930.92,-88.32 934.28,-94.46"/>
</g>
<!-- Node3&#45;&gt;Node11 -->
<g id="edge40" class="edge">
<title>Node3&#45;&gt;Node11</title>
<path fill="none" stroke="midnightblue" d="M713.79,-235.4C769.49,-210.46 931.13,-138.91 986.66,-123 1072.56,-98.39 1175.82,-84.36 1236.91,-77.61"/>
<polygon fill="midnightblue" stroke="midnightblue" points="1237.51,-81.06 1247.08,-76.51 1236.76,-74.1 1237.51,-81.06"/>
</g>
<!-- Node3&#45;&gt;Node15 -->
<g id="edge34" class="edge">
<title>Node3&#45;&gt;Node15</title>
<path fill="none" stroke="midnightblue" d="M631.6,-235.5C547,-222.65 393.2,-194.17 270.66,-143 234.27,-127.81 195.7,-102.86 172.92,-87.07"/>
<polygon fill="midnightblue" stroke="midnightblue" points="174.64,-84.01 164.45,-81.12 170.62,-89.73 174.64,-84.01"/>
</g>
<!-- Node3&#45;&gt;Node16 -->
<g id="edge35" class="edge">
<title>Node3&#45;&gt;Node16</title>
<path fill="none" stroke="midnightblue" d="M671.03,-235.5C632.88,-222.02 555.15,-195.57 487.66,-179 399.52,-157.36 352.71,-205.24 286.66,-143 272.79,-129.94 269.38,-107.69 268.9,-91.68"/>
<polygon fill="midnightblue" stroke="midnightblue" points="272.41,-91.37 268.97,-81.34 265.41,-91.32 272.41,-91.37"/>
</g>
<!-- Node3&#45;&gt;Node17 -->
<g id="edge36" class="edge">
<title>Node3&#45;&gt;Node17</title>
<path fill="none" stroke="midnightblue" d="M687.27,-235.26C665.43,-209.43 600.71,-132.89 568.42,-94.69"/>
<polygon fill="midnightblue" stroke="midnightblue" points="570.81,-92.1 561.68,-86.72 565.47,-96.62 570.81,-92.1"/>
</g>
<!-- Node3&#45;&gt;Node18 -->
<g id="edge37" class="edge">
<title>Node3&#45;&gt;Node18</title>
<path fill="none" stroke="midnightblue" d="M695.01,-235.26C696.05,-209.97 699.06,-136.08 700.65,-97.15"/>
<polygon fill="midnightblue" stroke="midnightblue" points="704.17,-96.86 701.08,-86.72 697.17,-96.57 704.17,-96.86"/>
</g>
<!-- Node3&#45;&gt;Node19 -->
<g id="edge38" class="edge">
<title>Node3&#45;&gt;Node19</title>
<path fill="none" stroke="midnightblue" d="M680.19,-235.5C656.54,-221.9 607.76,-195.14 563.66,-179 522.37,-163.89 474.01,-152.25 437.38,-144.59"/>
<polygon fill="midnightblue" stroke="midnightblue" points="437.87,-141.12 427.37,-142.54 436.46,-147.98 437.87,-141.12"/>
</g>
<!-- Node5 -->
<g id="node5" class="node">
<title>Node5</title>
<g id="a_node5"><a xlink:href="GSDUtil_8hpp.html" target="_top" xlink:title=" ">
<polygon fill="none" stroke="black" points="1355.66,-123.5 1355.66,-142.5 1427.66,-142.5 1427.66,-123.5 1355.66,-123.5"/>
<text text-anchor="middle" x="1391.66" y="-130.5" font-family="Helvetica,sans-Serif" font-size="10.00">GSDUtil.hpp</text>
</a>
</g>
</g>
<!-- Node4&#45;&gt;Node5 -->
<g id="edge4" class="edge">
<title>Node4&#45;&gt;Node5</title>
<path fill="none" stroke="midnightblue" d="M1099.78,-179.97C1163.95,-169.29 1280.72,-150.6 1345.47,-140.66"/>
<polygon fill="midnightblue" stroke="midnightblue" points="1346.05,-144.11 1355.4,-139.14 1344.99,-137.19 1346.05,-144.11"/>
</g>
<!-- Node6 -->
<g id="node6" class="node">
<title>Node6</title>
<g id="a_node6"><a xlink:href="gsd_8h.html" target="_top" xlink:title="Declare GSD data types and C API.">
<polygon fill="none" stroke="black" points="1359.16,-62 1359.16,-81 1400.16,-81 1400.16,-62 1359.16,-62"/>
<text text-anchor="middle" x="1379.66" y="-69" font-family="Helvetica,sans-Serif" font-size="10.00">gsd.h</text>
</a>
</g>
</g>
<!-- Node4&#45;&gt;Node6 -->
<g id="edge15" class="edge">
<title>Node4&#45;&gt;Node6</title>
<path fill="none" stroke="midnightblue" d="M1061.29,-179.13C1072.56,-164.75 1096.97,-136.6 1124.66,-123 1212,-80.08 1246.62,-112.07 1340.66,-87 1343.47,-86.25 1346.36,-85.38 1349.25,-84.44"/>
<polygon fill="midnightblue" stroke="midnightblue" points="1350.56,-87.68 1358.84,-81.07 1348.25,-81.08 1350.56,-87.68"/>
</g>
<!-- Node4&#45;&gt;Node10 -->
<g id="edge27" class="edge">
<title>Node4&#45;&gt;Node10</title>
<path fill="none" stroke="midnightblue" d="M1034.16,-179.35C1018.88,-171.88 998.66,-159.65 986.66,-143 976.97,-129.56 972.22,-111.47 969.89,-96.98"/>
<polygon fill="midnightblue" stroke="midnightblue" points="973.32,-96.19 968.54,-86.74 966.38,-97.11 973.32,-96.19"/>
</g>
<!-- Node4&#45;&gt;Node11 -->
<g id="edge28" class="edge">
<title>Node4&#45;&gt;Node11</title>
<path fill="none" stroke="midnightblue" d="M1057.14,-179.36C1061.62,-165.32 1072.45,-137.65 1091.66,-123 1133.7,-90.94 1193.91,-79.09 1236.87,-74.79"/>
<polygon fill="midnightblue" stroke="midnightblue" points="1237.21,-78.27 1246.86,-73.89 1236.58,-71.3 1237.21,-78.27"/>
</g>
<!-- Node4&#45;&gt;Node12 -->
<g id="edge30" class="edge">
<title>Node4&#45;&gt;Node12</title>
<path fill="none" stroke="midnightblue" d="M1099.67,-185.97C1190.54,-181.38 1392.66,-168.56 1456.66,-143 1487.38,-130.73 1516.74,-105.43 1533.98,-88.72"/>
<polygon fill="midnightblue" stroke="midnightblue" points="1536.82,-90.83 1541.43,-81.29 1531.88,-85.88 1536.82,-90.83"/>
</g>
<!-- Node4&#45;&gt;Node13 -->
<g id="edge31" class="edge">
<title>Node4&#45;&gt;Node13</title>
<path fill="none" stroke="midnightblue" d="M1099.95,-188.79C1190.02,-189.42 1387.19,-185.72 1436.66,-143 1451.32,-130.33 1455.25,-107.65 1456.03,-91.43"/>
<polygon fill="midnightblue" stroke="midnightblue" points="1459.54,-91.04 1456.15,-81 1452.54,-90.96 1459.54,-91.04"/>
</g>
<!-- Node4&#45;&gt;Node14 -->
<g id="edge32" class="edge">
<title>Node4&#45;&gt;Node14</title>
<path fill="none" stroke="midnightblue" d="M1099.81,-187.33C1179.19,-185.27 1348.42,-176.89 1486.66,-143 1542.48,-129.31 1604.11,-101.95 1638.23,-85.63"/>
<polygon fill="midnightblue" stroke="midnightblue" points="1640.02,-88.65 1647.49,-81.14 1636.97,-82.35 1640.02,-88.65"/>
</g>
<!-- Node4&#45;&gt;Node15 -->
<g id="edge16" class="edge">
<title>Node4&#45;&gt;Node15</title>
<path fill="none" stroke="midnightblue" d="M1009.58,-184.38C929.37,-177.72 756.66,-162.43 611.66,-143 558.07,-135.82 545.15,-130.87 491.66,-123 366.65,-104.61 333.78,-110.62 209.66,-87 204.26,-85.97 198.62,-84.74 193.08,-83.43"/>
<polygon fill="midnightblue" stroke="midnightblue" points="193.81,-80.01 183.27,-81.02 192.14,-86.8 193.81,-80.01"/>
</g>
<!-- Node4&#45;&gt;Node16 -->
<g id="edge17" class="edge">
<title>Node4&#45;&gt;Node16</title>
<path fill="none" stroke="midnightblue" d="M1009.63,-181.38C876.11,-161.73 482.22,-103.78 330.34,-81.43"/>
<polygon fill="midnightblue" stroke="midnightblue" points="330.66,-77.94 320.26,-79.95 329.65,-84.86 330.66,-77.94"/>
</g>
<!-- Node4&#45;&gt;Node17 -->
<g id="edge18" class="edge">
<title>Node4&#45;&gt;Node17</title>
<path fill="none" stroke="midnightblue" d="M1016.1,-179.46C975.63,-170.47 910.14,-155.87 853.66,-143 771.22,-124.21 676.32,-102.13 614.78,-87.75"/>
<polygon fill="midnightblue" stroke="midnightblue" points="615.36,-84.29 604.82,-85.43 613.76,-91.11 615.36,-84.29"/>
</g>
<!-- Node4&#45;&gt;Node18 -->
<g id="edge19" class="edge">
<title>Node4&#45;&gt;Node18</title>
<path fill="none" stroke="midnightblue" d="M1028.41,-179.41C970.61,-160.5 831.36,-114.94 754.62,-89.83"/>
<polygon fill="midnightblue" stroke="midnightblue" points="755.27,-86.36 744.68,-86.58 753.09,-93.01 755.27,-86.36"/>
</g>
<!-- Node4&#45;&gt;Node19 -->
<g id="edge20" class="edge">
<title>Node4&#45;&gt;Node19</title>
<path fill="none" stroke="midnightblue" d="M1009.65,-184.39C901.12,-175.7 623.12,-153.43 475.72,-141.62"/>
<polygon fill="midnightblue" stroke="midnightblue" points="475.58,-138.09 465.33,-140.78 475.02,-145.07 475.58,-138.09"/>
</g>
<!-- Node20 -->
<g id="node20" class="node">
<title>Node20</title>
<g id="a_node20"><a xlink:title=" ">
<polygon fill="none" stroke="#bfbfbf" points="1133.66,-123.5 1133.66,-142.5 1223.66,-142.5 1223.66,-123.5 1133.66,-123.5"/>
<text text-anchor="middle" x="1178.66" y="-130.5" font-family="Helvetica,sans-Serif" font-size="10.00">spdlog/fmt/ostr.h</text>
</a>
</g>
</g>
<!-- Node4&#45;&gt;Node20 -->
<g id="edge26" class="edge">
<title>Node4&#45;&gt;Node20</title>
<path fill="none" stroke="midnightblue" d="M1074.3,-179.44C1094.62,-170.6 1126.56,-156.69 1149.75,-146.59"/>
<polygon fill="midnightblue" stroke="midnightblue" points="1151.33,-149.72 1159.1,-142.52 1148.53,-143.3 1151.33,-149.72"/>
</g>
<!-- Node4&#45;&gt;Node21 -->
<g id="edge29" class="edge">
<title>Node4&#45;&gt;Node21</title>
<path fill="none" stroke="midnightblue" d="M1009.56,-185.45C846.18,-176.21 287.03,-144.6 136.97,-136.11"/>
<polygon fill="midnightblue" stroke="midnightblue" points="137.07,-132.61 126.89,-135.54 136.67,-139.6 137.07,-132.61"/>
</g>
<!-- Node22 -->
<g id="node22" class="node">
<title>Node22</title>
<g id="a_node22"><a xlink:title=" ">
<polygon fill="none" stroke="#bfbfbf" points="995.66,-123.5 995.66,-142.5 1039.66,-142.5 1039.66,-123.5 995.66,-123.5"/>
<text text-anchor="middle" x="1017.66" y="-130.5" font-family="Helvetica,sans-Serif" font-size="10.00">thread</text>
</a>
</g>
</g>
<!-- Node4&#45;&gt;Node22 -->
<g id="edge33" class="edge">
<title>Node4&#45;&gt;Node22</title>
<path fill="none" stroke="midnightblue" d="M1048.55,-179.08C1043.37,-171.53 1035.81,-160.49 1029.46,-151.23"/>
<polygon fill="midnightblue" stroke="midnightblue" points="1032.19,-149.02 1023.65,-142.75 1026.42,-152.98 1032.19,-149.02"/>
</g>
<!-- Node5&#45;&gt;Node4 -->
<g id="edge5" class="edge">
<title>Node5&#45;&gt;Node4</title>
<path fill="none" stroke="midnightblue" d="M1355.45,-140.54C1296.38,-150.44 1179.21,-169.24 1109.78,-179.96"/>
<polygon fill="midnightblue" stroke="midnightblue" points="1109.24,-176.51 1099.89,-181.49 1110.31,-183.42 1109.24,-176.51"/>
</g>
<!-- Node5&#45;&gt;Node6 -->
<g id="edge6" class="edge">
<title>Node5&#45;&gt;Node6</title>
<path fill="none" stroke="midnightblue" d="M1389.94,-123.48C1388.23,-114.99 1385.55,-101.7 1383.35,-90.82"/>
<polygon fill="midnightblue" stroke="midnightblue" points="1386.78,-90.12 1381.37,-81.01 1379.92,-91.5 1386.78,-90.12"/>
</g>
<!-- Node5&#45;&gt;Node10 -->
<g id="edge10" class="edge">
<title>Node5&#45;&gt;Node10</title>
<path fill="none" stroke="midnightblue" d="M1355.51,-126.93C1282.33,-116.66 1116.04,-93.32 1026.83,-80.8"/>
<polygon fill="midnightblue" stroke="midnightblue" points="1027.26,-77.33 1016.87,-79.41 1026.28,-84.26 1027.26,-77.33"/>
</g>
<!-- Node5&#45;&gt;Node11 -->
<g id="edge11" class="edge">
<title>Node5&#45;&gt;Node11</title>
<path fill="none" stroke="midnightblue" d="M1377.04,-123.48C1360.3,-113.71 1332.65,-97.58 1312.94,-86.08"/>
<polygon fill="midnightblue" stroke="midnightblue" points="1314.64,-83.02 1304.24,-81.01 1311.12,-89.07 1314.64,-83.02"/>
</g>
<!-- Node5&#45;&gt;Node12 -->
<g id="edge12" class="edge">
<title>Node5&#45;&gt;Node12</title>
<path fill="none" stroke="midnightblue" d="M1414.29,-123.48C1441.4,-113.27 1486.97,-96.11 1517.66,-84.55"/>
<polygon fill="midnightblue" stroke="midnightblue" points="1518.94,-87.81 1527.06,-81.01 1516.47,-81.26 1518.94,-87.81"/>
</g>
<!-- Node5&#45;&gt;Node13 -->
<g id="edge13" class="edge">
<title>Node5&#45;&gt;Node13</title>
<path fill="none" stroke="midnightblue" d="M1400.83,-123.48C1410.81,-114.2 1426.97,-99.17 1439.17,-87.83"/>
<polygon fill="midnightblue" stroke="midnightblue" points="1441.56,-90.38 1446.5,-81.01 1436.8,-85.25 1441.56,-90.38"/>
</g>
<!-- Node5&#45;&gt;Node14 -->
<g id="edge14" class="edge">
<title>Node5&#45;&gt;Node14</title>
<path fill="none" stroke="midnightblue" d="M1427.91,-124.1C1482.07,-112.29 1583.17,-90.26 1633.92,-79.2"/>
<polygon fill="midnightblue" stroke="midnightblue" points="1634.93,-82.56 1643.96,-77.01 1633.44,-75.72 1634.93,-82.56"/>
</g>
<!-- Node7 -->
<g id="node7" class="node">
<title>Node7</title>
<g id="a_node7"><a xlink:title=" ">
<polygon fill="none" stroke="#bfbfbf" points="1280.66,-0.5 1280.66,-19.5 1336.66,-19.5 1336.66,-0.5 1280.66,-0.5"/>
<text text-anchor="middle" x="1308.66" y="-7.5" font-family="Helvetica,sans-Serif" font-size="10.00">stdbool.h</text>
</a>
</g>
</g>
<!-- Node6&#45;&gt;Node7 -->
<g id="edge7" class="edge">
<title>Node6&#45;&gt;Node7</title>
<path fill="none" stroke="midnightblue" d="M1369.48,-61.98C1358.31,-52.61 1340.14,-37.38 1326.57,-26.01"/>
<polygon fill="midnightblue" stroke="midnightblue" points="1328.72,-23.25 1318.81,-19.51 1324.23,-28.61 1328.72,-23.25"/>
</g>
<!-- Node8 -->
<g id="node8" class="node">
<title>Node8</title>
<g id="a_node8"><a xlink:title=" ">
<polygon fill="none" stroke="#bfbfbf" points="1355.16,-0.5 1355.16,-19.5 1404.16,-19.5 1404.16,-0.5 1355.16,-0.5"/>
<text text-anchor="middle" x="1379.66" y="-7.5" font-family="Helvetica,sans-Serif" font-size="10.00">stdint.h</text>
</a>
</g>
</g>
<!-- Node6&#45;&gt;Node8 -->
<g id="edge8" class="edge">
<title>Node6&#45;&gt;Node8</title>
<path fill="none" stroke="midnightblue" d="M1379.66,-61.98C1379.66,-53.58 1379.66,-40.48 1379.66,-29.66"/>
<polygon fill="midnightblue" stroke="midnightblue" points="1383.16,-29.51 1379.66,-19.51 1376.16,-29.51 1383.16,-29.51"/>
</g>
<!-- Node9 -->
<g id="node9" class="node">
<title>Node9</title>
<g id="a_node9"><a xlink:title=" ">
<polygon fill="none" stroke="#bfbfbf" points="1422.16,-0.5 1422.16,-19.5 1471.16,-19.5 1471.16,-0.5 1422.16,-0.5"/>
<text text-anchor="middle" x="1446.66" y="-7.5" font-family="Helvetica,sans-Serif" font-size="10.00">string.h</text>
</a>
</g>
</g>
<!-- Node6&#45;&gt;Node9 -->
<g id="edge9" class="edge">
<title>Node6&#45;&gt;Node9</title>
<path fill="none" stroke="midnightblue" d="M1389.26,-61.98C1399.7,-52.7 1416.62,-37.67 1429.39,-26.33"/>
<polygon fill="midnightblue" stroke="midnightblue" points="1431.92,-28.77 1437.07,-19.51 1427.27,-23.53 1431.92,-28.77"/>
</g>
<!-- Node19&#45;&gt;Node15 -->
<g id="edge21" class="edge">
<title>Node19&#45;&gt;Node15</title>
<path fill="none" stroke="midnightblue" d="M347.99,-123.48C307.78,-112.98 239.4,-95.14 195.14,-83.59"/>
<polygon fill="midnightblue" stroke="midnightblue" points="195.82,-80.15 185.26,-81.01 194.05,-86.92 195.82,-80.15"/>
</g>
<!-- Node19&#45;&gt;Node16 -->
<g id="edge22" class="edge">
<title>Node19&#45;&gt;Node16</title>
<path fill="none" stroke="midnightblue" d="M364.75,-123.48C346.37,-113.62 315.9,-97.29 294.41,-85.77"/>
<polygon fill="midnightblue" stroke="midnightblue" points="296,-82.65 285.53,-81.01 292.69,-88.82 296,-82.65"/>
</g>
<!-- Node19&#45;&gt;Node17 -->
<g id="edge23" class="edge">
<title>Node19&#45;&gt;Node17</title>
<path fill="none" stroke="midnightblue" d="M404.87,-123.48C429.68,-114.74 468.97,-100.91 500.36,-89.86"/>
<polygon fill="midnightblue" stroke="midnightblue" points="501.56,-93.15 509.83,-86.52 499.23,-86.54 501.56,-93.15"/>
</g>
<!-- Node19&#45;&gt;Node18 -->
<g id="edge24" class="edge">
<title>Node19&#45;&gt;Node18</title>
<path fill="none" stroke="midnightblue" d="M426.65,-123.48C478.62,-113.84 564.02,-98.01 625.89,-86.54"/>
<polygon fill="midnightblue" stroke="midnightblue" points="626.79,-89.94 635.99,-84.67 625.52,-83.05 626.79,-89.94"/>
</g>
<!-- Node19&#45;&gt;Node19 -->
<g id="edge25" class="edge">
<title>Node19&#45;&gt;Node19</title>
<path fill="none" stroke="midnightblue" d="M424.11,-142.5C453.9,-145.33 483.16,-142.16 483.16,-133 483.16,-124.88 460.16,-121.47 434.17,-122.77"/>
<polygon fill="midnightblue" stroke="midnightblue" points="433.83,-119.29 424.11,-123.5 434.33,-126.27 433.83,-119.29"/>
</g>
<!-- Node23&#45;&gt;Node21 -->
<g id="edge45" class="edge">
<title>Node23&#45;&gt;Node21</title>
<path fill="none" stroke="midnightblue" d="M86.61,-291.38C66.7,-284.92 44.56,-273.81 32.66,-255 9.27,-218.04 53.08,-172.41 80.31,-149.17"/>
<polygon fill="midnightblue" stroke="midnightblue" points="82.65,-151.77 88.13,-142.71 78.19,-146.38 82.65,-151.77"/>
</g>
<!-- Node24 -->
<g id="node24" class="node">
<title>Node24</title>
<g id="a_node24"><a xlink:title=" ">
<polygon fill="none" stroke="#bfbfbf" points="41.66,-235.5 41.66,-254.5 87.66,-254.5 87.66,-235.5 41.66,-235.5"/>
<text text-anchor="middle" x="64.66" y="-242.5" font-family="Helvetica,sans-Serif" font-size="10.00">chrono</text>
</a>
</g>
</g>
<!-- Node23&#45;&gt;Node24 -->
<g id="edge42" class="edge">
<title>Node23&#45;&gt;Node24</title>
<path fill="none" stroke="midnightblue" d="M117.53,-291.32C108.13,-283.26 93.91,-271.08 82.59,-261.37"/>
<polygon fill="midnightblue" stroke="midnightblue" points="84.83,-258.68 74.96,-254.83 80.28,-264 84.83,-258.68"/>
</g>
<!-- Node25 -->
<g id="node25" class="node">
<title>Node25</title>
<g id="a_node25"><a xlink:title=" ">
<polygon fill="none" stroke="#bfbfbf" points="105.66,-235.5 105.66,-254.5 149.66,-254.5 149.66,-235.5 105.66,-235.5"/>
<text text-anchor="middle" x="127.66" y="-242.5" font-family="Helvetica,sans-Serif" font-size="10.00">cmath</text>
</a>
</g>
</g>
<!-- Node23&#45;&gt;Node25 -->
<g id="edge43" class="edge">
<title>Node23&#45;&gt;Node25</title>
<path fill="none" stroke="midnightblue" d="M127.66,-291.08C127.66,-284.01 127.66,-273.86 127.66,-264.99"/>
<polygon fill="midnightblue" stroke="midnightblue" points="131.16,-264.75 127.66,-254.75 124.16,-264.75 131.16,-264.75"/>
</g>
<!-- Node26 -->
<g id="node26" class="node">
<title>Node26</title>
<g id="a_node26"><a xlink:title=" ">
<polygon fill="none" stroke="#bfbfbf" points="167.66,-235.5 167.66,-254.5 217.66,-254.5 217.66,-235.5 167.66,-235.5"/>
<text text-anchor="middle" x="192.66" y="-242.5" font-family="Helvetica,sans-Serif" font-size="10.00">iomanip</text>
</a>
</g>
</g>
<!-- Node23&#45;&gt;Node26 -->
<g id="edge44" class="edge">
<title>Node23&#45;&gt;Node26</title>
<path fill="none" stroke="midnightblue" d="M138.1,-291.32C147.8,-283.26 162.47,-271.08 174.16,-261.37"/>
<polygon fill="midnightblue" stroke="midnightblue" points="176.57,-263.92 182.02,-254.83 172.09,-258.53 176.57,-263.92"/>
</g>
<!-- Node27&#45;&gt;Node3 -->
<g id="edge47" class="edge">
<title>Node27&#45;&gt;Node3</title>
<path fill="none" stroke="midnightblue" d="M604.85,-291.32C622.01,-282.66 648.6,-269.24 668.4,-259.25"/>
<polygon fill="midnightblue" stroke="midnightblue" points="670.16,-262.28 677.51,-254.65 667,-256.04 670.16,-262.28"/>
</g>
<!-- Node27&#45;&gt;Node4 -->
<g id="edge48" class="edge">
<title>Node27&#45;&gt;Node4</title>
<path fill="none" stroke="midnightblue" d="M633.71,-299.06C700.6,-296.57 827.88,-287.54 930.66,-255 950.83,-248.61 1000.94,-220.83 1030.92,-203.73"/>
<polygon fill="midnightblue" stroke="midnightblue" points="1032.95,-206.6 1039.89,-198.59 1029.47,-200.52 1032.95,-206.6"/>
</g>
<!-- Node27&#45;&gt;Node10 -->
<g id="edge54" class="edge">
<title>Node27&#45;&gt;Node10</title>
<path fill="none" stroke="midnightblue" d="M633.86,-295.63C673.23,-290.37 730.33,-279.03 774.66,-255 851.36,-213.42 920.1,-133.62 950.75,-94.8"/>
<polygon fill="midnightblue" stroke="midnightblue" points="953.66,-96.77 957.04,-86.73 948.14,-92.47 953.66,-96.77"/>
</g>
<!-- Node27&#45;&gt;Node11 -->
<g id="edge55" class="edge">
<title>Node27&#45;&gt;Node11</title>
<path fill="none" stroke="midnightblue" d="M633.85,-298.34C705.93,-294.9 849.08,-284.64 966.66,-255 1032.44,-238.42 1046.17,-225.41 1108.66,-199 1164.36,-175.46 1184.79,-179.96 1232.66,-143 1251.85,-128.18 1268.58,-105.67 1278.86,-90.09"/>
<polygon fill="midnightblue" stroke="midnightblue" points="1281.97,-91.73 1284.4,-81.42 1276.07,-87.96 1281.97,-91.73"/>
</g>
<!-- Node27&#45;&gt;Node15 -->
<g id="edge49" class="edge">
<title>Node27&#45;&gt;Node15</title>
<path fill="none" stroke="midnightblue" d="M541.58,-297.27C482.53,-292.8 377.56,-281.6 291.66,-255 236.97,-238.06 227.04,-224.25 175.66,-199 125.71,-174.46 92.92,-190.34 63.66,-143 47.62,-117.05 83.49,-96.71 114.38,-84.68"/>
<polygon fill="midnightblue" stroke="midnightblue" points="115.99,-87.82 124.16,-81.07 113.57,-81.25 115.99,-87.82"/>
</g>
<!-- Node27&#45;&gt;Node16 -->
<g id="edge50" class="edge">
<title>Node27&#45;&gt;Node16</title>
<path fill="none" stroke="midnightblue" d="M555.84,-291.44C473.32,-268.54 256.14,-203.46 216.66,-143 203.46,-122.79 226.62,-100.73 246.36,-86.77"/>
<polygon fill="midnightblue" stroke="midnightblue" points="248.41,-89.61 254.77,-81.13 244.52,-83.79 248.41,-89.61"/>
</g>
<!-- Node27&#45;&gt;Node17 -->
<g id="edge51" class="edge">
<title>Node27&#45;&gt;Node17</title>
<path fill="none" stroke="midnightblue" d="M584.53,-291.49C581.35,-282.53 576.5,-267.95 573.66,-255 561.41,-199.23 554.57,-132.42 551.55,-97.13"/>
<polygon fill="midnightblue" stroke="midnightblue" points="555.01,-96.52 550.7,-86.84 548.04,-97.1 555.01,-96.52"/>
</g>
<!-- Node27&#45;&gt;Node18 -->
<g id="edge52" class="edge">
<title>Node27&#45;&gt;Node18</title>
<path fill="none" stroke="midnightblue" d="M590.89,-291.47C595.71,-278.94 605.24,-254.88 614.66,-235 638.75,-184.16 670.79,-126.51 688.49,-95.38"/>
<polygon fill="midnightblue" stroke="midnightblue" points="691.58,-97.03 693.5,-86.61 685.5,-93.55 691.58,-97.03"/>
</g>
<!-- Node27&#45;&gt;Node19 -->
<g id="edge53" class="edge">
<title>Node27&#45;&gt;Node19</title>
<path fill="none" stroke="midnightblue" d="M565.39,-291.37C546.42,-283.46 518.93,-270.6 497.66,-255 454.85,-223.6 413.87,-175.82 393.69,-150.73"/>
<polygon fill="midnightblue" stroke="midnightblue" points="396.18,-148.24 387.23,-142.58 390.7,-152.59 396.18,-148.24"/>
</g>
<!-- Node27&#45;&gt;Node21 -->
<g id="edge56" class="edge">
<title>Node27&#45;&gt;Node21</title>
<path fill="none" stroke="midnightblue" d="M541.22,-295.19C491.8,-289.19 411.77,-276.94 345.66,-255 259.15,-226.28 164.4,-172.81 122.15,-147.7"/>
<polygon fill="midnightblue" stroke="midnightblue" points="123.87,-144.65 113.49,-142.51 120.27,-150.65 123.87,-144.65"/>
</g>
</g>
</svg>
