<?xml version="1.0" encoding="UTF-8" standalone="no"?>
<!DOCTYPE svg PUBLIC "-//W3C//DTD SVG 1.1//EN"
 "http://www.w3.org/Graphics/SVG/1.1/DTD/svg11.dtd">
<!-- Generated by graphviz version 2.43.0 (0)
 -->
<!-- Title: src/main.cpp Pages: 1 -->
<svg width="1108pt" height="442pt"
 viewBox="0.00 0.00 1108.00 442.00" xmlns="http://www.w3.org/2000/svg" xmlns:xlink="http://www.w3.org/1999/xlink">
<g id="graph0" class="graph" transform="scale(1 1) rotate(0) translate(4 438)">
<title>src/main.cpp</title>
<!-- Node1 -->
<g id="node1" class="node">
<title>Node1</title>
<g id="a_node1"><a xlink:title=" ">
<polygon fill="#bfbfbf" stroke="black" points="987.5,-414.5 987.5,-433.5 1060.5,-433.5 1060.5,-414.5 987.5,-414.5"/>
<text text-anchor="middle" x="1024" y="-421.5" font-family="Helvetica,sans-Serif" font-size="10.00">src/main.cpp</text>
</a>
</g>
</g>
<!-- Node2 -->
<g id="node2" class="node">
<title>Node2</title>
<g id="a_node2"><a xlink:href="engine_8hpp.html" target="_top" xlink:title=" ">
<polygon fill="none" stroke="black" points="617,-358.5 617,-377.5 681,-377.5 681,-358.5 617,-358.5"/>
<text text-anchor="middle" x="649" y="-365.5" font-family="Helvetica,sans-Serif" font-size="10.00">engine.hpp</text>
</a>
</g>
</g>
<!-- Node1&#45;&gt;Node2 -->
<g id="edge1" class="edge">
<title>Node1&#45;&gt;Node2</title>
<path fill="none" stroke="midnightblue" d="M987.36,-417.72C917.39,-407.65 765.15,-385.73 691.12,-375.06"/>
<polygon fill="midnightblue" stroke="midnightblue" points="691.6,-371.6 681.21,-373.64 690.61,-378.53 691.6,-371.6"/>
</g>
<!-- Node4 -->
<g id="node4" class="node">
<title>Node4</title>
<g id="a_node4"><a xlink:href="systemData_8hpp.html" target="_top" xlink:title=" ">
<polygon fill="none" stroke="black" points="725.5,-190.5 725.5,-209.5 814.5,-209.5 814.5,-190.5 725.5,-190.5"/>
<text text-anchor="middle" x="770" y="-197.5" font-family="Helvetica,sans-Serif" font-size="10.00">systemData.hpp</text>
</a>
</g>
</g>
<!-- Node1&#45;&gt;Node4 -->
<g id="edge53" class="edge">
<title>Node1&#45;&gt;Node4</title>
<path fill="none" stroke="midnightblue" d="M1018.14,-414.12C999.27,-386.08 937.19,-298.23 867,-246 848.14,-231.97 824.21,-220.81 804.84,-213.11"/>
<polygon fill="midnightblue" stroke="midnightblue" points="806.05,-209.83 795.46,-209.51 803.54,-216.36 806.05,-209.83"/>
</g>
<!-- Node12 -->
<g id="node12" class="node">
<title>Node12</title>
<g id="a_node12"><a xlink:title=" ">
<polygon fill="none" stroke="#bfbfbf" points="889,-62 889,-81 941,-81 941,-62 889,-62"/>
<text text-anchor="middle" x="915" y="-69" font-family="Helvetica,sans-Serif" font-size="10.00">memory</text>
</a>
</g>
</g>
<!-- Node1&#45;&gt;Node12 -->
<g id="edge54" class="edge">
<title>Node1&#45;&gt;Node12</title>
<path fill="none" stroke="midnightblue" d="M1029.28,-414.23C1039.73,-396.04 1062,-352.6 1062,-313 1062,-313 1062,-313 1062,-199 1062,-140 993.11,-102.49 949.65,-84.71"/>
<polygon fill="midnightblue" stroke="midnightblue" points="950.86,-81.42 940.27,-81.01 948.29,-87.93 950.86,-81.42"/>
</g>
<!-- Node14 -->
<g id="node14" class="node">
<title>Node14</title>
<g id="a_node14"><a xlink:title=" ">
<polygon fill="none" stroke="#bfbfbf" points="984.5,-62 984.5,-81 1025.5,-81 1025.5,-62 984.5,-62"/>
<text text-anchor="middle" x="1005" y="-69" font-family="Helvetica,sans-Serif" font-size="10.00">string</text>
</a>
</g>
</g>
<!-- Node1&#45;&gt;Node14 -->
<g id="edge55" class="edge">
<title>Node1&#45;&gt;Node14</title>
<path fill="none" stroke="midnightblue" d="M1037.2,-414.46C1048.84,-406.33 1065.53,-393.12 1076,-378 1093.53,-352.68 1100,-343.8 1100,-313 1100,-313 1100,-313 1100,-199 1100,-163.58 1096.85,-151.64 1076,-123 1064.57,-107.3 1046.76,-94.65 1031.83,-85.94"/>
<polygon fill="midnightblue" stroke="midnightblue" points="1033.43,-82.82 1022.99,-81.03 1030.03,-88.94 1033.43,-82.82"/>
</g>
<!-- Node3 -->
<g id="node3" class="node">
<title>Node3</title>
<g id="a_node3"><a xlink:href="potentialHydrodynamics_8hpp.html" target="_top" xlink:title=" ">
<polygon fill="none" stroke="black" points="324,-246.5 324,-265.5 464,-265.5 464,-246.5 324,-246.5"/>
<text text-anchor="middle" x="394" y="-253.5" font-family="Helvetica,sans-Serif" font-size="10.00">potentialHydrodynamics.hpp</text>
</a>
</g>
</g>
<!-- Node2&#45;&gt;Node3 -->
<g id="edge2" class="edge">
<title>Node2&#45;&gt;Node3</title>
<path fill="none" stroke="midnightblue" d="M644.06,-358.28C635.55,-344.12 616.75,-316.27 593,-302 557.32,-280.57 512.48,-269.33 474.39,-263.44"/>
<polygon fill="midnightblue" stroke="midnightblue" points="474.75,-259.96 464.35,-261.99 473.75,-266.88 474.75,-259.96"/>
</g>
<!-- Node2&#45;&gt;Node4 -->
<g id="edge43" class="edge">
<title>Node2&#45;&gt;Node4</title>
<path fill="none" stroke="midnightblue" d="M681.3,-364.48C732.22,-359.76 827.49,-347.66 848,-322 869.09,-295.61 864.89,-275.25 848,-246 839.32,-230.98 823.51,-220.52 808.38,-213.5"/>
<polygon fill="midnightblue" stroke="midnightblue" points="809.69,-210.25 799.12,-209.56 806.95,-216.69 809.69,-210.25"/>
</g>
<!-- Node10 -->
<g id="node10" class="node">
<title>Node10</title>
<g id="a_node10"><a xlink:title=" ">
<polygon fill="none" stroke="#bfbfbf" points="459,-56.5 459,-86.5 557,-86.5 557,-56.5 459,-56.5"/>
<text text-anchor="start" x="467" y="-74.5" font-family="Helvetica,sans-Serif" font-size="10.00">spdlog/sinks/basic</text>
<text text-anchor="middle" x="508" y="-63.5" font-family="Helvetica,sans-Serif" font-size="10.00">_file_sink.h</text>
</a>
</g>
</g>
<!-- Node2&#45;&gt;Node10 -->
<g id="edge47" class="edge">
<title>Node2&#45;&gt;Node10</title>
<path fill="none" stroke="midnightblue" d="M616.77,-366.78C506.64,-365.17 152,-352.55 152,-257 152,-257 152,-257 152,-199 152,-164.18 144.99,-146.15 171,-123 217.53,-81.58 387.77,-98.45 449,-87 449.1,-86.98 449.2,-86.96 449.3,-86.94"/>
<polygon fill="midnightblue" stroke="midnightblue" points="449.72,-90.43 458.83,-85.02 448.34,-83.57 449.72,-90.43"/>
</g>
<!-- Node11 -->
<g id="node11" class="node">
<title>Node11</title>
<g id="a_node11"><a xlink:title=" ">
<polygon fill="none" stroke="#bfbfbf" points="355.5,-62 355.5,-81 440.5,-81 440.5,-62 355.5,-62"/>
<text text-anchor="middle" x="398" y="-69" font-family="Helvetica,sans-Serif" font-size="10.00">spdlog/spdlog.h</text>
</a>
</g>
</g>
<!-- Node2&#45;&gt;Node11 -->
<g id="edge48" class="edge">
<title>Node2&#45;&gt;Node11</title>
<path fill="none" stroke="midnightblue" d="M616.69,-365.92C517.18,-362.33 216.43,-349.45 123,-322 63.68,-304.57 0,-318.83 0,-257 0,-257 0,-257 0,-199 0,-151.23 33.42,-144.65 76,-123 122.04,-99.59 266.16,-83.89 345.06,-76.8"/>
<polygon fill="midnightblue" stroke="midnightblue" points="345.63,-80.27 355.28,-75.9 345.01,-73.29 345.63,-80.27"/>
</g>
<!-- Node2&#45;&gt;Node12 -->
<g id="edge50" class="edge">
<title>Node2&#45;&gt;Node12</title>
<path fill="none" stroke="midnightblue" d="M681.31,-367.21C729.35,-366.19 821.14,-359.02 888,-322 922.39,-302.95 948,-296.32 948,-257 948,-257 948,-257 948,-199 948,-159.26 932.56,-114.71 922.81,-90.51"/>
<polygon fill="midnightblue" stroke="midnightblue" points="926,-89.07 918.92,-81.19 919.54,-91.77 926,-89.07"/>
</g>
<!-- Node13 -->
<g id="node13" class="node">
<title>Node13</title>
<g id="a_node13"><a xlink:title=" ">
<polygon fill="none" stroke="#bfbfbf" points="804.5,-62 804.5,-81 863.5,-81 863.5,-62 804.5,-62"/>
<text text-anchor="middle" x="834" y="-69" font-family="Helvetica,sans-Serif" font-size="10.00">stdexcept</text>
</a>
</g>
</g>
<!-- Node2&#45;&gt;Node13 -->
<g id="edge51" class="edge">
<title>Node2&#45;&gt;Node13</title>
<path fill="none" stroke="midnightblue" d="M681.39,-365.21C736.5,-361.41 844.82,-350.43 868,-322 924.64,-252.54 868.75,-134.3 844.24,-89.97"/>
<polygon fill="midnightblue" stroke="midnightblue" points="847.14,-87.98 839.16,-81.02 841.05,-91.44 847.14,-87.98"/>
</g>
<!-- Node2&#45;&gt;Node14 -->
<g id="edge52" class="edge">
<title>Node2&#45;&gt;Node14</title>
<path fill="none" stroke="midnightblue" d="M681.3,-364.49C772.26,-356.55 1024,-328.15 1024,-257 1024,-257 1024,-257 1024,-199 1024,-160.27 1015.18,-115.61 1009.56,-91.07"/>
<polygon fill="midnightblue" stroke="midnightblue" points="1012.89,-89.94 1007.18,-81.02 1006.08,-91.56 1012.89,-89.94"/>
</g>
<!-- Node15 -->
<g id="node15" class="node">
<title>Node15</title>
<g id="a_node15"><a xlink:title=" ">
<polygon fill="none" stroke="#bfbfbf" points="180.5,-129 180.5,-148 277.5,-148 277.5,-129 180.5,-129"/>
<text text-anchor="middle" x="229" y="-136" font-family="Helvetica,sans-Serif" font-size="10.00">eigen3/Eigen/Core</text>
</a>
</g>
</g>
<!-- Node2&#45;&gt;Node15 -->
<g id="edge44" class="edge">
<title>Node2&#45;&gt;Node15</title>
<path fill="none" stroke="midnightblue" d="M616.74,-366.63C509.57,-365.07 170.37,-357.34 138,-322 90.43,-270.05 171.76,-188.62 210.37,-154.91"/>
<polygon fill="midnightblue" stroke="midnightblue" points="213,-157.27 218.32,-148.11 208.45,-151.95 213,-157.27"/>
</g>
<!-- Node16 -->
<g id="node16" class="node">
<title>Node16</title>
<g id="a_node16"><a xlink:title=" ">
<polygon fill="none" stroke="#bfbfbf" points="500.5,-129 500.5,-148 601.5,-148 601.5,-129 500.5,-129"/>
<text text-anchor="middle" x="551" y="-136" font-family="Helvetica,sans-Serif" font-size="10.00">eigen3/Eigen/Eigen</text>
</a>
</g>
</g>
<!-- Node2&#45;&gt;Node16 -->
<g id="edge45" class="edge">
<title>Node2&#45;&gt;Node16</title>
<path fill="none" stroke="midnightblue" d="M681.39,-358.87C740.09,-342.52 854.49,-302.38 815,-246 788.14,-207.65 759.54,-227.2 716,-210 667.69,-190.91 612.31,-166.78 579.57,-152.27"/>
<polygon fill="midnightblue" stroke="midnightblue" points="580.72,-148.96 570.16,-148.09 577.88,-155.35 580.72,-148.96"/>
</g>
<!-- Node17 -->
<g id="node17" class="node">
<title>Node17</title>
<g id="a_node17"><a xlink:title=" ">
<polygon fill="none" stroke="#bfbfbf" points="296,-123.5 296,-153.5 406,-153.5 406,-123.5 296,-123.5"/>
<text text-anchor="start" x="304" y="-141.5" font-family="Helvetica,sans-Serif" font-size="10.00">eigen3/unsupported</text>
<text text-anchor="middle" x="351" y="-130.5" font-family="Helvetica,sans-Serif" font-size="10.00">/Eigen/CXX11/Tensor</text>
</a>
</g>
</g>
<!-- Node2&#45;&gt;Node17 -->
<g id="edge46" class="edge">
<title>Node2&#45;&gt;Node17</title>
<path fill="none" stroke="midnightblue" d="M616.98,-365.64C547.65,-362.19 386.26,-351.16 341,-322 290.16,-289.25 285.6,-246.17 308,-190 312.27,-179.3 319.76,-169.25 327.32,-160.98"/>
<polygon fill="midnightblue" stroke="midnightblue" points="330,-163.24 334.47,-153.63 324.99,-158.35 330,-163.24"/>
</g>
<!-- Node18 -->
<g id="node18" class="node">
<title>Node18</title>
<g id="a_node18"><a xlink:href="progressBar_8hpp.html" target="_top" xlink:title=" ">
<polygon fill="none" stroke="black" points="641,-302.5 641,-321.5 729,-321.5 729,-302.5 641,-302.5"/>
<text text-anchor="middle" x="685" y="-309.5" font-family="Helvetica,sans-Serif" font-size="10.00">progressBar.hpp</text>
</a>
</g>
</g>
<!-- Node2&#45;&gt;Node18 -->
<g id="edge29" class="edge">
<title>Node2&#45;&gt;Node18</title>
<path fill="none" stroke="midnightblue" d="M654.94,-358.08C659.98,-350.53 667.34,-339.49 673.51,-330.23"/>
<polygon fill="midnightblue" stroke="midnightblue" points="676.53,-332.01 679.17,-321.75 670.71,-328.13 676.53,-332.01"/>
</g>
<!-- Node23 -->
<g id="node23" class="node">
<title>Node23</title>
<g id="a_node23"><a xlink:href="rungeKutta4_8hpp.html" target="_top" xlink:title=" ">
<polygon fill="none" stroke="black" points="350,-302.5 350,-321.5 438,-321.5 438,-302.5 350,-302.5"/>
<text text-anchor="middle" x="394" y="-309.5" font-family="Helvetica,sans-Serif" font-size="10.00">rungeKutta4.hpp</text>
</a>
</g>
</g>
<!-- Node2&#45;&gt;Node23 -->
<g id="edge34" class="edge">
<title>Node2&#45;&gt;Node23</title>
<path fill="none" stroke="midnightblue" d="M616.96,-360.22C573.57,-351.03 495.67,-334.53 444.4,-323.67"/>
<polygon fill="midnightblue" stroke="midnightblue" points="445.03,-320.23 434.52,-321.58 443.58,-327.08 445.03,-320.23"/>
</g>
<!-- Node24 -->
<g id="node24" class="node">
<title>Node24</title>
<g id="a_node24"><a xlink:title=" ">
<polygon fill="none" stroke="#bfbfbf" points="537.5,-302.5 537.5,-321.5 584.5,-321.5 584.5,-302.5 537.5,-302.5"/>
<text text-anchor="middle" x="561" y="-309.5" font-family="Helvetica,sans-Serif" font-size="10.00">math.h</text>
</a>
</g>
</g>
<!-- Node2&#45;&gt;Node24 -->
<g id="edge49" class="edge">
<title>Node2&#45;&gt;Node24</title>
<path fill="none" stroke="midnightblue" d="M634.86,-358.32C621.13,-349.9 600.06,-336.97 583.94,-327.07"/>
<polygon fill="midnightblue" stroke="midnightblue" points="585.46,-323.9 575.1,-321.65 581.8,-329.87 585.46,-323.9"/>
</g>
<!-- Node3&#45;&gt;Node4 -->
<g id="edge3" class="edge">
<title>Node3&#45;&gt;Node4</title>
<path fill="none" stroke="midnightblue" d="M453.58,-246.44C525.62,-236.1 645.85,-218.83 715.52,-208.82"/>
<polygon fill="midnightblue" stroke="midnightblue" points="716.02,-212.29 725.42,-207.4 715.02,-205.36 716.02,-212.29"/>
</g>
<!-- Node3&#45;&gt;Node10 -->
<g id="edge27" class="edge">
<title>Node3&#45;&gt;Node10</title>
<path fill="none" stroke="midnightblue" d="M400.1,-246.48C406.47,-237.5 416.67,-222.91 425,-210 450.56,-170.39 478.56,-123.13 494.63,-95.6"/>
<polygon fill="midnightblue" stroke="midnightblue" points="497.79,-97.13 499.79,-86.73 491.74,-93.61 497.79,-97.13"/>
</g>
<!-- Node3&#45;&gt;Node11 -->
<g id="edge28" class="edge">
<title>Node3&#45;&gt;Node11</title>
<path fill="none" stroke="midnightblue" d="M397.31,-246.35C404.95,-225.25 422.61,-169.49 415,-123 413.2,-111.99 409.32,-100.14 405.72,-90.7"/>
<polygon fill="midnightblue" stroke="midnightblue" points="408.89,-89.19 401.91,-81.22 402.39,-91.8 408.89,-89.19"/>
</g>
<!-- Node3&#45;&gt;Node15 -->
<g id="edge24" class="edge">
<title>Node3&#45;&gt;Node15</title>
<path fill="none" stroke="midnightblue" d="M381.6,-246.32C353.53,-226.67 284.87,-178.61 250.02,-154.22"/>
<polygon fill="midnightblue" stroke="midnightblue" points="251.75,-151.15 241.55,-148.28 247.73,-156.88 251.75,-151.15"/>
</g>
<!-- Node3&#45;&gt;Node16 -->
<g id="edge25" class="edge">
<title>Node3&#45;&gt;Node16</title>
<path fill="none" stroke="midnightblue" d="M417.26,-246.44C436.7,-238.65 464.61,-225.94 486,-210 506.76,-194.53 526.28,-171.85 538.41,-156.42"/>
<polygon fill="midnightblue" stroke="midnightblue" points="541.34,-158.35 544.65,-148.28 535.78,-154.09 541.34,-158.35"/>
</g>
<!-- Node3&#45;&gt;Node17 -->
<g id="edge26" class="edge">
<title>Node3&#45;&gt;Node17</title>
<path fill="none" stroke="midnightblue" d="M390.77,-246.32C384.25,-228.81 369.34,-188.75 359.74,-162.97"/>
<polygon fill="midnightblue" stroke="midnightblue" points="363,-161.7 356.23,-153.55 356.44,-164.14 363,-161.7"/>
</g>
<!-- Node5 -->
<g id="node5" class="node">
<title>Node5</title>
<g id="a_node5"><a xlink:href="GSDUtil_8hpp.html" target="_top" xlink:title=" ">
<polygon fill="none" stroke="black" points="734,-129 734,-148 806,-148 806,-129 734,-129"/>
<text text-anchor="middle" x="770" y="-136" font-family="Helvetica,sans-Serif" font-size="10.00">GSDUtil.hpp</text>
</a>
</g>
</g>
<!-- Node4&#45;&gt;Node5 -->
<g id="edge4" class="edge">
<title>Node4&#45;&gt;Node5</title>
<path fill="none" stroke="midnightblue" d="M765.1,-190.48C763.27,-182.08 762.8,-168.98 763.69,-158.16"/>
<polygon fill="midnightblue" stroke="midnightblue" points="767.19,-158.4 765.1,-148.01 760.25,-157.43 767.19,-158.4"/>
</g>
<!-- Node6 -->
<g id="node6" class="node">
<title>Node6</title>
<g id="a_node6"><a xlink:href="gsd_8h.html" target="_top" xlink:title="Declare GSD data types and C API.">
<polygon fill="none" stroke="black" points="715.5,-62 715.5,-81 756.5,-81 756.5,-62 715.5,-62"/>
<text text-anchor="middle" x="736" y="-69" font-family="Helvetica,sans-Serif" font-size="10.00">gsd.h</text>
</a>
</g>
</g>
<!-- Node4&#45;&gt;Node6 -->
<g id="edge15" class="edge">
<title>Node4&#45;&gt;Node6</title>
<path fill="none" stroke="midnightblue" d="M756.94,-190.44C746.09,-182.47 731.43,-169.52 725,-154 716.57,-133.66 722.29,-108.25 728.17,-91.26"/>
<polygon fill="midnightblue" stroke="midnightblue" points="731.62,-92.04 731.91,-81.45 725.08,-89.54 731.62,-92.04"/>
</g>
<!-- Node4&#45;&gt;Node10 -->
<g id="edge16" class="edge">
<title>Node4&#45;&gt;Node10</title>
<path fill="none" stroke="midnightblue" d="M757.56,-190.42C735.44,-175.4 687.49,-143.96 644,-123 617.54,-110.25 586.97,-98.64 561.53,-89.77"/>
<polygon fill="midnightblue" stroke="midnightblue" points="562.64,-86.45 552.04,-86.51 560.36,-93.07 562.64,-86.45"/>
</g>
<!-- Node4&#45;&gt;Node11 -->
<g id="edge17" class="edge">
<title>Node4&#45;&gt;Node11</title>
<path fill="none" stroke="midnightblue" d="M734.66,-190.44C708.45,-183.15 672.47,-171.11 644,-154 626.47,-143.47 628.14,-132.45 610,-123 545.36,-89.32 520.68,-104.79 450,-87 445.91,-85.97 441.65,-84.85 437.41,-83.72"/>
<polygon fill="midnightblue" stroke="midnightblue" points="438.2,-80.3 427.63,-81.04 436.35,-87.05 438.2,-80.3"/>
</g>
<!-- Node4&#45;&gt;Node12 -->
<g id="edge21" class="edge">
<title>Node4&#45;&gt;Node12</title>
<path fill="none" stroke="midnightblue" d="M783.99,-190.41C797.54,-181.84 818.42,-167.97 835,-154 859.76,-133.14 885.48,-105.74 900.86,-88.62"/>
<polygon fill="midnightblue" stroke="midnightblue" points="903.5,-90.92 907.53,-81.12 898.27,-86.26 903.5,-90.92"/>
</g>
<!-- Node4&#45;&gt;Node13 -->
<g id="edge22" class="edge">
<title>Node4&#45;&gt;Node13</title>
<path fill="none" stroke="midnightblue" d="M781.8,-190.34C792.13,-182.14 806.74,-168.87 815,-154 825.89,-134.4 830.56,-108.8 832.55,-91.56"/>
<polygon fill="midnightblue" stroke="midnightblue" points="836.07,-91.43 833.54,-81.15 829.1,-90.77 836.07,-91.43"/>
</g>
<!-- Node4&#45;&gt;Node14 -->
<g id="edge23" class="edge">
<title>Node4&#45;&gt;Node14</title>
<path fill="none" stroke="midnightblue" d="M789.75,-190.38C809.34,-181.69 840.1,-167.63 866,-154 908.08,-131.86 955.55,-103.2 982.71,-86.43"/>
<polygon fill="midnightblue" stroke="midnightblue" points="984.77,-89.27 991.43,-81.02 981.08,-83.32 984.77,-89.27"/>
</g>
<!-- Node4&#45;&gt;Node15 -->
<g id="edge18" class="edge">
<title>Node4&#45;&gt;Node15</title>
<path fill="none" stroke="midnightblue" d="M725.42,-197.11C639.89,-193 447.02,-181.29 287,-154 281.23,-153.02 275.19,-151.76 269.28,-150.41"/>
<polygon fill="midnightblue" stroke="midnightblue" points="270.06,-146.99 259.52,-148.05 268.42,-153.8 270.06,-146.99"/>
</g>
<!-- Node4&#45;&gt;Node16 -->
<g id="edge19" class="edge">
<title>Node4&#45;&gt;Node16</title>
<path fill="none" stroke="midnightblue" d="M738.62,-190.48C700.08,-180 634.59,-162.21 592.08,-150.66"/>
<polygon fill="midnightblue" stroke="midnightblue" points="592.89,-147.25 582.32,-148.01 591.05,-154.01 592.89,-147.25"/>
</g>
<!-- Node4&#45;&gt;Node17 -->
<g id="edge20" class="edge">
<title>Node4&#45;&gt;Node17</title>
<path fill="none" stroke="midnightblue" d="M725.16,-192.63C650.91,-182.09 502.12,-160.96 416.23,-148.76"/>
<polygon fill="midnightblue" stroke="midnightblue" points="416.47,-145.26 406.07,-147.32 415.48,-152.19 416.47,-145.26"/>
</g>
<!-- Node5&#45;&gt;Node4 -->
<g id="edge9" class="edge">
<title>Node5&#45;&gt;Node4</title>
<path fill="none" stroke="midnightblue" d="M774.9,-148.01C776.73,-156.4 777.2,-169.5 776.32,-180.32"/>
<polygon fill="midnightblue" stroke="midnightblue" points="772.81,-180.09 774.9,-190.48 779.75,-181.05 772.81,-180.09"/>
</g>
<!-- Node5&#45;&gt;Node6 -->
<g id="edge5" class="edge">
<title>Node5&#45;&gt;Node6</title>
<path fill="none" stroke="midnightblue" d="M765.41,-128.73C760.27,-118.89 751.78,-102.66 745.24,-90.16"/>
<polygon fill="midnightblue" stroke="midnightblue" points="748.25,-88.37 740.51,-81.13 742.05,-91.61 748.25,-88.37"/>
</g>
<!-- Node5&#45;&gt;Node10 -->
<g id="edge10" class="edge">
<title>Node5&#45;&gt;Node10</title>
<path fill="none" stroke="midnightblue" d="M735.48,-128.94C692.66,-118.31 618.99,-100.04 567.11,-87.16"/>
<polygon fill="midnightblue" stroke="midnightblue" points="567.91,-83.76 557.36,-84.75 566.22,-90.55 567.91,-83.76"/>
</g>
<!-- Node5&#45;&gt;Node11 -->
<g id="edge11" class="edge">
<title>Node5&#45;&gt;Node11</title>
<path fill="none" stroke="midnightblue" d="M733.76,-133.17C674.17,-125.73 551.95,-109.18 450,-87 445.55,-86.03 440.92,-84.91 436.34,-83.73"/>
<polygon fill="midnightblue" stroke="midnightblue" points="437.03,-80.29 426.46,-81.07 435.21,-87.05 437.03,-80.29"/>
</g>
<!-- Node5&#45;&gt;Node12 -->
<g id="edge12" class="edge">
<title>Node5&#45;&gt;Node12</title>
<path fill="none" stroke="midnightblue" d="M789.25,-128.87C814.17,-117.7 857.79,-98.15 886.53,-85.26"/>
<polygon fill="midnightblue" stroke="midnightblue" points="887.97,-88.45 895.67,-81.17 885.11,-82.06 887.97,-88.45"/>
</g>
<!-- Node5&#45;&gt;Node13 -->
<g id="edge13" class="edge">
<title>Node5&#45;&gt;Node13</title>
<path fill="none" stroke="midnightblue" d="M778.63,-128.73C788.8,-118.4 805.9,-101.04 818.41,-88.33"/>
<polygon fill="midnightblue" stroke="midnightblue" points="820.98,-90.71 825.51,-81.13 816,-85.8 820.98,-90.71"/>
</g>
<!-- Node5&#45;&gt;Node14 -->
<g id="edge14" class="edge">
<title>Node5&#45;&gt;Node14</title>
<path fill="none" stroke="midnightblue" d="M801.21,-128.87C846.5,-116.34 929.91,-93.27 974.69,-80.88"/>
<polygon fill="midnightblue" stroke="midnightblue" points="975.71,-84.23 984.41,-78.19 973.84,-77.49 975.71,-84.23"/>
</g>
<!-- Node7 -->
<g id="node7" class="node">
<title>Node7</title>
<g id="a_node7"><a xlink:title=" ">
<polygon fill="none" stroke="#bfbfbf" points="637,-0.5 637,-19.5 693,-19.5 693,-0.5 637,-0.5"/>
<text text-anchor="middle" x="665" y="-7.5" font-family="Helvetica,sans-Serif" font-size="10.00">stdbool.h</text>
</a>
</g>
</g>
<!-- Node6&#45;&gt;Node7 -->
<g id="edge6" class="edge">
<title>Node6&#45;&gt;Node7</title>
<path fill="none" stroke="midnightblue" d="M725.83,-61.98C714.65,-52.61 696.48,-37.38 682.91,-26.01"/>
<polygon fill="midnightblue" stroke="midnightblue" points="685.07,-23.25 675.15,-19.51 680.57,-28.61 685.07,-23.25"/>
</g>
<!-- Node8 -->
<g id="node8" class="node">
<title>Node8</title>
<g id="a_node8"><a xlink:title=" ">
<polygon fill="none" stroke="#bfbfbf" points="711.5,-0.5 711.5,-19.5 760.5,-19.5 760.5,-0.5 711.5,-0.5"/>
<text text-anchor="middle" x="736" y="-7.5" font-family="Helvetica,sans-Serif" font-size="10.00">stdint.h</text>
</a>
</g>
</g>
<!-- Node6&#45;&gt;Node8 -->
<g id="edge7" class="edge">
<title>Node6&#45;&gt;Node8</title>
<path fill="none" stroke="midnightblue" d="M736,-61.98C736,-53.58 736,-40.48 736,-29.66"/>
<polygon fill="midnightblue" stroke="midnightblue" points="739.5,-29.51 736,-19.51 732.5,-29.51 739.5,-29.51"/>
</g>
<!-- Node9 -->
<g id="node9" class="node">
<title>Node9</title>
<g id="a_node9"><a xlink:title=" ">
<polygon fill="none" stroke="#bfbfbf" points="778.5,-0.5 778.5,-19.5 827.5,-19.5 827.5,-0.5 778.5,-0.5"/>
<text text-anchor="middle" x="803" y="-7.5" font-family="Helvetica,sans-Serif" font-size="10.00">string.h</text>
</a>
</g>
</g>
<!-- Node6&#45;&gt;Node9 -->
<g id="edge8" class="edge">
<title>Node6&#45;&gt;Node9</title>
<path fill="none" stroke="midnightblue" d="M745.6,-61.98C756.05,-52.7 772.97,-37.67 785.74,-26.33"/>
<polygon fill="midnightblue" stroke="midnightblue" points="788.27,-28.77 793.42,-19.51 783.62,-23.53 788.27,-28.77"/>
</g>
<!-- Node19 -->
<g id="node19" class="node">
<title>Node19</title>
<g id="a_node19"><a xlink:title=" ">
<polygon fill="none" stroke="#bfbfbf" points="630,-246.5 630,-265.5 676,-265.5 676,-246.5 630,-246.5"/>
<text text-anchor="middle" x="653" y="-253.5" font-family="Helvetica,sans-Serif" font-size="10.00">chrono</text>
</a>
</g>
</g>
<!-- Node18&#45;&gt;Node19 -->
<g id="edge30" class="edge">
<title>Node18&#45;&gt;Node19</title>
<path fill="none" stroke="midnightblue" d="M679.72,-302.08C675.29,-294.61 668.84,-283.72 663.38,-274.52"/>
<polygon fill="midnightblue" stroke="midnightblue" points="666.29,-272.57 658.19,-265.75 660.27,-276.14 666.29,-272.57"/>
</g>
<!-- Node20 -->
<g id="node20" class="node">
<title>Node20</title>
<g id="a_node20"><a xlink:title=" ">
<polygon fill="none" stroke="#bfbfbf" points="694,-246.5 694,-265.5 738,-265.5 738,-246.5 694,-246.5"/>
<text text-anchor="middle" x="716" y="-253.5" font-family="Helvetica,sans-Serif" font-size="10.00">cmath</text>
</a>
</g>
</g>
<!-- Node18&#45;&gt;Node20 -->
<g id="edge31" class="edge">
<title>Node18&#45;&gt;Node20</title>
<path fill="none" stroke="midnightblue" d="M690.12,-302.08C694.41,-294.61 700.66,-283.72 705.94,-274.52"/>
<polygon fill="midnightblue" stroke="midnightblue" points="709.03,-276.17 710.98,-265.75 702.96,-272.68 709.03,-276.17"/>
</g>
<!-- Node21 -->
<g id="node21" class="node">
<title>Node21</title>
<g id="a_node21"><a xlink:title=" ">
<polygon fill="none" stroke="#bfbfbf" points="756,-246.5 756,-265.5 806,-265.5 806,-246.5 756,-246.5"/>
<text text-anchor="middle" x="781" y="-253.5" font-family="Helvetica,sans-Serif" font-size="10.00">iomanip</text>
</a>
</g>
</g>
<!-- Node18&#45;&gt;Node21 -->
<g id="edge32" class="edge">
<title>Node18&#45;&gt;Node21</title>
<path fill="none" stroke="midnightblue" d="M700.42,-302.32C715.54,-293.82 738.82,-280.73 756.47,-270.8"/>
<polygon fill="midnightblue" stroke="midnightblue" points="758.61,-273.61 765.61,-265.65 755.18,-267.51 758.61,-273.61"/>
</g>
<!-- Node22 -->
<g id="node22" class="node">
<title>Node22</title>
<g id="a_node22"><a xlink:title=" ">
<polygon fill="none" stroke="#bfbfbf" points="558,-246.5 558,-265.5 612,-265.5 612,-246.5 558,-246.5"/>
<text text-anchor="middle" x="585" y="-253.5" font-family="Helvetica,sans-Serif" font-size="10.00">iostream</text>
</a>
</g>
</g>
<!-- Node18&#45;&gt;Node22 -->
<g id="edge33" class="edge">
<title>Node18&#45;&gt;Node22</title>
<path fill="none" stroke="midnightblue" d="M668.93,-302.32C653.04,-293.74 628.49,-280.49 610.04,-270.52"/>
<polygon fill="midnightblue" stroke="midnightblue" points="611.49,-267.33 601.03,-265.65 608.16,-273.49 611.49,-267.33"/>
</g>
<!-- Node23&#45;&gt;Node3 -->
<g id="edge35" class="edge">
<title>Node23&#45;&gt;Node3</title>
<path fill="none" stroke="midnightblue" d="M394,-302.08C394,-295.01 394,-284.86 394,-275.99"/>
<polygon fill="midnightblue" stroke="midnightblue" points="397.5,-275.75 394,-265.75 390.5,-275.75 397.5,-275.75"/>
</g>
<!-- Node23&#45;&gt;Node4 -->
<g id="edge36" class="edge">
<title>Node23&#45;&gt;Node4</title>
<path fill="none" stroke="midnightblue" d="M416.46,-302.38C439.17,-293.57 475.23,-279.32 506,-266 525.34,-257.62 528.98,-252.59 549,-246 604.32,-227.78 669.97,-215.54 715.26,-208.48"/>
<polygon fill="midnightblue" stroke="midnightblue" points="715.82,-211.94 725.18,-206.97 714.76,-205.02 715.82,-211.94"/>
</g>
<!-- Node23&#45;&gt;Node10 -->
<g id="edge40" class="edge">
<title>Node23&#45;&gt;Node10</title>
<path fill="none" stroke="midnightblue" d="M361.41,-302.43C276.83,-278.71 61.98,-208.33 138,-123 184.28,-71.05 380.53,-99.33 449,-87 449.1,-86.98 449.2,-86.96 449.3,-86.95"/>
<polygon fill="midnightblue" stroke="midnightblue" points="449.71,-90.43 458.84,-85.07 448.36,-83.56 449.71,-90.43"/>
</g>
<!-- Node23&#45;&gt;Node11 -->
<g id="edge41" class="edge">
<title>Node23&#45;&gt;Node11</title>
<path fill="none" stroke="midnightblue" d="M349.78,-310.96C275.74,-309.85 131.66,-302.88 100,-266 58.6,-217.78 58.99,-171.55 100,-123 130.77,-86.58 267.99,-76.42 345.04,-73.59"/>
<polygon fill="midnightblue" stroke="midnightblue" points="345.62,-77.07 355.5,-73.24 345.39,-70.08 345.62,-77.07"/>
</g>
<!-- Node23&#45;&gt;Node15 -->
<g id="edge37" class="edge">
<title>Node23&#45;&gt;Node15</title>
<path fill="none" stroke="midnightblue" d="M368.29,-302.44C349.14,-295.09 323.26,-282.98 305,-266 271.04,-234.43 247.11,-184.28 236.01,-157.59"/>
<polygon fill="midnightblue" stroke="midnightblue" points="239.25,-156.27 232.27,-148.3 232.76,-158.89 239.25,-156.27"/>
</g>
<!-- Node23&#45;&gt;Node16 -->
<g id="edge38" class="edge">
<title>Node23&#45;&gt;Node16</title>
<path fill="none" stroke="midnightblue" d="M414.82,-302.35C431.8,-294.59 455.73,-281.97 473,-266 507.29,-234.3 532.08,-184.2 543.66,-157.56"/>
<polygon fill="midnightblue" stroke="midnightblue" points="546.91,-158.86 547.57,-148.29 540.46,-156.14 546.91,-158.86"/>
</g>
<!-- Node23&#45;&gt;Node17 -->
<g id="edge39" class="edge">
<title>Node23&#45;&gt;Node17</title>
<path fill="none" stroke="midnightblue" d="M364.12,-302.39C346.46,-295.59 325.55,-284.15 315,-266 295.7,-232.8 317.3,-188.63 334.38,-162.23"/>
<polygon fill="midnightblue" stroke="midnightblue" points="337.46,-163.92 340.16,-153.68 331.66,-160 337.46,-163.92"/>
</g>
<!-- Node23&#45;&gt;Node22 -->
<g id="edge42" class="edge">
<title>Node23&#45;&gt;Node22</title>
<path fill="none" stroke="midnightblue" d="M424.26,-302.44C457.92,-292.93 512.27,-277.56 548.32,-267.37"/>
<polygon fill="midnightblue" stroke="midnightblue" points="549.29,-270.73 557.97,-264.64 547.39,-264 549.29,-270.73"/>
</g>
</g>
</svg>
