<?xml version="1.0" encoding="UTF-8" standalone="no"?>
<!DOCTYPE svg PUBLIC "-//W3C//DTD SVG 1.1//EN"
 "http://www.w3.org/Graphics/SVG/1.1/DTD/svg11.dtd">
<!-- Generated by graphviz version 2.43.0 (0)
 -->
<!-- Title: src/main.cpp Pages: 1 -->
<svg width="1689pt" height="431pt"
 viewBox="0.00 0.00 1689.00 431.00" xmlns="http://www.w3.org/2000/svg" xmlns:xlink="http://www.w3.org/1999/xlink">
<g id="graph0" class="graph" transform="scale(1 1) rotate(0) translate(4 427)">
<title>src/main.cpp</title>
<!-- Node1 -->
<g id="node1" class="node">
<title>Node1</title>
<g id="a_node1"><a xlink:title=" ">
<polygon fill="#bfbfbf" stroke="black" points="1390.5,-403.5 1390.5,-422.5 1463.5,-422.5 1463.5,-403.5 1390.5,-403.5"/>
<text text-anchor="middle" x="1427" y="-410.5" font-family="Helvetica,sans-Serif" font-size="10.00">src/main.cpp</text>
</a>
</g>
</g>
<!-- Node2 -->
<g id="node2" class="node">
<title>Node2</title>
<g id="a_node2"><a xlink:href="Engine_8hpp.html" target="_top" xlink:title=" ">
<polygon fill="none" stroke="black" points="984.5,-347.5 984.5,-366.5 1049.5,-366.5 1049.5,-347.5 984.5,-347.5"/>
<text text-anchor="middle" x="1017" y="-354.5" font-family="Helvetica,sans-Serif" font-size="10.00">Engine.hpp</text>
</a>
</g>
</g>
<!-- Node1&#45;&gt;Node2 -->
<g id="edge1" class="edge">
<title>Node1&#45;&gt;Node2</title>
<path fill="none" stroke="midnightblue" d="M1390.25,-407.16C1314.45,-397.18 1141.05,-374.34 1060.1,-363.68"/>
<polygon fill="midnightblue" stroke="midnightblue" points="1060.15,-360.15 1049.78,-362.32 1059.23,-367.09 1060.15,-360.15"/>
</g>
<!-- Node3 -->
<g id="node3" class="node">
<title>Node3</title>
<g id="a_node3"><a xlink:href="SystemData_8hpp.html" target="_top" xlink:title=" ">
<polygon fill="none" stroke="black" points="996,-179.5 996,-198.5 1086,-198.5 1086,-179.5 996,-179.5"/>
<text text-anchor="middle" x="1041" y="-186.5" font-family="Helvetica,sans-Serif" font-size="10.00">SystemData.hpp</text>
</a>
</g>
</g>
<!-- Node1&#45;&gt;Node3 -->
<g id="edge68" class="edge">
<title>Node1&#45;&gt;Node3</title>
<path fill="none" stroke="midnightblue" d="M1415.36,-403.43C1378.21,-376.32 1258.59,-290.91 1151,-235 1126.39,-222.21 1097.3,-210.45 1075.22,-202.16"/>
<polygon fill="midnightblue" stroke="midnightblue" points="1076.2,-198.79 1065.6,-198.6 1073.77,-205.35 1076.2,-198.79"/>
</g>
<!-- Node11 -->
<g id="node11" class="node">
<title>Node11</title>
<g id="a_node11"><a xlink:title=" ">
<polygon fill="none" stroke="#bfbfbf" points="1470,-62 1470,-81 1522,-81 1522,-62 1470,-62"/>
<text text-anchor="middle" x="1496" y="-69" font-family="Helvetica,sans-Serif" font-size="10.00">memory</text>
</a>
</g>
</g>
<!-- Node1&#45;&gt;Node11 -->
<g id="edge69" class="edge">
<title>Node1&#45;&gt;Node11</title>
<path fill="none" stroke="midnightblue" d="M1463.64,-409.68C1525.27,-403.59 1643,-381.54 1643,-302 1643,-302 1643,-302 1643,-188 1643,-131.69 1575.49,-98.66 1531.97,-83.21"/>
<polygon fill="midnightblue" stroke="midnightblue" points="1532.88,-79.82 1522.28,-79.92 1530.62,-86.45 1532.88,-79.82"/>
</g>
<!-- Node13 -->
<g id="node13" class="node">
<title>Node13</title>
<g id="a_node13"><a xlink:title=" ">
<polygon fill="none" stroke="#bfbfbf" points="1565.5,-62 1565.5,-81 1606.5,-81 1606.5,-62 1565.5,-62"/>
<text text-anchor="middle" x="1586" y="-69" font-family="Helvetica,sans-Serif" font-size="10.00">string</text>
</a>
</g>
</g>
<!-- Node1&#45;&gt;Node13 -->
<g id="edge70" class="edge">
<title>Node1&#45;&gt;Node13</title>
<path fill="none" stroke="midnightblue" d="M1463.66,-412.19C1534,-410.44 1681,-395.59 1681,-302 1681,-302 1681,-302 1681,-188 1681,-143.02 1637.49,-106.02 1609.36,-86.8"/>
<polygon fill="midnightblue" stroke="midnightblue" points="1611.12,-83.77 1600.84,-81.2 1607.28,-89.62 1611.12,-83.77"/>
</g>
<!-- Node2&#45;&gt;Node3 -->
<g id="edge2" class="edge">
<title>Node2&#45;&gt;Node3</title>
<path fill="none" stroke="midnightblue" d="M1049.67,-347.49C1070.23,-340.65 1096,-329.12 1113,-311 1131.29,-291.5 1130.02,-281.27 1135,-255 1136.65,-246.27 1139.74,-242.52 1135,-235 1124.99,-219.11 1107.65,-208.71 1090.56,-201.96"/>
<polygon fill="midnightblue" stroke="midnightblue" points="1091.74,-198.66 1081.15,-198.57 1089.37,-205.25 1091.74,-198.66"/>
</g>
<!-- Node9 -->
<g id="node9" class="node">
<title>Node9</title>
<g id="a_node9"><a xlink:title=" ">
<polygon fill="none" stroke="#bfbfbf" points="880,-56.5 880,-86.5 978,-86.5 978,-56.5 880,-56.5"/>
<text text-anchor="start" x="888" y="-74.5" font-family="Helvetica,sans-Serif" font-size="10.00">spdlog/sinks/basic</text>
<text text-anchor="middle" x="929" y="-63.5" font-family="Helvetica,sans-Serif" font-size="10.00">_file_sink.h</text>
</a>
</g>
</g>
<!-- Node2&#45;&gt;Node9 -->
<g id="edge62" class="edge">
<title>Node2&#45;&gt;Node9</title>
<path fill="none" stroke="midnightblue" d="M1049.63,-349.74C1074.99,-343.5 1109.81,-331.77 1134,-311 1205.18,-249.89 1291.29,-194.03 1230,-123 1196.15,-83.77 1055.86,-96.16 988.45,-86.86"/>
<polygon fill="midnightblue" stroke="midnightblue" points="988.73,-83.36 978.29,-85.17 987.58,-90.26 988.73,-83.36"/>
</g>
<!-- Node10 -->
<g id="node10" class="node">
<title>Node10</title>
<g id="a_node10"><a xlink:title=" ">
<polygon fill="none" stroke="#bfbfbf" points="996.5,-62 996.5,-81 1081.5,-81 1081.5,-62 996.5,-62"/>
<text text-anchor="middle" x="1039" y="-69" font-family="Helvetica,sans-Serif" font-size="10.00">spdlog/spdlog.h</text>
</a>
</g>
</g>
<!-- Node2&#45;&gt;Node10 -->
<g id="edge63" class="edge">
<title>Node2&#45;&gt;Node10</title>
<path fill="none" stroke="midnightblue" d="M1049.56,-352.66C1088.44,-347.71 1154.64,-336.12 1206,-311 1247.46,-290.72 1287,-292.16 1287,-246 1287,-246 1287,-246 1287,-188 1287,-157.2 1286.16,-143.29 1263,-123 1237.89,-101.01 1149.8,-86.18 1091.85,-78.55"/>
<polygon fill="midnightblue" stroke="midnightblue" points="1092.13,-75.06 1081.76,-77.26 1091.24,-82 1092.13,-75.06"/>
</g>
<!-- Node2&#45;&gt;Node11 -->
<g id="edge65" class="edge">
<title>Node2&#45;&gt;Node11</title>
<path fill="none" stroke="midnightblue" d="M1049.81,-355.98C1162.81,-355.04 1529,-344.42 1529,-246 1529,-246 1529,-246 1529,-188 1529,-152.35 1514.29,-112.82 1504.51,-90.48"/>
<polygon fill="midnightblue" stroke="midnightblue" points="1507.64,-88.9 1500.31,-81.24 1501.26,-91.79 1507.64,-88.9"/>
</g>
<!-- Node12 -->
<g id="node12" class="node">
<title>Node12</title>
<g id="a_node12"><a xlink:title=" ">
<polygon fill="none" stroke="#bfbfbf" points="1385.5,-62 1385.5,-81 1444.5,-81 1444.5,-62 1385.5,-62"/>
<text text-anchor="middle" x="1415" y="-69" font-family="Helvetica,sans-Serif" font-size="10.00">stdexcept</text>
</a>
</g>
</g>
<!-- Node2&#45;&gt;Node12 -->
<g id="edge66" class="edge">
<title>Node2&#45;&gt;Node12</title>
<path fill="none" stroke="midnightblue" d="M1049.77,-354.77C1151.17,-350.08 1453,-329.14 1453,-246 1453,-246 1453,-246 1453,-188 1453,-151.75 1435.91,-112.17 1424.65,-90.03"/>
<polygon fill="midnightblue" stroke="midnightblue" points="1427.73,-88.37 1419.97,-81.16 1421.54,-91.64 1427.73,-88.37"/>
</g>
<!-- Node2&#45;&gt;Node13 -->
<g id="edge67" class="edge">
<title>Node2&#45;&gt;Node13</title>
<path fill="none" stroke="midnightblue" d="M1049.58,-354.65C1142.37,-350.51 1406.6,-336.75 1489,-311 1545.41,-293.37 1605,-305.1 1605,-246 1605,-246 1605,-246 1605,-188 1605,-153.4 1596.6,-113.74 1590.97,-91.05"/>
<polygon fill="midnightblue" stroke="midnightblue" points="1594.29,-89.92 1588.41,-81.11 1587.51,-91.67 1594.29,-89.92"/>
</g>
<!-- Node14 -->
<g id="node14" class="node">
<title>Node14</title>
<g id="a_node14"><a xlink:title=" ">
<polygon fill="none" stroke="#bfbfbf" points="536.5,-62 536.5,-81 633.5,-81 633.5,-62 536.5,-62"/>
<text text-anchor="middle" x="585" y="-69" font-family="Helvetica,sans-Serif" font-size="10.00">eigen3/Eigen/Core</text>
</a>
</g>
</g>
<!-- Node2&#45;&gt;Node14 -->
<g id="edge57" class="edge">
<title>Node2&#45;&gt;Node14</title>
<path fill="none" stroke="midnightblue" d="M995.75,-347.44C979.14,-339.88 956.36,-327.49 941,-311 915.26,-283.37 929.59,-261.82 903,-235 821.84,-153.12 690.8,-104.45 625.16,-83.95"/>
<polygon fill="midnightblue" stroke="midnightblue" points="626.18,-80.6 615.59,-81.01 624.12,-87.29 626.18,-80.6"/>
</g>
<!-- Node15 -->
<g id="node15" class="node">
<title>Node15</title>
<g id="a_node15"><a xlink:title=" ">
<polygon fill="none" stroke="#bfbfbf" points="415.5,-62 415.5,-81 516.5,-81 516.5,-62 415.5,-62"/>
<text text-anchor="middle" x="466" y="-69" font-family="Helvetica,sans-Serif" font-size="10.00">eigen3/Eigen/Eigen</text>
</a>
</g>
</g>
<!-- Node2&#45;&gt;Node15 -->
<g id="edge58" class="edge">
<title>Node2&#45;&gt;Node15</title>
<path fill="none" stroke="midnightblue" d="M984.34,-355.69C818.33,-353.68 76,-339.5 76,-246 76,-246 76,-246 76,-188 76,-34.62 256.3,-120.39 406,-87 411.04,-85.88 416.3,-84.66 421.53,-83.43"/>
<polygon fill="midnightblue" stroke="midnightblue" points="422.55,-86.79 431.47,-81.07 420.93,-79.98 422.55,-86.79"/>
</g>
<!-- Node16 -->
<g id="node16" class="node">
<title>Node16</title>
<g id="a_node16"><a xlink:title=" ">
<polygon fill="none" stroke="#bfbfbf" points="135,-56.5 135,-86.5 245,-86.5 245,-56.5 135,-56.5"/>
<text text-anchor="start" x="143" y="-74.5" font-family="Helvetica,sans-Serif" font-size="10.00">eigen3/unsupported</text>
<text text-anchor="middle" x="190" y="-63.5" font-family="Helvetica,sans-Serif" font-size="10.00">/Eigen/CXX11/Tensor</text>
</a>
</g>
</g>
<!-- Node2&#45;&gt;Node16 -->
<g id="edge59" class="edge">
<title>Node2&#45;&gt;Node16</title>
<path fill="none" stroke="midnightblue" d="M984.28,-355.88C826.52,-355.11 148.38,-349.55 63,-311 26.33,-294.45 0,-286.23 0,-246 0,-246 0,-246 0,-188 0,-128 70.03,-98.29 125.06,-84.19"/>
<polygon fill="midnightblue" stroke="midnightblue" points="125.9,-87.59 134.79,-81.82 124.24,-80.79 125.9,-87.59"/>
</g>
<!-- Node17 -->
<g id="node17" class="node">
<title>Node17</title>
<g id="a_node17"><a xlink:title=" ">
<polygon fill="none" stroke="#bfbfbf" points="266.5,-56.5 266.5,-86.5 397.5,-86.5 397.5,-56.5 266.5,-56.5"/>
<text text-anchor="start" x="274.5" y="-74.5" font-family="Helvetica,sans-Serif" font-size="10.00">eigen3/unsupported</text>
<text text-anchor="middle" x="332" y="-63.5" font-family="Helvetica,sans-Serif" font-size="10.00">/Eigen/CXX11/ThreadPool</text>
</a>
</g>
</g>
<!-- Node2&#45;&gt;Node17 -->
<g id="edge60" class="edge">
<title>Node2&#45;&gt;Node17</title>
<path fill="none" stroke="midnightblue" d="M984.27,-356.29C846.46,-357.22 313.26,-357.65 153,-311 96.63,-294.59 38,-304.71 38,-246 38,-246 38,-246 38,-188 38,-153.61 51.56,-142.35 80,-123 83.73,-120.46 183.52,-100.94 256.38,-86.93"/>
<polygon fill="midnightblue" stroke="midnightblue" points="257.31,-90.31 266.47,-84.99 255.99,-83.44 257.31,-90.31"/>
</g>
<!-- Node18 -->
<g id="node18" class="node">
<title>Node18</title>
<g id="a_node18"><a xlink:href="helper__eigenTensorConversion_8hpp.html" target="_top" xlink:title=" ">
<polygon fill="none" stroke="black" points="255.5,-123.5 255.5,-142.5 424.5,-142.5 424.5,-123.5 255.5,-123.5"/>
<text text-anchor="middle" x="340" y="-130.5" font-family="Helvetica,sans-Serif" font-size="10.00">helper_eigenTensorConversion.hpp</text>
</a>
</g>
</g>
<!-- Node2&#45;&gt;Node18 -->
<g id="edge61" class="edge">
<title>Node2&#45;&gt;Node18</title>
<path fill="none" stroke="midnightblue" d="M984.29,-354.67C892.41,-350.64 633.52,-337.21 553,-311 468.37,-283.45 448.6,-263.23 387,-199 372.75,-184.14 359.28,-164.76 350.44,-151.04"/>
<polygon fill="midnightblue" stroke="midnightblue" points="353.4,-149.17 345.11,-142.57 347.48,-152.9 353.4,-149.17"/>
</g>
<!-- Node21 -->
<g id="node21" class="node">
<title>Node21</title>
<g id="a_node21"><a xlink:href="PotentialHydrodynamics_8hpp.html" target="_top" xlink:title=" ">
<polygon fill="none" stroke="black" points="537,-235.5 537,-254.5 679,-254.5 679,-235.5 537,-235.5"/>
<text text-anchor="middle" x="608" y="-242.5" font-family="Helvetica,sans-Serif" font-size="10.00">PotentialHydrodynamics.hpp</text>
</a>
</g>
</g>
<!-- Node2&#45;&gt;Node21 -->
<g id="edge32" class="edge">
<title>Node2&#45;&gt;Node21</title>
<path fill="none" stroke="midnightblue" d="M985.25,-347.46C912.01,-327.76 731.27,-279.15 649.44,-257.15"/>
<polygon fill="midnightblue" stroke="midnightblue" points="650.3,-253.75 639.73,-254.53 648.48,-260.51 650.3,-253.75"/>
</g>
<!-- Node22 -->
<g id="node22" class="node">
<title>Node22</title>
<g id="a_node22"><a xlink:href="ProgressBar_8hpp.html" target="_top" xlink:title=" ">
<polygon fill="none" stroke="black" points="1015.5,-291.5 1015.5,-310.5 1104.5,-310.5 1104.5,-291.5 1015.5,-291.5"/>
<text text-anchor="middle" x="1060" y="-298.5" font-family="Helvetica,sans-Serif" font-size="10.00">ProgressBar.hpp</text>
</a>
</g>
</g>
<!-- Node2&#45;&gt;Node22 -->
<g id="edge41" class="edge">
<title>Node2&#45;&gt;Node22</title>
<path fill="none" stroke="midnightblue" d="M1024.1,-347.08C1030.24,-339.38 1039.27,-328.03 1046.74,-318.65"/>
<polygon fill="midnightblue" stroke="midnightblue" points="1049.54,-320.75 1053.03,-310.75 1044.06,-316.39 1049.54,-320.75"/>
</g>
<!-- Node27 -->
<g id="node27" class="node">
<title>Node27</title>
<g id="a_node27"><a xlink:href="RungeKutta4_8hpp.html" target="_top" xlink:title=" ">
<polygon fill="none" stroke="black" points="562,-291.5 562,-310.5 654,-310.5 654,-291.5 562,-291.5"/>
<text text-anchor="middle" x="608" y="-298.5" font-family="Helvetica,sans-Serif" font-size="10.00">RungeKutta4.hpp</text>
</a>
</g>
</g>
<!-- Node2&#45;&gt;Node27 -->
<g id="edge46" class="edge">
<title>Node2&#45;&gt;Node27</title>
<path fill="none" stroke="midnightblue" d="M984.22,-351.67C914.48,-342.46 750.69,-320.84 664.03,-309.4"/>
<polygon fill="midnightblue" stroke="midnightblue" points="664.49,-305.93 654.11,-308.09 663.57,-312.87 664.49,-305.93"/>
</g>
<!-- Node28 -->
<g id="node28" class="node">
<title>Node28</title>
<g id="a_node28"><a xlink:title=" ">
<polygon fill="none" stroke="#bfbfbf" points="950.5,-291.5 950.5,-310.5 997.5,-310.5 997.5,-291.5 950.5,-291.5"/>
<text text-anchor="middle" x="974" y="-298.5" font-family="Helvetica,sans-Serif" font-size="10.00">math.h</text>
</a>
</g>
</g>
<!-- Node2&#45;&gt;Node28 -->
<g id="edge64" class="edge">
<title>Node2&#45;&gt;Node28</title>
<path fill="none" stroke="midnightblue" d="M1009.9,-347.08C1003.76,-339.38 994.73,-328.03 987.26,-318.65"/>
<polygon fill="midnightblue" stroke="midnightblue" points="989.94,-316.39 980.97,-310.75 984.46,-320.75 989.94,-316.39"/>
</g>
<!-- Node4 -->
<g id="node4" class="node">
<title>Node4</title>
<g id="a_node4"><a xlink:href="GSDUtil_8hpp.html" target="_top" xlink:title=" ">
<polygon fill="none" stroke="black" points="1315,-123.5 1315,-142.5 1387,-142.5 1387,-123.5 1315,-123.5"/>
<text text-anchor="middle" x="1351" y="-130.5" font-family="Helvetica,sans-Serif" font-size="10.00">GSDUtil.hpp</text>
</a>
</g>
</g>
<!-- Node3&#45;&gt;Node4 -->
<g id="edge3" class="edge">
<title>Node3&#45;&gt;Node4</title>
<path fill="none" stroke="midnightblue" d="M1085.03,-179.44C1143.27,-168.89 1245.24,-151.15 1304.63,-141.25"/>
<polygon fill="midnightblue" stroke="midnightblue" points="1305.56,-144.64 1314.85,-139.55 1304.41,-137.73 1305.56,-144.64"/>
</g>
<!-- Node5 -->
<g id="node5" class="node">
<title>Node5</title>
<g id="a_node5"><a xlink:href="gsd_8h.html" target="_top" xlink:title="Declare GSD data types and C API.">
<polygon fill="none" stroke="black" points="1231.5,-62 1231.5,-81 1272.5,-81 1272.5,-62 1231.5,-62"/>
<text text-anchor="middle" x="1252" y="-69" font-family="Helvetica,sans-Serif" font-size="10.00">gsd.h</text>
</a>
</g>
</g>
<!-- Node3&#45;&gt;Node5 -->
<g id="edge14" class="edge">
<title>Node3&#45;&gt;Node5</title>
<path fill="none" stroke="midnightblue" d="M1040.97,-179.5C1041.4,-165.65 1044.33,-138.25 1060,-123 1103.74,-80.43 1178.84,-72.59 1220.98,-71.8"/>
<polygon fill="midnightblue" stroke="midnightblue" points="1221.22,-75.3 1231.2,-71.74 1221.18,-68.3 1221.22,-75.3"/>
</g>
<!-- Node3&#45;&gt;Node9 -->
<g id="edge26" class="edge">
<title>Node3&#45;&gt;Node9</title>
<path fill="none" stroke="midnightblue" d="M1032.58,-179.32C1015.15,-161.35 974.68,-119.61 949.8,-93.95"/>
<polygon fill="midnightblue" stroke="midnightblue" points="952.09,-91.29 942.62,-86.55 947.07,-96.16 952.09,-91.29"/>
</g>
<!-- Node3&#45;&gt;Node10 -->
<g id="edge27" class="edge">
<title>Node3&#45;&gt;Node10</title>
<path fill="none" stroke="midnightblue" d="M1037.4,-179.22C1033.94,-170.28 1028.97,-155.94 1027,-143 1024.29,-125.2 1028.51,-104.94 1032.67,-90.72"/>
<polygon fill="midnightblue" stroke="midnightblue" points="1036.01,-91.76 1035.72,-81.17 1029.34,-89.63 1036.01,-91.76"/>
</g>
<!-- Node3&#45;&gt;Node11 -->
<g id="edge28" class="edge">
<title>Node3&#45;&gt;Node11</title>
<path fill="none" stroke="midnightblue" d="M1086.25,-185.98C1172.91,-181.55 1358.87,-169.23 1417,-143 1444.11,-130.77 1468.51,-105.84 1482.79,-89.14"/>
<polygon fill="midnightblue" stroke="midnightblue" points="1485.62,-91.21 1489.3,-81.28 1480.23,-86.75 1485.62,-91.21"/>
</g>
<!-- Node3&#45;&gt;Node12 -->
<g id="edge29" class="edge">
<title>Node3&#45;&gt;Node12</title>
<path fill="none" stroke="midnightblue" d="M1086.04,-188.32C1171.05,-187.99 1350.69,-182.49 1396,-143 1410.46,-130.4 1414.46,-108.07 1415.32,-91.91"/>
<polygon fill="midnightblue" stroke="midnightblue" points="1418.83,-91.52 1415.49,-81.47 1411.83,-91.41 1418.83,-91.52"/>
</g>
<!-- Node3&#45;&gt;Node13 -->
<g id="edge30" class="edge">
<title>Node3&#45;&gt;Node13</title>
<path fill="none" stroke="midnightblue" d="M1086.07,-188.16C1161.95,-187.29 1319.35,-180.6 1446,-143 1490.34,-129.84 1537.51,-103.08 1564.21,-86.58"/>
<polygon fill="midnightblue" stroke="midnightblue" points="1566.16,-89.49 1572.77,-81.21 1562.44,-83.56 1566.16,-89.49"/>
</g>
<!-- Node3&#45;&gt;Node14 -->
<g id="edge15" class="edge">
<title>Node3&#45;&gt;Node14</title>
<path fill="none" stroke="midnightblue" d="M1007.1,-179.41C925.71,-158.8 719.34,-106.53 628.76,-83.58"/>
<polygon fill="midnightblue" stroke="midnightblue" points="629.37,-80.13 618.81,-81.06 627.65,-86.91 629.37,-80.13"/>
</g>
<!-- Node3&#45;&gt;Node15 -->
<g id="edge16" class="edge">
<title>Node3&#45;&gt;Node15</title>
<path fill="none" stroke="midnightblue" d="M995.97,-180.8C944.22,-172.37 856.79,-157.7 782,-143 668.14,-120.62 640.12,-112.86 527,-87 521.96,-85.85 516.68,-84.62 511.44,-83.39"/>
<polygon fill="midnightblue" stroke="midnightblue" points="511.99,-79.93 501.46,-81.04 510.39,-86.74 511.99,-79.93"/>
</g>
<!-- Node3&#45;&gt;Node16 -->
<g id="edge17" class="edge">
<title>Node3&#45;&gt;Node16</title>
<path fill="none" stroke="midnightblue" d="M995.67,-183.81C874.95,-172.31 535.83,-137.66 257,-87 256.4,-86.89 255.79,-86.78 255.18,-86.67"/>
<polygon fill="midnightblue" stroke="midnightblue" points="255.63,-83.19 245.15,-84.74 254.31,-90.06 255.63,-83.19"/>
</g>
<!-- Node3&#45;&gt;Node17 -->
<g id="edge18" class="edge">
<title>Node3&#45;&gt;Node17</title>
<path fill="none" stroke="midnightblue" d="M995.86,-186.18C927.54,-182.55 794.26,-172.1 685,-143 662.67,-137.05 659.24,-129.27 637,-123 540.12,-95.7 510.2,-104.39 407.88,-87.26"/>
<polygon fill="midnightblue" stroke="midnightblue" points="408.19,-83.76 397.74,-85.52 407.01,-90.66 408.19,-83.76"/>
</g>
<!-- Node3&#45;&gt;Node18 -->
<g id="edge19" class="edge">
<title>Node3&#45;&gt;Node18</title>
<path fill="none" stroke="midnightblue" d="M995.81,-184.52C883.19,-175.84 588.09,-153.11 435.08,-141.32"/>
<polygon fill="midnightblue" stroke="midnightblue" points="435,-137.81 424.76,-140.53 434.46,-144.79 435,-137.81"/>
</g>
<!-- Node19 -->
<g id="node19" class="node">
<title>Node19</title>
<g id="a_node19"><a xlink:title=" ">
<polygon fill="none" stroke="#bfbfbf" points="1069,-123.5 1069,-142.5 1159,-142.5 1159,-123.5 1069,-123.5"/>
<text text-anchor="middle" x="1114" y="-130.5" font-family="Helvetica,sans-Serif" font-size="10.00">spdlog/fmt/ostr.h</text>
</a>
</g>
</g>
<!-- Node3&#45;&gt;Node19 -->
<g id="edge25" class="edge">
<title>Node3&#45;&gt;Node19</title>
<path fill="none" stroke="midnightblue" d="M1052.73,-179.32C1063.84,-171.11 1080.74,-158.6 1093.98,-148.81"/>
<polygon fill="midnightblue" stroke="midnightblue" points="1096.1,-151.59 1102.06,-142.83 1091.94,-145.97 1096.1,-151.59"/>
</g>
<!-- Node20 -->
<g id="node20" class="node">
<title>Node20</title>
<g id="a_node20"><a xlink:title=" ">
<polygon fill="none" stroke="#bfbfbf" points="1177,-123.5 1177,-142.5 1221,-142.5 1221,-123.5 1177,-123.5"/>
<text text-anchor="middle" x="1199" y="-130.5" font-family="Helvetica,sans-Serif" font-size="10.00">thread</text>
</a>
</g>
</g>
<!-- Node3&#45;&gt;Node20 -->
<g id="edge31" class="edge">
<title>Node3&#45;&gt;Node20</title>
<path fill="none" stroke="midnightblue" d="M1066.04,-179.44C1093.48,-170.07 1137.56,-155 1167.37,-144.81"/>
<polygon fill="midnightblue" stroke="midnightblue" points="1168.56,-148.1 1176.89,-141.56 1166.29,-141.48 1168.56,-148.1"/>
</g>
<!-- Node4&#45;&gt;Node3 -->
<g id="edge4" class="edge">
<title>Node4&#45;&gt;Node3</title>
<path fill="none" stroke="midnightblue" d="M1314.72,-141.15C1260.86,-150.97 1159.61,-168.63 1096.44,-179.24"/>
<polygon fill="midnightblue" stroke="midnightblue" points="1095.54,-175.84 1086.26,-180.94 1096.7,-182.74 1095.54,-175.84"/>
</g>
<!-- Node4&#45;&gt;Node5 -->
<g id="edge5" class="edge">
<title>Node4&#45;&gt;Node5</title>
<path fill="none" stroke="midnightblue" d="M1336.82,-123.48C1320.64,-113.75 1293.97,-97.73 1274.86,-86.24"/>
<polygon fill="midnightblue" stroke="midnightblue" points="1276.53,-83.16 1266.16,-81.01 1272.93,-89.16 1276.53,-83.16"/>
</g>
<!-- Node4&#45;&gt;Node9 -->
<g id="edge9" class="edge">
<title>Node4&#45;&gt;Node9</title>
<path fill="none" stroke="midnightblue" d="M1314.76,-128.09C1239.18,-119.85 1065.96,-100.47 988.54,-87.1"/>
<polygon fill="midnightblue" stroke="midnightblue" points="988.73,-83.58 978.27,-85.25 987.49,-90.47 988.73,-83.58"/>
</g>
<!-- Node4&#45;&gt;Node10 -->
<g id="edge10" class="edge">
<title>Node4&#45;&gt;Node10</title>
<path fill="none" stroke="midnightblue" d="M1314.9,-125.12C1260.05,-114.66 1155.39,-94.7 1091.93,-82.59"/>
<polygon fill="midnightblue" stroke="midnightblue" points="1092.21,-79.08 1081.73,-80.65 1090.9,-85.96 1092.21,-79.08"/>
</g>
<!-- Node4&#45;&gt;Node11 -->
<g id="edge11" class="edge">
<title>Node4&#45;&gt;Node11</title>
<path fill="none" stroke="midnightblue" d="M1371.77,-123.48C1396.43,-113.36 1437.75,-96.4 1465.9,-84.85"/>
<polygon fill="midnightblue" stroke="midnightblue" points="1467.34,-88.04 1475.26,-81.01 1464.68,-81.57 1467.34,-88.04"/>
</g>
<!-- Node4&#45;&gt;Node12 -->
<g id="edge12" class="edge">
<title>Node4&#45;&gt;Node12</title>
<path fill="none" stroke="midnightblue" d="M1360.17,-123.48C1370.15,-114.2 1386.31,-99.17 1398.51,-87.83"/>
<polygon fill="midnightblue" stroke="midnightblue" points="1400.91,-90.38 1405.85,-81.01 1396.14,-85.25 1400.91,-90.38"/>
</g>
<!-- Node4&#45;&gt;Node13 -->
<g id="edge13" class="edge">
<title>Node4&#45;&gt;Node13</title>
<path fill="none" stroke="midnightblue" d="M1385.88,-123.42C1422.16,-114.46 1480.61,-99.94 1531,-87 1539,-84.94 1547.65,-82.68 1555.66,-80.57"/>
<polygon fill="midnightblue" stroke="midnightblue" points="1556.61,-83.94 1565.38,-78 1554.82,-77.17 1556.61,-83.94"/>
</g>
<!-- Node6 -->
<g id="node6" class="node">
<title>Node6</title>
<g id="a_node6"><a xlink:title=" ">
<polygon fill="none" stroke="#bfbfbf" points="1153,-0.5 1153,-19.5 1209,-19.5 1209,-0.5 1153,-0.5"/>
<text text-anchor="middle" x="1181" y="-7.5" font-family="Helvetica,sans-Serif" font-size="10.00">stdbool.h</text>
</a>
</g>
</g>
<!-- Node5&#45;&gt;Node6 -->
<g id="edge6" class="edge">
<title>Node5&#45;&gt;Node6</title>
<path fill="none" stroke="midnightblue" d="M1241.83,-61.98C1230.65,-52.61 1212.48,-37.38 1198.91,-26.01"/>
<polygon fill="midnightblue" stroke="midnightblue" points="1201.07,-23.25 1191.15,-19.51 1196.57,-28.61 1201.07,-23.25"/>
</g>
<!-- Node7 -->
<g id="node7" class="node">
<title>Node7</title>
<g id="a_node7"><a xlink:title=" ">
<polygon fill="none" stroke="#bfbfbf" points="1227.5,-0.5 1227.5,-19.5 1276.5,-19.5 1276.5,-0.5 1227.5,-0.5"/>
<text text-anchor="middle" x="1252" y="-7.5" font-family="Helvetica,sans-Serif" font-size="10.00">stdint.h</text>
</a>
</g>
</g>
<!-- Node5&#45;&gt;Node7 -->
<g id="edge7" class="edge">
<title>Node5&#45;&gt;Node7</title>
<path fill="none" stroke="midnightblue" d="M1252,-61.98C1252,-53.58 1252,-40.48 1252,-29.66"/>
<polygon fill="midnightblue" stroke="midnightblue" points="1255.5,-29.51 1252,-19.51 1248.5,-29.51 1255.5,-29.51"/>
</g>
<!-- Node8 -->
<g id="node8" class="node">
<title>Node8</title>
<g id="a_node8"><a xlink:title=" ">
<polygon fill="none" stroke="#bfbfbf" points="1294.5,-0.5 1294.5,-19.5 1343.5,-19.5 1343.5,-0.5 1294.5,-0.5"/>
<text text-anchor="middle" x="1319" y="-7.5" font-family="Helvetica,sans-Serif" font-size="10.00">string.h</text>
</a>
</g>
</g>
<!-- Node5&#45;&gt;Node8 -->
<g id="edge8" class="edge">
<title>Node5&#45;&gt;Node8</title>
<path fill="none" stroke="midnightblue" d="M1261.6,-61.98C1272.05,-52.7 1288.97,-37.67 1301.74,-26.33"/>
<polygon fill="midnightblue" stroke="midnightblue" points="1304.27,-28.77 1309.42,-19.51 1299.62,-23.53 1304.27,-28.77"/>
</g>
<!-- Node18&#45;&gt;Node14 -->
<g id="edge20" class="edge">
<title>Node18&#45;&gt;Node14</title>
<path fill="none" stroke="midnightblue" d="M375.1,-123.48C418.49,-112.94 492.41,-94.99 539.95,-83.44"/>
<polygon fill="midnightblue" stroke="midnightblue" points="541.07,-86.77 549.96,-81.01 539.42,-79.97 541.07,-86.77"/>
</g>
<!-- Node18&#45;&gt;Node15 -->
<g id="edge21" class="edge">
<title>Node18&#45;&gt;Node15</title>
<path fill="none" stroke="midnightblue" d="M358.05,-123.48C379.2,-113.49 414.44,-96.85 438.88,-85.31"/>
<polygon fill="midnightblue" stroke="midnightblue" points="440.43,-88.44 447.98,-81.01 437.44,-82.11 440.43,-88.44"/>
</g>
<!-- Node18&#45;&gt;Node16 -->
<g id="edge22" class="edge">
<title>Node18&#45;&gt;Node16</title>
<path fill="none" stroke="midnightblue" d="M318.51,-123.48C296.77,-114.85 262.51,-101.26 234.84,-90.29"/>
<polygon fill="midnightblue" stroke="midnightblue" points="235.94,-86.96 225.35,-86.52 233.36,-93.46 235.94,-86.96"/>
</g>
<!-- Node18&#45;&gt;Node17 -->
<g id="edge23" class="edge">
<title>Node18&#45;&gt;Node17</title>
<path fill="none" stroke="midnightblue" d="M338.85,-123.48C337.91,-116.47 336.53,-106.19 335.25,-96.7"/>
<polygon fill="midnightblue" stroke="midnightblue" points="338.69,-95.97 333.89,-86.52 331.75,-96.9 338.69,-95.97"/>
</g>
<!-- Node18&#45;&gt;Node18 -->
<g id="edge24" class="edge">
<title>Node18&#45;&gt;Node18</title>
<path fill="none" stroke="midnightblue" d="M383.45,-142.5C413.25,-145.33 442.5,-142.16 442.5,-133 442.5,-124.88 419.5,-121.47 393.51,-122.77"/>
<polygon fill="midnightblue" stroke="midnightblue" points="393.17,-119.29 383.45,-123.5 393.68,-126.27 393.17,-119.29"/>
</g>
<!-- Node21&#45;&gt;Node3 -->
<g id="edge33" class="edge">
<title>Node21&#45;&gt;Node3</title>
<path fill="none" stroke="midnightblue" d="M676.61,-235.44C762.19,-224.77 906.83,-206.73 985.69,-196.9"/>
<polygon fill="midnightblue" stroke="midnightblue" points="986.41,-200.34 995.9,-195.62 985.54,-193.39 986.41,-200.34"/>
</g>
<!-- Node21&#45;&gt;Node9 -->
<g id="edge39" class="edge">
<title>Node21&#45;&gt;Node9</title>
<path fill="none" stroke="midnightblue" d="M620.02,-235.21C649.45,-213.96 727.87,-158.92 799,-123 823.98,-110.39 852.9,-98.87 877.11,-90.03"/>
<polygon fill="midnightblue" stroke="midnightblue" points="878.61,-93.21 886.83,-86.53 876.24,-86.62 878.61,-93.21"/>
</g>
<!-- Node21&#45;&gt;Node10 -->
<g id="edge40" class="edge">
<title>Node21&#45;&gt;Node10</title>
<path fill="none" stroke="midnightblue" d="M629.37,-235.5C699.89,-207.44 925.34,-117.73 1008.13,-84.78"/>
<polygon fill="midnightblue" stroke="midnightblue" points="1009.5,-88.01 1017.5,-81.06 1006.91,-81.5 1009.5,-88.01"/>
</g>
<!-- Node21&#45;&gt;Node14 -->
<g id="edge34" class="edge">
<title>Node21&#45;&gt;Node14</title>
<path fill="none" stroke="midnightblue" d="M606.83,-235.26C603.26,-208.65 592.47,-128.21 587.53,-91.34"/>
<polygon fill="midnightblue" stroke="midnightblue" points="590.94,-90.47 586.14,-81.02 584,-91.4 590.94,-90.47"/>
</g>
<!-- Node21&#45;&gt;Node15 -->
<g id="edge35" class="edge">
<title>Node21&#45;&gt;Node15</title>
<path fill="none" stroke="midnightblue" d="M600.76,-235.26C578.25,-208.08 509.23,-124.71 479.67,-89.01"/>
<polygon fill="midnightblue" stroke="midnightblue" points="482.13,-86.49 473.05,-81.02 476.74,-90.95 482.13,-86.49"/>
</g>
<!-- Node21&#45;&gt;Node16 -->
<g id="edge36" class="edge">
<title>Node21&#45;&gt;Node16</title>
<path fill="none" stroke="midnightblue" d="M536.73,-238.19C459.09,-228.84 334.2,-204.73 246,-143 228.12,-130.49 213.09,-110.66 203.12,-95.21"/>
<polygon fill="midnightblue" stroke="midnightblue" points="206.09,-93.36 197.84,-86.71 200.14,-97.05 206.09,-93.36"/>
</g>
<!-- Node21&#45;&gt;Node17 -->
<g id="edge37" class="edge">
<title>Node21&#45;&gt;Node17</title>
<path fill="none" stroke="midnightblue" d="M597.08,-235.32C564.08,-209.14 466.75,-132.2 451,-123 429.14,-110.22 403.44,-98.9 381.53,-90.23"/>
<polygon fill="midnightblue" stroke="midnightblue" points="382.66,-86.92 372.07,-86.56 380.13,-93.44 382.66,-86.92"/>
</g>
<!-- Node21&#45;&gt;Node18 -->
<g id="edge38" class="edge">
<title>Node21&#45;&gt;Node18</title>
<path fill="none" stroke="midnightblue" d="M571.23,-235.43C540.16,-227.63 494.82,-214.92 457,-199 422.36,-184.42 384.8,-162.32 361.83,-148.02"/>
<polygon fill="midnightblue" stroke="midnightblue" points="363.53,-144.96 353.21,-142.6 359.8,-150.89 363.53,-144.96"/>
</g>
<!-- Node23 -->
<g id="node23" class="node">
<title>Node23</title>
<g id="a_node23"><a xlink:title=" ">
<polygon fill="none" stroke="#bfbfbf" points="950,-235.5 950,-254.5 996,-254.5 996,-235.5 950,-235.5"/>
<text text-anchor="middle" x="973" y="-242.5" font-family="Helvetica,sans-Serif" font-size="10.00">chrono</text>
</a>
</g>
</g>
<!-- Node22&#45;&gt;Node23 -->
<g id="edge42" class="edge">
<title>Node22&#45;&gt;Node23</title>
<path fill="none" stroke="midnightblue" d="M1046.02,-291.32C1032.45,-282.9 1011.62,-269.97 995.68,-260.07"/>
<polygon fill="midnightblue" stroke="midnightblue" points="997.29,-256.95 986.94,-254.65 993.59,-262.9 997.29,-256.95"/>
</g>
<!-- Node24 -->
<g id="node24" class="node">
<title>Node24</title>
<g id="a_node24"><a xlink:title=" ">
<polygon fill="none" stroke="#bfbfbf" points="1014,-235.5 1014,-254.5 1058,-254.5 1058,-235.5 1014,-235.5"/>
<text text-anchor="middle" x="1036" y="-242.5" font-family="Helvetica,sans-Serif" font-size="10.00">cmath</text>
</a>
</g>
</g>
<!-- Node22&#45;&gt;Node24 -->
<g id="edge43" class="edge">
<title>Node22&#45;&gt;Node24</title>
<path fill="none" stroke="midnightblue" d="M1056.04,-291.08C1052.79,-283.77 1048.08,-273.18 1044.05,-264.1"/>
<polygon fill="midnightblue" stroke="midnightblue" points="1047.15,-262.47 1039.89,-254.75 1040.75,-265.31 1047.15,-262.47"/>
</g>
<!-- Node25 -->
<g id="node25" class="node">
<title>Node25</title>
<g id="a_node25"><a xlink:title=" ">
<polygon fill="none" stroke="#bfbfbf" points="1076,-235.5 1076,-254.5 1126,-254.5 1126,-235.5 1076,-235.5"/>
<text text-anchor="middle" x="1101" y="-242.5" font-family="Helvetica,sans-Serif" font-size="10.00">iomanip</text>
</a>
</g>
</g>
<!-- Node22&#45;&gt;Node25 -->
<g id="edge44" class="edge">
<title>Node22&#45;&gt;Node25</title>
<path fill="none" stroke="midnightblue" d="M1066.77,-291.08C1072.56,-283.46 1081.06,-272.26 1088.14,-262.94"/>
<polygon fill="midnightblue" stroke="midnightblue" points="1091.1,-264.83 1094.36,-254.75 1085.52,-260.6 1091.1,-264.83"/>
</g>
<!-- Node26 -->
<g id="node26" class="node">
<title>Node26</title>
<g id="a_node26"><a xlink:title=" ">
<polygon fill="none" stroke="#bfbfbf" points="840,-235.5 840,-254.5 894,-254.5 894,-235.5 840,-235.5"/>
<text text-anchor="middle" x="867" y="-242.5" font-family="Helvetica,sans-Serif" font-size="10.00">iostream</text>
</a>
</g>
</g>
<!-- Node22&#45;&gt;Node26 -->
<g id="edge45" class="edge">
<title>Node22&#45;&gt;Node26</title>
<path fill="none" stroke="midnightblue" d="M1029.42,-291.44C995.32,-281.9 940.18,-266.47 903.76,-256.28"/>
<polygon fill="midnightblue" stroke="midnightblue" points="904.59,-252.88 894.01,-253.56 902.7,-259.62 904.59,-252.88"/>
</g>
<!-- Node27&#45;&gt;Node3 -->
<g id="edge48" class="edge">
<title>Node27&#45;&gt;Node3</title>
<path fill="none" stroke="midnightblue" d="M651.97,-291.46C688.84,-283.72 742.6,-271.07 788,-255 807.87,-247.97 811.01,-241.69 831,-235 882.39,-217.79 943.12,-205.61 986.02,-198.31"/>
<polygon fill="midnightblue" stroke="midnightblue" points="986.69,-201.74 995.98,-196.64 985.54,-194.84 986.69,-201.74"/>
</g>
<!-- Node27&#45;&gt;Node9 -->
<g id="edge54" class="edge">
<title>Node27&#45;&gt;Node9</title>
<path fill="none" stroke="midnightblue" d="M624.63,-291.5C641.08,-282.89 666.81,-268.89 688,-255 770.3,-201.05 861.33,-128.23 904.15,-93.12"/>
<polygon fill="midnightblue" stroke="midnightblue" points="906.55,-95.67 912.05,-86.62 902.1,-90.27 906.55,-95.67"/>
</g>
<!-- Node27&#45;&gt;Node10 -->
<g id="edge55" class="edge">
<title>Node27&#45;&gt;Node10</title>
<path fill="none" stroke="midnightblue" d="M630.69,-291.46C652.78,-282.93 687.17,-269.09 716,-255 832.04,-198.3 964.46,-118.45 1016.41,-86.51"/>
<polygon fill="midnightblue" stroke="midnightblue" points="1018.48,-89.35 1025.16,-81.12 1014.81,-83.39 1018.48,-89.35"/>
</g>
<!-- Node27&#45;&gt;Node14 -->
<g id="edge49" class="edge">
<title>Node27&#45;&gt;Node14</title>
<path fill="none" stroke="midnightblue" d="M577.75,-291.49C559.87,-284.73 538.7,-273.29 528,-255 495.37,-199.21 545.34,-122.72 571.15,-89.29"/>
<polygon fill="midnightblue" stroke="midnightblue" points="574.21,-91.06 577.69,-81.05 568.73,-86.7 574.21,-91.06"/>
</g>
<!-- Node27&#45;&gt;Node15 -->
<g id="edge50" class="edge">
<title>Node27&#45;&gt;Node15</title>
<path fill="none" stroke="midnightblue" d="M561.94,-296.34C480.49,-287.05 313.27,-254.62 246,-143 193.28,-55.52 195.69,-136.07 406,-87 410.96,-85.84 416.15,-84.62 421.31,-83.38"/>
<polygon fill="midnightblue" stroke="midnightblue" points="422.22,-86.76 431.12,-81.03 420.58,-79.96 422.22,-86.76"/>
</g>
<!-- Node27&#45;&gt;Node16 -->
<g id="edge51" class="edge">
<title>Node27&#45;&gt;Node16</title>
<path fill="none" stroke="midnightblue" d="M561.81,-296.56C488.52,-290.53 349.34,-276.6 305,-255 240.91,-223.77 208.55,-138.07 196.16,-96.18"/>
<polygon fill="midnightblue" stroke="midnightblue" points="199.52,-95.2 193.44,-86.53 192.79,-97.11 199.52,-95.2"/>
</g>
<!-- Node27&#45;&gt;Node17 -->
<g id="edge52" class="edge">
<title>Node27&#45;&gt;Node17</title>
<path fill="none" stroke="midnightblue" d="M561.93,-298.69C507.9,-295.7 416.63,-286.02 345,-255 307.15,-238.61 299.93,-228.39 271,-199 244.08,-171.65 209.76,-155.61 230,-123 238.89,-108.68 253.18,-98.3 268.28,-90.82"/>
<polygon fill="midnightblue" stroke="midnightblue" points="270.09,-93.84 277.75,-86.52 267.2,-87.46 270.09,-93.84"/>
</g>
<!-- Node27&#45;&gt;Node18 -->
<g id="edge53" class="edge">
<title>Node27&#45;&gt;Node18</title>
<path fill="none" stroke="midnightblue" d="M581.67,-291.42C558.28,-283.35 523.48,-270.26 495,-255 456.42,-234.33 448.5,-225.93 414,-199 393.53,-183.02 371.3,-163.12 356.61,-149.58"/>
<polygon fill="midnightblue" stroke="midnightblue" points="358.99,-147.02 349.28,-142.78 354.23,-152.15 358.99,-147.02"/>
</g>
<!-- Node27&#45;&gt;Node21 -->
<g id="edge47" class="edge">
<title>Node27&#45;&gt;Node21</title>
<path fill="none" stroke="midnightblue" d="M608,-291.08C608,-284.01 608,-273.86 608,-264.99"/>
<polygon fill="midnightblue" stroke="midnightblue" points="611.5,-264.75 608,-254.75 604.5,-264.75 611.5,-264.75"/>
</g>
<!-- Node27&#45;&gt;Node26 -->
<g id="edge56" class="edge">
<title>Node27&#45;&gt;Node26</title>
<path fill="none" stroke="midnightblue" d="M650.23,-291.45C694.17,-282.51 764.96,-268 826,-255 827.24,-254.74 828.51,-254.46 829.78,-254.19"/>
<polygon fill="midnightblue" stroke="midnightblue" points="830.63,-257.59 839.66,-252.05 829.15,-250.75 830.63,-257.59"/>
</g>
</g>
</svg>
