<?xml version="1.0" encoding="UTF-8" standalone="no"?>
<!DOCTYPE svg PUBLIC "-//W3C//DTD SVG 1.1//EN"
 "http://www.w3.org/Graphics/SVG/1.1/DTD/svg11.dtd">
<!-- Generated by graphviz version 2.43.0 (0)
 -->
<!-- Title: collinear&#45;swimmer&#45;isolated&#45;aggregate&#45;analysis.f_D Pages: 1 -->
<svg width="561pt" height="39pt"
 viewBox="0.00 0.00 561.00 39.00" xmlns="http://www.w3.org/2000/svg" xmlns:xlink="http://www.w3.org/1999/xlink">
<g id="graph0" class="graph" transform="scale(1 1) rotate(0) translate(4 35)">
<title>collinear&#45;swimmer&#45;isolated&#45;aggregate&#45;analysis.f_D</title>
<!-- Node1 -->
<g id="node1" class="node">
<title>Node1</title>
<g id="a_node1"><a xlink:title="Function for D: derivative of mass matrix elements, dimensionless.">
<polygon fill="#bfbfbf" stroke="black" points="421,-0.5 421,-30.5 553,-30.5 553,-0.5 421,-0.5"/>
<text text-anchor="start" x="429" y="-18.5" font-family="Helvetica,sans-Serif" font-size="10.00">collinear&#45;swimmer&#45;isolated</text>
<text text-anchor="middle" x="487" y="-7.5" font-family="Helvetica,sans-Serif" font-size="10.00">&#45;aggregate&#45;analysis.f_D</text>
</a>
</g>
</g>
<!-- Node2 -->
<g id="node2" class="node">
<title>Node2</title>
<g id="a_node2"><a xlink:href="namespacecollinear-swimmer-isolated-aggregate-analysis.html#a8e52ef1c3d82e420edf770f35faab7e7" target="_top" xlink:title="Calculates leading order net translation of locater point for collinear swimmer after one period of a...">
<polygon fill="none" stroke="black" points="209,-0.5 209,-30.5 385,-30.5 385,-0.5 209,-0.5"/>
<text text-anchor="start" x="217" y="-18.5" font-family="Helvetica,sans-Serif" font-size="10.00">collinear&#45;swimmer&#45;isolated</text>
<text text-anchor="middle" x="297" y="-7.5" font-family="Helvetica,sans-Serif" font-size="10.00">&#45;aggregate&#45;analysis.dZ_leadingOrder</text>
</a>
</g>
</g>
<!-- Node1&#45;&gt;Node2 -->
<g id="edge1" class="edge">
<title>Node1&#45;&gt;Node2</title>
<path fill="none" stroke="midnightblue" d="M410.7,-15.5C402.35,-15.5 393.78,-15.5 385.3,-15.5"/>
<polygon fill="midnightblue" stroke="midnightblue" points="410.77,-19 420.77,-15.5 410.77,-12 410.77,-19"/>
</g>
<!-- Node3 -->
<g id="node3" class="node">
<title>Node3</title>
<g id="a_node3"><a xlink:href="namespacecollinear-swimmer-isolated-aggregate-analysis.html#a3e71e3a347e7e1f277348f22cf5a3db9" target="_top" xlink:title="Analyze a single GSD file.">
<polygon fill="none" stroke="black" points="0,-0.5 0,-30.5 173,-30.5 173,-0.5 0,-0.5"/>
<text text-anchor="start" x="8" y="-18.5" font-family="Helvetica,sans-Serif" font-size="10.00">collinear&#45;swimmer&#45;isolated</text>
<text text-anchor="middle" x="86.5" y="-7.5" font-family="Helvetica,sans-Serif" font-size="10.00">&#45;aggregate&#45;analysis.aggregate_plots</text>
</a>
</g>
</g>
<!-- Node2&#45;&gt;Node3 -->
<g id="edge2" class="edge">
<title>Node2&#45;&gt;Node3</title>
<path fill="none" stroke="midnightblue" d="M198.75,-15.5C190.16,-15.5 181.51,-15.5 173.03,-15.5"/>
<polygon fill="midnightblue" stroke="midnightblue" points="198.79,-19 208.79,-15.5 198.79,-12 198.79,-19"/>
</g>
</g>
</svg>
