<?xml version="1.0" encoding="UTF-8" standalone="no"?>
<!DOCTYPE svg PUBLIC "-//W3C//DTD SVG 1.1//EN"
 "http://www.w3.org/Graphics/SVG/1.1/DTD/svg11.dtd">
<!-- Generated by graphviz version 2.43.0 (0)
 -->
<!-- Title: collinear&#45;swimmer&#45;internal&#45;dynamics&#45;individual&#45;analysis.aggregate_plots Pages: 1 -->
<svg width="390pt" height="39pt"
 viewBox="0.00 0.00 390.00 39.00" xmlns="http://www.w3.org/2000/svg" xmlns:xlink="http://www.w3.org/1999/xlink">
<g id="graph0" class="graph" transform="scale(1 1) rotate(0) translate(4 35)">
<title>collinear&#45;swimmer&#45;internal&#45;dynamics&#45;individual&#45;analysis.aggregate_plots</title>
<!-- Node1 -->
<g id="node1" class="node">
<title>Node1</title>
<g id="a_node1"><a xlink:title="Script to analyze a single GSD file.">
<polygon fill="#bfbfbf" stroke="black" points="0,-0.5 0,-30.5 216,-30.5 216,-0.5 0,-0.5"/>
<text text-anchor="start" x="8" y="-18.5" font-family="Helvetica,sans-Serif" font-size="10.00">collinear&#45;swimmer&#45;internal</text>
<text text-anchor="middle" x="108" y="-7.5" font-family="Helvetica,sans-Serif" font-size="10.00">&#45;dynamics&#45;individual&#45;analysis.aggregate_plots</text>
</a>
</g>
</g>
<!-- Node2 -->
<g id="node2" class="node">
<title>Node2</title>
<g id="a_node2"><a xlink:href="helper__math_8h.html#ae4378072f9d836b0d4770a1514db2be3" target="_top" xlink:title=" ">
<polygon fill="none" stroke="black" points="252,-6 252,-25 284,-25 284,-6 252,-6"/>
<text text-anchor="middle" x="268" y="-13" font-family="Helvetica,sans-Serif" font-size="10.00">abs</text>
</a>
</g>
</g>
<!-- Node1&#45;&gt;Node2 -->
<g id="edge1" class="edge">
<title>Node1&#45;&gt;Node2</title>
<path fill="none" stroke="midnightblue" d="M216.14,-15.5C225.46,-15.5 234.17,-15.5 241.67,-15.5"/>
<polygon fill="midnightblue" stroke="midnightblue" points="241.7,-19 251.7,-15.5 241.7,-12 241.7,-19"/>
</g>
<!-- Node3 -->
<g id="node3" class="node">
<title>Node3</title>
<g id="a_node3"><a xlink:href="helper__math_8h.html#a3be05aff487ded3c05aab21d24dd6439" target="_top" xlink:title=" ">
<polygon fill="none" stroke="black" points="320,-6 320,-25 382,-25 382,-6 320,-6"/>
<text text-anchor="middle" x="351" y="-13" font-family="Helvetica,sans-Serif" font-size="10.00">make_int2</text>
</a>
</g>
</g>
<!-- Node2&#45;&gt;Node3 -->
<g id="edge2" class="edge">
<title>Node2&#45;&gt;Node3</title>
<path fill="none" stroke="midnightblue" d="M284.24,-15.5C291.49,-15.5 300.56,-15.5 309.61,-15.5"/>
<polygon fill="midnightblue" stroke="midnightblue" points="309.73,-19 319.73,-15.5 309.73,-12 309.73,-19"/>
</g>
</g>
</svg>
