<?xml version="1.0" encoding="UTF-8" standalone="no"?>
<!DOCTYPE svg PUBLIC "-//W3C//DTD SVG 1.1//EN"
 "http://www.w3.org/Graphics/SVG/1.1/DTD/svg11.dtd">
<!-- Generated by graphviz version 2.43.0 (0)
 -->
<!-- Title: simulationDataLoad.gsd_df Pages: 1 -->
<svg width="309pt" height="137pt"
 viewBox="0.00 0.00 309.00 137.00" xmlns="http://www.w3.org/2000/svg" xmlns:xlink="http://www.w3.org/1999/xlink">
<g id="graph0" class="graph" transform="scale(1 1) rotate(0) translate(4 133)">
<title>simulationDataLoad.gsd_df</title>
<!-- Node1 -->
<g id="node1" class="node">
<title>Node1</title>
<g id="a_node1"><a xlink:title="Wrapper function that combines previous function into single call that can do all data parsing and lo...">
<polygon fill="#bfbfbf" stroke="black" points="0,-55 0,-74 135,-74 135,-55 0,-55"/>
<text text-anchor="middle" x="67.5" y="-62" font-family="Helvetica,sans-Serif" font-size="10.00">simulationDataLoad.gsd_df</text>
</a>
</g>
</g>
<!-- Node2 -->
<g id="node2" class="node">
<title>Node2</title>
<g id="a_node2"><a xlink:href="namespacesimulationDataLoad.html#a95311b311258be707b05eead2f52571e" target="_top" xlink:title="Locates compressed data files and returns paths as list of strings.">
<polygon fill="none" stroke="black" points="175,-98.5 175,-128.5 297,-128.5 297,-98.5 175,-98.5"/>
<text text-anchor="start" x="183" y="-116.5" font-family="Helvetica,sans-Serif" font-size="10.00">simulationDataLoad.find</text>
<text text-anchor="middle" x="236" y="-105.5" font-family="Helvetica,sans-Serif" font-size="10.00">_compressed_data</text>
</a>
</g>
</g>
<!-- Node1&#45;&gt;Node2 -->
<g id="edge1" class="edge">
<title>Node1&#45;&gt;Node2</title>
<path fill="none" stroke="midnightblue" d="M101,-74.06C121.8,-80.19 149.44,-88.32 174.21,-95.61"/>
<polygon fill="midnightblue" stroke="midnightblue" points="173.32,-99 183.91,-98.46 175.3,-92.28 173.32,-99"/>
</g>
<!-- Node3 -->
<g id="node3" class="node">
<title>Node3</title>
<g id="a_node3"><a xlink:href="namespacesimulationDataLoad.html#a7923bc96a25c1889b0bcf68199d58284" target="_top" xlink:title="untar and load data using GSDUtilPy class">
<polygon fill="none" stroke="black" points="174,-49.5 174,-79.5 298,-79.5 298,-49.5 174,-49.5"/>
<text text-anchor="start" x="182" y="-67.5" font-family="Helvetica,sans-Serif" font-size="10.00">simulationDataLoad.load</text>
<text text-anchor="middle" x="236" y="-56.5" font-family="Helvetica,sans-Serif" font-size="10.00">_compressed_data</text>
</a>
</g>
</g>
<!-- Node1&#45;&gt;Node3 -->
<g id="edge2" class="edge">
<title>Node1&#45;&gt;Node3</title>
<path fill="none" stroke="midnightblue" d="M135.26,-64.5C144.63,-64.5 154.29,-64.5 163.74,-64.5"/>
<polygon fill="midnightblue" stroke="midnightblue" points="163.88,-68 173.88,-64.5 163.88,-61 163.88,-68"/>
</g>
<!-- Node4 -->
<g id="node4" class="node">
<title>Node4</title>
<g id="a_node4"><a xlink:href="namespacesimulationDataLoad.html#aa150368134a2e30b231c87aeeb6c6eda" target="_top" xlink:title="Parses input GSD files and outputs to pandas DataFrame.">
<polygon fill="none" stroke="black" points="171,-0.5 171,-30.5 301,-30.5 301,-0.5 171,-0.5"/>
<text text-anchor="start" x="179" y="-18.5" font-family="Helvetica,sans-Serif" font-size="10.00">simulationDataLoad.parse</text>
<text text-anchor="middle" x="236" y="-7.5" font-family="Helvetica,sans-Serif" font-size="10.00">_loaded_data</text>
</a>
</g>
</g>
<!-- Node1&#45;&gt;Node4 -->
<g id="edge3" class="edge">
<title>Node1&#45;&gt;Node4</title>
<path fill="none" stroke="midnightblue" d="M101,-54.94C121.8,-48.81 149.44,-40.68 174.21,-33.39"/>
<polygon fill="midnightblue" stroke="midnightblue" points="175.3,-36.72 183.91,-30.54 173.32,-30 175.3,-36.72"/>
</g>
</g>
</svg>
