<?xml version="1.0" encoding="UTF-8" standalone="no"?>
<!DOCTYPE svg PUBLIC "-//W3C//DTD SVG 1.1//EN"
 "http://www.w3.org/Graphics/SVG/1.1/DTD/svg11.dtd">
<!-- Generated by graphviz version 2.49.1 (20210923.0004)
 -->
<!-- Title: simulationDataLoad.find_compressed_data Pages: 1 -->
<svg width="306pt" height="57pt"
 viewBox="0.00 0.00 306.00 57.00" xmlns="http://www.w3.org/2000/svg" xmlns:xlink="http://www.w3.org/1999/xlink">
<g id="graph0" class="graph" transform="scale(1 1) rotate(0) translate(4 53)">
<title>simulationDataLoad.find_compressed_data</title>
<!-- Node1 -->
<g id="node1" class="node">
<title>Node1</title>
<g id="a_node1"><a xlink:title=" ">
<polygon fill="#bfbfbf" stroke="black" points="174,-0.5 174,-30.5 298,-30.5 298,-0.5 174,-0.5"/>
<text text-anchor="start" x="182" y="-18.5" font-family="Helvetica,sans-Serif" font-size="10.00">simulationDataLoad.find</text>
<text text-anchor="middle" x="236" y="-7.5" font-family="Helvetica,sans-Serif" font-size="10.00">_compressed_data</text>
</a>
</g>
</g>
<!-- Node1&#45;&gt;Node1 -->
<g id="edge1" class="edge">
<title>Node1&#45;&gt;Node1</title>
<path fill="none" stroke="midnightblue" d="M265.5,-40.96C261.84,-45.68 252,-49 236,-49 209.74,-49 200.1,-40.06 207.07,-30.66"/>
<polygon fill="midnightblue" stroke="midnightblue" points="268.97,-40.45 264.93,-30.66 261.98,-40.84 268.97,-40.45"/>
</g>
<!-- Node2 -->
<g id="node2" class="node">
<title>Node2</title>
<g id="a_node2"><a xlink:href="namespacesimulationDataLoad.html#ae3187c41888f046bcc6417834e68e241" target="_top" xlink:title=" ">
<polygon fill="none" stroke="black" points="0,-6 0,-25 138,-25 138,-6 0,-6"/>
<text text-anchor="middle" x="69" y="-13" font-family="Helvetica,sans-Serif" font-size="10.00">simulationDataLoad.gsd_df</text>
</a>
</g>
</g>
<!-- Node1&#45;&gt;Node2 -->
<g id="edge2" class="edge">
<title>Node1&#45;&gt;Node2</title>
<path fill="none" stroke="midnightblue" d="M163.42,-15.5C155.03,-15.5 146.49,-15.5 138.15,-15.5"/>
<polygon fill="midnightblue" stroke="midnightblue" points="163.56,-19 173.56,-15.5 163.56,-12 163.56,-19"/>
</g>
<!-- Node2&#45;&gt;Node2 -->
<g id="edge3" class="edge">
<title>Node2&#45;&gt;Node2</title>
<path fill="none" stroke="midnightblue" d="M100.06,-33.77C99.18,-39.24 88.82,-43.5 69,-43.5 39.5,-43.5 30.97,-34.07 43.41,-25.26"/>
<polygon fill="midnightblue" stroke="midnightblue" points="102.94,-31.77 94.59,-25.26 97.05,-35.56 102.94,-31.77"/>
</g>
</g>
</svg>
