<?xml version="1.0" encoding="UTF-8" standalone="no"?>
<!DOCTYPE svg PUBLIC "-//W3C//DTD SVG 1.1//EN"
 "http://www.w3.org/Graphics/SVG/1.1/DTD/svg11.dtd">
<!-- Generated by graphviz version 2.49.1 (20210923.0004)
 -->
<!-- Title: simulationDataLoad.parse_loaded_data Pages: 1 -->
<svg width="315pt" height="57pt"
 viewBox="0.00 0.00 315.00 57.00" xmlns="http://www.w3.org/2000/svg" xmlns:xlink="http://www.w3.org/1999/xlink">
<g id="graph0" class="graph" transform="scale(1 1) rotate(0) translate(4 53)">
<title>simulationDataLoad.parse_loaded_data</title>
<!-- Node1 -->
<g id="node1" class="node">
<title>Node1</title>
<g id="a_node1"><a xlink:title=" ">
<polygon fill="#bfbfbf" stroke="black" points="174,-0.5 174,-30.5 307,-30.5 307,-0.5 174,-0.5"/>
<text text-anchor="start" x="182" y="-18.5" font-family="Helvetica,sans-Serif" font-size="10.00">simulationDataLoad.parse</text>
<text text-anchor="middle" x="240.5" y="-7.5" font-family="Helvetica,sans-Serif" font-size="10.00">_loaded_data</text>
</a>
</g>
</g>
<!-- Node1&#45;&gt;Node1 -->
<g id="edge3" class="edge">
<title>Node1&#45;&gt;Node1</title>
<path fill="none" stroke="midnightblue" d="M270.71,-40.96C266.96,-45.68 256.89,-49 240.5,-49 213.61,-49 203.73,-40.06 210.87,-30.66"/>
<polygon fill="midnightblue" stroke="midnightblue" points="274.18,-40.45 270.13,-30.66 267.19,-40.84 274.18,-40.45"/>
</g>
<!-- Node2 -->
<g id="node2" class="node">
<title>Node2</title>
<g id="a_node2"><a xlink:href="namespacesimulationDataLoad.html#ae3187c41888f046bcc6417834e68e241" target="_top" xlink:title=" ">
<polygon fill="none" stroke="black" points="0,-6 0,-25 138,-25 138,-6 0,-6"/>
<text text-anchor="middle" x="69" y="-13" font-family="Helvetica,sans-Serif" font-size="10.00">simulationDataLoad.gsd_df</text>
</a>
</g>
</g>
<!-- Node1&#45;&gt;Node2 -->
<g id="edge1" class="edge">
<title>Node1&#45;&gt;Node2</title>
<path fill="none" stroke="midnightblue" d="M163.96,-15.5C155.37,-15.5 146.65,-15.5 138.16,-15.5"/>
<polygon fill="midnightblue" stroke="midnightblue" points="163.97,-19 173.97,-15.5 163.97,-12 163.97,-19"/>
</g>
<!-- Node2&#45;&gt;Node2 -->
<g id="edge2" class="edge">
<title>Node2&#45;&gt;Node2</title>
<path fill="none" stroke="midnightblue" d="M100.81,-33.77C99.9,-39.24 89.3,-43.5 69,-43.5 38.79,-43.5 30.05,-34.07 42.8,-25.26"/>
<polygon fill="midnightblue" stroke="midnightblue" points="103.63,-31.68 95.2,-25.26 97.78,-35.53 103.63,-31.68"/>
</g>
</g>
</svg>
