<?xml version="1.0" encoding="UTF-8" standalone="no"?>
<!DOCTYPE svg PUBLIC "-//W3C//DTD SVG 1.1//EN"
 "http://www.w3.org/Graphics/SVG/1.1/DTD/svg11.dtd">
<!-- Generated by graphviz version 2.43.0 (0)
 -->
<!-- Title: collinear&#45;swimmer&#45;internal&#45;dynamics&#45;aggregate&#45;analysis.f_D Pages: 1 -->
<svg width="624pt" height="50pt"
 viewBox="0.00 0.00 624.00 50.00" xmlns="http://www.w3.org/2000/svg" xmlns:xlink="http://www.w3.org/1999/xlink">
<g id="graph0" class="graph" transform="scale(1 1) rotate(0) translate(4 46)">
<title>collinear&#45;swimmer&#45;internal&#45;dynamics&#45;aggregate&#45;analysis.f_D</title>
<!-- Node1 -->
<g id="node1" class="node">
<title>Node1</title>
<g id="a_node1"><a xlink:title="Function for D: derivative of mass matrix elements, dimensionless.">
<polygon fill="#bfbfbf" stroke="black" points="451,-6 451,-36 616,-36 616,-6 451,-6"/>
<text text-anchor="start" x="459" y="-24" font-family="Helvetica,sans-Serif" font-size="10.00">collinear&#45;swimmer&#45;internal</text>
<text text-anchor="middle" x="533.5" y="-13" font-family="Helvetica,sans-Serif" font-size="10.00">&#45;dynamics&#45;aggregate&#45;analysis.f_D</text>
</a>
</g>
</g>
<!-- Node2 -->
<g id="node2" class="node">
<title>Node2</title>
<g id="a_node2"><a xlink:href="namespacecollinear-swimmer-internal-dynamics-aggregate-analysis.html#af4ade5651cec2fbb6bd88ef609bf27f9" target="_top" xlink:title="Calculates leading order net translation of locater point for collinear swimmer after one period of a...">
<polygon fill="none" stroke="black" points="254,-0.5 254,-41.5 415,-41.5 415,-0.5 254,-0.5"/>
<text text-anchor="start" x="262" y="-29.5" font-family="Helvetica,sans-Serif" font-size="10.00">collinear&#45;swimmer&#45;internal</text>
<text text-anchor="start" x="262" y="-18.5" font-family="Helvetica,sans-Serif" font-size="10.00">&#45;dynamics&#45;aggregate&#45;analysis.dZ</text>
<text text-anchor="middle" x="334.5" y="-7.5" font-family="Helvetica,sans-Serif" font-size="10.00">_leadingOrder</text>
</a>
</g>
</g>
<!-- Node1&#45;&gt;Node2 -->
<g id="edge1" class="edge">
<title>Node1&#45;&gt;Node2</title>
<path fill="none" stroke="midnightblue" d="M440.88,-21C432.27,-21 423.58,-21 415.09,-21"/>
<polygon fill="midnightblue" stroke="midnightblue" points="440.95,-24.5 450.95,-21 440.95,-17.5 440.95,-24.5"/>
</g>
<!-- Node3 -->
<g id="node3" class="node">
<title>Node3</title>
<g id="a_node3"><a xlink:href="namespacecollinear-swimmer-internal-dynamics-aggregate-analysis.html#a95d6a2c618aa100dd70824ac5edce4bf" target="_top" xlink:title="Analyze a single GSD file.">
<polygon fill="none" stroke="black" points="0,-6 0,-36 218,-36 218,-6 0,-6"/>
<text text-anchor="start" x="8" y="-24" font-family="Helvetica,sans-Serif" font-size="10.00">collinear&#45;swimmer&#45;internal</text>
<text text-anchor="middle" x="109" y="-13" font-family="Helvetica,sans-Serif" font-size="10.00">&#45;dynamics&#45;aggregate&#45;analysis.aggregate_plots</text>
</a>
</g>
</g>
<!-- Node2&#45;&gt;Node3 -->
<g id="edge2" class="edge">
<title>Node2&#45;&gt;Node3</title>
<path fill="none" stroke="midnightblue" d="M243.65,-21C235.27,-21 226.73,-21 218.22,-21"/>
<polygon fill="midnightblue" stroke="midnightblue" points="243.76,-24.5 253.76,-21 243.76,-17.5 243.76,-24.5"/>
</g>
</g>
</svg>
