<?xml version="1.0" encoding="UTF-8" standalone="no"?>
<!DOCTYPE svg PUBLIC "-//W3C//DTD SVG 1.1//EN"
 "http://www.w3.org/Graphics/SVG/1.1/DTD/svg11.dtd">
<!-- Generated by graphviz version 2.49.1 (20210923.0004)
 -->
<!-- Title: simulationDataLoad.load_compressed_data Pages: 1 -->
<svg width="309pt" height="57pt"
 viewBox="0.00 0.00 309.00 57.00" xmlns="http://www.w3.org/2000/svg" xmlns:xlink="http://www.w3.org/1999/xlink">
<g id="graph0" class="graph" transform="scale(1 1) rotate(0) translate(4 53)">
<title>simulationDataLoad.load_compressed_data</title>
<!-- Node1 -->
<g id="node1" class="node">
<title>Node1</title>
<g id="a_node1"><a xlink:title=" ">
<polygon fill="#bfbfbf" stroke="black" points="174,-0.5 174,-30.5 301,-30.5 301,-0.5 174,-0.5"/>
<text text-anchor="start" x="182" y="-18.5" font-family="Helvetica,sans-Serif" font-size="10.00">simulationDataLoad.load</text>
<text text-anchor="middle" x="237.5" y="-7.5" font-family="Helvetica,sans-Serif" font-size="10.00">_compressed_data</text>
</a>
</g>
</g>
<!-- Node1&#45;&gt;Node1 -->
<g id="edge3" class="edge">
<title>Node1&#45;&gt;Node1</title>
<path fill="none" stroke="midnightblue" d="M267.35,-40.96C263.65,-45.68 253.7,-49 237.5,-49 210.92,-49 201.16,-40.06 208.22,-30.66"/>
<polygon fill="midnightblue" stroke="midnightblue" points="270.83,-40.45 266.78,-30.66 263.84,-40.84 270.83,-40.45"/>
</g>
<!-- Node2 -->
<g id="node2" class="node">
<title>Node2</title>
<g id="a_node2"><a xlink:href="namespacesimulationDataLoad.html#ae3187c41888f046bcc6417834e68e241" target="_top" xlink:title=" ">
<polygon fill="none" stroke="black" points="0,-6 0,-25 138,-25 138,-6 0,-6"/>
<text text-anchor="middle" x="69" y="-13" font-family="Helvetica,sans-Serif" font-size="10.00">simulationDataLoad.gsd_df</text>
</a>
</g>
</g>
<!-- Node1&#45;&gt;Node2 -->
<g id="edge1" class="edge">
<title>Node1&#45;&gt;Node2</title>
<path fill="none" stroke="midnightblue" d="M163.37,-15.5C154.95,-15.5 146.39,-15.5 138.04,-15.5"/>
<polygon fill="midnightblue" stroke="midnightblue" points="163.55,-19 173.55,-15.5 163.55,-12 163.55,-19"/>
</g>
<!-- Node2&#45;&gt;Node2 -->
<g id="edge2" class="edge">
<title>Node2&#45;&gt;Node2</title>
<path fill="none" stroke="midnightblue" d="M100.44,-33.77C99.54,-39.24 89.06,-43.5 69,-43.5 39.14,-43.5 30.51,-34.07 43.11,-25.26"/>
<polygon fill="midnightblue" stroke="midnightblue" points="103.28,-31.73 94.89,-25.26 97.42,-35.55 103.28,-31.73"/>
</g>
</g>
</svg>
