<?xml version="1.0" encoding="UTF-8" standalone="no"?>
<!DOCTYPE svg PUBLIC "-//W3C//DTD SVG 1.1//EN"
 "http://www.w3.org/Graphics/SVG/1.1/DTD/svg11.dtd">
<!-- Generated by graphviz version 2.43.0 (0)
 -->
<!-- Title: collinear&#45;swimmer&#45;internal&#45;dynamics&#45;aggregate&#45;analysis.aggregate_plots Pages: 1 -->
<svg width="636pt" height="138pt"
 viewBox="0.00 0.00 636.00 137.50" xmlns="http://www.w3.org/2000/svg" xmlns:xlink="http://www.w3.org/1999/xlink">
<g id="graph0" class="graph" transform="scale(1 1) rotate(0) translate(4 133.5)">
<title>collinear&#45;swimmer&#45;internal&#45;dynamics&#45;aggregate&#45;analysis.aggregate_plots</title>
<!-- Node1 -->
<g id="node1" class="node">
<title>Node1</title>
<g id="a_node1"><a xlink:title="Analyze a single GSD file.">
<polygon fill="#bfbfbf" stroke="black" points="0,-55.5 0,-85.5 218,-85.5 218,-55.5 0,-55.5"/>
<text text-anchor="start" x="8" y="-73.5" font-family="Helvetica,sans-Serif" font-size="10.00">collinear&#45;swimmer&#45;internal</text>
<text text-anchor="middle" x="109" y="-62.5" font-family="Helvetica,sans-Serif" font-size="10.00">&#45;dynamics&#45;aggregate&#45;analysis.aggregate_plots</text>
</a>
</g>
</g>
<!-- Node2 -->
<g id="node2" class="node">
<title>Node2</title>
<g id="a_node2"><a xlink:href="helper__math_8h.html#ae4378072f9d836b0d4770a1514db2be3" target="_top" xlink:title=" ">
<polygon fill="none" stroke="black" points="324.5,-110 324.5,-129 356.5,-129 356.5,-110 324.5,-110"/>
<text text-anchor="middle" x="340.5" y="-117" font-family="Helvetica,sans-Serif" font-size="10.00">abs</text>
</a>
</g>
</g>
<!-- Node1&#45;&gt;Node2 -->
<g id="edge1" class="edge">
<title>Node1&#45;&gt;Node2</title>
<path fill="none" stroke="midnightblue" d="M180.42,-85.53C225.88,-95.24 282.3,-107.29 314.28,-114.11"/>
<polygon fill="midnightblue" stroke="midnightblue" points="313.62,-117.55 324.13,-116.22 315.08,-110.71 313.62,-117.55"/>
</g>
<!-- Node4 -->
<g id="node4" class="node">
<title>Node4</title>
<g id="a_node4"><a xlink:href="namespacecollinear-swimmer-internal-dynamics-aggregate-analysis.html#af4ade5651cec2fbb6bd88ef609bf27f9" target="_top" xlink:title="Calculates leading order net translation of locater point for collinear swimmer after one period of a...">
<polygon fill="none" stroke="black" points="260,-50 260,-91 421,-91 421,-50 260,-50"/>
<text text-anchor="start" x="268" y="-79" font-family="Helvetica,sans-Serif" font-size="10.00">collinear&#45;swimmer&#45;internal</text>
<text text-anchor="start" x="268" y="-68" font-family="Helvetica,sans-Serif" font-size="10.00">&#45;dynamics&#45;aggregate&#45;analysis.dZ</text>
<text text-anchor="middle" x="340.5" y="-57" font-family="Helvetica,sans-Serif" font-size="10.00">_leadingOrder</text>
</a>
</g>
</g>
<!-- Node1&#45;&gt;Node4 -->
<g id="edge3" class="edge">
<title>Node1&#45;&gt;Node4</title>
<path fill="none" stroke="midnightblue" d="M218.03,-70.5C228.58,-70.5 239.21,-70.5 249.55,-70.5"/>
<polygon fill="midnightblue" stroke="midnightblue" points="249.79,-74 259.79,-70.5 249.79,-67 249.79,-74"/>
</g>
<!-- Node6 -->
<g id="node6" class="node">
<title>Node6</title>
<g id="a_node6"><a xlink:href="namespacecollinear-swimmer-internal-dynamics-aggregate-analysis.html#a1a0f54f2c554472b6bc4211a0385ba2b" target="_top" xlink:title="Calculates the relative error of approximate relative to exact solutions.">
<polygon fill="none" stroke="black" points="254,-0.5 254,-30.5 427,-30.5 427,-0.5 254,-0.5"/>
<text text-anchor="start" x="262" y="-18.5" font-family="Helvetica,sans-Serif" font-size="10.00">collinear&#45;swimmer&#45;internal</text>
<text text-anchor="middle" x="340.5" y="-7.5" font-family="Helvetica,sans-Serif" font-size="10.00">&#45;dynamics&#45;aggregate&#45;analysis.relErr</text>
</a>
</g>
</g>
<!-- Node1&#45;&gt;Node6 -->
<g id="edge5" class="edge">
<title>Node1&#45;&gt;Node6</title>
<path fill="none" stroke="midnightblue" d="M172.71,-55.47C201.81,-48.5 236.56,-40.17 266.8,-32.92"/>
<polygon fill="midnightblue" stroke="midnightblue" points="267.96,-36.25 276.86,-30.51 266.32,-29.44 267.96,-36.25"/>
</g>
<!-- Node3 -->
<g id="node3" class="node">
<title>Node3</title>
<g id="a_node3"><a xlink:href="helper__math_8h.html#a3be05aff487ded3c05aab21d24dd6439" target="_top" xlink:title=" ">
<polygon fill="none" stroke="black" points="514.5,-110 514.5,-129 576.5,-129 576.5,-110 514.5,-110"/>
<text text-anchor="middle" x="545.5" y="-117" font-family="Helvetica,sans-Serif" font-size="10.00">make_int2</text>
</a>
</g>
</g>
<!-- Node2&#45;&gt;Node3 -->
<g id="edge2" class="edge">
<title>Node2&#45;&gt;Node3</title>
<path fill="none" stroke="midnightblue" d="M356.76,-119.5C387.72,-119.5 458.84,-119.5 504.12,-119.5"/>
<polygon fill="midnightblue" stroke="midnightblue" points="504.19,-123 514.19,-119.5 504.19,-116 504.19,-123"/>
</g>
<!-- Node5 -->
<g id="node5" class="node">
<title>Node5</title>
<g id="a_node5"><a xlink:href="namespacecollinear-swimmer-internal-dynamics-aggregate-analysis.html#a74593dbfb52d767546f9499a3942b28c" target="_top" xlink:title="Function for D: derivative of mass matrix elements, dimensionless.">
<polygon fill="none" stroke="black" points="463,-55.5 463,-85.5 628,-85.5 628,-55.5 463,-55.5"/>
<text text-anchor="start" x="471" y="-73.5" font-family="Helvetica,sans-Serif" font-size="10.00">collinear&#45;swimmer&#45;internal</text>
<text text-anchor="middle" x="545.5" y="-62.5" font-family="Helvetica,sans-Serif" font-size="10.00">&#45;dynamics&#45;aggregate&#45;analysis.f_D</text>
</a>
</g>
</g>
<!-- Node4&#45;&gt;Node5 -->
<g id="edge4" class="edge">
<title>Node4&#45;&gt;Node5</title>
<path fill="none" stroke="midnightblue" d="M421.15,-70.5C431.5,-70.5 442.17,-70.5 452.71,-70.5"/>
<polygon fill="midnightblue" stroke="midnightblue" points="452.74,-74 462.74,-70.5 452.74,-67 452.74,-74"/>
</g>
</g>
</svg>
