<?xml version="1.0" encoding="UTF-8" standalone="no"?>
<!DOCTYPE svg PUBLIC "-//W3C//DTD SVG 1.1//EN"
 "http://www.w3.org/Graphics/SVG/1.1/DTD/svg11.dtd">
<!-- Generated by graphviz version 2.49.1 (20210923.0004)
 -->
<!-- Title: collinear&#45;swimmer&#45;wall&#45;aggregate&#45;analysis.f_D Pages: 1 -->
<svg width="286pt" height="68pt"
 viewBox="0.00 0.00 286.00 68.00" xmlns="http://www.w3.org/2000/svg" xmlns:xlink="http://www.w3.org/1999/xlink">
<g id="graph0" class="graph" transform="scale(1 1) rotate(0) translate(4 64)">
<title>collinear&#45;swimmer&#45;wall&#45;aggregate&#45;analysis.f_D</title>
<!-- Node1 -->
<g id="node1" class="node">
<title>Node1</title>
<g id="a_node1"><a xlink:title=" ">
<polygon fill="#bfbfbf" stroke="black" points="155,-6 155,-36 278,-36 278,-6 155,-6"/>
<text text-anchor="start" x="163" y="-24" font-family="Helvetica,sans-Serif" font-size="10.00">collinear&#45;swimmer&#45;wall</text>
<text text-anchor="middle" x="216.5" y="-13" font-family="Helvetica,sans-Serif" font-size="10.00">&#45;aggregate&#45;analysis.f_D</text>
</a>
</g>
</g>
<!-- Node1&#45;&gt;Node1 -->
<g id="edge3" class="edge">
<title>Node1&#45;&gt;Node1</title>
<path fill="none" stroke="midnightblue" d="M244.22,-46.46C240.78,-51.18 231.54,-54.5 216.5,-54.5 191.82,-54.5 182.76,-45.56 189.31,-36.16"/>
<polygon fill="midnightblue" stroke="midnightblue" points="247.7,-45.96 243.69,-36.16 240.71,-46.33 247.7,-45.96"/>
</g>
<!-- Node2 -->
<g id="node2" class="node">
<title>Node2</title>
<g id="a_node2"><a xlink:href="namespacecollinear-swimmer-wall-aggregate-analysis.html#aa2f3893e276bd5a05fd405250dd7475b" target="_top" xlink:title=" ">
<polygon fill="none" stroke="black" points="0,-0.5 0,-41.5 119,-41.5 119,-0.5 0,-0.5"/>
<text text-anchor="start" x="8" y="-29.5" font-family="Helvetica,sans-Serif" font-size="10.00">collinear&#45;swimmer&#45;wall</text>
<text text-anchor="start" x="8" y="-18.5" font-family="Helvetica,sans-Serif" font-size="10.00">&#45;aggregate&#45;analysis.dZ</text>
<text text-anchor="middle" x="59.5" y="-7.5" font-family="Helvetica,sans-Serif" font-size="10.00">_leadingOrder</text>
</a>
</g>
</g>
<!-- Node1&#45;&gt;Node2 -->
<g id="edge1" class="edge">
<title>Node1&#45;&gt;Node2</title>
<path fill="none" stroke="midnightblue" d="M144.43,-21C135.96,-21 127.38,-21 119.11,-21"/>
<polygon fill="midnightblue" stroke="midnightblue" points="144.68,-24.5 154.68,-21 144.68,-17.5 144.68,-24.5"/>
</g>
<!-- Node2&#45;&gt;Node2 -->
<g id="edge2" class="edge">
<title>Node2&#45;&gt;Node2</title>
<path fill="none" stroke="midnightblue" d="M86.34,-51.86C82.35,-56.7 73.4,-60 59.5,-60 37.26,-60 27.7,-51.54 30.83,-41.86"/>
<polygon fill="midnightblue" stroke="midnightblue" points="89.81,-52.33 88.17,-41.86 82.92,-51.07 89.81,-52.33"/>
</g>
</g>
</svg>
