<?xml version="1.0" encoding="UTF-8" standalone="no"?>
<!DOCTYPE svg PUBLIC "-//W3C//DTD SVG 1.1//EN"
 "http://www.w3.org/Graphics/SVG/1.1/DTD/svg11.dtd">
<!-- Generated by graphviz version 2.43.0 (0)
 -->
<!-- Title: src/forces/potentialHydrodynamics.cpp Pages: 1 -->
<svg width="773pt" height="330pt"
 viewBox="0.00 0.00 772.65 330.00" xmlns="http://www.w3.org/2000/svg" xmlns:xlink="http://www.w3.org/1999/xlink">
<g id="graph0" class="graph" transform="scale(1 1) rotate(0) translate(4 326)">
<title>src/forces/potentialHydrodynamics.cpp</title>
<!-- Node1 -->
<g id="node1" class="node">
<title>Node1</title>
<g id="a_node1"><a xlink:title=" ">
<polygon fill="#bfbfbf" stroke="black" points="509,-302.5 509,-321.5 696,-321.5 696,-302.5 509,-302.5"/>
<text text-anchor="middle" x="602.5" y="-309.5" font-family="Helvetica,sans-Serif" font-size="10.00">src/forces/potentialHydrodynamics.cpp</text>
</a>
</g>
</g>
<!-- Node2 -->
<g id="node2" class="node">
<title>Node2</title>
<g id="a_node2"><a xlink:href="potentialHydrodynamics_8hpp.html" target="_top" xlink:title=" ">
<polygon fill="none" stroke="black" points="532.5,-246.5 532.5,-265.5 672.5,-265.5 672.5,-246.5 532.5,-246.5"/>
<text text-anchor="middle" x="602.5" y="-253.5" font-family="Helvetica,sans-Serif" font-size="10.00">potentialHydrodynamics.hpp</text>
</a>
</g>
</g>
<!-- Node1&#45;&gt;Node2 -->
<g id="edge1" class="edge">
<title>Node1&#45;&gt;Node2</title>
<path fill="none" stroke="midnightblue" d="M602.5,-302.08C602.5,-295.01 602.5,-284.86 602.5,-275.99"/>
<polygon fill="midnightblue" stroke="midnightblue" points="606,-275.75 602.5,-265.75 599,-275.75 606,-275.75"/>
</g>
<!-- Node3 -->
<g id="node3" class="node">
<title>Node3</title>
<g id="a_node3"><a xlink:href="systemData_8hpp.html" target="_top" xlink:title=" ">
<polygon fill="none" stroke="black" points="230,-190.5 230,-209.5 319,-209.5 319,-190.5 230,-190.5"/>
<text text-anchor="middle" x="274.5" y="-197.5" font-family="Helvetica,sans-Serif" font-size="10.00">systemData.hpp</text>
</a>
</g>
</g>
<!-- Node2&#45;&gt;Node3 -->
<g id="edge2" class="edge">
<title>Node2&#45;&gt;Node3</title>
<path fill="none" stroke="midnightblue" d="M550.53,-246.44C490.04,-236.49 390.6,-220.11 329.04,-209.98"/>
<polygon fill="midnightblue" stroke="midnightblue" points="329.56,-206.52 319.12,-208.35 328.42,-213.42 329.56,-206.52"/>
</g>
<!-- Node9 -->
<g id="node9" class="node">
<title>Node9</title>
<g id="a_node9"><a xlink:title=" ">
<polygon fill="none" stroke="#bfbfbf" points="265.5,-56.5 265.5,-86.5 363.5,-86.5 363.5,-56.5 265.5,-56.5"/>
<text text-anchor="start" x="273.5" y="-74.5" font-family="Helvetica,sans-Serif" font-size="10.00">spdlog/sinks/basic</text>
<text text-anchor="middle" x="314.5" y="-63.5" font-family="Helvetica,sans-Serif" font-size="10.00">_file_sink.h</text>
</a>
</g>
</g>
<!-- Node2&#45;&gt;Node9 -->
<g id="edge26" class="edge">
<title>Node2&#45;&gt;Node9</title>
<path fill="none" stroke="midnightblue" d="M619.44,-246.49C659.61,-225.27 754.36,-168.4 713.5,-123 664.47,-68.52 463.67,-97.82 373.89,-86.82"/>
<polygon fill="midnightblue" stroke="midnightblue" points="374.17,-83.32 363.76,-85.31 373.14,-90.24 374.17,-83.32"/>
</g>
<!-- Node10 -->
<g id="node10" class="node">
<title>Node10</title>
<g id="a_node10"><a xlink:title=" ">
<polygon fill="none" stroke="#bfbfbf" points="382,-62 382,-81 467,-81 467,-62 382,-62"/>
<text text-anchor="middle" x="424.5" y="-69" font-family="Helvetica,sans-Serif" font-size="10.00">spdlog/spdlog.h</text>
</a>
</g>
</g>
<!-- Node2&#45;&gt;Node10 -->
<g id="edge27" class="edge">
<title>Node2&#45;&gt;Node10</title>
<path fill="none" stroke="midnightblue" d="M672.56,-250.51C700.18,-244.89 729.36,-233.32 746.5,-210 769.4,-178.85 771.63,-152.38 746.5,-123 712.51,-83.26 559.73,-74.58 477.42,-72.82"/>
<polygon fill="midnightblue" stroke="midnightblue" points="477.33,-69.32 467.26,-72.64 477.2,-76.32 477.33,-69.32"/>
</g>
<!-- Node14 -->
<g id="node14" class="node">
<title>Node14</title>
<g id="a_node14"><a xlink:title=" ">
<polygon fill="none" stroke="#bfbfbf" points="360,-129 360,-148 457,-148 457,-129 360,-129"/>
<text text-anchor="middle" x="408.5" y="-136" font-family="Helvetica,sans-Serif" font-size="10.00">eigen3/Eigen/Core</text>
</a>
</g>
</g>
<!-- Node2&#45;&gt;Node14 -->
<g id="edge23" class="edge">
<title>Node2&#45;&gt;Node14</title>
<path fill="none" stroke="midnightblue" d="M587.92,-246.32C554.48,-226.41 472.06,-177.34 431.63,-153.27"/>
<polygon fill="midnightblue" stroke="midnightblue" points="433.37,-150.23 422.99,-148.12 429.79,-156.25 433.37,-150.23"/>
</g>
<!-- Node15 -->
<g id="node15" class="node">
<title>Node15</title>
<g id="a_node15"><a xlink:title=" ">
<polygon fill="none" stroke="#bfbfbf" points="475,-129 475,-148 576,-148 576,-129 475,-129"/>
<text text-anchor="middle" x="525.5" y="-136" font-family="Helvetica,sans-Serif" font-size="10.00">eigen3/Eigen/Eigen</text>
</a>
</g>
</g>
<!-- Node2&#45;&gt;Node15 -->
<g id="edge24" class="edge">
<title>Node2&#45;&gt;Node15</title>
<path fill="none" stroke="midnightblue" d="M596.71,-246.32C584.06,-227.34 553.73,-181.85 537.03,-156.79"/>
<polygon fill="midnightblue" stroke="midnightblue" points="539.81,-154.66 531.35,-148.28 533.99,-158.54 539.81,-154.66"/>
</g>
<!-- Node16 -->
<g id="node16" class="node">
<title>Node16</title>
<g id="a_node16"><a xlink:title=" ">
<polygon fill="none" stroke="#bfbfbf" points="594.5,-123.5 594.5,-153.5 704.5,-153.5 704.5,-123.5 594.5,-123.5"/>
<text text-anchor="start" x="602.5" y="-141.5" font-family="Helvetica,sans-Serif" font-size="10.00">eigen3/unsupported</text>
<text text-anchor="middle" x="649.5" y="-130.5" font-family="Helvetica,sans-Serif" font-size="10.00">/Eigen/CXX11/Tensor</text>
</a>
</g>
</g>
<!-- Node2&#45;&gt;Node16 -->
<g id="edge25" class="edge">
<title>Node2&#45;&gt;Node16</title>
<path fill="none" stroke="midnightblue" d="M606.03,-246.32C613.16,-228.81 629.46,-188.75 639.95,-162.97"/>
<polygon fill="midnightblue" stroke="midnightblue" points="643.26,-164.13 643.78,-153.55 636.77,-161.49 643.26,-164.13"/>
</g>
<!-- Node4 -->
<g id="node4" class="node">
<title>Node4</title>
<g id="a_node4"><a xlink:href="GSDUtil_8hpp.html" target="_top" xlink:title=" ">
<polygon fill="none" stroke="black" points="155.5,-129 155.5,-148 227.5,-148 227.5,-129 155.5,-129"/>
<text text-anchor="middle" x="191.5" y="-136" font-family="Helvetica,sans-Serif" font-size="10.00">GSDUtil.hpp</text>
</a>
</g>
</g>
<!-- Node3&#45;&gt;Node4 -->
<g id="edge3" class="edge">
<title>Node3&#45;&gt;Node4</title>
<path fill="none" stroke="midnightblue" d="M257.71,-190.48C242.6,-181.11 221.01,-165.88 206.48,-154.51"/>
<polygon fill="midnightblue" stroke="midnightblue" points="208.44,-151.59 198.47,-148.01 204.03,-157.03 208.44,-151.59"/>
</g>
<!-- Node5 -->
<g id="node5" class="node">
<title>Node5</title>
<g id="a_node5"><a xlink:href="gsd_8h.html" target="_top" xlink:title="Declare GSD data types and C API.">
<polygon fill="none" stroke="black" points="136,-62 136,-81 177,-81 177,-62 136,-62"/>
<text text-anchor="middle" x="156.5" y="-69" font-family="Helvetica,sans-Serif" font-size="10.00">gsd.h</text>
</a>
</g>
</g>
<!-- Node3&#45;&gt;Node5 -->
<g id="edge14" class="edge">
<title>Node3&#45;&gt;Node5</title>
<path fill="none" stroke="midnightblue" d="M229.96,-196.04C201.02,-191.53 165.29,-180.52 146.5,-154 133.27,-135.33 140.56,-108.04 147.84,-90.27"/>
<polygon fill="midnightblue" stroke="midnightblue" points="151.08,-91.6 151.97,-81.05 144.69,-88.74 151.08,-91.6"/>
</g>
<!-- Node3&#45;&gt;Node9 -->
<g id="edge15" class="edge">
<title>Node3&#45;&gt;Node9</title>
<path fill="none" stroke="midnightblue" d="M277.25,-190.31C283.29,-171.21 297.88,-125.07 306.9,-96.52"/>
<polygon fill="midnightblue" stroke="midnightblue" points="310.27,-97.48 309.95,-86.89 303.6,-95.37 310.27,-97.48"/>
</g>
<!-- Node3&#45;&gt;Node10 -->
<g id="edge16" class="edge">
<title>Node3&#45;&gt;Node10</title>
<path fill="none" stroke="midnightblue" d="M282.45,-190.03C295.77,-175.23 323.78,-145.15 350.5,-123 366.76,-109.52 386.6,-96.13 401.64,-86.53"/>
<polygon fill="midnightblue" stroke="midnightblue" points="403.71,-89.36 410.31,-81.07 399.98,-83.44 403.71,-89.36"/>
</g>
<!-- Node11 -->
<g id="node11" class="node">
<title>Node11</title>
<g id="a_node11"><a xlink:title=" ">
<polygon fill="none" stroke="#bfbfbf" points="195.5,-62 195.5,-81 247.5,-81 247.5,-62 195.5,-62"/>
<text text-anchor="middle" x="221.5" y="-69" font-family="Helvetica,sans-Serif" font-size="10.00">memory</text>
</a>
</g>
</g>
<!-- Node3&#45;&gt;Node11 -->
<g id="edge20" class="edge">
<title>Node3&#45;&gt;Node11</title>
<path fill="none" stroke="midnightblue" d="M270.86,-190.31C262.27,-169.81 240.62,-118.15 229.06,-90.54"/>
<polygon fill="midnightblue" stroke="midnightblue" points="232.26,-89.13 225.17,-81.26 225.8,-91.83 232.26,-89.13"/>
</g>
<!-- Node12 -->
<g id="node12" class="node">
<title>Node12</title>
<g id="a_node12"><a xlink:title=" ">
<polygon fill="none" stroke="#bfbfbf" points="0,-62 0,-81 59,-81 59,-62 0,-62"/>
<text text-anchor="middle" x="29.5" y="-69" font-family="Helvetica,sans-Serif" font-size="10.00">stdexcept</text>
</a>
</g>
</g>
<!-- Node3&#45;&gt;Node12 -->
<g id="edge21" class="edge">
<title>Node3&#45;&gt;Node12</title>
<path fill="none" stroke="midnightblue" d="M229.95,-193.19C195.51,-187.22 147.61,-175.65 110.5,-154 81.77,-137.24 56.11,-107.74 41.7,-89.21"/>
<polygon fill="midnightblue" stroke="midnightblue" points="44.39,-86.96 35.57,-81.09 38.81,-91.18 44.39,-86.96"/>
</g>
<!-- Node13 -->
<g id="node13" class="node">
<title>Node13</title>
<g id="a_node13"><a xlink:title=" ">
<polygon fill="none" stroke="#bfbfbf" points="77,-62 77,-81 118,-81 118,-62 77,-62"/>
<text text-anchor="middle" x="97.5" y="-69" font-family="Helvetica,sans-Serif" font-size="10.00">string</text>
</a>
</g>
</g>
<!-- Node3&#45;&gt;Node13 -->
<g id="edge22" class="edge">
<title>Node3&#45;&gt;Node13</title>
<path fill="none" stroke="midnightblue" d="M229.85,-193.91C200.07,-188.45 161.73,-177.18 135.5,-154 116.72,-137.4 106.55,-109.56 101.57,-91.11"/>
<polygon fill="midnightblue" stroke="midnightblue" points="104.94,-90.14 99.17,-81.25 98.14,-91.8 104.94,-90.14"/>
</g>
<!-- Node3&#45;&gt;Node14 -->
<g id="edge17" class="edge">
<title>Node3&#45;&gt;Node14</title>
<path fill="none" stroke="midnightblue" d="M293.7,-190.48C316.29,-180.45 354,-163.7 380,-152.15"/>
<polygon fill="midnightblue" stroke="midnightblue" points="381.62,-155.27 389.34,-148.01 378.78,-148.87 381.62,-155.27"/>
</g>
<!-- Node3&#45;&gt;Node15 -->
<g id="edge18" class="edge">
<title>Node3&#45;&gt;Node15</title>
<path fill="none" stroke="midnightblue" d="M311.13,-190.44C349.59,-181.43 411.82,-166.81 465.5,-154 470.27,-152.86 475.24,-151.67 480.2,-150.48"/>
<polygon fill="midnightblue" stroke="midnightblue" points="481.39,-153.79 490.29,-148.04 479.75,-146.99 481.39,-153.79"/>
</g>
<!-- Node3&#45;&gt;Node16 -->
<g id="edge19" class="edge">
<title>Node3&#45;&gt;Node16</title>
<path fill="none" stroke="midnightblue" d="M319.23,-193.66C377.86,-186.4 484.1,-172.41 584.4,-154.12"/>
<polygon fill="midnightblue" stroke="midnightblue" points="585.2,-157.53 594.4,-152.27 583.93,-150.64 585.2,-157.53"/>
</g>
<!-- Node4&#45;&gt;Node3 -->
<g id="edge8" class="edge">
<title>Node4&#45;&gt;Node3</title>
<path fill="none" stroke="midnightblue" d="M208.27,-148.01C223.37,-157.37 244.96,-172.59 259.49,-183.97"/>
<polygon fill="midnightblue" stroke="midnightblue" points="257.54,-186.89 267.51,-190.48 261.95,-181.46 257.54,-186.89"/>
</g>
<!-- Node4&#45;&gt;Node5 -->
<g id="edge4" class="edge">
<title>Node4&#45;&gt;Node5</title>
<path fill="none" stroke="midnightblue" d="M186.78,-128.73C181.48,-118.89 172.74,-102.66 166.01,-90.16"/>
<polygon fill="midnightblue" stroke="midnightblue" points="168.97,-88.27 161.15,-81.13 162.8,-91.59 168.97,-88.27"/>
</g>
<!-- Node4&#45;&gt;Node9 -->
<g id="edge9" class="edge">
<title>Node4&#45;&gt;Node9</title>
<path fill="none" stroke="midnightblue" d="M207.83,-128.87C225.83,-119.36 255.34,-103.77 278.76,-91.39"/>
<polygon fill="midnightblue" stroke="midnightblue" points="280.51,-94.42 287.72,-86.65 277.24,-88.23 280.51,-94.42"/>
</g>
<!-- Node4&#45;&gt;Node10 -->
<g id="edge10" class="edge">
<title>Node4&#45;&gt;Node10</title>
<path fill="none" stroke="midnightblue" d="M222.44,-128.87C264.07,-117.25 338.2,-96.58 384.16,-83.75"/>
<polygon fill="midnightblue" stroke="midnightblue" points="385.11,-87.12 393.8,-81.06 383.23,-80.38 385.11,-87.12"/>
</g>
<!-- Node4&#45;&gt;Node11 -->
<g id="edge11" class="edge">
<title>Node4&#45;&gt;Node11</title>
<path fill="none" stroke="midnightblue" d="M195.55,-128.73C200.04,-118.99 207.43,-102.98 213.18,-90.53"/>
<polygon fill="midnightblue" stroke="midnightblue" points="216.51,-91.67 217.52,-81.13 210.15,-88.74 216.51,-91.67"/>
</g>
<!-- Node4&#45;&gt;Node12 -->
<g id="edge12" class="edge">
<title>Node4&#45;&gt;Node12</title>
<path fill="none" stroke="midnightblue" d="M169.99,-128.87C141.83,-117.57 92.3,-97.7 60.2,-84.82"/>
<polygon fill="midnightblue" stroke="midnightblue" points="61.43,-81.54 50.84,-81.06 58.82,-88.04 61.43,-81.54"/>
</g>
<!-- Node4&#45;&gt;Node13 -->
<g id="edge13" class="edge">
<title>Node4&#45;&gt;Node13</title>
<path fill="none" stroke="midnightblue" d="M178.82,-128.73C163.32,-118.01 136.86,-99.72 118.34,-86.91"/>
<polygon fill="midnightblue" stroke="midnightblue" points="120.19,-83.94 109.98,-81.13 116.21,-89.69 120.19,-83.94"/>
</g>
<!-- Node6 -->
<g id="node6" class="node">
<title>Node6</title>
<g id="a_node6"><a xlink:title=" ">
<polygon fill="none" stroke="#bfbfbf" points="57.5,-0.5 57.5,-19.5 113.5,-19.5 113.5,-0.5 57.5,-0.5"/>
<text text-anchor="middle" x="85.5" y="-7.5" font-family="Helvetica,sans-Serif" font-size="10.00">stdbool.h</text>
</a>
</g>
</g>
<!-- Node5&#45;&gt;Node6 -->
<g id="edge5" class="edge">
<title>Node5&#45;&gt;Node6</title>
<path fill="none" stroke="midnightblue" d="M146.33,-61.98C135.15,-52.61 116.98,-37.38 103.41,-26.01"/>
<polygon fill="midnightblue" stroke="midnightblue" points="105.57,-23.25 95.65,-19.51 101.07,-28.61 105.57,-23.25"/>
</g>
<!-- Node7 -->
<g id="node7" class="node">
<title>Node7</title>
<g id="a_node7"><a xlink:title=" ">
<polygon fill="none" stroke="#bfbfbf" points="132,-0.5 132,-19.5 181,-19.5 181,-0.5 132,-0.5"/>
<text text-anchor="middle" x="156.5" y="-7.5" font-family="Helvetica,sans-Serif" font-size="10.00">stdint.h</text>
</a>
</g>
</g>
<!-- Node5&#45;&gt;Node7 -->
<g id="edge6" class="edge">
<title>Node5&#45;&gt;Node7</title>
<path fill="none" stroke="midnightblue" d="M156.5,-61.98C156.5,-53.58 156.5,-40.48 156.5,-29.66"/>
<polygon fill="midnightblue" stroke="midnightblue" points="160,-29.51 156.5,-19.51 153,-29.51 160,-29.51"/>
</g>
<!-- Node8 -->
<g id="node8" class="node">
<title>Node8</title>
<g id="a_node8"><a xlink:title=" ">
<polygon fill="none" stroke="#bfbfbf" points="199,-0.5 199,-19.5 248,-19.5 248,-0.5 199,-0.5"/>
<text text-anchor="middle" x="223.5" y="-7.5" font-family="Helvetica,sans-Serif" font-size="10.00">string.h</text>
</a>
</g>
</g>
<!-- Node5&#45;&gt;Node8 -->
<g id="edge7" class="edge">
<title>Node5&#45;&gt;Node8</title>
<path fill="none" stroke="midnightblue" d="M166.1,-61.98C176.55,-52.7 193.47,-37.67 206.24,-26.33"/>
<polygon fill="midnightblue" stroke="midnightblue" points="208.77,-28.77 213.92,-19.51 204.12,-23.53 208.77,-28.77"/>
</g>
</g>
</svg>
