<?xml version="1.0" encoding="UTF-8" standalone="no"?>
<!DOCTYPE svg PUBLIC "-//W3C//DTD SVG 1.1//EN"
 "http://www.w3.org/Graphics/SVG/1.1/DTD/svg11.dtd">
<!-- Generated by graphviz version 2.49.1 (20210923.0004)
 -->
<!-- Title: src/forces/potentialHydrodynamics.cpp Pages: 1 -->
<svg width="1063pt" height="330pt"
 viewBox="0.00 0.00 1062.82 330.00" xmlns="http://www.w3.org/2000/svg" xmlns:xlink="http://www.w3.org/1999/xlink">
<g id="graph0" class="graph" transform="scale(1 1) rotate(0) translate(4 326)">
<title>src/forces/potentialHydrodynamics.cpp</title>
<!-- Node1 -->
<g id="node1" class="node">
<title>Node1</title>
<g id="a_node1"><a xlink:title=" ">
<polygon fill="#bfbfbf" stroke="black" points="545,-302.5 545,-321.5 733,-321.5 733,-302.5 545,-302.5"/>
<text text-anchor="middle" x="639" y="-309.5" font-family="Helvetica,sans-Serif" font-size="10.00">src/forces/potentialHydrodynamics.cpp</text>
</a>
</g>
</g>
<!-- Node2 -->
<g id="node2" class="node">
<title>Node2</title>
<g id="a_node2"><a xlink:href="potentialHydrodynamics_8hpp.html" target="_top" xlink:title=" ">
<polygon fill="none" stroke="black" points="567.5,-246.5 567.5,-265.5 710.5,-265.5 710.5,-246.5 567.5,-246.5"/>
<text text-anchor="middle" x="639" y="-253.5" font-family="Helvetica,sans-Serif" font-size="10.00">potentialHydrodynamics.hpp</text>
</a>
</g>
</g>
<!-- Node1&#45;&gt;Node2 -->
<g id="edge1" class="edge">
<title>Node1&#45;&gt;Node2</title>
<path fill="none" stroke="midnightblue" d="M639,-302.08C639,-295.01 639,-284.86 639,-275.99"/>
<polygon fill="midnightblue" stroke="midnightblue" points="642.5,-275.75 639,-265.75 635.5,-275.75 642.5,-275.75"/>
</g>
<!-- Node3 -->
<g id="node3" class="node">
<title>Node3</title>
<g id="a_node3"><a xlink:href="systemData_8hpp.html" target="_top" xlink:title=" ">
<polygon fill="none" stroke="black" points="359.5,-190.5 359.5,-209.5 448.5,-209.5 448.5,-190.5 359.5,-190.5"/>
<text text-anchor="middle" x="404" y="-197.5" font-family="Helvetica,sans-Serif" font-size="10.00">systemData.hpp</text>
</a>
</g>
</g>
<!-- Node2&#45;&gt;Node3 -->
<g id="edge2" class="edge">
<title>Node2&#45;&gt;Node3</title>
<path fill="none" stroke="midnightblue" d="M601.76,-246.44C560.94,-237.06 495.36,-221.99 451.02,-211.8"/>
<polygon fill="midnightblue" stroke="midnightblue" points="451.59,-208.34 441.06,-209.52 450.02,-215.17 451.59,-208.34"/>
</g>
<!-- Node9 -->
<g id="node9" class="node">
<title>Node9</title>
<g id="a_node9"><a xlink:title=" ">
<polygon fill="none" stroke="#bfbfbf" points="0,-56.5 0,-86.5 98,-86.5 98,-56.5 0,-56.5"/>
<text text-anchor="start" x="8" y="-74.5" font-family="Helvetica,sans-Serif" font-size="10.00">spdlog/sinks/basic</text>
<text text-anchor="middle" x="49" y="-63.5" font-family="Helvetica,sans-Serif" font-size="10.00">_file_sink.h</text>
</a>
</g>
</g>
<!-- Node2&#45;&gt;Node9 -->
<g id="edge34" class="edge">
<title>Node2&#45;&gt;Node9</title>
<path fill="none" stroke="midnightblue" d="M567.42,-251.03C469.67,-244.91 299.94,-231.55 242,-210 171.67,-183.85 103.6,-125.17 70.26,-93.59"/>
<polygon fill="midnightblue" stroke="midnightblue" points="72.56,-90.95 62.92,-86.54 67.71,-95.99 72.56,-90.95"/>
</g>
<!-- Node10 -->
<g id="node10" class="node">
<title>Node10</title>
<g id="a_node10"><a xlink:title=" ">
<polygon fill="none" stroke="#bfbfbf" points="116.5,-62 116.5,-81 203.5,-81 203.5,-62 116.5,-62"/>
<text text-anchor="middle" x="160" y="-69" font-family="Helvetica,sans-Serif" font-size="10.00">spdlog/spdlog.h</text>
</a>
</g>
</g>
<!-- Node2&#45;&gt;Node10 -->
<g id="edge35" class="edge">
<title>Node2&#45;&gt;Node10</title>
<path fill="none" stroke="midnightblue" d="M567.33,-249.27C451.13,-238.41 229.4,-210.67 178,-154 162.52,-136.93 159.33,-109.63 159.13,-91.39"/>
<polygon fill="midnightblue" stroke="midnightblue" points="162.63,-91.43 159.31,-81.37 155.63,-91.31 162.63,-91.43"/>
</g>
<!-- Node14 -->
<g id="node14" class="node">
<title>Node14</title>
<g id="a_node14"><a xlink:title=" ">
<polygon fill="none" stroke="#bfbfbf" points="528.5,-62 528.5,-81 627.5,-81 627.5,-62 528.5,-62"/>
<text text-anchor="middle" x="578" y="-69" font-family="Helvetica,sans-Serif" font-size="10.00">eigen3/Eigen/Core</text>
</a>
</g>
</g>
<!-- Node2&#45;&gt;Node14 -->
<g id="edge29" class="edge">
<title>Node2&#45;&gt;Node14</title>
<path fill="none" stroke="midnightblue" d="M635.5,-246.44C628.48,-229.14 612.4,-188.71 601,-154 593.99,-132.66 587.16,-107.77 582.79,-91.17"/>
<polygon fill="midnightblue" stroke="midnightblue" points="586.08,-89.94 580.18,-81.14 579.31,-91.7 586.08,-89.94"/>
</g>
<!-- Node15 -->
<g id="node15" class="node">
<title>Node15</title>
<g id="a_node15"><a xlink:title=" ">
<polygon fill="none" stroke="#bfbfbf" points="645.5,-62 645.5,-81 748.5,-81 748.5,-62 645.5,-62"/>
<text text-anchor="middle" x="697" y="-69" font-family="Helvetica,sans-Serif" font-size="10.00">eigen3/Eigen/Eigen</text>
</a>
</g>
</g>
<!-- Node2&#45;&gt;Node15 -->
<g id="edge30" class="edge">
<title>Node2&#45;&gt;Node15</title>
<path fill="none" stroke="midnightblue" d="M696.82,-246.46C785.54,-232.05 948.64,-199.9 983,-154 1077.26,-28.08 1137.94,-163.25 757,-87 751.55,-85.91 745.84,-84.66 740.21,-83.37"/>
<polygon fill="midnightblue" stroke="midnightblue" points="740.76,-79.91 730.22,-81.02 739.15,-86.72 740.76,-79.91"/>
</g>
<!-- Node16 -->
<g id="node16" class="node">
<title>Node16</title>
<g id="a_node16"><a xlink:title=" ">
<polygon fill="none" stroke="#bfbfbf" points="766.5,-56.5 766.5,-86.5 877.5,-86.5 877.5,-56.5 766.5,-56.5"/>
<text text-anchor="start" x="774.5" y="-74.5" font-family="Helvetica,sans-Serif" font-size="10.00">eigen3/unsupported</text>
<text text-anchor="middle" x="822" y="-63.5" font-family="Helvetica,sans-Serif" font-size="10.00">/Eigen/CXX11/Tensor</text>
</a>
</g>
</g>
<!-- Node2&#45;&gt;Node16 -->
<g id="edge31" class="edge">
<title>Node2&#45;&gt;Node16</title>
<path fill="none" stroke="midnightblue" d="M710.57,-249.76C765.96,-244.12 843.94,-232.7 909,-210 957.46,-193.09 983.95,-198.23 1010,-154 1039.73,-103.52 953.4,-84.26 888.04,-76.94"/>
<polygon fill="midnightblue" stroke="midnightblue" points="888.06,-73.43 877.75,-75.87 887.33,-80.39 888.06,-73.43"/>
</g>
<!-- Node17 -->
<g id="node17" class="node">
<title>Node17</title>
<g id="a_node17"><a xlink:title=" ">
<polygon fill="none" stroke="#bfbfbf" points="840.5,-123.5 840.5,-153.5 973.5,-153.5 973.5,-123.5 840.5,-123.5"/>
<text text-anchor="start" x="848.5" y="-141.5" font-family="Helvetica,sans-Serif" font-size="10.00">eigen3/unsupported</text>
<text text-anchor="middle" x="907" y="-130.5" font-family="Helvetica,sans-Serif" font-size="10.00">/Eigen/CXX11/ThreadPool</text>
</a>
</g>
</g>
<!-- Node2&#45;&gt;Node17 -->
<g id="edge32" class="edge">
<title>Node2&#45;&gt;Node17</title>
<path fill="none" stroke="midnightblue" d="M659.14,-246.32C702.73,-227.53 806.58,-182.78 865.08,-157.57"/>
<polygon fill="midnightblue" stroke="midnightblue" points="866.61,-160.72 874.41,-153.55 863.84,-154.29 866.61,-160.72"/>
</g>
<!-- Node18 -->
<g id="node18" class="node">
<title>Node18</title>
<g id="a_node18"><a xlink:href="helper__eigenTensorConversion_8hpp.html" target="_top" xlink:title=" ">
<polygon fill="none" stroke="black" points="610,-129 610,-148 784,-148 784,-129 610,-129"/>
<text text-anchor="middle" x="697" y="-136" font-family="Helvetica,sans-Serif" font-size="10.00">helper_eigenTensorConversion.hpp</text>
</a>
</g>
</g>
<!-- Node2&#45;&gt;Node18 -->
<g id="edge33" class="edge">
<title>Node2&#45;&gt;Node18</title>
<path fill="none" stroke="midnightblue" d="M643.36,-246.32C652.81,-227.51 675.33,-182.65 687.98,-157.46"/>
<polygon fill="midnightblue" stroke="midnightblue" points="691.23,-158.79 692.59,-148.28 684.97,-155.65 691.23,-158.79"/>
</g>
<!-- Node4 -->
<g id="node4" class="node">
<title>Node4</title>
<g id="a_node4"><a xlink:href="GSDUtil_8hpp.html" target="_top" xlink:title=" ">
<polygon fill="none" stroke="black" points="228,-129 228,-148 300,-148 300,-129 228,-129"/>
<text text-anchor="middle" x="264" y="-136" font-family="Helvetica,sans-Serif" font-size="10.00">GSDUtil.hpp</text>
</a>
</g>
</g>
<!-- Node3&#45;&gt;Node4 -->
<g id="edge3" class="edge">
<title>Node3&#45;&gt;Node4</title>
<path fill="none" stroke="midnightblue" d="M379.04,-190.48C353.37,-180.49 313.96,-163.85 288.47,-152.31"/>
<polygon fill="midnightblue" stroke="midnightblue" points="289.67,-149.01 279.12,-148.01 286.75,-155.37 289.67,-149.01"/>
</g>
<!-- Node5 -->
<g id="node5" class="node">
<title>Node5</title>
<g id="a_node5"><a xlink:href="gsd_8h.html" target="_top" xlink:title="Declare GSD data types and C API.">
<polygon fill="none" stroke="black" points="280.5,-62 280.5,-81 321.5,-81 321.5,-62 280.5,-62"/>
<text text-anchor="middle" x="301" y="-69" font-family="Helvetica,sans-Serif" font-size="10.00">gsd.h</text>
</a>
</g>
</g>
<!-- Node3&#45;&gt;Node5 -->
<g id="edge14" class="edge">
<title>Node3&#45;&gt;Node5</title>
<path fill="none" stroke="midnightblue" d="M396.92,-190.31C379.94,-169.45 336.68,-116.31 314.52,-89.11"/>
<polygon fill="midnightblue" stroke="midnightblue" points="317.16,-86.8 308.13,-81.26 311.73,-91.22 317.16,-86.8"/>
</g>
<!-- Node3&#45;&gt;Node9 -->
<g id="edge15" class="edge">
<title>Node3&#45;&gt;Node9</title>
<path fill="none" stroke="midnightblue" d="M359.31,-194.98C312.7,-189.67 238.19,-178.04 178,-154 139.49,-138.62 99.84,-111.57 74.84,-92.88"/>
<polygon fill="midnightblue" stroke="midnightblue" points="76.72,-89.91 66.64,-86.65 72.49,-95.49 76.72,-89.91"/>
</g>
<!-- Node3&#45;&gt;Node10 -->
<g id="edge16" class="edge">
<title>Node3&#45;&gt;Node10</title>
<path fill="none" stroke="midnightblue" d="M359.27,-198.42C316.88,-195.78 253.28,-186.16 209,-154 187.24,-138.19 173.33,-109.49 166.09,-90.72"/>
<polygon fill="midnightblue" stroke="midnightblue" points="169.35,-89.44 162.67,-81.21 162.76,-91.81 169.35,-89.44"/>
</g>
<!-- Node11 -->
<g id="node11" class="node">
<title>Node11</title>
<g id="a_node11"><a xlink:title=" ">
<polygon fill="none" stroke="#bfbfbf" points="339.5,-62 339.5,-81 392.5,-81 392.5,-62 339.5,-62"/>
<text text-anchor="middle" x="366" y="-69" font-family="Helvetica,sans-Serif" font-size="10.00">memory</text>
</a>
</g>
</g>
<!-- Node3&#45;&gt;Node11 -->
<g id="edge25" class="edge">
<title>Node3&#45;&gt;Node11</title>
<path fill="none" stroke="midnightblue" d="M401.39,-190.31C395.26,-169.9 379.85,-118.6 371.53,-90.91"/>
<polygon fill="midnightblue" stroke="midnightblue" points="374.86,-89.83 368.63,-81.26 368.16,-91.84 374.86,-89.83"/>
</g>
<!-- Node12 -->
<g id="node12" class="node">
<title>Node12</title>
<g id="a_node12"><a xlink:title=" ">
<polygon fill="none" stroke="#bfbfbf" points="410.5,-62 410.5,-81 469.5,-81 469.5,-62 410.5,-62"/>
<text text-anchor="middle" x="440" y="-69" font-family="Helvetica,sans-Serif" font-size="10.00">stdexcept</text>
</a>
</g>
</g>
<!-- Node3&#45;&gt;Node12 -->
<g id="edge26" class="edge">
<title>Node3&#45;&gt;Node12</title>
<path fill="none" stroke="midnightblue" d="M406.47,-190.31C412.28,-169.9 426.88,-118.6 434.76,-90.91"/>
<polygon fill="midnightblue" stroke="midnightblue" points="438.14,-91.83 437.51,-81.26 431.4,-89.92 438.14,-91.83"/>
</g>
<!-- Node13 -->
<g id="node13" class="node">
<title>Node13</title>
<g id="a_node13"><a xlink:title=" ">
<polygon fill="none" stroke="#bfbfbf" points="221.5,-62 221.5,-81 262.5,-81 262.5,-62 221.5,-62"/>
<text text-anchor="middle" x="242" y="-69" font-family="Helvetica,sans-Serif" font-size="10.00">string</text>
</a>
</g>
</g>
<!-- Node3&#45;&gt;Node13 -->
<g id="edge27" class="edge">
<title>Node3&#45;&gt;Node13</title>
<path fill="none" stroke="midnightblue" d="M359.09,-194.39C310.03,-188.31 236.11,-175.77 219,-154 204.15,-135.1 217.65,-107.1 229.34,-89.33"/>
<polygon fill="midnightblue" stroke="midnightblue" points="232.26,-91.27 235.14,-81.07 226.53,-87.25 232.26,-91.27"/>
</g>
<!-- Node3&#45;&gt;Node14 -->
<g id="edge17" class="edge">
<title>Node3&#45;&gt;Node14</title>
<path fill="none" stroke="midnightblue" d="M408.5,-190.32C416.91,-174.86 436.39,-142.4 461,-123 483.6,-105.19 513.44,-92.44 537.33,-84.21"/>
<polygon fill="midnightblue" stroke="midnightblue" points="538.44,-87.53 546.83,-81.06 536.24,-80.88 538.44,-87.53"/>
</g>
<!-- Node3&#45;&gt;Node15 -->
<g id="edge18" class="edge">
<title>Node3&#45;&gt;Node15</title>
<path fill="none" stroke="midnightblue" d="M428.59,-190.44C453.01,-181.79 491.41,-167.76 524,-154 576.89,-131.67 637.27,-102.32 670.88,-85.62"/>
<polygon fill="midnightblue" stroke="midnightblue" points="672.63,-88.66 680.02,-81.07 669.51,-82.39 672.63,-88.66"/>
</g>
<!-- Node3&#45;&gt;Node16 -->
<g id="edge19" class="edge">
<title>Node3&#45;&gt;Node16</title>
<path fill="none" stroke="midnightblue" d="M448.8,-199.58C539.51,-199.84 740.73,-195.59 793,-154 810.29,-140.24 817.29,-115.38 820.11,-96.72"/>
<polygon fill="midnightblue" stroke="midnightblue" points="823.61,-96.93 821.33,-86.58 816.66,-96.09 823.61,-96.93"/>
</g>
<!-- Node3&#45;&gt;Node17 -->
<g id="edge20" class="edge">
<title>Node3&#45;&gt;Node17</title>
<path fill="none" stroke="midnightblue" d="M448.79,-195.28C526,-188.62 689.05,-173.53 826,-154 827.46,-153.79 828.93,-153.58 830.41,-153.36"/>
<polygon fill="midnightblue" stroke="midnightblue" points="830.97,-156.81 840.32,-151.82 829.9,-149.89 830.97,-156.81"/>
</g>
<!-- Node3&#45;&gt;Node18 -->
<g id="edge21" class="edge">
<title>Node3&#45;&gt;Node18</title>
<path fill="none" stroke="midnightblue" d="M445.98,-190.48C498.52,-179.8 588.5,-161.53 645.25,-150.01"/>
<polygon fill="midnightblue" stroke="midnightblue" points="645.99,-153.43 655.1,-148.01 644.6,-146.57 645.99,-153.43"/>
</g>
<!-- Node19 -->
<g id="node19" class="node">
<title>Node19</title>
<g id="a_node19"><a xlink:title=" ">
<polygon fill="none" stroke="#bfbfbf" points="470.5,-129 470.5,-148 515.5,-148 515.5,-129 470.5,-129"/>
<text text-anchor="middle" x="493" y="-136" font-family="Helvetica,sans-Serif" font-size="10.00">thread</text>
</a>
</g>
</g>
<!-- Node3&#45;&gt;Node19 -->
<g id="edge28" class="edge">
<title>Node3&#45;&gt;Node19</title>
<path fill="none" stroke="midnightblue" d="M416.75,-190.48C431.03,-180.93 454.4,-165.31 471.51,-153.87"/>
<polygon fill="midnightblue" stroke="midnightblue" points="473.9,-156.48 480.27,-148.01 470.01,-150.66 473.9,-156.48"/>
</g>
<!-- Node4&#45;&gt;Node3 -->
<g id="edge8" class="edge">
<title>Node4&#45;&gt;Node3</title>
<path fill="none" stroke="midnightblue" d="M288.92,-148.01C314.58,-157.99 353.99,-174.63 379.49,-186.17"/>
<polygon fill="midnightblue" stroke="midnightblue" points="378.29,-189.48 388.84,-190.48 381.22,-183.12 378.29,-189.48"/>
</g>
<!-- Node4&#45;&gt;Node5 -->
<g id="edge4" class="edge">
<title>Node4&#45;&gt;Node5</title>
<path fill="none" stroke="midnightblue" d="M268.99,-128.73C274.59,-118.89 283.83,-102.66 290.95,-90.16"/>
<polygon fill="midnightblue" stroke="midnightblue" points="294.18,-91.55 296.09,-81.13 288.1,-88.09 294.18,-91.55"/>
</g>
<!-- Node4&#45;&gt;Node9 -->
<g id="edge9" class="edge">
<title>Node4&#45;&gt;Node9</title>
<path fill="none" stroke="midnightblue" d="M235.45,-128.87C202.35,-118.86 147,-102.13 105.18,-89.48"/>
<polygon fill="midnightblue" stroke="midnightblue" points="105.99,-86.07 95.4,-86.53 103.96,-92.77 105.99,-86.07"/>
</g>
<!-- Node4&#45;&gt;Node10 -->
<g id="edge10" class="edge">
<title>Node4&#45;&gt;Node10</title>
<path fill="none" stroke="midnightblue" d="M249.97,-128.73C232.67,-117.92 203.01,-99.38 182.51,-86.57"/>
<polygon fill="midnightblue" stroke="midnightblue" points="184.14,-83.46 173.8,-81.13 180.43,-89.4 184.14,-83.46"/>
</g>
<!-- Node4&#45;&gt;Node11 -->
<g id="edge11" class="edge">
<title>Node4&#45;&gt;Node11</title>
<path fill="none" stroke="midnightblue" d="M277.76,-128.73C294.73,-117.92 323.81,-99.38 343.93,-86.57"/>
<polygon fill="midnightblue" stroke="midnightblue" points="345.91,-89.45 352.46,-81.13 342.15,-83.55 345.91,-89.45"/>
</g>
<!-- Node4&#45;&gt;Node12 -->
<g id="edge12" class="edge">
<title>Node4&#45;&gt;Node12</title>
<path fill="none" stroke="midnightblue" d="M287.28,-128.94C314.54,-118.91 361.06,-101.79 401,-87 403.09,-86.23 405.25,-85.43 407.42,-84.62"/>
<polygon fill="midnightblue" stroke="midnightblue" points="408.75,-87.86 416.91,-81.1 406.31,-81.3 408.75,-87.86"/>
</g>
<!-- Node4&#45;&gt;Node13 -->
<g id="edge13" class="edge">
<title>Node4&#45;&gt;Node13</title>
<path fill="none" stroke="midnightblue" d="M261.03,-128.73C257.77,-119.09 252.42,-103.3 248.23,-90.91"/>
<polygon fill="midnightblue" stroke="midnightblue" points="251.44,-89.48 244.92,-81.13 244.81,-91.72 251.44,-89.48"/>
</g>
<!-- Node6 -->
<g id="node6" class="node">
<title>Node6</title>
<g id="a_node6"><a xlink:title=" ">
<polygon fill="none" stroke="#bfbfbf" points="201.5,-0.5 201.5,-19.5 258.5,-19.5 258.5,-0.5 201.5,-0.5"/>
<text text-anchor="middle" x="230" y="-7.5" font-family="Helvetica,sans-Serif" font-size="10.00">stdbool.h</text>
</a>
</g>
</g>
<!-- Node5&#45;&gt;Node6 -->
<g id="edge5" class="edge">
<title>Node5&#45;&gt;Node6</title>
<path fill="none" stroke="midnightblue" d="M290.83,-61.98C279.65,-52.61 261.48,-37.38 247.91,-26.01"/>
<polygon fill="midnightblue" stroke="midnightblue" points="250.07,-23.25 240.15,-19.51 245.57,-28.61 250.07,-23.25"/>
</g>
<!-- Node7 -->
<g id="node7" class="node">
<title>Node7</title>
<g id="a_node7"><a xlink:title=" ">
<polygon fill="none" stroke="#bfbfbf" points="276.5,-0.5 276.5,-19.5 325.5,-19.5 325.5,-0.5 276.5,-0.5"/>
<text text-anchor="middle" x="301" y="-7.5" font-family="Helvetica,sans-Serif" font-size="10.00">stdint.h</text>
</a>
</g>
</g>
<!-- Node5&#45;&gt;Node7 -->
<g id="edge6" class="edge">
<title>Node5&#45;&gt;Node7</title>
<path fill="none" stroke="midnightblue" d="M301,-61.98C301,-53.58 301,-40.48 301,-29.66"/>
<polygon fill="midnightblue" stroke="midnightblue" points="304.5,-29.51 301,-19.51 297.5,-29.51 304.5,-29.51"/>
</g>
<!-- Node8 -->
<g id="node8" class="node">
<title>Node8</title>
<g id="a_node8"><a xlink:title=" ">
<polygon fill="none" stroke="#bfbfbf" points="343.5,-0.5 343.5,-19.5 392.5,-19.5 392.5,-0.5 343.5,-0.5"/>
<text text-anchor="middle" x="368" y="-7.5" font-family="Helvetica,sans-Serif" font-size="10.00">string.h</text>
</a>
</g>
</g>
<!-- Node5&#45;&gt;Node8 -->
<g id="edge7" class="edge">
<title>Node5&#45;&gt;Node8</title>
<path fill="none" stroke="midnightblue" d="M310.6,-61.98C321.05,-52.7 337.97,-37.67 350.74,-26.33"/>
<polygon fill="midnightblue" stroke="midnightblue" points="353.27,-28.77 358.42,-19.51 348.62,-23.53 353.27,-28.77"/>
</g>
<!-- Node18&#45;&gt;Node14 -->
<g id="edge22" class="edge">
<title>Node18&#45;&gt;Node14</title>
<path fill="none" stroke="midnightblue" d="M680.95,-128.73C660.88,-117.77 626.3,-98.88 602.81,-86.05"/>
<polygon fill="midnightblue" stroke="midnightblue" points="604.25,-82.85 593.79,-81.13 600.89,-88.99 604.25,-82.85"/>
</g>
<!-- Node18&#45;&gt;Node15 -->
<g id="edge23" class="edge">
<title>Node18&#45;&gt;Node15</title>
<path fill="none" stroke="midnightblue" d="M697,-128.73C697,-119.18 697,-103.62 697,-91.28"/>
<polygon fill="midnightblue" stroke="midnightblue" points="700.5,-91.13 697,-81.13 693.5,-91.13 700.5,-91.13"/>
</g>
<!-- Node18&#45;&gt;Node16 -->
<g id="edge24" class="edge">
<title>Node18&#45;&gt;Node16</title>
<path fill="none" stroke="midnightblue" d="M713.6,-128.87C731.89,-119.36 761.87,-103.77 785.68,-91.39"/>
<polygon fill="midnightblue" stroke="midnightblue" points="787.53,-94.37 794.79,-86.65 784.3,-88.16 787.53,-94.37"/>
</g>
</g>
</svg>
