<?xml version="1.0" encoding="UTF-8" standalone="no"?>
<!DOCTYPE svg PUBLIC "-//W3C//DTD SVG 1.1//EN"
 "http://www.w3.org/Graphics/SVG/1.1/DTD/svg11.dtd">
<!-- Generated by graphviz version 2.43.0 (0)
 -->
<!-- Title: src/forces/PotentialHydrodynamics.hpp Pages: 1 -->
<svg width="1114pt" height="263pt"
 viewBox="0.00 0.00 1113.50 263.00" xmlns="http://www.w3.org/2000/svg" xmlns:xlink="http://www.w3.org/1999/xlink">
<g id="graph0" class="graph" transform="scale(1 1) rotate(0) translate(4 259)">
<title>src/forces/PotentialHydrodynamics.hpp</title>
<!-- Node1 -->
<g id="node1" class="node">
<title>Node1</title>
<g id="a_node1"><a xlink:title=" ">
<polygon fill="#bfbfbf" stroke="black" points="610,-235.5 610,-254.5 798,-254.5 798,-235.5 610,-235.5"/>
<text text-anchor="middle" x="704" y="-242.5" font-family="Helvetica,sans-Serif" font-size="10.00">src/forces/PotentialHydrodynamics.hpp</text>
</a>
</g>
</g>
<!-- Node2 -->
<g id="node2" class="node">
<title>Node2</title>
<g id="a_node2"><a xlink:href="SystemData_8hpp.html" target="_top" xlink:title=" ">
<polygon fill="none" stroke="black" points="450,-179.5 450,-198.5 540,-198.5 540,-179.5 450,-179.5"/>
<text text-anchor="middle" x="495" y="-186.5" font-family="Helvetica,sans-Serif" font-size="10.00">SystemData.hpp</text>
</a>
</g>
</g>
<!-- Node1&#45;&gt;Node2 -->
<g id="edge1" class="edge">
<title>Node1&#45;&gt;Node2</title>
<path fill="none" stroke="midnightblue" d="M670.88,-235.44C634.88,-226.14 577.23,-211.25 537.81,-201.06"/>
<polygon fill="midnightblue" stroke="midnightblue" points="538.52,-197.63 527.96,-198.52 536.77,-204.41 538.52,-197.63"/>
</g>
<!-- Node8 -->
<g id="node8" class="node">
<title>Node8</title>
<g id="a_node8"><a xlink:title=" ">
<polygon fill="none" stroke="#bfbfbf" points="0,-56.5 0,-86.5 98,-86.5 98,-56.5 0,-56.5"/>
<text text-anchor="start" x="8" y="-74.5" font-family="Helvetica,sans-Serif" font-size="10.00">spdlog/sinks/basic</text>
<text text-anchor="middle" x="49" y="-63.5" font-family="Helvetica,sans-Serif" font-size="10.00">_file_sink.h</text>
</a>
</g>
</g>
<!-- Node1&#45;&gt;Node8 -->
<g id="edge37" class="edge">
<title>Node1&#45;&gt;Node8</title>
<path fill="none" stroke="midnightblue" d="M609.89,-244.14C467.86,-243.11 206.25,-236.04 121,-199 87.25,-184.33 77.37,-175.45 60,-143 52.41,-128.81 49.69,-110.87 48.85,-96.64"/>
<polygon fill="midnightblue" stroke="midnightblue" points="52.35,-96.49 48.53,-86.6 45.35,-96.71 52.35,-96.49"/>
</g>
<!-- Node9 -->
<g id="node9" class="node">
<title>Node9</title>
<g id="a_node9"><a xlink:title=" ">
<polygon fill="none" stroke="#bfbfbf" points="242.5,-62 242.5,-81 327.5,-81 327.5,-62 242.5,-62"/>
<text text-anchor="middle" x="285" y="-69" font-family="Helvetica,sans-Serif" font-size="10.00">spdlog/spdlog.h</text>
</a>
</g>
</g>
<!-- Node1&#45;&gt;Node9 -->
<g id="edge38" class="edge">
<title>Node1&#45;&gt;Node9</title>
<path fill="none" stroke="midnightblue" d="M609.89,-243.37C450.15,-240.09 136.55,-223.3 68,-143 62.23,-136.24 62.47,-129.96 68,-123 88.14,-97.64 174.77,-83.85 232.3,-77.34"/>
<polygon fill="midnightblue" stroke="midnightblue" points="232.76,-80.81 242.32,-76.25 232,-73.85 232.76,-80.81"/>
</g>
<!-- Node13 -->
<g id="node13" class="node">
<title>Node13</title>
<g id="a_node13"><a xlink:title=" ">
<polygon fill="none" stroke="#bfbfbf" points="1008.5,-62 1008.5,-81 1105.5,-81 1105.5,-62 1008.5,-62"/>
<text text-anchor="middle" x="1057" y="-69" font-family="Helvetica,sans-Serif" font-size="10.00">eigen3/Eigen/Core</text>
</a>
</g>
</g>
<!-- Node1&#45;&gt;Node13 -->
<g id="edge32" class="edge">
<title>Node1&#45;&gt;Node13</title>
<path fill="none" stroke="midnightblue" d="M798.27,-240.66C845.89,-235.61 903.13,-224.18 949,-199 995.89,-173.26 1031.47,-118.53 1047.56,-90.25"/>
<polygon fill="midnightblue" stroke="midnightblue" points="1050.82,-91.57 1052.59,-81.13 1044.69,-88.19 1050.82,-91.57"/>
</g>
<!-- Node14 -->
<g id="node14" class="node">
<title>Node14</title>
<g id="a_node14"><a xlink:title=" ">
<polygon fill="none" stroke="#bfbfbf" points="889.5,-62 889.5,-81 990.5,-81 990.5,-62 889.5,-62"/>
<text text-anchor="middle" x="940" y="-69" font-family="Helvetica,sans-Serif" font-size="10.00">eigen3/Eigen/Eigen</text>
</a>
</g>
</g>
<!-- Node1&#45;&gt;Node14 -->
<g id="edge33" class="edge">
<title>Node1&#45;&gt;Node14</title>
<path fill="none" stroke="midnightblue" d="M798.07,-237.16C862.01,-227.04 942.27,-202.42 984,-143 997.04,-124.43 977.45,-102.07 960.41,-87.59"/>
<polygon fill="midnightblue" stroke="midnightblue" points="962.38,-84.69 952.39,-81.16 958,-90.15 962.38,-84.69"/>
</g>
<!-- Node15 -->
<g id="node15" class="node">
<title>Node15</title>
<g id="a_node15"><a xlink:title=" ">
<polygon fill="none" stroke="#bfbfbf" points="612,-56.5 612,-86.5 722,-86.5 722,-56.5 612,-56.5"/>
<text text-anchor="start" x="620" y="-74.5" font-family="Helvetica,sans-Serif" font-size="10.00">eigen3/unsupported</text>
<text text-anchor="middle" x="667" y="-63.5" font-family="Helvetica,sans-Serif" font-size="10.00">/Eigen/CXX11/Tensor</text>
</a>
</g>
</g>
<!-- Node1&#45;&gt;Node15 -->
<g id="edge34" class="edge">
<title>Node1&#45;&gt;Node15</title>
<path fill="none" stroke="midnightblue" d="M702.11,-235.26C696.64,-209.87 680.58,-135.44 672.21,-96.65"/>
<polygon fill="midnightblue" stroke="midnightblue" points="675.6,-95.76 670.07,-86.72 668.76,-97.24 675.6,-95.76"/>
</g>
<!-- Node16 -->
<g id="node16" class="node">
<title>Node16</title>
<g id="a_node16"><a xlink:title=" ">
<polygon fill="none" stroke="#bfbfbf" points="740.5,-56.5 740.5,-86.5 871.5,-86.5 871.5,-56.5 740.5,-56.5"/>
<text text-anchor="start" x="748.5" y="-74.5" font-family="Helvetica,sans-Serif" font-size="10.00">eigen3/unsupported</text>
<text text-anchor="middle" x="806" y="-63.5" font-family="Helvetica,sans-Serif" font-size="10.00">/Eigen/CXX11/ThreadPool</text>
</a>
</g>
</g>
<!-- Node1&#45;&gt;Node16 -->
<g id="edge35" class="edge">
<title>Node1&#45;&gt;Node16</title>
<path fill="none" stroke="midnightblue" d="M709.2,-235.26C724.43,-209.65 769.32,-134.17 792.22,-95.66"/>
<polygon fill="midnightblue" stroke="midnightblue" points="795.44,-97.11 797.54,-86.72 789.42,-93.53 795.44,-97.11"/>
</g>
<!-- Node17 -->
<g id="node17" class="node">
<title>Node17</title>
<g id="a_node17"><a xlink:href="helper__eigenTensorConversion_8hpp.html" target="_top" xlink:title=" ">
<polygon fill="none" stroke="black" points="788.5,-123.5 788.5,-142.5 957.5,-142.5 957.5,-123.5 788.5,-123.5"/>
<text text-anchor="middle" x="873" y="-130.5" font-family="Helvetica,sans-Serif" font-size="10.00">helper_eigenTensorConversion.hpp</text>
</a>
</g>
</g>
<!-- Node1&#45;&gt;Node17 -->
<g id="edge36" class="edge">
<title>Node1&#45;&gt;Node17</title>
<path fill="none" stroke="midnightblue" d="M717.26,-235.37C746.26,-216.49 815.56,-171.38 851.13,-148.24"/>
<polygon fill="midnightblue" stroke="midnightblue" points="853.33,-150.98 859.8,-142.59 849.51,-145.11 853.33,-150.98"/>
</g>
<!-- Node3 -->
<g id="node3" class="node">
<title>Node3</title>
<g id="a_node3"><a xlink:href="GSDUtil_8hpp.html" target="_top" xlink:title=" ">
<polygon fill="none" stroke="black" points="395,-123.5 395,-142.5 467,-142.5 467,-123.5 395,-123.5"/>
<text text-anchor="middle" x="431" y="-130.5" font-family="Helvetica,sans-Serif" font-size="10.00">GSDUtil.hpp</text>
</a>
</g>
</g>
<!-- Node2&#45;&gt;Node3 -->
<g id="edge2" class="edge">
<title>Node2&#45;&gt;Node3</title>
<path fill="none" stroke="midnightblue" d="M479.6,-179.32C468.52,-171.42 454.09,-159.55 443.67,-149.94"/>
<polygon fill="midnightblue" stroke="midnightblue" points="445.94,-147.27 436.32,-142.83 441.08,-152.3 445.94,-147.27"/>
</g>
<!-- Node4 -->
<g id="node4" class="node">
<title>Node4</title>
<g id="a_node4"><a xlink:href="gsd_8h.html" target="_top" xlink:title="Declare GSD data types and C API.">
<polygon fill="none" stroke="black" points="345.5,-62 345.5,-81 386.5,-81 386.5,-62 345.5,-62"/>
<text text-anchor="middle" x="366" y="-69" font-family="Helvetica,sans-Serif" font-size="10.00">gsd.h</text>
</a>
</g>
</g>
<!-- Node2&#45;&gt;Node4 -->
<g id="edge13" class="edge">
<title>Node2&#45;&gt;Node4</title>
<path fill="none" stroke="midnightblue" d="M451.15,-179.48C428.78,-173.01 402.82,-161.88 386,-143 373.2,-128.63 368.54,-106.62 366.87,-91.03"/>
<polygon fill="midnightblue" stroke="midnightblue" points="370.36,-90.71 366.12,-81 363.38,-91.24 370.36,-90.71"/>
</g>
<!-- Node2&#45;&gt;Node8 -->
<g id="edge25" class="edge">
<title>Node2&#45;&gt;Node8</title>
<path fill="none" stroke="midnightblue" d="M449.84,-186.1C345.94,-181.32 96.64,-167.43 68,-143 54.76,-131.7 50.25,-112.24 48.93,-96.63"/>
<polygon fill="midnightblue" stroke="midnightblue" points="52.42,-96.4 48.44,-86.58 45.43,-96.73 52.42,-96.4"/>
</g>
<!-- Node2&#45;&gt;Node9 -->
<g id="edge26" class="edge">
<title>Node2&#45;&gt;Node9</title>
<path fill="none" stroke="midnightblue" d="M462.35,-179.45C436.55,-171.93 400.16,-159.59 371,-143 344.42,-127.87 317.81,-104.48 301.38,-88.84"/>
<polygon fill="midnightblue" stroke="midnightblue" points="303.39,-85.9 293.77,-81.45 298.51,-90.92 303.39,-85.9"/>
</g>
<!-- Node10 -->
<g id="node10" class="node">
<title>Node10</title>
<g id="a_node10"><a xlink:title=" ">
<polygon fill="none" stroke="#bfbfbf" points="405,-62 405,-81 457,-81 457,-62 405,-62"/>
<text text-anchor="middle" x="431" y="-69" font-family="Helvetica,sans-Serif" font-size="10.00">memory</text>
</a>
</g>
</g>
<!-- Node2&#45;&gt;Node10 -->
<g id="edge28" class="edge">
<title>Node2&#45;&gt;Node10</title>
<path fill="none" stroke="midnightblue" d="M493.68,-179.11C491.48,-166.12 486.26,-141.51 476,-123 468.79,-110 457.72,-97.51 448.35,-88.21"/>
<polygon fill="midnightblue" stroke="midnightblue" points="450.66,-85.57 441.02,-81.2 445.83,-90.63 450.66,-85.57"/>
</g>
<!-- Node11 -->
<g id="node11" class="node">
<title>Node11</title>
<g id="a_node11"><a xlink:title=" ">
<polygon fill="none" stroke="#bfbfbf" points="475.5,-62 475.5,-81 534.5,-81 534.5,-62 475.5,-62"/>
<text text-anchor="middle" x="505" y="-69" font-family="Helvetica,sans-Serif" font-size="10.00">stdexcept</text>
</a>
</g>
</g>
<!-- Node2&#45;&gt;Node11 -->
<g id="edge29" class="edge">
<title>Node2&#45;&gt;Node11</title>
<path fill="none" stroke="midnightblue" d="M498.6,-179.22C502.06,-170.28 507.03,-155.94 509,-143 511.65,-125.59 510.06,-105.53 508.17,-91.27"/>
<polygon fill="midnightblue" stroke="midnightblue" points="511.6,-90.6 506.65,-81.24 504.68,-91.65 511.6,-90.6"/>
</g>
<!-- Node12 -->
<g id="node12" class="node">
<title>Node12</title>
<g id="a_node12"><a xlink:title=" ">
<polygon fill="none" stroke="#bfbfbf" points="552.5,-62 552.5,-81 593.5,-81 593.5,-62 552.5,-62"/>
<text text-anchor="middle" x="573" y="-69" font-family="Helvetica,sans-Serif" font-size="10.00">string</text>
</a>
</g>
</g>
<!-- Node2&#45;&gt;Node12 -->
<g id="edge30" class="edge">
<title>Node2&#45;&gt;Node12</title>
<path fill="none" stroke="midnightblue" d="M500.86,-179.32C513.68,-160.34 544.4,-114.85 561.32,-89.79"/>
<polygon fill="midnightblue" stroke="midnightblue" points="564.37,-91.53 567.07,-81.28 558.57,-87.61 564.37,-91.53"/>
</g>
<!-- Node2&#45;&gt;Node13 -->
<g id="edge14" class="edge">
<title>Node2&#45;&gt;Node13</title>
<path fill="none" stroke="midnightblue" d="M540.25,-187.63C645.88,-186.18 905.63,-178.93 984,-143 1009.68,-131.23 1031.82,-106.55 1044.79,-89.75"/>
<polygon fill="midnightblue" stroke="midnightblue" points="1047.87,-91.48 1051.01,-81.36 1042.25,-87.31 1047.87,-91.48"/>
</g>
<!-- Node2&#45;&gt;Node14 -->
<g id="edge15" class="edge">
<title>Node2&#45;&gt;Node14</title>
<path fill="none" stroke="midnightblue" d="M528.08,-179.41C607.51,-158.8 808.9,-106.53 897.3,-83.58"/>
<polygon fill="midnightblue" stroke="midnightblue" points="898.2,-86.97 907,-81.06 896.44,-80.19 898.2,-86.97"/>
</g>
<!-- Node2&#45;&gt;Node15 -->
<g id="edge16" class="edge">
<title>Node2&#45;&gt;Node15</title>
<path fill="none" stroke="midnightblue" d="M507.93,-179.32C535.27,-160.96 599.55,-117.8 637.5,-92.31"/>
<polygon fill="midnightblue" stroke="midnightblue" points="639.73,-95.03 646.08,-86.55 635.83,-89.21 639.73,-95.03"/>
</g>
<!-- Node2&#45;&gt;Node16 -->
<g id="edge17" class="edge">
<title>Node2&#45;&gt;Node16</title>
<path fill="none" stroke="midnightblue" d="M518.12,-179.41C568.84,-160.58 690.72,-115.31 758.51,-90.14"/>
<polygon fill="midnightblue" stroke="midnightblue" points="759.94,-93.34 768.1,-86.58 757.51,-86.78 759.94,-93.34"/>
</g>
<!-- Node2&#45;&gt;Node17 -->
<g id="edge18" class="edge">
<title>Node2&#45;&gt;Node17</title>
<path fill="none" stroke="midnightblue" d="M540.22,-181.54C605.49,-172.22 726.65,-154.91 803.38,-143.95"/>
<polygon fill="midnightblue" stroke="midnightblue" points="804.03,-147.39 813.43,-142.51 803.04,-140.46 804.03,-147.39"/>
</g>
<!-- Node18 -->
<g id="node18" class="node">
<title>Node18</title>
<g id="a_node18"><a xlink:title=" ">
<polygon fill="none" stroke="#bfbfbf" points="77,-123.5 77,-142.5 167,-142.5 167,-123.5 77,-123.5"/>
<text text-anchor="middle" x="122" y="-130.5" font-family="Helvetica,sans-Serif" font-size="10.00">spdlog/fmt/ostr.h</text>
</a>
</g>
</g>
<!-- Node2&#45;&gt;Node18 -->
<g id="edge24" class="edge">
<title>Node2&#45;&gt;Node18</title>
<path fill="none" stroke="midnightblue" d="M449.78,-181.98C389.84,-173.93 280.53,-158.96 177.06,-143.13"/>
<polygon fill="midnightblue" stroke="midnightblue" points="177.48,-139.66 167.07,-141.6 176.42,-146.57 177.48,-139.66"/>
</g>
<!-- Node19 -->
<g id="node19" class="node">
<title>Node19</title>
<g id="a_node19"><a xlink:title=" ">
<polygon fill="none" stroke="#bfbfbf" points="185,-123.5 185,-142.5 239,-142.5 239,-123.5 185,-123.5"/>
<text text-anchor="middle" x="212" y="-130.5" font-family="Helvetica,sans-Serif" font-size="10.00">iostream</text>
</a>
</g>
</g>
<!-- Node2&#45;&gt;Node19 -->
<g id="edge27" class="edge">
<title>Node2&#45;&gt;Node19</title>
<path fill="none" stroke="midnightblue" d="M449.75,-180.66C402.22,-172.75 325.08,-159.34 249.28,-143.17"/>
<polygon fill="midnightblue" stroke="midnightblue" points="249.6,-139.65 239.08,-140.97 248.12,-146.5 249.6,-139.65"/>
</g>
<!-- Node20 -->
<g id="node20" class="node">
<title>Node20</title>
<g id="a_node20"><a xlink:title=" ">
<polygon fill="none" stroke="#bfbfbf" points="257,-123.5 257,-142.5 301,-142.5 301,-123.5 257,-123.5"/>
<text text-anchor="middle" x="279" y="-130.5" font-family="Helvetica,sans-Serif" font-size="10.00">thread</text>
</a>
</g>
</g>
<!-- Node2&#45;&gt;Node20 -->
<g id="edge31" class="edge">
<title>Node2&#45;&gt;Node20</title>
<path fill="none" stroke="midnightblue" d="M460.77,-179.44C419.63,-169.16 351.12,-152.03 310.99,-142"/>
<polygon fill="midnightblue" stroke="midnightblue" points="311.75,-138.58 301.2,-139.55 310.05,-145.37 311.75,-138.58"/>
</g>
<!-- Node3&#45;&gt;Node2 -->
<g id="edge3" class="edge">
<title>Node3&#45;&gt;Node2</title>
<path fill="none" stroke="midnightblue" d="M446.5,-142.75C457.55,-150.64 471.89,-162.43 482.26,-172"/>
<polygon fill="midnightblue" stroke="midnightblue" points="479.97,-174.65 489.6,-179.08 484.84,-169.62 479.97,-174.65"/>
</g>
<!-- Node3&#45;&gt;Node4 -->
<g id="edge4" class="edge">
<title>Node3&#45;&gt;Node4</title>
<path fill="none" stroke="midnightblue" d="M421.69,-123.48C411.55,-114.2 395.14,-99.17 382.75,-87.83"/>
<polygon fill="midnightblue" stroke="midnightblue" points="385.04,-85.18 375.3,-81.01 380.31,-90.34 385.04,-85.18"/>
</g>
<!-- Node3&#45;&gt;Node8 -->
<g id="edge8" class="edge">
<title>Node3&#45;&gt;Node8</title>
<path fill="none" stroke="midnightblue" d="M394.72,-126.35C328.64,-116.06 188.11,-94.17 108.05,-81.7"/>
<polygon fill="midnightblue" stroke="midnightblue" points="108.55,-78.23 98.13,-80.15 107.47,-85.15 108.55,-78.23"/>
</g>
<!-- Node3&#45;&gt;Node9 -->
<g id="edge9" class="edge">
<title>Node3&#45;&gt;Node9</title>
<path fill="none" stroke="midnightblue" d="M410.08,-123.48C385.25,-113.36 343.66,-96.4 315.31,-84.85"/>
<polygon fill="midnightblue" stroke="midnightblue" points="316.46,-81.54 305.88,-81.01 313.82,-88.02 316.46,-81.54"/>
</g>
<!-- Node3&#45;&gt;Node10 -->
<g id="edge10" class="edge">
<title>Node3&#45;&gt;Node10</title>
<path fill="none" stroke="midnightblue" d="M431,-123.48C431,-115.08 431,-101.98 431,-91.16"/>
<polygon fill="midnightblue" stroke="midnightblue" points="434.5,-91.01 431,-81.01 427.5,-91.01 434.5,-91.01"/>
</g>
<!-- Node3&#45;&gt;Node11 -->
<g id="edge11" class="edge">
<title>Node3&#45;&gt;Node11</title>
<path fill="none" stroke="midnightblue" d="M441.6,-123.48C453.25,-114.11 472.19,-98.88 486.33,-87.51"/>
<polygon fill="midnightblue" stroke="midnightblue" points="488.82,-90 494.42,-81.01 484.43,-84.55 488.82,-90"/>
</g>
<!-- Node3&#45;&gt;Node12 -->
<g id="edge12" class="edge">
<title>Node3&#45;&gt;Node12</title>
<path fill="none" stroke="midnightblue" d="M453.5,-123.48C476.25,-114.74 512.33,-100.55 543,-87 544.16,-86.49 545.34,-85.96 546.53,-85.41"/>
<polygon fill="midnightblue" stroke="midnightblue" points="548.08,-88.55 555.64,-81.14 545.1,-82.22 548.08,-88.55"/>
</g>
<!-- Node5 -->
<g id="node5" class="node">
<title>Node5</title>
<g id="a_node5"><a xlink:title=" ">
<polygon fill="none" stroke="#bfbfbf" points="267,-0.5 267,-19.5 323,-19.5 323,-0.5 267,-0.5"/>
<text text-anchor="middle" x="295" y="-7.5" font-family="Helvetica,sans-Serif" font-size="10.00">stdbool.h</text>
</a>
</g>
</g>
<!-- Node4&#45;&gt;Node5 -->
<g id="edge5" class="edge">
<title>Node4&#45;&gt;Node5</title>
<path fill="none" stroke="midnightblue" d="M355.83,-61.98C344.65,-52.61 326.48,-37.38 312.91,-26.01"/>
<polygon fill="midnightblue" stroke="midnightblue" points="315.07,-23.25 305.15,-19.51 310.57,-28.61 315.07,-23.25"/>
</g>
<!-- Node6 -->
<g id="node6" class="node">
<title>Node6</title>
<g id="a_node6"><a xlink:title=" ">
<polygon fill="none" stroke="#bfbfbf" points="341.5,-0.5 341.5,-19.5 390.5,-19.5 390.5,-0.5 341.5,-0.5"/>
<text text-anchor="middle" x="366" y="-7.5" font-family="Helvetica,sans-Serif" font-size="10.00">stdint.h</text>
</a>
</g>
</g>
<!-- Node4&#45;&gt;Node6 -->
<g id="edge6" class="edge">
<title>Node4&#45;&gt;Node6</title>
<path fill="none" stroke="midnightblue" d="M366,-61.98C366,-53.58 366,-40.48 366,-29.66"/>
<polygon fill="midnightblue" stroke="midnightblue" points="369.5,-29.51 366,-19.51 362.5,-29.51 369.5,-29.51"/>
</g>
<!-- Node7 -->
<g id="node7" class="node">
<title>Node7</title>
<g id="a_node7"><a xlink:title=" ">
<polygon fill="none" stroke="#bfbfbf" points="408.5,-0.5 408.5,-19.5 457.5,-19.5 457.5,-0.5 408.5,-0.5"/>
<text text-anchor="middle" x="433" y="-7.5" font-family="Helvetica,sans-Serif" font-size="10.00">string.h</text>
</a>
</g>
</g>
<!-- Node4&#45;&gt;Node7 -->
<g id="edge7" class="edge">
<title>Node4&#45;&gt;Node7</title>
<path fill="none" stroke="midnightblue" d="M375.6,-61.98C386.05,-52.7 402.97,-37.67 415.74,-26.33"/>
<polygon fill="midnightblue" stroke="midnightblue" points="418.27,-28.77 423.42,-19.51 413.62,-23.53 418.27,-28.77"/>
</g>
<!-- Node17&#45;&gt;Node13 -->
<g id="edge19" class="edge">
<title>Node17&#45;&gt;Node13</title>
<path fill="none" stroke="midnightblue" d="M899.36,-123.48C931.34,-113.14 985.38,-95.66 1021.12,-84.1"/>
<polygon fill="midnightblue" stroke="midnightblue" points="1022.25,-87.42 1030.69,-81.01 1020.09,-80.76 1022.25,-87.42"/>
</g>
<!-- Node17&#45;&gt;Node14 -->
<g id="edge20" class="edge">
<title>Node17&#45;&gt;Node14</title>
<path fill="none" stroke="midnightblue" d="M882.6,-123.48C893.05,-114.2 909.97,-99.17 922.74,-87.83"/>
<polygon fill="midnightblue" stroke="midnightblue" points="925.27,-90.27 930.42,-81.01 920.62,-85.03 925.27,-90.27"/>
</g>
<!-- Node17&#45;&gt;Node15 -->
<g id="edge21" class="edge">
<title>Node17&#45;&gt;Node15</title>
<path fill="none" stroke="midnightblue" d="M843.49,-123.48C812.85,-114.63 764.11,-100.55 725.61,-89.43"/>
<polygon fill="midnightblue" stroke="midnightblue" points="726.13,-85.94 715.55,-86.52 724.19,-92.66 726.13,-85.94"/>
</g>
<!-- Node17&#45;&gt;Node16 -->
<g id="edge22" class="edge">
<title>Node17&#45;&gt;Node16</title>
<path fill="none" stroke="midnightblue" d="M863.4,-123.48C854.58,-115.64 841.15,-103.71 829.5,-93.37"/>
<polygon fill="midnightblue" stroke="midnightblue" points="831.59,-90.55 821.79,-86.52 826.94,-95.78 831.59,-90.55"/>
</g>
<!-- Node17&#45;&gt;Node17 -->
<g id="edge23" class="edge">
<title>Node17&#45;&gt;Node17</title>
<path fill="none" stroke="midnightblue" d="M916.45,-142.5C946.25,-145.33 975.5,-142.16 975.5,-133 975.5,-124.88 952.5,-121.47 926.51,-122.77"/>
<polygon fill="midnightblue" stroke="midnightblue" points="926.17,-119.29 916.45,-123.5 926.68,-126.27 926.17,-119.29"/>
</g>
</g>
</svg>
