<?xml version="1.0" encoding="UTF-8" standalone="no"?>
<!DOCTYPE svg PUBLIC "-//W3C//DTD SVG 1.1//EN"
 "http://www.w3.org/Graphics/SVG/1.1/DTD/svg11.dtd">
<!-- Generated by graphviz version 2.49.1 (20210923.0004)
 -->
<!-- Title: src/integrators/rungeKutta4.hpp Pages: 1 -->
<svg width="1270pt" height="330pt"
 viewBox="0.00 0.00 1270.00 330.00" xmlns="http://www.w3.org/2000/svg" xmlns:xlink="http://www.w3.org/1999/xlink">
<g id="graph0" class="graph" transform="scale(1 1) rotate(0) translate(4 326)">
<title>src/integrators/rungeKutta4.hpp</title>
<!-- Node1 -->
<g id="node1" class="node">
<title>Node1</title>
<g id="a_node1"><a xlink:title=" ">
<polygon fill="#bfbfbf" stroke="black" points="635,-302.5 635,-321.5 792,-321.5 792,-302.5 635,-302.5"/>
<text text-anchor="middle" x="713.5" y="-309.5" font-family="Helvetica,sans-Serif" font-size="10.00">src/integrators/rungeKutta4.hpp</text>
</a>
</g>
</g>
<!-- Node2 -->
<g id="node2" class="node">
<title>Node2</title>
<g id="a_node2"><a xlink:href="potentialHydrodynamics_8hpp.html" target="_top" xlink:title=" ">
<polygon fill="none" stroke="black" points="692,-246.5 692,-265.5 835,-265.5 835,-246.5 692,-246.5"/>
<text text-anchor="middle" x="763.5" y="-253.5" font-family="Helvetica,sans-Serif" font-size="10.00">potentialHydrodynamics.hpp</text>
</a>
</g>
</g>
<!-- Node1&#45;&gt;Node2 -->
<g id="edge1" class="edge">
<title>Node1&#45;&gt;Node2</title>
<path fill="none" stroke="midnightblue" d="M721.76,-302.08C728.96,-294.3 739.61,-282.8 748.35,-273.37"/>
<polygon fill="midnightblue" stroke="midnightblue" points="751.17,-275.47 755.4,-265.75 746.03,-270.71 751.17,-275.47"/>
</g>
<!-- Node3 -->
<g id="node3" class="node">
<title>Node3</title>
<g id="a_node3"><a xlink:href="systemData_8hpp.html" target="_top" xlink:title=" ">
<polygon fill="none" stroke="black" points="353,-190.5 353,-209.5 442,-209.5 442,-190.5 353,-190.5"/>
<text text-anchor="middle" x="397.5" y="-197.5" font-family="Helvetica,sans-Serif" font-size="10.00">systemData.hpp</text>
</a>
</g>
</g>
<!-- Node1&#45;&gt;Node3 -->
<g id="edge36" class="edge">
<title>Node1&#45;&gt;Node3</title>
<path fill="none" stroke="midnightblue" d="M634.92,-305.55C587.82,-299.98 527.71,-288.73 478.5,-266 452.57,-254.02 427.72,-231.99 412.54,-216.92"/>
<polygon fill="midnightblue" stroke="midnightblue" points="415.03,-214.46 405.53,-209.77 410.03,-219.36 415.03,-214.46"/>
</g>
<!-- Node9 -->
<g id="node9" class="node">
<title>Node9</title>
<g id="a_node9"><a xlink:title=" ">
<polygon fill="none" stroke="#bfbfbf" points="375.5,-56.5 375.5,-86.5 473.5,-86.5 473.5,-56.5 375.5,-56.5"/>
<text text-anchor="start" x="383.5" y="-74.5" font-family="Helvetica,sans-Serif" font-size="10.00">spdlog/sinks/basic</text>
<text text-anchor="middle" x="424.5" y="-63.5" font-family="Helvetica,sans-Serif" font-size="10.00">_file_sink.h</text>
</a>
</g>
</g>
<!-- Node1&#45;&gt;Node9 -->
<g id="edge42" class="edge">
<title>Node1&#45;&gt;Node9</title>
<path fill="none" stroke="midnightblue" d="M698.35,-302.36C683.65,-293.76 660.92,-279.87 642.5,-266 566.45,-208.73 484.45,-131.14 446.31,-94.02"/>
<polygon fill="midnightblue" stroke="midnightblue" points="448.46,-91.22 438.86,-86.74 443.56,-96.23 448.46,-91.22"/>
</g>
<!-- Node10 -->
<g id="node10" class="node">
<title>Node10</title>
<g id="a_node10"><a xlink:title=" ">
<polygon fill="none" stroke="#bfbfbf" points="0,-62 0,-81 87,-81 87,-62 0,-62"/>
<text text-anchor="middle" x="43.5" y="-69" font-family="Helvetica,sans-Serif" font-size="10.00">spdlog/spdlog.h</text>
</a>
</g>
</g>
<!-- Node1&#45;&gt;Node10 -->
<g id="edge43" class="edge">
<title>Node1&#45;&gt;Node10</title>
<path fill="none" stroke="midnightblue" d="M634.86,-304.03C527.16,-292.78 328.85,-265.98 168.5,-210 116.71,-191.92 91.3,-197.97 58.5,-154 44.89,-135.75 42.37,-108.92 42.44,-91.09"/>
<polygon fill="midnightblue" stroke="midnightblue" points="45.93,-91.19 42.75,-81.08 38.94,-90.97 45.93,-91.19"/>
</g>
<!-- Node14 -->
<g id="node14" class="node">
<title>Node14</title>
<g id="a_node14"><a xlink:title=" ">
<polygon fill="none" stroke="#bfbfbf" points="648,-62 648,-81 747,-81 747,-62 648,-62"/>
<text text-anchor="middle" x="697.5" y="-69" font-family="Helvetica,sans-Serif" font-size="10.00">eigen3/Eigen/Core</text>
</a>
</g>
</g>
<!-- Node1&#45;&gt;Node14 -->
<g id="edge37" class="edge">
<title>Node1&#45;&gt;Node14</title>
<path fill="none" stroke="midnightblue" d="M702.44,-302.24C676.1,-280.56 610.13,-221.24 587.5,-154 583.11,-140.94 580.06,-134.6 587.5,-123 599.94,-103.6 621.92,-91.55 642.98,-84.12"/>
<polygon fill="midnightblue" stroke="midnightblue" points="644.11,-87.43 652.55,-81.02 641.96,-80.77 644.11,-87.43"/>
</g>
<!-- Node15 -->
<g id="node15" class="node">
<title>Node15</title>
<g id="a_node15"><a xlink:title=" ">
<polygon fill="none" stroke="#bfbfbf" points="1072,-62 1072,-81 1175,-81 1175,-62 1072,-62"/>
<text text-anchor="middle" x="1123.5" y="-69" font-family="Helvetica,sans-Serif" font-size="10.00">eigen3/Eigen/Eigen</text>
</a>
</g>
</g>
<!-- Node1&#45;&gt;Node15 -->
<g id="edge38" class="edge">
<title>Node1&#45;&gt;Node15</title>
<path fill="none" stroke="midnightblue" d="M792.27,-304.39C840.48,-298.38 902.65,-287.09 954.5,-266 1029.28,-235.58 1054.61,-222.39 1097.5,-154 1109.8,-134.39 1116.76,-108.45 1120.32,-91.15"/>
<polygon fill="midnightblue" stroke="midnightblue" points="1123.79,-91.67 1122.2,-81.19 1116.91,-90.37 1123.79,-91.67"/>
</g>
<!-- Node16 -->
<g id="node16" class="node">
<title>Node16</title>
<g id="a_node16"><a xlink:title=" ">
<polygon fill="none" stroke="#bfbfbf" points="910,-56.5 910,-86.5 1021,-86.5 1021,-56.5 910,-56.5"/>
<text text-anchor="start" x="918" y="-74.5" font-family="Helvetica,sans-Serif" font-size="10.00">eigen3/unsupported</text>
<text text-anchor="middle" x="965.5" y="-63.5" font-family="Helvetica,sans-Serif" font-size="10.00">/Eigen/CXX11/Tensor</text>
</a>
</g>
</g>
<!-- Node1&#45;&gt;Node16 -->
<g id="edge39" class="edge">
<title>Node1&#45;&gt;Node16</title>
<path fill="none" stroke="midnightblue" d="M788.18,-302.46C872.71,-288.22 1005.88,-250.84 1061.5,-154 1068.36,-142.05 1068.62,-134.79 1061.5,-123 1052.95,-108.85 1038.98,-98.47 1024.31,-90.93"/>
<polygon fill="midnightblue" stroke="midnightblue" points="1025.66,-87.7 1015.12,-86.6 1022.68,-94.03 1025.66,-87.7"/>
</g>
<!-- Node17 -->
<g id="node17" class="node">
<title>Node17</title>
<g id="a_node17"><a xlink:title=" ">
<polygon fill="none" stroke="#bfbfbf" points="597,-123.5 597,-153.5 730,-153.5 730,-123.5 597,-123.5"/>
<text text-anchor="start" x="605" y="-141.5" font-family="Helvetica,sans-Serif" font-size="10.00">eigen3/unsupported</text>
<text text-anchor="middle" x="663.5" y="-130.5" font-family="Helvetica,sans-Serif" font-size="10.00">/Eigen/CXX11/ThreadPool</text>
</a>
</g>
</g>
<!-- Node1&#45;&gt;Node17 -->
<g id="edge40" class="edge">
<title>Node1&#45;&gt;Node17</title>
<path fill="none" stroke="midnightblue" d="M706.05,-302.34C699.06,-293.72 688.9,-279.82 683.5,-266 670.26,-232.11 665.78,-189.87 664.26,-163.79"/>
<polygon fill="midnightblue" stroke="midnightblue" points="667.75,-163.5 663.78,-153.68 660.76,-163.83 667.75,-163.5"/>
</g>
<!-- Node18 -->
<g id="node18" class="node">
<title>Node18</title>
<g id="a_node18"><a xlink:href="helper__eigenTensorConversion_8hpp.html" target="_top" xlink:title=" ">
<polygon fill="none" stroke="black" points="862.5,-129 862.5,-148 1036.5,-148 1036.5,-129 862.5,-129"/>
<text text-anchor="middle" x="949.5" y="-136" font-family="Helvetica,sans-Serif" font-size="10.00">helper_eigenTensorConversion.hpp</text>
</a>
</g>
</g>
<!-- Node1&#45;&gt;Node18 -->
<g id="edge41" class="edge">
<title>Node1&#45;&gt;Node18</title>
<path fill="none" stroke="midnightblue" d="M756.64,-302.48C783.59,-295.7 818.08,-284.24 844.5,-266 887.59,-236.24 922.85,-184.16 939.37,-157.04"/>
<polygon fill="midnightblue" stroke="midnightblue" points="942.48,-158.65 944.58,-148.27 936.47,-155.07 942.48,-158.65"/>
</g>
<!-- Node20 -->
<g id="node20" class="node">
<title>Node20</title>
<g id="a_node20"><a xlink:title=" ">
<polygon fill="none" stroke="#bfbfbf" points="1207,-246.5 1207,-265.5 1262,-265.5 1262,-246.5 1207,-246.5"/>
<text text-anchor="middle" x="1234.5" y="-253.5" font-family="Helvetica,sans-Serif" font-size="10.00">iostream</text>
</a>
</g>
</g>
<!-- Node1&#45;&gt;Node20 -->
<g id="edge44" class="edge">
<title>Node1&#45;&gt;Node20</title>
<path fill="none" stroke="midnightblue" d="M792.26,-306.45C887.46,-300.29 1052.36,-287.52 1192.5,-266 1193.79,-265.8 1195.09,-265.59 1196.41,-265.37"/>
<polygon fill="midnightblue" stroke="midnightblue" points="1197.39,-268.74 1206.57,-263.46 1196.1,-261.86 1197.39,-268.74"/>
</g>
<!-- Node2&#45;&gt;Node3 -->
<g id="edge2" class="edge">
<title>Node2&#45;&gt;Node3</title>
<path fill="none" stroke="midnightblue" d="M705.51,-246.44C636.01,-236.19 520.43,-219.14 452.35,-209.09"/>
<polygon fill="midnightblue" stroke="midnightblue" points="452.66,-205.6 442.26,-207.6 451.64,-212.53 452.66,-205.6"/>
</g>
<!-- Node2&#45;&gt;Node9 -->
<g id="edge34" class="edge">
<title>Node2&#45;&gt;Node9</title>
<path fill="none" stroke="midnightblue" d="M764.94,-246.39C768.32,-222.85 774.11,-156.9 739.5,-123 704.16,-88.39 564.8,-77.49 483.77,-74.07"/>
<polygon fill="midnightblue" stroke="midnightblue" points="483.83,-70.57 473.7,-73.67 483.56,-77.56 483.83,-70.57"/>
</g>
<!-- Node2&#45;&gt;Node10 -->
<g id="edge35" class="edge">
<title>Node2&#45;&gt;Node10</title>
<path fill="none" stroke="midnightblue" d="M691.76,-252.85C537.51,-246.89 180.64,-225.55 86.5,-154 65.85,-138.3 54.1,-109.79 48.27,-90.99"/>
<polygon fill="midnightblue" stroke="midnightblue" points="51.59,-89.88 45.5,-81.22 44.86,-91.8 51.59,-89.88"/>
</g>
<!-- Node2&#45;&gt;Node14 -->
<g id="edge29" class="edge">
<title>Node2&#45;&gt;Node14</title>
<path fill="none" stroke="midnightblue" d="M767.06,-246.32C775.54,-224.21 794.62,-164.57 772.5,-123 763.44,-105.97 745.79,-93.66 729.9,-85.45"/>
<polygon fill="midnightblue" stroke="midnightblue" points="731.35,-82.26 720.82,-81.09 728.32,-88.57 731.35,-82.26"/>
</g>
<!-- Node2&#45;&gt;Node15 -->
<g id="edge30" class="edge">
<title>Node2&#45;&gt;Node15</title>
<path fill="none" stroke="midnightblue" d="M835.06,-253.76C886.4,-250.14 955.73,-239.49 1009.5,-210 1060.8,-181.87 1098.4,-120.52 1114.64,-90.19"/>
<polygon fill="midnightblue" stroke="midnightblue" points="1117.81,-91.68 1119.31,-81.19 1111.6,-88.45 1117.81,-91.68"/>
</g>
<!-- Node2&#45;&gt;Node16 -->
<g id="edge31" class="edge">
<title>Node2&#45;&gt;Node16</title>
<path fill="none" stroke="midnightblue" d="M835.04,-251.47C901.87,-243.91 998.2,-221.18 1045.5,-154 1053.43,-142.73 1052.15,-135.07 1045.5,-123 1038.09,-109.56 1025.43,-99.2 1012.34,-91.47"/>
<polygon fill="midnightblue" stroke="midnightblue" points="1013.73,-88.24 1003.27,-86.53 1010.38,-94.39 1013.73,-88.24"/>
</g>
<!-- Node2&#45;&gt;Node17 -->
<g id="edge32" class="edge">
<title>Node2&#45;&gt;Node17</title>
<path fill="none" stroke="midnightblue" d="M755.98,-246.32C740.49,-228.42 704.6,-186.97 682.36,-161.28"/>
<polygon fill="midnightblue" stroke="midnightblue" points="684.85,-158.81 675.66,-153.55 679.56,-163.4 684.85,-158.81"/>
</g>
<!-- Node2&#45;&gt;Node18 -->
<g id="edge33" class="edge">
<title>Node2&#45;&gt;Node18</title>
<path fill="none" stroke="midnightblue" d="M781.1,-246.47C798.54,-237.84 825.84,-223.83 848.5,-210 877.78,-192.12 910.03,-168.96 930.02,-154.17"/>
<polygon fill="midnightblue" stroke="midnightblue" points="932.37,-156.78 938.29,-148 928.18,-151.17 932.37,-156.78"/>
</g>
<!-- Node4 -->
<g id="node4" class="node">
<title>Node4</title>
<g id="a_node4"><a xlink:href="GSDUtil_8hpp.html" target="_top" xlink:title=" ">
<polygon fill="none" stroke="black" points="176.5,-129 176.5,-148 248.5,-148 248.5,-129 176.5,-129"/>
<text text-anchor="middle" x="212.5" y="-136" font-family="Helvetica,sans-Serif" font-size="10.00">GSDUtil.hpp</text>
</a>
</g>
</g>
<!-- Node3&#45;&gt;Node4 -->
<g id="edge3" class="edge">
<title>Node3&#45;&gt;Node4</title>
<path fill="none" stroke="midnightblue" d="M366.09,-190.48C331.84,-180.18 277.63,-162.81 243.53,-151.25"/>
<polygon fill="midnightblue" stroke="midnightblue" points="244.65,-147.94 234.06,-148.01 242.39,-154.56 244.65,-147.94"/>
</g>
<!-- Node5 -->
<g id="node5" class="node">
<title>Node5</title>
<g id="a_node5"><a xlink:href="gsd_8h.html" target="_top" xlink:title="Declare GSD data types and C API.">
<polygon fill="none" stroke="black" points="107,-62 107,-81 148,-81 148,-62 107,-62"/>
<text text-anchor="middle" x="127.5" y="-69" font-family="Helvetica,sans-Serif" font-size="10.00">gsd.h</text>
</a>
</g>
</g>
<!-- Node3&#45;&gt;Node5 -->
<g id="edge14" class="edge">
<title>Node3&#45;&gt;Node5</title>
<path fill="none" stroke="midnightblue" d="M352.78,-195.84C291.68,-190.67 186.4,-178.42 157.5,-154 138.91,-138.29 131.84,-109.99 129.15,-91.22"/>
<polygon fill="midnightblue" stroke="midnightblue" points="132.62,-90.74 128,-81.2 125.66,-91.54 132.62,-90.74"/>
</g>
<!-- Node3&#45;&gt;Node9 -->
<g id="edge15" class="edge">
<title>Node3&#45;&gt;Node9</title>
<path fill="none" stroke="midnightblue" d="M399.36,-190.31C403.41,-171.3 413.19,-125.47 419.29,-96.9"/>
<polygon fill="midnightblue" stroke="midnightblue" points="422.76,-97.4 421.43,-86.89 415.92,-95.94 422.76,-97.4"/>
</g>
<!-- Node3&#45;&gt;Node10 -->
<g id="edge16" class="edge">
<title>Node3&#45;&gt;Node10</title>
<path fill="none" stroke="midnightblue" d="M352.69,-198.89C298.23,-197.11 204.8,-188.65 133.5,-154 101.44,-138.42 72.46,-107.86 56.49,-88.91"/>
<polygon fill="midnightblue" stroke="midnightblue" points="59.14,-86.63 50.1,-81.12 53.73,-91.07 59.14,-86.63"/>
</g>
<!-- Node11 -->
<g id="node11" class="node">
<title>Node11</title>
<g id="a_node11"><a xlink:title=" ">
<polygon fill="none" stroke="#bfbfbf" points="167,-62 167,-81 220,-81 220,-62 167,-62"/>
<text text-anchor="middle" x="193.5" y="-69" font-family="Helvetica,sans-Serif" font-size="10.00">memory</text>
</a>
</g>
</g>
<!-- Node3&#45;&gt;Node11 -->
<g id="edge25" class="edge">
<title>Node3&#45;&gt;Node11</title>
<path fill="none" stroke="midnightblue" d="M352.87,-196.8C292.72,-192.79 190.52,-181.96 167.5,-154 152.07,-135.25 166.95,-107.21 179.72,-89.39"/>
<polygon fill="midnightblue" stroke="midnightblue" points="182.76,-91.18 186.04,-81.11 177.19,-86.94 182.76,-91.18"/>
</g>
<!-- Node12 -->
<g id="node12" class="node">
<title>Node12</title>
<g id="a_node12"><a xlink:title=" ">
<polygon fill="none" stroke="#bfbfbf" points="239,-62 239,-81 298,-81 298,-62 239,-62"/>
<text text-anchor="middle" x="268.5" y="-69" font-family="Helvetica,sans-Serif" font-size="10.00">stdexcept</text>
</a>
</g>
</g>
<!-- Node3&#45;&gt;Node12 -->
<g id="edge26" class="edge">
<title>Node3&#45;&gt;Node12</title>
<path fill="none" stroke="midnightblue" d="M359.5,-190.41C338.06,-183.76 312.29,-172.48 295.5,-154 279.64,-136.54 273.07,-109.53 270.36,-91.44"/>
<polygon fill="midnightblue" stroke="midnightblue" points="273.81,-90.76 269.11,-81.26 266.86,-91.62 273.81,-90.76"/>
</g>
<!-- Node13 -->
<g id="node13" class="node">
<title>Node13</title>
<g id="a_node13"><a xlink:title=" ">
<polygon fill="none" stroke="#bfbfbf" points="316,-62 316,-81 357,-81 357,-62 316,-62"/>
<text text-anchor="middle" x="336.5" y="-69" font-family="Helvetica,sans-Serif" font-size="10.00">string</text>
</a>
</g>
</g>
<!-- Node3&#45;&gt;Node13 -->
<g id="edge27" class="edge">
<title>Node3&#45;&gt;Node13</title>
<path fill="none" stroke="midnightblue" d="M393.31,-190.31C383.43,-169.81 358.51,-118.15 345.2,-90.54"/>
<polygon fill="midnightblue" stroke="midnightblue" points="348.22,-88.74 340.72,-81.26 341.91,-91.78 348.22,-88.74"/>
</g>
<!-- Node3&#45;&gt;Node14 -->
<g id="edge17" class="edge">
<title>Node3&#45;&gt;Node14</title>
<path fill="none" stroke="midnightblue" d="M408.35,-190.48C428.55,-175.01 473.75,-142.1 516.5,-123 557.34,-104.75 606.35,-91.56 643.07,-83.25"/>
<polygon fill="midnightblue" stroke="midnightblue" points="644.07,-86.61 653.08,-81.04 642.56,-79.78 644.07,-86.61"/>
</g>
<!-- Node3&#45;&gt;Node15 -->
<g id="edge18" class="edge">
<title>Node3&#45;&gt;Node15</title>
<path fill="none" stroke="midnightblue" d="M442.09,-195.07C507.67,-188.85 633.81,-175.22 739.5,-154 790.98,-143.66 802.32,-134.73 853.5,-123 924.61,-106.71 1007.15,-91.86 1062.06,-82.54"/>
<polygon fill="midnightblue" stroke="midnightblue" points="1062.71,-85.98 1071.99,-80.86 1061.54,-79.08 1062.71,-85.98"/>
</g>
<!-- Node3&#45;&gt;Node16 -->
<g id="edge19" class="edge">
<title>Node3&#45;&gt;Node16</title>
<path fill="none" stroke="midnightblue" d="M417.99,-190.47C463.48,-171.58 570.28,-127.52 587.5,-123 694.69,-94.87 823.3,-81.94 899.5,-76.35"/>
<polygon fill="midnightblue" stroke="midnightblue" points="900.17,-79.81 909.9,-75.61 899.67,-72.83 900.17,-79.81"/>
</g>
<!-- Node3&#45;&gt;Node17 -->
<g id="edge20" class="edge">
<title>Node3&#45;&gt;Node17</title>
<path fill="none" stroke="midnightblue" d="M435.61,-190.48C476.01,-181.44 540.79,-166.95 590.98,-155.72"/>
<polygon fill="midnightblue" stroke="midnightblue" points="591.81,-159.12 600.81,-153.52 590.29,-152.29 591.81,-159.12"/>
</g>
<!-- Node3&#45;&gt;Node18 -->
<g id="edge21" class="edge">
<title>Node3&#45;&gt;Node18</title>
<path fill="none" stroke="midnightblue" d="M442.2,-194.18C532.98,-184.4 740.43,-162.04 860.03,-149.14"/>
<polygon fill="midnightblue" stroke="midnightblue" points="860.69,-152.59 870.26,-148.04 859.94,-145.63 860.69,-152.59"/>
</g>
<!-- Node19 -->
<g id="node19" class="node">
<title>Node19</title>
<g id="a_node19"><a xlink:title=" ">
<polygon fill="none" stroke="#bfbfbf" points="305,-129 305,-148 350,-148 350,-129 305,-129"/>
<text text-anchor="middle" x="327.5" y="-136" font-family="Helvetica,sans-Serif" font-size="10.00">thread</text>
</a>
</g>
</g>
<!-- Node3&#45;&gt;Node19 -->
<g id="edge28" class="edge">
<title>Node3&#45;&gt;Node19</title>
<path fill="none" stroke="midnightblue" d="M387.47,-190.48C376.45,-181.11 358.54,-165.88 345.16,-154.51"/>
<polygon fill="midnightblue" stroke="midnightblue" points="347.4,-151.82 337.51,-148.01 342.86,-157.15 347.4,-151.82"/>
</g>
<!-- Node4&#45;&gt;Node3 -->
<g id="edge8" class="edge">
<title>Node4&#45;&gt;Node3</title>
<path fill="none" stroke="midnightblue" d="M243.85,-148.01C278.09,-158.3 332.3,-175.67 366.42,-187.23"/>
<polygon fill="midnightblue" stroke="midnightblue" points="365.3,-190.55 375.89,-190.48 367.57,-183.93 365.3,-190.55"/>
</g>
<!-- Node4&#45;&gt;Node5 -->
<g id="edge4" class="edge">
<title>Node4&#45;&gt;Node5</title>
<path fill="none" stroke="midnightblue" d="M201.04,-128.73C187.14,-118.11 163.52,-100.05 146.81,-87.26"/>
<polygon fill="midnightblue" stroke="midnightblue" points="148.85,-84.42 138.78,-81.13 144.6,-89.98 148.85,-84.42"/>
</g>
<!-- Node4&#45;&gt;Node9 -->
<g id="edge9" class="edge">
<title>Node4&#45;&gt;Node9</title>
<path fill="none" stroke="midnightblue" d="M240.65,-128.87C273.29,-118.86 327.87,-102.13 369.11,-89.48"/>
<polygon fill="midnightblue" stroke="midnightblue" points="370.21,-92.81 378.75,-86.53 368.16,-86.11 370.21,-92.81"/>
</g>
<!-- Node4&#45;&gt;Node10 -->
<g id="edge10" class="edge">
<title>Node4&#45;&gt;Node10</title>
<path fill="none" stroke="midnightblue" d="M190.06,-128.87C160.68,-117.57 109.01,-97.7 75.53,-84.82"/>
<polygon fill="midnightblue" stroke="midnightblue" points="76.36,-81.39 65.77,-81.06 73.84,-87.92 76.36,-81.39"/>
</g>
<!-- Node4&#45;&gt;Node11 -->
<g id="edge11" class="edge">
<title>Node4&#45;&gt;Node11</title>
<path fill="none" stroke="midnightblue" d="M209.94,-128.73C207.12,-119.09 202.5,-103.3 198.88,-90.91"/>
<polygon fill="midnightblue" stroke="midnightblue" points="202.19,-89.74 196.02,-81.13 195.47,-91.71 202.19,-89.74"/>
</g>
<!-- Node4&#45;&gt;Node12 -->
<g id="edge12" class="edge">
<title>Node4&#45;&gt;Node12</title>
<path fill="none" stroke="midnightblue" d="M220.05,-128.73C228.78,-118.6 243.35,-101.69 254.24,-89.06"/>
<polygon fill="midnightblue" stroke="midnightblue" points="257.19,-90.99 261.07,-81.13 251.89,-86.42 257.19,-90.99"/>
</g>
<!-- Node4&#45;&gt;Node13 -->
<g id="edge13" class="edge">
<title>Node4&#45;&gt;Node13</title>
<path fill="none" stroke="midnightblue" d="M228.97,-128.87C249.9,-117.89 286.28,-98.82 310.86,-85.94"/>
<polygon fill="midnightblue" stroke="midnightblue" points="312.73,-88.91 319.97,-81.17 309.48,-82.71 312.73,-88.91"/>
</g>
<!-- Node6 -->
<g id="node6" class="node">
<title>Node6</title>
<g id="a_node6"><a xlink:title=" ">
<polygon fill="none" stroke="#bfbfbf" points="28,-0.5 28,-19.5 85,-19.5 85,-0.5 28,-0.5"/>
<text text-anchor="middle" x="56.5" y="-7.5" font-family="Helvetica,sans-Serif" font-size="10.00">stdbool.h</text>
</a>
</g>
</g>
<!-- Node5&#45;&gt;Node6 -->
<g id="edge5" class="edge">
<title>Node5&#45;&gt;Node6</title>
<path fill="none" stroke="midnightblue" d="M117.33,-61.98C106.15,-52.61 87.98,-37.38 74.41,-26.01"/>
<polygon fill="midnightblue" stroke="midnightblue" points="76.57,-23.25 66.65,-19.51 72.07,-28.61 76.57,-23.25"/>
</g>
<!-- Node7 -->
<g id="node7" class="node">
<title>Node7</title>
<g id="a_node7"><a xlink:title=" ">
<polygon fill="none" stroke="#bfbfbf" points="103,-0.5 103,-19.5 152,-19.5 152,-0.5 103,-0.5"/>
<text text-anchor="middle" x="127.5" y="-7.5" font-family="Helvetica,sans-Serif" font-size="10.00">stdint.h</text>
</a>
</g>
</g>
<!-- Node5&#45;&gt;Node7 -->
<g id="edge6" class="edge">
<title>Node5&#45;&gt;Node7</title>
<path fill="none" stroke="midnightblue" d="M127.5,-61.98C127.5,-53.58 127.5,-40.48 127.5,-29.66"/>
<polygon fill="midnightblue" stroke="midnightblue" points="131,-29.51 127.5,-19.51 124,-29.51 131,-29.51"/>
</g>
<!-- Node8 -->
<g id="node8" class="node">
<title>Node8</title>
<g id="a_node8"><a xlink:title=" ">
<polygon fill="none" stroke="#bfbfbf" points="170,-0.5 170,-19.5 219,-19.5 219,-0.5 170,-0.5"/>
<text text-anchor="middle" x="194.5" y="-7.5" font-family="Helvetica,sans-Serif" font-size="10.00">string.h</text>
</a>
</g>
</g>
<!-- Node5&#45;&gt;Node8 -->
<g id="edge7" class="edge">
<title>Node5&#45;&gt;Node8</title>
<path fill="none" stroke="midnightblue" d="M137.1,-61.98C147.55,-52.7 164.47,-37.67 177.24,-26.33"/>
<polygon fill="midnightblue" stroke="midnightblue" points="179.77,-28.77 184.92,-19.51 175.12,-23.53 179.77,-28.77"/>
</g>
<!-- Node18&#45;&gt;Node14 -->
<g id="edge22" class="edge">
<title>Node18&#45;&gt;Node14</title>
<path fill="none" stroke="midnightblue" d="M916.3,-128.94C871.16,-117.29 790.37,-96.45 740.6,-83.62"/>
<polygon fill="midnightblue" stroke="midnightblue" points="741.33,-80.19 730.78,-81.08 739.59,-86.97 741.33,-80.19"/>
</g>
<!-- Node18&#45;&gt;Node15 -->
<g id="edge23" class="edge">
<title>Node18&#45;&gt;Node15</title>
<path fill="none" stroke="midnightblue" d="M972.61,-128.87C1002.98,-117.52 1056.51,-97.52 1090.97,-84.65"/>
<polygon fill="midnightblue" stroke="midnightblue" points="1092.43,-87.84 1100.58,-81.06 1089.98,-81.28 1092.43,-87.84"/>
</g>
<!-- Node18&#45;&gt;Node16 -->
<g id="edge24" class="edge">
<title>Node18&#45;&gt;Node16</title>
<path fill="none" stroke="midnightblue" d="M951.66,-128.73C953.7,-120.46 956.84,-107.66 959.62,-96.37"/>
<polygon fill="midnightblue" stroke="midnightblue" points="963.04,-97.14 962.03,-86.59 956.24,-95.46 963.04,-97.14"/>
</g>
</g>
</svg>
