<?xml version="1.0" encoding="UTF-8" standalone="no"?>
<!DOCTYPE svg PUBLIC "-//W3C//DTD SVG 1.1//EN"
 "http://www.w3.org/Graphics/SVG/1.1/DTD/svg11.dtd">
<!-- Generated by graphviz version 2.43.0 (0)
 -->
<!-- Title: src/integrators/RungeKutta4.hpp Pages: 1 -->
<svg width="436pt" height="162pt"
 viewBox="0.00 0.00 435.50 162.00" xmlns="http://www.w3.org/2000/svg" xmlns:xlink="http://www.w3.org/1999/xlink">
<g id="graph0" class="graph" transform="scale(1 1) rotate(0) translate(4 158)">
<title>src/integrators/RungeKutta4.hpp</title>
<!-- Node1 -->
<g id="node1" class="node">
<title>Node1</title>
<g id="a_node1"><a xlink:title=" ">
<polygon fill="#bfbfbf" stroke="black" points="77,-134.5 77,-153.5 235,-153.5 235,-134.5 77,-134.5"/>
<text text-anchor="middle" x="156" y="-141.5" font-family="Helvetica,sans-Serif" font-size="10.00">src/integrators/RungeKutta4.hpp</text>
</a>
</g>
</g>
<!-- Node2 -->
<g id="node2" class="node">
<title>Node2</title>
<g id="a_node2"><a xlink:href="RungeKutta4_8cpp.html" target="_top" xlink:title=" ">
<polygon fill="none" stroke="black" points="0,-73 0,-92 158,-92 158,-73 0,-73"/>
<text text-anchor="middle" x="79" y="-80" font-family="Helvetica,sans-Serif" font-size="10.00">src/integrators/RungeKutta4.cpp</text>
</a>
</g>
</g>
<!-- Node1&#45;&gt;Node2 -->
<g id="edge1" class="edge">
<title>Node1&#45;&gt;Node2</title>
<path fill="none" stroke="midnightblue" d="M136.97,-128.29C122.2,-116.88 102.24,-101.46 90.01,-92.01"/>
<polygon fill="midnightblue" stroke="midnightblue" points="134.91,-131.13 144.97,-134.48 139.19,-125.59 134.91,-131.13"/>
</g>
<!-- Node3 -->
<g id="node3" class="node">
<title>Node3</title>
<g id="a_node3"><a xlink:href="Engine_8hpp.html" target="_top" xlink:title=" ">
<polygon fill="none" stroke="black" points="175.5,-67.5 175.5,-97.5 290.5,-97.5 290.5,-67.5 175.5,-67.5"/>
<text text-anchor="start" x="183.5" y="-85.5" font-family="Helvetica,sans-Serif" font-size="10.00">src/simulation_system</text>
<text text-anchor="middle" x="233" y="-74.5" font-family="Helvetica,sans-Serif" font-size="10.00">/Engine.hpp</text>
</a>
</g>
</g>
<!-- Node1&#45;&gt;Node3 -->
<g id="edge2" class="edge">
<title>Node1&#45;&gt;Node3</title>
<path fill="none" stroke="midnightblue" d="M175.16,-128.2C187.3,-118.81 202.91,-106.75 214.85,-97.52"/>
<polygon fill="midnightblue" stroke="midnightblue" points="172.81,-125.59 167.03,-134.48 177.09,-131.13 172.81,-125.59"/>
</g>
<!-- Node4 -->
<g id="node4" class="node">
<title>Node4</title>
<g id="a_node4"><a xlink:href="main_8cpp.html" target="_top" xlink:title=" ">
<polygon fill="none" stroke="black" points="84.5,-6 84.5,-25 157.5,-25 157.5,-6 84.5,-6"/>
<text text-anchor="middle" x="121" y="-13" font-family="Helvetica,sans-Serif" font-size="10.00">src/main.cpp</text>
</a>
</g>
</g>
<!-- Node3&#45;&gt;Node4 -->
<g id="edge3" class="edge">
<title>Node3&#45;&gt;Node4</title>
<path fill="none" stroke="midnightblue" d="M199.93,-62.31C178.59,-49.93 151.89,-34.43 135.66,-25.01"/>
<polygon fill="midnightblue" stroke="midnightblue" points="198.29,-65.4 208.7,-67.4 201.81,-59.35 198.29,-65.4"/>
</g>
<!-- Node5 -->
<g id="node5" class="node">
<title>Node5</title>
<g id="a_node5"><a xlink:href="Engine_8cpp.html" target="_top" xlink:title=" ">
<polygon fill="none" stroke="black" points="175.5,-0.5 175.5,-30.5 290.5,-30.5 290.5,-0.5 175.5,-0.5"/>
<text text-anchor="start" x="183.5" y="-18.5" font-family="Helvetica,sans-Serif" font-size="10.00">src/simulation_system</text>
<text text-anchor="middle" x="233" y="-7.5" font-family="Helvetica,sans-Serif" font-size="10.00">/Engine.cpp</text>
</a>
</g>
</g>
<!-- Node3&#45;&gt;Node5 -->
<g id="edge4" class="edge">
<title>Node3&#45;&gt;Node5</title>
<path fill="none" stroke="midnightblue" d="M233,-57.11C233,-48.15 233,-38.32 233,-30.58"/>
<polygon fill="midnightblue" stroke="midnightblue" points="229.5,-57.4 233,-67.4 236.5,-57.4 229.5,-57.4"/>
</g>
<!-- Node6 -->
<g id="node6" class="node">
<title>Node6</title>
<g id="a_node6"><a xlink:href="TestSimulation_8cpp.html" target="_top" xlink:title=" ">
<polygon fill="none" stroke="black" points="308.5,-6 308.5,-25 427.5,-25 427.5,-6 308.5,-6"/>
<text text-anchor="middle" x="368" y="-13" font-family="Helvetica,sans-Serif" font-size="10.00">test/TestSimulation.cpp</text>
</a>
</g>
</g>
<!-- Node3&#45;&gt;Node6 -->
<g id="edge5" class="edge">
<title>Node3&#45;&gt;Node6</title>
<path fill="none" stroke="midnightblue" d="M271.49,-62.97C297.42,-50.48 330.41,-34.6 350.33,-25.01"/>
<polygon fill="midnightblue" stroke="midnightblue" points="269.78,-59.9 262.29,-67.4 272.82,-66.21 269.78,-59.9"/>
</g>
</g>
</svg>
