<?xml version="1.0" encoding="UTF-8" standalone="no"?>
<!DOCTYPE svg PUBLIC "-//W3C//DTD SVG 1.1//EN"
 "http://www.w3.org/Graphics/SVG/1.1/DTD/svg11.dtd">
<!-- Generated by graphviz version 2.43.0 (0)
 -->
<!-- Title: src/integrators/RungeKutta4.cpp Pages: 1 -->
<svg width="1233pt" height="375pt"
 viewBox="0.00 0.00 1232.50 375.00" xmlns="http://www.w3.org/2000/svg" xmlns:xlink="http://www.w3.org/1999/xlink">
<g id="graph0" class="graph" transform="scale(1 1) rotate(0) translate(4 371)">
<title>src/integrators/RungeKutta4.cpp</title>
<!-- Node1 -->
<g id="node1" class="node">
<title>Node1</title>
<g id="a_node1"><a xlink:title=" ">
<polygon fill="#bfbfbf" stroke="black" points="853.5,-347.5 853.5,-366.5 1011.5,-366.5 1011.5,-347.5 853.5,-347.5"/>
<text text-anchor="middle" x="932.5" y="-354.5" font-family="Helvetica,sans-Serif" font-size="10.00">src/integrators/RungeKutta4.cpp</text>
</a>
</g>
</g>
<!-- Node2 -->
<g id="node2" class="node">
<title>Node2</title>
<g id="a_node2"><a xlink:href="RungeKutta4_8hpp.html" target="_top" xlink:title=" ">
<polygon fill="none" stroke="black" points="886.5,-291.5 886.5,-310.5 978.5,-310.5 978.5,-291.5 886.5,-291.5"/>
<text text-anchor="middle" x="932.5" y="-298.5" font-family="Helvetica,sans-Serif" font-size="10.00">RungeKutta4.hpp</text>
</a>
</g>
</g>
<!-- Node1&#45;&gt;Node2 -->
<g id="edge1" class="edge">
<title>Node1&#45;&gt;Node2</title>
<path fill="none" stroke="midnightblue" d="M932.5,-347.08C932.5,-340.01 932.5,-329.86 932.5,-320.99"/>
<polygon fill="midnightblue" stroke="midnightblue" points="936,-320.75 932.5,-310.75 929,-320.75 936,-320.75"/>
</g>
<!-- Node3 -->
<g id="node3" class="node">
<title>Node3</title>
<g id="a_node3"><a xlink:href="PotentialHydrodynamics_8hpp.html" target="_top" xlink:title=" ">
<polygon fill="none" stroke="black" points="777.5,-235.5 777.5,-254.5 919.5,-254.5 919.5,-235.5 777.5,-235.5"/>
<text text-anchor="middle" x="848.5" y="-242.5" font-family="Helvetica,sans-Serif" font-size="10.00">PotentialHydrodynamics.hpp</text>
</a>
</g>
</g>
<!-- Node2&#45;&gt;Node3 -->
<g id="edge2" class="edge">
<title>Node2&#45;&gt;Node3</title>
<path fill="none" stroke="midnightblue" d="M919,-291.32C905.9,-282.9 885.79,-269.97 870.39,-260.07"/>
<polygon fill="midnightblue" stroke="midnightblue" points="872.27,-257.12 861.96,-254.65 868.48,-263.01 872.27,-257.12"/>
</g>
<!-- Node4 -->
<g id="node4" class="node">
<title>Node4</title>
<g id="a_node4"><a xlink:href="SystemData_8hpp.html" target="_top" xlink:title=" ">
<polygon fill="none" stroke="black" points="444.5,-179.5 444.5,-198.5 534.5,-198.5 534.5,-179.5 444.5,-179.5"/>
<text text-anchor="middle" x="489.5" y="-186.5" font-family="Helvetica,sans-Serif" font-size="10.00">SystemData.hpp</text>
</a>
</g>
</g>
<!-- Node2&#45;&gt;Node4 -->
<g id="edge41" class="edge">
<title>Node2&#45;&gt;Node4</title>
<path fill="none" stroke="midnightblue" d="M886.29,-300.35C818.94,-299.44 690.78,-292.36 589.5,-255 558,-243.38 526.28,-220.4 507.26,-205.11"/>
<polygon fill="midnightblue" stroke="midnightblue" points="509.41,-202.35 499.46,-198.7 504.96,-207.75 509.41,-202.35"/>
</g>
<!-- Node10 -->
<g id="node10" class="node">
<title>Node10</title>
<g id="a_node10"><a xlink:title=" ">
<polygon fill="none" stroke="#bfbfbf" points="516.5,-56.5 516.5,-86.5 614.5,-86.5 614.5,-56.5 516.5,-56.5"/>
<text text-anchor="start" x="524.5" y="-74.5" font-family="Helvetica,sans-Serif" font-size="10.00">spdlog/sinks/basic</text>
<text text-anchor="middle" x="565.5" y="-63.5" font-family="Helvetica,sans-Serif" font-size="10.00">_file_sink.h</text>
</a>
</g>
</g>
<!-- Node2&#45;&gt;Node10 -->
<g id="edge47" class="edge">
<title>Node2&#45;&gt;Node10</title>
<path fill="none" stroke="midnightblue" d="M886.41,-295.25C848.51,-289.8 794.41,-278.39 752.5,-255 677.56,-213.17 611.25,-133.49 581.75,-94.75"/>
<polygon fill="midnightblue" stroke="midnightblue" points="584.5,-92.59 575.7,-86.7 578.91,-96.8 584.5,-92.59"/>
</g>
<!-- Node11 -->
<g id="node11" class="node">
<title>Node11</title>
<g id="a_node11"><a xlink:title=" ">
<polygon fill="none" stroke="#bfbfbf" points="0,-62 0,-81 85,-81 85,-62 0,-62"/>
<text text-anchor="middle" x="42.5" y="-69" font-family="Helvetica,sans-Serif" font-size="10.00">spdlog/spdlog.h</text>
</a>
</g>
</g>
<!-- Node2&#45;&gt;Node11 -->
<g id="edge48" class="edge">
<title>Node2&#45;&gt;Node11</title>
<path fill="none" stroke="midnightblue" d="M886.5,-298.04C770.98,-292.17 460.22,-270.43 212.5,-199 150.48,-181.12 125.85,-186.87 78.5,-143 63.1,-128.73 53.26,-106.39 47.83,-90.69"/>
<polygon fill="midnightblue" stroke="midnightblue" points="51.13,-89.53 44.76,-81.06 44.46,-91.65 51.13,-89.53"/>
</g>
<!-- Node15 -->
<g id="node15" class="node">
<title>Node15</title>
<g id="a_node15"><a xlink:title=" ">
<polygon fill="none" stroke="#bfbfbf" points="708,-62 708,-81 805,-81 805,-62 708,-62"/>
<text text-anchor="middle" x="756.5" y="-69" font-family="Helvetica,sans-Serif" font-size="10.00">eigen3/Eigen/Core</text>
</a>
</g>
</g>
<!-- Node2&#45;&gt;Node15 -->
<g id="edge42" class="edge">
<title>Node2&#45;&gt;Node15</title>
<path fill="none" stroke="midnightblue" d="M886.1,-293.35C843.01,-286.14 783.34,-273.19 768.5,-255 729.57,-207.29 742.74,-127.13 751.41,-91.06"/>
<polygon fill="midnightblue" stroke="midnightblue" points="754.8,-91.93 753.89,-81.37 748.02,-90.19 754.8,-91.93"/>
</g>
<!-- Node16 -->
<g id="node16" class="node">
<title>Node16</title>
<g id="a_node16"><a xlink:title=" ">
<polygon fill="none" stroke="#bfbfbf" points="994,-62 994,-81 1095,-81 1095,-62 994,-62"/>
<text text-anchor="middle" x="1044.5" y="-69" font-family="Helvetica,sans-Serif" font-size="10.00">eigen3/Eigen/Eigen</text>
</a>
</g>
</g>
<!-- Node2&#45;&gt;Node16 -->
<g id="edge43" class="edge">
<title>Node2&#45;&gt;Node16</title>
<path fill="none" stroke="midnightblue" d="M965.72,-291.42C988.47,-284.35 1018.42,-272.59 1040.5,-255 1064.42,-235.94 1071.17,-228.13 1080.5,-199 1092.93,-160.22 1070.57,-114.09 1055.86,-89.66"/>
<polygon fill="midnightblue" stroke="midnightblue" points="1058.8,-87.75 1050.51,-81.15 1052.87,-91.48 1058.8,-87.75"/>
</g>
<!-- Node17 -->
<g id="node17" class="node">
<title>Node17</title>
<g id="a_node17"><a xlink:title=" ">
<polygon fill="none" stroke="#bfbfbf" points="1114.5,-56.5 1114.5,-86.5 1224.5,-86.5 1224.5,-56.5 1114.5,-56.5"/>
<text text-anchor="start" x="1122.5" y="-74.5" font-family="Helvetica,sans-Serif" font-size="10.00">eigen3/unsupported</text>
<text text-anchor="middle" x="1169.5" y="-63.5" font-family="Helvetica,sans-Serif" font-size="10.00">/Eigen/CXX11/Tensor</text>
</a>
</g>
</g>
<!-- Node2&#45;&gt;Node17 -->
<g id="edge44" class="edge">
<title>Node2&#45;&gt;Node17</title>
<path fill="none" stroke="midnightblue" d="M978.66,-292.71C1006.02,-286.47 1040.01,-275.16 1064.5,-255 1116.87,-211.9 1148.49,-135.4 1161.92,-96.56"/>
<polygon fill="midnightblue" stroke="midnightblue" points="1165.38,-97.26 1165.23,-86.66 1158.74,-95.04 1165.38,-97.26"/>
</g>
<!-- Node18 -->
<g id="node18" class="node">
<title>Node18</title>
<g id="a_node18"><a xlink:title=" ">
<polygon fill="none" stroke="#bfbfbf" points="843,-56.5 843,-86.5 974,-86.5 974,-56.5 843,-56.5"/>
<text text-anchor="start" x="851" y="-74.5" font-family="Helvetica,sans-Serif" font-size="10.00">eigen3/unsupported</text>
<text text-anchor="middle" x="908.5" y="-63.5" font-family="Helvetica,sans-Serif" font-size="10.00">/Eigen/CXX11/ThreadPool</text>
</a>
</g>
</g>
<!-- Node2&#45;&gt;Node18 -->
<g id="edge45" class="edge">
<title>Node2&#45;&gt;Node18</title>
<path fill="none" stroke="midnightblue" d="M956.27,-291.48C974.61,-284.01 999.76,-271.72 1017.5,-255 1061.92,-213.12 1090.97,-172.69 1055.5,-123 1046.19,-109.96 1013.91,-98.16 981.95,-89.24"/>
<polygon fill="midnightblue" stroke="midnightblue" points="982.64,-85.8 972.07,-86.57 980.81,-92.56 982.64,-85.8"/>
</g>
<!-- Node19 -->
<g id="node19" class="node">
<title>Node19</title>
<g id="a_node19"><a xlink:href="helper__eigenTensorConversion_8hpp.html" target="_top" xlink:title=" ">
<polygon fill="none" stroke="black" points="859,-123.5 859,-142.5 1028,-142.5 1028,-123.5 859,-123.5"/>
<text text-anchor="middle" x="943.5" y="-130.5" font-family="Helvetica,sans-Serif" font-size="10.00">helper_eigenTensorConversion.hpp</text>
</a>
</g>
</g>
<!-- Node2&#45;&gt;Node19 -->
<g id="edge46" class="edge">
<title>Node2&#45;&gt;Node19</title>
<path fill="none" stroke="midnightblue" d="M947.17,-291.42C971.3,-276.33 1018.49,-242.48 1036.5,-199 1047.23,-173.08 1017.25,-155.89 988.53,-145.73"/>
<polygon fill="midnightblue" stroke="midnightblue" points="989.49,-142.36 978.89,-142.55 987.29,-149.01 989.49,-142.36"/>
</g>
<!-- Node22 -->
<g id="node22" class="node">
<title>Node22</title>
<g id="a_node22"><a xlink:title=" ">
<polygon fill="none" stroke="#bfbfbf" points="973.5,-179.5 973.5,-198.5 1027.5,-198.5 1027.5,-179.5 973.5,-179.5"/>
<text text-anchor="middle" x="1000.5" y="-186.5" font-family="Helvetica,sans-Serif" font-size="10.00">iostream</text>
</a>
</g>
</g>
<!-- Node2&#45;&gt;Node22 -->
<g id="edge49" class="edge">
<title>Node2&#45;&gt;Node22</title>
<path fill="none" stroke="midnightblue" d="M937.84,-291.37C949.01,-273.3 975.05,-231.18 989.8,-207.31"/>
<polygon fill="midnightblue" stroke="midnightblue" points="992.91,-208.94 995.19,-198.59 986.95,-205.26 992.91,-208.94"/>
</g>
<!-- Node3&#45;&gt;Node4 -->
<g id="edge3" class="edge">
<title>Node3&#45;&gt;Node4</title>
<path fill="none" stroke="midnightblue" d="M791.62,-235.44C723.91,-225.26 611.64,-208.37 544.69,-198.3"/>
<polygon fill="midnightblue" stroke="midnightblue" points="545.16,-194.83 534.75,-196.81 544.12,-201.76 545.16,-194.83"/>
</g>
<!-- Node3&#45;&gt;Node10 -->
<g id="edge38" class="edge">
<title>Node3&#45;&gt;Node10</title>
<path fill="none" stroke="midnightblue" d="M834.47,-235.5C791.18,-209.27 658.99,-129.16 597.54,-91.91"/>
<polygon fill="midnightblue" stroke="midnightblue" points="599.02,-88.72 588.65,-86.53 595.39,-94.71 599.02,-88.72"/>
</g>
<!-- Node3&#45;&gt;Node11 -->
<g id="edge39" class="edge">
<title>Node3&#45;&gt;Node11</title>
<path fill="none" stroke="midnightblue" d="M777.25,-240.76C614.62,-232.33 221.3,-205.89 106.5,-143 83.47,-130.39 64.38,-106.29 53.21,-89.81"/>
<polygon fill="midnightblue" stroke="midnightblue" points="55.96,-87.61 47.58,-81.13 50.09,-91.43 55.96,-87.61"/>
</g>
<!-- Node3&#45;&gt;Node15 -->
<g id="edge33" class="edge">
<title>Node3&#45;&gt;Node15</title>
<path fill="none" stroke="midnightblue" d="M843.81,-235.26C829.35,-208.31 785.26,-126.12 765.85,-89.92"/>
<polygon fill="midnightblue" stroke="midnightblue" points="768.88,-88.18 761.07,-81.02 762.71,-91.49 768.88,-88.18"/>
</g>
<!-- Node3&#45;&gt;Node16 -->
<g id="edge34" class="edge">
<title>Node3&#45;&gt;Node16</title>
<path fill="none" stroke="midnightblue" d="M857.39,-235.11C871.76,-221.22 901.53,-194.36 931.5,-179 982.57,-152.83 1021.04,-188.89 1055.5,-143 1066.85,-127.89 1060.76,-105.74 1053.99,-90.32"/>
<polygon fill="midnightblue" stroke="midnightblue" points="1057.13,-88.77 1049.62,-81.3 1050.83,-91.82 1057.13,-88.77"/>
</g>
<!-- Node3&#45;&gt;Node17 -->
<g id="edge35" class="edge">
<title>Node3&#45;&gt;Node17</title>
<path fill="none" stroke="midnightblue" d="M864.06,-235.43C880.39,-226.42 906.8,-211.79 929.5,-199 945.11,-190.2 947.99,-185.96 964.5,-179 1018.17,-156.39 1039.49,-171.1 1090.5,-143 1113.4,-130.39 1135.23,-110.03 1150.12,-94.43"/>
<polygon fill="midnightblue" stroke="midnightblue" points="1153,-96.48 1157.24,-86.77 1147.87,-91.71 1153,-96.48"/>
</g>
<!-- Node3&#45;&gt;Node18 -->
<g id="edge36" class="edge">
<title>Node3&#45;&gt;Node18</title>
<path fill="none" stroke="midnightblue" d="M846.34,-235.26C841.7,-214.57 832.6,-161.48 850.5,-123 856.1,-110.96 866.1,-100.66 876.23,-92.56"/>
<polygon fill="midnightblue" stroke="midnightblue" points="878.38,-95.32 884.31,-86.54 874.2,-89.71 878.38,-95.32"/>
</g>
<!-- Node3&#45;&gt;Node19 -->
<g id="edge37" class="edge">
<title>Node3&#45;&gt;Node19</title>
<path fill="none" stroke="midnightblue" d="M853.73,-235.12C861.56,-222.15 877.18,-197.54 893.5,-179 902.93,-168.29 914.75,-157.55 924.53,-149.25"/>
<polygon fill="midnightblue" stroke="midnightblue" points="927.03,-151.72 932.49,-142.65 922.56,-146.34 927.03,-151.72"/>
</g>
<!-- Node3&#45;&gt;Node22 -->
<g id="edge40" class="edge">
<title>Node3&#45;&gt;Node22</title>
<path fill="none" stroke="midnightblue" d="M872.58,-235.44C898.04,-226.4 938.39,-212.06 966.96,-201.92"/>
<polygon fill="midnightblue" stroke="midnightblue" points="968.28,-205.16 976.53,-198.52 965.93,-198.57 968.28,-205.16"/>
</g>
<!-- Node5 -->
<g id="node5" class="node">
<title>Node5</title>
<g id="a_node5"><a xlink:href="GSDUtil_8hpp.html" target="_top" xlink:title=" ">
<polygon fill="none" stroke="black" points="181.5,-123.5 181.5,-142.5 253.5,-142.5 253.5,-123.5 181.5,-123.5"/>
<text text-anchor="middle" x="217.5" y="-130.5" font-family="Helvetica,sans-Serif" font-size="10.00">GSDUtil.hpp</text>
</a>
</g>
</g>
<!-- Node4&#45;&gt;Node5 -->
<g id="edge4" class="edge">
<title>Node4&#45;&gt;Node5</title>
<path fill="none" stroke="midnightblue" d="M444.41,-180.03C394.35,-170.54 314.17,-154.65 263.68,-144.25"/>
<polygon fill="midnightblue" stroke="midnightblue" points="264.19,-140.78 253.69,-142.18 262.77,-147.63 264.19,-140.78"/>
</g>
<!-- Node6 -->
<g id="node6" class="node">
<title>Node6</title>
<g id="a_node6"><a xlink:href="gsd_8h.html" target="_top" xlink:title="Declare GSD data types and C API.">
<polygon fill="none" stroke="black" points="189,-62 189,-81 230,-81 230,-62 189,-62"/>
<text text-anchor="middle" x="209.5" y="-69" font-family="Helvetica,sans-Serif" font-size="10.00">gsd.h</text>
</a>
</g>
</g>
<!-- Node4&#45;&gt;Node6 -->
<g id="edge15" class="edge">
<title>Node4&#45;&gt;Node6</title>
<path fill="none" stroke="midnightblue" d="M444.37,-188.52C365.38,-188.36 207.16,-182.93 172.5,-143 158.15,-126.47 175.72,-103.4 191.21,-88.22"/>
<polygon fill="midnightblue" stroke="midnightblue" points="193.97,-90.43 198.93,-81.08 189.21,-85.29 193.97,-90.43"/>
</g>
<!-- Node4&#45;&gt;Node10 -->
<g id="edge27" class="edge">
<title>Node4&#45;&gt;Node10</title>
<path fill="none" stroke="midnightblue" d="M495.21,-179.32C506.88,-161.58 533.8,-120.68 550.73,-94.95"/>
<polygon fill="midnightblue" stroke="midnightblue" points="553.69,-96.82 556.26,-86.55 547.84,-92.98 553.69,-96.82"/>
</g>
<!-- Node4&#45;&gt;Node11 -->
<g id="edge28" class="edge">
<title>Node4&#45;&gt;Node11</title>
<path fill="none" stroke="midnightblue" d="M444.32,-188.62C377.15,-188.1 247.98,-181.56 146.5,-143 112.75,-130.18 79.17,-104.47 59.65,-87.89"/>
<polygon fill="midnightblue" stroke="midnightblue" points="61.79,-85.12 51.95,-81.21 57.2,-90.41 61.79,-85.12"/>
</g>
<!-- Node12 -->
<g id="node12" class="node">
<title>Node12</title>
<g id="a_node12"><a xlink:title=" ">
<polygon fill="none" stroke="#bfbfbf" points="253.5,-62 253.5,-81 305.5,-81 305.5,-62 253.5,-62"/>
<text text-anchor="middle" x="279.5" y="-69" font-family="Helvetica,sans-Serif" font-size="10.00">memory</text>
</a>
</g>
</g>
<!-- Node4&#45;&gt;Node12 -->
<g id="edge29" class="edge">
<title>Node4&#45;&gt;Node12</title>
<path fill="none" stroke="midnightblue" d="M444.27,-182.48C395.16,-175.61 320.96,-162.35 300.5,-143 286.46,-129.72 281.68,-107.52 280.12,-91.57"/>
<polygon fill="midnightblue" stroke="midnightblue" points="283.59,-91.05 279.47,-81.29 276.61,-91.49 283.59,-91.05"/>
</g>
<!-- Node13 -->
<g id="node13" class="node">
<title>Node13</title>
<g id="a_node13"><a xlink:title=" ">
<polygon fill="none" stroke="#bfbfbf" points="402,-62 402,-81 461,-81 461,-62 402,-62"/>
<text text-anchor="middle" x="431.5" y="-69" font-family="Helvetica,sans-Serif" font-size="10.00">stdexcept</text>
</a>
</g>
</g>
<!-- Node4&#45;&gt;Node13 -->
<g id="edge30" class="edge">
<title>Node4&#45;&gt;Node13</title>
<path fill="none" stroke="midnightblue" d="M488.01,-179.2C485.6,-166.33 480.1,-141.86 470.5,-123 464.19,-110.61 454.69,-98.22 446.64,-88.82"/>
<polygon fill="midnightblue" stroke="midnightblue" points="449.05,-86.26 439.8,-81.11 443.82,-90.91 449.05,-86.26"/>
</g>
<!-- Node14 -->
<g id="node14" class="node">
<title>Node14</title>
<g id="a_node14"><a xlink:title=" ">
<polygon fill="none" stroke="#bfbfbf" points="121,-62 121,-81 162,-81 162,-62 121,-62"/>
<text text-anchor="middle" x="141.5" y="-69" font-family="Helvetica,sans-Serif" font-size="10.00">string</text>
</a>
</g>
</g>
<!-- Node4&#45;&gt;Node14 -->
<g id="edge31" class="edge">
<title>Node4&#45;&gt;Node14</title>
<path fill="none" stroke="midnightblue" d="M444.24,-187.57C364.85,-185.9 204.97,-178.13 163.5,-143 148.54,-130.33 143.6,-107.65 142.05,-91.43"/>
<polygon fill="midnightblue" stroke="midnightblue" points="145.52,-90.77 141.43,-81 138.53,-91.19 145.52,-90.77"/>
</g>
<!-- Node4&#45;&gt;Node15 -->
<g id="edge16" class="edge">
<title>Node4&#45;&gt;Node15</title>
<path fill="none" stroke="midnightblue" d="M509.57,-179.32C556.26,-159.12 672.38,-108.89 727.09,-85.22"/>
<polygon fill="midnightblue" stroke="midnightblue" points="728.77,-88.31 736.56,-81.12 726,-81.88 728.77,-88.31"/>
</g>
<!-- Node4&#45;&gt;Node16 -->
<g id="edge17" class="edge">
<title>Node4&#45;&gt;Node16</title>
<path fill="none" stroke="midnightblue" d="M533.55,-179.48C620,-162.65 817.89,-123.6 983.5,-87 988.62,-85.87 993.97,-84.65 999.28,-83.42"/>
<polygon fill="midnightblue" stroke="midnightblue" points="1000.45,-86.74 1009.38,-81.05 998.85,-79.92 1000.45,-86.74"/>
</g>
<!-- Node4&#45;&gt;Node17 -->
<g id="edge18" class="edge">
<title>Node4&#45;&gt;Node17</title>
<path fill="none" stroke="midnightblue" d="M534.8,-187.14C651.31,-184.49 959.01,-174.61 1055.5,-143 1088.88,-132.06 1122.54,-109.51 1144.53,-92.84"/>
<polygon fill="midnightblue" stroke="midnightblue" points="1146.89,-95.45 1152.65,-86.56 1142.6,-89.91 1146.89,-95.45"/>
</g>
<!-- Node4&#45;&gt;Node18 -->
<g id="edge19" class="edge">
<title>Node4&#45;&gt;Node18</title>
<path fill="none" stroke="midnightblue" d="M516.06,-179.43C556.38,-166.54 635.55,-141.68 703.5,-123 747.98,-110.78 798.26,-98.37 837.89,-88.91"/>
<polygon fill="midnightblue" stroke="midnightblue" points="838.81,-92.29 847.73,-86.57 837.19,-85.48 838.81,-92.29"/>
</g>
<!-- Node4&#45;&gt;Node19 -->
<g id="edge20" class="edge">
<title>Node4&#45;&gt;Node19</title>
<path fill="none" stroke="midnightblue" d="M534.69,-182.62C610.94,-173.56 766.17,-155.09 861.88,-143.71"/>
<polygon fill="midnightblue" stroke="midnightblue" points="862.3,-147.18 871.81,-142.53 861.47,-140.23 862.3,-147.18"/>
</g>
<!-- Node20 -->
<g id="node20" class="node">
<title>Node20</title>
<g id="a_node20"><a xlink:title=" ">
<polygon fill="none" stroke="#bfbfbf" points="309.5,-123.5 309.5,-142.5 399.5,-142.5 399.5,-123.5 309.5,-123.5"/>
<text text-anchor="middle" x="354.5" y="-130.5" font-family="Helvetica,sans-Serif" font-size="10.00">spdlog/fmt/ostr.h</text>
</a>
</g>
</g>
<!-- Node4&#45;&gt;Node20 -->
<g id="edge26" class="edge">
<title>Node4&#45;&gt;Node20</title>
<path fill="none" stroke="midnightblue" d="M468.11,-179.44C445.79,-170.52 410.6,-156.44 385.29,-146.32"/>
<polygon fill="midnightblue" stroke="midnightblue" points="386.38,-142.98 375.79,-142.52 383.78,-149.48 386.38,-142.98"/>
</g>
<!-- Node21 -->
<g id="node21" class="node">
<title>Node21</title>
<g id="a_node21"><a xlink:title=" ">
<polygon fill="none" stroke="#bfbfbf" points="417.5,-123.5 417.5,-142.5 461.5,-142.5 461.5,-123.5 417.5,-123.5"/>
<text text-anchor="middle" x="439.5" y="-130.5" font-family="Helvetica,sans-Serif" font-size="10.00">thread</text>
</a>
</g>
</g>
<!-- Node4&#45;&gt;Node21 -->
<g id="edge32" class="edge">
<title>Node4&#45;&gt;Node21</title>
<path fill="none" stroke="midnightblue" d="M481.24,-179.08C474.04,-171.3 463.39,-159.8 454.65,-150.37"/>
<polygon fill="midnightblue" stroke="midnightblue" points="456.97,-147.71 447.6,-142.75 451.83,-152.47 456.97,-147.71"/>
</g>
<!-- Node5&#45;&gt;Node4 -->
<g id="edge5" class="edge">
<title>Node5&#45;&gt;Node4</title>
<path fill="none" stroke="midnightblue" d="M253.88,-140.32C302.33,-149.43 387.87,-166.35 441.53,-177.39"/>
<polygon fill="midnightblue" stroke="midnightblue" points="440.99,-180.85 451.49,-179.44 442.4,-173.99 440.99,-180.85"/>
</g>
<!-- Node5&#45;&gt;Node6 -->
<g id="edge6" class="edge">
<title>Node5&#45;&gt;Node6</title>
<path fill="none" stroke="midnightblue" d="M216.35,-123.48C215.23,-115.08 213.46,-101.98 212.01,-91.16"/>
<polygon fill="midnightblue" stroke="midnightblue" points="215.45,-90.45 210.64,-81.01 208.51,-91.39 215.45,-90.45"/>
</g>
<!-- Node5&#45;&gt;Node10 -->
<g id="edge10" class="edge">
<title>Node5&#45;&gt;Node10</title>
<path fill="none" stroke="midnightblue" d="M253.76,-125.8C313.7,-115.55 434,-94.98 506.37,-82.61"/>
<polygon fill="midnightblue" stroke="midnightblue" points="506.99,-86.06 516.25,-80.92 505.81,-79.16 506.99,-86.06"/>
</g>
<!-- Node5&#45;&gt;Node11 -->
<g id="edge11" class="edge">
<title>Node5&#45;&gt;Node11</title>
<path fill="none" stroke="midnightblue" d="M192.43,-123.48C162.15,-113.18 111.06,-95.81 77.06,-84.25"/>
<polygon fill="midnightblue" stroke="midnightblue" points="78.12,-80.91 67.53,-81.01 75.87,-87.54 78.12,-80.91"/>
</g>
<!-- Node5&#45;&gt;Node12 -->
<g id="edge12" class="edge">
<title>Node5&#45;&gt;Node12</title>
<path fill="none" stroke="midnightblue" d="M226.38,-123.48C235.96,-114.28 251.41,-99.46 263.19,-88.16"/>
<polygon fill="midnightblue" stroke="midnightblue" points="265.84,-90.46 270.63,-81.01 260.99,-85.41 265.84,-90.46"/>
</g>
<!-- Node5&#45;&gt;Node13 -->
<g id="edge13" class="edge">
<title>Node5&#45;&gt;Node13</title>
<path fill="none" stroke="midnightblue" d="M248.16,-123.48C286.06,-112.94 350.63,-94.98 392.16,-83.44"/>
<polygon fill="midnightblue" stroke="midnightblue" points="393.23,-86.77 401.93,-80.72 391.36,-80.03 393.23,-86.77"/>
</g>
<!-- Node5&#45;&gt;Node14 -->
<g id="edge14" class="edge">
<title>Node5&#45;&gt;Node14</title>
<path fill="none" stroke="midnightblue" d="M206.61,-123.48C194.53,-114.02 174.83,-98.6 160.26,-87.19"/>
<polygon fill="midnightblue" stroke="midnightblue" points="162.4,-84.42 152.37,-81.01 158.09,-89.93 162.4,-84.42"/>
</g>
<!-- Node7 -->
<g id="node7" class="node">
<title>Node7</title>
<g id="a_node7"><a xlink:title=" ">
<polygon fill="none" stroke="#bfbfbf" points="110.5,-0.5 110.5,-19.5 166.5,-19.5 166.5,-0.5 110.5,-0.5"/>
<text text-anchor="middle" x="138.5" y="-7.5" font-family="Helvetica,sans-Serif" font-size="10.00">stdbool.h</text>
</a>
</g>
</g>
<!-- Node6&#45;&gt;Node7 -->
<g id="edge7" class="edge">
<title>Node6&#45;&gt;Node7</title>
<path fill="none" stroke="midnightblue" d="M199.33,-61.98C188.15,-52.61 169.98,-37.38 156.41,-26.01"/>
<polygon fill="midnightblue" stroke="midnightblue" points="158.57,-23.25 148.65,-19.51 154.07,-28.61 158.57,-23.25"/>
</g>
<!-- Node8 -->
<g id="node8" class="node">
<title>Node8</title>
<g id="a_node8"><a xlink:title=" ">
<polygon fill="none" stroke="#bfbfbf" points="185,-0.5 185,-19.5 234,-19.5 234,-0.5 185,-0.5"/>
<text text-anchor="middle" x="209.5" y="-7.5" font-family="Helvetica,sans-Serif" font-size="10.00">stdint.h</text>
</a>
</g>
</g>
<!-- Node6&#45;&gt;Node8 -->
<g id="edge8" class="edge">
<title>Node6&#45;&gt;Node8</title>
<path fill="none" stroke="midnightblue" d="M209.5,-61.98C209.5,-53.58 209.5,-40.48 209.5,-29.66"/>
<polygon fill="midnightblue" stroke="midnightblue" points="213,-29.51 209.5,-19.51 206,-29.51 213,-29.51"/>
</g>
<!-- Node9 -->
<g id="node9" class="node">
<title>Node9</title>
<g id="a_node9"><a xlink:title=" ">
<polygon fill="none" stroke="#bfbfbf" points="252,-0.5 252,-19.5 301,-19.5 301,-0.5 252,-0.5"/>
<text text-anchor="middle" x="276.5" y="-7.5" font-family="Helvetica,sans-Serif" font-size="10.00">string.h</text>
</a>
</g>
</g>
<!-- Node6&#45;&gt;Node9 -->
<g id="edge9" class="edge">
<title>Node6&#45;&gt;Node9</title>
<path fill="none" stroke="midnightblue" d="M219.1,-61.98C229.55,-52.7 246.47,-37.67 259.24,-26.33"/>
<polygon fill="midnightblue" stroke="midnightblue" points="261.77,-28.77 266.92,-19.51 257.12,-23.53 261.77,-28.77"/>
</g>
<!-- Node19&#45;&gt;Node15 -->
<g id="edge21" class="edge">
<title>Node19&#45;&gt;Node15</title>
<path fill="none" stroke="midnightblue" d="M916.71,-123.48C884.21,-113.14 829.29,-95.66 792.96,-84.1"/>
<polygon fill="midnightblue" stroke="midnightblue" points="793.83,-80.71 783.24,-81.01 791.71,-87.38 793.83,-80.71"/>
</g>
<!-- Node19&#45;&gt;Node16 -->
<g id="edge22" class="edge">
<title>Node19&#45;&gt;Node16</title>
<path fill="none" stroke="midnightblue" d="M957.97,-123.48C974.47,-113.75 1001.68,-97.73 1021.18,-86.24"/>
<polygon fill="midnightblue" stroke="midnightblue" points="1023.22,-89.1 1030.06,-81.01 1019.66,-83.07 1023.22,-89.1"/>
</g>
<!-- Node19&#45;&gt;Node17 -->
<g id="edge23" class="edge">
<title>Node19&#45;&gt;Node17</title>
<path fill="none" stroke="midnightblue" d="M975.88,-123.48C1009.85,-114.53 1064.1,-100.25 1106.55,-89.07"/>
<polygon fill="midnightblue" stroke="midnightblue" points="1107.46,-92.45 1116.24,-86.52 1105.67,-85.68 1107.46,-92.45"/>
</g>
<!-- Node19&#45;&gt;Node18 -->
<g id="edge24" class="edge">
<title>Node19&#45;&gt;Node18</title>
<path fill="none" stroke="midnightblue" d="M938.49,-123.48C934.14,-116.09 927.66,-105.08 921.84,-95.17"/>
<polygon fill="midnightblue" stroke="midnightblue" points="924.84,-93.37 916.75,-86.52 918.8,-96.92 924.84,-93.37"/>
</g>
<!-- Node19&#45;&gt;Node19 -->
<g id="edge25" class="edge">
<title>Node19&#45;&gt;Node19</title>
<path fill="none" stroke="midnightblue" d="M986.95,-142.5C1016.75,-145.33 1046,-142.16 1046,-133 1046,-124.88 1023,-121.47 997.01,-122.77"/>
<polygon fill="midnightblue" stroke="midnightblue" points="996.67,-119.29 986.95,-123.5 997.18,-126.27 996.67,-119.29"/>
</g>
</g>
</svg>
