<?xml version="1.0" encoding="UTF-8" standalone="no"?>
<!DOCTYPE svg PUBLIC "-//W3C//DTD SVG 1.1//EN"
 "http://www.w3.org/Graphics/SVG/1.1/DTD/svg11.dtd">
<!-- Generated by graphviz version 2.43.0 (0)
 -->
<!-- Title: src/integrators/rungeKutta4.hpp Pages: 1 -->
<svg width="350pt" height="162pt"
 viewBox="0.00 0.00 350.00 162.00" xmlns="http://www.w3.org/2000/svg" xmlns:xlink="http://www.w3.org/1999/xlink">
<g id="graph0" class="graph" transform="scale(1 1) rotate(0) translate(4 158)">
<title>src/integrators/rungeKutta4.hpp</title>
<!-- Node1 -->
<g id="node1" class="node">
<title>Node1</title>
<g id="a_node1"><a xlink:title=" ">
<polygon fill="#bfbfbf" stroke="black" points="76,-134.5 76,-153.5 229,-153.5 229,-134.5 76,-134.5"/>
<text text-anchor="middle" x="152.5" y="-141.5" font-family="Helvetica,sans-Serif" font-size="10.00">src/integrators/rungeKutta4.hpp</text>
</a>
</g>
</g>
<!-- Node2 -->
<g id="node2" class="node">
<title>Node2</title>
<g id="a_node2"><a xlink:href="rungeKutta4_8cpp.html" target="_top" xlink:title=" ">
<polygon fill="none" stroke="black" points="0,-73 0,-92 153,-92 153,-73 0,-73"/>
<text text-anchor="middle" x="76.5" y="-80" font-family="Helvetica,sans-Serif" font-size="10.00">src/integrators/rungeKutta4.cpp</text>
</a>
</g>
</g>
<!-- Node1&#45;&gt;Node2 -->
<g id="edge1" class="edge">
<title>Node1&#45;&gt;Node2</title>
<path fill="none" stroke="midnightblue" d="M133.72,-128.29C119.14,-116.88 99.44,-101.46 87.37,-92.01"/>
<polygon fill="midnightblue" stroke="midnightblue" points="131.58,-131.07 141.61,-134.48 135.89,-125.55 131.58,-131.07"/>
</g>
<!-- Node3 -->
<g id="node3" class="node">
<title>Node3</title>
<g id="a_node3"><a xlink:href="engine_8hpp.html" target="_top" xlink:title=" ">
<polygon fill="none" stroke="black" points="171,-67.5 171,-97.5 286,-97.5 286,-67.5 171,-67.5"/>
<text text-anchor="start" x="179" y="-85.5" font-family="Helvetica,sans-Serif" font-size="10.00">src/simulation_system</text>
<text text-anchor="middle" x="228.5" y="-74.5" font-family="Helvetica,sans-Serif" font-size="10.00">/engine.hpp</text>
</a>
</g>
</g>
<!-- Node1&#45;&gt;Node3 -->
<g id="edge2" class="edge">
<title>Node1&#45;&gt;Node3</title>
<path fill="none" stroke="midnightblue" d="M171.41,-128.2C183.39,-118.81 198.8,-106.75 210.59,-97.52"/>
<polygon fill="midnightblue" stroke="midnightblue" points="169.11,-125.55 163.39,-134.48 173.42,-131.07 169.11,-125.55"/>
</g>
<!-- Node4 -->
<g id="node4" class="node">
<title>Node4</title>
<g id="a_node4"><a xlink:href="main_8cpp.html" target="_top" xlink:title=" ">
<polygon fill="none" stroke="black" points="136,-6 136,-25 209,-25 209,-6 136,-6"/>
<text text-anchor="middle" x="172.5" y="-13" font-family="Helvetica,sans-Serif" font-size="10.00">src/main.cpp</text>
</a>
</g>
</g>
<!-- Node3&#45;&gt;Node4 -->
<g id="edge3" class="edge">
<title>Node3&#45;&gt;Node4</title>
<path fill="none" stroke="midnightblue" d="M209.68,-59.66C199.52,-47.86 187.55,-33.97 179.99,-25.19"/>
<polygon fill="midnightblue" stroke="midnightblue" points="207.17,-62.1 216.35,-67.4 212.47,-57.54 207.17,-62.1"/>
</g>
<!-- Node5 -->
<g id="node5" class="node">
<title>Node5</title>
<g id="a_node5"><a xlink:href="engine_8cpp.html" target="_top" xlink:title=" ">
<polygon fill="none" stroke="black" points="227,-0.5 227,-30.5 342,-30.5 342,-0.5 227,-0.5"/>
<text text-anchor="start" x="235" y="-18.5" font-family="Helvetica,sans-Serif" font-size="10.00">src/simulation_system</text>
<text text-anchor="middle" x="284.5" y="-7.5" font-family="Helvetica,sans-Serif" font-size="10.00">/engine.cpp</text>
</a>
</g>
</g>
<!-- Node3&#45;&gt;Node5 -->
<g id="edge4" class="edge">
<title>Node3&#45;&gt;Node5</title>
<path fill="none" stroke="midnightblue" d="M247.25,-59.74C255.54,-50.12 265.04,-39.09 272.37,-30.58"/>
<polygon fill="midnightblue" stroke="midnightblue" points="244.53,-57.54 240.65,-67.4 249.83,-62.1 244.53,-57.54"/>
</g>
</g>
</svg>
