<?xml version="1.0" encoding="UTF-8" standalone="no"?>
<!DOCTYPE svg PUBLIC "-//W3C//DTD SVG 1.1//EN"
 "http://www.w3.org/Graphics/SVG/1.1/DTD/svg11.dtd">
<!-- Generated by graphviz version 2.43.0 (0)
 -->
<!-- Title: src/integrators/rungeKutta4.cpp Pages: 1 -->
<svg width="1377pt" height="386pt"
 viewBox="0.00 0.00 1376.50 386.00" xmlns="http://www.w3.org/2000/svg" xmlns:xlink="http://www.w3.org/1999/xlink">
<g id="graph0" class="graph" transform="scale(1 1) rotate(0) translate(4 382)">
<title>src/integrators/rungeKutta4.cpp</title>
<!-- Node1 -->
<g id="node1" class="node">
<title>Node1</title>
<g id="a_node1"><a xlink:title=" ">
<polygon fill="#bfbfbf" stroke="black" points="751,-358.5 751,-377.5 904,-377.5 904,-358.5 751,-358.5"/>
<text text-anchor="middle" x="827.5" y="-365.5" font-family="Helvetica,sans-Serif" font-size="10.00">src/integrators/rungeKutta4.cpp</text>
</a>
</g>
</g>
<!-- Node2 -->
<g id="node2" class="node">
<title>Node2</title>
<g id="a_node2"><a xlink:href="rungeKutta4_8hpp.html" target="_top" xlink:title=" ">
<polygon fill="none" stroke="black" points="783.5,-302.5 783.5,-321.5 871.5,-321.5 871.5,-302.5 783.5,-302.5"/>
<text text-anchor="middle" x="827.5" y="-309.5" font-family="Helvetica,sans-Serif" font-size="10.00">rungeKutta4.hpp</text>
</a>
</g>
</g>
<!-- Node1&#45;&gt;Node2 -->
<g id="edge1" class="edge">
<title>Node1&#45;&gt;Node2</title>
<path fill="none" stroke="midnightblue" d="M827.5,-358.08C827.5,-351.01 827.5,-340.86 827.5,-331.99"/>
<polygon fill="midnightblue" stroke="midnightblue" points="831,-331.75 827.5,-321.75 824,-331.75 831,-331.75"/>
</g>
<!-- Node3 -->
<g id="node3" class="node">
<title>Node3</title>
<g id="a_node3"><a xlink:href="potentialHydrodynamics_8hpp.html" target="_top" xlink:title=" ">
<polygon fill="none" stroke="black" points="806.5,-246.5 806.5,-265.5 946.5,-265.5 946.5,-246.5 806.5,-246.5"/>
<text text-anchor="middle" x="876.5" y="-253.5" font-family="Helvetica,sans-Serif" font-size="10.00">potentialHydrodynamics.hpp</text>
</a>
</g>
</g>
<!-- Node2&#45;&gt;Node3 -->
<g id="edge2" class="edge">
<title>Node2&#45;&gt;Node3</title>
<path fill="none" stroke="midnightblue" d="M835.59,-302.08C842.66,-294.3 853.09,-282.8 861.65,-273.37"/>
<polygon fill="midnightblue" stroke="midnightblue" points="864.43,-275.51 868.56,-265.75 859.25,-270.8 864.43,-275.51"/>
</g>
<!-- Node4 -->
<g id="node4" class="node">
<title>Node4</title>
<g id="a_node4"><a xlink:href="systemData_8hpp.html" target="_top" xlink:title=" ">
<polygon fill="none" stroke="black" points="415,-190.5 415,-209.5 504,-209.5 504,-190.5 415,-190.5"/>
<text text-anchor="middle" x="459.5" y="-197.5" font-family="Helvetica,sans-Serif" font-size="10.00">systemData.hpp</text>
</a>
</g>
</g>
<!-- Node2&#45;&gt;Node4 -->
<g id="edge38" class="edge">
<title>Node2&#45;&gt;Node4</title>
<path fill="none" stroke="midnightblue" d="M783.27,-305.91C735.75,-299.66 658.45,-287.17 594.5,-266 553.59,-252.45 509.1,-229.22 482.79,-214.51"/>
<polygon fill="midnightblue" stroke="midnightblue" points="484.38,-211.39 473.96,-209.51 480.94,-217.48 484.38,-211.39"/>
</g>
<!-- Node10 -->
<g id="node10" class="node">
<title>Node10</title>
<g id="a_node10"><a xlink:title=" ">
<polygon fill="none" stroke="#bfbfbf" points="530.5,-56.5 530.5,-86.5 628.5,-86.5 628.5,-56.5 530.5,-56.5"/>
<text text-anchor="start" x="538.5" y="-74.5" font-family="Helvetica,sans-Serif" font-size="10.00">spdlog/sinks/basic</text>
<text text-anchor="middle" x="579.5" y="-63.5" font-family="Helvetica,sans-Serif" font-size="10.00">_file_sink.h</text>
</a>
</g>
</g>
<!-- Node2&#45;&gt;Node10 -->
<g id="edge44" class="edge">
<title>Node2&#45;&gt;Node10</title>
<path fill="none" stroke="midnightblue" d="M811.45,-302.46C796.5,-294.13 773.95,-280.62 756.5,-266 691.24,-211.32 626.87,-133.27 596.92,-95.17"/>
<polygon fill="midnightblue" stroke="midnightblue" points="599.31,-92.54 590.39,-86.81 593.79,-96.85 599.31,-92.54"/>
</g>
<!-- Node11 -->
<g id="node11" class="node">
<title>Node11</title>
<g id="a_node11"><a xlink:title=" ">
<polygon fill="none" stroke="#bfbfbf" points="0,-62 0,-81 85,-81 85,-62 0,-62"/>
<text text-anchor="middle" x="42.5" y="-69" font-family="Helvetica,sans-Serif" font-size="10.00">spdlog/spdlog.h</text>
</a>
</g>
</g>
<!-- Node2&#45;&gt;Node11 -->
<g id="edge45" class="edge">
<title>Node2&#45;&gt;Node11</title>
<path fill="none" stroke="midnightblue" d="M783.31,-308.73C676.44,-302.25 396.47,-279.47 174.5,-210 120.25,-193.02 94.43,-198.85 59.5,-154 45.45,-135.95 42.27,-109.07 41.9,-91.18"/>
<polygon fill="midnightblue" stroke="midnightblue" points="45.4,-91.15 41.96,-81.13 38.4,-91.11 45.4,-91.15"/>
</g>
<!-- Node16 -->
<g id="node16" class="node">
<title>Node16</title>
<g id="a_node16"><a xlink:title=" ">
<polygon fill="none" stroke="#bfbfbf" points="665,-62 665,-81 762,-81 762,-62 665,-62"/>
<text text-anchor="middle" x="713.5" y="-69" font-family="Helvetica,sans-Serif" font-size="10.00">eigen3/Eigen/Core</text>
</a>
</g>
</g>
<!-- Node2&#45;&gt;Node16 -->
<g id="edge39" class="edge">
<title>Node2&#45;&gt;Node16</title>
<path fill="none" stroke="midnightblue" d="M816.6,-302.21C790.62,-280.44 725.6,-220.95 703.5,-154 696.61,-133.12 701.65,-107.82 706.75,-91"/>
<polygon fill="midnightblue" stroke="midnightblue" points="710.14,-91.9 709.98,-81.31 703.5,-89.69 710.14,-91.9"/>
</g>
<!-- Node17 -->
<g id="node17" class="node">
<title>Node17</title>
<g id="a_node17"><a xlink:title=" ">
<polygon fill="none" stroke="#bfbfbf" points="1135,-62 1135,-81 1236,-81 1236,-62 1135,-62"/>
<text text-anchor="middle" x="1185.5" y="-69" font-family="Helvetica,sans-Serif" font-size="10.00">eigen3/Eigen/Eigen</text>
</a>
</g>
</g>
<!-- Node2&#45;&gt;Node17 -->
<g id="edge40" class="edge">
<title>Node2&#45;&gt;Node17</title>
<path fill="none" stroke="midnightblue" d="M871.72,-308.73C924.14,-304.81 1013.35,-294.25 1084.5,-266 1153.52,-238.6 1186.26,-224.85 1208.5,-154 1215.36,-132.16 1205.37,-106.74 1196.48,-90.17"/>
<polygon fill="midnightblue" stroke="midnightblue" points="1199.29,-88.03 1191.26,-81.11 1193.22,-91.53 1199.29,-88.03"/>
</g>
<!-- Node18 -->
<g id="node18" class="node">
<title>Node18</title>
<g id="a_node18"><a xlink:title=" ">
<polygon fill="none" stroke="#bfbfbf" points="956.5,-56.5 956.5,-86.5 1066.5,-86.5 1066.5,-56.5 956.5,-56.5"/>
<text text-anchor="start" x="964.5" y="-74.5" font-family="Helvetica,sans-Serif" font-size="10.00">eigen3/unsupported</text>
<text text-anchor="middle" x="1011.5" y="-63.5" font-family="Helvetica,sans-Serif" font-size="10.00">/Eigen/CXX11/Tensor</text>
</a>
</g>
</g>
<!-- Node2&#45;&gt;Node18 -->
<g id="edge41" class="edge">
<title>Node2&#45;&gt;Node18</title>
<path fill="none" stroke="midnightblue" d="M871.8,-307.79C953.23,-299.17 1124.58,-267.71 1192.5,-154 1199.57,-142.17 1200.83,-133.97 1192.5,-123 1178.26,-104.24 1122.49,-90.58 1076.58,-82.23"/>
<polygon fill="midnightblue" stroke="midnightblue" points="1077.11,-78.77 1066.65,-80.48 1075.89,-85.66 1077.11,-78.77"/>
</g>
<!-- Node19 -->
<g id="node19" class="node">
<title>Node19</title>
<g id="a_node19"><a xlink:title=" ">
<polygon fill="none" stroke="#bfbfbf" points="713,-123.5 713,-153.5 844,-153.5 844,-123.5 713,-123.5"/>
<text text-anchor="start" x="721" y="-141.5" font-family="Helvetica,sans-Serif" font-size="10.00">eigen3/unsupported</text>
<text text-anchor="middle" x="778.5" y="-130.5" font-family="Helvetica,sans-Serif" font-size="10.00">/Eigen/CXX11/ThreadPool</text>
</a>
</g>
</g>
<!-- Node2&#45;&gt;Node19 -->
<g id="edge42" class="edge">
<title>Node2&#45;&gt;Node19</title>
<path fill="none" stroke="midnightblue" d="M820.03,-302.35C813.02,-293.74 802.84,-279.84 797.5,-266 784.41,-232.1 780.29,-189.86 779.02,-163.79"/>
<polygon fill="midnightblue" stroke="midnightblue" points="782.52,-163.53 778.64,-153.67 775.52,-163.8 782.52,-163.53"/>
</g>
<!-- Node20 -->
<g id="node20" class="node">
<title>Node20</title>
<g id="a_node20"><a xlink:href="helper__eigenTensorConversion_8hpp.html" target="_top" xlink:title=" ">
<polygon fill="none" stroke="black" points="1014,-129 1014,-148 1183,-148 1183,-129 1014,-129"/>
<text text-anchor="middle" x="1098.5" y="-136" font-family="Helvetica,sans-Serif" font-size="10.00">helper_eigenTensorConversion.hpp</text>
</a>
</g>
</g>
<!-- Node2&#45;&gt;Node20 -->
<g id="edge43" class="edge">
<title>Node2&#45;&gt;Node20</title>
<path fill="none" stroke="midnightblue" d="M860.49,-302.46C887.06,-294.88 924.89,-282.44 955.5,-266 991.83,-246.48 998.55,-237.26 1029.5,-210 1049.27,-192.59 1070.19,-170.65 1083.74,-155.91"/>
<polygon fill="midnightblue" stroke="midnightblue" points="1086.66,-157.9 1090.81,-148.15 1081.49,-153.19 1086.66,-157.9"/>
</g>
<!-- Node22 -->
<g id="node22" class="node">
<title>Node22</title>
<g id="a_node22"><a xlink:title=" ">
<polygon fill="none" stroke="#bfbfbf" points="1314.5,-246.5 1314.5,-265.5 1368.5,-265.5 1368.5,-246.5 1314.5,-246.5"/>
<text text-anchor="middle" x="1341.5" y="-253.5" font-family="Helvetica,sans-Serif" font-size="10.00">iostream</text>
</a>
</g>
</g>
<!-- Node2&#45;&gt;Node22 -->
<g id="edge46" class="edge">
<title>Node2&#45;&gt;Node22</title>
<path fill="none" stroke="midnightblue" d="M871.74,-308.59C955.71,-303.61 1143.83,-290.56 1300.5,-266 1301.76,-265.8 1303.03,-265.59 1304.32,-265.37"/>
<polygon fill="midnightblue" stroke="midnightblue" points="1305.08,-268.79 1314.24,-263.47 1303.76,-261.91 1305.08,-268.79"/>
</g>
<!-- Node3&#45;&gt;Node4 -->
<g id="edge3" class="edge">
<title>Node3&#45;&gt;Node4</title>
<path fill="none" stroke="midnightblue" d="M810.43,-246.44C728.61,-235.85 590.76,-218 514.46,-208.12"/>
<polygon fill="midnightblue" stroke="midnightblue" points="514.48,-204.59 504.11,-206.78 513.58,-211.53 514.48,-204.59"/>
</g>
<!-- Node3&#45;&gt;Node10 -->
<g id="edge36" class="edge">
<title>Node3&#45;&gt;Node10</title>
<path fill="none" stroke="midnightblue" d="M877.97,-246.44C881.46,-223.02 887.57,-157.35 853.5,-123 790.82,-59.8 744.01,-103.24 656.5,-87 650.76,-85.93 644.78,-84.82 638.8,-83.7"/>
<polygon fill="midnightblue" stroke="midnightblue" points="639.26,-80.23 628.78,-81.82 637.97,-87.11 639.26,-80.23"/>
</g>
<!-- Node3&#45;&gt;Node11 -->
<g id="edge37" class="edge">
<title>Node3&#45;&gt;Node11</title>
<path fill="none" stroke="midnightblue" d="M806.38,-254.25C635.54,-251.15 203.33,-235.27 88.5,-154 66.78,-138.63 54.02,-109.57 47.65,-90.63"/>
<polygon fill="midnightblue" stroke="midnightblue" points="50.99,-89.57 44.69,-81.06 44.3,-91.65 50.99,-89.57"/>
</g>
<!-- Node3&#45;&gt;Node16 -->
<g id="edge31" class="edge">
<title>Node3&#45;&gt;Node16</title>
<path fill="none" stroke="midnightblue" d="M880.75,-246.2C891.12,-223.27 914.9,-160.88 886.5,-123 872.58,-104.44 816.74,-90.44 772.22,-81.94"/>
<polygon fill="midnightblue" stroke="midnightblue" points="772.8,-78.49 762.33,-80.11 771.53,-85.37 772.8,-78.49"/>
</g>
<!-- Node3&#45;&gt;Node17 -->
<g id="edge32" class="edge">
<title>Node3&#45;&gt;Node17</title>
<path fill="none" stroke="midnightblue" d="M926.18,-246.5C1007.02,-231.52 1161.21,-197.83 1192.5,-154 1205.68,-135.53 1199.69,-108.38 1193.31,-90.57"/>
<polygon fill="midnightblue" stroke="midnightblue" points="1196.49,-89.09 1189.56,-81.07 1189.98,-91.66 1196.49,-89.09"/>
</g>
<!-- Node3&#45;&gt;Node18 -->
<g id="edge33" class="edge">
<title>Node3&#45;&gt;Node18</title>
<path fill="none" stroke="midnightblue" d="M904.34,-246.47C923.1,-239.43 947.13,-227.68 962.5,-210 991.08,-177.12 1003.37,-126.41 1008.36,-96.63"/>
<polygon fill="midnightblue" stroke="midnightblue" points="1011.83,-97.09 1009.89,-86.68 1004.91,-96.03 1011.83,-97.09"/>
</g>
<!-- Node3&#45;&gt;Node19 -->
<g id="edge34" class="edge">
<title>Node3&#45;&gt;Node19</title>
<path fill="none" stroke="midnightblue" d="M869.13,-246.32C853.95,-228.42 818.77,-186.97 796.98,-161.28"/>
<polygon fill="midnightblue" stroke="midnightblue" points="799.56,-158.91 790.42,-153.55 794.22,-163.43 799.56,-158.91"/>
</g>
<!-- Node3&#45;&gt;Node20 -->
<g id="edge35" class="edge">
<title>Node3&#45;&gt;Node20</title>
<path fill="none" stroke="midnightblue" d="M907.05,-246.49C932.77,-238.73 970.12,-226.04 1000.5,-210 1030.55,-194.13 1061.86,-170.08 1080.77,-154.58"/>
<polygon fill="midnightblue" stroke="midnightblue" points="1083.08,-157.2 1088.53,-148.12 1078.61,-151.82 1083.08,-157.2"/>
</g>
<!-- Node5 -->
<g id="node5" class="node">
<title>Node5</title>
<g id="a_node5"><a xlink:href="GSDUtil_8hpp.html" target="_top" xlink:title=" ">
<polygon fill="none" stroke="black" points="186.5,-129 186.5,-148 258.5,-148 258.5,-129 186.5,-129"/>
<text text-anchor="middle" x="222.5" y="-136" font-family="Helvetica,sans-Serif" font-size="10.00">GSDUtil.hpp</text>
</a>
</g>
</g>
<!-- Node4&#45;&gt;Node5 -->
<g id="edge4" class="edge">
<title>Node4&#45;&gt;Node5</title>
<path fill="none" stroke="midnightblue" d="M414.94,-190.46C374.9,-181.76 314.98,-167.65 263.5,-154 259.79,-153.02 255.93,-151.96 252.12,-150.88"/>
<polygon fill="midnightblue" stroke="midnightblue" points="252.85,-147.45 242.27,-148.01 250.89,-154.17 252.85,-147.45"/>
</g>
<!-- Node6 -->
<g id="node6" class="node">
<title>Node6</title>
<g id="a_node6"><a xlink:href="gsd_8h.html" target="_top" xlink:title="Declare GSD data types and C API.">
<polygon fill="none" stroke="black" points="103,-62 103,-81 144,-81 144,-62 103,-62"/>
<text text-anchor="middle" x="123.5" y="-69" font-family="Helvetica,sans-Serif" font-size="10.00">gsd.h</text>
</a>
</g>
</g>
<!-- Node4&#45;&gt;Node6 -->
<g id="edge15" class="edge">
<title>Node4&#45;&gt;Node6</title>
<path fill="none" stroke="midnightblue" d="M414.9,-197.07C342.76,-193.15 204.59,-182.11 165.5,-154 144.43,-138.85 133.17,-109.95 127.76,-90.95"/>
<polygon fill="midnightblue" stroke="midnightblue" points="131.1,-89.9 125.23,-81.09 124.33,-91.65 131.1,-89.9"/>
</g>
<!-- Node4&#45;&gt;Node10 -->
<g id="edge17" class="edge">
<title>Node4&#45;&gt;Node10</title>
<path fill="none" stroke="midnightblue" d="M471.23,-190.3C482.57,-181.65 499.96,-167.73 513.5,-154 531.9,-135.34 550.47,-111.91 563.2,-94.96"/>
<polygon fill="midnightblue" stroke="midnightblue" points="566.15,-96.86 569.3,-86.75 560.53,-92.69 566.15,-96.86"/>
</g>
<!-- Node4&#45;&gt;Node11 -->
<g id="edge18" class="edge">
<title>Node4&#45;&gt;Node11</title>
<path fill="none" stroke="midnightblue" d="M414.87,-195.88C338.46,-190.01 186.12,-175.94 137.5,-154 103.86,-138.82 73.03,-107.9 56.1,-88.81"/>
<polygon fill="midnightblue" stroke="midnightblue" points="58.72,-86.49 49.53,-81.21 53.42,-91.06 58.72,-86.49"/>
</g>
<!-- Node12 -->
<g id="node12" class="node">
<title>Node12</title>
<g id="a_node12"><a xlink:title=" ">
<polygon fill="none" stroke="#bfbfbf" points="162.5,-62 162.5,-81 214.5,-81 214.5,-62 162.5,-62"/>
<text text-anchor="middle" x="188.5" y="-69" font-family="Helvetica,sans-Serif" font-size="10.00">memory</text>
</a>
</g>
</g>
<!-- Node4&#45;&gt;Node12 -->
<g id="edge27" class="edge">
<title>Node4&#45;&gt;Node12</title>
<path fill="none" stroke="midnightblue" d="M414.78,-198.62C343.09,-196.96 207.46,-189.12 177.5,-154 162.56,-136.48 170.8,-108.7 178.95,-90.53"/>
<polygon fill="midnightblue" stroke="midnightblue" points="182.21,-91.85 183.45,-81.32 175.92,-88.78 182.21,-91.85"/>
</g>
<!-- Node13 -->
<g id="node13" class="node">
<title>Node13</title>
<g id="a_node13"><a xlink:title=" ">
<polygon fill="none" stroke="#bfbfbf" points="233,-62 233,-81 292,-81 292,-62 233,-62"/>
<text text-anchor="middle" x="262.5" y="-69" font-family="Helvetica,sans-Serif" font-size="10.00">stdexcept</text>
</a>
</g>
</g>
<!-- Node4&#45;&gt;Node13 -->
<g id="edge28" class="edge">
<title>Node4&#45;&gt;Node13</title>
<path fill="none" stroke="midnightblue" d="M414.99,-190.5C387.92,-183.78 353.64,-172.39 327.5,-154 303.28,-136.96 283.47,-108.42 272.33,-90.03"/>
<polygon fill="midnightblue" stroke="midnightblue" points="275.25,-88.09 267.18,-81.23 269.21,-91.63 275.25,-88.09"/>
</g>
<!-- Node14 -->
<g id="node14" class="node">
<title>Node14</title>
<g id="a_node14"><a xlink:title=" ">
<polygon fill="none" stroke="#bfbfbf" points="310,-62 310,-81 351,-81 351,-62 310,-62"/>
<text text-anchor="middle" x="330.5" y="-69" font-family="Helvetica,sans-Serif" font-size="10.00">string</text>
</a>
</g>
</g>
<!-- Node4&#45;&gt;Node14 -->
<g id="edge29" class="edge">
<title>Node4&#45;&gt;Node14</title>
<path fill="none" stroke="midnightblue" d="M414.82,-192.7C390.1,-186.85 360.94,-175.59 343.5,-154 329.25,-136.36 327.65,-109.39 328.51,-91.36"/>
<polygon fill="midnightblue" stroke="midnightblue" points="332.01,-91.46 329.29,-81.22 325.03,-90.92 332.01,-91.46"/>
</g>
<!-- Node15 -->
<g id="node15" class="node">
<title>Node15</title>
<g id="a_node15"><a xlink:title=" ">
<polygon fill="none" stroke="#bfbfbf" points="414.5,-129 414.5,-148 504.5,-148 504.5,-129 414.5,-129"/>
<text text-anchor="middle" x="459.5" y="-136" font-family="Helvetica,sans-Serif" font-size="10.00">spdlog/fmt/ostr.h</text>
</a>
</g>
</g>
<!-- Node4&#45;&gt;Node15 -->
<g id="edge16" class="edge">
<title>Node4&#45;&gt;Node15</title>
<path fill="none" stroke="midnightblue" d="M459.5,-190.48C459.5,-182.08 459.5,-168.98 459.5,-158.16"/>
<polygon fill="midnightblue" stroke="midnightblue" points="463,-158.01 459.5,-148.01 456,-158.01 463,-158.01"/>
</g>
<!-- Node4&#45;&gt;Node16 -->
<g id="edge19" class="edge">
<title>Node4&#45;&gt;Node16</title>
<path fill="none" stroke="midnightblue" d="M476.96,-190.31C520.66,-168.54 634.96,-111.62 687,-85.7"/>
<polygon fill="midnightblue" stroke="midnightblue" points="688.86,-88.68 696.26,-81.09 685.74,-82.41 688.86,-88.68"/>
</g>
<!-- Node4&#45;&gt;Node17 -->
<g id="edge20" class="edge">
<title>Node4&#45;&gt;Node17</title>
<path fill="none" stroke="midnightblue" d="M504.08,-195.76C577.39,-190.03 727.79,-176.51 853.5,-154 960.58,-134.82 1084.52,-101.33 1146.29,-83.85"/>
<polygon fill="midnightblue" stroke="midnightblue" points="1147.35,-87.18 1156.01,-81.08 1145.43,-80.45 1147.35,-87.18"/>
</g>
<!-- Node4&#45;&gt;Node18 -->
<g id="edge21" class="edge">
<title>Node4&#45;&gt;Node18</title>
<path fill="none" stroke="midnightblue" d="M485.22,-190.49C538.79,-172.84 660.86,-133.08 703.5,-123 786.29,-103.42 883.39,-88.86 946.1,-80.53"/>
<polygon fill="midnightblue" stroke="midnightblue" points="946.78,-83.97 956.24,-79.2 945.87,-77.03 946.78,-83.97"/>
</g>
<!-- Node4&#45;&gt;Node19 -->
<g id="edge22" class="edge">
<title>Node4&#45;&gt;Node19</title>
<path fill="none" stroke="midnightblue" d="M504.19,-190.66C555.6,-181.08 640.86,-165.17 702.7,-153.64"/>
<polygon fill="midnightblue" stroke="midnightblue" points="703.61,-157.03 712.8,-151.75 702.33,-150.15 703.61,-157.03"/>
</g>
<!-- Node4&#45;&gt;Node20 -->
<g id="edge23" class="edge">
<title>Node4&#45;&gt;Node20</title>
<path fill="none" stroke="midnightblue" d="M504.18,-194.84C607.29,-185.24 863.74,-161.36 1003.7,-148.33"/>
<polygon fill="midnightblue" stroke="midnightblue" points="1004.35,-151.78 1013.98,-147.37 1003.7,-144.81 1004.35,-151.78"/>
</g>
<!-- Node21 -->
<g id="node21" class="node">
<title>Node21</title>
<g id="a_node21"><a xlink:title=" ">
<polygon fill="none" stroke="#bfbfbf" points="352.5,-129 352.5,-148 396.5,-148 396.5,-129 352.5,-129"/>
<text text-anchor="middle" x="374.5" y="-136" font-family="Helvetica,sans-Serif" font-size="10.00">thread</text>
</a>
</g>
</g>
<!-- Node4&#45;&gt;Node21 -->
<g id="edge30" class="edge">
<title>Node4&#45;&gt;Node21</title>
<path fill="none" stroke="midnightblue" d="M447.32,-190.48C433.69,-180.93 411.37,-165.31 395.03,-153.87"/>
<polygon fill="midnightblue" stroke="midnightblue" points="396.86,-150.88 386.66,-148.01 392.84,-156.61 396.86,-150.88"/>
</g>
<!-- Node5&#45;&gt;Node4 -->
<g id="edge9" class="edge">
<title>Node5&#45;&gt;Node4</title>
<path fill="none" stroke="midnightblue" d="M258.63,-147.71C266.26,-149.82 274.16,-152.05 281.5,-154 328.36,-166.42 382.2,-179.23 418.41,-187.99"/>
<polygon fill="midnightblue" stroke="midnightblue" points="418.04,-191.5 428.59,-190.46 419.69,-184.7 418.04,-191.5"/>
</g>
<!-- Node5&#45;&gt;Node6 -->
<g id="edge5" class="edge">
<title>Node5&#45;&gt;Node6</title>
<path fill="none" stroke="midnightblue" d="M209.15,-128.73C192.75,-117.96 164.7,-99.55 145.19,-86.74"/>
<polygon fill="midnightblue" stroke="midnightblue" points="146.92,-83.69 136.64,-81.13 143.08,-89.54 146.92,-83.69"/>
</g>
<!-- Node5&#45;&gt;Node10 -->
<g id="edge10" class="edge">
<title>Node5&#45;&gt;Node10</title>
<path fill="none" stroke="midnightblue" d="M258.7,-130.91C320.24,-119.7 445.82,-96.84 520.3,-83.28"/>
<polygon fill="midnightblue" stroke="midnightblue" points="521.24,-86.66 530.46,-81.43 519.99,-79.78 521.24,-86.66"/>
</g>
<!-- Node5&#45;&gt;Node11 -->
<g id="edge11" class="edge">
<title>Node5&#45;&gt;Node11</title>
<path fill="none" stroke="midnightblue" d="M198.6,-128.87C167.04,-117.47 111.32,-97.35 75.69,-84.49"/>
<polygon fill="midnightblue" stroke="midnightblue" points="76.81,-81.17 66.21,-81.06 74.43,-87.75 76.81,-81.17"/>
</g>
<!-- Node5&#45;&gt;Node12 -->
<g id="edge12" class="edge">
<title>Node5&#45;&gt;Node12</title>
<path fill="none" stroke="midnightblue" d="M217.91,-128.73C212.77,-118.89 204.28,-102.66 197.74,-90.16"/>
<polygon fill="midnightblue" stroke="midnightblue" points="200.75,-88.37 193.01,-81.13 194.55,-91.61 200.75,-88.37"/>
</g>
<!-- Node5&#45;&gt;Node13 -->
<g id="edge13" class="edge">
<title>Node5&#45;&gt;Node13</title>
<path fill="none" stroke="midnightblue" d="M227.89,-128.73C234.01,-118.79 244.14,-102.34 251.86,-89.79"/>
<polygon fill="midnightblue" stroke="midnightblue" points="254.93,-91.48 257.19,-81.13 248.97,-87.81 254.93,-91.48"/>
</g>
<!-- Node5&#45;&gt;Node14 -->
<g id="edge14" class="edge">
<title>Node5&#45;&gt;Node14</title>
<path fill="none" stroke="midnightblue" d="M237.07,-128.73C255.12,-117.87 286.11,-99.22 307.42,-86.39"/>
<polygon fill="midnightblue" stroke="midnightblue" points="309.4,-89.28 316.17,-81.13 305.79,-83.29 309.4,-89.28"/>
</g>
<!-- Node7 -->
<g id="node7" class="node">
<title>Node7</title>
<g id="a_node7"><a xlink:title=" ">
<polygon fill="none" stroke="#bfbfbf" points="24.5,-0.5 24.5,-19.5 80.5,-19.5 80.5,-0.5 24.5,-0.5"/>
<text text-anchor="middle" x="52.5" y="-7.5" font-family="Helvetica,sans-Serif" font-size="10.00">stdbool.h</text>
</a>
</g>
</g>
<!-- Node6&#45;&gt;Node7 -->
<g id="edge6" class="edge">
<title>Node6&#45;&gt;Node7</title>
<path fill="none" stroke="midnightblue" d="M113.33,-61.98C102.15,-52.61 83.98,-37.38 70.41,-26.01"/>
<polygon fill="midnightblue" stroke="midnightblue" points="72.57,-23.25 62.65,-19.51 68.07,-28.61 72.57,-23.25"/>
</g>
<!-- Node8 -->
<g id="node8" class="node">
<title>Node8</title>
<g id="a_node8"><a xlink:title=" ">
<polygon fill="none" stroke="#bfbfbf" points="99,-0.5 99,-19.5 148,-19.5 148,-0.5 99,-0.5"/>
<text text-anchor="middle" x="123.5" y="-7.5" font-family="Helvetica,sans-Serif" font-size="10.00">stdint.h</text>
</a>
</g>
</g>
<!-- Node6&#45;&gt;Node8 -->
<g id="edge7" class="edge">
<title>Node6&#45;&gt;Node8</title>
<path fill="none" stroke="midnightblue" d="M123.5,-61.98C123.5,-53.58 123.5,-40.48 123.5,-29.66"/>
<polygon fill="midnightblue" stroke="midnightblue" points="127,-29.51 123.5,-19.51 120,-29.51 127,-29.51"/>
</g>
<!-- Node9 -->
<g id="node9" class="node">
<title>Node9</title>
<g id="a_node9"><a xlink:title=" ">
<polygon fill="none" stroke="#bfbfbf" points="166,-0.5 166,-19.5 215,-19.5 215,-0.5 166,-0.5"/>
<text text-anchor="middle" x="190.5" y="-7.5" font-family="Helvetica,sans-Serif" font-size="10.00">string.h</text>
</a>
</g>
</g>
<!-- Node6&#45;&gt;Node9 -->
<g id="edge8" class="edge">
<title>Node6&#45;&gt;Node9</title>
<path fill="none" stroke="midnightblue" d="M133.1,-61.98C143.55,-52.7 160.47,-37.67 173.24,-26.33"/>
<polygon fill="midnightblue" stroke="midnightblue" points="175.77,-28.77 180.92,-19.51 171.12,-23.53 175.77,-28.77"/>
</g>
<!-- Node20&#45;&gt;Node16 -->
<g id="edge24" class="edge">
<title>Node20&#45;&gt;Node16</title>
<path fill="none" stroke="midnightblue" d="M1047.77,-128.94C976.69,-116.93 847.73,-95.16 772.46,-82.46"/>
<polygon fill="midnightblue" stroke="midnightblue" points="772.66,-78.94 762.21,-80.72 771.49,-85.84 772.66,-78.94"/>
</g>
<!-- Node20&#45;&gt;Node17 -->
<g id="edge25" class="edge">
<title>Node20&#45;&gt;Node17</title>
<path fill="none" stroke="midnightblue" d="M1110.23,-128.73C1124.45,-118.11 1148.63,-100.05 1165.74,-87.26"/>
<polygon fill="midnightblue" stroke="midnightblue" points="1168.04,-89.92 1173.95,-81.13 1163.85,-84.31 1168.04,-89.92"/>
</g>
<!-- Node20&#45;&gt;Node18 -->
<g id="edge26" class="edge">
<title>Node20&#45;&gt;Node18</title>
<path fill="none" stroke="midnightblue" d="M1086.77,-128.73C1074.44,-119.53 1054.64,-104.73 1038.44,-92.63"/>
<polygon fill="midnightblue" stroke="midnightblue" points="1040.46,-89.77 1030.36,-86.59 1036.27,-95.38 1040.46,-89.77"/>
</g>
</g>
</svg>
