<?xml version="1.0" encoding="UTF-8" standalone="no"?>
<!DOCTYPE svg PUBLIC "-//W3C//DTD SVG 1.1//EN"
 "http://www.w3.org/Graphics/SVG/1.1/DTD/svg11.dtd">
<!-- Generated by graphviz version 2.43.0 (0)
 -->
<!-- Title: src/integrators/rungeKutta4.cpp Pages: 1 -->
<svg width="1209pt" height="386pt"
 viewBox="0.00 0.00 1209.00 386.00" xmlns="http://www.w3.org/2000/svg" xmlns:xlink="http://www.w3.org/1999/xlink">
<g id="graph0" class="graph" transform="scale(1 1) rotate(0) translate(4 382)">
<title>src/integrators/rungeKutta4.cpp</title>
<!-- Node1 -->
<g id="node1" class="node">
<title>Node1</title>
<g id="a_node1"><a xlink:title=" ">
<polygon fill="#bfbfbf" stroke="black" points="745.5,-358.5 745.5,-377.5 898.5,-377.5 898.5,-358.5 745.5,-358.5"/>
<text text-anchor="middle" x="822" y="-365.5" font-family="Helvetica,sans-Serif" font-size="10.00">src/integrators/rungeKutta4.cpp</text>
</a>
</g>
</g>
<!-- Node2 -->
<g id="node2" class="node">
<title>Node2</title>
<g id="a_node2"><a xlink:href="rungeKutta4_8hpp.html" target="_top" xlink:title=" ">
<polygon fill="none" stroke="black" points="778,-302.5 778,-321.5 866,-321.5 866,-302.5 778,-302.5"/>
<text text-anchor="middle" x="822" y="-309.5" font-family="Helvetica,sans-Serif" font-size="10.00">rungeKutta4.hpp</text>
</a>
</g>
</g>
<!-- Node1&#45;&gt;Node2 -->
<g id="edge1" class="edge">
<title>Node1&#45;&gt;Node2</title>
<path fill="none" stroke="midnightblue" d="M822,-358.08C822,-351.01 822,-340.86 822,-331.99"/>
<polygon fill="midnightblue" stroke="midnightblue" points="825.5,-331.75 822,-321.75 818.5,-331.75 825.5,-331.75"/>
</g>
<!-- Node3 -->
<g id="node3" class="node">
<title>Node3</title>
<g id="a_node3"><a xlink:href="potentialHydrodynamics_8hpp.html" target="_top" xlink:title=" ">
<polygon fill="none" stroke="black" points="607,-246.5 607,-265.5 747,-265.5 747,-246.5 607,-246.5"/>
<text text-anchor="middle" x="677" y="-253.5" font-family="Helvetica,sans-Serif" font-size="10.00">potentialHydrodynamics.hpp</text>
</a>
</g>
</g>
<!-- Node2&#45;&gt;Node3 -->
<g id="edge2" class="edge">
<title>Node2&#45;&gt;Node3</title>
<path fill="none" stroke="midnightblue" d="M799.02,-302.44C774.84,-293.44 736.58,-279.19 709.35,-269.05"/>
<polygon fill="midnightblue" stroke="midnightblue" points="710.46,-265.73 699.87,-265.52 708.02,-272.29 710.46,-265.73"/>
</g>
<!-- Node4 -->
<g id="node4" class="node">
<title>Node4</title>
<g id="a_node4"><a xlink:href="systemData_8hpp.html" target="_top" xlink:title=" ">
<polygon fill="none" stroke="black" points="451.5,-190.5 451.5,-209.5 540.5,-209.5 540.5,-190.5 451.5,-190.5"/>
<text text-anchor="middle" x="496" y="-197.5" font-family="Helvetica,sans-Serif" font-size="10.00">systemData.hpp</text>
</a>
</g>
</g>
<!-- Node2&#45;&gt;Node4 -->
<g id="edge35" class="edge">
<title>Node2&#45;&gt;Node4</title>
<path fill="none" stroke="midnightblue" d="M777.69,-306.96C731.48,-301.65 657.61,-290 598,-266 566.58,-253.35 534.26,-230.84 514.65,-215.91"/>
<polygon fill="midnightblue" stroke="midnightblue" points="516.63,-213.02 506.58,-209.65 512.34,-218.55 516.63,-213.02"/>
</g>
<!-- Node10 -->
<g id="node10" class="node">
<title>Node10</title>
<g id="a_node10"><a xlink:title=" ">
<polygon fill="none" stroke="#bfbfbf" points="0,-56.5 0,-86.5 98,-86.5 98,-56.5 0,-56.5"/>
<text text-anchor="start" x="8" y="-74.5" font-family="Helvetica,sans-Serif" font-size="10.00">spdlog/sinks/basic</text>
<text text-anchor="middle" x="49" y="-63.5" font-family="Helvetica,sans-Serif" font-size="10.00">_file_sink.h</text>
</a>
</g>
</g>
<!-- Node2&#45;&gt;Node10 -->
<g id="edge39" class="edge">
<title>Node2&#45;&gt;Node10</title>
<path fill="none" stroke="midnightblue" d="M777.99,-311.74C685.14,-312.35 462.98,-308.74 283,-266 218.2,-250.61 196.01,-251.6 144,-210 104.5,-178.41 74.75,-126.1 59.78,-95.92"/>
<polygon fill="midnightblue" stroke="midnightblue" points="62.78,-94.09 55.28,-86.6 56.48,-97.13 62.78,-94.09"/>
</g>
<!-- Node11 -->
<g id="node11" class="node">
<title>Node11</title>
<g id="a_node11"><a xlink:title=" ">
<polygon fill="none" stroke="#bfbfbf" points="127.5,-62 127.5,-81 212.5,-81 212.5,-62 127.5,-62"/>
<text text-anchor="middle" x="170" y="-69" font-family="Helvetica,sans-Serif" font-size="10.00">spdlog/spdlog.h</text>
</a>
</g>
</g>
<!-- Node2&#45;&gt;Node11 -->
<g id="edge40" class="edge">
<title>Node2&#45;&gt;Node11</title>
<path fill="none" stroke="midnightblue" d="M777.79,-311.78C671.15,-312.03 393.35,-302.97 187,-210 151.3,-193.92 135.71,-189.41 119,-154 113.12,-141.54 113.7,-135.72 119,-123 125.04,-108.52 137.47,-96.07 148.55,-87.15"/>
<polygon fill="midnightblue" stroke="midnightblue" points="150.76,-89.87 156.63,-81.05 146.54,-84.28 150.76,-89.87"/>
</g>
<!-- Node15 -->
<g id="node15" class="node">
<title>Node15</title>
<g id="a_node15"><a xlink:title=" ">
<polygon fill="none" stroke="#bfbfbf" points="887.5,-62 887.5,-81 984.5,-81 984.5,-62 887.5,-62"/>
<text text-anchor="middle" x="936" y="-69" font-family="Helvetica,sans-Serif" font-size="10.00">eigen3/Eigen/Core</text>
</a>
</g>
</g>
<!-- Node2&#45;&gt;Node15 -->
<g id="edge36" class="edge">
<title>Node2&#45;&gt;Node15</title>
<path fill="none" stroke="midnightblue" d="M866.07,-304.55C908.14,-297.39 967.11,-284.36 981,-266 1022.06,-211.71 973.06,-126.12 948.46,-89.76"/>
<polygon fill="midnightblue" stroke="midnightblue" points="951.12,-87.45 942.53,-81.25 945.38,-91.45 951.12,-87.45"/>
</g>
<!-- Node16 -->
<g id="node16" class="node">
<title>Node16</title>
<g id="a_node16"><a xlink:title=" ">
<polygon fill="none" stroke="#bfbfbf" points="645.5,-62 645.5,-81 746.5,-81 746.5,-62 645.5,-62"/>
<text text-anchor="middle" x="696" y="-69" font-family="Helvetica,sans-Serif" font-size="10.00">eigen3/Eigen/Eigen</text>
</a>
</g>
</g>
<!-- Node2&#45;&gt;Node16 -->
<g id="edge37" class="edge">
<title>Node2&#45;&gt;Node16</title>
<path fill="none" stroke="midnightblue" d="M816.8,-302.27C802.83,-278.69 763.5,-211.56 734,-154 723.02,-132.57 711.48,-107.39 704.04,-90.74"/>
<polygon fill="midnightblue" stroke="midnightblue" points="707.04,-88.89 699.79,-81.17 700.64,-91.73 707.04,-88.89"/>
</g>
<!-- Node17 -->
<g id="node17" class="node">
<title>Node17</title>
<g id="a_node17"><a xlink:title=" ">
<polygon fill="none" stroke="#bfbfbf" points="1018,-56.5 1018,-86.5 1128,-86.5 1128,-56.5 1018,-56.5"/>
<text text-anchor="start" x="1026" y="-74.5" font-family="Helvetica,sans-Serif" font-size="10.00">eigen3/unsupported</text>
<text text-anchor="middle" x="1073" y="-63.5" font-family="Helvetica,sans-Serif" font-size="10.00">/Eigen/CXX11/Tensor</text>
</a>
</g>
</g>
<!-- Node2&#45;&gt;Node17 -->
<g id="edge38" class="edge">
<title>Node2&#45;&gt;Node17</title>
<path fill="none" stroke="midnightblue" d="M866.33,-310.99C906.19,-308.64 964,-299.14 1001,-266 1051.14,-221.09 1066.46,-137.95 1071.07,-96.83"/>
<polygon fill="midnightblue" stroke="midnightblue" points="1074.57,-96.94 1072.08,-86.64 1067.61,-96.25 1074.57,-96.94"/>
</g>
<!-- Node21 -->
<g id="node21" class="node">
<title>Node21</title>
<g id="a_node21"><a xlink:title=" ">
<polygon fill="none" stroke="#bfbfbf" points="1147,-246.5 1147,-265.5 1201,-265.5 1201,-246.5 1147,-246.5"/>
<text text-anchor="middle" x="1174" y="-253.5" font-family="Helvetica,sans-Serif" font-size="10.00">iostream</text>
</a>
</g>
</g>
<!-- Node2&#45;&gt;Node21 -->
<g id="edge41" class="edge">
<title>Node2&#45;&gt;Node21</title>
<path fill="none" stroke="midnightblue" d="M866.2,-305.63C926.64,-298.05 1038.4,-283.2 1133,-266 1134.25,-265.77 1135.52,-265.53 1136.8,-265.29"/>
<polygon fill="midnightblue" stroke="midnightblue" points="1137.6,-268.7 1146.71,-263.28 1136.21,-261.84 1137.6,-268.7"/>
</g>
<!-- Node3&#45;&gt;Node4 -->
<g id="edge3" class="edge">
<title>Node3&#45;&gt;Node4</title>
<path fill="none" stroke="midnightblue" d="M648.32,-246.44C617.47,-237.24 568.27,-222.56 534.17,-212.39"/>
<polygon fill="midnightblue" stroke="midnightblue" points="535.13,-209.02 524.55,-209.52 533.13,-215.73 535.13,-209.02"/>
</g>
<!-- Node3&#45;&gt;Node10 -->
<g id="edge33" class="edge">
<title>Node3&#45;&gt;Node10</title>
<path fill="none" stroke="midnightblue" d="M606.9,-253.62C490.1,-250.47 261.17,-240.51 187,-210 130.39,-186.71 84.85,-127.63 63.02,-95"/>
<polygon fill="midnightblue" stroke="midnightblue" points="65.9,-93.01 57.5,-86.55 60.04,-96.84 65.9,-93.01"/>
</g>
<!-- Node3&#45;&gt;Node11 -->
<g id="edge34" class="edge">
<title>Node3&#45;&gt;Node11</title>
<path fill="none" stroke="midnightblue" d="M606.84,-252.82C472.79,-247.02 188.2,-226.28 128,-154 111.13,-133.74 133.67,-105.58 151.69,-88.22"/>
<polygon fill="midnightblue" stroke="midnightblue" points="154.48,-90.41 159.49,-81.08 149.75,-85.25 154.48,-90.41"/>
</g>
<!-- Node3&#45;&gt;Node15 -->
<g id="edge30" class="edge">
<title>Node3&#45;&gt;Node15</title>
<path fill="none" stroke="midnightblue" d="M747.03,-248.44C807.55,-238.68 891.75,-214.4 934,-154 946.9,-135.56 944.55,-108.59 940.91,-90.79"/>
<polygon fill="midnightblue" stroke="midnightblue" points="944.32,-89.98 938.61,-81.06 937.51,-91.6 944.32,-89.98"/>
</g>
<!-- Node3&#45;&gt;Node16 -->
<g id="edge31" class="edge">
<title>Node3&#45;&gt;Node16</title>
<path fill="none" stroke="midnightblue" d="M677.92,-246.2C680.83,-218.19 689.94,-130.71 694.01,-91.66"/>
<polygon fill="midnightblue" stroke="midnightblue" points="697.54,-91.52 695.09,-81.21 690.58,-90.8 697.54,-91.52"/>
</g>
<!-- Node3&#45;&gt;Node17 -->
<g id="edge32" class="edge">
<title>Node3&#45;&gt;Node17</title>
<path fill="none" stroke="midnightblue" d="M747.17,-248.14C791.96,-242 850.51,-230.64 899,-210 963.01,-182.75 1023.34,-125.47 1053.3,-94.12"/>
<polygon fill="midnightblue" stroke="midnightblue" points="1055.94,-96.43 1060.25,-86.75 1050.84,-91.63 1055.94,-96.43"/>
</g>
<!-- Node5 -->
<g id="node5" class="node">
<title>Node5</title>
<g id="a_node5"><a xlink:href="GSDUtil_8hpp.html" target="_top" xlink:title=" ">
<polygon fill="none" stroke="black" points="275,-129 275,-148 347,-148 347,-129 275,-129"/>
<text text-anchor="middle" x="311" y="-136" font-family="Helvetica,sans-Serif" font-size="10.00">GSDUtil.hpp</text>
</a>
</g>
</g>
<!-- Node4&#45;&gt;Node5 -->
<g id="edge4" class="edge">
<title>Node4&#45;&gt;Node5</title>
<path fill="none" stroke="midnightblue" d="M464.59,-190.48C430.34,-180.18 376.13,-162.81 342.03,-151.25"/>
<polygon fill="midnightblue" stroke="midnightblue" points="343.15,-147.94 332.56,-148.01 340.89,-154.56 343.15,-147.94"/>
</g>
<!-- Node6 -->
<g id="node6" class="node">
<title>Node6</title>
<g id="a_node6"><a xlink:href="gsd_8h.html" target="_top" xlink:title="Declare GSD data types and C API.">
<polygon fill="none" stroke="black" points="306.5,-62 306.5,-81 347.5,-81 347.5,-62 306.5,-62"/>
<text text-anchor="middle" x="327" y="-69" font-family="Helvetica,sans-Serif" font-size="10.00">gsd.h</text>
</a>
</g>
</g>
<!-- Node4&#45;&gt;Node6 -->
<g id="edge15" class="edge">
<title>Node4&#45;&gt;Node6</title>
<path fill="none" stroke="midnightblue" d="M467.26,-190.37C445.7,-182.98 416.2,-170.85 394,-154 370.36,-136.06 349.81,-108.19 337.91,-90.14"/>
<polygon fill="midnightblue" stroke="midnightblue" points="340.55,-87.79 332.22,-81.25 334.66,-91.56 340.55,-87.79"/>
</g>
<!-- Node4&#45;&gt;Node10 -->
<g id="edge16" class="edge">
<title>Node4&#45;&gt;Node10</title>
<path fill="none" stroke="midnightblue" d="M451.21,-197.24C365.94,-193.27 183.84,-181.76 128,-154 100.92,-140.54 77.91,-113.92 63.83,-94.76"/>
<polygon fill="midnightblue" stroke="midnightblue" points="66.65,-92.69 58,-86.56 60.94,-96.74 66.65,-92.69"/>
</g>
<!-- Node4&#45;&gt;Node11 -->
<g id="edge17" class="edge">
<title>Node4&#45;&gt;Node11</title>
<path fill="none" stroke="midnightblue" d="M451.16,-198.8C399.73,-196.83 314.24,-188.08 250,-154 220.65,-138.43 195.44,-108.32 181.53,-89.38"/>
<polygon fill="midnightblue" stroke="midnightblue" points="184.29,-87.21 175.64,-81.09 178.58,-91.27 184.29,-87.21"/>
</g>
<!-- Node12 -->
<g id="node12" class="node">
<title>Node12</title>
<g id="a_node12"><a xlink:title=" ">
<polygon fill="none" stroke="#bfbfbf" points="402,-62 402,-81 454,-81 454,-62 402,-62"/>
<text text-anchor="middle" x="428" y="-69" font-family="Helvetica,sans-Serif" font-size="10.00">memory</text>
</a>
</g>
</g>
<!-- Node4&#45;&gt;Node12 -->
<g id="edge26" class="edge">
<title>Node4&#45;&gt;Node12</title>
<path fill="none" stroke="midnightblue" d="M510.08,-190.26C521.35,-182.35 536.35,-169.58 543,-154 548.41,-141.33 550.53,-134.54 543,-123 525.66,-96.45 490.91,-83.77 464.13,-77.77"/>
<polygon fill="midnightblue" stroke="midnightblue" points="464.8,-74.33 454.31,-75.78 463.41,-81.19 464.8,-74.33"/>
</g>
<!-- Node13 -->
<g id="node13" class="node">
<title>Node13</title>
<g id="a_node13"><a xlink:title=" ">
<polygon fill="none" stroke="#bfbfbf" points="536.5,-62 536.5,-81 595.5,-81 595.5,-62 536.5,-62"/>
<text text-anchor="middle" x="566" y="-69" font-family="Helvetica,sans-Serif" font-size="10.00">stdexcept</text>
</a>
</g>
</g>
<!-- Node4&#45;&gt;Node13 -->
<g id="edge27" class="edge">
<title>Node4&#45;&gt;Node13</title>
<path fill="none" stroke="midnightblue" d="M516.49,-190.47C531.31,-183.13 550.35,-171.02 560,-154 570.96,-134.66 570.75,-108.47 568.94,-91.05"/>
<polygon fill="midnightblue" stroke="midnightblue" points="572.4,-90.49 567.62,-81.04 565.46,-91.41 572.4,-90.49"/>
</g>
<!-- Node14 -->
<g id="node14" class="node">
<title>Node14</title>
<g id="a_node14"><a xlink:title=" ">
<polygon fill="none" stroke="#bfbfbf" points="236.5,-62 236.5,-81 277.5,-81 277.5,-62 236.5,-62"/>
<text text-anchor="middle" x="257" y="-69" font-family="Helvetica,sans-Serif" font-size="10.00">string</text>
</a>
</g>
</g>
<!-- Node4&#45;&gt;Node14 -->
<g id="edge28" class="edge">
<title>Node4&#45;&gt;Node14</title>
<path fill="none" stroke="midnightblue" d="M451.28,-196.4C391.57,-191.93 290.45,-180.57 266,-154 250.6,-137.26 250.92,-109.65 253.33,-91.28"/>
<polygon fill="midnightblue" stroke="midnightblue" points="256.82,-91.64 254.99,-81.2 249.91,-90.51 256.82,-91.64"/>
</g>
<!-- Node4&#45;&gt;Node15 -->
<g id="edge18" class="edge">
<title>Node4&#45;&gt;Node15</title>
<path fill="none" stroke="midnightblue" d="M540.84,-196.86C642.1,-191.66 881.83,-177.02 910,-154 928.66,-138.75 934.11,-110.1 935.6,-91.15"/>
<polygon fill="midnightblue" stroke="midnightblue" points="939.1,-91.21 936.09,-81.06 932.11,-90.87 939.1,-91.21"/>
</g>
<!-- Node4&#45;&gt;Node16 -->
<g id="edge19" class="edge">
<title>Node4&#45;&gt;Node16</title>
<path fill="none" stroke="midnightblue" d="M513.16,-190.41C530.17,-181.73 556.82,-167.68 579,-154 614.34,-132.2 653.6,-103.98 676.47,-87.11"/>
<polygon fill="midnightblue" stroke="midnightblue" points="678.72,-89.8 684.66,-81.04 674.55,-84.18 678.72,-89.8"/>
</g>
<!-- Node4&#45;&gt;Node17 -->
<g id="edge20" class="edge">
<title>Node4&#45;&gt;Node17</title>
<path fill="none" stroke="midnightblue" d="M540.72,-196.82C637.14,-191.73 861.71,-177.66 934,-154 976.46,-140.1 1020.04,-111.82 1046.82,-92.52"/>
<polygon fill="midnightblue" stroke="midnightblue" points="1048.91,-95.33 1054.9,-86.59 1044.77,-89.68 1048.91,-95.33"/>
</g>
<!-- Node18 -->
<g id="node18" class="node">
<title>Node18</title>
<g id="a_node18"><a xlink:title=" ">
<polygon fill="none" stroke="#bfbfbf" points="403.5,-123.5 403.5,-153.5 534.5,-153.5 534.5,-123.5 403.5,-123.5"/>
<text text-anchor="start" x="411.5" y="-141.5" font-family="Helvetica,sans-Serif" font-size="10.00">eigen3/unsupported</text>
<text text-anchor="middle" x="469" y="-130.5" font-family="Helvetica,sans-Serif" font-size="10.00">/Eigen/CXX11/ThreadPool</text>
</a>
</g>
</g>
<!-- Node4&#45;&gt;Node18 -->
<g id="edge21" class="edge">
<title>Node4&#45;&gt;Node18</title>
<path fill="none" stroke="midnightblue" d="M492.13,-190.48C488.85,-183.25 483.99,-172.53 479.56,-162.78"/>
<polygon fill="midnightblue" stroke="midnightblue" points="482.68,-161.18 475.36,-153.52 476.31,-164.08 482.68,-161.18"/>
</g>
<!-- Node19 -->
<g id="node19" class="node">
<title>Node19</title>
<g id="a_node19"><a xlink:href="helper__eigenTensorConversion_8h.html" target="_top" xlink:title=" ">
<polygon fill="none" stroke="black" points="743,-129 743,-148 901,-148 901,-129 743,-129"/>
<text text-anchor="middle" x="822" y="-136" font-family="Helvetica,sans-Serif" font-size="10.00">helper_eigenTensorConversion.h</text>
</a>
</g>
</g>
<!-- Node4&#45;&gt;Node19 -->
<g id="edge22" class="edge">
<title>Node4&#45;&gt;Node19</title>
<path fill="none" stroke="midnightblue" d="M540.65,-190.85C599.08,-180.19 701.53,-161.49 765.36,-149.84"/>
<polygon fill="midnightblue" stroke="midnightblue" points="766.05,-153.27 775.26,-148.03 764.8,-146.38 766.05,-153.27"/>
</g>
<!-- Node20 -->
<g id="node20" class="node">
<title>Node20</title>
<g id="a_node20"><a xlink:title=" ">
<polygon fill="none" stroke="#bfbfbf" points="137,-129 137,-148 181,-148 181,-129 137,-129"/>
<text text-anchor="middle" x="159" y="-136" font-family="Helvetica,sans-Serif" font-size="10.00">thread</text>
</a>
</g>
</g>
<!-- Node4&#45;&gt;Node20 -->
<g id="edge29" class="edge">
<title>Node4&#45;&gt;Node20</title>
<path fill="none" stroke="midnightblue" d="M451.46,-195.63C392.12,-190.39 284.22,-178.28 195,-154 192.5,-153.32 189.93,-152.51 187.38,-151.64"/>
<polygon fill="midnightblue" stroke="midnightblue" points="188.36,-148.27 177.77,-148.03 185.9,-154.82 188.36,-148.27"/>
</g>
<!-- Node5&#45;&gt;Node4 -->
<g id="edge9" class="edge">
<title>Node5&#45;&gt;Node4</title>
<path fill="none" stroke="midnightblue" d="M342.35,-148.01C376.59,-158.3 430.8,-175.67 464.92,-187.23"/>
<polygon fill="midnightblue" stroke="midnightblue" points="463.8,-190.55 474.39,-190.48 466.07,-183.93 463.8,-190.55"/>
</g>
<!-- Node5&#45;&gt;Node6 -->
<g id="edge5" class="edge">
<title>Node5&#45;&gt;Node6</title>
<path fill="none" stroke="midnightblue" d="M313.16,-128.73C315.53,-119.09 319.42,-103.3 322.47,-90.91"/>
<polygon fill="midnightblue" stroke="midnightblue" points="325.88,-91.67 324.88,-81.13 319.09,-90 325.88,-91.67"/>
</g>
<!-- Node5&#45;&gt;Node10 -->
<g id="edge10" class="edge">
<title>Node5&#45;&gt;Node10</title>
<path fill="none" stroke="midnightblue" d="M276.48,-128.94C233.66,-118.31 159.99,-100.04 108.11,-87.16"/>
<polygon fill="midnightblue" stroke="midnightblue" points="108.91,-83.76 98.36,-84.75 107.22,-90.55 108.91,-83.76"/>
</g>
<!-- Node5&#45;&gt;Node11 -->
<g id="edge11" class="edge">
<title>Node5&#45;&gt;Node11</title>
<path fill="none" stroke="midnightblue" d="M292.28,-128.87C268.15,-117.75 226,-98.32 198.05,-85.43"/>
<polygon fill="midnightblue" stroke="midnightblue" points="199.35,-82.18 188.8,-81.17 196.42,-88.53 199.35,-82.18"/>
</g>
<!-- Node5&#45;&gt;Node12 -->
<g id="edge12" class="edge">
<title>Node5&#45;&gt;Node12</title>
<path fill="none" stroke="midnightblue" d="M326.78,-128.73C346.51,-117.77 380.51,-98.88 403.61,-86.05"/>
<polygon fill="midnightblue" stroke="midnightblue" points="405.43,-89.04 412.47,-81.13 402.03,-82.92 405.43,-89.04"/>
</g>
<!-- Node5&#45;&gt;Node13 -->
<g id="edge13" class="edge">
<title>Node5&#45;&gt;Node13</title>
<path fill="none" stroke="midnightblue" d="M344.6,-128.94C391.54,-116.97 476.58,-95.29 526.5,-82.57"/>
<polygon fill="midnightblue" stroke="midnightblue" points="527.47,-85.93 536.29,-80.07 525.74,-79.15 527.47,-85.93"/>
</g>
<!-- Node5&#45;&gt;Node14 -->
<g id="edge14" class="edge">
<title>Node5&#45;&gt;Node14</title>
<path fill="none" stroke="midnightblue" d="M303.72,-128.73C295.3,-118.6 281.25,-101.69 270.75,-89.06"/>
<polygon fill="midnightblue" stroke="midnightblue" points="273.25,-86.58 264.17,-81.13 267.87,-91.06 273.25,-86.58"/>
</g>
<!-- Node7 -->
<g id="node7" class="node">
<title>Node7</title>
<g id="a_node7"><a xlink:title=" ">
<polygon fill="none" stroke="#bfbfbf" points="228,-0.5 228,-19.5 284,-19.5 284,-0.5 228,-0.5"/>
<text text-anchor="middle" x="256" y="-7.5" font-family="Helvetica,sans-Serif" font-size="10.00">stdbool.h</text>
</a>
</g>
</g>
<!-- Node6&#45;&gt;Node7 -->
<g id="edge6" class="edge">
<title>Node6&#45;&gt;Node7</title>
<path fill="none" stroke="midnightblue" d="M316.83,-61.98C305.65,-52.61 287.48,-37.38 273.91,-26.01"/>
<polygon fill="midnightblue" stroke="midnightblue" points="276.07,-23.25 266.15,-19.51 271.57,-28.61 276.07,-23.25"/>
</g>
<!-- Node8 -->
<g id="node8" class="node">
<title>Node8</title>
<g id="a_node8"><a xlink:title=" ">
<polygon fill="none" stroke="#bfbfbf" points="302.5,-0.5 302.5,-19.5 351.5,-19.5 351.5,-0.5 302.5,-0.5"/>
<text text-anchor="middle" x="327" y="-7.5" font-family="Helvetica,sans-Serif" font-size="10.00">stdint.h</text>
</a>
</g>
</g>
<!-- Node6&#45;&gt;Node8 -->
<g id="edge7" class="edge">
<title>Node6&#45;&gt;Node8</title>
<path fill="none" stroke="midnightblue" d="M327,-61.98C327,-53.58 327,-40.48 327,-29.66"/>
<polygon fill="midnightblue" stroke="midnightblue" points="330.5,-29.51 327,-19.51 323.5,-29.51 330.5,-29.51"/>
</g>
<!-- Node9 -->
<g id="node9" class="node">
<title>Node9</title>
<g id="a_node9"><a xlink:title=" ">
<polygon fill="none" stroke="#bfbfbf" points="369.5,-0.5 369.5,-19.5 418.5,-19.5 418.5,-0.5 369.5,-0.5"/>
<text text-anchor="middle" x="394" y="-7.5" font-family="Helvetica,sans-Serif" font-size="10.00">string.h</text>
</a>
</g>
</g>
<!-- Node6&#45;&gt;Node9 -->
<g id="edge8" class="edge">
<title>Node6&#45;&gt;Node9</title>
<path fill="none" stroke="midnightblue" d="M336.6,-61.98C347.05,-52.7 363.97,-37.67 376.74,-26.33"/>
<polygon fill="midnightblue" stroke="midnightblue" points="379.27,-28.77 384.42,-19.51 374.62,-23.53 379.27,-28.77"/>
</g>
<!-- Node19&#45;&gt;Node15 -->
<g id="edge23" class="edge">
<title>Node19&#45;&gt;Node15</title>
<path fill="none" stroke="midnightblue" d="M837.37,-128.73C856.52,-117.82 889.44,-99.05 911.94,-86.22"/>
<polygon fill="midnightblue" stroke="midnightblue" points="913.92,-89.12 920.87,-81.13 910.45,-83.04 913.92,-89.12"/>
</g>
<!-- Node19&#45;&gt;Node16 -->
<g id="edge24" class="edge">
<title>Node19&#45;&gt;Node16</title>
<path fill="none" stroke="midnightblue" d="M805.27,-128.87C783.9,-117.84 746.7,-98.66 721.72,-85.77"/>
<polygon fill="midnightblue" stroke="midnightblue" points="723.29,-82.64 712.8,-81.17 720.08,-88.86 723.29,-82.64"/>
</g>
<!-- Node19&#45;&gt;Node17 -->
<g id="edge25" class="edge">
<title>Node19&#45;&gt;Node17</title>
<path fill="none" stroke="midnightblue" d="M855.07,-128.94C894.05,-118.84 959.73,-101.83 1008.82,-89.12"/>
<polygon fill="midnightblue" stroke="midnightblue" points="1009.91,-92.45 1018.71,-86.56 1008.15,-85.68 1009.91,-92.45"/>
</g>
</g>
</svg>
