<?xml version="1.0" encoding="UTF-8" standalone="no"?>
<!DOCTYPE svg PUBLIC "-//W3C//DTD SVG 1.1//EN"
 "http://www.w3.org/Graphics/SVG/1.1/DTD/svg11.dtd">
<!-- Generated by graphviz version 2.43.0 (0)
 -->
<!-- Title: gsd_name_buffer Pages: 1 -->
<svg width="99pt" height="193pt"
 viewBox="0.00 0.00 99.00 193.00" xmlns="http://www.w3.org/2000/svg" xmlns:xlink="http://www.w3.org/1999/xlink">
<g id="graph0" class="graph" transform="scale(1 1) rotate(0) translate(4 189)">
<title>gsd_name_buffer</title>
<!-- Node1 -->
<g id="node1" class="node">
<title>Node1</title>
<g id="a_node1"><a xlink:title=" ">
<polygon fill="#bfbfbf" stroke="black" points="0,-0.5 0,-57.5 91,-57.5 91,-0.5 0,-0.5"/>
<text text-anchor="middle" x="45.5" y="-45.5" font-family="Helvetica,sans-Serif" font-size="10.00">gsd_name_buffer</text>
<polyline fill="none" stroke="black" points="0,-38.5 91,-38.5 "/>
<text text-anchor="start" x="8" y="-26.5" font-family="Helvetica,sans-Serif" font-size="10.00">+ n_names</text>
<polyline fill="none" stroke="black" points="0,-19.5 91,-19.5 "/>
<text text-anchor="middle" x="45.5" y="-7.5" font-family="Helvetica,sans-Serif" font-size="10.00"> </text>
</a>
</g>
</g>
<!-- Node2 -->
<g id="node2" class="node">
<title>Node2</title>
<g id="a_node2"><a xlink:href="structgsd__byte__buffer.html" target="_top" xlink:title=" ">
<polygon fill="none" stroke="black" points="2.5,-105.5 2.5,-184.5 88.5,-184.5 88.5,-105.5 2.5,-105.5"/>
<text text-anchor="middle" x="45.5" y="-172.5" font-family="Helvetica,sans-Serif" font-size="10.00">gsd_byte_buffer</text>
<polyline fill="none" stroke="black" points="2.5,-165.5 88.5,-165.5 "/>
<text text-anchor="start" x="10.5" y="-153.5" font-family="Helvetica,sans-Serif" font-size="10.00">+ data</text>
<text text-anchor="start" x="10.5" y="-142.5" font-family="Helvetica,sans-Serif" font-size="10.00">+ size</text>
<text text-anchor="start" x="10.5" y="-131.5" font-family="Helvetica,sans-Serif" font-size="10.00">+ reserved</text>
<polyline fill="none" stroke="black" points="2.5,-124.5 88.5,-124.5 "/>
<text text-anchor="middle" x="45.5" y="-112.5" font-family="Helvetica,sans-Serif" font-size="10.00"> </text>
</a>
</g>
</g>
<!-- Node2&#45;&gt;Node1 -->
<g id="edge1" class="edge">
<title>Node2&#45;&gt;Node1</title>
<path fill="none" stroke="#404040" d="M45.5,-105.4C45.5,-93.93 45.5,-81.33 45.5,-69.78"/>
<polygon fill="none" stroke="#404040" points="45.5,-69.75 41.5,-63.75 45.5,-57.75 49.5,-63.75 45.5,-69.75"/>
<text text-anchor="middle" x="59.5" y="-79" font-family="Helvetica,sans-Serif" font-size="10.00"> +data</text>
</g>
</g>
</svg>
