<?xml version="1.0" encoding="UTF-8" standalone="no"?>
<!DOCTYPE svg PUBLIC "-//W3C//DTD SVG 1.1//EN"
 "http://www.w3.org/Graphics/SVG/1.1/DTD/svg11.dtd">
<!-- Generated by graphviz version 2.49.1 (20210923.0004)
 -->
<!-- Title: gsd_handle Pages: 1 -->
<svg width="624pt" height="507pt"
 viewBox="0.00 0.00 623.50 507.00" xmlns="http://www.w3.org/2000/svg" xmlns:xlink="http://www.w3.org/1999/xlink">
<g id="graph0" class="graph" transform="scale(1 1) rotate(0) translate(4 503)">
<title>gsd_handle</title>
<!-- Node1 -->
<g id="node1" class="node">
<title>Node1</title>
<g id="a_node1"><a xlink:title=" ">
<polygon fill="#bfbfbf" stroke="black" points="241,-0.5 241,-90.5 315,-90.5 315,-0.5 241,-0.5"/>
<text text-anchor="middle" x="278" y="-78.5" font-family="Helvetica,sans-Serif" font-size="10.00">gsd_handle</text>
<polyline fill="none" stroke="black" points="241,-71.5 315,-71.5 "/>
<text text-anchor="start" x="249" y="-59.5" font-family="Helvetica,sans-Serif" font-size="10.00">+ fd</text>
<text text-anchor="start" x="249" y="-48.5" font-family="Helvetica,sans-Serif" font-size="10.00">+ cur_frame</text>
<text text-anchor="start" x="249" y="-37.5" font-family="Helvetica,sans-Serif" font-size="10.00">+ file_size</text>
<text text-anchor="start" x="249" y="-26.5" font-family="Helvetica,sans-Serif" font-size="10.00">+ open_flags</text>
<polyline fill="none" stroke="black" points="241,-19.5 315,-19.5 "/>
<text text-anchor="middle" x="278" y="-7.5" font-family="Helvetica,sans-Serif" font-size="10.00"> </text>
</a>
</g>
</g>
<!-- Node2 -->
<g id="node2" class="node">
<title>Node2</title>
<g id="a_node2"><a xlink:href="structgsd__header.html" target="_top" xlink:title=" ">
<polygon fill="none" stroke="black" points="0,-160.5 0,-327.5 130,-327.5 130,-160.5 0,-160.5"/>
<text text-anchor="middle" x="65" y="-315.5" font-family="Helvetica,sans-Serif" font-size="10.00">gsd_header</text>
<polyline fill="none" stroke="black" points="0,-308.5 130,-308.5 "/>
<text text-anchor="start" x="8" y="-296.5" font-family="Helvetica,sans-Serif" font-size="10.00">+ magic</text>
<text text-anchor="start" x="8" y="-285.5" font-family="Helvetica,sans-Serif" font-size="10.00">+ index_location</text>
<text text-anchor="start" x="8" y="-274.5" font-family="Helvetica,sans-Serif" font-size="10.00">+ index_allocated_entries</text>
<text text-anchor="start" x="8" y="-263.5" font-family="Helvetica,sans-Serif" font-size="10.00">+ namelist_location</text>
<text text-anchor="start" x="8" y="-252.5" font-family="Helvetica,sans-Serif" font-size="10.00">+ namelist_allocated</text>
<text text-anchor="start" x="8" y="-241.5" font-family="Helvetica,sans-Serif" font-size="10.00">_entries</text>
<text text-anchor="start" x="8" y="-230.5" font-family="Helvetica,sans-Serif" font-size="10.00">+ schema_version</text>
<text text-anchor="start" x="8" y="-219.5" font-family="Helvetica,sans-Serif" font-size="10.00">+ gsd_version</text>
<text text-anchor="start" x="8" y="-208.5" font-family="Helvetica,sans-Serif" font-size="10.00">+ application</text>
<text text-anchor="start" x="8" y="-197.5" font-family="Helvetica,sans-Serif" font-size="10.00">+ schema</text>
<text text-anchor="start" x="8" y="-186.5" font-family="Helvetica,sans-Serif" font-size="10.00">+ reserved</text>
<polyline fill="none" stroke="black" points="0,-179.5 130,-179.5 "/>
<text text-anchor="middle" x="65" y="-167.5" font-family="Helvetica,sans-Serif" font-size="10.00"> </text>
</a>
</g>
</g>
<!-- Node2&#45;&gt;Node1 -->
<g id="edge1" class="edge">
<title>Node2&#45;&gt;Node1</title>
<path fill="none" stroke="#404040" d="M104.55,-160.4C116.08,-141.9 129.96,-123.49 146,-109 169.85,-87.46 202.44,-71.93 229.27,-61.73"/>
<polygon fill="none" stroke="#404040" points="229.48,-61.66 233.75,-55.85 240.75,-57.56 236.48,-63.37 229.48,-61.66"/>
<text text-anchor="middle" x="166" y="-123" font-family="Helvetica,sans-Serif" font-size="10.00"> +header</text>
</g>
<!-- Node3 -->
<g id="node3" class="node">
<title>Node3</title>
<g id="a_node3"><a xlink:href="structgsd__index__buffer.html" target="_top" xlink:title=" ">
<polygon fill="none" stroke="black" points="148.5,-199 148.5,-289 241.5,-289 241.5,-199 148.5,-199"/>
<text text-anchor="middle" x="195" y="-277" font-family="Helvetica,sans-Serif" font-size="10.00">gsd_index_buffer</text>
<polyline fill="none" stroke="black" points="148.5,-270 241.5,-270 "/>
<text text-anchor="start" x="156.5" y="-258" font-family="Helvetica,sans-Serif" font-size="10.00">+ size</text>
<text text-anchor="start" x="156.5" y="-247" font-family="Helvetica,sans-Serif" font-size="10.00">+ reserved</text>
<text text-anchor="start" x="156.5" y="-236" font-family="Helvetica,sans-Serif" font-size="10.00">+ mapped_data</text>
<text text-anchor="start" x="156.5" y="-225" font-family="Helvetica,sans-Serif" font-size="10.00">+ mapped_len</text>
<polyline fill="none" stroke="black" points="148.5,-218 241.5,-218 "/>
<text text-anchor="middle" x="195" y="-206" font-family="Helvetica,sans-Serif" font-size="10.00"> </text>
</a>
</g>
</g>
<!-- Node3&#45;&gt;Node1 -->
<g id="edge2" class="edge">
<title>Node3&#45;&gt;Node1</title>
<path fill="none" stroke="#404040" d="M187.69,-198.77C185.28,-171.48 186.13,-136.55 200,-109 207.02,-95.06 218.73,-83.2 230.98,-73.68"/>
<polygon fill="none" stroke="#404040" points="231.11,-73.58 233.63,-66.82 240.84,-66.55 238.32,-73.3 231.11,-73.58"/>
<text text-anchor="middle" x="232" y="-134" font-family="Helvetica,sans-Serif" font-size="10.00"> +buffer_index</text>
<text text-anchor="middle" x="232" y="-123" font-family="Helvetica,sans-Serif" font-size="10.00">+file_index</text>
<text text-anchor="middle" x="232" y="-112" font-family="Helvetica,sans-Serif" font-size="10.00">+frame_index</text>
</g>
<!-- Node4 -->
<g id="node4" class="node">
<title>Node4</title>
<g id="a_node4"><a xlink:href="structgsd__index__entry.html" target="_top" xlink:title=" ">
<polygon fill="none" stroke="black" points="150,-375.5 150,-498.5 240,-498.5 240,-375.5 150,-375.5"/>
<text text-anchor="middle" x="195" y="-486.5" font-family="Helvetica,sans-Serif" font-size="10.00">gsd_index_entry</text>
<polyline fill="none" stroke="black" points="150,-479.5 240,-479.5 "/>
<text text-anchor="start" x="158" y="-467.5" font-family="Helvetica,sans-Serif" font-size="10.00">+ frame</text>
<text text-anchor="start" x="158" y="-456.5" font-family="Helvetica,sans-Serif" font-size="10.00">+ N</text>
<text text-anchor="start" x="158" y="-445.5" font-family="Helvetica,sans-Serif" font-size="10.00">+ location</text>
<text text-anchor="start" x="158" y="-434.5" font-family="Helvetica,sans-Serif" font-size="10.00">+ M</text>
<text text-anchor="start" x="158" y="-423.5" font-family="Helvetica,sans-Serif" font-size="10.00">+ id</text>
<text text-anchor="start" x="158" y="-412.5" font-family="Helvetica,sans-Serif" font-size="10.00">+ type</text>
<text text-anchor="start" x="158" y="-401.5" font-family="Helvetica,sans-Serif" font-size="10.00">+ flags</text>
<polyline fill="none" stroke="black" points="150,-394.5 240,-394.5 "/>
<text text-anchor="middle" x="195" y="-382.5" font-family="Helvetica,sans-Serif" font-size="10.00"> </text>
</a>
</g>
</g>
<!-- Node4&#45;&gt;Node3 -->
<g id="edge3" class="edge">
<title>Node4&#45;&gt;Node3</title>
<path fill="none" stroke="#404040" d="M195,-375.3C195,-351.6 195,-324.58 195,-301.32"/>
<polygon fill="none" stroke="#404040" points="195,-301.18 191,-295.18 195,-289.18 199,-295.18 195,-301.18"/>
<text text-anchor="middle" x="209.5" y="-349" font-family="Helvetica,sans-Serif" font-size="10.00"> +data</text>
</g>
<!-- Node5 -->
<g id="node5" class="node">
<title>Node5</title>
<g id="a_node5"><a xlink:href="structgsd__byte__buffer.html" target="_top" xlink:title=" ">
<polygon fill="none" stroke="black" points="286,-397.5 286,-476.5 374,-476.5 374,-397.5 286,-397.5"/>
<text text-anchor="middle" x="330" y="-464.5" font-family="Helvetica,sans-Serif" font-size="10.00">gsd_byte_buffer</text>
<polyline fill="none" stroke="black" points="286,-457.5 374,-457.5 "/>
<text text-anchor="start" x="294" y="-445.5" font-family="Helvetica,sans-Serif" font-size="10.00">+ data</text>
<text text-anchor="start" x="294" y="-434.5" font-family="Helvetica,sans-Serif" font-size="10.00">+ size</text>
<text text-anchor="start" x="294" y="-423.5" font-family="Helvetica,sans-Serif" font-size="10.00">+ reserved</text>
<polyline fill="none" stroke="black" points="286,-416.5 374,-416.5 "/>
<text text-anchor="middle" x="330" y="-404.5" font-family="Helvetica,sans-Serif" font-size="10.00"> </text>
</a>
</g>
</g>
<!-- Node5&#45;&gt;Node1 -->
<g id="edge4" class="edge">
<title>Node5&#45;&gt;Node1</title>
<path fill="none" stroke="#404040" d="M310.67,-397.02C301.7,-376.92 291.94,-351.71 287,-328 271.02,-251.29 271.52,-160.32 274.13,-103"/>
<polygon fill="none" stroke="#404040" points="274.13,-102.93 270.43,-96.73 274.73,-90.94 278.42,-97.13 274.13,-102.93"/>
<text text-anchor="middle" x="317.5" y="-241.5" font-family="Helvetica,sans-Serif" font-size="10.00"> +write_buffer</text>
</g>
<!-- Node6 -->
<g id="node6" class="node">
<title>Node6</title>
<g id="a_node6"><a xlink:href="structgsd__name__buffer.html" target="_top" xlink:title=" ">
<polygon fill="none" stroke="black" points="357,-215.5 357,-272.5 451,-272.5 451,-215.5 357,-215.5"/>
<text text-anchor="middle" x="404" y="-260.5" font-family="Helvetica,sans-Serif" font-size="10.00">gsd_name_buffer</text>
<polyline fill="none" stroke="black" points="357,-253.5 451,-253.5 "/>
<text text-anchor="start" x="365" y="-241.5" font-family="Helvetica,sans-Serif" font-size="10.00">+ n_names</text>
<polyline fill="none" stroke="black" points="357,-234.5 451,-234.5 "/>
<text text-anchor="middle" x="404" y="-222.5" font-family="Helvetica,sans-Serif" font-size="10.00"> </text>
</a>
</g>
</g>
<!-- Node5&#45;&gt;Node6 -->
<g id="edge6" class="edge">
<title>Node5&#45;&gt;Node6</title>
<path fill="none" stroke="#404040" d="M344.98,-397.35C357.73,-364.44 375.96,-317.36 388.78,-284.28"/>
<polygon fill="none" stroke="#404040" points="388.91,-283.96 387.34,-276.92 393.24,-272.77 394.8,-279.81 388.91,-283.96"/>
<text text-anchor="middle" x="379.5" y="-349" font-family="Helvetica,sans-Serif" font-size="10.00"> +data</text>
</g>
<!-- Node6&#45;&gt;Node1 -->
<g id="edge5" class="edge">
<title>Node6&#45;&gt;Node1</title>
<path fill="none" stroke="#404040" d="M386.21,-215.26C367.24,-185.67 336.7,-138.05 312.9,-100.92"/>
<polygon fill="none" stroke="#404040" points="312.85,-100.86 306.25,-97.96 306.38,-90.75 312.98,-93.65 312.85,-100.86"/>
<text text-anchor="middle" x="371.5" y="-128.5" font-family="Helvetica,sans-Serif" font-size="10.00"> +file_names</text>
<text text-anchor="middle" x="371.5" y="-117.5" font-family="Helvetica,sans-Serif" font-size="10.00">+frame_names</text>
</g>
<!-- Node7 -->
<g id="node7" class="node">
<title>Node7</title>
<g id="a_node7"><a xlink:href="structgsd__name__id__map.html" target="_top" xlink:title=" ">
<polygon fill="none" stroke="black" points="469,-215.5 469,-272.5 571,-272.5 571,-215.5 469,-215.5"/>
<text text-anchor="middle" x="520" y="-260.5" font-family="Helvetica,sans-Serif" font-size="10.00">gsd_name_id_map</text>
<polyline fill="none" stroke="black" points="469,-253.5 571,-253.5 "/>
<text text-anchor="start" x="477" y="-241.5" font-family="Helvetica,sans-Serif" font-size="10.00">+ size</text>
<polyline fill="none" stroke="black" points="469,-234.5 571,-234.5 "/>
<text text-anchor="middle" x="520" y="-222.5" font-family="Helvetica,sans-Serif" font-size="10.00"> </text>
</a>
</g>
</g>
<!-- Node7&#45;&gt;Node1 -->
<g id="edge7" class="edge">
<title>Node7&#45;&gt;Node1</title>
<path fill="none" stroke="#404040" d="M501.6,-215.26C490.23,-198.72 474.99,-177.59 460,-160 439.21,-135.6 435.18,-127.5 409,-109 383.57,-91.03 352.17,-75.84 326.48,-64.94"/>
<polygon fill="none" stroke="#404040" points="326.21,-64.83 319.14,-66.23 315.13,-60.24 322.2,-58.84 326.21,-64.83"/>
<text text-anchor="middle" x="474.5" y="-123" font-family="Helvetica,sans-Serif" font-size="10.00"> +name_map</text>
</g>
<!-- Node8 -->
<g id="node8" class="node">
<title>Node8</title>
<g id="a_node8"><a xlink:href="structgsd__name__id__pair.html" target="_top" xlink:title=" ">
<polygon fill="none" stroke="black" points="470.5,-403 470.5,-471 569.5,-471 569.5,-403 470.5,-403"/>
<text text-anchor="middle" x="520" y="-459" font-family="Helvetica,sans-Serif" font-size="10.00">gsd_name_id_pair</text>
<polyline fill="none" stroke="black" points="470.5,-452 569.5,-452 "/>
<text text-anchor="start" x="478.5" y="-440" font-family="Helvetica,sans-Serif" font-size="10.00">+ name</text>
<text text-anchor="start" x="478.5" y="-429" font-family="Helvetica,sans-Serif" font-size="10.00">+ id</text>
<polyline fill="none" stroke="black" points="470.5,-422 569.5,-422 "/>
<text text-anchor="middle" x="520" y="-410" font-family="Helvetica,sans-Serif" font-size="10.00"> </text>
</a>
</g>
</g>
<!-- Node8&#45;&gt;Node7 -->
<g id="edge8" class="edge">
<title>Node8&#45;&gt;Node7</title>
<path fill="none" stroke="#404040" d="M520,-402.73C520,-369.89 520,-319.66 520,-284.74"/>
<polygon fill="none" stroke="#404040" points="520,-284.63 516,-278.63 520,-272.63 524,-278.63 520,-284.63"/>
<text text-anchor="middle" x="527" y="-349" font-family="Helvetica,sans-Serif" font-size="10.00"> +v</text>
</g>
<!-- Node8&#45;&gt;Node8 -->
<g id="edge9" class="edge">
<title>Node8&#45;&gt;Node8</title>
<path fill="none" stroke="#404040" d="M569.75,-452.2C580.07,-450.6 587.5,-445.53 587.5,-437 587.5,-432.2 585.15,-428.5 581.26,-425.89"/>
<polygon fill="none" stroke="#404040" points="581.05,-425.82 574.06,-427.58 569.75,-421.8 576.74,-420.04 581.05,-425.82"/>
<text text-anchor="middle" x="601.5" y="-434.5" font-family="Helvetica,sans-Serif" font-size="10.00"> +next</text>
</g>
</g>
</svg>
