<?xml version="1.0" encoding="UTF-8" standalone="no"?>
<!DOCTYPE svg PUBLIC "-//W3C//DTD SVG 1.1//EN"
 "http://www.w3.org/Graphics/SVG/1.1/DTD/svg11.dtd">
<!-- Generated by graphviz version 2.43.0 (0)
 -->
<!-- Title: gsd_name_id_map Pages: 1 -->
<svg width="151pt" height="182pt"
 viewBox="0.00 0.00 150.50 182.00" xmlns="http://www.w3.org/2000/svg" xmlns:xlink="http://www.w3.org/1999/xlink">
<g id="graph0" class="graph" transform="scale(1 1) rotate(0) translate(4 178)">
<title>gsd_name_id_map</title>
<!-- Node1 -->
<g id="node1" class="node">
<title>Node1</title>
<g id="a_node1"><a xlink:title=" ">
<polygon fill="#bfbfbf" stroke="black" points="0,-0.5 0,-57.5 98,-57.5 98,-0.5 0,-0.5"/>
<text text-anchor="middle" x="49" y="-45.5" font-family="Helvetica,sans-Serif" font-size="10.00">gsd_name_id_map</text>
<polyline fill="none" stroke="black" points="0,-38.5 98,-38.5 "/>
<text text-anchor="start" x="8" y="-26.5" font-family="Helvetica,sans-Serif" font-size="10.00">+ size</text>
<polyline fill="none" stroke="black" points="0,-19.5 98,-19.5 "/>
<text text-anchor="middle" x="49" y="-7.5" font-family="Helvetica,sans-Serif" font-size="10.00"> </text>
</a>
</g>
</g>
<!-- Node2 -->
<g id="node2" class="node">
<title>Node2</title>
<g id="a_node2"><a xlink:href="structgsd__name__id__pair.html" target="_top" xlink:title=" ">
<polygon fill="none" stroke="black" points="1.5,-105.5 1.5,-173.5 96.5,-173.5 96.5,-105.5 1.5,-105.5"/>
<text text-anchor="middle" x="49" y="-161.5" font-family="Helvetica,sans-Serif" font-size="10.00">gsd_name_id_pair</text>
<polyline fill="none" stroke="black" points="1.5,-154.5 96.5,-154.5 "/>
<text text-anchor="start" x="9.5" y="-142.5" font-family="Helvetica,sans-Serif" font-size="10.00">+ name</text>
<text text-anchor="start" x="9.5" y="-131.5" font-family="Helvetica,sans-Serif" font-size="10.00">+ id</text>
<polyline fill="none" stroke="black" points="1.5,-124.5 96.5,-124.5 "/>
<text text-anchor="middle" x="49" y="-112.5" font-family="Helvetica,sans-Serif" font-size="10.00"> </text>
</a>
</g>
</g>
<!-- Node2&#45;&gt;Node1 -->
<g id="edge1" class="edge">
<title>Node2&#45;&gt;Node1</title>
<path fill="none" stroke="#404040" d="M49,-105.36C49,-94.19 49,-81.61 49,-69.97"/>
<polygon fill="none" stroke="#404040" points="49,-69.83 45,-63.83 49,-57.83 53,-63.83 49,-69.83"/>
<text text-anchor="middle" x="56.5" y="-79" font-family="Helvetica,sans-Serif" font-size="10.00"> +v</text>
</g>
<!-- Node2&#45;&gt;Node2 -->
<g id="edge2" class="edge">
<title>Node2&#45;&gt;Node2</title>
<path fill="none" stroke="#404040" d="M96.69,-150.05C107.01,-149.02 114.5,-145.5 114.5,-139.5 114.5,-136.22 112.26,-133.68 108.54,-131.88"/>
<polygon fill="none" stroke="#404040" points="108.34,-131.83 101.55,-134.27 96.69,-128.95 103.48,-126.51 108.34,-131.83"/>
<text text-anchor="middle" x="128.5" y="-137" font-family="Helvetica,sans-Serif" font-size="10.00"> +next</text>
</g>
</g>
</svg>
