<?xml version="1.0" encoding="UTF-8" standalone="no"?>
<!DOCTYPE svg PUBLIC "-//W3C//DTD SVG 1.1//EN"
 "http://www.w3.org/Graphics/SVG/1.1/DTD/svg11.dtd">
<!-- Generated by graphviz version 2.43.0 (0)
 -->
<!-- Title: src/simulation_system/systemData.cpp Pages: 1 -->
<svg width="1038pt" height="285pt"
 viewBox="0.00 0.00 1038.00 285.00" xmlns="http://www.w3.org/2000/svg" xmlns:xlink="http://www.w3.org/1999/xlink">
<g id="graph0" class="graph" transform="scale(1 1) rotate(0) translate(4 281)">
<title>src/simulation_system/systemData.cpp</title>
<!-- Node1 -->
<g id="node1" class="node">
<title>Node1</title>
<g id="a_node1"><a xlink:title=" ">
<polygon fill="#bfbfbf" stroke="black" points="441.5,-246.5 441.5,-276.5 556.5,-276.5 556.5,-246.5 441.5,-246.5"/>
<text text-anchor="start" x="449.5" y="-264.5" font-family="Helvetica,sans-Serif" font-size="10.00">src/simulation_system</text>
<text text-anchor="middle" x="499" y="-253.5" font-family="Helvetica,sans-Serif" font-size="10.00">/systemData.cpp</text>
</a>
</g>
</g>
<!-- Node2 -->
<g id="node2" class="node">
<title>Node2</title>
<g id="a_node2"><a xlink:href="systemData_8hpp.html" target="_top" xlink:title=" ">
<polygon fill="none" stroke="black" points="454.5,-190.5 454.5,-209.5 543.5,-209.5 543.5,-190.5 454.5,-190.5"/>
<text text-anchor="middle" x="499" y="-197.5" font-family="Helvetica,sans-Serif" font-size="10.00">systemData.hpp</text>
</a>
</g>
</g>
<!-- Node1&#45;&gt;Node2 -->
<g id="edge1" class="edge">
<title>Node1&#45;&gt;Node2</title>
<path fill="none" stroke="midnightblue" d="M499,-246.4C499,-238.47 499,-228.46 499,-219.86"/>
<polygon fill="midnightblue" stroke="midnightblue" points="502.5,-219.66 499,-209.66 495.5,-219.66 502.5,-219.66"/>
</g>
<!-- Node3 -->
<g id="node3" class="node">
<title>Node3</title>
<g id="a_node3"><a xlink:href="GSDUtil_8hpp.html" target="_top" xlink:title=" ">
<polygon fill="none" stroke="black" points="342,-129 342,-148 414,-148 414,-129 342,-129"/>
<text text-anchor="middle" x="378" y="-136" font-family="Helvetica,sans-Serif" font-size="10.00">GSDUtil.hpp</text>
</a>
</g>
</g>
<!-- Node2&#45;&gt;Node3 -->
<g id="edge2" class="edge">
<title>Node2&#45;&gt;Node3</title>
<path fill="none" stroke="midnightblue" d="M476.76,-190.48C454.58,-180.62 421.08,-164.29 399.26,-152.77"/>
<polygon fill="midnightblue" stroke="midnightblue" points="400.87,-149.66 390.41,-148.01 397.56,-155.83 400.87,-149.66"/>
</g>
<!-- Node4 -->
<g id="node4" class="node">
<title>Node4</title>
<g id="a_node4"><a xlink:href="gsd_8h.html" target="_top" xlink:title="Declare GSD data types and C API.">
<polygon fill="none" stroke="black" points="78.5,-62 78.5,-81 119.5,-81 119.5,-62 78.5,-62"/>
<text text-anchor="middle" x="99" y="-69" font-family="Helvetica,sans-Serif" font-size="10.00">gsd.h</text>
</a>
</g>
</g>
<!-- Node2&#45;&gt;Node4 -->
<g id="edge13" class="edge">
<title>Node2&#45;&gt;Node4</title>
<path fill="none" stroke="midnightblue" d="M454.22,-195.04C403.91,-189.64 320.34,-177.78 252,-154 202.24,-136.69 148.99,-104.94 120.29,-86.6"/>
<polygon fill="midnightblue" stroke="midnightblue" points="122.17,-83.64 111.87,-81.15 118.37,-89.52 122.17,-83.64"/>
</g>
<!-- Node8 -->
<g id="node8" class="node">
<title>Node8</title>
<g id="a_node8"><a xlink:title=" ">
<polygon fill="none" stroke="#bfbfbf" points="138,-56.5 138,-86.5 236,-86.5 236,-56.5 138,-56.5"/>
<text text-anchor="start" x="146" y="-74.5" font-family="Helvetica,sans-Serif" font-size="10.00">spdlog/sinks/basic</text>
<text text-anchor="middle" x="187" y="-63.5" font-family="Helvetica,sans-Serif" font-size="10.00">_file_sink.h</text>
</a>
</g>
</g>
<!-- Node2&#45;&gt;Node8 -->
<g id="edge14" class="edge">
<title>Node2&#45;&gt;Node8</title>
<path fill="none" stroke="midnightblue" d="M454.32,-193.15C414.66,-186.87 355.76,-174.88 308,-154 272.04,-138.28 235.27,-111.73 211.86,-93.22"/>
<polygon fill="midnightblue" stroke="midnightblue" points="213.85,-90.33 203.86,-86.8 209.47,-95.79 213.85,-90.33"/>
</g>
<!-- Node9 -->
<g id="node9" class="node">
<title>Node9</title>
<g id="a_node9"><a xlink:title=" ">
<polygon fill="none" stroke="#bfbfbf" points="254.5,-62 254.5,-81 339.5,-81 339.5,-62 254.5,-62"/>
<text text-anchor="middle" x="297" y="-69" font-family="Helvetica,sans-Serif" font-size="10.00">spdlog/spdlog.h</text>
</a>
</g>
</g>
<!-- Node2&#45;&gt;Node9 -->
<g id="edge15" class="edge">
<title>Node2&#45;&gt;Node9</title>
<path fill="none" stroke="midnightblue" d="M454.3,-197.22C417.78,-193.55 366.86,-183.09 333,-154 314.06,-137.73 304.69,-109.58 300.36,-90.99"/>
<polygon fill="midnightblue" stroke="midnightblue" points="303.76,-90.17 298.31,-81.08 296.9,-91.59 303.76,-90.17"/>
</g>
<!-- Node10 -->
<g id="node10" class="node">
<title>Node10</title>
<g id="a_node10"><a xlink:title=" ">
<polygon fill="none" stroke="#bfbfbf" points="358,-62 358,-81 410,-81 410,-62 358,-62"/>
<text text-anchor="middle" x="384" y="-69" font-family="Helvetica,sans-Serif" font-size="10.00">memory</text>
</a>
</g>
</g>
<!-- Node2&#45;&gt;Node10 -->
<g id="edge24" class="edge">
<title>Node2&#45;&gt;Node10</title>
<path fill="none" stroke="midnightblue" d="M491.1,-190.31C472.06,-169.36 423.41,-115.85 398.78,-88.75"/>
<polygon fill="midnightblue" stroke="midnightblue" points="401.28,-86.3 391.96,-81.26 396.1,-91.01 401.28,-86.3"/>
</g>
<!-- Node11 -->
<g id="node11" class="node">
<title>Node11</title>
<g id="a_node11"><a xlink:title=" ">
<polygon fill="none" stroke="#bfbfbf" points="428.5,-62 428.5,-81 487.5,-81 487.5,-62 428.5,-62"/>
<text text-anchor="middle" x="458" y="-69" font-family="Helvetica,sans-Serif" font-size="10.00">stdexcept</text>
</a>
</g>
</g>
<!-- Node2&#45;&gt;Node11 -->
<g id="edge25" class="edge">
<title>Node2&#45;&gt;Node11</title>
<path fill="none" stroke="midnightblue" d="M496.18,-190.31C489.57,-169.9 472.94,-118.6 463.97,-90.91"/>
<polygon fill="midnightblue" stroke="midnightblue" points="467.25,-89.69 460.84,-81.26 460.59,-91.85 467.25,-89.69"/>
</g>
<!-- Node12 -->
<g id="node12" class="node">
<title>Node12</title>
<g id="a_node12"><a xlink:title=" ">
<polygon fill="none" stroke="#bfbfbf" points="505.5,-62 505.5,-81 546.5,-81 546.5,-62 505.5,-62"/>
<text text-anchor="middle" x="526" y="-69" font-family="Helvetica,sans-Serif" font-size="10.00">string</text>
</a>
</g>
</g>
<!-- Node2&#45;&gt;Node12 -->
<g id="edge26" class="edge">
<title>Node2&#45;&gt;Node12</title>
<path fill="none" stroke="midnightblue" d="M500.86,-190.31C505.19,-169.99 516.06,-119.05 521.99,-91.28"/>
<polygon fill="midnightblue" stroke="midnightblue" points="525.47,-91.77 524.13,-81.26 518.62,-90.3 525.47,-91.77"/>
</g>
<!-- Node13 -->
<g id="node13" class="node">
<title>Node13</title>
<g id="a_node13"><a xlink:title=" ">
<polygon fill="none" stroke="#bfbfbf" points="564.5,-62 564.5,-81 661.5,-81 661.5,-62 564.5,-62"/>
<text text-anchor="middle" x="613" y="-69" font-family="Helvetica,sans-Serif" font-size="10.00">eigen3/Eigen/Core</text>
</a>
</g>
</g>
<!-- Node2&#45;&gt;Node13 -->
<g id="edge16" class="edge">
<title>Node2&#45;&gt;Node13</title>
<path fill="none" stroke="midnightblue" d="M506.84,-190.31C525.71,-169.36 573.93,-115.85 598.35,-88.75"/>
<polygon fill="midnightblue" stroke="midnightblue" points="601.01,-91.03 605.11,-81.26 595.81,-86.34 601.01,-91.03"/>
</g>
<!-- Node14 -->
<g id="node14" class="node">
<title>Node14</title>
<g id="a_node14"><a xlink:title=" ">
<polygon fill="none" stroke="#bfbfbf" points="679.5,-62 679.5,-81 780.5,-81 780.5,-62 679.5,-62"/>
<text text-anchor="middle" x="730" y="-69" font-family="Helvetica,sans-Serif" font-size="10.00">eigen3/Eigen/Eigen</text>
</a>
</g>
</g>
<!-- Node2&#45;&gt;Node14 -->
<g id="edge17" class="edge">
<title>Node2&#45;&gt;Node14</title>
<path fill="none" stroke="midnightblue" d="M512.79,-190.38C526.99,-181.44 549.71,-166.99 569,-154 588.84,-140.64 592.13,-134.69 613,-123 640.31,-107.7 673.18,-93.88 697.11,-84.59"/>
<polygon fill="midnightblue" stroke="midnightblue" points="698.37,-87.85 706.46,-81.01 695.87,-81.32 698.37,-87.85"/>
</g>
<!-- Node15 -->
<g id="node15" class="node">
<title>Node15</title>
<g id="a_node15"><a xlink:title=" ">
<polygon fill="none" stroke="#bfbfbf" points="799,-56.5 799,-86.5 909,-86.5 909,-56.5 799,-56.5"/>
<text text-anchor="start" x="807" y="-74.5" font-family="Helvetica,sans-Serif" font-size="10.00">eigen3/unsupported</text>
<text text-anchor="middle" x="854" y="-63.5" font-family="Helvetica,sans-Serif" font-size="10.00">/Eigen/CXX11/Tensor</text>
</a>
</g>
</g>
<!-- Node2&#45;&gt;Node15 -->
<g id="edge18" class="edge">
<title>Node2&#45;&gt;Node15</title>
<path fill="none" stroke="midnightblue" d="M543.57,-196.04C614.22,-190.69 748.13,-177.72 789,-154 812.57,-140.32 830.9,-114.54 842,-95.63"/>
<polygon fill="midnightblue" stroke="midnightblue" points="845.16,-97.15 847,-86.72 839.05,-93.73 845.16,-97.15"/>
</g>
<!-- Node16 -->
<g id="node16" class="node">
<title>Node16</title>
<g id="a_node16"><a xlink:title=" ">
<polygon fill="none" stroke="#bfbfbf" points="836.5,-123.5 836.5,-153.5 967.5,-153.5 967.5,-123.5 836.5,-123.5"/>
<text text-anchor="start" x="844.5" y="-141.5" font-family="Helvetica,sans-Serif" font-size="10.00">eigen3/unsupported</text>
<text text-anchor="middle" x="902" y="-130.5" font-family="Helvetica,sans-Serif" font-size="10.00">/Eigen/CXX11/ThreadPool</text>
</a>
</g>
</g>
<!-- Node2&#45;&gt;Node16 -->
<g id="edge19" class="edge">
<title>Node2&#45;&gt;Node16</title>
<path fill="none" stroke="midnightblue" d="M543.76,-193.35C606.19,-185.34 722.91,-169.88 822,-154 823.29,-153.79 824.6,-153.58 825.91,-153.37"/>
<polygon fill="midnightblue" stroke="midnightblue" points="826.83,-156.76 836.12,-151.66 825.68,-149.86 826.83,-156.76"/>
</g>
<!-- Node17 -->
<g id="node17" class="node">
<title>Node17</title>
<g id="a_node17"><a xlink:href="helper__eigenTensorConversion_8h.html" target="_top" xlink:title=" ">
<polygon fill="none" stroke="black" points="622,-129 622,-148 780,-148 780,-129 622,-129"/>
<text text-anchor="middle" x="701" y="-136" font-family="Helvetica,sans-Serif" font-size="10.00">helper_eigenTensorConversion.h</text>
</a>
</g>
</g>
<!-- Node2&#45;&gt;Node17 -->
<g id="edge20" class="edge">
<title>Node2&#45;&gt;Node17</title>
<path fill="none" stroke="midnightblue" d="M527.94,-190.48C563.27,-180.07 623.13,-162.44 662.36,-150.88"/>
<polygon fill="midnightblue" stroke="midnightblue" points="663.51,-154.19 672.11,-148.01 661.53,-147.48 663.51,-154.19"/>
</g>
<!-- Node18 -->
<g id="node18" class="node">
<title>Node18</title>
<g id="a_node18"><a xlink:title=" ">
<polygon fill="none" stroke="#bfbfbf" points="986,-129 986,-148 1030,-148 1030,-129 986,-129"/>
<text text-anchor="middle" x="1008" y="-136" font-family="Helvetica,sans-Serif" font-size="10.00">thread</text>
</a>
</g>
</g>
<!-- Node2&#45;&gt;Node18 -->
<g id="edge27" class="edge">
<title>Node2&#45;&gt;Node18</title>
<path fill="none" stroke="midnightblue" d="M543.73,-199.84C629.42,-200.36 821.97,-196.19 977,-154 978.93,-153.47 980.9,-152.83 982.85,-152.12"/>
<polygon fill="midnightblue" stroke="midnightblue" points="984.47,-155.24 992.31,-148.11 981.74,-148.79 984.47,-155.24"/>
</g>
<!-- Node3&#45;&gt;Node2 -->
<g id="edge7" class="edge">
<title>Node3&#45;&gt;Node2</title>
<path fill="none" stroke="midnightblue" d="M400.2,-148.01C422.38,-157.86 455.87,-174.19 477.71,-185.71"/>
<polygon fill="midnightblue" stroke="midnightblue" points="476.1,-188.82 486.56,-190.48 479.42,-182.66 476.1,-188.82"/>
</g>
<!-- Node3&#45;&gt;Node4 -->
<g id="edge3" class="edge">
<title>Node3&#45;&gt;Node4</title>
<path fill="none" stroke="midnightblue" d="M341.8,-133.05C292.67,-126.37 202.56,-111.8 129,-87 127.38,-86.45 125.73,-85.84 124.09,-85.18"/>
<polygon fill="midnightblue" stroke="midnightblue" points="125.44,-81.95 114.88,-81.09 122.6,-88.35 125.44,-81.95"/>
</g>
<!-- Node3&#45;&gt;Node8 -->
<g id="edge8" class="edge">
<title>Node3&#45;&gt;Node8</title>
<path fill="none" stroke="midnightblue" d="M352.64,-128.87C323.48,-118.95 274.88,-102.41 237.85,-89.81"/>
<polygon fill="midnightblue" stroke="midnightblue" points="238.82,-86.44 228.22,-86.53 236.56,-93.06 238.82,-86.44"/>
</g>
<!-- Node3&#45;&gt;Node9 -->
<g id="edge9" class="edge">
<title>Node3&#45;&gt;Node9</title>
<path fill="none" stroke="midnightblue" d="M367.08,-128.73C353.96,-118.21 331.74,-100.38 315.84,-87.62"/>
<polygon fill="midnightblue" stroke="midnightblue" points="317.74,-84.66 307.75,-81.13 313.36,-90.12 317.74,-84.66"/>
</g>
<!-- Node3&#45;&gt;Node10 -->
<g id="edge10" class="edge">
<title>Node3&#45;&gt;Node10</title>
<path fill="none" stroke="midnightblue" d="M378.81,-128.73C379.69,-119.18 381.13,-103.62 382.27,-91.28"/>
<polygon fill="midnightblue" stroke="midnightblue" points="385.77,-91.41 383.2,-81.13 378.8,-90.76 385.77,-91.41"/>
</g>
<!-- Node3&#45;&gt;Node11 -->
<g id="edge11" class="edge">
<title>Node3&#45;&gt;Node11</title>
<path fill="none" stroke="midnightblue" d="M388.79,-128.73C401.74,-118.21 423.69,-100.38 439.39,-87.62"/>
<polygon fill="midnightblue" stroke="midnightblue" points="441.83,-90.15 447.38,-81.13 437.41,-84.72 441.83,-90.15"/>
</g>
<!-- Node3&#45;&gt;Node12 -->
<g id="edge12" class="edge">
<title>Node3&#45;&gt;Node12</title>
<path fill="none" stroke="midnightblue" d="M399.02,-128.85C422.71,-119.01 462.34,-102.33 496,-87 497.15,-86.47 498.33,-85.93 499.52,-85.38"/>
<polygon fill="midnightblue" stroke="midnightblue" points="501.08,-88.52 508.61,-81.07 498.08,-82.19 501.08,-88.52"/>
</g>
<!-- Node5 -->
<g id="node5" class="node">
<title>Node5</title>
<g id="a_node5"><a xlink:title=" ">
<polygon fill="none" stroke="#bfbfbf" points="0,-0.5 0,-19.5 56,-19.5 56,-0.5 0,-0.5"/>
<text text-anchor="middle" x="28" y="-7.5" font-family="Helvetica,sans-Serif" font-size="10.00">stdbool.h</text>
</a>
</g>
</g>
<!-- Node4&#45;&gt;Node5 -->
<g id="edge4" class="edge">
<title>Node4&#45;&gt;Node5</title>
<path fill="none" stroke="midnightblue" d="M88.83,-61.98C77.65,-52.61 59.48,-37.38 45.91,-26.01"/>
<polygon fill="midnightblue" stroke="midnightblue" points="48.07,-23.25 38.15,-19.51 43.57,-28.61 48.07,-23.25"/>
</g>
<!-- Node6 -->
<g id="node6" class="node">
<title>Node6</title>
<g id="a_node6"><a xlink:title=" ">
<polygon fill="none" stroke="#bfbfbf" points="74.5,-0.5 74.5,-19.5 123.5,-19.5 123.5,-0.5 74.5,-0.5"/>
<text text-anchor="middle" x="99" y="-7.5" font-family="Helvetica,sans-Serif" font-size="10.00">stdint.h</text>
</a>
</g>
</g>
<!-- Node4&#45;&gt;Node6 -->
<g id="edge5" class="edge">
<title>Node4&#45;&gt;Node6</title>
<path fill="none" stroke="midnightblue" d="M99,-61.98C99,-53.58 99,-40.48 99,-29.66"/>
<polygon fill="midnightblue" stroke="midnightblue" points="102.5,-29.51 99,-19.51 95.5,-29.51 102.5,-29.51"/>
</g>
<!-- Node7 -->
<g id="node7" class="node">
<title>Node7</title>
<g id="a_node7"><a xlink:title=" ">
<polygon fill="none" stroke="#bfbfbf" points="141.5,-0.5 141.5,-19.5 190.5,-19.5 190.5,-0.5 141.5,-0.5"/>
<text text-anchor="middle" x="166" y="-7.5" font-family="Helvetica,sans-Serif" font-size="10.00">string.h</text>
</a>
</g>
</g>
<!-- Node4&#45;&gt;Node7 -->
<g id="edge6" class="edge">
<title>Node4&#45;&gt;Node7</title>
<path fill="none" stroke="midnightblue" d="M108.6,-61.98C119.05,-52.7 135.97,-37.67 148.74,-26.33"/>
<polygon fill="midnightblue" stroke="midnightblue" points="151.27,-28.77 156.42,-19.51 146.62,-23.53 151.27,-28.77"/>
</g>
<!-- Node17&#45;&gt;Node13 -->
<g id="edge21" class="edge">
<title>Node17&#45;&gt;Node13</title>
<path fill="none" stroke="midnightblue" d="M689.13,-128.73C674.75,-118.11 650.3,-100.05 632.99,-87.26"/>
<polygon fill="midnightblue" stroke="midnightblue" points="634.8,-84.25 624.68,-81.13 630.64,-89.88 634.8,-84.25"/>
</g>
<!-- Node17&#45;&gt;Node14 -->
<g id="edge22" class="edge">
<title>Node17&#45;&gt;Node14</title>
<path fill="none" stroke="midnightblue" d="M704.91,-128.73C709.26,-118.99 716.4,-102.98 721.96,-90.53"/>
<polygon fill="midnightblue" stroke="midnightblue" points="725.27,-91.69 726.15,-81.13 718.88,-88.83 725.27,-91.69"/>
</g>
<!-- Node17&#45;&gt;Node15 -->
<g id="edge23" class="edge">
<title>Node17&#45;&gt;Node15</title>
<path fill="none" stroke="midnightblue" d="M721.32,-128.87C744.28,-119.12 782.28,-102.97 811.74,-90.45"/>
<polygon fill="midnightblue" stroke="midnightblue" points="813.14,-93.66 820.98,-86.53 810.41,-87.22 813.14,-93.66"/>
</g>
</g>
</svg>
