<?xml version="1.0" encoding="UTF-8" standalone="no"?>
<!DOCTYPE svg PUBLIC "-//W3C//DTD SVG 1.1//EN"
 "http://www.w3.org/Graphics/SVG/1.1/DTD/svg11.dtd">
<!-- Generated by graphviz version 2.43.0 (0)
 -->
<!-- Title: src/simulation_system/systemData.hpp Pages: 1 -->
<svg width="964pt" height="307pt"
 viewBox="0.00 0.00 963.81 307.00" xmlns="http://www.w3.org/2000/svg" xmlns:xlink="http://www.w3.org/1999/xlink">
<g id="graph0" class="graph" transform="scale(1 1) rotate(0) translate(4 303)">
<title>src/simulation_system/systemData.hpp</title>
<!-- Node1 -->
<g id="node1" class="node">
<title>Node1</title>
<g id="a_node1"><a xlink:title=" ">
<polygon fill="#bfbfbf" stroke="black" points="385.31,-268.5 385.31,-298.5 500.31,-298.5 500.31,-268.5 385.31,-268.5"/>
<text text-anchor="start" x="393.31" y="-286.5" font-family="Helvetica,sans-Serif" font-size="10.00">src/simulation_system</text>
<text text-anchor="middle" x="442.81" y="-275.5" font-family="Helvetica,sans-Serif" font-size="10.00">/systemData.hpp</text>
</a>
</g>
</g>
<!-- Node2 -->
<g id="node2" class="node">
<title>Node2</title>
<g id="a_node2"><a xlink:href="main_8cpp.html" target="_top" xlink:title=" ">
<polygon fill="none" stroke="black" points="145.31,-6 145.31,-25 218.31,-25 218.31,-6 145.31,-6"/>
<text text-anchor="middle" x="181.81" y="-13" font-family="Helvetica,sans-Serif" font-size="10.00">src/main.cpp</text>
</a>
</g>
</g>
<!-- Node1&#45;&gt;Node2 -->
<g id="edge1" class="edge">
<title>Node1&#45;&gt;Node2</title>
<path fill="none" stroke="midnightblue" d="M375.06,-274.96C263.34,-260.89 48.81,-226.35 8.81,-165 -34.54,-98.52 96.13,-45.08 154.83,-25.04"/>
<polygon fill="midnightblue" stroke="midnightblue" points="374.86,-278.46 385.21,-276.22 375.72,-271.52 374.86,-278.46"/>
</g>
<!-- Node3 -->
<g id="node3" class="node">
<title>Node3</title>
<g id="a_node3"><a xlink:href="GSDUtil_8hpp.html" target="_top" xlink:title=" ">
<polygon fill="none" stroke="black" points="170.31,-207 170.31,-226 293.31,-226 293.31,-207 170.31,-207"/>
<text text-anchor="middle" x="231.81" y="-214" font-family="Helvetica,sans-Serif" font-size="10.00">src/data_io/GSDUtil.hpp</text>
</a>
</g>
</g>
<!-- Node1&#45;&gt;Node3 -->
<g id="edge2" class="edge">
<title>Node1&#45;&gt;Node3</title>
<path fill="none" stroke="midnightblue" d="M381.91,-265.59C339.39,-252.9 285.11,-236.04 254.76,-226.03"/>
<polygon fill="midnightblue" stroke="midnightblue" points="381.03,-268.98 391.62,-268.48 383.03,-262.27 381.03,-268.98"/>
</g>
<!-- Node5 -->
<g id="node5" class="node">
<title>Node5</title>
<g id="a_node5"><a xlink:href="potentialHydrodynamics_8hpp.html" target="_top" xlink:title=" ">
<polygon fill="none" stroke="black" points="349.31,-207 349.31,-226 536.31,-226 536.31,-207 349.31,-207"/>
<text text-anchor="middle" x="442.81" y="-214" font-family="Helvetica,sans-Serif" font-size="10.00">src/forces/potentialHydrodynamics.hpp</text>
</a>
</g>
</g>
<!-- Node1&#45;&gt;Node5 -->
<g id="edge5" class="edge">
<title>Node1&#45;&gt;Node5</title>
<path fill="none" stroke="midnightblue" d="M442.81,-258.25C442.81,-247.02 442.81,-234.38 442.81,-226.19"/>
<polygon fill="midnightblue" stroke="midnightblue" points="439.31,-258.4 442.81,-268.4 446.31,-258.4 439.31,-258.4"/>
</g>
<!-- Node7 -->
<g id="node7" class="node">
<title>Node7</title>
<g id="a_node7"><a xlink:href="rungeKutta4_8hpp.html" target="_top" xlink:title=" ">
<polygon fill="none" stroke="black" points="159.31,-140 159.31,-159 312.31,-159 312.31,-140 159.31,-140"/>
<text text-anchor="middle" x="235.81" y="-147" font-family="Helvetica,sans-Serif" font-size="10.00">src/integrators/rungeKutta4.hpp</text>
</a>
</g>
</g>
<!-- Node1&#45;&gt;Node7 -->
<g id="edge14" class="edge">
<title>Node1&#45;&gt;Node7</title>
<path fill="none" stroke="midnightblue" d="M399.99,-264.18C381.01,-255.39 358.74,-244.14 339.81,-232 321.46,-220.24 318.91,-214.51 301.81,-201 283.02,-186.15 260.84,-169.33 247.58,-159.33"/>
<polygon fill="midnightblue" stroke="midnightblue" points="398.75,-267.46 409.3,-268.42 401.65,-261.09 398.75,-267.46"/>
</g>
<!-- Node9 -->
<g id="node9" class="node">
<title>Node9</title>
<g id="a_node9"><a xlink:href="engine_8hpp.html" target="_top" xlink:title=" ">
<polygon fill="none" stroke="black" points="453.31,-67.5 453.31,-97.5 568.31,-97.5 568.31,-67.5 453.31,-67.5"/>
<text text-anchor="start" x="461.31" y="-85.5" font-family="Helvetica,sans-Serif" font-size="10.00">src/simulation_system</text>
<text text-anchor="middle" x="510.81" y="-74.5" font-family="Helvetica,sans-Serif" font-size="10.00">/engine.hpp</text>
</a>
</g>
</g>
<!-- Node1&#45;&gt;Node9 -->
<g id="edge15" class="edge">
<title>Node1&#45;&gt;Node9</title>
<path fill="none" stroke="midnightblue" d="M506.53,-264.18C521.63,-256.7 535.92,-246.32 544.81,-232 550.57,-222.72 552.19,-164.61 542.81,-134 538.73,-120.7 530.16,-107.49 522.91,-97.92"/>
<polygon fill="midnightblue" stroke="midnightblue" points="504.72,-261.16 497.06,-268.48 507.61,-267.54 504.72,-261.16"/>
</g>
<!-- Node11 -->
<g id="node11" class="node">
<title>Node11</title>
<g id="a_node11"><a xlink:href="test-simulation_8cpp.html" target="_top" xlink:title=" ">
<polygon fill="none" stroke="black" points="561.31,-6 561.31,-25 680.31,-25 680.31,-6 561.31,-6"/>
<text text-anchor="middle" x="620.81" y="-13" font-family="Helvetica,sans-Serif" font-size="10.00">test/test&#45;simulation.cpp</text>
</a>
</g>
</g>
<!-- Node1&#45;&gt;Node11 -->
<g id="edge17" class="edge">
<title>Node1&#45;&gt;Node11</title>
<path fill="none" stroke="midnightblue" d="M510.04,-266.01C529.04,-258.43 548.23,-247.54 561.81,-232 617.46,-168.33 621.12,-56.83 620.97,-25.13"/>
<polygon fill="midnightblue" stroke="midnightblue" points="508.61,-262.81 500.45,-269.57 511.04,-269.37 508.61,-262.81"/>
</g>
<!-- Node12 -->
<g id="node12" class="node">
<title>Node12</title>
<g id="a_node12"><a xlink:href="systemData_8cpp.html" target="_top" xlink:title=" ">
<polygon fill="none" stroke="black" points="649.31,-201.5 649.31,-231.5 764.31,-231.5 764.31,-201.5 649.31,-201.5"/>
<text text-anchor="start" x="657.31" y="-219.5" font-family="Helvetica,sans-Serif" font-size="10.00">src/simulation_system</text>
<text text-anchor="middle" x="706.81" y="-208.5" font-family="Helvetica,sans-Serif" font-size="10.00">/systemData.cpp</text>
</a>
</g>
</g>
<!-- Node1&#45;&gt;Node12 -->
<g id="edge16" class="edge">
<title>Node1&#45;&gt;Node12</title>
<path fill="none" stroke="midnightblue" d="M509.62,-266.05C552.78,-255.43 608.35,-241.74 649.5,-231.61"/>
<polygon fill="midnightblue" stroke="midnightblue" points="508.64,-262.69 499.77,-268.48 510.31,-269.48 508.64,-262.69"/>
</g>
<!-- Node13 -->
<g id="node13" class="node">
<title>Node13</title>
<g id="a_node13"><a xlink:href="testSystemData_8hpp.html" target="_top" xlink:title=" ">
<polygon fill="none" stroke="black" points="782.81,-201.5 782.81,-231.5 900.81,-231.5 900.81,-201.5 782.81,-201.5"/>
<text text-anchor="start" x="790.81" y="-219.5" font-family="Helvetica,sans-Serif" font-size="10.00">test/simulation_system</text>
<text text-anchor="middle" x="841.81" y="-208.5" font-family="Helvetica,sans-Serif" font-size="10.00">/testSystemData.hpp</text>
</a>
</g>
</g>
<!-- Node1&#45;&gt;Node13 -->
<g id="edge18" class="edge">
<title>Node1&#45;&gt;Node13</title>
<path fill="none" stroke="midnightblue" d="M510.48,-273.26C577.31,-263.87 682.36,-248.41 772.81,-232 776.06,-231.41 779.39,-230.78 782.76,-230.13"/>
<polygon fill="midnightblue" stroke="midnightblue" points="509.92,-269.81 500.5,-274.66 510.89,-276.74 509.92,-269.81"/>
</g>
<!-- Node3&#45;&gt;Node1 -->
<g id="edge4" class="edge">
<title>Node3&#45;&gt;Node1</title>
<path fill="none" stroke="midnightblue" d="M273.79,-228.81C311.31,-239.8 365.76,-256.54 402.7,-268.4"/>
<polygon fill="midnightblue" stroke="midnightblue" points="274.74,-225.44 264.16,-226.01 272.78,-232.16 274.74,-225.44"/>
</g>
<!-- Node4 -->
<g id="node4" class="node">
<title>Node4</title>
<g id="a_node4"><a xlink:href="GSDUtil_8cpp.html" target="_top" xlink:title=" ">
<polygon fill="none" stroke="black" points="18.31,-140 18.31,-159 141.31,-159 141.31,-140 18.31,-140"/>
<text text-anchor="middle" x="79.81" y="-147" font-family="Helvetica,sans-Serif" font-size="10.00">src/data_io/GSDUtil.cpp</text>
</a>
</g>
</g>
<!-- Node3&#45;&gt;Node4 -->
<g id="edge3" class="edge">
<title>Node3&#45;&gt;Node4</title>
<path fill="none" stroke="midnightblue" d="M202.07,-202.78C171.96,-189.91 126.24,-170.35 100.08,-159.17"/>
<polygon fill="midnightblue" stroke="midnightblue" points="201.05,-206.15 211.62,-206.87 203.81,-199.72 201.05,-206.15"/>
</g>
<!-- Node6 -->
<g id="node6" class="node">
<title>Node6</title>
<g id="a_node6"><a xlink:href="potentialHydrodynamics_8cpp.html" target="_top" xlink:title=" ">
<polygon fill="none" stroke="black" points="330.31,-140 330.31,-159 517.31,-159 517.31,-140 330.31,-140"/>
<text text-anchor="middle" x="423.81" y="-147" font-family="Helvetica,sans-Serif" font-size="10.00">src/forces/potentialHydrodynamics.cpp</text>
</a>
</g>
</g>
<!-- Node5&#45;&gt;Node6 -->
<g id="edge6" class="edge">
<title>Node5&#45;&gt;Node6</title>
<path fill="none" stroke="midnightblue" d="M437.38,-196.91C433.74,-184.49 429.13,-168.72 426.33,-159.13"/>
<polygon fill="midnightblue" stroke="midnightblue" points="434.08,-198.12 440.25,-206.73 440.8,-196.15 434.08,-198.12"/>
</g>
<!-- Node5&#45;&gt;Node7 -->
<g id="edge7" class="edge">
<title>Node5&#45;&gt;Node7</title>
<path fill="none" stroke="midnightblue" d="M405.7,-203.85C364.7,-190.97 299.65,-170.55 263.08,-159.06"/>
<polygon fill="midnightblue" stroke="midnightblue" points="404.73,-207.21 415.32,-206.87 406.83,-200.53 404.73,-207.21"/>
</g>
<!-- Node5&#45;&gt;Node9 -->
<g id="edge13" class="edge">
<title>Node5&#45;&gt;Node9</title>
<path fill="none" stroke="midnightblue" d="M479.51,-202.96C496.83,-194.98 515.84,-182.74 525.81,-165 537.79,-143.68 527.25,-114.74 518.81,-97.69"/>
<polygon fill="midnightblue" stroke="midnightblue" points="477.96,-199.81 470.14,-206.96 480.71,-206.25 477.96,-199.81"/>
</g>
<!-- Node8 -->
<g id="node8" class="node">
<title>Node8</title>
<g id="a_node8"><a xlink:href="rungeKutta4_8cpp.html" target="_top" xlink:title=" ">
<polygon fill="none" stroke="black" points="159.31,-73 159.31,-92 312.31,-92 312.31,-73 159.31,-73"/>
<text text-anchor="middle" x="235.81" y="-80" font-family="Helvetica,sans-Serif" font-size="10.00">src/integrators/rungeKutta4.cpp</text>
</a>
</g>
</g>
<!-- Node7&#45;&gt;Node8 -->
<g id="edge8" class="edge">
<title>Node7&#45;&gt;Node8</title>
<path fill="none" stroke="midnightblue" d="M235.81,-129.54C235.81,-117.17 235.81,-101.62 235.81,-92.13"/>
<polygon fill="midnightblue" stroke="midnightblue" points="232.31,-129.73 235.81,-139.73 239.31,-129.73 232.31,-129.73"/>
</g>
<!-- Node7&#45;&gt;Node9 -->
<g id="edge9" class="edge">
<title>Node7&#45;&gt;Node9</title>
<path fill="none" stroke="midnightblue" d="M281.97,-137.59C329.07,-126.46 402.27,-109.16 453.15,-97.13"/>
<polygon fill="midnightblue" stroke="midnightblue" points="280.97,-134.23 272.04,-139.94 282.58,-141.04 280.97,-134.23"/>
</g>
<!-- Node9&#45;&gt;Node2 -->
<g id="edge10" class="edge">
<title>Node9&#45;&gt;Node2</title>
<path fill="none" stroke="midnightblue" d="M442.93,-68.09C374.87,-54.64 272.64,-34.44 218.49,-23.75"/>
<polygon fill="midnightblue" stroke="midnightblue" points="442.64,-71.6 453.13,-70.1 443.99,-64.73 442.64,-71.6"/>
</g>
<!-- Node10 -->
<g id="node10" class="node">
<title>Node10</title>
<g id="a_node10"><a xlink:href="engine_8cpp.html" target="_top" xlink:title=" ">
<polygon fill="none" stroke="black" points="428.31,-0.5 428.31,-30.5 543.31,-30.5 543.31,-0.5 428.31,-0.5"/>
<text text-anchor="start" x="436.31" y="-18.5" font-family="Helvetica,sans-Serif" font-size="10.00">src/simulation_system</text>
<text text-anchor="middle" x="485.81" y="-7.5" font-family="Helvetica,sans-Serif" font-size="10.00">/engine.cpp</text>
</a>
</g>
</g>
<!-- Node9&#45;&gt;Node10 -->
<g id="edge11" class="edge">
<title>Node9&#45;&gt;Node10</title>
<path fill="none" stroke="midnightblue" d="M501.77,-57.99C498.23,-48.8 494.3,-38.58 491.22,-30.58"/>
<polygon fill="midnightblue" stroke="midnightblue" points="498.53,-59.32 505.38,-67.4 505.06,-56.81 498.53,-59.32"/>
</g>
<!-- Node9&#45;&gt;Node11 -->
<g id="edge12" class="edge">
<title>Node9&#45;&gt;Node11</title>
<path fill="none" stroke="midnightblue" d="M543.29,-62.31C564.24,-49.93 590.47,-34.43 606.41,-25.01"/>
<polygon fill="midnightblue" stroke="midnightblue" points="541.51,-59.3 534.68,-67.4 545.07,-65.32 541.51,-59.3"/>
</g>
<!-- Node14 -->
<g id="node14" class="node">
<title>Node14</title>
<g id="a_node14"><a xlink:href="test-simulation__system_8cpp.html" target="_top" xlink:title=" ">
<polygon fill="none" stroke="black" points="855.81,-134.5 855.81,-164.5 955.81,-164.5 955.81,-134.5 855.81,-134.5"/>
<text text-anchor="start" x="863.81" y="-152.5" font-family="Helvetica,sans-Serif" font-size="10.00">test/test&#45;simulation</text>
<text text-anchor="middle" x="905.81" y="-141.5" font-family="Helvetica,sans-Serif" font-size="10.00">_system.cpp</text>
</a>
</g>
</g>
<!-- Node13&#45;&gt;Node14 -->
<g id="edge19" class="edge">
<title>Node13&#45;&gt;Node14</title>
<path fill="none" stroke="midnightblue" d="M862.95,-194.02C872.49,-184.34 883.48,-173.17 891.95,-164.58"/>
<polygon fill="midnightblue" stroke="midnightblue" points="860.22,-191.81 855.7,-201.4 865.21,-196.73 860.22,-191.81"/>
</g>
<!-- Node15 -->
<g id="node15" class="node">
<title>Node15</title>
<g id="a_node15"><a xlink:href="testSystemData_8cpp.html" target="_top" xlink:title=" ">
<polygon fill="none" stroke="black" points="719.81,-134.5 719.81,-164.5 837.81,-164.5 837.81,-134.5 719.81,-134.5"/>
<text text-anchor="start" x="727.81" y="-152.5" font-family="Helvetica,sans-Serif" font-size="10.00">test/simulation_system</text>
<text text-anchor="middle" x="778.81" y="-141.5" font-family="Helvetica,sans-Serif" font-size="10.00">/testSystemData.cpp</text>
</a>
</g>
</g>
<!-- Node13&#45;&gt;Node15 -->
<g id="edge20" class="edge">
<title>Node13&#45;&gt;Node15</title>
<path fill="none" stroke="midnightblue" d="M820.99,-194.02C811.61,-184.34 800.79,-173.17 792.45,-164.58"/>
<polygon fill="midnightblue" stroke="midnightblue" points="818.67,-196.65 828.14,-201.4 823.69,-191.78 818.67,-196.65"/>
</g>
</g>
</svg>
