<?xml version="1.0" encoding="UTF-8" standalone="no"?>
<!DOCTYPE svg PUBLIC "-//W3C//DTD SVG 1.1//EN"
 "http://www.w3.org/Graphics/SVG/1.1/DTD/svg11.dtd">
<!-- Generated by graphviz version 2.49.1 (20210923.0004)
 -->
<!-- Title: src/simulation_system/systemData.cpp Pages: 1 -->
<svg width="866pt" height="285pt"
 viewBox="0.00 0.00 866.00 285.00" xmlns="http://www.w3.org/2000/svg" xmlns:xlink="http://www.w3.org/1999/xlink">
<g id="graph0" class="graph" transform="scale(1 1) rotate(0) translate(4 281)">
<title>src/simulation_system/systemData.cpp</title>
<!-- Node1 -->
<g id="node1" class="node">
<title>Node1</title>
<g id="a_node1"><a xlink:title=" ">
<polygon fill="#bfbfbf" stroke="black" points="347,-246.5 347,-276.5 462,-276.5 462,-246.5 347,-246.5"/>
<text text-anchor="start" x="355" y="-264.5" font-family="Helvetica,sans-Serif" font-size="10.00">src/simulation_system</text>
<text text-anchor="middle" x="404.5" y="-253.5" font-family="Helvetica,sans-Serif" font-size="10.00">/systemData.cpp</text>
</a>
</g>
</g>
<!-- Node2 -->
<g id="node2" class="node">
<title>Node2</title>
<g id="a_node2"><a xlink:href="systemData_8hpp.html" target="_top" xlink:title=" ">
<polygon fill="none" stroke="black" points="360,-190.5 360,-209.5 449,-209.5 449,-190.5 360,-190.5"/>
<text text-anchor="middle" x="404.5" y="-197.5" font-family="Helvetica,sans-Serif" font-size="10.00">systemData.hpp</text>
</a>
</g>
</g>
<!-- Node1&#45;&gt;Node2 -->
<g id="edge1" class="edge">
<title>Node1&#45;&gt;Node2</title>
<path fill="none" stroke="midnightblue" d="M404.5,-246.4C404.5,-238.47 404.5,-228.46 404.5,-219.86"/>
<polygon fill="midnightblue" stroke="midnightblue" points="408,-219.66 404.5,-209.66 401,-219.66 408,-219.66"/>
</g>
<!-- Node3 -->
<g id="node3" class="node">
<title>Node3</title>
<g id="a_node3"><a xlink:href="GSDUtil_8hpp.html" target="_top" xlink:title=" ">
<polygon fill="none" stroke="black" points="304.5,-129 304.5,-148 376.5,-148 376.5,-129 304.5,-129"/>
<text text-anchor="middle" x="340.5" y="-136" font-family="Helvetica,sans-Serif" font-size="10.00">GSDUtil.hpp</text>
</a>
</g>
</g>
<!-- Node2&#45;&gt;Node3 -->
<g id="edge2" class="edge">
<title>Node2&#45;&gt;Node3</title>
<path fill="none" stroke="midnightblue" d="M390.43,-190.48C378.65,-181.37 362.53,-166.74 351.63,-155.48"/>
<polygon fill="midnightblue" stroke="midnightblue" points="354.1,-153 344.76,-148.01 348.95,-157.74 354.1,-153"/>
</g>
<!-- Node4 -->
<g id="node4" class="node">
<title>Node4</title>
<g id="a_node4"><a xlink:href="gsd_8h.html" target="_top" xlink:title="Declare GSD data types and C API.">
<polygon fill="none" stroke="black" points="79,-62 79,-81 120,-81 120,-62 79,-62"/>
<text text-anchor="middle" x="99.5" y="-69" font-family="Helvetica,sans-Serif" font-size="10.00">gsd.h</text>
</a>
</g>
</g>
<!-- Node2&#45;&gt;Node4 -->
<g id="edge13" class="edge">
<title>Node2&#45;&gt;Node4</title>
<path fill="none" stroke="midnightblue" d="M360.17,-190.48C325.88,-183.08 277.63,-170.89 237.5,-154 193.22,-135.37 145.9,-104.8 119.78,-86.87"/>
<polygon fill="midnightblue" stroke="midnightblue" points="121.68,-83.92 111.47,-81.09 117.68,-89.67 121.68,-83.92"/>
</g>
<!-- Node8 -->
<g id="node8" class="node">
<title>Node8</title>
<g id="a_node8"><a xlink:title=" ">
<polygon fill="none" stroke="#bfbfbf" points="138.5,-56.5 138.5,-86.5 236.5,-86.5 236.5,-56.5 138.5,-56.5"/>
<text text-anchor="start" x="146.5" y="-74.5" font-family="Helvetica,sans-Serif" font-size="10.00">spdlog/sinks/basic</text>
<text text-anchor="middle" x="187.5" y="-63.5" font-family="Helvetica,sans-Serif" font-size="10.00">_file_sink.h</text>
</a>
</g>
</g>
<!-- Node2&#45;&gt;Node8 -->
<g id="edge14" class="edge">
<title>Node2&#45;&gt;Node8</title>
<path fill="none" stroke="midnightblue" d="M372.57,-190.45C347.36,-182.94 311.83,-170.6 283.5,-154 254.95,-137.27 226.59,-111.83 208.19,-93.83"/>
<polygon fill="midnightblue" stroke="midnightblue" points="210.5,-91.19 200.94,-86.62 205.56,-96.15 210.5,-91.19"/>
</g>
<!-- Node9 -->
<g id="node9" class="node">
<title>Node9</title>
<g id="a_node9"><a xlink:title=" ">
<polygon fill="none" stroke="#bfbfbf" points="255,-62 255,-81 342,-81 342,-62 255,-62"/>
<text text-anchor="middle" x="298.5" y="-69" font-family="Helvetica,sans-Serif" font-size="10.00">spdlog/spdlog.h</text>
</a>
</g>
</g>
<!-- Node2&#45;&gt;Node9 -->
<g id="edge15" class="edge">
<title>Node2&#45;&gt;Node9</title>
<path fill="none" stroke="midnightblue" d="M359.82,-192.56C336.47,-186.68 309.84,-175.44 295.5,-154 283.05,-135.39 287.13,-108.66 292.06,-90.95"/>
<polygon fill="midnightblue" stroke="midnightblue" points="295.46,-91.84 295.11,-81.25 288.78,-89.74 295.46,-91.84"/>
</g>
<!-- Node10 -->
<g id="node10" class="node">
<title>Node10</title>
<g id="a_node10"><a xlink:title=" ">
<polygon fill="none" stroke="#bfbfbf" points="360,-62 360,-81 413,-81 413,-62 360,-62"/>
<text text-anchor="middle" x="386.5" y="-69" font-family="Helvetica,sans-Serif" font-size="10.00">memory</text>
</a>
</g>
</g>
<!-- Node2&#45;&gt;Node10 -->
<g id="edge19" class="edge">
<title>Node2&#45;&gt;Node10</title>
<path fill="none" stroke="midnightblue" d="M403.26,-190.31C400.37,-169.99 393.12,-119.05 389.17,-91.28"/>
<polygon fill="midnightblue" stroke="midnightblue" points="392.62,-90.66 387.75,-81.26 385.69,-91.65 392.62,-90.66"/>
</g>
<!-- Node11 -->
<g id="node11" class="node">
<title>Node11</title>
<g id="a_node11"><a xlink:title=" ">
<polygon fill="none" stroke="#bfbfbf" points="431,-62 431,-81 490,-81 490,-62 431,-62"/>
<text text-anchor="middle" x="460.5" y="-69" font-family="Helvetica,sans-Serif" font-size="10.00">stdexcept</text>
</a>
</g>
</g>
<!-- Node2&#45;&gt;Node11 -->
<g id="edge20" class="edge">
<title>Node2&#45;&gt;Node11</title>
<path fill="none" stroke="midnightblue" d="M408.35,-190.31C417.42,-169.81 440.29,-118.15 452.51,-90.54"/>
<polygon fill="midnightblue" stroke="midnightblue" points="455.78,-91.82 456.62,-81.26 449.38,-88.98 455.78,-91.82"/>
</g>
<!-- Node12 -->
<g id="node12" class="node">
<title>Node12</title>
<g id="a_node12"><a xlink:title=" ">
<polygon fill="none" stroke="#bfbfbf" points="508,-62 508,-81 549,-81 549,-62 508,-62"/>
<text text-anchor="middle" x="528.5" y="-69" font-family="Helvetica,sans-Serif" font-size="10.00">string</text>
</a>
</g>
</g>
<!-- Node2&#45;&gt;Node12 -->
<g id="edge21" class="edge">
<title>Node2&#45;&gt;Node12</title>
<path fill="none" stroke="midnightblue" d="M413.02,-190.31C433.64,-169.27 486.46,-115.39 512.91,-88.4"/>
<polygon fill="midnightblue" stroke="midnightblue" points="515.42,-90.85 519.92,-81.26 510.42,-85.95 515.42,-90.85"/>
</g>
<!-- Node13 -->
<g id="node13" class="node">
<title>Node13</title>
<g id="a_node13"><a xlink:title=" ">
<polygon fill="none" stroke="#bfbfbf" points="509,-129 509,-148 608,-148 608,-129 509,-129"/>
<text text-anchor="middle" x="558.5" y="-136" font-family="Helvetica,sans-Serif" font-size="10.00">eigen3/Eigen/Core</text>
</a>
</g>
</g>
<!-- Node2&#45;&gt;Node13 -->
<g id="edge16" class="edge">
<title>Node2&#45;&gt;Node13</title>
<path fill="none" stroke="midnightblue" d="M426.56,-190.48C452.87,-180.31 497.01,-163.26 526.92,-151.7"/>
<polygon fill="midnightblue" stroke="midnightblue" points="528.41,-154.88 536.48,-148.01 525.89,-148.35 528.41,-154.88"/>
</g>
<!-- Node14 -->
<g id="node14" class="node">
<title>Node14</title>
<g id="a_node14"><a xlink:title=" ">
<polygon fill="none" stroke="#bfbfbf" points="626,-129 626,-148 729,-148 729,-129 626,-129"/>
<text text-anchor="middle" x="677.5" y="-136" font-family="Helvetica,sans-Serif" font-size="10.00">eigen3/Eigen/Eigen</text>
</a>
</g>
</g>
<!-- Node2&#45;&gt;Node14 -->
<g id="edge17" class="edge">
<title>Node2&#45;&gt;Node14</title>
<path fill="none" stroke="midnightblue" d="M446.61,-190.48C489.63,-181.68 558.34,-167.4 617.5,-154 622.53,-152.86 627.79,-151.64 633.02,-150.4"/>
<polygon fill="midnightblue" stroke="midnightblue" points="634.04,-153.76 642.96,-148.03 632.42,-146.95 634.04,-153.76"/>
</g>
<!-- Node15 -->
<g id="node15" class="node">
<title>Node15</title>
<g id="a_node15"><a xlink:title=" ">
<polygon fill="none" stroke="#bfbfbf" points="747,-123.5 747,-153.5 858,-153.5 858,-123.5 747,-123.5"/>
<text text-anchor="start" x="755" y="-141.5" font-family="Helvetica,sans-Serif" font-size="10.00">eigen3/unsupported</text>
<text text-anchor="middle" x="802.5" y="-130.5" font-family="Helvetica,sans-Serif" font-size="10.00">/Eigen/CXX11/Tensor</text>
</a>
</g>
</g>
<!-- Node2&#45;&gt;Node15 -->
<g id="edge18" class="edge">
<title>Node2&#45;&gt;Node15</title>
<path fill="none" stroke="midnightblue" d="M449.27,-194.25C511.6,-187.35 628.24,-173.43 736.59,-154.26"/>
<polygon fill="midnightblue" stroke="midnightblue" points="737.48,-157.65 746.71,-152.45 736.25,-150.76 737.48,-157.65"/>
</g>
<!-- Node3&#45;&gt;Node2 -->
<g id="edge7" class="edge">
<title>Node3&#45;&gt;Node2</title>
<path fill="none" stroke="midnightblue" d="M354.55,-148.01C366.32,-157.1 382.45,-171.74 393.35,-183"/>
<polygon fill="midnightblue" stroke="midnightblue" points="390.88,-185.49 400.23,-190.48 396.04,-180.75 390.88,-185.49"/>
</g>
<!-- Node3&#45;&gt;Node4 -->
<g id="edge3" class="edge">
<title>Node3&#45;&gt;Node4</title>
<path fill="none" stroke="midnightblue" d="M304.35,-131.31C261.78,-123.45 189.28,-108.32 129.5,-87 128.07,-86.49 126.62,-85.93 125.16,-85.34"/>
<polygon fill="midnightblue" stroke="midnightblue" points="126.29,-82.01 115.73,-81.13 123.44,-88.4 126.29,-82.01"/>
</g>
<!-- Node3&#45;&gt;Node8 -->
<g id="edge8" class="edge">
<title>Node3&#45;&gt;Node8</title>
<path fill="none" stroke="midnightblue" d="M320.18,-128.87C297.22,-119.12 259.22,-102.97 229.76,-90.45"/>
<polygon fill="midnightblue" stroke="midnightblue" points="231.09,-87.22 220.52,-86.53 228.36,-93.66 231.09,-87.22"/>
</g>
<!-- Node3&#45;&gt;Node9 -->
<g id="edge9" class="edge">
<title>Node3&#45;&gt;Node9</title>
<path fill="none" stroke="midnightblue" d="M334.84,-128.73C328.41,-118.79 317.78,-102.34 309.67,-89.79"/>
<polygon fill="midnightblue" stroke="midnightblue" points="312.44,-87.63 304.07,-81.13 306.56,-91.43 312.44,-87.63"/>
</g>
<!-- Node3&#45;&gt;Node10 -->
<g id="edge10" class="edge">
<title>Node3&#45;&gt;Node10</title>
<path fill="none" stroke="midnightblue" d="M346.7,-128.73C353.81,-118.7 365.61,-102.01 374.52,-89.42"/>
<polygon fill="midnightblue" stroke="midnightblue" points="377.47,-91.31 380.39,-81.13 371.76,-87.27 377.47,-91.31"/>
</g>
<!-- Node3&#45;&gt;Node11 -->
<g id="edge11" class="edge">
<title>Node3&#45;&gt;Node11</title>
<path fill="none" stroke="midnightblue" d="M356.68,-128.73C376.93,-117.77 411.8,-98.88 435.49,-86.05"/>
<polygon fill="midnightblue" stroke="midnightblue" points="437.45,-88.97 444.57,-81.13 434.11,-82.81 437.45,-88.97"/>
</g>
<!-- Node3&#45;&gt;Node12 -->
<g id="edge12" class="edge">
<title>Node3&#45;&gt;Node12</title>
<path fill="none" stroke="midnightblue" d="M372.39,-128.96C404.87,-119.89 456.43,-104.48 499.5,-87 500.7,-86.51 501.92,-85.99 503.15,-85.46"/>
<polygon fill="midnightblue" stroke="midnightblue" points="504.89,-88.51 512.45,-81.08 501.91,-82.17 504.89,-88.51"/>
</g>
<!-- Node5 -->
<g id="node5" class="node">
<title>Node5</title>
<g id="a_node5"><a xlink:title=" ">
<polygon fill="none" stroke="#bfbfbf" points="0,-0.5 0,-19.5 57,-19.5 57,-0.5 0,-0.5"/>
<text text-anchor="middle" x="28.5" y="-7.5" font-family="Helvetica,sans-Serif" font-size="10.00">stdbool.h</text>
</a>
</g>
</g>
<!-- Node4&#45;&gt;Node5 -->
<g id="edge4" class="edge">
<title>Node4&#45;&gt;Node5</title>
<path fill="none" stroke="midnightblue" d="M89.33,-61.98C78.15,-52.61 59.98,-37.38 46.41,-26.01"/>
<polygon fill="midnightblue" stroke="midnightblue" points="48.57,-23.25 38.65,-19.51 44.07,-28.61 48.57,-23.25"/>
</g>
<!-- Node6 -->
<g id="node6" class="node">
<title>Node6</title>
<g id="a_node6"><a xlink:title=" ">
<polygon fill="none" stroke="#bfbfbf" points="75,-0.5 75,-19.5 124,-19.5 124,-0.5 75,-0.5"/>
<text text-anchor="middle" x="99.5" y="-7.5" font-family="Helvetica,sans-Serif" font-size="10.00">stdint.h</text>
</a>
</g>
</g>
<!-- Node4&#45;&gt;Node6 -->
<g id="edge5" class="edge">
<title>Node4&#45;&gt;Node6</title>
<path fill="none" stroke="midnightblue" d="M99.5,-61.98C99.5,-53.58 99.5,-40.48 99.5,-29.66"/>
<polygon fill="midnightblue" stroke="midnightblue" points="103,-29.51 99.5,-19.51 96,-29.51 103,-29.51"/>
</g>
<!-- Node7 -->
<g id="node7" class="node">
<title>Node7</title>
<g id="a_node7"><a xlink:title=" ">
<polygon fill="none" stroke="#bfbfbf" points="142,-0.5 142,-19.5 191,-19.5 191,-0.5 142,-0.5"/>
<text text-anchor="middle" x="166.5" y="-7.5" font-family="Helvetica,sans-Serif" font-size="10.00">string.h</text>
</a>
</g>
</g>
<!-- Node4&#45;&gt;Node7 -->
<g id="edge6" class="edge">
<title>Node4&#45;&gt;Node7</title>
<path fill="none" stroke="midnightblue" d="M109.1,-61.98C119.55,-52.7 136.47,-37.67 149.24,-26.33"/>
<polygon fill="midnightblue" stroke="midnightblue" points="151.77,-28.77 156.92,-19.51 147.12,-23.53 151.77,-28.77"/>
</g>
</g>
</svg>
