<?xml version="1.0" encoding="UTF-8" standalone="no"?>
<!DOCTYPE svg PUBLIC "-//W3C//DTD SVG 1.1//EN"
 "http://www.w3.org/Graphics/SVG/1.1/DTD/svg11.dtd">
<!-- Generated by graphviz version 2.49.1 (20210923.0004)
 -->
<!-- Title: src/simulation_system/systemData.cpp Pages: 1 -->
<svg width="1059pt" height="285pt"
 viewBox="0.00 0.00 1059.00 285.00" xmlns="http://www.w3.org/2000/svg" xmlns:xlink="http://www.w3.org/1999/xlink">
<g id="graph0" class="graph" transform="scale(1 1) rotate(0) translate(4 281)">
<title>src/simulation_system/systemData.cpp</title>
<!-- Node1 -->
<g id="node1" class="node">
<title>Node1</title>
<g id="a_node1"><a xlink:title=" ">
<polygon fill="#bfbfbf" stroke="black" points="444,-246.5 444,-276.5 559,-276.5 559,-246.5 444,-246.5"/>
<text text-anchor="start" x="452" y="-264.5" font-family="Helvetica,sans-Serif" font-size="10.00">src/simulation_system</text>
<text text-anchor="middle" x="501.5" y="-253.5" font-family="Helvetica,sans-Serif" font-size="10.00">/systemData.cpp</text>
</a>
</g>
</g>
<!-- Node2 -->
<g id="node2" class="node">
<title>Node2</title>
<g id="a_node2"><a xlink:href="systemData_8hpp.html" target="_top" xlink:title=" ">
<polygon fill="none" stroke="black" points="457,-190.5 457,-209.5 546,-209.5 546,-190.5 457,-190.5"/>
<text text-anchor="middle" x="501.5" y="-197.5" font-family="Helvetica,sans-Serif" font-size="10.00">systemData.hpp</text>
</a>
</g>
</g>
<!-- Node1&#45;&gt;Node2 -->
<g id="edge1" class="edge">
<title>Node1&#45;&gt;Node2</title>
<path fill="none" stroke="midnightblue" d="M501.5,-246.4C501.5,-238.47 501.5,-228.46 501.5,-219.86"/>
<polygon fill="midnightblue" stroke="midnightblue" points="505,-219.66 501.5,-209.66 498,-219.66 505,-219.66"/>
</g>
<!-- Node3 -->
<g id="node3" class="node">
<title>Node3</title>
<g id="a_node3"><a xlink:href="GSDUtil_8hpp.html" target="_top" xlink:title=" ">
<polygon fill="none" stroke="black" points="344.5,-129 344.5,-148 416.5,-148 416.5,-129 344.5,-129"/>
<text text-anchor="middle" x="380.5" y="-136" font-family="Helvetica,sans-Serif" font-size="10.00">GSDUtil.hpp</text>
</a>
</g>
</g>
<!-- Node2&#45;&gt;Node3 -->
<g id="edge2" class="edge">
<title>Node2&#45;&gt;Node3</title>
<path fill="none" stroke="midnightblue" d="M479.26,-190.48C457.08,-180.62 423.58,-164.29 401.76,-152.77"/>
<polygon fill="midnightblue" stroke="midnightblue" points="403.37,-149.66 392.91,-148.01 400.06,-155.83 403.37,-149.66"/>
</g>
<!-- Node4 -->
<g id="node4" class="node">
<title>Node4</title>
<g id="a_node4"><a xlink:href="gsd_8h.html" target="_top" xlink:title="Declare GSD data types and C API.">
<polygon fill="none" stroke="black" points="79,-62 79,-81 120,-81 120,-62 79,-62"/>
<text text-anchor="middle" x="99.5" y="-69" font-family="Helvetica,sans-Serif" font-size="10.00">gsd.h</text>
</a>
</g>
</g>
<!-- Node2&#45;&gt;Node4 -->
<g id="edge13" class="edge">
<title>Node2&#45;&gt;Node4</title>
<path fill="none" stroke="midnightblue" d="M456.55,-195.03C406.04,-189.62 322.15,-177.75 253.5,-154 203.46,-136.68 149.85,-104.94 120.94,-86.6"/>
<polygon fill="midnightblue" stroke="midnightblue" points="122.77,-83.61 112.46,-81.15 118.98,-89.5 122.77,-83.61"/>
</g>
<!-- Node8 -->
<g id="node8" class="node">
<title>Node8</title>
<g id="a_node8"><a xlink:title=" ">
<polygon fill="none" stroke="#bfbfbf" points="138.5,-56.5 138.5,-86.5 236.5,-86.5 236.5,-56.5 138.5,-56.5"/>
<text text-anchor="start" x="146.5" y="-74.5" font-family="Helvetica,sans-Serif" font-size="10.00">spdlog/sinks/basic</text>
<text text-anchor="middle" x="187.5" y="-63.5" font-family="Helvetica,sans-Serif" font-size="10.00">_file_sink.h</text>
</a>
</g>
</g>
<!-- Node2&#45;&gt;Node8 -->
<g id="edge14" class="edge">
<title>Node2&#45;&gt;Node8</title>
<path fill="none" stroke="midnightblue" d="M456.86,-193.06C417.22,-186.73 358.34,-174.69 310.5,-154 274.07,-138.24 236.67,-111.69 212.83,-93.2"/>
<polygon fill="midnightblue" stroke="midnightblue" points="214.7,-90.22 204.68,-86.78 210.37,-95.72 214.7,-90.22"/>
</g>
<!-- Node9 -->
<g id="node9" class="node">
<title>Node9</title>
<g id="a_node9"><a xlink:title=" ">
<polygon fill="none" stroke="#bfbfbf" points="255,-62 255,-81 342,-81 342,-62 255,-62"/>
<text text-anchor="middle" x="298.5" y="-69" font-family="Helvetica,sans-Serif" font-size="10.00">spdlog/spdlog.h</text>
</a>
</g>
</g>
<!-- Node2&#45;&gt;Node9 -->
<g id="edge15" class="edge">
<title>Node2&#45;&gt;Node9</title>
<path fill="none" stroke="midnightblue" d="M456.87,-197.13C420.41,-193.41 369.51,-182.92 335.5,-154 316.39,-137.75 306.67,-109.59 302.09,-91"/>
<polygon fill="midnightblue" stroke="midnightblue" points="305.48,-90.11 299.92,-81.09 298.64,-91.61 305.48,-90.11"/>
</g>
<!-- Node10 -->
<g id="node10" class="node">
<title>Node10</title>
<g id="a_node10"><a xlink:title=" ">
<polygon fill="none" stroke="#bfbfbf" points="360,-62 360,-81 413,-81 413,-62 360,-62"/>
<text text-anchor="middle" x="386.5" y="-69" font-family="Helvetica,sans-Serif" font-size="10.00">memory</text>
</a>
</g>
</g>
<!-- Node2&#45;&gt;Node10 -->
<g id="edge24" class="edge">
<title>Node2&#45;&gt;Node10</title>
<path fill="none" stroke="midnightblue" d="M493.6,-190.31C474.56,-169.36 425.91,-115.85 401.28,-88.75"/>
<polygon fill="midnightblue" stroke="midnightblue" points="403.78,-86.3 394.46,-81.26 398.6,-91.01 403.78,-86.3"/>
</g>
<!-- Node11 -->
<g id="node11" class="node">
<title>Node11</title>
<g id="a_node11"><a xlink:title=" ">
<polygon fill="none" stroke="#bfbfbf" points="431,-62 431,-81 490,-81 490,-62 431,-62"/>
<text text-anchor="middle" x="460.5" y="-69" font-family="Helvetica,sans-Serif" font-size="10.00">stdexcept</text>
</a>
</g>
</g>
<!-- Node2&#45;&gt;Node11 -->
<g id="edge25" class="edge">
<title>Node2&#45;&gt;Node11</title>
<path fill="none" stroke="midnightblue" d="M498.68,-190.31C492.07,-169.9 475.44,-118.6 466.47,-90.91"/>
<polygon fill="midnightblue" stroke="midnightblue" points="469.75,-89.69 463.34,-81.26 463.09,-91.85 469.75,-89.69"/>
</g>
<!-- Node12 -->
<g id="node12" class="node">
<title>Node12</title>
<g id="a_node12"><a xlink:title=" ">
<polygon fill="none" stroke="#bfbfbf" points="508,-62 508,-81 549,-81 549,-62 508,-62"/>
<text text-anchor="middle" x="528.5" y="-69" font-family="Helvetica,sans-Serif" font-size="10.00">string</text>
</a>
</g>
</g>
<!-- Node2&#45;&gt;Node12 -->
<g id="edge26" class="edge">
<title>Node2&#45;&gt;Node12</title>
<path fill="none" stroke="midnightblue" d="M503.36,-190.31C507.69,-169.99 518.56,-119.05 524.49,-91.28"/>
<polygon fill="midnightblue" stroke="midnightblue" points="527.97,-91.77 526.63,-81.26 521.12,-90.3 527.97,-91.77"/>
</g>
<!-- Node13 -->
<g id="node13" class="node">
<title>Node13</title>
<g id="a_node13"><a xlink:title=" ">
<polygon fill="none" stroke="#bfbfbf" points="567,-62 567,-81 666,-81 666,-62 567,-62"/>
<text text-anchor="middle" x="616.5" y="-69" font-family="Helvetica,sans-Serif" font-size="10.00">eigen3/Eigen/Core</text>
</a>
</g>
</g>
<!-- Node2&#45;&gt;Node13 -->
<g id="edge16" class="edge">
<title>Node2&#45;&gt;Node13</title>
<path fill="none" stroke="midnightblue" d="M509.4,-190.31C528.44,-169.36 577.09,-115.85 601.72,-88.75"/>
<polygon fill="midnightblue" stroke="midnightblue" points="604.4,-91.01 608.54,-81.26 599.22,-86.3 604.4,-91.01"/>
</g>
<!-- Node14 -->
<g id="node14" class="node">
<title>Node14</title>
<g id="a_node14"><a xlink:title=" ">
<polygon fill="none" stroke="#bfbfbf" points="684,-62 684,-81 787,-81 787,-62 684,-62"/>
<text text-anchor="middle" x="735.5" y="-69" font-family="Helvetica,sans-Serif" font-size="10.00">eigen3/Eigen/Eigen</text>
</a>
</g>
</g>
<!-- Node2&#45;&gt;Node14 -->
<g id="edge17" class="edge">
<title>Node2&#45;&gt;Node14</title>
<path fill="none" stroke="midnightblue" d="M515.29,-190.38C529.49,-181.44 552.21,-166.99 571.5,-154 591.34,-140.64 594.58,-134.6 615.5,-123 643.3,-107.59 676.77,-93.87 701.29,-84.64"/>
<polygon fill="midnightblue" stroke="midnightblue" points="702.72,-87.84 710.88,-81.08 700.28,-81.28 702.72,-87.84"/>
</g>
<!-- Node15 -->
<g id="node15" class="node">
<title>Node15</title>
<g id="a_node15"><a xlink:title=" ">
<polygon fill="none" stroke="#bfbfbf" points="805,-56.5 805,-86.5 916,-86.5 916,-56.5 805,-56.5"/>
<text text-anchor="start" x="813" y="-74.5" font-family="Helvetica,sans-Serif" font-size="10.00">eigen3/unsupported</text>
<text text-anchor="middle" x="860.5" y="-63.5" font-family="Helvetica,sans-Serif" font-size="10.00">/Eigen/CXX11/Tensor</text>
</a>
</g>
</g>
<!-- Node2&#45;&gt;Node15 -->
<g id="edge18" class="edge">
<title>Node2&#45;&gt;Node15</title>
<path fill="none" stroke="midnightblue" d="M546.1,-196.91C620.28,-192.71 765.06,-181.21 807.5,-154 828.7,-140.41 843.19,-114.98 851.59,-96.13"/>
<polygon fill="midnightblue" stroke="midnightblue" points="854.9,-97.28 855.53,-86.71 848.44,-94.58 854.9,-97.28"/>
</g>
<!-- Node16 -->
<g id="node16" class="node">
<title>Node16</title>
<g id="a_node16"><a xlink:title=" ">
<polygon fill="none" stroke="#bfbfbf" points="855,-123.5 855,-153.5 988,-153.5 988,-123.5 855,-123.5"/>
<text text-anchor="start" x="863" y="-141.5" font-family="Helvetica,sans-Serif" font-size="10.00">eigen3/unsupported</text>
<text text-anchor="middle" x="921.5" y="-130.5" font-family="Helvetica,sans-Serif" font-size="10.00">/Eigen/CXX11/ThreadPool</text>
</a>
</g>
</g>
<!-- Node2&#45;&gt;Node16 -->
<g id="edge19" class="edge">
<title>Node2&#45;&gt;Node16</title>
<path fill="none" stroke="midnightblue" d="M546.01,-193.74C610.9,-185.93 735.2,-170.41 840.5,-154 841.96,-153.77 843.43,-153.54 844.91,-153.3"/>
<polygon fill="midnightblue" stroke="midnightblue" points="845.49,-156.76 854.79,-151.69 844.36,-149.85 845.49,-156.76"/>
</g>
<!-- Node17 -->
<g id="node17" class="node">
<title>Node17</title>
<g id="a_node17"><a xlink:href="helper__eigenTensorConversion_8hpp.html" target="_top" xlink:title=" ">
<polygon fill="none" stroke="black" points="624.5,-129 624.5,-148 798.5,-148 798.5,-129 624.5,-129"/>
<text text-anchor="middle" x="711.5" y="-136" font-family="Helvetica,sans-Serif" font-size="10.00">helper_eigenTensorConversion.hpp</text>
</a>
</g>
</g>
<!-- Node2&#45;&gt;Node17 -->
<g id="edge20" class="edge">
<title>Node2&#45;&gt;Node17</title>
<path fill="none" stroke="midnightblue" d="M531.59,-190.48C568.39,-180.05 630.81,-162.36 671.59,-150.81"/>
<polygon fill="midnightblue" stroke="midnightblue" points="672.8,-154.1 681.47,-148.01 670.89,-147.37 672.8,-154.1"/>
</g>
<!-- Node18 -->
<g id="node18" class="node">
<title>Node18</title>
<g id="a_node18"><a xlink:title=" ">
<polygon fill="none" stroke="#bfbfbf" points="1006,-129 1006,-148 1051,-148 1051,-129 1006,-129"/>
<text text-anchor="middle" x="1028.5" y="-136" font-family="Helvetica,sans-Serif" font-size="10.00">thread</text>
</a>
</g>
</g>
<!-- Node2&#45;&gt;Node18 -->
<g id="edge27" class="edge">
<title>Node2&#45;&gt;Node18</title>
<path fill="none" stroke="midnightblue" d="M546.36,-196.92C651.83,-191.7 912.99,-176.84 997.5,-154 999.44,-153.48 1001.4,-152.84 1003.35,-152.13"/>
<polygon fill="midnightblue" stroke="midnightblue" points="1004.97,-155.24 1012.81,-148.12 1002.24,-148.8 1004.97,-155.24"/>
</g>
<!-- Node3&#45;&gt;Node2 -->
<g id="edge7" class="edge">
<title>Node3&#45;&gt;Node2</title>
<path fill="none" stroke="midnightblue" d="M402.7,-148.01C424.88,-157.86 458.37,-174.19 480.21,-185.71"/>
<polygon fill="midnightblue" stroke="midnightblue" points="478.6,-188.82 489.06,-190.48 481.92,-182.66 478.6,-188.82"/>
</g>
<!-- Node3&#45;&gt;Node4 -->
<g id="edge3" class="edge">
<title>Node3&#45;&gt;Node4</title>
<path fill="none" stroke="midnightblue" d="M344.43,-133.15C295,-126.54 203.86,-112.01 129.5,-87 127.88,-86.45 126.23,-85.84 124.59,-85.19"/>
<polygon fill="midnightblue" stroke="midnightblue" points="125.94,-81.96 115.38,-81.09 123.1,-88.35 125.94,-81.96"/>
</g>
<!-- Node3&#45;&gt;Node8 -->
<g id="edge8" class="edge">
<title>Node3&#45;&gt;Node8</title>
<path fill="none" stroke="midnightblue" d="M354.87,-128.87C325.41,-118.95 276.31,-102.41 238.88,-89.81"/>
<polygon fill="midnightblue" stroke="midnightblue" points="239.75,-86.4 229.15,-86.53 237.51,-93.04 239.75,-86.4"/>
</g>
<!-- Node3&#45;&gt;Node9 -->
<g id="edge9" class="edge">
<title>Node3&#45;&gt;Node9</title>
<path fill="none" stroke="midnightblue" d="M369.44,-128.73C356.16,-118.21 333.67,-100.38 317.57,-87.62"/>
<polygon fill="midnightblue" stroke="midnightblue" points="319.39,-84.6 309.38,-81.13 315.05,-90.08 319.39,-84.6"/>
</g>
<!-- Node3&#45;&gt;Node10 -->
<g id="edge10" class="edge">
<title>Node3&#45;&gt;Node10</title>
<path fill="none" stroke="midnightblue" d="M381.31,-128.73C382.19,-119.18 383.63,-103.62 384.77,-91.28"/>
<polygon fill="midnightblue" stroke="midnightblue" points="388.27,-91.41 385.7,-81.13 381.3,-90.76 388.27,-91.41"/>
</g>
<!-- Node3&#45;&gt;Node11 -->
<g id="edge11" class="edge">
<title>Node3&#45;&gt;Node11</title>
<path fill="none" stroke="midnightblue" d="M391.29,-128.73C404.24,-118.21 426.19,-100.38 441.89,-87.62"/>
<polygon fill="midnightblue" stroke="midnightblue" points="444.33,-90.15 449.88,-81.13 439.91,-84.72 444.33,-90.15"/>
</g>
<!-- Node3&#45;&gt;Node12 -->
<g id="edge12" class="edge">
<title>Node3&#45;&gt;Node12</title>
<path fill="none" stroke="midnightblue" d="M401.52,-128.85C425.21,-119.01 464.84,-102.33 498.5,-87 499.65,-86.47 500.83,-85.93 502.02,-85.38"/>
<polygon fill="midnightblue" stroke="midnightblue" points="503.58,-88.52 511.11,-81.07 500.58,-82.19 503.58,-88.52"/>
</g>
<!-- Node5 -->
<g id="node5" class="node">
<title>Node5</title>
<g id="a_node5"><a xlink:title=" ">
<polygon fill="none" stroke="#bfbfbf" points="0,-0.5 0,-19.5 57,-19.5 57,-0.5 0,-0.5"/>
<text text-anchor="middle" x="28.5" y="-7.5" font-family="Helvetica,sans-Serif" font-size="10.00">stdbool.h</text>
</a>
</g>
</g>
<!-- Node4&#45;&gt;Node5 -->
<g id="edge4" class="edge">
<title>Node4&#45;&gt;Node5</title>
<path fill="none" stroke="midnightblue" d="M89.33,-61.98C78.15,-52.61 59.98,-37.38 46.41,-26.01"/>
<polygon fill="midnightblue" stroke="midnightblue" points="48.57,-23.25 38.65,-19.51 44.07,-28.61 48.57,-23.25"/>
</g>
<!-- Node6 -->
<g id="node6" class="node">
<title>Node6</title>
<g id="a_node6"><a xlink:title=" ">
<polygon fill="none" stroke="#bfbfbf" points="75,-0.5 75,-19.5 124,-19.5 124,-0.5 75,-0.5"/>
<text text-anchor="middle" x="99.5" y="-7.5" font-family="Helvetica,sans-Serif" font-size="10.00">stdint.h</text>
</a>
</g>
</g>
<!-- Node4&#45;&gt;Node6 -->
<g id="edge5" class="edge">
<title>Node4&#45;&gt;Node6</title>
<path fill="none" stroke="midnightblue" d="M99.5,-61.98C99.5,-53.58 99.5,-40.48 99.5,-29.66"/>
<polygon fill="midnightblue" stroke="midnightblue" points="103,-29.51 99.5,-19.51 96,-29.51 103,-29.51"/>
</g>
<!-- Node7 -->
<g id="node7" class="node">
<title>Node7</title>
<g id="a_node7"><a xlink:title=" ">
<polygon fill="none" stroke="#bfbfbf" points="142,-0.5 142,-19.5 191,-19.5 191,-0.5 142,-0.5"/>
<text text-anchor="middle" x="166.5" y="-7.5" font-family="Helvetica,sans-Serif" font-size="10.00">string.h</text>
</a>
</g>
</g>
<!-- Node4&#45;&gt;Node7 -->
<g id="edge6" class="edge">
<title>Node4&#45;&gt;Node7</title>
<path fill="none" stroke="midnightblue" d="M109.1,-61.98C119.55,-52.7 136.47,-37.67 149.24,-26.33"/>
<polygon fill="midnightblue" stroke="midnightblue" points="151.77,-28.77 156.92,-19.51 147.12,-23.53 151.77,-28.77"/>
</g>
<!-- Node17&#45;&gt;Node13 -->
<g id="edge21" class="edge">
<title>Node17&#45;&gt;Node13</title>
<path fill="none" stroke="midnightblue" d="M698.69,-128.73C683.02,-118.01 656.28,-99.72 637.57,-86.91"/>
<polygon fill="midnightblue" stroke="midnightblue" points="639.34,-83.89 629.11,-81.13 635.39,-89.66 639.34,-83.89"/>
</g>
<!-- Node17&#45;&gt;Node14 -->
<g id="edge22" class="edge">
<title>Node17&#45;&gt;Node14</title>
<path fill="none" stroke="midnightblue" d="M714.74,-128.73C718.34,-118.99 724.25,-102.98 728.84,-90.53"/>
<polygon fill="midnightblue" stroke="midnightblue" points="732.13,-91.72 732.31,-81.13 725.57,-89.3 732.13,-91.72"/>
</g>
<!-- Node17&#45;&gt;Node15 -->
<g id="edge23" class="edge">
<title>Node17&#45;&gt;Node15</title>
<path fill="none" stroke="midnightblue" d="M731.29,-128.87C753.55,-119.16 790.33,-103.11 818.98,-90.61"/>
<polygon fill="midnightblue" stroke="midnightblue" points="820.58,-93.73 828.34,-86.53 817.78,-87.32 820.58,-93.73"/>
</g>
</g>
</svg>
