<?xml version="1.0" encoding="UTF-8" standalone="no"?>
<!DOCTYPE svg PUBLIC "-//W3C//DTD SVG 1.1//EN"
 "http://www.w3.org/Graphics/SVG/1.1/DTD/svg11.dtd">
<!-- Generated by graphviz version 2.43.0 (0)
 -->
<!-- Title: src/simulation_system/systemData.hpp Pages: 1 -->
<svg width="771pt" height="296pt"
 viewBox="0.00 0.00 771.39 296.00" xmlns="http://www.w3.org/2000/svg" xmlns:xlink="http://www.w3.org/1999/xlink">
<g id="graph0" class="graph" transform="scale(1 1) rotate(0) translate(4 292)">
<title>src/simulation_system/systemData.hpp</title>
<!-- Node1 -->
<g id="node1" class="node">
<title>Node1</title>
<g id="a_node1"><a xlink:title=" ">
<polygon fill="#bfbfbf" stroke="black" points="304.39,-257.5 304.39,-287.5 419.39,-287.5 419.39,-257.5 304.39,-257.5"/>
<text text-anchor="start" x="312.39" y="-275.5" font-family="Helvetica,sans-Serif" font-size="10.00">src/simulation_system</text>
<text text-anchor="middle" x="361.89" y="-264.5" font-family="Helvetica,sans-Serif" font-size="10.00">/systemData.hpp</text>
</a>
</g>
</g>
<!-- Node2 -->
<g id="node2" class="node">
<title>Node2</title>
<g id="a_node2"><a xlink:href="main_8cpp.html" target="_top" xlink:title=" ">
<polygon fill="none" stroke="black" points="139.39,-6 139.39,-25 212.39,-25 212.39,-6 139.39,-6"/>
<text text-anchor="middle" x="175.89" y="-13" font-family="Helvetica,sans-Serif" font-size="10.00">src/main.cpp</text>
</a>
</g>
</g>
<!-- Node1&#45;&gt;Node2 -->
<g id="edge1" class="edge">
<title>Node1&#45;&gt;Node2</title>
<path fill="none" stroke="midnightblue" d="M294.05,-259.54C200.08,-241.33 38.36,-203.47 7.89,-154 -30.95,-90.94 88.82,-43.68 146.59,-25.11"/>
<polygon fill="midnightblue" stroke="midnightblue" points="293.57,-263.01 304.05,-261.45 294.88,-256.13 293.57,-263.01"/>
</g>
<!-- Node3 -->
<g id="node3" class="node">
<title>Node3</title>
<g id="a_node3"><a xlink:href="GSDUtil_8hpp.html" target="_top" xlink:title=" ">
<polygon fill="none" stroke="black" points="150.39,-196 150.39,-215 273.39,-215 273.39,-196 150.39,-196"/>
<text text-anchor="middle" x="211.89" y="-203" font-family="Helvetica,sans-Serif" font-size="10.00">src/data_io/GSDUtil.hpp</text>
</a>
</g>
</g>
<!-- Node1&#45;&gt;Node3 -->
<g id="edge2" class="edge">
<title>Node1&#45;&gt;Node3</title>
<path fill="none" stroke="midnightblue" d="M314.14,-253.46C283.98,-240.9 247.12,-224.72 226.79,-215.01"/>
<polygon fill="midnightblue" stroke="midnightblue" points="313.09,-256.81 323.66,-257.4 315.76,-250.34 313.09,-256.81"/>
</g>
<!-- Node5 -->
<g id="node5" class="node">
<title>Node5</title>
<g id="a_node5"><a xlink:href="potentialHydrodynamics_8hpp.html" target="_top" xlink:title=" ">
<polygon fill="none" stroke="black" points="329.39,-196 329.39,-215 516.39,-215 516.39,-196 329.39,-196"/>
<text text-anchor="middle" x="422.89" y="-203" font-family="Helvetica,sans-Serif" font-size="10.00">src/forces/potentialHydrodynamics.hpp</text>
</a>
</g>
</g>
<!-- Node1&#45;&gt;Node5 -->
<g id="edge5" class="edge">
<title>Node1&#45;&gt;Node5</title>
<path fill="none" stroke="midnightblue" d="M382.07,-250C393.21,-238.13 406.42,-224.05 414.73,-215.19"/>
<polygon fill="midnightblue" stroke="midnightblue" points="379.42,-247.71 375.13,-257.4 384.52,-252.5 379.42,-247.71"/>
</g>
<!-- Node7 -->
<g id="node7" class="node">
<title>Node7</title>
<g id="a_node7"><a xlink:href="rungeKutta4_8hpp.html" target="_top" xlink:title=" ">
<polygon fill="none" stroke="black" points="158.39,-134.5 158.39,-153.5 311.39,-153.5 311.39,-134.5 158.39,-134.5"/>
<text text-anchor="middle" x="234.89" y="-141.5" font-family="Helvetica,sans-Serif" font-size="10.00">src/integrators/rungeKutta4.hpp</text>
</a>
</g>
</g>
<!-- Node1&#45;&gt;Node7 -->
<g id="edge14" class="edge">
<title>Node1&#45;&gt;Node7</title>
<path fill="none" stroke="midnightblue" d="M341.5,-249.91C325.71,-233.32 303.18,-209.95 282.89,-190 269.86,-177.18 254.37,-162.81 244.58,-153.83"/>
<polygon fill="midnightblue" stroke="midnightblue" points="339.25,-252.62 348.67,-257.46 344.32,-247.8 339.25,-252.62"/>
</g>
<!-- Node9 -->
<g id="node9" class="node">
<title>Node9</title>
<g id="a_node9"><a xlink:href="engine_8hpp.html" target="_top" xlink:title=" ">
<polygon fill="none" stroke="black" points="447.39,-67.5 447.39,-97.5 562.39,-97.5 562.39,-67.5 447.39,-67.5"/>
<text text-anchor="start" x="455.39" y="-85.5" font-family="Helvetica,sans-Serif" font-size="10.00">src/simulation_system</text>
<text text-anchor="middle" x="504.89" y="-74.5" font-family="Helvetica,sans-Serif" font-size="10.00">/engine.hpp</text>
</a>
</g>
</g>
<!-- Node1&#45;&gt;Node9 -->
<g id="edge15" class="edge">
<title>Node1&#45;&gt;Node9</title>
<path fill="none" stroke="midnightblue" d="M429.68,-266.18C462.97,-260.11 501.14,-247.39 525.89,-221 552.78,-192.32 554.11,-171.37 541.89,-134 537.36,-120.16 527.44,-106.97 519.01,-97.54"/>
<polygon fill="midnightblue" stroke="midnightblue" points="428.82,-262.78 419.53,-267.87 429.96,-269.69 428.82,-262.78"/>
</g>
<!-- Node11 -->
<g id="node11" class="node">
<title>Node11</title>
<g id="a_node11"><a xlink:href="testSimulationBuild_8cpp.html" target="_top" xlink:title=" ">
<polygon fill="none" stroke="black" points="550.39,-6 550.39,-25 689.39,-25 689.39,-6 550.39,-6"/>
<text text-anchor="middle" x="619.89" y="-13" font-family="Helvetica,sans-Serif" font-size="10.00">test/testSimulationBuild.cpp</text>
</a>
</g>
</g>
<!-- Node1&#45;&gt;Node11 -->
<g id="edge17" class="edge">
<title>Node1&#45;&gt;Node11</title>
<path fill="none" stroke="midnightblue" d="M429.79,-268.72C469.35,-263.68 517.64,-251.15 549.89,-221 609.38,-165.39 618.31,-57.12 619.65,-25.42"/>
<polygon fill="midnightblue" stroke="midnightblue" points="429.21,-265.26 419.67,-269.87 430.01,-272.22 429.21,-265.26"/>
</g>
<!-- Node12 -->
<g id="node12" class="node">
<title>Node12</title>
<g id="a_node12"><a xlink:href="systemData_8cpp.html" target="_top" xlink:title=" ">
<polygon fill="none" stroke="black" points="648.39,-190.5 648.39,-220.5 763.39,-220.5 763.39,-190.5 648.39,-190.5"/>
<text text-anchor="start" x="656.39" y="-208.5" font-family="Helvetica,sans-Serif" font-size="10.00">src/simulation_system</text>
<text text-anchor="middle" x="705.89" y="-197.5" font-family="Helvetica,sans-Serif" font-size="10.00">/systemData.cpp</text>
</a>
</g>
</g>
<!-- Node1&#45;&gt;Node12 -->
<g id="edge16" class="edge">
<title>Node1&#45;&gt;Node12</title>
<path fill="none" stroke="midnightblue" d="M429.5,-259.24C484.57,-249.19 564.31,-234.47 633.89,-221 638.52,-220.1 643.32,-219.16 648.14,-218.21"/>
<polygon fill="midnightblue" stroke="midnightblue" points="428.72,-255.83 419.51,-261.06 429.98,-262.71 428.72,-255.83"/>
</g>
<!-- Node3&#45;&gt;Node1 -->
<g id="edge4" class="edge">
<title>Node3&#45;&gt;Node1</title>
<path fill="none" stroke="midnightblue" d="M245.72,-218.81C272.76,-229.8 309.98,-245.89 335.02,-257.4"/>
<polygon fill="midnightblue" stroke="midnightblue" points="246.84,-215.49 236.26,-215.01 244.23,-221.98 246.84,-215.49"/>
</g>
<!-- Node4 -->
<g id="node4" class="node">
<title>Node4</title>
<g id="a_node4"><a xlink:href="GSDUtil_8cpp.html" target="_top" xlink:title=" ">
<polygon fill="none" stroke="black" points="17.39,-134.5 17.39,-153.5 140.39,-153.5 140.39,-134.5 17.39,-134.5"/>
<text text-anchor="middle" x="78.89" y="-141.5" font-family="Helvetica,sans-Serif" font-size="10.00">src/data_io/GSDUtil.cpp</text>
</a>
</g>
</g>
<!-- Node3&#45;&gt;Node4 -->
<g id="edge3" class="edge">
<title>Node3&#45;&gt;Node4</title>
<path fill="none" stroke="midnightblue" d="M183.56,-191.83C157.74,-180.28 120.31,-163.53 97.91,-153.51"/>
<polygon fill="midnightblue" stroke="midnightblue" points="182.28,-195.09 192.84,-195.98 185.14,-188.7 182.28,-195.09"/>
</g>
<!-- Node6 -->
<g id="node6" class="node">
<title>Node6</title>
<g id="a_node6"><a xlink:href="potentialHydrodynamics_8cpp.html" target="_top" xlink:title=" ">
<polygon fill="none" stroke="black" points="329.39,-134.5 329.39,-153.5 516.39,-153.5 516.39,-134.5 329.39,-134.5"/>
<text text-anchor="middle" x="422.89" y="-141.5" font-family="Helvetica,sans-Serif" font-size="10.00">src/forces/potentialHydrodynamics.cpp</text>
</a>
</g>
</g>
<!-- Node5&#45;&gt;Node6 -->
<g id="edge6" class="edge">
<title>Node5&#45;&gt;Node6</title>
<path fill="none" stroke="midnightblue" d="M422.89,-185.82C422.89,-175 422.89,-161.9 422.89,-153.51"/>
<polygon fill="midnightblue" stroke="midnightblue" points="419.39,-185.98 422.89,-195.98 426.39,-185.98 419.39,-185.98"/>
</g>
<!-- Node5&#45;&gt;Node7 -->
<g id="edge7" class="edge">
<title>Node5&#45;&gt;Node7</title>
<path fill="none" stroke="midnightblue" d="M386.18,-192.88C349.64,-181.32 294.42,-163.84 261.78,-153.51"/>
<polygon fill="midnightblue" stroke="midnightblue" points="385.37,-196.29 395.96,-195.98 387.48,-189.62 385.37,-196.29"/>
</g>
<!-- Node5&#45;&gt;Node9 -->
<g id="edge13" class="edge">
<title>Node5&#45;&gt;Node9</title>
<path fill="none" stroke="midnightblue" d="M472.21,-192.73C492.49,-185.19 513.98,-173.11 525.89,-154 536.9,-136.33 525.38,-112.58 515.55,-97.66"/>
<polygon fill="midnightblue" stroke="midnightblue" points="471.04,-189.43 462.71,-195.97 473.3,-196.05 471.04,-189.43"/>
</g>
<!-- Node8 -->
<g id="node8" class="node">
<title>Node8</title>
<g id="a_node8"><a xlink:href="rungeKutta4_8cpp.html" target="_top" xlink:title=" ">
<polygon fill="none" stroke="black" points="158.39,-73 158.39,-92 311.39,-92 311.39,-73 158.39,-73"/>
<text text-anchor="middle" x="234.89" y="-80" font-family="Helvetica,sans-Serif" font-size="10.00">src/integrators/rungeKutta4.cpp</text>
</a>
</g>
</g>
<!-- Node7&#45;&gt;Node8 -->
<g id="edge8" class="edge">
<title>Node7&#45;&gt;Node8</title>
<path fill="none" stroke="midnightblue" d="M234.89,-124.32C234.89,-113.5 234.89,-100.4 234.89,-92.01"/>
<polygon fill="midnightblue" stroke="midnightblue" points="231.39,-124.48 234.89,-134.48 238.39,-124.48 231.39,-124.48"/>
</g>
<!-- Node7&#45;&gt;Node9 -->
<g id="edge9" class="edge">
<title>Node7&#45;&gt;Node9</title>
<path fill="none" stroke="midnightblue" d="M283.59,-132.27C329.54,-122.14 398.45,-106.96 447.15,-96.22"/>
<polygon fill="midnightblue" stroke="midnightblue" points="282.59,-128.9 273.58,-134.48 284.09,-135.74 282.59,-128.9"/>
</g>
<!-- Node9&#45;&gt;Node2 -->
<g id="edge10" class="edge">
<title>Node9&#45;&gt;Node2</title>
<path fill="none" stroke="midnightblue" d="M437.01,-68.09C368.95,-54.64 266.72,-34.44 212.57,-23.75"/>
<polygon fill="midnightblue" stroke="midnightblue" points="436.72,-71.6 447.21,-70.1 438.08,-64.73 436.72,-71.6"/>
</g>
<!-- Node10 -->
<g id="node10" class="node">
<title>Node10</title>
<g id="a_node10"><a xlink:href="engine_8cpp.html" target="_top" xlink:title=" ">
<polygon fill="none" stroke="black" points="417.39,-0.5 417.39,-30.5 532.39,-30.5 532.39,-0.5 417.39,-0.5"/>
<text text-anchor="start" x="425.39" y="-18.5" font-family="Helvetica,sans-Serif" font-size="10.00">src/simulation_system</text>
<text text-anchor="middle" x="474.89" y="-7.5" font-family="Helvetica,sans-Serif" font-size="10.00">/engine.cpp</text>
</a>
</g>
</g>
<!-- Node9&#45;&gt;Node10 -->
<g id="edge11" class="edge">
<title>Node9&#45;&gt;Node10</title>
<path fill="none" stroke="midnightblue" d="M494.18,-58.28C489.9,-49.02 485.12,-38.66 481.39,-30.58"/>
<polygon fill="midnightblue" stroke="midnightblue" points="491.01,-59.78 498.38,-67.4 497.37,-56.85 491.01,-59.78"/>
</g>
<!-- Node9&#45;&gt;Node11 -->
<g id="edge12" class="edge">
<title>Node9&#45;&gt;Node11</title>
<path fill="none" stroke="midnightblue" d="M538.55,-62.47C560.51,-50.06 588.1,-34.47 604.84,-25.01"/>
<polygon fill="midnightblue" stroke="midnightblue" points="536.83,-59.43 529.84,-67.4 540.27,-65.52 536.83,-59.43"/>
</g>
</g>
</svg>
