<?xml version="1.0" encoding="UTF-8" standalone="no"?>
<!DOCTYPE svg PUBLIC "-//W3C//DTD SVG 1.1//EN"
 "http://www.w3.org/Graphics/SVG/1.1/DTD/svg11.dtd">
<!-- Generated by graphviz version 2.43.0 (0)
 -->
<!-- Title: src/simulation_system/systemData.hpp Pages: 1 -->
<svg width="1116pt" height="229pt"
 viewBox="0.00 0.00 1116.00 229.00" xmlns="http://www.w3.org/2000/svg" xmlns:xlink="http://www.w3.org/1999/xlink">
<g id="graph0" class="graph" transform="scale(1 1) rotate(0) translate(4 225)">
<title>src/simulation_system/systemData.hpp</title>
<!-- Node1 -->
<g id="node1" class="node">
<title>Node1</title>
<g id="a_node1"><a xlink:title=" ">
<polygon fill="#bfbfbf" stroke="black" points="420.5,-190.5 420.5,-220.5 535.5,-220.5 535.5,-190.5 420.5,-190.5"/>
<text text-anchor="start" x="428.5" y="-208.5" font-family="Helvetica,sans-Serif" font-size="10.00">src/simulation_system</text>
<text text-anchor="middle" x="478" y="-197.5" font-family="Helvetica,sans-Serif" font-size="10.00">/systemData.hpp</text>
</a>
</g>
</g>
<!-- Node2 -->
<g id="node2" class="node">
<title>Node2</title>
<g id="a_node2"><a xlink:href="GSDUtil_8hpp.html" target="_top" xlink:title=" ">
<polygon fill="none" stroke="black" points="302,-129 302,-148 374,-148 374,-129 302,-129"/>
<text text-anchor="middle" x="338" y="-136" font-family="Helvetica,sans-Serif" font-size="10.00">GSDUtil.hpp</text>
</a>
</g>
</g>
<!-- Node1&#45;&gt;Node2 -->
<g id="edge1" class="edge">
<title>Node1&#45;&gt;Node2</title>
<path fill="none" stroke="midnightblue" d="M441.94,-190.4C416.23,-179.14 382.59,-163.5 360.55,-152.54"/>
<polygon fill="midnightblue" stroke="midnightblue" points="362.09,-149.4 351.59,-148.01 358.93,-155.64 362.09,-149.4"/>
</g>
<!-- Node3 -->
<g id="node3" class="node">
<title>Node3</title>
<g id="a_node3"><a xlink:href="gsd_8h.html" target="_top" xlink:title="Declare GSD data types and C API.">
<polygon fill="none" stroke="black" points="78.5,-62 78.5,-81 119.5,-81 119.5,-62 78.5,-62"/>
<text text-anchor="middle" x="99" y="-69" font-family="Helvetica,sans-Serif" font-size="10.00">gsd.h</text>
</a>
</g>
</g>
<!-- Node1&#45;&gt;Node3 -->
<g id="edge12" class="edge">
<title>Node1&#45;&gt;Node3</title>
<path fill="none" stroke="midnightblue" d="M420.24,-197.92C370.22,-190.94 296.59,-177.59 236,-154 191.24,-136.58 144.21,-105.33 118.56,-87"/>
<polygon fill="midnightblue" stroke="midnightblue" points="120.56,-84.13 110.41,-81.1 116.46,-89.8 120.56,-84.13"/>
</g>
<!-- Node7 -->
<g id="node7" class="node">
<title>Node7</title>
<g id="a_node7"><a xlink:title=" ">
<polygon fill="none" stroke="#bfbfbf" points="138,-56.5 138,-86.5 236,-86.5 236,-56.5 138,-56.5"/>
<text text-anchor="start" x="146" y="-74.5" font-family="Helvetica,sans-Serif" font-size="10.00">spdlog/sinks/basic</text>
<text text-anchor="middle" x="187" y="-63.5" font-family="Helvetica,sans-Serif" font-size="10.00">_file_sink.h</text>
</a>
</g>
</g>
<!-- Node1&#45;&gt;Node7 -->
<g id="edge14" class="edge">
<title>Node1&#45;&gt;Node7</title>
<path fill="none" stroke="midnightblue" d="M420.28,-196.92C379.6,-189.89 324.78,-176.94 281,-154 251.7,-138.65 223.82,-112.5 206.15,-93.97"/>
<polygon fill="midnightblue" stroke="midnightblue" points="208.6,-91.47 199.22,-86.55 203.48,-96.25 208.6,-91.47"/>
</g>
<!-- Node8 -->
<g id="node8" class="node">
<title>Node8</title>
<g id="a_node8"><a xlink:title=" ">
<polygon fill="none" stroke="#bfbfbf" points="254.5,-62 254.5,-81 339.5,-81 339.5,-62 254.5,-62"/>
<text text-anchor="middle" x="297" y="-69" font-family="Helvetica,sans-Serif" font-size="10.00">spdlog/spdlog.h</text>
</a>
</g>
</g>
<!-- Node1&#45;&gt;Node8 -->
<g id="edge15" class="edge">
<title>Node1&#45;&gt;Node8</title>
<path fill="none" stroke="midnightblue" d="M420.23,-196.46C371.93,-188.42 308.51,-174.31 293,-154 279.27,-136.01 284.23,-108.74 289.9,-90.77"/>
<polygon fill="midnightblue" stroke="midnightblue" points="293.26,-91.78 293.28,-81.18 286.66,-89.45 293.26,-91.78"/>
</g>
<!-- Node9 -->
<g id="node9" class="node">
<title>Node9</title>
<g id="a_node9"><a xlink:title=" ">
<polygon fill="none" stroke="#bfbfbf" points="358,-62 358,-81 410,-81 410,-62 358,-62"/>
<text text-anchor="middle" x="384" y="-69" font-family="Helvetica,sans-Serif" font-size="10.00">memory</text>
</a>
</g>
</g>
<!-- Node1&#45;&gt;Node9 -->
<g id="edge24" class="edge">
<title>Node1&#45;&gt;Node9</title>
<path fill="none" stroke="midnightblue" d="M467.94,-190.37C450.49,-165.86 414.67,-115.56 395.97,-89.3"/>
<polygon fill="midnightblue" stroke="midnightblue" points="398.77,-87.21 390.12,-81.1 393.07,-91.27 398.77,-87.21"/>
</g>
<!-- Node10 -->
<g id="node10" class="node">
<title>Node10</title>
<g id="a_node10"><a xlink:title=" ">
<polygon fill="none" stroke="#bfbfbf" points="428.5,-62 428.5,-81 487.5,-81 487.5,-62 428.5,-62"/>
<text text-anchor="middle" x="458" y="-69" font-family="Helvetica,sans-Serif" font-size="10.00">stdexcept</text>
</a>
</g>
</g>
<!-- Node1&#45;&gt;Node10 -->
<g id="edge25" class="edge">
<title>Node1&#45;&gt;Node10</title>
<path fill="none" stroke="midnightblue" d="M473.19,-190.09C470.05,-180.08 466.15,-166.37 464,-154 460.29,-132.65 458.87,-107.76 458.33,-91.16"/>
<polygon fill="midnightblue" stroke="midnightblue" points="461.83,-91.04 458.08,-81.13 454.83,-91.22 461.83,-91.04"/>
</g>
<!-- Node11 -->
<g id="node11" class="node">
<title>Node11</title>
<g id="a_node11"><a xlink:title=" ">
<polygon fill="none" stroke="#bfbfbf" points="505.5,-62 505.5,-81 546.5,-81 546.5,-62 505.5,-62"/>
<text text-anchor="middle" x="526" y="-69" font-family="Helvetica,sans-Serif" font-size="10.00">string</text>
</a>
</g>
</g>
<!-- Node1&#45;&gt;Node11 -->
<g id="edge26" class="edge">
<title>Node1&#45;&gt;Node11</title>
<path fill="none" stroke="midnightblue" d="M480.02,-190.28C482.67,-173.71 488.06,-145.71 497,-123 501.61,-111.29 508.6,-99.02 514.56,-89.51"/>
<polygon fill="midnightblue" stroke="midnightblue" points="517.54,-91.34 520.05,-81.05 511.67,-87.53 517.54,-91.34"/>
</g>
<!-- Node12 -->
<g id="node12" class="node">
<title>Node12</title>
<g id="a_node12"><a xlink:title=" ">
<polygon fill="none" stroke="#bfbfbf" points="506,-129 506,-148 596,-148 596,-129 506,-129"/>
<text text-anchor="middle" x="551" y="-136" font-family="Helvetica,sans-Serif" font-size="10.00">spdlog/fmt/ostr.h</text>
</a>
</g>
</g>
<!-- Node1&#45;&gt;Node12 -->
<g id="edge13" class="edge">
<title>Node1&#45;&gt;Node12</title>
<path fill="none" stroke="midnightblue" d="M493.84,-190.4C505.56,-179.96 521.52,-165.75 533.59,-155"/>
<polygon fill="midnightblue" stroke="midnightblue" points="536.09,-157.46 541.24,-148.19 531.44,-152.23 536.09,-157.46"/>
</g>
<!-- Node13 -->
<g id="node13" class="node">
<title>Node13</title>
<g id="a_node13"><a xlink:title=" ">
<polygon fill="none" stroke="#bfbfbf" points="584.5,-62 584.5,-81 681.5,-81 681.5,-62 584.5,-62"/>
<text text-anchor="middle" x="633" y="-69" font-family="Helvetica,sans-Serif" font-size="10.00">eigen3/Eigen/Core</text>
</a>
</g>
</g>
<!-- Node1&#45;&gt;Node13 -->
<g id="edge16" class="edge">
<title>Node1&#45;&gt;Node13</title>
<path fill="none" stroke="midnightblue" d="M535.61,-192.9C559.82,-185.41 586.58,-173.32 605,-154 621.42,-136.78 628.24,-109.51 631.06,-91.32"/>
<polygon fill="midnightblue" stroke="midnightblue" points="634.54,-91.7 632.34,-81.34 627.59,-90.81 634.54,-91.7"/>
</g>
<!-- Node14 -->
<g id="node14" class="node">
<title>Node14</title>
<g id="a_node14"><a xlink:title=" ">
<polygon fill="none" stroke="#bfbfbf" points="706.5,-62 706.5,-81 807.5,-81 807.5,-62 706.5,-62"/>
<text text-anchor="middle" x="757" y="-69" font-family="Helvetica,sans-Serif" font-size="10.00">eigen3/Eigen/Eigen</text>
</a>
</g>
</g>
<!-- Node1&#45;&gt;Node14 -->
<g id="edge17" class="edge">
<title>Node1&#45;&gt;Node14</title>
<path fill="none" stroke="midnightblue" d="M535.78,-204.93C625.46,-204.23 791.76,-196.98 829,-154 849.88,-129.9 811.87,-102.12 783.58,-86.01"/>
<polygon fill="midnightblue" stroke="midnightblue" points="784.91,-82.75 774.46,-81.02 781.55,-88.89 784.91,-82.75"/>
</g>
<!-- Node15 -->
<g id="node15" class="node">
<title>Node15</title>
<g id="a_node15"><a xlink:title=" ">
<polygon fill="none" stroke="#bfbfbf" points="829,-56.5 829,-86.5 939,-86.5 939,-56.5 829,-56.5"/>
<text text-anchor="start" x="837" y="-74.5" font-family="Helvetica,sans-Serif" font-size="10.00">eigen3/unsupported</text>
<text text-anchor="middle" x="884" y="-63.5" font-family="Helvetica,sans-Serif" font-size="10.00">/Eigen/CXX11/Tensor</text>
</a>
</g>
</g>
<!-- Node1&#45;&gt;Node15 -->
<g id="edge18" class="edge">
<title>Node1&#45;&gt;Node15</title>
<path fill="none" stroke="midnightblue" d="M535.57,-203.11C626.23,-199.86 796.89,-189.13 845,-154 863.73,-140.33 873.83,-115.27 879.02,-96.54"/>
<polygon fill="midnightblue" stroke="midnightblue" points="882.47,-97.18 881.49,-86.63 875.68,-95.49 882.47,-97.18"/>
</g>
<!-- Node16 -->
<g id="node16" class="node">
<title>Node16</title>
<g id="a_node16"><a xlink:title=" ">
<polygon fill="none" stroke="#bfbfbf" points="914.5,-123.5 914.5,-153.5 1045.5,-153.5 1045.5,-123.5 914.5,-123.5"/>
<text text-anchor="start" x="922.5" y="-141.5" font-family="Helvetica,sans-Serif" font-size="10.00">eigen3/unsupported</text>
<text text-anchor="middle" x="980" y="-130.5" font-family="Helvetica,sans-Serif" font-size="10.00">/Eigen/CXX11/ThreadPool</text>
</a>
</g>
</g>
<!-- Node1&#45;&gt;Node16 -->
<g id="edge19" class="edge">
<title>Node1&#45;&gt;Node16</title>
<path fill="none" stroke="midnightblue" d="M535.83,-198.69C617.26,-190.26 770.3,-173.5 900,-154 901.3,-153.81 902.6,-153.61 903.92,-153.4"/>
<polygon fill="midnightblue" stroke="midnightblue" points="904.81,-156.8 914.13,-151.76 903.7,-149.89 904.81,-156.8"/>
</g>
<!-- Node17 -->
<g id="node17" class="node">
<title>Node17</title>
<g id="a_node17"><a xlink:href="helper__eigenTensorConversion_8hpp.html" target="_top" xlink:title=" ">
<polygon fill="none" stroke="black" points="651.5,-129 651.5,-148 820.5,-148 820.5,-129 651.5,-129"/>
<text text-anchor="middle" x="736" y="-136" font-family="Helvetica,sans-Serif" font-size="10.00">helper_eigenTensorConversion.hpp</text>
</a>
</g>
</g>
<!-- Node1&#45;&gt;Node17 -->
<g id="edge20" class="edge">
<title>Node1&#45;&gt;Node17</title>
<path fill="none" stroke="midnightblue" d="M533.66,-190.48C581.22,-178.5 648.67,-161.5 692.39,-150.49"/>
<polygon fill="midnightblue" stroke="midnightblue" points="693.31,-153.87 702.15,-148.03 691.6,-147.08 693.31,-153.87"/>
</g>
<!-- Node18 -->
<g id="node18" class="node">
<title>Node18</title>
<g id="a_node18"><a xlink:title=" ">
<polygon fill="none" stroke="#bfbfbf" points="1064,-129 1064,-148 1108,-148 1108,-129 1064,-129"/>
<text text-anchor="middle" x="1086" y="-136" font-family="Helvetica,sans-Serif" font-size="10.00">thread</text>
</a>
</g>
</g>
<!-- Node1&#45;&gt;Node18 -->
<g id="edge27" class="edge">
<title>Node1&#45;&gt;Node18</title>
<path fill="none" stroke="midnightblue" d="M535.75,-202.01C661.83,-196.15 958.13,-180.02 1055,-154 1056.94,-153.48 1058.9,-152.84 1060.85,-152.13"/>
<polygon fill="midnightblue" stroke="midnightblue" points="1062.47,-155.25 1070.31,-148.13 1059.74,-148.8 1062.47,-155.25"/>
</g>
<!-- Node2&#45;&gt;Node1 -->
<g id="edge6" class="edge">
<title>Node2&#45;&gt;Node1</title>
<path fill="none" stroke="midnightblue" d="M361.06,-148.01C383.78,-157.6 418.47,-173.48 444.25,-185.97"/>
<polygon fill="midnightblue" stroke="midnightblue" points="442.78,-189.15 453.3,-190.4 445.86,-182.86 442.78,-189.15"/>
</g>
<!-- Node2&#45;&gt;Node3 -->
<g id="edge2" class="edge">
<title>Node2&#45;&gt;Node3</title>
<path fill="none" stroke="midnightblue" d="M301.82,-131.19C259.6,-123.28 188.05,-108.13 129,-87 127.57,-86.49 126.12,-85.93 124.66,-85.34"/>
<polygon fill="midnightblue" stroke="midnightblue" points="125.79,-82.01 115.23,-81.12 122.94,-88.4 125.79,-82.01"/>
</g>
<!-- Node2&#45;&gt;Node7 -->
<g id="edge7" class="edge">
<title>Node2&#45;&gt;Node7</title>
<path fill="none" stroke="midnightblue" d="M317.95,-128.87C295.39,-119.16 258.11,-103.11 229.08,-90.61"/>
<polygon fill="midnightblue" stroke="midnightblue" points="230.16,-87.27 219.59,-86.53 227.39,-93.7 230.16,-87.27"/>
</g>
<!-- Node2&#45;&gt;Node8 -->
<g id="edge8" class="edge">
<title>Node2&#45;&gt;Node8</title>
<path fill="none" stroke="midnightblue" d="M332.47,-128.73C326.2,-118.79 315.82,-102.34 307.91,-89.79"/>
<polygon fill="midnightblue" stroke="midnightblue" points="310.74,-87.72 302.44,-81.13 304.82,-91.45 310.74,-87.72"/>
</g>
<!-- Node2&#45;&gt;Node9 -->
<g id="edge9" class="edge">
<title>Node2&#45;&gt;Node9</title>
<path fill="none" stroke="midnightblue" d="M344.2,-128.73C351.31,-118.7 363.11,-102.01 372.02,-89.42"/>
<polygon fill="midnightblue" stroke="midnightblue" points="374.97,-91.31 377.89,-81.13 369.26,-87.27 374.97,-91.31"/>
</g>
<!-- Node2&#45;&gt;Node10 -->
<g id="edge10" class="edge">
<title>Node2&#45;&gt;Node10</title>
<path fill="none" stroke="midnightblue" d="M354.18,-128.73C374.43,-117.77 409.3,-98.88 432.99,-86.05"/>
<polygon fill="midnightblue" stroke="midnightblue" points="434.95,-88.97 442.07,-81.13 431.61,-82.81 434.95,-88.97"/>
</g>
<!-- Node2&#45;&gt;Node11 -->
<g id="edge11" class="edge">
<title>Node2&#45;&gt;Node11</title>
<path fill="none" stroke="midnightblue" d="M369.04,-128.98C401.23,-119.83 452.81,-104.24 496,-87 497.38,-86.45 498.78,-85.87 500.19,-85.26"/>
<polygon fill="midnightblue" stroke="midnightblue" points="501.73,-88.4 509.37,-81.05 498.82,-82.03 501.73,-88.4"/>
</g>
<!-- Node4 -->
<g id="node4" class="node">
<title>Node4</title>
<g id="a_node4"><a xlink:title=" ">
<polygon fill="none" stroke="#bfbfbf" points="0,-0.5 0,-19.5 56,-19.5 56,-0.5 0,-0.5"/>
<text text-anchor="middle" x="28" y="-7.5" font-family="Helvetica,sans-Serif" font-size="10.00">stdbool.h</text>
</a>
</g>
</g>
<!-- Node3&#45;&gt;Node4 -->
<g id="edge3" class="edge">
<title>Node3&#45;&gt;Node4</title>
<path fill="none" stroke="midnightblue" d="M88.83,-61.98C77.65,-52.61 59.48,-37.38 45.91,-26.01"/>
<polygon fill="midnightblue" stroke="midnightblue" points="48.07,-23.25 38.15,-19.51 43.57,-28.61 48.07,-23.25"/>
</g>
<!-- Node5 -->
<g id="node5" class="node">
<title>Node5</title>
<g id="a_node5"><a xlink:title=" ">
<polygon fill="none" stroke="#bfbfbf" points="74.5,-0.5 74.5,-19.5 123.5,-19.5 123.5,-0.5 74.5,-0.5"/>
<text text-anchor="middle" x="99" y="-7.5" font-family="Helvetica,sans-Serif" font-size="10.00">stdint.h</text>
</a>
</g>
</g>
<!-- Node3&#45;&gt;Node5 -->
<g id="edge4" class="edge">
<title>Node3&#45;&gt;Node5</title>
<path fill="none" stroke="midnightblue" d="M99,-61.98C99,-53.58 99,-40.48 99,-29.66"/>
<polygon fill="midnightblue" stroke="midnightblue" points="102.5,-29.51 99,-19.51 95.5,-29.51 102.5,-29.51"/>
</g>
<!-- Node6 -->
<g id="node6" class="node">
<title>Node6</title>
<g id="a_node6"><a xlink:title=" ">
<polygon fill="none" stroke="#bfbfbf" points="141.5,-0.5 141.5,-19.5 190.5,-19.5 190.5,-0.5 141.5,-0.5"/>
<text text-anchor="middle" x="166" y="-7.5" font-family="Helvetica,sans-Serif" font-size="10.00">string.h</text>
</a>
</g>
</g>
<!-- Node3&#45;&gt;Node6 -->
<g id="edge5" class="edge">
<title>Node3&#45;&gt;Node6</title>
<path fill="none" stroke="midnightblue" d="M108.6,-61.98C119.05,-52.7 135.97,-37.67 148.74,-26.33"/>
<polygon fill="midnightblue" stroke="midnightblue" points="151.27,-28.77 156.42,-19.51 146.62,-23.53 151.27,-28.77"/>
</g>
<!-- Node17&#45;&gt;Node13 -->
<g id="edge21" class="edge">
<title>Node17&#45;&gt;Node13</title>
<path fill="none" stroke="midnightblue" d="M722.11,-128.73C704.97,-117.92 675.6,-99.38 655.29,-86.57"/>
<polygon fill="midnightblue" stroke="midnightblue" points="657,-83.5 646.67,-81.13 653.26,-89.42 657,-83.5"/>
</g>
<!-- Node17&#45;&gt;Node14 -->
<g id="edge22" class="edge">
<title>Node17&#45;&gt;Node14</title>
<path fill="none" stroke="midnightblue" d="M738.83,-128.73C741.95,-119.09 747.05,-103.3 751.05,-90.91"/>
<polygon fill="midnightblue" stroke="midnightblue" points="754.47,-91.72 754.21,-81.13 747.81,-89.57 754.47,-91.72"/>
</g>
<!-- Node17&#45;&gt;Node15 -->
<g id="edge23" class="edge">
<title>Node17&#45;&gt;Node15</title>
<path fill="none" stroke="midnightblue" d="M755.65,-128.87C777.77,-119.16 814.31,-103.11 842.75,-90.61"/>
<polygon fill="midnightblue" stroke="midnightblue" points="844.31,-93.75 852.06,-86.53 841.5,-87.34 844.31,-93.75"/>
</g>
</g>
</svg>
