<?xml version="1.0" encoding="UTF-8" standalone="no"?>
<!DOCTYPE svg PUBLIC "-//W3C//DTD SVG 1.1//EN"
 "http://www.w3.org/Graphics/SVG/1.1/DTD/svg11.dtd">
<!-- Generated by graphviz version 2.43.0 (0)
 -->
<!-- Title: src/simulation_system/systemData.hpp Pages: 1 -->
<svg width="771pt" height="296pt"
 viewBox="0.00 0.00 771.36 296.00" xmlns="http://www.w3.org/2000/svg" xmlns:xlink="http://www.w3.org/1999/xlink">
<g id="graph0" class="graph" transform="scale(1 1) rotate(0) translate(4 292)">
<title>src/simulation_system/systemData.hpp</title>
<!-- Node1 -->
<g id="node1" class="node">
<title>Node1</title>
<g id="a_node1"><a xlink:title=" ">
<polygon fill="#bfbfbf" stroke="black" points="304.36,-257.5 304.36,-287.5 419.36,-287.5 419.36,-257.5 304.36,-257.5"/>
<text text-anchor="start" x="312.36" y="-275.5" font-family="Helvetica,sans-Serif" font-size="10.00">src/simulation_system</text>
<text text-anchor="middle" x="361.86" y="-264.5" font-family="Helvetica,sans-Serif" font-size="10.00">/systemData.hpp</text>
</a>
</g>
</g>
<!-- Node2 -->
<g id="node2" class="node">
<title>Node2</title>
<g id="a_node2"><a xlink:href="main_8cpp.html" target="_top" xlink:title=" ">
<polygon fill="none" stroke="black" points="137.36,-6 137.36,-25 210.36,-25 210.36,-6 137.36,-6"/>
<text text-anchor="middle" x="173.86" y="-13" font-family="Helvetica,sans-Serif" font-size="10.00">src/main.cpp</text>
</a>
</g>
</g>
<!-- Node1&#45;&gt;Node2 -->
<g id="edge1" class="edge">
<title>Node1&#45;&gt;Node2</title>
<path fill="none" stroke="midnightblue" d="M294.02,-259.54C200.05,-241.33 38.34,-203.47 7.86,-154 -30.8,-91.23 88.34,-43.64 145.31,-25.04"/>
<polygon fill="midnightblue" stroke="midnightblue" points="293.54,-263.01 304.02,-261.45 294.85,-256.13 293.54,-263.01"/>
</g>
<!-- Node3 -->
<g id="node3" class="node">
<title>Node3</title>
<g id="a_node3"><a xlink:href="GSDUtil_8hpp.html" target="_top" xlink:title=" ">
<polygon fill="none" stroke="black" points="150.36,-196 150.36,-215 273.36,-215 273.36,-196 150.36,-196"/>
<text text-anchor="middle" x="211.86" y="-203" font-family="Helvetica,sans-Serif" font-size="10.00">src/data_io/GSDUtil.hpp</text>
</a>
</g>
</g>
<!-- Node1&#45;&gt;Node3 -->
<g id="edge2" class="edge">
<title>Node1&#45;&gt;Node3</title>
<path fill="none" stroke="midnightblue" d="M314.11,-253.46C283.96,-240.9 247.09,-224.72 226.76,-215.01"/>
<polygon fill="midnightblue" stroke="midnightblue" points="313.06,-256.81 323.64,-257.4 315.73,-250.34 313.06,-256.81"/>
</g>
<!-- Node5 -->
<g id="node5" class="node">
<title>Node5</title>
<g id="a_node5"><a xlink:href="potentialHydrodynamics_8hpp.html" target="_top" xlink:title=" ">
<polygon fill="none" stroke="black" points="329.36,-196 329.36,-215 516.36,-215 516.36,-196 329.36,-196"/>
<text text-anchor="middle" x="422.86" y="-203" font-family="Helvetica,sans-Serif" font-size="10.00">src/forces/potentialHydrodynamics.hpp</text>
</a>
</g>
</g>
<!-- Node1&#45;&gt;Node5 -->
<g id="edge5" class="edge">
<title>Node1&#45;&gt;Node5</title>
<path fill="none" stroke="midnightblue" d="M382.04,-250C393.18,-238.13 406.39,-224.05 414.7,-215.19"/>
<polygon fill="midnightblue" stroke="midnightblue" points="379.39,-247.71 375.1,-257.4 384.49,-252.5 379.39,-247.71"/>
</g>
<!-- Node7 -->
<g id="node7" class="node">
<title>Node7</title>
<g id="a_node7"><a xlink:href="rungeKutta4_8hpp.html" target="_top" xlink:title=" ">
<polygon fill="none" stroke="black" points="158.36,-134.5 158.36,-153.5 311.36,-153.5 311.36,-134.5 158.36,-134.5"/>
<text text-anchor="middle" x="234.86" y="-141.5" font-family="Helvetica,sans-Serif" font-size="10.00">src/integrators/rungeKutta4.hpp</text>
</a>
</g>
</g>
<!-- Node1&#45;&gt;Node7 -->
<g id="edge14" class="edge">
<title>Node1&#45;&gt;Node7</title>
<path fill="none" stroke="midnightblue" d="M341.47,-249.91C325.68,-233.32 303.15,-209.95 282.86,-190 269.83,-177.18 254.34,-162.81 244.55,-153.83"/>
<polygon fill="midnightblue" stroke="midnightblue" points="339.22,-252.62 348.64,-257.46 344.29,-247.8 339.22,-252.62"/>
</g>
<!-- Node9 -->
<g id="node9" class="node">
<title>Node9</title>
<g id="a_node9"><a xlink:href="engine_8hpp.html" target="_top" xlink:title=" ">
<polygon fill="none" stroke="black" points="444.36,-67.5 444.36,-97.5 559.36,-97.5 559.36,-67.5 444.36,-67.5"/>
<text text-anchor="start" x="452.36" y="-85.5" font-family="Helvetica,sans-Serif" font-size="10.00">src/simulation_system</text>
<text text-anchor="middle" x="501.86" y="-74.5" font-family="Helvetica,sans-Serif" font-size="10.00">/engine.hpp</text>
</a>
</g>
</g>
<!-- Node1&#45;&gt;Node9 -->
<g id="edge15" class="edge">
<title>Node1&#45;&gt;Node9</title>
<path fill="none" stroke="midnightblue" d="M429.65,-266.18C462.94,-260.11 501.12,-247.39 525.86,-221 552.75,-192.32 554.79,-171.13 541.86,-134 537.01,-120.06 526.53,-107.07 517.51,-97.75"/>
<polygon fill="midnightblue" stroke="midnightblue" points="428.79,-262.78 419.5,-267.87 429.93,-269.69 428.79,-262.78"/>
</g>
<!-- Node11 -->
<g id="node11" class="node">
<title>Node11</title>
<g id="a_node11"><a xlink:href="testsSimulationBuild_8cpp.html" target="_top" xlink:title=" ">
<polygon fill="none" stroke="black" points="545.36,-6 545.36,-25 694.36,-25 694.36,-6 545.36,-6"/>
<text text-anchor="middle" x="619.86" y="-13" font-family="Helvetica,sans-Serif" font-size="10.00">tests/testsSimulationBuild.cpp</text>
</a>
</g>
</g>
<!-- Node1&#45;&gt;Node11 -->
<g id="edge17" class="edge">
<title>Node1&#45;&gt;Node11</title>
<path fill="none" stroke="midnightblue" d="M429.76,-268.72C469.32,-263.68 517.61,-251.15 549.86,-221 609.35,-165.39 618.28,-57.12 619.63,-25.42"/>
<polygon fill="midnightblue" stroke="midnightblue" points="429.18,-265.26 419.65,-269.87 429.98,-272.22 429.18,-265.26"/>
</g>
<!-- Node12 -->
<g id="node12" class="node">
<title>Node12</title>
<g id="a_node12"><a xlink:href="systemData_8cpp.html" target="_top" xlink:title=" ">
<polygon fill="none" stroke="black" points="648.36,-190.5 648.36,-220.5 763.36,-220.5 763.36,-190.5 648.36,-190.5"/>
<text text-anchor="start" x="656.36" y="-208.5" font-family="Helvetica,sans-Serif" font-size="10.00">src/simulation_system</text>
<text text-anchor="middle" x="705.86" y="-197.5" font-family="Helvetica,sans-Serif" font-size="10.00">/systemData.cpp</text>
</a>
</g>
</g>
<!-- Node1&#45;&gt;Node12 -->
<g id="edge16" class="edge">
<title>Node1&#45;&gt;Node12</title>
<path fill="none" stroke="midnightblue" d="M429.47,-259.24C484.54,-249.19 564.28,-234.47 633.86,-221 638.49,-220.1 643.29,-219.16 648.11,-218.21"/>
<polygon fill="midnightblue" stroke="midnightblue" points="428.69,-255.83 419.48,-261.06 429.95,-262.71 428.69,-255.83"/>
</g>
<!-- Node3&#45;&gt;Node1 -->
<g id="edge4" class="edge">
<title>Node3&#45;&gt;Node1</title>
<path fill="none" stroke="midnightblue" d="M245.69,-218.81C272.73,-229.8 309.95,-245.89 334.99,-257.4"/>
<polygon fill="midnightblue" stroke="midnightblue" points="246.81,-215.49 236.23,-215.01 244.2,-221.98 246.81,-215.49"/>
</g>
<!-- Node4 -->
<g id="node4" class="node">
<title>Node4</title>
<g id="a_node4"><a xlink:href="GSDUtil_8cpp.html" target="_top" xlink:title=" ">
<polygon fill="none" stroke="black" points="17.36,-134.5 17.36,-153.5 140.36,-153.5 140.36,-134.5 17.36,-134.5"/>
<text text-anchor="middle" x="78.86" y="-141.5" font-family="Helvetica,sans-Serif" font-size="10.00">src/data_io/GSDUtil.cpp</text>
</a>
</g>
</g>
<!-- Node3&#45;&gt;Node4 -->
<g id="edge3" class="edge">
<title>Node3&#45;&gt;Node4</title>
<path fill="none" stroke="midnightblue" d="M183.53,-191.83C157.71,-180.28 120.29,-163.53 97.88,-153.51"/>
<polygon fill="midnightblue" stroke="midnightblue" points="182.25,-195.09 192.81,-195.98 185.11,-188.7 182.25,-195.09"/>
</g>
<!-- Node6 -->
<g id="node6" class="node">
<title>Node6</title>
<g id="a_node6"><a xlink:href="potentialHydrodynamics_8cpp.html" target="_top" xlink:title=" ">
<polygon fill="none" stroke="black" points="329.36,-134.5 329.36,-153.5 516.36,-153.5 516.36,-134.5 329.36,-134.5"/>
<text text-anchor="middle" x="422.86" y="-141.5" font-family="Helvetica,sans-Serif" font-size="10.00">src/forces/potentialHydrodynamics.cpp</text>
</a>
</g>
</g>
<!-- Node5&#45;&gt;Node6 -->
<g id="edge6" class="edge">
<title>Node5&#45;&gt;Node6</title>
<path fill="none" stroke="midnightblue" d="M422.86,-185.82C422.86,-175 422.86,-161.9 422.86,-153.51"/>
<polygon fill="midnightblue" stroke="midnightblue" points="419.36,-185.98 422.86,-195.98 426.36,-185.98 419.36,-185.98"/>
</g>
<!-- Node5&#45;&gt;Node7 -->
<g id="edge7" class="edge">
<title>Node5&#45;&gt;Node7</title>
<path fill="none" stroke="midnightblue" d="M386.15,-192.88C349.61,-181.32 294.39,-163.84 261.75,-153.51"/>
<polygon fill="midnightblue" stroke="midnightblue" points="385.34,-196.29 395.93,-195.98 387.45,-189.62 385.34,-196.29"/>
</g>
<!-- Node5&#45;&gt;Node9 -->
<g id="edge13" class="edge">
<title>Node5&#45;&gt;Node9</title>
<path fill="none" stroke="midnightblue" d="M472.18,-192.73C492.46,-185.19 513.95,-173.11 525.86,-154 537.01,-136.12 524.23,-112.42 513.48,-97.57"/>
<polygon fill="midnightblue" stroke="midnightblue" points="471.01,-189.43 462.68,-195.97 473.27,-196.05 471.01,-189.43"/>
</g>
<!-- Node8 -->
<g id="node8" class="node">
<title>Node8</title>
<g id="a_node8"><a xlink:href="rungeKutta4_8cpp.html" target="_top" xlink:title=" ">
<polygon fill="none" stroke="black" points="158.36,-73 158.36,-92 311.36,-92 311.36,-73 158.36,-73"/>
<text text-anchor="middle" x="234.86" y="-80" font-family="Helvetica,sans-Serif" font-size="10.00">src/integrators/rungeKutta4.cpp</text>
</a>
</g>
</g>
<!-- Node7&#45;&gt;Node8 -->
<g id="edge8" class="edge">
<title>Node7&#45;&gt;Node8</title>
<path fill="none" stroke="midnightblue" d="M234.86,-124.32C234.86,-113.5 234.86,-100.4 234.86,-92.01"/>
<polygon fill="midnightblue" stroke="midnightblue" points="231.36,-124.48 234.86,-134.48 238.36,-124.48 231.36,-124.48"/>
</g>
<!-- Node7&#45;&gt;Node9 -->
<g id="edge9" class="edge">
<title>Node7&#45;&gt;Node9</title>
<path fill="none" stroke="midnightblue" d="M282.99,-132.28C328.27,-122.19 396.13,-107.06 444.27,-96.34"/>
<polygon fill="midnightblue" stroke="midnightblue" points="282.12,-128.88 273.12,-134.48 283.64,-135.72 282.12,-128.88"/>
</g>
<!-- Node9&#45;&gt;Node2 -->
<g id="edge10" class="edge">
<title>Node9&#45;&gt;Node2</title>
<path fill="none" stroke="midnightblue" d="M434.19,-68.09C366.33,-54.64 264.41,-34.44 210.43,-23.75"/>
<polygon fill="midnightblue" stroke="midnightblue" points="433.86,-71.59 444.35,-70.1 435.22,-64.73 433.86,-71.59"/>
</g>
<!-- Node10 -->
<g id="node10" class="node">
<title>Node10</title>
<g id="a_node10"><a xlink:href="engine_8cpp.html" target="_top" xlink:title=" ">
<polygon fill="none" stroke="black" points="412.36,-0.5 412.36,-30.5 527.36,-30.5 527.36,-0.5 412.36,-0.5"/>
<text text-anchor="start" x="420.36" y="-18.5" font-family="Helvetica,sans-Serif" font-size="10.00">src/simulation_system</text>
<text text-anchor="middle" x="469.86" y="-7.5" font-family="Helvetica,sans-Serif" font-size="10.00">/engine.cpp</text>
</a>
</g>
</g>
<!-- Node9&#45;&gt;Node10 -->
<g id="edge11" class="edge">
<title>Node9&#45;&gt;Node10</title>
<path fill="none" stroke="midnightblue" d="M490.43,-58.28C485.87,-49.02 480.77,-38.66 476.79,-30.58"/>
<polygon fill="midnightblue" stroke="midnightblue" points="487.36,-59.97 494.92,-67.4 493.64,-56.88 487.36,-59.97"/>
</g>
<!-- Node9&#45;&gt;Node11 -->
<g id="edge12" class="edge">
<title>Node9&#45;&gt;Node11</title>
<path fill="none" stroke="midnightblue" d="M536.4,-62.47C558.93,-50.06 587.24,-34.47 604.42,-25.01"/>
<polygon fill="midnightblue" stroke="midnightblue" points="534.54,-59.51 527.47,-67.4 537.91,-65.64 534.54,-59.51"/>
</g>
</g>
</svg>
