<?xml version="1.0" encoding="UTF-8" standalone="no"?>
<!DOCTYPE svg PUBLIC "-//W3C//DTD SVG 1.1//EN"
 "http://www.w3.org/Graphics/SVG/1.1/DTD/svg11.dtd">
<!-- Generated by graphviz version 2.49.1 (20210923.0004)
 -->
<!-- Title: src/simulation_system/systemData.hpp Pages: 1 -->
<svg width="1059pt" height="229pt"
 viewBox="0.00 0.00 1059.00 229.00" xmlns="http://www.w3.org/2000/svg" xmlns:xlink="http://www.w3.org/1999/xlink">
<g id="graph0" class="graph" transform="scale(1 1) rotate(0) translate(4 225)">
<title>src/simulation_system/systemData.hpp</title>
<!-- Node1 -->
<g id="node1" class="node">
<title>Node1</title>
<g id="a_node1"><a xlink:title=" ">
<polygon fill="#bfbfbf" stroke="black" points="444,-190.5 444,-220.5 559,-220.5 559,-190.5 444,-190.5"/>
<text text-anchor="start" x="452" y="-208.5" font-family="Helvetica,sans-Serif" font-size="10.00">src/simulation_system</text>
<text text-anchor="middle" x="501.5" y="-197.5" font-family="Helvetica,sans-Serif" font-size="10.00">/systemData.hpp</text>
</a>
</g>
</g>
<!-- Node2 -->
<g id="node2" class="node">
<title>Node2</title>
<g id="a_node2"><a xlink:href="GSDUtil_8hpp.html" target="_top" xlink:title=" ">
<polygon fill="none" stroke="black" points="344.5,-129 344.5,-148 416.5,-148 416.5,-129 344.5,-129"/>
<text text-anchor="middle" x="380.5" y="-136" font-family="Helvetica,sans-Serif" font-size="10.00">GSDUtil.hpp</text>
</a>
</g>
</g>
<!-- Node1&#45;&gt;Node2 -->
<g id="edge1" class="edge">
<title>Node1&#45;&gt;Node2</title>
<path fill="none" stroke="midnightblue" d="M469.57,-190.4C447.54,-179.34 419.11,-164.06 400.26,-153.13"/>
<polygon fill="midnightblue" stroke="midnightblue" points="401.99,-150.09 391.6,-148.01 398.43,-156.11 401.99,-150.09"/>
</g>
<!-- Node3 -->
<g id="node3" class="node">
<title>Node3</title>
<g id="a_node3"><a xlink:href="gsd_8h.html" target="_top" xlink:title="Declare GSD data types and C API.">
<polygon fill="none" stroke="black" points="79,-62 79,-81 120,-81 120,-62 79,-62"/>
<text text-anchor="middle" x="99.5" y="-69" font-family="Helvetica,sans-Serif" font-size="10.00">gsd.h</text>
</a>
</g>
</g>
<!-- Node1&#45;&gt;Node3 -->
<g id="edge12" class="edge">
<title>Node1&#45;&gt;Node3</title>
<path fill="none" stroke="midnightblue" d="M443.85,-197.42C392.98,-190.07 317.36,-176.44 254.5,-154 204.38,-136.11 150.33,-104.58 121.16,-86.43"/>
<polygon fill="midnightblue" stroke="midnightblue" points="122.92,-83.4 112.6,-81.04 119.19,-89.33 122.92,-83.4"/>
</g>
<!-- Node7 -->
<g id="node7" class="node">
<title>Node7</title>
<g id="a_node7"><a xlink:title=" ">
<polygon fill="none" stroke="#bfbfbf" points="138.5,-56.5 138.5,-86.5 236.5,-86.5 236.5,-56.5 138.5,-56.5"/>
<text text-anchor="start" x="146.5" y="-74.5" font-family="Helvetica,sans-Serif" font-size="10.00">spdlog/sinks/basic</text>
<text text-anchor="middle" x="187.5" y="-63.5" font-family="Helvetica,sans-Serif" font-size="10.00">_file_sink.h</text>
</a>
</g>
</g>
<!-- Node1&#45;&gt;Node7 -->
<g id="edge13" class="edge">
<title>Node1&#45;&gt;Node7</title>
<path fill="none" stroke="midnightblue" d="M443.85,-194.38C405.06,-186.35 353.37,-173.24 310.5,-154 274.28,-137.75 236.84,-111.31 212.93,-92.97"/>
<polygon fill="midnightblue" stroke="midnightblue" points="214.8,-89.99 204.76,-86.61 210.5,-95.51 214.8,-89.99"/>
</g>
<!-- Node8 -->
<g id="node8" class="node">
<title>Node8</title>
<g id="a_node8"><a xlink:title=" ">
<polygon fill="none" stroke="#bfbfbf" points="255,-62 255,-81 342,-81 342,-62 255,-62"/>
<text text-anchor="middle" x="298.5" y="-69" font-family="Helvetica,sans-Serif" font-size="10.00">spdlog/spdlog.h</text>
</a>
</g>
</g>
<!-- Node1&#45;&gt;Node8 -->
<g id="edge14" class="edge">
<title>Node1&#45;&gt;Node8</title>
<path fill="none" stroke="midnightblue" d="M443.83,-198.96C408.92,-192.92 365.51,-180.32 335.5,-154 316.64,-137.46 306.86,-109.38 302.2,-90.88"/>
<polygon fill="midnightblue" stroke="midnightblue" points="305.59,-90.01 299.97,-81.03 298.76,-91.55 305.59,-90.01"/>
</g>
<!-- Node9 -->
<g id="node9" class="node">
<title>Node9</title>
<g id="a_node9"><a xlink:title=" ">
<polygon fill="none" stroke="#bfbfbf" points="360,-62 360,-81 413,-81 413,-62 360,-62"/>
<text text-anchor="middle" x="386.5" y="-69" font-family="Helvetica,sans-Serif" font-size="10.00">memory</text>
</a>
</g>
</g>
<!-- Node1&#45;&gt;Node9 -->
<g id="edge23" class="edge">
<title>Node1&#45;&gt;Node9</title>
<path fill="none" stroke="midnightblue" d="M489.19,-190.37C467.74,-165.76 423.63,-115.12 400.84,-88.96"/>
<polygon fill="midnightblue" stroke="midnightblue" points="403.2,-86.34 393.99,-81.1 397.92,-90.94 403.2,-86.34"/>
</g>
<!-- Node10 -->
<g id="node10" class="node">
<title>Node10</title>
<g id="a_node10"><a xlink:title=" ">
<polygon fill="none" stroke="#bfbfbf" points="431,-62 431,-81 490,-81 490,-62 431,-62"/>
<text text-anchor="middle" x="460.5" y="-69" font-family="Helvetica,sans-Serif" font-size="10.00">stdexcept</text>
</a>
</g>
</g>
<!-- Node1&#45;&gt;Node10 -->
<g id="edge24" class="edge">
<title>Node1&#45;&gt;Node10</title>
<path fill="none" stroke="midnightblue" d="M497.11,-190.37C489.63,-166.29 474.42,-117.31 466.15,-90.7"/>
<polygon fill="midnightblue" stroke="midnightblue" points="469.48,-89.61 463.17,-81.1 462.79,-91.69 469.48,-89.61"/>
</g>
<!-- Node11 -->
<g id="node11" class="node">
<title>Node11</title>
<g id="a_node11"><a xlink:title=" ">
<polygon fill="none" stroke="#bfbfbf" points="508,-62 508,-81 549,-81 549,-62 508,-62"/>
<text text-anchor="middle" x="528.5" y="-69" font-family="Helvetica,sans-Serif" font-size="10.00">string</text>
</a>
</g>
</g>
<!-- Node1&#45;&gt;Node11 -->
<g id="edge25" class="edge">
<title>Node1&#45;&gt;Node11</title>
<path fill="none" stroke="midnightblue" d="M504.39,-190.37C509.29,-166.4 519.24,-117.75 524.7,-91.06"/>
<polygon fill="midnightblue" stroke="midnightblue" points="528.17,-91.6 526.74,-81.1 521.31,-90.19 528.17,-91.6"/>
</g>
<!-- Node12 -->
<g id="node12" class="node">
<title>Node12</title>
<g id="a_node12"><a xlink:title=" ">
<polygon fill="none" stroke="#bfbfbf" points="567,-62 567,-81 666,-81 666,-62 567,-62"/>
<text text-anchor="middle" x="616.5" y="-69" font-family="Helvetica,sans-Serif" font-size="10.00">eigen3/Eigen/Core</text>
</a>
</g>
</g>
<!-- Node1&#45;&gt;Node12 -->
<g id="edge15" class="edge">
<title>Node1&#45;&gt;Node12</title>
<path fill="none" stroke="midnightblue" d="M513.81,-190.37C535.26,-165.76 579.37,-115.12 602.16,-88.96"/>
<polygon fill="midnightblue" stroke="midnightblue" points="605.08,-90.94 609.01,-81.1 599.8,-86.34 605.08,-90.94"/>
</g>
<!-- Node13 -->
<g id="node13" class="node">
<title>Node13</title>
<g id="a_node13"><a xlink:title=" ">
<polygon fill="none" stroke="#bfbfbf" points="684,-62 684,-81 787,-81 787,-62 684,-62"/>
<text text-anchor="middle" x="735.5" y="-69" font-family="Helvetica,sans-Serif" font-size="10.00">eigen3/Eigen/Eigen</text>
</a>
</g>
</g>
<!-- Node1&#45;&gt;Node13 -->
<g id="edge16" class="edge">
<title>Node1&#45;&gt;Node13</title>
<path fill="none" stroke="midnightblue" d="M521.77,-190.48C536.24,-180.42 556.15,-166.48 573.5,-154 592.33,-140.45 595.33,-134.47 615.5,-123 642.96,-107.39 676.2,-93.77 700.72,-84.62"/>
<polygon fill="midnightblue" stroke="midnightblue" points="702.14,-87.83 710.33,-81.1 699.73,-81.26 702.14,-87.83"/>
</g>
<!-- Node14 -->
<g id="node14" class="node">
<title>Node14</title>
<g id="a_node14"><a xlink:title=" ">
<polygon fill="none" stroke="#bfbfbf" points="805,-56.5 805,-86.5 916,-86.5 916,-56.5 805,-56.5"/>
<text text-anchor="start" x="813" y="-74.5" font-family="Helvetica,sans-Serif" font-size="10.00">eigen3/unsupported</text>
<text text-anchor="middle" x="860.5" y="-63.5" font-family="Helvetica,sans-Serif" font-size="10.00">/Eigen/CXX11/Tensor</text>
</a>
</g>
</g>
<!-- Node1&#45;&gt;Node14 -->
<g id="edge17" class="edge">
<title>Node1&#45;&gt;Node14</title>
<path fill="none" stroke="midnightblue" d="M559.21,-200.52C636.23,-194.27 767.56,-180.11 807.5,-154 828.58,-140.22 843.09,-114.83 851.53,-96.03"/>
<polygon fill="midnightblue" stroke="midnightblue" points="854.83,-97.22 855.49,-86.64 848.38,-94.49 854.83,-97.22"/>
</g>
<!-- Node15 -->
<g id="node15" class="node">
<title>Node15</title>
<g id="a_node15"><a xlink:title=" ">
<polygon fill="none" stroke="#bfbfbf" points="855,-123.5 855,-153.5 988,-153.5 988,-123.5 855,-123.5"/>
<text text-anchor="start" x="863" y="-141.5" font-family="Helvetica,sans-Serif" font-size="10.00">eigen3/unsupported</text>
<text text-anchor="middle" x="921.5" y="-130.5" font-family="Helvetica,sans-Serif" font-size="10.00">/Eigen/CXX11/ThreadPool</text>
</a>
</g>
</g>
<!-- Node1&#45;&gt;Node15 -->
<g id="edge18" class="edge">
<title>Node1&#45;&gt;Node15</title>
<path fill="none" stroke="midnightblue" d="M559.16,-196.43C626.68,-186.87 741.85,-170.17 840.5,-154 841.95,-153.76 843.42,-153.52 844.9,-153.27"/>
<polygon fill="midnightblue" stroke="midnightblue" points="845.5,-156.72 854.78,-151.6 844.34,-149.82 845.5,-156.72"/>
</g>
<!-- Node16 -->
<g id="node16" class="node">
<title>Node16</title>
<g id="a_node16"><a xlink:href="helper__eigenTensorConversion_8hpp.html" target="_top" xlink:title=" ">
<polygon fill="none" stroke="black" points="624.5,-129 624.5,-148 798.5,-148 798.5,-129 624.5,-129"/>
<text text-anchor="middle" x="711.5" y="-136" font-family="Helvetica,sans-Serif" font-size="10.00">helper_eigenTensorConversion.hpp</text>
</a>
</g>
</g>
<!-- Node1&#45;&gt;Node16 -->
<g id="edge19" class="edge">
<title>Node1&#45;&gt;Node16</title>
<path fill="none" stroke="midnightblue" d="M546.81,-190.48C584.78,-178.72 638.34,-162.14 673.96,-151.12"/>
<polygon fill="midnightblue" stroke="midnightblue" points="675.43,-154.33 683.95,-148.03 673.36,-147.64 675.43,-154.33"/>
</g>
<!-- Node17 -->
<g id="node17" class="node">
<title>Node17</title>
<g id="a_node17"><a xlink:title=" ">
<polygon fill="none" stroke="#bfbfbf" points="1006,-129 1006,-148 1051,-148 1051,-129 1006,-129"/>
<text text-anchor="middle" x="1028.5" y="-136" font-family="Helvetica,sans-Serif" font-size="10.00">thread</text>
</a>
</g>
</g>
<!-- Node1&#45;&gt;Node17 -->
<g id="edge26" class="edge">
<title>Node1&#45;&gt;Node17</title>
<path fill="none" stroke="midnightblue" d="M559.18,-204.84C652.86,-204.02 843.15,-196.63 997.5,-154 999.43,-153.47 1001.39,-152.82 1003.34,-152.1"/>
<polygon fill="midnightblue" stroke="midnightblue" points="1004.97,-155.22 1012.8,-148.09 1002.23,-148.77 1004.97,-155.22"/>
</g>
<!-- Node2&#45;&gt;Node1 -->
<g id="edge6" class="edge">
<title>Node2&#45;&gt;Node1</title>
<path fill="none" stroke="midnightblue" d="M401.07,-148.01C420.64,-157.43 449.99,-172.93 471.99,-185.31"/>
<polygon fill="midnightblue" stroke="midnightblue" points="470.5,-188.49 480.92,-190.4 473.97,-182.4 470.5,-188.49"/>
</g>
<!-- Node2&#45;&gt;Node3 -->
<g id="edge2" class="edge">
<title>Node2&#45;&gt;Node3</title>
<path fill="none" stroke="midnightblue" d="M344.43,-133.15C295,-126.54 203.86,-112.01 129.5,-87 127.88,-86.45 126.23,-85.84 124.59,-85.19"/>
<polygon fill="midnightblue" stroke="midnightblue" points="125.94,-81.96 115.38,-81.09 123.1,-88.35 125.94,-81.96"/>
</g>
<!-- Node2&#45;&gt;Node7 -->
<g id="edge7" class="edge">
<title>Node2&#45;&gt;Node7</title>
<path fill="none" stroke="midnightblue" d="M354.87,-128.87C325.41,-118.95 276.31,-102.41 238.88,-89.81"/>
<polygon fill="midnightblue" stroke="midnightblue" points="239.75,-86.4 229.15,-86.53 237.51,-93.04 239.75,-86.4"/>
</g>
<!-- Node2&#45;&gt;Node8 -->
<g id="edge8" class="edge">
<title>Node2&#45;&gt;Node8</title>
<path fill="none" stroke="midnightblue" d="M369.44,-128.73C356.16,-118.21 333.67,-100.38 317.57,-87.62"/>
<polygon fill="midnightblue" stroke="midnightblue" points="319.39,-84.6 309.38,-81.13 315.05,-90.08 319.39,-84.6"/>
</g>
<!-- Node2&#45;&gt;Node9 -->
<g id="edge9" class="edge">
<title>Node2&#45;&gt;Node9</title>
<path fill="none" stroke="midnightblue" d="M381.31,-128.73C382.19,-119.18 383.63,-103.62 384.77,-91.28"/>
<polygon fill="midnightblue" stroke="midnightblue" points="388.27,-91.41 385.7,-81.13 381.3,-90.76 388.27,-91.41"/>
</g>
<!-- Node2&#45;&gt;Node10 -->
<g id="edge10" class="edge">
<title>Node2&#45;&gt;Node10</title>
<path fill="none" stroke="midnightblue" d="M391.29,-128.73C404.24,-118.21 426.19,-100.38 441.89,-87.62"/>
<polygon fill="midnightblue" stroke="midnightblue" points="444.33,-90.15 449.88,-81.13 439.91,-84.72 444.33,-90.15"/>
</g>
<!-- Node2&#45;&gt;Node11 -->
<g id="edge11" class="edge">
<title>Node2&#45;&gt;Node11</title>
<path fill="none" stroke="midnightblue" d="M401.52,-128.85C425.21,-119.01 464.84,-102.33 498.5,-87 499.65,-86.47 500.83,-85.93 502.02,-85.38"/>
<polygon fill="midnightblue" stroke="midnightblue" points="503.58,-88.52 511.11,-81.07 500.58,-82.19 503.58,-88.52"/>
</g>
<!-- Node4 -->
<g id="node4" class="node">
<title>Node4</title>
<g id="a_node4"><a xlink:title=" ">
<polygon fill="none" stroke="#bfbfbf" points="0,-0.5 0,-19.5 57,-19.5 57,-0.5 0,-0.5"/>
<text text-anchor="middle" x="28.5" y="-7.5" font-family="Helvetica,sans-Serif" font-size="10.00">stdbool.h</text>
</a>
</g>
</g>
<!-- Node3&#45;&gt;Node4 -->
<g id="edge3" class="edge">
<title>Node3&#45;&gt;Node4</title>
<path fill="none" stroke="midnightblue" d="M89.33,-61.98C78.15,-52.61 59.98,-37.38 46.41,-26.01"/>
<polygon fill="midnightblue" stroke="midnightblue" points="48.57,-23.25 38.65,-19.51 44.07,-28.61 48.57,-23.25"/>
</g>
<!-- Node5 -->
<g id="node5" class="node">
<title>Node5</title>
<g id="a_node5"><a xlink:title=" ">
<polygon fill="none" stroke="#bfbfbf" points="75,-0.5 75,-19.5 124,-19.5 124,-0.5 75,-0.5"/>
<text text-anchor="middle" x="99.5" y="-7.5" font-family="Helvetica,sans-Serif" font-size="10.00">stdint.h</text>
</a>
</g>
</g>
<!-- Node3&#45;&gt;Node5 -->
<g id="edge4" class="edge">
<title>Node3&#45;&gt;Node5</title>
<path fill="none" stroke="midnightblue" d="M99.5,-61.98C99.5,-53.58 99.5,-40.48 99.5,-29.66"/>
<polygon fill="midnightblue" stroke="midnightblue" points="103,-29.51 99.5,-19.51 96,-29.51 103,-29.51"/>
</g>
<!-- Node6 -->
<g id="node6" class="node">
<title>Node6</title>
<g id="a_node6"><a xlink:title=" ">
<polygon fill="none" stroke="#bfbfbf" points="142,-0.5 142,-19.5 191,-19.5 191,-0.5 142,-0.5"/>
<text text-anchor="middle" x="166.5" y="-7.5" font-family="Helvetica,sans-Serif" font-size="10.00">string.h</text>
</a>
</g>
</g>
<!-- Node3&#45;&gt;Node6 -->
<g id="edge5" class="edge">
<title>Node3&#45;&gt;Node6</title>
<path fill="none" stroke="midnightblue" d="M109.1,-61.98C119.55,-52.7 136.47,-37.67 149.24,-26.33"/>
<polygon fill="midnightblue" stroke="midnightblue" points="151.77,-28.77 156.92,-19.51 147.12,-23.53 151.77,-28.77"/>
</g>
<!-- Node16&#45;&gt;Node12 -->
<g id="edge20" class="edge">
<title>Node16&#45;&gt;Node12</title>
<path fill="none" stroke="midnightblue" d="M698.69,-128.73C683.02,-118.01 656.28,-99.72 637.57,-86.91"/>
<polygon fill="midnightblue" stroke="midnightblue" points="639.34,-83.89 629.11,-81.13 635.39,-89.66 639.34,-83.89"/>
</g>
<!-- Node16&#45;&gt;Node13 -->
<g id="edge21" class="edge">
<title>Node16&#45;&gt;Node13</title>
<path fill="none" stroke="midnightblue" d="M714.74,-128.73C718.34,-118.99 724.25,-102.98 728.84,-90.53"/>
<polygon fill="midnightblue" stroke="midnightblue" points="732.13,-91.72 732.31,-81.13 725.57,-89.3 732.13,-91.72"/>
</g>
<!-- Node16&#45;&gt;Node14 -->
<g id="edge22" class="edge">
<title>Node16&#45;&gt;Node14</title>
<path fill="none" stroke="midnightblue" d="M731.29,-128.87C753.55,-119.16 790.33,-103.11 818.98,-90.61"/>
<polygon fill="midnightblue" stroke="midnightblue" points="820.58,-93.73 828.34,-86.53 817.78,-87.32 820.58,-93.73"/>
</g>
</g>
</svg>
