<?xml version="1.0" encoding="UTF-8" standalone="no"?>
<!DOCTYPE svg PUBLIC "-//W3C//DTD SVG 1.1//EN"
 "http://www.w3.org/Graphics/SVG/1.1/DTD/svg11.dtd">
<!-- Generated by graphviz version 2.43.0 (0)
 -->
<!-- Title: src/simulation_system/SystemData.hpp Pages: 1 -->
<svg width="1021pt" height="307pt"
 viewBox="0.00 0.00 1020.51 307.00" xmlns="http://www.w3.org/2000/svg" xmlns:xlink="http://www.w3.org/1999/xlink">
<g id="graph0" class="graph" transform="scale(1 1) rotate(0) translate(4 303)">
<title>src/simulation_system/SystemData.hpp</title>
<!-- Node1 -->
<g id="node1" class="node">
<title>Node1</title>
<g id="a_node1"><a xlink:title=" ">
<polygon fill="#bfbfbf" stroke="black" points="391.51,-268.5 391.51,-298.5 506.51,-298.5 506.51,-268.5 391.51,-268.5"/>
<text text-anchor="start" x="399.51" y="-286.5" font-family="Helvetica,sans-Serif" font-size="10.00">src/simulation_system</text>
<text text-anchor="middle" x="449.01" y="-275.5" font-family="Helvetica,sans-Serif" font-size="10.00">/SystemData.hpp</text>
</a>
</g>
</g>
<!-- Node2 -->
<g id="node2" class="node">
<title>Node2</title>
<g id="a_node2"><a xlink:href="main_8cpp.html" target="_top" xlink:title=" ">
<polygon fill="none" stroke="black" points="149.51,-6 149.51,-25 222.51,-25 222.51,-6 149.51,-6"/>
<text text-anchor="middle" x="186.01" y="-13" font-family="Helvetica,sans-Serif" font-size="10.00">src/main.cpp</text>
</a>
</g>
</g>
<!-- Node1&#45;&gt;Node2 -->
<g id="edge1" class="edge">
<title>Node1&#45;&gt;Node2</title>
<path fill="none" stroke="midnightblue" d="M381.17,-275.18C268.23,-261.34 49.98,-227.04 9.01,-165 -35.21,-98.06 97.69,-45.08 157.95,-25.1"/>
<polygon fill="midnightblue" stroke="midnightblue" points="380.75,-278.65 391.1,-276.37 381.59,-271.7 380.75,-278.65"/>
</g>
<!-- Node3 -->
<g id="node3" class="node">
<title>Node3</title>
<g id="a_node3"><a xlink:href="GSDUtil_8hpp.html" target="_top" xlink:title=" ">
<polygon fill="none" stroke="black" points="175.51,-207 175.51,-226 298.51,-226 298.51,-207 175.51,-207"/>
<text text-anchor="middle" x="237.01" y="-214" font-family="Helvetica,sans-Serif" font-size="10.00">src/data_io/GSDUtil.hpp</text>
</a>
</g>
</g>
<!-- Node1&#45;&gt;Node3 -->
<g id="edge2" class="edge">
<title>Node1&#45;&gt;Node3</title>
<path fill="none" stroke="midnightblue" d="M387.85,-265.59C345.13,-252.9 290.59,-236.04 260.08,-226.03"/>
<polygon fill="midnightblue" stroke="midnightblue" points="387.02,-268.99 397.6,-268.48 389,-262.28 387.02,-268.99"/>
</g>
<!-- Node5 -->
<g id="node5" class="node">
<title>Node5</title>
<g id="a_node5"><a xlink:href="PotentialHydrodynamics_8hpp.html" target="_top" xlink:title=" ">
<polygon fill="none" stroke="black" points="355.01,-207 355.01,-226 543.01,-226 543.01,-207 355.01,-207"/>
<text text-anchor="middle" x="449.01" y="-214" font-family="Helvetica,sans-Serif" font-size="10.00">src/forces/PotentialHydrodynamics.hpp</text>
</a>
</g>
</g>
<!-- Node1&#45;&gt;Node5 -->
<g id="edge5" class="edge">
<title>Node1&#45;&gt;Node5</title>
<path fill="none" stroke="midnightblue" d="M449.01,-258.25C449.01,-247.02 449.01,-234.38 449.01,-226.19"/>
<polygon fill="midnightblue" stroke="midnightblue" points="445.51,-258.4 449.01,-268.4 452.51,-258.4 445.51,-258.4"/>
</g>
<!-- Node7 -->
<g id="node7" class="node">
<title>Node7</title>
<g id="a_node7"><a xlink:href="RungeKutta4_8hpp.html" target="_top" xlink:title=" ">
<polygon fill="none" stroke="black" points="160.01,-140 160.01,-159 318.01,-159 318.01,-140 160.01,-140"/>
<text text-anchor="middle" x="239.01" y="-147" font-family="Helvetica,sans-Serif" font-size="10.00">src/integrators/RungeKutta4.hpp</text>
</a>
</g>
</g>
<!-- Node1&#45;&gt;Node7 -->
<g id="edge14" class="edge">
<title>Node1&#45;&gt;Node7</title>
<path fill="none" stroke="midnightblue" d="M406.26,-264.07C387.29,-255.26 365.01,-244.02 346.01,-232 327.29,-220.17 324.56,-214.49 307.01,-201 287.65,-186.13 264.8,-169.31 251.13,-159.32"/>
<polygon fill="midnightblue" stroke="midnightblue" points="405.01,-267.35 415.56,-268.32 407.92,-260.98 405.01,-267.35"/>
</g>
<!-- Node9 -->
<g id="node9" class="node">
<title>Node9</title>
<g id="a_node9"><a xlink:href="Engine_8hpp.html" target="_top" xlink:title=" ">
<polygon fill="none" stroke="black" points="460.51,-67.5 460.51,-97.5 575.51,-97.5 575.51,-67.5 460.51,-67.5"/>
<text text-anchor="start" x="468.51" y="-85.5" font-family="Helvetica,sans-Serif" font-size="10.00">src/simulation_system</text>
<text text-anchor="middle" x="518.01" y="-74.5" font-family="Helvetica,sans-Serif" font-size="10.00">/Engine.hpp</text>
</a>
</g>
</g>
<!-- Node1&#45;&gt;Node9 -->
<g id="edge15" class="edge">
<title>Node1&#45;&gt;Node9</title>
<path fill="none" stroke="midnightblue" d="M513.56,-264.2C528.73,-256.73 543.06,-246.35 552.01,-232 557.78,-222.75 559.4,-164.67 550.01,-134 545.93,-120.7 537.35,-107.49 530.11,-97.92"/>
<polygon fill="midnightblue" stroke="midnightblue" points="511.72,-261.19 504.04,-268.49 514.6,-267.57 511.72,-261.19"/>
</g>
<!-- Node11 -->
<g id="node11" class="node">
<title>Node11</title>
<g id="a_node11"><a xlink:href="TestSimulation_8cpp.html" target="_top" xlink:title=" ">
<polygon fill="none" stroke="black" points="568.51,-6 568.51,-25 687.51,-25 687.51,-6 568.51,-6"/>
<text text-anchor="middle" x="628.01" y="-13" font-family="Helvetica,sans-Serif" font-size="10.00">test/TestSimulation.cpp</text>
</a>
</g>
</g>
<!-- Node1&#45;&gt;Node11 -->
<g id="edge17" class="edge">
<title>Node1&#45;&gt;Node11</title>
<path fill="none" stroke="midnightblue" d="M516,-266.43C535.42,-258.85 555.11,-247.85 569.01,-232 624.75,-168.42 628.34,-56.85 628.18,-25.13"/>
<polygon fill="midnightblue" stroke="midnightblue" points="514.71,-263.18 506.51,-269.89 517.1,-269.76 514.71,-263.18"/>
</g>
<!-- Node12 -->
<g id="node12" class="node">
<title>Node12</title>
<g id="a_node12"><a xlink:href="SystemData_8cpp.html" target="_top" xlink:title=" ">
<polygon fill="none" stroke="black" points="656.51,-201.5 656.51,-231.5 771.51,-231.5 771.51,-201.5 656.51,-201.5"/>
<text text-anchor="start" x="664.51" y="-219.5" font-family="Helvetica,sans-Serif" font-size="10.00">src/simulation_system</text>
<text text-anchor="middle" x="714.01" y="-208.5" font-family="Helvetica,sans-Serif" font-size="10.00">/SystemData.cpp</text>
</a>
</g>
</g>
<!-- Node1&#45;&gt;Node12 -->
<g id="edge16" class="edge">
<title>Node1&#45;&gt;Node12</title>
<path fill="none" stroke="midnightblue" d="M516.06,-266.05C559.39,-255.43 615.18,-241.74 656.48,-231.61"/>
<polygon fill="midnightblue" stroke="midnightblue" points="515.06,-262.69 506.18,-268.48 516.73,-269.49 515.06,-262.69"/>
</g>
<!-- Node13 -->
<g id="node13" class="node">
<title>Node13</title>
<g id="a_node13"><a xlink:href="TestSystemData_8hpp.html" target="_top" xlink:title=" ">
<polygon fill="none" stroke="black" points="790.01,-201.5 790.01,-231.5 908.01,-231.5 908.01,-201.5 790.01,-201.5"/>
<text text-anchor="start" x="798.01" y="-219.5" font-family="Helvetica,sans-Serif" font-size="10.00">test/simulation_system</text>
<text text-anchor="middle" x="849.01" y="-208.5" font-family="Helvetica,sans-Serif" font-size="10.00">/TestSystemData.hpp</text>
</a>
</g>
</g>
<!-- Node1&#45;&gt;Node13 -->
<g id="edge18" class="edge">
<title>Node1&#45;&gt;Node13</title>
<path fill="none" stroke="midnightblue" d="M516.58,-273.31C583.6,-263.94 689.15,-248.46 780.01,-232 783.26,-231.41 786.59,-230.78 789.95,-230.14"/>
<polygon fill="midnightblue" stroke="midnightblue" points="515.99,-269.86 506.57,-274.71 516.96,-276.8 515.99,-269.86"/>
</g>
<!-- Node3&#45;&gt;Node1 -->
<g id="edge4" class="edge">
<title>Node3&#45;&gt;Node1</title>
<path fill="none" stroke="midnightblue" d="M279.25,-228.84C317.03,-239.86 371.84,-256.62 408.93,-268.48"/>
<polygon fill="midnightblue" stroke="midnightblue" points="280.14,-225.45 269.56,-226.03 278.19,-232.17 280.14,-225.45"/>
</g>
<!-- Node4 -->
<g id="node4" class="node">
<title>Node4</title>
<g id="a_node4"><a xlink:href="GSDUtil_8cpp.html" target="_top" xlink:title=" ">
<polygon fill="none" stroke="black" points="18.51,-140 18.51,-159 141.51,-159 141.51,-140 18.51,-140"/>
<text text-anchor="middle" x="80.01" y="-147" font-family="Helvetica,sans-Serif" font-size="10.00">src/data_io/GSDUtil.cpp</text>
</a>
</g>
</g>
<!-- Node3&#45;&gt;Node4 -->
<g id="edge3" class="edge">
<title>Node3&#45;&gt;Node4</title>
<path fill="none" stroke="midnightblue" d="M206.69,-202.95C175.6,-190.08 128.08,-170.4 100.94,-159.17"/>
<polygon fill="midnightblue" stroke="midnightblue" points="205.58,-206.28 216.16,-206.87 208.26,-199.81 205.58,-206.28"/>
</g>
<!-- Node6 -->
<g id="node6" class="node">
<title>Node6</title>
<g id="a_node6"><a xlink:href="PotentialHydrodynamics_8cpp.html" target="_top" xlink:title=" ">
<polygon fill="none" stroke="black" points="336.01,-140 336.01,-159 524.01,-159 524.01,-140 336.01,-140"/>
<text text-anchor="middle" x="430.01" y="-147" font-family="Helvetica,sans-Serif" font-size="10.00">src/forces/PotentialHydrodynamics.cpp</text>
</a>
</g>
</g>
<!-- Node5&#45;&gt;Node6 -->
<g id="edge6" class="edge">
<title>Node5&#45;&gt;Node6</title>
<path fill="none" stroke="midnightblue" d="M443.57,-196.91C439.94,-184.49 435.33,-168.72 432.53,-159.13"/>
<polygon fill="midnightblue" stroke="midnightblue" points="440.28,-198.12 446.44,-206.73 447,-196.15 440.28,-198.12"/>
</g>
<!-- Node5&#45;&gt;Node7 -->
<g id="edge7" class="edge">
<title>Node5&#45;&gt;Node7</title>
<path fill="none" stroke="midnightblue" d="M411.36,-203.85C369.76,-190.97 303.77,-170.55 266.67,-159.06"/>
<polygon fill="midnightblue" stroke="midnightblue" points="410.53,-207.26 421.12,-206.87 412.6,-200.57 410.53,-207.26"/>
</g>
<!-- Node5&#45;&gt;Node9 -->
<g id="edge13" class="edge">
<title>Node5&#45;&gt;Node9</title>
<path fill="none" stroke="midnightblue" d="M486.51,-202.9C503.93,-194.94 522.97,-182.75 533.01,-165 545.05,-143.71 534.48,-114.76 526.02,-97.71"/>
<polygon fill="midnightblue" stroke="midnightblue" points="484.91,-199.77 477.07,-206.89 487.64,-206.22 484.91,-199.77"/>
</g>
<!-- Node8 -->
<g id="node8" class="node">
<title>Node8</title>
<g id="a_node8"><a xlink:href="RungeKutta4_8cpp.html" target="_top" xlink:title=" ">
<polygon fill="none" stroke="black" points="160.01,-73 160.01,-92 318.01,-92 318.01,-73 160.01,-73"/>
<text text-anchor="middle" x="239.01" y="-80" font-family="Helvetica,sans-Serif" font-size="10.00">src/integrators/RungeKutta4.cpp</text>
</a>
</g>
</g>
<!-- Node7&#45;&gt;Node8 -->
<g id="edge8" class="edge">
<title>Node7&#45;&gt;Node8</title>
<path fill="none" stroke="midnightblue" d="M239.01,-129.54C239.01,-117.17 239.01,-101.62 239.01,-92.13"/>
<polygon fill="midnightblue" stroke="midnightblue" points="235.51,-129.73 239.01,-139.73 242.51,-129.73 235.51,-129.73"/>
</g>
<!-- Node7&#45;&gt;Node9 -->
<g id="edge9" class="edge">
<title>Node7&#45;&gt;Node9</title>
<path fill="none" stroke="midnightblue" d="M285.59,-137.65C333.6,-126.46 408.55,-109 460.29,-96.95"/>
<polygon fill="midnightblue" stroke="midnightblue" points="284.71,-134.26 275.77,-139.94 286.3,-141.08 284.71,-134.26"/>
</g>
<!-- Node9&#45;&gt;Node2 -->
<g id="edge10" class="edge">
<title>Node9&#45;&gt;Node2</title>
<path fill="none" stroke="midnightblue" d="M450.29,-68.24C381.45,-54.77 277.39,-34.39 222.64,-23.67"/>
<polygon fill="midnightblue" stroke="midnightblue" points="449.69,-71.69 460.18,-70.18 451.03,-64.82 449.69,-71.69"/>
</g>
<!-- Node10 -->
<g id="node10" class="node">
<title>Node10</title>
<g id="a_node10"><a xlink:href="Engine_8cpp.html" target="_top" xlink:title=" ">
<polygon fill="none" stroke="black" points="435.51,-0.5 435.51,-30.5 550.51,-30.5 550.51,-0.5 435.51,-0.5"/>
<text text-anchor="start" x="443.51" y="-18.5" font-family="Helvetica,sans-Serif" font-size="10.00">src/simulation_system</text>
<text text-anchor="middle" x="493.01" y="-7.5" font-family="Helvetica,sans-Serif" font-size="10.00">/Engine.cpp</text>
</a>
</g>
</g>
<!-- Node9&#45;&gt;Node10 -->
<g id="edge11" class="edge">
<title>Node9&#45;&gt;Node10</title>
<path fill="none" stroke="midnightblue" d="M508.96,-57.99C505.43,-48.8 501.5,-38.58 498.42,-30.58"/>
<polygon fill="midnightblue" stroke="midnightblue" points="505.72,-59.32 512.58,-67.4 512.26,-56.81 505.72,-59.32"/>
</g>
<!-- Node9&#45;&gt;Node11 -->
<g id="edge12" class="edge">
<title>Node9&#45;&gt;Node11</title>
<path fill="none" stroke="midnightblue" d="M550.49,-62.31C571.44,-49.93 597.66,-34.43 613.61,-25.01"/>
<polygon fill="midnightblue" stroke="midnightblue" points="548.7,-59.3 541.87,-67.4 552.26,-65.32 548.7,-59.3"/>
</g>
<!-- Node14 -->
<g id="node14" class="node">
<title>Node14</title>
<g id="a_node14"><a xlink:href="TestSimulationSystem_8cpp.html" target="_top" xlink:title=" ">
<polygon fill="none" stroke="black" points="859.51,-140 859.51,-159 1012.51,-159 1012.51,-140 859.51,-140"/>
<text text-anchor="middle" x="936.01" y="-147" font-family="Helvetica,sans-Serif" font-size="10.00">test/TestSimulationSystem.cpp</text>
</a>
</g>
</g>
<!-- Node13&#45;&gt;Node14 -->
<g id="edge19" class="edge">
<title>Node13&#45;&gt;Node14</title>
<path fill="none" stroke="midnightblue" d="M875.99,-195.34C892.22,-183.21 912.06,-168.39 924.37,-159.19"/>
<polygon fill="midnightblue" stroke="midnightblue" points="873.8,-192.61 867.88,-201.4 877.99,-198.21 873.8,-192.61"/>
</g>
<!-- Node15 -->
<g id="node15" class="node">
<title>Node15</title>
<g id="a_node15"><a xlink:href="TestSystemData_8cpp.html" target="_top" xlink:title=" ">
<polygon fill="none" stroke="black" points="723.01,-134.5 723.01,-164.5 841.01,-164.5 841.01,-134.5 723.01,-134.5"/>
<text text-anchor="start" x="731.01" y="-152.5" font-family="Helvetica,sans-Serif" font-size="10.00">test/simulation_system</text>
<text text-anchor="middle" x="782.01" y="-141.5" font-family="Helvetica,sans-Serif" font-size="10.00">/TestSystemData.cpp</text>
</a>
</g>
</g>
<!-- Node13&#45;&gt;Node15 -->
<g id="edge20" class="edge">
<title>Node13&#45;&gt;Node15</title>
<path fill="none" stroke="midnightblue" d="M827.17,-194.31C817.11,-184.56 805.46,-173.26 796.52,-164.58"/>
<polygon fill="midnightblue" stroke="midnightblue" points="824.85,-196.94 834.47,-201.4 829.73,-191.92 824.85,-196.94"/>
</g>
</g>
</svg>
