<?xml version="1.0" encoding="UTF-8" standalone="no"?>
<!DOCTYPE svg PUBLIC "-//W3C//DTD SVG 1.1//EN"
 "http://www.w3.org/Graphics/SVG/1.1/DTD/svg11.dtd">
<!-- Generated by graphviz version 2.43.0 (0)
 -->
<!-- Title: src/simulation_system/SystemData.cpp Pages: 1 -->
<svg width="1142pt" height="274pt"
 viewBox="0.00 0.00 1142.00 274.00" xmlns="http://www.w3.org/2000/svg" xmlns:xlink="http://www.w3.org/1999/xlink">
<g id="graph0" class="graph" transform="scale(1 1) rotate(0) translate(4 270)">
<title>src/simulation_system/SystemData.cpp</title>
<!-- Node1 -->
<g id="node1" class="node">
<title>Node1</title>
<g id="a_node1"><a xlink:title=" ">
<polygon fill="#bfbfbf" stroke="black" points="486.5,-235.5 486.5,-265.5 601.5,-265.5 601.5,-235.5 486.5,-235.5"/>
<text text-anchor="start" x="494.5" y="-253.5" font-family="Helvetica,sans-Serif" font-size="10.00">src/simulation_system</text>
<text text-anchor="middle" x="544" y="-242.5" font-family="Helvetica,sans-Serif" font-size="10.00">/SystemData.cpp</text>
</a>
</g>
</g>
<!-- Node2 -->
<g id="node2" class="node">
<title>Node2</title>
<g id="a_node2"><a xlink:href="SystemData_8hpp.html" target="_top" xlink:title=" ">
<polygon fill="none" stroke="black" points="499,-179.5 499,-198.5 589,-198.5 589,-179.5 499,-179.5"/>
<text text-anchor="middle" x="544" y="-186.5" font-family="Helvetica,sans-Serif" font-size="10.00">SystemData.hpp</text>
</a>
</g>
</g>
<!-- Node1&#45;&gt;Node2 -->
<g id="edge1" class="edge">
<title>Node1&#45;&gt;Node2</title>
<path fill="none" stroke="midnightblue" d="M544,-235.4C544,-227.47 544,-217.46 544,-208.86"/>
<polygon fill="midnightblue" stroke="midnightblue" points="547.5,-208.66 544,-198.66 540.5,-208.66 547.5,-208.66"/>
</g>
<!-- Node3 -->
<g id="node3" class="node">
<title>Node3</title>
<g id="a_node3"><a xlink:href="GSDUtil_8hpp.html" target="_top" xlink:title=" ">
<polygon fill="none" stroke="black" points="348,-123.5 348,-142.5 420,-142.5 420,-123.5 348,-123.5"/>
<text text-anchor="middle" x="384" y="-130.5" font-family="Helvetica,sans-Serif" font-size="10.00">GSDUtil.hpp</text>
</a>
</g>
</g>
<!-- Node2&#45;&gt;Node3 -->
<g id="edge2" class="edge">
<title>Node2&#45;&gt;Node3</title>
<path fill="none" stroke="midnightblue" d="M513.56,-179.44C484.77,-170.4 442.1,-156.06 413.6,-145.92"/>
<polygon fill="midnightblue" stroke="midnightblue" points="414.75,-142.61 404.15,-142.52 412.38,-149.2 414.75,-142.61"/>
</g>
<!-- Node4 -->
<g id="node4" class="node">
<title>Node4</title>
<g id="a_node4"><a xlink:href="gsd_8h.html" target="_top" xlink:title="Declare GSD data types and C API.">
<polygon fill="none" stroke="black" points="78.5,-62 78.5,-81 119.5,-81 119.5,-62 78.5,-62"/>
<text text-anchor="middle" x="99" y="-69" font-family="Helvetica,sans-Serif" font-size="10.00">gsd.h</text>
</a>
</g>
</g>
<!-- Node2&#45;&gt;Node4 -->
<g id="edge13" class="edge">
<title>Node2&#45;&gt;Node4</title>
<path fill="none" stroke="midnightblue" d="M498.57,-183.64C443.5,-177.65 348.23,-165.04 269,-143 216.28,-128.33 158,-101.73 125.21,-85.73"/>
<polygon fill="midnightblue" stroke="midnightblue" points="126.4,-82.42 115.88,-81.13 123.3,-88.7 126.4,-82.42"/>
</g>
<!-- Node8 -->
<g id="node8" class="node">
<title>Node8</title>
<g id="a_node8"><a xlink:title=" ">
<polygon fill="none" stroke="#bfbfbf" points="138,-56.5 138,-86.5 236,-86.5 236,-56.5 138,-56.5"/>
<text text-anchor="start" x="146" y="-74.5" font-family="Helvetica,sans-Serif" font-size="10.00">spdlog/sinks/basic</text>
<text text-anchor="middle" x="187" y="-63.5" font-family="Helvetica,sans-Serif" font-size="10.00">_file_sink.h</text>
</a>
</g>
</g>
<!-- Node2&#45;&gt;Node8 -->
<g id="edge25" class="edge">
<title>Node2&#45;&gt;Node8</title>
<path fill="none" stroke="midnightblue" d="M498.99,-183.13C452.4,-177.17 378.03,-165.02 317,-143 280.71,-129.9 242.22,-107.89 216.63,-91.94"/>
<polygon fill="midnightblue" stroke="midnightblue" points="218.46,-88.96 208.14,-86.57 214.73,-94.87 218.46,-88.96"/>
</g>
<!-- Node9 -->
<g id="node9" class="node">
<title>Node9</title>
<g id="a_node9"><a xlink:title=" ">
<polygon fill="none" stroke="#bfbfbf" points="254.5,-62 254.5,-81 339.5,-81 339.5,-62 254.5,-62"/>
<text text-anchor="middle" x="297" y="-69" font-family="Helvetica,sans-Serif" font-size="10.00">spdlog/spdlog.h</text>
</a>
</g>
</g>
<!-- Node2&#45;&gt;Node9 -->
<g id="edge26" class="edge">
<title>Node2&#45;&gt;Node9</title>
<path fill="none" stroke="midnightblue" d="M498.67,-188.13C454.12,-186.1 386.14,-177 339,-143 321.18,-130.15 309.59,-107.2 303.19,-90.98"/>
<polygon fill="midnightblue" stroke="midnightblue" points="306.43,-89.66 299.72,-81.46 299.86,-92.06 306.43,-89.66"/>
</g>
<!-- Node10 -->
<g id="node10" class="node">
<title>Node10</title>
<g id="a_node10"><a xlink:title=" ">
<polygon fill="none" stroke="#bfbfbf" points="358,-62 358,-81 410,-81 410,-62 358,-62"/>
<text text-anchor="middle" x="384" y="-69" font-family="Helvetica,sans-Serif" font-size="10.00">memory</text>
</a>
</g>
</g>
<!-- Node2&#45;&gt;Node10 -->
<g id="edge28" class="edge">
<title>Node2&#45;&gt;Node10</title>
<path fill="none" stroke="midnightblue" d="M531.97,-179.32C504.75,-159.67 438.18,-111.61 404.39,-87.22"/>
<polygon fill="midnightblue" stroke="midnightblue" points="406.32,-84.3 396.17,-81.28 402.23,-89.97 406.32,-84.3"/>
</g>
<!-- Node11 -->
<g id="node11" class="node">
<title>Node11</title>
<g id="a_node11"><a xlink:title=" ">
<polygon fill="none" stroke="#bfbfbf" points="428.5,-62 428.5,-81 487.5,-81 487.5,-62 428.5,-62"/>
<text text-anchor="middle" x="458" y="-69" font-family="Helvetica,sans-Serif" font-size="10.00">stdexcept</text>
</a>
</g>
</g>
<!-- Node2&#45;&gt;Node11 -->
<g id="edge29" class="edge">
<title>Node2&#45;&gt;Node11</title>
<path fill="none" stroke="midnightblue" d="M537.54,-179.32C523.34,-160.26 489.23,-114.45 470.63,-89.46"/>
<polygon fill="midnightblue" stroke="midnightblue" points="473.32,-87.21 464.54,-81.28 467.7,-91.39 473.32,-87.21"/>
</g>
<!-- Node12 -->
<g id="node12" class="node">
<title>Node12</title>
<g id="a_node12"><a xlink:title=" ">
<polygon fill="none" stroke="#bfbfbf" points="505.5,-62 505.5,-81 546.5,-81 546.5,-62 505.5,-62"/>
<text text-anchor="middle" x="526" y="-69" font-family="Helvetica,sans-Serif" font-size="10.00">string</text>
</a>
</g>
</g>
<!-- Node2&#45;&gt;Node12 -->
<g id="edge30" class="edge">
<title>Node2&#45;&gt;Node12</title>
<path fill="none" stroke="midnightblue" d="M542.65,-179.32C539.75,-160.76 532.91,-116.84 528.96,-91.47"/>
<polygon fill="midnightblue" stroke="midnightblue" points="532.37,-90.62 527.37,-81.28 525.45,-91.7 532.37,-90.62"/>
</g>
<!-- Node13 -->
<g id="node13" class="node">
<title>Node13</title>
<g id="a_node13"><a xlink:title=" ">
<polygon fill="none" stroke="#bfbfbf" points="564.5,-62 564.5,-81 661.5,-81 661.5,-62 564.5,-62"/>
<text text-anchor="middle" x="613" y="-69" font-family="Helvetica,sans-Serif" font-size="10.00">eigen3/Eigen/Core</text>
</a>
</g>
</g>
<!-- Node2&#45;&gt;Node13 -->
<g id="edge14" class="edge">
<title>Node2&#45;&gt;Node13</title>
<path fill="none" stroke="midnightblue" d="M549.19,-179.32C560.47,-160.42 587.46,-115.25 602.47,-90.12"/>
<polygon fill="midnightblue" stroke="midnightblue" points="605.63,-91.66 607.75,-81.28 599.62,-88.07 605.63,-91.66"/>
</g>
<!-- Node14 -->
<g id="node14" class="node">
<title>Node14</title>
<g id="a_node14"><a xlink:title=" ">
<polygon fill="none" stroke="#bfbfbf" points="679.5,-62 679.5,-81 780.5,-81 780.5,-62 679.5,-62"/>
<text text-anchor="middle" x="730" y="-69" font-family="Helvetica,sans-Serif" font-size="10.00">eigen3/Eigen/Eigen</text>
</a>
</g>
</g>
<!-- Node2&#45;&gt;Node14 -->
<g id="edge15" class="edge">
<title>Node2&#45;&gt;Node14</title>
<path fill="none" stroke="midnightblue" d="M552.56,-179.09C565.83,-165.64 592.61,-139.94 619,-123 643.52,-107.26 673.76,-93.85 696.48,-84.81"/>
<polygon fill="midnightblue" stroke="midnightblue" points="697.98,-87.98 706.03,-81.09 695.44,-81.46 697.98,-87.98"/>
</g>
<!-- Node15 -->
<g id="node15" class="node">
<title>Node15</title>
<g id="a_node15"><a xlink:title=" ">
<polygon fill="none" stroke="#bfbfbf" points="799,-56.5 799,-86.5 909,-86.5 909,-56.5 799,-56.5"/>
<text text-anchor="start" x="807" y="-74.5" font-family="Helvetica,sans-Serif" font-size="10.00">eigen3/unsupported</text>
<text text-anchor="middle" x="854" y="-63.5" font-family="Helvetica,sans-Serif" font-size="10.00">/Eigen/CXX11/Tensor</text>
</a>
</g>
</g>
<!-- Node2&#45;&gt;Node15 -->
<g id="edge16" class="edge">
<title>Node2&#45;&gt;Node15</title>
<path fill="none" stroke="midnightblue" d="M589.24,-185.96C658.93,-181.98 788.28,-170.95 824,-143 838.39,-131.75 845.97,-112.28 849.91,-96.65"/>
<polygon fill="midnightblue" stroke="midnightblue" points="853.39,-97.11 852.09,-86.59 846.55,-95.62 853.39,-97.11"/>
</g>
<!-- Node16 -->
<g id="node16" class="node">
<title>Node16</title>
<g id="a_node16"><a xlink:title=" ">
<polygon fill="none" stroke="#bfbfbf" points="927.5,-56.5 927.5,-86.5 1058.5,-86.5 1058.5,-56.5 927.5,-56.5"/>
<text text-anchor="start" x="935.5" y="-74.5" font-family="Helvetica,sans-Serif" font-size="10.00">eigen3/unsupported</text>
<text text-anchor="middle" x="993" y="-63.5" font-family="Helvetica,sans-Serif" font-size="10.00">/Eigen/CXX11/ThreadPool</text>
</a>
</g>
</g>
<!-- Node2&#45;&gt;Node16 -->
<g id="edge17" class="edge">
<title>Node2&#45;&gt;Node16</title>
<path fill="none" stroke="midnightblue" d="M589.19,-185.49C649.06,-181.21 757.44,-170.16 846,-143 887.27,-130.35 931.53,-107.75 960.58,-91.55"/>
<polygon fill="midnightblue" stroke="midnightblue" points="962.47,-94.5 969.45,-86.53 959.02,-88.41 962.47,-94.5"/>
</g>
<!-- Node17 -->
<g id="node17" class="node">
<title>Node17</title>
<g id="a_node17"><a xlink:href="helper__eigenTensorConversion_8hpp.html" target="_top" xlink:title=" ">
<polygon fill="none" stroke="black" points="628.5,-123.5 628.5,-142.5 797.5,-142.5 797.5,-123.5 628.5,-123.5"/>
<text text-anchor="middle" x="713" y="-130.5" font-family="Helvetica,sans-Serif" font-size="10.00">helper_eigenTensorConversion.hpp</text>
</a>
</g>
</g>
<!-- Node2&#45;&gt;Node17 -->
<g id="edge18" class="edge">
<title>Node2&#45;&gt;Node17</title>
<path fill="none" stroke="midnightblue" d="M570.78,-179.44C599.33,-170.32 644.73,-155.81 676.54,-145.65"/>
<polygon fill="midnightblue" stroke="midnightblue" points="677.89,-148.89 686.35,-142.52 675.76,-142.23 677.89,-148.89"/>
</g>
<!-- Node18 -->
<g id="node18" class="node">
<title>Node18</title>
<g id="a_node18"><a xlink:title=" ">
<polygon fill="none" stroke="#bfbfbf" points="910,-123.5 910,-142.5 1000,-142.5 1000,-123.5 910,-123.5"/>
<text text-anchor="middle" x="955" y="-130.5" font-family="Helvetica,sans-Serif" font-size="10.00">spdlog/fmt/ostr.h</text>
</a>
</g>
</g>
<!-- Node2&#45;&gt;Node18 -->
<g id="edge24" class="edge">
<title>Node2&#45;&gt;Node18</title>
<path fill="none" stroke="midnightblue" d="M589.05,-182.59C656.05,-174.48 785.87,-158.44 896,-143 897.27,-142.82 898.55,-142.64 899.85,-142.46"/>
<polygon fill="midnightblue" stroke="midnightblue" points="900.53,-145.89 909.92,-140.99 899.52,-138.97 900.53,-145.89"/>
</g>
<!-- Node19 -->
<g id="node19" class="node">
<title>Node19</title>
<g id="a_node19"><a xlink:title=" ">
<polygon fill="none" stroke="#bfbfbf" points="1018,-123.5 1018,-142.5 1072,-142.5 1072,-123.5 1018,-123.5"/>
<text text-anchor="middle" x="1045" y="-130.5" font-family="Helvetica,sans-Serif" font-size="10.00">iostream</text>
</a>
</g>
</g>
<!-- Node2&#45;&gt;Node19 -->
<g id="edge27" class="edge">
<title>Node2&#45;&gt;Node19</title>
<path fill="none" stroke="midnightblue" d="M589.18,-185.86C670.92,-181.51 848.85,-169.81 1007.99,-142.93"/>
<polygon fill="midnightblue" stroke="midnightblue" points="1008.7,-146.36 1017.96,-141.22 1007.52,-139.46 1008.7,-146.36"/>
</g>
<!-- Node20 -->
<g id="node20" class="node">
<title>Node20</title>
<g id="a_node20"><a xlink:title=" ">
<polygon fill="none" stroke="#bfbfbf" points="1090,-123.5 1090,-142.5 1134,-142.5 1134,-123.5 1090,-123.5"/>
<text text-anchor="middle" x="1112" y="-130.5" font-family="Helvetica,sans-Serif" font-size="10.00">thread</text>
</a>
</g>
</g>
<!-- Node2&#45;&gt;Node20 -->
<g id="edge31" class="edge">
<title>Node2&#45;&gt;Node20</title>
<path fill="none" stroke="midnightblue" d="M589.31,-187.24C680.63,-185.04 893.28,-176.64 1079.79,-142.86"/>
<polygon fill="midnightblue" stroke="midnightblue" points="1080.58,-146.28 1089.78,-141.03 1079.31,-139.39 1080.58,-146.28"/>
</g>
<!-- Node3&#45;&gt;Node2 -->
<g id="edge3" class="edge">
<title>Node3&#45;&gt;Node2</title>
<path fill="none" stroke="midnightblue" d="M414.31,-142.52C443.06,-151.55 485.74,-165.88 514.28,-176.04"/>
<polygon fill="midnightblue" stroke="midnightblue" points="513.14,-179.35 523.74,-179.44 515.51,-172.76 513.14,-179.35"/>
</g>
<!-- Node3&#45;&gt;Node4 -->
<g id="edge4" class="edge">
<title>Node3&#45;&gt;Node4</title>
<path fill="none" stroke="midnightblue" d="M347.77,-128.78C297.63,-123.61 204.72,-111.46 129,-87 127.33,-86.46 125.64,-85.85 123.96,-85.19"/>
<polygon fill="midnightblue" stroke="midnightblue" points="125.1,-81.87 114.54,-81.02 122.27,-88.27 125.1,-81.87"/>
</g>
<!-- Node3&#45;&gt;Node8 -->
<g id="edge8" class="edge">
<title>Node3&#45;&gt;Node8</title>
<path fill="none" stroke="midnightblue" d="M355.77,-123.48C326.48,-114.63 279.87,-100.55 243.05,-89.43"/>
<polygon fill="midnightblue" stroke="midnightblue" points="244.01,-86.06 233.43,-86.52 241.99,-92.76 244.01,-86.06"/>
</g>
<!-- Node3&#45;&gt;Node9 -->
<g id="edge9" class="edge">
<title>Node3&#45;&gt;Node9</title>
<path fill="none" stroke="midnightblue" d="M371.54,-123.48C357.58,-113.93 334.74,-98.31 318.01,-86.87"/>
<polygon fill="midnightblue" stroke="midnightblue" points="319.67,-83.77 309.44,-81.01 315.72,-89.54 319.67,-83.77"/>
</g>
<!-- Node3&#45;&gt;Node10 -->
<g id="edge10" class="edge">
<title>Node3&#45;&gt;Node10</title>
<path fill="none" stroke="midnightblue" d="M384,-123.48C384,-115.08 384,-101.98 384,-91.16"/>
<polygon fill="midnightblue" stroke="midnightblue" points="387.5,-91.01 384,-81.01 380.5,-91.01 387.5,-91.01"/>
</g>
<!-- Node3&#45;&gt;Node11 -->
<g id="edge11" class="edge">
<title>Node3&#45;&gt;Node11</title>
<path fill="none" stroke="midnightblue" d="M394.6,-123.48C406.25,-114.11 425.19,-98.88 439.33,-87.51"/>
<polygon fill="midnightblue" stroke="midnightblue" points="441.82,-90 447.42,-81.01 437.43,-84.55 441.82,-90"/>
</g>
<!-- Node3&#45;&gt;Node12 -->
<g id="edge12" class="edge">
<title>Node3&#45;&gt;Node12</title>
<path fill="none" stroke="midnightblue" d="M406.5,-123.48C429.25,-114.74 465.33,-100.55 496,-87 497.16,-86.49 498.34,-85.96 499.53,-85.41"/>
<polygon fill="midnightblue" stroke="midnightblue" points="501.08,-88.55 508.64,-81.14 498.1,-82.22 501.08,-88.55"/>
</g>
<!-- Node5 -->
<g id="node5" class="node">
<title>Node5</title>
<g id="a_node5"><a xlink:title=" ">
<polygon fill="none" stroke="#bfbfbf" points="0,-0.5 0,-19.5 56,-19.5 56,-0.5 0,-0.5"/>
<text text-anchor="middle" x="28" y="-7.5" font-family="Helvetica,sans-Serif" font-size="10.00">stdbool.h</text>
</a>
</g>
</g>
<!-- Node4&#45;&gt;Node5 -->
<g id="edge5" class="edge">
<title>Node4&#45;&gt;Node5</title>
<path fill="none" stroke="midnightblue" d="M88.83,-61.98C77.65,-52.61 59.48,-37.38 45.91,-26.01"/>
<polygon fill="midnightblue" stroke="midnightblue" points="48.07,-23.25 38.15,-19.51 43.57,-28.61 48.07,-23.25"/>
</g>
<!-- Node6 -->
<g id="node6" class="node">
<title>Node6</title>
<g id="a_node6"><a xlink:title=" ">
<polygon fill="none" stroke="#bfbfbf" points="74.5,-0.5 74.5,-19.5 123.5,-19.5 123.5,-0.5 74.5,-0.5"/>
<text text-anchor="middle" x="99" y="-7.5" font-family="Helvetica,sans-Serif" font-size="10.00">stdint.h</text>
</a>
</g>
</g>
<!-- Node4&#45;&gt;Node6 -->
<g id="edge6" class="edge">
<title>Node4&#45;&gt;Node6</title>
<path fill="none" stroke="midnightblue" d="M99,-61.98C99,-53.58 99,-40.48 99,-29.66"/>
<polygon fill="midnightblue" stroke="midnightblue" points="102.5,-29.51 99,-19.51 95.5,-29.51 102.5,-29.51"/>
</g>
<!-- Node7 -->
<g id="node7" class="node">
<title>Node7</title>
<g id="a_node7"><a xlink:title=" ">
<polygon fill="none" stroke="#bfbfbf" points="141.5,-0.5 141.5,-19.5 190.5,-19.5 190.5,-0.5 141.5,-0.5"/>
<text text-anchor="middle" x="166" y="-7.5" font-family="Helvetica,sans-Serif" font-size="10.00">string.h</text>
</a>
</g>
</g>
<!-- Node4&#45;&gt;Node7 -->
<g id="edge7" class="edge">
<title>Node4&#45;&gt;Node7</title>
<path fill="none" stroke="midnightblue" d="M108.6,-61.98C119.05,-52.7 135.97,-37.67 148.74,-26.33"/>
<polygon fill="midnightblue" stroke="midnightblue" points="151.27,-28.77 156.42,-19.51 146.62,-23.53 151.27,-28.77"/>
</g>
<!-- Node17&#45;&gt;Node13 -->
<g id="edge19" class="edge">
<title>Node17&#45;&gt;Node13</title>
<path fill="none" stroke="midnightblue" d="M698.67,-123.48C682.34,-113.75 655.4,-97.73 636.09,-86.24"/>
<polygon fill="midnightblue" stroke="midnightblue" points="637.68,-83.11 627.3,-81.01 634.11,-89.13 637.68,-83.11"/>
</g>
<!-- Node17&#45;&gt;Node14 -->
<g id="edge20" class="edge">
<title>Node17&#45;&gt;Node14</title>
<path fill="none" stroke="midnightblue" d="M715.44,-123.48C717.86,-114.99 721.66,-101.7 724.77,-90.82"/>
<polygon fill="midnightblue" stroke="midnightblue" points="728.19,-91.59 727.57,-81.01 721.46,-89.66 728.19,-91.59"/>
</g>
<!-- Node17&#45;&gt;Node15 -->
<g id="edge21" class="edge">
<title>Node17&#45;&gt;Node15</title>
<path fill="none" stroke="midnightblue" d="M733.2,-123.48C753.55,-114.89 785.56,-101.38 811.51,-90.43"/>
<polygon fill="midnightblue" stroke="midnightblue" points="812.92,-93.64 820.77,-86.52 810.2,-87.19 812.92,-93.64"/>
</g>
<!-- Node17&#45;&gt;Node16 -->
<g id="edge22" class="edge">
<title>Node17&#45;&gt;Node16</title>
<path fill="none" stroke="midnightblue" d="M753.12,-123.48C795.81,-114.4 864.35,-99.84 917.26,-88.6"/>
<polygon fill="midnightblue" stroke="midnightblue" points="918.23,-91.97 927.28,-86.47 916.77,-85.12 918.23,-91.97"/>
</g>
<!-- Node17&#45;&gt;Node17 -->
<g id="edge23" class="edge">
<title>Node17&#45;&gt;Node17</title>
<path fill="none" stroke="midnightblue" d="M756.45,-142.5C786.25,-145.33 815.5,-142.16 815.5,-133 815.5,-124.88 792.5,-121.47 766.51,-122.77"/>
<polygon fill="midnightblue" stroke="midnightblue" points="766.17,-119.29 756.45,-123.5 766.68,-126.27 766.17,-119.29"/>
</g>
</g>
</svg>
