<?xml version="1.0" encoding="UTF-8" standalone="no"?>
<!DOCTYPE svg PUBLIC "-//W3C//DTD SVG 1.1//EN"
 "http://www.w3.org/Graphics/SVG/1.1/DTD/svg11.dtd">
<!-- Generated by graphviz version 2.43.0 (0)
 -->
<!-- Title: src/simulation_system/systemData.cpp Pages: 1 -->
<svg width="1070pt" height="274pt"
 viewBox="0.00 0.00 1070.00 274.00" xmlns="http://www.w3.org/2000/svg" xmlns:xlink="http://www.w3.org/1999/xlink">
<g id="graph0" class="graph" transform="scale(1 1) rotate(0) translate(4 270)">
<title>src/simulation_system/systemData.cpp</title>
<!-- Node1 -->
<g id="node1" class="node">
<title>Node1</title>
<g id="a_node1"><a xlink:title=" ">
<polygon fill="#bfbfbf" stroke="black" points="467.5,-235.5 467.5,-265.5 582.5,-265.5 582.5,-235.5 467.5,-235.5"/>
<text text-anchor="start" x="475.5" y="-253.5" font-family="Helvetica,sans-Serif" font-size="10.00">src/simulation_system</text>
<text text-anchor="middle" x="525" y="-242.5" font-family="Helvetica,sans-Serif" font-size="10.00">/systemData.cpp</text>
</a>
</g>
</g>
<!-- Node2 -->
<g id="node2" class="node">
<title>Node2</title>
<g id="a_node2"><a xlink:href="systemData_8hpp.html" target="_top" xlink:title=" ">
<polygon fill="none" stroke="black" points="480.5,-179.5 480.5,-198.5 569.5,-198.5 569.5,-179.5 480.5,-179.5"/>
<text text-anchor="middle" x="525" y="-186.5" font-family="Helvetica,sans-Serif" font-size="10.00">systemData.hpp</text>
</a>
</g>
</g>
<!-- Node1&#45;&gt;Node2 -->
<g id="edge1" class="edge">
<title>Node1&#45;&gt;Node2</title>
<path fill="none" stroke="midnightblue" d="M525,-235.4C525,-227.47 525,-217.46 525,-208.86"/>
<polygon fill="midnightblue" stroke="midnightblue" points="528.5,-208.66 525,-198.66 521.5,-208.66 528.5,-208.66"/>
</g>
<!-- Node3 -->
<g id="node3" class="node">
<title>Node3</title>
<g id="a_node3"><a xlink:href="GSDUtil_8hpp.html" target="_top" xlink:title=" ">
<polygon fill="none" stroke="black" points="348,-123.5 348,-142.5 420,-142.5 420,-123.5 348,-123.5"/>
<text text-anchor="middle" x="384" y="-130.5" font-family="Helvetica,sans-Serif" font-size="10.00">GSDUtil.hpp</text>
</a>
</g>
</g>
<!-- Node2&#45;&gt;Node3 -->
<g id="edge2" class="edge">
<title>Node2&#45;&gt;Node3</title>
<path fill="none" stroke="midnightblue" d="M497.57,-179.44C472.42,-170.56 435.64,-156.56 410.72,-146.45"/>
<polygon fill="midnightblue" stroke="midnightblue" points="411.74,-143.08 401.16,-142.52 409.07,-149.56 411.74,-143.08"/>
</g>
<!-- Node4 -->
<g id="node4" class="node">
<title>Node4</title>
<g id="a_node4"><a xlink:href="gsd_8h.html" target="_top" xlink:title="Declare GSD data types and C API.">
<polygon fill="none" stroke="black" points="78.5,-62 78.5,-81 119.5,-81 119.5,-62 78.5,-62"/>
<text text-anchor="middle" x="99" y="-69" font-family="Helvetica,sans-Serif" font-size="10.00">gsd.h</text>
</a>
</g>
</g>
<!-- Node2&#45;&gt;Node4 -->
<g id="edge13" class="edge">
<title>Node2&#45;&gt;Node4</title>
<path fill="none" stroke="midnightblue" d="M480.43,-183C428.86,-176.57 341.7,-163.69 269,-143 216.36,-128.02 158.06,-101.53 125.24,-85.63"/>
<polygon fill="midnightblue" stroke="midnightblue" points="126.42,-82.31 115.9,-81.06 123.35,-88.6 126.42,-82.31"/>
</g>
<!-- Node8 -->
<g id="node8" class="node">
<title>Node8</title>
<g id="a_node8"><a xlink:title=" ">
<polygon fill="none" stroke="#bfbfbf" points="138,-56.5 138,-86.5 236,-86.5 236,-56.5 138,-56.5"/>
<text text-anchor="start" x="146" y="-74.5" font-family="Helvetica,sans-Serif" font-size="10.00">spdlog/sinks/basic</text>
<text text-anchor="middle" x="187" y="-63.5" font-family="Helvetica,sans-Serif" font-size="10.00">_file_sink.h</text>
</a>
</g>
</g>
<!-- Node2&#45;&gt;Node8 -->
<g id="edge25" class="edge">
<title>Node2&#45;&gt;Node8</title>
<path fill="none" stroke="midnightblue" d="M480.14,-182.06C437.3,-175.52 371.39,-163.16 317,-143 281.04,-129.67 242.78,-107.89 217.15,-92.06"/>
<polygon fill="midnightblue" stroke="midnightblue" points="218.97,-89.07 208.63,-86.73 215.26,-95.01 218.97,-89.07"/>
</g>
<!-- Node9 -->
<g id="node9" class="node">
<title>Node9</title>
<g id="a_node9"><a xlink:title=" ">
<polygon fill="none" stroke="#bfbfbf" points="254.5,-62 254.5,-81 339.5,-81 339.5,-62 254.5,-62"/>
<text text-anchor="middle" x="297" y="-69" font-family="Helvetica,sans-Serif" font-size="10.00">spdlog/spdlog.h</text>
</a>
</g>
</g>
<!-- Node2&#45;&gt;Node9 -->
<g id="edge26" class="edge">
<title>Node2&#45;&gt;Node9</title>
<path fill="none" stroke="midnightblue" d="M480.34,-186.79C439.89,-183.61 380.44,-173.56 339,-143 321.32,-129.96 309.7,-107.05 303.25,-90.89"/>
<polygon fill="midnightblue" stroke="midnightblue" points="306.5,-89.58 299.75,-81.42 299.94,-92.01 306.5,-89.58"/>
</g>
<!-- Node10 -->
<g id="node10" class="node">
<title>Node10</title>
<g id="a_node10"><a xlink:title=" ">
<polygon fill="none" stroke="#bfbfbf" points="358,-62 358,-81 410,-81 410,-62 358,-62"/>
<text text-anchor="middle" x="384" y="-69" font-family="Helvetica,sans-Serif" font-size="10.00">memory</text>
</a>
</g>
</g>
<!-- Node2&#45;&gt;Node10 -->
<g id="edge27" class="edge">
<title>Node2&#45;&gt;Node10</title>
<path fill="none" stroke="midnightblue" d="M514.4,-179.32C490.62,-159.84 432.74,-112.42 402.73,-87.84"/>
<polygon fill="midnightblue" stroke="midnightblue" points="404.67,-84.91 394.72,-81.28 400.24,-90.33 404.67,-84.91"/>
</g>
<!-- Node11 -->
<g id="node11" class="node">
<title>Node11</title>
<g id="a_node11"><a xlink:title=" ">
<polygon fill="none" stroke="#bfbfbf" points="428.5,-62 428.5,-81 487.5,-81 487.5,-62 428.5,-62"/>
<text text-anchor="middle" x="458" y="-69" font-family="Helvetica,sans-Serif" font-size="10.00">stdexcept</text>
</a>
</g>
</g>
<!-- Node2&#45;&gt;Node11 -->
<g id="edge28" class="edge">
<title>Node2&#45;&gt;Node11</title>
<path fill="none" stroke="midnightblue" d="M519.96,-179.32C509,-160.42 482.8,-115.25 468.22,-90.12"/>
<polygon fill="midnightblue" stroke="midnightblue" points="471.14,-88.18 463.09,-81.28 465.08,-91.69 471.14,-88.18"/>
</g>
<!-- Node12 -->
<g id="node12" class="node">
<title>Node12</title>
<g id="a_node12"><a xlink:title=" ">
<polygon fill="none" stroke="#bfbfbf" points="505.5,-62 505.5,-81 546.5,-81 546.5,-62 505.5,-62"/>
<text text-anchor="middle" x="526" y="-69" font-family="Helvetica,sans-Serif" font-size="10.00">string</text>
</a>
</g>
</g>
<!-- Node2&#45;&gt;Node12 -->
<g id="edge29" class="edge">
<title>Node2&#45;&gt;Node12</title>
<path fill="none" stroke="midnightblue" d="M525.08,-179.32C525.24,-160.76 525.62,-116.84 525.84,-91.47"/>
<polygon fill="midnightblue" stroke="midnightblue" points="529.34,-91.31 525.92,-81.28 522.34,-91.25 529.34,-91.31"/>
</g>
<!-- Node13 -->
<g id="node13" class="node">
<title>Node13</title>
<g id="a_node13"><a xlink:title=" ">
<polygon fill="none" stroke="#bfbfbf" points="564.5,-62 564.5,-81 661.5,-81 661.5,-62 564.5,-62"/>
<text text-anchor="middle" x="613" y="-69" font-family="Helvetica,sans-Serif" font-size="10.00">eigen3/Eigen/Core</text>
</a>
</g>
</g>
<!-- Node2&#45;&gt;Node13 -->
<g id="edge14" class="edge">
<title>Node2&#45;&gt;Node13</title>
<path fill="none" stroke="midnightblue" d="M531.61,-179.32C546.14,-160.26 581.04,-114.45 600.08,-89.46"/>
<polygon fill="midnightblue" stroke="midnightblue" points="603.03,-91.36 606.31,-81.28 597.46,-87.12 603.03,-91.36"/>
</g>
<!-- Node14 -->
<g id="node14" class="node">
<title>Node14</title>
<g id="a_node14"><a xlink:title=" ">
<polygon fill="none" stroke="#bfbfbf" points="679.5,-62 679.5,-81 780.5,-81 780.5,-62 679.5,-62"/>
<text text-anchor="middle" x="730" y="-69" font-family="Helvetica,sans-Serif" font-size="10.00">eigen3/Eigen/Eigen</text>
</a>
</g>
</g>
<!-- Node2&#45;&gt;Node14 -->
<g id="edge15" class="edge">
<title>Node2&#45;&gt;Node14</title>
<path fill="none" stroke="midnightblue" d="M536.15,-179.31C553.33,-166.15 587.59,-140.82 619,-123 644.99,-108.26 676.05,-94.42 698.7,-84.98"/>
<polygon fill="midnightblue" stroke="midnightblue" points="700.25,-88.13 708.16,-81.08 697.58,-81.65 700.25,-88.13"/>
</g>
<!-- Node15 -->
<g id="node15" class="node">
<title>Node15</title>
<g id="a_node15"><a xlink:title=" ">
<polygon fill="none" stroke="#bfbfbf" points="799,-56.5 799,-86.5 909,-86.5 909,-56.5 799,-56.5"/>
<text text-anchor="start" x="807" y="-74.5" font-family="Helvetica,sans-Serif" font-size="10.00">eigen3/unsupported</text>
<text text-anchor="middle" x="854" y="-63.5" font-family="Helvetica,sans-Serif" font-size="10.00">/Eigen/CXX11/Tensor</text>
</a>
</g>
</g>
<!-- Node2&#45;&gt;Node15 -->
<g id="edge16" class="edge">
<title>Node2&#45;&gt;Node15</title>
<path fill="none" stroke="midnightblue" d="M569.7,-186.52C643.16,-183.24 785.14,-173.09 824,-143 838.44,-131.82 846.02,-112.35 849.95,-96.7"/>
<polygon fill="midnightblue" stroke="midnightblue" points="853.43,-97.14 852.12,-86.62 846.59,-95.66 853.43,-97.14"/>
</g>
<!-- Node16 -->
<g id="node16" class="node">
<title>Node16</title>
<g id="a_node16"><a xlink:title=" ">
<polygon fill="none" stroke="#bfbfbf" points="927.5,-56.5 927.5,-86.5 1058.5,-86.5 1058.5,-56.5 927.5,-56.5"/>
<text text-anchor="start" x="935.5" y="-74.5" font-family="Helvetica,sans-Serif" font-size="10.00">eigen3/unsupported</text>
<text text-anchor="middle" x="993" y="-63.5" font-family="Helvetica,sans-Serif" font-size="10.00">/Eigen/CXX11/ThreadPool</text>
</a>
</g>
</g>
<!-- Node2&#45;&gt;Node16 -->
<g id="edge17" class="edge">
<title>Node2&#45;&gt;Node16</title>
<path fill="none" stroke="midnightblue" d="M569.53,-186.08C632.38,-182.4 750.11,-171.95 846,-143 887.32,-130.52 931.57,-107.89 960.61,-91.64"/>
<polygon fill="midnightblue" stroke="midnightblue" points="962.5,-94.58 969.47,-86.6 959.05,-88.5 962.5,-94.58"/>
</g>
<!-- Node17 -->
<g id="node17" class="node">
<title>Node17</title>
<g id="a_node17"><a xlink:href="helper__eigenTensorConversion_8hpp.html" target="_top" xlink:title=" ">
<polygon fill="none" stroke="black" points="628.5,-123.5 628.5,-142.5 797.5,-142.5 797.5,-123.5 628.5,-123.5"/>
<text text-anchor="middle" x="713" y="-130.5" font-family="Helvetica,sans-Serif" font-size="10.00">helper_eigenTensorConversion.hpp</text>
</a>
</g>
</g>
<!-- Node2&#45;&gt;Node17 -->
<g id="edge18" class="edge">
<title>Node2&#45;&gt;Node17</title>
<path fill="none" stroke="midnightblue" d="M554.79,-179.44C586.83,-170.24 637.93,-155.56 673.35,-145.39"/>
<polygon fill="midnightblue" stroke="midnightblue" points="674.71,-148.64 683.35,-142.52 672.77,-141.91 674.71,-148.64"/>
</g>
<!-- Node18 -->
<g id="node18" class="node">
<title>Node18</title>
<g id="a_node18"><a xlink:title=" ">
<polygon fill="none" stroke="#bfbfbf" points="910,-123.5 910,-142.5 1000,-142.5 1000,-123.5 910,-123.5"/>
<text text-anchor="middle" x="955" y="-130.5" font-family="Helvetica,sans-Serif" font-size="10.00">spdlog/fmt/ostr.h</text>
</a>
</g>
</g>
<!-- Node2&#45;&gt;Node18 -->
<g id="edge24" class="edge">
<title>Node2&#45;&gt;Node18</title>
<path fill="none" stroke="midnightblue" d="M569.6,-183.04C639.33,-175.18 778.36,-159.1 896,-143 897.27,-142.83 898.56,-142.65 899.85,-142.47"/>
<polygon fill="midnightblue" stroke="midnightblue" points="900.52,-145.91 909.92,-141.02 899.53,-138.98 900.52,-145.91"/>
</g>
<!-- Node19 -->
<g id="node19" class="node">
<title>Node19</title>
<g id="a_node19"><a xlink:title=" ">
<polygon fill="none" stroke="#bfbfbf" points="1018,-123.5 1018,-142.5 1062,-142.5 1062,-123.5 1018,-123.5"/>
<text text-anchor="middle" x="1040" y="-130.5" font-family="Helvetica,sans-Serif" font-size="10.00">thread</text>
</a>
</g>
</g>
<!-- Node2&#45;&gt;Node19 -->
<g id="edge30" class="edge">
<title>Node2&#45;&gt;Node19</title>
<path fill="none" stroke="midnightblue" d="M569.77,-186.67C653.97,-183.57 841.67,-173.74 1007.87,-142.87"/>
<polygon fill="midnightblue" stroke="midnightblue" points="1008.59,-146.3 1017.77,-141 1007.3,-139.42 1008.59,-146.3"/>
</g>
<!-- Node3&#45;&gt;Node2 -->
<g id="edge7" class="edge">
<title>Node3&#45;&gt;Node2</title>
<path fill="none" stroke="midnightblue" d="M411.32,-142.52C436.55,-151.43 473.54,-165.5 498.5,-175.64"/>
<polygon fill="midnightblue" stroke="midnightblue" points="497.17,-178.87 507.75,-179.44 499.83,-172.4 497.17,-178.87"/>
</g>
<!-- Node3&#45;&gt;Node4 -->
<g id="edge3" class="edge">
<title>Node3&#45;&gt;Node4</title>
<path fill="none" stroke="midnightblue" d="M347.77,-128.78C297.63,-123.61 204.72,-111.46 129,-87 127.33,-86.46 125.64,-85.85 123.96,-85.19"/>
<polygon fill="midnightblue" stroke="midnightblue" points="125.1,-81.87 114.54,-81.02 122.27,-88.27 125.1,-81.87"/>
</g>
<!-- Node3&#45;&gt;Node8 -->
<g id="edge8" class="edge">
<title>Node3&#45;&gt;Node8</title>
<path fill="none" stroke="midnightblue" d="M355.77,-123.48C326.48,-114.63 279.87,-100.55 243.05,-89.43"/>
<polygon fill="midnightblue" stroke="midnightblue" points="244.01,-86.06 233.43,-86.52 241.99,-92.76 244.01,-86.06"/>
</g>
<!-- Node3&#45;&gt;Node9 -->
<g id="edge9" class="edge">
<title>Node3&#45;&gt;Node9</title>
<path fill="none" stroke="midnightblue" d="M371.54,-123.48C357.58,-113.93 334.74,-98.31 318.01,-86.87"/>
<polygon fill="midnightblue" stroke="midnightblue" points="319.67,-83.77 309.44,-81.01 315.72,-89.54 319.67,-83.77"/>
</g>
<!-- Node3&#45;&gt;Node10 -->
<g id="edge10" class="edge">
<title>Node3&#45;&gt;Node10</title>
<path fill="none" stroke="midnightblue" d="M384,-123.48C384,-115.08 384,-101.98 384,-91.16"/>
<polygon fill="midnightblue" stroke="midnightblue" points="387.5,-91.01 384,-81.01 380.5,-91.01 387.5,-91.01"/>
</g>
<!-- Node3&#45;&gt;Node11 -->
<g id="edge11" class="edge">
<title>Node3&#45;&gt;Node11</title>
<path fill="none" stroke="midnightblue" d="M394.6,-123.48C406.25,-114.11 425.19,-98.88 439.33,-87.51"/>
<polygon fill="midnightblue" stroke="midnightblue" points="441.82,-90 447.42,-81.01 437.43,-84.55 441.82,-90"/>
</g>
<!-- Node3&#45;&gt;Node12 -->
<g id="edge12" class="edge">
<title>Node3&#45;&gt;Node12</title>
<path fill="none" stroke="midnightblue" d="M406.5,-123.48C429.25,-114.74 465.33,-100.55 496,-87 497.16,-86.49 498.34,-85.96 499.53,-85.41"/>
<polygon fill="midnightblue" stroke="midnightblue" points="501.08,-88.55 508.64,-81.14 498.1,-82.22 501.08,-88.55"/>
</g>
<!-- Node5 -->
<g id="node5" class="node">
<title>Node5</title>
<g id="a_node5"><a xlink:title=" ">
<polygon fill="none" stroke="#bfbfbf" points="0,-0.5 0,-19.5 56,-19.5 56,-0.5 0,-0.5"/>
<text text-anchor="middle" x="28" y="-7.5" font-family="Helvetica,sans-Serif" font-size="10.00">stdbool.h</text>
</a>
</g>
</g>
<!-- Node4&#45;&gt;Node5 -->
<g id="edge4" class="edge">
<title>Node4&#45;&gt;Node5</title>
<path fill="none" stroke="midnightblue" d="M88.83,-61.98C77.65,-52.61 59.48,-37.38 45.91,-26.01"/>
<polygon fill="midnightblue" stroke="midnightblue" points="48.07,-23.25 38.15,-19.51 43.57,-28.61 48.07,-23.25"/>
</g>
<!-- Node6 -->
<g id="node6" class="node">
<title>Node6</title>
<g id="a_node6"><a xlink:title=" ">
<polygon fill="none" stroke="#bfbfbf" points="74.5,-0.5 74.5,-19.5 123.5,-19.5 123.5,-0.5 74.5,-0.5"/>
<text text-anchor="middle" x="99" y="-7.5" font-family="Helvetica,sans-Serif" font-size="10.00">stdint.h</text>
</a>
</g>
</g>
<!-- Node4&#45;&gt;Node6 -->
<g id="edge5" class="edge">
<title>Node4&#45;&gt;Node6</title>
<path fill="none" stroke="midnightblue" d="M99,-61.98C99,-53.58 99,-40.48 99,-29.66"/>
<polygon fill="midnightblue" stroke="midnightblue" points="102.5,-29.51 99,-19.51 95.5,-29.51 102.5,-29.51"/>
</g>
<!-- Node7 -->
<g id="node7" class="node">
<title>Node7</title>
<g id="a_node7"><a xlink:title=" ">
<polygon fill="none" stroke="#bfbfbf" points="141.5,-0.5 141.5,-19.5 190.5,-19.5 190.5,-0.5 141.5,-0.5"/>
<text text-anchor="middle" x="166" y="-7.5" font-family="Helvetica,sans-Serif" font-size="10.00">string.h</text>
</a>
</g>
</g>
<!-- Node4&#45;&gt;Node7 -->
<g id="edge6" class="edge">
<title>Node4&#45;&gt;Node7</title>
<path fill="none" stroke="midnightblue" d="M108.6,-61.98C119.05,-52.7 135.97,-37.67 148.74,-26.33"/>
<polygon fill="midnightblue" stroke="midnightblue" points="151.27,-28.77 156.42,-19.51 146.62,-23.53 151.27,-28.77"/>
</g>
<!-- Node17&#45;&gt;Node13 -->
<g id="edge19" class="edge">
<title>Node17&#45;&gt;Node13</title>
<path fill="none" stroke="midnightblue" d="M698.67,-123.48C682.34,-113.75 655.4,-97.73 636.09,-86.24"/>
<polygon fill="midnightblue" stroke="midnightblue" points="637.68,-83.11 627.3,-81.01 634.11,-89.13 637.68,-83.11"/>
</g>
<!-- Node17&#45;&gt;Node14 -->
<g id="edge20" class="edge">
<title>Node17&#45;&gt;Node14</title>
<path fill="none" stroke="midnightblue" d="M715.44,-123.48C717.86,-114.99 721.66,-101.7 724.77,-90.82"/>
<polygon fill="midnightblue" stroke="midnightblue" points="728.19,-91.59 727.57,-81.01 721.46,-89.66 728.19,-91.59"/>
</g>
<!-- Node17&#45;&gt;Node15 -->
<g id="edge21" class="edge">
<title>Node17&#45;&gt;Node15</title>
<path fill="none" stroke="midnightblue" d="M733.2,-123.48C753.55,-114.89 785.56,-101.38 811.51,-90.43"/>
<polygon fill="midnightblue" stroke="midnightblue" points="812.92,-93.64 820.77,-86.52 810.2,-87.19 812.92,-93.64"/>
</g>
<!-- Node17&#45;&gt;Node16 -->
<g id="edge22" class="edge">
<title>Node17&#45;&gt;Node16</title>
<path fill="none" stroke="midnightblue" d="M753.12,-123.48C795.81,-114.4 864.35,-99.84 917.26,-88.6"/>
<polygon fill="midnightblue" stroke="midnightblue" points="918.23,-91.97 927.28,-86.47 916.77,-85.12 918.23,-91.97"/>
</g>
<!-- Node17&#45;&gt;Node17 -->
<g id="edge23" class="edge">
<title>Node17&#45;&gt;Node17</title>
<path fill="none" stroke="midnightblue" d="M756.45,-142.5C786.25,-145.33 815.5,-142.16 815.5,-133 815.5,-124.88 792.5,-121.47 766.51,-122.77"/>
<polygon fill="midnightblue" stroke="midnightblue" points="766.17,-119.29 756.45,-123.5 766.68,-126.27 766.17,-119.29"/>
</g>
</g>
</svg>
