<?xml version="1.0" encoding="UTF-8" standalone="no"?>
<!DOCTYPE svg PUBLIC "-//W3C//DTD SVG 1.1//EN"
 "http://www.w3.org/Graphics/SVG/1.1/DTD/svg11.dtd">
<!-- Generated by graphviz version 2.43.0 (0)
 -->
<!-- Title: src/simulation_system/systemData.hpp Pages: 1 -->
<svg width="1038pt" height="229pt"
 viewBox="0.00 0.00 1038.00 229.00" xmlns="http://www.w3.org/2000/svg" xmlns:xlink="http://www.w3.org/1999/xlink">
<g id="graph0" class="graph" transform="scale(1 1) rotate(0) translate(4 225)">
<title>src/simulation_system/systemData.hpp</title>
<!-- Node1 -->
<g id="node1" class="node">
<title>Node1</title>
<g id="a_node1"><a xlink:title=" ">
<polygon fill="#bfbfbf" stroke="black" points="441.5,-190.5 441.5,-220.5 556.5,-220.5 556.5,-190.5 441.5,-190.5"/>
<text text-anchor="start" x="449.5" y="-208.5" font-family="Helvetica,sans-Serif" font-size="10.00">src/simulation_system</text>
<text text-anchor="middle" x="499" y="-197.5" font-family="Helvetica,sans-Serif" font-size="10.00">/systemData.hpp</text>
</a>
</g>
</g>
<!-- Node2 -->
<g id="node2" class="node">
<title>Node2</title>
<g id="a_node2"><a xlink:href="GSDUtil_8hpp.html" target="_top" xlink:title=" ">
<polygon fill="none" stroke="black" points="342,-129 342,-148 414,-148 414,-129 342,-129"/>
<text text-anchor="middle" x="378" y="-136" font-family="Helvetica,sans-Serif" font-size="10.00">GSDUtil.hpp</text>
</a>
</g>
</g>
<!-- Node1&#45;&gt;Node2 -->
<g id="edge1" class="edge">
<title>Node1&#45;&gt;Node2</title>
<path fill="none" stroke="midnightblue" d="M467.07,-190.4C445.04,-179.34 416.61,-164.06 397.76,-153.13"/>
<polygon fill="midnightblue" stroke="midnightblue" points="399.49,-150.09 389.1,-148.01 395.93,-156.11 399.49,-150.09"/>
</g>
<!-- Node3 -->
<g id="node3" class="node">
<title>Node3</title>
<g id="a_node3"><a xlink:href="gsd_8h.html" target="_top" xlink:title="Declare GSD data types and C API.">
<polygon fill="none" stroke="black" points="78.5,-62 78.5,-81 119.5,-81 119.5,-62 78.5,-62"/>
<text text-anchor="middle" x="99" y="-69" font-family="Helvetica,sans-Serif" font-size="10.00">gsd.h</text>
</a>
</g>
</g>
<!-- Node1&#45;&gt;Node3 -->
<g id="edge12" class="edge">
<title>Node1&#45;&gt;Node3</title>
<path fill="none" stroke="midnightblue" d="M441.07,-197.35C390.4,-189.99 315.37,-176.39 253,-154 203.16,-136.11 149.47,-104.58 120.5,-86.43"/>
<polygon fill="midnightblue" stroke="midnightblue" points="122.32,-83.44 112,-81.04 118.58,-89.35 122.32,-83.44"/>
</g>
<!-- Node7 -->
<g id="node7" class="node">
<title>Node7</title>
<g id="a_node7"><a xlink:title=" ">
<polygon fill="none" stroke="#bfbfbf" points="138,-56.5 138,-86.5 236,-86.5 236,-56.5 138,-56.5"/>
<text text-anchor="start" x="146" y="-74.5" font-family="Helvetica,sans-Serif" font-size="10.00">spdlog/sinks/basic</text>
<text text-anchor="middle" x="187" y="-63.5" font-family="Helvetica,sans-Serif" font-size="10.00">_file_sink.h</text>
</a>
</g>
</g>
<!-- Node1&#45;&gt;Node7 -->
<g id="edge13" class="edge">
<title>Node1&#45;&gt;Node7</title>
<path fill="none" stroke="midnightblue" d="M441.2,-194.3C402.66,-186.27 351.46,-173.18 309,-154 273.03,-137.75 235.9,-111.31 212.2,-92.97"/>
<polygon fill="midnightblue" stroke="midnightblue" points="214.13,-90.03 204.1,-86.61 209.81,-95.54 214.13,-90.03"/>
</g>
<!-- Node8 -->
<g id="node8" class="node">
<title>Node8</title>
<g id="a_node8"><a xlink:title=" ">
<polygon fill="none" stroke="#bfbfbf" points="254.5,-62 254.5,-81 339.5,-81 339.5,-62 254.5,-62"/>
<text text-anchor="middle" x="297" y="-69" font-family="Helvetica,sans-Serif" font-size="10.00">spdlog/spdlog.h</text>
</a>
</g>
</g>
<!-- Node1&#45;&gt;Node8 -->
<g id="edge14" class="edge">
<title>Node1&#45;&gt;Node8</title>
<path fill="none" stroke="midnightblue" d="M441.23,-199.06C406.29,-193.07 362.87,-180.47 333,-154 314.31,-137.44 304.88,-109.36 300.46,-90.87"/>
<polygon fill="midnightblue" stroke="midnightblue" points="303.87,-90.07 298.36,-81.02 297.02,-91.53 303.87,-90.07"/>
</g>
<!-- Node9 -->
<g id="node9" class="node">
<title>Node9</title>
<g id="a_node9"><a xlink:title=" ">
<polygon fill="none" stroke="#bfbfbf" points="358,-62 358,-81 410,-81 410,-62 358,-62"/>
<text text-anchor="middle" x="384" y="-69" font-family="Helvetica,sans-Serif" font-size="10.00">memory</text>
</a>
</g>
</g>
<!-- Node1&#45;&gt;Node9 -->
<g id="edge23" class="edge">
<title>Node1&#45;&gt;Node9</title>
<path fill="none" stroke="midnightblue" d="M486.69,-190.37C465.24,-165.76 421.13,-115.12 398.34,-88.96"/>
<polygon fill="midnightblue" stroke="midnightblue" points="400.7,-86.34 391.49,-81.1 395.42,-90.94 400.7,-86.34"/>
</g>
<!-- Node10 -->
<g id="node10" class="node">
<title>Node10</title>
<g id="a_node10"><a xlink:title=" ">
<polygon fill="none" stroke="#bfbfbf" points="428.5,-62 428.5,-81 487.5,-81 487.5,-62 428.5,-62"/>
<text text-anchor="middle" x="458" y="-69" font-family="Helvetica,sans-Serif" font-size="10.00">stdexcept</text>
</a>
</g>
</g>
<!-- Node1&#45;&gt;Node10 -->
<g id="edge24" class="edge">
<title>Node1&#45;&gt;Node10</title>
<path fill="none" stroke="midnightblue" d="M494.61,-190.37C487.13,-166.29 471.92,-117.31 463.65,-90.7"/>
<polygon fill="midnightblue" stroke="midnightblue" points="466.98,-89.61 460.67,-81.1 460.29,-91.69 466.98,-89.61"/>
</g>
<!-- Node11 -->
<g id="node11" class="node">
<title>Node11</title>
<g id="a_node11"><a xlink:title=" ">
<polygon fill="none" stroke="#bfbfbf" points="505.5,-62 505.5,-81 546.5,-81 546.5,-62 505.5,-62"/>
<text text-anchor="middle" x="526" y="-69" font-family="Helvetica,sans-Serif" font-size="10.00">string</text>
</a>
</g>
</g>
<!-- Node1&#45;&gt;Node11 -->
<g id="edge25" class="edge">
<title>Node1&#45;&gt;Node11</title>
<path fill="none" stroke="midnightblue" d="M501.89,-190.37C506.79,-166.4 516.74,-117.75 522.2,-91.06"/>
<polygon fill="midnightblue" stroke="midnightblue" points="525.67,-91.6 524.24,-81.1 518.81,-90.19 525.67,-91.6"/>
</g>
<!-- Node12 -->
<g id="node12" class="node">
<title>Node12</title>
<g id="a_node12"><a xlink:title=" ">
<polygon fill="none" stroke="#bfbfbf" points="564.5,-62 564.5,-81 661.5,-81 661.5,-62 564.5,-62"/>
<text text-anchor="middle" x="613" y="-69" font-family="Helvetica,sans-Serif" font-size="10.00">eigen3/Eigen/Core</text>
</a>
</g>
</g>
<!-- Node1&#45;&gt;Node12 -->
<g id="edge15" class="edge">
<title>Node1&#45;&gt;Node12</title>
<path fill="none" stroke="midnightblue" d="M511.2,-190.37C532.46,-165.76 576.19,-115.12 598.79,-88.96"/>
<polygon fill="midnightblue" stroke="midnightblue" points="601.69,-90.95 605.58,-81.1 596.39,-86.38 601.69,-90.95"/>
</g>
<!-- Node13 -->
<g id="node13" class="node">
<title>Node13</title>
<g id="a_node13"><a xlink:title=" ">
<polygon fill="none" stroke="#bfbfbf" points="679.5,-62 679.5,-81 780.5,-81 780.5,-62 679.5,-62"/>
<text text-anchor="middle" x="730" y="-69" font-family="Helvetica,sans-Serif" font-size="10.00">eigen3/Eigen/Eigen</text>
</a>
</g>
</g>
<!-- Node1&#45;&gt;Node13 -->
<g id="edge16" class="edge">
<title>Node1&#45;&gt;Node13</title>
<path fill="none" stroke="midnightblue" d="M518.92,-190.38C533.16,-180.28 552.78,-166.33 570,-154 589.16,-140.28 592.51,-134.63 613,-123 640.06,-107.65 672.7,-93.92 696.62,-84.67"/>
<polygon fill="midnightblue" stroke="midnightblue" points="697.87,-87.94 705.97,-81.11 695.38,-81.4 697.87,-87.94"/>
</g>
<!-- Node14 -->
<g id="node14" class="node">
<title>Node14</title>
<g id="a_node14"><a xlink:title=" ">
<polygon fill="none" stroke="#bfbfbf" points="799,-56.5 799,-86.5 909,-86.5 909,-56.5 799,-56.5"/>
<text text-anchor="start" x="807" y="-74.5" font-family="Helvetica,sans-Serif" font-size="10.00">eigen3/unsupported</text>
<text text-anchor="middle" x="854" y="-63.5" font-family="Helvetica,sans-Serif" font-size="10.00">/Eigen/CXX11/Tensor</text>
</a>
</g>
</g>
<!-- Node1&#45;&gt;Node14 -->
<g id="edge17" class="edge">
<title>Node1&#45;&gt;Node14</title>
<path fill="none" stroke="midnightblue" d="M556.8,-199.32C629.83,-191.94 750.64,-176.73 789,-154 812.44,-140.11 830.79,-114.37 841.93,-95.52"/>
<polygon fill="midnightblue" stroke="midnightblue" points="845.08,-97.07 846.95,-86.64 838.98,-93.63 845.08,-97.07"/>
</g>
<!-- Node15 -->
<g id="node15" class="node">
<title>Node15</title>
<g id="a_node15"><a xlink:title=" ">
<polygon fill="none" stroke="#bfbfbf" points="836.5,-123.5 836.5,-153.5 967.5,-153.5 967.5,-123.5 836.5,-123.5"/>
<text text-anchor="start" x="844.5" y="-141.5" font-family="Helvetica,sans-Serif" font-size="10.00">eigen3/unsupported</text>
<text text-anchor="middle" x="902" y="-130.5" font-family="Helvetica,sans-Serif" font-size="10.00">/Eigen/CXX11/ThreadPool</text>
</a>
</g>
</g>
<!-- Node1&#45;&gt;Node15 -->
<g id="edge18" class="edge">
<title>Node1&#45;&gt;Node15</title>
<path fill="none" stroke="midnightblue" d="M556.54,-195.93C621.19,-186.21 729.24,-169.66 822,-154 823.29,-153.78 824.6,-153.56 825.91,-153.34"/>
<polygon fill="midnightblue" stroke="midnightblue" points="826.84,-156.73 836.1,-151.57 825.65,-149.83 826.84,-156.73"/>
</g>
<!-- Node16 -->
<g id="node16" class="node">
<title>Node16</title>
<g id="a_node16"><a xlink:href="helper__eigenTensorConversion_8h.html" target="_top" xlink:title=" ">
<polygon fill="none" stroke="black" points="622,-129 622,-148 780,-148 780,-129 622,-129"/>
<text text-anchor="middle" x="701" y="-136" font-family="Helvetica,sans-Serif" font-size="10.00">helper_eigenTensorConversion.h</text>
</a>
</g>
</g>
<!-- Node1&#45;&gt;Node16 -->
<g id="edge19" class="edge">
<title>Node1&#45;&gt;Node16</title>
<path fill="none" stroke="midnightblue" d="M542.83,-190.4C579.37,-178.64 630.8,-162.09 664.98,-151.09"/>
<polygon fill="midnightblue" stroke="midnightblue" points="666.12,-154.4 674.56,-148.01 663.97,-147.74 666.12,-154.4"/>
</g>
<!-- Node17 -->
<g id="node17" class="node">
<title>Node17</title>
<g id="a_node17"><a xlink:title=" ">
<polygon fill="none" stroke="#bfbfbf" points="986,-129 986,-148 1030,-148 1030,-129 986,-129"/>
<text text-anchor="middle" x="1008" y="-136" font-family="Helvetica,sans-Serif" font-size="10.00">thread</text>
</a>
</g>
</g>
<!-- Node1&#45;&gt;Node17 -->
<g id="edge26" class="edge">
<title>Node1&#45;&gt;Node17</title>
<path fill="none" stroke="midnightblue" d="M556.8,-204.52C647.85,-203.2 829.48,-195.05 977,-154 978.93,-153.46 980.89,-152.81 982.84,-152.09"/>
<polygon fill="midnightblue" stroke="midnightblue" points="984.46,-155.21 992.3,-148.08 981.73,-148.77 984.46,-155.21"/>
</g>
<!-- Node2&#45;&gt;Node1 -->
<g id="edge6" class="edge">
<title>Node2&#45;&gt;Node1</title>
<path fill="none" stroke="midnightblue" d="M398.57,-148.01C418.14,-157.43 447.49,-172.93 469.49,-185.31"/>
<polygon fill="midnightblue" stroke="midnightblue" points="468,-188.49 478.42,-190.4 471.47,-182.4 468,-188.49"/>
</g>
<!-- Node2&#45;&gt;Node3 -->
<g id="edge2" class="edge">
<title>Node2&#45;&gt;Node3</title>
<path fill="none" stroke="midnightblue" d="M341.8,-133.05C292.67,-126.37 202.56,-111.8 129,-87 127.38,-86.45 125.73,-85.84 124.09,-85.18"/>
<polygon fill="midnightblue" stroke="midnightblue" points="125.44,-81.95 114.88,-81.09 122.6,-88.35 125.44,-81.95"/>
</g>
<!-- Node2&#45;&gt;Node7 -->
<g id="edge7" class="edge">
<title>Node2&#45;&gt;Node7</title>
<path fill="none" stroke="midnightblue" d="M352.64,-128.87C323.48,-118.95 274.88,-102.41 237.85,-89.81"/>
<polygon fill="midnightblue" stroke="midnightblue" points="238.82,-86.44 228.22,-86.53 236.56,-93.06 238.82,-86.44"/>
</g>
<!-- Node2&#45;&gt;Node8 -->
<g id="edge8" class="edge">
<title>Node2&#45;&gt;Node8</title>
<path fill="none" stroke="midnightblue" d="M367.08,-128.73C353.96,-118.21 331.74,-100.38 315.84,-87.62"/>
<polygon fill="midnightblue" stroke="midnightblue" points="317.74,-84.66 307.75,-81.13 313.36,-90.12 317.74,-84.66"/>
</g>
<!-- Node2&#45;&gt;Node9 -->
<g id="edge9" class="edge">
<title>Node2&#45;&gt;Node9</title>
<path fill="none" stroke="midnightblue" d="M378.81,-128.73C379.69,-119.18 381.13,-103.62 382.27,-91.28"/>
<polygon fill="midnightblue" stroke="midnightblue" points="385.77,-91.41 383.2,-81.13 378.8,-90.76 385.77,-91.41"/>
</g>
<!-- Node2&#45;&gt;Node10 -->
<g id="edge10" class="edge">
<title>Node2&#45;&gt;Node10</title>
<path fill="none" stroke="midnightblue" d="M388.79,-128.73C401.74,-118.21 423.69,-100.38 439.39,-87.62"/>
<polygon fill="midnightblue" stroke="midnightblue" points="441.83,-90.15 447.38,-81.13 437.41,-84.72 441.83,-90.15"/>
</g>
<!-- Node2&#45;&gt;Node11 -->
<g id="edge11" class="edge">
<title>Node2&#45;&gt;Node11</title>
<path fill="none" stroke="midnightblue" d="M399.02,-128.85C422.71,-119.01 462.34,-102.33 496,-87 497.15,-86.47 498.33,-85.93 499.52,-85.38"/>
<polygon fill="midnightblue" stroke="midnightblue" points="501.08,-88.52 508.61,-81.07 498.08,-82.19 501.08,-88.52"/>
</g>
<!-- Node4 -->
<g id="node4" class="node">
<title>Node4</title>
<g id="a_node4"><a xlink:title=" ">
<polygon fill="none" stroke="#bfbfbf" points="0,-0.5 0,-19.5 56,-19.5 56,-0.5 0,-0.5"/>
<text text-anchor="middle" x="28" y="-7.5" font-family="Helvetica,sans-Serif" font-size="10.00">stdbool.h</text>
</a>
</g>
</g>
<!-- Node3&#45;&gt;Node4 -->
<g id="edge3" class="edge">
<title>Node3&#45;&gt;Node4</title>
<path fill="none" stroke="midnightblue" d="M88.83,-61.98C77.65,-52.61 59.48,-37.38 45.91,-26.01"/>
<polygon fill="midnightblue" stroke="midnightblue" points="48.07,-23.25 38.15,-19.51 43.57,-28.61 48.07,-23.25"/>
</g>
<!-- Node5 -->
<g id="node5" class="node">
<title>Node5</title>
<g id="a_node5"><a xlink:title=" ">
<polygon fill="none" stroke="#bfbfbf" points="74.5,-0.5 74.5,-19.5 123.5,-19.5 123.5,-0.5 74.5,-0.5"/>
<text text-anchor="middle" x="99" y="-7.5" font-family="Helvetica,sans-Serif" font-size="10.00">stdint.h</text>
</a>
</g>
</g>
<!-- Node3&#45;&gt;Node5 -->
<g id="edge4" class="edge">
<title>Node3&#45;&gt;Node5</title>
<path fill="none" stroke="midnightblue" d="M99,-61.98C99,-53.58 99,-40.48 99,-29.66"/>
<polygon fill="midnightblue" stroke="midnightblue" points="102.5,-29.51 99,-19.51 95.5,-29.51 102.5,-29.51"/>
</g>
<!-- Node6 -->
<g id="node6" class="node">
<title>Node6</title>
<g id="a_node6"><a xlink:title=" ">
<polygon fill="none" stroke="#bfbfbf" points="141.5,-0.5 141.5,-19.5 190.5,-19.5 190.5,-0.5 141.5,-0.5"/>
<text text-anchor="middle" x="166" y="-7.5" font-family="Helvetica,sans-Serif" font-size="10.00">string.h</text>
</a>
</g>
</g>
<!-- Node3&#45;&gt;Node6 -->
<g id="edge5" class="edge">
<title>Node3&#45;&gt;Node6</title>
<path fill="none" stroke="midnightblue" d="M108.6,-61.98C119.05,-52.7 135.97,-37.67 148.74,-26.33"/>
<polygon fill="midnightblue" stroke="midnightblue" points="151.27,-28.77 156.42,-19.51 146.62,-23.53 151.27,-28.77"/>
</g>
<!-- Node16&#45;&gt;Node12 -->
<g id="edge20" class="edge">
<title>Node16&#45;&gt;Node12</title>
<path fill="none" stroke="midnightblue" d="M689.13,-128.73C674.75,-118.11 650.3,-100.05 632.99,-87.26"/>
<polygon fill="midnightblue" stroke="midnightblue" points="634.8,-84.25 624.68,-81.13 630.64,-89.88 634.8,-84.25"/>
</g>
<!-- Node16&#45;&gt;Node13 -->
<g id="edge21" class="edge">
<title>Node16&#45;&gt;Node13</title>
<path fill="none" stroke="midnightblue" d="M704.91,-128.73C709.26,-118.99 716.4,-102.98 721.96,-90.53"/>
<polygon fill="midnightblue" stroke="midnightblue" points="725.27,-91.69 726.15,-81.13 718.88,-88.83 725.27,-91.69"/>
</g>
<!-- Node16&#45;&gt;Node14 -->
<g id="edge22" class="edge">
<title>Node16&#45;&gt;Node14</title>
<path fill="none" stroke="midnightblue" d="M721.32,-128.87C744.28,-119.12 782.28,-102.97 811.74,-90.45"/>
<polygon fill="midnightblue" stroke="midnightblue" points="813.14,-93.66 820.98,-86.53 810.41,-87.22 813.14,-93.66"/>
</g>
</g>
</svg>
