<?xml version="1.0" encoding="UTF-8" standalone="no"?>
<!DOCTYPE svg PUBLIC "-//W3C//DTD SVG 1.1//EN"
 "http://www.w3.org/Graphics/SVG/1.1/DTD/svg11.dtd">
<!-- Generated by graphviz version 2.43.0 (0)
 -->
<!-- Title: src/simulation_system/systemData.hpp Pages: 1 -->
<svg width="1070pt" height="218pt"
 viewBox="0.00 0.00 1070.00 218.00" xmlns="http://www.w3.org/2000/svg" xmlns:xlink="http://www.w3.org/1999/xlink">
<g id="graph0" class="graph" transform="scale(1 1) rotate(0) translate(4 214)">
<title>src/simulation_system/systemData.hpp</title>
<!-- Node1 -->
<g id="node1" class="node">
<title>Node1</title>
<g id="a_node1"><a xlink:title=" ">
<polygon fill="#bfbfbf" stroke="black" points="467.5,-179.5 467.5,-209.5 582.5,-209.5 582.5,-179.5 467.5,-179.5"/>
<text text-anchor="start" x="475.5" y="-197.5" font-family="Helvetica,sans-Serif" font-size="10.00">src/simulation_system</text>
<text text-anchor="middle" x="525" y="-186.5" font-family="Helvetica,sans-Serif" font-size="10.00">/systemData.hpp</text>
</a>
</g>
</g>
<!-- Node2 -->
<g id="node2" class="node">
<title>Node2</title>
<g id="a_node2"><a xlink:href="GSDUtil_8hpp.html" target="_top" xlink:title=" ">
<polygon fill="none" stroke="black" points="348,-123.5 348,-142.5 420,-142.5 420,-123.5 348,-123.5"/>
<text text-anchor="middle" x="384" y="-130.5" font-family="Helvetica,sans-Serif" font-size="10.00">GSDUtil.hpp</text>
</a>
</g>
</g>
<!-- Node1&#45;&gt;Node2 -->
<g id="edge1" class="edge">
<title>Node1&#45;&gt;Node2</title>
<path fill="none" stroke="midnightblue" d="M485.75,-179.4C461.14,-169.55 430.27,-156.5 408.94,-146.92"/>
<polygon fill="midnightblue" stroke="midnightblue" points="410.14,-143.62 399.59,-142.66 407.23,-149.99 410.14,-143.62"/>
</g>
<!-- Node3 -->
<g id="node3" class="node">
<title>Node3</title>
<g id="a_node3"><a xlink:href="gsd_8h.html" target="_top" xlink:title="Declare GSD data types and C API.">
<polygon fill="none" stroke="black" points="78.5,-62 78.5,-81 119.5,-81 119.5,-62 78.5,-62"/>
<text text-anchor="middle" x="99" y="-69" font-family="Helvetica,sans-Serif" font-size="10.00">gsd.h</text>
</a>
</g>
</g>
<!-- Node1&#45;&gt;Node3 -->
<g id="edge12" class="edge">
<title>Node1&#45;&gt;Node3</title>
<path fill="none" stroke="midnightblue" d="M467.27,-184.85C415.74,-176.45 338.53,-162.15 273,-143 207.09,-123.74 191.96,-114.41 129,-87 127.81,-86.48 126.59,-85.94 125.37,-85.39"/>
<polygon fill="midnightblue" stroke="midnightblue" points="126.57,-82.08 116.03,-81.02 123.6,-88.42 126.57,-82.08"/>
</g>
<!-- Node7 -->
<g id="node7" class="node">
<title>Node7</title>
<g id="a_node7"><a xlink:title=" ">
<polygon fill="none" stroke="#bfbfbf" points="138,-56.5 138,-86.5 236,-86.5 236,-56.5 138,-56.5"/>
<text text-anchor="start" x="146" y="-74.5" font-family="Helvetica,sans-Serif" font-size="10.00">spdlog/sinks/basic</text>
<text text-anchor="middle" x="187" y="-63.5" font-family="Helvetica,sans-Serif" font-size="10.00">_file_sink.h</text>
</a>
</g>
</g>
<!-- Node1&#45;&gt;Node7 -->
<g id="edge24" class="edge">
<title>Node1&#45;&gt;Node7</title>
<path fill="none" stroke="midnightblue" d="M467.29,-183.66C424.85,-175.42 366.24,-161.96 317,-143 281.21,-129.22 242.92,-107.51 217.24,-91.83"/>
<polygon fill="midnightblue" stroke="midnightblue" points="219.05,-88.83 208.7,-86.55 215.37,-94.79 219.05,-88.83"/>
</g>
<!-- Node8 -->
<g id="node8" class="node">
<title>Node8</title>
<g id="a_node8"><a xlink:title=" ">
<polygon fill="none" stroke="#bfbfbf" points="254.5,-62 254.5,-81 339.5,-81 339.5,-62 254.5,-62"/>
<text text-anchor="middle" x="297" y="-69" font-family="Helvetica,sans-Serif" font-size="10.00">spdlog/spdlog.h</text>
</a>
</g>
</g>
<!-- Node1&#45;&gt;Node8 -->
<g id="edge25" class="edge">
<title>Node1&#45;&gt;Node8</title>
<path fill="none" stroke="midnightblue" d="M467.17,-189.12C427.7,-183.59 376.05,-171.12 339,-143 321.5,-129.72 309.84,-106.85 303.34,-90.77"/>
<polygon fill="midnightblue" stroke="midnightblue" points="306.59,-89.48 299.8,-81.35 300.04,-91.94 306.59,-89.48"/>
</g>
<!-- Node9 -->
<g id="node9" class="node">
<title>Node9</title>
<g id="a_node9"><a xlink:title=" ">
<polygon fill="none" stroke="#bfbfbf" points="358,-62 358,-81 410,-81 410,-62 358,-62"/>
<text text-anchor="middle" x="384" y="-69" font-family="Helvetica,sans-Serif" font-size="10.00">memory</text>
</a>
</g>
</g>
<!-- Node1&#45;&gt;Node9 -->
<g id="edge26" class="edge">
<title>Node1&#45;&gt;Node9</title>
<path fill="none" stroke="midnightblue" d="M508.55,-179.38C481.82,-156.45 429.19,-111.28 401.68,-87.68"/>
<polygon fill="midnightblue" stroke="midnightblue" points="403.88,-84.95 394.01,-81.09 399.32,-90.26 403.88,-84.95"/>
</g>
<!-- Node10 -->
<g id="node10" class="node">
<title>Node10</title>
<g id="a_node10"><a xlink:title=" ">
<polygon fill="none" stroke="#bfbfbf" points="428.5,-62 428.5,-81 487.5,-81 487.5,-62 428.5,-62"/>
<text text-anchor="middle" x="458" y="-69" font-family="Helvetica,sans-Serif" font-size="10.00">stdexcept</text>
</a>
</g>
</g>
<!-- Node1&#45;&gt;Node10 -->
<g id="edge27" class="edge">
<title>Node1&#45;&gt;Node10</title>
<path fill="none" stroke="midnightblue" d="M517.05,-179.14C504.74,-156.91 481.08,-114.19 467.75,-90.11"/>
<polygon fill="midnightblue" stroke="midnightblue" points="470.64,-88.11 462.74,-81.05 464.52,-91.5 470.64,-88.11"/>
</g>
<!-- Node11 -->
<g id="node11" class="node">
<title>Node11</title>
<g id="a_node11"><a xlink:title=" ">
<polygon fill="none" stroke="#bfbfbf" points="505.5,-62 505.5,-81 546.5,-81 546.5,-62 505.5,-62"/>
<text text-anchor="middle" x="526" y="-69" font-family="Helvetica,sans-Serif" font-size="10.00">string</text>
</a>
</g>
</g>
<!-- Node1&#45;&gt;Node11 -->
<g id="edge28" class="edge">
<title>Node1&#45;&gt;Node11</title>
<path fill="none" stroke="midnightblue" d="M525.12,-179.14C525.3,-157.2 525.65,-115.33 525.85,-91.09"/>
<polygon fill="midnightblue" stroke="midnightblue" points="529.35,-91.08 525.93,-81.05 522.35,-91.02 529.35,-91.08"/>
</g>
<!-- Node12 -->
<g id="node12" class="node">
<title>Node12</title>
<g id="a_node12"><a xlink:title=" ">
<polygon fill="none" stroke="#bfbfbf" points="564.5,-62 564.5,-81 661.5,-81 661.5,-62 564.5,-62"/>
<text text-anchor="middle" x="613" y="-69" font-family="Helvetica,sans-Serif" font-size="10.00">eigen3/Eigen/Core</text>
</a>
</g>
</g>
<!-- Node1&#45;&gt;Node12 -->
<g id="edge13" class="edge">
<title>Node1&#45;&gt;Node12</title>
<path fill="none" stroke="midnightblue" d="M535.44,-179.14C551.83,-156.61 583.52,-113.04 600.89,-89.16"/>
<polygon fill="midnightblue" stroke="midnightblue" points="603.73,-91.2 606.78,-81.05 598.07,-87.08 603.73,-91.2"/>
</g>
<!-- Node13 -->
<g id="node13" class="node">
<title>Node13</title>
<g id="a_node13"><a xlink:title=" ">
<polygon fill="none" stroke="#bfbfbf" points="679.5,-62 679.5,-81 780.5,-81 780.5,-62 679.5,-62"/>
<text text-anchor="middle" x="730" y="-69" font-family="Helvetica,sans-Serif" font-size="10.00">eigen3/Eigen/Eigen</text>
</a>
</g>
</g>
<!-- Node1&#45;&gt;Node13 -->
<g id="edge14" class="edge">
<title>Node1&#45;&gt;Node13</title>
<path fill="none" stroke="midnightblue" d="M541.55,-179.34C559.74,-164.2 590.22,-140.06 619,-123 644.54,-107.86 675.41,-94.15 698.11,-84.85"/>
<polygon fill="midnightblue" stroke="midnightblue" points="699.64,-88.01 707.6,-81.02 697.02,-81.51 699.64,-88.01"/>
</g>
<!-- Node14 -->
<g id="node14" class="node">
<title>Node14</title>
<g id="a_node14"><a xlink:title=" ">
<polygon fill="none" stroke="#bfbfbf" points="799,-56.5 799,-86.5 909,-86.5 909,-56.5 799,-56.5"/>
<text text-anchor="start" x="807" y="-74.5" font-family="Helvetica,sans-Serif" font-size="10.00">eigen3/unsupported</text>
<text text-anchor="middle" x="854" y="-63.5" font-family="Helvetica,sans-Serif" font-size="10.00">/Eigen/CXX11/Tensor</text>
</a>
</g>
</g>
<!-- Node1&#45;&gt;Node14 -->
<g id="edge15" class="edge">
<title>Node1&#45;&gt;Node14</title>
<path fill="none" stroke="midnightblue" d="M582.72,-190.26C658.85,-184.91 787.47,-171.81 824,-143 838.34,-131.69 845.93,-112.23 849.88,-96.62"/>
<polygon fill="midnightblue" stroke="midnightblue" points="853.36,-97.09 852.08,-86.57 846.52,-95.59 853.36,-97.09"/>
</g>
<!-- Node15 -->
<g id="node15" class="node">
<title>Node15</title>
<g id="a_node15"><a xlink:title=" ">
<polygon fill="none" stroke="#bfbfbf" points="927.5,-56.5 927.5,-86.5 1058.5,-86.5 1058.5,-56.5 927.5,-56.5"/>
<text text-anchor="start" x="935.5" y="-74.5" font-family="Helvetica,sans-Serif" font-size="10.00">eigen3/unsupported</text>
<text text-anchor="middle" x="993" y="-63.5" font-family="Helvetica,sans-Serif" font-size="10.00">/Eigen/CXX11/ThreadPool</text>
</a>
</g>
</g>
<!-- Node1&#45;&gt;Node15 -->
<g id="edge16" class="edge">
<title>Node1&#45;&gt;Node15</title>
<path fill="none" stroke="midnightblue" d="M582.68,-189.5C647.83,-183.83 756.44,-170.86 846,-143 887.09,-130.22 931.23,-107.75 960.29,-91.61"/>
<polygon fill="midnightblue" stroke="midnightblue" points="962.18,-94.57 969.18,-86.61 958.75,-88.46 962.18,-94.57"/>
</g>
<!-- Node16 -->
<g id="node16" class="node">
<title>Node16</title>
<g id="a_node16"><a xlink:href="helper__eigenTensorConversion_8hpp.html" target="_top" xlink:title=" ">
<polygon fill="none" stroke="black" points="628.5,-123.5 628.5,-142.5 797.5,-142.5 797.5,-123.5 628.5,-123.5"/>
<text text-anchor="middle" x="713" y="-130.5" font-family="Helvetica,sans-Serif" font-size="10.00">helper_eigenTensorConversion.hpp</text>
</a>
</g>
</g>
<!-- Node1&#45;&gt;Node16 -->
<g id="edge17" class="edge">
<title>Node1&#45;&gt;Node16</title>
<path fill="none" stroke="midnightblue" d="M569.55,-179.4C602.04,-169.12 645.54,-155.35 676.09,-145.68"/>
<polygon fill="midnightblue" stroke="midnightblue" points="677.44,-148.93 685.92,-142.57 675.33,-142.25 677.44,-148.93"/>
</g>
<!-- Node17 -->
<g id="node17" class="node">
<title>Node17</title>
<g id="a_node17"><a xlink:title=" ">
<polygon fill="none" stroke="#bfbfbf" points="910,-123.5 910,-142.5 1000,-142.5 1000,-123.5 910,-123.5"/>
<text text-anchor="middle" x="955" y="-130.5" font-family="Helvetica,sans-Serif" font-size="10.00">spdlog/fmt/ostr.h</text>
</a>
</g>
</g>
<!-- Node1&#45;&gt;Node17 -->
<g id="edge23" class="edge">
<title>Node1&#45;&gt;Node17</title>
<path fill="none" stroke="midnightblue" d="M582.56,-185.96C655.53,-176.33 785.18,-158.99 896,-143 897.27,-142.82 898.55,-142.63 899.85,-142.44"/>
<polygon fill="midnightblue" stroke="midnightblue" points="900.53,-145.88 909.91,-140.95 899.51,-138.95 900.53,-145.88"/>
</g>
<!-- Node18 -->
<g id="node18" class="node">
<title>Node18</title>
<g id="a_node18"><a xlink:title=" ">
<polygon fill="none" stroke="#bfbfbf" points="1018,-123.5 1018,-142.5 1062,-142.5 1062,-123.5 1018,-123.5"/>
<text text-anchor="middle" x="1040" y="-130.5" font-family="Helvetica,sans-Serif" font-size="10.00">thread</text>
</a>
</g>
</g>
<!-- Node1&#45;&gt;Node18 -->
<g id="edge29" class="edge">
<title>Node1&#45;&gt;Node18</title>
<path fill="none" stroke="midnightblue" d="M582.86,-190.81C672.28,-185.91 849.4,-173.31 1007.84,-142.9"/>
<polygon fill="midnightblue" stroke="midnightblue" points="1008.62,-146.32 1017.77,-140.97 1007.28,-139.45 1008.62,-146.32"/>
</g>
<!-- Node2&#45;&gt;Node1 -->
<g id="edge6" class="edge">
<title>Node2&#45;&gt;Node1</title>
<path fill="none" stroke="midnightblue" d="M409.45,-142.66C431.42,-151.16 463.23,-164.39 487.98,-175.23"/>
<polygon fill="midnightblue" stroke="midnightblue" points="486.86,-178.56 497.42,-179.4 489.69,-172.16 486.86,-178.56"/>
</g>
<!-- Node2&#45;&gt;Node3 -->
<g id="edge2" class="edge">
<title>Node2&#45;&gt;Node3</title>
<path fill="none" stroke="midnightblue" d="M347.77,-128.78C297.63,-123.61 204.72,-111.46 129,-87 127.33,-86.46 125.64,-85.85 123.96,-85.19"/>
<polygon fill="midnightblue" stroke="midnightblue" points="125.1,-81.87 114.54,-81.02 122.27,-88.27 125.1,-81.87"/>
</g>
<!-- Node2&#45;&gt;Node7 -->
<g id="edge7" class="edge">
<title>Node2&#45;&gt;Node7</title>
<path fill="none" stroke="midnightblue" d="M355.77,-123.48C326.48,-114.63 279.87,-100.55 243.05,-89.43"/>
<polygon fill="midnightblue" stroke="midnightblue" points="244.01,-86.06 233.43,-86.52 241.99,-92.76 244.01,-86.06"/>
</g>
<!-- Node2&#45;&gt;Node8 -->
<g id="edge8" class="edge">
<title>Node2&#45;&gt;Node8</title>
<path fill="none" stroke="midnightblue" d="M371.54,-123.48C357.58,-113.93 334.74,-98.31 318.01,-86.87"/>
<polygon fill="midnightblue" stroke="midnightblue" points="319.67,-83.77 309.44,-81.01 315.72,-89.54 319.67,-83.77"/>
</g>
<!-- Node2&#45;&gt;Node9 -->
<g id="edge9" class="edge">
<title>Node2&#45;&gt;Node9</title>
<path fill="none" stroke="midnightblue" d="M384,-123.48C384,-115.08 384,-101.98 384,-91.16"/>
<polygon fill="midnightblue" stroke="midnightblue" points="387.5,-91.01 384,-81.01 380.5,-91.01 387.5,-91.01"/>
</g>
<!-- Node2&#45;&gt;Node10 -->
<g id="edge10" class="edge">
<title>Node2&#45;&gt;Node10</title>
<path fill="none" stroke="midnightblue" d="M394.6,-123.48C406.25,-114.11 425.19,-98.88 439.33,-87.51"/>
<polygon fill="midnightblue" stroke="midnightblue" points="441.82,-90 447.42,-81.01 437.43,-84.55 441.82,-90"/>
</g>
<!-- Node2&#45;&gt;Node11 -->
<g id="edge11" class="edge">
<title>Node2&#45;&gt;Node11</title>
<path fill="none" stroke="midnightblue" d="M406.5,-123.48C429.25,-114.74 465.33,-100.55 496,-87 497.16,-86.49 498.34,-85.96 499.53,-85.41"/>
<polygon fill="midnightblue" stroke="midnightblue" points="501.08,-88.55 508.64,-81.14 498.1,-82.22 501.08,-88.55"/>
</g>
<!-- Node4 -->
<g id="node4" class="node">
<title>Node4</title>
<g id="a_node4"><a xlink:title=" ">
<polygon fill="none" stroke="#bfbfbf" points="0,-0.5 0,-19.5 56,-19.5 56,-0.5 0,-0.5"/>
<text text-anchor="middle" x="28" y="-7.5" font-family="Helvetica,sans-Serif" font-size="10.00">stdbool.h</text>
</a>
</g>
</g>
<!-- Node3&#45;&gt;Node4 -->
<g id="edge3" class="edge">
<title>Node3&#45;&gt;Node4</title>
<path fill="none" stroke="midnightblue" d="M88.83,-61.98C77.65,-52.61 59.48,-37.38 45.91,-26.01"/>
<polygon fill="midnightblue" stroke="midnightblue" points="48.07,-23.25 38.15,-19.51 43.57,-28.61 48.07,-23.25"/>
</g>
<!-- Node5 -->
<g id="node5" class="node">
<title>Node5</title>
<g id="a_node5"><a xlink:title=" ">
<polygon fill="none" stroke="#bfbfbf" points="74.5,-0.5 74.5,-19.5 123.5,-19.5 123.5,-0.5 74.5,-0.5"/>
<text text-anchor="middle" x="99" y="-7.5" font-family="Helvetica,sans-Serif" font-size="10.00">stdint.h</text>
</a>
</g>
</g>
<!-- Node3&#45;&gt;Node5 -->
<g id="edge4" class="edge">
<title>Node3&#45;&gt;Node5</title>
<path fill="none" stroke="midnightblue" d="M99,-61.98C99,-53.58 99,-40.48 99,-29.66"/>
<polygon fill="midnightblue" stroke="midnightblue" points="102.5,-29.51 99,-19.51 95.5,-29.51 102.5,-29.51"/>
</g>
<!-- Node6 -->
<g id="node6" class="node">
<title>Node6</title>
<g id="a_node6"><a xlink:title=" ">
<polygon fill="none" stroke="#bfbfbf" points="141.5,-0.5 141.5,-19.5 190.5,-19.5 190.5,-0.5 141.5,-0.5"/>
<text text-anchor="middle" x="166" y="-7.5" font-family="Helvetica,sans-Serif" font-size="10.00">string.h</text>
</a>
</g>
</g>
<!-- Node3&#45;&gt;Node6 -->
<g id="edge5" class="edge">
<title>Node3&#45;&gt;Node6</title>
<path fill="none" stroke="midnightblue" d="M108.6,-61.98C119.05,-52.7 135.97,-37.67 148.74,-26.33"/>
<polygon fill="midnightblue" stroke="midnightblue" points="151.27,-28.77 156.42,-19.51 146.62,-23.53 151.27,-28.77"/>
</g>
<!-- Node16&#45;&gt;Node12 -->
<g id="edge18" class="edge">
<title>Node16&#45;&gt;Node12</title>
<path fill="none" stroke="midnightblue" d="M698.67,-123.48C682.34,-113.75 655.4,-97.73 636.09,-86.24"/>
<polygon fill="midnightblue" stroke="midnightblue" points="637.68,-83.11 627.3,-81.01 634.11,-89.13 637.68,-83.11"/>
</g>
<!-- Node16&#45;&gt;Node13 -->
<g id="edge19" class="edge">
<title>Node16&#45;&gt;Node13</title>
<path fill="none" stroke="midnightblue" d="M715.44,-123.48C717.86,-114.99 721.66,-101.7 724.77,-90.82"/>
<polygon fill="midnightblue" stroke="midnightblue" points="728.19,-91.59 727.57,-81.01 721.46,-89.66 728.19,-91.59"/>
</g>
<!-- Node16&#45;&gt;Node14 -->
<g id="edge20" class="edge">
<title>Node16&#45;&gt;Node14</title>
<path fill="none" stroke="midnightblue" d="M733.2,-123.48C753.55,-114.89 785.56,-101.38 811.51,-90.43"/>
<polygon fill="midnightblue" stroke="midnightblue" points="812.92,-93.64 820.77,-86.52 810.2,-87.19 812.92,-93.64"/>
</g>
<!-- Node16&#45;&gt;Node15 -->
<g id="edge21" class="edge">
<title>Node16&#45;&gt;Node15</title>
<path fill="none" stroke="midnightblue" d="M753.12,-123.48C795.81,-114.4 864.35,-99.84 917.26,-88.6"/>
<polygon fill="midnightblue" stroke="midnightblue" points="918.23,-91.97 927.28,-86.47 916.77,-85.12 918.23,-91.97"/>
</g>
<!-- Node16&#45;&gt;Node16 -->
<g id="edge22" class="edge">
<title>Node16&#45;&gt;Node16</title>
<path fill="none" stroke="midnightblue" d="M750.85,-142.53C782.46,-146.61 815.5,-143.43 815.5,-133 815.5,-123.67 789.06,-120.14 760.86,-122.42"/>
<polygon fill="midnightblue" stroke="midnightblue" points="760.43,-118.95 750.85,-123.47 761.16,-125.91 760.43,-118.95"/>
</g>
</g>
</svg>
