<?xml version="1.0" encoding="UTF-8" standalone="no"?>
<!DOCTYPE svg PUBLIC "-//W3C//DTD SVG 1.1//EN"
 "http://www.w3.org/Graphics/SVG/1.1/DTD/svg11.dtd">
<!-- Generated by graphviz version 2.43.0 (0)
 -->
<!-- Title: test/TestSimulation.cpp Pages: 1 -->
<svg width="2297pt" height="431pt"
 viewBox="0.00 0.00 2296.50 431.00" xmlns="http://www.w3.org/2000/svg" xmlns:xlink="http://www.w3.org/1999/xlink">
<g id="graph0" class="graph" transform="scale(1 1) rotate(0) translate(4 427)">
<title>test/TestSimulation.cpp</title>
<!-- Node1 -->
<g id="node1" class="node">
<title>Node1</title>
<g id="a_node1"><a xlink:title=" ">
<polygon fill="#bfbfbf" stroke="black" points="1948,-403.5 1948,-422.5 2067,-422.5 2067,-403.5 1948,-403.5"/>
<text text-anchor="middle" x="2007.5" y="-410.5" font-family="Helvetica,sans-Serif" font-size="10.00">test/TestSimulation.cpp</text>
</a>
</g>
</g>
<!-- Node2 -->
<g id="node2" class="node">
<title>Node2</title>
<g id="a_node2"><a xlink:href="Engine_8hpp.html" target="_top" xlink:title=" ">
<polygon fill="none" stroke="black" points="1143,-347.5 1143,-366.5 1208,-366.5 1208,-347.5 1143,-347.5"/>
<text text-anchor="middle" x="1175.5" y="-354.5" font-family="Helvetica,sans-Serif" font-size="10.00">Engine.hpp</text>
</a>
</g>
</g>
<!-- Node1&#45;&gt;Node2 -->
<g id="edge1" class="edge">
<title>Node1&#45;&gt;Node2</title>
<path fill="none" stroke="midnightblue" d="M1948,-408.14C1788.87,-397.81 1356.25,-369.73 1218.34,-360.78"/>
<polygon fill="midnightblue" stroke="midnightblue" points="1218.38,-357.28 1208.18,-360.12 1217.93,-364.26 1218.38,-357.28"/>
</g>
<!-- Node4 -->
<g id="node4" class="node">
<title>Node4</title>
<g id="a_node4"><a xlink:href="SystemData_8hpp.html" target="_top" xlink:title=" ">
<polygon fill="none" stroke="black" points="1298.5,-179.5 1298.5,-198.5 1388.5,-198.5 1388.5,-179.5 1298.5,-179.5"/>
<text text-anchor="middle" x="1343.5" y="-186.5" font-family="Helvetica,sans-Serif" font-size="10.00">SystemData.hpp</text>
</a>
</g>
</g>
<!-- Node1&#45;&gt;Node4 -->
<g id="edge69" class="edge">
<title>Node1&#45;&gt;Node4</title>
<path fill="none" stroke="midnightblue" d="M1967.17,-403.44C1929.85,-395.2 1872.99,-381.83 1824.5,-367 1651.05,-313.94 1448.84,-233.15 1373.66,-202.44"/>
<polygon fill="midnightblue" stroke="midnightblue" points="1374.89,-199.16 1364.31,-198.61 1372.24,-205.64 1374.89,-199.16"/>
</g>
<!-- Node6 -->
<g id="node6" class="node">
<title>Node6</title>
<g id="a_node6"><a xlink:href="gsd_8h.html" target="_top" xlink:title="Declare GSD data types and C API.">
<polygon fill="none" stroke="black" points="1814,-62 1814,-81 1855,-81 1855,-62 1814,-62"/>
<text text-anchor="middle" x="1834.5" y="-69" font-family="Helvetica,sans-Serif" font-size="10.00">gsd.h</text>
</a>
</g>
</g>
<!-- Node1&#45;&gt;Node6 -->
<g id="edge71" class="edge">
<title>Node1&#45;&gt;Node6</title>
<path fill="none" stroke="midnightblue" d="M2027.24,-403.41C2042.59,-395.83 2063.39,-383.44 2076.5,-367 2095.7,-342.93 2100.5,-332.8 2100.5,-302 2100.5,-302 2100.5,-302 2100.5,-188 2100.5,-157.2 2099.83,-143.11 2076.5,-123 2045.05,-95.89 1922.93,-80.92 1865.14,-75.22"/>
<polygon fill="midnightblue" stroke="midnightblue" points="1865.42,-71.73 1855.14,-74.26 1864.76,-78.7 1865.42,-71.73"/>
</g>
<!-- Node10 -->
<g id="node10" class="node">
<title>Node10</title>
<g id="a_node10"><a xlink:title=" ">
<polygon fill="none" stroke="#bfbfbf" points="1183.5,-56.5 1183.5,-86.5 1281.5,-86.5 1281.5,-56.5 1183.5,-56.5"/>
<text text-anchor="start" x="1191.5" y="-74.5" font-family="Helvetica,sans-Serif" font-size="10.00">spdlog/sinks/basic</text>
<text text-anchor="middle" x="1232.5" y="-63.5" font-family="Helvetica,sans-Serif" font-size="10.00">_file_sink.h</text>
</a>
</g>
</g>
<!-- Node1&#45;&gt;Node10 -->
<g id="edge73" class="edge">
<title>Node1&#45;&gt;Node10</title>
<path fill="none" stroke="midnightblue" d="M1992.57,-403.28C1927.04,-365.3 1657.57,-212.22 1420.5,-123 1408.27,-118.4 1342.18,-100.92 1291.78,-87.8"/>
<polygon fill="midnightblue" stroke="midnightblue" points="1292.49,-84.37 1281.93,-85.25 1290.73,-91.15 1292.49,-84.37"/>
</g>
<!-- Node11 -->
<g id="node11" class="node">
<title>Node11</title>
<g id="a_node11"><a xlink:title=" ">
<polygon fill="none" stroke="#bfbfbf" points="1515,-62 1515,-81 1600,-81 1600,-62 1515,-62"/>
<text text-anchor="middle" x="1557.5" y="-69" font-family="Helvetica,sans-Serif" font-size="10.00">spdlog/spdlog.h</text>
</a>
</g>
</g>
<!-- Node1&#45;&gt;Node11 -->
<g id="edge74" class="edge">
<title>Node1&#45;&gt;Node11</title>
<path fill="none" stroke="midnightblue" d="M2005.04,-403.3C1993.05,-362.71 1936.5,-191 1820.5,-123 1742.2,-77.11 1708.38,-105.34 1619.5,-87 1614.02,-85.87 1608.28,-84.62 1602.6,-83.34"/>
<polygon fill="midnightblue" stroke="midnightblue" points="1603.04,-79.85 1592.51,-81.03 1601.48,-86.67 1603.04,-79.85"/>
</g>
<!-- Node12 -->
<g id="node12" class="node">
<title>Node12</title>
<g id="a_node12"><a xlink:title=" ">
<polygon fill="none" stroke="#bfbfbf" points="1628.5,-62 1628.5,-81 1680.5,-81 1680.5,-62 1628.5,-62"/>
<text text-anchor="middle" x="1654.5" y="-69" font-family="Helvetica,sans-Serif" font-size="10.00">memory</text>
</a>
</g>
</g>
<!-- Node1&#45;&gt;Node12 -->
<g id="edge76" class="edge">
<title>Node1&#45;&gt;Node12</title>
<path fill="none" stroke="midnightblue" d="M2009.79,-403.23C2014.43,-384.69 2024.5,-340.07 2024.5,-302 2024.5,-302 2024.5,-302 2024.5,-188 2024.5,-153.22 1783.17,-99.28 1690.31,-79.82"/>
<polygon fill="midnightblue" stroke="midnightblue" points="1691.02,-76.39 1680.52,-77.78 1689.59,-83.24 1691.02,-76.39"/>
</g>
<!-- Node14 -->
<g id="node14" class="node">
<title>Node14</title>
<g id="a_node14"><a xlink:title=" ">
<polygon fill="none" stroke="#bfbfbf" points="1736,-62 1736,-81 1777,-81 1777,-62 1736,-62"/>
<text text-anchor="middle" x="1756.5" y="-69" font-family="Helvetica,sans-Serif" font-size="10.00">string</text>
</a>
</g>
</g>
<!-- Node1&#45;&gt;Node14 -->
<g id="edge77" class="edge">
<title>Node1&#45;&gt;Node14</title>
<path fill="none" stroke="midnightblue" d="M2015.38,-403.33C2030.59,-385.67 2062.5,-343.64 2062.5,-302 2062.5,-302 2062.5,-302 2062.5,-188 2062.5,-157.2 2062.34,-142.49 2038.5,-123 1957.37,-56.69 1907.75,-109.92 1805.5,-87 1799.51,-85.66 1793.18,-83.98 1787.13,-82.25"/>
<polygon fill="midnightblue" stroke="midnightblue" points="1787.9,-78.83 1777.32,-79.33 1785.91,-85.54 1787.9,-78.83"/>
</g>
<!-- Node20 -->
<g id="node20" class="node">
<title>Node20</title>
<g id="a_node20"><a xlink:title=" ">
<polygon fill="none" stroke="#bfbfbf" points="1678.5,-123.5 1678.5,-142.5 1768.5,-142.5 1768.5,-123.5 1678.5,-123.5"/>
<text text-anchor="middle" x="1723.5" y="-130.5" font-family="Helvetica,sans-Serif" font-size="10.00">spdlog/fmt/ostr.h</text>
</a>
</g>
</g>
<!-- Node1&#45;&gt;Node20 -->
<g id="edge72" class="edge">
<title>Node1&#45;&gt;Node20</title>
<path fill="none" stroke="midnightblue" d="M1995.37,-403.3C1984.15,-394.86 1967.46,-381.28 1955.5,-367 1893.04,-292.45 1918.13,-241.37 1843.5,-179 1824.24,-162.9 1798.65,-152.26 1776.06,-145.38"/>
<polygon fill="midnightblue" stroke="midnightblue" points="1776.83,-141.96 1766.25,-142.57 1774.9,-148.69 1776.83,-141.96"/>
</g>
<!-- Node29 -->
<g id="node29" class="node">
<title>Node29</title>
<g id="a_node29"><a xlink:title=" ">
<polygon fill="none" stroke="#bfbfbf" points="2128.5,-347.5 2128.5,-366.5 2220.5,-366.5 2220.5,-347.5 2128.5,-347.5"/>
<text text-anchor="middle" x="2174.5" y="-354.5" font-family="Helvetica,sans-Serif" font-size="10.00">catch2/catch.hpp</text>
</a>
</g>
</g>
<!-- Node1&#45;&gt;Node29 -->
<g id="edge70" class="edge">
<title>Node1&#45;&gt;Node29</title>
<path fill="none" stroke="midnightblue" d="M2033.96,-403.44C2062.18,-394.32 2107.04,-379.81 2138.47,-369.65"/>
<polygon fill="midnightblue" stroke="midnightblue" points="2139.72,-372.92 2148.16,-366.52 2137.57,-366.26 2139.72,-372.92"/>
</g>
<!-- Node30 -->
<g id="node30" class="node">
<title>Node30</title>
<g id="a_node30"><a xlink:title=" ">
<polygon fill="none" stroke="#bfbfbf" points="2238.5,-347.5 2238.5,-366.5 2288.5,-366.5 2288.5,-347.5 2238.5,-347.5"/>
<text text-anchor="middle" x="2263.5" y="-354.5" font-family="Helvetica,sans-Serif" font-size="10.00">fstream</text>
</a>
</g>
</g>
<!-- Node1&#45;&gt;Node30 -->
<g id="edge75" class="edge">
<title>Node1&#45;&gt;Node30</title>
<path fill="none" stroke="midnightblue" d="M2053.59,-403.48C2096.5,-395.36 2162.45,-382.41 2228.54,-367.12"/>
<polygon fill="midnightblue" stroke="midnightblue" points="2229.35,-370.53 2238.29,-364.85 2227.76,-363.71 2229.35,-370.53"/>
</g>
<!-- Node3 -->
<g id="node3" class="node">
<title>Node3</title>
<g id="a_node3"><a xlink:href="PotentialHydrodynamics_8hpp.html" target="_top" xlink:title=" ">
<polygon fill="none" stroke="black" points="977.5,-235.5 977.5,-254.5 1119.5,-254.5 1119.5,-235.5 977.5,-235.5"/>
<text text-anchor="middle" x="1048.5" y="-242.5" font-family="Helvetica,sans-Serif" font-size="10.00">PotentialHydrodynamics.hpp</text>
</a>
</g>
</g>
<!-- Node2&#45;&gt;Node3 -->
<g id="edge2" class="edge">
<title>Node2&#45;&gt;Node3</title>
<path fill="none" stroke="midnightblue" d="M1165.53,-347.37C1144.11,-328.81 1093.43,-284.91 1066.32,-261.44"/>
<polygon fill="midnightblue" stroke="midnightblue" points="1068.27,-258.49 1058.42,-254.59 1063.69,-263.78 1068.27,-258.49"/>
</g>
<!-- Node2&#45;&gt;Node4 -->
<g id="edge57" class="edge">
<title>Node2&#45;&gt;Node4</title>
<path fill="none" stroke="midnightblue" d="M1208.49,-349.02C1232.09,-342.58 1263.31,-330.91 1284.5,-311 1315.05,-282.29 1331.75,-234.41 1339.02,-208.32"/>
<polygon fill="midnightblue" stroke="midnightblue" points="1342.42,-209.15 1341.57,-198.59 1335.65,-207.37 1342.42,-209.15"/>
</g>
<!-- Node2&#45;&gt;Node10 -->
<g id="edge63" class="edge">
<title>Node2&#45;&gt;Node10</title>
<path fill="none" stroke="midnightblue" d="M1208.19,-349.91C1280.27,-335.55 1446.5,-296.9 1446.5,-246 1446.5,-246 1446.5,-246 1446.5,-188 1446.5,-149.58 1421.62,-144.09 1389.5,-123 1373.02,-112.18 1328.85,-98.39 1291.54,-87.95"/>
<polygon fill="midnightblue" stroke="midnightblue" points="1292.3,-84.53 1281.73,-85.24 1290.43,-91.28 1292.3,-84.53"/>
</g>
<!-- Node2&#45;&gt;Node11 -->
<g id="edge64" class="edge">
<title>Node2&#45;&gt;Node11</title>
<path fill="none" stroke="midnightblue" d="M1208.15,-350.8C1328.59,-330.81 1743.91,-254.41 1801.5,-143 1852.47,-44.39 1840.95,-134.78 1619.5,-87 1614.16,-85.85 1608.58,-84.6 1603.04,-83.34"/>
<polygon fill="midnightblue" stroke="midnightblue" points="1603.72,-79.9 1593.19,-81.07 1602.15,-86.73 1603.72,-79.9"/>
</g>
<!-- Node2&#45;&gt;Node12 -->
<g id="edge66" class="edge">
<title>Node2&#45;&gt;Node12</title>
<path fill="none" stroke="midnightblue" d="M1208.09,-355.64C1303.99,-352.98 1589.76,-333.56 1769.5,-199 1802.06,-174.62 1844.72,-155.68 1820.5,-123 1812.6,-112.34 1736.96,-92.44 1690.55,-81.06"/>
<polygon fill="midnightblue" stroke="midnightblue" points="1691.11,-77.59 1680.56,-78.63 1689.45,-84.39 1691.11,-77.59"/>
</g>
<!-- Node13 -->
<g id="node13" class="node">
<title>Node13</title>
<g id="a_node13"><a xlink:title=" ">
<polygon fill="none" stroke="#bfbfbf" points="1300,-62 1300,-81 1359,-81 1359,-62 1300,-62"/>
<text text-anchor="middle" x="1329.5" y="-69" font-family="Helvetica,sans-Serif" font-size="10.00">stdexcept</text>
</a>
</g>
</g>
<!-- Node2&#45;&gt;Node13 -->
<g id="edge67" class="edge">
<title>Node2&#45;&gt;Node13</title>
<path fill="none" stroke="midnightblue" d="M1191.19,-347.4C1218.17,-331.31 1270.5,-293.94 1270.5,-246 1270.5,-246 1270.5,-246 1270.5,-188 1270.5,-149.01 1297.49,-109.93 1314.96,-88.71"/>
<polygon fill="midnightblue" stroke="midnightblue" points="1317.71,-90.88 1321.54,-81.01 1312.39,-86.34 1317.71,-90.88"/>
</g>
<!-- Node2&#45;&gt;Node14 -->
<g id="edge68" class="edge">
<title>Node2&#45;&gt;Node14</title>
<path fill="none" stroke="midnightblue" d="M1208.03,-355.37C1276.66,-353.37 1440.82,-345.1 1573.5,-311 1636.81,-294.73 1651.48,-285.11 1709.5,-255 1776.6,-220.18 1814.43,-214.99 1837.5,-143 1840.21,-134.54 1841.81,-130.77 1837.5,-123 1826.66,-103.47 1804.78,-90.51 1786.5,-82.61"/>
<polygon fill="midnightblue" stroke="midnightblue" points="1787.65,-79.3 1777.07,-78.83 1785.05,-85.8 1787.65,-79.3"/>
</g>
<!-- Node15 -->
<g id="node15" class="node">
<title>Node15</title>
<g id="a_node15"><a xlink:title=" ">
<polygon fill="none" stroke="#bfbfbf" points="400,-62 400,-81 497,-81 497,-62 400,-62"/>
<text text-anchor="middle" x="448.5" y="-69" font-family="Helvetica,sans-Serif" font-size="10.00">eigen3/Eigen/Core</text>
</a>
</g>
</g>
<!-- Node2&#45;&gt;Node15 -->
<g id="edge58" class="edge">
<title>Node2&#45;&gt;Node15</title>
<path fill="none" stroke="midnightblue" d="M1142.91,-355.66C980.15,-353.79 259.52,-343.73 165.5,-311 118.9,-294.78 75.5,-295.34 75.5,-246 75.5,-246 75.5,-246 75.5,-188 75.5,-123.05 284.48,-90.62 389.59,-78.42"/>
<polygon fill="midnightblue" stroke="midnightblue" points="390.2,-81.87 399.74,-77.26 389.41,-74.92 390.2,-81.87"/>
</g>
<!-- Node16 -->
<g id="node16" class="node">
<title>Node16</title>
<g id="a_node16"><a xlink:title=" ">
<polygon fill="none" stroke="#bfbfbf" points="802,-62 802,-81 903,-81 903,-62 802,-62"/>
<text text-anchor="middle" x="852.5" y="-69" font-family="Helvetica,sans-Serif" font-size="10.00">eigen3/Eigen/Eigen</text>
</a>
</g>
</g>
<!-- Node2&#45;&gt;Node16 -->
<g id="edge59" class="edge">
<title>Node2&#45;&gt;Node16</title>
<path fill="none" stroke="midnightblue" d="M1142.79,-355.09C1082.5,-352.64 950.34,-343.67 844.5,-311 714.82,-270.97 648.92,-265.02 589.5,-143 585.61,-135.01 583.84,-129.85 589.5,-123 614.61,-92.62 721.82,-80.33 791.36,-75.49"/>
<polygon fill="midnightblue" stroke="midnightblue" points="792.01,-78.96 801.76,-74.81 791.55,-71.97 792.01,-78.96"/>
</g>
<!-- Node17 -->
<g id="node17" class="node">
<title>Node17</title>
<g id="a_node17"><a xlink:title=" ">
<polygon fill="none" stroke="#bfbfbf" points="949.5,-56.5 949.5,-86.5 1059.5,-86.5 1059.5,-56.5 949.5,-56.5"/>
<text text-anchor="start" x="957.5" y="-74.5" font-family="Helvetica,sans-Serif" font-size="10.00">eigen3/unsupported</text>
<text text-anchor="middle" x="1004.5" y="-63.5" font-family="Helvetica,sans-Serif" font-size="10.00">/Eigen/CXX11/Tensor</text>
</a>
</g>
</g>
<!-- Node2&#45;&gt;Node17 -->
<g id="edge60" class="edge">
<title>Node2&#45;&gt;Node17</title>
<path fill="none" stroke="midnightblue" d="M1173.08,-347.42C1167.16,-327.09 1150.77,-274.7 1128.5,-235 1098.03,-180.68 1051.06,-124.47 1024.53,-94.49"/>
<polygon fill="midnightblue" stroke="midnightblue" points="1026.9,-91.88 1017.63,-86.75 1021.68,-96.54 1026.9,-91.88"/>
</g>
<!-- Node18 -->
<g id="node18" class="node">
<title>Node18</title>
<g id="a_node18"><a xlink:title=" ">
<polygon fill="none" stroke="#bfbfbf" points="515,-56.5 515,-86.5 646,-86.5 646,-56.5 515,-56.5"/>
<text text-anchor="start" x="523" y="-74.5" font-family="Helvetica,sans-Serif" font-size="10.00">eigen3/unsupported</text>
<text text-anchor="middle" x="580.5" y="-63.5" font-family="Helvetica,sans-Serif" font-size="10.00">/Eigen/CXX11/ThreadPool</text>
</a>
</g>
</g>
<!-- Node2&#45;&gt;Node18 -->
<g id="edge61" class="edge">
<title>Node2&#45;&gt;Node18</title>
<path fill="none" stroke="midnightblue" d="M1142.52,-356.33C997.26,-357.49 414.05,-359.02 238.5,-311 187.11,-296.94 160,-300.63 132.5,-255 72.37,-155.22 -81.18,-276.49 328.5,-123 332.72,-121.42 432.09,-101.7 504.76,-87.38"/>
<polygon fill="midnightblue" stroke="midnightblue" points="505.69,-90.76 514.82,-85.4 504.33,-83.89 505.69,-90.76"/>
</g>
<!-- Node19 -->
<g id="node19" class="node">
<title>Node19</title>
<g id="a_node19"><a xlink:href="helper__eigenTensorConversion_8hpp.html" target="_top" xlink:title=" ">
<polygon fill="none" stroke="black" points="599,-123.5 599,-142.5 768,-142.5 768,-123.5 599,-123.5"/>
<text text-anchor="middle" x="683.5" y="-130.5" font-family="Helvetica,sans-Serif" font-size="10.00">helper_eigenTensorConversion.hpp</text>
</a>
</g>
</g>
<!-- Node2&#45;&gt;Node19 -->
<g id="edge62" class="edge">
<title>Node2&#45;&gt;Node19</title>
<path fill="none" stroke="midnightblue" d="M1142.82,-354.99C1089.28,-352.42 980.27,-343.3 894.5,-311 812.24,-280.02 793.29,-261.52 731.5,-199 716.92,-184.25 703.17,-164.85 694.15,-151.1"/>
<polygon fill="midnightblue" stroke="midnightblue" points="697.05,-149.14 688.71,-142.6 691.16,-152.91 697.05,-149.14"/>
</g>
<!-- Node23 -->
<g id="node23" class="node">
<title>Node23</title>
<g id="a_node23"><a xlink:href="ProgressBar_8hpp.html" target="_top" xlink:title=" ">
<polygon fill="none" stroke="black" points="248,-291.5 248,-310.5 337,-310.5 337,-291.5 248,-291.5"/>
<text text-anchor="middle" x="292.5" y="-298.5" font-family="Helvetica,sans-Serif" font-size="10.00">ProgressBar.hpp</text>
</a>
</g>
</g>
<!-- Node2&#45;&gt;Node23 -->
<g id="edge41" class="edge">
<title>Node2&#45;&gt;Node23</title>
<path fill="none" stroke="midnightblue" d="M1142.76,-354C1010.31,-345.9 513.31,-315.5 347.06,-305.34"/>
<polygon fill="midnightblue" stroke="midnightblue" points="347.25,-301.84 337.06,-304.73 346.83,-308.83 347.25,-301.84"/>
</g>
<!-- Node27 -->
<g id="node27" class="node">
<title>Node27</title>
<g id="a_node27"><a xlink:href="RungeKutta4_8hpp.html" target="_top" xlink:title=" ">
<polygon fill="none" stroke="black" points="903.5,-291.5 903.5,-310.5 995.5,-310.5 995.5,-291.5 903.5,-291.5"/>
<text text-anchor="middle" x="949.5" y="-298.5" font-family="Helvetica,sans-Serif" font-size="10.00">RungeKutta4.hpp</text>
</a>
</g>
</g>
<!-- Node2&#45;&gt;Node27 -->
<g id="edge46" class="edge">
<title>Node2&#45;&gt;Node27</title>
<path fill="none" stroke="midnightblue" d="M1142.64,-348.15C1103.79,-338.87 1038.92,-323.37 995.2,-312.92"/>
<polygon fill="midnightblue" stroke="midnightblue" points="995.93,-309.5 985.39,-310.58 994.3,-316.3 995.93,-309.5"/>
</g>
<!-- Node28 -->
<g id="node28" class="node">
<title>Node28</title>
<g id="a_node28"><a xlink:title=" ">
<polygon fill="none" stroke="#bfbfbf" points="0,-291.5 0,-310.5 47,-310.5 47,-291.5 0,-291.5"/>
<text text-anchor="middle" x="23.5" y="-298.5" font-family="Helvetica,sans-Serif" font-size="10.00">math.h</text>
</a>
</g>
</g>
<!-- Node2&#45;&gt;Node28 -->
<g id="edge65" class="edge">
<title>Node2&#45;&gt;Node28</title>
<path fill="none" stroke="midnightblue" d="M1142.92,-355.53C982.82,-353.09 278.55,-340.8 61.5,-311 60.03,-310.8 58.54,-310.57 57.03,-310.31"/>
<polygon fill="midnightblue" stroke="midnightblue" points="57.58,-306.85 47.08,-308.33 56.21,-313.71 57.58,-306.85"/>
</g>
<!-- Node3&#45;&gt;Node4 -->
<g id="edge3" class="edge">
<title>Node3&#45;&gt;Node4</title>
<path fill="none" stroke="midnightblue" d="M1095.24,-235.44C1147.7,-225.84 1232.74,-210.28 1288.39,-200.09"/>
<polygon fill="midnightblue" stroke="midnightblue" points="1289.22,-203.49 1298.43,-198.25 1287.96,-196.61 1289.22,-203.49"/>
</g>
<!-- Node3&#45;&gt;Node10 -->
<g id="edge39" class="edge">
<title>Node3&#45;&gt;Node10</title>
<path fill="none" stroke="midnightblue" d="M1053.47,-235.43C1066.1,-214.22 1101.38,-158.41 1142.5,-123 1157.03,-110.49 1175.13,-99.62 1191.29,-91.2"/>
<polygon fill="midnightblue" stroke="midnightblue" points="1193.19,-94.16 1200.53,-86.53 1190.03,-87.91 1193.19,-94.16"/>
</g>
<!-- Node3&#45;&gt;Node11 -->
<g id="edge40" class="edge">
<title>Node3&#45;&gt;Node11</title>
<path fill="none" stroke="midnightblue" d="M1065.05,-235.47C1107.56,-213.86 1224.51,-156.29 1327.5,-123 1387.12,-103.73 1457.78,-89.43 1504.9,-81.06"/>
<polygon fill="midnightblue" stroke="midnightblue" points="1505.63,-84.49 1514.88,-79.31 1504.43,-77.59 1505.63,-84.49"/>
</g>
<!-- Node3&#45;&gt;Node15 -->
<g id="edge34" class="edge">
<title>Node3&#45;&gt;Node15</title>
<path fill="none" stroke="midnightblue" d="M977.25,-242.76C897.12,-239.8 763.77,-230.12 653.5,-199 596.86,-183.02 583.22,-174.49 533.5,-143 507.84,-126.75 481.4,-103.62 464.96,-88.35"/>
<polygon fill="midnightblue" stroke="midnightblue" points="467.01,-85.47 457.33,-81.15 462.2,-90.56 467.01,-85.47"/>
</g>
<!-- Node3&#45;&gt;Node16 -->
<g id="edge35" class="edge">
<title>Node3&#45;&gt;Node16</title>
<path fill="none" stroke="midnightblue" d="M1038.78,-235.5C1007.63,-208.24 909.97,-122.78 869.91,-87.73"/>
<polygon fill="midnightblue" stroke="midnightblue" points="872.11,-85.01 862.28,-81.06 867.5,-90.28 872.11,-85.01"/>
</g>
<!-- Node3&#45;&gt;Node17 -->
<g id="edge36" class="edge">
<title>Node3&#45;&gt;Node17</title>
<path fill="none" stroke="midnightblue" d="M1043.89,-235.27C1039.37,-226.37 1032.58,-212.06 1028.5,-199 1017.65,-164.28 1010.9,-122.58 1007.41,-96.8"/>
<polygon fill="midnightblue" stroke="midnightblue" points="1010.87,-96.27 1006.12,-86.8 1003.93,-97.17 1010.87,-96.27"/>
</g>
<!-- Node3&#45;&gt;Node18 -->
<g id="edge37" class="edge">
<title>Node3&#45;&gt;Node18</title>
<path fill="none" stroke="midnightblue" d="M977.49,-238.37C861.75,-227.62 640.2,-200.01 589.5,-143 578.48,-130.61 576.55,-111.8 577.2,-96.73"/>
<polygon fill="midnightblue" stroke="midnightblue" points="580.71,-96.81 578.04,-86.56 573.73,-96.23 580.71,-96.81"/>
</g>
<!-- Node3&#45;&gt;Node19 -->
<g id="edge38" class="edge">
<title>Node3&#45;&gt;Node19</title>
<path fill="none" stroke="midnightblue" d="M1013.05,-235.49C978.14,-226.92 923.37,-213.01 876.5,-199 819.9,-182.09 754.98,-159.57 716.7,-145.96"/>
<polygon fill="midnightblue" stroke="midnightblue" points="717.7,-142.6 707.1,-142.54 715.34,-149.19 717.7,-142.6"/>
</g>
<!-- Node5 -->
<g id="node5" class="node">
<title>Node5</title>
<g id="a_node5"><a xlink:href="GSDUtil_8hpp.html" target="_top" xlink:title=" ">
<polygon fill="none" stroke="black" points="1512.5,-123.5 1512.5,-142.5 1584.5,-142.5 1584.5,-123.5 1512.5,-123.5"/>
<text text-anchor="middle" x="1548.5" y="-130.5" font-family="Helvetica,sans-Serif" font-size="10.00">GSDUtil.hpp</text>
</a>
</g>
</g>
<!-- Node4&#45;&gt;Node5 -->
<g id="edge4" class="edge">
<title>Node4&#45;&gt;Node5</title>
<path fill="none" stroke="midnightblue" d="M1370.89,-179.44C1404.53,-170.04 1461.79,-154.92 1502.26,-144.73"/>
<polygon fill="midnightblue" stroke="midnightblue" points="1503.31,-148.07 1512.16,-142.25 1501.61,-141.28 1503.31,-148.07"/>
</g>
<!-- Node4&#45;&gt;Node6 -->
<g id="edge15" class="edge">
<title>Node4&#45;&gt;Node6</title>
<path fill="none" stroke="midnightblue" d="M1388.61,-187.65C1485.75,-186.2 1711.25,-178.94 1777.5,-143 1799.47,-131.08 1816.12,-106.81 1825.59,-90.11"/>
<polygon fill="midnightblue" stroke="midnightblue" points="1828.68,-91.76 1830.33,-81.3 1822.51,-88.45 1828.68,-91.76"/>
</g>
<!-- Node4&#45;&gt;Node10 -->
<g id="edge27" class="edge">
<title>Node4&#45;&gt;Node10</title>
<path fill="none" stroke="midnightblue" d="M1335.16,-179.32C1317.89,-161.35 1277.77,-119.61 1253.11,-93.95"/>
<polygon fill="midnightblue" stroke="midnightblue" points="1255.45,-91.33 1246,-86.55 1250.4,-96.18 1255.45,-91.33"/>
</g>
<!-- Node4&#45;&gt;Node11 -->
<g id="edge28" class="edge">
<title>Node4&#45;&gt;Node11</title>
<path fill="none" stroke="midnightblue" d="M1359.58,-179.32C1396.62,-159.33 1488.15,-109.93 1532.55,-85.97"/>
<polygon fill="midnightblue" stroke="midnightblue" points="1534.38,-88.95 1541.52,-81.12 1531.06,-82.79 1534.38,-88.95"/>
</g>
<!-- Node4&#45;&gt;Node12 -->
<g id="edge30" class="edge">
<title>Node4&#45;&gt;Node12</title>
<path fill="none" stroke="midnightblue" d="M1388.52,-188.71C1441.05,-187.64 1528.93,-179.78 1593.5,-143 1615.84,-130.28 1633.94,-106.2 1644.46,-89.76"/>
<polygon fill="midnightblue" stroke="midnightblue" points="1647.52,-91.46 1649.76,-81.11 1641.55,-87.81 1647.52,-91.46"/>
</g>
<!-- Node4&#45;&gt;Node13 -->
<g id="edge31" class="edge">
<title>Node4&#45;&gt;Node13</title>
<path fill="none" stroke="midnightblue" d="M1339.39,-179.28C1335.44,-170.38 1329.76,-156.07 1327.5,-143 1324.51,-125.67 1325.5,-105.6 1326.95,-91.31"/>
<polygon fill="midnightblue" stroke="midnightblue" points="1330.44,-91.6 1328.15,-81.26 1323.49,-90.78 1330.44,-91.6"/>
</g>
<!-- Node4&#45;&gt;Node14 -->
<g id="edge32" class="edge">
<title>Node4&#45;&gt;Node14</title>
<path fill="none" stroke="midnightblue" d="M1388.99,-184.97C1444.56,-180.27 1540.88,-168.92 1619.5,-143 1662.26,-128.9 1708.02,-102.86 1734.35,-86.68"/>
<polygon fill="midnightblue" stroke="midnightblue" points="1736.49,-89.47 1743.13,-81.21 1732.79,-83.53 1736.49,-89.47"/>
</g>
<!-- Node4&#45;&gt;Node15 -->
<g id="edge16" class="edge">
<title>Node4&#45;&gt;Node15</title>
<path fill="none" stroke="midnightblue" d="M1298.25,-187.68C1156.8,-186.29 724.41,-179.12 589.5,-143 544.33,-130.91 496.65,-103.55 469.93,-86.69"/>
<polygon fill="midnightblue" stroke="midnightblue" points="471.69,-83.67 461.39,-81.21 467.91,-89.56 471.69,-83.67"/>
</g>
<!-- Node4&#45;&gt;Node16 -->
<g id="edge17" class="edge">
<title>Node4&#45;&gt;Node16</title>
<path fill="none" stroke="midnightblue" d="M1306.85,-179.49C1268.02,-170.47 1204.93,-155.78 1150.5,-143 1061.15,-122.01 956.79,-97.27 898.3,-83.38"/>
<polygon fill="midnightblue" stroke="midnightblue" points="898.81,-79.91 888.27,-81 897.19,-86.72 898.81,-79.91"/>
</g>
<!-- Node4&#45;&gt;Node17 -->
<g id="edge18" class="edge">
<title>Node4&#45;&gt;Node17</title>
<path fill="none" stroke="midnightblue" d="M1318.3,-179.41C1262.79,-160.5 1129.06,-114.94 1055.36,-89.83"/>
<polygon fill="midnightblue" stroke="midnightblue" points="1056.41,-86.49 1045.81,-86.58 1054.15,-93.11 1056.41,-86.49"/>
</g>
<!-- Node4&#45;&gt;Node18 -->
<g id="edge19" class="edge">
<title>Node4&#45;&gt;Node18</title>
<path fill="none" stroke="midnightblue" d="M1298.34,-181.16C1171.94,-162.03 813.6,-107.79 656.22,-83.96"/>
<polygon fill="midnightblue" stroke="midnightblue" points="656.56,-80.47 646.14,-82.44 655.51,-87.39 656.56,-80.47"/>
</g>
<!-- Node4&#45;&gt;Node19 -->
<g id="edge20" class="edge">
<title>Node4&#45;&gt;Node19</title>
<path fill="none" stroke="midnightblue" d="M1298.4,-184.31C1191.8,-175.59 922.48,-153.55 778.2,-141.75"/>
<polygon fill="midnightblue" stroke="midnightblue" points="778.29,-138.24 768.04,-140.92 777.72,-145.22 778.29,-138.24"/>
</g>
<!-- Node4&#45;&gt;Node20 -->
<g id="edge26" class="edge">
<title>Node4&#45;&gt;Node20</title>
<path fill="none" stroke="midnightblue" d="M1388.71,-181.84C1450.87,-173.32 1566.22,-157.38 1664.5,-143 1665.77,-142.81 1667.05,-142.63 1668.35,-142.43"/>
<polygon fill="midnightblue" stroke="midnightblue" points="1669.04,-145.87 1678.41,-140.94 1668,-138.95 1669.04,-145.87"/>
</g>
<!-- Node21 -->
<g id="node21" class="node">
<title>Node21</title>
<g id="a_node21"><a xlink:title=" ">
<polygon fill="none" stroke="#bfbfbf" points="337.5,-123.5 337.5,-142.5 391.5,-142.5 391.5,-123.5 337.5,-123.5"/>
<text text-anchor="middle" x="364.5" y="-130.5" font-family="Helvetica,sans-Serif" font-size="10.00">iostream</text>
</a>
</g>
</g>
<!-- Node4&#45;&gt;Node21 -->
<g id="edge29" class="edge">
<title>Node4&#45;&gt;Node21</title>
<path fill="none" stroke="midnightblue" d="M1298.39,-185.59C1174.18,-178.95 816.67,-159.74 519.5,-143 479.24,-140.73 433.11,-138.04 401.71,-136.2"/>
<polygon fill="midnightblue" stroke="midnightblue" points="401.85,-132.7 391.66,-135.61 401.44,-139.69 401.85,-132.7"/>
</g>
<!-- Node22 -->
<g id="node22" class="node">
<title>Node22</title>
<g id="a_node22"><a xlink:title=" ">
<polygon fill="none" stroke="#bfbfbf" points="1336.5,-123.5 1336.5,-142.5 1380.5,-142.5 1380.5,-123.5 1336.5,-123.5"/>
<text text-anchor="middle" x="1358.5" y="-130.5" font-family="Helvetica,sans-Serif" font-size="10.00">thread</text>
</a>
</g>
</g>
<!-- Node4&#45;&gt;Node22 -->
<g id="edge33" class="edge">
<title>Node4&#45;&gt;Node22</title>
<path fill="none" stroke="midnightblue" d="M1345.98,-179.08C1347.99,-171.85 1350.89,-161.41 1353.39,-152.4"/>
<polygon fill="midnightblue" stroke="midnightblue" points="1356.76,-153.32 1356.07,-142.75 1350.02,-151.45 1356.76,-153.32"/>
</g>
<!-- Node5&#45;&gt;Node4 -->
<g id="edge5" class="edge">
<title>Node5&#45;&gt;Node4</title>
<path fill="none" stroke="midnightblue" d="M1521.25,-142.52C1487.97,-151.82 1431.43,-166.76 1390.98,-176.96"/>
<polygon fill="midnightblue" stroke="midnightblue" points="1389.92,-173.62 1381.07,-179.44 1391.62,-180.41 1389.92,-173.62"/>
</g>
<!-- Node5&#45;&gt;Node6 -->
<g id="edge6" class="edge">
<title>Node5&#45;&gt;Node6</title>
<path fill="none" stroke="midnightblue" d="M1584.64,-126.4C1631.51,-118.85 1715.63,-104.35 1786.5,-87 1792.1,-85.63 1798.02,-84 1803.71,-82.33"/>
<polygon fill="midnightblue" stroke="midnightblue" points="1805.04,-85.58 1813.6,-79.34 1803.02,-78.88 1805.04,-85.58"/>
</g>
<!-- Node5&#45;&gt;Node10 -->
<g id="edge10" class="edge">
<title>Node5&#45;&gt;Node10</title>
<path fill="none" stroke="midnightblue" d="M1512.46,-125.48C1507.76,-124.64 1503.02,-123.8 1498.5,-123 1409.27,-107.25 1384,-106.43 1291.84,-87.2"/>
<polygon fill="midnightblue" stroke="midnightblue" points="1292.31,-83.72 1281.8,-85.09 1290.87,-90.57 1292.31,-83.72"/>
</g>
<!-- Node5&#45;&gt;Node11 -->
<g id="edge11" class="edge">
<title>Node5&#45;&gt;Node11</title>
<path fill="none" stroke="midnightblue" d="M1549.79,-123.48C1551.06,-115.08 1553.04,-101.98 1554.68,-91.16"/>
<polygon fill="midnightblue" stroke="midnightblue" points="1558.18,-91.42 1556.21,-81.01 1551.26,-90.37 1558.18,-91.42"/>
</g>
<!-- Node5&#45;&gt;Node12 -->
<g id="edge12" class="edge">
<title>Node5&#45;&gt;Node12</title>
<path fill="none" stroke="midnightblue" d="M1563.69,-123.48C1581.16,-113.67 1610.08,-97.43 1630.58,-85.92"/>
<polygon fill="midnightblue" stroke="midnightblue" points="1632.33,-88.96 1639.34,-81.01 1628.91,-82.85 1632.33,-88.96"/>
</g>
<!-- Node5&#45;&gt;Node13 -->
<g id="edge13" class="edge">
<title>Node5&#45;&gt;Node13</title>
<path fill="none" stroke="midnightblue" d="M1517.12,-123.48C1478.03,-112.85 1411.23,-94.7 1368.78,-83.17"/>
<polygon fill="midnightblue" stroke="midnightblue" points="1369.63,-79.78 1359.07,-80.53 1367.8,-86.53 1369.63,-79.78"/>
</g>
<!-- Node5&#45;&gt;Node14 -->
<g id="edge14" class="edge">
<title>Node5&#45;&gt;Node14</title>
<path fill="none" stroke="midnightblue" d="M1578.3,-123.48C1617.67,-112.21 1686.65,-92.48 1726.24,-81.15"/>
<polygon fill="midnightblue" stroke="midnightblue" points="1727.23,-84.51 1735.88,-78.4 1725.3,-77.78 1727.23,-84.51"/>
</g>
<!-- Node7 -->
<g id="node7" class="node">
<title>Node7</title>
<g id="a_node7"><a xlink:title=" ">
<polygon fill="none" stroke="#bfbfbf" points="1735.5,-0.5 1735.5,-19.5 1791.5,-19.5 1791.5,-0.5 1735.5,-0.5"/>
<text text-anchor="middle" x="1763.5" y="-7.5" font-family="Helvetica,sans-Serif" font-size="10.00">stdbool.h</text>
</a>
</g>
</g>
<!-- Node6&#45;&gt;Node7 -->
<g id="edge7" class="edge">
<title>Node6&#45;&gt;Node7</title>
<path fill="none" stroke="midnightblue" d="M1824.33,-61.98C1813.15,-52.61 1794.98,-37.38 1781.41,-26.01"/>
<polygon fill="midnightblue" stroke="midnightblue" points="1783.57,-23.25 1773.65,-19.51 1779.07,-28.61 1783.57,-23.25"/>
</g>
<!-- Node8 -->
<g id="node8" class="node">
<title>Node8</title>
<g id="a_node8"><a xlink:title=" ">
<polygon fill="none" stroke="#bfbfbf" points="1810,-0.5 1810,-19.5 1859,-19.5 1859,-0.5 1810,-0.5"/>
<text text-anchor="middle" x="1834.5" y="-7.5" font-family="Helvetica,sans-Serif" font-size="10.00">stdint.h</text>
</a>
</g>
</g>
<!-- Node6&#45;&gt;Node8 -->
<g id="edge8" class="edge">
<title>Node6&#45;&gt;Node8</title>
<path fill="none" stroke="midnightblue" d="M1834.5,-61.98C1834.5,-53.58 1834.5,-40.48 1834.5,-29.66"/>
<polygon fill="midnightblue" stroke="midnightblue" points="1838,-29.51 1834.5,-19.51 1831,-29.51 1838,-29.51"/>
</g>
<!-- Node9 -->
<g id="node9" class="node">
<title>Node9</title>
<g id="a_node9"><a xlink:title=" ">
<polygon fill="none" stroke="#bfbfbf" points="1877,-0.5 1877,-19.5 1926,-19.5 1926,-0.5 1877,-0.5"/>
<text text-anchor="middle" x="1901.5" y="-7.5" font-family="Helvetica,sans-Serif" font-size="10.00">string.h</text>
</a>
</g>
</g>
<!-- Node6&#45;&gt;Node9 -->
<g id="edge9" class="edge">
<title>Node6&#45;&gt;Node9</title>
<path fill="none" stroke="midnightblue" d="M1844.1,-61.98C1854.55,-52.7 1871.47,-37.67 1884.24,-26.33"/>
<polygon fill="midnightblue" stroke="midnightblue" points="1886.77,-28.77 1891.92,-19.51 1882.12,-23.53 1886.77,-28.77"/>
</g>
<!-- Node19&#45;&gt;Node15 -->
<g id="edge21" class="edge">
<title>Node19&#45;&gt;Node15</title>
<path fill="none" stroke="midnightblue" d="M649.7,-123.47C613.9,-114.43 555.71,-99.73 505.5,-87 501.09,-85.88 496.5,-84.72 491.91,-83.55"/>
<polygon fill="midnightblue" stroke="midnightblue" points="492.51,-80.09 481.95,-81.02 490.78,-86.87 492.51,-80.09"/>
</g>
<!-- Node19&#45;&gt;Node16 -->
<g id="edge22" class="edge">
<title>Node19&#45;&gt;Node16</title>
<path fill="none" stroke="midnightblue" d="M707.71,-123.48C736.83,-113.22 785.87,-95.96 818.7,-84.4"/>
<polygon fill="midnightblue" stroke="midnightblue" points="820.06,-87.63 828.33,-81.01 817.74,-81.03 820.06,-87.63"/>
</g>
<!-- Node19&#45;&gt;Node17 -->
<g id="edge23" class="edge">
<title>Node19&#45;&gt;Node17</title>
<path fill="none" stroke="midnightblue" d="M729.49,-123.48C784.5,-113.28 876.97,-96.14 939.32,-84.58"/>
<polygon fill="midnightblue" stroke="midnightblue" points="940.25,-87.97 949.45,-82.7 938.98,-81.09 940.25,-87.97"/>
</g>
<!-- Node19&#45;&gt;Node18 -->
<g id="edge24" class="edge">
<title>Node19&#45;&gt;Node18</title>
<path fill="none" stroke="midnightblue" d="M668.74,-123.48C654.4,-115.19 632.13,-102.32 613.55,-91.59"/>
<polygon fill="midnightblue" stroke="midnightblue" points="615.18,-88.49 604.78,-86.52 611.68,-94.56 615.18,-88.49"/>
</g>
<!-- Node19&#45;&gt;Node19 -->
<g id="edge25" class="edge">
<title>Node19&#45;&gt;Node19</title>
<path fill="none" stroke="midnightblue" d="M726.95,-142.5C756.75,-145.33 786,-142.16 786,-133 786,-124.88 763,-121.47 737.01,-122.77"/>
<polygon fill="midnightblue" stroke="midnightblue" points="736.67,-119.29 726.95,-123.5 737.18,-126.27 736.67,-119.29"/>
</g>
<!-- Node23&#45;&gt;Node21 -->
<g id="edge45" class="edge">
<title>Node23&#45;&gt;Node21</title>
<path fill="none" stroke="midnightblue" d="M300.52,-291.31C308.12,-282.67 319.42,-268.75 326.5,-255 344.08,-220.87 355.34,-177.09 360.74,-152.65"/>
<polygon fill="midnightblue" stroke="midnightblue" points="364.22,-153.11 362.86,-142.6 357.37,-151.66 364.22,-153.11"/>
</g>
<!-- Node24 -->
<g id="node24" class="node">
<title>Node24</title>
<g id="a_node24"><a xlink:title=" ">
<polygon fill="none" stroke="#bfbfbf" points="141.5,-235.5 141.5,-254.5 187.5,-254.5 187.5,-235.5 141.5,-235.5"/>
<text text-anchor="middle" x="164.5" y="-242.5" font-family="Helvetica,sans-Serif" font-size="10.00">chrono</text>
</a>
</g>
</g>
<!-- Node23&#45;&gt;Node24 -->
<g id="edge42" class="edge">
<title>Node23&#45;&gt;Node24</title>
<path fill="none" stroke="midnightblue" d="M272.22,-291.44C251.15,-282.56 217.98,-268.56 194.01,-258.45"/>
<polygon fill="midnightblue" stroke="midnightblue" points="195.26,-255.18 184.69,-254.52 192.54,-261.63 195.26,-255.18"/>
</g>
<!-- Node25 -->
<g id="node25" class="node">
<title>Node25</title>
<g id="a_node25"><a xlink:title=" ">
<polygon fill="none" stroke="#bfbfbf" points="205.5,-235.5 205.5,-254.5 249.5,-254.5 249.5,-235.5 205.5,-235.5"/>
<text text-anchor="middle" x="227.5" y="-242.5" font-family="Helvetica,sans-Serif" font-size="10.00">cmath</text>
</a>
</g>
</g>
<!-- Node23&#45;&gt;Node25 -->
<g id="edge43" class="edge">
<title>Node23&#45;&gt;Node25</title>
<path fill="none" stroke="midnightblue" d="M282.06,-291.32C272.35,-283.26 257.68,-271.08 246,-261.37"/>
<polygon fill="midnightblue" stroke="midnightblue" points="248.06,-258.53 238.13,-254.83 243.59,-263.92 248.06,-258.53"/>
</g>
<!-- Node26 -->
<g id="node26" class="node">
<title>Node26</title>
<g id="a_node26"><a xlink:title=" ">
<polygon fill="none" stroke="#bfbfbf" points="267.5,-235.5 267.5,-254.5 317.5,-254.5 317.5,-235.5 267.5,-235.5"/>
<text text-anchor="middle" x="292.5" y="-242.5" font-family="Helvetica,sans-Serif" font-size="10.00">iomanip</text>
</a>
</g>
</g>
<!-- Node23&#45;&gt;Node26 -->
<g id="edge44" class="edge">
<title>Node23&#45;&gt;Node26</title>
<path fill="none" stroke="midnightblue" d="M292.5,-291.08C292.5,-284.01 292.5,-273.86 292.5,-264.99"/>
<polygon fill="midnightblue" stroke="midnightblue" points="296,-264.75 292.5,-254.75 289,-264.75 296,-264.75"/>
</g>
<!-- Node27&#45;&gt;Node3 -->
<g id="edge47" class="edge">
<title>Node27&#45;&gt;Node3</title>
<path fill="none" stroke="midnightblue" d="M965.41,-291.32C981.14,-282.74 1005.44,-269.49 1023.71,-259.52"/>
<polygon fill="midnightblue" stroke="midnightblue" points="1025.53,-262.52 1032.63,-254.65 1022.18,-256.37 1025.53,-262.52"/>
</g>
<!-- Node27&#45;&gt;Node4 -->
<g id="edge48" class="edge">
<title>Node27&#45;&gt;Node4</title>
<path fill="none" stroke="midnightblue" d="M995.73,-292.79C1040.8,-285.24 1111.05,-272.11 1170.5,-255 1222.28,-240.1 1280.57,-216.78 1314.54,-202.5"/>
<polygon fill="midnightblue" stroke="midnightblue" points="1316.02,-205.67 1323.87,-198.55 1313.29,-199.23 1316.02,-205.67"/>
</g>
<!-- Node27&#45;&gt;Node10 -->
<g id="edge54" class="edge">
<title>Node27&#45;&gt;Node10</title>
<path fill="none" stroke="midnightblue" d="M995.69,-298.27C1034.62,-294.66 1089.97,-284.27 1128.5,-255 1182.63,-213.88 1213.07,-135.88 1225.62,-96.51"/>
<polygon fill="midnightblue" stroke="midnightblue" points="1229.04,-97.3 1228.63,-86.71 1222.35,-95.25 1229.04,-97.3"/>
</g>
<!-- Node27&#45;&gt;Node11 -->
<g id="edge55" class="edge">
<title>Node27&#45;&gt;Node11</title>
<path fill="none" stroke="midnightblue" d="M995.65,-298.67C1154.89,-293.03 1677.06,-265.34 1777.5,-143 1845.67,-59.97 1952.48,-163.87 1619.5,-87 1614.45,-85.83 1609.16,-84.61 1603.9,-83.38"/>
<polygon fill="midnightblue" stroke="midnightblue" points="1604.42,-79.91 1593.88,-81.05 1602.83,-86.73 1604.42,-79.91"/>
</g>
<!-- Node27&#45;&gt;Node15 -->
<g id="edge49" class="edge">
<title>Node27&#45;&gt;Node15</title>
<path fill="none" stroke="midnightblue" d="M903.28,-299.62C795.4,-298.12 530.04,-290.8 449.5,-255 376.78,-222.67 284.47,-189.3 328.5,-123 342.4,-102.08 366.84,-89.8 390.05,-82.61"/>
<polygon fill="midnightblue" stroke="midnightblue" points="391.22,-85.92 399.89,-79.83 389.32,-79.18 391.22,-85.92"/>
</g>
<!-- Node27&#45;&gt;Node16 -->
<g id="edge50" class="edge">
<title>Node27&#45;&gt;Node16</title>
<path fill="none" stroke="midnightblue" d="M945.82,-291.36C931.56,-257.93 879.84,-136.63 860.17,-90.49"/>
<polygon fill="midnightblue" stroke="midnightblue" points="863.33,-88.98 856.19,-81.15 856.89,-91.72 863.33,-88.98"/>
</g>
<!-- Node27&#45;&gt;Node17 -->
<g id="edge51" class="edge">
<title>Node27&#45;&gt;Node17</title>
<path fill="none" stroke="midnightblue" d="M951.59,-291.36C959.34,-259.3 986.63,-146.44 998.69,-96.53"/>
<polygon fill="midnightblue" stroke="midnightblue" points="1002.14,-97.17 1001.09,-86.62 995.33,-95.52 1002.14,-97.17"/>
</g>
<!-- Node27&#45;&gt;Node18 -->
<g id="edge52" class="edge">
<title>Node27&#45;&gt;Node18</title>
<path fill="none" stroke="midnightblue" d="M912.4,-291.47C854.73,-277.33 741.13,-245.84 653.5,-199 616.18,-179.05 595.7,-180.71 576.5,-143 569.27,-128.81 570.41,-110.87 573.28,-96.64"/>
<polygon fill="midnightblue" stroke="midnightblue" points="576.76,-97.14 575.71,-86.6 569.96,-95.5 576.76,-97.14"/>
</g>
<!-- Node27&#45;&gt;Node19 -->
<g id="edge53" class="edge">
<title>Node27&#45;&gt;Node19</title>
<path fill="none" stroke="midnightblue" d="M922.52,-291.43C899.42,-283.54 865.69,-270.71 838.5,-255 783.85,-223.42 727.3,-174.35 700.09,-149.52"/>
<polygon fill="midnightblue" stroke="midnightblue" points="702.35,-146.84 692.62,-142.64 697.61,-151.99 702.35,-146.84"/>
</g>
<!-- Node27&#45;&gt;Node21 -->
<g id="edge56" class="edge">
<title>Node27&#45;&gt;Node21</title>
<path fill="none" stroke="midnightblue" d="M903.28,-299.51C800.63,-297.79 556.96,-290.03 483.5,-255 434.26,-231.52 393.99,-178.7 375.48,-151.27"/>
<polygon fill="midnightblue" stroke="midnightblue" points="378.28,-149.15 369.86,-142.72 372.43,-153 378.28,-149.15"/>
</g>
</g>
</svg>
