<?xml version="1.0" encoding="UTF-8" standalone="no"?>
<!DOCTYPE svg PUBLIC "-//W3C//DTD SVG 1.1//EN"
 "http://www.w3.org/Graphics/SVG/1.1/DTD/svg11.dtd">
<!-- Generated by graphviz version 2.43.0 (0)
 -->
<!-- Title: TEST_CASE Pages: 1 -->
<svg width="982pt" height="449pt"
 viewBox="0.00 0.00 982.00 449.00" xmlns="http://www.w3.org/2000/svg" xmlns:xlink="http://www.w3.org/1999/xlink">
<g id="graph0" class="graph" transform="scale(1 1) rotate(0) translate(4 445)">
<title>TEST_CASE</title>
<!-- Node1 -->
<g id="node1" class="node">
<title>Node1</title>
<g id="a_node1"><a xlink:title=" ">
<polygon fill="#bfbfbf" stroke="black" points="0,-351.5 0,-370.5 75,-370.5 75,-351.5 0,-351.5"/>
<text text-anchor="middle" x="37.5" y="-358.5" font-family="Helvetica,sans-Serif" font-size="10.00">TEST_CASE</text>
</a>
</g>
</g>
<!-- Node2 -->
<g id="node2" class="node">
<title>Node2</title>
<g id="a_node2"><a xlink:href="classSystemData.html#a9f8ee537e1989aec9c82f3e5b69c3de7" target="_top" xlink:title=" ">
<polygon fill="none" stroke="black" points="114,-370.5 114,-389.5 242,-389.5 242,-370.5 114,-370.5"/>
<text text-anchor="middle" x="178" y="-377.5" font-family="Helvetica,sans-Serif" font-size="10.00">SystemData::gSDParsed</text>
</a>
</g>
</g>
<!-- Node1&#45;&gt;Node2 -->
<g id="edge1" class="edge">
<title>Node1&#45;&gt;Node2</title>
<path fill="none" stroke="midnightblue" d="M75.25,-366.04C84.15,-367.26 93.97,-368.61 103.89,-369.97"/>
<polygon fill="midnightblue" stroke="midnightblue" points="103.44,-373.44 113.83,-371.33 104.39,-366.51 103.44,-373.44"/>
</g>
<!-- Node3 -->
<g id="node3" class="node">
<title>Node3</title>
<g id="a_node3"><a xlink:href="classSystemData.html#ac3a796dc8bf1fa82ea6dec33e548924f" target="_top" xlink:title="Function loads data from GSD file using GSDUtil class.">
<polygon fill="none" stroke="black" points="111,-332.5 111,-351.5 245,-351.5 245,-332.5 111,-332.5"/>
<text text-anchor="middle" x="178" y="-339.5" font-family="Helvetica,sans-Serif" font-size="10.00">SystemData::initializeData</text>
</a>
</g>
</g>
<!-- Node1&#45;&gt;Node3 -->
<g id="edge2" class="edge">
<title>Node1&#45;&gt;Node3</title>
<path fill="none" stroke="midnightblue" d="M75.25,-355.96C83.23,-354.86 91.95,-353.67 100.82,-352.45"/>
<polygon fill="midnightblue" stroke="midnightblue" points="101.45,-355.9 110.88,-351.07 100.49,-348.96 101.45,-355.9"/>
</g>
<!-- Node4 -->
<g id="node4" class="node">
<title>Node4</title>
<g id="a_node4"><a xlink:href="classSystemData.html#a58d7292b7fd9035265eca81d0f088a27" target="_top" xlink:title="Logs private attributes to logfile.">
<polygon fill="none" stroke="black" points="287,-370.5 287,-389.5 398,-389.5 398,-370.5 287,-370.5"/>
<text text-anchor="middle" x="342.5" y="-377.5" font-family="Helvetica,sans-Serif" font-size="10.00">SystemData::logData</text>
</a>
</g>
</g>
<!-- Node3&#45;&gt;Node4 -->
<g id="edge3" class="edge">
<title>Node3&#45;&gt;Node4</title>
<path fill="none" stroke="midnightblue" d="M220.01,-351.59C241.55,-356.63 268.13,-362.84 290.94,-368.18"/>
<polygon fill="midnightblue" stroke="midnightblue" points="290.25,-371.61 300.79,-370.48 291.85,-364.79 290.25,-371.61"/>
</g>
<!-- Node5 -->
<g id="node5" class="node">
<title>Node5</title>
<g id="a_node5"><a xlink:href="classSystemData.html#aa2eb6d7a8870f81a9f4e6484c1f8751c" target="_top" xlink:title="Passes this (SystemData shared pointer instance) into GSDUtil constructor to load data from input GSD...">
<polygon fill="none" stroke="black" points="281,-332.5 281,-351.5 404,-351.5 404,-332.5 281,-332.5"/>
<text text-anchor="middle" x="342.5" y="-339.5" font-family="Helvetica,sans-Serif" font-size="10.00">SystemData::parseGSD</text>
</a>
</g>
</g>
<!-- Node3&#45;&gt;Node5 -->
<g id="edge4" class="edge">
<title>Node3&#45;&gt;Node5</title>
<path fill="none" stroke="midnightblue" d="M245.09,-342C253.53,-342 262.19,-342 270.69,-342"/>
<polygon fill="midnightblue" stroke="midnightblue" points="270.96,-345.5 280.96,-342 270.96,-338.5 270.96,-345.5"/>
</g>
<!-- Node7 -->
<g id="node7" class="node">
<title>Node7</title>
<g id="a_node7"><a xlink:href="classSystemData.html#aa1dc8988cbb137f2667af95ca52a709c" target="_top" xlink:title="Updates all relevant rigid body motion tensors, respective gradients, and kinematic/Udwadia constrain...">
<polygon fill="none" stroke="black" points="289,-205.5 289,-224.5 396,-224.5 396,-205.5 289,-205.5"/>
<text text-anchor="middle" x="342.5" y="-212.5" font-family="Helvetica,sans-Serif" font-size="10.00">SystemData::update</text>
</a>
</g>
</g>
<!-- Node3&#45;&gt;Node7 -->
<g id="edge6" class="edge">
<title>Node3&#45;&gt;Node7</title>
<path fill="none" stroke="midnightblue" d="M191.21,-332.45C218.98,-310.76 287.05,-257.55 321.23,-230.84"/>
<polygon fill="midnightblue" stroke="midnightblue" points="323.42,-233.57 329.14,-224.66 319.11,-228.06 323.42,-233.57"/>
</g>
<!-- Node6 -->
<g id="node6" class="node">
<title>Node6</title>
<g id="a_node6"><a xlink:href="classSystemData.html#a534384a0e92c8a0ffbcec636afbdf65e" target="_top" xlink:title="Various assertions to check data loaded from GSD is at least physical.">
<polygon fill="none" stroke="black" points="461,-421.5 461,-440.5 586,-440.5 586,-421.5 461,-421.5"/>
<text text-anchor="middle" x="523.5" y="-428.5" font-family="Helvetica,sans-Serif" font-size="10.00">SystemData::checkInput</text>
</a>
</g>
</g>
<!-- Node5&#45;&gt;Node6 -->
<g id="edge5" class="edge">
<title>Node5&#45;&gt;Node6</title>
<path fill="none" stroke="midnightblue" d="M386.2,-351.51C392.5,-354 398.66,-357.11 404,-361 426.42,-377.35 416.96,-396.54 440,-412 443.57,-414.4 447.4,-416.49 451.39,-418.33"/>
<polygon fill="midnightblue" stroke="midnightblue" points="450.33,-421.68 460.92,-422.15 452.94,-415.18 450.33,-421.68"/>
</g>
<!-- Node8 -->
<g id="node8" class="node">
<title>Node8</title>
<g id="a_node8"><a xlink:href="classSystemData.html#a188c38c8448ed32d3cf697b6f07b9d6a" target="_top" xlink:title="Computes the articulation (linear) accelerations of the particles relative to their respective locate...">
<polygon fill="none" stroke="black" points="456,-372 456,-402 591,-402 591,-372 456,-372"/>
<text text-anchor="start" x="464" y="-390" font-family="Helvetica,sans-Serif" font-size="10.00">SystemData::accelerations</text>
<text text-anchor="middle" x="523.5" y="-379" font-family="Helvetica,sans-Serif" font-size="10.00">Articulation</text>
</a>
</g>
</g>
<!-- Node7&#45;&gt;Node8 -->
<g id="edge7" class="edge">
<title>Node7&#45;&gt;Node8</title>
<path fill="none" stroke="midnightblue" d="M348.76,-224.9C364.84,-254.85 413.88,-343.63 440,-363 442.1,-364.55 444.29,-366.01 446.56,-367.37"/>
<polygon fill="midnightblue" stroke="midnightblue" points="445.17,-370.59 455.65,-372.16 448.44,-364.4 445.17,-370.59"/>
</g>
<!-- Node9 -->
<g id="node9" class="node">
<title>Node9</title>
<g id="a_node9"><a xlink:href="classSystemData.html#a000a3e77f12b4c1bc9678e9ede202f83" target="_top" xlink:title="Computes the orientation (unit vector) of a particle with respect to its locater point.">
<polygon fill="none" stroke="black" points="455,-323 455,-353 592,-353 592,-323 455,-323"/>
<text text-anchor="start" x="463" y="-341" font-family="Helvetica,sans-Serif" font-size="10.00">SystemData::convertBody2</text>
<text text-anchor="middle" x="523.5" y="-330" font-family="Helvetica,sans-Serif" font-size="10.00">ParticleOrient</text>
</a>
</g>
</g>
<!-- Node7&#45;&gt;Node9 -->
<g id="edge8" class="edge">
<title>Node7&#45;&gt;Node9</title>
<path fill="none" stroke="midnightblue" d="M350.27,-224.78C364.53,-244.62 399.67,-289.79 440,-314 442.81,-315.69 445.75,-317.26 448.78,-318.73"/>
<polygon fill="midnightblue" stroke="midnightblue" points="447.49,-321.99 458.05,-322.83 450.32,-315.59 447.49,-321.99"/>
</g>
<!-- Node12 -->
<g id="node12" class="node">
<title>Node12</title>
<g id="a_node12"><a xlink:href="classSystemData.html#a3edab27c866d9031739a8bd3b09bac42" target="_top" xlink:title="Computes the positions of all particles from given locater positions and body orientations.">
<polygon fill="none" stroke="black" points="455,-274 455,-304 592,-304 592,-274 455,-274"/>
<text text-anchor="start" x="463" y="-292" font-family="Helvetica,sans-Serif" font-size="10.00">SystemData::convertBody2</text>
<text text-anchor="middle" x="523.5" y="-281" font-family="Helvetica,sans-Serif" font-size="10.00">ParticlePos</text>
</a>
</g>
</g>
<!-- Node7&#45;&gt;Node12 -->
<g id="edge11" class="edge">
<title>Node7&#45;&gt;Node12</title>
<path fill="none" stroke="midnightblue" d="M359.77,-224.68C378.59,-235.58 410.74,-253.3 440,-265 445.02,-267.01 450.27,-268.93 455.59,-270.75"/>
<polygon fill="midnightblue" stroke="midnightblue" points="454.61,-274.11 465.2,-273.9 456.79,-267.46 454.61,-274.11"/>
</g>
<!-- Node13 -->
<g id="node13" class="node">
<title>Node13</title>
<g id="a_node13"><a xlink:href="classSystemData.html#a7da2011ba5d866e5338b14e8b04ace70" target="_top" xlink:title="Computes the particle D.o.F. from the body D.o.F.">
<polygon fill="none" stroke="black" points="455,-225 455,-255 592,-255 592,-225 455,-225"/>
<text text-anchor="start" x="463" y="-243" font-family="Helvetica,sans-Serif" font-size="10.00">SystemData::convertBody2</text>
<text text-anchor="middle" x="523.5" y="-232" font-family="Helvetica,sans-Serif" font-size="10.00">ParticleVelAcc</text>
</a>
</g>
</g>
<!-- Node7&#45;&gt;Node13 -->
<g id="edge12" class="edge">
<title>Node7&#45;&gt;Node13</title>
<path fill="none" stroke="midnightblue" d="M396.24,-222.37C411.44,-224.49 428.35,-226.85 444.73,-229.14"/>
<polygon fill="midnightblue" stroke="midnightblue" points="444.46,-232.63 454.84,-230.55 445.42,-225.7 444.46,-232.63"/>
</g>
<!-- Node17 -->
<g id="node17" class="node">
<title>Node17</title>
<g id="a_node17"><a xlink:href="classSystemData.html#a301fa1815b3b68cffc789f1824e29f5e" target="_top" xlink:title="Computes the gradients rigid body motion connectivity tensors and tensors associated with change of v...">
<polygon fill="none" stroke="black" points="450.5,-176 450.5,-206 596.5,-206 596.5,-176 450.5,-176"/>
<text text-anchor="start" x="458.5" y="-194" font-family="Helvetica,sans-Serif" font-size="10.00">SystemData::gradientChange</text>
<text text-anchor="middle" x="523.5" y="-183" font-family="Helvetica,sans-Serif" font-size="10.00">OfVariableTensors</text>
</a>
</g>
</g>
<!-- Node7&#45;&gt;Node17 -->
<g id="edge16" class="edge">
<title>Node7&#45;&gt;Node17</title>
<path fill="none" stroke="midnightblue" d="M396.24,-207.93C409.98,-206.09 425.12,-204.06 440,-202.06"/>
<polygon fill="midnightblue" stroke="midnightblue" points="440.8,-205.49 450.24,-200.69 439.87,-198.55 440.8,-205.49"/>
</g>
<!-- Node20 -->
<g id="node20" class="node">
<title>Node20</title>
<g id="a_node20"><a xlink:href="classSystemData.html#a30df4f73d78f6886da32559eda83595d" target="_top" xlink:title="Computes the articulation (linear) positions of the particles relative to their respective locater po...">
<polygon fill="none" stroke="black" points="441,-137.5 441,-156.5 606,-156.5 606,-137.5 441,-137.5"/>
<text text-anchor="middle" x="523.5" y="-144.5" font-family="Helvetica,sans-Serif" font-size="10.00">SystemData::positionsArticulation</text>
</a>
</g>
</g>
<!-- Node7&#45;&gt;Node20 -->
<g id="edge21" class="edge">
<title>Node7&#45;&gt;Node20</title>
<path fill="none" stroke="midnightblue" d="M360.07,-205.32C378.91,-194.67 410.82,-177.64 440,-167 448.15,-164.03 456.91,-161.37 465.57,-159.03"/>
<polygon fill="midnightblue" stroke="midnightblue" points="466.46,-162.41 475.27,-156.53 464.72,-155.63 466.46,-162.41"/>
</g>
<!-- Node21 -->
<g id="node21" class="node">
<title>Node21</title>
<g id="a_node21"><a xlink:href="classSystemData.html#ae08b2263f2981e57d0f12ba7881a083b" target="_top" xlink:title="Computes the rigid body motion connectivity tensors.">
<polygon fill="none" stroke="black" points="450,-88 450,-118 597,-118 597,-88 450,-88"/>
<text text-anchor="start" x="458" y="-106" font-family="Helvetica,sans-Serif" font-size="10.00">SystemData::rigidBodyMotion</text>
<text text-anchor="middle" x="523.5" y="-95" font-family="Helvetica,sans-Serif" font-size="10.00">Tensors</text>
</a>
</g>
</g>
<!-- Node7&#45;&gt;Node21 -->
<g id="edge22" class="edge">
<title>Node7&#45;&gt;Node21</title>
<path fill="none" stroke="midnightblue" d="M351.51,-205.4C366.86,-187.58 402.29,-149.29 440,-128 443.92,-125.79 448.05,-123.75 452.3,-121.88"/>
<polygon fill="midnightblue" stroke="midnightblue" points="453.8,-125.05 461.74,-118.04 451.16,-118.56 453.8,-125.05"/>
</g>
<!-- Node26 -->
<g id="node26" class="node">
<title>Node26</title>
<g id="a_node26"><a xlink:href="classSystemData.html#ad1a6489951a00124901c1947381a9be8" target="_top" xlink:title="Computes the Udwadia constraint matrix and vector to uphold the quaternion unitary norm for each body...">
<polygon fill="none" stroke="black" points="453.5,-39 453.5,-69 593.5,-69 593.5,-39 453.5,-39"/>
<text text-anchor="start" x="461.5" y="-57" font-family="Helvetica,sans-Serif" font-size="10.00">SystemData::udwadiaLinear</text>
<text text-anchor="middle" x="523.5" y="-46" font-family="Helvetica,sans-Serif" font-size="10.00">System</text>
</a>
</g>
</g>
<!-- Node7&#45;&gt;Node26 -->
<g id="edge28" class="edge">
<title>Node7&#45;&gt;Node26</title>
<path fill="none" stroke="midnightblue" d="M347.57,-205.45C358.61,-180.67 391.6,-113.84 440,-79 442.67,-77.08 445.49,-75.3 448.42,-73.66"/>
<polygon fill="midnightblue" stroke="midnightblue" points="450.1,-76.73 457.47,-69.12 446.96,-70.47 450.1,-76.73"/>
</g>
<!-- Node27 -->
<g id="node27" class="node">
<title>Node27</title>
<g id="a_node27"><a xlink:href="classSystemData.html#a92ce50a4c8b53aa6a490153c1b09ab8a" target="_top" xlink:title="Computes the articulation (linear) velocities of the particles relative to their respective locater p...">
<polygon fill="none" stroke="black" points="440,-0.5 440,-19.5 607,-19.5 607,-0.5 440,-0.5"/>
<text text-anchor="middle" x="523.5" y="-7.5" font-family="Helvetica,sans-Serif" font-size="10.00">SystemData::velocitiesArticulation</text>
</a>
</g>
</g>
<!-- Node7&#45;&gt;Node27 -->
<g id="edge29" class="edge">
<title>Node7&#45;&gt;Node27</title>
<path fill="none" stroke="midnightblue" d="M345.47,-205.47C352.38,-174.62 378.46,-76.69 440,-29 442.34,-27.19 444.83,-25.54 447.42,-24.04"/>
<polygon fill="midnightblue" stroke="midnightblue" points="449.15,-27.09 456.58,-19.53 446.06,-20.81 449.15,-27.09"/>
</g>
<!-- Node10 -->
<g id="node10" class="node">
<title>Node10</title>
<g id="a_node10"><a xlink:href="helper__math_8h.html#ae4378072f9d836b0d4770a1514db2be3" target="_top" xlink:title=" ">
<polygon fill="none" stroke="black" points="705.5,-333.5 705.5,-352.5 737.5,-352.5 737.5,-333.5 705.5,-333.5"/>
<text text-anchor="middle" x="721.5" y="-340.5" font-family="Helvetica,sans-Serif" font-size="10.00">abs</text>
</a>
</g>
</g>
<!-- Node9&#45;&gt;Node10 -->
<g id="edge9" class="edge">
<title>Node9&#45;&gt;Node10</title>
<path fill="none" stroke="midnightblue" d="M592.23,-339.73C627.86,-340.64 669.41,-341.7 695.34,-342.36"/>
<polygon fill="midnightblue" stroke="midnightblue" points="695.34,-345.86 705.43,-342.62 695.52,-338.86 695.34,-345.86"/>
</g>
<!-- Node11 -->
<g id="node11" class="node">
<title>Node11</title>
<g id="a_node11"><a xlink:href="helper__math_8h.html#a3be05aff487ded3c05aab21d24dd6439" target="_top" xlink:title=" ">
<polygon fill="none" stroke="black" points="874,-333.5 874,-352.5 936,-352.5 936,-333.5 874,-333.5"/>
<text text-anchor="middle" x="905" y="-340.5" font-family="Helvetica,sans-Serif" font-size="10.00">make_int2</text>
</a>
</g>
</g>
<!-- Node10&#45;&gt;Node11 -->
<g id="edge10" class="edge">
<title>Node10&#45;&gt;Node11</title>
<path fill="none" stroke="midnightblue" d="M737.66,-343C765.11,-343 823.89,-343 863.69,-343"/>
<polygon fill="midnightblue" stroke="midnightblue" points="863.87,-346.5 873.87,-343 863.87,-339.5 863.87,-346.5"/>
</g>
<!-- Node14 -->
<g id="node14" class="node">
<title>Node14</title>
<g id="a_node14"><a xlink:href="helper__eigenTensorConversion_8hpp.html#a556d08b55a6ad7cd703b6db06194e5cf" target="_top" xlink:title=" ">
<polygon fill="none" stroke="black" points="689,-295.5 689,-314.5 754,-314.5 754,-295.5 689,-295.5"/>
<text text-anchor="middle" x="721.5" y="-302.5" font-family="Helvetica,sans-Serif" font-size="10.00">MatrixCast</text>
</a>
</g>
</g>
<!-- Node13&#45;&gt;Node14 -->
<g id="edge13" class="edge">
<title>Node13&#45;&gt;Node14</title>
<path fill="none" stroke="midnightblue" d="M577.64,-255.04C587.47,-258.12 597.6,-261.5 607,-265 623.41,-271.11 626.61,-274.84 643,-281 654.64,-285.37 667.47,-289.58 679.28,-293.22"/>
<polygon fill="midnightblue" stroke="midnightblue" points="678.33,-296.59 688.92,-296.14 680.36,-289.89 678.33,-296.59"/>
</g>
<!-- Node16 -->
<g id="node16" class="node">
<title>Node16</title>
<g id="a_node16"><a xlink:href="helper__eigenTensorConversion_8hpp.html#a3a32f7de3f099464192073a93b34d580" target="_top" xlink:title="Convert Eigen::Matrix &#45;&#45;&gt; Eigen::Tensor.">
<polygon fill="none" stroke="black" points="871.5,-178.5 871.5,-197.5 938.5,-197.5 938.5,-178.5 871.5,-178.5"/>
<text text-anchor="middle" x="905" y="-185.5" font-family="Helvetica,sans-Serif" font-size="10.00">TensorCast</text>
</a>
</g>
</g>
<!-- Node13&#45;&gt;Node16 -->
<g id="edge15" class="edge">
<title>Node13&#45;&gt;Node16</title>
<path fill="none" stroke="midnightblue" d="M592.01,-242.16C648.22,-242.63 730.07,-240.21 800,-226 825.74,-220.77 853.63,-210.29 874.04,-201.67"/>
<polygon fill="midnightblue" stroke="midnightblue" points="875.63,-204.79 883.42,-197.61 872.85,-198.37 875.63,-204.79"/>
</g>
<!-- Node15 -->
<g id="node15" class="node">
<title>Node15</title>
<g id="a_node15"><a xlink:href="helper__eigenTensorConversion_8hpp.html#a2a7eca6b17fb874869047bd0b5f11b46" target="_top" xlink:title="Convert between Eigen::Tensor and Eigen::Matrix classes.">
<polygon fill="none" stroke="black" points="881.5,-295.5 881.5,-314.5 928.5,-314.5 928.5,-295.5 881.5,-295.5"/>
<text text-anchor="middle" x="905" y="-302.5" font-family="Helvetica,sans-Serif" font-size="10.00">asEval</text>
</a>
</g>
</g>
<!-- Node14&#45;&gt;Node15 -->
<g id="edge14" class="edge">
<title>Node14&#45;&gt;Node15</title>
<path fill="none" stroke="midnightblue" d="M754.11,-305C786.92,-305 838,-305 871.23,-305"/>
<polygon fill="midnightblue" stroke="midnightblue" points="871.35,-308.5 881.35,-305 871.35,-301.5 871.35,-308.5"/>
</g>
<!-- Node17&#45;&gt;Node16 -->
<g id="edge20" class="edge">
<title>Node17&#45;&gt;Node16</title>
<path fill="none" stroke="midnightblue" d="M596.66,-204.44C611.91,-206.76 627.94,-208.8 643,-210 712.56,-215.54 730.6,-217.26 800,-210 820.54,-207.85 842.99,-203.38 861.76,-199.02"/>
<polygon fill="midnightblue" stroke="midnightblue" points="862.58,-202.43 871.49,-196.7 860.95,-195.62 862.58,-202.43"/>
</g>
<!-- Node18 -->
<g id="node18" class="node">
<title>Node18</title>
<g id="a_node18"><a xlink:href="classSystemData.html#a230548cc624444a66137b8d5ecaf5716" target="_top" xlink:title="Computes \chi_{i \alpha} matrix for given particle number and body number. chi matrix represents the ...">
<polygon fill="none" stroke="black" points="645,-181.5 645,-200.5 798,-200.5 798,-181.5 645,-181.5"/>
<text text-anchor="middle" x="721.5" y="-188.5" font-family="Helvetica,sans-Serif" font-size="10.00">SystemData::chiMatrixElement</text>
</a>
</g>
</g>
<!-- Node17&#45;&gt;Node18 -->
<g id="edge17" class="edge">
<title>Node17&#45;&gt;Node18</title>
<path fill="none" stroke="midnightblue" d="M596.65,-191C609.05,-191 622.05,-191 634.77,-191"/>
<polygon fill="midnightblue" stroke="midnightblue" points="634.89,-194.5 644.89,-191 634.89,-187.5 634.89,-194.5"/>
</g>
<!-- Node19 -->
<g id="node19" class="node">
<title>Node19</title>
<g id="a_node19"><a xlink:href="classSystemData.html#aeaaa2fb7779cd160ab4d90f6f1659aae" target="_top" xlink:title="Computes \nabla_{\xi} \zeta_{i \alpha} tensor for given particle number and body number.">
<polygon fill="none" stroke="black" points="649,-132 649,-162 794,-162 794,-132 649,-132"/>
<text text-anchor="start" x="657" y="-150" font-family="Helvetica,sans-Serif" font-size="10.00">SystemData::gradZetaTensor</text>
<text text-anchor="middle" x="721.5" y="-139" font-family="Helvetica,sans-Serif" font-size="10.00">Element</text>
</a>
</g>
</g>
<!-- Node17&#45;&gt;Node19 -->
<g id="edge18" class="edge">
<title>Node17&#45;&gt;Node19</title>
<path fill="none" stroke="midnightblue" d="M591.4,-175.98C608.18,-172.21 626.32,-168.14 643.55,-164.28"/>
<polygon fill="midnightblue" stroke="midnightblue" points="644.57,-167.63 653.57,-162.03 643.04,-160.8 644.57,-167.63"/>
</g>
<!-- Node19&#45;&gt;Node16 -->
<g id="edge19" class="edge">
<title>Node19&#45;&gt;Node16</title>
<path fill="none" stroke="midnightblue" d="M789.05,-162.03C813.16,-167.48 839.72,-173.48 861.24,-178.34"/>
<polygon fill="midnightblue" stroke="midnightblue" points="860.52,-181.77 871.05,-180.56 862.06,-174.94 860.52,-181.77"/>
</g>
<!-- Node21&#45;&gt;Node16 -->
<g id="edge27" class="edge">
<title>Node21&#45;&gt;Node16</title>
<path fill="none" stroke="midnightblue" d="M597.1,-98.86C653.74,-97.85 733.67,-101.35 800,-123 832.44,-133.59 865.03,-156.4 884.86,-171.98"/>
<polygon fill="midnightblue" stroke="midnightblue" points="882.8,-174.81 892.79,-178.35 887.19,-169.36 882.8,-174.81"/>
</g>
<!-- Node22 -->
<g id="node22" class="node">
<title>Node22</title>
<g id="a_node22"><a xlink:href="classSystemData.html#aaf73d6b07c3852c18831d8ab983b384f" target="_top" xlink:title="Computes \Psi matrix for given body number. \Psi matrix represents the transformation of coordinates ...">
<polygon fill="none" stroke="black" points="645,-55.5 645,-74.5 798,-74.5 798,-55.5 645,-55.5"/>
<text text-anchor="middle" x="721.5" y="-62.5" font-family="Helvetica,sans-Serif" font-size="10.00">SystemData::psiMatrixElement</text>
</a>
</g>
</g>
<!-- Node21&#45;&gt;Node22 -->
<g id="edge23" class="edge">
<title>Node21&#45;&gt;Node22</title>
<path fill="none" stroke="midnightblue" d="M597.2,-88.9C618.36,-84.8 641.21,-80.37 661.41,-76.46"/>
<polygon fill="midnightblue" stroke="midnightblue" points="662.26,-79.86 671.41,-74.52 660.93,-72.98 662.26,-79.86"/>
</g>
<!-- Node24 -->
<g id="node24" class="node">
<title>Node24</title>
<g id="a_node24"><a xlink:href="classSystemData.html#a70d2ff9a6173fcd9f30e8dc6324e8414" target="_top" xlink:title="Computes \Sigma_{i \alpha} matrix for given particle number and body number. Sigma matrix represents ...">
<polygon fill="none" stroke="black" points="643,-17.5 643,-36.5 800,-36.5 800,-17.5 643,-17.5"/>
<text text-anchor="middle" x="721.5" y="-24.5" font-family="Helvetica,sans-Serif" font-size="10.00">SystemData::rbmMatrixElement</text>
</a>
</g>
</g>
<!-- Node21&#45;&gt;Node24 -->
<g id="edge25" class="edge">
<title>Node21&#45;&gt;Node24</title>
<path fill="none" stroke="midnightblue" d="M585.24,-87.92C592.77,-85.09 600.21,-81.8 607,-78 625.68,-67.54 624.05,-55.95 643,-46 647.48,-43.65 652.27,-41.58 657.18,-39.76"/>
<polygon fill="midnightblue" stroke="midnightblue" points="658.35,-43.06 666.72,-36.56 656.12,-36.42 658.35,-43.06"/>
</g>
<!-- Node23 -->
<g id="node23" class="node">
<title>Node23</title>
<g id="a_node23"><a xlink:href="classSystemData.html#ad58491f39fe352229da5494878b88911" target="_top" xlink:title="Computes the E matrix of quaternion (4&#45;vector) input.">
<polygon fill="none" stroke="black" points="850,-55.5 850,-74.5 960,-74.5 960,-55.5 850,-55.5"/>
<text text-anchor="middle" x="905" y="-62.5" font-family="Helvetica,sans-Serif" font-size="10.00">SystemData::eMatrix</text>
</a>
</g>
</g>
<!-- Node22&#45;&gt;Node23 -->
<g id="edge24" class="edge">
<title>Node22&#45;&gt;Node23</title>
<path fill="none" stroke="midnightblue" d="M798.16,-65C811.96,-65 826.23,-65 839.66,-65"/>
<polygon fill="midnightblue" stroke="midnightblue" points="839.74,-68.5 849.74,-65 839.74,-61.5 839.74,-68.5"/>
</g>
<!-- Node25 -->
<g id="node25" class="node">
<title>Node25</title>
<g id="a_node25"><a xlink:href="classSystemData.html#a7cefde66d9e18e2517f11505dd434d0e" target="_top" xlink:title="Function takes in vector in vector cross&#45;product expression: .">
<polygon fill="none" stroke="black" points="836,-17.5 836,-36.5 974,-36.5 974,-17.5 836,-17.5"/>
<text text-anchor="middle" x="905" y="-24.5" font-family="Helvetica,sans-Serif" font-size="10.00">SystemData::crossProdMat</text>
</a>
</g>
</g>
<!-- Node24&#45;&gt;Node25 -->
<g id="edge26" class="edge">
<title>Node24&#45;&gt;Node25</title>
<path fill="none" stroke="midnightblue" d="M800.26,-27C808.68,-27 817.24,-27 825.66,-27"/>
<polygon fill="midnightblue" stroke="midnightblue" points="825.84,-30.5 835.84,-27 825.84,-23.5 825.84,-30.5"/>
</g>
</g>
</svg>
