<?xml version="1.0" encoding="UTF-8" standalone="no"?>
<!DOCTYPE svg PUBLIC "-//W3C//DTD SVG 1.1//EN"
 "http://www.w3.org/Graphics/SVG/1.1/DTD/svg11.dtd">
<!-- Generated by graphviz version 2.43.0 (0)
 -->
<!-- Title: test/TestSimulation.cpp Pages: 1 -->
<svg width="2147pt" height="431pt"
 viewBox="0.00 0.00 2147.00 431.00" xmlns="http://www.w3.org/2000/svg" xmlns:xlink="http://www.w3.org/1999/xlink">
<g id="graph0" class="graph" transform="scale(1 1) rotate(0) translate(4 427)">
<title>test/TestSimulation.cpp</title>
<!-- Node1 -->
<g id="node1" class="node">
<title>Node1</title>
<g id="a_node1"><a xlink:title=" ">
<polygon fill="#bfbfbf" stroke="black" points="1777.5,-403.5 1777.5,-422.5 1896.5,-422.5 1896.5,-403.5 1777.5,-403.5"/>
<text text-anchor="middle" x="1837" y="-410.5" font-family="Helvetica,sans-Serif" font-size="10.00">test/TestSimulation.cpp</text>
</a>
</g>
</g>
<!-- Node2 -->
<g id="node2" class="node">
<title>Node2</title>
<g id="a_node2"><a xlink:href="Engine_8hpp.html" target="_top" xlink:title=" ">
<polygon fill="none" stroke="black" points="843.5,-347.5 843.5,-366.5 908.5,-366.5 908.5,-347.5 843.5,-347.5"/>
<text text-anchor="middle" x="876" y="-354.5" font-family="Helvetica,sans-Serif" font-size="10.00">Engine.hpp</text>
</a>
</g>
</g>
<!-- Node1&#45;&gt;Node2 -->
<g id="edge1" class="edge">
<title>Node1&#45;&gt;Node2</title>
<path fill="none" stroke="midnightblue" d="M1777.25,-408.64C1598.87,-398.62 1073.03,-369.07 918.91,-360.41"/>
<polygon fill="midnightblue" stroke="midnightblue" points="919.07,-356.91 908.89,-359.85 918.67,-363.9 919.07,-356.91"/>
</g>
<!-- Node3 -->
<g id="node3" class="node">
<title>Node3</title>
<g id="a_node3"><a xlink:href="SystemData_8hpp.html" target="_top" xlink:title=" ">
<polygon fill="none" stroke="black" points="1202,-179.5 1202,-198.5 1292,-198.5 1292,-179.5 1202,-179.5"/>
<text text-anchor="middle" x="1247" y="-186.5" font-family="Helvetica,sans-Serif" font-size="10.00">SystemData.hpp</text>
</a>
</g>
</g>
<!-- Node1&#45;&gt;Node3 -->
<g id="edge69" class="edge">
<title>Node1&#45;&gt;Node3</title>
<path fill="none" stroke="midnightblue" d="M1783.75,-403.46C1742.09,-396.02 1683.03,-383.78 1633,-367 1491.31,-319.49 1331.98,-236.24 1271.79,-203.64"/>
<polygon fill="midnightblue" stroke="midnightblue" points="1273.14,-200.39 1262.68,-198.68 1269.79,-206.53 1273.14,-200.39"/>
</g>
<!-- Node5 -->
<g id="node5" class="node">
<title>Node5</title>
<g id="a_node5"><a xlink:href="gsd_8h.html" target="_top" xlink:title="Declare GSD data types and C API.">
<polygon fill="none" stroke="black" points="1589.5,-62 1589.5,-81 1630.5,-81 1630.5,-62 1589.5,-62"/>
<text text-anchor="middle" x="1610" y="-69" font-family="Helvetica,sans-Serif" font-size="10.00">gsd.h</text>
</a>
</g>
</g>
<!-- Node1&#45;&gt;Node5 -->
<g id="edge71" class="edge">
<title>Node1&#45;&gt;Node5</title>
<path fill="none" stroke="midnightblue" d="M1866.91,-403.43C1886.38,-396.46 1911.03,-384.83 1927,-367 1947.55,-344.06 1951,-332.8 1951,-302 1951,-302 1951,-302 1951,-188 1951,-157.2 1950.8,-142.54 1927,-123 1883.58,-87.34 1711.88,-76.53 1640.93,-73.54"/>
<polygon fill="midnightblue" stroke="midnightblue" points="1640.96,-70.04 1630.83,-73.14 1640.68,-77.03 1640.96,-70.04"/>
</g>
<!-- Node9 -->
<g id="node9" class="node">
<title>Node9</title>
<g id="a_node9"><a xlink:title=" ">
<polygon fill="none" stroke="#bfbfbf" points="970,-56.5 970,-86.5 1068,-86.5 1068,-56.5 970,-56.5"/>
<text text-anchor="start" x="978" y="-74.5" font-family="Helvetica,sans-Serif" font-size="10.00">spdlog/sinks/basic</text>
<text text-anchor="middle" x="1019" y="-63.5" font-family="Helvetica,sans-Serif" font-size="10.00">_file_sink.h</text>
</a>
</g>
</g>
<!-- Node1&#45;&gt;Node9 -->
<g id="edge73" class="edge">
<title>Node1&#45;&gt;Node9</title>
<path fill="none" stroke="midnightblue" d="M1804.74,-403.45C1776.52,-395.49 1734.73,-382.54 1700,-367 1502.25,-278.5 1480.88,-199 1278,-123 1242.16,-109.58 1142.8,-92.17 1078.08,-81.69"/>
<polygon fill="midnightblue" stroke="midnightblue" points="1078.44,-78.2 1068.01,-80.07 1077.33,-85.11 1078.44,-78.2"/>
</g>
<!-- Node10 -->
<g id="node10" class="node">
<title>Node10</title>
<g id="a_node10"><a xlink:title=" ">
<polygon fill="none" stroke="#bfbfbf" points="1356.5,-62 1356.5,-81 1441.5,-81 1441.5,-62 1356.5,-62"/>
<text text-anchor="middle" x="1399" y="-69" font-family="Helvetica,sans-Serif" font-size="10.00">spdlog/spdlog.h</text>
</a>
</g>
</g>
<!-- Node1&#45;&gt;Node10 -->
<g id="edge74" class="edge">
<title>Node1&#45;&gt;Node10</title>
<path fill="none" stroke="midnightblue" d="M1834.81,-403.46C1823.42,-359.64 1769.55,-160.75 1721,-123 1673.21,-85.85 1510.3,-99.16 1451,-87 1446.31,-86.04 1441.43,-84.88 1436.61,-83.65"/>
<polygon fill="midnightblue" stroke="midnightblue" points="1437.46,-80.26 1426.89,-81.05 1435.65,-87.02 1437.46,-80.26"/>
</g>
<!-- Node11 -->
<g id="node11" class="node">
<title>Node11</title>
<g id="a_node11"><a xlink:title=" ">
<polygon fill="none" stroke="#bfbfbf" points="1460,-62 1460,-81 1512,-81 1512,-62 1460,-62"/>
<text text-anchor="middle" x="1486" y="-69" font-family="Helvetica,sans-Serif" font-size="10.00">memory</text>
</a>
</g>
</g>
<!-- Node1&#45;&gt;Node11 -->
<g id="edge76" class="edge">
<title>Node1&#45;&gt;Node11</title>
<path fill="none" stroke="midnightblue" d="M1842.28,-403.23C1852.73,-385.04 1875,-341.6 1875,-302 1875,-302 1875,-302 1875,-244 1875,-163.43 1812.66,-157.82 1740,-123 1651.05,-80.38 1615.86,-114.06 1521,-87 1518.71,-86.35 1516.36,-85.59 1514.02,-84.76"/>
<polygon fill="midnightblue" stroke="midnightblue" points="1515.2,-81.47 1504.61,-81.14 1512.68,-88 1515.2,-81.47"/>
</g>
<!-- Node13 -->
<g id="node13" class="node">
<title>Node13</title>
<g id="a_node13"><a xlink:title=" ">
<polygon fill="none" stroke="#bfbfbf" points="1530.5,-62 1530.5,-81 1571.5,-81 1571.5,-62 1530.5,-62"/>
<text text-anchor="middle" x="1551" y="-69" font-family="Helvetica,sans-Serif" font-size="10.00">string</text>
</a>
</g>
</g>
<!-- Node1&#45;&gt;Node13 -->
<g id="edge77" class="edge">
<title>Node1&#45;&gt;Node13</title>
<path fill="none" stroke="midnightblue" d="M1850.2,-403.46C1861.84,-395.33 1878.53,-382.12 1889,-367 1906.53,-341.68 1913,-332.8 1913,-302 1913,-302 1913,-302 1913,-188 1913,-33.34 1726.23,-137.35 1580,-87 1578.57,-86.51 1577.12,-85.96 1575.67,-85.37"/>
<polygon fill="midnightblue" stroke="midnightblue" points="1576.88,-82.07 1566.33,-81.11 1573.97,-88.44 1576.88,-82.07"/>
</g>
<!-- Node19 -->
<g id="node19" class="node">
<title>Node19</title>
<g id="a_node19"><a xlink:title=" ">
<polygon fill="none" stroke="#bfbfbf" points="1605,-123.5 1605,-142.5 1695,-142.5 1695,-123.5 1605,-123.5"/>
<text text-anchor="middle" x="1650" y="-130.5" font-family="Helvetica,sans-Serif" font-size="10.00">spdlog/fmt/ostr.h</text>
</a>
</g>
</g>
<!-- Node1&#45;&gt;Node19 -->
<g id="edge72" class="edge">
<title>Node1&#45;&gt;Node19</title>
<path fill="none" stroke="midnightblue" d="M1802.13,-403.4C1757.25,-390 1685,-359.49 1685,-302 1685,-302 1685,-302 1685,-244 1685,-210.07 1669.69,-172.91 1659.32,-151.63"/>
<polygon fill="midnightblue" stroke="midnightblue" points="1662.36,-149.88 1654.72,-142.54 1656.12,-153.05 1662.36,-149.88"/>
</g>
<!-- Node29 -->
<g id="node29" class="node">
<title>Node29</title>
<g id="a_node29"><a xlink:title=" ">
<polygon fill="none" stroke="#bfbfbf" points="1979,-347.5 1979,-366.5 2071,-366.5 2071,-347.5 1979,-347.5"/>
<text text-anchor="middle" x="2025" y="-354.5" font-family="Helvetica,sans-Serif" font-size="10.00">catch2/catch.hpp</text>
</a>
</g>
</g>
<!-- Node1&#45;&gt;Node29 -->
<g id="edge70" class="edge">
<title>Node1&#45;&gt;Node29</title>
<path fill="none" stroke="midnightblue" d="M1866.79,-403.44C1898.83,-394.24 1949.93,-379.56 1985.35,-369.39"/>
<polygon fill="midnightblue" stroke="midnightblue" points="1986.71,-372.64 1995.35,-366.52 1984.77,-365.91 1986.71,-372.64"/>
</g>
<!-- Node30 -->
<g id="node30" class="node">
<title>Node30</title>
<g id="a_node30"><a xlink:title=" ">
<polygon fill="none" stroke="#bfbfbf" points="2089,-347.5 2089,-366.5 2139,-366.5 2139,-347.5 2089,-347.5"/>
<text text-anchor="middle" x="2114" y="-354.5" font-family="Helvetica,sans-Serif" font-size="10.00">fstream</text>
</a>
</g>
</g>
<!-- Node1&#45;&gt;Node30 -->
<g id="edge75" class="edge">
<title>Node1&#45;&gt;Node30</title>
<path fill="none" stroke="midnightblue" d="M1889.37,-403.48C1936.53,-395.54 2007.93,-382.87 2078.81,-367.14"/>
<polygon fill="midnightblue" stroke="midnightblue" points="2079.81,-370.5 2088.8,-364.9 2078.28,-363.67 2079.81,-370.5"/>
</g>
<!-- Node2&#45;&gt;Node3 -->
<g id="edge2" class="edge">
<title>Node2&#45;&gt;Node3</title>
<path fill="none" stroke="midnightblue" d="M908.78,-351.3C946.23,-345.17 1008.81,-332.6 1059,-311 1125.81,-282.24 1195.54,-230.76 1228.12,-205.22"/>
<polygon fill="midnightblue" stroke="midnightblue" points="1230.63,-207.7 1236.29,-198.75 1226.28,-202.21 1230.63,-207.7"/>
</g>
<!-- Node2&#45;&gt;Node9 -->
<g id="edge63" class="edge">
<title>Node2&#45;&gt;Node9</title>
<path fill="none" stroke="midnightblue" d="M885.2,-347.39C893.97,-338.81 907.13,-324.93 916,-311 962.43,-238.1 997.07,-140.69 1011.55,-96.32"/>
<polygon fill="midnightblue" stroke="midnightblue" points="1014.91,-97.3 1014.64,-86.71 1008.24,-95.16 1014.91,-97.3"/>
</g>
<!-- Node2&#45;&gt;Node10 -->
<g id="edge64" class="edge">
<title>Node2&#45;&gt;Node10</title>
<path fill="none" stroke="midnightblue" d="M908.73,-352.86C1049.85,-338.56 1603.68,-274.63 1704,-143 1709.39,-135.93 1709.83,-129.71 1704,-123 1666.78,-80.11 1506.58,-98.65 1451,-87 1446.32,-86.02 1441.43,-84.85 1436.61,-83.61"/>
<polygon fill="midnightblue" stroke="midnightblue" points="1437.47,-80.22 1426.9,-81 1435.65,-86.98 1437.47,-80.22"/>
</g>
<!-- Node2&#45;&gt;Node11 -->
<g id="edge66" class="edge">
<title>Node2&#45;&gt;Node11</title>
<path fill="none" stroke="midnightblue" d="M908.65,-354.16C1055.83,-345.03 1653.39,-298.58 1721,-143 1767.27,-36.52 1715.74,-144.14 1521,-87 1518.71,-86.33 1516.37,-85.56 1514.03,-84.72"/>
<polygon fill="midnightblue" stroke="midnightblue" points="1515.21,-81.43 1504.62,-81.08 1512.69,-87.96 1515.21,-81.43"/>
</g>
<!-- Node12 -->
<g id="node12" class="node">
<title>Node12</title>
<g id="a_node12"><a xlink:title=" ">
<polygon fill="none" stroke="#bfbfbf" points="1129.5,-62 1129.5,-81 1188.5,-81 1188.5,-62 1129.5,-62"/>
<text text-anchor="middle" x="1159" y="-69" font-family="Helvetica,sans-Serif" font-size="10.00">stdexcept</text>
</a>
</g>
</g>
<!-- Node2&#45;&gt;Node12 -->
<g id="edge67" class="edge">
<title>Node2&#45;&gt;Node12</title>
<path fill="none" stroke="midnightblue" d="M908.58,-350.08C957.69,-339.06 1045,-310.41 1045,-246 1045,-246 1045,-246 1045,-188 1045,-139.2 1097.19,-103.56 1130.95,-85.61"/>
<polygon fill="midnightblue" stroke="midnightblue" points="1132.61,-88.69 1139.92,-81.02 1129.42,-82.46 1132.61,-88.69"/>
</g>
<!-- Node2&#45;&gt;Node13 -->
<g id="edge68" class="edge">
<title>Node2&#45;&gt;Node13</title>
<path fill="none" stroke="midnightblue" d="M908.81,-356.32C1012.23,-356.29 1339.32,-348.32 1588,-255 1639.36,-235.73 1656.01,-234.3 1698,-199 1727.54,-174.16 1764.11,-153.14 1740,-123 1694.47,-66.08 1648.66,-111.48 1580,-87 1578.58,-86.49 1577.13,-85.93 1575.68,-85.33"/>
<polygon fill="midnightblue" stroke="midnightblue" points="1576.9,-82.04 1566.35,-81.04 1573.97,-88.4 1576.9,-82.04"/>
</g>
<!-- Node14 -->
<g id="node14" class="node">
<title>Node14</title>
<g id="a_node14"><a xlink:title=" ">
<polygon fill="none" stroke="#bfbfbf" points="616.5,-62 616.5,-81 713.5,-81 713.5,-62 616.5,-62"/>
<text text-anchor="middle" x="665" y="-69" font-family="Helvetica,sans-Serif" font-size="10.00">eigen3/Eigen/Core</text>
</a>
</g>
</g>
<!-- Node2&#45;&gt;Node14 -->
<g id="edge58" class="edge">
<title>Node2&#45;&gt;Node14</title>
<path fill="none" stroke="midnightblue" d="M843.44,-354.9C786.57,-352.19 666.08,-342.84 570,-311 469.77,-277.79 429.1,-245.06 402,-143 399.72,-134.41 396.34,-129.85 402,-123 427.35,-92.32 536.43,-80.09 605.9,-75.35"/>
<polygon fill="midnightblue" stroke="midnightblue" points="606.52,-78.82 616.27,-74.68 606.07,-71.83 606.52,-78.82"/>
</g>
<!-- Node15 -->
<g id="node15" class="node">
<title>Node15</title>
<g id="a_node15"><a xlink:title=" ">
<polygon fill="none" stroke="#bfbfbf" points="362.5,-62 362.5,-81 463.5,-81 463.5,-62 362.5,-62"/>
<text text-anchor="middle" x="413" y="-69" font-family="Helvetica,sans-Serif" font-size="10.00">eigen3/Eigen/Eigen</text>
</a>
</g>
</g>
<!-- Node2&#45;&gt;Node15 -->
<g id="edge59" class="edge">
<title>Node2&#45;&gt;Node15</title>
<path fill="none" stroke="midnightblue" d="M843.18,-353.91C711.94,-345.11 232,-308.67 232,-246 232,-246 232,-246 232,-188 232,-152.81 330.48,-106.69 382.16,-84.91"/>
<polygon fill="midnightblue" stroke="midnightblue" points="383.64,-88.09 391.53,-81.02 380.95,-81.62 383.64,-88.09"/>
</g>
<!-- Node16 -->
<g id="node16" class="node">
<title>Node16</title>
<g id="a_node16"><a xlink:title=" ">
<polygon fill="none" stroke="#bfbfbf" points="800,-56.5 800,-86.5 910,-86.5 910,-56.5 800,-56.5"/>
<text text-anchor="start" x="808" y="-74.5" font-family="Helvetica,sans-Serif" font-size="10.00">eigen3/unsupported</text>
<text text-anchor="middle" x="855" y="-63.5" font-family="Helvetica,sans-Serif" font-size="10.00">/Eigen/CXX11/Tensor</text>
</a>
</g>
</g>
<!-- Node2&#45;&gt;Node16 -->
<g id="edge60" class="edge">
<title>Node2&#45;&gt;Node16</title>
<path fill="none" stroke="midnightblue" d="M882.63,-347.27C888.77,-338.61 897.46,-324.67 901,-311 903.23,-302.4 901.89,-299.84 901,-291 893.81,-219.27 872.8,-136.46 861.83,-96.52"/>
<polygon fill="midnightblue" stroke="midnightblue" points="865.14,-95.35 859.09,-86.65 858.4,-97.22 865.14,-95.35"/>
</g>
<!-- Node17 -->
<g id="node17" class="node">
<title>Node17</title>
<g id="a_node17"><a xlink:title=" ">
<polygon fill="none" stroke="#bfbfbf" points="213.5,-56.5 213.5,-86.5 344.5,-86.5 344.5,-56.5 213.5,-56.5"/>
<text text-anchor="start" x="221.5" y="-74.5" font-family="Helvetica,sans-Serif" font-size="10.00">eigen3/unsupported</text>
<text text-anchor="middle" x="279" y="-63.5" font-family="Helvetica,sans-Serif" font-size="10.00">/Eigen/CXX11/ThreadPool</text>
</a>
</g>
</g>
<!-- Node2&#45;&gt;Node17 -->
<g id="edge61" class="edge">
<title>Node2&#45;&gt;Node17</title>
<path fill="none" stroke="midnightblue" d="M843.33,-356.22C715.02,-356.74 245.78,-355.52 105,-311 52.67,-294.45 0,-300.88 0,-246 0,-246 0,-246 0,-188 0,-99.81 120.49,-77.65 203.11,-72.82"/>
<polygon fill="midnightblue" stroke="midnightblue" points="203.43,-76.31 213.23,-72.3 203.07,-69.32 203.43,-76.31"/>
</g>
<!-- Node18 -->
<g id="node18" class="node">
<title>Node18</title>
<g id="a_node18"><a xlink:href="helper__eigenTensorConversion_8hpp.html" target="_top" xlink:title=" ">
<polygon fill="none" stroke="black" points="411.5,-123.5 411.5,-142.5 580.5,-142.5 580.5,-123.5 411.5,-123.5"/>
<text text-anchor="middle" x="496" y="-130.5" font-family="Helvetica,sans-Serif" font-size="10.00">helper_eigenTensorConversion.hpp</text>
</a>
</g>
</g>
<!-- Node2&#45;&gt;Node18 -->
<g id="edge62" class="edge">
<title>Node2&#45;&gt;Node18</title>
<path fill="none" stroke="midnightblue" d="M843.29,-354.58C774.87,-350.09 614.31,-331.54 509,-255 484.67,-237.32 479.83,-227.75 471,-199 465.91,-182.45 474.35,-164.07 482.76,-151.09"/>
<polygon fill="midnightblue" stroke="midnightblue" points="485.78,-152.88 488.69,-142.7 480.06,-148.84 485.78,-152.88"/>
</g>
<!-- Node21 -->
<g id="node21" class="node">
<title>Node21</title>
<g id="a_node21"><a xlink:href="PotentialHydrodynamics_8hpp.html" target="_top" xlink:title=" ">
<polygon fill="none" stroke="black" points="610,-235.5 610,-254.5 752,-254.5 752,-235.5 610,-235.5"/>
<text text-anchor="middle" x="681" y="-242.5" font-family="Helvetica,sans-Serif" font-size="10.00">PotentialHydrodynamics.hpp</text>
</a>
</g>
</g>
<!-- Node2&#45;&gt;Node21 -->
<g id="edge32" class="edge">
<title>Node2&#45;&gt;Node21</title>
<path fill="none" stroke="midnightblue" d="M843.42,-352.72C810.77,-348.06 760.41,-336.96 725,-311 708.39,-298.82 696.06,-278.37 688.74,-263.66"/>
<polygon fill="midnightblue" stroke="midnightblue" points="691.89,-262.13 684.49,-254.56 685.55,-265.1 691.89,-262.13"/>
</g>
<!-- Node23 -->
<g id="node23" class="node">
<title>Node23</title>
<g id="a_node23"><a xlink:href="ProgressBar_8hpp.html" target="_top" xlink:title=" ">
<polygon fill="none" stroke="black" points="114.5,-291.5 114.5,-310.5 203.5,-310.5 203.5,-291.5 114.5,-291.5"/>
<text text-anchor="middle" x="159" y="-298.5" font-family="Helvetica,sans-Serif" font-size="10.00">ProgressBar.hpp</text>
</a>
</g>
</g>
<!-- Node2&#45;&gt;Node23 -->
<g id="edge42" class="edge">
<title>Node2&#45;&gt;Node23</title>
<path fill="none" stroke="midnightblue" d="M843.39,-354.73C747.36,-350.78 457.29,-337.39 218,-311 216.7,-310.86 215.38,-310.7 214.05,-310.55"/>
<polygon fill="midnightblue" stroke="midnightblue" points="214.09,-307.02 203.73,-309.22 213.2,-313.97 214.09,-307.02"/>
</g>
<!-- Node27 -->
<g id="node27" class="node">
<title>Node27</title>
<g id="a_node27"><a xlink:href="RungeKutta4_8hpp.html" target="_top" xlink:title=" ">
<polygon fill="none" stroke="black" points="800,-291.5 800,-310.5 892,-310.5 892,-291.5 800,-291.5"/>
<text text-anchor="middle" x="846" y="-298.5" font-family="Helvetica,sans-Serif" font-size="10.00">RungeKutta4.hpp</text>
</a>
</g>
</g>
<!-- Node2&#45;&gt;Node27 -->
<g id="edge47" class="edge">
<title>Node2&#45;&gt;Node27</title>
<path fill="none" stroke="midnightblue" d="M871.05,-347.08C866.9,-339.61 860.85,-328.72 855.73,-319.52"/>
<polygon fill="midnightblue" stroke="midnightblue" points="858.78,-317.79 850.86,-310.75 852.66,-321.19 858.78,-317.79"/>
</g>
<!-- Node28 -->
<g id="node28" class="node">
<title>Node28</title>
<g id="a_node28"><a xlink:title=" ">
<polygon fill="none" stroke="#bfbfbf" points="734.5,-291.5 734.5,-310.5 781.5,-310.5 781.5,-291.5 734.5,-291.5"/>
<text text-anchor="middle" x="758" y="-298.5" font-family="Helvetica,sans-Serif" font-size="10.00">math.h</text>
</a>
</g>
</g>
<!-- Node2&#45;&gt;Node28 -->
<g id="edge65" class="edge">
<title>Node2&#45;&gt;Node28</title>
<path fill="none" stroke="midnightblue" d="M857.3,-347.44C838.06,-338.64 807.85,-324.81 785.8,-314.72"/>
<polygon fill="midnightblue" stroke="midnightblue" points="787.16,-311.5 776.61,-310.52 784.25,-317.86 787.16,-311.5"/>
</g>
<!-- Node4 -->
<g id="node4" class="node">
<title>Node4</title>
<g id="a_node4"><a xlink:href="GSDUtil_8hpp.html" target="_top" xlink:title=" ">
<polygon fill="none" stroke="black" points="1363,-123.5 1363,-142.5 1435,-142.5 1435,-123.5 1363,-123.5"/>
<text text-anchor="middle" x="1399" y="-130.5" font-family="Helvetica,sans-Serif" font-size="10.00">GSDUtil.hpp</text>
</a>
</g>
</g>
<!-- Node3&#45;&gt;Node4 -->
<g id="edge3" class="edge">
<title>Node3&#45;&gt;Node4</title>
<path fill="none" stroke="midnightblue" d="M1266,-179.44C1289.57,-170.36 1329.97,-155.94 1360.14,-145.78"/>
<polygon fill="midnightblue" stroke="midnightblue" points="1361.57,-149 1369.95,-142.52 1359.35,-142.36 1361.57,-149"/>
</g>
<!-- Node3&#45;&gt;Node5 -->
<g id="edge14" class="edge">
<title>Node3&#45;&gt;Node5</title>
<path fill="none" stroke="midnightblue" d="M1292.38,-185.11C1343.76,-180.65 1429.27,-169.63 1498,-143 1533.43,-129.27 1569.82,-103.86 1591.15,-87.59"/>
<polygon fill="midnightblue" stroke="midnightblue" points="1593.58,-90.14 1599.32,-81.24 1589.28,-84.61 1593.58,-90.14"/>
</g>
<!-- Node3&#45;&gt;Node9 -->
<g id="edge26" class="edge">
<title>Node3&#45;&gt;Node9</title>
<path fill="none" stroke="midnightblue" d="M1229.86,-179.32C1193.09,-160.69 1105.89,-116.52 1055.9,-91.19"/>
<polygon fill="midnightblue" stroke="midnightblue" points="1057.23,-87.94 1046.73,-86.55 1054.06,-94.19 1057.23,-87.94"/>
</g>
<!-- Node3&#45;&gt;Node10 -->
<g id="edge27" class="edge">
<title>Node3&#45;&gt;Node10</title>
<path fill="none" stroke="midnightblue" d="M1258.42,-179.32C1284.17,-159.75 1346.99,-112.02 1379.22,-87.53"/>
<polygon fill="midnightblue" stroke="midnightblue" points="1381.6,-90.12 1387.44,-81.28 1377.36,-84.55 1381.6,-90.12"/>
</g>
<!-- Node3&#45;&gt;Node11 -->
<g id="edge28" class="edge">
<title>Node3&#45;&gt;Node11</title>
<path fill="none" stroke="midnightblue" d="M1292.21,-187.58C1335.05,-185.05 1399.32,-175.51 1444,-143 1461.77,-130.07 1473.37,-107.14 1479.79,-90.94"/>
<polygon fill="midnightblue" stroke="midnightblue" points="1483.11,-92.04 1483.27,-81.44 1476.54,-89.63 1483.11,-92.04"/>
</g>
<!-- Node3&#45;&gt;Node12 -->
<g id="edge29" class="edge">
<title>Node3&#45;&gt;Node12</title>
<path fill="none" stroke="midnightblue" d="M1240.39,-179.32C1225.86,-160.26 1190.96,-114.45 1171.92,-89.46"/>
<polygon fill="midnightblue" stroke="midnightblue" points="1174.54,-87.12 1165.69,-81.28 1168.97,-91.36 1174.54,-87.12"/>
</g>
<!-- Node3&#45;&gt;Node13 -->
<g id="edge30" class="edge">
<title>Node3&#45;&gt;Node13</title>
<path fill="none" stroke="midnightblue" d="M1292.29,-185.4C1338.51,-181.26 1411.3,-170.56 1468,-143 1495.51,-129.63 1521.4,-105 1536.73,-88.68"/>
<polygon fill="midnightblue" stroke="midnightblue" points="1539.58,-90.75 1543.74,-81.01 1534.41,-86.03 1539.58,-90.75"/>
</g>
<!-- Node3&#45;&gt;Node14 -->
<g id="edge15" class="edge">
<title>Node3&#45;&gt;Node14</title>
<path fill="none" stroke="midnightblue" d="M1203.73,-179.41C1099.01,-158.63 832.17,-105.68 718.06,-83.03"/>
<polygon fill="midnightblue" stroke="midnightblue" points="718.65,-79.58 708.16,-81.06 717.29,-86.44 718.65,-79.58"/>
</g>
<!-- Node3&#45;&gt;Node15 -->
<g id="edge16" class="edge">
<title>Node3&#45;&gt;Node15</title>
<path fill="none" stroke="midnightblue" d="M1201.76,-181.85C1138.33,-173.22 1019.37,-157.01 918,-143 757.46,-120.81 568.26,-94.3 473.5,-81"/>
<polygon fill="midnightblue" stroke="midnightblue" points="473.92,-77.53 463.53,-79.6 472.94,-84.46 473.92,-77.53"/>
</g>
<!-- Node3&#45;&gt;Node16 -->
<g id="edge17" class="edge">
<title>Node3&#45;&gt;Node16</title>
<path fill="none" stroke="midnightblue" d="M1217.86,-179.41C1153.34,-160.4 997.46,-114.47 912.52,-89.45"/>
<polygon fill="midnightblue" stroke="midnightblue" points="913.35,-86.04 902.77,-86.58 911.37,-92.76 913.35,-86.04"/>
</g>
<!-- Node3&#45;&gt;Node17 -->
<g id="edge18" class="edge">
<title>Node3&#45;&gt;Node17</title>
<path fill="none" stroke="midnightblue" d="M1201.8,-184.23C1117.83,-177.11 932.09,-160.78 776,-143 684.73,-132.6 461.13,-104.2 354.66,-87.21"/>
<polygon fill="midnightblue" stroke="midnightblue" points="355.16,-83.74 344.73,-85.6 354.04,-90.65 355.16,-83.74"/>
</g>
<!-- Node3&#45;&gt;Node18 -->
<g id="edge19" class="edge">
<title>Node3&#45;&gt;Node18</title>
<path fill="none" stroke="midnightblue" d="M1201.64,-184.87C1097.57,-177.68 833.64,-159.32 613,-143 605.81,-142.47 598.36,-141.91 590.88,-141.35"/>
<polygon fill="midnightblue" stroke="midnightblue" points="590.91,-137.84 580.67,-140.57 590.38,-144.82 590.91,-137.84"/>
</g>
<!-- Node3&#45;&gt;Node19 -->
<g id="edge25" class="edge">
<title>Node3&#45;&gt;Node19</title>
<path fill="none" stroke="midnightblue" d="M1292.12,-182.41C1357.9,-174.19 1483.95,-158.16 1591,-143 1592.27,-142.82 1593.55,-142.64 1594.85,-142.45"/>
<polygon fill="midnightblue" stroke="midnightblue" points="1595.53,-145.89 1604.92,-140.98 1594.52,-138.96 1595.53,-145.89"/>
</g>
<!-- Node20 -->
<g id="node20" class="node">
<title>Node20</title>
<g id="a_node20"><a xlink:title=" ">
<polygon fill="none" stroke="#bfbfbf" points="1225,-123.5 1225,-142.5 1269,-142.5 1269,-123.5 1225,-123.5"/>
<text text-anchor="middle" x="1247" y="-130.5" font-family="Helvetica,sans-Serif" font-size="10.00">thread</text>
</a>
</g>
</g>
<!-- Node3&#45;&gt;Node20 -->
<g id="edge31" class="edge">
<title>Node3&#45;&gt;Node20</title>
<path fill="none" stroke="midnightblue" d="M1247,-179.08C1247,-172.01 1247,-161.86 1247,-152.99"/>
<polygon fill="midnightblue" stroke="midnightblue" points="1250.5,-152.75 1247,-142.75 1243.5,-152.75 1250.5,-152.75"/>
</g>
<!-- Node4&#45;&gt;Node3 -->
<g id="edge4" class="edge">
<title>Node4&#45;&gt;Node3</title>
<path fill="none" stroke="midnightblue" d="M1380.11,-142.52C1356.58,-151.59 1316.2,-166 1285.99,-176.17"/>
<polygon fill="midnightblue" stroke="midnightblue" points="1284.55,-172.96 1276.17,-179.44 1286.77,-179.6 1284.55,-172.96"/>
</g>
<!-- Node4&#45;&gt;Node5 -->
<g id="edge5" class="edge">
<title>Node4&#45;&gt;Node5</title>
<path fill="none" stroke="midnightblue" d="M1435.02,-125.33C1472.02,-117.96 1530.97,-104.73 1580,-87 1581.43,-86.48 1582.88,-85.92 1584.33,-85.33"/>
<polygon fill="midnightblue" stroke="midnightblue" points="1586.06,-88.39 1593.76,-81.1 1583.2,-82 1586.06,-88.39"/>
</g>
<!-- Node4&#45;&gt;Node9 -->
<g id="edge9" class="edge">
<title>Node4&#45;&gt;Node9</title>
<path fill="none" stroke="midnightblue" d="M1362.97,-125.4C1358.27,-124.57 1353.52,-123.75 1349,-123 1254.57,-107.28 1144.63,-90.82 1078.49,-81.12"/>
<polygon fill="midnightblue" stroke="midnightblue" points="1078.67,-77.61 1068.26,-79.63 1077.65,-84.54 1078.67,-77.61"/>
</g>
<!-- Node4&#45;&gt;Node10 -->
<g id="edge10" class="edge">
<title>Node4&#45;&gt;Node10</title>
<path fill="none" stroke="midnightblue" d="M1399,-123.48C1399,-115.08 1399,-101.98 1399,-91.16"/>
<polygon fill="midnightblue" stroke="midnightblue" points="1402.5,-91.01 1399,-81.01 1395.5,-91.01 1402.5,-91.01"/>
</g>
<!-- Node4&#45;&gt;Node11 -->
<g id="edge11" class="edge">
<title>Node4&#45;&gt;Node11</title>
<path fill="none" stroke="midnightblue" d="M1411.46,-123.48C1425.42,-113.93 1448.26,-98.31 1464.99,-86.87"/>
<polygon fill="midnightblue" stroke="midnightblue" points="1467.28,-89.54 1473.56,-81.01 1463.33,-83.77 1467.28,-89.54"/>
</g>
<!-- Node4&#45;&gt;Node12 -->
<g id="edge12" class="edge">
<title>Node4&#45;&gt;Node12</title>
<path fill="none" stroke="midnightblue" d="M1364.61,-123.48C1320.75,-112.6 1245.05,-93.83 1198.75,-82.36"/>
<polygon fill="midnightblue" stroke="midnightblue" points="1199.33,-78.89 1188.78,-79.88 1197.65,-85.69 1199.33,-78.89"/>
</g>
<!-- Node4&#45;&gt;Node13 -->
<g id="edge13" class="edge">
<title>Node4&#45;&gt;Node13</title>
<path fill="none" stroke="midnightblue" d="M1424.51,-123.4C1449.39,-114.82 1488.17,-100.95 1521,-87 1522.2,-86.49 1523.42,-85.96 1524.64,-85.41"/>
<polygon fill="midnightblue" stroke="midnightblue" points="1526.4,-88.46 1534,-81.07 1523.45,-82.11 1526.4,-88.46"/>
</g>
<!-- Node6 -->
<g id="node6" class="node">
<title>Node6</title>
<g id="a_node6"><a xlink:title=" ">
<polygon fill="none" stroke="#bfbfbf" points="1511,-0.5 1511,-19.5 1567,-19.5 1567,-0.5 1511,-0.5"/>
<text text-anchor="middle" x="1539" y="-7.5" font-family="Helvetica,sans-Serif" font-size="10.00">stdbool.h</text>
</a>
</g>
</g>
<!-- Node5&#45;&gt;Node6 -->
<g id="edge6" class="edge">
<title>Node5&#45;&gt;Node6</title>
<path fill="none" stroke="midnightblue" d="M1599.83,-61.98C1588.65,-52.61 1570.48,-37.38 1556.91,-26.01"/>
<polygon fill="midnightblue" stroke="midnightblue" points="1559.07,-23.25 1549.15,-19.51 1554.57,-28.61 1559.07,-23.25"/>
</g>
<!-- Node7 -->
<g id="node7" class="node">
<title>Node7</title>
<g id="a_node7"><a xlink:title=" ">
<polygon fill="none" stroke="#bfbfbf" points="1585.5,-0.5 1585.5,-19.5 1634.5,-19.5 1634.5,-0.5 1585.5,-0.5"/>
<text text-anchor="middle" x="1610" y="-7.5" font-family="Helvetica,sans-Serif" font-size="10.00">stdint.h</text>
</a>
</g>
</g>
<!-- Node5&#45;&gt;Node7 -->
<g id="edge7" class="edge">
<title>Node5&#45;&gt;Node7</title>
<path fill="none" stroke="midnightblue" d="M1610,-61.98C1610,-53.58 1610,-40.48 1610,-29.66"/>
<polygon fill="midnightblue" stroke="midnightblue" points="1613.5,-29.51 1610,-19.51 1606.5,-29.51 1613.5,-29.51"/>
</g>
<!-- Node8 -->
<g id="node8" class="node">
<title>Node8</title>
<g id="a_node8"><a xlink:title=" ">
<polygon fill="none" stroke="#bfbfbf" points="1652.5,-0.5 1652.5,-19.5 1701.5,-19.5 1701.5,-0.5 1652.5,-0.5"/>
<text text-anchor="middle" x="1677" y="-7.5" font-family="Helvetica,sans-Serif" font-size="10.00">string.h</text>
</a>
</g>
</g>
<!-- Node5&#45;&gt;Node8 -->
<g id="edge8" class="edge">
<title>Node5&#45;&gt;Node8</title>
<path fill="none" stroke="midnightblue" d="M1619.6,-61.98C1630.05,-52.7 1646.97,-37.67 1659.74,-26.33"/>
<polygon fill="midnightblue" stroke="midnightblue" points="1662.27,-28.77 1667.42,-19.51 1657.62,-23.53 1662.27,-28.77"/>
</g>
<!-- Node18&#45;&gt;Node14 -->
<g id="edge20" class="edge">
<title>Node18&#45;&gt;Node14</title>
<path fill="none" stroke="midnightblue" d="M520.21,-123.48C549.33,-113.22 598.37,-95.96 631.2,-84.4"/>
<polygon fill="midnightblue" stroke="midnightblue" points="632.56,-87.63 640.83,-81.01 630.24,-81.03 632.56,-87.63"/>
</g>
<!-- Node18&#45;&gt;Node15 -->
<g id="edge21" class="edge">
<title>Node18&#45;&gt;Node15</title>
<path fill="none" stroke="midnightblue" d="M484.11,-123.48C470.8,-113.93 449,-98.31 433.04,-86.87"/>
<polygon fill="midnightblue" stroke="midnightblue" points="435.04,-83.99 424.87,-81.01 430.96,-89.68 435.04,-83.99"/>
</g>
<!-- Node18&#45;&gt;Node16 -->
<g id="edge22" class="edge">
<title>Node18&#45;&gt;Node16</title>
<path fill="none" stroke="midnightblue" d="M547.44,-123.48C611.28,-112.89 720.23,-94.84 789.85,-83.3"/>
<polygon fill="midnightblue" stroke="midnightblue" points="790.54,-86.73 799.83,-81.64 789.39,-79.83 790.54,-86.73"/>
</g>
<!-- Node18&#45;&gt;Node17 -->
<g id="edge23" class="edge">
<title>Node18&#45;&gt;Node17</title>
<path fill="none" stroke="midnightblue" d="M464.91,-123.48C432.43,-114.57 380.64,-100.37 339.96,-89.22"/>
<polygon fill="midnightblue" stroke="midnightblue" points="340.71,-85.79 330.14,-86.52 338.86,-92.54 340.71,-85.79"/>
</g>
<!-- Node18&#45;&gt;Node18 -->
<g id="edge24" class="edge">
<title>Node18&#45;&gt;Node18</title>
<path fill="none" stroke="midnightblue" d="M539.45,-142.5C569.25,-145.33 598.5,-142.16 598.5,-133 598.5,-124.88 575.5,-121.47 549.51,-122.77"/>
<polygon fill="midnightblue" stroke="midnightblue" points="549.17,-119.29 539.45,-123.5 549.68,-126.27 549.17,-119.29"/>
</g>
<!-- Node21&#45;&gt;Node3 -->
<g id="edge33" class="edge">
<title>Node21&#45;&gt;Node3</title>
<path fill="none" stroke="midnightblue" d="M752.11,-237.22C866.36,-226.32 1088.4,-205.13 1191.68,-195.28"/>
<polygon fill="midnightblue" stroke="midnightblue" points="1192.27,-198.74 1201.9,-194.3 1191.61,-191.77 1192.27,-198.74"/>
</g>
<!-- Node21&#45;&gt;Node9 -->
<g id="edge39" class="edge">
<title>Node21&#45;&gt;Node9</title>
<path fill="none" stroke="midnightblue" d="M697.55,-235.41C736,-215.49 834.35,-164.64 917,-123 938.23,-112.3 962.03,-100.51 981.3,-91.01"/>
<polygon fill="midnightblue" stroke="midnightblue" points="982.94,-94.1 990.37,-86.54 979.85,-87.82 982.94,-94.1"/>
</g>
<!-- Node21&#45;&gt;Node10 -->
<g id="edge40" class="edge">
<title>Node21&#45;&gt;Node10</title>
<path fill="none" stroke="midnightblue" d="M716.61,-235.5C835.74,-207.04 1220.39,-115.16 1353.31,-83.41"/>
<polygon fill="midnightblue" stroke="midnightblue" points="1354.27,-86.78 1363.18,-81.06 1352.64,-79.98 1354.27,-86.78"/>
</g>
<!-- Node21&#45;&gt;Node14 -->
<g id="edge34" class="edge">
<title>Node21&#45;&gt;Node14</title>
<path fill="none" stroke="midnightblue" d="M680.18,-235.26C677.7,-208.65 670.2,-128.21 666.76,-91.34"/>
<polygon fill="midnightblue" stroke="midnightblue" points="670.21,-90.65 665.79,-81.02 663.24,-91.3 670.21,-90.65"/>
</g>
<!-- Node21&#45;&gt;Node15 -->
<g id="edge35" class="edge">
<title>Node21&#45;&gt;Node15</title>
<path fill="none" stroke="midnightblue" d="M670.9,-235.32C653.93,-221.23 618.11,-193.47 583,-179 507.17,-147.74 454.03,-206.4 402,-143 390.01,-128.39 396.22,-106.15 403.19,-90.57"/>
<polygon fill="midnightblue" stroke="midnightblue" points="406.41,-91.95 407.7,-81.44 400.14,-88.85 406.41,-91.95"/>
</g>
<!-- Node21&#45;&gt;Node16 -->
<g id="edge36" class="edge">
<title>Node21&#45;&gt;Node16</title>
<path fill="none" stroke="midnightblue" d="M689.55,-235.46C709.4,-215.64 760.21,-165 803,-123 812.82,-113.36 823.75,-102.74 833.03,-93.73"/>
<polygon fill="midnightblue" stroke="midnightblue" points="835.64,-96.08 840.39,-86.61 830.77,-91.05 835.64,-96.08"/>
</g>
<!-- Node21&#45;&gt;Node17 -->
<g id="edge37" class="edge">
<title>Node21&#45;&gt;Node17</title>
<path fill="none" stroke="midnightblue" d="M660.4,-235.36C640.34,-226.75 609.13,-212.86 583,-199 567.85,-190.96 565.9,-185.43 550,-179 483.24,-151.99 458.59,-170.44 392,-143 360.29,-129.93 327.4,-108.34 305.33,-92.49"/>
<polygon fill="midnightblue" stroke="midnightblue" points="307.29,-89.59 297.15,-86.52 303.16,-95.24 307.29,-89.59"/>
</g>
<!-- Node21&#45;&gt;Node18 -->
<g id="edge38" class="edge">
<title>Node21&#45;&gt;Node18</title>
<path fill="none" stroke="midnightblue" d="M675.02,-235.17C665.24,-221.36 644.55,-194.61 621,-179 597.52,-163.43 567.98,-152.47 543.51,-145.27"/>
<polygon fill="midnightblue" stroke="midnightblue" points="544.29,-141.85 533.72,-142.51 542.39,-148.59 544.29,-141.85"/>
</g>
<!-- Node22 -->
<g id="node22" class="node">
<title>Node22</title>
<g id="a_node22"><a xlink:title=" ">
<polygon fill="none" stroke="#bfbfbf" points="487,-179.5 487,-198.5 541,-198.5 541,-179.5 487,-179.5"/>
<text text-anchor="middle" x="514" y="-186.5" font-family="Helvetica,sans-Serif" font-size="10.00">iostream</text>
</a>
</g>
</g>
<!-- Node21&#45;&gt;Node22 -->
<g id="edge41" class="edge">
<title>Node21&#45;&gt;Node22</title>
<path fill="none" stroke="midnightblue" d="M654.54,-235.44C626.32,-226.32 581.46,-211.81 550.03,-201.65"/>
<polygon fill="midnightblue" stroke="midnightblue" points="550.93,-198.26 540.34,-198.52 548.78,-204.92 550.93,-198.26"/>
</g>
<!-- Node23&#45;&gt;Node22 -->
<g id="edge46" class="edge">
<title>Node23&#45;&gt;Node22</title>
<path fill="none" stroke="midnightblue" d="M186.56,-291.46C249.76,-271.88 405.16,-223.73 476.76,-201.54"/>
<polygon fill="midnightblue" stroke="midnightblue" points="478.18,-204.76 486.7,-198.46 476.11,-198.08 478.18,-204.76"/>
</g>
<!-- Node24 -->
<g id="node24" class="node">
<title>Node24</title>
<g id="a_node24"><a xlink:title=" ">
<polygon fill="none" stroke="#bfbfbf" points="96,-235.5 96,-254.5 142,-254.5 142,-235.5 96,-235.5"/>
<text text-anchor="middle" x="119" y="-242.5" font-family="Helvetica,sans-Serif" font-size="10.00">chrono</text>
</a>
</g>
</g>
<!-- Node23&#45;&gt;Node24 -->
<g id="edge43" class="edge">
<title>Node23&#45;&gt;Node24</title>
<path fill="none" stroke="midnightblue" d="M152.39,-291.08C146.74,-283.46 138.46,-272.26 131.55,-262.94"/>
<polygon fill="midnightblue" stroke="midnightblue" points="134.25,-260.7 125.48,-254.75 128.62,-264.87 134.25,-260.7"/>
</g>
<!-- Node25 -->
<g id="node25" class="node">
<title>Node25</title>
<g id="a_node25"><a xlink:title=" ">
<polygon fill="none" stroke="#bfbfbf" points="160,-235.5 160,-254.5 204,-254.5 204,-235.5 160,-235.5"/>
<text text-anchor="middle" x="182" y="-242.5" font-family="Helvetica,sans-Serif" font-size="10.00">cmath</text>
</a>
</g>
</g>
<!-- Node23&#45;&gt;Node25 -->
<g id="edge44" class="edge">
<title>Node23&#45;&gt;Node25</title>
<path fill="none" stroke="midnightblue" d="M162.8,-291.08C165.91,-283.77 170.42,-273.18 174.29,-264.1"/>
<polygon fill="midnightblue" stroke="midnightblue" points="177.57,-265.32 178.27,-254.75 171.13,-262.58 177.57,-265.32"/>
</g>
<!-- Node26 -->
<g id="node26" class="node">
<title>Node26</title>
<g id="a_node26"><a xlink:title=" ">
<polygon fill="none" stroke="#bfbfbf" points="28,-235.5 28,-254.5 78,-254.5 78,-235.5 28,-235.5"/>
<text text-anchor="middle" x="53" y="-242.5" font-family="Helvetica,sans-Serif" font-size="10.00">iomanip</text>
</a>
</g>
</g>
<!-- Node23&#45;&gt;Node26 -->
<g id="edge45" class="edge">
<title>Node23&#45;&gt;Node26</title>
<path fill="none" stroke="midnightblue" d="M141.97,-291.32C124.97,-282.66 98.62,-269.24 79.01,-259.25"/>
<polygon fill="midnightblue" stroke="midnightblue" points="80.49,-256.08 69.99,-254.65 77.31,-262.31 80.49,-256.08"/>
</g>
<!-- Node27&#45;&gt;Node3 -->
<g id="edge49" class="edge">
<title>Node27&#45;&gt;Node3</title>
<path fill="none" stroke="midnightblue" d="M877.13,-291.46C948.87,-271.78 1125.78,-223.25 1206.12,-201.21"/>
<polygon fill="midnightblue" stroke="midnightblue" points="1207.17,-204.56 1215.89,-198.53 1205.32,-197.8 1207.17,-204.56"/>
</g>
<!-- Node27&#45;&gt;Node9 -->
<g id="edge55" class="edge">
<title>Node27&#45;&gt;Node9</title>
<path fill="none" stroke="midnightblue" d="M850.04,-291.18C862.76,-264.03 904.13,-180.15 955,-123 965.07,-111.69 977.91,-101.01 989.44,-92.41"/>
<polygon fill="midnightblue" stroke="midnightblue" points="991.5,-95.24 997.54,-86.53 987.39,-89.57 991.5,-95.24"/>
</g>
<!-- Node27&#45;&gt;Node10 -->
<g id="edge56" class="edge">
<title>Node27&#45;&gt;Node10</title>
<path fill="none" stroke="midnightblue" d="M892.21,-295.49C1021.35,-281.77 1380.7,-235.76 1444,-143 1456.87,-124.14 1436.95,-101.84 1419.66,-87.45"/>
<polygon fill="midnightblue" stroke="midnightblue" points="1421.57,-84.5 1411.54,-81.07 1417.24,-90.01 1421.57,-84.5"/>
</g>
<!-- Node27&#45;&gt;Node14 -->
<g id="edge50" class="edge">
<title>Node27&#45;&gt;Node14</title>
<path fill="none" stroke="midnightblue" d="M839.13,-291.36C812.25,-257.58 713.98,-134.07 678.17,-89.06"/>
<polygon fill="midnightblue" stroke="midnightblue" points="680.85,-86.8 671.88,-81.15 675.37,-91.15 680.85,-86.8"/>
</g>
<!-- Node27&#45;&gt;Node15 -->
<g id="edge51" class="edge">
<title>Node27&#45;&gt;Node15</title>
<path fill="none" stroke="midnightblue" d="M799.87,-292.47C796.53,-291.96 793.22,-291.46 790,-291 665.38,-273.01 622.62,-309.25 509,-255 444.04,-223.98 420.27,-209.2 392,-143 384.58,-125.63 392.74,-104.81 400.96,-90.31"/>
<polygon fill="midnightblue" stroke="midnightblue" points="404.18,-91.75 406.46,-81.41 398.23,-88.07 404.18,-91.75"/>
</g>
<!-- Node27&#45;&gt;Node16 -->
<g id="edge52" class="edge">
<title>Node27&#45;&gt;Node16</title>
<path fill="none" stroke="midnightblue" d="M846.34,-291.36C847.61,-259.37 852.06,-146.91 854.04,-96.85"/>
<polygon fill="midnightblue" stroke="midnightblue" points="857.54,-96.75 854.44,-86.62 850.55,-96.48 857.54,-96.75"/>
</g>
<!-- Node27&#45;&gt;Node17 -->
<g id="edge53" class="edge">
<title>Node27&#45;&gt;Node17</title>
<path fill="none" stroke="midnightblue" d="M799.88,-292.41C796.54,-291.91 793.22,-291.44 790,-291 646.43,-271.5 604.4,-297.86 466,-255 364.96,-223.71 310.42,-233.7 256,-143 247.14,-128.24 253.81,-109.66 262.21,-95.29"/>
<polygon fill="midnightblue" stroke="midnightblue" points="265.37,-96.83 267.82,-86.53 259.48,-93.06 265.37,-96.83"/>
</g>
<!-- Node27&#45;&gt;Node18 -->
<g id="edge54" class="edge">
<title>Node27&#45;&gt;Node18</title>
<path fill="none" stroke="midnightblue" d="M799.86,-292.58C796.52,-292.04 793.21,-291.51 790,-291 689.57,-274.93 658.92,-291.55 564,-255 521.44,-238.61 499.74,-239.1 478,-199 469.92,-184.09 476.74,-165.24 484.19,-151.69"/>
<polygon fill="midnightblue" stroke="midnightblue" points="487.34,-153.25 489.53,-142.89 481.35,-149.63 487.34,-153.25"/>
</g>
<!-- Node27&#45;&gt;Node21 -->
<g id="edge48" class="edge">
<title>Node27&#45;&gt;Node21</title>
<path fill="none" stroke="midnightblue" d="M819.86,-291.44C791.98,-282.32 747.65,-267.81 716.6,-257.65"/>
<polygon fill="midnightblue" stroke="midnightblue" points="717.62,-254.3 707.02,-254.52 715.44,-260.95 717.62,-254.3"/>
</g>
<!-- Node27&#45;&gt;Node22 -->
<g id="edge57" class="edge">
<title>Node27&#45;&gt;Node22</title>
<path fill="none" stroke="midnightblue" d="M799.81,-292.08C731.37,-280.25 610.07,-258.96 601,-255 573.63,-243.05 546.83,-221.01 530.36,-205.93"/>
<polygon fill="midnightblue" stroke="midnightblue" points="532.43,-203.07 522.75,-198.77 527.64,-208.17 532.43,-203.07"/>
</g>
</g>
</svg>
