<?xml version="1.0" encoding="UTF-8" standalone="no"?>
<!DOCTYPE svg PUBLIC "-//W3C//DTD SVG 1.1//EN"
 "http://www.w3.org/Graphics/SVG/1.1/DTD/svg11.dtd">
<!-- Generated by graphviz version 2.43.0 (0)
 -->
<!-- Title: TEST_CASE Pages: 1 -->
<svg width="908pt" height="643pt"
 viewBox="0.00 0.00 908.00 643.00" xmlns="http://www.w3.org/2000/svg" xmlns:xlink="http://www.w3.org/1999/xlink">
<g id="graph0" class="graph" transform="scale(1 1) rotate(0) translate(4 639)">
<title>TEST_CASE</title>
<!-- Node1 -->
<g id="node1" class="node">
<title>Node1</title>
<g id="a_node1"><a xlink:title=" ">
<polygon fill="#bfbfbf" stroke="black" points="0,-368.5 0,-387.5 75,-387.5 75,-368.5 0,-368.5"/>
<text text-anchor="middle" x="37.5" y="-375.5" font-family="Helvetica,sans-Serif" font-size="10.00">TEST_CASE</text>
</a>
</g>
</g>
<!-- Node2 -->
<g id="node2" class="node">
<title>Node2</title>
<g id="a_node2"><a xlink:href="gsd_8c.html#ad8933dcce55fd8101b5688f382c10a8e" target="_top" xlink:title=" ">
<polygon fill="none" stroke="black" points="147.5,-406.5 147.5,-425.5 206.5,-425.5 206.5,-406.5 147.5,-406.5"/>
<text text-anchor="middle" x="177" y="-413.5" font-family="Helvetica,sans-Serif" font-size="10.00">gsd_open</text>
</a>
</g>
</g>
<!-- Node1&#45;&gt;Node2 -->
<g id="edge1" class="edge">
<title>Node1&#45;&gt;Node2</title>
<path fill="none" stroke="midnightblue" d="M73.2,-387.59C92.8,-393.01 117.34,-399.79 137.53,-405.37"/>
<polygon fill="midnightblue" stroke="midnightblue" points="136.77,-408.79 147.34,-408.08 138.64,-402.04 136.77,-408.79"/>
</g>
<!-- Node15 -->
<g id="node15" class="node">
<title>Node15</title>
<g id="a_node15"><a xlink:href="classsystemData.html#ad2ba3455704ef6cec1aac76a417e91e9" target="_top" xlink:title="Function loads data from GSD file using GSDUtil class.">
<polygon fill="none" stroke="black" points="111,-349.5 111,-368.5 243,-368.5 243,-349.5 111,-349.5"/>
<text text-anchor="middle" x="177" y="-356.5" font-family="Helvetica,sans-Serif" font-size="10.00">systemData::initializeData</text>
</a>
</g>
</g>
<!-- Node1&#45;&gt;Node15 -->
<g id="edge16" class="edge">
<title>Node1&#45;&gt;Node15</title>
<path fill="none" stroke="midnightblue" d="M75.35,-372.91C83.32,-371.81 92.04,-370.6 100.89,-369.38"/>
<polygon fill="midnightblue" stroke="midnightblue" points="101.49,-372.83 110.91,-367.99 100.53,-365.9 101.49,-372.83"/>
</g>
<!-- Node3 -->
<g id="node3" class="node">
<title>Node3</title>
<g id="a_node3"><a xlink:href="gsd_8c.html#ac159dfbfd790607f85073ad2d8464a8b" target="_top" xlink:title=" ">
<polygon fill="none" stroke="black" points="286.5,-482.5 286.5,-501.5 393.5,-501.5 393.5,-482.5 286.5,-482.5"/>
<text text-anchor="middle" x="340" y="-489.5" font-family="Helvetica,sans-Serif" font-size="10.00">gsd_initialize_handle</text>
</a>
</g>
</g>
<!-- Node2&#45;&gt;Node3 -->
<g id="edge2" class="edge">
<title>Node2&#45;&gt;Node3</title>
<path fill="none" stroke="midnightblue" d="M198.39,-425.63C226.46,-438.87 277.17,-462.81 309.41,-478.03"/>
<polygon fill="midnightblue" stroke="midnightblue" points="308.24,-481.35 318.77,-482.45 311.23,-475.02 308.24,-481.35"/>
</g>
<!-- Node14 -->
<g id="node14" class="node">
<title>Node14</title>
<g id="a_node14"><a xlink:href="gsd_8c.html#a9b05d58560daee2512f03bedf7b2926d" target="_top" xlink:title=" ">
<polygon fill="none" stroke="black" points="282.5,-406.5 282.5,-425.5 397.5,-425.5 397.5,-406.5 282.5,-406.5"/>
<text text-anchor="middle" x="340" y="-413.5" font-family="Helvetica,sans-Serif" font-size="10.00">gsd_util_zero_memory</text>
</a>
</g>
</g>
<!-- Node2&#45;&gt;Node14 -->
<g id="edge15" class="edge">
<title>Node2&#45;&gt;Node14</title>
<path fill="none" stroke="midnightblue" d="M206.78,-416C225.06,-416 249.51,-416 272.41,-416"/>
<polygon fill="midnightblue" stroke="midnightblue" points="272.45,-419.5 282.45,-416 272.45,-412.5 272.45,-419.5"/>
</g>
<!-- Node4 -->
<g id="node4" class="node">
<title>Node4</title>
<g id="a_node4"><a xlink:href="gsd_8c.html#aeaf487909ab334303fa478cf4a126d6f" target="_top" xlink:title=" ">
<polygon fill="none" stroke="black" points="457.5,-501.5 457.5,-520.5 582.5,-520.5 582.5,-501.5 457.5,-501.5"/>
<text text-anchor="middle" x="520" y="-508.5" font-family="Helvetica,sans-Serif" font-size="10.00">gsd_byte_buffer_allocate</text>
</a>
</g>
</g>
<!-- Node3&#45;&gt;Node4 -->
<g id="edge3" class="edge">
<title>Node3&#45;&gt;Node4</title>
<path fill="none" stroke="midnightblue" d="M393.92,-497.65C410.54,-499.42 429.18,-501.41 446.9,-503.3"/>
<polygon fill="midnightblue" stroke="midnightblue" points="446.88,-506.82 457.2,-504.4 447.62,-499.86 446.88,-506.82"/>
</g>
<!-- Node5 -->
<g id="node5" class="node">
<title>Node5</title>
<g id="a_node5"><a xlink:href="gsd_8c.html#ae1948c93f77d642c4e3797fe7e5f2095" target="_top" xlink:title=" ">
<polygon fill="none" stroke="black" points="643,-463.5 643,-482.5 772,-482.5 772,-463.5 643,-463.5"/>
<text text-anchor="middle" x="707.5" y="-470.5" font-family="Helvetica,sans-Serif" font-size="10.00">gsd_index_buffer_allocate</text>
</a>
</g>
</g>
<!-- Node3&#45;&gt;Node5 -->
<g id="edge4" class="edge">
<title>Node3&#45;&gt;Node5</title>
<path fill="none" stroke="midnightblue" d="M393.76,-489.26C456.5,-486 561.64,-480.53 632.49,-476.85"/>
<polygon fill="midnightblue" stroke="midnightblue" points="632.89,-480.33 642.69,-476.32 632.52,-473.34 632.89,-480.33"/>
</g>
<!-- Node6 -->
<g id="node6" class="node">
<title>Node6</title>
<g id="a_node6"><a xlink:href="gsd_8c.html#a6fe75caf6c4df550af2455a0c40bfbdf" target="_top" xlink:title=" ">
<polygon fill="none" stroke="black" points="463,-425.5 463,-444.5 577,-444.5 577,-425.5 463,-425.5"/>
<text text-anchor="middle" x="520" y="-432.5" font-family="Helvetica,sans-Serif" font-size="10.00">gsd_index_buffer_map</text>
</a>
</g>
</g>
<!-- Node3&#45;&gt;Node6 -->
<g id="edge5" class="edge">
<title>Node3&#45;&gt;Node6</title>
<path fill="none" stroke="midnightblue" d="M367.79,-482.42C386.98,-475.65 413.49,-466.48 437,-459 449.38,-455.06 462.89,-451.01 475.3,-447.38"/>
<polygon fill="midnightblue" stroke="midnightblue" points="476.35,-450.72 484.98,-444.57 474.4,-444 476.35,-450.72"/>
</g>
<!-- Node7 -->
<g id="node7" class="node">
<title>Node7</title>
<g id="a_node7"><a xlink:href="gsd_8c.html#ac1f41abbefbfe35337e7053d766c089b" target="_top" xlink:title=" ">
<polygon fill="none" stroke="black" points="658,-387.5 658,-406.5 757,-406.5 757,-387.5 658,-387.5"/>
<text text-anchor="middle" x="707.5" y="-394.5" font-family="Helvetica,sans-Serif" font-size="10.00">gsd_io_pread_retry</text>
</a>
</g>
</g>
<!-- Node3&#45;&gt;Node7 -->
<g id="edge10" class="edge">
<title>Node3&#45;&gt;Node7</title>
<path fill="none" stroke="midnightblue" d="M349.34,-482.36C364.7,-465.4 399.34,-430.61 437,-416 505.75,-389.33 591.7,-388.25 647.79,-391.39"/>
<polygon fill="midnightblue" stroke="midnightblue" points="647.71,-394.89 657.91,-392.02 648.15,-387.91 647.71,-394.89"/>
</g>
<!-- Node10 -->
<g id="node10" class="node">
<title>Node10</title>
<g id="a_node10"><a xlink:href="gsd_8c.html#a493ef951956c9f98adff89a80ddb3fa6" target="_top" xlink:title=" ">
<polygon fill="none" stroke="black" points="471,-615.5 471,-634.5 569,-634.5 569,-615.5 471,-615.5"/>
<text text-anchor="middle" x="520" y="-622.5" font-family="Helvetica,sans-Serif" font-size="10.00">gsd_make_version</text>
</a>
</g>
</g>
<!-- Node3&#45;&gt;Node10 -->
<g id="edge11" class="edge">
<title>Node3&#45;&gt;Node10</title>
<path fill="none" stroke="midnightblue" d="M346.25,-501.77C358.76,-524.06 392.64,-578.85 437,-606 444.26,-610.44 452.45,-613.85 460.79,-616.45"/>
<polygon fill="midnightblue" stroke="midnightblue" points="460.01,-619.87 470.59,-619.17 461.88,-613.13 460.01,-619.87"/>
</g>
<!-- Node11 -->
<g id="node11" class="node">
<title>Node11</title>
<g id="a_node11"><a xlink:href="gsd_8c.html#aebfeb70fcbc089409a7179af7d814554" target="_top" xlink:title=" ">
<polygon fill="none" stroke="black" points="451.5,-577.5 451.5,-596.5 588.5,-596.5 588.5,-577.5 451.5,-577.5"/>
<text text-anchor="middle" x="520" y="-584.5" font-family="Helvetica,sans-Serif" font-size="10.00">gsd_name_id_map_allocate</text>
</a>
</g>
</g>
<!-- Node3&#45;&gt;Node11 -->
<g id="edge12" class="edge">
<title>Node3&#45;&gt;Node11</title>
<path fill="none" stroke="midnightblue" d="M350.1,-501.57C366.1,-517.8 400.99,-550.67 437,-568 442.02,-570.42 447.36,-572.53 452.82,-574.39"/>
<polygon fill="midnightblue" stroke="midnightblue" points="452.14,-577.84 462.73,-577.45 454.21,-571.16 452.14,-577.84"/>
</g>
<!-- Node12 -->
<g id="node12" class="node">
<title>Node12</title>
<g id="a_node12"><a xlink:href="gsd_8c.html#a6c8c2e5a49ac4eb01a95be2e0df06eb9" target="_top" xlink:title=" ">
<polygon fill="none" stroke="black" points="456,-539.5 456,-558.5 584,-558.5 584,-539.5 456,-539.5"/>
<text text-anchor="middle" x="520" y="-546.5" font-family="Helvetica,sans-Serif" font-size="10.00">gsd_name_id_map_insert</text>
</a>
</g>
</g>
<!-- Node3&#45;&gt;Node12 -->
<g id="edge13" class="edge">
<title>Node3&#45;&gt;Node12</title>
<path fill="none" stroke="midnightblue" d="M362.4,-501.54C381.64,-509.86 410.82,-521.84 437,-530 445.12,-532.53 453.79,-534.9 462.34,-537.04"/>
<polygon fill="midnightblue" stroke="midnightblue" points="461.73,-540.49 472.27,-539.44 463.38,-533.69 461.73,-540.49"/>
</g>
<!-- Node6&#45;&gt;Node5 -->
<g id="edge6" class="edge">
<title>Node6&#45;&gt;Node5</title>
<path fill="none" stroke="midnightblue" d="M567.81,-444.59C592.84,-449.72 623.84,-456.07 650.18,-461.46"/>
<polygon fill="midnightblue" stroke="midnightblue" points="649.53,-464.9 660.03,-463.48 650.93,-458.04 649.53,-464.9"/>
</g>
<!-- Node6&#45;&gt;Node7 -->
<g id="edge7" class="edge">
<title>Node6&#45;&gt;Node7</title>
<path fill="none" stroke="midnightblue" d="M567.81,-425.41C592.84,-420.28 623.84,-413.93 650.18,-408.54"/>
<polygon fill="midnightblue" stroke="midnightblue" points="650.93,-411.96 660.03,-406.52 649.53,-405.1 650.93,-411.96"/>
</g>
<!-- Node8 -->
<g id="node8" class="node">
<title>Node8</title>
<g id="a_node8"><a xlink:href="gsd_8c.html#ab5d19295bedec41b7919caec2cb22759" target="_top" xlink:title=" ">
<polygon fill="none" stroke="black" points="658.5,-425.5 658.5,-444.5 756.5,-444.5 756.5,-425.5 658.5,-425.5"/>
<text text-anchor="middle" x="707.5" y="-432.5" font-family="Helvetica,sans-Serif" font-size="10.00">gsd_is_entry_valid</text>
</a>
</g>
</g>
<!-- Node6&#45;&gt;Node8 -->
<g id="edge8" class="edge">
<title>Node6&#45;&gt;Node8</title>
<path fill="none" stroke="midnightblue" d="M577.16,-435C599.63,-435 625.51,-435 648.19,-435"/>
<polygon fill="midnightblue" stroke="midnightblue" points="648.37,-438.5 658.37,-435 648.37,-431.5 648.37,-438.5"/>
</g>
<!-- Node9 -->
<g id="node9" class="node">
<title>Node9</title>
<g id="a_node9"><a xlink:href="gsd_8c.html#ab1d1a8a5f73b37df0c706f41df3bdd69" target="_top" xlink:title=" ">
<polygon fill="none" stroke="black" points="812,-425.5 812,-444.5 900,-444.5 900,-425.5 812,-425.5"/>
<text text-anchor="middle" x="856" y="-432.5" font-family="Helvetica,sans-Serif" font-size="10.00">gsd_sizeof_type</text>
</a>
</g>
</g>
<!-- Node8&#45;&gt;Node9 -->
<g id="edge9" class="edge">
<title>Node8&#45;&gt;Node9</title>
<path fill="none" stroke="midnightblue" d="M756.88,-435C771.09,-435 786.73,-435 801.26,-435"/>
<polygon fill="midnightblue" stroke="midnightblue" points="801.61,-438.5 811.61,-435 801.61,-431.5 801.61,-438.5"/>
</g>
<!-- Node13 -->
<g id="node13" class="node">
<title>Node13</title>
<g id="a_node13"><a xlink:href="gsd_8c.html#a6d8087323ec29c58d907b9462b4a31da" target="_top" xlink:title=" ">
<polygon fill="none" stroke="black" points="670,-539.5 670,-558.5 745,-558.5 745,-539.5 670,-539.5"/>
<text text-anchor="middle" x="707.5" y="-546.5" font-family="Helvetica,sans-Serif" font-size="10.00">gsd_hash_str</text>
</a>
</g>
</g>
<!-- Node12&#45;&gt;Node13 -->
<g id="edge14" class="edge">
<title>Node12&#45;&gt;Node13</title>
<path fill="none" stroke="midnightblue" d="M584.06,-549C608.84,-549 636.77,-549 659.69,-549"/>
<polygon fill="midnightblue" stroke="midnightblue" points="659.84,-552.5 669.84,-549 659.84,-545.5 659.84,-552.5"/>
</g>
<!-- Node16 -->
<g id="node16" class="node">
<title>Node16</title>
<g id="a_node16"><a xlink:href="classsystemData.html#a74a503e80869c3ef4a9b6edefd132726" target="_top" xlink:title="Passes this (systemData shared pointer instance) into GSDUtil constructor to load data from input GSD...">
<polygon fill="none" stroke="black" points="279,-349.5 279,-368.5 401,-368.5 401,-349.5 279,-349.5"/>
<text text-anchor="middle" x="340" y="-356.5" font-family="Helvetica,sans-Serif" font-size="10.00">systemData::parseGSD</text>
</a>
</g>
</g>
<!-- Node15&#45;&gt;Node16 -->
<g id="edge17" class="edge">
<title>Node15&#45;&gt;Node16</title>
<path fill="none" stroke="midnightblue" d="M243.02,-359C251.55,-359 260.32,-359 268.93,-359"/>
<polygon fill="midnightblue" stroke="midnightblue" points="268.94,-362.5 278.94,-359 268.94,-355.5 268.94,-362.5"/>
</g>
<!-- Node18 -->
<g id="node18" class="node">
<title>Node18</title>
<g id="a_node18"><a xlink:href="classsystemData.html#abe08e8ef40710f40f585342d24076085" target="_top" xlink:title="Updates all relevant rigid body motion tensors, respective gradients, and kinematic/Udwadia constrain...">
<polygon fill="none" stroke="black" points="287.5,-190.5 287.5,-209.5 392.5,-209.5 392.5,-190.5 287.5,-190.5"/>
<text text-anchor="middle" x="340" y="-197.5" font-family="Helvetica,sans-Serif" font-size="10.00">systemData::update</text>
</a>
</g>
</g>
<!-- Node15&#45;&gt;Node18 -->
<g id="edge19" class="edge">
<title>Node15&#45;&gt;Node18</title>
<path fill="none" stroke="midnightblue" d="M188.07,-349.05C214.97,-322.49 288.69,-249.68 322.12,-216.67"/>
<polygon fill="midnightblue" stroke="midnightblue" points="324.69,-219.06 329.34,-209.54 319.77,-214.07 324.69,-219.06"/>
</g>
<!-- Node17 -->
<g id="node17" class="node">
<title>Node17</title>
<g id="a_node17"><a xlink:href="classsystemData.html#a3f978844a3292e9ca096be6741c48dc2" target="_top" xlink:title="Various assertions to check data loaded from GSD is at least physical.">
<polygon fill="none" stroke="black" points="458,-349.5 458,-368.5 582,-368.5 582,-349.5 458,-349.5"/>
<text text-anchor="middle" x="520" y="-356.5" font-family="Helvetica,sans-Serif" font-size="10.00">systemData::checkInput</text>
</a>
</g>
</g>
<!-- Node16&#45;&gt;Node17 -->
<g id="edge18" class="edge">
<title>Node16&#45;&gt;Node17</title>
<path fill="none" stroke="midnightblue" d="M401.26,-359C416.24,-359 432.43,-359 447.87,-359"/>
<polygon fill="midnightblue" stroke="midnightblue" points="447.89,-362.5 457.89,-359 447.89,-355.5 447.89,-362.5"/>
</g>
<!-- Node19 -->
<g id="node19" class="node">
<title>Node19</title>
<g id="a_node19"><a xlink:href="classsystemData.html#ac981cce9f038194aea9f48f57252ca7b" target="_top" xlink:title="Computes the articulation (linear) accelerations of the particles relative to their respective locate...">
<polygon fill="none" stroke="black" points="453,-163 453,-193 587,-193 587,-163 453,-163"/>
<text text-anchor="start" x="461" y="-181" font-family="Helvetica,sans-Serif" font-size="10.00">systemData::accelerations</text>
<text text-anchor="middle" x="520" y="-170" font-family="Helvetica,sans-Serif" font-size="10.00">Articulation</text>
</a>
</g>
</g>
<!-- Node18&#45;&gt;Node19 -->
<g id="edge20" class="edge">
<title>Node18&#45;&gt;Node19</title>
<path fill="none" stroke="midnightblue" d="M392.96,-193.58C408.43,-191.67 425.71,-189.53 442.4,-187.47"/>
<polygon fill="midnightblue" stroke="midnightblue" points="443.2,-190.9 452.69,-186.2 442.34,-183.95 443.2,-190.9"/>
</g>
<!-- Node20 -->
<g id="node20" class="node">
<title>Node20</title>
<g id="a_node20"><a xlink:href="classsystemData.html#a2a35b86c91b3a2eb19612e6a2124a3ae" target="_top" xlink:title="Computes the particle D.o.F. from the body D.o.F.">
<polygon fill="none" stroke="black" points="452,-114 452,-144 588,-144 588,-114 452,-114"/>
<text text-anchor="start" x="460" y="-132" font-family="Helvetica,sans-Serif" font-size="10.00">systemData::convertBody2</text>
<text text-anchor="middle" x="520" y="-121" font-family="Helvetica,sans-Serif" font-size="10.00">ParticleDoF</text>
</a>
</g>
</g>
<!-- Node18&#45;&gt;Node20 -->
<g id="edge21" class="edge">
<title>Node18&#45;&gt;Node20</title>
<path fill="none" stroke="midnightblue" d="M359.04,-190.34C378.07,-180.4 409.1,-164.87 437,-154 442.92,-151.7 449.14,-149.47 455.4,-147.35"/>
<polygon fill="midnightblue" stroke="midnightblue" points="456.82,-150.57 465.23,-144.12 454.64,-143.91 456.82,-150.57"/>
</g>
<!-- Node24 -->
<g id="node24" class="node">
<title>Node24</title>
<g id="a_node24"><a xlink:href="classsystemData.html#a3c41026c4b66d4f6e6e22a6398c6ced8" target="_top" xlink:title="Computes the gradients rigid body motion connectivity tensors and tensors associated with change of v...">
<polygon fill="none" stroke="black" points="448,-65 448,-95 592,-95 592,-65 448,-65"/>
<text text-anchor="start" x="456" y="-83" font-family="Helvetica,sans-Serif" font-size="10.00">systemData::gradientChange</text>
<text text-anchor="middle" x="520" y="-72" font-family="Helvetica,sans-Serif" font-size="10.00">OfVariableTensors</text>
</a>
</g>
</g>
<!-- Node18&#45;&gt;Node24 -->
<g id="edge25" class="edge">
<title>Node18&#45;&gt;Node24</title>
<path fill="none" stroke="midnightblue" d="M348.07,-190.38C362.59,-171.29 397.74,-128.43 437,-105 440.59,-102.85 444.39,-100.88 448.3,-99.06"/>
<polygon fill="midnightblue" stroke="midnightblue" points="449.75,-102.25 457.58,-95.1 447,-95.81 449.75,-102.25"/>
</g>
<!-- Node26 -->
<g id="node26" class="node">
<title>Node26</title>
<g id="a_node26"><a xlink:href="classsystemData.html#a13eff8db030640c1075a7d03acdeecb6" target="_top" xlink:title="Computes the distance from each particle to its respective body&#39;s locater point.">
<polygon fill="none" stroke="black" points="450,-300 450,-330 590,-330 590,-300 450,-300"/>
<text text-anchor="start" x="458" y="-318" font-family="Helvetica,sans-Serif" font-size="10.00">systemData::particleLocater</text>
<text text-anchor="middle" x="520" y="-307" font-family="Helvetica,sans-Serif" font-size="10.00">Distances</text>
</a>
</g>
</g>
<!-- Node18&#45;&gt;Node26 -->
<g id="edge28" class="edge">
<title>Node18&#45;&gt;Node26</title>
<path fill="none" stroke="midnightblue" d="M348.37,-209.52C363.16,-227.99 398.38,-268.8 437,-291 440.05,-292.75 443.24,-294.39 446.51,-295.91"/>
<polygon fill="midnightblue" stroke="midnightblue" points="445.36,-299.22 455.93,-299.91 448.1,-292.78 445.36,-299.22"/>
</g>
<!-- Node27 -->
<g id="node27" class="node">
<title>Node27</title>
<g id="a_node27"><a xlink:href="classsystemData.html#a05afc9e7e7423d88def51ec43ab91a33" target="_top" xlink:title="Computes the rigid body motion connectivity tensors.">
<polygon fill="none" stroke="black" points="447,-16 447,-46 593,-46 593,-16 447,-16"/>
<text text-anchor="start" x="455" y="-34" font-family="Helvetica,sans-Serif" font-size="10.00">systemData::rigidBodyMotion</text>
<text text-anchor="middle" x="520" y="-23" font-family="Helvetica,sans-Serif" font-size="10.00">Tensors</text>
</a>
</g>
</g>
<!-- Node18&#45;&gt;Node27 -->
<g id="edge29" class="edge">
<title>Node18&#45;&gt;Node27</title>
<path fill="none" stroke="midnightblue" d="M344.68,-190.17C354.98,-164 386.7,-92.09 437,-55 438.89,-53.61 440.86,-52.29 442.9,-51.05"/>
<polygon fill="midnightblue" stroke="midnightblue" points="445,-53.9 452.17,-46.1 441.7,-47.73 445,-53.9"/>
</g>
<!-- Node29 -->
<g id="node29" class="node">
<title>Node29</title>
<g id="a_node29"><a xlink:href="classsystemData.html#aaf3a4980d7dc49d7339a828ed95ee4d6" target="_top" xlink:title="Computes the Udwadia constraint matrix and vector to uphold the quaternion unitary norm for each body...">
<polygon fill="none" stroke="black" points="451,-251 451,-281 589,-281 589,-251 451,-251"/>
<text text-anchor="start" x="459" y="-269" font-family="Helvetica,sans-Serif" font-size="10.00">systemData::udwadiaLinear</text>
<text text-anchor="middle" x="520" y="-258" font-family="Helvetica,sans-Serif" font-size="10.00">System</text>
</a>
</g>
</g>
<!-- Node18&#45;&gt;Node29 -->
<g id="edge33" class="edge">
<title>Node18&#45;&gt;Node29</title>
<path fill="none" stroke="midnightblue" d="M361.71,-209.61C380.98,-218.37 410.61,-231.37 437,-241 443.39,-243.33 450.11,-245.62 456.84,-247.82"/>
<polygon fill="midnightblue" stroke="midnightblue" points="456.07,-251.25 466.67,-250.97 458.21,-244.59 456.07,-251.25"/>
</g>
<!-- Node30 -->
<g id="node30" class="node">
<title>Node30</title>
<g id="a_node30"><a xlink:href="classsystemData.html#a6bd16f2dd99236594ce5b12cd2cab57a" target="_top" xlink:title="Computes the articulation (linear) velocities of the particles relative to their respective locater p...">
<polygon fill="none" stroke="black" points="437,-212.5 437,-231.5 603,-231.5 603,-212.5 437,-212.5"/>
<text text-anchor="middle" x="520" y="-219.5" font-family="Helvetica,sans-Serif" font-size="10.00">systemData::velocitiesArticulation</text>
</a>
</g>
</g>
<!-- Node18&#45;&gt;Node30 -->
<g id="edge34" class="edge">
<title>Node18&#45;&gt;Node30</title>
<path fill="none" stroke="midnightblue" d="M392.96,-206.42C405.15,-207.93 418.46,-209.57 431.72,-211.21"/>
<polygon fill="midnightblue" stroke="midnightblue" points="431.48,-214.71 441.83,-212.46 432.33,-207.76 431.48,-214.71"/>
</g>
<!-- Node21 -->
<g id="node21" class="node">
<title>Node21</title>
<g id="a_node21"><a xlink:href="helper__eigenTensorConversion_8hpp.html#a556d08b55a6ad7cd703b6db06194e5cf" target="_top" xlink:title=" ">
<polygon fill="none" stroke="black" points="675,-119.5 675,-138.5 740,-138.5 740,-119.5 675,-119.5"/>
<text text-anchor="middle" x="707.5" y="-126.5" font-family="Helvetica,sans-Serif" font-size="10.00">MatrixCast</text>
</a>
</g>
</g>
<!-- Node20&#45;&gt;Node21 -->
<g id="edge22" class="edge">
<title>Node20&#45;&gt;Node21</title>
<path fill="none" stroke="midnightblue" d="M588.23,-129C613.65,-129 641.85,-129 664.33,-129"/>
<polygon fill="midnightblue" stroke="midnightblue" points="664.55,-132.5 674.55,-129 664.55,-125.5 664.55,-132.5"/>
</g>
<!-- Node23 -->
<g id="node23" class="node">
<title>Node23</title>
<g id="a_node23"><a xlink:href="helper__eigenTensorConversion_8hpp.html#a3a32f7de3f099464192073a93b34d580" target="_top" xlink:title="Convert Eigen::Matrix &#45;&#45;&gt; Eigen::Tensor.">
<polygon fill="none" stroke="black" points="674,-76.5 674,-95.5 741,-95.5 741,-76.5 674,-76.5"/>
<text text-anchor="middle" x="707.5" y="-83.5" font-family="Helvetica,sans-Serif" font-size="10.00">TensorCast</text>
</a>
</g>
</g>
<!-- Node20&#45;&gt;Node23 -->
<g id="edge24" class="edge">
<title>Node20&#45;&gt;Node23</title>
<path fill="none" stroke="midnightblue" d="M585.88,-113.96C611.82,-107.95 640.96,-101.19 664.1,-95.83"/>
<polygon fill="midnightblue" stroke="midnightblue" points="665,-99.21 673.95,-93.54 663.42,-92.39 665,-99.21"/>
</g>
<!-- Node22 -->
<g id="node22" class="node">
<title>Node22</title>
<g id="a_node22"><a xlink:href="helper__eigenTensorConversion_8hpp.html#a2a7eca6b17fb874869047bd0b5f11b46" target="_top" xlink:title="Convert between Eigen::Tensor and Eigen::Matrix classes.">
<polygon fill="none" stroke="black" points="832.5,-119.5 832.5,-138.5 879.5,-138.5 879.5,-119.5 832.5,-119.5"/>
<text text-anchor="middle" x="856" y="-126.5" font-family="Helvetica,sans-Serif" font-size="10.00">asEval</text>
</a>
</g>
</g>
<!-- Node21&#45;&gt;Node22 -->
<g id="edge23" class="edge">
<title>Node21&#45;&gt;Node22</title>
<path fill="none" stroke="midnightblue" d="M740.29,-129C764.48,-129 797.67,-129 822.12,-129"/>
<polygon fill="midnightblue" stroke="midnightblue" points="822.35,-132.5 832.35,-129 822.35,-125.5 822.35,-132.5"/>
</g>
<!-- Node24&#45;&gt;Node23 -->
<g id="edge27" class="edge">
<title>Node24&#45;&gt;Node23</title>
<path fill="none" stroke="midnightblue" d="M592.19,-82.3C616.14,-83.08 642.12,-83.92 663.25,-84.6"/>
<polygon fill="midnightblue" stroke="midnightblue" points="663.4,-88.11 673.51,-84.93 663.63,-81.11 663.4,-88.11"/>
</g>
<!-- Node25 -->
<g id="node25" class="node">
<title>Node25</title>
<g id="a_node25"><a xlink:href="classsystemData.html#a19a83a255eb6f1de4bcfe2ea8e31ffa9" target="_top" xlink:title="Computes the E matrix of quaternion (4&#45;vector) input.">
<polygon fill="none" stroke="black" points="653.5,-38.5 653.5,-57.5 761.5,-57.5 761.5,-38.5 653.5,-38.5"/>
<text text-anchor="middle" x="707.5" y="-45.5" font-family="Helvetica,sans-Serif" font-size="10.00">systemData::eMatrix</text>
</a>
</g>
</g>
<!-- Node24&#45;&gt;Node25 -->
<g id="edge26" class="edge">
<title>Node24&#45;&gt;Node25</title>
<path fill="none" stroke="midnightblue" d="M592.19,-67.72C609.03,-64.81 626.87,-61.74 643.32,-58.9"/>
<polygon fill="midnightblue" stroke="midnightblue" points="644.11,-62.31 653.37,-57.17 642.92,-55.42 644.11,-62.31"/>
</g>
<!-- Node27&#45;&gt;Node23 -->
<g id="edge32" class="edge">
<title>Node27&#45;&gt;Node23</title>
<path fill="none" stroke="midnightblue" d="M573.58,-46.08C583.38,-48.97 593.52,-52.03 603,-55 619.1,-60.04 622.88,-62.05 639,-67 647.03,-69.47 655.62,-71.98 663.91,-74.34"/>
<polygon fill="midnightblue" stroke="midnightblue" points="663.22,-77.78 673.79,-77.13 665.12,-71.05 663.22,-77.78"/>
</g>
<!-- Node27&#45;&gt;Node25 -->
<g id="edge31" class="edge">
<title>Node27&#45;&gt;Node25</title>
<path fill="none" stroke="midnightblue" d="M593.25,-37.62C609.69,-39.13 627.03,-40.72 643.07,-42.19"/>
<polygon fill="midnightblue" stroke="midnightblue" points="643.13,-45.71 653.4,-43.13 643.76,-38.74 643.13,-45.71"/>
</g>
<!-- Node28 -->
<g id="node28" class="node">
<title>Node28</title>
<g id="a_node28"><a xlink:href="classsystemData.html#a0a77c933b764fb36c64ec5e66011482c" target="_top" xlink:title="Function takes in vector in vector cross&#45;product expression: .">
<polygon fill="none" stroke="black" points="639,-0.5 639,-19.5 776,-19.5 776,-0.5 639,-0.5"/>
<text text-anchor="middle" x="707.5" y="-7.5" font-family="Helvetica,sans-Serif" font-size="10.00">systemData::crossProdMat</text>
</a>
</g>
</g>
<!-- Node27&#45;&gt;Node28 -->
<g id="edge30" class="edge">
<title>Node27&#45;&gt;Node28</title>
<path fill="none" stroke="midnightblue" d="M593.25,-22.82C604.9,-21.5 616.99,-20.13 628.76,-18.8"/>
<polygon fill="midnightblue" stroke="midnightblue" points="629.45,-22.24 639,-17.64 628.67,-15.29 629.45,-22.24"/>
</g>
</g>
</svg>
