<?xml version="1.0" encoding="UTF-8" standalone="no"?>
<!DOCTYPE svg PUBLIC "-//W3C//DTD SVG 1.1//EN"
 "http://www.w3.org/Graphics/SVG/1.1/DTD/svg11.dtd">
<!-- Generated by graphviz version 2.43.0 (0)
 -->
<!-- Title: tests/testsSimulationBuild.cpp Pages: 1 -->
<svg width="1439pt" height="442pt"
 viewBox="0.00 0.00 1439.00 442.00" xmlns="http://www.w3.org/2000/svg" xmlns:xlink="http://www.w3.org/1999/xlink">
<g id="graph0" class="graph" transform="scale(1 1) rotate(0) translate(4 438)">
<title>tests/testsSimulationBuild.cpp</title>
<!-- Node1 -->
<g id="node1" class="node">
<title>Node1</title>
<g id="a_node1"><a xlink:title=" ">
<polygon fill="#bfbfbf" stroke="black" points="1160.5,-414.5 1160.5,-433.5 1309.5,-433.5 1309.5,-414.5 1160.5,-414.5"/>
<text text-anchor="middle" x="1235" y="-421.5" font-family="Helvetica,sans-Serif" font-size="10.00">tests/testsSimulationBuild.cpp</text>
</a>
</g>
</g>
<!-- Node2 -->
<g id="node2" class="node">
<title>Node2</title>
<g id="a_node2"><a xlink:href="engine_8hpp.html" target="_top" xlink:title=" ">
<polygon fill="none" stroke="black" points="715,-358.5 715,-377.5 779,-377.5 779,-358.5 715,-358.5"/>
<text text-anchor="middle" x="747" y="-365.5" font-family="Helvetica,sans-Serif" font-size="10.00">engine.hpp</text>
</a>
</g>
</g>
<!-- Node1&#45;&gt;Node2 -->
<g id="edge1" class="edge">
<title>Node1&#45;&gt;Node2</title>
<path fill="none" stroke="midnightblue" d="M1160.35,-414.74C1056.52,-403.25 871.97,-382.83 789.21,-373.67"/>
<polygon fill="midnightblue" stroke="midnightblue" points="789.48,-370.18 779.16,-372.56 788.71,-377.14 789.48,-370.18"/>
</g>
<!-- Node4 -->
<g id="node4" class="node">
<title>Node4</title>
<g id="a_node4"><a xlink:href="systemData_8hpp.html" target="_top" xlink:title=" ">
<polygon fill="none" stroke="black" points="825.5,-190.5 825.5,-209.5 914.5,-209.5 914.5,-190.5 825.5,-190.5"/>
<text text-anchor="middle" x="870" y="-197.5" font-family="Helvetica,sans-Serif" font-size="10.00">systemData.hpp</text>
</a>
</g>
</g>
<!-- Node1&#45;&gt;Node4 -->
<g id="edge53" class="edge">
<title>Node1&#45;&gt;Node4</title>
<path fill="none" stroke="midnightblue" d="M1220.69,-414.3C1164.93,-380.38 961.85,-256.86 893,-214.99"/>
<polygon fill="midnightblue" stroke="midnightblue" points="894.57,-211.85 884.21,-209.64 890.93,-217.83 894.57,-211.85"/>
</g>
<!-- Node6 -->
<g id="node6" class="node">
<title>Node6</title>
<g id="a_node6"><a xlink:href="gsd_8h.html" target="_top" xlink:title="Declare GSD data types and C API.">
<polygon fill="none" stroke="black" points="1100.5,-62 1100.5,-81 1141.5,-81 1141.5,-62 1100.5,-62"/>
<text text-anchor="middle" x="1121" y="-69" font-family="Helvetica,sans-Serif" font-size="10.00">gsd.h</text>
</a>
</g>
</g>
<!-- Node1&#45;&gt;Node6 -->
<g id="edge55" class="edge">
<title>Node1&#45;&gt;Node6</title>
<path fill="none" stroke="midnightblue" d="M1240.28,-414.23C1250.73,-396.04 1273,-352.6 1273,-313 1273,-313 1273,-313 1273,-255 1273,-190.18 1255.15,-170.46 1211,-123 1194.48,-105.24 1170.26,-92.14 1151.1,-83.74"/>
<polygon fill="midnightblue" stroke="midnightblue" points="1152.19,-80.4 1141.61,-79.77 1149.49,-86.86 1152.19,-80.4"/>
</g>
<!-- Node12 -->
<g id="node12" class="node">
<title>Node12</title>
<g id="a_node12"><a xlink:title=" ">
<polygon fill="none" stroke="#bfbfbf" points="1006,-62 1006,-81 1058,-81 1058,-62 1006,-62"/>
<text text-anchor="middle" x="1032" y="-69" font-family="Helvetica,sans-Serif" font-size="10.00">memory</text>
</a>
</g>
</g>
<!-- Node1&#45;&gt;Node12 -->
<g id="edge56" class="edge">
<title>Node1&#45;&gt;Node12</title>
<path fill="none" stroke="midnightblue" d="M1229.72,-414.23C1219.27,-396.04 1197,-352.6 1197,-313 1197,-313 1197,-313 1197,-199 1197,-134.47 1116.53,-98.37 1067.98,-82.47"/>
<polygon fill="midnightblue" stroke="midnightblue" points="1068.73,-79.04 1058.14,-79.38 1066.64,-85.72 1068.73,-79.04"/>
</g>
<!-- Node14 -->
<g id="node14" class="node">
<title>Node14</title>
<g id="a_node14"><a xlink:title=" ">
<polygon fill="none" stroke="#bfbfbf" points="1205.5,-62 1205.5,-81 1246.5,-81 1246.5,-62 1205.5,-62"/>
<text text-anchor="middle" x="1226" y="-69" font-family="Helvetica,sans-Serif" font-size="10.00">string</text>
</a>
</g>
</g>
<!-- Node1&#45;&gt;Node14 -->
<g id="edge57" class="edge">
<title>Node1&#45;&gt;Node14</title>
<path fill="none" stroke="midnightblue" d="M1248.2,-414.46C1259.84,-406.33 1276.53,-393.12 1287,-378 1304.53,-352.68 1311,-343.8 1311,-313 1311,-313 1311,-313 1311,-199 1311,-152.17 1270.37,-109.63 1245.29,-87.83"/>
<polygon fill="midnightblue" stroke="midnightblue" points="1247.37,-85.01 1237.46,-81.25 1242.87,-90.37 1247.37,-85.01"/>
</g>
<!-- Node25 -->
<g id="node25" class="node">
<title>Node25</title>
<g id="a_node25"><a xlink:title=" ">
<polygon fill="none" stroke="#bfbfbf" points="1339,-358.5 1339,-377.5 1431,-377.5 1431,-358.5 1339,-358.5"/>
<text text-anchor="middle" x="1385" y="-365.5" font-family="Helvetica,sans-Serif" font-size="10.00">catch2/catch.hpp</text>
</a>
</g>
</g>
<!-- Node1&#45;&gt;Node25 -->
<g id="edge54" class="edge">
<title>Node1&#45;&gt;Node25</title>
<path fill="none" stroke="midnightblue" d="M1258.77,-414.44C1283.89,-405.4 1323.71,-391.06 1351.9,-380.92"/>
<polygon fill="midnightblue" stroke="midnightblue" points="1353.12,-384.2 1361.34,-377.52 1350.75,-377.61 1353.12,-384.2"/>
</g>
<!-- Node3 -->
<g id="node3" class="node">
<title>Node3</title>
<g id="a_node3"><a xlink:href="potentialHydrodynamics_8hpp.html" target="_top" xlink:title=" ">
<polygon fill="none" stroke="black" points="560,-246.5 560,-265.5 700,-265.5 700,-246.5 560,-246.5"/>
<text text-anchor="middle" x="630" y="-253.5" font-family="Helvetica,sans-Serif" font-size="10.00">potentialHydrodynamics.hpp</text>
</a>
</g>
</g>
<!-- Node2&#45;&gt;Node3 -->
<g id="edge2" class="edge">
<title>Node2&#45;&gt;Node3</title>
<path fill="none" stroke="midnightblue" d="M737.82,-358.37C718.17,-339.89 671.79,-296.29 646.75,-272.74"/>
<polygon fill="midnightblue" stroke="midnightblue" points="648.82,-269.89 639.14,-265.59 644.03,-274.99 648.82,-269.89"/>
</g>
<!-- Node2&#45;&gt;Node4 -->
<g id="edge43" class="edge">
<title>Node2&#45;&gt;Node4</title>
<path fill="none" stroke="midnightblue" d="M779.47,-361.31C802.73,-355.48 832.86,-344.02 850,-322 873.13,-292.27 873.85,-245.85 872.08,-220"/>
<polygon fill="midnightblue" stroke="midnightblue" points="875.53,-219.36 871.16,-209.71 868.56,-219.98 875.53,-219.36"/>
</g>
<!-- Node10 -->
<g id="node10" class="node">
<title>Node10</title>
<g id="a_node10"><a xlink:title=" ">
<polygon fill="none" stroke="#bfbfbf" points="562,-56.5 562,-86.5 660,-86.5 660,-56.5 562,-56.5"/>
<text text-anchor="start" x="570" y="-74.5" font-family="Helvetica,sans-Serif" font-size="10.00">spdlog/sinks/basic</text>
<text text-anchor="middle" x="611" y="-63.5" font-family="Helvetica,sans-Serif" font-size="10.00">_file_sink.h</text>
</a>
</g>
</g>
<!-- Node2&#45;&gt;Node10 -->
<g id="edge47" class="edge">
<title>Node2&#45;&gt;Node10</title>
<path fill="none" stroke="midnightblue" d="M714.73,-366.2C587.49,-362.88 124.58,-349.01 65,-322 27.79,-305.13 0,-297.86 0,-257 0,-257 0,-257 0,-199 0,-159.97 11.09,-143.98 44,-123 86.08,-96.18 414.74,-80.24 551.55,-74.71"/>
<polygon fill="midnightblue" stroke="midnightblue" points="551.99,-78.2 561.84,-74.3 551.71,-71.2 551.99,-78.2"/>
</g>
<!-- Node11 -->
<g id="node11" class="node">
<title>Node11</title>
<g id="a_node11"><a xlink:title=" ">
<polygon fill="none" stroke="#bfbfbf" points="862.5,-62 862.5,-81 947.5,-81 947.5,-62 862.5,-62"/>
<text text-anchor="middle" x="905" y="-69" font-family="Helvetica,sans-Serif" font-size="10.00">spdlog/spdlog.h</text>
</a>
</g>
</g>
<!-- Node2&#45;&gt;Node11 -->
<g id="edge48" class="edge">
<title>Node2&#45;&gt;Node11</title>
<path fill="none" stroke="midnightblue" d="M779.17,-362.14C856.23,-349.61 1045,-313.18 1045,-257 1045,-257 1045,-257 1045,-199 1045,-141.53 979.25,-103.42 937.87,-85.12"/>
<polygon fill="midnightblue" stroke="midnightblue" points="939,-81.8 928.43,-81.11 936.26,-88.24 939,-81.8"/>
</g>
<!-- Node2&#45;&gt;Node12 -->
<g id="edge50" class="edge">
<title>Node2&#45;&gt;Node12</title>
<path fill="none" stroke="midnightblue" d="M779.36,-365.62C827.67,-362.56 920.72,-352.83 993,-322 1038.38,-302.64 1083,-306.34 1083,-257 1083,-257 1083,-257 1083,-199 1083,-157.38 1058.95,-113.27 1043.88,-89.72"/>
<polygon fill="midnightblue" stroke="midnightblue" points="1046.69,-87.62 1038.25,-81.21 1040.86,-91.48 1046.69,-87.62"/>
</g>
<!-- Node13 -->
<g id="node13" class="node">
<title>Node13</title>
<g id="a_node13"><a xlink:title=" ">
<polygon fill="none" stroke="#bfbfbf" points="785.5,-62 785.5,-81 844.5,-81 844.5,-62 785.5,-62"/>
<text text-anchor="middle" x="815" y="-69" font-family="Helvetica,sans-Serif" font-size="10.00">stdexcept</text>
</a>
</g>
</g>
<!-- Node2&#45;&gt;Node13 -->
<g id="edge51" class="edge">
<title>Node2&#45;&gt;Node13</title>
<path fill="none" stroke="midnightblue" d="M714.84,-366.63C605.67,-365.08 249.98,-357.35 142,-322 90.2,-305.04 38,-311.51 38,-257 38,-257 38,-257 38,-199 38,-62.75 200.89,-147.08 335,-123 356.6,-119.12 664.28,-87.77 775.37,-76.51"/>
<polygon fill="midnightblue" stroke="midnightblue" points="775.89,-79.98 785.49,-75.48 775.19,-73.01 775.89,-79.98"/>
</g>
<!-- Node2&#45;&gt;Node14 -->
<g id="edge52" class="edge">
<title>Node2&#45;&gt;Node14</title>
<path fill="none" stroke="midnightblue" d="M779.02,-367.9C834.14,-368.2 949.28,-363.28 1035,-322 1136.89,-272.93 1199.02,-139.7 1218.96,-90.81"/>
<polygon fill="midnightblue" stroke="midnightblue" points="1222.32,-91.82 1222.76,-81.24 1215.82,-89.24 1222.32,-91.82"/>
</g>
<!-- Node15 -->
<g id="node15" class="node">
<title>Node15</title>
<g id="a_node15"><a xlink:title=" ">
<polygon fill="none" stroke="#bfbfbf" points="677.5,-129 677.5,-148 774.5,-148 774.5,-129 677.5,-129"/>
<text text-anchor="middle" x="726" y="-136" font-family="Helvetica,sans-Serif" font-size="10.00">eigen3/Eigen/Core</text>
</a>
</g>
</g>
<!-- Node2&#45;&gt;Node15 -->
<g id="edge44" class="edge">
<title>Node2&#45;&gt;Node15</title>
<path fill="none" stroke="midnightblue" d="M748.06,-358.42C751.02,-332.62 758.33,-253.66 746,-190 743.81,-178.71 739.17,-166.73 734.91,-157.26"/>
<polygon fill="midnightblue" stroke="midnightblue" points="738.03,-155.67 730.57,-148.14 731.71,-158.67 738.03,-155.67"/>
</g>
<!-- Node16 -->
<g id="node16" class="node">
<title>Node16</title>
<g id="a_node16"><a xlink:title=" ">
<polygon fill="none" stroke="#bfbfbf" points="353.5,-129 353.5,-148 454.5,-148 454.5,-129 353.5,-129"/>
<text text-anchor="middle" x="404" y="-136" font-family="Helvetica,sans-Serif" font-size="10.00">eigen3/Eigen/Eigen</text>
</a>
</g>
</g>
<!-- Node2&#45;&gt;Node16 -->
<g id="edge45" class="edge">
<title>Node2&#45;&gt;Node16</title>
<path fill="none" stroke="midnightblue" d="M714.97,-365.89C601.58,-361.76 223.35,-346.27 175,-322 145.44,-307.16 137.63,-296.96 126,-266 91.53,-174.26 251.73,-149.05 343.48,-142.12"/>
<polygon fill="midnightblue" stroke="midnightblue" points="343.77,-145.61 353.5,-141.42 343.28,-138.63 343.77,-145.61"/>
</g>
<!-- Node17 -->
<g id="node17" class="node">
<title>Node17</title>
<g id="a_node17"><a xlink:title=" ">
<polygon fill="none" stroke="#bfbfbf" points="473,-123.5 473,-153.5 583,-153.5 583,-123.5 473,-123.5"/>
<text text-anchor="start" x="481" y="-141.5" font-family="Helvetica,sans-Serif" font-size="10.00">eigen3/unsupported</text>
<text text-anchor="middle" x="528" y="-130.5" font-family="Helvetica,sans-Serif" font-size="10.00">/Eigen/CXX11/Tensor</text>
</a>
</g>
</g>
<!-- Node2&#45;&gt;Node17 -->
<g id="edge46" class="edge">
<title>Node2&#45;&gt;Node17</title>
<path fill="none" stroke="midnightblue" d="M714.9,-367.62C597.44,-369.05 194.61,-366.5 133,-266 128.35,-258.42 127.59,-253.06 133,-246 143.2,-232.69 353.32,-181.06 462.84,-154.89"/>
<polygon fill="midnightblue" stroke="midnightblue" points="463.88,-158.24 472.79,-152.52 462.25,-151.43 463.88,-158.24"/>
</g>
<!-- Node18 -->
<g id="node18" class="node">
<title>Node18</title>
<g id="a_node18"><a xlink:href="progressBar_8hpp.html" target="_top" xlink:title=" ">
<polygon fill="none" stroke="black" points="252,-302.5 252,-321.5 340,-321.5 340,-302.5 252,-302.5"/>
<text text-anchor="middle" x="296" y="-309.5" font-family="Helvetica,sans-Serif" font-size="10.00">progressBar.hpp</text>
</a>
</g>
</g>
<!-- Node2&#45;&gt;Node18 -->
<g id="edge29" class="edge">
<title>Node2&#45;&gt;Node18</title>
<path fill="none" stroke="midnightblue" d="M714.93,-363.16C638.52,-354.01 445.07,-330.85 350.18,-319.49"/>
<polygon fill="midnightblue" stroke="midnightblue" points="350.55,-316.01 340.21,-318.29 349.72,-322.96 350.55,-316.01"/>
</g>
<!-- Node23 -->
<g id="node23" class="node">
<title>Node23</title>
<g id="a_node23"><a xlink:href="rungeKutta4_8hpp.html" target="_top" xlink:title=" ">
<polygon fill="none" stroke="black" points="488,-302.5 488,-321.5 576,-321.5 576,-302.5 488,-302.5"/>
<text text-anchor="middle" x="532" y="-309.5" font-family="Helvetica,sans-Serif" font-size="10.00">rungeKutta4.hpp</text>
</a>
</g>
</g>
<!-- Node2&#45;&gt;Node23 -->
<g id="edge34" class="edge">
<title>Node2&#45;&gt;Node23</title>
<path fill="none" stroke="midnightblue" d="M714.81,-358.92C677.91,-349.65 617.21,-334.4 575.97,-324.04"/>
<polygon fill="midnightblue" stroke="midnightblue" points="576.74,-320.63 566.19,-321.59 575.03,-327.42 576.74,-320.63"/>
</g>
<!-- Node24 -->
<g id="node24" class="node">
<title>Node24</title>
<g id="a_node24"><a xlink:title=" ">
<polygon fill="none" stroke="#bfbfbf" points="794.5,-302.5 794.5,-321.5 841.5,-321.5 841.5,-302.5 794.5,-302.5"/>
<text text-anchor="middle" x="818" y="-309.5" font-family="Helvetica,sans-Serif" font-size="10.00">math.h</text>
</a>
</g>
</g>
<!-- Node2&#45;&gt;Node24 -->
<g id="edge49" class="edge">
<title>Node2&#45;&gt;Node24</title>
<path fill="none" stroke="midnightblue" d="M758.41,-358.32C769.11,-350.18 785.34,-337.84 798.16,-328.09"/>
<polygon fill="midnightblue" stroke="midnightblue" points="800.54,-330.67 806.39,-321.83 796.31,-325.1 800.54,-330.67"/>
</g>
<!-- Node3&#45;&gt;Node4 -->
<g id="edge3" class="edge">
<title>Node3&#45;&gt;Node4</title>
<path fill="none" stroke="midnightblue" d="M668.03,-246.44C709.81,-237.04 776.98,-221.93 822.27,-211.74"/>
<polygon fill="midnightblue" stroke="midnightblue" points="823.16,-215.13 832.15,-209.52 821.62,-208.3 823.16,-215.13"/>
</g>
<!-- Node3&#45;&gt;Node10 -->
<g id="edge27" class="edge">
<title>Node3&#45;&gt;Node10</title>
<path fill="none" stroke="midnightblue" d="M629.08,-246.2C626.29,-219.33 617.79,-137.74 613.52,-96.67"/>
<polygon fill="midnightblue" stroke="midnightblue" points="616.99,-96.28 612.48,-86.69 610.03,-97 616.99,-96.28"/>
</g>
<!-- Node3&#45;&gt;Node11 -->
<g id="edge28" class="edge">
<title>Node3&#45;&gt;Node11</title>
<path fill="none" stroke="midnightblue" d="M631.33,-246.15C635.53,-219.39 649.36,-140.07 668,-123 729.78,-66.44 771.48,-106.26 853,-87 857.32,-85.98 861.83,-84.84 866.3,-83.66"/>
<polygon fill="midnightblue" stroke="midnightblue" points="867.22,-87.04 875.95,-81.04 865.39,-80.28 867.22,-87.04"/>
</g>
<!-- Node3&#45;&gt;Node15 -->
<g id="edge24" class="edge">
<title>Node3&#45;&gt;Node15</title>
<path fill="none" stroke="midnightblue" d="M637.22,-246.32C653.13,-227.17 691.47,-181.04 712.18,-156.13"/>
<polygon fill="midnightblue" stroke="midnightblue" points="715,-158.21 718.7,-148.28 709.62,-153.74 715,-158.21"/>
</g>
<!-- Node3&#45;&gt;Node16 -->
<g id="edge25" class="edge">
<title>Node3&#45;&gt;Node16</title>
<path fill="none" stroke="midnightblue" d="M613.01,-246.32C573.82,-226.29 476.83,-176.72 430.06,-152.82"/>
<polygon fill="midnightblue" stroke="midnightblue" points="431.37,-149.56 420.88,-148.12 428.19,-155.79 431.37,-149.56"/>
</g>
<!-- Node3&#45;&gt;Node17 -->
<g id="edge26" class="edge">
<title>Node3&#45;&gt;Node17</title>
<path fill="none" stroke="midnightblue" d="M622.33,-246.32C606.53,-228.42 569.92,-186.97 547.23,-161.28"/>
<polygon fill="midnightblue" stroke="midnightblue" points="549.65,-158.72 540.4,-153.55 544.4,-163.36 549.65,-158.72"/>
</g>
<!-- Node5 -->
<g id="node5" class="node">
<title>Node5</title>
<g id="a_node5"><a xlink:href="GSDUtil_8hpp.html" target="_top" xlink:title=" ">
<polygon fill="none" stroke="black" points="907,-129 907,-148 979,-148 979,-129 907,-129"/>
<text text-anchor="middle" x="943" y="-136" font-family="Helvetica,sans-Serif" font-size="10.00">GSDUtil.hpp</text>
</a>
</g>
</g>
<!-- Node4&#45;&gt;Node5 -->
<g id="edge4" class="edge">
<title>Node4&#45;&gt;Node5</title>
<path fill="none" stroke="midnightblue" d="M875.56,-190.48C885.19,-180.93 904.03,-165.31 919.5,-153.87"/>
<polygon fill="midnightblue" stroke="midnightblue" points="921.58,-156.68 927.66,-148.01 917.5,-151 921.58,-156.68"/>
</g>
<!-- Node4&#45;&gt;Node6 -->
<g id="edge15" class="edge">
<title>Node4&#45;&gt;Node6</title>
<path fill="none" stroke="midnightblue" d="M909.34,-190.48C938.89,-183.17 979.8,-171.1 1013,-154 1048.42,-135.75 1084.32,-105.9 1104.51,-87.84"/>
<polygon fill="midnightblue" stroke="midnightblue" points="1106.87,-90.42 1111.92,-81.11 1102.17,-85.24 1106.87,-90.42"/>
</g>
<!-- Node4&#45;&gt;Node10 -->
<g id="edge16" class="edge">
<title>Node4&#45;&gt;Node10</title>
<path fill="none" stroke="midnightblue" d="M862.52,-190.35C848.48,-174.66 816.58,-141.43 783,-123 747.86,-103.72 704.55,-91.06 670.18,-83.24"/>
<polygon fill="midnightblue" stroke="midnightblue" points="670.79,-79.79 660.27,-81.06 669.29,-86.62 670.79,-79.79"/>
</g>
<!-- Node4&#45;&gt;Node11 -->
<g id="edge17" class="edge">
<title>Node4&#45;&gt;Node11</title>
<path fill="none" stroke="midnightblue" d="M872.41,-190.31C878.05,-169.9 892.25,-118.6 899.91,-90.91"/>
<polygon fill="midnightblue" stroke="midnightblue" points="903.28,-91.83 902.58,-81.26 896.54,-89.96 903.28,-91.83"/>
</g>
<!-- Node4&#45;&gt;Node12 -->
<g id="edge21" class="edge">
<title>Node4&#45;&gt;Node12</title>
<path fill="none" stroke="midnightblue" d="M912.89,-190.46C937.17,-183.84 966.82,-172.58 988,-154 1007.4,-136.98 1019.77,-109.27 1026.3,-90.96"/>
<polygon fill="midnightblue" stroke="midnightblue" points="1029.64,-92.01 1029.48,-81.42 1023,-89.8 1029.64,-92.01"/>
</g>
<!-- Node4&#45;&gt;Node13 -->
<g id="edge22" class="edge">
<title>Node4&#45;&gt;Node13</title>
<path fill="none" stroke="midnightblue" d="M866.22,-190.31C857.31,-169.81 834.85,-118.15 822.84,-90.54"/>
<polygon fill="midnightblue" stroke="midnightblue" points="826,-89.03 818.81,-81.26 819.58,-91.82 826,-89.03"/>
</g>
<!-- Node4&#45;&gt;Node14 -->
<g id="edge23" class="edge">
<title>Node4&#45;&gt;Node14</title>
<path fill="none" stroke="midnightblue" d="M913.96,-190.44C950.83,-182.68 1004.59,-170.03 1050,-154 1105.49,-134.41 1167.23,-103.59 1200.84,-86"/>
<polygon fill="midnightblue" stroke="midnightblue" points="1202.72,-88.96 1209.93,-81.2 1199.45,-82.77 1202.72,-88.96"/>
</g>
<!-- Node4&#45;&gt;Node15 -->
<g id="edge18" class="edge">
<title>Node4&#45;&gt;Node15</title>
<path fill="none" stroke="midnightblue" d="M849.37,-190.48C824.88,-180.36 783.85,-163.4 755.89,-151.85"/>
<polygon fill="midnightblue" stroke="midnightblue" points="757.17,-148.59 746.59,-148.01 754.5,-155.06 757.17,-148.59"/>
</g>
<!-- Node4&#45;&gt;Node16 -->
<g id="edge19" class="edge">
<title>Node4&#45;&gt;Node16</title>
<path fill="none" stroke="midnightblue" d="M825.28,-195.91C750.21,-190.3 594.27,-176.87 464,-154 458.12,-152.97 451.95,-151.7 445.91,-150.34"/>
<polygon fill="midnightblue" stroke="midnightblue" points="446.45,-146.87 435.92,-148.01 444.86,-153.69 446.45,-146.87"/>
</g>
<!-- Node4&#45;&gt;Node17 -->
<g id="edge20" class="edge">
<title>Node4&#45;&gt;Node17</title>
<path fill="none" stroke="midnightblue" d="M825.29,-191.22C766.13,-180.93 661.41,-162.71 593.37,-150.87"/>
<polygon fill="midnightblue" stroke="midnightblue" points="593.65,-147.37 583.19,-149.1 592.45,-154.26 593.65,-147.37"/>
</g>
<!-- Node5&#45;&gt;Node4 -->
<g id="edge9" class="edge">
<title>Node5&#45;&gt;Node4</title>
<path fill="none" stroke="midnightblue" d="M937.46,-148.01C927.84,-157.55 909,-173.17 893.53,-184.61"/>
<polygon fill="midnightblue" stroke="midnightblue" points="891.44,-181.8 885.36,-190.48 895.52,-187.49 891.44,-181.8"/>
</g>
<!-- Node5&#45;&gt;Node6 -->
<g id="edge5" class="edge">
<title>Node5&#45;&gt;Node6</title>
<path fill="none" stroke="midnightblue" d="M966.64,-128.87C998.57,-117.21 1055.52,-96.41 1090.61,-83.6"/>
<polygon fill="midnightblue" stroke="midnightblue" points="1092.12,-86.77 1100.31,-80.06 1089.72,-80.2 1092.12,-86.77"/>
</g>
<!-- Node5&#45;&gt;Node10 -->
<g id="edge10" class="edge">
<title>Node5&#45;&gt;Node10</title>
<path fill="none" stroke="midnightblue" d="M906.84,-130.42C850.01,-119.29 739.21,-97.6 670.51,-84.15"/>
<polygon fill="midnightblue" stroke="midnightblue" points="670.76,-80.63 660.28,-82.15 669.42,-87.5 670.76,-80.63"/>
</g>
<!-- Node5&#45;&gt;Node11 -->
<g id="edge11" class="edge">
<title>Node5&#45;&gt;Node11</title>
<path fill="none" stroke="midnightblue" d="M937.88,-128.73C932.06,-118.79 922.44,-102.34 915.11,-89.79"/>
<polygon fill="midnightblue" stroke="midnightblue" points="918.11,-87.99 910.04,-81.13 912.07,-91.53 918.11,-87.99"/>
</g>
<!-- Node5&#45;&gt;Node12 -->
<g id="edge12" class="edge">
<title>Node5&#45;&gt;Node12</title>
<path fill="none" stroke="midnightblue" d="M955,-128.73C969.55,-118.11 994.28,-100.05 1011.78,-87.26"/>
<polygon fill="midnightblue" stroke="midnightblue" points="1014.18,-89.85 1020.19,-81.13 1010.05,-84.2 1014.18,-89.85"/>
</g>
<!-- Node5&#45;&gt;Node13 -->
<g id="edge13" class="edge">
<title>Node5&#45;&gt;Node13</title>
<path fill="none" stroke="midnightblue" d="M926,-128.87C904.29,-117.84 866.51,-98.66 841.13,-85.77"/>
<polygon fill="midnightblue" stroke="midnightblue" points="842.57,-82.57 832.07,-81.17 839.4,-88.82 842.57,-82.57"/>
</g>
<!-- Node5&#45;&gt;Node14 -->
<g id="edge14" class="edge">
<title>Node5&#45;&gt;Node14</title>
<path fill="none" stroke="midnightblue" d="M979.13,-129.2C1035.31,-116.3 1142.62,-91.65 1195.29,-79.55"/>
<polygon fill="midnightblue" stroke="midnightblue" points="1196.4,-82.89 1205.36,-77.24 1194.83,-76.07 1196.4,-82.89"/>
</g>
<!-- Node7 -->
<g id="node7" class="node">
<title>Node7</title>
<g id="a_node7"><a xlink:title=" ">
<polygon fill="none" stroke="#bfbfbf" points="1022,-0.5 1022,-19.5 1078,-19.5 1078,-0.5 1022,-0.5"/>
<text text-anchor="middle" x="1050" y="-7.5" font-family="Helvetica,sans-Serif" font-size="10.00">stdbool.h</text>
</a>
</g>
</g>
<!-- Node6&#45;&gt;Node7 -->
<g id="edge6" class="edge">
<title>Node6&#45;&gt;Node7</title>
<path fill="none" stroke="midnightblue" d="M1110.83,-61.98C1099.65,-52.61 1081.48,-37.38 1067.91,-26.01"/>
<polygon fill="midnightblue" stroke="midnightblue" points="1070.07,-23.25 1060.15,-19.51 1065.57,-28.61 1070.07,-23.25"/>
</g>
<!-- Node8 -->
<g id="node8" class="node">
<title>Node8</title>
<g id="a_node8"><a xlink:title=" ">
<polygon fill="none" stroke="#bfbfbf" points="1096.5,-0.5 1096.5,-19.5 1145.5,-19.5 1145.5,-0.5 1096.5,-0.5"/>
<text text-anchor="middle" x="1121" y="-7.5" font-family="Helvetica,sans-Serif" font-size="10.00">stdint.h</text>
</a>
</g>
</g>
<!-- Node6&#45;&gt;Node8 -->
<g id="edge7" class="edge">
<title>Node6&#45;&gt;Node8</title>
<path fill="none" stroke="midnightblue" d="M1121,-61.98C1121,-53.58 1121,-40.48 1121,-29.66"/>
<polygon fill="midnightblue" stroke="midnightblue" points="1124.5,-29.51 1121,-19.51 1117.5,-29.51 1124.5,-29.51"/>
</g>
<!-- Node9 -->
<g id="node9" class="node">
<title>Node9</title>
<g id="a_node9"><a xlink:title=" ">
<polygon fill="none" stroke="#bfbfbf" points="1163.5,-0.5 1163.5,-19.5 1212.5,-19.5 1212.5,-0.5 1163.5,-0.5"/>
<text text-anchor="middle" x="1188" y="-7.5" font-family="Helvetica,sans-Serif" font-size="10.00">string.h</text>
</a>
</g>
</g>
<!-- Node6&#45;&gt;Node9 -->
<g id="edge8" class="edge">
<title>Node6&#45;&gt;Node9</title>
<path fill="none" stroke="midnightblue" d="M1130.6,-61.98C1141.05,-52.7 1157.97,-37.67 1170.74,-26.33"/>
<polygon fill="midnightblue" stroke="midnightblue" points="1173.27,-28.77 1178.42,-19.51 1168.62,-23.53 1173.27,-28.77"/>
</g>
<!-- Node19 -->
<g id="node19" class="node">
<title>Node19</title>
<g id="a_node19"><a xlink:title=" ">
<polygon fill="none" stroke="#bfbfbf" points="210,-246.5 210,-265.5 256,-265.5 256,-246.5 210,-246.5"/>
<text text-anchor="middle" x="233" y="-253.5" font-family="Helvetica,sans-Serif" font-size="10.00">chrono</text>
</a>
</g>
</g>
<!-- Node18&#45;&gt;Node19 -->
<g id="edge30" class="edge">
<title>Node18&#45;&gt;Node19</title>
<path fill="none" stroke="midnightblue" d="M285.88,-302.32C276.47,-294.26 262.26,-282.08 250.93,-272.37"/>
<polygon fill="midnightblue" stroke="midnightblue" points="253.18,-269.68 243.31,-265.83 248.62,-275 253.18,-269.68"/>
</g>
<!-- Node20 -->
<g id="node20" class="node">
<title>Node20</title>
<g id="a_node20"><a xlink:title=" ">
<polygon fill="none" stroke="#bfbfbf" points="274,-246.5 274,-265.5 318,-265.5 318,-246.5 274,-246.5"/>
<text text-anchor="middle" x="296" y="-253.5" font-family="Helvetica,sans-Serif" font-size="10.00">cmath</text>
</a>
</g>
</g>
<!-- Node18&#45;&gt;Node20 -->
<g id="edge31" class="edge">
<title>Node18&#45;&gt;Node20</title>
<path fill="none" stroke="midnightblue" d="M296,-302.08C296,-295.01 296,-284.86 296,-275.99"/>
<polygon fill="midnightblue" stroke="midnightblue" points="299.5,-275.75 296,-265.75 292.5,-275.75 299.5,-275.75"/>
</g>
<!-- Node21 -->
<g id="node21" class="node">
<title>Node21</title>
<g id="a_node21"><a xlink:title=" ">
<polygon fill="none" stroke="#bfbfbf" points="142,-246.5 142,-265.5 192,-265.5 192,-246.5 142,-246.5"/>
<text text-anchor="middle" x="167" y="-253.5" font-family="Helvetica,sans-Serif" font-size="10.00">iomanip</text>
</a>
</g>
</g>
<!-- Node18&#45;&gt;Node21 -->
<g id="edge32" class="edge">
<title>Node18&#45;&gt;Node21</title>
<path fill="none" stroke="midnightblue" d="M275.56,-302.44C254.33,-293.56 220.9,-279.56 196.75,-269.45"/>
<polygon fill="midnightblue" stroke="midnightblue" points="197.92,-266.15 187.34,-265.52 195.22,-272.61 197.92,-266.15"/>
</g>
<!-- Node22 -->
<g id="node22" class="node">
<title>Node22</title>
<g id="a_node22"><a xlink:title=" ">
<polygon fill="none" stroke="#bfbfbf" points="336,-246.5 336,-265.5 390,-265.5 390,-246.5 336,-246.5"/>
<text text-anchor="middle" x="363" y="-253.5" font-family="Helvetica,sans-Serif" font-size="10.00">iostream</text>
</a>
</g>
</g>
<!-- Node18&#45;&gt;Node22 -->
<g id="edge33" class="edge">
<title>Node18&#45;&gt;Node22</title>
<path fill="none" stroke="midnightblue" d="M306.76,-302.32C316.77,-294.26 331.89,-282.08 343.93,-272.37"/>
<polygon fill="midnightblue" stroke="midnightblue" points="346.45,-274.83 352.04,-265.83 342.06,-269.38 346.45,-274.83"/>
</g>
<!-- Node23&#45;&gt;Node3 -->
<g id="edge35" class="edge">
<title>Node23&#45;&gt;Node3</title>
<path fill="none" stroke="midnightblue" d="M547.75,-302.32C563.32,-293.74 587.38,-280.49 605.46,-270.52"/>
<polygon fill="midnightblue" stroke="midnightblue" points="607.22,-273.55 614.29,-265.65 603.85,-267.42 607.22,-273.55"/>
</g>
<!-- Node23&#45;&gt;Node4 -->
<g id="edge36" class="edge">
<title>Node23&#45;&gt;Node4</title>
<path fill="none" stroke="midnightblue" d="M576.35,-304.91C619.49,-298.2 686.47,-285.67 742,-266 780.54,-252.35 822.24,-229.5 847.24,-214.85"/>
<polygon fill="midnightblue" stroke="midnightblue" points="849.14,-217.79 855.95,-209.67 845.57,-211.77 849.14,-217.79"/>
</g>
<!-- Node23&#45;&gt;Node10 -->
<g id="edge40" class="edge">
<title>Node23&#45;&gt;Node10</title>
<path fill="none" stroke="midnightblue" d="M515.37,-302.43C490.36,-289.64 441.45,-265.03 399,-246 360.44,-228.71 334.55,-245.08 311,-210 289.45,-177.9 286.03,-152.52 311,-123 341.19,-87.3 473.12,-76.83 551.62,-73.76"/>
<polygon fill="midnightblue" stroke="midnightblue" points="551.99,-77.25 561.85,-73.39 551.73,-70.25 551.99,-77.25"/>
</g>
<!-- Node23&#45;&gt;Node11 -->
<g id="edge41" class="edge">
<title>Node23&#45;&gt;Node11</title>
<path fill="none" stroke="midnightblue" d="M519.22,-302.49C480.04,-276.09 363.14,-194.93 344,-154 338.16,-141.52 334.61,-133.08 344,-123 382.65,-81.52 797.13,-96.66 853,-87 858.06,-86.12 863.35,-84.96 868.52,-83.67"/>
<polygon fill="midnightblue" stroke="midnightblue" points="869.49,-87.03 878.25,-81.07 867.68,-80.27 869.49,-87.03"/>
</g>
<!-- Node23&#45;&gt;Node15 -->
<g id="edge37" class="edge">
<title>Node23&#45;&gt;Node15</title>
<path fill="none" stroke="midnightblue" d="M576.18,-305.45C622.69,-298.66 691.55,-285.59 709,-266 735.57,-236.18 733.15,-185.64 729.39,-158.34"/>
<polygon fill="midnightblue" stroke="midnightblue" points="732.81,-157.52 727.78,-148.19 725.89,-158.62 732.81,-157.52"/>
</g>
<!-- Node23&#45;&gt;Node16 -->
<g id="edge38" class="edge">
<title>Node23&#45;&gt;Node16</title>
<path fill="none" stroke="midnightblue" d="M525.48,-302.26C505.27,-275.19 443.49,-192.41 416.66,-156.46"/>
<polygon fill="midnightblue" stroke="midnightblue" points="419.14,-153.94 410.36,-148.02 413.53,-158.13 419.14,-153.94"/>
</g>
<!-- Node23&#45;&gt;Node17 -->
<g id="edge39" class="edge">
<title>Node23&#45;&gt;Node17</title>
<path fill="none" stroke="midnightblue" d="M531.8,-302.26C531.21,-276.97 529.48,-203.08 528.57,-164.15"/>
<polygon fill="midnightblue" stroke="midnightblue" points="532.06,-163.64 528.33,-153.72 525.07,-163.8 532.06,-163.64"/>
</g>
<!-- Node23&#45;&gt;Node22 -->
<g id="edge42" class="edge">
<title>Node23&#45;&gt;Node22</title>
<path fill="none" stroke="midnightblue" d="M505.22,-302.44C476.67,-293.32 431.27,-278.81 399.46,-268.65"/>
<polygon fill="midnightblue" stroke="midnightblue" points="400.24,-265.23 389.65,-265.52 398.11,-271.89 400.24,-265.23"/>
</g>
</g>
</svg>
