<?xml version="1.0" encoding="UTF-8" standalone="no"?>
<!DOCTYPE svg PUBLIC "-//W3C//DTD SVG 1.1//EN"
 "http://www.w3.org/Graphics/SVG/1.1/DTD/svg11.dtd">
<!-- Generated by graphviz version 2.43.0 (0)
 -->
<!-- Title: TEST_CASE Pages: 1 -->
<svg width="941pt" height="578pt"
 viewBox="0.00 0.00 941.00 578.00" xmlns="http://www.w3.org/2000/svg" xmlns:xlink="http://www.w3.org/1999/xlink">
<g id="graph0" class="graph" transform="scale(1 1) rotate(0) translate(4 574)">
<title>TEST_CASE</title>
<!-- Node1 -->
<g id="node1" class="node">
<title>Node1</title>
<g id="a_node1"><a xlink:title=" ">
<polygon fill="#bfbfbf" stroke="black" points="0,-303.5 0,-322.5 75,-322.5 75,-303.5 0,-303.5"/>
<text text-anchor="middle" x="37.5" y="-310.5" font-family="Helvetica,sans-Serif" font-size="10.00">TEST_CASE</text>
</a>
</g>
</g>
<!-- Node2 -->
<g id="node2" class="node">
<title>Node2</title>
<g id="a_node2"><a xlink:href="gsd_8c.html#ad8933dcce55fd8101b5688f382c10a8e" target="_top" xlink:title=" ">
<polygon fill="none" stroke="black" points="147.5,-341.5 147.5,-360.5 206.5,-360.5 206.5,-341.5 147.5,-341.5"/>
<text text-anchor="middle" x="177" y="-348.5" font-family="Helvetica,sans-Serif" font-size="10.00">gsd_open</text>
</a>
</g>
</g>
<!-- Node1&#45;&gt;Node2 -->
<g id="edge1" class="edge">
<title>Node1&#45;&gt;Node2</title>
<path fill="none" stroke="midnightblue" d="M73.2,-322.59C92.8,-328.01 117.34,-334.79 137.53,-340.37"/>
<polygon fill="midnightblue" stroke="midnightblue" points="136.77,-343.79 147.34,-343.08 138.64,-337.04 136.77,-343.79"/>
</g>
<!-- Node15 -->
<g id="node15" class="node">
<title>Node15</title>
<g id="a_node15"><a xlink:href="classsystemData.html#ad2ba3455704ef6cec1aac76a417e91e9" target="_top" xlink:title="Function loads data from GSD file using GSDUtil class. Must be called after class construction before...">
<polygon fill="none" stroke="black" points="111,-284.5 111,-303.5 243,-303.5 243,-284.5 111,-284.5"/>
<text text-anchor="middle" x="177" y="-291.5" font-family="Helvetica,sans-Serif" font-size="10.00">systemData::initializeData</text>
</a>
</g>
</g>
<!-- Node1&#45;&gt;Node15 -->
<g id="edge16" class="edge">
<title>Node1&#45;&gt;Node15</title>
<path fill="none" stroke="midnightblue" d="M75.35,-307.91C83.32,-306.81 92.04,-305.6 100.89,-304.38"/>
<polygon fill="midnightblue" stroke="midnightblue" points="101.49,-307.83 110.91,-302.99 100.53,-300.9 101.49,-307.83"/>
</g>
<!-- Node3 -->
<g id="node3" class="node">
<title>Node3</title>
<g id="a_node3"><a xlink:href="gsd_8c.html#ac159dfbfd790607f85073ad2d8464a8b" target="_top" xlink:title=" ">
<polygon fill="none" stroke="black" points="303,-417.5 303,-436.5 410,-436.5 410,-417.5 303,-417.5"/>
<text text-anchor="middle" x="356.5" y="-424.5" font-family="Helvetica,sans-Serif" font-size="10.00">gsd_initialize_handle</text>
</a>
</g>
</g>
<!-- Node2&#45;&gt;Node3 -->
<g id="edge2" class="edge">
<title>Node2&#45;&gt;Node3</title>
<path fill="none" stroke="midnightblue" d="M200.48,-360.63C231.69,-373.99 288.3,-398.23 323.79,-413.42"/>
<polygon fill="midnightblue" stroke="midnightblue" points="322.63,-416.73 333.2,-417.45 325.39,-410.3 322.63,-416.73"/>
</g>
<!-- Node14 -->
<g id="node14" class="node">
<title>Node14</title>
<g id="a_node14"><a xlink:href="gsd_8c.html#a9b05d58560daee2512f03bedf7b2926d" target="_top" xlink:title=" ">
<polygon fill="none" stroke="black" points="299,-341.5 299,-360.5 414,-360.5 414,-341.5 299,-341.5"/>
<text text-anchor="middle" x="356.5" y="-348.5" font-family="Helvetica,sans-Serif" font-size="10.00">gsd_util_zero_memory</text>
</a>
</g>
</g>
<!-- Node2&#45;&gt;Node14 -->
<g id="edge15" class="edge">
<title>Node2&#45;&gt;Node14</title>
<path fill="none" stroke="midnightblue" d="M206.52,-351C228.6,-351 260.1,-351 288.45,-351"/>
<polygon fill="midnightblue" stroke="midnightblue" points="288.73,-354.5 298.73,-351 288.73,-347.5 288.73,-354.5"/>
</g>
<!-- Node4 -->
<g id="node4" class="node">
<title>Node4</title>
<g id="a_node4"><a xlink:href="gsd_8c.html#aeaf487909ab334303fa478cf4a126d6f" target="_top" xlink:title=" ">
<polygon fill="none" stroke="black" points="490.5,-550.5 490.5,-569.5 615.5,-569.5 615.5,-550.5 490.5,-550.5"/>
<text text-anchor="middle" x="553" y="-557.5" font-family="Helvetica,sans-Serif" font-size="10.00">gsd_byte_buffer_allocate</text>
</a>
</g>
</g>
<!-- Node3&#45;&gt;Node4 -->
<g id="edge3" class="edge">
<title>Node3&#45;&gt;Node4</title>
<path fill="none" stroke="midnightblue" d="M364.79,-436.76C381.19,-458.01 423.23,-508.77 470,-536 477.73,-540.5 486.37,-544.21 495.06,-547.26"/>
<polygon fill="midnightblue" stroke="midnightblue" points="494.26,-550.68 504.85,-550.42 496.41,-544.01 494.26,-550.68"/>
</g>
<!-- Node5 -->
<g id="node5" class="node">
<title>Node5</title>
<g id="a_node5"><a xlink:href="gsd_8c.html#ae1948c93f77d642c4e3797fe7e5f2095" target="_top" xlink:title=" ">
<polygon fill="none" stroke="black" points="676,-512.5 676,-531.5 805,-531.5 805,-512.5 676,-512.5"/>
<text text-anchor="middle" x="740.5" y="-519.5" font-family="Helvetica,sans-Serif" font-size="10.00">gsd_index_buffer_allocate</text>
</a>
</g>
</g>
<!-- Node3&#45;&gt;Node5 -->
<g id="edge4" class="edge">
<title>Node3&#45;&gt;Node5</title>
<path fill="none" stroke="midnightblue" d="M367.64,-436.64C386.2,-453.6 427.67,-488.39 470,-503 533.55,-524.93 610.42,-528.26 665.77,-526.94"/>
<polygon fill="midnightblue" stroke="midnightblue" points="665.96,-530.44 675.85,-526.64 665.75,-523.44 665.96,-530.44"/>
</g>
<!-- Node6 -->
<g id="node6" class="node">
<title>Node6</title>
<g id="a_node6"><a xlink:href="gsd_8c.html#a6fe75caf6c4df550af2455a0c40bfbdf" target="_top" xlink:title=" ">
<polygon fill="none" stroke="black" points="496,-474.5 496,-493.5 610,-493.5 610,-474.5 496,-474.5"/>
<text text-anchor="middle" x="553" y="-481.5" font-family="Helvetica,sans-Serif" font-size="10.00">gsd_index_buffer_map</text>
</a>
</g>
</g>
<!-- Node3&#45;&gt;Node6 -->
<g id="edge5" class="edge">
<title>Node3&#45;&gt;Node6</title>
<path fill="none" stroke="midnightblue" d="M389.99,-436.54C412.46,-443.13 443.04,-452.1 470,-460 482.8,-463.75 496.74,-467.83 509.42,-471.54"/>
<polygon fill="midnightblue" stroke="midnightblue" points="508.7,-474.98 519.28,-474.43 510.66,-468.26 508.7,-474.98"/>
</g>
<!-- Node7 -->
<g id="node7" class="node">
<title>Node7</title>
<g id="a_node7"><a xlink:href="gsd_8c.html#ac1f41abbefbfe35337e7053d766c089b" target="_top" xlink:title=" ">
<polygon fill="none" stroke="black" points="691,-436.5 691,-455.5 790,-455.5 790,-436.5 691,-436.5"/>
<text text-anchor="middle" x="740.5" y="-443.5" font-family="Helvetica,sans-Serif" font-size="10.00">gsd_io_pread_retry</text>
</a>
</g>
</g>
<!-- Node3&#45;&gt;Node7 -->
<g id="edge10" class="edge">
<title>Node3&#45;&gt;Node7</title>
<path fill="none" stroke="midnightblue" d="M410.21,-429.62C481.17,-433.15 607.02,-439.41 680.88,-443.08"/>
<polygon fill="midnightblue" stroke="midnightblue" points="680.78,-446.58 690.95,-443.59 681.13,-439.59 680.78,-446.58"/>
</g>
<!-- Node10 -->
<g id="node10" class="node">
<title>Node10</title>
<g id="a_node10"><a xlink:href="gsd_8c.html#a493ef951956c9f98adff89a80ddb3fa6" target="_top" xlink:title=" ">
<polygon fill="none" stroke="black" points="504,-398.5 504,-417.5 602,-417.5 602,-398.5 504,-398.5"/>
<text text-anchor="middle" x="553" y="-405.5" font-family="Helvetica,sans-Serif" font-size="10.00">gsd_make_version</text>
</a>
</g>
</g>
<!-- Node3&#45;&gt;Node10 -->
<g id="edge11" class="edge">
<title>Node3&#45;&gt;Node10</title>
<path fill="none" stroke="midnightblue" d="M410.13,-421.86C435.96,-419.34 467.14,-416.29 493.68,-413.7"/>
<polygon fill="midnightblue" stroke="midnightblue" points="494.38,-417.15 503.99,-412.69 493.69,-410.18 494.38,-417.15"/>
</g>
<!-- Node11 -->
<g id="node11" class="node">
<title>Node11</title>
<g id="a_node11"><a xlink:href="gsd_8c.html#aebfeb70fcbc089409a7179af7d814554" target="_top" xlink:title=" ">
<polygon fill="none" stroke="black" points="484.5,-360.5 484.5,-379.5 621.5,-379.5 621.5,-360.5 484.5,-360.5"/>
<text text-anchor="middle" x="553" y="-367.5" font-family="Helvetica,sans-Serif" font-size="10.00">gsd_name_id_map_allocate</text>
</a>
</g>
</g>
<!-- Node3&#45;&gt;Node11 -->
<g id="edge12" class="edge">
<title>Node3&#45;&gt;Node11</title>
<path fill="none" stroke="midnightblue" d="M383.64,-417.36C406.3,-409.2 440.06,-397.5 470,-389 478.77,-386.51 488.15,-384.1 497.3,-381.89"/>
<polygon fill="midnightblue" stroke="midnightblue" points="498.19,-385.27 507.11,-379.56 496.57,-378.46 498.19,-385.27"/>
</g>
<!-- Node12 -->
<g id="node12" class="node">
<title>Node12</title>
<g id="a_node12"><a xlink:href="gsd_8c.html#a6c8c2e5a49ac4eb01a95be2e0df06eb9" target="_top" xlink:title=" ">
<polygon fill="none" stroke="black" points="489,-322.5 489,-341.5 617,-341.5 617,-322.5 489,-322.5"/>
<text text-anchor="middle" x="553" y="-329.5" font-family="Helvetica,sans-Serif" font-size="10.00">gsd_name_id_map_insert</text>
</a>
</g>
</g>
<!-- Node3&#45;&gt;Node12 -->
<g id="edge13" class="edge">
<title>Node3&#45;&gt;Node12</title>
<path fill="none" stroke="midnightblue" d="M368.81,-417.25C388.19,-401.04 429.59,-368.61 470,-351 475.71,-348.51 481.8,-346.32 487.98,-344.41"/>
<polygon fill="midnightblue" stroke="midnightblue" points="489.07,-347.73 497.72,-341.61 487.14,-341 489.07,-347.73"/>
</g>
<!-- Node6&#45;&gt;Node5 -->
<g id="edge6" class="edge">
<title>Node6&#45;&gt;Node5</title>
<path fill="none" stroke="midnightblue" d="M600.81,-493.59C625.84,-498.72 656.84,-505.07 683.18,-510.46"/>
<polygon fill="midnightblue" stroke="midnightblue" points="682.53,-513.9 693.03,-512.48 683.93,-507.04 682.53,-513.9"/>
</g>
<!-- Node6&#45;&gt;Node7 -->
<g id="edge7" class="edge">
<title>Node6&#45;&gt;Node7</title>
<path fill="none" stroke="midnightblue" d="M600.81,-474.41C625.84,-469.28 656.84,-462.93 683.18,-457.54"/>
<polygon fill="midnightblue" stroke="midnightblue" points="683.93,-460.96 693.03,-455.52 682.53,-454.1 683.93,-460.96"/>
</g>
<!-- Node8 -->
<g id="node8" class="node">
<title>Node8</title>
<g id="a_node8"><a xlink:href="gsd_8c.html#ab5d19295bedec41b7919caec2cb22759" target="_top" xlink:title=" ">
<polygon fill="none" stroke="black" points="691.5,-474.5 691.5,-493.5 789.5,-493.5 789.5,-474.5 691.5,-474.5"/>
<text text-anchor="middle" x="740.5" y="-481.5" font-family="Helvetica,sans-Serif" font-size="10.00">gsd_is_entry_valid</text>
</a>
</g>
</g>
<!-- Node6&#45;&gt;Node8 -->
<g id="edge8" class="edge">
<title>Node6&#45;&gt;Node8</title>
<path fill="none" stroke="midnightblue" d="M610.16,-484C632.63,-484 658.51,-484 681.19,-484"/>
<polygon fill="midnightblue" stroke="midnightblue" points="681.37,-487.5 691.37,-484 681.37,-480.5 681.37,-487.5"/>
</g>
<!-- Node9 -->
<g id="node9" class="node">
<title>Node9</title>
<g id="a_node9"><a xlink:href="gsd_8c.html#ab1d1a8a5f73b37df0c706f41df3bdd69" target="_top" xlink:title=" ">
<polygon fill="none" stroke="black" points="845,-474.5 845,-493.5 933,-493.5 933,-474.5 845,-474.5"/>
<text text-anchor="middle" x="889" y="-481.5" font-family="Helvetica,sans-Serif" font-size="10.00">gsd_sizeof_type</text>
</a>
</g>
</g>
<!-- Node8&#45;&gt;Node9 -->
<g id="edge9" class="edge">
<title>Node8&#45;&gt;Node9</title>
<path fill="none" stroke="midnightblue" d="M789.88,-484C804.09,-484 819.73,-484 834.26,-484"/>
<polygon fill="midnightblue" stroke="midnightblue" points="834.61,-487.5 844.61,-484 834.61,-480.5 834.61,-487.5"/>
</g>
<!-- Node13 -->
<g id="node13" class="node">
<title>Node13</title>
<g id="a_node13"><a xlink:href="gsd_8c.html#a6d8087323ec29c58d907b9462b4a31da" target="_top" xlink:title=" ">
<polygon fill="none" stroke="black" points="703,-322.5 703,-341.5 778,-341.5 778,-322.5 703,-322.5"/>
<text text-anchor="middle" x="740.5" y="-329.5" font-family="Helvetica,sans-Serif" font-size="10.00">gsd_hash_str</text>
</a>
</g>
</g>
<!-- Node12&#45;&gt;Node13 -->
<g id="edge14" class="edge">
<title>Node12&#45;&gt;Node13</title>
<path fill="none" stroke="midnightblue" d="M617.06,-332C641.84,-332 669.77,-332 692.69,-332"/>
<polygon fill="midnightblue" stroke="midnightblue" points="692.84,-335.5 702.84,-332 692.84,-328.5 692.84,-335.5"/>
</g>
<!-- Node16 -->
<g id="node16" class="node">
<title>Node16</title>
<g id="a_node16"><a xlink:href="classsystemData.html#a74a503e80869c3ef4a9b6edefd132726" target="_top" xlink:title=" ">
<polygon fill="none" stroke="black" points="295.5,-284.5 295.5,-303.5 417.5,-303.5 417.5,-284.5 295.5,-284.5"/>
<text text-anchor="middle" x="356.5" y="-291.5" font-family="Helvetica,sans-Serif" font-size="10.00">systemData::parseGSD</text>
</a>
</g>
</g>
<!-- Node15&#45;&gt;Node16 -->
<g id="edge17" class="edge">
<title>Node15&#45;&gt;Node16</title>
<path fill="none" stroke="midnightblue" d="M243.09,-294C256.86,-294 271.45,-294 285.4,-294"/>
<polygon fill="midnightblue" stroke="midnightblue" points="285.43,-297.5 295.43,-294 285.43,-290.5 285.43,-297.5"/>
</g>
<!-- Node18 -->
<g id="node18" class="node">
<title>Node18</title>
<g id="a_node18"><a xlink:href="classsystemData.html#a3c7862901ce425c4d5e6001efa3ef61d" target="_top" xlink:title="Updates the kinematic constraints relative to the chosen locater particles for both velocity and acce...">
<polygon fill="none" stroke="black" points="279,-142.5 279,-161.5 434,-161.5 434,-142.5 279,-142.5"/>
<text text-anchor="middle" x="356.5" y="-149.5" font-family="Helvetica,sans-Serif" font-size="10.00">systemData::updateConstraints</text>
</a>
</g>
</g>
<!-- Node15&#45;&gt;Node18 -->
<g id="edge19" class="edge">
<title>Node15&#45;&gt;Node18</title>
<path fill="none" stroke="midnightblue" d="M189.92,-284.46C219.71,-260.63 297.69,-198.25 335.01,-168.39"/>
<polygon fill="midnightblue" stroke="midnightblue" points="337.54,-170.85 343.16,-161.87 333.17,-165.39 337.54,-170.85"/>
</g>
<!-- Node17 -->
<g id="node17" class="node">
<title>Node17</title>
<g id="a_node17"><a xlink:href="classsystemData.html#a3f978844a3292e9ca096be6741c48dc2" target="_top" xlink:title=" ">
<polygon fill="none" stroke="black" points="491,-284.5 491,-303.5 615,-303.5 615,-284.5 491,-284.5"/>
<text text-anchor="middle" x="553" y="-291.5" font-family="Helvetica,sans-Serif" font-size="10.00">systemData::checkInput</text>
</a>
</g>
</g>
<!-- Node16&#45;&gt;Node17 -->
<g id="edge18" class="edge">
<title>Node16&#45;&gt;Node17</title>
<path fill="none" stroke="midnightblue" d="M417.71,-294C437.65,-294 460.04,-294 480.73,-294"/>
<polygon fill="midnightblue" stroke="midnightblue" points="480.73,-297.5 490.73,-294 480.73,-290.5 480.73,-297.5"/>
</g>
<!-- Node19 -->
<g id="node19" class="node">
<title>Node19</title>
<g id="a_node19"><a xlink:href="classsystemData.html#abdbaf4be474add633c79ce9f4812b438" target="_top" xlink:title=" ">
<polygon fill="none" stroke="black" points="486,-235 486,-265 620,-265 620,-235 486,-235"/>
<text text-anchor="start" x="494" y="-253" font-family="Helvetica,sans-Serif" font-size="10.00">systemData::accelerations</text>
<text text-anchor="middle" x="553" y="-242" font-family="Helvetica,sans-Serif" font-size="10.00">Articulation</text>
</a>
</g>
</g>
<!-- Node18&#45;&gt;Node19 -->
<g id="edge20" class="edge">
<title>Node18&#45;&gt;Node19</title>
<path fill="none" stroke="midnightblue" d="M369.6,-161.73C389.48,-177.28 430.75,-207.84 470,-226 474.13,-227.91 478.44,-229.7 482.83,-231.39"/>
<polygon fill="midnightblue" stroke="midnightblue" points="481.95,-234.79 492.55,-234.89 484.33,-228.2 481.95,-234.79"/>
</g>
<!-- Node20 -->
<g id="node20" class="node">
<title>Node20</title>
<g id="a_node20"><a xlink:href="classsystemData.html#aca5c01655d711e9088b3f1e9d7578612" target="_top" xlink:title=" ">
<polygon fill="none" stroke="black" points="481,-186 481,-216 625,-216 625,-186 481,-186"/>
<text text-anchor="start" x="489" y="-204" font-family="Helvetica,sans-Serif" font-size="10.00">systemData::gradientChange</text>
<text text-anchor="middle" x="553" y="-193" font-family="Helvetica,sans-Serif" font-size="10.00">OfVariableTensors</text>
</a>
</g>
</g>
<!-- Node18&#45;&gt;Node20 -->
<g id="edge21" class="edge">
<title>Node18&#45;&gt;Node20</title>
<path fill="none" stroke="midnightblue" d="M395.46,-161.56C420.2,-167.79 453.2,-176.11 482.53,-183.5"/>
<polygon fill="midnightblue" stroke="midnightblue" points="481.76,-186.91 492.31,-185.96 483.47,-180.13 481.76,-186.91"/>
</g>
<!-- Node22 -->
<g id="node22" class="node">
<title>Node22</title>
<g id="a_node22"><a xlink:href="classsystemData.html#ab3fc7f3cc4c79bbad6e9bb73e127e8c3" target="_top" xlink:title=" ">
<polygon fill="none" stroke="black" points="489,-137 489,-167 617,-167 617,-137 489,-137"/>
<text text-anchor="start" x="497" y="-155" font-family="Helvetica,sans-Serif" font-size="10.00">systemData::locaterPoint</text>
<text text-anchor="middle" x="553" y="-144" font-family="Helvetica,sans-Serif" font-size="10.00">Locations</text>
</a>
</g>
</g>
<!-- Node18&#45;&gt;Node22 -->
<g id="edge23" class="edge">
<title>Node18&#45;&gt;Node22</title>
<path fill="none" stroke="midnightblue" d="M434.09,-152C448.86,-152 464.3,-152 478.95,-152"/>
<polygon fill="midnightblue" stroke="midnightblue" points="478.95,-155.5 488.95,-152 478.95,-148.5 478.95,-155.5"/>
</g>
<!-- Node23 -->
<g id="node23" class="node">
<title>Node23</title>
<g id="a_node23"><a xlink:href="classsystemData.html#a415007558c07b03a6cfeb973ec97fa3f" target="_top" xlink:title=" ">
<polygon fill="none" stroke="black" points="480,-88 480,-118 626,-118 626,-88 480,-88"/>
<text text-anchor="start" x="488" y="-106" font-family="Helvetica,sans-Serif" font-size="10.00">systemData::rigidBodyMotion</text>
<text text-anchor="middle" x="553" y="-95" font-family="Helvetica,sans-Serif" font-size="10.00">Tensors</text>
</a>
</g>
</g>
<!-- Node18&#45;&gt;Node23 -->
<g id="edge24" class="edge">
<title>Node18&#45;&gt;Node23</title>
<path fill="none" stroke="midnightblue" d="M395.46,-142.44C420.2,-136.21 453.2,-127.89 482.53,-120.5"/>
<polygon fill="midnightblue" stroke="midnightblue" points="483.47,-123.87 492.31,-118.04 481.76,-117.09 483.47,-123.87"/>
</g>
<!-- Node25 -->
<g id="node25" class="node">
<title>Node25</title>
<g id="a_node25"><a xlink:href="classsystemData.html#aa797226f69baaa83c559c481dee8381b" target="_top" xlink:title=" ">
<polygon fill="none" stroke="black" points="484,-39 484,-69 622,-69 622,-39 484,-39"/>
<text text-anchor="start" x="492" y="-57" font-family="Helvetica,sans-Serif" font-size="10.00">systemData::udwadiaLinear</text>
<text text-anchor="middle" x="553" y="-46" font-family="Helvetica,sans-Serif" font-size="10.00">System</text>
</a>
</g>
</g>
<!-- Node18&#45;&gt;Node25 -->
<g id="edge27" class="edge">
<title>Node18&#45;&gt;Node25</title>
<path fill="none" stroke="midnightblue" d="M369.6,-142.27C389.48,-126.72 430.75,-96.16 470,-78 474.13,-76.09 478.44,-74.3 482.83,-72.61"/>
<polygon fill="midnightblue" stroke="midnightblue" points="484.33,-75.8 492.55,-69.11 481.95,-69.21 484.33,-75.8"/>
</g>
<!-- Node26 -->
<g id="node26" class="node">
<title>Node26</title>
<g id="a_node26"><a xlink:href="classsystemData.html#a4b449c0f7702a7140fca05ca3722092b" target="_top" xlink:title=" ">
<polygon fill="none" stroke="black" points="470,-0.5 470,-19.5 636,-19.5 636,-0.5 470,-0.5"/>
<text text-anchor="middle" x="553" y="-7.5" font-family="Helvetica,sans-Serif" font-size="10.00">systemData::velocitiesArticulation</text>
</a>
</g>
</g>
<!-- Node18&#45;&gt;Node26 -->
<g id="edge28" class="edge">
<title>Node18&#45;&gt;Node26</title>
<path fill="none" stroke="midnightblue" d="M363.45,-142.18C378.26,-118.61 419.28,-58.64 470,-29 473.87,-26.74 477.98,-24.75 482.23,-23"/>
<polygon fill="midnightblue" stroke="midnightblue" points="483.52,-26.25 491.7,-19.52 481.11,-19.68 483.52,-26.25"/>
</g>
<!-- Node21 -->
<g id="node21" class="node">
<title>Node21</title>
<g id="a_node21"><a xlink:href="classsystemData.html#a19a83a255eb6f1de4bcfe2ea8e31ffa9" target="_top" xlink:title="Computes the E matrix of quaternion (4&#45;vector) input.">
<polygon fill="none" stroke="black" points="686.5,-161.5 686.5,-180.5 794.5,-180.5 794.5,-161.5 686.5,-161.5"/>
<text text-anchor="middle" x="740.5" y="-168.5" font-family="Helvetica,sans-Serif" font-size="10.00">systemData::eMatrix</text>
</a>
</g>
</g>
<!-- Node20&#45;&gt;Node21 -->
<g id="edge22" class="edge">
<title>Node20&#45;&gt;Node21</title>
<path fill="none" stroke="midnightblue" d="M625.19,-189.49C642.03,-186.76 659.87,-183.88 676.32,-181.22"/>
<polygon fill="midnightblue" stroke="midnightblue" points="677.05,-184.64 686.37,-179.59 675.94,-177.73 677.05,-184.64"/>
</g>
<!-- Node23&#45;&gt;Node21 -->
<g id="edge26" class="edge">
<title>Node23&#45;&gt;Node21</title>
<path fill="none" stroke="midnightblue" d="M606.31,-118.11C616.23,-121.21 626.48,-124.58 636,-128 660.86,-136.93 688.47,-148.49 708.91,-157.37"/>
<polygon fill="midnightblue" stroke="midnightblue" points="707.77,-160.69 718.33,-161.49 710.57,-154.27 707.77,-160.69"/>
</g>
<!-- Node24 -->
<g id="node24" class="node">
<title>Node24</title>
<g id="a_node24"><a xlink:href="classsystemData.html#a0a77c933b764fb36c64ec5e66011482c" target="_top" xlink:title="Function takes in vector in vector cross&#45;product expression: $c = a \times b$.">
<polygon fill="none" stroke="black" points="672,-93.5 672,-112.5 809,-112.5 809,-93.5 672,-93.5"/>
<text text-anchor="middle" x="740.5" y="-100.5" font-family="Helvetica,sans-Serif" font-size="10.00">systemData::crossProdMat</text>
</a>
</g>
</g>
<!-- Node23&#45;&gt;Node24 -->
<g id="edge25" class="edge">
<title>Node23&#45;&gt;Node24</title>
<path fill="none" stroke="midnightblue" d="M626.25,-103C637.9,-103 649.99,-103 661.76,-103"/>
<polygon fill="midnightblue" stroke="midnightblue" points="662,-106.5 672,-103 662,-99.5 662,-106.5"/>
</g>
</g>
</svg>
