<?xml version="1.0" encoding="UTF-8" standalone="no"?>
<!DOCTYPE svg PUBLIC "-//W3C//DTD SVG 1.1//EN"
 "http://www.w3.org/Graphics/SVG/1.1/DTD/svg11.dtd">
<!-- Generated by graphviz version 2.43.0 (0)
 -->
<!-- Title: test/simulation_system/TestSystemData.hpp Pages: 1 -->
<svg width="298pt" height="106pt"
 viewBox="0.00 0.00 297.50 106.00" xmlns="http://www.w3.org/2000/svg" xmlns:xlink="http://www.w3.org/1999/xlink">
<g id="graph0" class="graph" transform="scale(1 1) rotate(0) translate(4 102)">
<title>test/simulation_system/TestSystemData.hpp</title>
<!-- Node1 -->
<g id="node1" class="node">
<title>Node1</title>
<g id="a_node1"><a xlink:title=" ">
<polygon fill="#bfbfbf" stroke="black" points="94.5,-67.5 94.5,-97.5 212.5,-97.5 212.5,-67.5 94.5,-67.5"/>
<text text-anchor="start" x="102.5" y="-85.5" font-family="Helvetica,sans-Serif" font-size="10.00">test/simulation_system</text>
<text text-anchor="middle" x="153.5" y="-74.5" font-family="Helvetica,sans-Serif" font-size="10.00">/TestSystemData.hpp</text>
</a>
</g>
</g>
<!-- Node2 -->
<g id="node2" class="node">
<title>Node2</title>
<g id="a_node2"><a xlink:href="TestSimulationSystem_8cpp.html" target="_top" xlink:title=" ">
<polygon fill="none" stroke="black" points="0,-6 0,-25 153,-25 153,-6 0,-6"/>
<text text-anchor="middle" x="76.5" y="-13" font-family="Helvetica,sans-Serif" font-size="10.00">test/TestSimulationSystem.cpp</text>
</a>
</g>
</g>
<!-- Node1&#45;&gt;Node2 -->
<g id="edge1" class="edge">
<title>Node1&#45;&gt;Node2</title>
<path fill="none" stroke="midnightblue" d="M128.83,-60.67C114.61,-48.67 97.49,-34.22 86.8,-25.19"/>
<polygon fill="midnightblue" stroke="midnightblue" points="126.89,-63.62 136.79,-67.4 131.41,-58.27 126.89,-63.62"/>
</g>
<!-- Node3 -->
<g id="node3" class="node">
<title>Node3</title>
<g id="a_node3"><a xlink:href="TestSystemData_8cpp.html" target="_top" xlink:title=" ">
<polygon fill="none" stroke="black" points="171.5,-0.5 171.5,-30.5 289.5,-30.5 289.5,-0.5 171.5,-0.5"/>
<text text-anchor="start" x="179.5" y="-18.5" font-family="Helvetica,sans-Serif" font-size="10.00">test/simulation_system</text>
<text text-anchor="middle" x="230.5" y="-7.5" font-family="Helvetica,sans-Serif" font-size="10.00">/TestSystemData.cpp</text>
</a>
</g>
</g>
<!-- Node1&#45;&gt;Node3 -->
<g id="edge2" class="edge">
<title>Node1&#45;&gt;Node3</title>
<path fill="none" stroke="midnightblue" d="M177.92,-60.88C189.62,-51.01 203.34,-39.43 213.82,-30.58"/>
<polygon fill="midnightblue" stroke="midnightblue" points="175.59,-58.27 170.21,-67.4 180.11,-63.62 175.59,-58.27"/>
</g>
</g>
</svg>
