<?xml version="1.0" encoding="UTF-8" standalone="no"?>
<!DOCTYPE svg PUBLIC "-//W3C//DTD SVG 1.1//EN"
 "http://www.w3.org/Graphics/SVG/1.1/DTD/svg11.dtd">
<!-- Generated by graphviz version 2.43.0 (0)
 -->
<!-- Title: TEST_CASE Pages: 1 -->
<svg width="908pt" height="519pt"
 viewBox="0.00 0.00 908.00 518.96" xmlns="http://www.w3.org/2000/svg" xmlns:xlink="http://www.w3.org/1999/xlink">
<g id="graph0" class="graph" transform="scale(1 1) rotate(0) translate(4 514.96)">
<title>TEST_CASE</title>
<!-- Node1 -->
<g id="node1" class="node">
<title>Node1</title>
<g id="a_node1"><a xlink:title=" ">
<polygon fill="#bfbfbf" stroke="black" points="0,-255 0,-274 75,-274 75,-255 0,-255"/>
<text text-anchor="middle" x="37.5" y="-262" font-family="Helvetica,sans-Serif" font-size="10.00">TEST_CASE</text>
</a>
</g>
</g>
<!-- Node2 -->
<g id="node2" class="node">
<title>Node2</title>
<g id="a_node2"><a xlink:href="gsd_8c.html#ad8933dcce55fd8101b5688f382c10a8e" target="_top" xlink:title=" ">
<polygon fill="none" stroke="black" points="147.5,-293 147.5,-312 206.5,-312 206.5,-293 147.5,-293"/>
<text text-anchor="middle" x="177" y="-300" font-family="Helvetica,sans-Serif" font-size="10.00">gsd_open</text>
</a>
</g>
</g>
<!-- Node1&#45;&gt;Node2 -->
<g id="edge1" class="edge">
<title>Node1&#45;&gt;Node2</title>
<path fill="none" stroke="midnightblue" d="M73.2,-274.09C92.8,-279.51 117.34,-286.29 137.53,-291.87"/>
<polygon fill="midnightblue" stroke="midnightblue" points="136.77,-295.29 147.34,-294.58 138.64,-288.54 136.77,-295.29"/>
</g>
<!-- Node15 -->
<g id="node15" class="node">
<title>Node15</title>
<g id="a_node15"><a xlink:href="classsystemData.html#ad2ba3455704ef6cec1aac76a417e91e9" target="_top" xlink:title="Function loads data from GSD file using GSDUtil class.">
<polygon fill="none" stroke="black" points="111,-236 111,-255 243,-255 243,-236 111,-236"/>
<text text-anchor="middle" x="177" y="-243" font-family="Helvetica,sans-Serif" font-size="10.00">systemData::initializeData</text>
</a>
</g>
</g>
<!-- Node1&#45;&gt;Node15 -->
<g id="edge16" class="edge">
<title>Node1&#45;&gt;Node15</title>
<path fill="none" stroke="midnightblue" d="M75.35,-259.41C83.32,-258.31 92.04,-257.1 100.89,-255.88"/>
<polygon fill="midnightblue" stroke="midnightblue" points="101.49,-259.33 110.91,-254.49 100.53,-252.4 101.49,-259.33"/>
</g>
<!-- Node3 -->
<g id="node3" class="node">
<title>Node3</title>
<g id="a_node3"><a xlink:href="gsd_8c.html#ac159dfbfd790607f85073ad2d8464a8b" target="_top" xlink:title=" ">
<polygon fill="none" stroke="black" points="286.5,-369 286.5,-388 393.5,-388 393.5,-369 286.5,-369"/>
<text text-anchor="middle" x="340" y="-376" font-family="Helvetica,sans-Serif" font-size="10.00">gsd_initialize_handle</text>
</a>
</g>
</g>
<!-- Node2&#45;&gt;Node3 -->
<g id="edge2" class="edge">
<title>Node2&#45;&gt;Node3</title>
<path fill="none" stroke="midnightblue" d="M198.39,-312.13C226.46,-325.37 277.17,-349.31 309.41,-364.53"/>
<polygon fill="midnightblue" stroke="midnightblue" points="308.24,-367.85 318.77,-368.95 311.23,-361.52 308.24,-367.85"/>
</g>
<!-- Node14 -->
<g id="node14" class="node">
<title>Node14</title>
<g id="a_node14"><a xlink:href="gsd_8c.html#a9b05d58560daee2512f03bedf7b2926d" target="_top" xlink:title=" ">
<polygon fill="none" stroke="black" points="282.5,-293 282.5,-312 397.5,-312 397.5,-293 282.5,-293"/>
<text text-anchor="middle" x="340" y="-300" font-family="Helvetica,sans-Serif" font-size="10.00">gsd_util_zero_memory</text>
</a>
</g>
</g>
<!-- Node2&#45;&gt;Node14 -->
<g id="edge15" class="edge">
<title>Node2&#45;&gt;Node14</title>
<path fill="none" stroke="midnightblue" d="M206.78,-302.5C225.06,-302.5 249.51,-302.5 272.41,-302.5"/>
<polygon fill="midnightblue" stroke="midnightblue" points="272.45,-306 282.45,-302.5 272.45,-299 272.45,-306"/>
</g>
<!-- Node4 -->
<g id="node4" class="node">
<title>Node4</title>
<g id="a_node4"><a xlink:href="gsd_8c.html#aeaf487909ab334303fa478cf4a126d6f" target="_top" xlink:title=" ">
<polygon fill="none" stroke="black" points="457.5,-350 457.5,-369 582.5,-369 582.5,-350 457.5,-350"/>
<text text-anchor="middle" x="520" y="-357" font-family="Helvetica,sans-Serif" font-size="10.00">gsd_byte_buffer_allocate</text>
</a>
</g>
</g>
<!-- Node3&#45;&gt;Node4 -->
<g id="edge3" class="edge">
<title>Node3&#45;&gt;Node4</title>
<path fill="none" stroke="midnightblue" d="M393.92,-372.85C410.54,-371.08 429.18,-369.09 446.9,-367.2"/>
<polygon fill="midnightblue" stroke="midnightblue" points="447.62,-370.64 457.2,-366.1 446.88,-363.68 447.62,-370.64"/>
</g>
<!-- Node5 -->
<g id="node5" class="node">
<title>Node5</title>
<g id="a_node5"><a xlink:href="gsd_8c.html#ae1948c93f77d642c4e3797fe7e5f2095" target="_top" xlink:title=" ">
<polygon fill="none" stroke="black" points="643,-464 643,-483 772,-483 772,-464 643,-464"/>
<text text-anchor="middle" x="707.5" y="-471" font-family="Helvetica,sans-Serif" font-size="10.00">gsd_index_buffer_allocate</text>
</a>
</g>
</g>
<!-- Node3&#45;&gt;Node5 -->
<g id="edge4" class="edge">
<title>Node3&#45;&gt;Node5</title>
<path fill="none" stroke="midnightblue" d="M345.52,-388.29C356.92,-411.64 389.38,-470.34 437,-492.5 514.51,-528.56 618.25,-503.65 671.59,-486.3"/>
<polygon fill="midnightblue" stroke="midnightblue" points="672.88,-489.56 681.25,-483.06 670.66,-482.92 672.88,-489.56"/>
</g>
<!-- Node6 -->
<g id="node6" class="node">
<title>Node6</title>
<g id="a_node6"><a xlink:href="gsd_8c.html#a6fe75caf6c4df550af2455a0c40bfbdf" target="_top" xlink:title=" ">
<polygon fill="none" stroke="black" points="463,-388 463,-407 577,-407 577,-388 463,-388"/>
<text text-anchor="middle" x="520" y="-395" font-family="Helvetica,sans-Serif" font-size="10.00">gsd_index_buffer_map</text>
</a>
</g>
</g>
<!-- Node3&#45;&gt;Node6 -->
<g id="edge5" class="edge">
<title>Node3&#45;&gt;Node6</title>
<path fill="none" stroke="midnightblue" d="M393.92,-384.15C412.42,-386.12 433.43,-388.37 452.87,-390.44"/>
<polygon fill="midnightblue" stroke="midnightblue" points="452.56,-393.93 462.87,-391.51 453.3,-386.97 452.56,-393.93"/>
</g>
<!-- Node7 -->
<g id="node7" class="node">
<title>Node7</title>
<g id="a_node7"><a xlink:href="gsd_8c.html#ac1f41abbefbfe35337e7053d766c089b" target="_top" xlink:title=" ">
<polygon fill="none" stroke="black" points="658,-331 658,-350 757,-350 757,-331 658,-331"/>
<text text-anchor="middle" x="707.5" y="-338" font-family="Helvetica,sans-Serif" font-size="10.00">gsd_io_pread_retry</text>
</a>
</g>
</g>
<!-- Node3&#45;&gt;Node7 -->
<g id="edge10" class="edge">
<title>Node3&#45;&gt;Node7</title>
<path fill="none" stroke="midnightblue" d="M359.14,-368.92C377.99,-359.54 408.65,-345.91 437,-340.5 508.46,-326.87 592.53,-329.8 647.53,-334.2"/>
<polygon fill="midnightblue" stroke="midnightblue" points="647.53,-337.71 657.79,-335.06 648.12,-330.73 647.53,-337.71"/>
</g>
<!-- Node10 -->
<g id="node10" class="node">
<title>Node10</title>
<g id="a_node10"><a xlink:href="gsd_8c.html#a493ef951956c9f98adff89a80ddb3fa6" target="_top" xlink:title=" ">
<polygon fill="none" stroke="black" points="471,-464 471,-483 569,-483 569,-464 471,-464"/>
<text text-anchor="middle" x="520" y="-471" font-family="Helvetica,sans-Serif" font-size="10.00">gsd_make_version</text>
</a>
</g>
</g>
<!-- Node3&#45;&gt;Node10 -->
<g id="edge11" class="edge">
<title>Node3&#45;&gt;Node10</title>
<path fill="none" stroke="midnightblue" d="M350.1,-388.07C366.1,-404.3 400.99,-437.17 437,-454.5 444.57,-458.14 452.88,-461.11 461.21,-463.52"/>
<polygon fill="midnightblue" stroke="midnightblue" points="460.39,-466.92 470.95,-466.1 462.18,-460.16 460.39,-466.92"/>
</g>
<!-- Node11 -->
<g id="node11" class="node">
<title>Node11</title>
<g id="a_node11"><a xlink:href="gsd_8c.html#aebfeb70fcbc089409a7179af7d814554" target="_top" xlink:title=" ">
<polygon fill="none" stroke="black" points="451.5,-426 451.5,-445 588.5,-445 588.5,-426 451.5,-426"/>
<text text-anchor="middle" x="520" y="-433" font-family="Helvetica,sans-Serif" font-size="10.00">gsd_name_id_map_allocate</text>
</a>
</g>
</g>
<!-- Node3&#45;&gt;Node11 -->
<g id="edge12" class="edge">
<title>Node3&#45;&gt;Node11</title>
<path fill="none" stroke="midnightblue" d="M362.4,-388.04C381.64,-396.36 410.82,-408.34 437,-416.5 445.12,-419.03 453.79,-421.4 462.34,-423.54"/>
<polygon fill="midnightblue" stroke="midnightblue" points="461.73,-426.99 472.27,-425.94 463.38,-420.19 461.73,-426.99"/>
</g>
<!-- Node12 -->
<g id="node12" class="node">
<title>Node12</title>
<g id="a_node12"><a xlink:href="gsd_8c.html#a6c8c2e5a49ac4eb01a95be2e0df06eb9" target="_top" xlink:title=" ">
<polygon fill="none" stroke="black" points="456,-274 456,-293 584,-293 584,-274 456,-274"/>
<text text-anchor="middle" x="520" y="-281" font-family="Helvetica,sans-Serif" font-size="10.00">gsd_name_id_map_insert</text>
</a>
</g>
</g>
<!-- Node3&#45;&gt;Node12 -->
<g id="edge13" class="edge">
<title>Node3&#45;&gt;Node12</title>
<path fill="none" stroke="midnightblue" d="M351.4,-368.84C368.19,-353.72 402.84,-324.46 437,-307.5 446.07,-303 456.13,-299.19 466.01,-296.03"/>
<polygon fill="midnightblue" stroke="midnightblue" points="467.22,-299.32 475.79,-293.08 465.2,-292.62 467.22,-299.32"/>
</g>
<!-- Node6&#45;&gt;Node5 -->
<g id="edge6" class="edge">
<title>Node6&#45;&gt;Node5</title>
<path fill="none" stroke="midnightblue" d="M571.96,-407.01C582.39,-409.59 593.17,-412.74 603,-416.5 632.07,-427.63 663.05,-445.59 683.45,-458.38"/>
<polygon fill="midnightblue" stroke="midnightblue" points="681.73,-461.43 692.04,-463.85 685.49,-455.52 681.73,-461.43"/>
</g>
<!-- Node6&#45;&gt;Node7 -->
<g id="edge7" class="edge">
<title>Node6&#45;&gt;Node7</title>
<path fill="none" stroke="midnightblue" d="M566.81,-387.94C578.67,-385.18 591.38,-381.97 603,-378.5 626.96,-371.36 653.42,-361.61 673.58,-353.77"/>
<polygon fill="midnightblue" stroke="midnightblue" points="674.91,-357.01 682.94,-350.1 672.35,-350.5 674.91,-357.01"/>
</g>
<!-- Node8 -->
<g id="node8" class="node">
<title>Node8</title>
<g id="a_node8"><a xlink:href="gsd_8c.html#ab5d19295bedec41b7919caec2cb22759" target="_top" xlink:title=" ">
<polygon fill="none" stroke="black" points="658.5,-388 658.5,-407 756.5,-407 756.5,-388 658.5,-388"/>
<text text-anchor="middle" x="707.5" y="-395" font-family="Helvetica,sans-Serif" font-size="10.00">gsd_is_entry_valid</text>
</a>
</g>
</g>
<!-- Node6&#45;&gt;Node8 -->
<g id="edge8" class="edge">
<title>Node6&#45;&gt;Node8</title>
<path fill="none" stroke="midnightblue" d="M577.16,-397.5C599.63,-397.5 625.51,-397.5 648.19,-397.5"/>
<polygon fill="midnightblue" stroke="midnightblue" points="648.37,-401 658.37,-397.5 648.37,-394 648.37,-401"/>
</g>
<!-- Node9 -->
<g id="node9" class="node">
<title>Node9</title>
<g id="a_node9"><a xlink:href="gsd_8c.html#ab1d1a8a5f73b37df0c706f41df3bdd69" target="_top" xlink:title=" ">
<polygon fill="none" stroke="black" points="812,-388 812,-407 900,-407 900,-388 812,-388"/>
<text text-anchor="middle" x="856" y="-395" font-family="Helvetica,sans-Serif" font-size="10.00">gsd_sizeof_type</text>
</a>
</g>
</g>
<!-- Node8&#45;&gt;Node9 -->
<g id="edge9" class="edge">
<title>Node8&#45;&gt;Node9</title>
<path fill="none" stroke="midnightblue" d="M756.88,-397.5C771.09,-397.5 786.73,-397.5 801.26,-397.5"/>
<polygon fill="midnightblue" stroke="midnightblue" points="801.61,-401 811.61,-397.5 801.61,-394 801.61,-401"/>
</g>
<!-- Node13 -->
<g id="node13" class="node">
<title>Node13</title>
<g id="a_node13"><a xlink:href="gsd_8c.html#a6d8087323ec29c58d907b9462b4a31da" target="_top" xlink:title=" ">
<polygon fill="none" stroke="black" points="670,-274 670,-293 745,-293 745,-274 670,-274"/>
<text text-anchor="middle" x="707.5" y="-281" font-family="Helvetica,sans-Serif" font-size="10.00">gsd_hash_str</text>
</a>
</g>
</g>
<!-- Node12&#45;&gt;Node13 -->
<g id="edge14" class="edge">
<title>Node12&#45;&gt;Node13</title>
<path fill="none" stroke="midnightblue" d="M584.06,-283.5C608.84,-283.5 636.77,-283.5 659.69,-283.5"/>
<polygon fill="midnightblue" stroke="midnightblue" points="659.84,-287 669.84,-283.5 659.84,-280 659.84,-287"/>
</g>
<!-- Node16 -->
<g id="node16" class="node">
<title>Node16</title>
<g id="a_node16"><a xlink:href="classsystemData.html#a74a503e80869c3ef4a9b6edefd132726" target="_top" xlink:title="Passes this (systemData shared pointer instance) into GSDUtil constructor to load data from input GSD...">
<polygon fill="none" stroke="black" points="279,-236 279,-255 401,-255 401,-236 279,-236"/>
<text text-anchor="middle" x="340" y="-243" font-family="Helvetica,sans-Serif" font-size="10.00">systemData::parseGSD</text>
</a>
</g>
</g>
<!-- Node15&#45;&gt;Node16 -->
<g id="edge17" class="edge">
<title>Node15&#45;&gt;Node16</title>
<path fill="none" stroke="midnightblue" d="M243.02,-245.5C251.55,-245.5 260.32,-245.5 268.93,-245.5"/>
<polygon fill="midnightblue" stroke="midnightblue" points="268.94,-249 278.94,-245.5 268.94,-242 268.94,-249"/>
</g>
<!-- Node18 -->
<g id="node18" class="node">
<title>Node18</title>
<g id="a_node18"><a xlink:href="classsystemData.html#abe08e8ef40710f40f585342d24076085" target="_top" xlink:title="Updates all relevant rigid body motion tensors, respective gradients, and kinematic/Udwadia constrain...">
<polygon fill="none" stroke="black" points="287.5,-119 287.5,-138 392.5,-138 392.5,-119 287.5,-119"/>
<text text-anchor="middle" x="340" y="-126" font-family="Helvetica,sans-Serif" font-size="10.00">systemData::update</text>
</a>
</g>
</g>
<!-- Node15&#45;&gt;Node18 -->
<g id="edge19" class="edge">
<title>Node15&#45;&gt;Node18</title>
<path fill="none" stroke="midnightblue" d="M191.18,-235.93C218.89,-215.79 283.45,-168.87 317.34,-144.24"/>
<polygon fill="midnightblue" stroke="midnightblue" points="319.61,-146.92 325.64,-138.21 315.5,-141.25 319.61,-146.92"/>
</g>
<!-- Node17 -->
<g id="node17" class="node">
<title>Node17</title>
<g id="a_node17"><a xlink:href="classsystemData.html#a3f978844a3292e9ca096be6741c48dc2" target="_top" xlink:title="Various assertions to check data loaded from GSD is at least physical.">
<polygon fill="none" stroke="black" points="458,-236 458,-255 582,-255 582,-236 458,-236"/>
<text text-anchor="middle" x="520" y="-243" font-family="Helvetica,sans-Serif" font-size="10.00">systemData::checkInput</text>
</a>
</g>
</g>
<!-- Node16&#45;&gt;Node17 -->
<g id="edge18" class="edge">
<title>Node16&#45;&gt;Node17</title>
<path fill="none" stroke="midnightblue" d="M401.26,-245.5C416.24,-245.5 432.43,-245.5 447.87,-245.5"/>
<polygon fill="midnightblue" stroke="midnightblue" points="447.89,-249 457.89,-245.5 447.89,-242 447.89,-249"/>
</g>
<!-- Node19 -->
<g id="node19" class="node">
<title>Node19</title>
<g id="a_node19"><a xlink:href="classsystemData.html#ac981cce9f038194aea9f48f57252ca7b" target="_top" xlink:title="Computes the articulation (linear) accelerations of the particles relative to their respective locate...">
<polygon fill="none" stroke="black" points="453,-0.5 453,-30.5 587,-30.5 587,-0.5 453,-0.5"/>
<text text-anchor="start" x="461" y="-18.5" font-family="Helvetica,sans-Serif" font-size="10.00">systemData::accelerations</text>
<text text-anchor="middle" x="520" y="-7.5" font-family="Helvetica,sans-Serif" font-size="10.00">Articulation</text>
</a>
</g>
</g>
<!-- Node18&#45;&gt;Node19 -->
<g id="edge20" class="edge">
<title>Node18&#45;&gt;Node19</title>
<path fill="none" stroke="midnightblue" d="M348.93,-118.79C364.15,-100.76 399.3,-62.03 437,-40.5 440.89,-38.28 444.99,-36.24 449.21,-34.36"/>
<polygon fill="midnightblue" stroke="midnightblue" points="450.66,-37.55 458.58,-30.51 448,-31.07 450.66,-37.55"/>
</g>
<!-- Node20 -->
<g id="node20" class="node">
<title>Node20</title>
<g id="a_node20"><a xlink:href="classsystemData.html#a3c41026c4b66d4f6e6e22a6398c6ced8" target="_top" xlink:title="Computes the gradients rigid body motion connectivity tensors and tensors associated with change of v...">
<polygon fill="none" stroke="black" points="448,-186.5 448,-216.5 592,-216.5 592,-186.5 448,-186.5"/>
<text text-anchor="start" x="456" y="-204.5" font-family="Helvetica,sans-Serif" font-size="10.00">systemData::gradientChange</text>
<text text-anchor="middle" x="520" y="-193.5" font-family="Helvetica,sans-Serif" font-size="10.00">OfVariableTensors</text>
</a>
</g>
</g>
<!-- Node18&#45;&gt;Node20 -->
<g id="edge21" class="edge">
<title>Node18&#45;&gt;Node20</title>
<path fill="none" stroke="midnightblue" d="M357.55,-138.16C376.34,-148.83 408.13,-166.03 437,-177.5 442.08,-179.52 447.4,-181.46 452.79,-183.29"/>
<polygon fill="midnightblue" stroke="midnightblue" points="451.91,-186.69 462.51,-186.48 454.1,-180.04 451.91,-186.69"/>
</g>
<!-- Node23 -->
<g id="node23" class="node">
<title>Node23</title>
<g id="a_node23"><a xlink:href="classsystemData.html#a05afc9e7e7423d88def51ec43ab91a33" target="_top" xlink:title="Computes the rigid body motion connectivity tensors.">
<polygon fill="none" stroke="black" points="447,-137.5 447,-167.5 593,-167.5 593,-137.5 447,-137.5"/>
<text text-anchor="start" x="455" y="-155.5" font-family="Helvetica,sans-Serif" font-size="10.00">systemData::rigidBodyMotion</text>
<text text-anchor="middle" x="520" y="-144.5" font-family="Helvetica,sans-Serif" font-size="10.00">Tensors</text>
</a>
</g>
</g>
<!-- Node18&#45;&gt;Node23 -->
<g id="edge24" class="edge">
<title>Node18&#45;&gt;Node23</title>
<path fill="none" stroke="midnightblue" d="M392.96,-135.51C406.64,-137.35 421.73,-139.38 436.58,-141.39"/>
<polygon fill="midnightblue" stroke="midnightblue" points="436.42,-144.9 446.8,-142.76 437.35,-137.96 436.42,-144.9"/>
</g>
<!-- Node26 -->
<g id="node26" class="node">
<title>Node26</title>
<g id="a_node26"><a xlink:href="classsystemData.html#aaf3a4980d7dc49d7339a828ed95ee4d6" target="_top" xlink:title="Computes the Udwadia constraint matrix and vector to uphold the quaternion unitary norm for each body...">
<polygon fill="none" stroke="black" points="451,-88.5 451,-118.5 589,-118.5 589,-88.5 451,-88.5"/>
<text text-anchor="start" x="459" y="-106.5" font-family="Helvetica,sans-Serif" font-size="10.00">systemData::udwadiaLinear</text>
<text text-anchor="middle" x="520" y="-95.5" font-family="Helvetica,sans-Serif" font-size="10.00">System</text>
</a>
</g>
</g>
<!-- Node18&#45;&gt;Node26 -->
<g id="edge29" class="edge">
<title>Node18&#45;&gt;Node26</title>
<path fill="none" stroke="midnightblue" d="M392.96,-121.2C407.92,-119.1 424.57,-116.76 440.75,-114.49"/>
<polygon fill="midnightblue" stroke="midnightblue" points="441.32,-117.94 450.74,-113.09 440.35,-111.01 441.32,-117.94"/>
</g>
<!-- Node27 -->
<g id="node27" class="node">
<title>Node27</title>
<g id="a_node27"><a xlink:href="classsystemData.html#a6bd16f2dd99236594ce5b12cd2cab57a" target="_top" xlink:title="Computes the articulation (linear) velocities of the particles relative to their respective locater p...">
<polygon fill="none" stroke="black" points="437,-50 437,-69 603,-69 603,-50 437,-50"/>
<text text-anchor="middle" x="520" y="-57" font-family="Helvetica,sans-Serif" font-size="10.00">systemData::velocitiesArticulation</text>
</a>
</g>
</g>
<!-- Node18&#45;&gt;Node27 -->
<g id="edge30" class="edge">
<title>Node18&#45;&gt;Node27</title>
<path fill="none" stroke="midnightblue" d="M356.4,-118.91C374.91,-107.77 407.21,-89.51 437,-78.5 443.96,-75.93 451.38,-73.63 458.81,-71.6"/>
<polygon fill="midnightblue" stroke="midnightblue" points="459.74,-74.97 468.54,-69.08 457.98,-68.2 459.74,-74.97"/>
</g>
<!-- Node21 -->
<g id="node21" class="node">
<title>Node21</title>
<g id="a_node21"><a xlink:href="classsystemData.html#a19a83a255eb6f1de4bcfe2ea8e31ffa9" target="_top" xlink:title="Computes the E matrix of quaternion (4&#45;vector) input.">
<polygon fill="none" stroke="black" points="653.5,-205 653.5,-224 761.5,-224 761.5,-205 653.5,-205"/>
<text text-anchor="middle" x="707.5" y="-212" font-family="Helvetica,sans-Serif" font-size="10.00">systemData::eMatrix</text>
</a>
</g>
</g>
<!-- Node20&#45;&gt;Node21 -->
<g id="edge22" class="edge">
<title>Node20&#45;&gt;Node21</title>
<path fill="none" stroke="midnightblue" d="M592.19,-206.49C609.03,-207.67 626.87,-208.92 643.32,-210.07"/>
<polygon fill="midnightblue" stroke="midnightblue" points="643.15,-213.57 653.37,-210.78 643.64,-206.59 643.15,-213.57"/>
</g>
<!-- Node22 -->
<g id="node22" class="node">
<title>Node22</title>
<g id="a_node22"><a xlink:href="helper__eigenTensorConversion_8hpp.html#a3a32f7de3f099464192073a93b34d580" target="_top" xlink:title="Convert Eigen::Matrix &#45;&#45;&gt; Eigen::Tensor.">
<polygon fill="none" stroke="black" points="674,-167 674,-186 741,-186 741,-167 674,-167"/>
<text text-anchor="middle" x="707.5" y="-174" font-family="Helvetica,sans-Serif" font-size="10.00">TensorCast</text>
</a>
</g>
</g>
<!-- Node20&#45;&gt;Node22 -->
<g id="edge23" class="edge">
<title>Node20&#45;&gt;Node22</title>
<path fill="none" stroke="midnightblue" d="M592.19,-191.91C616.25,-188.66 642.35,-185.14 663.54,-182.29"/>
<polygon fill="midnightblue" stroke="midnightblue" points="664.07,-185.75 673.51,-180.95 663.13,-178.81 664.07,-185.75"/>
</g>
<!-- Node23&#45;&gt;Node21 -->
<g id="edge26" class="edge">
<title>Node23&#45;&gt;Node21</title>
<path fill="none" stroke="midnightblue" d="M575.26,-167.63C584.61,-170.64 594.15,-173.97 603,-177.5 619.61,-184.13 622.32,-189.05 639,-195.5 645.04,-197.83 651.48,-200.02 657.89,-202.01"/>
<polygon fill="midnightblue" stroke="midnightblue" points="657.31,-205.49 667.89,-204.99 659.3,-198.78 657.31,-205.49"/>
</g>
<!-- Node23&#45;&gt;Node22 -->
<g id="edge28" class="edge">
<title>Node23&#45;&gt;Node22</title>
<path fill="none" stroke="midnightblue" d="M593.25,-161.85C617.1,-164.93 642.84,-168.26 663.75,-170.97"/>
<polygon fill="midnightblue" stroke="midnightblue" points="663.54,-174.47 673.91,-172.28 664.44,-167.53 663.54,-174.47"/>
</g>
<!-- Node24 -->
<g id="node24" class="node">
<title>Node24</title>
<g id="a_node24"><a xlink:href="classsystemData.html#a0a77c933b764fb36c64ec5e66011482c" target="_top" xlink:title="Function takes in vector in vector cross&#45;product expression: .">
<polygon fill="none" stroke="black" points="639,-129 639,-148 776,-148 776,-129 639,-129"/>
<text text-anchor="middle" x="707.5" y="-136" font-family="Helvetica,sans-Serif" font-size="10.00">systemData::crossProdMat</text>
</a>
</g>
</g>
<!-- Node23&#45;&gt;Node24 -->
<g id="edge25" class="edge">
<title>Node23&#45;&gt;Node24</title>
<path fill="none" stroke="midnightblue" d="M593.25,-147.05C604.9,-146.17 616.99,-145.26 628.76,-144.37"/>
<polygon fill="midnightblue" stroke="midnightblue" points="629.29,-147.84 639,-143.59 628.76,-140.86 629.29,-147.84"/>
</g>
<!-- Node25 -->
<g id="node25" class="node">
<title>Node25</title>
<g id="a_node25"><a xlink:href="classsystemData.html#a9a8e856d1285735bfb9cbd41ef764345" target="_top" xlink:title=" ">
<polygon fill="none" stroke="black" points="666,-91 666,-110 749,-110 749,-91 666,-91"/>
<text text-anchor="middle" x="707.5" y="-98" font-family="Helvetica,sans-Serif" font-size="10.00">systemData::i3</text>
</a>
</g>
</g>
<!-- Node23&#45;&gt;Node25 -->
<g id="edge27" class="edge">
<title>Node23&#45;&gt;Node25</title>
<path fill="none" stroke="midnightblue" d="M574.65,-137.46C602.64,-129.61 636.45,-120.14 662.82,-112.74"/>
<polygon fill="midnightblue" stroke="midnightblue" points="663.85,-116.09 672.54,-110.02 661.96,-109.35 663.85,-116.09"/>
</g>
</g>
</svg>
