<?xml version="1.0" encoding="UTF-8" standalone="no"?>
<!DOCTYPE svg PUBLIC "-//W3C//DTD SVG 1.1//EN"
 "http://www.w3.org/Graphics/SVG/1.1/DTD/svg11.dtd">
<!-- Generated by graphviz version 2.43.0 (0)
 -->
<!-- Title: TEST_CASE Pages: 1 -->
<svg width="995pt" height="536pt"
 viewBox="0.00 0.00 995.00 536.00" xmlns="http://www.w3.org/2000/svg" xmlns:xlink="http://www.w3.org/1999/xlink">
<g id="graph0" class="graph" transform="scale(1 1) rotate(0) translate(4 532)">
<title>TEST_CASE</title>
<!-- Node1 -->
<g id="node1" class="node">
<title>Node1</title>
<g id="a_node1"><a xlink:title=" ">
<polygon fill="#bfbfbf" stroke="black" points="0,-448.5 0,-467.5 75,-467.5 75,-448.5 0,-448.5"/>
<text text-anchor="middle" x="37.5" y="-455.5" font-family="Helvetica,sans-Serif" font-size="10.00">TEST_CASE</text>
</a>
</g>
</g>
<!-- Node2 -->
<g id="node2" class="node">
<title>Node2</title>
<g id="a_node2"><a xlink:href="classSystemData.html#a9f8ee537e1989aec9c82f3e5b69c3de7" target="_top" xlink:title=" ">
<polygon fill="none" stroke="black" points="114,-467.5 114,-486.5 242,-486.5 242,-467.5 114,-467.5"/>
<text text-anchor="middle" x="178" y="-474.5" font-family="Helvetica,sans-Serif" font-size="10.00">SystemData::gSDParsed</text>
</a>
</g>
</g>
<!-- Node1&#45;&gt;Node2 -->
<g id="edge1" class="edge">
<title>Node1&#45;&gt;Node2</title>
<path fill="none" stroke="midnightblue" d="M75.25,-463.04C84.15,-464.26 93.97,-465.61 103.89,-466.97"/>
<polygon fill="midnightblue" stroke="midnightblue" points="103.44,-470.44 113.83,-468.33 104.39,-463.51 103.44,-470.44"/>
</g>
<!-- Node3 -->
<g id="node3" class="node">
<title>Node3</title>
<g id="a_node3"><a xlink:href="classSystemData.html#ac3a796dc8bf1fa82ea6dec33e548924f" target="_top" xlink:title="Function loads data from GSD file using GSDUtil class.">
<polygon fill="none" stroke="black" points="111,-429.5 111,-448.5 245,-448.5 245,-429.5 111,-429.5"/>
<text text-anchor="middle" x="178" y="-436.5" font-family="Helvetica,sans-Serif" font-size="10.00">SystemData::initializeData</text>
</a>
</g>
</g>
<!-- Node1&#45;&gt;Node3 -->
<g id="edge2" class="edge">
<title>Node1&#45;&gt;Node3</title>
<path fill="none" stroke="midnightblue" d="M75.25,-452.96C83.23,-451.86 91.95,-450.67 100.82,-449.45"/>
<polygon fill="midnightblue" stroke="midnightblue" points="101.45,-452.9 110.88,-448.07 100.49,-445.96 101.45,-452.9"/>
</g>
<!-- Node4 -->
<g id="node4" class="node">
<title>Node4</title>
<g id="a_node4"><a xlink:href="classSystemData.html#a58d7292b7fd9035265eca81d0f088a27" target="_top" xlink:title="Logs private attributes to logfile.">
<polygon fill="none" stroke="black" points="287,-467.5 287,-486.5 398,-486.5 398,-467.5 287,-467.5"/>
<text text-anchor="middle" x="342.5" y="-474.5" font-family="Helvetica,sans-Serif" font-size="10.00">SystemData::logData</text>
</a>
</g>
</g>
<!-- Node3&#45;&gt;Node4 -->
<g id="edge3" class="edge">
<title>Node3&#45;&gt;Node4</title>
<path fill="none" stroke="midnightblue" d="M220.01,-448.59C241.55,-453.63 268.13,-459.84 290.94,-465.18"/>
<polygon fill="midnightblue" stroke="midnightblue" points="290.25,-468.61 300.79,-467.48 291.85,-461.79 290.25,-468.61"/>
</g>
<!-- Node5 -->
<g id="node5" class="node">
<title>Node5</title>
<g id="a_node5"><a xlink:href="classSystemData.html#aa2eb6d7a8870f81a9f4e6484c1f8751c" target="_top" xlink:title="Passes this (SystemData shared pointer instance) into GSDUtil constructor to load data from input GSD...">
<polygon fill="none" stroke="black" points="281,-429.5 281,-448.5 404,-448.5 404,-429.5 281,-429.5"/>
<text text-anchor="middle" x="342.5" y="-436.5" font-family="Helvetica,sans-Serif" font-size="10.00">SystemData::parseGSD</text>
</a>
</g>
</g>
<!-- Node3&#45;&gt;Node5 -->
<g id="edge4" class="edge">
<title>Node3&#45;&gt;Node5</title>
<path fill="none" stroke="midnightblue" d="M245.09,-439C253.53,-439 262.19,-439 270.69,-439"/>
<polygon fill="midnightblue" stroke="midnightblue" points="270.96,-442.5 280.96,-439 270.96,-435.5 270.96,-442.5"/>
</g>
<!-- Node7 -->
<g id="node7" class="node">
<title>Node7</title>
<g id="a_node7"><a xlink:href="classSystemData.html#a96d6dfb7bdb78d98fbbdac1f421c838c" target="_top" xlink:title="Updates all relevant rigid body motion tensors, respective gradients, and kinematic/Udwadia constrain...">
<polygon fill="none" stroke="black" points="289,-313.5 289,-332.5 396,-332.5 396,-313.5 289,-313.5"/>
<text text-anchor="middle" x="342.5" y="-320.5" font-family="Helvetica,sans-Serif" font-size="10.00">SystemData::update</text>
</a>
</g>
</g>
<!-- Node3&#45;&gt;Node7 -->
<g id="edge6" class="edge">
<title>Node3&#45;&gt;Node7</title>
<path fill="none" stroke="midnightblue" d="M192.58,-429.31C220.72,-409.22 285.66,-362.86 319.73,-338.54"/>
<polygon fill="midnightblue" stroke="midnightblue" points="321.97,-341.24 328.08,-332.58 317.91,-335.54 321.97,-341.24"/>
</g>
<!-- Node6 -->
<g id="node6" class="node">
<title>Node6</title>
<g id="a_node6"><a xlink:href="classSystemData.html#a534384a0e92c8a0ffbcec636afbdf65e" target="_top" xlink:title="Various assertions to check data loaded from GSD is at least physical.">
<polygon fill="none" stroke="black" points="461,-508.5 461,-527.5 586,-527.5 586,-508.5 461,-508.5"/>
<text text-anchor="middle" x="523.5" y="-515.5" font-family="Helvetica,sans-Serif" font-size="10.00">SystemData::checkInput</text>
</a>
</g>
</g>
<!-- Node5&#45;&gt;Node6 -->
<g id="edge5" class="edge">
<title>Node5&#45;&gt;Node6</title>
<path fill="none" stroke="midnightblue" d="M384.58,-448.54C391.36,-451.04 398.1,-454.15 404,-458 424.32,-471.23 419.18,-486.57 440,-499 443.69,-501.2 447.62,-503.15 451.67,-504.87"/>
<polygon fill="midnightblue" stroke="midnightblue" points="450.74,-508.26 461.33,-508.5 453.2,-501.71 450.74,-508.26"/>
</g>
<!-- Node8 -->
<g id="node8" class="node">
<title>Node8</title>
<g id="a_node8"><a xlink:href="classSystemData.html#a188c38c8448ed32d3cf697b6f07b9d6a" target="_top" xlink:title="Computes the articulation (linear) accelerations of the particles relative to their respective locate...">
<polygon fill="none" stroke="black" points="456,-333 456,-363 591,-363 591,-333 456,-333"/>
<text text-anchor="start" x="464" y="-351" font-family="Helvetica,sans-Serif" font-size="10.00">SystemData::accelerations</text>
<text text-anchor="middle" x="523.5" y="-340" font-family="Helvetica,sans-Serif" font-size="10.00">Articulation</text>
</a>
</g>
</g>
<!-- Node7&#45;&gt;Node8 -->
<g id="edge7" class="edge">
<title>Node7&#45;&gt;Node8</title>
<path fill="none" stroke="midnightblue" d="M396.24,-330.37C411.7,-332.52 428.92,-334.93 445.56,-337.25"/>
<polygon fill="midnightblue" stroke="midnightblue" points="445.44,-340.77 455.82,-338.69 446.4,-333.84 445.44,-340.77"/>
</g>
<!-- Node9 -->
<g id="node9" class="node">
<title>Node9</title>
<g id="a_node9"><a xlink:href="classSystemData.html#a000a3e77f12b4c1bc9678e9ede202f83" target="_top" xlink:title="Computes the orientation (unit vector) of a particle with respect to its locater point.">
<polygon fill="none" stroke="black" points="455,-284 455,-314 592,-314 592,-284 455,-284"/>
<text text-anchor="start" x="463" y="-302" font-family="Helvetica,sans-Serif" font-size="10.00">SystemData::convertBody2</text>
<text text-anchor="middle" x="523.5" y="-291" font-family="Helvetica,sans-Serif" font-size="10.00">ParticleOrient</text>
</a>
</g>
</g>
<!-- Node7&#45;&gt;Node9 -->
<g id="edge8" class="edge">
<title>Node7&#45;&gt;Node9</title>
<path fill="none" stroke="midnightblue" d="M396.24,-315.93C411.44,-313.89 428.35,-311.62 444.73,-309.43"/>
<polygon fill="midnightblue" stroke="midnightblue" points="445.4,-312.87 454.84,-308.07 444.47,-305.93 445.4,-312.87"/>
</g>
<!-- Node12 -->
<g id="node12" class="node">
<title>Node12</title>
<g id="a_node12"><a xlink:href="classSystemData.html#a3edab27c866d9031739a8bd3b09bac42" target="_top" xlink:title="Computes the positions of all particles from given locater positions and body orientations.">
<polygon fill="none" stroke="black" points="455,-235 455,-265 592,-265 592,-235 455,-235"/>
<text text-anchor="start" x="463" y="-253" font-family="Helvetica,sans-Serif" font-size="10.00">SystemData::convertBody2</text>
<text text-anchor="middle" x="523.5" y="-242" font-family="Helvetica,sans-Serif" font-size="10.00">ParticlePos</text>
</a>
</g>
</g>
<!-- Node7&#45;&gt;Node12 -->
<g id="edge11" class="edge">
<title>Node7&#45;&gt;Node12</title>
<path fill="none" stroke="midnightblue" d="M360.53,-313.43C379.51,-303.04 411.3,-286.39 440,-275 445.84,-272.68 451.99,-270.45 458.18,-268.34"/>
<polygon fill="midnightblue" stroke="midnightblue" points="459.51,-271.59 467.91,-265.13 457.32,-264.94 459.51,-271.59"/>
</g>
<!-- Node13 -->
<g id="node13" class="node">
<title>Node13</title>
<g id="a_node13"><a xlink:href="classSystemData.html#aa3a9fae706cf141ed66c05736656fdba" target="_top" xlink:title="Computes the particle D.o.F. from the body D.o.F.">
<polygon fill="none" stroke="black" points="455,-186 455,-216 592,-216 592,-186 455,-186"/>
<text text-anchor="start" x="463" y="-204" font-family="Helvetica,sans-Serif" font-size="10.00">SystemData::convertBody2</text>
<text text-anchor="middle" x="523.5" y="-193" font-family="Helvetica,sans-Serif" font-size="10.00">ParticleVelAcc</text>
</a>
</g>
</g>
<!-- Node7&#45;&gt;Node13 -->
<g id="edge12" class="edge">
<title>Node7&#45;&gt;Node13</title>
<path fill="none" stroke="midnightblue" d="M350.34,-313.46C364.73,-294.1 400.09,-249.98 440,-226 443.61,-223.83 447.42,-221.84 451.34,-220.01"/>
<polygon fill="midnightblue" stroke="midnightblue" points="452.85,-223.17 460.67,-216.02 450.1,-216.73 452.85,-223.17"/>
</g>
<!-- Node17 -->
<g id="node17" class="node">
<title>Node17</title>
<g id="a_node17"><a xlink:href="classSystemData.html#a0aa3296e765575ba6397b5f71bf892a8" target="_top" xlink:title="Computes the gradients rigid body motion connectivity tensors and tensors associated with change of v...">
<polygon fill="none" stroke="black" points="450.5,-129 450.5,-159 596.5,-159 596.5,-129 450.5,-129"/>
<text text-anchor="start" x="458.5" y="-147" font-family="Helvetica,sans-Serif" font-size="10.00">SystemData::gradientChange</text>
<text text-anchor="middle" x="523.5" y="-136" font-family="Helvetica,sans-Serif" font-size="10.00">OfVariableTensors</text>
</a>
</g>
</g>
<!-- Node7&#45;&gt;Node17 -->
<g id="edge16" class="edge">
<title>Node7&#45;&gt;Node17</title>
<path fill="none" stroke="midnightblue" d="M347.39,-313.37C358.24,-287.67 391.24,-216.72 440,-177 446.53,-171.68 454.03,-167.12 461.79,-163.25"/>
<polygon fill="midnightblue" stroke="midnightblue" points="463.36,-166.38 470.98,-159.02 460.43,-160.03 463.36,-166.38"/>
</g>
<!-- Node21 -->
<g id="node21" class="node">
<title>Node21</title>
<g id="a_node21"><a xlink:href="classSystemData.html#a30df4f73d78f6886da32559eda83595d" target="_top" xlink:title="Computes the articulation (linear) positions of the particles relative to their respective locater po...">
<polygon fill="none" stroke="black" points="441,-470.5 441,-489.5 606,-489.5 606,-470.5 441,-470.5"/>
<text text-anchor="middle" x="523.5" y="-477.5" font-family="Helvetica,sans-Serif" font-size="10.00">SystemData::positionsArticulation</text>
</a>
</g>
</g>
<!-- Node7&#45;&gt;Node21 -->
<g id="edge22" class="edge">
<title>Node7&#45;&gt;Node21</title>
<path fill="none" stroke="midnightblue" d="M349.03,-332.69C365.45,-361.19 414.43,-443.75 440,-461 442.95,-462.99 446.09,-464.78 449.34,-466.38"/>
<polygon fill="midnightblue" stroke="midnightblue" points="448.2,-469.7 458.77,-470.41 450.95,-463.26 448.2,-469.7"/>
</g>
<!-- Node22 -->
<g id="node22" class="node">
<title>Node22</title>
<g id="a_node22"><a xlink:href="classSystemData.html#a48585dcdee2612bc4ee815bb599c1679" target="_top" xlink:title="Computes the rigid body motion connectivity tensors.">
<polygon fill="none" stroke="black" points="450,-33 450,-63 597,-63 597,-33 450,-33"/>
<text text-anchor="start" x="458" y="-51" font-family="Helvetica,sans-Serif" font-size="10.00">SystemData::rigidBodyMotion</text>
<text text-anchor="middle" x="523.5" y="-40" font-family="Helvetica,sans-Serif" font-size="10.00">Tensors</text>
</a>
</g>
</g>
<!-- Node7&#45;&gt;Node22 -->
<g id="edge23" class="edge">
<title>Node7&#45;&gt;Node22</title>
<path fill="none" stroke="midnightblue" d="M346.5,-313.35C356.33,-282.79 389.8,-186.24 440,-120 454.8,-100.47 475.61,-82.35 492.63,-69.18"/>
<polygon fill="midnightblue" stroke="midnightblue" points="494.77,-71.94 500.64,-63.12 490.55,-66.36 494.77,-71.94"/>
</g>
<!-- Node25 -->
<g id="node25" class="node">
<title>Node25</title>
<g id="a_node25"><a xlink:href="classSystemData.html#ad1a6489951a00124901c1947381a9be8" target="_top" xlink:title="Computes the Udwadia constraint matrix and vector to uphold the quaternion unitary norm for each body...">
<polygon fill="none" stroke="black" points="453.5,-421 453.5,-451 593.5,-451 593.5,-421 453.5,-421"/>
<text text-anchor="start" x="461.5" y="-439" font-family="Helvetica,sans-Serif" font-size="10.00">SystemData::udwadiaLinear</text>
<text text-anchor="middle" x="523.5" y="-428" font-family="Helvetica,sans-Serif" font-size="10.00">System</text>
</a>
</g>
</g>
<!-- Node7&#45;&gt;Node25 -->
<g id="edge28" class="edge">
<title>Node7&#45;&gt;Node25</title>
<path fill="none" stroke="midnightblue" d="M351.48,-332.72C366.79,-350.75 402.15,-389.49 440,-411 443.73,-413.12 447.66,-415.08 451.7,-416.89"/>
<polygon fill="midnightblue" stroke="midnightblue" points="450.7,-420.26 461.28,-420.84 453.37,-413.79 450.7,-420.26"/>
</g>
<!-- Node26 -->
<g id="node26" class="node">
<title>Node26</title>
<g id="a_node26"><a xlink:href="classSystemData.html#a92ce50a4c8b53aa6a490153c1b09ab8a" target="_top" xlink:title="Computes the articulation (linear) velocities of the particles relative to their respective locater p...">
<polygon fill="none" stroke="black" points="440,-382.5 440,-401.5 607,-401.5 607,-382.5 440,-382.5"/>
<text text-anchor="middle" x="523.5" y="-389.5" font-family="Helvetica,sans-Serif" font-size="10.00">SystemData::velocitiesArticulation</text>
</a>
</g>
</g>
<!-- Node7&#45;&gt;Node26 -->
<g id="edge29" class="edge">
<title>Node7&#45;&gt;Node26</title>
<path fill="none" stroke="midnightblue" d="M358.99,-332.59C377.6,-343.73 410.07,-362 440,-373 447,-375.57 454.47,-377.87 461.95,-379.91"/>
<polygon fill="midnightblue" stroke="midnightblue" points="461.18,-383.32 471.74,-382.43 462.93,-376.55 461.18,-383.32"/>
</g>
<!-- Node10 -->
<g id="node10" class="node">
<title>Node10</title>
<g id="a_node10"><a xlink:href="helper__math_8h.html#ae4378072f9d836b0d4770a1514db2be3" target="_top" xlink:title=" ">
<polygon fill="none" stroke="black" points="712,-289.5 712,-308.5 744,-308.5 744,-289.5 712,-289.5"/>
<text text-anchor="middle" x="728" y="-296.5" font-family="Helvetica,sans-Serif" font-size="10.00">abs</text>
</a>
</g>
</g>
<!-- Node9&#45;&gt;Node10 -->
<g id="edge9" class="edge">
<title>Node9&#45;&gt;Node10</title>
<path fill="none" stroke="midnightblue" d="M592.21,-299C629.8,-299 674.35,-299 701.64,-299"/>
<polygon fill="midnightblue" stroke="midnightblue" points="701.87,-302.5 711.87,-299 701.87,-295.5 701.87,-302.5"/>
</g>
<!-- Node11 -->
<g id="node11" class="node">
<title>Node11</title>
<g id="a_node11"><a xlink:href="helper__math_8h.html#a3be05aff487ded3c05aab21d24dd6439" target="_top" xlink:title=" ">
<polygon fill="none" stroke="black" points="887,-289.5 887,-308.5 949,-308.5 949,-289.5 887,-289.5"/>
<text text-anchor="middle" x="918" y="-296.5" font-family="Helvetica,sans-Serif" font-size="10.00">make_int2</text>
</a>
</g>
</g>
<!-- Node10&#45;&gt;Node11 -->
<g id="edge10" class="edge">
<title>Node10&#45;&gt;Node11</title>
<path fill="none" stroke="midnightblue" d="M744.07,-299C772.58,-299 835.3,-299 876.84,-299"/>
<polygon fill="midnightblue" stroke="midnightblue" points="876.92,-302.5 886.92,-299 876.92,-295.5 876.92,-302.5"/>
</g>
<!-- Node14 -->
<g id="node14" class="node">
<title>Node14</title>
<g id="a_node14"><a xlink:href="helper__eigenTensorConversion_8hpp.html#a556d08b55a6ad7cd703b6db06194e5cf" target="_top" xlink:title=" ">
<polygon fill="none" stroke="black" points="695.5,-240.5 695.5,-259.5 760.5,-259.5 760.5,-240.5 695.5,-240.5"/>
<text text-anchor="middle" x="728" y="-247.5" font-family="Helvetica,sans-Serif" font-size="10.00">MatrixCast</text>
</a>
</g>
</g>
<!-- Node13&#45;&gt;Node14 -->
<g id="edge13" class="edge">
<title>Node13&#45;&gt;Node14</title>
<path fill="none" stroke="midnightblue" d="M586.63,-216.03C618.63,-223.78 656.78,-233.01 685.23,-239.89"/>
<polygon fill="midnightblue" stroke="midnightblue" points="684.7,-243.37 695.24,-242.32 686.35,-236.56 684.7,-243.37"/>
</g>
<!-- Node16 -->
<g id="node16" class="node">
<title>Node16</title>
<g id="a_node16"><a xlink:href="helper__eigenTensorConversion_8hpp.html#a3a32f7de3f099464192073a93b34d580" target="_top" xlink:title="Convert Eigen::Matrix &#45;&#45;&gt; Eigen::Tensor.">
<polygon fill="none" stroke="black" points="884.5,-102.5 884.5,-121.5 951.5,-121.5 951.5,-102.5 884.5,-102.5"/>
<text text-anchor="middle" x="918" y="-109.5" font-family="Helvetica,sans-Serif" font-size="10.00">TensorCast</text>
</a>
</g>
</g>
<!-- Node13&#45;&gt;Node16 -->
<g id="edge15" class="edge">
<title>Node13&#45;&gt;Node16</title>
<path fill="none" stroke="midnightblue" d="M592.04,-202.58C651.6,-202.08 740,-196.67 813,-173 844.39,-162.82 876.57,-142.04 896.65,-127.58"/>
<polygon fill="midnightblue" stroke="midnightblue" points="898.75,-130.38 904.73,-121.63 894.6,-124.74 898.75,-130.38"/>
</g>
<!-- Node15 -->
<g id="node15" class="node">
<title>Node15</title>
<g id="a_node15"><a xlink:href="helper__eigenTensorConversion_8hpp.html#a2a7eca6b17fb874869047bd0b5f11b46" target="_top" xlink:title=" ">
<polygon fill="none" stroke="black" points="894.5,-240.5 894.5,-259.5 941.5,-259.5 941.5,-240.5 894.5,-240.5"/>
<text text-anchor="middle" x="918" y="-247.5" font-family="Helvetica,sans-Serif" font-size="10.00">asEval</text>
</a>
</g>
</g>
<!-- Node14&#45;&gt;Node15 -->
<g id="edge14" class="edge">
<title>Node14&#45;&gt;Node15</title>
<path fill="none" stroke="midnightblue" d="M760.89,-250C795.26,-250 849.68,-250 884.34,-250"/>
<polygon fill="midnightblue" stroke="midnightblue" points="884.42,-253.5 894.42,-250 884.42,-246.5 884.42,-253.5"/>
</g>
<!-- Node17&#45;&gt;Node16 -->
<g id="edge21" class="edge">
<title>Node17&#45;&gt;Node16</title>
<path fill="none" stroke="midnightblue" d="M596.66,-155.97C655.47,-163.53 740.36,-169.42 813,-155 840.63,-149.51 870.12,-136.57 890.62,-126.31"/>
<polygon fill="midnightblue" stroke="midnightblue" points="892.34,-129.36 899.63,-121.67 889.14,-123.13 892.34,-129.36"/>
</g>
<!-- Node18 -->
<g id="node18" class="node">
<title>Node18</title>
<g id="a_node18"><a xlink:href="classSystemData.html#a230548cc624444a66137b8d5ecaf5716" target="_top" xlink:title="Computes \chi_{i \alpha} matrix for given particle number and body number. chi matrix represents the ...">
<polygon fill="none" stroke="black" points="651.5,-126.5 651.5,-145.5 804.5,-145.5 804.5,-126.5 651.5,-126.5"/>
<text text-anchor="middle" x="728" y="-133.5" font-family="Helvetica,sans-Serif" font-size="10.00">SystemData::chiMatrixElement</text>
</a>
</g>
</g>
<!-- Node17&#45;&gt;Node18 -->
<g id="edge17" class="edge">
<title>Node17&#45;&gt;Node18</title>
<path fill="none" stroke="midnightblue" d="M596.75,-141.15C611.15,-140.58 626.4,-139.97 641.2,-139.39"/>
<polygon fill="midnightblue" stroke="midnightblue" points="641.5,-142.88 651.36,-138.99 641.23,-135.89 641.5,-142.88"/>
</g>
<!-- Node19 -->
<g id="node19" class="node">
<title>Node19</title>
<g id="a_node19"><a xlink:href="classSystemData.html#a95b4afa16b44bb89aac9e8ef9e64845b" target="_top" xlink:title="Computes \nabla_{\xi} \Sigma_{i \alpha} tensor for given particle number and body number.">
<polygon fill="none" stroke="black" points="643,-77 643,-107 813,-107 813,-77 643,-77"/>
<text text-anchor="start" x="651" y="-95" font-family="Helvetica,sans-Serif" font-size="10.00">SystemData::gradRbmConnTensor</text>
<text text-anchor="middle" x="728" y="-84" font-family="Helvetica,sans-Serif" font-size="10.00">Element</text>
</a>
</g>
</g>
<!-- Node17&#45;&gt;Node19 -->
<g id="edge18" class="edge">
<title>Node17&#45;&gt;Node19</title>
<path fill="none" stroke="midnightblue" d="M583.07,-128.96C606.68,-122.9 634.09,-115.86 658.61,-109.56"/>
<polygon fill="midnightblue" stroke="midnightblue" points="659.75,-112.88 668.56,-107.01 658,-106.1 659.75,-112.88"/>
</g>
<!-- Node19&#45;&gt;Node16 -->
<g id="edge20" class="edge">
<title>Node19&#45;&gt;Node16</title>
<path fill="none" stroke="midnightblue" d="M813.1,-100.95C834.29,-103.2 856.15,-105.53 874.32,-107.46"/>
<polygon fill="midnightblue" stroke="midnightblue" points="873.97,-110.94 884.28,-108.52 874.71,-103.98 873.97,-110.94"/>
</g>
<!-- Node20 -->
<g id="node20" class="node">
<title>Node20</title>
<g id="a_node20"><a xlink:href="classSystemData.html#a7cefde66d9e18e2517f11505dd434d0e" target="_top" xlink:title="Function takes in vector in vector cross&#45;product expression: .">
<polygon fill="none" stroke="black" points="849,-61.5 849,-80.5 987,-80.5 987,-61.5 849,-61.5"/>
<text text-anchor="middle" x="918" y="-68.5" font-family="Helvetica,sans-Serif" font-size="10.00">SystemData::crossProdMat</text>
</a>
</g>
</g>
<!-- Node19&#45;&gt;Node20 -->
<g id="edge19" class="edge">
<title>Node19&#45;&gt;Node20</title>
<path fill="none" stroke="midnightblue" d="M813.1,-82.61C821.58,-81.66 830.17,-80.7 838.59,-79.76"/>
<polygon fill="midnightblue" stroke="midnightblue" points="839.2,-83.21 848.75,-78.62 838.42,-76.26 839.2,-83.21"/>
</g>
<!-- Node22&#45;&gt;Node16 -->
<g id="edge27" class="edge">
<title>Node22&#45;&gt;Node16</title>
<path fill="none" stroke="midnightblue" d="M597.12,-43.62C656.56,-42.25 742.09,-45.37 813,-68 830.86,-73.7 831.96,-82.17 849,-90 857.11,-93.73 866.03,-97.1 874.67,-100.01"/>
<polygon fill="midnightblue" stroke="midnightblue" points="873.65,-103.36 884.24,-103.11 875.8,-96.7 873.65,-103.36"/>
</g>
<!-- Node23 -->
<g id="node23" class="node">
<title>Node23</title>
<g id="a_node23"><a xlink:href="classSystemData.html#a70d2ff9a6173fcd9f30e8dc6324e8414" target="_top" xlink:title="Computes \Sigma_{i \alpha} matrix for given particle number and body number. Sigma matrix represents ...">
<polygon fill="none" stroke="black" points="649.5,-0.5 649.5,-19.5 806.5,-19.5 806.5,-0.5 649.5,-0.5"/>
<text text-anchor="middle" x="728" y="-7.5" font-family="Helvetica,sans-Serif" font-size="10.00">SystemData::rbmMatrixElement</text>
</a>
</g>
</g>
<!-- Node22&#45;&gt;Node23 -->
<g id="edge24" class="edge">
<title>Node22&#45;&gt;Node23</title>
<path fill="none" stroke="midnightblue" d="M597.04,-34.39C619.67,-30.14 644.38,-25.5 666.13,-21.42"/>
<polygon fill="midnightblue" stroke="midnightblue" points="667.04,-24.81 676.22,-19.53 665.74,-17.93 667.04,-24.81"/>
</g>
<!-- Node23&#45;&gt;Node20 -->
<g id="edge25" class="edge">
<title>Node23&#45;&gt;Node20</title>
<path fill="none" stroke="midnightblue" d="M764.3,-19.55C779.37,-23.76 797.11,-28.91 813,-34 836.11,-41.4 861.8,-50.53 881.86,-57.87"/>
<polygon fill="midnightblue" stroke="midnightblue" points="880.92,-61.25 891.51,-61.42 883.33,-54.68 880.92,-61.25"/>
</g>
<!-- Node24 -->
<g id="node24" class="node">
<title>Node24</title>
<g id="a_node24"><a xlink:href="classSystemData.html#ad58491f39fe352229da5494878b88911" target="_top" xlink:title="Computes the E matrix of quaternion (4&#45;vector) input.">
<polygon fill="none" stroke="black" points="863,-0.5 863,-19.5 973,-19.5 973,-0.5 863,-0.5"/>
<text text-anchor="middle" x="918" y="-7.5" font-family="Helvetica,sans-Serif" font-size="10.00">SystemData::eMatrix</text>
</a>
</g>
</g>
<!-- Node23&#45;&gt;Node24 -->
<g id="edge26" class="edge">
<title>Node23&#45;&gt;Node24</title>
<path fill="none" stroke="midnightblue" d="M806.55,-10C821.92,-10 837.89,-10 852.76,-10"/>
<polygon fill="midnightblue" stroke="midnightblue" points="852.85,-13.5 862.85,-10 852.85,-6.5 852.85,-13.5"/>
</g>
</g>
</svg>
