<?xml version="1.0" encoding="UTF-8" standalone="no"?>
<!DOCTYPE svg PUBLIC "-//W3C//DTD SVG 1.1//EN"
 "http://www.w3.org/Graphics/SVG/1.1/DTD/svg11.dtd">
<!-- Generated by graphviz version 2.43.0 (0)
 -->
<!-- Title: TEST_CASE Pages: 1 -->
<svg width="982pt" height="449pt"
 viewBox="0.00 0.00 982.00 449.00" xmlns="http://www.w3.org/2000/svg" xmlns:xlink="http://www.w3.org/1999/xlink">
<g id="graph0" class="graph" transform="scale(1 1) rotate(0) translate(4 445)">
<title>TEST_CASE</title>
<!-- Node1 -->
<g id="node1" class="node">
<title>Node1</title>
<g id="a_node1"><a xlink:title=" ">
<polygon fill="#bfbfbf" stroke="black" points="0,-205.5 0,-224.5 75,-224.5 75,-205.5 0,-205.5"/>
<text text-anchor="middle" x="37.5" y="-212.5" font-family="Helvetica,sans-Serif" font-size="10.00">TEST_CASE</text>
</a>
</g>
</g>
<!-- Node2 -->
<g id="node2" class="node">
<title>Node2</title>
<g id="a_node2"><a xlink:href="classSystemData.html#ac3a796dc8bf1fa82ea6dec33e548924f" target="_top" xlink:title="Function loads data from GSD file using GSDUtil class.">
<polygon fill="none" stroke="black" points="111,-233.5 111,-252.5 245,-252.5 245,-233.5 111,-233.5"/>
<text text-anchor="middle" x="178" y="-240.5" font-family="Helvetica,sans-Serif" font-size="10.00">SystemData::initializeData</text>
</a>
</g>
</g>
<!-- Node1&#45;&gt;Node2 -->
<g id="edge1" class="edge">
<title>Node1&#45;&gt;Node2</title>
<path fill="none" stroke="midnightblue" d="M75.25,-222.43C88.86,-225.18 104.63,-228.37 119.64,-231.4"/>
<polygon fill="midnightblue" stroke="midnightblue" points="119.38,-234.92 129.87,-233.47 120.76,-228.06 119.38,-234.92"/>
</g>
<!-- Node27 -->
<g id="node27" class="node">
<title>Node27</title>
<g id="a_node27"><a xlink:href="classEngine.html#a1a210cf30d6bd330b3649439ecd6d6cc" target="_top" xlink:title="Runs the simulation from &#160;to .">
<polygon fill="none" stroke="black" points="145,-186.5 145,-205.5 211,-205.5 211,-186.5 145,-186.5"/>
<text text-anchor="middle" x="178" y="-193.5" font-family="Helvetica,sans-Serif" font-size="10.00">Engine::run</text>
</a>
</g>
</g>
<!-- Node1&#45;&gt;Node27 -->
<g id="edge30" class="edge">
<title>Node1&#45;&gt;Node27</title>
<path fill="none" stroke="midnightblue" d="M75.25,-209.96C93.51,-207.45 115.66,-204.41 134.63,-201.81"/>
<polygon fill="midnightblue" stroke="midnightblue" points="135.37,-205.24 144.8,-200.42 134.41,-198.31 135.37,-205.24"/>
</g>
<!-- Node3 -->
<g id="node3" class="node">
<title>Node3</title>
<g id="a_node3"><a xlink:href="classSystemData.html#a58d7292b7fd9035265eca81d0f088a27" target="_top" xlink:title="Logs private attributes to logfile.">
<polygon fill="none" stroke="black" points="287,-281.5 287,-300.5 398,-300.5 398,-281.5 287,-281.5"/>
<text text-anchor="middle" x="342.5" y="-288.5" font-family="Helvetica,sans-Serif" font-size="10.00">SystemData::logData</text>
</a>
</g>
</g>
<!-- Node2&#45;&gt;Node3 -->
<g id="edge2" class="edge">
<title>Node2&#45;&gt;Node3</title>
<path fill="none" stroke="midnightblue" d="M211.49,-252.6C236.74,-260.05 271.94,-270.45 299.35,-278.55"/>
<polygon fill="midnightblue" stroke="midnightblue" points="298.48,-281.94 309.06,-281.42 300.46,-275.23 298.48,-281.94"/>
</g>
<!-- Node4 -->
<g id="node4" class="node">
<title>Node4</title>
<g id="a_node4"><a xlink:href="classSystemData.html#aa2eb6d7a8870f81a9f4e6484c1f8751c" target="_top" xlink:title="Passes this (SystemData shared pointer instance) into GSDUtil constructor to load data from input GSD...">
<polygon fill="none" stroke="black" points="281,-243.5 281,-262.5 404,-262.5 404,-243.5 281,-243.5"/>
<text text-anchor="middle" x="342.5" y="-250.5" font-family="Helvetica,sans-Serif" font-size="10.00">SystemData::parseGSD</text>
</a>
</g>
</g>
<!-- Node2&#45;&gt;Node4 -->
<g id="edge3" class="edge">
<title>Node2&#45;&gt;Node4</title>
<path fill="none" stroke="midnightblue" d="M245.09,-247.07C253.62,-247.59 262.38,-248.13 270.97,-248.66"/>
<polygon fill="midnightblue" stroke="midnightblue" points="270.77,-252.15 280.96,-249.27 271.2,-245.17 270.77,-252.15"/>
</g>
<!-- Node6 -->
<g id="node6" class="node">
<title>Node6</title>
<g id="a_node6"><a xlink:href="classSystemData.html#aa1dc8988cbb137f2667af95ca52a709c" target="_top" xlink:title="Updates all relevant rigid body motion tensors, respective gradients, and kinematic/Udwadia constrain...">
<polygon fill="none" stroke="black" points="289,-205.5 289,-224.5 396,-224.5 396,-205.5 289,-205.5"/>
<text text-anchor="middle" x="342.5" y="-212.5" font-family="Helvetica,sans-Serif" font-size="10.00">SystemData::update</text>
</a>
</g>
</g>
<!-- Node2&#45;&gt;Node6 -->
<g id="edge5" class="edge">
<title>Node2&#45;&gt;Node6</title>
<path fill="none" stroke="midnightblue" d="M234.47,-233.44C248.74,-230.98 264.19,-228.32 278.8,-225.8"/>
<polygon fill="midnightblue" stroke="midnightblue" points="279.49,-229.24 288.75,-224.09 278.3,-222.34 279.49,-229.24"/>
</g>
<!-- Node5 -->
<g id="node5" class="node">
<title>Node5</title>
<g id="a_node5"><a xlink:href="classSystemData.html#a534384a0e92c8a0ffbcec636afbdf65e" target="_top" xlink:title="Various assertions to check data loaded from GSD is at least physical.">
<polygon fill="none" stroke="black" points="461,-421.5 461,-440.5 586,-440.5 586,-421.5 461,-421.5"/>
<text text-anchor="middle" x="523.5" y="-428.5" font-family="Helvetica,sans-Serif" font-size="10.00">SystemData::checkInput</text>
</a>
</g>
</g>
<!-- Node4&#45;&gt;Node5 -->
<g id="edge4" class="edge">
<title>Node4&#45;&gt;Node5</title>
<path fill="none" stroke="midnightblue" d="M390.91,-262.51C395.77,-264.98 400.28,-268.09 404,-272 447.96,-318.26 394.52,-366.23 440,-411 443.49,-414.44 447.47,-417.32 451.74,-419.73"/>
<polygon fill="midnightblue" stroke="midnightblue" points="450.35,-422.94 460.88,-424.05 453.34,-416.62 450.35,-422.94"/>
</g>
<!-- Node7 -->
<g id="node7" class="node">
<title>Node7</title>
<g id="a_node7"><a xlink:href="classSystemData.html#a188c38c8448ed32d3cf697b6f07b9d6a" target="_top" xlink:title="Computes the articulation (linear) accelerations of the particles relative to their respective locate...">
<polygon fill="none" stroke="black" points="456,-372 456,-402 591,-402 591,-372 456,-372"/>
<text text-anchor="start" x="464" y="-390" font-family="Helvetica,sans-Serif" font-size="10.00">SystemData::accelerations</text>
<text text-anchor="middle" x="523.5" y="-379" font-family="Helvetica,sans-Serif" font-size="10.00">Articulation</text>
</a>
</g>
</g>
<!-- Node6&#45;&gt;Node7 -->
<g id="edge6" class="edge">
<title>Node6&#45;&gt;Node7</title>
<path fill="none" stroke="midnightblue" d="M390.83,-224.58C395.71,-227.04 400.24,-230.13 404,-234 445.15,-276.41 398.63,-319.8 440,-362 442.16,-364.2 444.51,-366.22 447,-368.05"/>
<polygon fill="midnightblue" stroke="midnightblue" points="445.62,-371.32 455.96,-373.64 449.32,-365.38 445.62,-371.32"/>
</g>
<!-- Node8 -->
<g id="node8" class="node">
<title>Node8</title>
<g id="a_node8"><a xlink:href="classSystemData.html#a000a3e77f12b4c1bc9678e9ede202f83" target="_top" xlink:title="Computes the orientation (unit vector) of a particle with respect to its locater point.">
<polygon fill="none" stroke="black" points="455,-323 455,-353 592,-353 592,-323 455,-323"/>
<text text-anchor="start" x="463" y="-341" font-family="Helvetica,sans-Serif" font-size="10.00">SystemData::convertBody2</text>
<text text-anchor="middle" x="523.5" y="-330" font-family="Helvetica,sans-Serif" font-size="10.00">ParticleOrient</text>
</a>
</g>
</g>
<!-- Node6&#45;&gt;Node8 -->
<g id="edge7" class="edge">
<title>Node6&#45;&gt;Node8</title>
<path fill="none" stroke="midnightblue" d="M389.05,-224.61C394.47,-227.06 399.63,-230.14 404,-234 432.91,-259.55 410.96,-287.59 440,-313 441.78,-314.56 443.66,-316.03 445.62,-317.4"/>
<polygon fill="midnightblue" stroke="midnightblue" points="444.26,-320.67 454.63,-322.85 447.89,-314.68 444.26,-320.67"/>
</g>
<!-- Node11 -->
<g id="node11" class="node">
<title>Node11</title>
<g id="a_node11"><a xlink:href="classSystemData.html#a3edab27c866d9031739a8bd3b09bac42" target="_top" xlink:title="Computes the positions of all particles from given locater positions and body orientations.">
<polygon fill="none" stroke="black" points="455,-274 455,-304 592,-304 592,-274 455,-274"/>
<text text-anchor="start" x="463" y="-292" font-family="Helvetica,sans-Serif" font-size="10.00">SystemData::convertBody2</text>
<text text-anchor="middle" x="523.5" y="-281" font-family="Helvetica,sans-Serif" font-size="10.00">ParticlePos</text>
</a>
</g>
</g>
<!-- Node6&#45;&gt;Node11 -->
<g id="edge10" class="edge">
<title>Node6&#45;&gt;Node11</title>
<path fill="none" stroke="midnightblue" d="M381.87,-224.56C389.43,-227.13 397.14,-230.26 404,-234 422.28,-243.98 421.67,-254.12 440,-264 444.15,-266.24 448.52,-268.3 453,-270.2"/>
<polygon fill="midnightblue" stroke="midnightblue" points="451.73,-273.46 462.31,-273.87 454.3,-266.95 451.73,-273.46"/>
</g>
<!-- Node12 -->
<g id="node12" class="node">
<title>Node12</title>
<g id="a_node12"><a xlink:href="classSystemData.html#a7da2011ba5d866e5338b14e8b04ace70" target="_top" xlink:title="Computes the particle D.o.F. from the body D.o.F.">
<polygon fill="none" stroke="black" points="455,-225 455,-255 592,-255 592,-225 455,-225"/>
<text text-anchor="start" x="463" y="-243" font-family="Helvetica,sans-Serif" font-size="10.00">SystemData::convertBody2</text>
<text text-anchor="middle" x="523.5" y="-232" font-family="Helvetica,sans-Serif" font-size="10.00">ParticleVelAcc</text>
</a>
</g>
</g>
<!-- Node6&#45;&gt;Node12 -->
<g id="edge11" class="edge">
<title>Node6&#45;&gt;Node12</title>
<path fill="none" stroke="midnightblue" d="M396.24,-222.37C411.44,-224.49 428.35,-226.85 444.73,-229.14"/>
<polygon fill="midnightblue" stroke="midnightblue" points="444.46,-232.63 454.84,-230.55 445.42,-225.7 444.46,-232.63"/>
</g>
<!-- Node16 -->
<g id="node16" class="node">
<title>Node16</title>
<g id="a_node16"><a xlink:href="classSystemData.html#a301fa1815b3b68cffc789f1824e29f5e" target="_top" xlink:title="Computes the gradients rigid body motion connectivity tensors and tensors associated with change of v...">
<polygon fill="none" stroke="black" points="450.5,-176 450.5,-206 596.5,-206 596.5,-176 450.5,-176"/>
<text text-anchor="start" x="458.5" y="-194" font-family="Helvetica,sans-Serif" font-size="10.00">SystemData::gradientChange</text>
<text text-anchor="middle" x="523.5" y="-183" font-family="Helvetica,sans-Serif" font-size="10.00">OfVariableTensors</text>
</a>
</g>
</g>
<!-- Node6&#45;&gt;Node16 -->
<g id="edge15" class="edge">
<title>Node6&#45;&gt;Node16</title>
<path fill="none" stroke="midnightblue" d="M396.24,-207.93C409.98,-206.09 425.12,-204.06 440,-202.06"/>
<polygon fill="midnightblue" stroke="midnightblue" points="440.8,-205.49 450.24,-200.69 439.87,-198.55 440.8,-205.49"/>
</g>
<!-- Node20 -->
<g id="node20" class="node">
<title>Node20</title>
<g id="a_node20"><a xlink:href="classSystemData.html#a30df4f73d78f6886da32559eda83595d" target="_top" xlink:title="Computes the articulation (linear) positions of the particles relative to their respective locater po...">
<polygon fill="none" stroke="black" points="441,-88.5 441,-107.5 606,-107.5 606,-88.5 441,-88.5"/>
<text text-anchor="middle" x="523.5" y="-95.5" font-family="Helvetica,sans-Serif" font-size="10.00">SystemData::positionsArticulation</text>
</a>
</g>
</g>
<!-- Node6&#45;&gt;Node20 -->
<g id="edge21" class="edge">
<title>Node6&#45;&gt;Node20</title>
<path fill="none" stroke="midnightblue" d="M389.05,-205.39C394.47,-202.94 399.63,-199.86 404,-196 432.91,-170.45 410.11,-141.41 440,-117 442.04,-115.33 444.2,-113.81 446.46,-112.41"/>
<polygon fill="midnightblue" stroke="midnightblue" points="448.32,-115.38 455.55,-107.63 445.07,-109.18 448.32,-115.38"/>
</g>
<!-- Node21 -->
<g id="node21" class="node">
<title>Node21</title>
<g id="a_node21"><a xlink:href="classSystemData.html#ae08b2263f2981e57d0f12ba7881a083b" target="_top" xlink:title="Computes the rigid body motion connectivity tensors.">
<polygon fill="none" stroke="black" points="450,-127 450,-157 597,-157 597,-127 450,-127"/>
<text text-anchor="start" x="458" y="-145" font-family="Helvetica,sans-Serif" font-size="10.00">SystemData::rigidBodyMotion</text>
<text text-anchor="middle" x="523.5" y="-134" font-family="Helvetica,sans-Serif" font-size="10.00">Tensors</text>
</a>
</g>
</g>
<!-- Node6&#45;&gt;Node21 -->
<g id="edge22" class="edge">
<title>Node6&#45;&gt;Node21</title>
<path fill="none" stroke="midnightblue" d="M381.87,-205.44C389.43,-202.87 397.14,-199.74 404,-196 422.28,-186.02 421.61,-175.78 440,-166 443.46,-164.16 447.07,-162.45 450.78,-160.85"/>
<polygon fill="midnightblue" stroke="midnightblue" points="452.14,-164.08 460.13,-157.13 449.55,-157.57 452.14,-164.08"/>
</g>
<!-- Node25 -->
<g id="node25" class="node">
<title>Node25</title>
<g id="a_node25"><a xlink:href="classSystemData.html#ad1a6489951a00124901c1947381a9be8" target="_top" xlink:title="Computes the Udwadia constraint matrix and vector to uphold the quaternion unitary norm for each body...">
<polygon fill="none" stroke="black" points="453.5,-39 453.5,-69 593.5,-69 593.5,-39 453.5,-39"/>
<text text-anchor="start" x="461.5" y="-57" font-family="Helvetica,sans-Serif" font-size="10.00">SystemData::udwadiaLinear</text>
<text text-anchor="middle" x="523.5" y="-46" font-family="Helvetica,sans-Serif" font-size="10.00">System</text>
</a>
</g>
</g>
<!-- Node6&#45;&gt;Node25 -->
<g id="edge28" class="edge">
<title>Node6&#45;&gt;Node25</title>
<path fill="none" stroke="midnightblue" d="M390.44,-205.47C395.45,-203.01 400.12,-199.9 404,-196 442.36,-157.42 401.45,-117.39 440,-79 441.47,-77.53 443.03,-76.15 444.65,-74.86"/>
<polygon fill="midnightblue" stroke="midnightblue" points="446.97,-77.51 453.29,-69.01 443.04,-71.72 446.97,-77.51"/>
</g>
<!-- Node26 -->
<g id="node26" class="node">
<title>Node26</title>
<g id="a_node26"><a xlink:href="classSystemData.html#a92ce50a4c8b53aa6a490153c1b09ab8a" target="_top" xlink:title="Computes the articulation (linear) velocities of the particles relative to their respective locater p...">
<polygon fill="none" stroke="black" points="440,-0.5 440,-19.5 607,-19.5 607,-0.5 440,-0.5"/>
<text text-anchor="middle" x="523.5" y="-7.5" font-family="Helvetica,sans-Serif" font-size="10.00">SystemData::velocitiesArticulation</text>
</a>
</g>
</g>
<!-- Node6&#45;&gt;Node26 -->
<g id="edge29" class="edge">
<title>Node6&#45;&gt;Node26</title>
<path fill="none" stroke="midnightblue" d="M391.36,-205.49C396.09,-203.01 400.44,-199.9 404,-196 455.16,-139.9 386.69,-83.06 440,-29 441.28,-27.7 442.62,-26.49 444.03,-25.35"/>
<polygon fill="midnightblue" stroke="midnightblue" points="446.26,-28.07 452.67,-19.63 442.4,-22.24 446.26,-28.07"/>
</g>
<!-- Node9 -->
<g id="node9" class="node">
<title>Node9</title>
<g id="a_node9"><a xlink:href="helper__math_8h.html#ae4378072f9d836b0d4770a1514db2be3" target="_top" xlink:title=" ">
<polygon fill="none" stroke="black" points="705.5,-334.5 705.5,-353.5 737.5,-353.5 737.5,-334.5 705.5,-334.5"/>
<text text-anchor="middle" x="721.5" y="-341.5" font-family="Helvetica,sans-Serif" font-size="10.00">abs</text>
</a>
</g>
</g>
<!-- Node8&#45;&gt;Node9 -->
<g id="edge8" class="edge">
<title>Node8&#45;&gt;Node9</title>
<path fill="none" stroke="midnightblue" d="M592.23,-340.07C627.86,-341.16 669.41,-342.44 695.34,-343.23"/>
<polygon fill="midnightblue" stroke="midnightblue" points="695.33,-346.73 705.43,-343.54 695.54,-339.73 695.33,-346.73"/>
</g>
<!-- Node10 -->
<g id="node10" class="node">
<title>Node10</title>
<g id="a_node10"><a xlink:href="helper__math_8h.html#a3be05aff487ded3c05aab21d24dd6439" target="_top" xlink:title=" ">
<polygon fill="none" stroke="black" points="874,-334.5 874,-353.5 936,-353.5 936,-334.5 874,-334.5"/>
<text text-anchor="middle" x="905" y="-341.5" font-family="Helvetica,sans-Serif" font-size="10.00">make_int2</text>
</a>
</g>
</g>
<!-- Node9&#45;&gt;Node10 -->
<g id="edge9" class="edge">
<title>Node9&#45;&gt;Node10</title>
<path fill="none" stroke="midnightblue" d="M737.66,-344C765.11,-344 823.89,-344 863.69,-344"/>
<polygon fill="midnightblue" stroke="midnightblue" points="863.87,-347.5 873.87,-344 863.87,-340.5 863.87,-347.5"/>
</g>
<!-- Node13 -->
<g id="node13" class="node">
<title>Node13</title>
<g id="a_node13"><a xlink:href="helper__eigenTensorConversion_8hpp.html#a556d08b55a6ad7cd703b6db06194e5cf" target="_top" xlink:title=" ">
<polygon fill="none" stroke="black" points="689,-296.5 689,-315.5 754,-315.5 754,-296.5 689,-296.5"/>
<text text-anchor="middle" x="721.5" y="-303.5" font-family="Helvetica,sans-Serif" font-size="10.00">MatrixCast</text>
</a>
</g>
</g>
<!-- Node12&#45;&gt;Node13 -->
<g id="edge12" class="edge">
<title>Node12&#45;&gt;Node13</title>
<path fill="none" stroke="midnightblue" d="M581.32,-255.06C590.01,-257.78 598.81,-260.79 607,-264 623.66,-270.52 626.4,-275.33 643,-282 654.54,-286.64 667.34,-290.93 679.15,-294.56"/>
<polygon fill="midnightblue" stroke="midnightblue" points="678.21,-297.93 688.79,-297.45 680.22,-291.23 678.21,-297.93"/>
</g>
<!-- Node15 -->
<g id="node15" class="node">
<title>Node15</title>
<g id="a_node15"><a xlink:href="helper__eigenTensorConversion_8hpp.html#a3a32f7de3f099464192073a93b34d580" target="_top" xlink:title="Convert Eigen::Matrix &#45;&#45;&gt; Eigen::Tensor.">
<polygon fill="none" stroke="black" points="871.5,-198.5 871.5,-217.5 938.5,-217.5 938.5,-198.5 871.5,-198.5"/>
<text text-anchor="middle" x="905" y="-205.5" font-family="Helvetica,sans-Serif" font-size="10.00">TensorCast</text>
</a>
</g>
</g>
<!-- Node12&#45;&gt;Node15 -->
<g id="edge14" class="edge">
<title>Node12&#45;&gt;Node15</title>
<path fill="none" stroke="midnightblue" d="M592.05,-238.84C647.94,-237.33 729.32,-233.88 800,-226 820.28,-223.74 842.6,-220.04 861.35,-216.58"/>
<polygon fill="midnightblue" stroke="midnightblue" points="862.18,-219.98 871.36,-214.69 860.88,-213.1 862.18,-219.98"/>
</g>
<!-- Node14 -->
<g id="node14" class="node">
<title>Node14</title>
<g id="a_node14"><a xlink:href="helper__eigenTensorConversion_8hpp.html#a2a7eca6b17fb874869047bd0b5f11b46" target="_top" xlink:title="Convert between Eigen::Tensor and Eigen::Matrix classes.">
<polygon fill="none" stroke="black" points="881.5,-296.5 881.5,-315.5 928.5,-315.5 928.5,-296.5 881.5,-296.5"/>
<text text-anchor="middle" x="905" y="-303.5" font-family="Helvetica,sans-Serif" font-size="10.00">asEval</text>
</a>
</g>
</g>
<!-- Node13&#45;&gt;Node14 -->
<g id="edge13" class="edge">
<title>Node13&#45;&gt;Node14</title>
<path fill="none" stroke="midnightblue" d="M754.11,-306C786.92,-306 838,-306 871.23,-306"/>
<polygon fill="midnightblue" stroke="midnightblue" points="871.35,-309.5 881.35,-306 871.35,-302.5 871.35,-309.5"/>
</g>
<!-- Node16&#45;&gt;Node15 -->
<g id="edge20" class="edge">
<title>Node16&#45;&gt;Node15</title>
<path fill="none" stroke="midnightblue" d="M596.66,-204.44C611.91,-206.76 627.94,-208.8 643,-210 712.56,-215.54 730.23,-210.67 800,-210 820.11,-209.81 842.41,-209.4 861.18,-209.01"/>
<polygon fill="midnightblue" stroke="midnightblue" points="861.29,-212.51 871.21,-208.79 861.14,-205.51 861.29,-212.51"/>
</g>
<!-- Node17 -->
<g id="node17" class="node">
<title>Node17</title>
<g id="a_node17"><a xlink:href="classSystemData.html#a230548cc624444a66137b8d5ecaf5716" target="_top" xlink:title="Computes \chi_{i \alpha} matrix for given particle number and body number. chi matrix represents the ...">
<polygon fill="none" stroke="black" points="645,-94.5 645,-113.5 798,-113.5 798,-94.5 645,-94.5"/>
<text text-anchor="middle" x="721.5" y="-101.5" font-family="Helvetica,sans-Serif" font-size="10.00">SystemData::chiMatrixElement</text>
</a>
</g>
</g>
<!-- Node16&#45;&gt;Node17 -->
<g id="edge16" class="edge">
<title>Node16&#45;&gt;Node17</title>
<path fill="none" stroke="midnightblue" d="M580.08,-175.87C589.19,-172.91 598.44,-169.59 607,-166 639.21,-152.49 674.19,-132.51 696.67,-118.9"/>
<polygon fill="midnightblue" stroke="midnightblue" points="698.51,-121.88 705.22,-113.68 694.86,-115.91 698.51,-121.88"/>
</g>
<!-- Node19 -->
<g id="node19" class="node">
<title>Node19</title>
<g id="a_node19"><a xlink:href="classSystemData.html#aeaaa2fb7779cd160ab4d90f6f1659aae" target="_top" xlink:title="Computes \nabla_{\xi} \zeta_{i \alpha} tensor for given particle number and body number.">
<polygon fill="none" stroke="black" points="649,-171 649,-201 794,-201 794,-171 649,-171"/>
<text text-anchor="start" x="657" y="-189" font-family="Helvetica,sans-Serif" font-size="10.00">SystemData::gradZetaTensor</text>
<text text-anchor="middle" x="721.5" y="-178" font-family="Helvetica,sans-Serif" font-size="10.00">Element</text>
</a>
</g>
</g>
<!-- Node16&#45;&gt;Node19 -->
<g id="edge18" class="edge">
<title>Node16&#45;&gt;Node19</title>
<path fill="none" stroke="midnightblue" d="M596.65,-189.16C610.35,-188.81 624.78,-188.44 638.75,-188.09"/>
<polygon fill="midnightblue" stroke="midnightblue" points="638.92,-191.58 648.83,-187.83 638.75,-184.58 638.92,-191.58"/>
</g>
<!-- Node18 -->
<g id="node18" class="node">
<title>Node18</title>
<g id="a_node18"><a xlink:href="classSystemData.html#a7cefde66d9e18e2517f11505dd434d0e" target="_top" xlink:title="Function takes in vector in vector cross&#45;product expression: .">
<polygon fill="none" stroke="black" points="836,-75.5 836,-94.5 974,-94.5 974,-75.5 836,-75.5"/>
<text text-anchor="middle" x="905" y="-82.5" font-family="Helvetica,sans-Serif" font-size="10.00">SystemData::crossProdMat</text>
</a>
</g>
</g>
<!-- Node17&#45;&gt;Node18 -->
<g id="edge17" class="edge">
<title>Node17&#45;&gt;Node18</title>
<path fill="none" stroke="midnightblue" d="M798.16,-96.08C807.27,-95.13 816.6,-94.15 825.75,-93.19"/>
<polygon fill="midnightblue" stroke="midnightblue" points="826.41,-96.64 835.99,-92.12 825.68,-89.68 826.41,-96.64"/>
</g>
<!-- Node19&#45;&gt;Node15 -->
<g id="edge19" class="edge">
<title>Node19&#45;&gt;Node15</title>
<path fill="none" stroke="midnightblue" d="M794.23,-194.69C816.85,-197.44 841.11,-200.38 861.06,-202.8"/>
<polygon fill="midnightblue" stroke="midnightblue" points="860.72,-206.28 871.07,-204.01 861.56,-199.33 860.72,-206.28"/>
</g>
<!-- Node21&#45;&gt;Node15 -->
<g id="edge27" class="edge">
<title>Node21&#45;&gt;Node15</title>
<path fill="none" stroke="midnightblue" d="M597.24,-140.05C653.43,-140.2 732.7,-144.06 800,-161 828.2,-168.1 858.24,-182.51 878.75,-193.51"/>
<polygon fill="midnightblue" stroke="midnightblue" points="877.28,-196.69 887.73,-198.44 880.65,-190.56 877.28,-196.69"/>
</g>
<!-- Node22 -->
<g id="node22" class="node">
<title>Node22</title>
<g id="a_node22"><a xlink:href="classSystemData.html#aaf73d6b07c3852c18831d8ab983b384f" target="_top" xlink:title="Computes \Psi matrix for given body number. \Psi matrix represents the transformation of coordinates ...">
<polygon fill="none" stroke="black" points="645,-18.5 645,-37.5 798,-37.5 798,-18.5 645,-18.5"/>
<text text-anchor="middle" x="721.5" y="-25.5" font-family="Helvetica,sans-Serif" font-size="10.00">SystemData::psiMatrixElement</text>
</a>
</g>
</g>
<!-- Node21&#45;&gt;Node22 -->
<g id="edge23" class="edge">
<title>Node21&#45;&gt;Node22</title>
<path fill="none" stroke="midnightblue" d="M591.77,-126.83C597.23,-124.08 602.4,-120.83 607,-117 633.87,-94.6 615.54,-68.67 643,-47 645.29,-45.19 647.74,-43.55 650.29,-42.06"/>
<polygon fill="midnightblue" stroke="midnightblue" points="651.92,-45.16 659.32,-37.57 648.8,-38.89 651.92,-45.16"/>
</g>
<!-- Node24 -->
<g id="node24" class="node">
<title>Node24</title>
<g id="a_node24"><a xlink:href="classSystemData.html#a70d2ff9a6173fcd9f30e8dc6324e8414" target="_top" xlink:title="Computes \Sigma_{i \alpha} matrix for given particle number and body number. Sigma matrix represents ...">
<polygon fill="none" stroke="black" points="643,-56.5 643,-75.5 800,-75.5 800,-56.5 643,-56.5"/>
<text text-anchor="middle" x="721.5" y="-63.5" font-family="Helvetica,sans-Serif" font-size="10.00">SystemData::rbmMatrixElement</text>
</a>
</g>
</g>
<!-- Node21&#45;&gt;Node24 -->
<g id="edge25" class="edge">
<title>Node21&#45;&gt;Node24</title>
<path fill="none" stroke="midnightblue" d="M585.24,-126.92C592.77,-124.09 600.21,-120.8 607,-117 625.68,-106.54 624.05,-94.95 643,-85 647.48,-82.65 652.27,-80.58 657.18,-78.76"/>
<polygon fill="midnightblue" stroke="midnightblue" points="658.35,-82.06 666.72,-75.56 656.12,-75.42 658.35,-82.06"/>
</g>
<!-- Node23 -->
<g id="node23" class="node">
<title>Node23</title>
<g id="a_node23"><a xlink:href="classSystemData.html#ad58491f39fe352229da5494878b88911" target="_top" xlink:title="Computes the E matrix of quaternion (4&#45;vector) input.">
<polygon fill="none" stroke="black" points="850,-18.5 850,-37.5 960,-37.5 960,-18.5 850,-18.5"/>
<text text-anchor="middle" x="905" y="-25.5" font-family="Helvetica,sans-Serif" font-size="10.00">SystemData::eMatrix</text>
</a>
</g>
</g>
<!-- Node22&#45;&gt;Node23 -->
<g id="edge24" class="edge">
<title>Node22&#45;&gt;Node23</title>
<path fill="none" stroke="midnightblue" d="M798.16,-28C811.96,-28 826.23,-28 839.66,-28"/>
<polygon fill="midnightblue" stroke="midnightblue" points="839.74,-31.5 849.74,-28 839.74,-24.5 839.74,-31.5"/>
</g>
<!-- Node24&#45;&gt;Node18 -->
<g id="edge26" class="edge">
<title>Node24&#45;&gt;Node18</title>
<path fill="none" stroke="midnightblue" d="M800.26,-74.14C808.68,-75.02 817.24,-75.92 825.66,-76.8"/>
<polygon fill="midnightblue" stroke="midnightblue" points="825.53,-80.3 835.84,-77.86 826.26,-73.34 825.53,-80.3"/>
</g>
<!-- Node28 -->
<g id="node28" class="node">
<title>Node28</title>
<g id="a_node28"><a xlink:href="classEngine.html#a86c9f15bc38141e714a923e5f7e37415" target="_top" xlink:title="Updates the simulation framework 1 time step.">
<polygon fill="none" stroke="black" points="297.5,-167.5 297.5,-186.5 387.5,-186.5 387.5,-167.5 297.5,-167.5"/>
<text text-anchor="middle" x="342.5" y="-174.5" font-family="Helvetica,sans-Serif" font-size="10.00">Engine::integrate</text>
</a>
</g>
</g>
<!-- Node27&#45;&gt;Node28 -->
<g id="edge31" class="edge">
<title>Node27&#45;&gt;Node28</title>
<path fill="none" stroke="midnightblue" d="M211.1,-192.25C232.81,-189.71 262.01,-186.29 287.28,-183.34"/>
<polygon fill="midnightblue" stroke="midnightblue" points="287.94,-186.79 297.47,-182.15 287.13,-179.83 287.94,-186.79"/>
</g>
</g>
</svg>
