<?xml version="1.0" encoding="UTF-8" standalone="no"?>
<!DOCTYPE svg PUBLIC "-//W3C//DTD SVG 1.1//EN"
 "http://www.w3.org/Graphics/SVG/1.1/DTD/svg11.dtd">
<!-- Generated by graphviz version 2.43.0 (0)
 -->
<!-- Title: TEST_CASE Pages: 1 -->
<svg width="887pt" height="449pt"
 viewBox="0.00 0.00 887.00 449.00" xmlns="http://www.w3.org/2000/svg" xmlns:xlink="http://www.w3.org/1999/xlink">
<g id="graph0" class="graph" transform="scale(1 1) rotate(0) translate(4 445)">
<title>TEST_CASE</title>
<!-- Node1 -->
<g id="node1" class="node">
<title>Node1</title>
<g id="a_node1"><a xlink:title=" ">
<polygon fill="#bfbfbf" stroke="black" points="0,-215.5 0,-234.5 75,-234.5 75,-215.5 0,-215.5"/>
<text text-anchor="middle" x="37.5" y="-222.5" font-family="Helvetica,sans-Serif" font-size="10.00">TEST_CASE</text>
</a>
</g>
</g>
<!-- Node2 -->
<g id="node2" class="node">
<title>Node2</title>
<g id="a_node2"><a xlink:href="classSystemData.html#ac3a796dc8bf1fa82ea6dec33e548924f" target="_top" xlink:title="Function loads data from GSD file using GSDUtil class.">
<polygon fill="none" stroke="black" points="111,-234.5 111,-253.5 245,-253.5 245,-234.5 111,-234.5"/>
<text text-anchor="middle" x="178" y="-241.5" font-family="Helvetica,sans-Serif" font-size="10.00">SystemData::initializeData</text>
</a>
</g>
</g>
<!-- Node1&#45;&gt;Node2 -->
<g id="edge1" class="edge">
<title>Node1&#45;&gt;Node2</title>
<path fill="none" stroke="midnightblue" d="M75.25,-230.04C83.23,-231.14 91.95,-232.33 100.82,-233.55"/>
<polygon fill="midnightblue" stroke="midnightblue" points="100.49,-237.04 110.88,-234.93 101.45,-230.1 100.49,-237.04"/>
</g>
<!-- Node23 -->
<g id="node23" class="node">
<title>Node23</title>
<g id="a_node23"><a xlink:href="classEngine.html#a1a210cf30d6bd330b3649439ecd6d6cc" target="_top" xlink:title="Runs the simulation from &#160;to .">
<polygon fill="none" stroke="black" points="145,-196.5 145,-215.5 211,-215.5 211,-196.5 145,-196.5"/>
<text text-anchor="middle" x="178" y="-203.5" font-family="Helvetica,sans-Serif" font-size="10.00">Engine::run</text>
</a>
</g>
</g>
<!-- Node1&#45;&gt;Node23 -->
<g id="edge25" class="edge">
<title>Node1&#45;&gt;Node23</title>
<path fill="none" stroke="midnightblue" d="M75.25,-219.96C93.51,-217.45 115.66,-214.41 134.63,-211.81"/>
<polygon fill="midnightblue" stroke="midnightblue" points="135.37,-215.24 144.8,-210.42 134.41,-208.31 135.37,-215.24"/>
</g>
<!-- Node3 -->
<g id="node3" class="node">
<title>Node3</title>
<g id="a_node3"><a xlink:href="classSystemData.html#a58d7292b7fd9035265eca81d0f088a27" target="_top" xlink:title="Logs private attributes to logfile.">
<polygon fill="none" stroke="black" points="287,-291.5 287,-310.5 398,-310.5 398,-291.5 287,-291.5"/>
<text text-anchor="middle" x="342.5" y="-298.5" font-family="Helvetica,sans-Serif" font-size="10.00">SystemData::logData</text>
</a>
</g>
</g>
<!-- Node2&#45;&gt;Node3 -->
<g id="edge2" class="edge">
<title>Node2&#45;&gt;Node3</title>
<path fill="none" stroke="midnightblue" d="M203.6,-253.58C224.18,-261.49 254.37,-272.86 281,-282 287.15,-284.11 293.68,-286.26 300.09,-288.31"/>
<polygon fill="midnightblue" stroke="midnightblue" points="299.41,-291.77 310,-291.45 301.52,-285.09 299.41,-291.77"/>
</g>
<!-- Node4 -->
<g id="node4" class="node">
<title>Node4</title>
<g id="a_node4"><a xlink:href="classSystemData.html#aa2eb6d7a8870f81a9f4e6484c1f8751c" target="_top" xlink:title="Passes this (SystemData shared pointer instance) into GSDUtil constructor to load data from input GSD...">
<polygon fill="none" stroke="black" points="281,-253.5 281,-272.5 404,-272.5 404,-253.5 281,-253.5"/>
<text text-anchor="middle" x="342.5" y="-260.5" font-family="Helvetica,sans-Serif" font-size="10.00">SystemData::parseGSD</text>
</a>
</g>
</g>
<!-- Node2&#45;&gt;Node4 -->
<g id="edge3" class="edge">
<title>Node2&#45;&gt;Node4</title>
<path fill="none" stroke="midnightblue" d="M245.09,-251.73C253.62,-252.72 262.38,-253.75 270.97,-254.75"/>
<polygon fill="midnightblue" stroke="midnightblue" points="270.62,-258.24 280.96,-255.92 271.44,-251.28 270.62,-258.24"/>
</g>
<!-- Node6 -->
<g id="node6" class="node">
<title>Node6</title>
<g id="a_node6"><a xlink:href="classSystemData.html#aa1dc8988cbb137f2667af95ca52a709c" target="_top" xlink:title="Updates all relevant rigid body motion tensors, respective gradients, and kinematic/Udwadia constrain...">
<polygon fill="none" stroke="black" points="289,-215.5 289,-234.5 396,-234.5 396,-215.5 289,-215.5"/>
<text text-anchor="middle" x="342.5" y="-222.5" font-family="Helvetica,sans-Serif" font-size="10.00">SystemData::update</text>
</a>
</g>
</g>
<!-- Node2&#45;&gt;Node6 -->
<g id="edge5" class="edge">
<title>Node2&#45;&gt;Node6</title>
<path fill="none" stroke="midnightblue" d="M245.09,-236.27C256.26,-234.97 267.83,-233.61 278.9,-232.32"/>
<polygon fill="midnightblue" stroke="midnightblue" points="279.38,-235.79 288.91,-231.15 278.57,-228.83 279.38,-235.79"/>
</g>
<!-- Node5 -->
<g id="node5" class="node">
<title>Node5</title>
<g id="a_node5"><a xlink:href="classSystemData.html#a534384a0e92c8a0ffbcec636afbdf65e" target="_top" xlink:title="Various assertions to check data loaded from GSD is at least physical.">
<polygon fill="none" stroke="black" points="461,-421.5 461,-440.5 586,-440.5 586,-421.5 461,-421.5"/>
<text text-anchor="middle" x="523.5" y="-428.5" font-family="Helvetica,sans-Serif" font-size="10.00">SystemData::checkInput</text>
</a>
</g>
</g>
<!-- Node4&#45;&gt;Node5 -->
<g id="edge4" class="edge">
<title>Node4&#45;&gt;Node5</title>
<path fill="none" stroke="midnightblue" d="M390.85,-272.57C395.72,-275.03 400.25,-278.12 404,-282 445.66,-325.11 396.69,-370.55 440,-412 443.38,-415.23 447.19,-417.95 451.27,-420.24"/>
<polygon fill="midnightblue" stroke="midnightblue" points="450.05,-423.53 460.59,-424.59 453.01,-417.19 450.05,-423.53"/>
</g>
<!-- Node7 -->
<g id="node7" class="node">
<title>Node7</title>
<g id="a_node7"><a xlink:href="classSystemData.html#a188c38c8448ed32d3cf697b6f07b9d6a" target="_top" xlink:title="Computes the articulation (linear) accelerations of the particles relative to their respective locate...">
<polygon fill="none" stroke="black" points="456,-284 456,-314 591,-314 591,-284 456,-284"/>
<text text-anchor="start" x="464" y="-302" font-family="Helvetica,sans-Serif" font-size="10.00">SystemData::accelerations</text>
<text text-anchor="middle" x="523.5" y="-291" font-family="Helvetica,sans-Serif" font-size="10.00">Articulation</text>
</a>
</g>
</g>
<!-- Node6&#45;&gt;Node7 -->
<g id="edge6" class="edge">
<title>Node6&#45;&gt;Node7</title>
<path fill="none" stroke="midnightblue" d="M382.24,-234.58C389.69,-237.14 397.27,-240.25 404,-244 422.45,-254.26 421.44,-264.93 440,-275 443.44,-276.87 447.05,-278.6 450.74,-280.22"/>
<polygon fill="midnightblue" stroke="midnightblue" points="449.49,-283.49 460.08,-283.98 452.11,-276.99 449.49,-283.49"/>
</g>
<!-- Node8 -->
<g id="node8" class="node">
<title>Node8</title>
<g id="a_node8"><a xlink:href="classSystemData.html#a000a3e77f12b4c1bc9678e9ede202f83" target="_top" xlink:title="Computes the orientation (unit vector) of a particle with respect to its locater point.">
<polygon fill="none" stroke="black" points="455,-235 455,-265 592,-265 592,-235 455,-235"/>
<text text-anchor="start" x="463" y="-253" font-family="Helvetica,sans-Serif" font-size="10.00">SystemData::convertBody2</text>
<text text-anchor="middle" x="523.5" y="-242" font-family="Helvetica,sans-Serif" font-size="10.00">ParticleOrient</text>
</a>
</g>
</g>
<!-- Node6&#45;&gt;Node8 -->
<g id="edge7" class="edge">
<title>Node6&#45;&gt;Node8</title>
<path fill="none" stroke="midnightblue" d="M396.24,-232.37C411.44,-234.49 428.35,-236.85 444.73,-239.14"/>
<polygon fill="midnightblue" stroke="midnightblue" points="444.46,-242.63 454.84,-240.55 445.42,-235.7 444.46,-242.63"/>
</g>
<!-- Node11 -->
<g id="node11" class="node">
<title>Node11</title>
<g id="a_node11"><a xlink:href="classSystemData.html#a3edab27c866d9031739a8bd3b09bac42" target="_top" xlink:title="Computes the positions of all particles from given locater positions and body orientations.">
<polygon fill="none" stroke="black" points="455,-186 455,-216 592,-216 592,-186 455,-186"/>
<text text-anchor="start" x="463" y="-204" font-family="Helvetica,sans-Serif" font-size="10.00">SystemData::convertBody2</text>
<text text-anchor="middle" x="523.5" y="-193" font-family="Helvetica,sans-Serif" font-size="10.00">ParticlePos</text>
</a>
</g>
</g>
<!-- Node6&#45;&gt;Node11 -->
<g id="edge10" class="edge">
<title>Node6&#45;&gt;Node11</title>
<path fill="none" stroke="midnightblue" d="M396.24,-217.93C411.44,-215.89 428.35,-213.62 444.73,-211.43"/>
<polygon fill="midnightblue" stroke="midnightblue" points="445.4,-214.87 454.84,-210.07 444.47,-207.93 445.4,-214.87"/>
</g>
<!-- Node12 -->
<g id="node12" class="node">
<title>Node12</title>
<g id="a_node12"><a xlink:href="classSystemData.html#a7da2011ba5d866e5338b14e8b04ace70" target="_top" xlink:title="Computes the particle D.o.F. from the body D.o.F.">
<polygon fill="none" stroke="black" points="455,-137 455,-167 592,-167 592,-137 455,-137"/>
<text text-anchor="start" x="463" y="-155" font-family="Helvetica,sans-Serif" font-size="10.00">SystemData::convertBody2</text>
<text text-anchor="middle" x="523.5" y="-144" font-family="Helvetica,sans-Serif" font-size="10.00">ParticleVelAcc</text>
</a>
</g>
</g>
<!-- Node6&#45;&gt;Node12 -->
<g id="edge11" class="edge">
<title>Node6&#45;&gt;Node12</title>
<path fill="none" stroke="midnightblue" d="M381.5,-215.46C389.17,-212.88 397.01,-209.74 404,-206 422.12,-196.31 421.84,-186.6 440,-177 444.24,-174.76 448.72,-172.69 453.3,-170.77"/>
<polygon fill="midnightblue" stroke="midnightblue" points="454.76,-173.96 462.81,-167.08 452.22,-167.44 454.76,-173.96"/>
</g>
<!-- Node16 -->
<g id="node16" class="node">
<title>Node16</title>
<g id="a_node16"><a xlink:href="classSystemData.html#a301fa1815b3b68cffc789f1824e29f5e" target="_top" xlink:title="Computes the gradients rigid body motion connectivity tensors and tensors associated with change of v...">
<polygon fill="none" stroke="black" points="450.5,-88 450.5,-118 596.5,-118 596.5,-88 450.5,-88"/>
<text text-anchor="start" x="458.5" y="-106" font-family="Helvetica,sans-Serif" font-size="10.00">SystemData::gradientChange</text>
<text text-anchor="middle" x="523.5" y="-95" font-family="Helvetica,sans-Serif" font-size="10.00">OfVariableTensors</text>
</a>
</g>
</g>
<!-- Node6&#45;&gt;Node16 -->
<g id="edge15" class="edge">
<title>Node6&#45;&gt;Node16</title>
<path fill="none" stroke="midnightblue" d="M389.05,-215.39C394.47,-212.94 399.63,-209.86 404,-206 432.91,-180.45 410.82,-152.24 440,-127 441.36,-125.83 442.77,-124.71 444.23,-123.65"/>
<polygon fill="midnightblue" stroke="midnightblue" points="446.41,-126.41 453.03,-118.14 442.7,-120.48 446.41,-126.41"/>
</g>
<!-- Node18 -->
<g id="node18" class="node">
<title>Node18</title>
<g id="a_node18"><a xlink:href="classSystemData.html#a30df4f73d78f6886da32559eda83595d" target="_top" xlink:title="Computes the articulation (linear) positions of the particles relative to their respective locater po...">
<polygon fill="none" stroke="black" points="441,-0.5 441,-19.5 606,-19.5 606,-0.5 441,-0.5"/>
<text text-anchor="middle" x="523.5" y="-7.5" font-family="Helvetica,sans-Serif" font-size="10.00">SystemData::positionsArticulation</text>
</a>
</g>
</g>
<!-- Node6&#45;&gt;Node18 -->
<g id="edge18" class="edge">
<title>Node6&#45;&gt;Node18</title>
<path fill="none" stroke="midnightblue" d="M391.7,-215.37C396.3,-212.92 400.54,-209.84 404,-206 457.75,-146.37 383.97,-86.49 440,-29 441.27,-27.7 442.61,-26.48 444.01,-25.33"/>
<polygon fill="midnightblue" stroke="midnightblue" points="446.25,-28.05 452.62,-19.58 442.36,-22.23 446.25,-28.05"/>
</g>
<!-- Node19 -->
<g id="node19" class="node">
<title>Node19</title>
<g id="a_node19"><a xlink:href="classSystemData.html#ae08b2263f2981e57d0f12ba7881a083b" target="_top" xlink:title="Computes the rigid body motion connectivity tensors.">
<polygon fill="none" stroke="black" points="450,-39 450,-69 597,-69 597,-39 450,-39"/>
<text text-anchor="start" x="458" y="-57" font-family="Helvetica,sans-Serif" font-size="10.00">SystemData::rigidBodyMotion</text>
<text text-anchor="middle" x="523.5" y="-46" font-family="Helvetica,sans-Serif" font-size="10.00">Tensors</text>
</a>
</g>
</g>
<!-- Node6&#45;&gt;Node19 -->
<g id="edge19" class="edge">
<title>Node6&#45;&gt;Node19</title>
<path fill="none" stroke="midnightblue" d="M390.83,-215.42C395.71,-212.96 400.24,-209.87 404,-206 445.15,-163.59 398.4,-119.97 440,-78 440.95,-77.05 441.93,-76.13 442.94,-75.25"/>
<polygon fill="midnightblue" stroke="midnightblue" points="445.24,-77.9 451.26,-69.18 441.12,-72.24 445.24,-77.9"/>
</g>
<!-- Node21 -->
<g id="node21" class="node">
<title>Node21</title>
<g id="a_node21"><a xlink:href="classSystemData.html#ad1a6489951a00124901c1947381a9be8" target="_top" xlink:title="Computes the Udwadia constraint matrix and vector to uphold the quaternion unitary norm for each body...">
<polygon fill="none" stroke="black" points="453.5,-372 453.5,-402 593.5,-402 593.5,-372 453.5,-372"/>
<text text-anchor="start" x="461.5" y="-390" font-family="Helvetica,sans-Serif" font-size="10.00">SystemData::udwadiaLinear</text>
<text text-anchor="middle" x="523.5" y="-379" font-family="Helvetica,sans-Serif" font-size="10.00">System</text>
</a>
</g>
</g>
<!-- Node6&#45;&gt;Node21 -->
<g id="edge23" class="edge">
<title>Node6&#45;&gt;Node21</title>
<path fill="none" stroke="midnightblue" d="M390.45,-234.52C395.45,-236.99 400.12,-240.09 404,-244 442.61,-282.93 401.19,-323.27 440,-362 441.47,-363.47 443.02,-364.85 444.64,-366.15"/>
<polygon fill="midnightblue" stroke="midnightblue" points="443.04,-369.29 453.28,-372 446.97,-363.49 443.04,-369.29"/>
</g>
<!-- Node22 -->
<g id="node22" class="node">
<title>Node22</title>
<g id="a_node22"><a xlink:href="classSystemData.html#a92ce50a4c8b53aa6a490153c1b09ab8a" target="_top" xlink:title="Computes the articulation (linear) velocities of the particles relative to their respective locater p...">
<polygon fill="none" stroke="black" points="440,-333.5 440,-352.5 607,-352.5 607,-333.5 440,-333.5"/>
<text text-anchor="middle" x="523.5" y="-340.5" font-family="Helvetica,sans-Serif" font-size="10.00">SystemData::velocitiesArticulation</text>
</a>
</g>
</g>
<!-- Node6&#45;&gt;Node22 -->
<g id="edge24" class="edge">
<title>Node6&#45;&gt;Node22</title>
<path fill="none" stroke="midnightblue" d="M389.06,-234.59C394.49,-237.04 399.64,-240.13 404,-244 433.15,-269.89 409.86,-299.27 440,-324 442.04,-325.67 444.2,-327.2 446.45,-328.61"/>
<polygon fill="midnightblue" stroke="midnightblue" points="445.05,-331.83 455.53,-333.39 448.32,-325.63 445.05,-331.83"/>
</g>
<!-- Node9 -->
<g id="node9" class="node">
<title>Node9</title>
<g id="a_node9"><a xlink:href="helper__math_8h.html#ae4378072f9d836b0d4770a1514db2be3" target="_top" xlink:title=" ">
<polygon fill="none" stroke="black" points="696,-240.5 696,-259.5 728,-259.5 728,-240.5 696,-240.5"/>
<text text-anchor="middle" x="712" y="-247.5" font-family="Helvetica,sans-Serif" font-size="10.00">abs</text>
</a>
</g>
</g>
<!-- Node8&#45;&gt;Node9 -->
<g id="edge8" class="edge">
<title>Node8&#45;&gt;Node9</title>
<path fill="none" stroke="midnightblue" d="M592.09,-250C624.64,-250 661.7,-250 685.68,-250"/>
<polygon fill="midnightblue" stroke="midnightblue" points="685.71,-253.5 695.71,-250 685.71,-246.5 685.71,-253.5"/>
</g>
<!-- Node10 -->
<g id="node10" class="node">
<title>Node10</title>
<g id="a_node10"><a xlink:href="helper__math_8h.html#a3be05aff487ded3c05aab21d24dd6439" target="_top" xlink:title=" ">
<polygon fill="none" stroke="black" points="817,-240.5 817,-259.5 879,-259.5 879,-240.5 817,-240.5"/>
<text text-anchor="middle" x="848" y="-247.5" font-family="Helvetica,sans-Serif" font-size="10.00">make_int2</text>
</a>
</g>
</g>
<!-- Node9&#45;&gt;Node10 -->
<g id="edge9" class="edge">
<title>Node9&#45;&gt;Node10</title>
<path fill="none" stroke="midnightblue" d="M728.11,-250C747.02,-250 780.15,-250 806.64,-250"/>
<polygon fill="midnightblue" stroke="midnightblue" points="806.79,-253.5 816.79,-250 806.79,-246.5 806.79,-253.5"/>
</g>
<!-- Node13 -->
<g id="node13" class="node">
<title>Node13</title>
<g id="a_node13"><a xlink:href="helper__eigenTensorConversion_8hpp.html#a556d08b55a6ad7cd703b6db06194e5cf" target="_top" xlink:title=" ">
<polygon fill="none" stroke="black" points="679.5,-142.5 679.5,-161.5 744.5,-161.5 744.5,-142.5 679.5,-142.5"/>
<text text-anchor="middle" x="712" y="-149.5" font-family="Helvetica,sans-Serif" font-size="10.00">MatrixCast</text>
</a>
</g>
</g>
<!-- Node12&#45;&gt;Node13 -->
<g id="edge12" class="edge">
<title>Node12&#45;&gt;Node13</title>
<path fill="none" stroke="midnightblue" d="M592.09,-152C617.83,-152 646.4,-152 669.08,-152"/>
<polygon fill="midnightblue" stroke="midnightblue" points="669.38,-155.5 679.38,-152 669.38,-148.5 669.38,-155.5"/>
</g>
<!-- Node15 -->
<g id="node15" class="node">
<title>Node15</title>
<g id="a_node15"><a xlink:href="helper__eigenTensorConversion_8hpp.html#a3a32f7de3f099464192073a93b34d580" target="_top" xlink:title="Convert Eigen::Matrix &#45;&#45;&gt; Eigen::Tensor.">
<polygon fill="none" stroke="black" points="678.5,-98.5 678.5,-117.5 745.5,-117.5 745.5,-98.5 678.5,-98.5"/>
<text text-anchor="middle" x="712" y="-105.5" font-family="Helvetica,sans-Serif" font-size="10.00">TensorCast</text>
</a>
</g>
</g>
<!-- Node12&#45;&gt;Node15 -->
<g id="edge14" class="edge">
<title>Node12&#45;&gt;Node15</title>
<path fill="none" stroke="midnightblue" d="M588.16,-136.98C614.75,-130.71 644.93,-123.59 668.71,-117.98"/>
<polygon fill="midnightblue" stroke="midnightblue" points="669.56,-121.37 678.49,-115.67 667.95,-114.56 669.56,-121.37"/>
</g>
<!-- Node14 -->
<g id="node14" class="node">
<title>Node14</title>
<g id="a_node14"><a xlink:href="helper__eigenTensorConversion_8hpp.html#a2a7eca6b17fb874869047bd0b5f11b46" target="_top" xlink:title="Convert between Eigen::Tensor and Eigen::Matrix classes.">
<polygon fill="none" stroke="black" points="824.5,-142.5 824.5,-161.5 871.5,-161.5 871.5,-142.5 824.5,-142.5"/>
<text text-anchor="middle" x="848" y="-149.5" font-family="Helvetica,sans-Serif" font-size="10.00">asEval</text>
</a>
</g>
</g>
<!-- Node13&#45;&gt;Node14 -->
<g id="edge13" class="edge">
<title>Node13&#45;&gt;Node14</title>
<path fill="none" stroke="midnightblue" d="M744.76,-152C765.68,-152 793.01,-152 814.15,-152"/>
<polygon fill="midnightblue" stroke="midnightblue" points="814.27,-155.5 824.27,-152 814.27,-148.5 814.27,-155.5"/>
</g>
<!-- Node16&#45;&gt;Node15 -->
<g id="edge17" class="edge">
<title>Node16&#45;&gt;Node15</title>
<path fill="none" stroke="midnightblue" d="M596.61,-104.93C620.63,-105.58 646.64,-106.27 667.77,-106.84"/>
<polygon fill="midnightblue" stroke="midnightblue" points="667.94,-110.35 678.03,-107.12 668.13,-103.35 667.94,-110.35"/>
</g>
<!-- Node17 -->
<g id="node17" class="node">
<title>Node17</title>
<g id="a_node17"><a xlink:href="classSystemData.html#ae26a9488a5a2aa80082fba98c7b9d004" target="_top" xlink:title="Computes the E matrix of quaternion (4&#45;vector) input.">
<polygon fill="none" stroke="black" points="657,-60.5 657,-79.5 767,-79.5 767,-60.5 657,-60.5"/>
<text text-anchor="middle" x="712" y="-67.5" font-family="Helvetica,sans-Serif" font-size="10.00">SystemData::eMatrix</text>
</a>
</g>
</g>
<!-- Node16&#45;&gt;Node17 -->
<g id="edge16" class="edge">
<title>Node16&#45;&gt;Node17</title>
<path fill="none" stroke="midnightblue" d="M596.61,-90.24C613.33,-87.28 631.01,-84.15 647.34,-81.26"/>
<polygon fill="midnightblue" stroke="midnightblue" points="648.07,-84.69 657.31,-79.5 646.85,-77.8 648.07,-84.69"/>
</g>
<!-- Node19&#45;&gt;Node15 -->
<g id="edge22" class="edge">
<title>Node19&#45;&gt;Node15</title>
<path fill="none" stroke="midnightblue" d="M576.46,-69C586.6,-71.96 597.14,-75.06 607,-78 623.03,-82.78 626.94,-84.3 643,-89 651.29,-91.42 660.16,-93.95 668.67,-96.34"/>
<polygon fill="midnightblue" stroke="midnightblue" points="667.87,-99.75 678.44,-99.07 669.75,-93.01 667.87,-99.75"/>
</g>
<!-- Node19&#45;&gt;Node17 -->
<g id="edge21" class="edge">
<title>Node19&#45;&gt;Node17</title>
<path fill="none" stroke="midnightblue" d="M597.14,-60.23C613.42,-61.63 630.57,-63.1 646.49,-64.47"/>
<polygon fill="midnightblue" stroke="midnightblue" points="646.49,-67.98 656.76,-65.35 647.09,-61 646.49,-67.98"/>
</g>
<!-- Node20 -->
<g id="node20" class="node">
<title>Node20</title>
<g id="a_node20"><a xlink:href="classSystemData.html#a7cefde66d9e18e2517f11505dd434d0e" target="_top" xlink:title="Function takes in vector in vector cross&#45;product expression: .">
<polygon fill="none" stroke="black" points="643,-22.5 643,-41.5 781,-41.5 781,-22.5 643,-22.5"/>
<text text-anchor="middle" x="712" y="-29.5" font-family="Helvetica,sans-Serif" font-size="10.00">SystemData::crossProdMat</text>
</a>
</g>
</g>
<!-- Node19&#45;&gt;Node20 -->
<g id="edge20" class="edge">
<title>Node19&#45;&gt;Node20</title>
<path fill="none" stroke="midnightblue" d="M597.14,-45.43C608.77,-44.06 620.85,-42.63 632.6,-41.25"/>
<polygon fill="midnightblue" stroke="midnightblue" points="633.31,-44.69 642.83,-40.04 632.49,-37.74 633.31,-44.69"/>
</g>
<!-- Node24 -->
<g id="node24" class="node">
<title>Node24</title>
<g id="a_node24"><a xlink:href="classEngine.html#a86c9f15bc38141e714a923e5f7e37415" target="_top" xlink:title="Updates the simulation framework 1 time step.">
<polygon fill="none" stroke="black" points="297.5,-177.5 297.5,-196.5 387.5,-196.5 387.5,-177.5 297.5,-177.5"/>
<text text-anchor="middle" x="342.5" y="-184.5" font-family="Helvetica,sans-Serif" font-size="10.00">Engine::integrate</text>
</a>
</g>
</g>
<!-- Node23&#45;&gt;Node24 -->
<g id="edge26" class="edge">
<title>Node23&#45;&gt;Node24</title>
<path fill="none" stroke="midnightblue" d="M211.1,-202.25C232.81,-199.71 262.01,-196.29 287.28,-193.34"/>
<polygon fill="midnightblue" stroke="midnightblue" points="287.94,-196.79 297.47,-192.15 287.13,-189.83 287.94,-196.79"/>
</g>
</g>
</svg>
