<?xml version="1.0" encoding="UTF-8" standalone="no"?>
<!DOCTYPE svg PUBLIC "-//W3C//DTD SVG 1.1//EN"
 "http://www.w3.org/Graphics/SVG/1.1/DTD/svg11.dtd">
<!-- Generated by graphviz version 2.49.1 (20210923.0004)
 -->
<!-- Title: TEST_CASE Pages: 1 -->
<svg width="805pt" height="256pt"
 viewBox="0.00 0.00 805.00 256.00" xmlns="http://www.w3.org/2000/svg" xmlns:xlink="http://www.w3.org/1999/xlink">
<g id="graph0" class="graph" transform="scale(1 1) rotate(0) translate(4 252)">
<title>TEST_CASE</title>
<!-- Node1 -->
<g id="node1" class="node">
<title>Node1</title>
<g id="a_node1"><a xlink:title=" ">
<polygon fill="#bfbfbf" stroke="black" points="0,-95.5 0,-114.5 75,-114.5 75,-95.5 0,-95.5"/>
<text text-anchor="middle" x="37.5" y="-102.5" font-family="Helvetica,sans-Serif" font-size="10.00">TEST_CASE</text>
</a>
</g>
</g>
<!-- Node2 -->
<g id="node2" class="node">
<title>Node2</title>
<g id="a_node2"><a xlink:href="gsd_8c.html#ad8933dcce55fd8101b5688f382c10a8e" target="_top" xlink:title=" ">
<polygon fill="none" stroke="black" points="111,-95.5 111,-114.5 171,-114.5 171,-95.5 111,-95.5"/>
<text text-anchor="middle" x="141" y="-102.5" font-family="Helvetica,sans-Serif" font-size="10.00">gsd_open</text>
</a>
</g>
</g>
<!-- Node1&#45;&gt;Node2 -->
<g id="edge1" class="edge">
<title>Node1&#45;&gt;Node2</title>
<path fill="none" stroke="midnightblue" d="M75.14,-105C83.37,-105 92.13,-105 100.47,-105"/>
<polygon fill="midnightblue" stroke="midnightblue" points="100.73,-108.5 110.73,-105 100.73,-101.5 100.73,-108.5"/>
</g>
<!-- Node3 -->
<g id="node3" class="node">
<title>Node3</title>
<g id="a_node3"><a xlink:href="gsd_8c.html#ac159dfbfd790607f85073ad2d8464a8b" target="_top" xlink:title=" ">
<polygon fill="none" stroke="black" points="211.5,-114.5 211.5,-133.5 320.5,-133.5 320.5,-114.5 211.5,-114.5"/>
<text text-anchor="middle" x="266" y="-121.5" font-family="Helvetica,sans-Serif" font-size="10.00">gsd_initialize_handle</text>
</a>
</g>
</g>
<!-- Node2&#45;&gt;Node3 -->
<g id="edge2" class="edge">
<title>Node2&#45;&gt;Node3</title>
<path fill="none" stroke="midnightblue" d="M171.15,-109.5C180.3,-110.92 190.79,-112.54 201.36,-114.17"/>
<polygon fill="midnightblue" stroke="midnightblue" points="201.07,-117.67 211.48,-115.73 202.14,-110.75 201.07,-117.67"/>
</g>
<!-- Node14 -->
<g id="node14" class="node">
<title>Node14</title>
<g id="a_node14"><a xlink:href="gsd_8c.html#a9b05d58560daee2512f03bedf7b2926d" target="_top" xlink:title=" ">
<polygon fill="none" stroke="black" points="207,-76.5 207,-95.5 325,-95.5 325,-76.5 207,-76.5"/>
<text text-anchor="middle" x="266" y="-83.5" font-family="Helvetica,sans-Serif" font-size="10.00">gsd_util_zero_memory</text>
</a>
</g>
</g>
<!-- Node2&#45;&gt;Node14 -->
<g id="edge15" class="edge">
<title>Node2&#45;&gt;Node14</title>
<path fill="none" stroke="midnightblue" d="M171.15,-100.5C178.89,-99.3 187.59,-97.96 196.49,-96.58"/>
<polygon fill="midnightblue" stroke="midnightblue" points="197.23,-100.01 206.58,-95.02 196.16,-93.09 197.23,-100.01"/>
</g>
<!-- Node4 -->
<g id="node4" class="node">
<title>Node4</title>
<g id="a_node4"><a xlink:href="gsd_8c.html#aeaf487909ab334303fa478cf4a126d6f" target="_top" xlink:title=" ">
<polygon fill="none" stroke="black" points="368,-228.5 368,-247.5 496,-247.5 496,-228.5 368,-228.5"/>
<text text-anchor="middle" x="432" y="-235.5" font-family="Helvetica,sans-Serif" font-size="10.00">gsd_byte_buffer_allocate</text>
</a>
</g>
</g>
<!-- Node3&#45;&gt;Node4 -->
<g id="edge3" class="edge">
<title>Node3&#45;&gt;Node4</title>
<path fill="none" stroke="midnightblue" d="M274.51,-133.55C289.24,-151.68 323.76,-191.32 361,-214 368.02,-218.28 375.91,-221.91 383.78,-224.96"/>
<polygon fill="midnightblue" stroke="midnightblue" points="382.73,-228.31 393.33,-228.4 385.1,-221.72 382.73,-228.31"/>
</g>
<!-- Node5 -->
<g id="node5" class="node">
<title>Node5</title>
<g id="a_node5"><a xlink:href="gsd_8c.html#ae1948c93f77d642c4e3797fe7e5f2095" target="_top" xlink:title=" ">
<polygon fill="none" stroke="black" points="539,-190.5 539,-209.5 672,-209.5 672,-190.5 539,-190.5"/>
<text text-anchor="middle" x="605.5" y="-197.5" font-family="Helvetica,sans-Serif" font-size="10.00">gsd_index_buffer_allocate</text>
</a>
</g>
</g>
<!-- Node3&#45;&gt;Node5 -->
<g id="edge4" class="edge">
<title>Node3&#45;&gt;Node5</title>
<path fill="none" stroke="midnightblue" d="M278.57,-133.53C295.48,-146.83 328.48,-170.53 361,-181 415.26,-198.47 479.69,-202.83 528.63,-203.03"/>
<polygon fill="midnightblue" stroke="midnightblue" points="528.84,-206.53 538.83,-203.02 528.83,-199.53 528.84,-206.53"/>
</g>
<!-- Node6 -->
<g id="node6" class="node">
<title>Node6</title>
<g id="a_node6"><a xlink:href="gsd_8c.html#a6fe75caf6c4df550af2455a0c40bfbdf" target="_top" xlink:title=" ">
<polygon fill="none" stroke="black" points="373,-152.5 373,-171.5 491,-171.5 491,-152.5 373,-152.5"/>
<text text-anchor="middle" x="432" y="-159.5" font-family="Helvetica,sans-Serif" font-size="10.00">gsd_index_buffer_map</text>
</a>
</g>
</g>
<!-- Node3&#45;&gt;Node6 -->
<g id="edge5" class="edge">
<title>Node3&#45;&gt;Node6</title>
<path fill="none" stroke="midnightblue" d="M308.38,-133.59C330.12,-138.63 356.96,-144.84 379.97,-150.18"/>
<polygon fill="midnightblue" stroke="midnightblue" points="379.38,-153.63 389.91,-152.48 380.96,-146.81 379.38,-153.63"/>
</g>
<!-- Node7 -->
<g id="node7" class="node">
<title>Node7</title>
<g id="a_node7"><a xlink:href="gsd_8c.html#ac1f41abbefbfe35337e7053d766c089b" target="_top" xlink:title=" ">
<polygon fill="none" stroke="black" points="554,-114.5 554,-133.5 657,-133.5 657,-114.5 554,-114.5"/>
<text text-anchor="middle" x="605.5" y="-121.5" font-family="Helvetica,sans-Serif" font-size="10.00">gsd_io_pread_retry</text>
</a>
</g>
</g>
<!-- Node3&#45;&gt;Node7 -->
<g id="edge10" class="edge">
<title>Node3&#45;&gt;Node7</title>
<path fill="none" stroke="midnightblue" d="M320.85,-124C381.58,-124 480.13,-124 543.61,-124"/>
<polygon fill="midnightblue" stroke="midnightblue" points="543.87,-127.5 553.87,-124 543.87,-120.5 543.87,-127.5"/>
</g>
<!-- Node10 -->
<g id="node10" class="node">
<title>Node10</title>
<g id="a_node10"><a xlink:href="gsd_8c.html#a493ef951956c9f98adff89a80ddb3fa6" target="_top" xlink:title=" ">
<polygon fill="none" stroke="black" points="382,-76.5 382,-95.5 482,-95.5 482,-76.5 382,-76.5"/>
<text text-anchor="middle" x="432" y="-83.5" font-family="Helvetica,sans-Serif" font-size="10.00">gsd_make_version</text>
</a>
</g>
</g>
<!-- Node3&#45;&gt;Node10 -->
<g id="edge11" class="edge">
<title>Node3&#45;&gt;Node10</title>
<path fill="none" stroke="midnightblue" d="M308.38,-114.41C330.12,-109.37 356.96,-103.16 379.97,-97.82"/>
<polygon fill="midnightblue" stroke="midnightblue" points="380.96,-101.19 389.91,-95.52 379.38,-94.37 380.96,-101.19"/>
</g>
<!-- Node11 -->
<g id="node11" class="node">
<title>Node11</title>
<g id="a_node11"><a xlink:href="gsd_8c.html#aebfeb70fcbc089409a7179af7d814554" target="_top" xlink:title=" ">
<polygon fill="none" stroke="black" points="361,-38.5 361,-57.5 503,-57.5 503,-38.5 361,-38.5"/>
<text text-anchor="middle" x="432" y="-45.5" font-family="Helvetica,sans-Serif" font-size="10.00">gsd_name_id_map_allocate</text>
</a>
</g>
</g>
<!-- Node3&#45;&gt;Node11 -->
<g id="edge12" class="edge">
<title>Node3&#45;&gt;Node11</title>
<path fill="none" stroke="midnightblue" d="M305.35,-114.43C312.17,-111.91 319,-108.8 325,-105 344.66,-92.55 341.03,-78.94 361,-67 364.65,-64.82 368.55,-62.88 372.58,-61.17"/>
<polygon fill="midnightblue" stroke="midnightblue" points="374.03,-64.36 382.14,-57.54 371.55,-57.81 374.03,-64.36"/>
</g>
<!-- Node12 -->
<g id="node12" class="node">
<title>Node12</title>
<g id="a_node12"><a xlink:href="gsd_8c.html#a6c8c2e5a49ac4eb01a95be2e0df06eb9" target="_top" xlink:title=" ">
<polygon fill="none" stroke="black" points="366,-0.5 366,-19.5 498,-19.5 498,-0.5 366,-0.5"/>
<text text-anchor="middle" x="432" y="-7.5" font-family="Helvetica,sans-Serif" font-size="10.00">gsd_name_id_map_insert</text>
</a>
</g>
</g>
<!-- Node3&#45;&gt;Node12 -->
<g id="edge13" class="edge">
<title>Node3&#45;&gt;Node12</title>
<path fill="none" stroke="midnightblue" d="M310.03,-114.38C315.46,-111.93 320.63,-108.85 325,-105 353.04,-80.29 332.34,-52.98 361,-29 363.03,-27.3 365.19,-25.76 367.46,-24.35"/>
<polygon fill="midnightblue" stroke="midnightblue" points="369.39,-27.29 376.64,-19.56 366.16,-21.08 369.39,-27.29"/>
</g>
<!-- Node6&#45;&gt;Node5 -->
<g id="edge6" class="edge">
<title>Node6&#45;&gt;Node5</title>
<path fill="none" stroke="midnightblue" d="M476.28,-171.59C499.11,-176.65 527.32,-182.9 551.46,-188.25"/>
<polygon fill="midnightblue" stroke="midnightblue" points="551.01,-191.73 561.53,-190.48 552.53,-184.9 551.01,-191.73"/>
</g>
<!-- Node6&#45;&gt;Node7 -->
<g id="edge7" class="edge">
<title>Node6&#45;&gt;Node7</title>
<path fill="none" stroke="midnightblue" d="M476.28,-152.41C499.11,-147.35 527.32,-141.1 551.46,-135.75"/>
<polygon fill="midnightblue" stroke="midnightblue" points="552.53,-139.1 561.53,-133.52 551.01,-132.27 552.53,-139.1"/>
</g>
<!-- Node8 -->
<g id="node8" class="node">
<title>Node8</title>
<g id="a_node8"><a xlink:href="gsd_8c.html#ab5d19295bedec41b7919caec2cb22759" target="_top" xlink:title=" ">
<polygon fill="none" stroke="black" points="556,-152.5 556,-171.5 655,-171.5 655,-152.5 556,-152.5"/>
<text text-anchor="middle" x="605.5" y="-159.5" font-family="Helvetica,sans-Serif" font-size="10.00">gsd_is_entry_valid</text>
</a>
</g>
</g>
<!-- Node6&#45;&gt;Node8 -->
<g id="edge8" class="edge">
<title>Node6&#45;&gt;Node8</title>
<path fill="none" stroke="midnightblue" d="M491.06,-162C508.69,-162 528.07,-162 545.74,-162"/>
<polygon fill="midnightblue" stroke="midnightblue" points="545.92,-165.5 555.92,-162 545.92,-158.5 545.92,-165.5"/>
</g>
<!-- Node9 -->
<g id="node9" class="node">
<title>Node9</title>
<g id="a_node9"><a xlink:href="gsd_8c.html#ab1d1a8a5f73b37df0c706f41df3bdd69" target="_top" xlink:title=" ">
<polygon fill="none" stroke="black" points="708,-152.5 708,-171.5 797,-171.5 797,-152.5 708,-152.5"/>
<text text-anchor="middle" x="752.5" y="-159.5" font-family="Helvetica,sans-Serif" font-size="10.00">gsd_sizeof_type</text>
</a>
</g>
</g>
<!-- Node8&#45;&gt;Node9 -->
<g id="edge9" class="edge">
<title>Node8&#45;&gt;Node9</title>
<path fill="none" stroke="midnightblue" d="M655.19,-162C668.69,-162 683.44,-162 697.24,-162"/>
<polygon fill="midnightblue" stroke="midnightblue" points="697.58,-165.5 707.58,-162 697.58,-158.5 697.58,-165.5"/>
</g>
<!-- Node13 -->
<g id="node13" class="node">
<title>Node13</title>
<g id="a_node13"><a xlink:href="gsd_8c.html#a6d8087323ec29c58d907b9462b4a31da" target="_top" xlink:title=" ">
<polygon fill="none" stroke="black" points="567,-0.5 567,-19.5 644,-19.5 644,-0.5 567,-0.5"/>
<text text-anchor="middle" x="605.5" y="-7.5" font-family="Helvetica,sans-Serif" font-size="10.00">gsd_hash_str</text>
</a>
</g>
</g>
<!-- Node12&#45;&gt;Node13 -->
<g id="edge14" class="edge">
<title>Node12&#45;&gt;Node13</title>
<path fill="none" stroke="midnightblue" d="M498.33,-10C517.63,-10 538.41,-10 556.42,-10"/>
<polygon fill="midnightblue" stroke="midnightblue" points="556.67,-13.5 566.67,-10 556.67,-6.5 556.67,-13.5"/>
</g>
</g>
</svg>
