<?xml version="1.0" encoding="UTF-8" standalone="no"?>
<!DOCTYPE svg PUBLIC "-//W3C//DTD SVG 1.1//EN"
 "http://www.w3.org/Graphics/SVG/1.1/DTD/svg11.dtd">
<!-- Generated by graphviz version 2.43.0 (0)
 -->
<!-- Title: test/testSimulationBuild.cpp Pages: 1 -->
<svg width="1826pt" height="442pt"
 viewBox="0.00 0.00 1826.00 442.00" xmlns="http://www.w3.org/2000/svg" xmlns:xlink="http://www.w3.org/1999/xlink">
<g id="graph0" class="graph" transform="scale(1 1) rotate(0) translate(4 438)">
<title>test/testSimulationBuild.cpp</title>
<!-- Node1 -->
<g id="node1" class="node">
<title>Node1</title>
<g id="a_node1"><a xlink:title=" ">
<polygon fill="#bfbfbf" stroke="black" points="1552.5,-414.5 1552.5,-433.5 1691.5,-433.5 1691.5,-414.5 1552.5,-414.5"/>
<text text-anchor="middle" x="1622" y="-421.5" font-family="Helvetica,sans-Serif" font-size="10.00">test/testSimulationBuild.cpp</text>
</a>
</g>
</g>
<!-- Node2 -->
<g id="node2" class="node">
<title>Node2</title>
<g id="a_node2"><a xlink:href="engine_8hpp.html" target="_top" xlink:title=" ">
<polygon fill="none" stroke="black" points="852,-358.5 852,-377.5 916,-377.5 916,-358.5 852,-358.5"/>
<text text-anchor="middle" x="884" y="-365.5" font-family="Helvetica,sans-Serif" font-size="10.00">engine.hpp</text>
</a>
</g>
</g>
<!-- Node1&#45;&gt;Node2 -->
<g id="edge1" class="edge">
<title>Node1&#45;&gt;Node2</title>
<path fill="none" stroke="midnightblue" d="M1552.24,-417.9C1401.24,-406.85 1047.92,-380.99 926.14,-372.08"/>
<polygon fill="midnightblue" stroke="midnightblue" points="926.32,-368.59 916.09,-371.35 925.81,-375.57 926.32,-368.59"/>
</g>
<!-- Node4 -->
<g id="node4" class="node">
<title>Node4</title>
<g id="a_node4"><a xlink:href="systemData_8hpp.html" target="_top" xlink:title=" ">
<polygon fill="none" stroke="black" points="1025.5,-190.5 1025.5,-209.5 1114.5,-209.5 1114.5,-190.5 1025.5,-190.5"/>
<text text-anchor="middle" x="1070" y="-197.5" font-family="Helvetica,sans-Serif" font-size="10.00">systemData.hpp</text>
</a>
</g>
</g>
<!-- Node1&#45;&gt;Node4 -->
<g id="edge66" class="edge">
<title>Node1&#45;&gt;Node4</title>
<path fill="none" stroke="midnightblue" d="M1601.23,-414.38C1538.75,-388.5 1346.97,-309.3 1187,-246 1158.49,-234.72 1125.93,-222.23 1102.41,-213.27"/>
<polygon fill="midnightblue" stroke="midnightblue" points="1103.51,-209.95 1092.92,-209.67 1101.02,-216.49 1103.51,-209.95"/>
</g>
<!-- Node6 -->
<g id="node6" class="node">
<title>Node6</title>
<g id="a_node6"><a xlink:href="gsd_8h.html" target="_top" xlink:title="Declare GSD data types and C API.">
<polygon fill="none" stroke="black" points="1309.5,-62 1309.5,-81 1350.5,-81 1350.5,-62 1309.5,-62"/>
<text text-anchor="middle" x="1330" y="-69" font-family="Helvetica,sans-Serif" font-size="10.00">gsd.h</text>
</a>
</g>
</g>
<!-- Node1&#45;&gt;Node6 -->
<g id="edge68" class="edge">
<title>Node1&#45;&gt;Node6</title>
<path fill="none" stroke="midnightblue" d="M1614.85,-414.06C1585.6,-377.54 1472,-236.23 1375,-123 1365.09,-111.43 1353.67,-98.63 1344.82,-88.8"/>
<polygon fill="midnightblue" stroke="midnightblue" points="1347.38,-86.41 1338.07,-81.35 1342.19,-91.11 1347.38,-86.41"/>
</g>
<!-- Node12 -->
<g id="node12" class="node">
<title>Node12</title>
<g id="a_node12"><a xlink:title=" ">
<polygon fill="none" stroke="#bfbfbf" points="1500,-62 1500,-81 1552,-81 1552,-62 1500,-62"/>
<text text-anchor="middle" x="1526" y="-69" font-family="Helvetica,sans-Serif" font-size="10.00">memory</text>
</a>
</g>
</g>
<!-- Node1&#45;&gt;Node12 -->
<g id="edge69" class="edge">
<title>Node1&#45;&gt;Node12</title>
<path fill="none" stroke="midnightblue" d="M1621.47,-414.41C1619.75,-388.59 1613.5,-309.57 1598,-246 1584.25,-189.59 1577.93,-175.9 1554,-123 1548.91,-111.75 1542.23,-99.63 1536.68,-90.08"/>
<polygon fill="midnightblue" stroke="midnightblue" points="1539.52,-88.02 1531.41,-81.21 1533.51,-91.6 1539.52,-88.02"/>
</g>
<!-- Node14 -->
<g id="node14" class="node">
<title>Node14</title>
<g id="a_node14"><a xlink:title=" ">
<polygon fill="none" stroke="#bfbfbf" points="1620.5,-62 1620.5,-81 1661.5,-81 1661.5,-62 1620.5,-62"/>
<text text-anchor="middle" x="1641" y="-69" font-family="Helvetica,sans-Serif" font-size="10.00">string</text>
</a>
</g>
</g>
<!-- Node1&#45;&gt;Node14 -->
<g id="edge70" class="edge">
<title>Node1&#45;&gt;Node14</title>
<path fill="none" stroke="midnightblue" d="M1635.2,-414.46C1646.84,-406.33 1663.53,-393.12 1674,-378 1691.53,-352.68 1698,-343.8 1698,-313 1698,-313 1698,-313 1698,-199 1698,-156.47 1670.89,-112.43 1654.06,-89.2"/>
<polygon fill="midnightblue" stroke="midnightblue" points="1656.79,-87 1647.99,-81.1 1651.18,-91.2 1656.79,-87"/>
</g>
<!-- Node29 -->
<g id="node29" class="node">
<title>Node29</title>
<g id="a_node29"><a xlink:title=" ">
<polygon fill="none" stroke="#bfbfbf" points="1726,-358.5 1726,-377.5 1818,-377.5 1818,-358.5 1726,-358.5"/>
<text text-anchor="middle" x="1772" y="-365.5" font-family="Helvetica,sans-Serif" font-size="10.00">catch2/catch.hpp</text>
</a>
</g>
</g>
<!-- Node1&#45;&gt;Node29 -->
<g id="edge67" class="edge">
<title>Node1&#45;&gt;Node29</title>
<path fill="none" stroke="midnightblue" d="M1645.77,-414.44C1670.89,-405.4 1710.71,-391.06 1738.9,-380.92"/>
<polygon fill="midnightblue" stroke="midnightblue" points="1740.12,-384.2 1748.34,-377.52 1737.75,-377.61 1740.12,-384.2"/>
</g>
<!-- Node3 -->
<g id="node3" class="node">
<title>Node3</title>
<g id="a_node3"><a xlink:href="potentialHydrodynamics_8hpp.html" target="_top" xlink:title=" ">
<polygon fill="none" stroke="black" points="370,-246.5 370,-265.5 510,-265.5 510,-246.5 370,-246.5"/>
<text text-anchor="middle" x="440" y="-253.5" font-family="Helvetica,sans-Serif" font-size="10.00">potentialHydrodynamics.hpp</text>
</a>
</g>
</g>
<!-- Node2&#45;&gt;Node3 -->
<g id="edge2" class="edge">
<title>Node2&#45;&gt;Node3</title>
<path fill="none" stroke="midnightblue" d="M851.68,-367.41C789.52,-367.2 649.84,-361.87 541,-322 509.25,-310.37 477.2,-287.39 457.96,-272.11"/>
<polygon fill="midnightblue" stroke="midnightblue" points="460.04,-269.29 450.08,-265.7 455.63,-274.72 460.04,-269.29"/>
</g>
<!-- Node2&#45;&gt;Node4 -->
<g id="edge54" class="edge">
<title>Node2&#45;&gt;Node4</title>
<path fill="none" stroke="midnightblue" d="M916.19,-367.91C980.14,-367.69 1121.31,-356.52 1171,-266 1185.37,-239.83 1152.07,-222.6 1119.92,-212.49"/>
<polygon fill="midnightblue" stroke="midnightblue" points="1120.62,-209.05 1110.04,-209.59 1118.65,-215.77 1120.62,-209.05"/>
</g>
<!-- Node10 -->
<g id="node10" class="node">
<title>Node10</title>
<g id="a_node10"><a xlink:title=" ">
<polygon fill="none" stroke="#bfbfbf" points="785,-56.5 785,-86.5 883,-86.5 883,-56.5 785,-56.5"/>
<text text-anchor="start" x="793" y="-74.5" font-family="Helvetica,sans-Serif" font-size="10.00">spdlog/sinks/basic</text>
<text text-anchor="middle" x="834" y="-63.5" font-family="Helvetica,sans-Serif" font-size="10.00">_file_sink.h</text>
</a>
</g>
</g>
<!-- Node2&#45;&gt;Node10 -->
<g id="edge60" class="edge">
<title>Node2&#45;&gt;Node10</title>
<path fill="none" stroke="midnightblue" d="M892.8,-358.25C911.26,-338.81 951.34,-290.23 939,-246 922.22,-185.86 878.31,-125.79 852.9,-94.55"/>
<polygon fill="midnightblue" stroke="midnightblue" points="855.33,-92 846.26,-86.52 849.94,-96.46 855.33,-92"/>
</g>
<!-- Node11 -->
<g id="node11" class="node">
<title>Node11</title>
<g id="a_node11"><a xlink:title=" ">
<polygon fill="none" stroke="#bfbfbf" points="977.5,-62 977.5,-81 1062.5,-81 1062.5,-62 977.5,-62"/>
<text text-anchor="middle" x="1020" y="-69" font-family="Helvetica,sans-Serif" font-size="10.00">spdlog/spdlog.h</text>
</a>
</g>
</g>
<!-- Node2&#45;&gt;Node11 -->
<g id="edge61" class="edge">
<title>Node2&#45;&gt;Node11</title>
<path fill="none" stroke="midnightblue" d="M916.14,-364.36C976.94,-358.9 1106.07,-344.93 1144,-322 1170.86,-305.77 1174.08,-294.6 1187,-266 1213.48,-207.4 1248.16,-174 1209,-123 1192.45,-101.45 1122.78,-87.11 1072.84,-79.39"/>
<polygon fill="midnightblue" stroke="midnightblue" points="1073.23,-75.91 1062.82,-77.89 1072.19,-82.83 1073.23,-75.91"/>
</g>
<!-- Node2&#45;&gt;Node12 -->
<g id="edge63" class="edge">
<title>Node2&#45;&gt;Node12</title>
<path fill="none" stroke="midnightblue" d="M916.18,-367.35C996.5,-367.54 1211.81,-363.77 1385,-322 1460.02,-303.91 1546,-334.17 1546,-257 1546,-257 1546,-257 1546,-199 1546,-160.05 1536.64,-115.18 1530.72,-90.72"/>
<polygon fill="midnightblue" stroke="midnightblue" points="1534.12,-89.87 1528.29,-81.02 1527.33,-91.57 1534.12,-89.87"/>
</g>
<!-- Node13 -->
<g id="node13" class="node">
<title>Node13</title>
<g id="a_node13"><a xlink:title=" ">
<polygon fill="none" stroke="#bfbfbf" points="1402.5,-62 1402.5,-81 1461.5,-81 1461.5,-62 1402.5,-62"/>
<text text-anchor="middle" x="1432" y="-69" font-family="Helvetica,sans-Serif" font-size="10.00">stdexcept</text>
</a>
</g>
</g>
<!-- Node2&#45;&gt;Node13 -->
<g id="edge64" class="edge">
<title>Node2&#45;&gt;Node13</title>
<path fill="none" stroke="midnightblue" d="M916.23,-364.77C1044.01,-355.51 1508,-317.71 1508,-257 1508,-257 1508,-257 1508,-199 1508,-153.62 1471.62,-110.48 1449.2,-88.2"/>
<polygon fill="midnightblue" stroke="midnightblue" points="1451.57,-85.63 1441.94,-81.23 1446.72,-90.68 1451.57,-85.63"/>
</g>
<!-- Node2&#45;&gt;Node14 -->
<g id="edge65" class="edge">
<title>Node2&#45;&gt;Node14</title>
<path fill="none" stroke="midnightblue" d="M916.08,-366.48C1022.52,-364.47 1363.14,-355.49 1467,-322 1512.56,-307.31 1527.71,-302.23 1559,-266 1605.47,-212.2 1628.7,-128.2 1637.15,-91.14"/>
<polygon fill="midnightblue" stroke="midnightblue" points="1640.6,-91.75 1639.31,-81.23 1633.76,-90.26 1640.6,-91.75"/>
</g>
<!-- Node16 -->
<g id="node16" class="node">
<title>Node16</title>
<g id="a_node16"><a xlink:title=" ">
<polygon fill="none" stroke="#bfbfbf" points="289.5,-62 289.5,-81 386.5,-81 386.5,-62 289.5,-62"/>
<text text-anchor="middle" x="338" y="-69" font-family="Helvetica,sans-Serif" font-size="10.00">eigen3/Eigen/Core</text>
</a>
</g>
</g>
<!-- Node2&#45;&gt;Node16 -->
<g id="edge55" class="edge">
<title>Node2&#45;&gt;Node16</title>
<path fill="none" stroke="midnightblue" d="M851.79,-366.25C712.06,-362.83 164.33,-347.81 139,-322 77.01,-258.84 77.38,-192.63 132,-123 150.04,-100 224.94,-86.11 279.23,-78.87"/>
<polygon fill="midnightblue" stroke="midnightblue" points="279.98,-82.3 289.45,-77.55 279.08,-75.36 279.98,-82.3"/>
</g>
<!-- Node17 -->
<g id="node17" class="node">
<title>Node17</title>
<g id="a_node17"><a xlink:title=" ">
<polygon fill="none" stroke="#bfbfbf" points="25.5,-62 25.5,-81 126.5,-81 126.5,-62 25.5,-62"/>
<text text-anchor="middle" x="76" y="-69" font-family="Helvetica,sans-Serif" font-size="10.00">eigen3/Eigen/Eigen</text>
</a>
</g>
</g>
<!-- Node2&#45;&gt;Node17 -->
<g id="edge56" class="edge">
<title>Node2&#45;&gt;Node17</title>
<path fill="none" stroke="midnightblue" d="M851.65,-366.98C724.59,-366.59 259.83,-362.4 119,-322 61.07,-305.38 0,-317.26 0,-257 0,-257 0,-257 0,-199 0,-153.62 36.38,-110.48 58.8,-88.2"/>
<polygon fill="midnightblue" stroke="midnightblue" points="61.28,-90.68 66.06,-81.23 56.43,-85.63 61.28,-90.68"/>
</g>
<!-- Node18 -->
<g id="node18" class="node">
<title>Node18</title>
<g id="a_node18"><a xlink:title=" ">
<polygon fill="none" stroke="#bfbfbf" points="657,-56.5 657,-86.5 767,-86.5 767,-56.5 657,-56.5"/>
<text text-anchor="start" x="665" y="-74.5" font-family="Helvetica,sans-Serif" font-size="10.00">eigen3/unsupported</text>
<text text-anchor="middle" x="712" y="-63.5" font-family="Helvetica,sans-Serif" font-size="10.00">/Eigen/CXX11/Tensor</text>
</a>
</g>
</g>
<!-- Node2&#45;&gt;Node18 -->
<g id="edge57" class="edge">
<title>Node2&#45;&gt;Node18</title>
<path fill="none" stroke="midnightblue" d="M878.85,-358.19C855.72,-318.58 760.97,-156.34 725.49,-95.6"/>
<polygon fill="midnightblue" stroke="midnightblue" points="728.39,-93.63 720.33,-86.76 722.35,-97.16 728.39,-93.63"/>
</g>
<!-- Node19 -->
<g id="node19" class="node">
<title>Node19</title>
<g id="a_node19"><a xlink:title=" ">
<polygon fill="none" stroke="#bfbfbf" points="480.5,-123.5 480.5,-153.5 611.5,-153.5 611.5,-123.5 480.5,-123.5"/>
<text text-anchor="start" x="488.5" y="-141.5" font-family="Helvetica,sans-Serif" font-size="10.00">eigen3/unsupported</text>
<text text-anchor="middle" x="546" y="-130.5" font-family="Helvetica,sans-Serif" font-size="10.00">/Eigen/CXX11/ThreadPool</text>
</a>
</g>
</g>
<!-- Node2&#45;&gt;Node19 -->
<g id="edge58" class="edge">
<title>Node2&#45;&gt;Node19</title>
<path fill="none" stroke="midnightblue" d="M851.67,-364.35C793.94,-359.07 676.05,-345.67 643,-322 588.49,-282.96 561.87,-203.67 551.47,-163.7"/>
<polygon fill="midnightblue" stroke="midnightblue" points="554.81,-162.62 549.01,-153.76 548.02,-164.3 554.81,-162.62"/>
</g>
<!-- Node20 -->
<g id="node20" class="node">
<title>Node20</title>
<g id="a_node20"><a xlink:href="helper__eigenTensorConversion_8hpp.html" target="_top" xlink:title=" ">
<polygon fill="none" stroke="black" points="141.5,-129 141.5,-148 310.5,-148 310.5,-129 141.5,-129"/>
<text text-anchor="middle" x="226" y="-136" font-family="Helvetica,sans-Serif" font-size="10.00">helper_eigenTensorConversion.hpp</text>
</a>
</g>
</g>
<!-- Node2&#45;&gt;Node20 -->
<g id="edge59" class="edge">
<title>Node2&#45;&gt;Node20</title>
<path fill="none" stroke="midnightblue" d="M851.97,-365.34C785.52,-361.43 628.1,-349.82 499,-322 418.75,-304.71 394.02,-307.17 323,-266 291.16,-247.54 284.28,-239.3 262,-210 249.68,-193.8 239.57,-172.76 233.23,-157.89"/>
<polygon fill="midnightblue" stroke="midnightblue" points="236.34,-156.24 229.31,-148.32 229.86,-158.9 236.34,-156.24"/>
</g>
<!-- Node22 -->
<g id="node22" class="node">
<title>Node22</title>
<g id="a_node22"><a xlink:href="progressBar_8hpp.html" target="_top" xlink:title=" ">
<polygon fill="none" stroke="black" points="986,-302.5 986,-321.5 1074,-321.5 1074,-302.5 986,-302.5"/>
<text text-anchor="middle" x="1030" y="-309.5" font-family="Helvetica,sans-Serif" font-size="10.00">progressBar.hpp</text>
</a>
</g>
</g>
<!-- Node2&#45;&gt;Node22 -->
<g id="edge38" class="edge">
<title>Node2&#45;&gt;Node22</title>
<path fill="none" stroke="midnightblue" d="M907.13,-358.44C931.48,-349.44 970.01,-335.19 997.42,-325.05"/>
<polygon fill="midnightblue" stroke="midnightblue" points="998.81,-328.27 1006.97,-321.52 996.38,-321.7 998.81,-328.27"/>
</g>
<!-- Node27 -->
<g id="node27" class="node">
<title>Node27</title>
<g id="a_node27"><a xlink:href="rungeKutta4_8hpp.html" target="_top" xlink:title=" ">
<polygon fill="none" stroke="black" points="652,-302.5 652,-321.5 740,-321.5 740,-302.5 652,-302.5"/>
<text text-anchor="middle" x="696" y="-309.5" font-family="Helvetica,sans-Serif" font-size="10.00">rungeKutta4.hpp</text>
</a>
</g>
</g>
<!-- Node2&#45;&gt;Node27 -->
<g id="edge43" class="edge">
<title>Node2&#45;&gt;Node27</title>
<path fill="none" stroke="midnightblue" d="M854.21,-358.44C822.17,-349.24 771.07,-334.56 735.65,-324.39"/>
<polygon fill="midnightblue" stroke="midnightblue" points="736.23,-320.91 725.65,-321.52 734.29,-327.64 736.23,-320.91"/>
</g>
<!-- Node28 -->
<g id="node28" class="node">
<title>Node28</title>
<g id="a_node28"><a xlink:title=" ">
<polygon fill="none" stroke="#bfbfbf" points="148.5,-302.5 148.5,-321.5 195.5,-321.5 195.5,-302.5 148.5,-302.5"/>
<text text-anchor="middle" x="172" y="-309.5" font-family="Helvetica,sans-Serif" font-size="10.00">math.h</text>
</a>
</g>
</g>
<!-- Node2&#45;&gt;Node28 -->
<g id="edge62" class="edge">
<title>Node2&#45;&gt;Node28</title>
<path fill="none" stroke="midnightblue" d="M851.87,-366.74C754.6,-365.55 454.97,-358.93 210,-322 208.53,-321.78 207.04,-321.53 205.54,-321.26"/>
<polygon fill="midnightblue" stroke="midnightblue" points="206.1,-317.8 195.6,-319.23 204.7,-324.66 206.1,-317.8"/>
</g>
<!-- Node3&#45;&gt;Node4 -->
<g id="edge3" class="edge">
<title>Node3&#45;&gt;Node4</title>
<path fill="none" stroke="midnightblue" d="M510.13,-248.99C636.72,-238.14 900.83,-215.5 1015.22,-205.7"/>
<polygon fill="midnightblue" stroke="midnightblue" points="1015.82,-209.16 1025.49,-204.82 1015.23,-202.18 1015.82,-209.16"/>
</g>
<!-- Node3&#45;&gt;Node10 -->
<g id="edge36" class="edge">
<title>Node3&#45;&gt;Node10</title>
<path fill="none" stroke="midnightblue" d="M436.32,-246.22C427.16,-222.81 406.28,-158.28 438,-123 486.58,-68.97 685.63,-97.78 774.69,-86.81"/>
<polygon fill="midnightblue" stroke="midnightblue" points="775.36,-90.25 784.74,-85.31 774.33,-83.32 775.36,-90.25"/>
</g>
<!-- Node3&#45;&gt;Node11 -->
<g id="edge37" class="edge">
<title>Node3&#45;&gt;Node11</title>
<path fill="none" stroke="midnightblue" d="M438.95,-246.2C436.64,-222.15 433.95,-155.02 471,-123 506.52,-92.3 845.28,-91.64 892,-87 916.81,-84.53 944.29,-81.47 967.41,-78.79"/>
<polygon fill="midnightblue" stroke="midnightblue" points="967.84,-82.26 977.36,-77.63 967.03,-75.31 967.84,-82.26"/>
</g>
<!-- Node3&#45;&gt;Node16 -->
<g id="edge31" class="edge">
<title>Node3&#45;&gt;Node16</title>
<path fill="none" stroke="midnightblue" d="M413.44,-246.4C396.06,-239.38 374.36,-227.68 362,-210 336.74,-173.87 335.26,-119.65 336.52,-91.3"/>
<polygon fill="midnightblue" stroke="midnightblue" points="340.02,-91.36 337.14,-81.17 333.04,-90.93 340.02,-91.36"/>
</g>
<!-- Node3&#45;&gt;Node17 -->
<g id="edge32" class="edge">
<title>Node3&#45;&gt;Node17</title>
<path fill="none" stroke="midnightblue" d="M374.21,-246.47C307.44,-235.03 203.92,-209.33 132,-154 109.84,-136.95 93.21,-108.62 84.05,-90.25"/>
<polygon fill="midnightblue" stroke="midnightblue" points="87.2,-88.73 79.73,-81.21 80.88,-91.74 87.2,-88.73"/>
</g>
<!-- Node3&#45;&gt;Node18 -->
<g id="edge33" class="edge">
<title>Node3&#45;&gt;Node18</title>
<path fill="none" stroke="midnightblue" d="M428.73,-246.43C419.03,-238.27 405.72,-225.05 400,-210 386.26,-173.86 374.94,-152.44 400,-123 431.04,-86.54 564.78,-76.32 646.75,-73.51"/>
<polygon fill="midnightblue" stroke="midnightblue" points="647.09,-77 656.98,-73.19 646.87,-70 647.09,-77"/>
</g>
<!-- Node3&#45;&gt;Node19 -->
<g id="edge34" class="edge">
<title>Node3&#45;&gt;Node19</title>
<path fill="none" stroke="midnightblue" d="M447.97,-246.32C464.46,-228.35 502.77,-186.61 526.32,-160.95"/>
<polygon fill="midnightblue" stroke="midnightblue" points="528.93,-163.28 533.11,-153.55 523.77,-158.55 528.93,-163.28"/>
</g>
<!-- Node3&#45;&gt;Node20 -->
<g id="edge35" class="edge">
<title>Node3&#45;&gt;Node20</title>
<path fill="none" stroke="midnightblue" d="M411.94,-246.35C387.88,-238.41 352.67,-225.55 324,-210 294.12,-193.8 262.77,-169.83 243.81,-154.44"/>
<polygon fill="midnightblue" stroke="midnightblue" points="245.96,-151.68 236.01,-148.03 241.51,-157.09 245.96,-151.68"/>
</g>
<!-- Node5 -->
<g id="node5" class="node">
<title>Node5</title>
<g id="a_node5"><a xlink:href="GSDUtil_8hpp.html" target="_top" xlink:title=" ">
<polygon fill="none" stroke="black" points="1294,-129 1294,-148 1366,-148 1366,-129 1294,-129"/>
<text text-anchor="middle" x="1330" y="-136" font-family="Helvetica,sans-Serif" font-size="10.00">GSDUtil.hpp</text>
</a>
</g>
</g>
<!-- Node4&#45;&gt;Node5 -->
<g id="edge4" class="edge">
<title>Node4&#45;&gt;Node5</title>
<path fill="none" stroke="midnightblue" d="M1102.35,-190.48C1148.13,-179.45 1231.71,-160.31 1283.93,-148.88"/>
<polygon fill="midnightblue" stroke="midnightblue" points="1284.91,-152.25 1293.94,-146.7 1283.42,-145.41 1284.91,-152.25"/>
</g>
<!-- Node4&#45;&gt;Node6 -->
<g id="edge15" class="edge">
<title>Node4&#45;&gt;Node6</title>
<path fill="none" stroke="midnightblue" d="M1105.61,-190.42C1134.34,-182.82 1175.36,-170.37 1209,-154 1247.77,-135.13 1288.49,-105.31 1311.42,-87.46"/>
<polygon fill="midnightblue" stroke="midnightblue" points="1313.61,-90.19 1319.29,-81.24 1309.27,-84.69 1313.61,-90.19"/>
</g>
<!-- Node4&#45;&gt;Node10 -->
<g id="edge17" class="edge">
<title>Node4&#45;&gt;Node10</title>
<path fill="none" stroke="midnightblue" d="M1059.05,-190.41C1039.54,-175.4 997.16,-143.96 958,-123 934.51,-110.43 907.19,-98.99 884.19,-90.19"/>
<polygon fill="midnightblue" stroke="midnightblue" points="885.21,-86.83 874.62,-86.58 882.74,-93.38 885.21,-86.83"/>
</g>
<!-- Node4&#45;&gt;Node11 -->
<g id="edge18" class="edge">
<title>Node4&#45;&gt;Node11</title>
<path fill="none" stroke="midnightblue" d="M1062.51,-190.29C1055.45,-181.64 1045.06,-167.71 1039,-154 1030.03,-133.7 1025,-108.61 1022.4,-91.67"/>
<polygon fill="midnightblue" stroke="midnightblue" points="1025.82,-90.83 1020.97,-81.41 1018.88,-91.8 1025.82,-90.83"/>
</g>
<!-- Node4&#45;&gt;Node12 -->
<g id="edge27" class="edge">
<title>Node4&#45;&gt;Node12</title>
<path fill="none" stroke="midnightblue" d="M1114.66,-199.38C1180.41,-198.54 1306.12,-191.57 1405,-154 1445.94,-138.44 1486.78,-106.72 1508.97,-87.77"/>
<polygon fill="midnightblue" stroke="midnightblue" points="1511.28,-90.39 1516.53,-81.19 1506.69,-85.12 1511.28,-90.39"/>
</g>
<!-- Node4&#45;&gt;Node13 -->
<g id="edge28" class="edge">
<title>Node4&#45;&gt;Node13</title>
<path fill="none" stroke="midnightblue" d="M1114.66,-196.72C1188.54,-192.26 1332.31,-180.38 1375,-154 1399.17,-139.07 1415.81,-109.66 1424.63,-90.56"/>
<polygon fill="midnightblue" stroke="midnightblue" points="1427.93,-91.73 1428.71,-81.16 1421.51,-88.94 1427.93,-91.73"/>
</g>
<!-- Node4&#45;&gt;Node14 -->
<g id="edge29" class="edge">
<title>Node4&#45;&gt;Node14</title>
<path fill="none" stroke="midnightblue" d="M1114.7,-197.73C1186.21,-194.79 1330.29,-185.19 1448,-154 1510.67,-137.39 1579.63,-104.4 1615.74,-85.89"/>
<polygon fill="midnightblue" stroke="midnightblue" points="1617.76,-88.79 1625.03,-81.08 1614.54,-82.58 1617.76,-88.79"/>
</g>
<!-- Node15 -->
<g id="node15" class="node">
<title>Node15</title>
<g id="a_node15"><a xlink:title=" ">
<polygon fill="none" stroke="#bfbfbf" points="1110,-129 1110,-148 1200,-148 1200,-129 1110,-129"/>
<text text-anchor="middle" x="1155" y="-136" font-family="Helvetica,sans-Serif" font-size="10.00">spdlog/fmt/ostr.h</text>
</a>
</g>
</g>
<!-- Node4&#45;&gt;Node15 -->
<g id="edge16" class="edge">
<title>Node4&#45;&gt;Node15</title>
<path fill="none" stroke="midnightblue" d="M1082.18,-190.48C1095.81,-180.93 1118.13,-165.31 1134.47,-153.87"/>
<polygon fill="midnightblue" stroke="midnightblue" points="1136.66,-156.61 1142.84,-148.01 1132.64,-150.88 1136.66,-156.61"/>
</g>
<!-- Node4&#45;&gt;Node16 -->
<g id="edge19" class="edge">
<title>Node4&#45;&gt;Node16</title>
<path fill="none" stroke="midnightblue" d="M1031.23,-190.45C962.91,-175.55 816.52,-144.38 692,-123 588.34,-105.2 466.84,-88.84 396.52,-79.81"/>
<polygon fill="midnightblue" stroke="midnightblue" points="396.88,-76.33 386.52,-78.54 396,-83.28 396.88,-76.33"/>
</g>
<!-- Node4&#45;&gt;Node17 -->
<g id="edge20" class="edge">
<title>Node4&#45;&gt;Node17</title>
<path fill="none" stroke="midnightblue" d="M1025.31,-198.2C953.09,-195.92 806.82,-187.2 688,-154 656.01,-145.06 652.1,-131.54 620,-123 574.26,-110.83 269.16,-86.94 136.93,-77"/>
<polygon fill="midnightblue" stroke="midnightblue" points="136.81,-73.48 126.58,-76.23 136.29,-80.46 136.81,-73.48"/>
</g>
<!-- Node4&#45;&gt;Node18 -->
<g id="edge21" class="edge">
<title>Node4&#45;&gt;Node18</title>
<path fill="none" stroke="midnightblue" d="M1042.22,-190.46C1018.87,-182.68 985.07,-169.98 958,-154 939.23,-142.92 939.52,-132.7 920,-123 913.42,-119.73 835.63,-101.24 777.1,-87.57"/>
<polygon fill="midnightblue" stroke="midnightblue" points="777.69,-84.12 767.15,-85.25 776.1,-90.93 777.69,-84.12"/>
</g>
<!-- Node4&#45;&gt;Node19 -->
<g id="edge22" class="edge">
<title>Node4&#45;&gt;Node19</title>
<path fill="none" stroke="midnightblue" d="M1025.43,-195.64C945.28,-189.35 771.57,-174.54 626,-154 624.7,-153.82 623.39,-153.63 622.08,-153.43"/>
<polygon fill="midnightblue" stroke="midnightblue" points="622.27,-149.92 611.86,-151.86 621.2,-156.84 622.27,-149.92"/>
</g>
<!-- Node4&#45;&gt;Node20 -->
<g id="edge23" class="edge">
<title>Node4&#45;&gt;Node20</title>
<path fill="none" stroke="midnightblue" d="M1025.22,-195.84C893.02,-186.52 502.36,-158.98 320.78,-146.18"/>
<polygon fill="midnightblue" stroke="midnightblue" points="320.93,-142.68 310.71,-145.47 320.44,-149.67 320.93,-142.68"/>
</g>
<!-- Node21 -->
<g id="node21" class="node">
<title>Node21</title>
<g id="a_node21"><a xlink:title=" ">
<polygon fill="none" stroke="#bfbfbf" points="1048,-129 1048,-148 1092,-148 1092,-129 1048,-129"/>
<text text-anchor="middle" x="1070" y="-136" font-family="Helvetica,sans-Serif" font-size="10.00">thread</text>
</a>
</g>
</g>
<!-- Node4&#45;&gt;Node21 -->
<g id="edge30" class="edge">
<title>Node4&#45;&gt;Node21</title>
<path fill="none" stroke="midnightblue" d="M1070,-190.48C1070,-182.08 1070,-168.98 1070,-158.16"/>
<polygon fill="midnightblue" stroke="midnightblue" points="1073.5,-158.01 1070,-148.01 1066.5,-158.01 1073.5,-158.01"/>
</g>
<!-- Node5&#45;&gt;Node4 -->
<g id="edge9" class="edge">
<title>Node5&#45;&gt;Node4</title>
<path fill="none" stroke="midnightblue" d="M1297.71,-148.01C1253.63,-158.63 1174.4,-176.79 1121.94,-188.33"/>
<polygon fill="midnightblue" stroke="midnightblue" points="1121.17,-184.92 1112.15,-190.48 1122.67,-191.75 1121.17,-184.92"/>
</g>
<!-- Node5&#45;&gt;Node6 -->
<g id="edge5" class="edge">
<title>Node5&#45;&gt;Node6</title>
<path fill="none" stroke="midnightblue" d="M1330,-128.73C1330,-119.18 1330,-103.62 1330,-91.28"/>
<polygon fill="midnightblue" stroke="midnightblue" points="1333.5,-91.13 1330,-81.13 1326.5,-91.13 1333.5,-91.13"/>
</g>
<!-- Node5&#45;&gt;Node10 -->
<g id="edge10" class="edge">
<title>Node5&#45;&gt;Node10</title>
<path fill="none" stroke="midnightblue" d="M1293.93,-132.77C1209.25,-121.68 997.07,-93.87 893.18,-80.26"/>
<polygon fill="midnightblue" stroke="midnightblue" points="893.54,-76.77 883.17,-78.94 892.63,-83.71 893.54,-76.77"/>
</g>
<!-- Node5&#45;&gt;Node11 -->
<g id="edge11" class="edge">
<title>Node5&#45;&gt;Node11</title>
<path fill="none" stroke="midnightblue" d="M1302.35,-129C1295.11,-126.91 1287.29,-124.76 1280,-123 1208.76,-105.79 1125.46,-90.44 1072.71,-81.3"/>
<polygon fill="midnightblue" stroke="midnightblue" points="1073.04,-77.8 1062.59,-79.55 1071.85,-84.7 1073.04,-77.8"/>
</g>
<!-- Node5&#45;&gt;Node12 -->
<g id="edge12" class="edge">
<title>Node5&#45;&gt;Node12</title>
<path fill="none" stroke="midnightblue" d="M1356.03,-128.87C1390.54,-117.42 1451.58,-97.18 1490.35,-84.32"/>
<polygon fill="midnightblue" stroke="midnightblue" points="1491.79,-87.53 1500.18,-81.06 1489.58,-80.89 1491.79,-87.53"/>
</g>
<!-- Node5&#45;&gt;Node13 -->
<g id="edge13" class="edge">
<title>Node5&#45;&gt;Node13</title>
<path fill="none" stroke="midnightblue" d="M1343.76,-128.73C1360.73,-117.92 1389.81,-99.38 1409.93,-86.57"/>
<polygon fill="midnightblue" stroke="midnightblue" points="1411.91,-89.45 1418.46,-81.13 1408.15,-83.55 1411.91,-89.45"/>
</g>
<!-- Node5&#45;&gt;Node14 -->
<g id="edge14" class="edge">
<title>Node5&#45;&gt;Node14</title>
<path fill="none" stroke="midnightblue" d="M1366.28,-129.92C1428.13,-116.99 1552.85,-90.92 1610.5,-78.87"/>
<polygon fill="midnightblue" stroke="midnightblue" points="1611.38,-82.27 1620.46,-76.79 1609.95,-75.41 1611.38,-82.27"/>
</g>
<!-- Node7 -->
<g id="node7" class="node">
<title>Node7</title>
<g id="a_node7"><a xlink:title=" ">
<polygon fill="none" stroke="#bfbfbf" points="1231,-0.5 1231,-19.5 1287,-19.5 1287,-0.5 1231,-0.5"/>
<text text-anchor="middle" x="1259" y="-7.5" font-family="Helvetica,sans-Serif" font-size="10.00">stdbool.h</text>
</a>
</g>
</g>
<!-- Node6&#45;&gt;Node7 -->
<g id="edge6" class="edge">
<title>Node6&#45;&gt;Node7</title>
<path fill="none" stroke="midnightblue" d="M1319.83,-61.98C1308.65,-52.61 1290.48,-37.38 1276.91,-26.01"/>
<polygon fill="midnightblue" stroke="midnightblue" points="1279.07,-23.25 1269.15,-19.51 1274.57,-28.61 1279.07,-23.25"/>
</g>
<!-- Node8 -->
<g id="node8" class="node">
<title>Node8</title>
<g id="a_node8"><a xlink:title=" ">
<polygon fill="none" stroke="#bfbfbf" points="1305.5,-0.5 1305.5,-19.5 1354.5,-19.5 1354.5,-0.5 1305.5,-0.5"/>
<text text-anchor="middle" x="1330" y="-7.5" font-family="Helvetica,sans-Serif" font-size="10.00">stdint.h</text>
</a>
</g>
</g>
<!-- Node6&#45;&gt;Node8 -->
<g id="edge7" class="edge">
<title>Node6&#45;&gt;Node8</title>
<path fill="none" stroke="midnightblue" d="M1330,-61.98C1330,-53.58 1330,-40.48 1330,-29.66"/>
<polygon fill="midnightblue" stroke="midnightblue" points="1333.5,-29.51 1330,-19.51 1326.5,-29.51 1333.5,-29.51"/>
</g>
<!-- Node9 -->
<g id="node9" class="node">
<title>Node9</title>
<g id="a_node9"><a xlink:title=" ">
<polygon fill="none" stroke="#bfbfbf" points="1372.5,-0.5 1372.5,-19.5 1421.5,-19.5 1421.5,-0.5 1372.5,-0.5"/>
<text text-anchor="middle" x="1397" y="-7.5" font-family="Helvetica,sans-Serif" font-size="10.00">string.h</text>
</a>
</g>
</g>
<!-- Node6&#45;&gt;Node9 -->
<g id="edge8" class="edge">
<title>Node6&#45;&gt;Node9</title>
<path fill="none" stroke="midnightblue" d="M1339.6,-61.98C1350.05,-52.7 1366.97,-37.67 1379.74,-26.33"/>
<polygon fill="midnightblue" stroke="midnightblue" points="1382.27,-28.77 1387.42,-19.51 1377.62,-23.53 1382.27,-28.77"/>
</g>
<!-- Node20&#45;&gt;Node16 -->
<g id="edge24" class="edge">
<title>Node20&#45;&gt;Node16</title>
<path fill="none" stroke="midnightblue" d="M241.1,-128.73C259.91,-117.82 292.25,-99.05 314.36,-86.22"/>
<polygon fill="midnightblue" stroke="midnightblue" points="316.24,-89.17 323.13,-81.13 312.73,-83.12 316.24,-89.17"/>
</g>
<!-- Node20&#45;&gt;Node17 -->
<g id="edge25" class="edge">
<title>Node20&#45;&gt;Node17</title>
<path fill="none" stroke="midnightblue" d="M206.08,-128.87C180.31,-117.7 135.18,-98.15 105.45,-85.26"/>
<polygon fill="midnightblue" stroke="midnightblue" points="106.57,-81.93 96,-81.17 103.79,-88.35 106.57,-81.93"/>
</g>
<!-- Node20&#45;&gt;Node18 -->
<g id="edge26" class="edge">
<title>Node20&#45;&gt;Node18</title>
<path fill="none" stroke="midnightblue" d="M289.79,-128.97C382.37,-116.59 553.11,-93.75 646.6,-81.25"/>
<polygon fill="midnightblue" stroke="midnightblue" points="647.33,-84.68 656.78,-79.89 646.4,-77.74 647.33,-84.68"/>
</g>
<!-- Node23 -->
<g id="node23" class="node">
<title>Node23</title>
<g id="a_node23"><a xlink:title=" ">
<polygon fill="none" stroke="#bfbfbf" points="1116,-246.5 1116,-265.5 1162,-265.5 1162,-246.5 1116,-246.5"/>
<text text-anchor="middle" x="1139" y="-253.5" font-family="Helvetica,sans-Serif" font-size="10.00">chrono</text>
</a>
</g>
</g>
<!-- Node22&#45;&gt;Node23 -->
<g id="edge39" class="edge">
<title>Node22&#45;&gt;Node23</title>
<path fill="none" stroke="midnightblue" d="M1047.51,-302.32C1065.07,-293.62 1092.33,-280.12 1112.53,-270.11"/>
<polygon fill="midnightblue" stroke="midnightblue" points="1114.12,-273.23 1121.53,-265.65 1111.02,-266.96 1114.12,-273.23"/>
</g>
<!-- Node24 -->
<g id="node24" class="node">
<title>Node24</title>
<g id="a_node24"><a xlink:title=" ">
<polygon fill="none" stroke="#bfbfbf" points="986,-246.5 986,-265.5 1030,-265.5 1030,-246.5 986,-246.5"/>
<text text-anchor="middle" x="1008" y="-253.5" font-family="Helvetica,sans-Serif" font-size="10.00">cmath</text>
</a>
</g>
</g>
<!-- Node22&#45;&gt;Node24 -->
<g id="edge40" class="edge">
<title>Node22&#45;&gt;Node24</title>
<path fill="none" stroke="midnightblue" d="M1026.37,-302.08C1023.39,-294.77 1019.07,-284.18 1015.38,-275.1"/>
<polygon fill="midnightblue" stroke="midnightblue" points="1018.58,-273.69 1011.57,-265.75 1012.1,-276.33 1018.58,-273.69"/>
</g>
<!-- Node25 -->
<g id="node25" class="node">
<title>Node25</title>
<g id="a_node25"><a xlink:title=" ">
<polygon fill="none" stroke="#bfbfbf" points="1048,-246.5 1048,-265.5 1098,-265.5 1098,-246.5 1048,-246.5"/>
<text text-anchor="middle" x="1073" y="-253.5" font-family="Helvetica,sans-Serif" font-size="10.00">iomanip</text>
</a>
</g>
</g>
<!-- Node22&#45;&gt;Node25 -->
<g id="edge41" class="edge">
<title>Node22&#45;&gt;Node25</title>
<path fill="none" stroke="midnightblue" d="M1037.1,-302.08C1043.24,-294.38 1052.27,-283.03 1059.74,-273.65"/>
<polygon fill="midnightblue" stroke="midnightblue" points="1062.54,-275.75 1066.03,-265.75 1057.06,-271.39 1062.54,-275.75"/>
</g>
<!-- Node26 -->
<g id="node26" class="node">
<title>Node26</title>
<g id="a_node26"><a xlink:title=" ">
<polygon fill="none" stroke="#bfbfbf" points="876,-246.5 876,-265.5 930,-265.5 930,-246.5 876,-246.5"/>
<text text-anchor="middle" x="903" y="-253.5" font-family="Helvetica,sans-Serif" font-size="10.00">iostream</text>
</a>
</g>
</g>
<!-- Node22&#45;&gt;Node26 -->
<g id="edge42" class="edge">
<title>Node22&#45;&gt;Node26</title>
<path fill="none" stroke="midnightblue" d="M1009.88,-302.44C988.98,-293.56 956.07,-279.56 932.28,-269.45"/>
<polygon fill="midnightblue" stroke="midnightblue" points="933.6,-266.21 923.03,-265.52 930.86,-272.65 933.6,-266.21"/>
</g>
<!-- Node27&#45;&gt;Node3 -->
<g id="edge44" class="edge">
<title>Node27&#45;&gt;Node3</title>
<path fill="none" stroke="midnightblue" d="M655.44,-302.44C610.68,-293 538.62,-277.8 490.3,-267.61"/>
<polygon fill="midnightblue" stroke="midnightblue" points="490.88,-264.16 480.37,-265.52 489.44,-271.01 490.88,-264.16"/>
</g>
<!-- Node27&#45;&gt;Node4 -->
<g id="edge45" class="edge">
<title>Node27&#45;&gt;Node4</title>
<path fill="none" stroke="midnightblue" d="M715.68,-302.44C747.17,-289 811.01,-262.75 867,-246 916.52,-231.18 974.16,-218.86 1015.33,-210.88"/>
<polygon fill="midnightblue" stroke="midnightblue" points="1016.01,-214.32 1025.17,-209 1014.69,-207.44 1016.01,-214.32"/>
</g>
<!-- Node27&#45;&gt;Node10 -->
<g id="edge51" class="edge">
<title>Node27&#45;&gt;Node10</title>
<path fill="none" stroke="midnightblue" d="M701.08,-302.23C720.58,-268.53 791.08,-146.68 820.72,-95.44"/>
<polygon fill="midnightblue" stroke="midnightblue" points="823.78,-97.15 825.76,-86.74 817.72,-93.64 823.78,-97.15"/>
</g>
<!-- Node27&#45;&gt;Node11 -->
<g id="edge52" class="edge">
<title>Node27&#45;&gt;Node11</title>
<path fill="none" stroke="midnightblue" d="M707.92,-302.23C756.35,-266.58 938.77,-132.29 999.9,-87.3"/>
<polygon fill="midnightblue" stroke="midnightblue" points="1002.34,-89.85 1008.32,-81.1 998.19,-84.21 1002.34,-89.85"/>
</g>
<!-- Node27&#45;&gt;Node16 -->
<g id="edge46" class="edge">
<title>Node27&#45;&gt;Node16</title>
<path fill="none" stroke="midnightblue" d="M695.34,-302.18C692.55,-271.82 679.04,-170.93 620,-123 586.55,-95.85 469.25,-82.32 396.89,-76.41"/>
<polygon fill="midnightblue" stroke="midnightblue" points="396.8,-72.89 386.55,-75.59 396.24,-79.87 396.8,-72.89"/>
</g>
<!-- Node27&#45;&gt;Node17 -->
<g id="edge47" class="edge">
<title>Node27&#45;&gt;Node17</title>
<path fill="none" stroke="midnightblue" d="M651.93,-309.53C581.4,-306.33 439.28,-296.35 323,-266 259.75,-249.49 244.94,-240.26 187,-210 146.24,-188.71 127.56,-190.81 100,-154 86.08,-135.41 80.21,-108.87 77.74,-91.18"/>
<polygon fill="midnightblue" stroke="midnightblue" points="81.22,-90.76 76.59,-81.23 74.27,-91.57 81.22,-90.76"/>
</g>
<!-- Node27&#45;&gt;Node18 -->
<g id="edge48" class="edge">
<title>Node27&#45;&gt;Node18</title>
<path fill="none" stroke="midnightblue" d="M696.59,-302.23C698.83,-268.81 706.89,-148.69 710.37,-96.73"/>
<polygon fill="midnightblue" stroke="midnightblue" points="713.87,-96.95 711.04,-86.74 706.88,-96.48 713.87,-96.95"/>
</g>
<!-- Node27&#45;&gt;Node19 -->
<g id="edge49" class="edge">
<title>Node27&#45;&gt;Node19</title>
<path fill="none" stroke="midnightblue" d="M684.68,-302.29C673.74,-293.63 656.97,-279.7 644,-266 611.87,-232.08 579.66,-188.14 561.35,-161.97"/>
<polygon fill="midnightblue" stroke="midnightblue" points="564.05,-159.73 555.47,-153.51 558.3,-163.72 564.05,-159.73"/>
</g>
<!-- Node27&#45;&gt;Node20 -->
<g id="edge50" class="edge">
<title>Node27&#45;&gt;Node20</title>
<path fill="none" stroke="midnightblue" d="M651.86,-307.94C573.3,-302.02 412.61,-287.66 361,-266 305.14,-242.56 258.32,-185.01 237.53,-156.32"/>
<polygon fill="midnightblue" stroke="midnightblue" points="240.35,-154.24 231.72,-148.1 234.64,-158.29 240.35,-154.24"/>
</g>
<!-- Node27&#45;&gt;Node26 -->
<g id="edge53" class="edge">
<title>Node27&#45;&gt;Node26</title>
<path fill="none" stroke="midnightblue" d="M728.8,-302.44C766.16,-292.7 827.06,-276.81 866.06,-266.64"/>
<polygon fill="midnightblue" stroke="midnightblue" points="867.17,-269.96 875.96,-264.05 865.4,-263.19 867.17,-269.96"/>
</g>
</g>
</svg>
