<?xml version="1.0" encoding="UTF-8" standalone="no"?>
<!DOCTYPE svg PUBLIC "-//W3C//DTD SVG 1.1//EN"
 "http://www.w3.org/Graphics/SVG/1.1/DTD/svg11.dtd">
<!-- Generated by graphviz version 2.49.1 (20210923.0004)
 -->
<!-- Title: tests/testsSimulationBuild.cpp Pages: 1 -->
<svg width="2000pt" height="442pt"
 viewBox="0.00 0.00 1999.50 442.00" xmlns="http://www.w3.org/2000/svg" xmlns:xlink="http://www.w3.org/1999/xlink">
<g id="graph0" class="graph" transform="scale(1 1) rotate(0) translate(4 438)">
<title>tests/testsSimulationBuild.cpp</title>
<!-- Node1 -->
<g id="node1" class="node">
<title>Node1</title>
<g id="a_node1"><a xlink:title=" ">
<polygon fill="#bfbfbf" stroke="black" points="1721,-414.5 1721,-433.5 1870,-433.5 1870,-414.5 1721,-414.5"/>
<text text-anchor="middle" x="1795.5" y="-421.5" font-family="Helvetica,sans-Serif" font-size="10.00">tests/testsSimulationBuild.cpp</text>
</a>
</g>
</g>
<!-- Node2 -->
<g id="node2" class="node">
<title>Node2</title>
<g id="a_node2"><a xlink:href="engine_8hpp.html" target="_top" xlink:title=" ">
<polygon fill="none" stroke="black" points="1063.5,-358.5 1063.5,-377.5 1129.5,-377.5 1129.5,-358.5 1063.5,-358.5"/>
<text text-anchor="middle" x="1096.5" y="-365.5" font-family="Helvetica,sans-Serif" font-size="10.00">engine.hpp</text>
</a>
</g>
</g>
<!-- Node1&#45;&gt;Node2 -->
<g id="edge1" class="edge">
<title>Node1&#45;&gt;Node2</title>
<path fill="none" stroke="midnightblue" d="M1720.69,-417.22C1574.69,-405.94 1255.91,-381.31 1139.85,-372.35"/>
<polygon fill="midnightblue" stroke="midnightblue" points="1139.83,-368.84 1129.59,-371.56 1139.29,-375.82 1139.83,-368.84"/>
</g>
<!-- Node4 -->
<g id="node4" class="node">
<title>Node4</title>
<g id="a_node4"><a xlink:href="systemData_8hpp.html" target="_top" xlink:title=" ">
<polygon fill="none" stroke="black" points="1257,-190.5 1257,-209.5 1346,-209.5 1346,-190.5 1257,-190.5"/>
<text text-anchor="middle" x="1301.5" y="-197.5" font-family="Helvetica,sans-Serif" font-size="10.00">systemData.hpp</text>
</a>
</g>
</g>
<!-- Node1&#45;&gt;Node4 -->
<g id="edge65" class="edge">
<title>Node1&#45;&gt;Node4</title>
<path fill="none" stroke="midnightblue" d="M1776.44,-414.43C1700.64,-380.37 1420.34,-254.41 1329.86,-213.75"/>
<polygon fill="midnightblue" stroke="midnightblue" points="1331.06,-210.45 1320.51,-209.54 1328.19,-216.83 1331.06,-210.45"/>
</g>
<!-- Node6 -->
<g id="node6" class="node">
<title>Node6</title>
<g id="a_node6"><a xlink:href="gsd_8h.html" target="_top" xlink:title="Declare GSD data types and C API.">
<polygon fill="none" stroke="black" points="1549,-62 1549,-81 1590,-81 1590,-62 1549,-62"/>
<text text-anchor="middle" x="1569.5" y="-69" font-family="Helvetica,sans-Serif" font-size="10.00">gsd.h</text>
</a>
</g>
</g>
<!-- Node1&#45;&gt;Node6 -->
<g id="edge67" class="edge">
<title>Node1&#45;&gt;Node6</title>
<path fill="none" stroke="midnightblue" d="M1792.08,-414.46C1776.91,-377.17 1712.64,-225.91 1628.5,-123 1617.37,-109.39 1602.28,-96.55 1590.15,-87.22"/>
<polygon fill="midnightblue" stroke="midnightblue" points="1592.04,-84.26 1581.93,-81.09 1587.85,-89.87 1592.04,-84.26"/>
</g>
<!-- Node12 -->
<g id="node12" class="node">
<title>Node12</title>
<g id="a_node12"><a xlink:title=" ">
<polygon fill="none" stroke="#bfbfbf" points="1674,-62 1674,-81 1727,-81 1727,-62 1674,-62"/>
<text text-anchor="middle" x="1700.5" y="-69" font-family="Helvetica,sans-Serif" font-size="10.00">memory</text>
</a>
</g>
</g>
<!-- Node1&#45;&gt;Node12 -->
<g id="edge68" class="edge">
<title>Node1&#45;&gt;Node12</title>
<path fill="none" stroke="midnightblue" d="M1800.78,-414.23C1811.23,-396.04 1833.5,-352.6 1833.5,-313 1833.5,-313 1833.5,-313 1833.5,-255 1833.5,-179.87 1758.97,-114.95 1721.49,-87.06"/>
<polygon fill="midnightblue" stroke="midnightblue" points="1723.4,-84.12 1713.25,-81.08 1719.29,-89.79 1723.4,-84.12"/>
</g>
<!-- Node14 -->
<g id="node14" class="node">
<title>Node14</title>
<g id="a_node14"><a xlink:title=" ">
<polygon fill="none" stroke="#bfbfbf" points="1756,-62 1756,-81 1797,-81 1797,-62 1756,-62"/>
<text text-anchor="middle" x="1776.5" y="-69" font-family="Helvetica,sans-Serif" font-size="10.00">string</text>
</a>
</g>
</g>
<!-- Node1&#45;&gt;Node14 -->
<g id="edge69" class="edge">
<title>Node1&#45;&gt;Node14</title>
<path fill="none" stroke="midnightblue" d="M1808.7,-414.46C1820.34,-406.33 1837.03,-393.12 1847.5,-378 1865.03,-352.68 1871.5,-343.8 1871.5,-313 1871.5,-313 1871.5,-313 1871.5,-199 1871.5,-150.43 1826.16,-108.59 1798.12,-87.37"/>
<polygon fill="midnightblue" stroke="midnightblue" points="1799.85,-84.29 1789.71,-81.22 1795.72,-89.94 1799.85,-84.29"/>
</g>
<!-- Node28 -->
<g id="node28" class="node">
<title>Node28</title>
<g id="a_node28"><a xlink:title=" ">
<polygon fill="none" stroke="#bfbfbf" points="1899.5,-358.5 1899.5,-377.5 1991.5,-377.5 1991.5,-358.5 1899.5,-358.5"/>
<text text-anchor="middle" x="1945.5" y="-365.5" font-family="Helvetica,sans-Serif" font-size="10.00">catch2/catch.hpp</text>
</a>
</g>
</g>
<!-- Node1&#45;&gt;Node28 -->
<g id="edge66" class="edge">
<title>Node1&#45;&gt;Node28</title>
<path fill="none" stroke="midnightblue" d="M1819.27,-414.44C1844.39,-405.4 1884.21,-391.06 1912.4,-380.92"/>
<polygon fill="midnightblue" stroke="midnightblue" points="1913.62,-384.2 1921.84,-377.52 1911.25,-377.61 1913.62,-384.2"/>
</g>
<!-- Node3 -->
<g id="node3" class="node">
<title>Node3</title>
<g id="a_node3"><a xlink:href="potentialHydrodynamics_8hpp.html" target="_top" xlink:title=" ">
<polygon fill="none" stroke="black" points="710,-246.5 710,-265.5 853,-265.5 853,-246.5 710,-246.5"/>
<text text-anchor="middle" x="781.5" y="-253.5" font-family="Helvetica,sans-Serif" font-size="10.00">potentialHydrodynamics.hpp</text>
</a>
</g>
</g>
<!-- Node2&#45;&gt;Node3 -->
<g id="edge2" class="edge">
<title>Node2&#45;&gt;Node3</title>
<path fill="none" stroke="midnightblue" d="M1093.89,-358.16C1089.17,-343.83 1077.76,-315.74 1057.5,-302 1026.58,-281.03 933.05,-269 863.39,-262.75"/>
<polygon fill="midnightblue" stroke="midnightblue" points="863.56,-259.26 853.3,-261.87 862.96,-266.23 863.56,-259.26"/>
</g>
<!-- Node2&#45;&gt;Node4 -->
<g id="edge53" class="edge">
<title>Node2&#45;&gt;Node4</title>
<path fill="none" stroke="midnightblue" d="M1111.68,-358.4C1126.4,-349.82 1149.14,-335.95 1167.5,-322 1212.8,-287.59 1261.21,-241.16 1285.56,-217.04"/>
<polygon fill="midnightblue" stroke="midnightblue" points="1288.25,-219.31 1292.86,-209.77 1283.31,-214.35 1288.25,-219.31"/>
</g>
<!-- Node10 -->
<g id="node10" class="node">
<title>Node10</title>
<g id="a_node10"><a xlink:title=" ">
<polygon fill="none" stroke="#bfbfbf" points="1098.5,-56.5 1098.5,-86.5 1196.5,-86.5 1196.5,-56.5 1098.5,-56.5"/>
<text text-anchor="start" x="1106.5" y="-74.5" font-family="Helvetica,sans-Serif" font-size="10.00">spdlog/sinks/basic</text>
<text text-anchor="middle" x="1147.5" y="-63.5" font-family="Helvetica,sans-Serif" font-size="10.00">_file_sink.h</text>
</a>
</g>
</g>
<!-- Node2&#45;&gt;Node10 -->
<g id="edge59" class="edge">
<title>Node2&#45;&gt;Node10</title>
<path fill="none" stroke="midnightblue" d="M1098.03,-358.19C1104.84,-318.82 1132.63,-158.34 1143.3,-96.74"/>
<polygon fill="midnightblue" stroke="midnightblue" points="1146.77,-97.21 1145.03,-86.76 1139.88,-96.01 1146.77,-97.21"/>
</g>
<!-- Node11 -->
<g id="node11" class="node">
<title>Node11</title>
<g id="a_node11"><a xlink:title=" ">
<polygon fill="none" stroke="#bfbfbf" points="1320,-62 1320,-81 1407,-81 1407,-62 1320,-62"/>
<text text-anchor="middle" x="1363.5" y="-69" font-family="Helvetica,sans-Serif" font-size="10.00">spdlog/spdlog.h</text>
</a>
</g>
</g>
<!-- Node2&#45;&gt;Node11 -->
<g id="edge60" class="edge">
<title>Node2&#45;&gt;Node11</title>
<path fill="none" stroke="midnightblue" d="M1129.72,-362.25C1208.77,-350 1401.5,-314.27 1401.5,-257 1401.5,-257 1401.5,-257 1401.5,-199 1401.5,-158.85 1383.72,-114.45 1372.49,-90.39"/>
<polygon fill="midnightblue" stroke="midnightblue" points="1375.51,-88.6 1368.01,-81.13 1369.21,-91.65 1375.51,-88.6"/>
</g>
<!-- Node2&#45;&gt;Node12 -->
<g id="edge62" class="edge">
<title>Node2&#45;&gt;Node12</title>
<path fill="none" stroke="midnightblue" d="M1129.67,-367.17C1228.85,-367.2 1521.44,-363.66 1605.5,-322 1691.8,-279.23 1700.59,-141.49 1700.84,-91.15"/>
<polygon fill="midnightblue" stroke="midnightblue" points="1704.34,-91.04 1700.78,-81.06 1697.34,-91.08 1704.34,-91.04"/>
</g>
<!-- Node13 -->
<g id="node13" class="node">
<title>Node13</title>
<g id="a_node13"><a xlink:title=" ">
<polygon fill="none" stroke="#bfbfbf" points="1472,-62 1472,-81 1531,-81 1531,-62 1472,-62"/>
<text text-anchor="middle" x="1501.5" y="-69" font-family="Helvetica,sans-Serif" font-size="10.00">stdexcept</text>
</a>
</g>
</g>
<!-- Node2&#45;&gt;Node13 -->
<g id="edge63" class="edge">
<title>Node2&#45;&gt;Node13</title>
<path fill="none" stroke="midnightblue" d="M1129.89,-367.43C1248.66,-368.09 1643.5,-362.34 1643.5,-257 1643.5,-257 1643.5,-257 1643.5,-199 1643.5,-140.96 1576.53,-102.97 1534.57,-84.88"/>
<polygon fill="midnightblue" stroke="midnightblue" points="1535.85,-81.61 1525.27,-81.01 1533.16,-88.08 1535.85,-81.61"/>
</g>
<!-- Node2&#45;&gt;Node14 -->
<g id="edge64" class="edge">
<title>Node2&#45;&gt;Node14</title>
<path fill="none" stroke="midnightblue" d="M1129.74,-367.5C1232.76,-368.55 1545.14,-367.79 1633.5,-322 1725.41,-274.37 1762.25,-140.22 1772.93,-90.95"/>
<polygon fill="midnightblue" stroke="midnightblue" points="1776.38,-91.56 1774.96,-81.06 1769.52,-90.15 1776.38,-91.56"/>
</g>
<!-- Node15 -->
<g id="node15" class="node">
<title>Node15</title>
<g id="a_node15"><a xlink:title=" ">
<polygon fill="none" stroke="#bfbfbf" points="308,-62 308,-81 407,-81 407,-62 308,-62"/>
<text text-anchor="middle" x="357.5" y="-69" font-family="Helvetica,sans-Serif" font-size="10.00">eigen3/Eigen/Core</text>
</a>
</g>
</g>
<!-- Node2&#45;&gt;Node15 -->
<g id="edge54" class="edge">
<title>Node2&#45;&gt;Node15</title>
<path fill="none" stroke="midnightblue" d="M1063.23,-366.41C944.8,-364.05 544.23,-353.85 420.5,-322 354.45,-305 281.5,-325.2 281.5,-257 281.5,-257 281.5,-257 281.5,-199 281.5,-153.62 317.88,-110.48 340.3,-88.2"/>
<polygon fill="midnightblue" stroke="midnightblue" points="342.78,-90.68 347.56,-81.23 337.93,-85.63 342.78,-90.68"/>
</g>
<!-- Node16 -->
<g id="node16" class="node">
<title>Node16</title>
<g id="a_node16"><a xlink:title=" ">
<polygon fill="none" stroke="#bfbfbf" points="716,-62 716,-81 819,-81 819,-62 716,-62"/>
<text text-anchor="middle" x="767.5" y="-69" font-family="Helvetica,sans-Serif" font-size="10.00">eigen3/Eigen/Eigen</text>
</a>
</g>
</g>
<!-- Node2&#45;&gt;Node16 -->
<g id="edge55" class="edge">
<title>Node2&#45;&gt;Node16</title>
<path fill="none" stroke="midnightblue" d="M1063.33,-366.5C983.49,-364.75 783.12,-356.9 727.5,-322 695.84,-302.13 684.55,-282.72 691.5,-246 702.99,-185.33 738.51,-120.32 756.63,-89.97"/>
<polygon fill="midnightblue" stroke="midnightblue" points="759.84,-91.43 762.05,-81.07 753.86,-87.79 759.84,-91.43"/>
</g>
<!-- Node17 -->
<g id="node17" class="node">
<title>Node17</title>
<g id="a_node17"><a xlink:title=" ">
<polygon fill="none" stroke="#bfbfbf" points="488,-56.5 488,-86.5 599,-86.5 599,-56.5 488,-56.5"/>
<text text-anchor="start" x="496" y="-74.5" font-family="Helvetica,sans-Serif" font-size="10.00">eigen3/unsupported</text>
<text text-anchor="middle" x="543.5" y="-63.5" font-family="Helvetica,sans-Serif" font-size="10.00">/Eigen/CXX11/Tensor</text>
</a>
</g>
</g>
<!-- Node2&#45;&gt;Node17 -->
<g id="edge56" class="edge">
<title>Node2&#45;&gt;Node17</title>
<path fill="none" stroke="midnightblue" d="M1063.49,-366.37C955.59,-364.01 614.31,-354.12 509.5,-322 453.74,-304.91 395.5,-315.32 395.5,-257 395.5,-257 395.5,-257 395.5,-199 395.5,-145.78 451.48,-110.17 494.59,-90.65"/>
<polygon fill="midnightblue" stroke="midnightblue" points="496.07,-93.82 503.84,-86.61 493.27,-87.4 496.07,-93.82"/>
</g>
<!-- Node18 -->
<g id="node18" class="node">
<title>Node18</title>
<g id="a_node18"><a xlink:title=" ">
<polygon fill="none" stroke="#bfbfbf" points="910,-123.5 910,-153.5 1043,-153.5 1043,-123.5 910,-123.5"/>
<text text-anchor="start" x="918" y="-141.5" font-family="Helvetica,sans-Serif" font-size="10.00">eigen3/unsupported</text>
<text text-anchor="middle" x="976.5" y="-130.5" font-family="Helvetica,sans-Serif" font-size="10.00">/Eigen/CXX11/ThreadPool</text>
</a>
</g>
</g>
<!-- Node2&#45;&gt;Node18 -->
<g id="edge57" class="edge">
<title>Node2&#45;&gt;Node18</title>
<path fill="none" stroke="midnightblue" d="M1095.47,-358.29C1093.74,-345.53 1089.62,-321.2 1081.5,-302 1058.63,-247.94 1018.06,-191.97 994.61,-161.88"/>
<polygon fill="midnightblue" stroke="midnightblue" points="997.14,-159.44 988.19,-153.75 991.64,-163.77 997.14,-159.44"/>
</g>
<!-- Node19 -->
<g id="node19" class="node">
<title>Node19</title>
<g id="a_node19"><a xlink:href="helper__eigenTensorConversion_8h.html" target="_top" xlink:title=" ">
<polygon fill="none" stroke="black" points="462,-129 462,-148 625,-148 625,-129 462,-129"/>
<text text-anchor="middle" x="543.5" y="-136" font-family="Helvetica,sans-Serif" font-size="10.00">helper_eigenTensorConversion.h</text>
</a>
</g>
</g>
<!-- Node2&#45;&gt;Node19 -->
<g id="edge58" class="edge">
<title>Node2&#45;&gt;Node19</title>
<path fill="none" stroke="midnightblue" d="M1063.33,-366.94C946.93,-366.4 562.12,-361.62 525.5,-322 483.21,-276.25 516.09,-193.81 533.93,-157.5"/>
<polygon fill="midnightblue" stroke="midnightblue" points="537.26,-158.67 538.69,-148.18 531.03,-155.49 537.26,-158.67"/>
</g>
<!-- Node21 -->
<g id="node21" class="node">
<title>Node21</title>
<g id="a_node21"><a xlink:href="progressBar_8hpp.html" target="_top" xlink:title=" ">
<polygon fill="none" stroke="black" points="108.5,-302.5 108.5,-321.5 198.5,-321.5 198.5,-302.5 108.5,-302.5"/>
<text text-anchor="middle" x="153.5" y="-309.5" font-family="Helvetica,sans-Serif" font-size="10.00">progressBar.hpp</text>
</a>
</g>
</g>
<!-- Node2&#45;&gt;Node21 -->
<g id="edge37" class="edge">
<title>Node2&#45;&gt;Node21</title>
<path fill="none" stroke="midnightblue" d="M1063.31,-365.49C951.27,-360.34 576.71,-342.59 267.5,-322 248.36,-320.73 227.43,-319.13 208.79,-317.64"/>
<polygon fill="midnightblue" stroke="midnightblue" points="208.94,-314.14 198.7,-316.82 208.38,-321.12 208.94,-314.14"/>
</g>
<!-- Node26 -->
<g id="node26" class="node">
<title>Node26</title>
<g id="a_node26"><a xlink:href="rungeKutta4_8hpp.html" target="_top" xlink:title=" ">
<polygon fill="none" stroke="black" points="736.5,-302.5 736.5,-321.5 826.5,-321.5 826.5,-302.5 736.5,-302.5"/>
<text text-anchor="middle" x="781.5" y="-309.5" font-family="Helvetica,sans-Serif" font-size="10.00">rungeKutta4.hpp</text>
</a>
</g>
</g>
<!-- Node2&#45;&gt;Node26 -->
<g id="edge42" class="edge">
<title>Node2&#45;&gt;Node26</title>
<path fill="none" stroke="midnightblue" d="M1063.38,-361.32C1009.48,-352.08 902.21,-333.69 836.66,-322.46"/>
<polygon fill="midnightblue" stroke="midnightblue" points="836.96,-318.96 826.51,-320.72 835.78,-325.86 836.96,-318.96"/>
</g>
<!-- Node27 -->
<g id="node27" class="node">
<title>Node27</title>
<g id="a_node27"><a xlink:title=" ">
<polygon fill="none" stroke="#bfbfbf" points="1002,-302.5 1002,-321.5 1049,-321.5 1049,-302.5 1002,-302.5"/>
<text text-anchor="middle" x="1025.5" y="-309.5" font-family="Helvetica,sans-Serif" font-size="10.00">math.h</text>
</a>
</g>
</g>
<!-- Node2&#45;&gt;Node27 -->
<g id="edge61" class="edge">
<title>Node2&#45;&gt;Node27</title>
<path fill="none" stroke="midnightblue" d="M1085.09,-358.32C1074.39,-350.18 1058.16,-337.84 1045.34,-328.09"/>
<polygon fill="midnightblue" stroke="midnightblue" points="1047.19,-325.1 1037.11,-321.83 1042.96,-330.67 1047.19,-325.1"/>
</g>
<!-- Node3&#45;&gt;Node4 -->
<g id="edge3" class="edge">
<title>Node3&#45;&gt;Node4</title>
<path fill="none" stroke="midnightblue" d="M853.26,-247.55C958.39,-236.63 1152.04,-216.52 1246.62,-206.7"/>
<polygon fill="midnightblue" stroke="midnightblue" points="1247.24,-210.15 1256.83,-205.64 1246.52,-203.19 1247.24,-210.15"/>
</g>
<!-- Node3&#45;&gt;Node10 -->
<g id="edge35" class="edge">
<title>Node3&#45;&gt;Node10</title>
<path fill="none" stroke="midnightblue" d="M785.91,-246.44C799.81,-219.79 843.23,-139.11 867.5,-123 902.9,-99.51 1017.18,-84.78 1088.33,-77.65"/>
<polygon fill="midnightblue" stroke="midnightblue" points="1088.88,-81.11 1098.5,-76.65 1088.2,-74.15 1088.88,-81.11"/>
</g>
<!-- Node3&#45;&gt;Node11 -->
<g id="edge36" class="edge">
<title>Node3&#45;&gt;Node11</title>
<path fill="none" stroke="midnightblue" d="M808.79,-246.44C903.49,-216.75 1218.08,-118.1 1326.44,-84.12"/>
<polygon fill="midnightblue" stroke="midnightblue" points="1327.77,-87.37 1336.27,-81.04 1325.68,-80.69 1327.77,-87.37"/>
</g>
<!-- Node3&#45;&gt;Node15 -->
<g id="edge30" class="edge">
<title>Node3&#45;&gt;Node15</title>
<path fill="none" stroke="midnightblue" d="M732.46,-246.49C665.92,-233.53 544.74,-204.81 452.5,-154 420.64,-136.45 389.84,-107.01 372.32,-88.73"/>
<polygon fill="midnightblue" stroke="midnightblue" points="374.65,-86.1 365.25,-81.2 369.54,-90.89 374.65,-86.1"/>
</g>
<!-- Node3&#45;&gt;Node16 -->
<g id="edge31" class="edge">
<title>Node3&#45;&gt;Node16</title>
<path fill="none" stroke="midnightblue" d="M782.31,-246.3C784.1,-225.09 787.77,-169.1 781.5,-123 780.02,-112.13 776.83,-100.29 773.86,-90.81"/>
<polygon fill="midnightblue" stroke="midnightblue" points="777.18,-89.69 770.72,-81.29 770.53,-91.88 777.18,-89.69"/>
</g>
<!-- Node3&#45;&gt;Node17 -->
<g id="edge32" class="edge">
<title>Node3&#45;&gt;Node17</title>
<path fill="none" stroke="midnightblue" d="M776.41,-246.27C768.43,-233.05 751.96,-207.64 733.5,-190 688.23,-146.75 624.5,-111.33 583.6,-91.05"/>
<polygon fill="midnightblue" stroke="midnightblue" points="584.99,-87.84 574.47,-86.6 581.92,-94.13 584.99,-87.84"/>
</g>
<!-- Node3&#45;&gt;Node18 -->
<g id="edge33" class="edge">
<title>Node3&#45;&gt;Node18</title>
<path fill="none" stroke="midnightblue" d="M796.16,-246.32C827.41,-227.8 901.26,-184.07 944.13,-158.67"/>
<polygon fill="midnightblue" stroke="midnightblue" points="945.97,-161.65 952.79,-153.55 942.4,-155.63 945.97,-161.65"/>
</g>
<!-- Node3&#45;&gt;Node19 -->
<g id="edge34" class="edge">
<title>Node3&#45;&gt;Node19</title>
<path fill="none" stroke="midnightblue" d="M773.48,-246.13C760.49,-232.27 733.46,-205.45 705.5,-190 671.5,-171.21 629.55,-158.38 596.85,-150.35"/>
<polygon fill="midnightblue" stroke="midnightblue" points="597.56,-146.92 587.02,-148.02 595.94,-153.73 597.56,-146.92"/>
</g>
<!-- Node5 -->
<g id="node5" class="node">
<title>Node5</title>
<g id="a_node5"><a xlink:href="GSDUtil_8hpp.html" target="_top" xlink:title=" ">
<polygon fill="none" stroke="black" points="1467.5,-129 1467.5,-148 1539.5,-148 1539.5,-129 1467.5,-129"/>
<text text-anchor="middle" x="1503.5" y="-136" font-family="Helvetica,sans-Serif" font-size="10.00">GSDUtil.hpp</text>
</a>
</g>
</g>
<!-- Node4&#45;&gt;Node5 -->
<g id="edge4" class="edge">
<title>Node4&#45;&gt;Node5</title>
<path fill="none" stroke="midnightblue" d="M1325.54,-190.48C1358.74,-180.03 1418.79,-162.29 1459.95,-150.73"/>
<polygon fill="midnightblue" stroke="midnightblue" points="1461.02,-154.07 1469.71,-148.01 1459.14,-147.32 1461.02,-154.07"/>
</g>
<!-- Node4&#45;&gt;Node6 -->
<g id="edge15" class="edge">
<title>Node4&#45;&gt;Node6</title>
<path fill="none" stroke="midnightblue" d="M1346.03,-196.54C1409.03,-192.15 1519.74,-180.76 1548.5,-154 1565.69,-138.01 1569.57,-109.99 1570.08,-91.34"/>
<polygon fill="midnightblue" stroke="midnightblue" points="1573.58,-91.12 1570.05,-81.13 1566.58,-91.14 1573.58,-91.12"/>
</g>
<!-- Node4&#45;&gt;Node10 -->
<g id="edge16" class="edge">
<title>Node4&#45;&gt;Node10</title>
<path fill="none" stroke="midnightblue" d="M1290.91,-190.31C1266.86,-170.54 1207.51,-121.79 1173.17,-93.59"/>
<polygon fill="midnightblue" stroke="midnightblue" points="1174.96,-90.53 1165.02,-86.89 1170.52,-95.94 1174.96,-90.53"/>
</g>
<!-- Node4&#45;&gt;Node11 -->
<g id="edge17" class="edge">
<title>Node4&#45;&gt;Node11</title>
<path fill="none" stroke="midnightblue" d="M1312.09,-190.48C1321.71,-182.17 1335.57,-168.66 1343.5,-154 1354.2,-134.22 1359.27,-108.66 1361.61,-91.48"/>
<polygon fill="midnightblue" stroke="midnightblue" points="1365.13,-91.44 1362.82,-81.1 1358.18,-90.63 1365.13,-91.44"/>
</g>
<!-- Node4&#45;&gt;Node12 -->
<g id="edge26" class="edge">
<title>Node4&#45;&gt;Node12</title>
<path fill="none" stroke="midnightblue" d="M1346.4,-196.95C1401.16,-193.24 1495.79,-182.87 1571.5,-154 1614.49,-137.61 1658.52,-105.95 1682.39,-87.28"/>
<polygon fill="midnightblue" stroke="midnightblue" points="1684.59,-90.01 1690.24,-81.04 1680.23,-84.53 1684.59,-90.01"/>
</g>
<!-- Node4&#45;&gt;Node13 -->
<g id="edge27" class="edge">
<title>Node4&#45;&gt;Node13</title>
<path fill="none" stroke="midnightblue" d="M1315.25,-190.31C1349.3,-168.77 1437.79,-112.79 1479.34,-86.51"/>
<polygon fill="midnightblue" stroke="midnightblue" points="1481.34,-89.39 1487.92,-81.09 1477.6,-83.48 1481.34,-89.39"/>
</g>
<!-- Node4&#45;&gt;Node14 -->
<g id="edge28" class="edge">
<title>Node4&#45;&gt;Node14</title>
<path fill="none" stroke="midnightblue" d="M1346.04,-197.11C1407.66,-193.49 1521.8,-183.13 1614.5,-154 1667.35,-137.39 1724.08,-105.11 1754.39,-86.55"/>
<polygon fill="midnightblue" stroke="midnightblue" points="1756.61,-89.29 1763.27,-81.04 1752.92,-83.34 1756.61,-89.29"/>
</g>
<!-- Node4&#45;&gt;Node15 -->
<g id="edge18" class="edge">
<title>Node4&#45;&gt;Node15</title>
<path fill="none" stroke="midnightblue" d="M1256.93,-194.55C1182.84,-187.02 1029.7,-170.94 900.5,-154 724.37,-130.91 516.93,-98.25 417.1,-82.19"/>
<polygon fill="midnightblue" stroke="midnightblue" points="417.63,-78.73 407.2,-80.59 416.51,-85.64 417.63,-78.73"/>
</g>
<!-- Node4&#45;&gt;Node16 -->
<g id="edge19" class="edge">
<title>Node4&#45;&gt;Node16</title>
<path fill="none" stroke="midnightblue" d="M1281.03,-190.39C1243.12,-174.77 1159.11,-141.63 1085.5,-123 997.67,-100.77 893.58,-86.44 829.03,-78.93"/>
<polygon fill="midnightblue" stroke="midnightblue" points="829.36,-75.44 819.02,-77.78 828.56,-82.4 829.36,-75.44"/>
</g>
<!-- Node4&#45;&gt;Node17 -->
<g id="edge20" class="edge">
<title>Node4&#45;&gt;Node17</title>
<path fill="none" stroke="midnightblue" d="M1256.61,-196.56C1211.25,-192.56 1140.25,-181.97 1085.5,-154 1067.29,-144.7 1070.18,-131.32 1051.5,-123 1041.51,-118.55 745,-90.95 609.68,-78.54"/>
<polygon fill="midnightblue" stroke="midnightblue" points="609.72,-75.02 599.44,-77.6 609.08,-81.99 609.72,-75.02"/>
</g>
<!-- Node4&#45;&gt;Node18 -->
<g id="edge21" class="edge">
<title>Node4&#45;&gt;Node18</title>
<path fill="none" stroke="midnightblue" d="M1256.99,-190.85C1204.6,-181.26 1116.7,-165.17 1053.25,-153.55"/>
<polygon fill="midnightblue" stroke="midnightblue" points="1053.75,-150.08 1043.28,-151.73 1052.49,-156.97 1053.75,-150.08"/>
</g>
<!-- Node4&#45;&gt;Node19 -->
<g id="edge22" class="edge">
<title>Node4&#45;&gt;Node19</title>
<path fill="none" stroke="midnightblue" d="M1256.83,-197.23C1149.95,-192.72 871.1,-179.32 639.5,-154 628.23,-152.77 616.24,-151.18 604.71,-149.51"/>
<polygon fill="midnightblue" stroke="midnightblue" points="605.12,-146.03 594.71,-148.03 604.09,-152.96 605.12,-146.03"/>
</g>
<!-- Node20 -->
<g id="node20" class="node">
<title>Node20</title>
<g id="a_node20"><a xlink:title=" ">
<polygon fill="none" stroke="#bfbfbf" points="1290,-129 1290,-148 1335,-148 1335,-129 1290,-129"/>
<text text-anchor="middle" x="1312.5" y="-136" font-family="Helvetica,sans-Serif" font-size="10.00">thread</text>
</a>
</g>
</g>
<!-- Node4&#45;&gt;Node20 -->
<g id="edge29" class="edge">
<title>Node4&#45;&gt;Node20</title>
<path fill="none" stroke="midnightblue" d="M1303.08,-190.48C1304.63,-182.08 1307.05,-168.98 1309.05,-158.16"/>
<polygon fill="midnightblue" stroke="midnightblue" points="1312.55,-158.48 1310.93,-148.01 1305.67,-157.21 1312.55,-158.48"/>
</g>
<!-- Node5&#45;&gt;Node4 -->
<g id="edge9" class="edge">
<title>Node5&#45;&gt;Node4</title>
<path fill="none" stroke="midnightblue" d="M1479.51,-148.01C1446.34,-158.45 1386.29,-176.19 1345.12,-187.75"/>
<polygon fill="midnightblue" stroke="midnightblue" points="1344.03,-184.42 1335.34,-190.48 1345.91,-191.16 1344.03,-184.42"/>
</g>
<!-- Node5&#45;&gt;Node6 -->
<g id="edge5" class="edge">
<title>Node5&#45;&gt;Node6</title>
<path fill="none" stroke="midnightblue" d="M1512.4,-128.73C1522.89,-118.4 1540.52,-101.04 1553.42,-88.33"/>
<polygon fill="midnightblue" stroke="midnightblue" points="1556.07,-90.64 1560.74,-81.13 1551.16,-85.65 1556.07,-90.64"/>
</g>
<!-- Node5&#45;&gt;Node10 -->
<g id="edge10" class="edge">
<title>Node5&#45;&gt;Node10</title>
<path fill="none" stroke="midnightblue" d="M1467.41,-130.91C1406.12,-119.72 1281.15,-96.9 1206.84,-83.34"/>
<polygon fill="midnightblue" stroke="midnightblue" points="1207.17,-79.84 1196.71,-81.48 1205.92,-86.72 1207.17,-79.84"/>
</g>
<!-- Node5&#45;&gt;Node11 -->
<g id="edge11" class="edge">
<title>Node5&#45;&gt;Node11</title>
<path fill="none" stroke="midnightblue" d="M1484.91,-128.87C1460.96,-117.75 1419.11,-98.32 1391.35,-85.43"/>
<polygon fill="midnightblue" stroke="midnightblue" points="1392.71,-82.2 1382.17,-81.17 1389.76,-88.55 1392.71,-82.2"/>
</g>
<!-- Node5&#45;&gt;Node12 -->
<g id="edge12" class="edge">
<title>Node5&#45;&gt;Node12</title>
<path fill="none" stroke="midnightblue" d="M1529.66,-128.87C1564.34,-117.42 1625.7,-97.18 1664.67,-84.32"/>
<polygon fill="midnightblue" stroke="midnightblue" points="1666.15,-87.52 1674.55,-81.06 1663.95,-80.87 1666.15,-87.52"/>
</g>
<!-- Node5&#45;&gt;Node13 -->
<g id="edge13" class="edge">
<title>Node5&#45;&gt;Node13</title>
<path fill="none" stroke="midnightblue" d="M1503.23,-128.73C1502.94,-119.18 1502.46,-103.62 1502.08,-91.28"/>
<polygon fill="midnightblue" stroke="midnightblue" points="1505.57,-91.01 1501.77,-81.13 1498.57,-91.23 1505.57,-91.01"/>
</g>
<!-- Node5&#45;&gt;Node14 -->
<g id="edge14" class="edge">
<title>Node5&#45;&gt;Node14</title>
<path fill="none" stroke="midnightblue" d="M1539.8,-131.2C1585.95,-122.83 1667.89,-106.77 1736.5,-87 1739.69,-86.08 1743,-85.03 1746.28,-83.94"/>
<polygon fill="midnightblue" stroke="midnightblue" points="1747.63,-87.17 1755.91,-80.56 1745.32,-80.57 1747.63,-87.17"/>
</g>
<!-- Node7 -->
<g id="node7" class="node">
<title>Node7</title>
<g id="a_node7"><a xlink:title=" ">
<polygon fill="none" stroke="#bfbfbf" points="1470,-0.5 1470,-19.5 1527,-19.5 1527,-0.5 1470,-0.5"/>
<text text-anchor="middle" x="1498.5" y="-7.5" font-family="Helvetica,sans-Serif" font-size="10.00">stdbool.h</text>
</a>
</g>
</g>
<!-- Node6&#45;&gt;Node7 -->
<g id="edge6" class="edge">
<title>Node6&#45;&gt;Node7</title>
<path fill="none" stroke="midnightblue" d="M1559.33,-61.98C1548.15,-52.61 1529.98,-37.38 1516.41,-26.01"/>
<polygon fill="midnightblue" stroke="midnightblue" points="1518.57,-23.25 1508.65,-19.51 1514.07,-28.61 1518.57,-23.25"/>
</g>
<!-- Node8 -->
<g id="node8" class="node">
<title>Node8</title>
<g id="a_node8"><a xlink:title=" ">
<polygon fill="none" stroke="#bfbfbf" points="1545,-0.5 1545,-19.5 1594,-19.5 1594,-0.5 1545,-0.5"/>
<text text-anchor="middle" x="1569.5" y="-7.5" font-family="Helvetica,sans-Serif" font-size="10.00">stdint.h</text>
</a>
</g>
</g>
<!-- Node6&#45;&gt;Node8 -->
<g id="edge7" class="edge">
<title>Node6&#45;&gt;Node8</title>
<path fill="none" stroke="midnightblue" d="M1569.5,-61.98C1569.5,-53.58 1569.5,-40.48 1569.5,-29.66"/>
<polygon fill="midnightblue" stroke="midnightblue" points="1573,-29.51 1569.5,-19.51 1566,-29.51 1573,-29.51"/>
</g>
<!-- Node9 -->
<g id="node9" class="node">
<title>Node9</title>
<g id="a_node9"><a xlink:title=" ">
<polygon fill="none" stroke="#bfbfbf" points="1612,-0.5 1612,-19.5 1661,-19.5 1661,-0.5 1612,-0.5"/>
<text text-anchor="middle" x="1636.5" y="-7.5" font-family="Helvetica,sans-Serif" font-size="10.00">string.h</text>
</a>
</g>
</g>
<!-- Node6&#45;&gt;Node9 -->
<g id="edge8" class="edge">
<title>Node6&#45;&gt;Node9</title>
<path fill="none" stroke="midnightblue" d="M1579.1,-61.98C1589.55,-52.7 1606.47,-37.67 1619.24,-26.33"/>
<polygon fill="midnightblue" stroke="midnightblue" points="1621.77,-28.77 1626.92,-19.51 1617.12,-23.53 1621.77,-28.77"/>
</g>
<!-- Node19&#45;&gt;Node15 -->
<g id="edge23" class="edge">
<title>Node19&#45;&gt;Node15</title>
<path fill="none" stroke="midnightblue" d="M518.8,-128.87C486.19,-117.47 428.62,-97.35 391.8,-84.49"/>
<polygon fill="midnightblue" stroke="midnightblue" points="392.6,-81.06 382.01,-81.06 390.29,-87.67 392.6,-81.06"/>
</g>
<!-- Node19&#45;&gt;Node16 -->
<g id="edge24" class="edge">
<title>Node19&#45;&gt;Node16</title>
<path fill="none" stroke="midnightblue" d="M573.25,-128.87C613.1,-117.3 683.93,-96.75 728.16,-83.91"/>
<polygon fill="midnightblue" stroke="midnightblue" points="729.36,-87.21 737.99,-81.06 727.41,-80.49 729.36,-87.21"/>
</g>
<!-- Node19&#45;&gt;Node17 -->
<g id="edge25" class="edge">
<title>Node19&#45;&gt;Node17</title>
<path fill="none" stroke="midnightblue" d="M543.5,-128.73C543.5,-120.54 543.5,-107.92 543.5,-96.71"/>
<polygon fill="midnightblue" stroke="midnightblue" points="547,-96.59 543.5,-86.59 540,-96.59 547,-96.59"/>
</g>
<!-- Node22 -->
<g id="node22" class="node">
<title>Node22</title>
<g id="a_node22"><a xlink:title=" ">
<polygon fill="none" stroke="#bfbfbf" points="0,-246.5 0,-265.5 47,-265.5 47,-246.5 0,-246.5"/>
<text text-anchor="middle" x="23.5" y="-253.5" font-family="Helvetica,sans-Serif" font-size="10.00">chrono</text>
</a>
</g>
</g>
<!-- Node21&#45;&gt;Node22 -->
<g id="edge38" class="edge">
<title>Node21&#45;&gt;Node22</title>
<path fill="none" stroke="midnightblue" d="M132.9,-302.44C111.51,-293.56 77.82,-279.56 53.48,-269.45"/>
<polygon fill="midnightblue" stroke="midnightblue" points="54.58,-266.12 44,-265.52 51.89,-272.58 54.58,-266.12"/>
</g>
<!-- Node23 -->
<g id="node23" class="node">
<title>Node23</title>
<g id="a_node23"><a xlink:title=" ">
<polygon fill="none" stroke="#bfbfbf" points="65.5,-246.5 65.5,-265.5 109.5,-265.5 109.5,-246.5 65.5,-246.5"/>
<text text-anchor="middle" x="87.5" y="-253.5" font-family="Helvetica,sans-Serif" font-size="10.00">cmath</text>
</a>
</g>
</g>
<!-- Node21&#45;&gt;Node23 -->
<g id="edge39" class="edge">
<title>Node21&#45;&gt;Node23</title>
<path fill="none" stroke="midnightblue" d="M142.9,-302.32C133.04,-294.26 118.15,-282.08 106.28,-272.37"/>
<polygon fill="midnightblue" stroke="midnightblue" points="108.25,-269.46 98.3,-265.83 103.82,-274.88 108.25,-269.46"/>
</g>
<!-- Node24 -->
<g id="node24" class="node">
<title>Node24</title>
<g id="a_node24"><a xlink:title=" ">
<polygon fill="none" stroke="#bfbfbf" points="127.5,-246.5 127.5,-265.5 179.5,-265.5 179.5,-246.5 127.5,-246.5"/>
<text text-anchor="middle" x="153.5" y="-253.5" font-family="Helvetica,sans-Serif" font-size="10.00">iomanip</text>
</a>
</g>
</g>
<!-- Node21&#45;&gt;Node24 -->
<g id="edge40" class="edge">
<title>Node21&#45;&gt;Node24</title>
<path fill="none" stroke="midnightblue" d="M153.5,-302.08C153.5,-295.01 153.5,-284.86 153.5,-275.99"/>
<polygon fill="midnightblue" stroke="midnightblue" points="157,-275.75 153.5,-265.75 150,-275.75 157,-275.75"/>
</g>
<!-- Node25 -->
<g id="node25" class="node">
<title>Node25</title>
<g id="a_node25"><a xlink:title=" ">
<polygon fill="none" stroke="#bfbfbf" points="198,-246.5 198,-265.5 253,-265.5 253,-246.5 198,-246.5"/>
<text text-anchor="middle" x="225.5" y="-253.5" font-family="Helvetica,sans-Serif" font-size="10.00">iostream</text>
</a>
</g>
</g>
<!-- Node21&#45;&gt;Node25 -->
<g id="edge41" class="edge">
<title>Node21&#45;&gt;Node25</title>
<path fill="none" stroke="midnightblue" d="M165.07,-302.32C175.92,-294.18 192.38,-281.84 205.38,-272.09"/>
<polygon fill="midnightblue" stroke="midnightblue" points="207.82,-274.63 213.72,-265.83 203.62,-269.03 207.82,-274.63"/>
</g>
<!-- Node26&#45;&gt;Node3 -->
<g id="edge43" class="edge">
<title>Node26&#45;&gt;Node3</title>
<path fill="none" stroke="midnightblue" d="M781.5,-302.08C781.5,-295.01 781.5,-284.86 781.5,-275.99"/>
<polygon fill="midnightblue" stroke="midnightblue" points="785,-275.75 781.5,-265.75 778,-275.75 785,-275.75"/>
</g>
<!-- Node26&#45;&gt;Node4 -->
<g id="edge44" class="edge">
<title>Node26&#45;&gt;Node4</title>
<path fill="none" stroke="midnightblue" d="M826.56,-306.69C887.26,-300.37 998.4,-287.03 1091.5,-266 1155.3,-251.59 1227.78,-227.34 1268.74,-212.89"/>
<polygon fill="midnightblue" stroke="midnightblue" points="1269.95,-216.17 1278.2,-209.52 1267.61,-209.58 1269.95,-216.17"/>
</g>
<!-- Node26&#45;&gt;Node10 -->
<g id="edge50" class="edge">
<title>Node26&#45;&gt;Node10</title>
<path fill="none" stroke="midnightblue" d="M807.44,-302.49C825.14,-295.4 847.78,-283.59 861.5,-266 902.01,-214.05 852.44,-168.05 900.5,-123 927.17,-98 1024.22,-84.12 1088.44,-77.5"/>
<polygon fill="midnightblue" stroke="midnightblue" points="1088.84,-80.97 1098.44,-76.5 1088.15,-74.01 1088.84,-80.97"/>
</g>
<!-- Node26&#45;&gt;Node11 -->
<g id="edge51" class="edge">
<title>Node26&#45;&gt;Node11</title>
<path fill="none" stroke="midnightblue" d="M810.32,-302.48C838.44,-293.97 882.28,-280.14 919.5,-266 1080.2,-204.94 1267.4,-118 1336.28,-85.45"/>
<polygon fill="midnightblue" stroke="midnightblue" points="1338.03,-88.5 1345.57,-81.06 1335.04,-82.17 1338.03,-88.5"/>
</g>
<!-- Node26&#45;&gt;Node15 -->
<g id="edge45" class="edge">
<title>Node26&#45;&gt;Node15</title>
<path fill="none" stroke="midnightblue" d="M736.07,-309.02C686.63,-305.39 606.25,-295.11 543.5,-266 471.84,-232.76 457.03,-213.87 405.5,-154 388.65,-134.42 374.38,-108.12 365.88,-90.76"/>
<polygon fill="midnightblue" stroke="midnightblue" points="368.82,-88.78 361.37,-81.24 362.49,-91.78 368.82,-88.78"/>
</g>
<!-- Node26&#45;&gt;Node16 -->
<g id="edge46" class="edge">
<title>Node26&#45;&gt;Node16</title>
<path fill="none" stroke="midnightblue" d="M750.48,-302.44C732.47,-295.69 711.27,-284.3 700.5,-266 682.57,-235.53 713.55,-233.13 743.5,-154 751.47,-132.93 758.48,-107.99 762.83,-91.29"/>
<polygon fill="midnightblue" stroke="midnightblue" points="766.32,-91.76 765.4,-81.21 759.54,-90.03 766.32,-91.76"/>
</g>
<!-- Node26&#45;&gt;Node17 -->
<g id="edge47" class="edge">
<title>Node26&#45;&gt;Node17</title>
<path fill="none" stroke="midnightblue" d="M736.43,-306.08C659.93,-294.92 507.59,-259.82 452.5,-154 446.14,-141.78 445.51,-134.87 452.5,-123 460.7,-109.08 474.27,-98.72 488.46,-91.14"/>
<polygon fill="midnightblue" stroke="midnightblue" points="490.39,-94.09 497.83,-86.54 487.31,-87.8 490.39,-94.09"/>
</g>
<!-- Node26&#45;&gt;Node18 -->
<g id="edge48" class="edge">
<title>Node26&#45;&gt;Node18</title>
<path fill="none" stroke="midnightblue" d="M819.5,-302.43C843.28,-295.6 873.48,-284.12 895.5,-266 929.75,-237.81 954.25,-191.23 966.83,-163.14"/>
<polygon fill="midnightblue" stroke="midnightblue" points="970.16,-164.27 970.92,-153.7 963.74,-161.49 970.16,-164.27"/>
</g>
<!-- Node26&#45;&gt;Node19 -->
<g id="edge49" class="edge">
<title>Node26&#45;&gt;Node19</title>
<path fill="none" stroke="midnightblue" d="M736.42,-304.04C706.8,-297.79 668.35,-286.35 639.5,-266 598.15,-236.83 566.74,-184.46 552.28,-157.15"/>
<polygon fill="midnightblue" stroke="midnightblue" points="555.26,-155.31 547.58,-148.01 549.04,-158.51 555.26,-155.31"/>
</g>
<!-- Node26&#45;&gt;Node25 -->
<g id="edge52" class="edge">
<title>Node26&#45;&gt;Node25</title>
<path fill="none" stroke="midnightblue" d="M736.47,-306.63C629.71,-296.26 362.77,-270.33 263.48,-260.69"/>
<polygon fill="midnightblue" stroke="midnightblue" points="263.6,-257.18 253.31,-259.7 262.93,-264.15 263.6,-257.18"/>
</g>
</g>
</svg>
