<?xml version="1.0" encoding="UTF-8" standalone="no"?>
<!DOCTYPE svg PUBLIC "-//W3C//DTD SVG 1.1//EN"
 "http://www.w3.org/Graphics/SVG/1.1/DTD/svg11.dtd">
<!-- Generated by graphviz version 2.43.0 (0)
 -->
<!-- Title: TEST_CASE Pages: 1 -->
<svg width="887pt" height="464pt"
 viewBox="0.00 0.00 887.00 464.00" xmlns="http://www.w3.org/2000/svg" xmlns:xlink="http://www.w3.org/1999/xlink">
<g id="graph0" class="graph" transform="scale(1 1) rotate(0) translate(4 460)">
<title>TEST_CASE</title>
<!-- Node1 -->
<g id="node1" class="node">
<title>Node1</title>
<g id="a_node1"><a xlink:title=" ">
<polygon fill="#bfbfbf" stroke="black" points="0,-376.5 0,-395.5 75,-395.5 75,-376.5 0,-376.5"/>
<text text-anchor="middle" x="37.5" y="-383.5" font-family="Helvetica,sans-Serif" font-size="10.00">TEST_CASE</text>
</a>
</g>
</g>
<!-- Node2 -->
<g id="node2" class="node">
<title>Node2</title>
<g id="a_node2"><a xlink:href="classSystemData.html#a9f8ee537e1989aec9c82f3e5b69c3de7" target="_top" xlink:title=" ">
<polygon fill="none" stroke="black" points="114,-395.5 114,-414.5 242,-414.5 242,-395.5 114,-395.5"/>
<text text-anchor="middle" x="178" y="-402.5" font-family="Helvetica,sans-Serif" font-size="10.00">SystemData::gSDParsed</text>
</a>
</g>
</g>
<!-- Node1&#45;&gt;Node2 -->
<g id="edge1" class="edge">
<title>Node1&#45;&gt;Node2</title>
<path fill="none" stroke="midnightblue" d="M75.25,-391.04C84.15,-392.26 93.97,-393.61 103.89,-394.97"/>
<polygon fill="midnightblue" stroke="midnightblue" points="103.44,-398.44 113.83,-396.33 104.39,-391.51 103.44,-398.44"/>
</g>
<!-- Node3 -->
<g id="node3" class="node">
<title>Node3</title>
<g id="a_node3"><a xlink:href="classSystemData.html#ac3a796dc8bf1fa82ea6dec33e548924f" target="_top" xlink:title="Function loads data from GSD file using GSDUtil class.">
<polygon fill="none" stroke="black" points="111,-357.5 111,-376.5 245,-376.5 245,-357.5 111,-357.5"/>
<text text-anchor="middle" x="178" y="-364.5" font-family="Helvetica,sans-Serif" font-size="10.00">SystemData::initializeData</text>
</a>
</g>
</g>
<!-- Node1&#45;&gt;Node3 -->
<g id="edge2" class="edge">
<title>Node1&#45;&gt;Node3</title>
<path fill="none" stroke="midnightblue" d="M75.25,-380.96C83.23,-379.86 91.95,-378.67 100.82,-377.45"/>
<polygon fill="midnightblue" stroke="midnightblue" points="101.45,-380.9 110.88,-376.07 100.49,-373.96 101.45,-380.9"/>
</g>
<!-- Node4 -->
<g id="node4" class="node">
<title>Node4</title>
<g id="a_node4"><a xlink:href="classSystemData.html#a58d7292b7fd9035265eca81d0f088a27" target="_top" xlink:title="Logs private attributes to logfile.">
<polygon fill="none" stroke="black" points="287,-395.5 287,-414.5 398,-414.5 398,-395.5 287,-395.5"/>
<text text-anchor="middle" x="342.5" y="-402.5" font-family="Helvetica,sans-Serif" font-size="10.00">SystemData::logData</text>
</a>
</g>
</g>
<!-- Node3&#45;&gt;Node4 -->
<g id="edge3" class="edge">
<title>Node3&#45;&gt;Node4</title>
<path fill="none" stroke="midnightblue" d="M220.01,-376.59C241.55,-381.63 268.13,-387.84 290.94,-393.18"/>
<polygon fill="midnightblue" stroke="midnightblue" points="290.25,-396.61 300.79,-395.48 291.85,-389.79 290.25,-396.61"/>
</g>
<!-- Node5 -->
<g id="node5" class="node">
<title>Node5</title>
<g id="a_node5"><a xlink:href="classSystemData.html#aa2eb6d7a8870f81a9f4e6484c1f8751c" target="_top" xlink:title="Passes this (SystemData shared pointer instance) into GSDUtil constructor to load data from input GSD...">
<polygon fill="none" stroke="black" points="281,-357.5 281,-376.5 404,-376.5 404,-357.5 281,-357.5"/>
<text text-anchor="middle" x="342.5" y="-364.5" font-family="Helvetica,sans-Serif" font-size="10.00">SystemData::parseGSD</text>
</a>
</g>
</g>
<!-- Node3&#45;&gt;Node5 -->
<g id="edge4" class="edge">
<title>Node3&#45;&gt;Node5</title>
<path fill="none" stroke="midnightblue" d="M245.09,-367C253.53,-367 262.19,-367 270.69,-367"/>
<polygon fill="midnightblue" stroke="midnightblue" points="270.96,-370.5 280.96,-367 270.96,-363.5 270.96,-370.5"/>
</g>
<!-- Node7 -->
<g id="node7" class="node">
<title>Node7</title>
<g id="a_node7"><a xlink:href="classSystemData.html#aa1dc8988cbb137f2667af95ca52a709c" target="_top" xlink:title="Updates all relevant rigid body motion tensors, respective gradients, and kinematic/Udwadia constrain...">
<polygon fill="none" stroke="black" points="289,-241.5 289,-260.5 396,-260.5 396,-241.5 289,-241.5"/>
<text text-anchor="middle" x="342.5" y="-248.5" font-family="Helvetica,sans-Serif" font-size="10.00">SystemData::update</text>
</a>
</g>
</g>
<!-- Node3&#45;&gt;Node7 -->
<g id="edge6" class="edge">
<title>Node3&#45;&gt;Node7</title>
<path fill="none" stroke="midnightblue" d="M192.58,-357.31C220.72,-337.22 285.66,-290.86 319.73,-266.54"/>
<polygon fill="midnightblue" stroke="midnightblue" points="321.97,-269.24 328.08,-260.58 317.91,-263.54 321.97,-269.24"/>
</g>
<!-- Node6 -->
<g id="node6" class="node">
<title>Node6</title>
<g id="a_node6"><a xlink:href="classSystemData.html#a534384a0e92c8a0ffbcec636afbdf65e" target="_top" xlink:title="Various assertions to check data loaded from GSD is at least physical.">
<polygon fill="none" stroke="black" points="461,-436.5 461,-455.5 586,-455.5 586,-436.5 461,-436.5"/>
<text text-anchor="middle" x="523.5" y="-443.5" font-family="Helvetica,sans-Serif" font-size="10.00">SystemData::checkInput</text>
</a>
</g>
</g>
<!-- Node5&#45;&gt;Node6 -->
<g id="edge5" class="edge">
<title>Node5&#45;&gt;Node6</title>
<path fill="none" stroke="midnightblue" d="M384.58,-376.54C391.36,-379.04 398.1,-382.15 404,-386 424.32,-399.23 419.18,-414.57 440,-427 443.69,-429.2 447.62,-431.15 451.67,-432.87"/>
<polygon fill="midnightblue" stroke="midnightblue" points="450.74,-436.26 461.33,-436.5 453.2,-429.71 450.74,-436.26"/>
</g>
<!-- Node8 -->
<g id="node8" class="node">
<title>Node8</title>
<g id="a_node8"><a xlink:href="classSystemData.html#a188c38c8448ed32d3cf697b6f07b9d6a" target="_top" xlink:title="Computes the articulation (linear) accelerations of the particles relative to their respective locate...">
<polygon fill="none" stroke="black" points="456,-261 456,-291 591,-291 591,-261 456,-261"/>
<text text-anchor="start" x="464" y="-279" font-family="Helvetica,sans-Serif" font-size="10.00">SystemData::accelerations</text>
<text text-anchor="middle" x="523.5" y="-268" font-family="Helvetica,sans-Serif" font-size="10.00">Articulation</text>
</a>
</g>
</g>
<!-- Node7&#45;&gt;Node8 -->
<g id="edge7" class="edge">
<title>Node7&#45;&gt;Node8</title>
<path fill="none" stroke="midnightblue" d="M396.24,-258.37C411.7,-260.52 428.92,-262.93 445.56,-265.25"/>
<polygon fill="midnightblue" stroke="midnightblue" points="445.44,-268.77 455.82,-266.69 446.4,-261.84 445.44,-268.77"/>
</g>
<!-- Node9 -->
<g id="node9" class="node">
<title>Node9</title>
<g id="a_node9"><a xlink:href="classSystemData.html#a000a3e77f12b4c1bc9678e9ede202f83" target="_top" xlink:title="Computes the orientation (unit vector) of a particle with respect to its locater point.">
<polygon fill="none" stroke="black" points="455,-212 455,-242 592,-242 592,-212 455,-212"/>
<text text-anchor="start" x="463" y="-230" font-family="Helvetica,sans-Serif" font-size="10.00">SystemData::convertBody2</text>
<text text-anchor="middle" x="523.5" y="-219" font-family="Helvetica,sans-Serif" font-size="10.00">ParticleOrient</text>
</a>
</g>
</g>
<!-- Node7&#45;&gt;Node9 -->
<g id="edge8" class="edge">
<title>Node7&#45;&gt;Node9</title>
<path fill="none" stroke="midnightblue" d="M396.24,-243.93C411.44,-241.89 428.35,-239.62 444.73,-237.43"/>
<polygon fill="midnightblue" stroke="midnightblue" points="445.4,-240.87 454.84,-236.07 444.47,-233.93 445.4,-240.87"/>
</g>
<!-- Node12 -->
<g id="node12" class="node">
<title>Node12</title>
<g id="a_node12"><a xlink:href="classSystemData.html#a3edab27c866d9031739a8bd3b09bac42" target="_top" xlink:title="Computes the positions of all particles from given locater positions and body orientations.">
<polygon fill="none" stroke="black" points="455,-163 455,-193 592,-193 592,-163 455,-163"/>
<text text-anchor="start" x="463" y="-181" font-family="Helvetica,sans-Serif" font-size="10.00">SystemData::convertBody2</text>
<text text-anchor="middle" x="523.5" y="-170" font-family="Helvetica,sans-Serif" font-size="10.00">ParticlePos</text>
</a>
</g>
</g>
<!-- Node7&#45;&gt;Node12 -->
<g id="edge11" class="edge">
<title>Node7&#45;&gt;Node12</title>
<path fill="none" stroke="midnightblue" d="M360.53,-241.43C379.51,-231.04 411.3,-214.39 440,-203 445.84,-200.68 451.99,-198.45 458.18,-196.34"/>
<polygon fill="midnightblue" stroke="midnightblue" points="459.51,-199.59 467.91,-193.13 457.32,-192.94 459.51,-199.59"/>
</g>
<!-- Node13 -->
<g id="node13" class="node">
<title>Node13</title>
<g id="a_node13"><a xlink:href="classSystemData.html#a7da2011ba5d866e5338b14e8b04ace70" target="_top" xlink:title="Computes the particle D.o.F. from the body D.o.F.">
<polygon fill="none" stroke="black" points="455,-114 455,-144 592,-144 592,-114 455,-114"/>
<text text-anchor="start" x="463" y="-132" font-family="Helvetica,sans-Serif" font-size="10.00">SystemData::convertBody2</text>
<text text-anchor="middle" x="523.5" y="-121" font-family="Helvetica,sans-Serif" font-size="10.00">ParticleVelAcc</text>
</a>
</g>
</g>
<!-- Node7&#45;&gt;Node13 -->
<g id="edge12" class="edge">
<title>Node7&#45;&gt;Node13</title>
<path fill="none" stroke="midnightblue" d="M350.34,-241.46C364.73,-222.1 400.09,-177.98 440,-154 443.61,-151.83 447.42,-149.84 451.34,-148.01"/>
<polygon fill="midnightblue" stroke="midnightblue" points="452.85,-151.17 460.67,-144.02 450.1,-144.73 452.85,-151.17"/>
</g>
<!-- Node17 -->
<g id="node17" class="node">
<title>Node17</title>
<g id="a_node17"><a xlink:href="classSystemData.html#a301fa1815b3b68cffc789f1824e29f5e" target="_top" xlink:title="Computes the gradients rigid body motion connectivity tensors and tensors associated with change of v...">
<polygon fill="none" stroke="black" points="450.5,-65 450.5,-95 596.5,-95 596.5,-65 450.5,-65"/>
<text text-anchor="start" x="458.5" y="-83" font-family="Helvetica,sans-Serif" font-size="10.00">SystemData::gradientChange</text>
<text text-anchor="middle" x="523.5" y="-72" font-family="Helvetica,sans-Serif" font-size="10.00">OfVariableTensors</text>
</a>
</g>
</g>
<!-- Node7&#45;&gt;Node17 -->
<g id="edge16" class="edge">
<title>Node7&#45;&gt;Node17</title>
<path fill="none" stroke="midnightblue" d="M347.21,-241.13C357.6,-214.85 389.57,-142.58 440,-105 442.5,-103.14 445.14,-101.41 447.88,-99.81"/>
<polygon fill="midnightblue" stroke="midnightblue" points="449.65,-102.84 456.92,-95.13 446.43,-96.62 449.65,-102.84"/>
</g>
<!-- Node19 -->
<g id="node19" class="node">
<title>Node19</title>
<g id="a_node19"><a xlink:href="classSystemData.html#a30df4f73d78f6886da32559eda83595d" target="_top" xlink:title="Computes the articulation (linear) positions of the particles relative to their respective locater po...">
<polygon fill="none" stroke="black" points="441,-398.5 441,-417.5 606,-417.5 606,-398.5 441,-398.5"/>
<text text-anchor="middle" x="523.5" y="-405.5" font-family="Helvetica,sans-Serif" font-size="10.00">SystemData::positionsArticulation</text>
</a>
</g>
</g>
<!-- Node7&#45;&gt;Node19 -->
<g id="edge19" class="edge">
<title>Node7&#45;&gt;Node19</title>
<path fill="none" stroke="midnightblue" d="M349.03,-260.69C365.45,-289.19 414.43,-371.75 440,-389 442.95,-390.99 446.09,-392.78 449.34,-394.38"/>
<polygon fill="midnightblue" stroke="midnightblue" points="448.2,-397.7 458.77,-398.41 450.95,-391.26 448.2,-397.7"/>
</g>
<!-- Node20 -->
<g id="node20" class="node">
<title>Node20</title>
<g id="a_node20"><a xlink:href="classSystemData.html#ae08b2263f2981e57d0f12ba7881a083b" target="_top" xlink:title="Computes the rigid body motion connectivity tensors.">
<polygon fill="none" stroke="black" points="450,-16 450,-46 597,-46 597,-16 450,-16"/>
<text text-anchor="start" x="458" y="-34" font-family="Helvetica,sans-Serif" font-size="10.00">SystemData::rigidBodyMotion</text>
<text text-anchor="middle" x="523.5" y="-23" font-family="Helvetica,sans-Serif" font-size="10.00">Tensors</text>
</a>
</g>
</g>
<!-- Node7&#45;&gt;Node20 -->
<g id="edge20" class="edge">
<title>Node7&#45;&gt;Node20</title>
<path fill="none" stroke="midnightblue" d="M345.42,-241.12C352.17,-209.08 377.83,-107.18 440,-55 441.54,-53.71 443.15,-52.48 444.82,-51.32"/>
<polygon fill="midnightblue" stroke="midnightblue" points="446.79,-54.22 453.55,-46.06 443.18,-48.22 446.79,-54.22"/>
</g>
<!-- Node22 -->
<g id="node22" class="node">
<title>Node22</title>
<g id="a_node22"><a xlink:href="classSystemData.html#ad1a6489951a00124901c1947381a9be8" target="_top" xlink:title="Computes the Udwadia constraint matrix and vector to uphold the quaternion unitary norm for each body...">
<polygon fill="none" stroke="black" points="453.5,-349 453.5,-379 593.5,-379 593.5,-349 453.5,-349"/>
<text text-anchor="start" x="461.5" y="-367" font-family="Helvetica,sans-Serif" font-size="10.00">SystemData::udwadiaLinear</text>
<text text-anchor="middle" x="523.5" y="-356" font-family="Helvetica,sans-Serif" font-size="10.00">System</text>
</a>
</g>
</g>
<!-- Node7&#45;&gt;Node22 -->
<g id="edge24" class="edge">
<title>Node7&#45;&gt;Node22</title>
<path fill="none" stroke="midnightblue" d="M351.48,-260.72C366.79,-278.75 402.15,-317.49 440,-339 443.73,-341.12 447.66,-343.08 451.7,-344.89"/>
<polygon fill="midnightblue" stroke="midnightblue" points="450.7,-348.26 461.28,-348.84 453.37,-341.79 450.7,-348.26"/>
</g>
<!-- Node23 -->
<g id="node23" class="node">
<title>Node23</title>
<g id="a_node23"><a xlink:href="classSystemData.html#a92ce50a4c8b53aa6a490153c1b09ab8a" target="_top" xlink:title="Computes the articulation (linear) velocities of the particles relative to their respective locater p...">
<polygon fill="none" stroke="black" points="440,-310.5 440,-329.5 607,-329.5 607,-310.5 440,-310.5"/>
<text text-anchor="middle" x="523.5" y="-317.5" font-family="Helvetica,sans-Serif" font-size="10.00">SystemData::velocitiesArticulation</text>
</a>
</g>
</g>
<!-- Node7&#45;&gt;Node23 -->
<g id="edge25" class="edge">
<title>Node7&#45;&gt;Node23</title>
<path fill="none" stroke="midnightblue" d="M358.99,-260.59C377.6,-271.73 410.07,-290 440,-301 447,-303.57 454.47,-305.87 461.95,-307.91"/>
<polygon fill="midnightblue" stroke="midnightblue" points="461.18,-311.32 471.74,-310.43 462.93,-304.55 461.18,-311.32"/>
</g>
<!-- Node10 -->
<g id="node10" class="node">
<title>Node10</title>
<g id="a_node10"><a xlink:href="helper__math_8h.html#ae4378072f9d836b0d4770a1514db2be3" target="_top" xlink:title=" ">
<polygon fill="none" stroke="black" points="696,-217.5 696,-236.5 728,-236.5 728,-217.5 696,-217.5"/>
<text text-anchor="middle" x="712" y="-224.5" font-family="Helvetica,sans-Serif" font-size="10.00">abs</text>
</a>
</g>
</g>
<!-- Node9&#45;&gt;Node10 -->
<g id="edge9" class="edge">
<title>Node9&#45;&gt;Node10</title>
<path fill="none" stroke="midnightblue" d="M592.09,-227C624.64,-227 661.7,-227 685.68,-227"/>
<polygon fill="midnightblue" stroke="midnightblue" points="685.71,-230.5 695.71,-227 685.71,-223.5 685.71,-230.5"/>
</g>
<!-- Node11 -->
<g id="node11" class="node">
<title>Node11</title>
<g id="a_node11"><a xlink:href="helper__math_8h.html#a3be05aff487ded3c05aab21d24dd6439" target="_top" xlink:title=" ">
<polygon fill="none" stroke="black" points="817,-217.5 817,-236.5 879,-236.5 879,-217.5 817,-217.5"/>
<text text-anchor="middle" x="848" y="-224.5" font-family="Helvetica,sans-Serif" font-size="10.00">make_int2</text>
</a>
</g>
</g>
<!-- Node10&#45;&gt;Node11 -->
<g id="edge10" class="edge">
<title>Node10&#45;&gt;Node11</title>
<path fill="none" stroke="midnightblue" d="M728.11,-227C747.02,-227 780.15,-227 806.64,-227"/>
<polygon fill="midnightblue" stroke="midnightblue" points="806.79,-230.5 816.79,-227 806.79,-223.5 806.79,-230.5"/>
</g>
<!-- Node14 -->
<g id="node14" class="node">
<title>Node14</title>
<g id="a_node14"><a xlink:href="helper__eigenTensorConversion_8hpp.html#a556d08b55a6ad7cd703b6db06194e5cf" target="_top" xlink:title=" ">
<polygon fill="none" stroke="black" points="679.5,-119.5 679.5,-138.5 744.5,-138.5 744.5,-119.5 679.5,-119.5"/>
<text text-anchor="middle" x="712" y="-126.5" font-family="Helvetica,sans-Serif" font-size="10.00">MatrixCast</text>
</a>
</g>
</g>
<!-- Node13&#45;&gt;Node14 -->
<g id="edge13" class="edge">
<title>Node13&#45;&gt;Node14</title>
<path fill="none" stroke="midnightblue" d="M592.09,-129C617.83,-129 646.4,-129 669.08,-129"/>
<polygon fill="midnightblue" stroke="midnightblue" points="669.38,-132.5 679.38,-129 669.38,-125.5 669.38,-132.5"/>
</g>
<!-- Node16 -->
<g id="node16" class="node">
<title>Node16</title>
<g id="a_node16"><a xlink:href="helper__eigenTensorConversion_8hpp.html#a3a32f7de3f099464192073a93b34d580" target="_top" xlink:title="Convert Eigen::Matrix &#45;&#45;&gt; Eigen::Tensor.">
<polygon fill="none" stroke="black" points="678.5,-76.5 678.5,-95.5 745.5,-95.5 745.5,-76.5 678.5,-76.5"/>
<text text-anchor="middle" x="712" y="-83.5" font-family="Helvetica,sans-Serif" font-size="10.00">TensorCast</text>
</a>
</g>
</g>
<!-- Node13&#45;&gt;Node16 -->
<g id="edge15" class="edge">
<title>Node13&#45;&gt;Node16</title>
<path fill="none" stroke="midnightblue" d="M589.73,-113.96C615.81,-107.95 645.11,-101.19 668.37,-95.83"/>
<polygon fill="midnightblue" stroke="midnightblue" points="669.32,-99.2 678.28,-93.54 667.75,-92.38 669.32,-99.2"/>
</g>
<!-- Node15 -->
<g id="node15" class="node">
<title>Node15</title>
<g id="a_node15"><a xlink:href="helper__eigenTensorConversion_8hpp.html#a2a7eca6b17fb874869047bd0b5f11b46" target="_top" xlink:title="Convert between Eigen::Tensor and Eigen::Matrix classes.">
<polygon fill="none" stroke="black" points="824.5,-119.5 824.5,-138.5 871.5,-138.5 871.5,-119.5 824.5,-119.5"/>
<text text-anchor="middle" x="848" y="-126.5" font-family="Helvetica,sans-Serif" font-size="10.00">asEval</text>
</a>
</g>
</g>
<!-- Node14&#45;&gt;Node15 -->
<g id="edge14" class="edge">
<title>Node14&#45;&gt;Node15</title>
<path fill="none" stroke="midnightblue" d="M744.76,-129C765.68,-129 793.01,-129 814.15,-129"/>
<polygon fill="midnightblue" stroke="midnightblue" points="814.27,-132.5 824.27,-129 814.27,-125.5 814.27,-132.5"/>
</g>
<!-- Node17&#45;&gt;Node16 -->
<g id="edge18" class="edge">
<title>Node17&#45;&gt;Node16</title>
<path fill="none" stroke="midnightblue" d="M596.61,-82.32C620.63,-83.09 646.64,-83.93 667.77,-84.61"/>
<polygon fill="midnightblue" stroke="midnightblue" points="667.92,-88.12 678.03,-84.94 668.15,-81.12 667.92,-88.12"/>
</g>
<!-- Node18 -->
<g id="node18" class="node">
<title>Node18</title>
<g id="a_node18"><a xlink:href="classSystemData.html#ae26a9488a5a2aa80082fba98c7b9d004" target="_top" xlink:title="Computes the E matrix of quaternion (4&#45;vector) input.">
<polygon fill="none" stroke="black" points="657,-38.5 657,-57.5 767,-57.5 767,-38.5 657,-38.5"/>
<text text-anchor="middle" x="712" y="-45.5" font-family="Helvetica,sans-Serif" font-size="10.00">SystemData::eMatrix</text>
</a>
</g>
</g>
<!-- Node17&#45;&gt;Node18 -->
<g id="edge17" class="edge">
<title>Node17&#45;&gt;Node18</title>
<path fill="none" stroke="midnightblue" d="M596.61,-67.63C613.16,-64.79 630.65,-61.79 646.84,-59.01"/>
<polygon fill="midnightblue" stroke="midnightblue" points="647.47,-62.45 656.73,-57.31 646.28,-55.55 647.47,-62.45"/>
</g>
<!-- Node20&#45;&gt;Node16 -->
<g id="edge23" class="edge">
<title>Node20&#45;&gt;Node16</title>
<path fill="none" stroke="midnightblue" d="M577.4,-46.06C587.26,-48.96 597.46,-52.02 607,-55 623.1,-60.02 626.87,-62.06 643,-67 651.26,-69.53 660.12,-72.1 668.62,-74.51"/>
<polygon fill="midnightblue" stroke="midnightblue" points="667.82,-77.92 678.39,-77.24 669.7,-71.18 667.82,-77.92"/>
</g>
<!-- Node20&#45;&gt;Node18 -->
<g id="edge22" class="edge">
<title>Node20&#45;&gt;Node18</title>
<path fill="none" stroke="midnightblue" d="M597.14,-37.62C613.42,-39.1 630.57,-40.67 646.49,-42.12"/>
<polygon fill="midnightblue" stroke="midnightblue" points="646.48,-45.63 656.76,-43.06 647.11,-38.66 646.48,-45.63"/>
</g>
<!-- Node21 -->
<g id="node21" class="node">
<title>Node21</title>
<g id="a_node21"><a xlink:href="classSystemData.html#a7cefde66d9e18e2517f11505dd434d0e" target="_top" xlink:title="Function takes in vector in vector cross&#45;product expression: .">
<polygon fill="none" stroke="black" points="643,-0.5 643,-19.5 781,-19.5 781,-0.5 643,-0.5"/>
<text text-anchor="middle" x="712" y="-7.5" font-family="Helvetica,sans-Serif" font-size="10.00">SystemData::crossProdMat</text>
</a>
</g>
</g>
<!-- Node20&#45;&gt;Node21 -->
<g id="edge21" class="edge">
<title>Node20&#45;&gt;Node21</title>
<path fill="none" stroke="midnightblue" d="M597.14,-22.82C608.77,-21.51 620.85,-20.15 632.6,-18.83"/>
<polygon fill="midnightblue" stroke="midnightblue" points="633.28,-22.27 642.83,-17.68 632.5,-15.32 633.28,-22.27"/>
</g>
</g>
</svg>
