<?xml version="1.0" encoding="UTF-8" standalone="no"?>
<!DOCTYPE svg PUBLIC "-//W3C//DTD SVG 1.1//EN"
 "http://www.w3.org/Graphics/SVG/1.1/DTD/svg11.dtd">
<!-- Generated by graphviz version 2.43.0 (0)
 -->
<!-- Title: test/simulation_system/testSystemData.hpp Pages: 1 -->
<svg width="1116pt" height="285pt"
 viewBox="0.00 0.00 1116.00 285.00" xmlns="http://www.w3.org/2000/svg" xmlns:xlink="http://www.w3.org/1999/xlink">
<g id="graph0" class="graph" transform="scale(1 1) rotate(0) translate(4 281)">
<title>test/simulation_system/testSystemData.hpp</title>
<!-- Node1 -->
<g id="node1" class="node">
<title>Node1</title>
<g id="a_node1"><a xlink:title=" ">
<polygon fill="#bfbfbf" stroke="black" points="462,-246.5 462,-276.5 580,-276.5 580,-246.5 462,-246.5"/>
<text text-anchor="start" x="470" y="-264.5" font-family="Helvetica,sans-Serif" font-size="10.00">test/simulation_system</text>
<text text-anchor="middle" x="521" y="-253.5" font-family="Helvetica,sans-Serif" font-size="10.00">/testSystemData.hpp</text>
</a>
</g>
</g>
<!-- Node2 -->
<g id="node2" class="node">
<title>Node2</title>
<g id="a_node2"><a xlink:href="systemData_8hpp.html" target="_top" xlink:title=" ">
<polygon fill="none" stroke="black" points="433.5,-190.5 433.5,-209.5 522.5,-209.5 522.5,-190.5 433.5,-190.5"/>
<text text-anchor="middle" x="478" y="-197.5" font-family="Helvetica,sans-Serif" font-size="10.00">systemData.hpp</text>
</a>
</g>
</g>
<!-- Node1&#45;&gt;Node2 -->
<g id="edge1" class="edge">
<title>Node1&#45;&gt;Node2</title>
<path fill="none" stroke="midnightblue" d="M510.81,-246.4C504.63,-237.84 496.7,-226.87 490.18,-217.86"/>
<polygon fill="midnightblue" stroke="midnightblue" points="492.95,-215.71 484.26,-209.66 487.28,-219.81 492.95,-215.71"/>
</g>
<!-- Node20 -->
<g id="node20" class="node">
<title>Node20</title>
<g id="a_node20"><a xlink:title=" ">
<polygon fill="none" stroke="#bfbfbf" points="540.5,-190.5 540.5,-209.5 589.5,-209.5 589.5,-190.5 540.5,-190.5"/>
<text text-anchor="middle" x="565" y="-197.5" font-family="Helvetica,sans-Serif" font-size="10.00">random</text>
</a>
</g>
</g>
<!-- Node1&#45;&gt;Node20 -->
<g id="edge29" class="edge">
<title>Node1&#45;&gt;Node20</title>
<path fill="none" stroke="midnightblue" d="M531.43,-246.4C537.76,-237.84 545.87,-226.87 552.53,-217.86"/>
<polygon fill="midnightblue" stroke="midnightblue" points="555.47,-219.78 558.6,-209.66 549.84,-215.62 555.47,-219.78"/>
</g>
<!-- Node3 -->
<g id="node3" class="node">
<title>Node3</title>
<g id="a_node3"><a xlink:href="GSDUtil_8hpp.html" target="_top" xlink:title=" ">
<polygon fill="none" stroke="black" points="302,-129 302,-148 374,-148 374,-129 302,-129"/>
<text text-anchor="middle" x="338" y="-136" font-family="Helvetica,sans-Serif" font-size="10.00">GSDUtil.hpp</text>
</a>
</g>
</g>
<!-- Node2&#45;&gt;Node3 -->
<g id="edge2" class="edge">
<title>Node2&#45;&gt;Node3</title>
<path fill="none" stroke="midnightblue" d="M453.04,-190.48C427.37,-180.49 387.96,-163.85 362.47,-152.31"/>
<polygon fill="midnightblue" stroke="midnightblue" points="363.67,-149.01 353.12,-148.01 360.75,-155.37 363.67,-149.01"/>
</g>
<!-- Node4 -->
<g id="node4" class="node">
<title>Node4</title>
<g id="a_node4"><a xlink:href="gsd_8h.html" target="_top" xlink:title="Declare GSD data types and C API.">
<polygon fill="none" stroke="black" points="78.5,-62 78.5,-81 119.5,-81 119.5,-62 78.5,-62"/>
<text text-anchor="middle" x="99" y="-69" font-family="Helvetica,sans-Serif" font-size="10.00">gsd.h</text>
</a>
</g>
</g>
<!-- Node2&#45;&gt;Node4 -->
<g id="edge13" class="edge">
<title>Node2&#45;&gt;Node4</title>
<path fill="none" stroke="midnightblue" d="M433.12,-195.77C382.77,-191.03 299.32,-179.75 232,-154 188.3,-137.28 143,-106.01 118.17,-87.44"/>
<polygon fill="midnightblue" stroke="midnightblue" points="120.07,-84.49 109.99,-81.22 115.84,-90.06 120.07,-84.49"/>
</g>
<!-- Node8 -->
<g id="node8" class="node">
<title>Node8</title>
<g id="a_node8"><a xlink:title=" ">
<polygon fill="none" stroke="#bfbfbf" points="138,-56.5 138,-86.5 236,-86.5 236,-56.5 138,-56.5"/>
<text text-anchor="start" x="146" y="-74.5" font-family="Helvetica,sans-Serif" font-size="10.00">spdlog/sinks/basic</text>
<text text-anchor="middle" x="187" y="-63.5" font-family="Helvetica,sans-Serif" font-size="10.00">_file_sink.h</text>
</a>
</g>
</g>
<!-- Node2&#45;&gt;Node8 -->
<g id="edge15" class="edge">
<title>Node2&#45;&gt;Node8</title>
<path fill="none" stroke="midnightblue" d="M433.39,-195.2C391.8,-190.23 328.99,-178.98 280,-154 250.71,-139.07 223.19,-112.84 205.8,-94.17"/>
<polygon fill="midnightblue" stroke="midnightblue" points="208.31,-91.73 198.99,-86.69 203.13,-96.44 208.31,-91.73"/>
</g>
<!-- Node9 -->
<g id="node9" class="node">
<title>Node9</title>
<g id="a_node9"><a xlink:title=" ">
<polygon fill="none" stroke="#bfbfbf" points="254.5,-62 254.5,-81 339.5,-81 339.5,-62 254.5,-62"/>
<text text-anchor="middle" x="297" y="-69" font-family="Helvetica,sans-Serif" font-size="10.00">spdlog/spdlog.h</text>
</a>
</g>
</g>
<!-- Node2&#45;&gt;Node9 -->
<g id="edge16" class="edge">
<title>Node2&#45;&gt;Node9</title>
<path fill="none" stroke="midnightblue" d="M433.09,-194.39C384.03,-188.31 310.11,-175.77 293,-154 279.02,-136.21 284.04,-108.88 289.8,-90.85"/>
<polygon fill="midnightblue" stroke="midnightblue" points="293.17,-91.82 293.22,-81.22 286.57,-89.47 293.17,-91.82"/>
</g>
<!-- Node10 -->
<g id="node10" class="node">
<title>Node10</title>
<g id="a_node10"><a xlink:title=" ">
<polygon fill="none" stroke="#bfbfbf" points="358,-62 358,-81 410,-81 410,-62 358,-62"/>
<text text-anchor="middle" x="384" y="-69" font-family="Helvetica,sans-Serif" font-size="10.00">memory</text>
</a>
</g>
</g>
<!-- Node2&#45;&gt;Node10 -->
<g id="edge25" class="edge">
<title>Node2&#45;&gt;Node10</title>
<path fill="none" stroke="midnightblue" d="M471.54,-190.31C456.11,-169.54 416.9,-116.77 396.6,-89.46"/>
<polygon fill="midnightblue" stroke="midnightblue" points="399.28,-87.19 390.51,-81.26 393.66,-91.37 399.28,-87.19"/>
</g>
<!-- Node11 -->
<g id="node11" class="node">
<title>Node11</title>
<g id="a_node11"><a xlink:title=" ">
<polygon fill="none" stroke="#bfbfbf" points="428.5,-62 428.5,-81 487.5,-81 487.5,-62 428.5,-62"/>
<text text-anchor="middle" x="458" y="-69" font-family="Helvetica,sans-Serif" font-size="10.00">stdexcept</text>
</a>
</g>
</g>
<!-- Node2&#45;&gt;Node11 -->
<g id="edge26" class="edge">
<title>Node2&#45;&gt;Node11</title>
<path fill="none" stroke="midnightblue" d="M474.6,-190.19C471.3,-181.22 466.44,-166.86 464,-154 459.96,-132.71 458.6,-107.81 458.17,-91.19"/>
<polygon fill="midnightblue" stroke="midnightblue" points="461.67,-91.09 457.99,-81.15 454.67,-91.21 461.67,-91.09"/>
</g>
<!-- Node12 -->
<g id="node12" class="node">
<title>Node12</title>
<g id="a_node12"><a xlink:title=" ">
<polygon fill="none" stroke="#bfbfbf" points="505.5,-62 505.5,-81 546.5,-81 546.5,-62 505.5,-62"/>
<text text-anchor="middle" x="526" y="-69" font-family="Helvetica,sans-Serif" font-size="10.00">string</text>
</a>
</g>
</g>
<!-- Node2&#45;&gt;Node12 -->
<g id="edge27" class="edge">
<title>Node2&#45;&gt;Node12</title>
<path fill="none" stroke="midnightblue" d="M479.36,-190.32C481.8,-175.95 487.54,-146.46 497,-123 501.71,-111.33 508.69,-99.06 514.63,-89.54"/>
<polygon fill="midnightblue" stroke="midnightblue" points="517.62,-91.37 520.09,-81.06 511.74,-87.57 517.62,-91.37"/>
</g>
<!-- Node13 -->
<g id="node13" class="node">
<title>Node13</title>
<g id="a_node13"><a xlink:title=" ">
<polygon fill="none" stroke="#bfbfbf" points="506,-129 506,-148 596,-148 596,-129 506,-129"/>
<text text-anchor="middle" x="551" y="-136" font-family="Helvetica,sans-Serif" font-size="10.00">spdlog/fmt/ostr.h</text>
</a>
</g>
</g>
<!-- Node2&#45;&gt;Node13 -->
<g id="edge14" class="edge">
<title>Node2&#45;&gt;Node13</title>
<path fill="none" stroke="midnightblue" d="M488.46,-190.48C499.95,-181.11 518.63,-165.88 532.59,-154.51"/>
<polygon fill="midnightblue" stroke="midnightblue" points="535.02,-157.04 540.56,-148.01 530.6,-151.61 535.02,-157.04"/>
</g>
<!-- Node14 -->
<g id="node14" class="node">
<title>Node14</title>
<g id="a_node14"><a xlink:title=" ">
<polygon fill="none" stroke="#bfbfbf" points="584.5,-62 584.5,-81 681.5,-81 681.5,-62 584.5,-62"/>
<text text-anchor="middle" x="633" y="-69" font-family="Helvetica,sans-Serif" font-size="10.00">eigen3/Eigen/Core</text>
</a>
</g>
</g>
<!-- Node2&#45;&gt;Node14 -->
<g id="edge17" class="edge">
<title>Node2&#45;&gt;Node14</title>
<path fill="none" stroke="midnightblue" d="M512.32,-190.45C545.22,-181.64 591.79,-167.34 605,-154 621.74,-137.1 628.49,-109.75 631.2,-91.46"/>
<polygon fill="midnightblue" stroke="midnightblue" points="634.69,-91.76 632.42,-81.41 627.74,-90.91 634.69,-91.76"/>
</g>
<!-- Node15 -->
<g id="node15" class="node">
<title>Node15</title>
<g id="a_node15"><a xlink:title=" ">
<polygon fill="none" stroke="#bfbfbf" points="706.5,-62 706.5,-81 807.5,-81 807.5,-62 706.5,-62"/>
<text text-anchor="middle" x="757" y="-69" font-family="Helvetica,sans-Serif" font-size="10.00">eigen3/Eigen/Eigen</text>
</a>
</g>
</g>
<!-- Node2&#45;&gt;Node15 -->
<g id="edge18" class="edge">
<title>Node2&#45;&gt;Node15</title>
<path fill="none" stroke="midnightblue" d="M522.51,-191.28C525.38,-190.83 528.23,-190.4 531,-190 597.01,-180.41 784.75,-203.91 829,-154 850.25,-130.03 811.72,-102.04 783.31,-85.88"/>
<polygon fill="midnightblue" stroke="midnightblue" points="784.98,-82.81 774.53,-81.07 781.61,-88.95 784.98,-82.81"/>
</g>
<!-- Node16 -->
<g id="node16" class="node">
<title>Node16</title>
<g id="a_node16"><a xlink:title=" ">
<polygon fill="none" stroke="#bfbfbf" points="829,-56.5 829,-86.5 939,-86.5 939,-56.5 829,-56.5"/>
<text text-anchor="start" x="837" y="-74.5" font-family="Helvetica,sans-Serif" font-size="10.00">eigen3/unsupported</text>
<text text-anchor="middle" x="884" y="-63.5" font-family="Helvetica,sans-Serif" font-size="10.00">/Eigen/CXX11/Tensor</text>
</a>
</g>
</g>
<!-- Node2&#45;&gt;Node16 -->
<g id="edge19" class="edge">
<title>Node2&#45;&gt;Node16</title>
<path fill="none" stroke="midnightblue" d="M522.51,-191.26C525.38,-190.82 528.23,-190.39 531,-190 600.76,-180.1 788.83,-195.17 846,-154 864.73,-140.51 874.5,-115.43 879.41,-96.64"/>
<polygon fill="midnightblue" stroke="midnightblue" points="882.86,-97.23 881.72,-86.7 876.05,-95.65 882.86,-97.23"/>
</g>
<!-- Node17 -->
<g id="node17" class="node">
<title>Node17</title>
<g id="a_node17"><a xlink:title=" ">
<polygon fill="none" stroke="#bfbfbf" points="914.5,-123.5 914.5,-153.5 1045.5,-153.5 1045.5,-123.5 914.5,-123.5"/>
<text text-anchor="start" x="922.5" y="-141.5" font-family="Helvetica,sans-Serif" font-size="10.00">eigen3/unsupported</text>
<text text-anchor="middle" x="980" y="-130.5" font-family="Helvetica,sans-Serif" font-size="10.00">/Eigen/CXX11/ThreadPool</text>
</a>
</g>
</g>
<!-- Node2&#45;&gt;Node17 -->
<g id="edge20" class="edge">
<title>Node2&#45;&gt;Node17</title>
<path fill="none" stroke="midnightblue" d="M522.79,-191.17C525.56,-190.75 528.32,-190.36 531,-190 694.33,-168.19 736.79,-176.71 900,-154 901.3,-153.82 902.61,-153.63 903.92,-153.44"/>
<polygon fill="midnightblue" stroke="midnightblue" points="904.79,-156.85 914.15,-151.88 903.73,-149.93 904.79,-156.85"/>
</g>
<!-- Node18 -->
<g id="node18" class="node">
<title>Node18</title>
<g id="a_node18"><a xlink:href="helper__eigenTensorConversion_8hpp.html" target="_top" xlink:title=" ">
<polygon fill="none" stroke="black" points="651.5,-129 651.5,-148 820.5,-148 820.5,-129 651.5,-129"/>
<text text-anchor="middle" x="736" y="-136" font-family="Helvetica,sans-Serif" font-size="10.00">helper_eigenTensorConversion.hpp</text>
</a>
</g>
</g>
<!-- Node2&#45;&gt;Node18 -->
<g id="edge21" class="edge">
<title>Node2&#45;&gt;Node18</title>
<path fill="none" stroke="midnightblue" d="M514.97,-190.48C560.85,-179.89 639.15,-161.84 689.18,-150.3"/>
<polygon fill="midnightblue" stroke="midnightblue" points="690.15,-153.67 699.1,-148.01 688.57,-146.85 690.15,-153.67"/>
</g>
<!-- Node19 -->
<g id="node19" class="node">
<title>Node19</title>
<g id="a_node19"><a xlink:title=" ">
<polygon fill="none" stroke="#bfbfbf" points="1064,-129 1064,-148 1108,-148 1108,-129 1064,-129"/>
<text text-anchor="middle" x="1086" y="-136" font-family="Helvetica,sans-Serif" font-size="10.00">thread</text>
</a>
</g>
</g>
<!-- Node2&#45;&gt;Node19 -->
<g id="edge28" class="edge">
<title>Node2&#45;&gt;Node19</title>
<path fill="none" stroke="midnightblue" d="M522.77,-191.07C525.55,-190.68 528.31,-190.32 531,-190 762.8,-162.43 829,-212.44 1055,-154 1056.98,-153.49 1059,-152.85 1060.99,-152.13"/>
<polygon fill="midnightblue" stroke="midnightblue" points="1062.8,-155.16 1070.65,-148.04 1060.08,-148.72 1062.8,-155.16"/>
</g>
<!-- Node3&#45;&gt;Node2 -->
<g id="edge7" class="edge">
<title>Node3&#45;&gt;Node2</title>
<path fill="none" stroke="midnightblue" d="M362.92,-148.01C388.58,-157.99 427.99,-174.63 453.49,-186.17"/>
<polygon fill="midnightblue" stroke="midnightblue" points="452.29,-189.48 462.84,-190.48 455.22,-183.12 452.29,-189.48"/>
</g>
<!-- Node3&#45;&gt;Node4 -->
<g id="edge3" class="edge">
<title>Node3&#45;&gt;Node4</title>
<path fill="none" stroke="midnightblue" d="M301.82,-131.19C259.6,-123.28 188.05,-108.13 129,-87 127.57,-86.49 126.12,-85.93 124.66,-85.34"/>
<polygon fill="midnightblue" stroke="midnightblue" points="125.79,-82.01 115.23,-81.12 122.94,-88.4 125.79,-82.01"/>
</g>
<!-- Node3&#45;&gt;Node8 -->
<g id="edge8" class="edge">
<title>Node3&#45;&gt;Node8</title>
<path fill="none" stroke="midnightblue" d="M317.95,-128.87C295.39,-119.16 258.11,-103.11 229.08,-90.61"/>
<polygon fill="midnightblue" stroke="midnightblue" points="230.16,-87.27 219.59,-86.53 227.39,-93.7 230.16,-87.27"/>
</g>
<!-- Node3&#45;&gt;Node9 -->
<g id="edge9" class="edge">
<title>Node3&#45;&gt;Node9</title>
<path fill="none" stroke="midnightblue" d="M332.47,-128.73C326.2,-118.79 315.82,-102.34 307.91,-89.79"/>
<polygon fill="midnightblue" stroke="midnightblue" points="310.74,-87.72 302.44,-81.13 304.82,-91.45 310.74,-87.72"/>
</g>
<!-- Node3&#45;&gt;Node10 -->
<g id="edge10" class="edge">
<title>Node3&#45;&gt;Node10</title>
<path fill="none" stroke="midnightblue" d="M344.2,-128.73C351.31,-118.7 363.11,-102.01 372.02,-89.42"/>
<polygon fill="midnightblue" stroke="midnightblue" points="374.97,-91.31 377.89,-81.13 369.26,-87.27 374.97,-91.31"/>
</g>
<!-- Node3&#45;&gt;Node11 -->
<g id="edge11" class="edge">
<title>Node3&#45;&gt;Node11</title>
<path fill="none" stroke="midnightblue" d="M354.18,-128.73C374.43,-117.77 409.3,-98.88 432.99,-86.05"/>
<polygon fill="midnightblue" stroke="midnightblue" points="434.95,-88.97 442.07,-81.13 431.61,-82.81 434.95,-88.97"/>
</g>
<!-- Node3&#45;&gt;Node12 -->
<g id="edge12" class="edge">
<title>Node3&#45;&gt;Node12</title>
<path fill="none" stroke="midnightblue" d="M369.04,-128.98C401.23,-119.83 452.81,-104.24 496,-87 497.38,-86.45 498.78,-85.87 500.19,-85.26"/>
<polygon fill="midnightblue" stroke="midnightblue" points="501.73,-88.4 509.37,-81.05 498.82,-82.03 501.73,-88.4"/>
</g>
<!-- Node5 -->
<g id="node5" class="node">
<title>Node5</title>
<g id="a_node5"><a xlink:title=" ">
<polygon fill="none" stroke="#bfbfbf" points="0,-0.5 0,-19.5 56,-19.5 56,-0.5 0,-0.5"/>
<text text-anchor="middle" x="28" y="-7.5" font-family="Helvetica,sans-Serif" font-size="10.00">stdbool.h</text>
</a>
</g>
</g>
<!-- Node4&#45;&gt;Node5 -->
<g id="edge4" class="edge">
<title>Node4&#45;&gt;Node5</title>
<path fill="none" stroke="midnightblue" d="M88.83,-61.98C77.65,-52.61 59.48,-37.38 45.91,-26.01"/>
<polygon fill="midnightblue" stroke="midnightblue" points="48.07,-23.25 38.15,-19.51 43.57,-28.61 48.07,-23.25"/>
</g>
<!-- Node6 -->
<g id="node6" class="node">
<title>Node6</title>
<g id="a_node6"><a xlink:title=" ">
<polygon fill="none" stroke="#bfbfbf" points="74.5,-0.5 74.5,-19.5 123.5,-19.5 123.5,-0.5 74.5,-0.5"/>
<text text-anchor="middle" x="99" y="-7.5" font-family="Helvetica,sans-Serif" font-size="10.00">stdint.h</text>
</a>
</g>
</g>
<!-- Node4&#45;&gt;Node6 -->
<g id="edge5" class="edge">
<title>Node4&#45;&gt;Node6</title>
<path fill="none" stroke="midnightblue" d="M99,-61.98C99,-53.58 99,-40.48 99,-29.66"/>
<polygon fill="midnightblue" stroke="midnightblue" points="102.5,-29.51 99,-19.51 95.5,-29.51 102.5,-29.51"/>
</g>
<!-- Node7 -->
<g id="node7" class="node">
<title>Node7</title>
<g id="a_node7"><a xlink:title=" ">
<polygon fill="none" stroke="#bfbfbf" points="141.5,-0.5 141.5,-19.5 190.5,-19.5 190.5,-0.5 141.5,-0.5"/>
<text text-anchor="middle" x="166" y="-7.5" font-family="Helvetica,sans-Serif" font-size="10.00">string.h</text>
</a>
</g>
</g>
<!-- Node4&#45;&gt;Node7 -->
<g id="edge6" class="edge">
<title>Node4&#45;&gt;Node7</title>
<path fill="none" stroke="midnightblue" d="M108.6,-61.98C119.05,-52.7 135.97,-37.67 148.74,-26.33"/>
<polygon fill="midnightblue" stroke="midnightblue" points="151.27,-28.77 156.42,-19.51 146.62,-23.53 151.27,-28.77"/>
</g>
<!-- Node18&#45;&gt;Node14 -->
<g id="edge22" class="edge">
<title>Node18&#45;&gt;Node14</title>
<path fill="none" stroke="midnightblue" d="M722.11,-128.73C704.97,-117.92 675.6,-99.38 655.29,-86.57"/>
<polygon fill="midnightblue" stroke="midnightblue" points="657,-83.5 646.67,-81.13 653.26,-89.42 657,-83.5"/>
</g>
<!-- Node18&#45;&gt;Node15 -->
<g id="edge23" class="edge">
<title>Node18&#45;&gt;Node15</title>
<path fill="none" stroke="midnightblue" d="M738.83,-128.73C741.95,-119.09 747.05,-103.3 751.05,-90.91"/>
<polygon fill="midnightblue" stroke="midnightblue" points="754.47,-91.72 754.21,-81.13 747.81,-89.57 754.47,-91.72"/>
</g>
<!-- Node18&#45;&gt;Node16 -->
<g id="edge24" class="edge">
<title>Node18&#45;&gt;Node16</title>
<path fill="none" stroke="midnightblue" d="M755.65,-128.87C777.77,-119.16 814.31,-103.11 842.75,-90.61"/>
<polygon fill="midnightblue" stroke="midnightblue" points="844.31,-93.75 852.06,-86.53 841.5,-87.34 844.31,-93.75"/>
</g>
</g>
</svg>
