<?xml version="1.0" encoding="UTF-8" standalone="no"?>
<!DOCTYPE svg PUBLIC "-//W3C//DTD SVG 1.1//EN"
 "http://www.w3.org/Graphics/SVG/1.1/DTD/svg11.dtd">
<!-- Generated by graphviz version 2.49.1 (20210923.0004)
 -->
<!-- Title: getCmdLineArgumentValue Pages: 1 -->
<svg width="367pt" height="66pt"
 viewBox="0.00 0.00 367.00 66.00" xmlns="http://www.w3.org/2000/svg" xmlns:xlink="http://www.w3.org/1999/xlink">
<g id="graph0" class="graph" transform="scale(1 1) rotate(0) translate(4 62)">
<title>getCmdLineArgumentValue</title>
<!-- Node1 -->
<g id="node1" class="node">
<title>Node1</title>
<g id="a_node1"><a xlink:title=" ">
<polygon fill="#bfbfbf" stroke="black" points="0,-19.5 0,-38.5 139,-38.5 139,-19.5 0,-19.5"/>
<text text-anchor="middle" x="69.5" y="-26.5" font-family="Helvetica,sans-Serif" font-size="10.00">getCmdLineArgumentValue</text>
</a>
</g>
</g>
<!-- Node2 -->
<g id="node2" class="node">
<title>Node2</title>
<g id="a_node2"><a xlink:href="../../d2/de2/helper__math_8h.html#a2fcd5057894d92219f3d8e11e6ace2ff" target="_top" xlink:title=" ">
<polygon fill="none" stroke="black" points="212,-38.5 212,-57.5 256,-57.5 256,-38.5 212,-38.5"/>
<text text-anchor="middle" x="234" y="-45.5" font-family="Helvetica,sans-Serif" font-size="10.00">length</text>
</a>
</g>
</g>
<!-- Node1&#45;&gt;Node2 -->
<g id="edge1" class="edge">
<title>Node1&#45;&gt;Node2</title>
<path fill="none" stroke="midnightblue" d="M139.41,-37.06C161.05,-39.59 183.88,-42.26 201.57,-44.33"/>
<polygon fill="midnightblue" stroke="midnightblue" points="201.53,-47.84 211.87,-45.53 202.34,-40.89 201.53,-47.84"/>
</g>
<!-- Node4 -->
<g id="node4" class="node">
<title>Node4</title>
<g id="a_node4"><a xlink:href="../../d9/d0c/helper__string_8h.html#ac58c822a5ef82babc6a997386ef77469" target="_top" xlink:title=" ">
<polygon fill="none" stroke="black" points="175,-0.5 175,-19.5 293,-19.5 293,-0.5 175,-0.5"/>
<text text-anchor="middle" x="234" y="-7.5" font-family="Helvetica,sans-Serif" font-size="10.00">stringRemoveDelimiter</text>
</a>
</g>
</g>
<!-- Node1&#45;&gt;Node4 -->
<g id="edge3" class="edge">
<title>Node1&#45;&gt;Node4</title>
<path fill="none" stroke="midnightblue" d="M139.41,-20.94C147.78,-19.96 156.32,-18.97 164.68,-17.99"/>
<polygon fill="midnightblue" stroke="midnightblue" points="165.22,-21.45 174.75,-16.81 164.41,-14.5 165.22,-21.45"/>
</g>
<!-- Node3 -->
<g id="node3" class="node">
<title>Node3</title>
<g id="a_node3"><a xlink:href="../../d2/de2/helper__math_8h.html#aa81053cc504f50bd3cd8b5cc6f54b666" target="_top" xlink:title=" ">
<polygon fill="none" stroke="black" points="329,-38.5 329,-57.5 359,-57.5 359,-38.5 329,-38.5"/>
<text text-anchor="middle" x="344" y="-45.5" font-family="Helvetica,sans-Serif" font-size="10.00">dot</text>
</a>
</g>
</g>
<!-- Node2&#45;&gt;Node3 -->
<g id="edge2" class="edge">
<title>Node2&#45;&gt;Node3</title>
<path fill="none" stroke="midnightblue" d="M256.08,-48C274.04,-48 299.86,-48 318.69,-48"/>
<polygon fill="midnightblue" stroke="midnightblue" points="318.85,-51.5 328.85,-48 318.85,-44.5 318.85,-51.5"/>
</g>
</g>
</svg>
