<?xml version="1.0" encoding="UTF-8" standalone="no"?>
<!DOCTYPE svg PUBLIC "-//W3C//DTD SVG 1.1//EN"
 "http://www.w3.org/Graphics/SVG/1.1/DTD/svg11.dtd">
<!-- Generated by graphviz version 2.49.1 (20210923.0004)
 -->
<!-- Title: src/helpers/eigen/helper_eigenTensorConversion.hpp Pages: 1 -->
<svg width="656pt" height="363pt"
 viewBox="0.00 0.00 656.09 363.00" xmlns="http://www.w3.org/2000/svg" xmlns:xlink="http://www.w3.org/1999/xlink">
<g id="graph0" class="graph" transform="scale(1 1) rotate(0) translate(4 359)">
<title>src/helpers/eigen/helper_eigenTensorConversion.hpp</title>
<!-- Node1 -->
<g id="node1" class="node">
<title>Node1</title>
<g id="a_node1"><a xlink:title=" ">
<polygon fill="#bfbfbf" stroke="black" points="58.48,-324.5 58.48,-354.5 205.48,-354.5 205.48,-324.5 58.48,-324.5"/>
<text text-anchor="start" x="66.48" y="-342.5" font-family="Helvetica,sans-Serif" font-size="10.00">src/helpers/eigen/helper</text>
<text text-anchor="middle" x="131.98" y="-331.5" font-family="Helvetica,sans-Serif" font-size="10.00">_eigenTensorConversion.hpp</text>
</a>
</g>
</g>
<!-- Node2 -->
<g id="node2" class="node">
<title>Node2</title>
<g id="a_node2"><a xlink:href="../../dc/dbe/potentialHydrodynamics_8hpp.html" target="_top" xlink:title=" ">
<polygon fill="none" stroke="black" points="118.48,-196 118.48,-215 307.48,-215 307.48,-196 118.48,-196"/>
<text text-anchor="middle" x="212.98" y="-203" font-family="Helvetica,sans-Serif" font-size="10.00">src/forces/potentialHydrodynamics.hpp</text>
</a>
</g>
</g>
<!-- Node1&#45;&gt;Node2 -->
<g id="edge1" class="edge">
<title>Node1&#45;&gt;Node2</title>
<path fill="none" stroke="midnightblue" d="M146.1,-315.49C164.39,-285.68 195.38,-235.17 207.7,-215.1"/>
<polygon fill="midnightblue" stroke="midnightblue" points="142.89,-314.02 140.64,-324.37 148.86,-317.68 142.89,-314.02"/>
</g>
<!-- Node4 -->
<g id="node4" class="node">
<title>Node4</title>
<g id="a_node4"><a xlink:href="../../d3/d8e/rungeKutta4_8hpp.html" target="_top" xlink:title=" ">
<polygon fill="none" stroke="black" points="25.48,-134.5 25.48,-153.5 182.48,-153.5 182.48,-134.5 25.48,-134.5"/>
<text text-anchor="middle" x="103.98" y="-141.5" font-family="Helvetica,sans-Serif" font-size="10.00">src/integrators/rungeKutta4.hpp</text>
</a>
</g>
</g>
<!-- Node1&#45;&gt;Node4 -->
<g id="edge9" class="edge">
<title>Node1&#45;&gt;Node4</title>
<path fill="none" stroke="midnightblue" d="M120.51,-315.14C107.6,-286.21 89.01,-235.2 93.98,-190 95.39,-177.11 99.02,-162.52 101.49,-153.53"/>
<polygon fill="midnightblue" stroke="midnightblue" points="117.42,-316.8 124.8,-324.41 123.78,-313.87 117.42,-316.8"/>
</g>
<!-- Node6 -->
<g id="node6" class="node">
<title>Node6</title>
<g id="a_node6"><a xlink:href="../../de/d46/engine_8hpp.html" target="_top" xlink:title=" ">
<polygon fill="none" stroke="black" points="359.48,-67.5 359.48,-97.5 474.48,-97.5 474.48,-67.5 359.48,-67.5"/>
<text text-anchor="start" x="367.48" y="-85.5" font-family="Helvetica,sans-Serif" font-size="10.00">src/simulation_system</text>
<text text-anchor="middle" x="416.98" y="-74.5" font-family="Helvetica,sans-Serif" font-size="10.00">/engine.hpp</text>
</a>
</g>
</g>
<!-- Node1&#45;&gt;Node6 -->
<g id="edge10" class="edge">
<title>Node1&#45;&gt;Node6</title>
<path fill="none" stroke="midnightblue" d="M104.77,-318.08C56.11,-279.17 -36.09,-193.03 15.98,-134 38.31,-108.67 253.79,-92.88 359.32,-86.61"/>
<polygon fill="midnightblue" stroke="midnightblue" points="102.72,-320.92 112.74,-324.34 107.04,-315.41 102.72,-320.92"/>
</g>
<!-- Node9 -->
<g id="node9" class="node">
<title>Node9</title>
<g id="a_node9"><a xlink:href="../../d2/d7b/systemData_8hpp.html" target="_top" xlink:title=" ">
<polygon fill="none" stroke="black" points="368.48,-257.5 368.48,-287.5 483.48,-287.5 483.48,-257.5 368.48,-257.5"/>
<text text-anchor="start" x="376.48" y="-275.5" font-family="Helvetica,sans-Serif" font-size="10.00">src/simulation_system</text>
<text text-anchor="middle" x="425.98" y="-264.5" font-family="Helvetica,sans-Serif" font-size="10.00">/systemData.hpp</text>
</a>
</g>
</g>
<!-- Node1&#45;&gt;Node9 -->
<g id="edge11" class="edge">
<title>Node1&#45;&gt;Node9</title>
<path fill="none" stroke="midnightblue" d="M205.26,-322.3C255.6,-311.17 321.5,-296.6 368.14,-286.29"/>
<polygon fill="midnightblue" stroke="midnightblue" points="204.42,-318.9 195.41,-324.48 205.93,-325.73 204.42,-318.9"/>
</g>
<!-- Node3 -->
<g id="node3" class="node">
<title>Node3</title>
<g id="a_node3"><a xlink:href="../../d1/d95/potentialHydrodynamics_8cpp.html" target="_top" xlink:title=" ">
<polygon fill="none" stroke="black" points="200.98,-134.5 200.98,-153.5 388.98,-153.5 388.98,-134.5 200.98,-134.5"/>
<text text-anchor="middle" x="294.98" y="-141.5" font-family="Helvetica,sans-Serif" font-size="10.00">src/forces/potentialHydrodynamics.cpp</text>
</a>
</g>
</g>
<!-- Node2&#45;&gt;Node3 -->
<g id="edge2" class="edge">
<title>Node2&#45;&gt;Node3</title>
<path fill="none" stroke="midnightblue" d="M233.24,-189.79C248.97,-178.38 270.23,-162.96 283.25,-153.51"/>
<polygon fill="midnightblue" stroke="midnightblue" points="230.76,-187.27 224.72,-195.98 234.87,-192.93 230.76,-187.27"/>
</g>
<!-- Node2&#45;&gt;Node4 -->
<g id="edge3" class="edge">
<title>Node2&#45;&gt;Node4</title>
<path fill="none" stroke="midnightblue" d="M188.35,-191.06C167.25,-179.54 137.52,-163.31 119.56,-153.51"/>
<polygon fill="midnightblue" stroke="midnightblue" points="186.9,-194.26 197.36,-195.98 190.26,-188.11 186.9,-194.26"/>
</g>
<!-- Node2&#45;&gt;Node6 -->
<g id="edge8" class="edge">
<title>Node2&#45;&gt;Node6</title>
<path fill="none" stroke="midnightblue" d="M276.33,-194.12C322.85,-185.27 380.79,-171.24 397.98,-154 412.92,-139.01 416.45,-113.57 417.1,-97.7"/>
<polygon fill="midnightblue" stroke="midnightblue" points="275.49,-190.72 266.3,-195.99 276.77,-197.6 275.49,-190.72"/>
</g>
<!-- Node5 -->
<g id="node5" class="node">
<title>Node5</title>
<g id="a_node5"><a xlink:href="../../da/dc5/rungeKutta4_8cpp.html" target="_top" xlink:title=" ">
<polygon fill="none" stroke="black" points="25.98,-73 25.98,-92 181.98,-92 181.98,-73 25.98,-73"/>
<text text-anchor="middle" x="103.98" y="-80" font-family="Helvetica,sans-Serif" font-size="10.00">src/integrators/rungeKutta4.cpp</text>
</a>
</g>
</g>
<!-- Node4&#45;&gt;Node5 -->
<g id="edge4" class="edge">
<title>Node4&#45;&gt;Node5</title>
<path fill="none" stroke="midnightblue" d="M103.98,-124.32C103.98,-113.5 103.98,-100.4 103.98,-92.01"/>
<polygon fill="midnightblue" stroke="midnightblue" points="100.48,-124.48 103.98,-134.48 107.48,-124.48 100.48,-124.48"/>
</g>
<!-- Node4&#45;&gt;Node6 -->
<g id="edge5" class="edge">
<title>Node4&#45;&gt;Node6</title>
<path fill="none" stroke="midnightblue" d="M158.95,-132.55C215.22,-121.85 302.28,-105.3 359.45,-94.43"/>
<polygon fill="midnightblue" stroke="midnightblue" points="157.99,-129.17 148.82,-134.48 159.3,-136.05 157.99,-129.17"/>
</g>
<!-- Node7 -->
<g id="node7" class="node">
<title>Node7</title>
<g id="a_node7"><a xlink:href="../../df/d0a/main_8cpp.html" target="_top" xlink:title=" ">
<polygon fill="none" stroke="black" points="552.48,-6 552.48,-25 625.48,-25 625.48,-6 552.48,-6"/>
<text text-anchor="middle" x="588.98" y="-13" font-family="Helvetica,sans-Serif" font-size="10.00">src/main.cpp</text>
</a>
</g>
</g>
<!-- Node6&#45;&gt;Node7 -->
<g id="edge6" class="edge">
<title>Node6&#45;&gt;Node7</title>
<path fill="none" stroke="midnightblue" d="M463.85,-63.78C497.2,-51.18 540.53,-34.81 566.46,-25.01"/>
<polygon fill="midnightblue" stroke="midnightblue" points="462.41,-60.59 454.3,-67.4 464.89,-67.13 462.41,-60.59"/>
</g>
<!-- Node8 -->
<g id="node8" class="node">
<title>Node8</title>
<g id="a_node8"><a xlink:href="../../da/d5c/engine_8cpp.html" target="_top" xlink:title=" ">
<polygon fill="none" stroke="black" points="359.48,-0.5 359.48,-30.5 474.48,-30.5 474.48,-0.5 359.48,-0.5"/>
<text text-anchor="start" x="367.48" y="-18.5" font-family="Helvetica,sans-Serif" font-size="10.00">src/simulation_system</text>
<text text-anchor="middle" x="416.98" y="-7.5" font-family="Helvetica,sans-Serif" font-size="10.00">/engine.cpp</text>
</a>
</g>
</g>
<!-- Node6&#45;&gt;Node8 -->
<g id="edge7" class="edge">
<title>Node6&#45;&gt;Node8</title>
<path fill="none" stroke="midnightblue" d="M416.98,-57.11C416.98,-48.15 416.98,-38.32 416.98,-30.58"/>
<polygon fill="midnightblue" stroke="midnightblue" points="413.48,-57.4 416.98,-67.4 420.48,-57.4 413.48,-57.4"/>
</g>
<!-- Node9&#45;&gt;Node2 -->
<g id="edge15" class="edge">
<title>Node9&#45;&gt;Node2</title>
<path fill="none" stroke="midnightblue" d="M370.3,-254.51C328.73,-241.83 273.67,-225.02 240.92,-215.03"/>
<polygon fill="midnightblue" stroke="midnightblue" points="369.43,-257.9 380.02,-257.48 371.48,-251.21 369.43,-257.9"/>
</g>
<!-- Node9&#45;&gt;Node4 -->
<g id="edge16" class="edge">
<title>Node9&#45;&gt;Node4</title>
<path fill="none" stroke="midnightblue" d="M358.19,-270.15C275.48,-266.96 142.58,-256.31 109.98,-221 92.83,-202.43 97.93,-169.26 101.62,-153.62"/>
<polygon fill="midnightblue" stroke="midnightblue" points="358.15,-273.65 368.27,-270.51 358.4,-266.66 358.15,-273.65"/>
</g>
<!-- Node9&#45;&gt;Node6 -->
<g id="edge18" class="edge">
<title>Node9&#45;&gt;Node6</title>
<path fill="none" stroke="midnightblue" d="M439.76,-248.08C443.89,-239.81 447.89,-230.26 449.98,-221 460.18,-175.74 437.33,-122.36 424.67,-97.52"/>
<polygon fill="midnightblue" stroke="midnightblue" points="436.56,-246.63 434.94,-257.1 442.73,-249.93 436.56,-246.63"/>
</g>
<!-- Node9&#45;&gt;Node7 -->
<g id="edge17" class="edge">
<title>Node9&#45;&gt;Node7</title>
<path fill="none" stroke="midnightblue" d="M493.68,-263.72C546.32,-256.11 613.15,-242.49 629.98,-221 678.18,-159.41 615.85,-56.17 595.2,-25.41"/>
<polygon fill="midnightblue" stroke="midnightblue" points="493.11,-260.26 483.69,-265.12 494.08,-267.2 493.11,-260.26"/>
</g>
<!-- Node10 -->
<g id="node10" class="node">
<title>Node10</title>
<g id="a_node10"><a xlink:href="../../d3/d77/GSDUtil_8hpp.html" target="_top" xlink:title=" ">
<polygon fill="none" stroke="black" points="496.98,-196 496.98,-215 620.98,-215 620.98,-196 496.98,-196"/>
<text text-anchor="middle" x="558.98" y="-203" font-family="Helvetica,sans-Serif" font-size="10.00">src/data_io/GSDUtil.hpp</text>
</a>
</g>
</g>
<!-- Node9&#45;&gt;Node10 -->
<g id="edge12" class="edge">
<title>Node9&#45;&gt;Node10</title>
<path fill="none" stroke="midnightblue" d="M458.06,-252.8C482.45,-240.34 515.24,-224.56 536.84,-215.01"/>
<polygon fill="midnightblue" stroke="midnightblue" points="456.44,-249.7 449.16,-257.4 459.65,-255.92 456.44,-249.7"/>
</g>
<!-- Node12 -->
<g id="node12" class="node">
<title>Node12</title>
<g id="a_node12"><a xlink:href="../../d1/d4a/systemData_8cpp.html" target="_top" xlink:title=" ">
<polygon fill="none" stroke="black" points="325.48,-190.5 325.48,-220.5 440.48,-220.5 440.48,-190.5 325.48,-190.5"/>
<text text-anchor="start" x="333.48" y="-208.5" font-family="Helvetica,sans-Serif" font-size="10.00">src/simulation_system</text>
<text text-anchor="middle" x="382.98" y="-197.5" font-family="Helvetica,sans-Serif" font-size="10.00">/systemData.cpp</text>
</a>
</g>
</g>
<!-- Node9&#45;&gt;Node12 -->
<g id="edge19" class="edge">
<title>Node9&#45;&gt;Node12</title>
<path fill="none" stroke="midnightblue" d="M411,-248.87C404.78,-239.46 397.75,-228.83 392.29,-220.58"/>
<polygon fill="midnightblue" stroke="midnightblue" points="408.21,-250.99 416.64,-257.4 414.05,-247.12 408.21,-250.99"/>
</g>
<!-- Node10&#45;&gt;Node9 -->
<g id="edge14" class="edge">
<title>Node10&#45;&gt;Node9</title>
<path fill="none" stroke="midnightblue" d="M537.27,-219.83C516.4,-230.78 484.8,-246.24 460.51,-257.4"/>
<polygon fill="midnightblue" stroke="midnightblue" points="539.13,-222.81 546.3,-215.01 535.83,-216.63 539.13,-222.81"/>
</g>
<!-- Node11 -->
<g id="node11" class="node">
<title>Node11</title>
<g id="a_node11"><a xlink:href="../../dc/df3/GSDUtil_8cpp.html" target="_top" xlink:title=" ">
<polygon fill="none" stroke="black" points="497.48,-134.5 497.48,-153.5 620.48,-153.5 620.48,-134.5 497.48,-134.5"/>
<text text-anchor="middle" x="558.98" y="-141.5" font-family="Helvetica,sans-Serif" font-size="10.00">src/data_io/GSDUtil.cpp</text>
</a>
</g>
</g>
<!-- Node10&#45;&gt;Node11 -->
<g id="edge13" class="edge">
<title>Node10&#45;&gt;Node11</title>
<path fill="none" stroke="midnightblue" d="M558.98,-185.82C558.98,-175 558.98,-161.9 558.98,-153.51"/>
<polygon fill="midnightblue" stroke="midnightblue" points="555.48,-185.98 558.98,-195.98 562.48,-185.98 555.48,-185.98"/>
</g>
</g>
</svg>
