<?xml version="1.0" encoding="UTF-8" standalone="no"?>
<!DOCTYPE svg PUBLIC "-//W3C//DTD SVG 1.1//EN"
 "http://www.w3.org/Graphics/SVG/1.1/DTD/svg11.dtd">
<!-- Generated by graphviz version 2.49.1 (20210923.0004)
 -->
<!-- Title: gsd_index_buffer Pages: 1 -->
<svg width="101pt" height="270pt"
 viewBox="0.00 0.00 101.00 270.00" xmlns="http://www.w3.org/2000/svg" xmlns:xlink="http://www.w3.org/1999/xlink">
<g id="graph0" class="graph" transform="scale(1 1) rotate(0) translate(4 266)">
<title>gsd_index_buffer</title>
<!-- Node1 -->
<g id="node1" class="node">
<title>Node1</title>
<g id="a_node1"><a xlink:title=" ">
<polygon fill="#bfbfbf" stroke="black" points="0,-0.5 0,-90.5 93,-90.5 93,-0.5 0,-0.5"/>
<text text-anchor="middle" x="46.5" y="-78.5" font-family="Helvetica,sans-Serif" font-size="10.00">gsd_index_buffer</text>
<polyline fill="none" stroke="black" points="0,-71.5 93,-71.5 "/>
<text text-anchor="start" x="8" y="-59.5" font-family="Helvetica,sans-Serif" font-size="10.00">+ size</text>
<text text-anchor="start" x="8" y="-48.5" font-family="Helvetica,sans-Serif" font-size="10.00">+ reserved</text>
<text text-anchor="start" x="8" y="-37.5" font-family="Helvetica,sans-Serif" font-size="10.00">+ mapped_data</text>
<text text-anchor="start" x="8" y="-26.5" font-family="Helvetica,sans-Serif" font-size="10.00">+ mapped_len</text>
<polyline fill="none" stroke="black" points="0,-19.5 93,-19.5 "/>
<text text-anchor="middle" x="46.5" y="-7.5" font-family="Helvetica,sans-Serif" font-size="10.00"> </text>
</a>
</g>
</g>
<!-- Node2 -->
<g id="node2" class="node">
<title>Node2</title>
<g id="a_node2"><a xlink:href="../../de/d4e/structgsd__index__entry.html" target="_top" xlink:title=" ">
<polygon fill="none" stroke="black" points="1.5,-138.5 1.5,-261.5 91.5,-261.5 91.5,-138.5 1.5,-138.5"/>
<text text-anchor="middle" x="46.5" y="-249.5" font-family="Helvetica,sans-Serif" font-size="10.00">gsd_index_entry</text>
<polyline fill="none" stroke="black" points="1.5,-242.5 91.5,-242.5 "/>
<text text-anchor="start" x="9.5" y="-230.5" font-family="Helvetica,sans-Serif" font-size="10.00">+ frame</text>
<text text-anchor="start" x="9.5" y="-219.5" font-family="Helvetica,sans-Serif" font-size="10.00">+ N</text>
<text text-anchor="start" x="9.5" y="-208.5" font-family="Helvetica,sans-Serif" font-size="10.00">+ location</text>
<text text-anchor="start" x="9.5" y="-197.5" font-family="Helvetica,sans-Serif" font-size="10.00">+ M</text>
<text text-anchor="start" x="9.5" y="-186.5" font-family="Helvetica,sans-Serif" font-size="10.00">+ id</text>
<text text-anchor="start" x="9.5" y="-175.5" font-family="Helvetica,sans-Serif" font-size="10.00">+ type</text>
<text text-anchor="start" x="9.5" y="-164.5" font-family="Helvetica,sans-Serif" font-size="10.00">+ flags</text>
<polyline fill="none" stroke="black" points="1.5,-157.5 91.5,-157.5 "/>
<text text-anchor="middle" x="46.5" y="-145.5" font-family="Helvetica,sans-Serif" font-size="10.00"> </text>
</a>
</g>
</g>
<!-- Node2&#45;&gt;Node1 -->
<g id="edge1" class="edge">
<title>Node2&#45;&gt;Node1</title>
<path fill="none" stroke="#404040" d="M46.5,-138.29C46.5,-126.58 46.5,-114.36 46.5,-102.79"/>
<polygon fill="none" stroke="#404040" points="46.5,-102.56 42.5,-96.56 46.5,-90.56 50.5,-96.56 46.5,-102.56"/>
<text text-anchor="middle" x="61" y="-112" font-family="Helvetica,sans-Serif" font-size="10.00"> +data</text>
</g>
</g>
</svg>
