<?xml version="1.0" encoding="UTF-8" standalone="no"?>
<!DOCTYPE svg PUBLIC "-//W3C//DTD SVG 1.1//EN"
 "http://www.w3.org/Graphics/SVG/1.1/DTD/svg11.dtd">
<!-- Generated by graphviz version 2.49.1 (20210923.0004)
 -->
<!-- Title: gsd_index_buffer_allocate Pages: 1 -->
<svg width="754pt" height="161pt"
 viewBox="0.00 0.00 754.00 161.00" xmlns="http://www.w3.org/2000/svg" xmlns:xlink="http://www.w3.org/1999/xlink">
<g id="graph0" class="graph" transform="scale(1 1) rotate(0) translate(4 157)">
<title>gsd_index_buffer_allocate</title>
<!-- Node1 -->
<g id="node1" class="node">
<title>Node1</title>
<g id="a_node1"><a xlink:title=" ">
<polygon fill="#bfbfbf" stroke="black" points="613,-38.5 613,-57.5 746,-57.5 746,-38.5 613,-38.5"/>
<text text-anchor="middle" x="679.5" y="-45.5" font-family="Helvetica,sans-Serif" font-size="10.00">gsd_index_buffer_allocate</text>
</a>
</g>
</g>
<!-- Node2 -->
<g id="node2" class="node">
<title>Node2</title>
<g id="a_node2"><a xlink:href="../../dc/dcb/gsd_8c.html#a6fe75caf6c4df550af2455a0c40bfbdf" target="_top" xlink:title=" ">
<polygon fill="none" stroke="black" points="459,-38.5 459,-57.5 577,-57.5 577,-38.5 459,-38.5"/>
<text text-anchor="middle" x="518" y="-45.5" font-family="Helvetica,sans-Serif" font-size="10.00">gsd_index_buffer_map</text>
</a>
</g>
</g>
<!-- Node1&#45;&gt;Node2 -->
<g id="edge1" class="edge">
<title>Node1&#45;&gt;Node2</title>
<path fill="none" stroke="midnightblue" d="M602.43,-48C593.96,-48 585.44,-48 577.25,-48"/>
<polygon fill="midnightblue" stroke="midnightblue" points="602.7,-51.5 612.7,-48 602.7,-44.5 602.7,-51.5"/>
</g>
<!-- Node6 -->
<g id="node6" class="node">
<title>Node6</title>
<g id="a_node6"><a xlink:href="../../dc/dcb/gsd_8c.html#ac159dfbfd790607f85073ad2d8464a8b" target="_top" xlink:title=" ">
<polygon fill="none" stroke="black" points="309,-76.5 309,-95.5 418,-95.5 418,-76.5 309,-76.5"/>
<text text-anchor="middle" x="363.5" y="-83.5" font-family="Helvetica,sans-Serif" font-size="10.00">gsd_initialize_handle</text>
</a>
</g>
</g>
<!-- Node1&#45;&gt;Node6 -->
<g id="edge12" class="edge">
<title>Node1&#45;&gt;Node6</title>
<path fill="none" stroke="midnightblue" d="M622.65,-59.45C607.85,-62.21 591.86,-64.95 577,-67 523.25,-74.42 461.42,-79.57 418.37,-82.62"/>
<polygon fill="midnightblue" stroke="midnightblue" points="623.5,-62.85 632.67,-57.54 622.19,-55.97 623.5,-62.85"/>
</g>
<!-- Node12 -->
<g id="node12" class="node">
<title>Node12</title>
<g id="a_node12"><a xlink:href="../../dc/dcb/gsd_8c.html#adb92d5142812c19bf4ee33cbde439131" target="_top" xlink:title=" ">
<polygon fill="none" stroke="black" points="326,-0.5 326,-19.5 401,-19.5 401,-0.5 326,-0.5"/>
<text text-anchor="middle" x="363.5" y="-7.5" font-family="Helvetica,sans-Serif" font-size="10.00">gsd_upgrade</text>
</a>
</g>
</g>
<!-- Node1&#45;&gt;Node12 -->
<g id="edge13" class="edge">
<title>Node1&#45;&gt;Node12</title>
<path fill="none" stroke="midnightblue" d="M622.65,-36.55C607.85,-33.79 591.86,-31.05 577,-29 515.54,-20.52 443.53,-15 401.09,-12.2"/>
<polygon fill="midnightblue" stroke="midnightblue" points="622.19,-40.03 632.67,-38.46 623.5,-33.15 622.19,-40.03"/>
</g>
<!-- Node3 -->
<g id="node3" class="node">
<title>Node3</title>
<g id="a_node3"><a xlink:href="../../dc/dcb/gsd_8c.html#ae6dddb94661e99e54f6c01b1a443e27f" target="_top" xlink:title=" ">
<polygon fill="none" stroke="black" points="304,-38.5 304,-57.5 423,-57.5 423,-38.5 304,-38.5"/>
<text text-anchor="middle" x="363.5" y="-45.5" font-family="Helvetica,sans-Serif" font-size="10.00">gsd_expand_file_index</text>
</a>
</g>
</g>
<!-- Node2&#45;&gt;Node3 -->
<g id="edge2" class="edge">
<title>Node2&#45;&gt;Node3</title>
<path fill="none" stroke="midnightblue" d="M448.64,-48C440.15,-48 431.52,-48 423.19,-48"/>
<polygon fill="midnightblue" stroke="midnightblue" points="448.91,-51.5 458.91,-48 448.91,-44.5 448.91,-51.5"/>
</g>
<!-- Node2&#45;&gt;Node6 -->
<g id="edge5" class="edge">
<title>Node2&#45;&gt;Node6</title>
<path fill="none" stroke="midnightblue" d="M468.68,-60.04C447.38,-65.35 422.7,-71.5 402.71,-76.48"/>
<polygon fill="midnightblue" stroke="midnightblue" points="469.66,-63.4 478.52,-57.59 467.97,-56.61 469.66,-63.4"/>
</g>
<!-- Node2&#45;&gt;Node12 -->
<g id="edge11" class="edge">
<title>Node2&#45;&gt;Node12</title>
<path fill="none" stroke="midnightblue" d="M468.75,-35.98C446.86,-30.52 421.41,-24.18 401.13,-19.13"/>
<polygon fill="midnightblue" stroke="midnightblue" points="467.97,-39.39 478.52,-38.41 469.66,-32.6 467.97,-39.39"/>
</g>
<!-- Node4 -->
<g id="node4" class="node">
<title>Node4</title>
<g id="a_node4"><a xlink:href="../../dc/dcb/gsd_8c.html#aa03810337c5eebcbe716d8633eaefc5e" target="_top" xlink:title=" ">
<polygon fill="none" stroke="black" points="167,-19.5 167,-38.5 253,-38.5 253,-19.5 167,-19.5"/>
<text text-anchor="middle" x="210" y="-26.5" font-family="Helvetica,sans-Serif" font-size="10.00">gsd_end_frame</text>
</a>
</g>
</g>
<!-- Node3&#45;&gt;Node4 -->
<g id="edge3" class="edge">
<title>Node3&#45;&gt;Node4</title>
<path fill="none" stroke="midnightblue" d="M293.96,-39.4C280.16,-37.67 266.04,-35.9 253.45,-34.32"/>
<polygon fill="midnightblue" stroke="midnightblue" points="293.57,-42.88 303.93,-40.65 294.44,-35.94 293.57,-42.88"/>
</g>
<!-- Node5 -->
<g id="node5" class="node">
<title>Node5</title>
<g id="a_node5"><a xlink:href="../../de/d83/classGSDUtil.html#ae76e4a23f0fe0bca3cd44137b56b816b" target="_top" xlink:title=" ">
<polygon fill="none" stroke="black" points="4,-19.5 4,-38.5 112,-38.5 112,-19.5 4,-19.5"/>
<text text-anchor="middle" x="58" y="-26.5" font-family="Helvetica,sans-Serif" font-size="10.00">GSDUtil::writeFrame</text>
</a>
</g>
</g>
<!-- Node4&#45;&gt;Node5 -->
<g id="edge4" class="edge">
<title>Node4&#45;&gt;Node5</title>
<path fill="none" stroke="midnightblue" d="M156.58,-29C142.18,-29 126.55,-29 112.11,-29"/>
<polygon fill="midnightblue" stroke="midnightblue" points="156.82,-32.5 166.82,-29 156.82,-25.5 156.82,-32.5"/>
</g>
<!-- Node7 -->
<g id="node7" class="node">
<title>Node7</title>
<g id="a_node7"><a xlink:href="../../dc/dcb/gsd_8c.html#aa0b0b7fb6b385707ffc83989d54bc81b" target="_top" xlink:title=" ">
<polygon fill="none" stroke="black" points="152,-95.5 152,-114.5 268,-114.5 268,-95.5 152,-95.5"/>
<text text-anchor="middle" x="210" y="-102.5" font-family="Helvetica,sans-Serif" font-size="10.00">gsd_create_and_open</text>
</a>
</g>
</g>
<!-- Node6&#45;&gt;Node7 -->
<g id="edge6" class="edge">
<title>Node6&#45;&gt;Node7</title>
<path fill="none" stroke="midnightblue" d="M298.62,-94.01C288.45,-95.29 277.99,-96.6 268,-97.85"/>
<polygon fill="midnightblue" stroke="midnightblue" points="299.17,-97.47 308.66,-92.75 298.3,-90.52 299.17,-97.47"/>
</g>
<!-- Node8 -->
<g id="node8" class="node">
<title>Node8</title>
<g id="a_node8"><a xlink:href="../../dc/dcb/gsd_8c.html#ad8933dcce55fd8101b5688f382c10a8e" target="_top" xlink:title=" ">
<polygon fill="none" stroke="black" points="180,-57.5 180,-76.5 240,-76.5 240,-57.5 180,-57.5"/>
<text text-anchor="middle" x="210" y="-64.5" font-family="Helvetica,sans-Serif" font-size="10.00">gsd_open</text>
</a>
</g>
</g>
<!-- Node6&#45;&gt;Node8 -->
<g id="edge7" class="edge">
<title>Node6&#45;&gt;Node8</title>
<path fill="none" stroke="midnightblue" d="M298.47,-77.97C278.12,-75.42 256.61,-72.72 240.01,-70.64"/>
<polygon fill="midnightblue" stroke="midnightblue" points="298.3,-81.48 308.66,-79.25 299.17,-74.53 298.3,-81.48"/>
</g>
<!-- Node10 -->
<g id="node10" class="node">
<title>Node10</title>
<g id="a_node10"><a xlink:href="../../dc/dcb/gsd_8c.html#a02ac7984034069d508b1c7ccbe702bac" target="_top" xlink:title=" ">
<polygon fill="none" stroke="black" points="173,-133.5 173,-152.5 247,-152.5 247,-133.5 173,-133.5"/>
<text text-anchor="middle" x="210" y="-140.5" font-family="Helvetica,sans-Serif" font-size="10.00">gsd_truncate</text>
</a>
</g>
</g>
<!-- Node6&#45;&gt;Node10 -->
<g id="edge9" class="edge">
<title>Node6&#45;&gt;Node10</title>
<path fill="none" stroke="midnightblue" d="M330.45,-99.45C312.24,-106.95 288.96,-116.3 268,-124 259.19,-127.24 249.53,-130.55 240.7,-133.48"/>
<polygon fill="midnightblue" stroke="midnightblue" points="331.83,-102.66 339.74,-95.6 329.16,-96.2 331.83,-102.66"/>
</g>
<!-- Node9 -->
<g id="node9" class="node">
<title>Node9</title>
<g id="a_node9"><a xlink:href="../../de/d83/classGSDUtil.html#a2567bdb7f5952a76984552e0591fa330" target="_top" xlink:title=" ">
<polygon fill="none" stroke="black" points="11,-57.5 11,-76.5 105,-76.5 105,-57.5 11,-57.5"/>
<text text-anchor="middle" x="58" y="-64.5" font-family="Helvetica,sans-Serif" font-size="10.00">GSDUtil::GSDUtil</text>
</a>
</g>
</g>
<!-- Node8&#45;&gt;Node9 -->
<g id="edge8" class="edge">
<title>Node8&#45;&gt;Node9</title>
<path fill="none" stroke="midnightblue" d="M169.51,-67C149.73,-67 125.65,-67 105.03,-67"/>
<polygon fill="midnightblue" stroke="midnightblue" points="169.72,-70.5 179.72,-67 169.72,-63.5 169.72,-70.5"/>
</g>
<!-- Node11 -->
<g id="node11" class="node">
<title>Node11</title>
<g id="a_node11"><a xlink:href="../../de/d83/classGSDUtil.html#a78b796cb5093b0aa6f5d2573658fcca1" target="_top" xlink:title=" ">
<polygon fill="none" stroke="black" points="0,-133.5 0,-152.5 116,-152.5 116,-133.5 0,-133.5"/>
<text text-anchor="middle" x="58" y="-140.5" font-family="Helvetica,sans-Serif" font-size="10.00">GSDUtil::truncateGSD</text>
</a>
</g>
</g>
<!-- Node10&#45;&gt;Node11 -->
<g id="edge10" class="edge">
<title>Node10&#45;&gt;Node11</title>
<path fill="none" stroke="midnightblue" d="M162.35,-143C147.69,-143 131.34,-143 116.04,-143"/>
<polygon fill="midnightblue" stroke="midnightblue" points="162.69,-146.5 172.69,-143 162.69,-139.5 162.69,-146.5"/>
</g>
</g>
</svg>
