<?xml version="1.0" encoding="UTF-8" standalone="no"?>
<!DOCTYPE svg PUBLIC "-//W3C//DTD SVG 1.1//EN"
 "http://www.w3.org/Graphics/SVG/1.1/DTD/svg11.dtd">
<!-- Generated by graphviz version 2.49.1 (20210923.0004)
 -->
<!-- Title: gsd_heap_swap Pages: 1 -->
<svg width="770pt" height="85pt"
 viewBox="0.00 0.00 770.00 85.00" xmlns="http://www.w3.org/2000/svg" xmlns:xlink="http://www.w3.org/1999/xlink">
<g id="graph0" class="graph" transform="scale(1 1) rotate(0) translate(4 81)">
<title>gsd_heap_swap</title>
<!-- Node1 -->
<g id="node1" class="node">
<title>Node1</title>
<g id="a_node1"><a xlink:title=" ">
<polygon fill="#bfbfbf" stroke="black" points="673,-0.5 673,-19.5 762,-19.5 762,-0.5 673,-0.5"/>
<text text-anchor="middle" x="717.5" y="-7.5" font-family="Helvetica,sans-Serif" font-size="10.00">gsd_heap_swap</text>
</a>
</g>
</g>
<!-- Node2 -->
<g id="node2" class="node">
<title>Node2</title>
<g id="a_node2"><a xlink:href="../../dc/dcb/gsd_8c.html#accc971ec12e75a165ffef6e1ee854681" target="_top" xlink:title=" ">
<polygon fill="none" stroke="black" points="523,-19.5 523,-38.5 637,-38.5 637,-19.5 523,-19.5"/>
<text text-anchor="middle" x="580" y="-26.5" font-family="Helvetica,sans-Serif" font-size="10.00">gsd_heap_shift_down</text>
</a>
</g>
</g>
<!-- Node1&#45;&gt;Node2 -->
<g id="edge1" class="edge">
<title>Node1&#45;&gt;Node2</title>
<path fill="none" stroke="midnightblue" d="M662.86,-17.52C654.5,-18.69 645.84,-19.91 637.41,-21.09"/>
<polygon fill="midnightblue" stroke="midnightblue" points="663.46,-20.97 672.88,-16.12 662.49,-14.04 663.46,-20.97"/>
</g>
<!-- Node4 -->
<g id="node4" class="node">
<title>Node4</title>
<g id="a_node4"><a xlink:href="../../dc/dcb/gsd_8c.html#a6c20ccb47eed1a3ea9995a47a8eebdbd" target="_top" xlink:title=" ">
<polygon fill="none" stroke="black" points="266,-19.5 266,-38.5 381,-38.5 381,-19.5 266,-19.5"/>
<text text-anchor="middle" x="323.5" y="-26.5" font-family="Helvetica,sans-Serif" font-size="10.00">gsd_index_buffer_sort</text>
</a>
</g>
</g>
<!-- Node1&#45;&gt;Node4 -->
<g id="edge8" class="edge">
<title>Node1&#45;&gt;Node4</title>
<path fill="none" stroke="midnightblue" d="M662.63,-8.62C623.79,-7.97 570.13,-7.75 523,-10 475.11,-12.29 420.94,-17.66 381.3,-22.11"/>
<polygon fill="midnightblue" stroke="midnightblue" points="662.6,-12.12 672.67,-8.81 662.73,-5.13 662.6,-12.12"/>
</g>
<!-- Node3 -->
<g id="node3" class="node">
<title>Node3</title>
<g id="a_node3"><a xlink:href="../../dc/dcb/gsd_8c.html#a0de3f89cdd57571b57401c91feef2f66" target="_top" xlink:title=" ">
<polygon fill="none" stroke="black" points="417,-57.5 417,-76.5 487,-76.5 487,-57.5 417,-57.5"/>
<text text-anchor="middle" x="452" y="-64.5" font-family="Helvetica,sans-Serif" font-size="10.00">gsd_heapify</text>
</a>
</g>
</g>
<!-- Node2&#45;&gt;Node3 -->
<g id="edge2" class="edge">
<title>Node2&#45;&gt;Node3</title>
<path fill="none" stroke="midnightblue" d="M537.44,-41.54C520.29,-46.7 500.75,-52.6 484.78,-57.41"/>
<polygon fill="midnightblue" stroke="midnightblue" points="538.64,-44.83 547.2,-38.59 536.62,-38.13 538.64,-44.83"/>
</g>
<!-- Node2&#45;&gt;Node4 -->
<g id="edge7" class="edge">
<title>Node2&#45;&gt;Node4</title>
<path fill="none" stroke="midnightblue" d="M512.72,-29C471.97,-29 420.29,-29 381.4,-29"/>
<polygon fill="midnightblue" stroke="midnightblue" points="512.83,-32.5 522.83,-29 512.83,-25.5 512.83,-32.5"/>
</g>
<!-- Node3&#45;&gt;Node4 -->
<g id="edge3" class="edge">
<title>Node3&#45;&gt;Node4</title>
<path fill="none" stroke="midnightblue" d="M409.27,-54.46C392.06,-49.3 372.44,-43.4 356.41,-38.59"/>
<polygon fill="midnightblue" stroke="midnightblue" points="408.49,-57.89 419.08,-57.41 410.51,-51.18 408.49,-57.89"/>
</g>
<!-- Node5 -->
<g id="node5" class="node">
<title>Node5</title>
<g id="a_node5"><a xlink:href="../../dc/dcb/gsd_8c.html#aa03810337c5eebcbe716d8633eaefc5e" target="_top" xlink:title=" ">
<polygon fill="none" stroke="black" points="144,-38.5 144,-57.5 230,-57.5 230,-38.5 144,-38.5"/>
<text text-anchor="middle" x="187" y="-45.5" font-family="Helvetica,sans-Serif" font-size="10.00">gsd_end_frame</text>
</a>
</g>
</g>
<!-- Node4&#45;&gt;Node5 -->
<g id="edge4" class="edge">
<title>Node4&#45;&gt;Node5</title>
<path fill="none" stroke="midnightblue" d="M255.72,-38.43C247.06,-39.66 238.39,-40.88 230.28,-42.03"/>
<polygon fill="midnightblue" stroke="midnightblue" points="256.44,-41.87 265.85,-37 255.46,-34.94 256.44,-41.87"/>
</g>
<!-- Node7 -->
<g id="node7" class="node">
<title>Node7</title>
<g id="a_node7"><a xlink:href="../../dc/dcb/gsd_8c.html#adb92d5142812c19bf4ee33cbde439131" target="_top" xlink:title=" ">
<polygon fill="none" stroke="black" points="149.5,-0.5 149.5,-19.5 224.5,-19.5 224.5,-0.5 149.5,-0.5"/>
<text text-anchor="middle" x="187" y="-7.5" font-family="Helvetica,sans-Serif" font-size="10.00">gsd_upgrade</text>
</a>
</g>
</g>
<!-- Node4&#45;&gt;Node7 -->
<g id="edge6" class="edge">
<title>Node4&#45;&gt;Node7</title>
<path fill="none" stroke="midnightblue" d="M255.66,-19.56C244.98,-18.05 234.3,-16.54 224.67,-15.18"/>
<polygon fill="midnightblue" stroke="midnightblue" points="255.46,-23.06 265.85,-21 256.44,-16.13 255.46,-23.06"/>
</g>
<!-- Node6 -->
<g id="node6" class="node">
<title>Node6</title>
<g id="a_node6"><a xlink:href="../../de/d83/classGSDUtil.html#ae76e4a23f0fe0bca3cd44137b56b816b" target="_top" xlink:title=" ">
<polygon fill="none" stroke="black" points="0,-38.5 0,-57.5 108,-57.5 108,-38.5 0,-38.5"/>
<text text-anchor="middle" x="54" y="-45.5" font-family="Helvetica,sans-Serif" font-size="10.00">GSDUtil::writeFrame</text>
</a>
</g>
</g>
<!-- Node5&#45;&gt;Node6 -->
<g id="edge5" class="edge">
<title>Node5&#45;&gt;Node6</title>
<path fill="none" stroke="midnightblue" d="M133.74,-48C125.31,-48 116.58,-48 108.13,-48"/>
<polygon fill="midnightblue" stroke="midnightblue" points="133.83,-51.5 143.83,-48 133.83,-44.5 133.83,-51.5"/>
</g>
</g>
</svg>
