<?xml version="1.0" encoding="UTF-8" standalone="no"?>
<!DOCTYPE svg PUBLIC "-//W3C//DTD SVG 1.1//EN"
 "http://www.w3.org/Graphics/SVG/1.1/DTD/svg11.dtd">
<!-- Generated by graphviz version 2.49.1 (20210923.0004)
 -->
<!-- Title: gsd_name_id_map_find Pages: 1 -->
<svg width="744pt" height="218pt"
 viewBox="0.00 0.00 744.00 218.00" xmlns="http://www.w3.org/2000/svg" xmlns:xlink="http://www.w3.org/1999/xlink">
<g id="graph0" class="graph" transform="scale(1 1) rotate(0) translate(4 214)">
<title>gsd_name_id_map_find</title>
<!-- Node1 -->
<g id="node1" class="node">
<title>Node1</title>
<g id="a_node1"><a xlink:title=" ">
<polygon fill="#bfbfbf" stroke="black" points="613,-76.5 613,-95.5 736,-95.5 736,-76.5 613,-76.5"/>
<text text-anchor="middle" x="674.5" y="-83.5" font-family="Helvetica,sans-Serif" font-size="10.00">gsd_name_id_map_find</text>
</a>
</g>
</g>
<!-- Node2 -->
<g id="node2" class="node">
<title>Node2</title>
<g id="a_node2"><a xlink:href="../../dc/dcb/gsd_8c.html#ac00249e8c3030557711beb337c8424dd" target="_top" xlink:title=" ">
<polygon fill="none" stroke="black" points="487.5,-104.5 487.5,-123.5 574.5,-123.5 574.5,-104.5 487.5,-104.5"/>
<text text-anchor="middle" x="531" y="-111.5" font-family="Helvetica,sans-Serif" font-size="10.00">gsd_find_chunk</text>
</a>
</g>
</g>
<!-- Node1&#45;&gt;Node2 -->
<g id="edge1" class="edge">
<title>Node1&#45;&gt;Node2</title>
<path fill="none" stroke="midnightblue" d="M615.06,-97.56C601.6,-100.23 587.53,-103.01 574.87,-105.52"/>
<polygon fill="midnightblue" stroke="midnightblue" points="616.07,-100.93 625.2,-95.56 614.71,-94.07 616.07,-100.93"/>
</g>
<!-- Node9 -->
<g id="node9" class="node">
<title>Node9</title>
<g id="a_node9"><a xlink:href="../../dc/dcb/gsd_8c.html#ae22447904b925f284bf987fae448488a" target="_top" xlink:title=" ">
<polygon fill="none" stroke="black" points="485,-57.5 485,-76.5 577,-76.5 577,-57.5 485,-57.5"/>
<text text-anchor="middle" x="531" y="-64.5" font-family="Helvetica,sans-Serif" font-size="10.00">gsd_write_chunk</text>
</a>
</g>
</g>
<!-- Node1&#45;&gt;Node9 -->
<g id="edge11" class="edge">
<title>Node1&#45;&gt;Node9</title>
<path fill="none" stroke="midnightblue" d="M602.62,-76.48C594.04,-75.33 585.46,-74.18 577.39,-73.1"/>
<polygon fill="midnightblue" stroke="midnightblue" points="602.29,-79.97 612.67,-77.83 603.22,-73.03 602.29,-79.97"/>
</g>
<!-- Node3 -->
<g id="node3" class="node">
<title>Node3</title>
<g id="a_node3"><a xlink:href="../../de/d83/classGSDUtil.html#a86d2352b694afc6a0c938a13b3acec9d" target="_top" xlink:title=" ">
<polygon fill="none" stroke="black" points="330,-114.5 330,-133.5 437,-133.5 437,-114.5 330,-114.5"/>
<text text-anchor="middle" x="383.5" y="-121.5" font-family="Helvetica,sans-Serif" font-size="10.00">GSDUtil::readChunk</text>
</a>
</g>
</g>
<!-- Node2&#45;&gt;Node3 -->
<g id="edge2" class="edge">
<title>Node2&#45;&gt;Node3</title>
<path fill="none" stroke="midnightblue" d="M476.95,-117.65C463.96,-118.54 450.08,-119.49 437.11,-120.38"/>
<polygon fill="midnightblue" stroke="midnightblue" points="477.4,-121.12 487.13,-116.95 476.92,-114.14 477.4,-121.12"/>
</g>
<!-- Node4 -->
<g id="node4" class="node">
<title>Node4</title>
<g id="a_node4"><a xlink:href="../../de/d83/classGSDUtil.html#a2015dcdcdb33be9106f5c8f45f8564cc" target="_top" xlink:title=" ">
<polygon fill="none" stroke="black" points="150.5,-190.5 150.5,-209.5 261.5,-209.5 261.5,-190.5 150.5,-190.5"/>
<text text-anchor="middle" x="206" y="-197.5" font-family="Helvetica,sans-Serif" font-size="10.00">GSDUtil::readHeader</text>
</a>
</g>
</g>
<!-- Node3&#45;&gt;Node4 -->
<g id="edge3" class="edge">
<title>Node3&#45;&gt;Node4</title>
<path fill="none" stroke="midnightblue" d="M359.86,-139.18C340.05,-151.89 310.12,-169.7 282,-181 272.78,-184.71 262.62,-187.86 252.84,-190.46"/>
<polygon fill="midnightblue" stroke="midnightblue" points="362,-141.97 368.47,-133.58 358.18,-136.1 362,-141.97"/>
</g>
<!-- Node6 -->
<g id="node6" class="node">
<title>Node6</title>
<g id="a_node6"><a xlink:href="../../de/d83/classGSDUtil.html#a31f9c7368ebd89c6293d9d9d83598e62" target="_top" xlink:title=" ">
<polygon fill="none" stroke="black" points="141,-152.5 141,-171.5 271,-171.5 271,-152.5 141,-152.5"/>
<text text-anchor="middle" x="206" y="-159.5" font-family="Helvetica,sans-Serif" font-size="10.00">GSDUtil::readParameters</text>
</a>
</g>
</g>
<!-- Node3&#45;&gt;Node6 -->
<g id="edge5" class="edge">
<title>Node3&#45;&gt;Node6</title>
<path fill="none" stroke="midnightblue" d="M328.22,-135.75C303.41,-141.13 274.39,-147.41 250.97,-152.48"/>
<polygon fill="midnightblue" stroke="midnightblue" points="329.18,-139.13 338.21,-133.59 327.7,-132.28 329.18,-139.13"/>
</g>
<!-- Node7 -->
<g id="node7" class="node">
<title>Node7</title>
<g id="a_node7"><a xlink:href="../../de/d83/classGSDUtil.html#ad404c3879fb81c0b73b2335ea6e4676a" target="_top" xlink:title=" ">
<polygon fill="none" stroke="black" points="147.5,-114.5 147.5,-133.5 264.5,-133.5 264.5,-114.5 147.5,-114.5"/>
<text text-anchor="middle" x="206" y="-121.5" font-family="Helvetica,sans-Serif" font-size="10.00">GSDUtil::readParticles</text>
</a>
</g>
</g>
<!-- Node3&#45;&gt;Node7 -->
<g id="edge7" class="edge">
<title>Node3&#45;&gt;Node7</title>
<path fill="none" stroke="midnightblue" d="M319.73,-124C301.73,-124 282.19,-124 264.52,-124"/>
<polygon fill="midnightblue" stroke="midnightblue" points="319.84,-127.5 329.84,-124 319.84,-120.5 319.84,-127.5"/>
</g>
<!-- Node8 -->
<g id="node8" class="node">
<title>Node8</title>
<g id="a_node8"><a xlink:href="../../de/d83/classGSDUtil.html#a278d1db9ece12bdc1268780313d83daf" target="_top" xlink:title=" ">
<polygon fill="none" stroke="black" points="130,-76.5 130,-95.5 282,-95.5 282,-76.5 130,-76.5"/>
<text text-anchor="middle" x="206" y="-83.5" font-family="Helvetica,sans-Serif" font-size="10.00">GSDUtil::readSystemSpecifics</text>
</a>
</g>
</g>
<!-- Node3&#45;&gt;Node8 -->
<g id="edge9" class="edge">
<title>Node3&#45;&gt;Node8</title>
<path fill="none" stroke="midnightblue" d="M328.22,-112.25C303.41,-106.87 274.39,-100.59 250.97,-95.52"/>
<polygon fill="midnightblue" stroke="midnightblue" points="327.7,-115.72 338.21,-114.41 329.18,-108.87 327.7,-115.72"/>
</g>
<!-- Node5 -->
<g id="node5" class="node">
<title>Node5</title>
<g id="a_node5"><a xlink:href="../../de/d83/classGSDUtil.html#a2567bdb7f5952a76984552e0591fa330" target="_top" xlink:title=" ">
<polygon fill="none" stroke="black" points="0,-133.5 0,-152.5 94,-152.5 94,-133.5 0,-133.5"/>
<text text-anchor="middle" x="47" y="-140.5" font-family="Helvetica,sans-Serif" font-size="10.00">GSDUtil::GSDUtil</text>
</a>
</g>
</g>
<!-- Node4&#45;&gt;Node5 -->
<g id="edge4" class="edge">
<title>Node4&#45;&gt;Node5</title>
<path fill="none" stroke="midnightblue" d="M151.5,-187.75C144.21,-185.7 136.88,-183.44 130,-181 107.38,-172.97 82.51,-160.97 66.15,-152.61"/>
<polygon fill="midnightblue" stroke="midnightblue" points="150.79,-191.18 161.36,-190.4 152.61,-184.42 150.79,-191.18"/>
</g>
<!-- Node6&#45;&gt;Node5 -->
<g id="edge6" class="edge">
<title>Node6&#45;&gt;Node5</title>
<path fill="none" stroke="midnightblue" d="M130.75,-153.01C118.29,-151.51 105.68,-149.98 94.2,-148.59"/>
<polygon fill="midnightblue" stroke="midnightblue" points="130.34,-156.49 140.69,-154.22 131.18,-149.54 130.34,-156.49"/>
</g>
<!-- Node7&#45;&gt;Node5 -->
<g id="edge8" class="edge">
<title>Node7&#45;&gt;Node5</title>
<path fill="none" stroke="midnightblue" d="M137.45,-132.17C122.88,-133.94 107.8,-135.76 94.27,-137.4"/>
<polygon fill="midnightblue" stroke="midnightblue" points="137.92,-135.64 147.43,-130.97 137.08,-128.69 137.92,-135.64"/>
</g>
<!-- Node8&#45;&gt;Node5 -->
<g id="edge10" class="edge">
<title>Node8&#45;&gt;Node5</title>
<path fill="none" stroke="midnightblue" d="M151.5,-98.25C144.21,-100.3 136.88,-102.56 130,-105 107.38,-113.03 82.51,-125.03 66.15,-133.39"/>
<polygon fill="midnightblue" stroke="midnightblue" points="152.61,-101.58 161.36,-95.6 150.79,-94.82 152.61,-101.58"/>
</g>
<!-- Node10 -->
<g id="node10" class="node">
<title>Node10</title>
<g id="a_node10"><a xlink:href="../../de/d83/classGSDUtil.html#a77b5ebe2817ac868ad1b171f3d7b0cae" target="_top" xlink:title=" ">
<polygon fill="none" stroke="black" points="327.5,-76.5 327.5,-95.5 439.5,-95.5 439.5,-76.5 327.5,-76.5"/>
<text text-anchor="middle" x="383.5" y="-83.5" font-family="Helvetica,sans-Serif" font-size="10.00">GSDUtil::writeHeader</text>
</a>
</g>
</g>
<!-- Node9&#45;&gt;Node10 -->
<g id="edge12" class="edge">
<title>Node9&#45;&gt;Node10</title>
<path fill="none" stroke="midnightblue" d="M474.84,-74.2C463.34,-75.71 451.2,-77.29 439.7,-78.79"/>
<polygon fill="midnightblue" stroke="midnightblue" points="475.3,-77.67 484.76,-72.91 474.39,-70.73 475.3,-77.67"/>
</g>
<!-- Node12 -->
<g id="node12" class="node">
<title>Node12</title>
<g id="a_node12"><a xlink:href="../../de/d83/classGSDUtil.html#aa0dc50cd5e5534260375ad4962511cf0" target="_top" xlink:title=" ">
<polygon fill="none" stroke="black" points="318,-38.5 318,-57.5 449,-57.5 449,-38.5 318,-38.5"/>
<text text-anchor="middle" x="383.5" y="-45.5" font-family="Helvetica,sans-Serif" font-size="10.00">GSDUtil::writeParameters</text>
</a>
</g>
</g>
<!-- Node9&#45;&gt;Node12 -->
<g id="edge14" class="edge">
<title>Node9&#45;&gt;Node12</title>
<path fill="none" stroke="midnightblue" d="M474.77,-59.79C466.42,-58.7 457.74,-57.56 449.21,-56.45"/>
<polygon fill="midnightblue" stroke="midnightblue" points="474.39,-63.27 484.76,-61.09 475.3,-56.33 474.39,-63.27"/>
</g>
<!-- Node13 -->
<g id="node13" class="node">
<title>Node13</title>
<g id="a_node13"><a xlink:href="../../de/d83/classGSDUtil.html#a9464315a26a5d5e2c51bb2b4df5ee373" target="_top" xlink:title=" ">
<polygon fill="none" stroke="black" points="324.5,-0.5 324.5,-19.5 442.5,-19.5 442.5,-0.5 324.5,-0.5"/>
<text text-anchor="middle" x="383.5" y="-7.5" font-family="Helvetica,sans-Serif" font-size="10.00">GSDUtil::writeParticles</text>
</a>
</g>
</g>
<!-- Node9&#45;&gt;Node13 -->
<g id="edge16" class="edge">
<title>Node9&#45;&gt;Node13</title>
<path fill="none" stroke="midnightblue" d="M502.66,-52.9C487.17,-45.24 467.28,-35.93 449,-29 439.94,-25.56 429.98,-22.36 420.64,-19.6"/>
<polygon fill="midnightblue" stroke="midnightblue" points="501.18,-56.07 511.69,-57.43 504.32,-49.82 501.18,-56.07"/>
</g>
<!-- Node11 -->
<g id="node11" class="node">
<title>Node11</title>
<g id="a_node11"><a xlink:href="../../de/d83/classGSDUtil.html#ae76e4a23f0fe0bca3cd44137b56b816b" target="_top" xlink:title=" ">
<polygon fill="none" stroke="black" points="152,-38.5 152,-57.5 260,-57.5 260,-38.5 152,-38.5"/>
<text text-anchor="middle" x="206" y="-45.5" font-family="Helvetica,sans-Serif" font-size="10.00">GSDUtil::writeFrame</text>
</a>
</g>
</g>
<!-- Node10&#45;&gt;Node11 -->
<g id="edge13" class="edge">
<title>Node10&#45;&gt;Node11</title>
<path fill="none" stroke="midnightblue" d="M328.22,-74.25C303.41,-68.87 274.39,-62.59 250.97,-57.52"/>
<polygon fill="midnightblue" stroke="midnightblue" points="327.7,-77.72 338.21,-76.41 329.18,-70.87 327.7,-77.72"/>
</g>
<!-- Node12&#45;&gt;Node11 -->
<g id="edge15" class="edge">
<title>Node12&#45;&gt;Node11</title>
<path fill="none" stroke="midnightblue" d="M307.31,-48C291.42,-48 274.98,-48 260.11,-48"/>
<polygon fill="midnightblue" stroke="midnightblue" points="307.65,-51.5 317.65,-48 307.65,-44.5 307.65,-51.5"/>
</g>
<!-- Node13&#45;&gt;Node11 -->
<g id="edge17" class="edge">
<title>Node13&#45;&gt;Node11</title>
<path fill="none" stroke="midnightblue" d="M328.22,-21.75C303.41,-27.13 274.39,-33.41 250.97,-38.48"/>
<polygon fill="midnightblue" stroke="midnightblue" points="329.18,-25.13 338.21,-19.59 327.7,-18.28 329.18,-25.13"/>
</g>
</g>
</svg>
