<?xml version="1.0" encoding="UTF-8" standalone="no"?>
<!DOCTYPE svg PUBLIC "-//W3C//DTD SVG 1.1//EN"
 "http://www.w3.org/Graphics/SVG/1.1/DTD/svg11.dtd">
<!-- Generated by graphviz version 2.49.1 (20210923.0004)
 -->
<!-- Title: gsd_io_pread_retry Pages: 1 -->
<svg width="760pt" height="294pt"
 viewBox="0.00 0.00 760.00 294.00" xmlns="http://www.w3.org/2000/svg" xmlns:xlink="http://www.w3.org/1999/xlink">
<g id="graph0" class="graph" transform="scale(1 1) rotate(0) translate(4 290)">
<title>gsd_io_pread_retry</title>
<!-- Node1 -->
<g id="node1" class="node">
<title>Node1</title>
<g id="a_node1"><a xlink:title=" ">
<polygon fill="#bfbfbf" stroke="black" points="649,-209.5 649,-228.5 752,-228.5 752,-209.5 649,-209.5"/>
<text text-anchor="middle" x="700.5" y="-216.5" font-family="Helvetica,sans-Serif" font-size="10.00">gsd_io_pread_retry</text>
</a>
</g>
</g>
<!-- Node2 -->
<g id="node2" class="node">
<title>Node2</title>
<g id="a_node2"><a xlink:href="../../dc/dcb/gsd_8c.html#ae6dddb94661e99e54f6c01b1a443e27f" target="_top" xlink:title=" ">
<polygon fill="none" stroke="black" points="340,-266.5 340,-285.5 459,-285.5 459,-266.5 340,-266.5"/>
<text text-anchor="middle" x="399.5" y="-273.5" font-family="Helvetica,sans-Serif" font-size="10.00">gsd_expand_file_index</text>
</a>
</g>
</g>
<!-- Node1&#45;&gt;Node2 -->
<g id="edge1" class="edge">
<title>Node1&#45;&gt;Node2</title>
<path fill="none" stroke="midnightblue" d="M673.07,-233.3C656.34,-241.66 633.98,-251.61 613,-257 562.06,-270.09 502.25,-274.51 459.08,-275.84"/>
<polygon fill="midnightblue" stroke="midnightblue" points="674.91,-236.29 682.21,-228.61 671.72,-230.06 674.91,-236.29"/>
</g>
<!-- Node5 -->
<g id="node5" class="node">
<title>Node5</title>
<g id="a_node5"><a xlink:href="../../dc/dcb/gsd_8c.html#a6fe75caf6c4df550af2455a0c40bfbdf" target="_top" xlink:title=" ">
<polygon fill="none" stroke="black" points="495,-228.5 495,-247.5 613,-247.5 613,-228.5 495,-228.5"/>
<text text-anchor="middle" x="554" y="-235.5" font-family="Helvetica,sans-Serif" font-size="10.00">gsd_index_buffer_map</text>
</a>
</g>
</g>
<!-- Node1&#45;&gt;Node5 -->
<g id="edge4" class="edge">
<title>Node1&#45;&gt;Node5</title>
<path fill="none" stroke="midnightblue" d="M639.05,-226.95C630.49,-228.07 621.7,-229.23 613.18,-230.35"/>
<polygon fill="midnightblue" stroke="midnightblue" points="639.5,-230.42 648.96,-225.65 638.59,-223.48 639.5,-230.42"/>
</g>
<!-- Node6 -->
<g id="node6" class="node">
<title>Node6</title>
<g id="a_node6"><a xlink:href="../../dc/dcb/gsd_8c.html#ac159dfbfd790607f85073ad2d8464a8b" target="_top" xlink:title=" ">
<polygon fill="none" stroke="black" points="345,-190.5 345,-209.5 454,-209.5 454,-190.5 345,-190.5"/>
<text text-anchor="middle" x="399.5" y="-197.5" font-family="Helvetica,sans-Serif" font-size="10.00">gsd_initialize_handle</text>
</a>
</g>
</g>
<!-- Node1&#45;&gt;Node6 -->
<g id="edge13" class="edge">
<title>Node1&#45;&gt;Node6</title>
<path fill="none" stroke="midnightblue" d="M638.63,-215.13C584.5,-211.69 506.11,-206.71 454.25,-203.42"/>
<polygon fill="midnightblue" stroke="midnightblue" points="638.58,-218.64 648.78,-215.78 639.02,-211.65 638.58,-218.64"/>
</g>
<!-- Node13 -->
<g id="node13" class="node">
<title>Node13</title>
<g id="a_node13"><a xlink:href="../../dc/dcb/gsd_8c.html#a2db2e3e8a72948bf413e7f09469ec8a6" target="_top" xlink:title=" ">
<polygon fill="none" stroke="black" points="509,-114.5 509,-133.5 599,-133.5 599,-114.5 509,-114.5"/>
<text text-anchor="middle" x="554" y="-121.5" font-family="Helvetica,sans-Serif" font-size="10.00">gsd_read_chunk</text>
</a>
</g>
</g>
<!-- Node1&#45;&gt;Node13 -->
<g id="edge14" class="edge">
<title>Node1&#45;&gt;Node13</title>
<path fill="none" stroke="midnightblue" d="M676.27,-203.73C646.23,-183.98 594.82,-150.18 569.69,-133.66"/>
<polygon fill="midnightblue" stroke="midnightblue" points="674.57,-206.8 684.85,-209.37 678.42,-200.95 674.57,-206.8"/>
</g>
<!-- Node3 -->
<g id="node3" class="node">
<title>Node3</title>
<g id="a_node3"><a xlink:href="../../dc/dcb/gsd_8c.html#aa03810337c5eebcbe716d8633eaefc5e" target="_top" xlink:title=" ">
<polygon fill="none" stroke="black" points="185,-266.5 185,-285.5 271,-285.5 271,-266.5 185,-266.5"/>
<text text-anchor="middle" x="228" y="-273.5" font-family="Helvetica,sans-Serif" font-size="10.00">gsd_end_frame</text>
</a>
</g>
</g>
<!-- Node2&#45;&gt;Node3 -->
<g id="edge2" class="edge">
<title>Node2&#45;&gt;Node3</title>
<path fill="none" stroke="midnightblue" d="M329.49,-276C309.72,-276 288.77,-276 271.15,-276"/>
<polygon fill="midnightblue" stroke="midnightblue" points="329.69,-279.5 339.69,-276 329.69,-272.5 329.69,-279.5"/>
</g>
<!-- Node4 -->
<g id="node4" class="node">
<title>Node4</title>
<g id="a_node4"><a xlink:href="../../de/d83/classGSDUtil.html#ae76e4a23f0fe0bca3cd44137b56b816b" target="_top" xlink:title=" ">
<polygon fill="none" stroke="black" points="4,-266.5 4,-285.5 112,-285.5 112,-266.5 4,-266.5"/>
<text text-anchor="middle" x="58" y="-273.5" font-family="Helvetica,sans-Serif" font-size="10.00">GSDUtil::writeFrame</text>
</a>
</g>
</g>
<!-- Node3&#45;&gt;Node4 -->
<g id="edge3" class="edge">
<title>Node3&#45;&gt;Node4</title>
<path fill="none" stroke="midnightblue" d="M174.52,-276C154.69,-276 132.12,-276 112.23,-276"/>
<polygon fill="midnightblue" stroke="midnightblue" points="174.61,-279.5 184.61,-276 174.61,-272.5 174.61,-279.5"/>
</g>
<!-- Node5&#45;&gt;Node2 -->
<g id="edge5" class="edge">
<title>Node5&#45;&gt;Node2</title>
<path fill="none" stroke="midnightblue" d="M504.68,-250.04C483.38,-255.35 458.7,-261.5 438.71,-266.48"/>
<polygon fill="midnightblue" stroke="midnightblue" points="505.66,-253.4 514.52,-247.59 503.97,-246.61 505.66,-253.4"/>
</g>
<!-- Node5&#45;&gt;Node6 -->
<g id="edge6" class="edge">
<title>Node5&#45;&gt;Node6</title>
<path fill="none" stroke="midnightblue" d="M504.68,-225.96C483.38,-220.65 458.7,-214.5 438.71,-209.52"/>
<polygon fill="midnightblue" stroke="midnightblue" points="503.97,-229.39 514.52,-228.41 505.66,-222.6 503.97,-229.39"/>
</g>
<!-- Node12 -->
<g id="node12" class="node">
<title>Node12</title>
<g id="a_node12"><a xlink:href="../../dc/dcb/gsd_8c.html#adb92d5142812c19bf4ee33cbde439131" target="_top" xlink:title=" ">
<polygon fill="none" stroke="black" points="362,-228.5 362,-247.5 437,-247.5 437,-228.5 362,-228.5"/>
<text text-anchor="middle" x="399.5" y="-235.5" font-family="Helvetica,sans-Serif" font-size="10.00">gsd_upgrade</text>
</a>
</g>
</g>
<!-- Node5&#45;&gt;Node12 -->
<g id="edge12" class="edge">
<title>Node5&#45;&gt;Node12</title>
<path fill="none" stroke="midnightblue" d="M484.81,-238C468.44,-238 451.56,-238 437.25,-238"/>
<polygon fill="midnightblue" stroke="midnightblue" points="484.91,-241.5 494.91,-238 484.91,-234.5 484.91,-241.5"/>
</g>
<!-- Node7 -->
<g id="node7" class="node">
<title>Node7</title>
<g id="a_node7"><a xlink:href="../../dc/dcb/gsd_8c.html#aa0b0b7fb6b385707ffc83989d54bc81b" target="_top" xlink:title=" ">
<polygon fill="none" stroke="black" points="170,-228.5 170,-247.5 286,-247.5 286,-228.5 170,-228.5"/>
<text text-anchor="middle" x="228" y="-235.5" font-family="Helvetica,sans-Serif" font-size="10.00">gsd_create_and_open</text>
</a>
</g>
</g>
<!-- Node6&#45;&gt;Node7 -->
<g id="edge7" class="edge">
<title>Node6&#45;&gt;Node7</title>
<path fill="none" stroke="midnightblue" d="M345.76,-211.82C321.86,-217.18 293.98,-223.43 271.46,-228.48"/>
<polygon fill="midnightblue" stroke="midnightblue" points="346.74,-215.19 355.73,-209.59 345.2,-208.36 346.74,-215.19"/>
</g>
<!-- Node8 -->
<g id="node8" class="node">
<title>Node8</title>
<g id="a_node8"><a xlink:href="../../dc/dcb/gsd_8c.html#ad8933dcce55fd8101b5688f382c10a8e" target="_top" xlink:title=" ">
<polygon fill="none" stroke="black" points="198,-152.5 198,-171.5 258,-171.5 258,-152.5 198,-152.5"/>
<text text-anchor="middle" x="228" y="-159.5" font-family="Helvetica,sans-Serif" font-size="10.00">gsd_open</text>
</a>
</g>
</g>
<!-- Node6&#45;&gt;Node8 -->
<g id="edge8" class="edge">
<title>Node6&#45;&gt;Node8</title>
<path fill="none" stroke="midnightblue" d="M345.78,-188.18C316.9,-181.71 282.19,-173.92 258.16,-168.54"/>
<polygon fill="midnightblue" stroke="midnightblue" points="345.2,-191.64 355.73,-190.41 346.74,-184.81 345.2,-191.64"/>
</g>
<!-- Node10 -->
<g id="node10" class="node">
<title>Node10</title>
<g id="a_node10"><a xlink:href="../../dc/dcb/gsd_8c.html#a02ac7984034069d508b1c7ccbe702bac" target="_top" xlink:title=" ">
<polygon fill="none" stroke="black" points="191,-190.5 191,-209.5 265,-209.5 265,-190.5 191,-190.5"/>
<text text-anchor="middle" x="228" y="-197.5" font-family="Helvetica,sans-Serif" font-size="10.00">gsd_truncate</text>
</a>
</g>
</g>
<!-- Node6&#45;&gt;Node10 -->
<g id="edge10" class="edge">
<title>Node6&#45;&gt;Node10</title>
<path fill="none" stroke="midnightblue" d="M334.62,-200C311.13,-200 285.36,-200 265.15,-200"/>
<polygon fill="midnightblue" stroke="midnightblue" points="334.87,-203.5 344.87,-200 334.87,-196.5 334.87,-203.5"/>
</g>
<!-- Node9 -->
<g id="node9" class="node">
<title>Node9</title>
<g id="a_node9"><a xlink:href="../../de/d83/classGSDUtil.html#a2567bdb7f5952a76984552e0591fa330" target="_top" xlink:title=" ">
<polygon fill="none" stroke="black" points="11,-76.5 11,-95.5 105,-95.5 105,-76.5 11,-76.5"/>
<text text-anchor="middle" x="58" y="-83.5" font-family="Helvetica,sans-Serif" font-size="10.00">GSDUtil::GSDUtil</text>
</a>
</g>
</g>
<!-- Node8&#45;&gt;Node9 -->
<g id="edge9" class="edge">
<title>Node8&#45;&gt;Node9</title>
<path fill="none" stroke="midnightblue" d="M187.83,-154.44C176.07,-151.54 163.3,-147.76 152,-143 121.46,-130.13 89.22,-108.22 71.87,-95.64"/>
<polygon fill="midnightblue" stroke="midnightblue" points="187.31,-157.91 197.85,-156.76 188.89,-151.09 187.31,-157.91"/>
</g>
<!-- Node11 -->
<g id="node11" class="node">
<title>Node11</title>
<g id="a_node11"><a xlink:href="../../de/d83/classGSDUtil.html#a78b796cb5093b0aa6f5d2573658fcca1" target="_top" xlink:title=" ">
<polygon fill="none" stroke="black" points="0,-190.5 0,-209.5 116,-209.5 116,-190.5 0,-190.5"/>
<text text-anchor="middle" x="58" y="-197.5" font-family="Helvetica,sans-Serif" font-size="10.00">GSDUtil::truncateGSD</text>
</a>
</g>
</g>
<!-- Node10&#45;&gt;Node11 -->
<g id="edge11" class="edge">
<title>Node10&#45;&gt;Node11</title>
<path fill="none" stroke="midnightblue" d="M180.86,-200C160.86,-200 137.23,-200 116.13,-200"/>
<polygon fill="midnightblue" stroke="midnightblue" points="180.96,-203.5 190.96,-200 180.96,-196.5 180.96,-203.5"/>
</g>
<!-- Node14 -->
<g id="node14" class="node">
<title>Node14</title>
<g id="a_node14"><a xlink:href="../../de/d83/classGSDUtil.html#a86d2352b694afc6a0c938a13b3acec9d" target="_top" xlink:title=" ">
<polygon fill="none" stroke="black" points="346,-76.5 346,-95.5 453,-95.5 453,-76.5 346,-76.5"/>
<text text-anchor="middle" x="399.5" y="-83.5" font-family="Helvetica,sans-Serif" font-size="10.00">GSDUtil::readChunk</text>
</a>
</g>
</g>
<!-- Node13&#45;&gt;Node14 -->
<g id="edge15" class="edge">
<title>Node13&#45;&gt;Node14</title>
<path fill="none" stroke="midnightblue" d="M504.68,-111.96C483.38,-106.65 458.7,-100.5 438.71,-95.52"/>
<polygon fill="midnightblue" stroke="midnightblue" points="503.97,-115.39 514.52,-114.41 505.66,-108.6 503.97,-115.39"/>
</g>
<!-- Node15 -->
<g id="node15" class="node">
<title>Node15</title>
<g id="a_node15"><a xlink:href="../../de/d83/classGSDUtil.html#a2015dcdcdb33be9106f5c8f45f8564cc" target="_top" xlink:title=" ">
<polygon fill="none" stroke="black" points="172.5,-114.5 172.5,-133.5 283.5,-133.5 283.5,-114.5 172.5,-114.5"/>
<text text-anchor="middle" x="228" y="-121.5" font-family="Helvetica,sans-Serif" font-size="10.00">GSDUtil::readHeader</text>
</a>
</g>
</g>
<!-- Node14&#45;&gt;Node15 -->
<g id="edge16" class="edge">
<title>Node14&#45;&gt;Node15</title>
<path fill="none" stroke="midnightblue" d="M345.76,-97.82C321.86,-103.18 293.98,-109.43 271.46,-114.48"/>
<polygon fill="midnightblue" stroke="midnightblue" points="346.74,-101.19 355.73,-95.59 345.2,-94.36 346.74,-101.19"/>
</g>
<!-- Node16 -->
<g id="node16" class="node">
<title>Node16</title>
<g id="a_node16"><a xlink:href="../../de/d83/classGSDUtil.html#a31f9c7368ebd89c6293d9d9d83598e62" target="_top" xlink:title=" ">
<polygon fill="none" stroke="black" points="163,-76.5 163,-95.5 293,-95.5 293,-76.5 163,-76.5"/>
<text text-anchor="middle" x="228" y="-83.5" font-family="Helvetica,sans-Serif" font-size="10.00">GSDUtil::readParameters</text>
</a>
</g>
</g>
<!-- Node14&#45;&gt;Node16 -->
<g id="edge18" class="edge">
<title>Node14&#45;&gt;Node16</title>
<path fill="none" stroke="midnightblue" d="M335.46,-86C321.7,-86 307.11,-86 293.3,-86"/>
<polygon fill="midnightblue" stroke="midnightblue" points="335.8,-89.5 345.8,-86 335.8,-82.5 335.8,-89.5"/>
</g>
<!-- Node17 -->
<g id="node17" class="node">
<title>Node17</title>
<g id="a_node17"><a xlink:href="../../de/d83/classGSDUtil.html#ad404c3879fb81c0b73b2335ea6e4676a" target="_top" xlink:title=" ">
<polygon fill="none" stroke="black" points="169.5,-38.5 169.5,-57.5 286.5,-57.5 286.5,-38.5 169.5,-38.5"/>
<text text-anchor="middle" x="228" y="-45.5" font-family="Helvetica,sans-Serif" font-size="10.00">GSDUtil::readParticles</text>
</a>
</g>
</g>
<!-- Node14&#45;&gt;Node17 -->
<g id="edge20" class="edge">
<title>Node14&#45;&gt;Node17</title>
<path fill="none" stroke="midnightblue" d="M345.76,-74.18C321.86,-68.82 293.98,-62.57 271.46,-57.52"/>
<polygon fill="midnightblue" stroke="midnightblue" points="345.2,-77.64 355.73,-76.41 346.74,-70.81 345.2,-77.64"/>
</g>
<!-- Node18 -->
<g id="node18" class="node">
<title>Node18</title>
<g id="a_node18"><a xlink:href="../../de/d83/classGSDUtil.html#a278d1db9ece12bdc1268780313d83daf" target="_top" xlink:title=" ">
<polygon fill="none" stroke="black" points="152,-0.5 152,-19.5 304,-19.5 304,-0.5 152,-0.5"/>
<text text-anchor="middle" x="228" y="-7.5" font-family="Helvetica,sans-Serif" font-size="10.00">GSDUtil::readSystemSpecifics</text>
</a>
</g>
</g>
<!-- Node14&#45;&gt;Node18 -->
<g id="edge22" class="edge">
<title>Node14&#45;&gt;Node18</title>
<path fill="none" stroke="midnightblue" d="M377.1,-70.57C358.55,-57.83 330.59,-40.1 304,-29 295.08,-25.27 285.24,-22.14 275.71,-19.56"/>
<polygon fill="midnightblue" stroke="midnightblue" points="375.2,-73.51 385.4,-76.37 379.21,-67.77 375.2,-73.51"/>
</g>
<!-- Node15&#45;&gt;Node9 -->
<g id="edge17" class="edge">
<title>Node15&#45;&gt;Node9</title>
<path fill="none" stroke="midnightblue" d="M174.72,-112.18C151.04,-106.82 123.41,-100.57 101.09,-95.52"/>
<polygon fill="midnightblue" stroke="midnightblue" points="174.08,-115.62 184.61,-114.41 175.63,-108.79 174.08,-115.62"/>
</g>
<!-- Node16&#45;&gt;Node9 -->
<g id="edge19" class="edge">
<title>Node16&#45;&gt;Node9</title>
<path fill="none" stroke="midnightblue" d="M152.09,-86C136.07,-86 119.6,-86 105.05,-86"/>
<polygon fill="midnightblue" stroke="midnightblue" points="152.53,-89.5 162.53,-86 152.53,-82.5 152.53,-89.5"/>
</g>
<!-- Node17&#45;&gt;Node9 -->
<g id="edge21" class="edge">
<title>Node17&#45;&gt;Node9</title>
<path fill="none" stroke="midnightblue" d="M174.72,-59.82C151.04,-65.18 123.41,-71.43 101.09,-76.48"/>
<polygon fill="midnightblue" stroke="midnightblue" points="175.63,-63.21 184.61,-57.59 174.08,-56.38 175.63,-63.21"/>
</g>
<!-- Node18&#45;&gt;Node9 -->
<g id="edge23" class="edge">
<title>Node18&#45;&gt;Node9</title>
<path fill="none" stroke="midnightblue" d="M170.39,-22.38C164.09,-24.33 157.85,-26.53 152,-29 121.46,-41.87 89.22,-63.78 71.87,-76.36"/>
<polygon fill="midnightblue" stroke="midnightblue" points="171.64,-25.66 180.27,-19.51 169.69,-18.94 171.64,-25.66"/>
</g>
</g>
</svg>
