<?xml version="1.0" encoding="UTF-8" standalone="no"?>
<!DOCTYPE svg PUBLIC "-//W3C//DTD SVG 1.1//EN"
 "http://www.w3.org/Graphics/SVG/1.1/DTD/svg11.dtd">
<!-- Generated by graphviz version 2.49.1 (20210923.0004)
 -->
<!-- Title: gsd_is_entry_valid Pages: 1 -->
<svg width="720pt" height="142pt"
 viewBox="0.00 0.00 720.00 142.00" xmlns="http://www.w3.org/2000/svg" xmlns:xlink="http://www.w3.org/1999/xlink">
<g id="graph0" class="graph" transform="scale(1 1) rotate(0) translate(4 138)">
<title>gsd_is_entry_valid</title>
<!-- Node1 -->
<g id="node1" class="node">
<title>Node1</title>
<g id="a_node1"><a xlink:title=" ">
<polygon fill="#bfbfbf" stroke="black" points="613,-57.5 613,-76.5 712,-76.5 712,-57.5 613,-57.5"/>
<text text-anchor="middle" x="662.5" y="-64.5" font-family="Helvetica,sans-Serif" font-size="10.00">gsd_is_entry_valid</text>
</a>
</g>
</g>
<!-- Node2 -->
<g id="node2" class="node">
<title>Node2</title>
<g id="a_node2"><a xlink:href="../../dc/dcb/gsd_8c.html#a6fe75caf6c4df550af2455a0c40bfbdf" target="_top" xlink:title=" ">
<polygon fill="none" stroke="black" points="459,-57.5 459,-76.5 577,-76.5 577,-57.5 459,-57.5"/>
<text text-anchor="middle" x="518" y="-64.5" font-family="Helvetica,sans-Serif" font-size="10.00">gsd_index_buffer_map</text>
</a>
</g>
</g>
<!-- Node1&#45;&gt;Node2 -->
<g id="edge1" class="edge">
<title>Node1&#45;&gt;Node2</title>
<path fill="none" stroke="midnightblue" d="M602.74,-67C594.33,-67 585.67,-67 577.27,-67"/>
<polygon fill="midnightblue" stroke="midnightblue" points="602.86,-70.5 612.86,-67 602.86,-63.5 602.86,-70.5"/>
</g>
<!-- Node3 -->
<g id="node3" class="node">
<title>Node3</title>
<g id="a_node3"><a xlink:href="../../dc/dcb/gsd_8c.html#ae6dddb94661e99e54f6c01b1a443e27f" target="_top" xlink:title=" ">
<polygon fill="none" stroke="black" points="304,-104.5 304,-123.5 423,-123.5 423,-104.5 304,-104.5"/>
<text text-anchor="middle" x="363.5" y="-111.5" font-family="Helvetica,sans-Serif" font-size="10.00">gsd_expand_file_index</text>
</a>
</g>
</g>
<!-- Node2&#45;&gt;Node3 -->
<g id="edge2" class="edge">
<title>Node2&#45;&gt;Node3</title>
<path fill="none" stroke="midnightblue" d="M476.44,-79.5C451.07,-87.32 418.91,-97.23 395.58,-104.42"/>
<polygon fill="midnightblue" stroke="midnightblue" points="477.61,-82.8 486.14,-76.51 475.55,-76.11 477.61,-82.8"/>
</g>
<!-- Node6 -->
<g id="node6" class="node">
<title>Node6</title>
<g id="a_node6"><a xlink:href="../../dc/dcb/gsd_8c.html#ac159dfbfd790607f85073ad2d8464a8b" target="_top" xlink:title=" ">
<polygon fill="none" stroke="black" points="309,-57.5 309,-76.5 418,-76.5 418,-57.5 309,-57.5"/>
<text text-anchor="middle" x="363.5" y="-64.5" font-family="Helvetica,sans-Serif" font-size="10.00">gsd_initialize_handle</text>
</a>
</g>
</g>
<!-- Node2&#45;&gt;Node6 -->
<g id="edge5" class="edge">
<title>Node2&#45;&gt;Node6</title>
<path fill="none" stroke="midnightblue" d="M448.82,-67C438.63,-67 428.25,-67 418.41,-67"/>
<polygon fill="midnightblue" stroke="midnightblue" points="448.91,-70.5 458.91,-67 448.91,-63.5 448.91,-70.5"/>
</g>
<!-- Node12 -->
<g id="node12" class="node">
<title>Node12</title>
<g id="a_node12"><a xlink:href="../../dc/dcb/gsd_8c.html#adb92d5142812c19bf4ee33cbde439131" target="_top" xlink:title=" ">
<polygon fill="none" stroke="black" points="326,-19.5 326,-38.5 401,-38.5 401,-19.5 326,-19.5"/>
<text text-anchor="middle" x="363.5" y="-26.5" font-family="Helvetica,sans-Serif" font-size="10.00">gsd_upgrade</text>
</a>
</g>
</g>
<!-- Node2&#45;&gt;Node12 -->
<g id="edge11" class="edge">
<title>Node2&#45;&gt;Node12</title>
<path fill="none" stroke="midnightblue" d="M468.75,-54.98C446.86,-49.52 421.41,-43.18 401.13,-38.13"/>
<polygon fill="midnightblue" stroke="midnightblue" points="467.97,-58.39 478.52,-57.41 469.66,-51.6 467.97,-58.39"/>
</g>
<!-- Node4 -->
<g id="node4" class="node">
<title>Node4</title>
<g id="a_node4"><a xlink:href="../../dc/dcb/gsd_8c.html#aa03810337c5eebcbe716d8633eaefc5e" target="_top" xlink:title=" ">
<polygon fill="none" stroke="black" points="167,-114.5 167,-133.5 253,-133.5 253,-114.5 167,-114.5"/>
<text text-anchor="middle" x="210" y="-121.5" font-family="Helvetica,sans-Serif" font-size="10.00">gsd_end_frame</text>
</a>
</g>
</g>
<!-- Node3&#45;&gt;Node4 -->
<g id="edge3" class="edge">
<title>Node3&#45;&gt;Node4</title>
<path fill="none" stroke="midnightblue" d="M293.56,-118.55C279.89,-119.45 265.92,-120.38 253.45,-121.2"/>
<polygon fill="midnightblue" stroke="midnightblue" points="294.18,-122.02 303.93,-117.87 293.72,-115.03 294.18,-122.02"/>
</g>
<!-- Node5 -->
<g id="node5" class="node">
<title>Node5</title>
<g id="a_node5"><a xlink:href="../../de/d83/classGSDUtil.html#ae76e4a23f0fe0bca3cd44137b56b816b" target="_top" xlink:title=" ">
<polygon fill="none" stroke="black" points="4,-114.5 4,-133.5 112,-133.5 112,-114.5 4,-114.5"/>
<text text-anchor="middle" x="58" y="-121.5" font-family="Helvetica,sans-Serif" font-size="10.00">GSDUtil::writeFrame</text>
</a>
</g>
</g>
<!-- Node4&#45;&gt;Node5 -->
<g id="edge4" class="edge">
<title>Node4&#45;&gt;Node5</title>
<path fill="none" stroke="midnightblue" d="M156.58,-124C142.18,-124 126.55,-124 112.11,-124"/>
<polygon fill="midnightblue" stroke="midnightblue" points="156.82,-127.5 166.82,-124 156.82,-120.5 156.82,-127.5"/>
</g>
<!-- Node7 -->
<g id="node7" class="node">
<title>Node7</title>
<g id="a_node7"><a xlink:href="../../dc/dcb/gsd_8c.html#aa0b0b7fb6b385707ffc83989d54bc81b" target="_top" xlink:title=" ">
<polygon fill="none" stroke="black" points="152,-76.5 152,-95.5 268,-95.5 268,-76.5 152,-76.5"/>
<text text-anchor="middle" x="210" y="-83.5" font-family="Helvetica,sans-Serif" font-size="10.00">gsd_create_and_open</text>
</a>
</g>
</g>
<!-- Node6&#45;&gt;Node7 -->
<g id="edge6" class="edge">
<title>Node6&#45;&gt;Node7</title>
<path fill="none" stroke="midnightblue" d="M298.62,-75.01C288.45,-76.29 277.99,-77.6 268,-78.85"/>
<polygon fill="midnightblue" stroke="midnightblue" points="299.17,-78.47 308.66,-73.75 298.3,-71.52 299.17,-78.47"/>
</g>
<!-- Node8 -->
<g id="node8" class="node">
<title>Node8</title>
<g id="a_node8"><a xlink:href="../../dc/dcb/gsd_8c.html#ad8933dcce55fd8101b5688f382c10a8e" target="_top" xlink:title=" ">
<polygon fill="none" stroke="black" points="180,-38.5 180,-57.5 240,-57.5 240,-38.5 180,-38.5"/>
<text text-anchor="middle" x="210" y="-45.5" font-family="Helvetica,sans-Serif" font-size="10.00">gsd_open</text>
</a>
</g>
</g>
<!-- Node6&#45;&gt;Node8 -->
<g id="edge7" class="edge">
<title>Node6&#45;&gt;Node8</title>
<path fill="none" stroke="midnightblue" d="M298.47,-58.97C278.12,-56.42 256.61,-53.72 240.01,-51.64"/>
<polygon fill="midnightblue" stroke="midnightblue" points="298.3,-62.48 308.66,-60.25 299.17,-55.53 298.3,-62.48"/>
</g>
<!-- Node10 -->
<g id="node10" class="node">
<title>Node10</title>
<g id="a_node10"><a xlink:href="../../dc/dcb/gsd_8c.html#a02ac7984034069d508b1c7ccbe702bac" target="_top" xlink:title=" ">
<polygon fill="none" stroke="black" points="173,-0.5 173,-19.5 247,-19.5 247,-0.5 173,-0.5"/>
<text text-anchor="middle" x="210" y="-7.5" font-family="Helvetica,sans-Serif" font-size="10.00">gsd_truncate</text>
</a>
</g>
</g>
<!-- Node6&#45;&gt;Node10 -->
<g id="edge9" class="edge">
<title>Node6&#45;&gt;Node10</title>
<path fill="none" stroke="midnightblue" d="M319.97,-54.14C314.54,-52.22 309.1,-50.16 304,-48 287.34,-40.96 284.64,-36.11 268,-29 259.94,-25.56 251.04,-22.33 242.7,-19.54"/>
<polygon fill="midnightblue" stroke="midnightblue" points="319.05,-57.52 329.65,-57.42 321.3,-50.89 319.05,-57.52"/>
</g>
<!-- Node9 -->
<g id="node9" class="node">
<title>Node9</title>
<g id="a_node9"><a xlink:href="../../de/d83/classGSDUtil.html#a2567bdb7f5952a76984552e0591fa330" target="_top" xlink:title=" ">
<polygon fill="none" stroke="black" points="11,-38.5 11,-57.5 105,-57.5 105,-38.5 11,-38.5"/>
<text text-anchor="middle" x="58" y="-45.5" font-family="Helvetica,sans-Serif" font-size="10.00">GSDUtil::GSDUtil</text>
</a>
</g>
</g>
<!-- Node8&#45;&gt;Node9 -->
<g id="edge8" class="edge">
<title>Node8&#45;&gt;Node9</title>
<path fill="none" stroke="midnightblue" d="M169.51,-48C149.73,-48 125.65,-48 105.03,-48"/>
<polygon fill="midnightblue" stroke="midnightblue" points="169.72,-51.5 179.72,-48 169.72,-44.5 169.72,-51.5"/>
</g>
<!-- Node11 -->
<g id="node11" class="node">
<title>Node11</title>
<g id="a_node11"><a xlink:href="../../de/d83/classGSDUtil.html#a78b796cb5093b0aa6f5d2573658fcca1" target="_top" xlink:title=" ">
<polygon fill="none" stroke="black" points="0,-0.5 0,-19.5 116,-19.5 116,-0.5 0,-0.5"/>
<text text-anchor="middle" x="58" y="-7.5" font-family="Helvetica,sans-Serif" font-size="10.00">GSDUtil::truncateGSD</text>
</a>
</g>
</g>
<!-- Node10&#45;&gt;Node11 -->
<g id="edge10" class="edge">
<title>Node10&#45;&gt;Node11</title>
<path fill="none" stroke="midnightblue" d="M162.35,-10C147.69,-10 131.34,-10 116.04,-10"/>
<polygon fill="midnightblue" stroke="midnightblue" points="162.69,-13.5 172.69,-10 162.69,-6.5 162.69,-13.5"/>
</g>
</g>
</svg>
