<?xml version="1.0" encoding="UTF-8" standalone="no"?>
<!DOCTYPE svg PUBLIC "-//W3C//DTD SVG 1.1//EN"
 "http://www.w3.org/Graphics/SVG/1.1/DTD/svg11.dtd">
<!-- Generated by graphviz version 2.49.1 (20210923.0004)
 -->
<!-- Title: gsd_make_version Pages: 1 -->
<svg width="791pt" height="427pt"
 viewBox="0.00 0.00 791.00 427.00" xmlns="http://www.w3.org/2000/svg" xmlns:xlink="http://www.w3.org/1999/xlink">
<g id="graph0" class="graph" transform="scale(1 1) rotate(0) translate(4 423)">
<title>gsd_make_version</title>
<!-- Node1 -->
<g id="node1" class="node">
<title>Node1</title>
<g id="a_node1"><a xlink:title=" ">
<polygon fill="#bfbfbf" stroke="black" points="683,-95.5 683,-114.5 783,-114.5 783,-95.5 683,-95.5"/>
<text text-anchor="middle" x="733" y="-102.5" font-family="Helvetica,sans-Serif" font-size="10.00">gsd_make_version</text>
</a>
</g>
</g>
<!-- Node2 -->
<g id="node2" class="node">
<title>Node2</title>
<g id="a_node2"><a xlink:href="../../dc/dcb/gsd_8c.html#aa1a0a7dcf4015edcadbb47a6451b4a4b" target="_top" xlink:title=" ">
<polygon fill="none" stroke="black" points="514.5,-256.5 514.5,-275.5 616.5,-275.5 616.5,-256.5 514.5,-256.5"/>
<text text-anchor="middle" x="565.5" y="-263.5" font-family="Helvetica,sans-Serif" font-size="10.00">gsd_append_name</text>
</a>
</g>
</g>
<!-- Node1&#45;&gt;Node2 -->
<g id="edge1" class="edge">
<title>Node1&#45;&gt;Node2</title>
<path fill="none" stroke="midnightblue" d="M717.82,-122.41C701.52,-142.04 673.59,-174.53 647,-200 624.55,-221.5 595.93,-243.9 579.56,-256.29"/>
<polygon fill="midnightblue" stroke="midnightblue" points="720.59,-124.55 724.25,-114.61 715.19,-120.1 720.59,-124.55"/>
</g>
<!-- Node8 -->
<g id="node8" class="node">
<title>Node8</title>
<g id="a_node8"><a xlink:href="../../dc/dcb/gsd_8c.html#ac00249e8c3030557711beb337c8424dd" target="_top" xlink:title=" ">
<polygon fill="none" stroke="black" points="522,-171.5 522,-190.5 609,-190.5 609,-171.5 522,-171.5"/>
<text text-anchor="middle" x="565.5" y="-178.5" font-family="Helvetica,sans-Serif" font-size="10.00">gsd_find_chunk</text>
</a>
</g>
</g>
<!-- Node1&#45;&gt;Node8 -->
<g id="edge9" class="edge">
<title>Node1&#45;&gt;Node8</title>
<path fill="none" stroke="midnightblue" d="M701.81,-118.86C668.62,-134.1 616.17,-158.19 587.29,-171.45"/>
<polygon fill="midnightblue" stroke="midnightblue" points="703.41,-121.98 711.04,-114.63 700.49,-115.62 703.41,-121.98"/>
</g>
<!-- Node15 -->
<g id="node15" class="node">
<title>Node15</title>
<g id="a_node15"><a xlink:href="../../dc/dcb/gsd_8c.html#ad6f823bc40d0a28be983368adb42783e" target="_top" xlink:title=" ">
<polygon fill="none" stroke="black" points="484,-0.5 484,-19.5 647,-19.5 647,-0.5 484,-0.5"/>
<text text-anchor="middle" x="565.5" y="-7.5" font-family="Helvetica,sans-Serif" font-size="10.00">gsd_find_matching_chunk_name</text>
</a>
</g>
</g>
<!-- Node1&#45;&gt;Node15 -->
<g id="edge19" class="edge">
<title>Node1&#45;&gt;Node15</title>
<path fill="none" stroke="midnightblue" d="M715.97,-88.11C699.91,-72.09 673.79,-48.38 647,-34 635.69,-27.93 622.65,-23.19 610.4,-19.6"/>
<polygon fill="midnightblue" stroke="midnightblue" points="713.51,-90.59 723.01,-95.28 718.5,-85.69 713.51,-90.59"/>
</g>
<!-- Node16 -->
<g id="node16" class="node">
<title>Node16</title>
<g id="a_node16"><a xlink:href="../../dc/dcb/gsd_8c.html#adb92d5142812c19bf4ee33cbde439131" target="_top" xlink:title=" ">
<polygon fill="none" stroke="black" points="352.5,-0.5 352.5,-19.5 427.5,-19.5 427.5,-0.5 352.5,-0.5"/>
<text text-anchor="middle" x="390" y="-7.5" font-family="Helvetica,sans-Serif" font-size="10.00">gsd_upgrade</text>
</a>
</g>
</g>
<!-- Node1&#45;&gt;Node16 -->
<g id="edge31" class="edge">
<title>Node1&#45;&gt;Node16</title>
<path fill="none" stroke="midnightblue" d="M704.51,-91.01C688.14,-83.11 666.75,-73.54 647,-67 626.31,-60.15 493.32,-31.65 427.62,-17.73"/>
<polygon fill="midnightblue" stroke="midnightblue" points="703.01,-94.17 713.53,-95.44 706.09,-87.89 703.01,-94.17"/>
</g>
<!-- Node17 -->
<g id="node17" class="node">
<title>Node17</title>
<g id="a_node17"><a xlink:href="../../dc/dcb/gsd_8c.html#acb769baf09c31a5ad6cba95bd348c194" target="_top" xlink:title=" ">
<polygon fill="none" stroke="black" points="519.5,-76.5 519.5,-95.5 611.5,-95.5 611.5,-76.5 519.5,-76.5"/>
<text text-anchor="middle" x="565.5" y="-83.5" font-family="Helvetica,sans-Serif" font-size="10.00">gsd_initialize_file</text>
</a>
</g>
</g>
<!-- Node1&#45;&gt;Node17 -->
<g id="edge21" class="edge">
<title>Node1&#45;&gt;Node17</title>
<path fill="none" stroke="midnightblue" d="M672.78,-98.2C652.62,-95.89 630.43,-93.34 611.56,-91.17"/>
<polygon fill="midnightblue" stroke="midnightblue" points="672.46,-101.69 682.79,-99.35 673.26,-94.73 672.46,-101.69"/>
</g>
<!-- Node22 -->
<g id="node22" class="node">
<title>Node22</title>
<g id="a_node22"><a xlink:href="../../dc/dcb/gsd_8c.html#ac159dfbfd790607f85073ad2d8464a8b" target="_top" xlink:title=" ">
<polygon fill="none" stroke="black" points="511,-114.5 511,-133.5 620,-133.5 620,-114.5 511,-114.5"/>
<text text-anchor="middle" x="565.5" y="-121.5" font-family="Helvetica,sans-Serif" font-size="10.00">gsd_initialize_handle</text>
</a>
</g>
</g>
<!-- Node1&#45;&gt;Node22 -->
<g id="edge26" class="edge">
<title>Node1&#45;&gt;Node22</title>
<path fill="none" stroke="midnightblue" d="M672.38,-111.84C655.32,-113.8 636.82,-115.93 620.14,-117.84"/>
<polygon fill="midnightblue" stroke="midnightblue" points="673.26,-115.27 682.79,-110.65 672.46,-108.31 673.26,-115.27"/>
</g>
<!-- Node3 -->
<g id="node3" class="node">
<title>Node3</title>
<g id="a_node3"><a xlink:href="../../dc/dcb/gsd_8c.html#ae22447904b925f284bf987fae448488a" target="_top" xlink:title=" ">
<polygon fill="none" stroke="black" points="344,-342.5 344,-361.5 436,-361.5 436,-342.5 344,-342.5"/>
<text text-anchor="middle" x="390" y="-349.5" font-family="Helvetica,sans-Serif" font-size="10.00">gsd_write_chunk</text>
</a>
</g>
</g>
<!-- Node2&#45;&gt;Node3 -->
<g id="edge2" class="edge">
<title>Node2&#45;&gt;Node3</title>
<path fill="none" stroke="midnightblue" d="M535.94,-280.15C500.46,-297.75 440.86,-327.29 410.32,-342.43"/>
<polygon fill="midnightblue" stroke="midnightblue" points="537.86,-283.11 545.27,-275.53 534.76,-276.84 537.86,-283.11"/>
</g>
<!-- Node4 -->
<g id="node4" class="node">
<title>Node4</title>
<g id="a_node4"><a xlink:href="../../de/d83/classGSDUtil.html#a77b5ebe2817ac868ad1b171f3d7b0cae" target="_top" xlink:title=" ">
<polygon fill="none" stroke="black" points="164,-399.5 164,-418.5 276,-418.5 276,-399.5 164,-399.5"/>
<text text-anchor="middle" x="220" y="-406.5" font-family="Helvetica,sans-Serif" font-size="10.00">GSDUtil::writeHeader</text>
</a>
</g>
</g>
<!-- Node3&#45;&gt;Node4 -->
<g id="edge3" class="edge">
<title>Node3&#45;&gt;Node4</title>
<path fill="none" stroke="midnightblue" d="M358.51,-365.72C340.55,-373.48 317.25,-383.01 296,-390 285.41,-393.49 273.8,-396.71 262.95,-399.47"/>
<polygon fill="midnightblue" stroke="midnightblue" points="360.13,-368.83 367.89,-361.61 357.33,-362.42 360.13,-368.83"/>
</g>
<!-- Node6 -->
<g id="node6" class="node">
<title>Node6</title>
<g id="a_node6"><a xlink:href="../../de/d83/classGSDUtil.html#aa0dc50cd5e5534260375ad4962511cf0" target="_top" xlink:title=" ">
<polygon fill="none" stroke="black" points="154.5,-361.5 154.5,-380.5 285.5,-380.5 285.5,-361.5 154.5,-361.5"/>
<text text-anchor="middle" x="220" y="-368.5" font-family="Helvetica,sans-Serif" font-size="10.00">GSDUtil::writeParameters</text>
</a>
</g>
</g>
<!-- Node3&#45;&gt;Node6 -->
<g id="edge5" class="edge">
<title>Node3&#45;&gt;Node6</title>
<path fill="none" stroke="midnightblue" d="M333.63,-358.26C318.3,-360 301.53,-361.89 285.73,-363.68"/>
<polygon fill="midnightblue" stroke="midnightblue" points="334.44,-361.69 343.98,-357.09 333.65,-354.74 334.44,-361.69"/>
</g>
<!-- Node7 -->
<g id="node7" class="node">
<title>Node7</title>
<g id="a_node7"><a xlink:href="../../de/d83/classGSDUtil.html#a9464315a26a5d5e2c51bb2b4df5ee373" target="_top" xlink:title=" ">
<polygon fill="none" stroke="black" points="161,-323.5 161,-342.5 279,-342.5 279,-323.5 161,-323.5"/>
<text text-anchor="middle" x="220" y="-330.5" font-family="Helvetica,sans-Serif" font-size="10.00">GSDUtil::writeParticles</text>
</a>
</g>
</g>
<!-- Node3&#45;&gt;Node7 -->
<g id="edge7" class="edge">
<title>Node3&#45;&gt;Node7</title>
<path fill="none" stroke="midnightblue" d="M333.9,-345.77C316.35,-343.78 296.89,-341.58 279.13,-339.57"/>
<polygon fill="midnightblue" stroke="midnightblue" points="333.65,-349.26 343.98,-346.91 334.44,-342.31 333.65,-349.26"/>
</g>
<!-- Node5 -->
<g id="node5" class="node">
<title>Node5</title>
<g id="a_node5"><a xlink:href="../../de/d83/classGSDUtil.html#ae76e4a23f0fe0bca3cd44137b56b816b" target="_top" xlink:title=" ">
<polygon fill="none" stroke="black" points="0,-361.5 0,-380.5 108,-380.5 108,-361.5 0,-361.5"/>
<text text-anchor="middle" x="54" y="-368.5" font-family="Helvetica,sans-Serif" font-size="10.00">GSDUtil::writeFrame</text>
</a>
</g>
</g>
<!-- Node4&#45;&gt;Node5 -->
<g id="edge4" class="edge">
<title>Node4&#45;&gt;Node5</title>
<path fill="none" stroke="midnightblue" d="M167.66,-397.1C144.61,-391.76 117.78,-385.55 96.09,-380.52"/>
<polygon fill="midnightblue" stroke="midnightblue" points="167.08,-400.56 177.62,-399.41 168.66,-393.74 167.08,-400.56"/>
</g>
<!-- Node6&#45;&gt;Node5 -->
<g id="edge6" class="edge">
<title>Node6&#45;&gt;Node5</title>
<path fill="none" stroke="midnightblue" d="M144.04,-371C131.88,-371 119.51,-371 108.01,-371"/>
<polygon fill="midnightblue" stroke="midnightblue" points="144.18,-374.5 154.18,-371 144.18,-367.5 144.18,-374.5"/>
</g>
<!-- Node7&#45;&gt;Node5 -->
<g id="edge8" class="edge">
<title>Node7&#45;&gt;Node5</title>
<path fill="none" stroke="midnightblue" d="M167.66,-344.9C144.61,-350.24 117.78,-356.45 96.09,-361.48"/>
<polygon fill="midnightblue" stroke="midnightblue" points="168.66,-348.26 177.62,-342.59 167.08,-341.44 168.66,-348.26"/>
</g>
<!-- Node9 -->
<g id="node9" class="node">
<title>Node9</title>
<g id="a_node9"><a xlink:href="../../de/d83/classGSDUtil.html#a86d2352b694afc6a0c938a13b3acec9d" target="_top" xlink:title=" ">
<polygon fill="none" stroke="black" points="336.5,-209.5 336.5,-228.5 443.5,-228.5 443.5,-209.5 336.5,-209.5"/>
<text text-anchor="middle" x="390" y="-216.5" font-family="Helvetica,sans-Serif" font-size="10.00">GSDUtil::readChunk</text>
</a>
</g>
</g>
<!-- Node8&#45;&gt;Node9 -->
<g id="edge10" class="edge">
<title>Node8&#45;&gt;Node9</title>
<path fill="none" stroke="midnightblue" d="M511.69,-192.57C487.02,-197.97 458,-204.33 434.6,-209.45"/>
<polygon fill="midnightblue" stroke="midnightblue" points="512.59,-195.95 521.61,-190.39 511.1,-189.11 512.59,-195.95"/>
</g>
<!-- Node10 -->
<g id="node10" class="node">
<title>Node10</title>
<g id="a_node10"><a xlink:href="../../de/d83/classGSDUtil.html#a2015dcdcdb33be9106f5c8f45f8564cc" target="_top" xlink:title=" ">
<polygon fill="none" stroke="black" points="164.5,-285.5 164.5,-304.5 275.5,-304.5 275.5,-285.5 164.5,-285.5"/>
<text text-anchor="middle" x="220" y="-292.5" font-family="Helvetica,sans-Serif" font-size="10.00">GSDUtil::readHeader</text>
</a>
</g>
</g>
<!-- Node9&#45;&gt;Node10 -->
<g id="edge11" class="edge">
<title>Node9&#45;&gt;Node10</title>
<path fill="none" stroke="midnightblue" d="M367.98,-234.45C349.75,-247.2 322.24,-264.94 296,-276 287.09,-279.76 277.26,-282.9 267.73,-285.49"/>
<polygon fill="midnightblue" stroke="midnightblue" points="370.02,-237.29 376.13,-228.64 365.96,-231.59 370.02,-237.29"/>
</g>
<!-- Node12 -->
<g id="node12" class="node">
<title>Node12</title>
<g id="a_node12"><a xlink:href="../../de/d83/classGSDUtil.html#a31f9c7368ebd89c6293d9d9d83598e62" target="_top" xlink:title=" ">
<polygon fill="none" stroke="black" points="155,-247.5 155,-266.5 285,-266.5 285,-247.5 155,-247.5"/>
<text text-anchor="middle" x="220" y="-254.5" font-family="Helvetica,sans-Serif" font-size="10.00">GSDUtil::readParameters</text>
</a>
</g>
</g>
<!-- Node9&#45;&gt;Node12 -->
<g id="edge13" class="edge">
<title>Node9&#45;&gt;Node12</title>
<path fill="none" stroke="midnightblue" d="M336.72,-230.82C313.04,-236.18 285.41,-242.43 263.09,-247.48"/>
<polygon fill="midnightblue" stroke="midnightblue" points="337.63,-234.21 346.61,-228.59 336.08,-227.38 337.63,-234.21"/>
</g>
<!-- Node13 -->
<g id="node13" class="node">
<title>Node13</title>
<g id="a_node13"><a xlink:href="../../de/d83/classGSDUtil.html#ad404c3879fb81c0b73b2335ea6e4676a" target="_top" xlink:title=" ">
<polygon fill="none" stroke="black" points="161.5,-209.5 161.5,-228.5 278.5,-228.5 278.5,-209.5 161.5,-209.5"/>
<text text-anchor="middle" x="220" y="-216.5" font-family="Helvetica,sans-Serif" font-size="10.00">GSDUtil::readParticles</text>
</a>
</g>
</g>
<!-- Node9&#45;&gt;Node13 -->
<g id="edge15" class="edge">
<title>Node9&#45;&gt;Node13</title>
<path fill="none" stroke="midnightblue" d="M326.25,-219C310.68,-219 294.07,-219 278.76,-219"/>
<polygon fill="midnightblue" stroke="midnightblue" points="326.3,-222.5 336.3,-219 326.3,-215.5 326.3,-222.5"/>
</g>
<!-- Node14 -->
<g id="node14" class="node">
<title>Node14</title>
<g id="a_node14"><a xlink:href="../../de/d83/classGSDUtil.html#a278d1db9ece12bdc1268780313d83daf" target="_top" xlink:title=" ">
<polygon fill="none" stroke="black" points="144,-171.5 144,-190.5 296,-190.5 296,-171.5 144,-171.5"/>
<text text-anchor="middle" x="220" y="-178.5" font-family="Helvetica,sans-Serif" font-size="10.00">GSDUtil::readSystemSpecifics</text>
</a>
</g>
</g>
<!-- Node9&#45;&gt;Node14 -->
<g id="edge17" class="edge">
<title>Node9&#45;&gt;Node14</title>
<path fill="none" stroke="midnightblue" d="M336.72,-207.18C313.04,-201.82 285.41,-195.57 263.09,-190.52"/>
<polygon fill="midnightblue" stroke="midnightblue" points="336.08,-210.62 346.61,-209.41 337.63,-203.79 336.08,-210.62"/>
</g>
<!-- Node11 -->
<g id="node11" class="node">
<title>Node11</title>
<g id="a_node11"><a xlink:href="../../de/d83/classGSDUtil.html#a2567bdb7f5952a76984552e0591fa330" target="_top" xlink:title=" ">
<polygon fill="none" stroke="black" points="7,-209.5 7,-228.5 101,-228.5 101,-209.5 7,-209.5"/>
<text text-anchor="middle" x="54" y="-216.5" font-family="Helvetica,sans-Serif" font-size="10.00">GSDUtil::GSDUtil</text>
</a>
</g>
</g>
<!-- Node10&#45;&gt;Node11 -->
<g id="edge12" class="edge">
<title>Node10&#45;&gt;Node11</title>
<path fill="none" stroke="midnightblue" d="M161.81,-282.57C155.71,-280.64 149.66,-278.45 144,-276 114.54,-263.23 83.77,-241.29 67.24,-228.67"/>
<polygon fill="midnightblue" stroke="midnightblue" points="160.84,-285.93 171.42,-285.41 162.82,-279.22 160.84,-285.93"/>
</g>
<!-- Node12&#45;&gt;Node11 -->
<g id="edge14" class="edge">
<title>Node12&#45;&gt;Node11</title>
<path fill="none" stroke="midnightblue" d="M167.66,-245.1C144.61,-239.76 117.78,-233.55 96.09,-228.52"/>
<polygon fill="midnightblue" stroke="midnightblue" points="167.08,-248.56 177.62,-247.41 168.66,-241.74 167.08,-248.56"/>
</g>
<!-- Node13&#45;&gt;Node11 -->
<g id="edge16" class="edge">
<title>Node13&#45;&gt;Node11</title>
<path fill="none" stroke="midnightblue" d="M150.9,-219C134.18,-219 116.66,-219 101.24,-219"/>
<polygon fill="midnightblue" stroke="midnightblue" points="151.18,-222.5 161.18,-219 151.18,-215.5 151.18,-222.5"/>
</g>
<!-- Node14&#45;&gt;Node11 -->
<g id="edge18" class="edge">
<title>Node14&#45;&gt;Node11</title>
<path fill="none" stroke="midnightblue" d="M167.66,-192.9C144.61,-198.24 117.78,-204.45 96.09,-209.48"/>
<polygon fill="midnightblue" stroke="midnightblue" points="168.66,-196.26 177.62,-190.59 167.08,-189.44 168.66,-196.26"/>
</g>
<!-- Node15&#45;&gt;Node16 -->
<g id="edge20" class="edge">
<title>Node15&#45;&gt;Node16</title>
<path fill="none" stroke="midnightblue" d="M473.7,-10C457.41,-10 441.31,-10 427.71,-10"/>
<polygon fill="midnightblue" stroke="midnightblue" points="473.85,-13.5 483.85,-10 473.85,-6.5 473.85,-13.5"/>
</g>
<!-- Node18 -->
<g id="node18" class="node">
<title>Node18</title>
<g id="a_node18"><a xlink:href="../../dc/dcb/gsd_8c.html#a58654880dd98b2bc32e429810b7d2623" target="_top" xlink:title=" ">
<polygon fill="none" stroke="black" points="357,-38.5 357,-57.5 423,-57.5 423,-38.5 357,-38.5"/>
<text text-anchor="middle" x="390" y="-45.5" font-family="Helvetica,sans-Serif" font-size="10.00">gsd_create</text>
</a>
</g>
</g>
<!-- Node17&#45;&gt;Node18 -->
<g id="edge22" class="edge">
<title>Node17&#45;&gt;Node18</title>
<path fill="none" stroke="midnightblue" d="M510.84,-74.25C482.17,-67.97 447.82,-60.45 423.27,-55.07"/>
<polygon fill="midnightblue" stroke="midnightblue" points="510.2,-77.69 520.72,-76.41 511.7,-70.85 510.2,-77.69"/>
</g>
<!-- Node19 -->
<g id="node19" class="node">
<title>Node19</title>
<g id="a_node19"><a xlink:href="../../dc/dcb/gsd_8c.html#aa0b0b7fb6b385707ffc83989d54bc81b" target="_top" xlink:title=" ">
<polygon fill="none" stroke="black" points="332,-76.5 332,-95.5 448,-95.5 448,-76.5 332,-76.5"/>
<text text-anchor="middle" x="390" y="-83.5" font-family="Helvetica,sans-Serif" font-size="10.00">gsd_create_and_open</text>
</a>
</g>
</g>
<!-- Node17&#45;&gt;Node19 -->
<g id="edge23" class="edge">
<title>Node17&#45;&gt;Node19</title>
<path fill="none" stroke="midnightblue" d="M509.12,-86C489.62,-86 467.67,-86 448.04,-86"/>
<polygon fill="midnightblue" stroke="midnightblue" points="509.37,-89.5 519.37,-86 509.37,-82.5 509.37,-89.5"/>
</g>
<!-- Node20 -->
<g id="node20" class="node">
<title>Node20</title>
<g id="a_node20"><a xlink:href="../../dc/dcb/gsd_8c.html#a02ac7984034069d508b1c7ccbe702bac" target="_top" xlink:title=" ">
<polygon fill="none" stroke="black" points="353,-114.5 353,-133.5 427,-133.5 427,-114.5 353,-114.5"/>
<text text-anchor="middle" x="390" y="-121.5" font-family="Helvetica,sans-Serif" font-size="10.00">gsd_truncate</text>
</a>
</g>
</g>
<!-- Node17&#45;&gt;Node20 -->
<g id="edge24" class="edge">
<title>Node17&#45;&gt;Node20</title>
<path fill="none" stroke="midnightblue" d="M510.59,-97.81C483.46,-103.75 451.29,-110.79 427.16,-116.08"/>
<polygon fill="midnightblue" stroke="midnightblue" points="511.7,-101.15 520.72,-95.59 510.2,-94.31 511.7,-101.15"/>
</g>
<!-- Node21 -->
<g id="node21" class="node">
<title>Node21</title>
<g id="a_node21"><a xlink:href="../../de/d83/classGSDUtil.html#a78b796cb5093b0aa6f5d2573658fcca1" target="_top" xlink:title=" ">
<polygon fill="none" stroke="black" points="162,-95.5 162,-114.5 278,-114.5 278,-95.5 162,-95.5"/>
<text text-anchor="middle" x="220" y="-102.5" font-family="Helvetica,sans-Serif" font-size="10.00">GSDUtil::truncateGSD</text>
</a>
</g>
</g>
<!-- Node20&#45;&gt;Node21 -->
<g id="edge25" class="edge">
<title>Node20&#45;&gt;Node21</title>
<path fill="none" stroke="midnightblue" d="M342.86,-118.78C322.86,-116.52 299.23,-113.85 278.13,-111.46"/>
<polygon fill="midnightblue" stroke="midnightblue" points="342.63,-122.28 352.96,-119.92 343.42,-115.32 342.63,-122.28"/>
</g>
<!-- Node22&#45;&gt;Node19 -->
<g id="edge27" class="edge">
<title>Node22&#45;&gt;Node19</title>
<path fill="none" stroke="midnightblue" d="M510.84,-112.25C486.31,-106.87 457.62,-100.59 434.47,-95.52"/>
<polygon fill="midnightblue" stroke="midnightblue" points="510.2,-115.69 520.72,-114.41 511.7,-108.85 510.2,-115.69"/>
</g>
<!-- Node22&#45;&gt;Node20 -->
<g id="edge30" class="edge">
<title>Node22&#45;&gt;Node20</title>
<path fill="none" stroke="midnightblue" d="M500.49,-124C475.72,-124 448.29,-124 427.08,-124"/>
<polygon fill="midnightblue" stroke="midnightblue" points="500.55,-127.5 510.55,-124 500.55,-120.5 500.55,-127.5"/>
</g>
<!-- Node23 -->
<g id="node23" class="node">
<title>Node23</title>
<g id="a_node23"><a xlink:href="../../dc/dcb/gsd_8c.html#ad8933dcce55fd8101b5688f382c10a8e" target="_top" xlink:title=" ">
<polygon fill="none" stroke="black" points="360,-152.5 360,-171.5 420,-171.5 420,-152.5 360,-152.5"/>
<text text-anchor="middle" x="390" y="-159.5" font-family="Helvetica,sans-Serif" font-size="10.00">gsd_open</text>
</a>
</g>
</g>
<!-- Node22&#45;&gt;Node23 -->
<g id="edge28" class="edge">
<title>Node22&#45;&gt;Node23</title>
<path fill="none" stroke="midnightblue" d="M510.83,-135.76C480.88,-142.31 444.76,-150.23 420.05,-155.64"/>
<polygon fill="midnightblue" stroke="midnightblue" points="511.7,-139.15 520.72,-133.59 510.2,-132.31 511.7,-139.15"/>
</g>
<!-- Node23&#45;&gt;Node11 -->
<g id="edge29" class="edge">
<title>Node23&#45;&gt;Node11</title>
<path fill="none" stroke="midnightblue" d="M350.07,-155.39C300.92,-148.53 214.31,-141.41 144,-162 112.3,-171.28 81.18,-195.69 65.49,-209.37"/>
<polygon fill="midnightblue" stroke="midnightblue" points="349.56,-158.85 359.97,-156.84 350.58,-151.93 349.56,-158.85"/>
</g>
</g>
</svg>
