<?xml version="1.0" encoding="UTF-8" standalone="no"?>
<!DOCTYPE svg PUBLIC "-//W3C//DTD SVG 1.1//EN"
 "http://www.w3.org/Graphics/SVG/1.1/DTD/svg11.dtd">
<!-- Generated by graphviz version 2.49.1 (20210923.0004)
 -->
<!-- Title: gsd_name_id_map_insert Pages: 1 -->
<svg width="748pt" height="180pt"
 viewBox="0.00 0.00 748.00 180.00" xmlns="http://www.w3.org/2000/svg" xmlns:xlink="http://www.w3.org/1999/xlink">
<g id="graph0" class="graph" transform="scale(1 1) rotate(0) translate(4 176)">
<title>gsd_name_id_map_insert</title>
<!-- Node1 -->
<g id="node1" class="node">
<title>Node1</title>
<g id="a_node1"><a xlink:title=" ">
<polygon fill="#bfbfbf" stroke="black" points="608,-76.5 608,-95.5 740,-95.5 740,-76.5 608,-76.5"/>
<text text-anchor="middle" x="674" y="-83.5" font-family="Helvetica,sans-Serif" font-size="10.00">gsd_name_id_map_insert</text>
</a>
</g>
</g>
<!-- Node2 -->
<g id="node2" class="node">
<title>Node2</title>
<g id="a_node2"><a xlink:href="../../dc/dcb/gsd_8c.html#aa1a0a7dcf4015edcadbb47a6451b4a4b" target="_top" xlink:title=" ">
<polygon fill="none" stroke="black" points="466.5,-104.5 466.5,-123.5 568.5,-123.5 568.5,-104.5 466.5,-104.5"/>
<text text-anchor="middle" x="517.5" y="-111.5" font-family="Helvetica,sans-Serif" font-size="10.00">gsd_append_name</text>
</a>
</g>
</g>
<!-- Node1&#45;&gt;Node2 -->
<g id="edge1" class="edge">
<title>Node1&#45;&gt;Node2</title>
<path fill="none" stroke="midnightblue" d="M610.31,-97.36C596.45,-99.87 581.94,-102.5 568.65,-104.91"/>
<polygon fill="midnightblue" stroke="midnightblue" points="611.05,-100.78 620.26,-95.56 609.8,-93.9 611.05,-100.78"/>
</g>
<!-- Node8 -->
<g id="node8" class="node">
<title>Node8</title>
<g id="a_node8"><a xlink:href="../../dc/dcb/gsd_8c.html#ac159dfbfd790607f85073ad2d8464a8b" target="_top" xlink:title=" ">
<polygon fill="none" stroke="black" points="463,-57.5 463,-76.5 572,-76.5 572,-57.5 463,-57.5"/>
<text text-anchor="middle" x="517.5" y="-64.5" font-family="Helvetica,sans-Serif" font-size="10.00">gsd_initialize_handle</text>
</a>
</g>
</g>
<!-- Node1&#45;&gt;Node8 -->
<g id="edge9" class="edge">
<title>Node1&#45;&gt;Node8</title>
<path fill="none" stroke="midnightblue" d="M597.84,-76.76C589.21,-75.7 580.55,-74.63 572.28,-73.61"/>
<polygon fill="midnightblue" stroke="midnightblue" points="597.57,-80.25 607.93,-78 598.43,-73.3 597.57,-80.25"/>
</g>
<!-- Node3 -->
<g id="node3" class="node">
<title>Node3</title>
<g id="a_node3"><a xlink:href="../../dc/dcb/gsd_8c.html#ae22447904b925f284bf987fae448488a" target="_top" xlink:title=" ">
<polygon fill="none" stroke="black" points="323,-114.5 323,-133.5 415,-133.5 415,-114.5 323,-114.5"/>
<text text-anchor="middle" x="369" y="-121.5" font-family="Helvetica,sans-Serif" font-size="10.00">gsd_write_chunk</text>
</a>
</g>
</g>
<!-- Node2&#45;&gt;Node3 -->
<g id="edge2" class="edge">
<title>Node2&#45;&gt;Node3</title>
<path fill="none" stroke="midnightblue" d="M456.2,-118.12C442.55,-119.05 428.27,-120.02 415.36,-120.9"/>
<polygon fill="midnightblue" stroke="midnightblue" points="456.75,-121.59 466.49,-117.41 456.28,-114.6 456.75,-121.59"/>
</g>
<!-- Node4 -->
<g id="node4" class="node">
<title>Node4</title>
<g id="a_node4"><a xlink:href="../../de/d83/classGSDUtil.html#a77b5ebe2817ac868ad1b171f3d7b0cae" target="_top" xlink:title=" ">
<polygon fill="none" stroke="black" points="153.5,-152.5 153.5,-171.5 265.5,-171.5 265.5,-152.5 153.5,-152.5"/>
<text text-anchor="middle" x="209.5" y="-159.5" font-family="Helvetica,sans-Serif" font-size="10.00">GSDUtil::writeHeader</text>
</a>
</g>
</g>
<!-- Node3&#45;&gt;Node4 -->
<g id="edge3" class="edge">
<title>Node3&#45;&gt;Node4</title>
<path fill="none" stroke="midnightblue" d="M318.4,-135.97C296.32,-141.29 270.7,-147.48 249.96,-152.48"/>
<polygon fill="midnightblue" stroke="midnightblue" points="319.36,-139.34 328.26,-133.59 317.71,-132.53 319.36,-139.34"/>
</g>
<!-- Node6 -->
<g id="node6" class="node">
<title>Node6</title>
<g id="a_node6"><a xlink:href="../../de/d83/classGSDUtil.html#aa0dc50cd5e5534260375ad4962511cf0" target="_top" xlink:title=" ">
<polygon fill="none" stroke="black" points="144,-114.5 144,-133.5 275,-133.5 275,-114.5 144,-114.5"/>
<text text-anchor="middle" x="209.5" y="-121.5" font-family="Helvetica,sans-Serif" font-size="10.00">GSDUtil::writeParameters</text>
</a>
</g>
</g>
<!-- Node3&#45;&gt;Node6 -->
<g id="edge5" class="edge">
<title>Node3&#45;&gt;Node6</title>
<path fill="none" stroke="midnightblue" d="M312.83,-124C300.61,-124 287.56,-124 275.01,-124"/>
<polygon fill="midnightblue" stroke="midnightblue" points="312.87,-127.5 322.87,-124 312.87,-120.5 312.87,-127.5"/>
</g>
<!-- Node7 -->
<g id="node7" class="node">
<title>Node7</title>
<g id="a_node7"><a xlink:href="../../de/d83/classGSDUtil.html#a9464315a26a5d5e2c51bb2b4df5ee373" target="_top" xlink:title=" ">
<polygon fill="none" stroke="black" points="150.5,-76.5 150.5,-95.5 268.5,-95.5 268.5,-76.5 150.5,-76.5"/>
<text text-anchor="middle" x="209.5" y="-83.5" font-family="Helvetica,sans-Serif" font-size="10.00">GSDUtil::writeParticles</text>
</a>
</g>
</g>
<!-- Node3&#45;&gt;Node7 -->
<g id="edge7" class="edge">
<title>Node3&#45;&gt;Node7</title>
<path fill="none" stroke="midnightblue" d="M318.4,-112.03C296.32,-106.71 270.7,-100.52 249.96,-95.52"/>
<polygon fill="midnightblue" stroke="midnightblue" points="317.71,-115.47 328.26,-114.41 319.36,-108.66 317.71,-115.47"/>
</g>
<!-- Node5 -->
<g id="node5" class="node">
<title>Node5</title>
<g id="a_node5"><a xlink:href="../../de/d83/classGSDUtil.html#ae76e4a23f0fe0bca3cd44137b56b816b" target="_top" xlink:title=" ">
<polygon fill="none" stroke="black" points="0,-114.5 0,-133.5 108,-133.5 108,-114.5 0,-114.5"/>
<text text-anchor="middle" x="54" y="-121.5" font-family="Helvetica,sans-Serif" font-size="10.00">GSDUtil::writeFrame</text>
</a>
</g>
</g>
<!-- Node4&#45;&gt;Node5 -->
<g id="edge4" class="edge">
<title>Node4&#45;&gt;Node5</title>
<path fill="none" stroke="midnightblue" d="M159.86,-149.96C138.42,-144.65 113.58,-138.5 93.46,-133.52"/>
<polygon fill="midnightblue" stroke="midnightblue" points="159.22,-153.41 169.77,-152.41 160.9,-146.61 159.22,-153.41"/>
</g>
<!-- Node6&#45;&gt;Node5 -->
<g id="edge6" class="edge">
<title>Node6&#45;&gt;Node5</title>
<path fill="none" stroke="midnightblue" d="M133.82,-124C125.25,-124 116.64,-124 108.43,-124"/>
<polygon fill="midnightblue" stroke="midnightblue" points="133.85,-127.5 143.85,-124 133.85,-120.5 133.85,-127.5"/>
</g>
<!-- Node7&#45;&gt;Node5 -->
<g id="edge8" class="edge">
<title>Node7&#45;&gt;Node5</title>
<path fill="none" stroke="midnightblue" d="M159.86,-98.04C138.42,-103.35 113.58,-109.5 93.46,-114.48"/>
<polygon fill="midnightblue" stroke="midnightblue" points="160.9,-101.39 169.77,-95.59 159.22,-94.59 160.9,-101.39"/>
</g>
<!-- Node9 -->
<g id="node9" class="node">
<title>Node9</title>
<g id="a_node9"><a xlink:href="../../dc/dcb/gsd_8c.html#aa0b0b7fb6b385707ffc83989d54bc81b" target="_top" xlink:title=" ">
<polygon fill="none" stroke="black" points="311,-76.5 311,-95.5 427,-95.5 427,-76.5 311,-76.5"/>
<text text-anchor="middle" x="369" y="-83.5" font-family="Helvetica,sans-Serif" font-size="10.00">gsd_create_and_open</text>
</a>
</g>
</g>
<!-- Node8&#45;&gt;Node9 -->
<g id="edge10" class="edge">
<title>Node8&#45;&gt;Node9</title>
<path fill="none" stroke="midnightblue" d="M452.86,-75.25C444.31,-76.36 435.59,-77.49 427.16,-78.59"/>
<polygon fill="midnightblue" stroke="midnightblue" points="453.31,-78.72 462.78,-73.97 452.41,-71.78 453.31,-78.72"/>
</g>
<!-- Node10 -->
<g id="node10" class="node">
<title>Node10</title>
<g id="a_node10"><a xlink:href="../../dc/dcb/gsd_8c.html#ad8933dcce55fd8101b5688f382c10a8e" target="_top" xlink:title=" ">
<polygon fill="none" stroke="black" points="339,-38.5 339,-57.5 399,-57.5 399,-38.5 339,-38.5"/>
<text text-anchor="middle" x="369" y="-45.5" font-family="Helvetica,sans-Serif" font-size="10.00">gsd_open</text>
</a>
</g>
</g>
<!-- Node8&#45;&gt;Node10 -->
<g id="edge11" class="edge">
<title>Node8&#45;&gt;Node10</title>
<path fill="none" stroke="midnightblue" d="M452.79,-58.74C434.05,-56.31 414.46,-53.77 399.04,-51.77"/>
<polygon fill="midnightblue" stroke="midnightblue" points="452.41,-62.22 462.78,-60.03 453.31,-55.28 452.41,-62.22"/>
</g>
<!-- Node12 -->
<g id="node12" class="node">
<title>Node12</title>
<g id="a_node12"><a xlink:href="../../dc/dcb/gsd_8c.html#a02ac7984034069d508b1c7ccbe702bac" target="_top" xlink:title=" ">
<polygon fill="none" stroke="black" points="332,-0.5 332,-19.5 406,-19.5 406,-0.5 332,-0.5"/>
<text text-anchor="middle" x="369" y="-7.5" font-family="Helvetica,sans-Serif" font-size="10.00">gsd_truncate</text>
</a>
</g>
</g>
<!-- Node8&#45;&gt;Node12 -->
<g id="edge13" class="edge">
<title>Node8&#45;&gt;Node12</title>
<path fill="none" stroke="midnightblue" d="M485.84,-53.27C468.67,-45.76 446.8,-36.49 427,-29 418.32,-25.72 408.78,-22.42 400.04,-19.51"/>
<polygon fill="midnightblue" stroke="midnightblue" points="484.79,-56.63 495.35,-57.46 487.61,-50.22 484.79,-56.63"/>
</g>
<!-- Node11 -->
<g id="node11" class="node">
<title>Node11</title>
<g id="a_node11"><a xlink:href="../../de/d83/classGSDUtil.html#a2567bdb7f5952a76984552e0591fa330" target="_top" xlink:title=" ">
<polygon fill="none" stroke="black" points="162.5,-38.5 162.5,-57.5 256.5,-57.5 256.5,-38.5 162.5,-38.5"/>
<text text-anchor="middle" x="209.5" y="-45.5" font-family="Helvetica,sans-Serif" font-size="10.00">GSDUtil::GSDUtil</text>
</a>
</g>
</g>
<!-- Node10&#45;&gt;Node11 -->
<g id="edge12" class="edge">
<title>Node10&#45;&gt;Node11</title>
<path fill="none" stroke="midnightblue" d="M328.5,-48C306.67,-48 279.42,-48 256.62,-48"/>
<polygon fill="midnightblue" stroke="midnightblue" points="328.74,-51.5 338.74,-48 328.74,-44.5 328.74,-51.5"/>
</g>
<!-- Node13 -->
<g id="node13" class="node">
<title>Node13</title>
<g id="a_node13"><a xlink:href="../../de/d83/classGSDUtil.html#a78b796cb5093b0aa6f5d2573658fcca1" target="_top" xlink:title=" ">
<polygon fill="none" stroke="black" points="151.5,-0.5 151.5,-19.5 267.5,-19.5 267.5,-0.5 151.5,-0.5"/>
<text text-anchor="middle" x="209.5" y="-7.5" font-family="Helvetica,sans-Serif" font-size="10.00">GSDUtil::truncateGSD</text>
</a>
</g>
</g>
<!-- Node12&#45;&gt;Node13 -->
<g id="edge14" class="edge">
<title>Node12&#45;&gt;Node13</title>
<path fill="none" stroke="midnightblue" d="M321.7,-10C304.8,-10 285.5,-10 267.76,-10"/>
<polygon fill="midnightblue" stroke="midnightblue" points="321.87,-13.5 331.87,-10 321.87,-6.5 321.87,-13.5"/>
</g>
</g>
</svg>
