<?xml version="1.0" encoding="UTF-8" standalone="no"?>
<!DOCTYPE svg PUBLIC "-//W3C//DTD SVG 1.1//EN"
 "http://www.w3.org/Graphics/SVG/1.1/DTD/svg11.dtd">
<!-- Generated by graphviz version 2.49.1 (20210923.0004)
 -->
<!-- Title: gsd_util_zero_memory Pages: 1 -->
<svg width="926pt" height="462pt"
 viewBox="0.00 0.00 926.00 462.08" xmlns="http://www.w3.org/2000/svg" xmlns:xlink="http://www.w3.org/1999/xlink">
<g id="graph0" class="graph" transform="scale(1 1) rotate(0) translate(4 458.08)">
<title>gsd_util_zero_memory</title>
<!-- Node1 -->
<g id="node1" class="node">
<title>Node1</title>
<g id="a_node1"><a xlink:title=" ">
<polygon fill="#bfbfbf" stroke="black" points="800,-190.5 800,-209.5 918,-209.5 918,-190.5 800,-190.5"/>
<text text-anchor="middle" x="859" y="-197.5" font-family="Helvetica,sans-Serif" font-size="10.00">gsd_util_zero_memory</text>
</a>
</g>
</g>
<!-- Node2 -->
<g id="node2" class="node">
<title>Node2</title>
<g id="a_node2"><a xlink:href="../../dc/dcb/gsd_8c.html#a7a717f9dafe011e68434e181c76253af" target="_top" xlink:title=" ">
<polygon fill="none" stroke="black" points="637,-304.5 637,-323.5 764,-323.5 764,-304.5 637,-304.5"/>
<text text-anchor="middle" x="700.5" y="-311.5" font-family="Helvetica,sans-Serif" font-size="10.00">gsd_byte_buffer_append</text>
</a>
</g>
</g>
<!-- Node1&#45;&gt;Node2 -->
<g id="edge1" class="edge">
<title>Node1&#45;&gt;Node2</title>
<path fill="none" stroke="midnightblue" d="M843.68,-217.39C826.52,-237.27 796.06,-269.67 764,-290 754.67,-295.91 743.66,-300.74 733.5,-304.48"/>
<polygon fill="midnightblue" stroke="midnightblue" points="846.39,-219.6 850.18,-209.71 841.05,-215.08 846.39,-219.6"/>
</g>
<!-- Node4 -->
<g id="node4" class="node">
<title>Node4</title>
<g id="a_node4"><a xlink:href="../../dc/dcb/gsd_8c.html#ae22447904b925f284bf987fae448488a" target="_top" xlink:title=" ">
<polygon fill="none" stroke="black" points="331.5,-375.5 331.5,-394.5 423.5,-394.5 423.5,-375.5 331.5,-375.5"/>
<text text-anchor="middle" x="377.5" y="-382.5" font-family="Helvetica,sans-Serif" font-size="10.00">gsd_write_chunk</text>
</a>
</g>
</g>
<!-- Node1&#45;&gt;Node4 -->
<g id="edge42" class="edge">
<title>Node1&#45;&gt;Node4</title>
<path fill="none" stroke="midnightblue" d="M855.64,-219.74C849.39,-262.36 828.23,-362.86 764,-409 661.33,-482.76 604.2,-448.59 480,-425 449.48,-419.2 416.41,-404.42 396.58,-394.54"/>
<polygon fill="midnightblue" stroke="midnightblue" points="859.14,-219.94 857,-209.57 852.2,-219.01 859.14,-219.94"/>
</g>
<!-- Node9 -->
<g id="node9" class="node">
<title>Node9</title>
<g id="a_node9"><a xlink:href="../../dc/dcb/gsd_8c.html#ab147cf4d77c10fd8085e5023e9afe55f" target="_top" xlink:title=" ">
<polygon fill="none" stroke="black" points="480,-266.5 480,-285.5 601,-285.5 601,-266.5 480,-266.5"/>
<text text-anchor="middle" x="540.5" y="-273.5" font-family="Helvetica,sans-Serif" font-size="10.00">gsd_flush_name_buffer</text>
</a>
</g>
</g>
<!-- Node1&#45;&gt;Node9 -->
<g id="edge24" class="edge">
<title>Node1&#45;&gt;Node9</title>
<path fill="none" stroke="midnightblue" d="M826.14,-213.44C808.15,-220.63 785.1,-229.17 764,-235 709.67,-250 646.33,-261.06 601.16,-267.89"/>
<polygon fill="midnightblue" stroke="midnightblue" points="827.62,-216.62 835.57,-209.61 824.99,-210.13 827.62,-216.62"/>
</g>
<!-- Node11 -->
<g id="node11" class="node">
<title>Node11</title>
<g id="a_node11"><a xlink:href="../../dc/dcb/gsd_8c.html#adb92d5142812c19bf4ee33cbde439131" target="_top" xlink:title=" ">
<polygon fill="none" stroke="black" points="503,-190.5 503,-209.5 578,-209.5 578,-190.5 503,-190.5"/>
<text text-anchor="middle" x="540.5" y="-197.5" font-family="Helvetica,sans-Serif" font-size="10.00">gsd_upgrade</text>
</a>
</g>
</g>
<!-- Node1&#45;&gt;Node11 -->
<g id="edge41" class="edge">
<title>Node1&#45;&gt;Node11</title>
<path fill="none" stroke="midnightblue" d="M789.83,-200C725.07,-200 630.13,-200 578.42,-200"/>
<polygon fill="midnightblue" stroke="midnightblue" points="789.95,-203.5 799.95,-200 789.95,-196.5 789.95,-203.5"/>
</g>
<!-- Node12 -->
<g id="node12" class="node">
<title>Node12</title>
<g id="a_node12"><a xlink:href="../../dc/dcb/gsd_8c.html#ae50726c30c5bf629b6af1ef88020302f" target="_top" xlink:title=" ">
<polygon fill="none" stroke="black" points="645,-114.5 645,-133.5 756,-133.5 756,-114.5 645,-114.5"/>
<text text-anchor="middle" x="700.5" y="-121.5" font-family="Helvetica,sans-Serif" font-size="10.00">gsd_byte_buffer_free</text>
</a>
</g>
</g>
<!-- Node1&#45;&gt;Node12 -->
<g id="edge15" class="edge">
<title>Node1&#45;&gt;Node12</title>
<path fill="none" stroke="midnightblue" d="M836.27,-184.66C817.74,-172.13 790.06,-154.64 764,-143 755.92,-139.39 746.97,-136.22 738.41,-133.55"/>
<polygon fill="midnightblue" stroke="midnightblue" points="834.35,-187.59 844.58,-190.37 838.32,-181.82 834.35,-187.59"/>
</g>
<!-- Node17 -->
<g id="node17" class="node">
<title>Node17</title>
<g id="a_node17"><a xlink:href="../../dc/dcb/gsd_8c.html#aa0b0b7fb6b385707ffc83989d54bc81b" target="_top" xlink:title=" ">
<polygon fill="none" stroke="black" points="482.5,-38.5 482.5,-57.5 598.5,-57.5 598.5,-38.5 482.5,-38.5"/>
<text text-anchor="middle" x="540.5" y="-45.5" font-family="Helvetica,sans-Serif" font-size="10.00">gsd_create_and_open</text>
</a>
</g>
</g>
<!-- Node1&#45;&gt;Node17 -->
<g id="edge21" class="edge">
<title>Node1&#45;&gt;Node17</title>
<path fill="none" stroke="midnightblue" d="M850.83,-181.07C838.32,-150.99 809.43,-93.03 764,-67 713.71,-38.18 646.28,-36.54 598.87,-40.17"/>
<polygon fill="midnightblue" stroke="midnightblue" points="847.61,-182.45 854.57,-190.45 854.11,-179.86 847.61,-182.45"/>
</g>
<!-- Node18 -->
<g id="node18" class="node">
<title>Node18</title>
<g id="a_node18"><a xlink:href="../../dc/dcb/gsd_8c.html#ae6dddb94661e99e54f6c01b1a443e27f" target="_top" xlink:title=" ">
<polygon fill="none" stroke="black" points="481,-228.5 481,-247.5 600,-247.5 600,-228.5 481,-228.5"/>
<text text-anchor="middle" x="540.5" y="-235.5" font-family="Helvetica,sans-Serif" font-size="10.00">gsd_expand_file_index</text>
</a>
</g>
</g>
<!-- Node1&#45;&gt;Node18 -->
<g id="edge22" class="edge">
<title>Node1&#45;&gt;Node18</title>
<path fill="none" stroke="midnightblue" d="M789.78,-210.49C781.11,-211.73 772.35,-212.93 764,-214 708.51,-221.12 645.04,-227.83 600.13,-232.33"/>
<polygon fill="midnightblue" stroke="midnightblue" points="790.49,-213.93 799.88,-209.03 789.49,-207 790.49,-213.93"/>
</g>
<!-- Node19 -->
<g id="node19" class="node">
<title>Node19</title>
<g id="a_node19"><a xlink:href="../../dc/dcb/gsd_8c.html#a258b64725f90f60d969752d65fba9850" target="_top" xlink:title=" ">
<polygon fill="none" stroke="black" points="643,-380.5 643,-399.5 758,-399.5 758,-380.5 643,-380.5"/>
<text text-anchor="middle" x="700.5" y="-387.5" font-family="Helvetica,sans-Serif" font-size="10.00">gsd_index_buffer_add</text>
</a>
</g>
</g>
<!-- Node1&#45;&gt;Node19 -->
<g id="edge25" class="edge">
<title>Node1&#45;&gt;Node19</title>
<path fill="none" stroke="midnightblue" d="M846.95,-218.16C830.44,-244.65 797.67,-294.87 764,-333 748.06,-351.05 726.89,-369.37 713.74,-380.2"/>
<polygon fill="midnightblue" stroke="midnightblue" points="849.99,-219.89 852.26,-209.54 844.03,-216.21 849.99,-219.89"/>
</g>
<!-- Node21 -->
<g id="node21" class="node">
<title>Node21</title>
<g id="a_node21"><a xlink:href="../../dc/dcb/gsd_8c.html#a9e12a38df69cf73fa771b005748cb3e5" target="_top" xlink:title=" ">
<polygon fill="none" stroke="black" points="642.5,-152.5 642.5,-171.5 758.5,-171.5 758.5,-152.5 642.5,-152.5"/>
<text text-anchor="middle" x="700.5" y="-159.5" font-family="Helvetica,sans-Serif" font-size="10.00">gsd_index_buffer_free</text>
</a>
</g>
</g>
<!-- Node1&#45;&gt;Node21 -->
<g id="edge30" class="edge">
<title>Node1&#45;&gt;Node21</title>
<path fill="none" stroke="midnightblue" d="M808.71,-188.03C786.78,-182.71 761.32,-176.52 740.71,-171.52"/>
<polygon fill="midnightblue" stroke="midnightblue" points="807.96,-191.45 818.51,-190.41 809.62,-184.65 807.96,-191.45"/>
</g>
<!-- Node22 -->
<g id="node22" class="node">
<title>Node22</title>
<g id="a_node22"><a xlink:href="../../dc/dcb/gsd_8c.html#acb769baf09c31a5ad6cba95bd348c194" target="_top" xlink:title=" ">
<polygon fill="none" stroke="black" points="654.5,-76.5 654.5,-95.5 746.5,-95.5 746.5,-76.5 654.5,-76.5"/>
<text text-anchor="middle" x="700.5" y="-83.5" font-family="Helvetica,sans-Serif" font-size="10.00">gsd_initialize_file</text>
</a>
</g>
</g>
<!-- Node1&#45;&gt;Node22 -->
<g id="edge35" class="edge">
<title>Node1&#45;&gt;Node22</title>
<path fill="none" stroke="midnightblue" d="M844.92,-182.17C828.37,-160.84 797.9,-125.45 764,-105 757.69,-101.19 750.55,-98.09 743.42,-95.59"/>
<polygon fill="midnightblue" stroke="midnightblue" points="842.3,-184.51 851.13,-190.37 847.88,-180.29 842.3,-184.51"/>
</g>
<!-- Node24 -->
<g id="node24" class="node">
<title>Node24</title>
<g id="a_node24"><a xlink:href="../../dc/dcb/gsd_8c.html#ad8933dcce55fd8101b5688f382c10a8e" target="_top" xlink:title=" ">
<polygon fill="none" stroke="black" points="670.5,-0.5 670.5,-19.5 730.5,-19.5 730.5,-0.5 670.5,-0.5"/>
<text text-anchor="middle" x="700.5" y="-7.5" font-family="Helvetica,sans-Serif" font-size="10.00">gsd_open</text>
</a>
</g>
</g>
<!-- Node1&#45;&gt;Node24 -->
<g id="edge39" class="edge">
<title>Node1&#45;&gt;Node24</title>
<path fill="none" stroke="midnightblue" d="M851.89,-180.5C840.21,-146.23 811.55,-74.96 764,-34 754.58,-25.88 742.11,-20.36 730.8,-16.68"/>
<polygon fill="midnightblue" stroke="midnightblue" points="848.64,-181.84 855.09,-190.24 855.29,-179.65 848.64,-181.84"/>
</g>
<!-- Node3 -->
<g id="node3" class="node">
<title>Node3</title>
<g id="a_node3"><a xlink:href="../../dc/dcb/gsd_8c.html#aa1a0a7dcf4015edcadbb47a6451b4a4b" target="_top" xlink:title=" ">
<polygon fill="none" stroke="black" points="489.5,-342.5 489.5,-361.5 591.5,-361.5 591.5,-342.5 489.5,-342.5"/>
<text text-anchor="middle" x="540.5" y="-349.5" font-family="Helvetica,sans-Serif" font-size="10.00">gsd_append_name</text>
</a>
</g>
</g>
<!-- Node2&#45;&gt;Node3 -->
<g id="edge2" class="edge">
<title>Node2&#45;&gt;Node3</title>
<path fill="none" stroke="midnightblue" d="M649.74,-325.97C627.6,-331.29 601.89,-337.48 581.08,-342.48"/>
<polygon fill="midnightblue" stroke="midnightblue" points="650.73,-329.33 659.63,-323.59 649.09,-322.52 650.73,-329.33"/>
</g>
<!-- Node2&#45;&gt;Node4 -->
<g id="edge14" class="edge">
<title>Node2&#45;&gt;Node4</title>
<path fill="none" stroke="midnightblue" d="M626.66,-313.31C583.31,-314.61 527.65,-319.3 480,-333 446.89,-342.52 411.9,-363.12 392.88,-375.34"/>
<polygon fill="midnightblue" stroke="midnightblue" points="626.93,-316.8 636.84,-313.06 626.76,-309.8 626.93,-316.8"/>
</g>
<!-- Node2&#45;&gt;Node9 -->
<g id="edge10" class="edge">
<title>Node2&#45;&gt;Node9</title>
<path fill="none" stroke="midnightblue" d="M649.74,-302.03C627.6,-296.71 601.89,-290.52 581.08,-285.52"/>
<polygon fill="midnightblue" stroke="midnightblue" points="649.09,-305.48 659.63,-304.41 650.73,-298.67 649.09,-305.48"/>
</g>
<!-- Node2&#45;&gt;Node11 -->
<g id="edge13" class="edge">
<title>Node2&#45;&gt;Node11</title>
<path fill="none" stroke="midnightblue" d="M685.79,-296.57C668.26,-275.38 635.96,-239.87 601,-219 594.02,-214.83 586.02,-211.47 578.2,-208.81"/>
<polygon fill="midnightblue" stroke="midnightblue" points="683.15,-298.87 692.16,-304.43 688.59,-294.46 683.15,-298.87"/>
</g>
<!-- Node3&#45;&gt;Node4 -->
<g id="edge3" class="edge">
<title>Node3&#45;&gt;Node4</title>
<path fill="none" stroke="midnightblue" d="M482.97,-363.59C463.51,-367.57 442,-371.98 423.58,-375.76"/>
<polygon fill="midnightblue" stroke="midnightblue" points="483.84,-366.98 492.93,-361.54 482.43,-360.12 483.84,-366.98"/>
</g>
<!-- Node5 -->
<g id="node5" class="node">
<title>Node5</title>
<g id="a_node5"><a xlink:href="../../de/d83/classGSDUtil.html#a77b5ebe2817ac868ad1b171f3d7b0cae" target="_top" xlink:title=" ">
<polygon fill="none" stroke="black" points="153.5,-394.5 153.5,-413.5 265.5,-413.5 265.5,-394.5 153.5,-394.5"/>
<text text-anchor="middle" x="209.5" y="-401.5" font-family="Helvetica,sans-Serif" font-size="10.00">GSDUtil::writeHeader</text>
</a>
</g>
</g>
<!-- Node4&#45;&gt;Node5 -->
<g id="edge4" class="edge">
<title>Node4&#45;&gt;Node5</title>
<path fill="none" stroke="midnightblue" d="M321.14,-391.34C303.25,-393.38 283.43,-395.65 265.56,-397.7"/>
<polygon fill="midnightblue" stroke="midnightblue" points="321.6,-394.81 331.14,-390.19 320.81,-387.85 321.6,-394.81"/>
</g>
<!-- Node7 -->
<g id="node7" class="node">
<title>Node7</title>
<g id="a_node7"><a xlink:href="../../de/d83/classGSDUtil.html#aa0dc50cd5e5534260375ad4962511cf0" target="_top" xlink:title=" ">
<polygon fill="none" stroke="black" points="144,-356.5 144,-375.5 275,-375.5 275,-356.5 144,-356.5"/>
<text text-anchor="middle" x="209.5" y="-363.5" font-family="Helvetica,sans-Serif" font-size="10.00">GSDUtil::writeParameters</text>
</a>
</g>
</g>
<!-- Node4&#45;&gt;Node7 -->
<g id="edge6" class="edge">
<title>Node4&#45;&gt;Node7</title>
<path fill="none" stroke="midnightblue" d="M321.16,-378.67C306.39,-376.98 290.31,-375.13 275.1,-373.39"/>
<polygon fill="midnightblue" stroke="midnightblue" points="320.81,-382.15 331.14,-379.81 321.6,-375.19 320.81,-382.15"/>
</g>
<!-- Node8 -->
<g id="node8" class="node">
<title>Node8</title>
<g id="a_node8"><a xlink:href="../../de/d83/classGSDUtil.html#a9464315a26a5d5e2c51bb2b4df5ee373" target="_top" xlink:title=" ">
<polygon fill="none" stroke="black" points="150.5,-318.5 150.5,-337.5 268.5,-337.5 268.5,-318.5 150.5,-318.5"/>
<text text-anchor="middle" x="209.5" y="-325.5" font-family="Helvetica,sans-Serif" font-size="10.00">GSDUtil::writeParticles</text>
</a>
</g>
</g>
<!-- Node4&#45;&gt;Node8 -->
<g id="edge8" class="edge">
<title>Node4&#45;&gt;Node8</title>
<path fill="none" stroke="midnightblue" d="M343.03,-371.78C323.35,-364.18 297.9,-354.65 275,-347 265.15,-343.71 254.35,-340.41 244.45,-337.51"/>
<polygon fill="midnightblue" stroke="midnightblue" points="341.89,-375.09 352.47,-375.45 344.42,-368.56 341.89,-375.09"/>
</g>
<!-- Node6 -->
<g id="node6" class="node">
<title>Node6</title>
<g id="a_node6"><a xlink:href="../../de/d83/classGSDUtil.html#ae76e4a23f0fe0bca3cd44137b56b816b" target="_top" xlink:title=" ">
<polygon fill="none" stroke="black" points="0,-337.5 0,-356.5 108,-356.5 108,-337.5 0,-337.5"/>
<text text-anchor="middle" x="54" y="-344.5" font-family="Helvetica,sans-Serif" font-size="10.00">GSDUtil::writeFrame</text>
</a>
</g>
</g>
<!-- Node5&#45;&gt;Node6 -->
<g id="edge5" class="edge">
<title>Node5&#45;&gt;Node6</title>
<path fill="none" stroke="midnightblue" d="M163.79,-391.57C157.12,-389.5 150.35,-387.28 144,-385 120.13,-376.42 93.45,-364.74 75.59,-356.6"/>
<polygon fill="midnightblue" stroke="midnightblue" points="162.86,-394.94 173.45,-394.48 164.88,-388.24 162.86,-394.94"/>
</g>
<!-- Node7&#45;&gt;Node6 -->
<g id="edge7" class="edge">
<title>Node7&#45;&gt;Node6</title>
<path fill="none" stroke="midnightblue" d="M133.82,-356.76C125.25,-355.7 116.64,-354.63 108.43,-353.61"/>
<polygon fill="midnightblue" stroke="midnightblue" points="133.49,-360.24 143.85,-358 134.35,-353.3 133.49,-360.24"/>
</g>
<!-- Node8&#45;&gt;Node6 -->
<g id="edge9" class="edge">
<title>Node8&#45;&gt;Node6</title>
<path fill="none" stroke="midnightblue" d="M140.23,-336.45C129.44,-337.79 118.43,-339.15 108.06,-340.43"/>
<polygon fill="midnightblue" stroke="midnightblue" points="140.97,-339.89 150.47,-335.18 140.11,-332.94 140.97,-339.89"/>
</g>
<!-- Node10 -->
<g id="node10" class="node">
<title>Node10</title>
<g id="a_node10"><a xlink:href="../../dc/dcb/gsd_8c.html#aa03810337c5eebcbe716d8633eaefc5e" target="_top" xlink:title=" ">
<polygon fill="none" stroke="black" points="334.5,-266.5 334.5,-285.5 420.5,-285.5 420.5,-266.5 334.5,-266.5"/>
<text text-anchor="middle" x="377.5" y="-273.5" font-family="Helvetica,sans-Serif" font-size="10.00">gsd_end_frame</text>
</a>
</g>
</g>
<!-- Node9&#45;&gt;Node10 -->
<g id="edge11" class="edge">
<title>Node9&#45;&gt;Node10</title>
<path fill="none" stroke="midnightblue" d="M469.37,-276C452.86,-276 435.76,-276 420.91,-276"/>
<polygon fill="midnightblue" stroke="midnightblue" points="469.55,-279.5 479.55,-276 469.55,-272.5 469.55,-279.5"/>
</g>
<!-- Node10&#45;&gt;Node6 -->
<g id="edge12" class="edge">
<title>Node10&#45;&gt;Node6</title>
<path fill="none" stroke="midnightblue" d="M324.16,-279.49C276.5,-283.58 204.55,-292.1 144,-309 118.76,-316.05 91.23,-328.62 73.58,-337.36"/>
<polygon fill="midnightblue" stroke="midnightblue" points="324.56,-282.96 334.24,-278.65 323.99,-275.99 324.56,-282.96"/>
</g>
<!-- Node12&#45;&gt;Node11 -->
<g id="edge20" class="edge">
<title>Node12&#45;&gt;Node11</title>
<path fill="none" stroke="midnightblue" d="M647.73,-137.36C644,-139.04 640.38,-140.91 637,-143 617.21,-155.23 620.7,-168.63 601,-181 594.02,-185.38 585.94,-188.84 578.03,-191.53"/>
<polygon fill="midnightblue" stroke="midnightblue" points="649.2,-140.55 657.18,-133.59 646.6,-134.05 649.2,-140.55"/>
</g>
<!-- Node13 -->
<g id="node13" class="node">
<title>Node13</title>
<g id="a_node13"><a xlink:href="../../dc/dcb/gsd_8c.html#a08b4f76e3e19eda194def8c0c4b2b7a3" target="_top" xlink:title=" ">
<polygon fill="none" stroke="black" points="509.5,-152.5 509.5,-171.5 571.5,-171.5 571.5,-152.5 509.5,-152.5"/>
<text text-anchor="middle" x="540.5" y="-159.5" font-family="Helvetica,sans-Serif" font-size="10.00">gsd_close</text>
</a>
</g>
</g>
<!-- Node12&#45;&gt;Node13 -->
<g id="edge16" class="edge">
<title>Node12&#45;&gt;Node13</title>
<path fill="none" stroke="midnightblue" d="M649.71,-135.98C624.08,-142.14 593.67,-149.45 571.63,-154.75"/>
<polygon fill="midnightblue" stroke="midnightblue" points="650.73,-139.33 659.63,-133.59 649.09,-132.52 650.73,-139.33"/>
</g>
<!-- Node15 -->
<g id="node15" class="node">
<title>Node15</title>
<g id="a_node15"><a xlink:href="../../dc/dcb/gsd_8c.html#a02ac7984034069d508b1c7ccbe702bac" target="_top" xlink:title=" ">
<polygon fill="none" stroke="black" points="503.5,-114.5 503.5,-133.5 577.5,-133.5 577.5,-114.5 503.5,-114.5"/>
<text text-anchor="middle" x="540.5" y="-121.5" font-family="Helvetica,sans-Serif" font-size="10.00">gsd_truncate</text>
</a>
</g>
</g>
<!-- Node12&#45;&gt;Node15 -->
<g id="edge18" class="edge">
<title>Node12&#45;&gt;Node15</title>
<path fill="none" stroke="midnightblue" d="M634.68,-124C615.3,-124 594.74,-124 577.88,-124"/>
<polygon fill="midnightblue" stroke="midnightblue" points="634.68,-127.5 644.68,-124 634.68,-120.5 634.68,-127.5"/>
</g>
<!-- Node14 -->
<g id="node14" class="node">
<title>Node14</title>
<g id="a_node14"><a xlink:href="../../d5/d67/classsystemData.html#a423b9bf369d6c53a27b64c9b56004810" target="_top" xlink:title=" ">
<polygon fill="none" stroke="black" points="311,-152.5 311,-171.5 444,-171.5 444,-152.5 311,-152.5"/>
<text text-anchor="middle" x="377.5" y="-159.5" font-family="Helvetica,sans-Serif" font-size="10.00">systemData::~systemData</text>
</a>
</g>
</g>
<!-- Node13&#45;&gt;Node14 -->
<g id="edge17" class="edge">
<title>Node13&#45;&gt;Node14</title>
<path fill="none" stroke="midnightblue" d="M498.83,-162C482.31,-162 462.79,-162 444.33,-162"/>
<polygon fill="midnightblue" stroke="midnightblue" points="499.22,-165.5 509.22,-162 499.22,-158.5 499.22,-165.5"/>
</g>
<!-- Node16 -->
<g id="node16" class="node">
<title>Node16</title>
<g id="a_node16"><a xlink:href="../../de/d83/classGSDUtil.html#a78b796cb5093b0aa6f5d2573658fcca1" target="_top" xlink:title=" ">
<polygon fill="none" stroke="black" points="319.5,-114.5 319.5,-133.5 435.5,-133.5 435.5,-114.5 319.5,-114.5"/>
<text text-anchor="middle" x="377.5" y="-121.5" font-family="Helvetica,sans-Serif" font-size="10.00">GSDUtil::truncateGSD</text>
</a>
</g>
</g>
<!-- Node15&#45;&gt;Node16 -->
<g id="edge19" class="edge">
<title>Node15&#45;&gt;Node16</title>
<path fill="none" stroke="midnightblue" d="M493.17,-124C475.24,-124 454.53,-124 435.68,-124"/>
<polygon fill="midnightblue" stroke="midnightblue" points="493.37,-127.5 503.37,-124 493.37,-120.5 493.37,-127.5"/>
</g>
<!-- Node18&#45;&gt;Node10 -->
<g id="edge23" class="edge">
<title>Node18&#45;&gt;Node10</title>
<path fill="none" stroke="midnightblue" d="M489.1,-249.9C466.47,-255.24 440.13,-261.45 418.83,-266.48"/>
<polygon fill="midnightblue" stroke="midnightblue" points="489.94,-253.29 498.87,-247.59 488.34,-246.48 489.94,-253.29"/>
</g>
<!-- Node19&#45;&gt;Node4 -->
<g id="edge29" class="edge">
<title>Node19&#45;&gt;Node4</title>
<path fill="none" stroke="midnightblue" d="M649.59,-401.54C634.11,-404.6 616.93,-407.48 601,-409 547.47,-414.12 533.42,-415.23 480,-409 456.44,-406.25 430.41,-400.03 410.61,-394.61"/>
<polygon fill="midnightblue" stroke="midnightblue" points="650.4,-404.95 659.5,-399.51 649,-398.09 650.4,-404.95"/>
</g>
<!-- Node20 -->
<g id="node20" class="node">
<title>Node20</title>
<g id="a_node20"><a xlink:href="../../dc/dcb/gsd_8c.html#a61daeaa70162e9bac3d241832b460278" target="_top" xlink:title=" ">
<polygon fill="none" stroke="black" points="482,-380.5 482,-399.5 599,-399.5 599,-380.5 482,-380.5"/>
<text text-anchor="middle" x="540.5" y="-387.5" font-family="Helvetica,sans-Serif" font-size="10.00">gsd_flush_write_buffer</text>
</a>
</g>
</g>
<!-- Node19&#45;&gt;Node20 -->
<g id="edge26" class="edge">
<title>Node19&#45;&gt;Node20</title>
<path fill="none" stroke="midnightblue" d="M632.73,-390C621.52,-390 609.98,-390 599.03,-390"/>
<polygon fill="midnightblue" stroke="midnightblue" points="632.9,-393.5 642.9,-390 632.9,-386.5 632.9,-393.5"/>
</g>
<!-- Node20&#45;&gt;Node4 -->
<g id="edge28" class="edge">
<title>Node20&#45;&gt;Node4</title>
<path fill="none" stroke="midnightblue" d="M471.83,-387.9C455.57,-387.39 438.6,-386.87 423.65,-386.4"/>
<polygon fill="midnightblue" stroke="midnightblue" points="471.73,-391.4 481.83,-388.21 471.94,-384.4 471.73,-391.4"/>
</g>
<!-- Node20&#45;&gt;Node10 -->
<g id="edge27" class="edge">
<title>Node20&#45;&gt;Node10</title>
<path fill="none" stroke="midnightblue" d="M491.53,-376.78C487.53,-375.05 483.63,-373.13 480,-371 439.41,-347.18 401.76,-304.53 386.13,-285.55"/>
<polygon fill="midnightblue" stroke="midnightblue" points="490.38,-380.09 500.97,-380.46 492.92,-373.57 490.38,-380.09"/>
</g>
<!-- Node21&#45;&gt;Node11 -->
<g id="edge34" class="edge">
<title>Node21&#45;&gt;Node11</title>
<path fill="none" stroke="midnightblue" d="M649.62,-174C626.44,-179.57 599.37,-186.08 578.11,-191.2"/>
<polygon fill="midnightblue" stroke="midnightblue" points="650.73,-177.33 659.63,-171.59 649.09,-170.52 650.73,-177.33"/>
</g>
<!-- Node21&#45;&gt;Node13 -->
<g id="edge31" class="edge">
<title>Node21&#45;&gt;Node13</title>
<path fill="none" stroke="midnightblue" d="M632.24,-162C611.2,-162 589.01,-162 571.85,-162"/>
<polygon fill="midnightblue" stroke="midnightblue" points="632.46,-165.5 642.46,-162 632.46,-158.5 632.46,-165.5"/>
</g>
<!-- Node21&#45;&gt;Node15 -->
<g id="edge33" class="edge">
<title>Node21&#45;&gt;Node15</title>
<path fill="none" stroke="midnightblue" d="M649.86,-150.06C626.43,-144.43 598.98,-137.83 577.58,-132.68"/>
<polygon fill="midnightblue" stroke="midnightblue" points="649.09,-153.48 659.63,-152.41 650.73,-146.67 649.09,-153.48"/>
</g>
<!-- Node21&#45;&gt;Node18 -->
<g id="edge32" class="edge">
<title>Node21&#45;&gt;Node18</title>
<path fill="none" stroke="midnightblue" d="M676.84,-177C657.34,-189.44 628.14,-206.98 601,-219 592.97,-222.56 584.06,-225.76 575.64,-228.49"/>
<polygon fill="midnightblue" stroke="midnightblue" points="678.83,-179.88 685.33,-171.51 675.03,-174 678.83,-179.88"/>
</g>
<!-- Node22&#45;&gt;Node15 -->
<g id="edge38" class="edge">
<title>Node22&#45;&gt;Node15</title>
<path fill="none" stroke="midnightblue" d="M649.86,-97.94C626.43,-103.57 598.98,-110.17 577.58,-115.32"/>
<polygon fill="midnightblue" stroke="midnightblue" points="650.73,-101.33 659.63,-95.59 649.09,-94.52 650.73,-101.33"/>
</g>
<!-- Node22&#45;&gt;Node17 -->
<g id="edge37" class="edge">
<title>Node22&#45;&gt;Node17</title>
<path fill="none" stroke="midnightblue" d="M649.74,-74.03C627.6,-68.71 601.89,-62.52 581.08,-57.52"/>
<polygon fill="midnightblue" stroke="midnightblue" points="649.09,-77.48 659.63,-76.41 650.73,-70.67 649.09,-77.48"/>
</g>
<!-- Node23 -->
<g id="node23" class="node">
<title>Node23</title>
<g id="a_node23"><a xlink:href="../../dc/dcb/gsd_8c.html#a58654880dd98b2bc32e429810b7d2623" target="_top" xlink:title=" ">
<polygon fill="none" stroke="black" points="507.5,-76.5 507.5,-95.5 573.5,-95.5 573.5,-76.5 507.5,-76.5"/>
<text text-anchor="middle" x="540.5" y="-83.5" font-family="Helvetica,sans-Serif" font-size="10.00">gsd_create</text>
</a>
</g>
</g>
<!-- Node22&#45;&gt;Node23 -->
<g id="edge36" class="edge">
<title>Node22&#45;&gt;Node23</title>
<path fill="none" stroke="midnightblue" d="M644.02,-86C620.51,-86 593.94,-86 573.74,-86"/>
<polygon fill="midnightblue" stroke="midnightblue" points="644.22,-89.5 654.22,-86 644.22,-82.5 644.22,-89.5"/>
</g>
<!-- Node25 -->
<g id="node25" class="node">
<title>Node25</title>
<g id="a_node25"><a xlink:href="../../de/d83/classGSDUtil.html#a2567bdb7f5952a76984552e0591fa330" target="_top" xlink:title=" ">
<polygon fill="none" stroke="black" points="493.5,-0.5 493.5,-19.5 587.5,-19.5 587.5,-0.5 493.5,-0.5"/>
<text text-anchor="middle" x="540.5" y="-7.5" font-family="Helvetica,sans-Serif" font-size="10.00">GSDUtil::GSDUtil</text>
</a>
</g>
</g>
<!-- Node24&#45;&gt;Node25 -->
<g id="edge40" class="edge">
<title>Node24&#45;&gt;Node25</title>
<path fill="none" stroke="midnightblue" d="M659.88,-10C637.97,-10 610.64,-10 587.76,-10"/>
<polygon fill="midnightblue" stroke="midnightblue" points="660.15,-13.5 670.15,-10 660.15,-6.5 660.15,-13.5"/>
</g>
</g>
</svg>
