<?xml version="1.0" encoding="UTF-8" standalone="no"?>
<!DOCTYPE svg PUBLIC "-//W3C//DTD SVG 1.1//EN"
 "http://www.w3.org/Graphics/SVG/1.1/DTD/svg11.dtd">
<!-- Generated by graphviz version 2.49.1 (20210923.0004)
 -->
<!-- Title: gsd_sizeof_type Pages: 1 -->
<svg width="881pt" height="408pt"
 viewBox="0.00 0.00 881.00 408.00" xmlns="http://www.w3.org/2000/svg" xmlns:xlink="http://www.w3.org/1999/xlink">
<g id="graph0" class="graph" transform="scale(1 1) rotate(0) translate(4 404)">
<title>gsd_sizeof_type</title>
<!-- Node1 -->
<g id="node1" class="node">
<title>Node1</title>
<g id="a_node1"><a xlink:title=" ">
<polygon fill="#bfbfbf" stroke="black" points="784,-190.5 784,-209.5 873,-209.5 873,-190.5 784,-190.5"/>
<text text-anchor="middle" x="828.5" y="-197.5" font-family="Helvetica,sans-Serif" font-size="10.00">gsd_sizeof_type</text>
</a>
</g>
</g>
<!-- Node2 -->
<g id="node2" class="node">
<title>Node2</title>
<g id="a_node2"><a xlink:href="../../dc/dcb/gsd_8c.html#ab5d19295bedec41b7919caec2cb22759" target="_top" xlink:title=" ">
<polygon fill="none" stroke="black" points="649,-171.5 649,-190.5 748,-190.5 748,-171.5 649,-171.5"/>
<text text-anchor="middle" x="698.5" y="-178.5" font-family="Helvetica,sans-Serif" font-size="10.00">gsd_is_entry_valid</text>
</a>
</g>
</g>
<!-- Node1&#45;&gt;Node2 -->
<g id="edge1" class="edge">
<title>Node1&#45;&gt;Node2</title>
<path fill="none" stroke="midnightblue" d="M773.68,-192.01C765.25,-190.76 756.58,-189.47 748.27,-188.24"/>
<polygon fill="midnightblue" stroke="midnightblue" points="773.4,-195.51 783.81,-193.51 774.43,-188.58 773.4,-195.51"/>
</g>
<!-- Node14 -->
<g id="node14" class="node">
<title>Node14</title>
<g id="a_node14"><a xlink:href="../../dc/dcb/gsd_8c.html#a2db2e3e8a72948bf413e7f09469ec8a6" target="_top" xlink:title=" ">
<polygon fill="none" stroke="black" points="653.5,-275.5 653.5,-294.5 743.5,-294.5 743.5,-275.5 653.5,-275.5"/>
<text text-anchor="middle" x="698.5" y="-282.5" font-family="Helvetica,sans-Serif" font-size="10.00">gsd_read_chunk</text>
</a>
</g>
</g>
<!-- Node1&#45;&gt;Node14 -->
<g id="edge13" class="edge">
<title>Node1&#45;&gt;Node14</title>
<path fill="none" stroke="midnightblue" d="M804.23,-215.45C777.95,-232.9 736,-260.76 714.01,-275.36"/>
<polygon fill="midnightblue" stroke="midnightblue" points="806.42,-218.2 812.82,-209.75 802.55,-212.37 806.42,-218.2"/>
</g>
<!-- Node15 -->
<g id="node15" class="node">
<title>Node15</title>
<g id="a_node15"><a xlink:href="../../de/d83/classGSDUtil.html#a86d2352b694afc6a0c938a13b3acec9d" target="_top" xlink:title=" ">
<polygon fill="none" stroke="black" points="346,-285.5 346,-304.5 453,-304.5 453,-285.5 346,-285.5"/>
<text text-anchor="middle" x="399.5" y="-292.5" font-family="Helvetica,sans-Serif" font-size="10.00">GSDUtil::readChunk</text>
</a>
</g>
</g>
<!-- Node1&#45;&gt;Node15 -->
<g id="edge30" class="edge">
<title>Node1&#45;&gt;Node15</title>
<path fill="none" stroke="midnightblue" d="M774.58,-211.77C689.03,-230.81 522,-267.97 443.37,-285.46"/>
<polygon fill="midnightblue" stroke="midnightblue" points="775.6,-215.13 784.6,-209.54 774.08,-208.3 775.6,-215.13"/>
</g>
<!-- Node20 -->
<g id="node20" class="node">
<title>Node20</title>
<g id="a_node20"><a xlink:href="../../dc/dcb/gsd_8c.html#ae22447904b925f284bf987fae448488a" target="_top" xlink:title=" ">
<polygon fill="none" stroke="black" points="353.5,-57.5 353.5,-76.5 445.5,-76.5 445.5,-57.5 353.5,-57.5"/>
<text text-anchor="middle" x="399.5" y="-64.5" font-family="Helvetica,sans-Serif" font-size="10.00">gsd_write_chunk</text>
</a>
</g>
</g>
<!-- Node1&#45;&gt;Node20 -->
<g id="edge23" class="edge">
<title>Node1&#45;&gt;Node20</title>
<path fill="none" stroke="midnightblue" d="M800.61,-185.67C785.45,-177.96 765.99,-168.7 748,-162 641.91,-122.51 512.12,-91.37 445.18,-76.51"/>
<polygon fill="midnightblue" stroke="midnightblue" points="799.41,-188.98 809.9,-190.46 802.62,-182.76 799.41,-188.98"/>
</g>
<!-- Node3 -->
<g id="node3" class="node">
<title>Node3</title>
<g id="a_node3"><a xlink:href="../../dc/dcb/gsd_8c.html#a6fe75caf6c4df550af2455a0c40bfbdf" target="_top" xlink:title=" ">
<polygon fill="none" stroke="black" points="495,-171.5 495,-190.5 613,-190.5 613,-171.5 495,-171.5"/>
<text text-anchor="middle" x="554" y="-178.5" font-family="Helvetica,sans-Serif" font-size="10.00">gsd_index_buffer_map</text>
</a>
</g>
</g>
<!-- Node2&#45;&gt;Node3 -->
<g id="edge2" class="edge">
<title>Node2&#45;&gt;Node3</title>
<path fill="none" stroke="midnightblue" d="M638.74,-181C630.33,-181 621.67,-181 613.27,-181"/>
<polygon fill="midnightblue" stroke="midnightblue" points="638.86,-184.5 648.86,-181 638.86,-177.5 638.86,-184.5"/>
</g>
<!-- Node4 -->
<g id="node4" class="node">
<title>Node4</title>
<g id="a_node4"><a xlink:href="../../dc/dcb/gsd_8c.html#ae6dddb94661e99e54f6c01b1a443e27f" target="_top" xlink:title=" ">
<polygon fill="none" stroke="black" points="340,-114.5 340,-133.5 459,-133.5 459,-114.5 340,-114.5"/>
<text text-anchor="middle" x="399.5" y="-121.5" font-family="Helvetica,sans-Serif" font-size="10.00">gsd_expand_file_index</text>
</a>
</g>
</g>
<!-- Node3&#45;&gt;Node4 -->
<g id="edge3" class="edge">
<title>Node3&#45;&gt;Node4</title>
<path fill="none" stroke="midnightblue" d="M521.26,-167.52C503.14,-159.99 479.93,-150.62 459,-143 450.07,-139.75 440.28,-136.46 431.3,-133.56"/>
<polygon fill="midnightblue" stroke="midnightblue" points="520.18,-170.87 530.76,-171.5 522.88,-164.41 520.18,-170.87"/>
</g>
<!-- Node7 -->
<g id="node7" class="node">
<title>Node7</title>
<g id="a_node7"><a xlink:href="../../dc/dcb/gsd_8c.html#ac159dfbfd790607f85073ad2d8464a8b" target="_top" xlink:title=" ">
<polygon fill="none" stroke="black" points="345,-190.5 345,-209.5 454,-209.5 454,-190.5 345,-190.5"/>
<text text-anchor="middle" x="399.5" y="-197.5" font-family="Helvetica,sans-Serif" font-size="10.00">gsd_initialize_handle</text>
</a>
</g>
</g>
<!-- Node3&#45;&gt;Node7 -->
<g id="edge6" class="edge">
<title>Node3&#45;&gt;Node7</title>
<path fill="none" stroke="midnightblue" d="M484.82,-189.49C474.63,-190.76 464.25,-192.06 454.41,-193.28"/>
<polygon fill="midnightblue" stroke="midnightblue" points="485.42,-192.95 494.91,-188.24 484.56,-186 485.42,-192.95"/>
</g>
<!-- Node13 -->
<g id="node13" class="node">
<title>Node13</title>
<g id="a_node13"><a xlink:href="../../dc/dcb/gsd_8c.html#adb92d5142812c19bf4ee33cbde439131" target="_top" xlink:title=" ">
<polygon fill="none" stroke="black" points="362,-152.5 362,-171.5 437,-171.5 437,-152.5 362,-152.5"/>
<text text-anchor="middle" x="399.5" y="-159.5" font-family="Helvetica,sans-Serif" font-size="10.00">gsd_upgrade</text>
</a>
</g>
</g>
<!-- Node3&#45;&gt;Node13 -->
<g id="edge12" class="edge">
<title>Node3&#45;&gt;Node13</title>
<path fill="none" stroke="midnightblue" d="M484.81,-172.5C468.44,-170.46 451.56,-168.36 437.25,-166.58"/>
<polygon fill="midnightblue" stroke="midnightblue" points="484.56,-176 494.91,-173.76 485.42,-169.05 484.56,-176"/>
</g>
<!-- Node5 -->
<g id="node5" class="node">
<title>Node5</title>
<g id="a_node5"><a xlink:href="../../dc/dcb/gsd_8c.html#aa03810337c5eebcbe716d8633eaefc5e" target="_top" xlink:title=" ">
<polygon fill="none" stroke="black" points="185,-114.5 185,-133.5 271,-133.5 271,-114.5 185,-114.5"/>
<text text-anchor="middle" x="228" y="-121.5" font-family="Helvetica,sans-Serif" font-size="10.00">gsd_end_frame</text>
</a>
</g>
</g>
<!-- Node4&#45;&gt;Node5 -->
<g id="edge4" class="edge">
<title>Node4&#45;&gt;Node5</title>
<path fill="none" stroke="midnightblue" d="M329.49,-124C309.72,-124 288.77,-124 271.15,-124"/>
<polygon fill="midnightblue" stroke="midnightblue" points="329.69,-127.5 339.69,-124 329.69,-120.5 329.69,-127.5"/>
</g>
<!-- Node6 -->
<g id="node6" class="node">
<title>Node6</title>
<g id="a_node6"><a xlink:href="../../de/d83/classGSDUtil.html#ae76e4a23f0fe0bca3cd44137b56b816b" target="_top" xlink:title=" ">
<polygon fill="none" stroke="black" points="4,-57.5 4,-76.5 112,-76.5 112,-57.5 4,-57.5"/>
<text text-anchor="middle" x="58" y="-64.5" font-family="Helvetica,sans-Serif" font-size="10.00">GSDUtil::writeFrame</text>
</a>
</g>
</g>
<!-- Node5&#45;&gt;Node6 -->
<g id="edge5" class="edge">
<title>Node5&#45;&gt;Node6</title>
<path fill="none" stroke="midnightblue" d="M175.23,-111.89C167.39,-109.77 159.45,-107.45 152,-105 126.82,-96.71 98.75,-84.87 80.11,-76.61"/>
<polygon fill="midnightblue" stroke="midnightblue" points="174.49,-115.32 185.05,-114.47 176.26,-108.55 174.49,-115.32"/>
</g>
<!-- Node8 -->
<g id="node8" class="node">
<title>Node8</title>
<g id="a_node8"><a xlink:href="../../dc/dcb/gsd_8c.html#aa0b0b7fb6b385707ffc83989d54bc81b" target="_top" xlink:title=" ">
<polygon fill="none" stroke="black" points="170,-190.5 170,-209.5 286,-209.5 286,-190.5 170,-190.5"/>
<text text-anchor="middle" x="228" y="-197.5" font-family="Helvetica,sans-Serif" font-size="10.00">gsd_create_and_open</text>
</a>
</g>
</g>
<!-- Node7&#45;&gt;Node8 -->
<g id="edge7" class="edge">
<title>Node7&#45;&gt;Node8</title>
<path fill="none" stroke="midnightblue" d="M334.58,-200C318.65,-200 301.67,-200 286.09,-200"/>
<polygon fill="midnightblue" stroke="midnightblue" points="334.87,-203.5 344.87,-200 334.87,-196.5 334.87,-203.5"/>
</g>
<!-- Node9 -->
<g id="node9" class="node">
<title>Node9</title>
<g id="a_node9"><a xlink:href="../../dc/dcb/gsd_8c.html#ad8933dcce55fd8101b5688f382c10a8e" target="_top" xlink:title=" ">
<polygon fill="none" stroke="black" points="198,-228.5 198,-247.5 258,-247.5 258,-228.5 198,-228.5"/>
<text text-anchor="middle" x="228" y="-235.5" font-family="Helvetica,sans-Serif" font-size="10.00">gsd_open</text>
</a>
</g>
</g>
<!-- Node7&#45;&gt;Node9 -->
<g id="edge8" class="edge">
<title>Node7&#45;&gt;Node9</title>
<path fill="none" stroke="midnightblue" d="M345.78,-211.82C316.9,-218.29 282.19,-226.08 258.16,-231.46"/>
<polygon fill="midnightblue" stroke="midnightblue" points="346.74,-215.19 355.73,-209.59 345.2,-208.36 346.74,-215.19"/>
</g>
<!-- Node11 -->
<g id="node11" class="node">
<title>Node11</title>
<g id="a_node11"><a xlink:href="../../dc/dcb/gsd_8c.html#a02ac7984034069d508b1c7ccbe702bac" target="_top" xlink:title=" ">
<polygon fill="none" stroke="black" points="191,-152.5 191,-171.5 265,-171.5 265,-152.5 191,-152.5"/>
<text text-anchor="middle" x="228" y="-159.5" font-family="Helvetica,sans-Serif" font-size="10.00">gsd_truncate</text>
</a>
</g>
</g>
<!-- Node7&#45;&gt;Node11 -->
<g id="edge10" class="edge">
<title>Node7&#45;&gt;Node11</title>
<path fill="none" stroke="midnightblue" d="M345.94,-188.22C319.72,-182.34 288.67,-175.38 265.16,-170.11"/>
<polygon fill="midnightblue" stroke="midnightblue" points="345.2,-191.64 355.73,-190.41 346.74,-184.81 345.2,-191.64"/>
</g>
<!-- Node10 -->
<g id="node10" class="node">
<title>Node10</title>
<g id="a_node10"><a xlink:href="../../de/d83/classGSDUtil.html#a2567bdb7f5952a76984552e0591fa330" target="_top" xlink:title=" ">
<polygon fill="none" stroke="black" points="11,-304.5 11,-323.5 105,-323.5 105,-304.5 11,-304.5"/>
<text text-anchor="middle" x="58" y="-311.5" font-family="Helvetica,sans-Serif" font-size="10.00">GSDUtil::GSDUtil</text>
</a>
</g>
</g>
<!-- Node9&#45;&gt;Node10 -->
<g id="edge9" class="edge">
<title>Node9&#45;&gt;Node10</title>
<path fill="none" stroke="midnightblue" d="M187.83,-245.56C176.07,-248.46 163.3,-252.24 152,-257 121.46,-269.87 89.22,-291.78 71.87,-304.36"/>
<polygon fill="midnightblue" stroke="midnightblue" points="188.89,-248.91 197.85,-243.24 187.31,-242.09 188.89,-248.91"/>
</g>
<!-- Node12 -->
<g id="node12" class="node">
<title>Node12</title>
<g id="a_node12"><a xlink:href="../../de/d83/classGSDUtil.html#a78b796cb5093b0aa6f5d2573658fcca1" target="_top" xlink:title=" ">
<polygon fill="none" stroke="black" points="0,-152.5 0,-171.5 116,-171.5 116,-152.5 0,-152.5"/>
<text text-anchor="middle" x="58" y="-159.5" font-family="Helvetica,sans-Serif" font-size="10.00">GSDUtil::truncateGSD</text>
</a>
</g>
</g>
<!-- Node11&#45;&gt;Node12 -->
<g id="edge11" class="edge">
<title>Node11&#45;&gt;Node12</title>
<path fill="none" stroke="midnightblue" d="M180.86,-162C160.86,-162 137.23,-162 116.13,-162"/>
<polygon fill="midnightblue" stroke="midnightblue" points="180.96,-165.5 190.96,-162 180.96,-158.5 180.96,-165.5"/>
</g>
<!-- Node14&#45;&gt;Node15 -->
<g id="edge14" class="edge">
<title>Node14&#45;&gt;Node15</title>
<path fill="none" stroke="midnightblue" d="M643.27,-286.83C589.19,-288.65 506.68,-291.42 453.16,-293.23"/>
<polygon fill="midnightblue" stroke="midnightblue" points="643.48,-290.32 653.36,-286.49 643.24,-283.32 643.48,-290.32"/>
</g>
<!-- Node16 -->
<g id="node16" class="node">
<title>Node16</title>
<g id="a_node16"><a xlink:href="../../de/d83/classGSDUtil.html#a2015dcdcdb33be9106f5c8f45f8564cc" target="_top" xlink:title=" ">
<polygon fill="none" stroke="black" points="172.5,-304.5 172.5,-323.5 283.5,-323.5 283.5,-304.5 172.5,-304.5"/>
<text text-anchor="middle" x="228" y="-311.5" font-family="Helvetica,sans-Serif" font-size="10.00">GSDUtil::readHeader</text>
</a>
</g>
</g>
<!-- Node15&#45;&gt;Node16 -->
<g id="edge15" class="edge">
<title>Node15&#45;&gt;Node16</title>
<path fill="none" stroke="midnightblue" d="M335.41,-302.07C318.43,-303.98 300.2,-306.02 283.72,-307.87"/>
<polygon fill="midnightblue" stroke="midnightblue" points="336.25,-305.5 345.8,-300.91 335.47,-298.54 336.25,-305.5"/>
</g>
<!-- Node17 -->
<g id="node17" class="node">
<title>Node17</title>
<g id="a_node17"><a xlink:href="../../de/d83/classGSDUtil.html#a31f9c7368ebd89c6293d9d9d83598e62" target="_top" xlink:title=" ">
<polygon fill="none" stroke="black" points="163,-266.5 163,-285.5 293,-285.5 293,-266.5 163,-266.5"/>
<text text-anchor="middle" x="228" y="-273.5" font-family="Helvetica,sans-Serif" font-size="10.00">GSDUtil::readParameters</text>
</a>
</g>
</g>
<!-- Node15&#45;&gt;Node17 -->
<g id="edge17" class="edge">
<title>Node15&#45;&gt;Node17</title>
<path fill="none" stroke="midnightblue" d="M335.46,-287.93C321.7,-286.39 307.11,-284.76 293.3,-283.21"/>
<polygon fill="midnightblue" stroke="midnightblue" points="335.47,-291.46 345.8,-289.09 336.25,-284.5 335.47,-291.46"/>
</g>
<!-- Node18 -->
<g id="node18" class="node">
<title>Node18</title>
<g id="a_node18"><a xlink:href="../../de/d83/classGSDUtil.html#ad404c3879fb81c0b73b2335ea6e4676a" target="_top" xlink:title=" ">
<polygon fill="none" stroke="black" points="169.5,-380.5 169.5,-399.5 286.5,-399.5 286.5,-380.5 169.5,-380.5"/>
<text text-anchor="middle" x="228" y="-387.5" font-family="Helvetica,sans-Serif" font-size="10.00">GSDUtil::readParticles</text>
</a>
</g>
</g>
<!-- Node15&#45;&gt;Node18 -->
<g id="edge19" class="edge">
<title>Node15&#45;&gt;Node18</title>
<path fill="none" stroke="midnightblue" d="M382.03,-312C364.32,-329.33 334.55,-355.76 304,-371 296.31,-374.84 287.77,-377.94 279.3,-380.44"/>
<polygon fill="midnightblue" stroke="midnightblue" points="384.68,-314.3 389.28,-304.76 379.74,-309.35 384.68,-314.3"/>
</g>
<!-- Node19 -->
<g id="node19" class="node">
<title>Node19</title>
<g id="a_node19"><a xlink:href="../../de/d83/classGSDUtil.html#a278d1db9ece12bdc1268780313d83daf" target="_top" xlink:title=" ">
<polygon fill="none" stroke="black" points="152,-342.5 152,-361.5 304,-361.5 304,-342.5 152,-342.5"/>
<text text-anchor="middle" x="228" y="-349.5" font-family="Helvetica,sans-Serif" font-size="10.00">GSDUtil::readSystemSpecifics</text>
</a>
</g>
</g>
<!-- Node15&#45;&gt;Node19 -->
<g id="edge21" class="edge">
<title>Node15&#45;&gt;Node19</title>
<path fill="none" stroke="midnightblue" d="M367.75,-308.58C349.46,-316.36 325.66,-325.94 304,-333 293.4,-336.46 281.79,-339.67 270.94,-342.43"/>
<polygon fill="midnightblue" stroke="midnightblue" points="369.23,-311.76 377.04,-304.59 366.47,-305.33 369.23,-311.76"/>
</g>
<!-- Node16&#45;&gt;Node10 -->
<g id="edge16" class="edge">
<title>Node16&#45;&gt;Node10</title>
<path fill="none" stroke="midnightblue" d="M162.33,-314C143.25,-314 122.77,-314 105.11,-314"/>
<polygon fill="midnightblue" stroke="midnightblue" points="162.46,-317.5 172.46,-314 162.46,-310.5 162.46,-317.5"/>
</g>
<!-- Node17&#45;&gt;Node10 -->
<g id="edge18" class="edge">
<title>Node17&#45;&gt;Node10</title>
<path fill="none" stroke="midnightblue" d="M174.72,-287.82C151.04,-293.18 123.41,-299.43 101.09,-304.48"/>
<polygon fill="midnightblue" stroke="midnightblue" points="175.63,-291.21 184.61,-285.59 174.08,-284.38 175.63,-291.21"/>
</g>
<!-- Node18&#45;&gt;Node10 -->
<g id="edge20" class="edge">
<title>Node18&#45;&gt;Node10</title>
<path fill="none" stroke="midnightblue" d="M170.39,-377.62C164.09,-375.67 157.85,-373.47 152,-371 121.46,-358.13 89.22,-336.22 71.87,-323.64"/>
<polygon fill="midnightblue" stroke="midnightblue" points="169.69,-381.06 180.27,-380.49 171.64,-374.34 169.69,-381.06"/>
</g>
<!-- Node19&#45;&gt;Node10 -->
<g id="edge22" class="edge">
<title>Node19&#45;&gt;Node10</title>
<path fill="none" stroke="midnightblue" d="M174.72,-340.18C151.04,-334.82 123.41,-328.57 101.09,-323.52"/>
<polygon fill="midnightblue" stroke="midnightblue" points="174.08,-343.62 184.61,-342.41 175.63,-336.79 174.08,-343.62"/>
</g>
<!-- Node21 -->
<g id="node21" class="node">
<title>Node21</title>
<g id="a_node21"><a xlink:href="../../de/d83/classGSDUtil.html#a77b5ebe2817ac868ad1b171f3d7b0cae" target="_top" xlink:title=" ">
<polygon fill="none" stroke="black" points="172,-76.5 172,-95.5 284,-95.5 284,-76.5 172,-76.5"/>
<text text-anchor="middle" x="228" y="-83.5" font-family="Helvetica,sans-Serif" font-size="10.00">GSDUtil::writeHeader</text>
</a>
</g>
</g>
<!-- Node20&#45;&gt;Node21 -->
<g id="edge24" class="edge">
<title>Node20&#45;&gt;Node21</title>
<path fill="none" stroke="midnightblue" d="M343.13,-73.21C324.23,-75.33 303.11,-77.69 284.22,-79.81"/>
<polygon fill="midnightblue" stroke="midnightblue" points="343.53,-76.68 353.08,-72.09 342.75,-69.73 343.53,-76.68"/>
</g>
<!-- Node22 -->
<g id="node22" class="node">
<title>Node22</title>
<g id="a_node22"><a xlink:href="../../de/d83/classGSDUtil.html#aa0dc50cd5e5534260375ad4962511cf0" target="_top" xlink:title=" ">
<polygon fill="none" stroke="black" points="162.5,-38.5 162.5,-57.5 293.5,-57.5 293.5,-38.5 162.5,-38.5"/>
<text text-anchor="middle" x="228" y="-45.5" font-family="Helvetica,sans-Serif" font-size="10.00">GSDUtil::writeParameters</text>
</a>
</g>
</g>
<!-- Node20&#45;&gt;Node22 -->
<g id="edge26" class="edge">
<title>Node20&#45;&gt;Node22</title>
<path fill="none" stroke="midnightblue" d="M342.97,-60.78C327.21,-59.01 309.92,-57.07 293.67,-55.25"/>
<polygon fill="midnightblue" stroke="midnightblue" points="342.75,-64.27 353.08,-61.91 343.53,-57.32 342.75,-64.27"/>
</g>
<!-- Node23 -->
<g id="node23" class="node">
<title>Node23</title>
<g id="a_node23"><a xlink:href="../../de/d83/classGSDUtil.html#a9464315a26a5d5e2c51bb2b4df5ee373" target="_top" xlink:title=" ">
<polygon fill="none" stroke="black" points="169,-0.5 169,-19.5 287,-19.5 287,-0.5 169,-0.5"/>
<text text-anchor="middle" x="228" y="-7.5" font-family="Helvetica,sans-Serif" font-size="10.00">GSDUtil::writeParticles</text>
</a>
</g>
</g>
<!-- Node20&#45;&gt;Node23 -->
<g id="edge28" class="edge">
<title>Node20&#45;&gt;Node23</title>
<path fill="none" stroke="midnightblue" d="M367.75,-53.42C349.46,-45.64 325.66,-36.06 304,-29 293.4,-25.54 281.79,-22.33 270.94,-19.57"/>
<polygon fill="midnightblue" stroke="midnightblue" points="366.47,-56.67 377.04,-57.41 369.23,-50.24 366.47,-56.67"/>
</g>
<!-- Node21&#45;&gt;Node6 -->
<g id="edge25" class="edge">
<title>Node21&#45;&gt;Node6</title>
<path fill="none" stroke="midnightblue" d="M161.89,-78.64C145.42,-76.77 127.93,-74.8 112.13,-73.01"/>
<polygon fill="midnightblue" stroke="midnightblue" points="161.66,-82.13 171.99,-79.78 162.45,-75.18 161.66,-82.13"/>
</g>
<!-- Node22&#45;&gt;Node6 -->
<g id="edge27" class="edge">
<title>Node22&#45;&gt;Node6</title>
<path fill="none" stroke="midnightblue" d="M151.87,-56.5C138.45,-58.01 124.73,-59.57 112.09,-61"/>
<polygon fill="midnightblue" stroke="midnightblue" points="152.5,-59.95 162.05,-55.35 151.72,-52.99 152.5,-59.95"/>
</g>
<!-- Node23&#45;&gt;Node6 -->
<g id="edge29" class="edge">
<title>Node23&#45;&gt;Node6</title>
<path fill="none" stroke="midnightblue" d="M175.23,-22.11C167.39,-24.23 159.45,-26.55 152,-29 126.82,-37.29 98.75,-49.13 80.11,-57.39"/>
<polygon fill="midnightblue" stroke="midnightblue" points="176.26,-25.45 185.05,-19.53 174.49,-18.68 176.26,-25.45"/>
</g>
</g>
</svg>
