<?xml version="1.0" encoding="UTF-8" standalone="no"?>
<!DOCTYPE svg PUBLIC "-//W3C//DTD SVG 1.1//EN"
 "http://www.w3.org/Graphics/SVG/1.1/DTD/svg11.dtd">
<!-- Generated by graphviz version 2.49.1 (20210923.0004)
 -->
<!-- Title: gsd_cmp_index_entry Pages: 1 -->
<svg width="877pt" height="199pt"
 viewBox="0.00 0.00 877.00 199.00" xmlns="http://www.w3.org/2000/svg" xmlns:xlink="http://www.w3.org/1999/xlink">
<g id="graph0" class="graph" transform="scale(1 1) rotate(0) translate(4 195)">
<title>gsd_cmp_index_entry</title>
<!-- Node1 -->
<g id="node1" class="node">
<title>Node1</title>
<g id="a_node1"><a xlink:title=" ">
<polygon fill="#bfbfbf" stroke="black" points="755,-76.5 755,-95.5 869,-95.5 869,-76.5 755,-76.5"/>
<text text-anchor="middle" x="812" y="-83.5" font-family="Helvetica,sans-Serif" font-size="10.00">gsd_cmp_index_entry</text>
</a>
</g>
</g>
<!-- Node2 -->
<g id="node2" class="node">
<title>Node2</title>
<g id="a_node2"><a xlink:href="../../dc/dcb/gsd_8c.html#ac00249e8c3030557711beb337c8424dd" target="_top" xlink:title=" ">
<polygon fill="none" stroke="black" points="618.5,-95.5 618.5,-114.5 705.5,-114.5 705.5,-95.5 618.5,-95.5"/>
<text text-anchor="middle" x="662" y="-102.5" font-family="Helvetica,sans-Serif" font-size="10.00">gsd_find_chunk</text>
</a>
</g>
</g>
<!-- Node1&#45;&gt;Node2 -->
<g id="edge1" class="edge">
<title>Node1&#45;&gt;Node2</title>
<path fill="none" stroke="midnightblue" d="M744.65,-94.52C731.48,-96.21 717.99,-97.94 705.87,-99.5"/>
<polygon fill="midnightblue" stroke="midnightblue" points="745.15,-97.98 754.63,-93.24 744.26,-91.04 745.15,-97.98"/>
</g>
<!-- Node9 -->
<g id="node9" class="node">
<title>Node9</title>
<g id="a_node9"><a xlink:href="../../dc/dcb/gsd_8c.html#accc971ec12e75a165ffef6e1ee854681" target="_top" xlink:title=" ">
<polygon fill="none" stroke="black" points="605,-57.5 605,-76.5 719,-76.5 719,-57.5 605,-57.5"/>
<text text-anchor="middle" x="662" y="-64.5" font-family="Helvetica,sans-Serif" font-size="10.00">gsd_heap_shift_down</text>
</a>
</g>
</g>
<!-- Node1&#45;&gt;Node9 -->
<g id="edge11" class="edge">
<title>Node1&#45;&gt;Node9</title>
<path fill="none" stroke="midnightblue" d="M744.44,-77.46C736.02,-76.37 727.46,-75.28 719.22,-74.22"/>
<polygon fill="midnightblue" stroke="midnightblue" points="744.26,-80.96 754.63,-78.76 745.15,-74.02 744.26,-80.96"/>
</g>
<!-- Node3 -->
<g id="node3" class="node">
<title>Node3</title>
<g id="a_node3"><a xlink:href="../../de/d83/classGSDUtil.html#a86d2352b694afc6a0c938a13b3acec9d" target="_top" xlink:title=" ">
<polygon fill="none" stroke="black" points="462,-95.5 462,-114.5 569,-114.5 569,-95.5 462,-95.5"/>
<text text-anchor="middle" x="515.5" y="-102.5" font-family="Helvetica,sans-Serif" font-size="10.00">GSDUtil::readChunk</text>
</a>
</g>
</g>
<!-- Node2&#45;&gt;Node3 -->
<g id="edge2" class="edge">
<title>Node2&#45;&gt;Node3</title>
<path fill="none" stroke="midnightblue" d="M608.37,-105C595.55,-105 581.83,-105 569.01,-105"/>
<polygon fill="midnightblue" stroke="midnightblue" points="608.43,-108.5 618.43,-105 608.43,-101.5 608.43,-108.5"/>
</g>
<!-- Node4 -->
<g id="node4" class="node">
<title>Node4</title>
<g id="a_node4"><a xlink:href="../../de/d83/classGSDUtil.html#a2015dcdcdb33be9106f5c8f45f8564cc" target="_top" xlink:title=" ">
<polygon fill="none" stroke="black" points="294.5,-171.5 294.5,-190.5 405.5,-190.5 405.5,-171.5 294.5,-171.5"/>
<text text-anchor="middle" x="350" y="-178.5" font-family="Helvetica,sans-Serif" font-size="10.00">GSDUtil::readHeader</text>
</a>
</g>
</g>
<!-- Node3&#45;&gt;Node4 -->
<g id="edge3" class="edge">
<title>Node3&#45;&gt;Node4</title>
<path fill="none" stroke="midnightblue" d="M494.14,-120.85C476.86,-133.61 450.98,-151.14 426,-162 417.38,-165.75 407.86,-168.87 398.59,-171.42"/>
<polygon fill="midnightblue" stroke="midnightblue" points="496.45,-123.49 502.34,-114.68 492.24,-117.9 496.45,-123.49"/>
</g>
<!-- Node6 -->
<g id="node6" class="node">
<title>Node6</title>
<g id="a_node6"><a xlink:href="../../de/d83/classGSDUtil.html#a31f9c7368ebd89c6293d9d9d83598e62" target="_top" xlink:title=" ">
<polygon fill="none" stroke="black" points="285,-133.5 285,-152.5 415,-152.5 415,-133.5 285,-133.5"/>
<text text-anchor="middle" x="350" y="-140.5" font-family="Helvetica,sans-Serif" font-size="10.00">GSDUtil::readParameters</text>
</a>
</g>
</g>
<!-- Node3&#45;&gt;Node6 -->
<g id="edge5" class="edge">
<title>Node3&#45;&gt;Node6</title>
<path fill="none" stroke="midnightblue" d="M463.32,-116.9C440.33,-122.24 413.59,-128.45 391.96,-133.48"/>
<polygon fill="midnightblue" stroke="midnightblue" points="464.29,-120.26 473.24,-114.59 462.71,-113.44 464.29,-120.26"/>
</g>
<!-- Node7 -->
<g id="node7" class="node">
<title>Node7</title>
<g id="a_node7"><a xlink:href="../../de/d83/classGSDUtil.html#ad404c3879fb81c0b73b2335ea6e4676a" target="_top" xlink:title=" ">
<polygon fill="none" stroke="black" points="291.5,-95.5 291.5,-114.5 408.5,-114.5 408.5,-95.5 291.5,-95.5"/>
<text text-anchor="middle" x="350" y="-102.5" font-family="Helvetica,sans-Serif" font-size="10.00">GSDUtil::readParticles</text>
</a>
</g>
</g>
<!-- Node3&#45;&gt;Node7 -->
<g id="edge7" class="edge">
<title>Node3&#45;&gt;Node7</title>
<path fill="none" stroke="midnightblue" d="M451.72,-105C437.55,-105 422.57,-105 408.63,-105"/>
<polygon fill="midnightblue" stroke="midnightblue" points="451.87,-108.5 461.87,-105 451.87,-101.5 451.87,-108.5"/>
</g>
<!-- Node8 -->
<g id="node8" class="node">
<title>Node8</title>
<g id="a_node8"><a xlink:href="../../de/d83/classGSDUtil.html#a278d1db9ece12bdc1268780313d83daf" target="_top" xlink:title=" ">
<polygon fill="none" stroke="black" points="274,-57.5 274,-76.5 426,-76.5 426,-57.5 274,-57.5"/>
<text text-anchor="middle" x="350" y="-64.5" font-family="Helvetica,sans-Serif" font-size="10.00">GSDUtil::readSystemSpecifics</text>
</a>
</g>
</g>
<!-- Node3&#45;&gt;Node8 -->
<g id="edge9" class="edge">
<title>Node3&#45;&gt;Node8</title>
<path fill="none" stroke="midnightblue" d="M463.32,-93.1C440.33,-87.76 413.59,-81.55 391.96,-76.52"/>
<polygon fill="midnightblue" stroke="midnightblue" points="462.71,-96.56 473.24,-95.41 464.29,-89.74 462.71,-96.56"/>
</g>
<!-- Node5 -->
<g id="node5" class="node">
<title>Node5</title>
<g id="a_node5"><a xlink:href="../../de/d83/classGSDUtil.html#a2567bdb7f5952a76984552e0591fa330" target="_top" xlink:title=" ">
<polygon fill="none" stroke="black" points="144,-114.5 144,-133.5 238,-133.5 238,-114.5 144,-114.5"/>
<text text-anchor="middle" x="191" y="-121.5" font-family="Helvetica,sans-Serif" font-size="10.00">GSDUtil::GSDUtil</text>
</a>
</g>
</g>
<!-- Node4&#45;&gt;Node5 -->
<g id="edge4" class="edge">
<title>Node4&#45;&gt;Node5</title>
<path fill="none" stroke="midnightblue" d="M295.5,-168.75C288.21,-166.7 280.88,-164.44 274,-162 251.38,-153.97 226.51,-141.97 210.15,-133.61"/>
<polygon fill="midnightblue" stroke="midnightblue" points="294.79,-172.18 305.36,-171.4 296.61,-165.42 294.79,-172.18"/>
</g>
<!-- Node6&#45;&gt;Node5 -->
<g id="edge6" class="edge">
<title>Node6&#45;&gt;Node5</title>
<path fill="none" stroke="midnightblue" d="M274.75,-134.01C262.29,-132.51 249.68,-130.98 238.2,-129.59"/>
<polygon fill="midnightblue" stroke="midnightblue" points="274.34,-137.49 284.69,-135.22 275.18,-130.54 274.34,-137.49"/>
</g>
<!-- Node7&#45;&gt;Node5 -->
<g id="edge8" class="edge">
<title>Node7&#45;&gt;Node5</title>
<path fill="none" stroke="midnightblue" d="M281.45,-113.17C266.88,-114.94 251.8,-116.76 238.27,-118.4"/>
<polygon fill="midnightblue" stroke="midnightblue" points="281.92,-116.64 291.43,-111.97 281.08,-109.69 281.92,-116.64"/>
</g>
<!-- Node8&#45;&gt;Node5 -->
<g id="edge10" class="edge">
<title>Node8&#45;&gt;Node5</title>
<path fill="none" stroke="midnightblue" d="M295.5,-79.25C288.21,-81.3 280.88,-83.56 274,-86 251.38,-94.03 226.51,-106.03 210.15,-114.39"/>
<polygon fill="midnightblue" stroke="midnightblue" points="296.61,-82.58 305.36,-76.6 294.79,-75.82 296.61,-82.58"/>
</g>
<!-- Node10 -->
<g id="node10" class="node">
<title>Node10</title>
<g id="a_node10"><a xlink:href="../../dc/dcb/gsd_8c.html#a0de3f89cdd57571b57401c91feef2f66" target="_top" xlink:title=" ">
<polygon fill="none" stroke="black" points="480.5,-57.5 480.5,-76.5 550.5,-76.5 550.5,-57.5 480.5,-57.5"/>
<text text-anchor="middle" x="515.5" y="-64.5" font-family="Helvetica,sans-Serif" font-size="10.00">gsd_heapify</text>
</a>
</g>
</g>
<!-- Node9&#45;&gt;Node10 -->
<g id="edge12" class="edge">
<title>Node9&#45;&gt;Node10</title>
<path fill="none" stroke="midnightblue" d="M594.35,-67C579.25,-67 563.82,-67 550.72,-67"/>
<polygon fill="midnightblue" stroke="midnightblue" points="594.72,-70.5 604.72,-67 594.72,-63.5 594.72,-70.5"/>
</g>
<!-- Node11 -->
<g id="node11" class="node">
<title>Node11</title>
<g id="a_node11"><a xlink:href="../../dc/dcb/gsd_8c.html#a6c20ccb47eed1a3ea9995a47a8eebdbd" target="_top" xlink:title=" ">
<polygon fill="none" stroke="black" points="292.5,-19.5 292.5,-38.5 407.5,-38.5 407.5,-19.5 292.5,-19.5"/>
<text text-anchor="middle" x="350" y="-26.5" font-family="Helvetica,sans-Serif" font-size="10.00">gsd_index_buffer_sort</text>
</a>
</g>
</g>
<!-- Node9&#45;&gt;Node11 -->
<g id="edge17" class="edge">
<title>Node9&#45;&gt;Node11</title>
<path fill="none" stroke="midnightblue" d="M610.03,-55.37C596.73,-52.64 582.37,-49.96 569,-48 514.49,-40.02 451.8,-34.99 407.67,-32.12"/>
<polygon fill="midnightblue" stroke="midnightblue" points="609.46,-58.83 619.96,-57.46 610.9,-51.97 609.46,-58.83"/>
</g>
<!-- Node10&#45;&gt;Node11 -->
<g id="edge13" class="edge">
<title>Node10&#45;&gt;Node11</title>
<path fill="none" stroke="midnightblue" d="M470.48,-56.77C446.03,-51.09 415.81,-44.06 391.88,-38.5"/>
<polygon fill="midnightblue" stroke="midnightblue" points="469.69,-60.18 480.23,-59.03 471.28,-53.36 469.69,-60.18"/>
</g>
<!-- Node12 -->
<g id="node12" class="node">
<title>Node12</title>
<g id="a_node12"><a xlink:href="../../dc/dcb/gsd_8c.html#aa03810337c5eebcbe716d8633eaefc5e" target="_top" xlink:title=" ">
<polygon fill="none" stroke="black" points="148,-38.5 148,-57.5 234,-57.5 234,-38.5 148,-38.5"/>
<text text-anchor="middle" x="191" y="-45.5" font-family="Helvetica,sans-Serif" font-size="10.00">gsd_end_frame</text>
</a>
</g>
</g>
<!-- Node11&#45;&gt;Node12 -->
<g id="edge14" class="edge">
<title>Node11&#45;&gt;Node12</title>
<path fill="none" stroke="midnightblue" d="M282.31,-37.07C266.04,-39.04 249.08,-41.09 234.31,-42.88"/>
<polygon fill="midnightblue" stroke="midnightblue" points="282.81,-40.54 292.32,-35.86 281.97,-33.59 282.81,-40.54"/>
</g>
<!-- Node14 -->
<g id="node14" class="node">
<title>Node14</title>
<g id="a_node14"><a xlink:href="../../dc/dcb/gsd_8c.html#adb92d5142812c19bf4ee33cbde439131" target="_top" xlink:title=" ">
<polygon fill="none" stroke="black" points="153.5,-0.5 153.5,-19.5 228.5,-19.5 228.5,-0.5 153.5,-0.5"/>
<text text-anchor="middle" x="191" y="-7.5" font-family="Helvetica,sans-Serif" font-size="10.00">gsd_upgrade</text>
</a>
</g>
</g>
<!-- Node11&#45;&gt;Node14 -->
<g id="edge16" class="edge">
<title>Node11&#45;&gt;Node14</title>
<path fill="none" stroke="midnightblue" d="M282.21,-20.92C263.81,-18.69 244.53,-16.36 228.54,-14.42"/>
<polygon fill="midnightblue" stroke="midnightblue" points="281.97,-24.41 292.32,-22.14 282.81,-17.46 281.97,-24.41"/>
</g>
<!-- Node13 -->
<g id="node13" class="node">
<title>Node13</title>
<g id="a_node13"><a xlink:href="../../de/d83/classGSDUtil.html#ae76e4a23f0fe0bca3cd44137b56b816b" target="_top" xlink:title=" ">
<polygon fill="none" stroke="black" points="0,-38.5 0,-57.5 108,-57.5 108,-38.5 0,-38.5"/>
<text text-anchor="middle" x="54" y="-45.5" font-family="Helvetica,sans-Serif" font-size="10.00">GSDUtil::writeFrame</text>
</a>
</g>
</g>
<!-- Node12&#45;&gt;Node13 -->
<g id="edge15" class="edge">
<title>Node12&#45;&gt;Node13</title>
<path fill="none" stroke="midnightblue" d="M137.43,-48C127.81,-48 117.77,-48 108.14,-48"/>
<polygon fill="midnightblue" stroke="midnightblue" points="137.66,-51.5 147.66,-48 137.66,-44.5 137.66,-51.5"/>
</g>
</g>
</svg>
