<?xml version="1.0" encoding="UTF-8" standalone="no"?>
<!DOCTYPE svg PUBLIC "-//W3C//DTD SVG 1.1//EN"
 "http://www.w3.org/Graphics/SVG/1.1/DTD/svg11.dtd">
<!-- Generated by graphviz version 2.49.1 (20210923.0004)
 -->
<!-- Title: gsd_byte_buffer_append Pages: 1 -->
<svg width="731pt" height="180pt"
 viewBox="0.00 0.00 731.00 180.00" xmlns="http://www.w3.org/2000/svg" xmlns:xlink="http://www.w3.org/1999/xlink">
<g id="graph0" class="graph" transform="scale(1 1) rotate(0) translate(4 176)">
<title>gsd_byte_buffer_append</title>
<!-- Node1 -->
<g id="node1" class="node">
<title>Node1</title>
<g id="a_node1"><a xlink:title=" ">
<polygon fill="#bfbfbf" stroke="black" points="596,-57.5 596,-76.5 723,-76.5 723,-57.5 596,-57.5"/>
<text text-anchor="middle" x="659.5" y="-64.5" font-family="Helvetica,sans-Serif" font-size="10.00">gsd_byte_buffer_append</text>
</a>
</g>
</g>
<!-- Node2 -->
<g id="node2" class="node">
<title>Node2</title>
<g id="a_node2"><a xlink:href="../../dc/dcb/gsd_8c.html#aa1a0a7dcf4015edcadbb47a6451b4a4b" target="_top" xlink:title=" ">
<polygon fill="none" stroke="black" points="448.5,-114.5 448.5,-133.5 550.5,-133.5 550.5,-114.5 448.5,-114.5"/>
<text text-anchor="middle" x="499.5" y="-121.5" font-family="Helvetica,sans-Serif" font-size="10.00">gsd_append_name</text>
</a>
</g>
</g>
<!-- Node1&#45;&gt;Node2 -->
<g id="edge1" class="edge">
<title>Node1&#45;&gt;Node2</title>
<path fill="none" stroke="midnightblue" d="M622.28,-80.07C593.24,-90.54 553.15,-105.01 527.03,-114.43"/>
<polygon fill="midnightblue" stroke="midnightblue" points="623.84,-83.23 632.05,-76.54 621.46,-76.64 623.84,-83.23"/>
</g>
<!-- Node3 -->
<g id="node3" class="node">
<title>Node3</title>
<g id="a_node3"><a xlink:href="../../dc/dcb/gsd_8c.html#ae22447904b925f284bf987fae448488a" target="_top" xlink:title=" ">
<polygon fill="none" stroke="black" points="311,-114.5 311,-133.5 403,-133.5 403,-114.5 311,-114.5"/>
<text text-anchor="middle" x="357" y="-121.5" font-family="Helvetica,sans-Serif" font-size="10.00">gsd_write_chunk</text>
</a>
</g>
</g>
<!-- Node1&#45;&gt;Node3 -->
<g id="edge13" class="edge">
<title>Node1&#45;&gt;Node3</title>
<path fill="none" stroke="midnightblue" d="M587.66,-78.18C544.56,-85.24 488.47,-94.93 439,-105 425.13,-107.82 410.01,-111.27 396.63,-114.45"/>
<polygon fill="midnightblue" stroke="midnightblue" points="588.45,-81.59 597.76,-76.53 587.33,-74.68 588.45,-81.59"/>
</g>
<!-- Node8 -->
<g id="node8" class="node">
<title>Node8</title>
<g id="a_node8"><a xlink:href="../../dc/dcb/gsd_8c.html#ab147cf4d77c10fd8085e5023e9afe55f" target="_top" xlink:title=" ">
<polygon fill="none" stroke="black" points="439,-38.5 439,-57.5 560,-57.5 560,-38.5 439,-38.5"/>
<text text-anchor="middle" x="499.5" y="-45.5" font-family="Helvetica,sans-Serif" font-size="10.00">gsd_flush_name_buffer</text>
</a>
</g>
</g>
<!-- Node1&#45;&gt;Node8 -->
<g id="edge9" class="edge">
<title>Node1&#45;&gt;Node8</title>
<path fill="none" stroke="midnightblue" d="M585.63,-58.24C577.08,-57.21 568.44,-56.17 560.1,-55.17"/>
<polygon fill="midnightblue" stroke="midnightblue" points="585.25,-61.72 595.6,-59.44 586.09,-54.77 585.25,-61.72"/>
</g>
<!-- Node10 -->
<g id="node10" class="node">
<title>Node10</title>
<g id="a_node10"><a xlink:href="../../dc/dcb/gsd_8c.html#adb92d5142812c19bf4ee33cbde439131" target="_top" xlink:title=" ">
<polygon fill="none" stroke="black" points="462,-0.5 462,-19.5 537,-19.5 537,-0.5 462,-0.5"/>
<text text-anchor="middle" x="499.5" y="-7.5" font-family="Helvetica,sans-Serif" font-size="10.00">gsd_upgrade</text>
</a>
</g>
</g>
<!-- Node1&#45;&gt;Node10 -->
<g id="edge12" class="edge">
<title>Node1&#45;&gt;Node10</title>
<path fill="none" stroke="midnightblue" d="M625.35,-53.65C606.32,-46.13 581.94,-36.73 560,-29 550.79,-25.76 540.71,-22.45 531.5,-19.52"/>
<polygon fill="midnightblue" stroke="midnightblue" points="624.18,-56.95 634.76,-57.39 626.76,-50.44 624.18,-56.95"/>
</g>
<!-- Node2&#45;&gt;Node3 -->
<g id="edge2" class="edge">
<title>Node2&#45;&gt;Node3</title>
<path fill="none" stroke="midnightblue" d="M438.06,-124C426.4,-124 414.38,-124 403.31,-124"/>
<polygon fill="midnightblue" stroke="midnightblue" points="438.17,-127.5 448.17,-124 438.17,-120.5 438.17,-127.5"/>
</g>
<!-- Node4 -->
<g id="node4" class="node">
<title>Node4</title>
<g id="a_node4"><a xlink:href="../../de/d83/classGSDUtil.html#a77b5ebe2817ac868ad1b171f3d7b0cae" target="_top" xlink:title=" ">
<polygon fill="none" stroke="black" points="153.5,-152.5 153.5,-171.5 265.5,-171.5 265.5,-152.5 153.5,-152.5"/>
<text text-anchor="middle" x="209.5" y="-159.5" font-family="Helvetica,sans-Serif" font-size="10.00">GSDUtil::writeHeader</text>
</a>
</g>
</g>
<!-- Node3&#45;&gt;Node4 -->
<g id="edge3" class="edge">
<title>Node3&#45;&gt;Node4</title>
<path fill="none" stroke="midnightblue" d="M309.35,-136.18C289.15,-141.46 265.85,-147.54 246.95,-152.48"/>
<polygon fill="midnightblue" stroke="midnightblue" points="310.49,-139.5 319.28,-133.59 308.72,-132.73 310.49,-139.5"/>
</g>
<!-- Node6 -->
<g id="node6" class="node">
<title>Node6</title>
<g id="a_node6"><a xlink:href="../../de/d83/classGSDUtil.html#aa0dc50cd5e5534260375ad4962511cf0" target="_top" xlink:title=" ">
<polygon fill="none" stroke="black" points="144,-114.5 144,-133.5 275,-133.5 275,-114.5 144,-114.5"/>
<text text-anchor="middle" x="209.5" y="-121.5" font-family="Helvetica,sans-Serif" font-size="10.00">GSDUtil::writeParameters</text>
</a>
</g>
</g>
<!-- Node3&#45;&gt;Node6 -->
<g id="edge5" class="edge">
<title>Node3&#45;&gt;Node6</title>
<path fill="none" stroke="midnightblue" d="M300.49,-124C292.23,-124 283.64,-124 275.21,-124"/>
<polygon fill="midnightblue" stroke="midnightblue" points="300.76,-127.5 310.76,-124 300.76,-120.5 300.76,-127.5"/>
</g>
<!-- Node7 -->
<g id="node7" class="node">
<title>Node7</title>
<g id="a_node7"><a xlink:href="../../de/d83/classGSDUtil.html#a9464315a26a5d5e2c51bb2b4df5ee373" target="_top" xlink:title=" ">
<polygon fill="none" stroke="black" points="150.5,-76.5 150.5,-95.5 268.5,-95.5 268.5,-76.5 150.5,-76.5"/>
<text text-anchor="middle" x="209.5" y="-83.5" font-family="Helvetica,sans-Serif" font-size="10.00">GSDUtil::writeParticles</text>
</a>
</g>
</g>
<!-- Node3&#45;&gt;Node7 -->
<g id="edge7" class="edge">
<title>Node3&#45;&gt;Node7</title>
<path fill="none" stroke="midnightblue" d="M309.35,-111.82C289.15,-106.54 265.85,-100.46 246.95,-95.52"/>
<polygon fill="midnightblue" stroke="midnightblue" points="308.72,-115.27 319.28,-114.41 310.49,-108.5 308.72,-115.27"/>
</g>
<!-- Node5 -->
<g id="node5" class="node">
<title>Node5</title>
<g id="a_node5"><a xlink:href="../../de/d83/classGSDUtil.html#ae76e4a23f0fe0bca3cd44137b56b816b" target="_top" xlink:title=" ">
<polygon fill="none" stroke="black" points="0,-95.5 0,-114.5 108,-114.5 108,-95.5 0,-95.5"/>
<text text-anchor="middle" x="54" y="-102.5" font-family="Helvetica,sans-Serif" font-size="10.00">GSDUtil::writeFrame</text>
</a>
</g>
</g>
<!-- Node4&#45;&gt;Node5 -->
<g id="edge4" class="edge">
<title>Node4&#45;&gt;Node5</title>
<path fill="none" stroke="midnightblue" d="M163.79,-149.57C157.12,-147.5 150.35,-145.28 144,-143 120.13,-134.42 93.45,-122.74 75.59,-114.6"/>
<polygon fill="midnightblue" stroke="midnightblue" points="162.86,-152.94 173.45,-152.48 164.88,-146.24 162.86,-152.94"/>
</g>
<!-- Node6&#45;&gt;Node5 -->
<g id="edge6" class="edge">
<title>Node6&#45;&gt;Node5</title>
<path fill="none" stroke="midnightblue" d="M133.82,-114.76C125.25,-113.7 116.64,-112.63 108.43,-111.61"/>
<polygon fill="midnightblue" stroke="midnightblue" points="133.49,-118.24 143.85,-116 134.35,-111.3 133.49,-118.24"/>
</g>
<!-- Node7&#45;&gt;Node5 -->
<g id="edge8" class="edge">
<title>Node7&#45;&gt;Node5</title>
<path fill="none" stroke="midnightblue" d="M140.23,-94.45C129.44,-95.79 118.43,-97.15 108.06,-98.43"/>
<polygon fill="midnightblue" stroke="midnightblue" points="140.97,-97.89 150.47,-93.18 140.11,-90.94 140.97,-97.89"/>
</g>
<!-- Node9 -->
<g id="node9" class="node">
<title>Node9</title>
<g id="a_node9"><a xlink:href="../../dc/dcb/gsd_8c.html#aa03810337c5eebcbe716d8633eaefc5e" target="_top" xlink:title=" ">
<polygon fill="none" stroke="black" points="314,-38.5 314,-57.5 400,-57.5 400,-38.5 314,-38.5"/>
<text text-anchor="middle" x="357" y="-45.5" font-family="Helvetica,sans-Serif" font-size="10.00">gsd_end_frame</text>
</a>
</g>
</g>
<!-- Node8&#45;&gt;Node9 -->
<g id="edge10" class="edge">
<title>Node8&#45;&gt;Node9</title>
<path fill="none" stroke="midnightblue" d="M428.78,-48C419.02,-48 409.25,-48 400.22,-48"/>
<polygon fill="midnightblue" stroke="midnightblue" points="428.92,-51.5 438.92,-48 428.92,-44.5 428.92,-51.5"/>
</g>
<!-- Node9&#45;&gt;Node5 -->
<g id="edge11" class="edge">
<title>Node9&#45;&gt;Node5</title>
<path fill="none" stroke="midnightblue" d="M303.88,-48.14C260.5,-49.33 197.41,-53.56 144,-67 118.26,-73.48 90.39,-86.43 72.82,-95.4"/>
<polygon fill="midnightblue" stroke="midnightblue" points="304,-51.64 313.92,-47.91 303.84,-44.64 304,-51.64"/>
</g>
</g>
</svg>
