<?xml version="1.0" encoding="UTF-8" standalone="no"?>
<!DOCTYPE svg PUBLIC "-//W3C//DTD SVG 1.1//EN"
 "http://www.w3.org/Graphics/SVG/1.1/DTD/svg11.dtd">
<!-- Generated by graphviz version 2.49.1 (20210923.0004)
 -->
<!-- Title: gsd_index_buffer_sort Pages: 1 -->
<svg width="529pt" height="104pt"
 viewBox="0.00 0.00 529.00 104.00" xmlns="http://www.w3.org/2000/svg" xmlns:xlink="http://www.w3.org/1999/xlink">
<g id="graph0" class="graph" transform="scale(1 1) rotate(0) translate(4 100)">
<title>gsd_index_buffer_sort</title>
<!-- Node1 -->
<g id="node1" class="node">
<title>Node1</title>
<g id="a_node1"><a xlink:title=" ">
<polygon fill="#bfbfbf" stroke="black" points="0,-38.5 0,-57.5 115,-57.5 115,-38.5 0,-38.5"/>
<text text-anchor="middle" x="57.5" y="-45.5" font-family="Helvetica,sans-Serif" font-size="10.00">gsd_index_buffer_sort</text>
</a>
</g>
</g>
<!-- Node2 -->
<g id="node2" class="node">
<title>Node2</title>
<g id="a_node2"><a xlink:href="../../dc/dcb/gsd_8c.html#accc971ec12e75a165ffef6e1ee854681" target="_top" xlink:title=" ">
<polygon fill="none" stroke="black" points="257,-38.5 257,-57.5 371,-57.5 371,-38.5 257,-38.5"/>
<text text-anchor="middle" x="314" y="-45.5" font-family="Helvetica,sans-Serif" font-size="10.00">gsd_heap_shift_down</text>
</a>
</g>
</g>
<!-- Node1&#45;&gt;Node2 -->
<g id="edge1" class="edge">
<title>Node1&#45;&gt;Node2</title>
<path fill="none" stroke="midnightblue" d="M115.3,-48C154.19,-48 205.91,-48 246.7,-48"/>
<polygon fill="midnightblue" stroke="midnightblue" points="246.81,-51.5 256.81,-48 246.81,-44.5 246.81,-51.5"/>
</g>
<!-- Node5 -->
<g id="node5" class="node">
<title>Node5</title>
<g id="a_node5"><a xlink:href="../../dc/dcb/gsd_8c.html#a987a1d460f7ca33476fc57bcc1ff8439" target="_top" xlink:title=" ">
<polygon fill="none" stroke="black" points="419.5,-76.5 419.5,-95.5 508.5,-95.5 508.5,-76.5 419.5,-76.5"/>
<text text-anchor="middle" x="464" y="-83.5" font-family="Helvetica,sans-Serif" font-size="10.00">gsd_heap_swap</text>
</a>
</g>
</g>
<!-- Node1&#45;&gt;Node5 -->
<g id="edge5" class="edge">
<title>Node1&#45;&gt;Node5</title>
<path fill="none" stroke="midnightblue" d="M115.16,-57.25C126.98,-58.99 139.38,-60.68 151,-62 241.31,-72.29 346.85,-79.38 409.13,-83.06"/>
<polygon fill="midnightblue" stroke="midnightblue" points="409.31,-86.58 419.5,-83.67 409.72,-79.59 409.31,-86.58"/>
</g>
<!-- Node6 -->
<g id="node6" class="node">
<title>Node6</title>
<g id="a_node6"><a xlink:href="../../dc/dcb/gsd_8c.html#a0de3f89cdd57571b57401c91feef2f66" target="_top" xlink:title=" ">
<polygon fill="none" stroke="black" points="151,-0.5 151,-19.5 221,-19.5 221,-0.5 151,-0.5"/>
<text text-anchor="middle" x="186" y="-7.5" font-family="Helvetica,sans-Serif" font-size="10.00">gsd_heapify</text>
</a>
</g>
</g>
<!-- Node1&#45;&gt;Node6 -->
<g id="edge6" class="edge">
<title>Node1&#45;&gt;Node6</title>
<path fill="none" stroke="midnightblue" d="M90.42,-38.41C106.45,-33.6 126.07,-27.7 143.28,-22.53"/>
<polygon fill="midnightblue" stroke="midnightblue" points="144.52,-25.81 153.09,-19.59 142.5,-19.11 144.52,-25.81"/>
</g>
<!-- Node3 -->
<g id="node3" class="node">
<title>Node3</title>
<g id="a_node3"><a xlink:href="../../dc/dcb/gsd_8c.html#a3ffe758eed9a5bae487f514a0a45e97d" target="_top" xlink:title=" ">
<polygon fill="none" stroke="black" points="407,-38.5 407,-57.5 521,-57.5 521,-38.5 407,-38.5"/>
<text text-anchor="middle" x="464" y="-45.5" font-family="Helvetica,sans-Serif" font-size="10.00">gsd_cmp_index_entry</text>
</a>
</g>
</g>
<!-- Node2&#45;&gt;Node3 -->
<g id="edge2" class="edge">
<title>Node2&#45;&gt;Node3</title>
<path fill="none" stroke="midnightblue" d="M371.37,-48C379.62,-48 388.18,-48 396.6,-48"/>
<polygon fill="midnightblue" stroke="midnightblue" points="396.78,-51.5 406.78,-48 396.78,-44.5 396.78,-51.5"/>
</g>
<!-- Node4 -->
<g id="node4" class="node">
<title>Node4</title>
<g id="a_node4"><a xlink:href="../../dc/dcb/gsd_8c.html#aaec0ae1e441692725a568aee8c8ef627" target="_top" xlink:title=" ">
<polygon fill="none" stroke="black" points="411.5,-0.5 411.5,-19.5 516.5,-19.5 516.5,-0.5 411.5,-0.5"/>
<text text-anchor="middle" x="464" y="-7.5" font-family="Helvetica,sans-Serif" font-size="10.00">gsd_heap_left_child</text>
</a>
</g>
</g>
<!-- Node2&#45;&gt;Node4 -->
<g id="edge3" class="edge">
<title>Node2&#45;&gt;Node4</title>
<path fill="none" stroke="midnightblue" d="M352.35,-38.41C371.7,-33.44 395.53,-27.32 416.11,-22.04"/>
<polygon fill="midnightblue" stroke="midnightblue" points="417.11,-25.4 425.92,-19.52 415.37,-18.62 417.11,-25.4"/>
</g>
<!-- Node2&#45;&gt;Node5 -->
<g id="edge4" class="edge">
<title>Node2&#45;&gt;Node5</title>
<path fill="none" stroke="midnightblue" d="M352.35,-57.59C371.7,-62.56 395.53,-68.68 416.11,-73.96"/>
<polygon fill="midnightblue" stroke="midnightblue" points="415.37,-77.38 425.92,-76.48 417.11,-70.6 415.37,-77.38"/>
</g>
<!-- Node6&#45;&gt;Node2 -->
<g id="edge8" class="edge">
<title>Node6&#45;&gt;Node2</title>
<path fill="none" stroke="midnightblue" d="M218.8,-19.59C234.76,-24.4 254.31,-30.3 271.45,-35.47"/>
<polygon fill="midnightblue" stroke="midnightblue" points="270.63,-38.88 281.22,-38.41 272.65,-32.18 270.63,-38.88"/>
</g>
<!-- Node7 -->
<g id="node7" class="node">
<title>Node7</title>
<g id="a_node7"><a xlink:href="../../dc/dcb/gsd_8c.html#ab7b8e133941184a32c2d90414dfba6a5" target="_top" xlink:title=" ">
<polygon fill="none" stroke="black" points="267,-0.5 267,-19.5 361,-19.5 361,-0.5 267,-0.5"/>
<text text-anchor="middle" x="314" y="-7.5" font-family="Helvetica,sans-Serif" font-size="10.00">gsd_heap_parent</text>
</a>
</g>
</g>
<!-- Node6&#45;&gt;Node7 -->
<g id="edge7" class="edge">
<title>Node6&#45;&gt;Node7</title>
<path fill="none" stroke="midnightblue" d="M221.1,-10C232.03,-10 244.44,-10 256.53,-10"/>
<polygon fill="midnightblue" stroke="midnightblue" points="256.57,-13.5 266.57,-10 256.57,-6.5 256.57,-13.5"/>
</g>
</g>
</svg>
