<?xml version="1.0" encoding="UTF-8" standalone="no"?>
<!DOCTYPE svg PUBLIC "-//W3C//DTD SVG 1.1//EN"
 "http://www.w3.org/Graphics/SVG/1.1/DTD/svg11.dtd">
<!-- Generated by graphviz version 2.49.1 (20210923.0004)
 -->
<!-- Title: src/helpers/cuda/helper_multiprocess.cpp Pages: 1 -->
<svg width="806pt" height="151pt"
 viewBox="0.00 0.00 806.00 151.00" xmlns="http://www.w3.org/2000/svg" xmlns:xlink="http://www.w3.org/1999/xlink">
<g id="graph0" class="graph" transform="scale(1 1) rotate(0) translate(4 147)">
<title>src/helpers/cuda/helper_multiprocess.cpp</title>
<!-- Node1 -->
<g id="node1" class="node">
<title>Node1</title>
<g id="a_node1"><a xlink:title=" ">
<polygon fill="#bfbfbf" stroke="black" points="418,-112.5 418,-142.5 538,-142.5 538,-112.5 418,-112.5"/>
<text text-anchor="start" x="426" y="-130.5" font-family="Helvetica,sans-Serif" font-size="10.00">src/helpers/cuda/helper</text>
<text text-anchor="middle" x="478" y="-119.5" font-family="Helvetica,sans-Serif" font-size="10.00">_multiprocess.cpp</text>
</a>
</g>
</g>
<!-- Node2 -->
<g id="node2" class="node">
<title>Node2</title>
<g id="a_node2"><a xlink:href="../../df/df9/helper__multiprocess_8h.html" target="_top" xlink:title=" ">
<polygon fill="none" stroke="black" points="323,-56.5 323,-75.5 437,-75.5 437,-56.5 323,-56.5"/>
<text text-anchor="middle" x="380" y="-63.5" font-family="Helvetica,sans-Serif" font-size="10.00">helper_multiprocess.h</text>
</a>
</g>
</g>
<!-- Node1&#45;&gt;Node2 -->
<g id="edge1" class="edge">
<title>Node1&#45;&gt;Node2</title>
<path fill="none" stroke="midnightblue" d="M454.78,-112.4C439.21,-102.95 418.8,-90.56 403.24,-81.11"/>
<polygon fill="midnightblue" stroke="midnightblue" points="404.62,-77.86 394.26,-75.66 400.99,-83.84 404.62,-77.86"/>
</g>
<!-- Node14 -->
<g id="node14" class="node">
<title>Node14</title>
<g id="a_node14"><a xlink:title=" ">
<polygon fill="none" stroke="#bfbfbf" points="455.5,-56.5 455.5,-75.5 500.5,-75.5 500.5,-56.5 455.5,-56.5"/>
<text text-anchor="middle" x="478" y="-63.5" font-family="Helvetica,sans-Serif" font-size="10.00">cstdlib</text>
</a>
</g>
</g>
<!-- Node1&#45;&gt;Node14 -->
<g id="edge13" class="edge">
<title>Node1&#45;&gt;Node14</title>
<path fill="none" stroke="midnightblue" d="M478,-112.4C478,-104.47 478,-94.46 478,-85.86"/>
<polygon fill="midnightblue" stroke="midnightblue" points="481.5,-85.66 478,-75.66 474.5,-85.66 481.5,-85.66"/>
</g>
<!-- Node15 -->
<g id="node15" class="node">
<title>Node15</title>
<g id="a_node15"><a xlink:title=" ">
<polygon fill="none" stroke="#bfbfbf" points="518.5,-56.5 518.5,-75.5 559.5,-75.5 559.5,-56.5 518.5,-56.5"/>
<text text-anchor="middle" x="539" y="-63.5" font-family="Helvetica,sans-Serif" font-size="10.00">string</text>
</a>
</g>
</g>
<!-- Node1&#45;&gt;Node15 -->
<g id="edge14" class="edge">
<title>Node1&#45;&gt;Node15</title>
<path fill="none" stroke="midnightblue" d="M492.46,-112.4C501.59,-103.49 513.42,-91.95 522.86,-82.74"/>
<polygon fill="midnightblue" stroke="midnightblue" points="525.41,-85.15 530.12,-75.66 520.52,-80.13 525.41,-85.15"/>
</g>
<!-- Node3 -->
<g id="node3" class="node">
<title>Node3</title>
<g id="a_node3"><a xlink:title=" ">
<polygon fill="none" stroke="#bfbfbf" points="0,-0.5 0,-19.5 46,-19.5 46,-0.5 0,-0.5"/>
<text text-anchor="middle" x="23" y="-7.5" font-family="Helvetica,sans-Serif" font-size="10.00">stdio.h</text>
</a>
</g>
</g>
<!-- Node2&#45;&gt;Node3 -->
<g id="edge2" class="edge">
<title>Node2&#45;&gt;Node3</title>
<path fill="none" stroke="midnightblue" d="M322.94,-59.49C259.82,-52.85 155.01,-40.26 56.18,-20.01"/>
<polygon fill="midnightblue" stroke="midnightblue" points="56.83,-16.57 46.33,-17.96 55.41,-23.42 56.83,-16.57"/>
</g>
<!-- Node4 -->
<g id="node4" class="node">
<title>Node4</title>
<g id="a_node4"><a xlink:title=" ">
<polygon fill="none" stroke="#bfbfbf" points="64.5,-0.5 64.5,-19.5 107.5,-19.5 107.5,-0.5 64.5,-0.5"/>
<text text-anchor="middle" x="86" y="-7.5" font-family="Helvetica,sans-Serif" font-size="10.00">fcntl.h</text>
</a>
</g>
</g>
<!-- Node2&#45;&gt;Node4 -->
<g id="edge3" class="edge">
<title>Node2&#45;&gt;Node4</title>
<path fill="none" stroke="midnightblue" d="M322.94,-57.14C271.61,-49.64 194,-37.24 117.42,-19.87"/>
<polygon fill="midnightblue" stroke="midnightblue" points="118.13,-16.44 107.6,-17.61 116.56,-23.26 118.13,-16.44"/>
</g>
<!-- Node5 -->
<g id="node5" class="node">
<title>Node5</title>
<g id="a_node5"><a xlink:title=" ">
<polygon fill="none" stroke="#bfbfbf" points="126,-0.5 126,-19.5 196,-19.5 196,-0.5 126,-0.5"/>
<text text-anchor="middle" x="161" y="-7.5" font-family="Helvetica,sans-Serif" font-size="10.00">sys/mman.h</text>
</a>
</g>
</g>
<!-- Node2&#45;&gt;Node5 -->
<g id="edge4" class="edge">
<title>Node2&#45;&gt;Node5</title>
<path fill="none" stroke="midnightblue" d="M345.3,-56.44C307.42,-47.1 246.65,-32.12 205.34,-21.93"/>
<polygon fill="midnightblue" stroke="midnightblue" points="206.09,-18.51 195.54,-19.52 204.41,-25.31 206.09,-18.51"/>
</g>
<!-- Node6 -->
<g id="node6" class="node">
<title>Node6</title>
<g id="a_node6"><a xlink:title=" ">
<polygon fill="none" stroke="#bfbfbf" points="214,-0.5 214,-19.5 266,-19.5 266,-0.5 214,-0.5"/>
<text text-anchor="middle" x="240" y="-7.5" font-family="Helvetica,sans-Serif" font-size="10.00">unistd.h</text>
</a>
</g>
</g>
<!-- Node2&#45;&gt;Node6 -->
<g id="edge5" class="edge">
<title>Node2&#45;&gt;Node6</title>
<path fill="none" stroke="midnightblue" d="M357.82,-56.44C334.57,-47.48 297.85,-33.31 271.58,-23.18"/>
<polygon fill="midnightblue" stroke="midnightblue" points="272.67,-19.85 262.08,-19.52 270.15,-26.38 272.67,-19.85"/>
</g>
<!-- Node7 -->
<g id="node7" class="node">
<title>Node7</title>
<g id="a_node7"><a xlink:title=" ">
<polygon fill="none" stroke="#bfbfbf" points="284,-0.5 284,-19.5 332,-19.5 332,-0.5 284,-0.5"/>
<text text-anchor="middle" x="308" y="-7.5" font-family="Helvetica,sans-Serif" font-size="10.00">errno.h</text>
</a>
</g>
</g>
<!-- Node2&#45;&gt;Node7 -->
<g id="edge6" class="edge">
<title>Node2&#45;&gt;Node7</title>
<path fill="none" stroke="midnightblue" d="M368.43,-56.32C357.58,-48.18 341.12,-35.84 328.12,-26.09"/>
<polygon fill="midnightblue" stroke="midnightblue" points="329.88,-23.03 319.78,-19.83 325.68,-28.63 329.88,-23.03"/>
</g>
<!-- Node8 -->
<g id="node8" class="node">
<title>Node8</title>
<g id="a_node8"><a xlink:title=" ">
<polygon fill="none" stroke="#bfbfbf" points="350,-0.5 350,-19.5 410,-19.5 410,-0.5 350,-0.5"/>
<text text-anchor="middle" x="380" y="-7.5" font-family="Helvetica,sans-Serif" font-size="10.00">sys/wait.h</text>
</a>
</g>
</g>
<!-- Node2&#45;&gt;Node8 -->
<g id="edge7" class="edge">
<title>Node2&#45;&gt;Node8</title>
<path fill="none" stroke="midnightblue" d="M380,-56.08C380,-49.01 380,-38.86 380,-29.99"/>
<polygon fill="midnightblue" stroke="midnightblue" points="383.5,-29.75 380,-19.75 376.5,-29.75 383.5,-29.75"/>
</g>
<!-- Node9 -->
<g id="node9" class="node">
<title>Node9</title>
<g id="a_node9"><a xlink:title=" ">
<polygon fill="none" stroke="#bfbfbf" points="428.5,-0.5 428.5,-19.5 495.5,-19.5 495.5,-0.5 428.5,-0.5"/>
<text text-anchor="middle" x="462" y="-7.5" font-family="Helvetica,sans-Serif" font-size="10.00">sys/types.h</text>
</a>
</g>
</g>
<!-- Node2&#45;&gt;Node9 -->
<g id="edge8" class="edge">
<title>Node2&#45;&gt;Node9</title>
<path fill="none" stroke="midnightblue" d="M393.17,-56.32C405.85,-47.98 425.23,-35.21 440.21,-25.35"/>
<polygon fill="midnightblue" stroke="midnightblue" points="442.43,-28.08 448.86,-19.65 438.58,-22.23 442.43,-28.08"/>
</g>
<!-- Node10 -->
<g id="node10" class="node">
<title>Node10</title>
<g id="a_node10"><a xlink:title=" ">
<polygon fill="none" stroke="#bfbfbf" points="514,-0.5 514,-19.5 586,-19.5 586,-0.5 514,-0.5"/>
<text text-anchor="middle" x="550" y="-7.5" font-family="Helvetica,sans-Serif" font-size="10.00">sys/socket.h</text>
</a>
</g>
</g>
<!-- Node2&#45;&gt;Node10 -->
<g id="edge9" class="edge">
<title>Node2&#45;&gt;Node10</title>
<path fill="none" stroke="midnightblue" d="M406.94,-56.44C435.66,-47.32 481.33,-32.81 513.32,-22.65"/>
<polygon fill="midnightblue" stroke="midnightblue" points="514.72,-25.88 523.19,-19.52 512.6,-19.21 514.72,-25.88"/>
</g>
<!-- Node11 -->
<g id="node11" class="node">
<title>Node11</title>
<g id="a_node11"><a xlink:title=" ">
<polygon fill="none" stroke="#bfbfbf" points="604,-0.5 604,-19.5 664,-19.5 664,-0.5 604,-0.5"/>
<text text-anchor="middle" x="634" y="-7.5" font-family="Helvetica,sans-Serif" font-size="10.00">memory.h</text>
</a>
</g>
</g>
<!-- Node2&#45;&gt;Node11 -->
<g id="edge10" class="edge">
<title>Node2&#45;&gt;Node11</title>
<path fill="none" stroke="midnightblue" d="M422.08,-56.46C463.34,-48.02 528.3,-34.59 593.71,-20.25"/>
<polygon fill="midnightblue" stroke="midnightblue" points="594.76,-23.6 603.78,-18.04 593.26,-16.77 594.76,-23.6"/>
</g>
<!-- Node12 -->
<g id="node12" class="node">
<title>Node12</title>
<g id="a_node12"><a xlink:title=" ">
<polygon fill="none" stroke="#bfbfbf" points="682,-0.5 682,-19.5 736,-19.5 736,-0.5 682,-0.5"/>
<text text-anchor="middle" x="709" y="-7.5" font-family="Helvetica,sans-Serif" font-size="10.00">sys/un.h</text>
</a>
</g>
</g>
<!-- Node2&#45;&gt;Node12 -->
<g id="edge11" class="edge">
<title>Node2&#45;&gt;Node12</title>
<path fill="none" stroke="midnightblue" d="M437.11,-56.87C504.96,-47.11 615.16,-30.89 671.97,-20.02"/>
<polygon fill="midnightblue" stroke="midnightblue" points="672.8,-23.42 681.93,-18.05 671.45,-16.55 672.8,-23.42"/>
</g>
<!-- Node13 -->
<g id="node13" class="node">
<title>Node13</title>
<g id="a_node13"><a xlink:title=" ">
<polygon fill="none" stroke="#bfbfbf" points="754,-0.5 754,-19.5 798,-19.5 798,-0.5 754,-0.5"/>
<text text-anchor="middle" x="776" y="-7.5" font-family="Helvetica,sans-Serif" font-size="10.00">vector</text>
</a>
</g>
</g>
<!-- Node2&#45;&gt;Node13 -->
<g id="edge12" class="edge">
<title>Node2&#45;&gt;Node13</title>
<path fill="none" stroke="midnightblue" d="M437.01,-57.29C440.39,-56.85 443.74,-56.42 447,-56 576.1,-39.53 612.52,-46.33 743.73,-19.97"/>
<polygon fill="midnightblue" stroke="midnightblue" points="744.66,-23.35 753.76,-17.93 743.26,-16.49 744.66,-23.35"/>
</g>
</g>
</svg>
