<?xml version="1.0" encoding="UTF-8" standalone="no"?>
<!DOCTYPE svg PUBLIC "-//W3C//DTD SVG 1.1//EN"
 "http://www.w3.org/Graphics/SVG/1.1/DTD/svg11.dtd">
<!-- Generated by graphviz version 2.49.1 (20210923.0004)
 -->
<!-- Title: src/data_io/gsd.h Pages: 1 -->
<svg width="619pt" height="408pt"
 viewBox="0.00 0.00 619.00 408.00" xmlns="http://www.w3.org/2000/svg" xmlns:xlink="http://www.w3.org/1999/xlink">
<g id="graph0" class="graph" transform="scale(1 1) rotate(0) translate(4 404)">
<title>src/data_io/gsd.h</title>
<!-- Node1 -->
<g id="node1" class="node">
<title>Node1</title>
<g id="a_node1"><a xlink:title="Declare GSD data types and C API.">
<polygon fill="#bfbfbf" stroke="black" points="428,-380.5 428,-399.5 521,-399.5 521,-380.5 428,-380.5"/>
<text text-anchor="middle" x="474.5" y="-387.5" font-family="Helvetica,sans-Serif" font-size="10.00">src/data_io/gsd.h</text>
</a>
</g>
</g>
<!-- Node2 -->
<g id="node2" class="node">
<title>Node2</title>
<g id="a_node2"><a xlink:href="../../d3/d77/GSDUtil_8hpp.html" target="_top" xlink:title=" ">
<polygon fill="none" stroke="black" points="322.5,-324.5 322.5,-343.5 446.5,-343.5 446.5,-324.5 322.5,-324.5"/>
<text text-anchor="middle" x="384.5" y="-331.5" font-family="Helvetica,sans-Serif" font-size="10.00">src/data_io/GSDUtil.hpp</text>
</a>
</g>
</g>
<!-- Node1&#45;&gt;Node2 -->
<g id="edge1" class="edge">
<title>Node1&#45;&gt;Node2</title>
<path fill="none" stroke="midnightblue" d="M451.46,-375.18C434.9,-365.24 413.08,-352.15 398.92,-343.65"/>
<polygon fill="midnightblue" stroke="midnightblue" points="449.66,-378.18 460.04,-380.32 453.27,-372.18 449.66,-378.18"/>
</g>
<!-- Node4 -->
<g id="node4" class="node">
<title>Node4</title>
<g id="a_node4"><a xlink:href="../../d2/d7b/systemData_8hpp.html" target="_top" xlink:title=" ">
<polygon fill="none" stroke="black" points="372,-257.5 372,-287.5 487,-287.5 487,-257.5 372,-257.5"/>
<text text-anchor="start" x="380" y="-275.5" font-family="Helvetica,sans-Serif" font-size="10.00">src/simulation_system</text>
<text text-anchor="middle" x="429.5" y="-264.5" font-family="Helvetica,sans-Serif" font-size="10.00">/systemData.hpp</text>
</a>
</g>
</g>
<!-- Node1&#45;&gt;Node4 -->
<g id="edge18" class="edge">
<title>Node1&#45;&gt;Node4</title>
<path fill="none" stroke="midnightblue" d="M470.14,-370.65C466.76,-357.45 461.63,-339.35 455.5,-324 450.45,-311.36 443.29,-297.67 437.76,-287.74"/>
<polygon fill="midnightblue" stroke="midnightblue" points="466.75,-371.54 472.55,-380.41 473.55,-369.86 466.75,-371.54"/>
</g>
<!-- Node13 -->
<g id="node13" class="node">
<title>Node13</title>
<g id="a_node13"><a xlink:href="../../dc/dcb/gsd_8c.html" target="_top" xlink:title="Implements the GSD C API.">
<polygon fill="none" stroke="black" points="502.5,-324.5 502.5,-343.5 594.5,-343.5 594.5,-324.5 502.5,-324.5"/>
<text text-anchor="middle" x="548.5" y="-331.5" font-family="Helvetica,sans-Serif" font-size="10.00">src/data_io/gsd.c</text>
</a>
</g>
</g>
<!-- Node1&#45;&gt;Node13 -->
<g id="edge17" class="edge">
<title>Node1&#45;&gt;Node13</title>
<path fill="none" stroke="midnightblue" d="M494.53,-374.38C507.91,-364.62 525.06,-352.11 536.39,-343.83"/>
<polygon fill="midnightblue" stroke="midnightblue" points="492.4,-371.6 486.39,-380.32 496.53,-377.26 492.4,-371.6"/>
</g>
<!-- Node3 -->
<g id="node3" class="node">
<title>Node3</title>
<g id="a_node3"><a xlink:href="../../dc/df3/GSDUtil_8cpp.html" target="_top" xlink:title=" ">
<polygon fill="none" stroke="black" points="231,-263 231,-282 354,-282 354,-263 231,-263"/>
<text text-anchor="middle" x="292.5" y="-270" font-family="Helvetica,sans-Serif" font-size="10.00">src/data_io/GSDUtil.cpp</text>
</a>
</g>
</g>
<!-- Node2&#45;&gt;Node3 -->
<g id="edge2" class="edge">
<title>Node2&#45;&gt;Node3</title>
<path fill="none" stroke="midnightblue" d="M362.74,-318.93C345.01,-307.46 320.54,-291.63 305.66,-282.01"/>
<polygon fill="midnightblue" stroke="midnightblue" points="361.02,-321.98 371.32,-324.48 364.82,-316.11 361.02,-321.98"/>
</g>
<!-- Node2&#45;&gt;Node4 -->
<g id="edge3" class="edge">
<title>Node2&#45;&gt;Node4</title>
<path fill="none" stroke="midnightblue" d="M391.4,-315.68C397.33,-306.73 405.61,-295.94 413.06,-287.52"/>
<polygon fill="midnightblue" stroke="midnightblue" points="388.26,-314.11 386.05,-324.48 394.24,-317.75 388.26,-314.11"/>
</g>
<!-- Node4&#45;&gt;Node2 -->
<g id="edge4" class="edge">
<title>Node4&#45;&gt;Node2</title>
<path fill="none" stroke="midnightblue" d="M419.14,-295.87C412.11,-305.85 403.11,-317.02 395.85,-324.48"/>
<polygon fill="midnightblue" stroke="midnightblue" points="422.08,-297.78 424.72,-287.52 416.26,-293.89 422.08,-297.78"/>
</g>
<!-- Node5 -->
<g id="node5" class="node">
<title>Node5</title>
<g id="a_node5"><a xlink:href="../../dc/dbe/potentialHydrodynamics_8hpp.html" target="_top" xlink:title=" ">
<polygon fill="none" stroke="black" points="194,-196 194,-215 383,-215 383,-196 194,-196"/>
<text text-anchor="middle" x="288.5" y="-203" font-family="Helvetica,sans-Serif" font-size="10.00">src/forces/potentialHydrodynamics.hpp</text>
</a>
</g>
</g>
<!-- Node4&#45;&gt;Node5 -->
<g id="edge5" class="edge">
<title>Node4&#45;&gt;Node5</title>
<path fill="none" stroke="midnightblue" d="M389.65,-253.13C362.52,-240.62 327.85,-224.64 306.95,-215.01"/>
<polygon fill="midnightblue" stroke="midnightblue" points="388.36,-256.39 398.91,-257.4 391.29,-250.03 388.36,-256.39"/>
</g>
<!-- Node7 -->
<g id="node7" class="node">
<title>Node7</title>
<g id="a_node7"><a xlink:href="../../d3/d8e/rungeKutta4_8hpp.html" target="_top" xlink:title=" ">
<polygon fill="none" stroke="black" points="0,-134.5 0,-153.5 157,-153.5 157,-134.5 0,-134.5"/>
<text text-anchor="middle" x="78.5" y="-141.5" font-family="Helvetica,sans-Serif" font-size="10.00">src/integrators/rungeKutta4.hpp</text>
</a>
</g>
</g>
<!-- Node4&#45;&gt;Node7 -->
<g id="edge13" class="edge">
<title>Node4&#45;&gt;Node7</title>
<path fill="none" stroke="midnightblue" d="M361.91,-256.76C282.05,-241.24 256.01,-252.1 184.5,-221 144.63,-203.66 104.94,-169.58 87.59,-153.62"/>
<polygon fill="midnightblue" stroke="midnightblue" points="361.42,-260.23 371.92,-258.79 362.81,-253.37 361.42,-260.23"/>
</g>
<!-- Node9 -->
<g id="node9" class="node">
<title>Node9</title>
<g id="a_node9"><a xlink:href="../../de/d46/engine_8hpp.html" target="_top" xlink:title=" ">
<polygon fill="none" stroke="black" points="324,-67.5 324,-97.5 439,-97.5 439,-67.5 324,-67.5"/>
<text text-anchor="start" x="332" y="-85.5" font-family="Helvetica,sans-Serif" font-size="10.00">src/simulation_system</text>
<text text-anchor="middle" x="381.5" y="-74.5" font-family="Helvetica,sans-Serif" font-size="10.00">/engine.hpp</text>
</a>
</g>
</g>
<!-- Node4&#45;&gt;Node9 -->
<g id="edge15" class="edge">
<title>Node4&#45;&gt;Node9</title>
<path fill="none" stroke="midnightblue" d="M423.36,-247.47C413.21,-207.7 393.23,-129.44 385.08,-97.54"/>
<polygon fill="midnightblue" stroke="midnightblue" points="420.03,-248.55 425.89,-257.37 426.81,-246.81 420.03,-248.55"/>
</g>
<!-- Node10 -->
<g id="node10" class="node">
<title>Node10</title>
<g id="a_node10"><a xlink:href="../../df/d0a/main_8cpp.html" target="_top" xlink:title=" ">
<polygon fill="none" stroke="black" points="431,-6 431,-25 504,-25 504,-6 431,-6"/>
<text text-anchor="middle" x="467.5" y="-13" font-family="Helvetica,sans-Serif" font-size="10.00">src/main.cpp</text>
</a>
</g>
</g>
<!-- Node4&#45;&gt;Node10 -->
<g id="edge14" class="edge">
<title>Node4&#45;&gt;Node10</title>
<path fill="none" stroke="midnightblue" d="M433.12,-247.21C441.32,-192.21 460.99,-60.19 466.21,-25.16"/>
<polygon fill="midnightblue" stroke="midnightblue" points="429.61,-247.02 431.6,-257.43 436.53,-248.05 429.61,-247.02"/>
</g>
<!-- Node12 -->
<g id="node12" class="node">
<title>Node12</title>
<g id="a_node12"><a xlink:href="../../d1/d4a/systemData_8cpp.html" target="_top" xlink:title=" ">
<polygon fill="none" stroke="black" points="496,-190.5 496,-220.5 611,-220.5 611,-190.5 496,-190.5"/>
<text text-anchor="start" x="504" y="-208.5" font-family="Helvetica,sans-Serif" font-size="10.00">src/simulation_system</text>
<text text-anchor="middle" x="553.5" y="-197.5" font-family="Helvetica,sans-Serif" font-size="10.00">/systemData.cpp</text>
</a>
</g>
</g>
<!-- Node4&#45;&gt;Node12 -->
<g id="edge16" class="edge">
<title>Node4&#45;&gt;Node12</title>
<path fill="none" stroke="midnightblue" d="M465.34,-252.71C484.89,-242.46 508.7,-229.98 526.65,-220.58"/>
<polygon fill="midnightblue" stroke="midnightblue" points="463.64,-249.65 456.41,-257.4 466.89,-255.85 463.64,-249.65"/>
</g>
<!-- Node6 -->
<g id="node6" class="node">
<title>Node6</title>
<g id="a_node6"><a xlink:href="../../d1/d95/potentialHydrodynamics_8cpp.html" target="_top" xlink:title=" ">
<polygon fill="none" stroke="black" points="175.5,-134.5 175.5,-153.5 363.5,-153.5 363.5,-134.5 175.5,-134.5"/>
<text text-anchor="middle" x="269.5" y="-141.5" font-family="Helvetica,sans-Serif" font-size="10.00">src/forces/potentialHydrodynamics.cpp</text>
</a>
</g>
</g>
<!-- Node5&#45;&gt;Node6 -->
<g id="edge6" class="edge">
<title>Node5&#45;&gt;Node6</title>
<path fill="none" stroke="midnightblue" d="M282.64,-186.16C279.17,-175.27 274.92,-161.99 272.22,-153.51"/>
<polygon fill="midnightblue" stroke="midnightblue" points="279.4,-187.51 285.78,-195.98 286.07,-185.38 279.4,-187.51"/>
</g>
<!-- Node5&#45;&gt;Node7 -->
<g id="edge7" class="edge">
<title>Node5&#45;&gt;Node7</title>
<path fill="none" stroke="midnightblue" d="M248.53,-193.18C207.73,-181.61 145.31,-163.93 108.53,-153.51"/>
<polygon fill="midnightblue" stroke="midnightblue" points="247.84,-196.62 258.41,-195.98 249.74,-189.88 247.84,-196.62"/>
</g>
<!-- Node5&#45;&gt;Node9 -->
<g id="edge12" class="edge">
<title>Node5&#45;&gt;Node9</title>
<path fill="none" stroke="midnightblue" d="M323.98,-191.83C341.43,-183.74 361.12,-171.43 372.5,-154 383.56,-137.05 384.14,-112.89 383.13,-97.71"/>
<polygon fill="midnightblue" stroke="midnightblue" points="322.36,-188.72 314.58,-195.9 325.14,-195.14 322.36,-188.72"/>
</g>
<!-- Node8 -->
<g id="node8" class="node">
<title>Node8</title>
<g id="a_node8"><a xlink:href="../../da/dc5/rungeKutta4_8cpp.html" target="_top" xlink:title=" ">
<polygon fill="none" stroke="black" points="0.5,-73 0.5,-92 156.5,-92 156.5,-73 0.5,-73"/>
<text text-anchor="middle" x="78.5" y="-80" font-family="Helvetica,sans-Serif" font-size="10.00">src/integrators/rungeKutta4.cpp</text>
</a>
</g>
</g>
<!-- Node7&#45;&gt;Node8 -->
<g id="edge8" class="edge">
<title>Node7&#45;&gt;Node8</title>
<path fill="none" stroke="midnightblue" d="M78.5,-124.32C78.5,-113.5 78.5,-100.4 78.5,-92.01"/>
<polygon fill="midnightblue" stroke="midnightblue" points="75,-124.48 78.5,-134.48 82,-124.48 75,-124.48"/>
</g>
<!-- Node7&#45;&gt;Node9 -->
<g id="edge9" class="edge">
<title>Node7&#45;&gt;Node9</title>
<path fill="none" stroke="midnightblue" d="M131.95,-132.5C185.8,-121.93 268.64,-105.66 323.92,-94.81"/>
<polygon fill="midnightblue" stroke="midnightblue" points="131.05,-129.11 121.91,-134.48 132.4,-135.98 131.05,-129.11"/>
</g>
<!-- Node9&#45;&gt;Node10 -->
<g id="edge10" class="edge">
<title>Node9&#45;&gt;Node10</title>
<path fill="none" stroke="midnightblue" d="M408.17,-61.34C424.22,-49.21 443.83,-34.39 456,-25.19"/>
<polygon fill="midnightblue" stroke="midnightblue" points="406.03,-58.57 400.16,-67.4 410.25,-64.16 406.03,-58.57"/>
</g>
<!-- Node11 -->
<g id="node11" class="node">
<title>Node11</title>
<g id="a_node11"><a xlink:href="../../da/d5c/engine_8cpp.html" target="_top" xlink:title=" ">
<polygon fill="none" stroke="black" points="298,-0.5 298,-30.5 413,-30.5 413,-0.5 298,-0.5"/>
<text text-anchor="start" x="306" y="-18.5" font-family="Helvetica,sans-Serif" font-size="10.00">src/simulation_system</text>
<text text-anchor="middle" x="355.5" y="-7.5" font-family="Helvetica,sans-Serif" font-size="10.00">/engine.cpp</text>
</a>
</g>
</g>
<!-- Node9&#45;&gt;Node11 -->
<g id="edge11" class="edge">
<title>Node9&#45;&gt;Node11</title>
<path fill="none" stroke="midnightblue" d="M372.1,-57.99C368.42,-48.8 364.33,-38.58 361.13,-30.58"/>
<polygon fill="midnightblue" stroke="midnightblue" points="368.89,-59.41 375.86,-67.4 375.39,-56.81 368.89,-59.41"/>
</g>
</g>
</svg>
